<?xml version="1.0" encoding="UTF-8" standalone="no"?>
<!DOCTYPE svg PUBLIC "-//W3C//DTD SVG 1.1//EN"
 "http://www.w3.org/Graphics/SVG/1.1/DTD/svg11.dtd">
<!-- Generated by graphviz version 2.40.1 (20161225.0304)
 -->
<!-- Title: %3 Pages: 1 -->
<svg width="1136pt" height="188pt"
 viewBox="0.00 0.00 1136.14 188.00" xmlns="http://www.w3.org/2000/svg" xmlns:xlink="http://www.w3.org/1999/xlink">
<g id="graph0" class="graph" transform="scale(1 1) rotate(0) translate(4 184)">
<title>%3</title>
<polygon fill="#ffffff" stroke="transparent" points="-4,4 -4,-184 1132.1424,-184 1132.1424,4 -4,4"/>
<!-- AmountOfSubstance -->
<g id="node1" class="node">
<title>AmountOfSubstance</title>
<g id="a_node1"><a xlink:href="http://emmo.info/emmo/middle/isq#EMMO_8159c26a_494b_4fa0_9959_10888f152298" xlink:title="AmountOfSubstance">
<ellipse fill="#ffffcc" stroke="#000000" cx="85.1424" cy="-18" rx="85.2851" ry="18"/>
<text text-anchor="middle" x="85.1424" y="-14.3" font-family="Times,serif" font-size="14.00" fill="#000000">AmountOfSubstance</text>
</a>
</g>
</g>
<!-- ISQBaseQuantity -->
<g id="node3" class="node">
<title>ISQBaseQuantity</title>
<g id="a_node3"><a xlink:href="http://emmo.info/emmo/middle/isq#EMMO_1a4c1a97_88a7_4d8e_b2f9_2ca58e92dde4" xlink:title="ISQBaseQuantity">
<ellipse fill="#ffffcc" stroke="#000000" cx="444.1424" cy="-90" rx="72.5877" ry="18"/>
<text text-anchor="middle" x="444.1424" y="-86.3" font-family="Times,serif" font-size="14.00" fill="#000000">ISQBaseQuantity</text>
</a>
</g>
</g>
<!-- AmountOfSubstance&#45;&gt;ISQBaseQuantity -->
<g id="edge7" class="edge">
<title>AmountOfSubstance&#45;&gt;ISQBaseQuantity</title>
<path fill="none" stroke="#000000" d="M147.2656,-30.4592C211.594,-43.3608 311.7378,-63.4453 377.6376,-76.662"/>
<polygon fill="none" stroke="#000000" points="377.0132,-80.1064 387.5062,-78.6412 378.3897,-73.243 377.0132,-80.1064"/>
</g>
<!-- ElectricCurrent -->
<g id="node2" class="node">
<title>ElectricCurrent</title>
<g id="a_node2"><a xlink:href="http://emmo.info/emmo/middle/isq#EMMO_c995ae70_3b84_4ebb_bcfc_69e6a281bb88" xlink:title="ElectricCurrent">
<ellipse fill="#ffffcc" stroke="#000000" cx="253.1424" cy="-18" rx="64.9885" ry="18"/>
<text text-anchor="middle" x="253.1424" y="-14.3" font-family="Times,serif" font-size="14.00" fill="#000000">ElectricCurrent</text>
</a>
</g>
</g>
<!-- ElectricCurrent&#45;&gt;ISQBaseQuantity -->
<g id="edge3" class="edge">
<title>ElectricCurrent&#45;&gt;ISQBaseQuantity</title>
<path fill="none" stroke="#000000" d="M291.7941,-32.5703C321.3312,-43.7047 362.2754,-59.1391 394.2796,-71.2035"/>
<polygon fill="none" stroke="#000000" points="393.3106,-74.5786 403.9024,-74.831 395.7798,-68.0286 393.3106,-74.5786"/>
</g>
<!-- BaseQuantity -->
<g id="node4" class="node">
<title>BaseQuantity</title>
<g id="a_node4"><a xlink:href="http://emmo.info/emmo/middle/metrology#EMMO_acaaa124_3dde_48b6_86e6_6ec6f364f408" xlink:title="BaseQuantity">
<ellipse fill="#ffffcc" stroke="#000000" stroke-width="2" cx="444.1424" cy="-162" rx="58.4896" ry="18"/>
<text text-anchor="middle" x="444.1424" y="-158.3" font-family="Times,serif" font-size="14.00" fill="#000000">BaseQuantity</text>
</a>
</g>
</g>
<!-- ISQBaseQuantity&#45;&gt;BaseQuantity -->
<g id="edge2" class="edge">
<title>ISQBaseQuantity&#45;&gt;BaseQuantity</title>
<path fill="none" stroke="#000000" d="M444.1424,-108.1686C444.1424,-115.869 444.1424,-125.0257 444.1424,-133.5834"/>
<polygon fill="none" stroke="#000000" points="440.6425,-133.5867 444.1424,-143.5867 447.6425,-133.5868 440.6425,-133.5867"/>
</g>
<!-- Mass -->
<g id="node5" class="node">
<title>Mass</title>
<g id="a_node5"><a xlink:href="http://emmo.info/emmo/middle/isq#EMMO_ed4af7ae_63a2_497e_bb88_2309619ea405" xlink:title="Mass">
<ellipse fill="#ffffcc" stroke="#000000" cx="366.1424" cy="-18" rx="29.795" ry="18"/>
<text text-anchor="middle" x="366.1424" y="-14.3" font-family="Times,serif" font-size="14.00" fill="#000000">Mass</text>
</a>
</g>
</g>
<!-- Mass&#45;&gt;ISQBaseQuantity -->
<g id="edge1" class="edge">
<title>Mass&#45;&gt;ISQBaseQuantity</title>
<path fill="none" stroke="#000000" d="M382.6842,-33.2693C392.7852,-42.5933 405.9351,-54.7316 417.4778,-65.3865"/>
<polygon fill="none" stroke="#000000" points="415.433,-68.2621 425.155,-72.4731 420.1809,-63.1185 415.433,-68.2621"/>
</g>
<!-- Time -->
<g id="node6" class="node">
<title>Time</title>
<g id="a_node6"><a xlink:href="http://emmo.info/emmo/middle/isq#EMMO_d4f7d378_5e3b_468a_baa1_a7e98358cda7" xlink:title="Time">
<ellipse fill="#ffffcc" stroke="#000000" cx="444.1424" cy="-18" rx="29.795" ry="18"/>
<text text-anchor="middle" x="444.1424" y="-14.3" font-family="Times,serif" font-size="14.00" fill="#000000">Time</text>
</a>
</g>
</g>
<!-- Time&#45;&gt;ISQBaseQuantity -->
<g id="edge4" class="edge">
<title>Time&#45;&gt;ISQBaseQuantity</title>
<path fill="none" stroke="#000000" d="M444.1424,-36.1686C444.1424,-43.869 444.1424,-53.0257 444.1424,-61.5834"/>
<polygon fill="none" stroke="#000000" points="440.6425,-61.5867 444.1424,-71.5867 447.6425,-61.5868 440.6425,-61.5867"/>
</g>
<!-- Length -->
<g id="node7" class="node">
<title>Length</title>
<g id="a_node7"><a xlink:href="http://emmo.info/emmo/middle/isq#EMMO_cd2cd0de_e0cc_4ef1_b27e_2e88db027bac" xlink:title="Length">
<ellipse fill="#ffffcc" stroke="#000000" cx="528.1424" cy="-18" rx="35.9954" ry="18"/>
<text text-anchor="middle" x="528.1424" y="-14.3" font-family="Times,serif" font-size="14.00" fill="#000000">Length</text>
</a>
</g>
</g>
<!-- Length&#45;&gt;ISQBaseQuantity -->
<g id="edge5" class="edge">
<title>Length&#45;&gt;ISQBaseQuantity</title>
<path fill="none" stroke="#000000" d="M509.9157,-33.6229C498.912,-43.0547 484.662,-55.2689 472.2406,-65.9159"/>
<polygon fill="none" stroke="#000000" points="469.7093,-63.4757 464.3945,-72.6411 474.2649,-68.7905 469.7093,-63.4757"/>
</g>
<!-- LuminousIntensity -->
<g id="node8" class="node">
<title>LuminousIntensity</title>
<g id="a_node8"><a xlink:href="http://emmo.info/emmo/middle/isq#EMMO_50bf79a6_a48b_424d_9d2c_813bd631231a" xlink:title="LuminousIntensity">
<ellipse fill="#ffffcc" stroke="#000000" cx="659.1424" cy="-18" rx="77.1866" ry="18"/>
<text text-anchor="middle" x="659.1424" y="-14.3" font-family="Times,serif" font-size="14.00" fill="#000000">LuminousIntensity</text>
</a>
</g>
</g>
<!-- LuminousIntensity&#45;&gt;ISQBaseQuantity -->
<g id="edge6" class="edge">
<title>LuminousIntensity&#45;&gt;ISQBaseQuantity</title>
<path fill="none" stroke="#000000" d="M614.855,-32.8311C580.8091,-44.2326 533.6436,-60.0275 497.5147,-72.1265"/>
<polygon fill="none" stroke="#000000" points="496.0082,-68.9399 487.6373,-75.4343 498.2311,-75.5776 496.0082,-68.9399"/>
</g>
<!-- ThermodynamicTemperature -->
<g id="node9" class="node">
<title>ThermodynamicTemperature</title>
<g id="a_node9"><a xlink:href="http://emmo.info/emmo/middle/isq#EMMO_affe07e4_e9bc_4852_86c6_69e26182a17f" xlink:title="ThermodynamicTemperature">
<ellipse fill="#ffffcc" stroke="#000000" cx="869.1424" cy="-18" rx="115.0796" ry="18"/>
<text text-anchor="middle" x="869.1424" y="-14.3" font-family="Times,serif" font-size="14.00" fill="#000000">ThermodynamicTemperature</text>
</a>
</g>
</g>
<!-- ThermodynamicTemperature&#45;&gt;ISQBaseQuantity -->
<g id="edge8" class="edge">
<title>ThermodynamicTemperature&#45;&gt;ISQBaseQuantity</title>
<path fill="none" stroke="#000000" d="M790.6956,-31.2898C711.5042,-44.7058 590.3311,-65.2339 514.255,-78.1221"/>
<polygon fill="none" stroke="#000000" points="513.5635,-74.6893 504.2886,-79.8105 514.7328,-81.591 513.5635,-74.6893"/>
</g>
<!-- key1 -->
<g id="node10" class="node">
<title>key1</title>
<text text-anchor="start" x="1020.1424" y="-13.8" font-family="Times,serif" font-size="14.00" fill="#000000">isA</text>
</g>
<!-- key2 -->
<g id="node11" class="node">
<title>key2</title>
<text text-anchor="start" x="1099.1424" y="-13.8" font-family="Times,serif" font-size="14.00" fill="#000000"> </text>
</g>
<!-- key1&#45;&gt;key2 -->
<g id="edge9" class="edge">
<title>key1:e&#45;&gt;key2:w</title>
<path fill="none" stroke="#000000" d="M1041.1424,-19C1062.1424,-19 1069.8534,-19 1086.7006,-19"/>
<polygon fill="none" stroke="#000000" points="1087.1425,-22.5001 1097.1424,-19 1087.1424,-15.5001 1087.1425,-22.5001"/>
</g>
</g>
</svg>
