<?xml version="1.0" encoding="UTF-8" standalone="no"?>
<!DOCTYPE svg PUBLIC "-//W3C//DTD SVG 1.1//EN"
 "http://www.w3.org/Graphics/SVG/1.1/DTD/svg11.dtd">
<!-- Generated by graphviz version 2.40.1 (20161225.0304)
 -->
<!-- Title: %3 Pages: 1 -->
<svg width="992pt" height="218pt"
 viewBox="0.00 0.00 991.64 218.00" xmlns="http://www.w3.org/2000/svg" xmlns:xlink="http://www.w3.org/1999/xlink">
<g id="graph0" class="graph" transform="scale(1 1) rotate(0) translate(4 214)">
<title>%3</title>
<polygon fill="#ffffff" stroke="transparent" points="-4,4 -4,-214 987.6442,-214 987.6442,4 -4,4"/>
<!-- Length -->
<g id="node1" class="node">
<title>Length</title>
<g id="a_node1"><a xlink:href="http://emmo.info/emmo/middle/isq#EMMO_cd2cd0de_e0cc_4ef1_b27e_2e88db027bac" xlink:title="Length">
<ellipse fill="#ffffcc" stroke="#000000" cx="35.7468" cy="-18" rx="35.9954" ry="18"/>
<text text-anchor="middle" x="35.7468" y="-14.3" font-family="Times,serif" font-size="14.00" fill="#000000">Length</text>
</a>
</g>
</g>
<!-- ISQBaseQuantity -->
<g id="node6" class="node">
<title>ISQBaseQuantity</title>
<g id="a_node6"><a xlink:href="http://emmo.info/emmo/middle/isq#EMMO_1a4c1a97_88a7_4d8e_b2f9_2ca58e92dde4" xlink:title="ISQBaseQuantity">
<ellipse fill="#ffffcc" stroke="#000000" cx="540.7468" cy="-105" rx="72.5877" ry="18"/>
<text text-anchor="middle" x="540.7468" y="-101.3" font-family="Times,serif" font-size="14.00" fill="#000000">ISQBaseQuantity</text>
</a>
</g>
</g>
<!-- Length&#45;&gt;ISQBaseQuantity -->
<g id="edge8" class="edge">
<title>Length&#45;&gt;ISQBaseQuantity</title>
<path fill="none" stroke="#000000" d="M63.0082,-30.073C68.7818,-32.2978 74.8995,-34.415 80.7468,-36 211.4656,-71.4324 368.3381,-90.0536 460.9926,-98.6832"/>
<polygon fill="none" stroke="#000000" points="460.8598,-102.1856 471.1372,-99.612 461.498,-95.2148 460.8598,-102.1856"/>
<text text-anchor="middle" x="240.2468" y="-57.8" font-family="Times,serif" font-size="14.00" fill="#000000">isA</text>
</g>
<!-- AmountOfSubstance -->
<g id="node2" class="node">
<title>AmountOfSubstance</title>
<g id="a_node2"><a xlink:href="http://emmo.info/emmo/middle/isq#EMMO_8159c26a_494b_4fa0_9959_10888f152298" xlink:title="AmountOfSubstance">
<ellipse fill="#ffffcc" stroke="#000000" cx="174.7468" cy="-18" rx="85.2851" ry="18"/>
<text text-anchor="middle" x="174.7468" y="-14.3" font-family="Times,serif" font-size="14.00" fill="#000000">AmountOfSubstance</text>
</a>
</g>
</g>
<!-- AmountOfSubstance&#45;&gt;ISQBaseQuantity -->
<g id="edge6" class="edge">
<title>AmountOfSubstance&#45;&gt;ISQBaseQuantity</title>
<path fill="none" stroke="#000000" d="M231.5328,-31.4983C298.3224,-47.3745 408.845,-73.6463 478.0832,-90.1046"/>
<polygon fill="none" stroke="#000000" points="477.4507,-93.5517 487.989,-92.4592 479.0696,-86.7414 477.4507,-93.5517"/>
<text text-anchor="middle" x="389.2468" y="-57.8" font-family="Times,serif" font-size="14.00" fill="#000000">isA</text>
</g>
<!-- ElectricCurrent -->
<g id="node3" class="node">
<title>ElectricCurrent</title>
<g id="a_node3"><a xlink:href="http://emmo.info/emmo/middle/isq#EMMO_c995ae70_3b84_4ebb_bcfc_69e6a281bb88" xlink:title="ElectricCurrent">
<ellipse fill="#ffffcc" stroke="#000000" cx="342.7468" cy="-18" rx="64.9885" ry="18"/>
<text text-anchor="middle" x="342.7468" y="-14.3" font-family="Times,serif" font-size="14.00" fill="#000000">ElectricCurrent</text>
</a>
</g>
</g>
<!-- ElectricCurrent&#45;&gt;ISQBaseQuantity -->
<g id="edge7" class="edge">
<title>ElectricCurrent&#45;&gt;ISQBaseQuantity</title>
<path fill="none" stroke="#000000" d="M377.6895,-33.3536C410.5052,-47.7726 459.7769,-69.4223 495.5666,-85.1481"/>
<polygon fill="none" stroke="#000000" points="494.2538,-88.3942 504.817,-89.2127 497.0698,-81.9855 494.2538,-88.3942"/>
<text text-anchor="middle" x="463.2468" y="-57.8" font-family="Times,serif" font-size="14.00" fill="#000000">isA</text>
</g>
<!-- ThermodynamicTemperature -->
<g id="node4" class="node">
<title>ThermodynamicTemperature</title>
<g id="a_node4"><a xlink:href="http://emmo.info/emmo/middle/isq#EMMO_affe07e4_e9bc_4852_86c6_69e26182a17f" xlink:title="ThermodynamicTemperature">
<ellipse fill="#ffffcc" stroke="#000000" cx="540.7468" cy="-18" rx="115.0796" ry="18"/>
<text text-anchor="middle" x="540.7468" y="-14.3" font-family="Times,serif" font-size="14.00" fill="#000000">ThermodynamicTemperature</text>
</a>
</g>
</g>
<!-- ThermodynamicTemperature&#45;&gt;ISQBaseQuantity -->
<g id="edge3" class="edge">
<title>ThermodynamicTemperature&#45;&gt;ISQBaseQuantity</title>
<path fill="none" stroke="#000000" d="M540.7468,-36.0265C540.7468,-47.8082 540.7468,-63.4393 540.7468,-76.8419"/>
<polygon fill="none" stroke="#000000" points="537.2469,-76.9966 540.7468,-86.9966 544.2469,-76.9967 537.2469,-76.9966"/>
<text text-anchor="middle" x="550.2468" y="-57.8" font-family="Times,serif" font-size="14.00" fill="#000000">isA</text>
</g>
<!-- LuminousIntensity -->
<g id="node5" class="node">
<title>LuminousIntensity</title>
<g id="a_node5"><a xlink:href="http://emmo.info/emmo/middle/isq#EMMO_50bf79a6_a48b_424d_9d2c_813bd631231a" xlink:title="LuminousIntensity">
<ellipse fill="#ffffcc" stroke="#000000" cx="750.7468" cy="-18" rx="77.1866" ry="18"/>
<text text-anchor="middle" x="750.7468" y="-14.3" font-family="Times,serif" font-size="14.00" fill="#000000">LuminousIntensity</text>
</a>
</g>
</g>
<!-- LuminousIntensity&#45;&gt;ISQBaseQuantity -->
<g id="edge1" class="edge">
<title>LuminousIntensity&#45;&gt;ISQBaseQuantity</title>
<path fill="none" stroke="#000000" d="M712.7174,-33.755C677.5228,-48.3357 625.0995,-70.0539 587.3907,-85.6761"/>
<polygon fill="none" stroke="#000000" points="586.0392,-82.4475 578.1403,-89.5084 588.7184,-88.9145 586.0392,-82.4475"/>
<text text-anchor="middle" x="668.2468" y="-57.8" font-family="Times,serif" font-size="14.00" fill="#000000">isA</text>
</g>
<!-- BaseQuantity -->
<g id="node8" class="node">
<title>BaseQuantity</title>
<g id="a_node8"><a xlink:href="http://emmo.info/emmo/middle/units#EMMO_acaaa124_3dde_48b6_86e6_6ec6f364f408" xlink:title="BaseQuantity">
<ellipse fill="#ffffcc" stroke="#000000" stroke-width="2" cx="540.7468" cy="-192" rx="58.4896" ry="18"/>
<text text-anchor="middle" x="540.7468" y="-188.3" font-family="Times,serif" font-size="14.00" fill="#000000">BaseQuantity</text>
</a>
</g>
</g>
<!-- ISQBaseQuantity&#45;&gt;BaseQuantity -->
<g id="edge2" class="edge">
<title>ISQBaseQuantity&#45;&gt;BaseQuantity</title>
<path fill="none" stroke="#000000" d="M540.7468,-123.0265C540.7468,-134.8082 540.7468,-150.4393 540.7468,-163.8419"/>
<polygon fill="none" stroke="#000000" points="537.2469,-163.9966 540.7468,-173.9966 544.2469,-163.9967 537.2469,-163.9966"/>
<text text-anchor="middle" x="550.2468" y="-144.8" font-family="Times,serif" font-size="14.00" fill="#000000">isA</text>
</g>
<!-- Mass -->
<g id="node7" class="node">
<title>Mass</title>
<g id="a_node7"><a xlink:href="http://emmo.info/emmo/middle/isq#EMMO_ed4af7ae_63a2_497e_bb88_2309619ea405" xlink:title="Mass">
<ellipse fill="#ffffcc" stroke="#000000" cx="875.7468" cy="-18" rx="29.795" ry="18"/>
<text text-anchor="middle" x="875.7468" y="-14.3" font-family="Times,serif" font-size="14.00" fill="#000000">Mass</text>
</a>
</g>
</g>
<!-- Mass&#45;&gt;ISQBaseQuantity -->
<g id="edge5" class="edge">
<title>Mass&#45;&gt;ISQBaseQuantity</title>
<path fill="none" stroke="#000000" d="M852.5531,-29.6404C847.4267,-31.9481 841.9661,-34.2081 836.7468,-36 761.1061,-61.9691 671.2785,-81.374 610.5754,-92.8848"/>
<polygon fill="none" stroke="#000000" points="609.8993,-89.4505 600.7157,-94.7336 611.1894,-96.3306 609.8993,-89.4505"/>
<text text-anchor="middle" x="782.2468" y="-57.8" font-family="Times,serif" font-size="14.00" fill="#000000">isA</text>
</g>
<!-- Time -->
<g id="node9" class="node">
<title>Time</title>
<g id="a_node9"><a xlink:href="http://emmo.info/emmo/middle/isq#EMMO_d4f7d378_5e3b_468a_baa1_a7e98358cda7" xlink:title="Time">
<ellipse fill="#ffffcc" stroke="#000000" cx="953.7468" cy="-18" rx="29.795" ry="18"/>
<text text-anchor="middle" x="953.7468" y="-14.3" font-family="Times,serif" font-size="14.00" fill="#000000">Time</text>
</a>
</g>
</g>
<!-- Time&#45;&gt;ISQBaseQuantity -->
<g id="edge4" class="edge">
<title>Time&#45;&gt;ISQBaseQuantity</title>
<path fill="none" stroke="#000000" d="M930.495,-29.4768C925.3723,-31.7947 919.9278,-34.1002 914.7468,-36 816.7097,-71.9487 697.0678,-89.8145 619.9297,-98.2201"/>
<polygon fill="none" stroke="#000000" points="619.3768,-94.759 609.8025,-99.2958 620.1163,-101.7199 619.3768,-94.759"/>
<text text-anchor="middle" x="864.2468" y="-57.8" font-family="Times,serif" font-size="14.00" fill="#000000">isA</text>
</g>
</g>
</svg>
