<?xml version="1.0" encoding="UTF-8" standalone="no"?>
<!DOCTYPE svg PUBLIC "-//W3C//DTD SVG 1.1//EN"
 "http://www.w3.org/Graphics/SVG/1.1/DTD/svg11.dtd">
<!-- Generated by graphviz version 2.40.1 (20161225.0304)
 -->
<!-- Title: %3 Pages: 1 -->
<svg width="1136pt" height="188pt"
 viewBox="0.00 0.00 1136.14 188.00" xmlns="http://www.w3.org/2000/svg" xmlns:xlink="http://www.w3.org/1999/xlink">
<g id="graph0" class="graph" transform="scale(1 1) rotate(0) translate(4 184)">
<title>%3</title>
<polygon fill="#ffffff" stroke="transparent" points="-4,4 -4,-184 1132.1424,-184 1132.1424,4 -4,4"/>
<!-- AmountOfSubstance -->
<g id="node1" class="node">
<title>AmountOfSubstance</title>
<g id="a_node1"><a xlink:href="http://emmo.info/emmo/middle/isq#EMMO_8159c26a_494b_4fa0_9959_10888f152298" xlink:title="AmountOfSubstance">
<ellipse fill="#ffffcc" stroke="#000000" cx="85.1424" cy="-18" rx="85.2851" ry="18"/>
<text text-anchor="middle" x="85.1424" y="-14.3" font-family="Times,serif" font-size="14.00" fill="#000000">AmountOfSubstance</text>
</a>
</g>
</g>
<!-- ISQBaseQuantity -->
<g id="node3" class="node">
<title>ISQBaseQuantity</title>
<g id="a_node3"><a xlink:href="http://emmo.info/emmo/middle/isq#EMMO_1a4c1a97_88a7_4d8e_b2f9_2ca58e92dde4" xlink:title="ISQBaseQuantity">
<ellipse fill="#ffffcc" stroke="#000000" cx="450.1424" cy="-90" rx="72.5877" ry="18"/>
<text text-anchor="middle" x="450.1424" y="-86.3" font-family="Times,serif" font-size="14.00" fill="#000000">ISQBaseQuantity</text>
</a>
</g>
</g>
<!-- AmountOfSubstance&#45;&gt;ISQBaseQuantity -->
<g id="edge6" class="edge">
<title>AmountOfSubstance&#45;&gt;ISQBaseQuantity</title>
<path fill="none" stroke="#000000" d="M147.4735,-30.2954C213.0301,-43.2272 315.8276,-63.505 383.1034,-76.7759"/>
<polygon fill="none" stroke="#000000" points="382.6851,-80.2607 393.1734,-78.7623 384.0399,-73.3931 382.6851,-80.2607"/>
</g>
<!-- ElectricCurrent -->
<g id="node2" class="node">
<title>ElectricCurrent</title>
<g id="a_node2"><a xlink:href="http://emmo.info/emmo/middle/isq#EMMO_c995ae70_3b84_4ebb_bcfc_69e6a281bb88" xlink:title="ElectricCurrent">
<ellipse fill="#ffffcc" stroke="#000000" cx="253.1424" cy="-18" rx="64.9885" ry="18"/>
<text text-anchor="middle" x="253.1424" y="-14.3" font-family="Times,serif" font-size="14.00" fill="#000000">ElectricCurrent</text>
</a>
</g>
</g>
<!-- ElectricCurrent&#45;&gt;ISQBaseQuantity -->
<g id="edge4" class="edge">
<title>ElectricCurrent&#45;&gt;ISQBaseQuantity</title>
<path fill="none" stroke="#000000" d="M292.5349,-32.3972C323.296,-43.6399 366.2617,-59.3431 399.5643,-71.5146"/>
<polygon fill="none" stroke="#000000" points="398.5291,-74.8626 409.1229,-75.0081 400.9321,-68.288 398.5291,-74.8626"/>
</g>
<!-- BaseQuantity -->
<g id="node4" class="node">
<title>BaseQuantity</title>
<g id="a_node4"><a xlink:href="http://emmo.info/emmo/middle/metrology#EMMO_acaaa124_3dde_48b6_86e6_6ec6f364f408" xlink:title="BaseQuantity">
<ellipse fill="#ffffcc" stroke="#000000" stroke-width="2" cx="450.1424" cy="-162" rx="58.4896" ry="18"/>
<text text-anchor="middle" x="450.1424" y="-158.3" font-family="Times,serif" font-size="14.00" fill="#000000">BaseQuantity</text>
</a>
</g>
</g>
<!-- ISQBaseQuantity&#45;&gt;BaseQuantity -->
<g id="edge3" class="edge">
<title>ISQBaseQuantity&#45;&gt;BaseQuantity</title>
<path fill="none" stroke="#000000" d="M450.1424,-108.1686C450.1424,-115.869 450.1424,-125.0257 450.1424,-133.5834"/>
<polygon fill="none" stroke="#000000" points="446.6425,-133.5867 450.1424,-143.5867 453.6425,-133.5868 446.6425,-133.5867"/>
</g>
<!-- Mass -->
<g id="node5" class="node">
<title>Mass</title>
<g id="a_node5"><a xlink:href="http://emmo.info/emmo/middle/isq#EMMO_ed4af7ae_63a2_497e_bb88_2309619ea405" xlink:title="Mass">
<ellipse fill="#ffffcc" stroke="#000000" cx="366.1424" cy="-18" rx="29.795" ry="18"/>
<text text-anchor="middle" x="366.1424" y="-14.3" font-family="Times,serif" font-size="14.00" fill="#000000">Mass</text>
</a>
</g>
</g>
<!-- Mass&#45;&gt;ISQBaseQuantity -->
<g id="edge8" class="edge">
<title>Mass&#45;&gt;ISQBaseQuantity</title>
<path fill="none" stroke="#000000" d="M383.5473,-32.9184C394.69,-42.4694 409.3988,-55.0769 422.1583,-66.0136"/>
<polygon fill="none" stroke="#000000" points="419.9313,-68.7145 429.8017,-72.5651 424.4869,-63.3997 419.9313,-68.7145"/>
</g>
<!-- Length -->
<g id="node6" class="node">
<title>Length</title>
<g id="a_node6"><a xlink:href="http://emmo.info/emmo/middle/isq#EMMO_cd2cd0de_e0cc_4ef1_b27e_2e88db027bac" xlink:title="Length">
<ellipse fill="#ffffcc" stroke="#000000" cx="450.1424" cy="-18" rx="35.9954" ry="18"/>
<text text-anchor="middle" x="450.1424" y="-14.3" font-family="Times,serif" font-size="14.00" fill="#000000">Length</text>
</a>
</g>
</g>
<!-- Length&#45;&gt;ISQBaseQuantity -->
<g id="edge7" class="edge">
<title>Length&#45;&gt;ISQBaseQuantity</title>
<path fill="none" stroke="#000000" d="M450.1424,-36.1686C450.1424,-43.869 450.1424,-53.0257 450.1424,-61.5834"/>
<polygon fill="none" stroke="#000000" points="446.6425,-61.5867 450.1424,-71.5867 453.6425,-61.5868 446.6425,-61.5867"/>
</g>
<!-- Time -->
<g id="node7" class="node">
<title>Time</title>
<g id="a_node7"><a xlink:href="http://emmo.info/emmo/middle/isq#EMMO_d4f7d378_5e3b_468a_baa1_a7e98358cda7" xlink:title="Time">
<ellipse fill="#ffffcc" stroke="#000000" cx="534.1424" cy="-18" rx="29.795" ry="18"/>
<text text-anchor="middle" x="534.1424" y="-14.3" font-family="Times,serif" font-size="14.00" fill="#000000">Time</text>
</a>
</g>
</g>
<!-- Time&#45;&gt;ISQBaseQuantity -->
<g id="edge2" class="edge">
<title>Time&#45;&gt;ISQBaseQuantity</title>
<path fill="none" stroke="#000000" d="M516.7376,-32.9184C505.5949,-42.4694 490.886,-55.0769 478.1266,-66.0136"/>
<polygon fill="none" stroke="#000000" points="475.798,-63.3997 470.4832,-72.5651 480.3536,-68.7145 475.798,-63.3997"/>
</g>
<!-- LuminousIntensity -->
<g id="node8" class="node">
<title>LuminousIntensity</title>
<g id="a_node8"><a xlink:href="http://emmo.info/emmo/middle/isq#EMMO_50bf79a6_a48b_424d_9d2c_813bd631231a" xlink:title="LuminousIntensity">
<ellipse fill="#ffffcc" stroke="#000000" cx="659.1424" cy="-18" rx="77.1866" ry="18"/>
<text text-anchor="middle" x="659.1424" y="-14.3" font-family="Times,serif" font-size="14.00" fill="#000000">LuminousIntensity</text>
</a>
</g>
</g>
<!-- LuminousIntensity&#45;&gt;ISQBaseQuantity -->
<g id="edge5" class="edge">
<title>LuminousIntensity&#45;&gt;ISQBaseQuantity</title>
<path fill="none" stroke="#000000" d="M615.8375,-32.9184C582.8319,-44.2888 537.2511,-59.9913 502.2493,-72.0493"/>
<polygon fill="none" stroke="#000000" points="500.9915,-68.7807 492.6768,-75.347 503.2715,-75.399 500.9915,-68.7807"/>
</g>
<!-- ThermodynamicTemperature -->
<g id="node9" class="node">
<title>ThermodynamicTemperature</title>
<g id="a_node9"><a xlink:href="http://emmo.info/emmo/middle/isq#EMMO_affe07e4_e9bc_4852_86c6_69e26182a17f" xlink:title="ThermodynamicTemperature">
<ellipse fill="#ffffcc" stroke="#000000" cx="869.1424" cy="-18" rx="115.0796" ry="18"/>
<text text-anchor="middle" x="869.1424" y="-14.3" font-family="Times,serif" font-size="14.00" fill="#000000">ThermodynamicTemperature</text>
</a>
</g>
</g>
<!-- ThermodynamicTemperature&#45;&gt;ISQBaseQuantity -->
<g id="edge1" class="edge">
<title>ThermodynamicTemperature&#45;&gt;ISQBaseQuantity</title>
<path fill="none" stroke="#000000" d="M791.3137,-31.3739C713.5587,-44.7352 595.1093,-65.0892 520.2093,-77.9599"/>
<polygon fill="none" stroke="#000000" points="519.2012,-74.5817 509.9384,-79.7248 520.3867,-81.4806 519.2012,-74.5817"/>
</g>
<!-- key1 -->
<g id="node10" class="node">
<title>key1</title>
<text text-anchor="start" x="1020.1424" y="-13.8" font-family="Times,serif" font-size="14.00" fill="#000000">isA</text>
</g>
<!-- key2 -->
<g id="node11" class="node">
<title>key2</title>
<text text-anchor="start" x="1099.1424" y="-13.8" font-family="Times,serif" font-size="14.00" fill="#000000"> </text>
</g>
<!-- key1&#45;&gt;key2 -->
<g id="edge9" class="edge">
<title>key1:e&#45;&gt;key2:w</title>
<path fill="none" stroke="#000000" d="M1041.1424,-19C1062.1424,-19 1069.8534,-19 1086.7006,-19"/>
<polygon fill="none" stroke="#000000" points="1087.1425,-22.5001 1097.1424,-19 1087.1424,-15.5001 1087.1425,-22.5001"/>
</g>
</g>
</svg>
