<?xml version="1.0" encoding="UTF-8" standalone="no"?>
<!DOCTYPE svg PUBLIC "-//W3C//DTD SVG 1.1//EN"
 "http://www.w3.org/Graphics/SVG/1.1/DTD/svg11.dtd">
<!-- Generated by graphviz version 2.40.1 (20161225.0304)
 -->
<!-- Title: %3 Pages: 1 -->
<svg width="992pt" height="218pt"
 viewBox="0.00 0.00 992.24 218.00" xmlns="http://www.w3.org/2000/svg" xmlns:xlink="http://www.w3.org/1999/xlink">
<g id="graph0" class="graph" transform="scale(1 1) rotate(0) translate(4 214)">
<title>%3</title>
<polygon fill="#ffffff" stroke="transparent" points="-4,4 -4,-214 988.2405,-214 988.2405,4 -4,4"/>
<!-- ISQBaseQuantity -->
<g id="node1" class="node">
<title>ISQBaseQuantity</title>
<g id="a_node1"><a xlink:href="http://emmo.info/emmo/middle/isq#EMMO_1a4c1a97_88a7_4d8e_b2f9_2ca58e92dde4" xlink:title="ISQBaseQuantity">
<ellipse fill="#ffffcc" stroke="#000000" cx="330.8973" cy="-105" rx="72.5877" ry="18"/>
<text text-anchor="middle" x="330.8973" y="-101.3" font-family="Times,serif" font-size="14.00" fill="#000000">ISQBaseQuantity</text>
</a>
</g>
</g>
<!-- BaseQuantity -->
<g id="node3" class="node">
<title>BaseQuantity</title>
<g id="a_node3"><a xlink:href="http://emmo.info/emmo/middle/units#EMMO_acaaa124_3dde_48b6_86e6_6ec6f364f408" xlink:title="BaseQuantity">
<ellipse fill="#ffffcc" stroke="#000000" stroke-width="2" cx="330.8973" cy="-192" rx="58.4896" ry="18"/>
<text text-anchor="middle" x="330.8973" y="-188.3" font-family="Times,serif" font-size="14.00" fill="#000000">BaseQuantity</text>
</a>
</g>
</g>
<!-- ISQBaseQuantity&#45;&gt;BaseQuantity -->
<g id="edge1" class="edge">
<title>ISQBaseQuantity&#45;&gt;BaseQuantity</title>
<path fill="none" stroke="#000000" d="M330.8973,-123.0265C330.8973,-134.8082 330.8973,-150.4393 330.8973,-163.8419"/>
<polygon fill="none" stroke="#000000" points="327.3974,-163.9966 330.8973,-173.9966 334.3974,-163.9967 327.3974,-163.9966"/>
<text text-anchor="middle" x="340.3973" y="-144.8" font-family="Times,serif" font-size="14.00" fill="#000000">isA</text>
</g>
<!-- Mass -->
<g id="node2" class="node">
<title>Mass</title>
<g id="a_node2"><a xlink:href="http://emmo.info/emmo/middle/isq#EMMO_ed4af7ae_63a2_497e_bb88_2309619ea405" xlink:title="Mass">
<ellipse fill="#ffffcc" stroke="#000000" cx="29.8973" cy="-18" rx="29.795" ry="18"/>
<text text-anchor="middle" x="29.8973" y="-14.3" font-family="Times,serif" font-size="14.00" fill="#000000">Mass</text>
</a>
</g>
</g>
<!-- Mass&#45;&gt;ISQBaseQuantity -->
<g id="edge6" class="edge">
<title>Mass&#45;&gt;ISQBaseQuantity</title>
<path fill="none" stroke="#000000" d="M53.2209,-29.2882C58.3392,-31.6178 63.7637,-33.9758 68.8973,-36 112.437,-53.1674 123.7749,-56.5747 168.8973,-69 199.7083,-77.4844 234.2329,-85.375 263.4686,-91.5935"/>
<polygon fill="none" stroke="#000000" points="263.0676,-95.0858 273.5743,-93.7216 264.5101,-88.236 263.0676,-95.0858"/>
<text text-anchor="middle" x="178.3973" y="-57.8" font-family="Times,serif" font-size="14.00" fill="#000000">isA</text>
</g>
<!-- Time -->
<g id="node4" class="node">
<title>Time</title>
<g id="a_node4"><a xlink:href="http://emmo.info/emmo/middle/isq#EMMO_d4f7d378_5e3b_468a_baa1_a7e98358cda7" xlink:title="Time">
<ellipse fill="#ffffcc" stroke="#000000" cx="107.8973" cy="-18" rx="29.795" ry="18"/>
<text text-anchor="middle" x="107.8973" y="-14.3" font-family="Times,serif" font-size="14.00" fill="#000000">Time</text>
</a>
</g>
</g>
<!-- Time&#45;&gt;ISQBaseQuantity -->
<g id="edge7" class="edge">
<title>Time&#45;&gt;ISQBaseQuantity</title>
<path fill="none" stroke="#000000" d="M131.7244,-29.2632C136.7136,-31.5466 141.9591,-33.8925 146.8973,-36 190.8243,-54.7468 241.7311,-73.6238 278.8486,-86.8828"/>
<polygon fill="none" stroke="#000000" points="277.8594,-90.2457 288.4541,-90.2986 280.2048,-83.6503 277.8594,-90.2457"/>
<text text-anchor="middle" x="237.3973" y="-57.8" font-family="Times,serif" font-size="14.00" fill="#000000">isA</text>
</g>
<!-- Length -->
<g id="node5" class="node">
<title>Length</title>
<g id="a_node5"><a xlink:href="http://emmo.info/emmo/middle/isq#EMMO_cd2cd0de_e0cc_4ef1_b27e_2e88db027bac" xlink:title="Length">
<ellipse fill="#ffffcc" stroke="#000000" cx="191.8973" cy="-18" rx="35.9954" ry="18"/>
<text text-anchor="middle" x="191.8973" y="-14.3" font-family="Times,serif" font-size="14.00" fill="#000000">Length</text>
</a>
</g>
</g>
<!-- Length&#45;&gt;ISQBaseQuantity -->
<g id="edge8" class="edge">
<title>Length&#45;&gt;ISQBaseQuantity</title>
<path fill="none" stroke="#000000" d="M214.5395,-32.1717C236.4226,-45.8683 269.9068,-66.8261 295.3464,-82.7487"/>
<polygon fill="none" stroke="#000000" points="293.6435,-85.8119 303.977,-88.1506 297.3574,-79.8783 293.6435,-85.8119"/>
<text text-anchor="middle" x="279.3973" y="-57.8" font-family="Times,serif" font-size="14.00" fill="#000000">isA</text>
</g>
<!-- AmountOfSubstance -->
<g id="node6" class="node">
<title>AmountOfSubstance</title>
<g id="a_node6"><a xlink:href="http://emmo.info/emmo/middle/isq#EMMO_8159c26a_494b_4fa0_9959_10888f152298" xlink:title="AmountOfSubstance">
<ellipse fill="#ffffcc" stroke="#000000" cx="330.8973" cy="-18" rx="85.2851" ry="18"/>
<text text-anchor="middle" x="330.8973" y="-14.3" font-family="Times,serif" font-size="14.00" fill="#000000">AmountOfSubstance</text>
</a>
</g>
</g>
<!-- AmountOfSubstance&#45;&gt;ISQBaseQuantity -->
<g id="edge3" class="edge">
<title>AmountOfSubstance&#45;&gt;ISQBaseQuantity</title>
<path fill="none" stroke="#000000" d="M330.8973,-36.0265C330.8973,-47.8082 330.8973,-63.4393 330.8973,-76.8419"/>
<polygon fill="none" stroke="#000000" points="327.3974,-76.9966 330.8973,-86.9966 334.3974,-76.9967 327.3974,-76.9966"/>
<text text-anchor="middle" x="340.3973" y="-57.8" font-family="Times,serif" font-size="14.00" fill="#000000">isA</text>
</g>
<!-- ElectricCurrent -->
<g id="node7" class="node">
<title>ElectricCurrent</title>
<g id="a_node7"><a xlink:href="http://emmo.info/emmo/middle/isq#EMMO_c995ae70_3b84_4ebb_bcfc_69e6a281bb88" xlink:title="ElectricCurrent">
<ellipse fill="#ffffcc" stroke="#000000" cx="498.8973" cy="-18" rx="64.9885" ry="18"/>
<text text-anchor="middle" x="498.8973" y="-14.3" font-family="Times,serif" font-size="14.00" fill="#000000">ElectricCurrent</text>
</a>
</g>
</g>
<!-- ElectricCurrent&#45;&gt;ISQBaseQuantity -->
<g id="edge4" class="edge">
<title>ElectricCurrent&#45;&gt;ISQBaseQuantity</title>
<path fill="none" stroke="#000000" d="M468.0836,-33.9571C440.8703,-48.0497 401.0054,-68.6941 371.2539,-84.1011"/>
<polygon fill="none" stroke="#000000" points="369.641,-80.9948 362.3706,-88.7014 372.86,-87.2108 369.641,-80.9948"/>
<text text-anchor="middle" x="435.3973" y="-57.8" font-family="Times,serif" font-size="14.00" fill="#000000">isA</text>
</g>
<!-- ThermodynamicTemperature -->
<g id="node8" class="node">
<title>ThermodynamicTemperature</title>
<g id="a_node8"><a xlink:href="http://emmo.info/emmo/middle/isq#EMMO_affe07e4_e9bc_4852_86c6_69e26182a17f" xlink:title="ThermodynamicTemperature">
<ellipse fill="#ffffcc" stroke="#000000" cx="696.8973" cy="-18" rx="115.0796" ry="18"/>
<text text-anchor="middle" x="696.8973" y="-14.3" font-family="Times,serif" font-size="14.00" fill="#000000">ThermodynamicTemperature</text>
</a>
</g>
</g>
<!-- ThermodynamicTemperature&#45;&gt;ISQBaseQuantity -->
<g id="edge2" class="edge">
<title>ThermodynamicTemperature&#45;&gt;ISQBaseQuantity</title>
<path fill="none" stroke="#000000" d="M633.5629,-33.0549C566.2287,-49.0606 460.4044,-74.2155 393.3923,-90.1446"/>
<polygon fill="none" stroke="#000000" points="392.3089,-86.8046 383.3895,-92.5224 393.9278,-93.6148 392.3089,-86.8046"/>
<text text-anchor="middle" x="545.3973" y="-57.8" font-family="Times,serif" font-size="14.00" fill="#000000">isA</text>
</g>
<!-- LuminousIntensity -->
<g id="node9" class="node">
<title>LuminousIntensity</title>
<g id="a_node9"><a xlink:href="http://emmo.info/emmo/middle/isq#EMMO_50bf79a6_a48b_424d_9d2c_813bd631231a" xlink:title="LuminousIntensity">
<ellipse fill="#ffffcc" stroke="#000000" cx="906.8973" cy="-18" rx="77.1866" ry="18"/>
<text text-anchor="middle" x="906.8973" y="-14.3" font-family="Times,serif" font-size="14.00" fill="#000000">LuminousIntensity</text>
</a>
</g>
</g>
<!-- LuminousIntensity&#45;&gt;ISQBaseQuantity -->
<g id="edge5" class="edge">
<title>LuminousIntensity&#45;&gt;ISQBaseQuantity</title>
<path fill="none" stroke="#000000" d="M850.563,-30.3498C840.6974,-32.3526 830.514,-34.3184 820.8973,-36 674.8009,-61.5465 502.9085,-84.0171 406.4548,-95.9424"/>
<polygon fill="none" stroke="#000000" points="405.9994,-92.4719 396.5024,-97.1685 406.8554,-99.4194 405.9994,-92.4719"/>
<text text-anchor="middle" x="709.3973" y="-57.8" font-family="Times,serif" font-size="14.00" fill="#000000">isA</text>
</g>
</g>
</svg>
