<?xml version="1.0" encoding="UTF-8" standalone="no"?>
<!DOCTYPE svg PUBLIC "-//W3C//DTD SVG 1.1//EN"
 "http://www.w3.org/Graphics/SVG/1.1/DTD/svg11.dtd">
<!-- Generated by graphviz version 2.40.1 (20161225.0304)
 -->
<!-- Title: %3 Pages: 1 -->
<svg width="325pt" height="188pt"
 viewBox="0.00 0.00 325.00 188.00" xmlns="http://www.w3.org/2000/svg" xmlns:xlink="http://www.w3.org/1999/xlink">
<g id="graph0" class="graph" transform="scale(1 1) rotate(0) translate(4 184)">
<title>%3</title>
<polygon fill="#ffffff" stroke="transparent" points="-4,4 -4,-184 321,-184 321,4 -4,4"/>
<!-- hasPart -->
<g id="node1" class="node">
<title>hasPart</title>
<g id="a_node1"><a xlink:href="http://emmo.info/emmo/top/mereotopology#EMMO_17e27c22_37e1_468c_9dd7_95e137f73e7f" xlink:title="hasPart">
<polygon fill="#0079ba" stroke="#000000" stroke-width="2" points="67,-36 11,-36 11,0 67,0 67,-36"/>
<text text-anchor="middle" x="39" y="-14.3" font-family="Times,serif" font-size="14.00" fill="#ffffff">hasPart</text>
</a>
</g>
</g>
<!-- encloses -->
<g id="node4" class="node">
<title>encloses</title>
<g id="a_node4"><a xlink:href="http://emmo.info/emmo/top/mereotopology#EMMO_8c898653_1118_4682_9bbf_6cc334d16a99" xlink:title="encloses">
<polygon fill="#0079ba" stroke="#000000" points="62,-108 0,-108 0,-72 62,-72 62,-108"/>
<text text-anchor="middle" x="31" y="-86.3" font-family="Times,serif" font-size="14.00" fill="#ffffff">encloses</text>
</a>
</g>
</g>
<!-- hasPart&#45;&gt;encloses -->
<g id="edge2" class="edge">
<title>hasPart&#45;&gt;encloses</title>
<path fill="none" stroke="#000000" d="M36.9813,-36.1686C36.1257,-43.869 35.1083,-53.0257 34.1574,-61.5834"/>
<polygon fill="none" stroke="#000000" points="30.6717,-61.2614 33.0459,-71.5867 37.6289,-62.0344 30.6717,-61.2614"/>
</g>
<!-- hasOverlapWith -->
<g id="node6" class="node">
<title>hasOverlapWith</title>
<g id="a_node6"><a xlink:href="http://emmo.info/emmo/top/mereotopology#EMMO_d893d373_b579_4867_841e_1c2b31a8d2c6" xlink:title="hasOverlapWith">
<polygon fill="#0079ba" stroke="#000000" points="186,-108 80,-108 80,-72 186,-72 186,-108"/>
<text text-anchor="middle" x="133" y="-86.3" font-family="Times,serif" font-size="14.00" fill="#ffffff">hasOverlapWith</text>
</a>
</g>
</g>
<!-- hasPart&#45;&gt;hasOverlapWith -->
<g id="edge3" class="edge">
<title>hasPart&#45;&gt;hasOverlapWith</title>
<path fill="none" stroke="#000000" d="M62.7202,-36.1686C74.4094,-45.1221 88.6688,-56.0442 101.2809,-65.7045"/>
<polygon fill="none" stroke="#000000" points="99.2203,-68.5349 109.2874,-71.8372 103.4769,-62.9778 99.2203,-68.5349"/>
</g>
<!-- hasContactWith -->
<g id="node2" class="node">
<title>hasContactWith</title>
<g id="a_node2"><a xlink:href="http://emmo.info/emmo/top/mereotopology#EMMO_4d6504f1_c470_4ce9_b941_bbbebc9ab05d" xlink:title="hasContactWith">
<polygon fill="#0079ba" stroke="#000000" points="308,-108 204,-108 204,-72 308,-72 308,-108"/>
<text text-anchor="middle" x="256" y="-86.3" font-family="Times,serif" font-size="14.00" fill="#ffffff">hasContactWith</text>
</a>
</g>
</g>
<!-- connected -->
<g id="node5" class="node">
<title>connected</title>
<g id="a_node5"><a xlink:href="http://emmo.info/emmo/top/mereotopology#EMMO_6703954e_34c4_4a15_a9e7_f313760ae1a8" xlink:title="connected">
<polygon fill="#0079ba" stroke="#000000" stroke-width="2" points="168.5,-180 97.5,-180 97.5,-144 168.5,-144 168.5,-180"/>
<text text-anchor="middle" x="133" y="-158.3" font-family="Times,serif" font-size="14.00" fill="#ffffff">connected</text>
</a>
</g>
</g>
<!-- hasContactWith&#45;&gt;connected -->
<g id="edge5" class="edge">
<title>hasContactWith&#45;&gt;connected</title>
<path fill="none" stroke="#000000" d="M224.9619,-108.1686C209.2295,-117.3779 189.9389,-128.6699 173.0956,-138.5294"/>
<polygon fill="none" stroke="#000000" points="170.8902,-135.7648 164.0282,-143.8372 174.4265,-141.8059 170.8902,-135.7648"/>
</g>
<!-- overcrosses -->
<g id="node3" class="node">
<title>overcrosses</title>
<g id="a_node3"><a xlink:href="http://emmo.info/emmo/top/mereotopology#EMMO_9cb984ca_48ad_4864_b09e_50d3fff19420" xlink:title="overcrosses">
<polygon fill="#0079ba" stroke="#000000" points="173,-36 93,-36 93,0 173,0 173,-36"/>
<text text-anchor="middle" x="133" y="-14.3" font-family="Times,serif" font-size="14.00" fill="#ffffff">overcrosses</text>
</a>
</g>
</g>
<!-- overcrosses&#45;&gt;hasOverlapWith -->
<g id="edge1" class="edge">
<title>overcrosses&#45;&gt;hasOverlapWith</title>
<path fill="none" stroke="#000000" d="M133,-36.1686C133,-43.869 133,-53.0257 133,-61.5834"/>
<polygon fill="none" stroke="#000000" points="129.5001,-61.5867 133,-71.5867 136.5001,-61.5868 129.5001,-61.5867"/>
</g>
<!-- encloses&#45;&gt;connected -->
<g id="edge6" class="edge">
<title>encloses&#45;&gt;connected</title>
<path fill="none" stroke="#000000" d="M56.7389,-108.1686C69.5437,-117.2073 85.1909,-128.2524 98.9719,-137.9802"/>
<polygon fill="none" stroke="#000000" points="97.0812,-140.9297 107.2693,-143.8372 101.118,-135.2109 97.0812,-140.9297"/>
</g>
<!-- hasOverlapWith&#45;&gt;connected -->
<g id="edge4" class="edge">
<title>hasOverlapWith&#45;&gt;connected</title>
<path fill="none" stroke="#000000" d="M133,-108.1686C133,-115.869 133,-125.0257 133,-133.5834"/>
<polygon fill="none" stroke="#000000" points="129.5001,-133.5867 133,-143.5867 136.5001,-133.5868 129.5001,-133.5867"/>
</g>
<!-- key1 -->
<g id="node7" class="node">
<title>key1</title>
<text text-anchor="start" x="209" y="-13.8" font-family="Times,serif" font-size="14.00" fill="#000000">isA</text>
</g>
<!-- key2 -->
<g id="node8" class="node">
<title>key2</title>
<text text-anchor="start" x="288" y="-13.8" font-family="Times,serif" font-size="14.00" fill="#000000"> </text>
</g>
<!-- key1&#45;&gt;key2 -->
<g id="edge7" class="edge">
<title>key1:e&#45;&gt;key2:w</title>
<path fill="none" stroke="#000000" d="M230,-19C251,-19 258.7109,-19 275.5581,-19"/>
<polygon fill="none" stroke="#000000" points="276,-22.5001 286,-19 276,-15.5001 276,-22.5001"/>
</g>
</g>
</svg>
