<?xml version="1.0" encoding="UTF-8" standalone="no"?>
<!DOCTYPE svg PUBLIC "-//W3C//DTD SVG 1.1//EN"
 "http://www.w3.org/Graphics/SVG/1.1/DTD/svg11.dtd">
<!-- Generated by graphviz version 2.40.1 (20161225.0304)
 -->
<!-- Title: %3 Pages: 1 -->
<svg width="316pt" height="218pt"
 viewBox="0.00 0.00 316.00 218.00" xmlns="http://www.w3.org/2000/svg" xmlns:xlink="http://www.w3.org/1999/xlink">
<g id="graph0" class="graph" transform="scale(1 1) rotate(0) translate(4 214)">
<title>%3</title>
<polygon fill="#ffffff" stroke="transparent" points="-4,4 -4,-214 312,-214 312,4 -4,4"/>
<!-- hasOverlapWith -->
<g id="node1" class="node">
<title>hasOverlapWith</title>
<g id="a_node1"><a xlink:href="http://emmo.info/emmo/top/mereotopology#EMMO_d893d373_b579_4867_841e_1c2b31a8d2c6" xlink:title="hasOverlapWith">
<polygon fill="#0079ba" stroke="#000000" points="186,-123 80,-123 80,-87 186,-87 186,-123"/>
<text text-anchor="middle" x="133" y="-101.3" font-family="Times,serif" font-size="14.00" fill="#ffffff">hasOverlapWith</text>
</a>
</g>
</g>
<!-- connected -->
<g id="node4" class="node">
<title>connected</title>
<g id="a_node4"><a xlink:href="http://emmo.info/emmo/top/mereotopology#EMMO_6703954e_34c4_4a15_a9e7_f313760ae1a8" xlink:title="connected">
<polygon fill="#0079ba" stroke="#000000" stroke-width="2" points="168.5,-210 97.5,-210 97.5,-174 168.5,-174 168.5,-210"/>
<text text-anchor="middle" x="133" y="-188.3" font-family="Times,serif" font-size="14.00" fill="#ffffff">connected</text>
</a>
</g>
</g>
<!-- hasOverlapWith&#45;&gt;connected -->
<g id="edge1" class="edge">
<title>hasOverlapWith&#45;&gt;connected</title>
<path fill="none" stroke="#000000" d="M133,-123.0265C133,-134.8082 133,-150.4393 133,-163.8419"/>
<polygon fill="none" stroke="#000000" points="129.5001,-163.9966 133,-173.9966 136.5001,-163.9967 129.5001,-163.9966"/>
<text text-anchor="middle" x="142.5" y="-144.8" font-family="Times,serif" font-size="14.00" fill="#000000">isA</text>
</g>
<!-- encloses -->
<g id="node2" class="node">
<title>encloses</title>
<g id="a_node2"><a xlink:href="http://emmo.info/emmo/top/mereotopology#EMMO_8c898653_1118_4682_9bbf_6cc334d16a99" xlink:title="encloses">
<polygon fill="#0079ba" stroke="#000000" points="62,-123 0,-123 0,-87 62,-87 62,-123"/>
<text text-anchor="middle" x="31" y="-101.3" font-family="Times,serif" font-size="14.00" fill="#ffffff">encloses</text>
</a>
</g>
</g>
<!-- encloses&#45;&gt;connected -->
<g id="edge6" class="edge">
<title>encloses&#45;&gt;connected</title>
<path fill="none" stroke="#000000" d="M52.1345,-123.0265C67.1784,-135.8581 87.5756,-153.2557 104.1204,-167.3674"/>
<polygon fill="none" stroke="#000000" points="102.0129,-170.1701 111.8926,-173.9966 106.5556,-164.8442 102.0129,-170.1701"/>
<text text-anchor="middle" x="97.5" y="-144.8" font-family="Times,serif" font-size="14.00" fill="#000000">isA</text>
</g>
<!-- overcrosses -->
<g id="node3" class="node">
<title>overcrosses</title>
<g id="a_node3"><a xlink:href="http://emmo.info/emmo/top/mereotopology#EMMO_9cb984ca_48ad_4864_b09e_50d3fff19420" xlink:title="overcrosses">
<polygon fill="#0079ba" stroke="#000000" points="173,-36 93,-36 93,0 173,0 173,-36"/>
<text text-anchor="middle" x="133" y="-14.3" font-family="Times,serif" font-size="14.00" fill="#ffffff">overcrosses</text>
</a>
</g>
</g>
<!-- overcrosses&#45;&gt;hasOverlapWith -->
<g id="edge5" class="edge">
<title>overcrosses&#45;&gt;hasOverlapWith</title>
<path fill="none" stroke="#000000" d="M133,-36.0265C133,-47.8082 133,-63.4393 133,-76.8419"/>
<polygon fill="none" stroke="#000000" points="129.5001,-76.9966 133,-86.9966 136.5001,-76.9967 129.5001,-76.9966"/>
<text text-anchor="middle" x="142.5" y="-57.8" font-family="Times,serif" font-size="14.00" fill="#000000">isA</text>
</g>
<!-- hasPart -->
<g id="node5" class="node">
<title>hasPart</title>
<g id="a_node5"><a xlink:href="http://emmo.info/emmo/top/mereotopology#EMMO_17e27c22_37e1_468c_9dd7_95e137f73e7f" xlink:title="hasPart">
<polygon fill="#0079ba" stroke="#000000" stroke-width="2" points="71,-36 15,-36 15,0 71,0 71,-36"/>
<text text-anchor="middle" x="43" y="-14.3" font-family="Times,serif" font-size="14.00" fill="#ffffff">hasPart</text>
</a>
</g>
</g>
<!-- hasPart&#45;&gt;hasOverlapWith -->
<g id="edge4" class="edge">
<title>hasPart&#45;&gt;hasOverlapWith</title>
<path fill="none" stroke="#000000" d="M61.6481,-36.0265C74.8015,-48.7414 92.5928,-65.9397 107.119,-79.9817"/>
<polygon fill="none" stroke="#000000" points="104.7533,-82.5629 114.3758,-86.9966 109.6185,-77.5299 104.7533,-82.5629"/>
<text text-anchor="middle" x="102.5" y="-57.8" font-family="Times,serif" font-size="14.00" fill="#000000">isA</text>
</g>
<!-- hasPart&#45;&gt;encloses -->
<g id="edge3" class="edge">
<title>hasPart&#45;&gt;encloses</title>
<path fill="none" stroke="#000000" d="M39.7773,-36.2878C38.8255,-41.956 37.82,-48.2286 37,-54 35.9601,-61.3192 34.9644,-69.2477 34.0933,-76.6229"/>
<polygon fill="none" stroke="#000000" points="30.616,-76.2258 32.9533,-86.5596 37.5704,-77.0237 30.616,-76.2258"/>
<text text-anchor="middle" x="46.5" y="-57.8" font-family="Times,serif" font-size="14.00" fill="#000000">isA</text>
</g>
<!-- hasContactWith -->
<g id="node6" class="node">
<title>hasContactWith</title>
<g id="a_node6"><a xlink:href="http://emmo.info/emmo/top/mereotopology#EMMO_4d6504f1_c470_4ce9_b941_bbbebc9ab05d" xlink:title="hasContactWith">
<polygon fill="#0079ba" stroke="#000000" points="308,-123 204,-123 204,-87 308,-87 308,-123"/>
<text text-anchor="middle" x="256" y="-101.3" font-family="Times,serif" font-size="14.00" fill="#ffffff">hasContactWith</text>
</a>
</g>
</g>
<!-- hasContactWith&#45;&gt;connected -->
<g id="edge2" class="edge">
<title>hasContactWith&#45;&gt;connected</title>
<path fill="none" stroke="#000000" d="M230.5143,-123.0265C212.0432,-136.0914 186.8799,-153.8898 166.7418,-168.1338"/>
<polygon fill="none" stroke="#000000" points="164.5961,-165.3645 158.453,-173.9966 168.6383,-171.0794 164.5961,-165.3645"/>
<text text-anchor="middle" x="210.5" y="-144.8" font-family="Times,serif" font-size="14.00" fill="#000000">isA</text>
</g>
</g>
</svg>
