<?xml version="1.0" encoding="UTF-8" standalone="no"?>
<!DOCTYPE svg PUBLIC "-//W3C//DTD SVG 1.1//EN"
 "http://www.w3.org/Graphics/SVG/1.1/DTD/svg11.dtd">
<!-- Generated by graphviz version 2.40.1 (20161225.0304)
 -->
<!-- Title: %3 Pages: 1 -->
<svg width="447pt" height="188pt"
 viewBox="0.00 0.00 447.00 188.00" xmlns="http://www.w3.org/2000/svg" xmlns:xlink="http://www.w3.org/1999/xlink">
<g id="graph0" class="graph" transform="scale(1 1) rotate(0) translate(4 184)">
<title>%3</title>
<polygon fill="#ffffff" stroke="transparent" points="-4,4 -4,-184 443,-184 443,4 -4,4"/>
<!-- hasContactWith -->
<g id="node1" class="node">
<title>hasContactWith</title>
<g id="a_node1"><a xlink:href="http://emmo.info/emmo/top/mereotopology#EMMO_4d6504f1_c470_4ce9_b941_bbbebc9ab05d" xlink:title="hasContactWith">
<polygon fill="#0079ba" stroke="#000000" points="104,-108 0,-108 0,-72 104,-72 104,-108"/>
<text text-anchor="middle" x="52" y="-86.3" font-family="Times,serif" font-size="14.00" fill="#ffffff">hasContactWith</text>
</a>
</g>
</g>
<!-- connected -->
<g id="node4" class="node">
<title>connected</title>
<g id="a_node4"><a xlink:href="http://emmo.info/emmo/top/mereotopology#EMMO_6703954e_34c4_4a15_a9e7_f313760ae1a8" xlink:title="connected">
<polygon fill="#0079ba" stroke="#000000" stroke-width="2" points="188.5,-180 117.5,-180 117.5,-144 188.5,-144 188.5,-180"/>
<text text-anchor="middle" x="153" y="-158.3" font-family="Times,serif" font-size="14.00" fill="#ffffff">connected</text>
</a>
</g>
</g>
<!-- hasContactWith&#45;&gt;connected -->
<g id="edge4" class="edge">
<title>hasContactWith&#45;&gt;connected</title>
<path fill="none" stroke="#000000" d="M77.4866,-108.1686C90.1659,-117.2073 105.6596,-128.2524 119.3055,-137.9802"/>
<polygon fill="none" stroke="#000000" points="117.3471,-140.8824 127.5216,-143.8372 121.4105,-135.1824 117.3471,-140.8824"/>
</g>
<!-- overcrosses -->
<g id="node2" class="node">
<title>overcrosses</title>
<g id="a_node2"><a xlink:href="http://emmo.info/emmo/top/mereotopology#EMMO_9cb984ca_48ad_4864_b09e_50d3fff19420" xlink:title="overcrosses">
<polygon fill="#0079ba" stroke="#000000" points="295,-36 215,-36 215,0 295,0 295,-36"/>
<text text-anchor="middle" x="255" y="-14.3" font-family="Times,serif" font-size="14.00" fill="#ffffff">overcrosses</text>
</a>
</g>
</g>
<!-- hasOverlapWith -->
<g id="node5" class="node">
<title>hasOverlapWith</title>
<g id="a_node5"><a xlink:href="http://emmo.info/emmo/top/mereotopology#EMMO_d893d373_b579_4867_841e_1c2b31a8d2c6" xlink:title="hasOverlapWith">
<polygon fill="#0079ba" stroke="#000000" points="308,-108 202,-108 202,-72 308,-72 308,-108"/>
<text text-anchor="middle" x="255" y="-86.3" font-family="Times,serif" font-size="14.00" fill="#ffffff">hasOverlapWith</text>
</a>
</g>
</g>
<!-- overcrosses&#45;&gt;hasOverlapWith -->
<g id="edge6" class="edge">
<title>overcrosses&#45;&gt;hasOverlapWith</title>
<path fill="none" stroke="#000000" d="M255,-36.1686C255,-43.869 255,-53.0257 255,-61.5834"/>
<polygon fill="none" stroke="#000000" points="251.5001,-61.5867 255,-71.5867 258.5001,-61.5868 251.5001,-61.5867"/>
</g>
<!-- encloses -->
<g id="node3" class="node">
<title>encloses</title>
<g id="a_node3"><a xlink:href="http://emmo.info/emmo/top/mereotopology#EMMO_8c898653_1118_4682_9bbf_6cc334d16a99" xlink:title="encloses">
<polygon fill="#0079ba" stroke="#000000" points="184,-108 122,-108 122,-72 184,-72 184,-108"/>
<text text-anchor="middle" x="153" y="-86.3" font-family="Times,serif" font-size="14.00" fill="#ffffff">encloses</text>
</a>
</g>
</g>
<!-- encloses&#45;&gt;connected -->
<g id="edge1" class="edge">
<title>encloses&#45;&gt;connected</title>
<path fill="none" stroke="#000000" d="M153,-108.1686C153,-115.869 153,-125.0257 153,-133.5834"/>
<polygon fill="none" stroke="#000000" points="149.5001,-133.5867 153,-143.5867 156.5001,-133.5868 149.5001,-133.5867"/>
</g>
<!-- hasOverlapWith&#45;&gt;connected -->
<g id="edge5" class="edge">
<title>hasOverlapWith&#45;&gt;connected</title>
<path fill="none" stroke="#000000" d="M229.2611,-108.1686C216.4563,-117.2073 200.8091,-128.2524 187.0281,-137.9802"/>
<polygon fill="none" stroke="#000000" points="184.882,-135.2109 178.7307,-143.8372 188.9188,-140.9297 184.882,-135.2109"/>
</g>
<!-- hasPart -->
<g id="node6" class="node">
<title>hasPart</title>
<g id="a_node6"><a xlink:href="http://emmo.info/emmo/top/mereotopology#EMMO_17e27c22_37e1_468c_9dd7_95e137f73e7f" xlink:title="hasPart">
<polygon fill="#0079ba" stroke="#000000" stroke-width="2" points="189,-36 133,-36 133,0 189,0 189,-36"/>
<text text-anchor="middle" x="161" y="-14.3" font-family="Times,serif" font-size="14.00" fill="#ffffff">hasPart</text>
</a>
</g>
</g>
<!-- hasPart&#45;&gt;encloses -->
<g id="edge2" class="edge">
<title>hasPart&#45;&gt;encloses</title>
<path fill="none" stroke="#000000" d="M158.9813,-36.1686C158.1257,-43.869 157.1083,-53.0257 156.1574,-61.5834"/>
<polygon fill="none" stroke="#000000" points="152.6717,-61.2614 155.0459,-71.5867 159.6289,-62.0344 152.6717,-61.2614"/>
</g>
<!-- hasPart&#45;&gt;hasOverlapWith -->
<g id="edge3" class="edge">
<title>hasPart&#45;&gt;hasOverlapWith</title>
<path fill="none" stroke="#000000" d="M184.7202,-36.1686C196.4094,-45.1221 210.6688,-56.0442 223.2809,-65.7045"/>
<polygon fill="none" stroke="#000000" points="221.2203,-68.5349 231.2874,-71.8372 225.4769,-62.9778 221.2203,-68.5349"/>
</g>
<!-- key1 -->
<g id="node7" class="node">
<title>key1</title>
<text text-anchor="start" x="331" y="-13.8" font-family="Times,serif" font-size="14.00" fill="#000000">isA</text>
</g>
<!-- key2 -->
<g id="node8" class="node">
<title>key2</title>
<text text-anchor="start" x="410" y="-13.8" font-family="Times,serif" font-size="14.00" fill="#000000"> </text>
</g>
<!-- key1&#45;&gt;key2 -->
<g id="edge7" class="edge">
<title>key1:e&#45;&gt;key2:w</title>
<path fill="none" stroke="#000000" d="M352,-19C373,-19 380.7109,-19 397.5581,-19"/>
<polygon fill="none" stroke="#000000" points="398,-22.5001 408,-19 398,-15.5001 398,-22.5001"/>
</g>
</g>
</svg>
