<?xml version="1.0" encoding="UTF-8" standalone="no"?>
<!DOCTYPE svg PUBLIC "-//W3C//DTD SVG 1.1//EN"
 "http://www.w3.org/Graphics/SVG/1.1/DTD/svg11.dtd">
<!-- Generated by graphviz version 2.40.1 (20161225.0304)
 -->
<!-- Title: %3 Pages: 1 -->
<svg width="388pt" height="188pt"
 viewBox="0.00 0.00 388.00 188.00" xmlns="http://www.w3.org/2000/svg" xmlns:xlink="http://www.w3.org/1999/xlink">
<g id="graph0" class="graph" transform="scale(1 1) rotate(0) translate(4 184)">
<title>%3</title>
<polygon fill="#ffffff" stroke="transparent" points="-4,4 -4,-184 384,-184 384,4 -4,4"/>
<!-- overcrosses -->
<g id="node1" class="node">
<title>overcrosses</title>
<g id="a_node1"><a xlink:href="http://emmo.info/emmo/top/mereotopology#EMMO_9cb984ca_48ad_4864_b09e_50d3fff19420" xlink:title="overcrosses">
<polygon fill="#0079ba" stroke="#000000" points="93,-36 13,-36 13,0 93,0 93,-36"/>
<text text-anchor="middle" x="53" y="-14.3" font-family="Times,serif" font-size="14.00" fill="#ffffff">overcrosses</text>
</a>
</g>
</g>
<!-- hasOverlapWith -->
<g id="node3" class="node">
<title>hasOverlapWith</title>
<g id="a_node3"><a xlink:href="http://emmo.info/emmo/top/mereotopology#EMMO_d893d373_b579_4867_841e_1c2b31a8d2c6" xlink:title="hasOverlapWith">
<polygon fill="#0079ba" stroke="#000000" points="106,-108 0,-108 0,-72 106,-72 106,-108"/>
<text text-anchor="middle" x="53" y="-86.3" font-family="Times,serif" font-size="14.00" fill="#ffffff">hasOverlapWith</text>
</a>
</g>
</g>
<!-- overcrosses&#45;&gt;hasOverlapWith -->
<g id="edge6" class="edge">
<title>overcrosses&#45;&gt;hasOverlapWith</title>
<path fill="none" stroke="#000000" d="M53,-36.1686C53,-43.869 53,-53.0257 53,-61.5834"/>
<polygon fill="none" stroke="#000000" points="49.5001,-61.5867 53,-71.5867 56.5001,-61.5868 49.5001,-61.5867"/>
</g>
<!-- hasPart -->
<g id="node2" class="node">
<title>hasPart</title>
<g id="a_node2"><a xlink:href="http://emmo.info/emmo/top/mereotopology#EMMO_17e27c22_37e1_468c_9dd7_95e137f73e7f" xlink:title="hasPart">
<polygon fill="#0079ba" stroke="#000000" stroke-width="2" points="236,-36 180,-36 180,0 236,0 236,-36"/>
<text text-anchor="middle" x="208" y="-14.3" font-family="Times,serif" font-size="14.00" fill="#ffffff">hasPart</text>
</a>
</g>
</g>
<!-- hasPart&#45;&gt;hasOverlapWith -->
<g id="edge5" class="edge">
<title>hasPart&#45;&gt;hasOverlapWith</title>
<path fill="none" stroke="#000000" d="M179.9307,-31.0387C158.0199,-41.2166 127.0621,-55.597 101.2055,-67.6078"/>
<polygon fill="none" stroke="#000000" points="99.5312,-64.5263 91.9364,-71.9134 102.4802,-70.8748 99.5312,-64.5263"/>
</g>
<!-- encloses -->
<g id="node6" class="node">
<title>encloses</title>
<g id="a_node6"><a xlink:href="http://emmo.info/emmo/top/mereotopology#EMMO_8c898653_1118_4682_9bbf_6cc334d16a99" xlink:title="encloses">
<polygon fill="#0079ba" stroke="#000000" points="308,-108 246,-108 246,-72 308,-72 308,-108"/>
<text text-anchor="middle" x="277" y="-86.3" font-family="Times,serif" font-size="14.00" fill="#ffffff">encloses</text>
</a>
</g>
</g>
<!-- hasPart&#45;&gt;encloses -->
<g id="edge4" class="edge">
<title>hasPart&#45;&gt;encloses</title>
<path fill="none" stroke="#000000" d="M225.4116,-36.1686C233.521,-44.6306 243.3156,-54.8511 252.182,-64.1029"/>
<polygon fill="none" stroke="#000000" points="249.9079,-66.7885 259.354,-71.5867 254.9618,-61.9451 249.9079,-66.7885"/>
</g>
<!-- connected -->
<g id="node5" class="node">
<title>connected</title>
<g id="a_node5"><a xlink:href="http://emmo.info/emmo/top/mereotopology#EMMO_6703954e_34c4_4a15_a9e7_f313760ae1a8" xlink:title="connected">
<polygon fill="#0079ba" stroke="#000000" stroke-width="2" points="211.5,-180 140.5,-180 140.5,-144 211.5,-144 211.5,-180"/>
<text text-anchor="middle" x="176" y="-158.3" font-family="Times,serif" font-size="14.00" fill="#ffffff">connected</text>
</a>
</g>
</g>
<!-- hasOverlapWith&#45;&gt;connected -->
<g id="edge3" class="edge">
<title>hasOverlapWith&#45;&gt;connected</title>
<path fill="none" stroke="#000000" d="M84.0381,-108.1686C99.7705,-117.3779 119.0611,-128.6699 135.9044,-138.5294"/>
<polygon fill="none" stroke="#000000" points="134.5735,-141.8059 144.9718,-143.8372 138.1098,-135.7648 134.5735,-141.8059"/>
</g>
<!-- hasContactWith -->
<g id="node4" class="node">
<title>hasContactWith</title>
<g id="a_node4"><a xlink:href="http://emmo.info/emmo/top/mereotopology#EMMO_4d6504f1_c470_4ce9_b941_bbbebc9ab05d" xlink:title="hasContactWith">
<polygon fill="#0079ba" stroke="#000000" points="228,-108 124,-108 124,-72 228,-72 228,-108"/>
<text text-anchor="middle" x="176" y="-86.3" font-family="Times,serif" font-size="14.00" fill="#ffffff">hasContactWith</text>
</a>
</g>
</g>
<!-- hasContactWith&#45;&gt;connected -->
<g id="edge2" class="edge">
<title>hasContactWith&#45;&gt;connected</title>
<path fill="none" stroke="#000000" d="M176,-108.1686C176,-115.869 176,-125.0257 176,-133.5834"/>
<polygon fill="none" stroke="#000000" points="172.5001,-133.5867 176,-143.5867 179.5001,-133.5868 172.5001,-133.5867"/>
</g>
<!-- encloses&#45;&gt;connected -->
<g id="edge1" class="edge">
<title>encloses&#45;&gt;connected</title>
<path fill="none" stroke="#000000" d="M251.5134,-108.1686C238.8341,-117.2073 223.3404,-128.2524 209.6945,-137.9802"/>
<polygon fill="none" stroke="#000000" points="207.5895,-135.1824 201.4784,-143.8372 211.6529,-140.8824 207.5895,-135.1824"/>
</g>
<!-- key1 -->
<g id="node7" class="node">
<title>key1</title>
<text text-anchor="start" x="272" y="-13.8" font-family="Times,serif" font-size="14.00" fill="#000000">isA</text>
</g>
<!-- key2 -->
<g id="node8" class="node">
<title>key2</title>
<text text-anchor="start" x="351" y="-13.8" font-family="Times,serif" font-size="14.00" fill="#000000"> </text>
</g>
<!-- key1&#45;&gt;key2 -->
<g id="edge7" class="edge">
<title>key1:e&#45;&gt;key2:w</title>
<path fill="none" stroke="#000000" d="M293,-19C314,-19 321.7109,-19 338.5581,-19"/>
<polygon fill="none" stroke="#000000" points="339,-22.5001 349,-19 339,-15.5001 339,-22.5001"/>
</g>
</g>
</svg>
