<?xml version="1.0" encoding="UTF-8" standalone="no"?>
<!DOCTYPE svg PUBLIC "-//W3C//DTD SVG 1.1//EN"
 "http://www.w3.org/Graphics/SVG/1.1/DTD/svg11.dtd">
<!-- Generated by graphviz version 2.40.1 (20161225.0304)
 -->
<!-- Title: %3 Pages: 1 -->
<svg width="327pt" height="188pt"
 viewBox="0.00 0.00 327.00 188.00" xmlns="http://www.w3.org/2000/svg" xmlns:xlink="http://www.w3.org/1999/xlink">
<g id="graph0" class="graph" transform="scale(1 1) rotate(0) translate(4 184)">
<title>%3</title>
<polygon fill="#ffffff" stroke="transparent" points="-4,4 -4,-184 323,-184 323,4 -4,4"/>
<!-- hasOverlapWith -->
<g id="node1" class="node">
<title>hasOverlapWith</title>
<g id="a_node1"><a xlink:href="http://emmo.info/emmo/top/mereotopology#EMMO_d893d373_b579_4867_841e_1c2b31a8d2c6" xlink:title="hasOverlapWith">
<polygon fill="#0079ba" stroke="#000000" points="106,-108 0,-108 0,-72 106,-72 106,-108"/>
<text text-anchor="middle" x="53" y="-86.3" font-family="Times,serif" font-size="14.00" fill="#ffffff">hasOverlapWith</text>
</a>
</g>
</g>
<!-- connected -->
<g id="node3" class="node">
<title>connected</title>
<g id="a_node3"><a xlink:href="http://emmo.info/emmo/top/mereotopology#EMMO_6703954e_34c4_4a15_a9e7_f313760ae1a8" xlink:title="connected">
<polygon fill="#0079ba" stroke="#000000" stroke-width="2" points="190.5,-180 119.5,-180 119.5,-144 190.5,-144 190.5,-180"/>
<text text-anchor="middle" x="155" y="-158.3" font-family="Times,serif" font-size="14.00" fill="#ffffff">connected</text>
</a>
</g>
</g>
<!-- hasOverlapWith&#45;&gt;connected -->
<g id="edge6" class="edge">
<title>hasOverlapWith&#45;&gt;connected</title>
<path fill="none" stroke="#000000" d="M78.7389,-108.1686C91.5437,-117.2073 107.1909,-128.2524 120.9719,-137.9802"/>
<polygon fill="none" stroke="#000000" points="119.0812,-140.9297 129.2693,-143.8372 123.118,-135.2109 119.0812,-140.9297"/>
</g>
<!-- encloses -->
<g id="node2" class="node">
<title>encloses</title>
<g id="a_node2"><a xlink:href="http://emmo.info/emmo/top/mereotopology#EMMO_8c898653_1118_4682_9bbf_6cc334d16a99" xlink:title="encloses">
<polygon fill="#0079ba" stroke="#000000" points="186,-108 124,-108 124,-72 186,-72 186,-108"/>
<text text-anchor="middle" x="155" y="-86.3" font-family="Times,serif" font-size="14.00" fill="#ffffff">encloses</text>
</a>
</g>
</g>
<!-- encloses&#45;&gt;connected -->
<g id="edge3" class="edge">
<title>encloses&#45;&gt;connected</title>
<path fill="none" stroke="#000000" d="M155,-108.1686C155,-115.869 155,-125.0257 155,-133.5834"/>
<polygon fill="none" stroke="#000000" points="151.5001,-133.5867 155,-143.5867 158.5001,-133.5868 151.5001,-133.5867"/>
</g>
<!-- hasPart -->
<g id="node4" class="node">
<title>hasPart</title>
<g id="a_node4"><a xlink:href="http://emmo.info/emmo/top/mereotopology#EMMO_17e27c22_37e1_468c_9dd7_95e137f73e7f" xlink:title="hasPart">
<polygon fill="#0079ba" stroke="#000000" stroke-width="2" points="175,-36 119,-36 119,0 175,0 175,-36"/>
<text text-anchor="middle" x="147" y="-14.3" font-family="Times,serif" font-size="14.00" fill="#ffffff">hasPart</text>
</a>
</g>
</g>
<!-- hasPart&#45;&gt;hasOverlapWith -->
<g id="edge2" class="edge">
<title>hasPart&#45;&gt;hasOverlapWith</title>
<path fill="none" stroke="#000000" d="M123.2798,-36.1686C111.5906,-45.1221 97.3312,-56.0442 84.7191,-65.7045"/>
<polygon fill="none" stroke="#000000" points="82.5231,-62.9778 76.7126,-71.8372 86.7797,-68.5349 82.5231,-62.9778"/>
</g>
<!-- hasPart&#45;&gt;encloses -->
<g id="edge1" class="edge">
<title>hasPart&#45;&gt;encloses</title>
<path fill="none" stroke="#000000" d="M149.0187,-36.1686C149.8743,-43.869 150.8917,-53.0257 151.8426,-61.5834"/>
<polygon fill="none" stroke="#000000" points="148.3711,-62.0344 152.9541,-71.5867 155.3283,-61.2614 148.3711,-62.0344"/>
</g>
<!-- overcrosses -->
<g id="node5" class="node">
<title>overcrosses</title>
<g id="a_node5"><a xlink:href="http://emmo.info/emmo/top/mereotopology#EMMO_9cb984ca_48ad_4864_b09e_50d3fff19420" xlink:title="overcrosses">
<polygon fill="#0079ba" stroke="#000000" points="93,-36 13,-36 13,0 93,0 93,-36"/>
<text text-anchor="middle" x="53" y="-14.3" font-family="Times,serif" font-size="14.00" fill="#ffffff">overcrosses</text>
</a>
</g>
</g>
<!-- overcrosses&#45;&gt;hasOverlapWith -->
<g id="edge4" class="edge">
<title>overcrosses&#45;&gt;hasOverlapWith</title>
<path fill="none" stroke="#000000" d="M53,-36.1686C53,-43.869 53,-53.0257 53,-61.5834"/>
<polygon fill="none" stroke="#000000" points="49.5001,-61.5867 53,-71.5867 56.5001,-61.5868 49.5001,-61.5867"/>
</g>
<!-- hasContactWith -->
<g id="node6" class="node">
<title>hasContactWith</title>
<g id="a_node6"><a xlink:href="http://emmo.info/emmo/top/mereotopology#EMMO_4d6504f1_c470_4ce9_b941_bbbebc9ab05d" xlink:title="hasContactWith">
<polygon fill="#0079ba" stroke="#000000" points="308,-108 204,-108 204,-72 308,-72 308,-108"/>
<text text-anchor="middle" x="256" y="-86.3" font-family="Times,serif" font-size="14.00" fill="#ffffff">hasContactWith</text>
</a>
</g>
</g>
<!-- hasContactWith&#45;&gt;connected -->
<g id="edge5" class="edge">
<title>hasContactWith&#45;&gt;connected</title>
<path fill="none" stroke="#000000" d="M230.5134,-108.1686C217.8341,-117.2073 202.3404,-128.2524 188.6945,-137.9802"/>
<polygon fill="none" stroke="#000000" points="186.5895,-135.1824 180.4784,-143.8372 190.6529,-140.8824 186.5895,-135.1824"/>
</g>
<!-- key1 -->
<g id="node7" class="node">
<title>key1</title>
<text text-anchor="start" x="211" y="-13.8" font-family="Times,serif" font-size="14.00" fill="#000000">isA</text>
</g>
<!-- key2 -->
<g id="node8" class="node">
<title>key2</title>
<text text-anchor="start" x="290" y="-13.8" font-family="Times,serif" font-size="14.00" fill="#000000"> </text>
</g>
<!-- key1&#45;&gt;key2 -->
<g id="edge7" class="edge">
<title>key1:e&#45;&gt;key2:w</title>
<path fill="none" stroke="#000000" d="M232,-19C253,-19 260.7109,-19 277.5581,-19"/>
<polygon fill="none" stroke="#000000" points="278,-22.5001 288,-19 278,-15.5001 278,-22.5001"/>
</g>
</g>
</svg>
