<?xml version="1.0" encoding="UTF-8" standalone="no"?>
<!DOCTYPE svg PUBLIC "-//W3C//DTD SVG 1.1//EN"
 "http://www.w3.org/Graphics/SVG/1.1/DTD/svg11.dtd">
<!-- Generated by graphviz version 2.40.1 (20161225.0304)
 -->
<!-- Title: %3 Pages: 1 -->
<svg width="316pt" height="218pt"
 viewBox="0.00 0.00 316.00 218.00" xmlns="http://www.w3.org/2000/svg" xmlns:xlink="http://www.w3.org/1999/xlink">
<g id="graph0" class="graph" transform="scale(1 1) rotate(0) translate(4 214)">
<title>%3</title>
<polygon fill="#ffffff" stroke="transparent" points="-4,4 -4,-214 312,-214 312,4 -4,4"/>
<!-- hasContactWith -->
<g id="node1" class="node">
<title>hasContactWith</title>
<g id="a_node1"><a xlink:href="http://emmo.info/emmo/top/mereotopology#EMMO_4d6504f1_c470_4ce9_b941_bbbebc9ab05d" xlink:title="hasContactWith">
<polygon fill="#0079ba" stroke="#000000" points="104,-123 0,-123 0,-87 104,-87 104,-123"/>
<text text-anchor="middle" x="52" y="-101.3" font-family="Times,serif" font-size="14.00" fill="#ffffff">hasContactWith</text>
</a>
</g>
</g>
<!-- connected -->
<g id="node2" class="node">
<title>connected</title>
<g id="a_node2"><a xlink:href="http://emmo.info/emmo/top/mereotopology#EMMO_6703954e_34c4_4a15_a9e7_f313760ae1a8" xlink:title="connected">
<polygon fill="#0079ba" stroke="#000000" stroke-width="2" points="210.5,-210 139.5,-210 139.5,-174 210.5,-174 210.5,-210"/>
<text text-anchor="middle" x="175" y="-188.3" font-family="Times,serif" font-size="14.00" fill="#ffffff">connected</text>
</a>
</g>
</g>
<!-- hasContactWith&#45;&gt;connected -->
<g id="edge5" class="edge">
<title>hasContactWith&#45;&gt;connected</title>
<path fill="none" stroke="#000000" d="M77.4857,-123.0265C95.9568,-136.0914 121.1201,-153.8898 141.2582,-168.1338"/>
<polygon fill="none" stroke="#000000" points="139.3617,-171.0794 149.547,-173.9966 143.4039,-165.3645 139.3617,-171.0794"/>
<text text-anchor="middle" x="130.5" y="-144.8" font-family="Times,serif" font-size="14.00" fill="#000000">isA</text>
</g>
<!-- hasOverlapWith -->
<g id="node3" class="node">
<title>hasOverlapWith</title>
<g id="a_node3"><a xlink:href="http://emmo.info/emmo/top/mereotopology#EMMO_d893d373_b579_4867_841e_1c2b31a8d2c6" xlink:title="hasOverlapWith">
<polygon fill="#0079ba" stroke="#000000" points="228,-123 122,-123 122,-87 228,-87 228,-123"/>
<text text-anchor="middle" x="175" y="-101.3" font-family="Times,serif" font-size="14.00" fill="#ffffff">hasOverlapWith</text>
</a>
</g>
</g>
<!-- hasOverlapWith&#45;&gt;connected -->
<g id="edge4" class="edge">
<title>hasOverlapWith&#45;&gt;connected</title>
<path fill="none" stroke="#000000" d="M175,-123.0265C175,-134.8082 175,-150.4393 175,-163.8419"/>
<polygon fill="none" stroke="#000000" points="171.5001,-163.9966 175,-173.9966 178.5001,-163.9967 171.5001,-163.9966"/>
<text text-anchor="middle" x="184.5" y="-144.8" font-family="Times,serif" font-size="14.00" fill="#000000">isA</text>
</g>
<!-- encloses -->
<g id="node4" class="node">
<title>encloses</title>
<g id="a_node4"><a xlink:href="http://emmo.info/emmo/top/mereotopology#EMMO_8c898653_1118_4682_9bbf_6cc334d16a99" xlink:title="encloses">
<polygon fill="#0079ba" stroke="#000000" points="308,-123 246,-123 246,-87 308,-87 308,-123"/>
<text text-anchor="middle" x="277" y="-101.3" font-family="Times,serif" font-size="14.00" fill="#ffffff">encloses</text>
</a>
</g>
</g>
<!-- encloses&#45;&gt;connected -->
<g id="edge3" class="edge">
<title>encloses&#45;&gt;connected</title>
<path fill="none" stroke="#000000" d="M255.8655,-123.0265C240.8216,-135.8581 220.4244,-153.2557 203.8796,-167.3674"/>
<polygon fill="none" stroke="#000000" points="201.4444,-164.8442 196.1074,-173.9966 205.9871,-170.1701 201.4444,-164.8442"/>
<text text-anchor="middle" x="242.5" y="-144.8" font-family="Times,serif" font-size="14.00" fill="#000000">isA</text>
</g>
<!-- overcrosses -->
<g id="node5" class="node">
<title>overcrosses</title>
<g id="a_node5"><a xlink:href="http://emmo.info/emmo/top/mereotopology#EMMO_9cb984ca_48ad_4864_b09e_50d3fff19420" xlink:title="overcrosses">
<polygon fill="#0079ba" stroke="#000000" points="215,-36 135,-36 135,0 215,0 215,-36"/>
<text text-anchor="middle" x="175" y="-14.3" font-family="Times,serif" font-size="14.00" fill="#ffffff">overcrosses</text>
</a>
</g>
</g>
<!-- overcrosses&#45;&gt;hasOverlapWith -->
<g id="edge6" class="edge">
<title>overcrosses&#45;&gt;hasOverlapWith</title>
<path fill="none" stroke="#000000" d="M175,-36.0265C175,-47.8082 175,-63.4393 175,-76.8419"/>
<polygon fill="none" stroke="#000000" points="171.5001,-76.9966 175,-86.9966 178.5001,-76.9967 171.5001,-76.9966"/>
<text text-anchor="middle" x="184.5" y="-57.8" font-family="Times,serif" font-size="14.00" fill="#000000">isA</text>
</g>
<!-- hasPart -->
<g id="node6" class="node">
<title>hasPart</title>
<g id="a_node6"><a xlink:href="http://emmo.info/emmo/top/mereotopology#EMMO_17e27c22_37e1_468c_9dd7_95e137f73e7f" xlink:title="hasPart">
<polygon fill="#0079ba" stroke="#000000" stroke-width="2" points="297,-36 241,-36 241,0 297,0 297,-36"/>
<text text-anchor="middle" x="269" y="-14.3" font-family="Times,serif" font-size="14.00" fill="#ffffff">hasPart</text>
</a>
</g>
</g>
<!-- hasPart&#45;&gt;hasOverlapWith -->
<g id="edge2" class="edge">
<title>hasPart&#45;&gt;hasOverlapWith</title>
<path fill="none" stroke="#000000" d="M249.5231,-36.0265C235.7851,-48.7414 217.2031,-65.9397 202.0312,-79.9817"/>
<polygon fill="none" stroke="#000000" points="199.4136,-77.6354 194.4519,-86.9966 204.1684,-82.7728 199.4136,-77.6354"/>
<text text-anchor="middle" x="237.5" y="-57.8" font-family="Times,serif" font-size="14.00" fill="#000000">isA</text>
</g>
<!-- hasPart&#45;&gt;encloses -->
<g id="edge1" class="edge">
<title>hasPart&#45;&gt;encloses</title>
<path fill="none" stroke="#000000" d="M270.6576,-36.0265C271.741,-47.8082 273.1783,-63.4393 274.4108,-76.8419"/>
<polygon fill="none" stroke="#000000" points="270.9435,-77.3592 275.3445,-86.9966 277.914,-76.7181 270.9435,-77.3592"/>
<text text-anchor="middle" x="282.5" y="-57.8" font-family="Times,serif" font-size="14.00" fill="#000000">isA</text>
</g>
</g>
</svg>
