<?xml version="1.0" encoding="UTF-8" standalone="no"?>
<!DOCTYPE svg PUBLIC "-//W3C//DTD SVG 1.1//EN"
 "http://www.w3.org/Graphics/SVG/1.1/DTD/svg11.dtd">
<!-- Generated by graphviz version 2.40.1 (20161225.0304)
 -->
<!-- Title: %3 Pages: 1 -->
<svg width="449pt" height="188pt"
 viewBox="0.00 0.00 449.00 188.00" xmlns="http://www.w3.org/2000/svg" xmlns:xlink="http://www.w3.org/1999/xlink">
<g id="graph0" class="graph" transform="scale(1 1) rotate(0) translate(4 184)">
<title>%3</title>
<polygon fill="#ffffff" stroke="transparent" points="-4,4 -4,-184 445,-184 445,4 -4,4"/>
<!-- hasOverlapWith -->
<g id="node1" class="node">
<title>hasOverlapWith</title>
<g id="a_node1"><a xlink:href="http://emmo.info/emmo/top/mereotopology#EMMO_d893d373_b579_4867_841e_1c2b31a8d2c6" xlink:title="hasOverlapWith">
<polygon fill="#0079ba" stroke="#000000" points="228,-108 122,-108 122,-72 228,-72 228,-108"/>
<text text-anchor="middle" x="175" y="-86.3" font-family="Times,serif" font-size="14.00" fill="#ffffff">hasOverlapWith</text>
</a>
</g>
</g>
<!-- connected -->
<g id="node3" class="node">
<title>connected</title>
<g id="a_node3"><a xlink:href="http://emmo.info/emmo/top/mereotopology#EMMO_6703954e_34c4_4a15_a9e7_f313760ae1a8" xlink:title="connected">
<polygon fill="#0079ba" stroke="#000000" stroke-width="2" points="210.5,-180 139.5,-180 139.5,-144 210.5,-144 210.5,-180"/>
<text text-anchor="middle" x="175" y="-158.3" font-family="Times,serif" font-size="14.00" fill="#ffffff">connected</text>
</a>
</g>
</g>
<!-- hasOverlapWith&#45;&gt;connected -->
<g id="edge3" class="edge">
<title>hasOverlapWith&#45;&gt;connected</title>
<path fill="none" stroke="#000000" d="M175,-108.1686C175,-115.869 175,-125.0257 175,-133.5834"/>
<polygon fill="none" stroke="#000000" points="171.5001,-133.5867 175,-143.5867 178.5001,-133.5868 171.5001,-133.5867"/>
</g>
<!-- overcrosses -->
<g id="node2" class="node">
<title>overcrosses</title>
<g id="a_node2"><a xlink:href="http://emmo.info/emmo/top/mereotopology#EMMO_9cb984ca_48ad_4864_b09e_50d3fff19420" xlink:title="overcrosses">
<polygon fill="#0079ba" stroke="#000000" points="215,-36 135,-36 135,0 215,0 215,-36"/>
<text text-anchor="middle" x="175" y="-14.3" font-family="Times,serif" font-size="14.00" fill="#ffffff">overcrosses</text>
</a>
</g>
</g>
<!-- overcrosses&#45;&gt;hasOverlapWith -->
<g id="edge2" class="edge">
<title>overcrosses&#45;&gt;hasOverlapWith</title>
<path fill="none" stroke="#000000" d="M175,-36.1686C175,-43.869 175,-53.0257 175,-61.5834"/>
<polygon fill="none" stroke="#000000" points="171.5001,-61.5867 175,-71.5867 178.5001,-61.5868 171.5001,-61.5867"/>
</g>
<!-- hasPart -->
<g id="node4" class="node">
<title>hasPart</title>
<g id="a_node4"><a xlink:href="http://emmo.info/emmo/top/mereotopology#EMMO_17e27c22_37e1_468c_9dd7_95e137f73e7f" xlink:title="hasPart">
<polygon fill="#0079ba" stroke="#000000" stroke-width="2" points="297,-36 241,-36 241,0 297,0 297,-36"/>
<text text-anchor="middle" x="269" y="-14.3" font-family="Times,serif" font-size="14.00" fill="#ffffff">hasPart</text>
</a>
</g>
</g>
<!-- hasPart&#45;&gt;hasOverlapWith -->
<g id="edge5" class="edge">
<title>hasPart&#45;&gt;hasOverlapWith</title>
<path fill="none" stroke="#000000" d="M245.2798,-36.1686C233.5906,-45.1221 219.3312,-56.0442 206.7191,-65.7045"/>
<polygon fill="none" stroke="#000000" points="204.5231,-62.9778 198.7126,-71.8372 208.7797,-68.5349 204.5231,-62.9778"/>
</g>
<!-- encloses -->
<g id="node6" class="node">
<title>encloses</title>
<g id="a_node6"><a xlink:href="http://emmo.info/emmo/top/mereotopology#EMMO_8c898653_1118_4682_9bbf_6cc334d16a99" xlink:title="encloses">
<polygon fill="#0079ba" stroke="#000000" points="308,-108 246,-108 246,-72 308,-72 308,-108"/>
<text text-anchor="middle" x="277" y="-86.3" font-family="Times,serif" font-size="14.00" fill="#ffffff">encloses</text>
</a>
</g>
</g>
<!-- hasPart&#45;&gt;encloses -->
<g id="edge4" class="edge">
<title>hasPart&#45;&gt;encloses</title>
<path fill="none" stroke="#000000" d="M271.0187,-36.1686C271.8743,-43.869 272.8917,-53.0257 273.8426,-61.5834"/>
<polygon fill="none" stroke="#000000" points="270.3711,-62.0344 274.9541,-71.5867 277.3283,-61.2614 270.3711,-62.0344"/>
</g>
<!-- hasContactWith -->
<g id="node5" class="node">
<title>hasContactWith</title>
<g id="a_node5"><a xlink:href="http://emmo.info/emmo/top/mereotopology#EMMO_4d6504f1_c470_4ce9_b941_bbbebc9ab05d" xlink:title="hasContactWith">
<polygon fill="#0079ba" stroke="#000000" points="104,-108 0,-108 0,-72 104,-72 104,-108"/>
<text text-anchor="middle" x="52" y="-86.3" font-family="Times,serif" font-size="14.00" fill="#ffffff">hasContactWith</text>
</a>
</g>
</g>
<!-- hasContactWith&#45;&gt;connected -->
<g id="edge1" class="edge">
<title>hasContactWith&#45;&gt;connected</title>
<path fill="none" stroke="#000000" d="M83.0381,-108.1686C98.7705,-117.3779 118.0611,-128.6699 134.9044,-138.5294"/>
<polygon fill="none" stroke="#000000" points="133.5735,-141.8059 143.9718,-143.8372 137.1098,-135.7648 133.5735,-141.8059"/>
</g>
<!-- encloses&#45;&gt;connected -->
<g id="edge6" class="edge">
<title>encloses&#45;&gt;connected</title>
<path fill="none" stroke="#000000" d="M251.2611,-108.1686C238.4563,-117.2073 222.8091,-128.2524 209.0281,-137.9802"/>
<polygon fill="none" stroke="#000000" points="206.882,-135.2109 200.7307,-143.8372 210.9188,-140.9297 206.882,-135.2109"/>
</g>
<!-- key1 -->
<g id="node7" class="node">
<title>key1</title>
<text text-anchor="start" x="333" y="-13.8" font-family="Times,serif" font-size="14.00" fill="#000000">isA</text>
</g>
<!-- key2 -->
<g id="node8" class="node">
<title>key2</title>
<text text-anchor="start" x="412" y="-13.8" font-family="Times,serif" font-size="14.00" fill="#000000"> </text>
</g>
<!-- key1&#45;&gt;key2 -->
<g id="edge7" class="edge">
<title>key1:e&#45;&gt;key2:w</title>
<path fill="none" stroke="#000000" d="M354,-19C375,-19 382.7109,-19 399.5581,-19"/>
<polygon fill="none" stroke="#000000" points="400,-22.5001 410,-19 400,-15.5001 400,-22.5001"/>
</g>
</g>
</svg>
