<?xml version="1.0" encoding="UTF-8" standalone="no"?>
<!DOCTYPE svg PUBLIC "-//W3C//DTD SVG 1.1//EN"
 "http://www.w3.org/Graphics/SVG/1.1/DTD/svg11.dtd">
<!-- Generated by graphviz version 2.40.1 (20161225.0304)
 -->
<!-- Title: %3 Pages: 1 -->
<svg width="663pt" height="260pt"
 viewBox="0.00 0.00 662.54 260.00" xmlns="http://www.w3.org/2000/svg" xmlns:xlink="http://www.w3.org/1999/xlink">
<g id="graph0" class="graph" transform="scale(1 1) rotate(0) translate(4 256)">
<title>%3</title>
<polygon fill="#ffffff" stroke="transparent" points="-4,4 -4,-256 658.545,-256 658.545,4 -4,4"/>
<!-- MaterialLaw -->
<g id="node1" class="node">
<title>MaterialLaw</title>
<g id="a_node1"><a xlink:href="http://emmo.info/emmo/middle/models#EMMO_f19ff3b4_6bfe_4c41_a2b2_9affd39c140b" xlink:title="MaterialLaw">
<ellipse fill="#ffffcc" stroke="#000000" cx="56.545" cy="-18" rx="56.59" ry="18"/>
<text text-anchor="middle" x="56.545" y="-14.3" font-family="Times,serif" font-size="14.00" fill="#000000">MaterialLaw</text>
</a>
</g>
</g>
<!-- NaturalLaw -->
<g id="node6" class="node">
<title>NaturalLaw</title>
<g id="a_node6"><a xlink:href="http://emmo.info/emmo/middle/models#EMMO_db9a009e_f097_43f5_9520_6cbc07e7610b" xlink:title="NaturalLaw">
<ellipse fill="#ffffcc" stroke="#000000" cx="121.545" cy="-90" rx="52.7911" ry="18"/>
<text text-anchor="middle" x="121.545" y="-86.3" font-family="Times,serif" font-size="14.00" fill="#000000">NaturalLaw</text>
</a>
</g>
</g>
<!-- MaterialLaw&#45;&gt;NaturalLaw -->
<g id="edge7" class="edge">
<title>MaterialLaw&#45;&gt;NaturalLaw</title>
<path fill="none" stroke="#000000" d="M72.2797,-35.4292C80.3436,-44.3615 90.3038,-55.3944 99.1535,-65.1971"/>
<polygon fill="none" stroke="#000000" points="96.6562,-67.654 105.9552,-72.7313 101.8521,-62.9632 96.6562,-67.654"/>
</g>
<!-- Conventional -->
<g id="node2" class="node">
<title>Conventional</title>
<g id="a_node2"><a xlink:href="http://emmo.info/emmo/top/semiotics#EMMO_35d2e130_6e01_41ed_94f7_00b333d46cf9" xlink:title="Conventional">
<ellipse fill="#ffffcc" stroke="#000000" stroke-width="2" cx="239.545" cy="-234" rx="57.6901" ry="18"/>
<text text-anchor="middle" x="239.545" y="-230.3" font-family="Times,serif" font-size="14.00" fill="#000000">Conventional</text>
</a>
</g>
</g>
<!-- Unknown -->
<g id="node3" class="node">
<title>Unknown</title>
<g id="a_node3"><a xlink:href="http://emmo.info/emmo/middle/math#EMMO_fe7e56ce_118b_4243_9aad_20eb9f4f31f6" xlink:title="Unknown">
<ellipse fill="#ffffcc" stroke="#000000" cx="237.545" cy="-90" rx="45.4919" ry="18"/>
<text text-anchor="middle" x="237.545" y="-86.3" font-family="Times,serif" font-size="14.00" fill="#000000">Unknown</text>
</a>
</g>
</g>
<!-- Variable -->
<g id="node11" class="node">
<title>Variable</title>
<g id="a_node11"><a xlink:href="http://emmo.info/emmo/middle/math#EMMO_1eed0732_e3f1_4b2c_a9c4_b4e75eeb5895" xlink:title="Variable">
<ellipse fill="#ffffcc" stroke="#000000" cx="343.545" cy="-162" rx="40.8928" ry="18"/>
<text text-anchor="middle" x="343.545" y="-158.3" font-family="Times,serif" font-size="14.00" fill="#000000">Variable</text>
</a>
</g>
</g>
<!-- Unknown&#45;&gt;Variable -->
<g id="edge5" class="edge">
<title>Unknown&#45;&gt;Variable</title>
<path fill="none" stroke="#000000" d="M260.5454,-105.6229C275.7897,-115.9775 295.9711,-129.6857 312.6164,-140.9919"/>
<polygon fill="none" stroke="#000000" points="310.7148,-143.9313 320.9536,-146.6549 314.648,-138.1408 310.7148,-143.9313"/>
</g>
<!-- Parameter -->
<g id="node4" class="node">
<title>Parameter</title>
<g id="a_node4"><a xlink:href="http://emmo.info/emmo/middle/math#EMMO_d1d436e7_72fc_49cd_863b_7bfb4ba5276a" xlink:title="Parameter">
<ellipse fill="#ffffcc" stroke="#000000" cx="347.545" cy="-90" rx="46.5926" ry="18"/>
<text text-anchor="middle" x="347.545" y="-86.3" font-family="Times,serif" font-size="14.00" fill="#000000">Parameter</text>
</a>
</g>
</g>
<!-- Parameter&#45;&gt;Variable -->
<g id="edge8" class="edge">
<title>Parameter&#45;&gt;Variable</title>
<path fill="none" stroke="#000000" d="M346.5356,-108.1686C346.1078,-115.869 345.5991,-125.0257 345.1237,-133.5834"/>
<polygon fill="none" stroke="#000000" points="341.6281,-133.408 344.5679,-143.5867 348.6173,-133.7963 341.6281,-133.408"/>
</g>
<!-- PhysicalLaw -->
<g id="node5" class="node">
<title>PhysicalLaw</title>
<g id="a_node5"><a xlink:href="http://emmo.info/emmo/middle/models#EMMO_9c32fd69_f480_4130_83b3_fb25d9face14" xlink:title="PhysicalLaw">
<ellipse fill="#ffffcc" stroke="#000000" cx="186.545" cy="-18" rx="55.7903" ry="18"/>
<text text-anchor="middle" x="186.545" y="-14.3" font-family="Times,serif" font-size="14.00" fill="#000000">PhysicalLaw</text>
</a>
</g>
</g>
<!-- PhysicalLaw&#45;&gt;NaturalLaw -->
<g id="edge6" class="edge">
<title>PhysicalLaw&#45;&gt;NaturalLaw</title>
<path fill="none" stroke="#000000" d="M170.8103,-35.4292C162.7464,-44.3615 152.7862,-55.3944 143.9365,-65.1971"/>
<polygon fill="none" stroke="#000000" points="141.2379,-62.9632 137.1348,-72.7313 146.4338,-67.654 141.2379,-62.9632"/>
</g>
<!-- Theory -->
<g id="node8" class="node">
<title>Theory</title>
<g id="a_node8"><a xlink:href="http://emmo.info/emmo/middle/models#EMMO_8d2d9374_ef3a_47e6_8595_6bc208e07519" xlink:title="Theory">
<ellipse fill="#ffffcc" stroke="#000000" cx="136.545" cy="-162" rx="36.2938" ry="18"/>
<text text-anchor="middle" x="136.545" y="-158.3" font-family="Times,serif" font-size="14.00" fill="#000000">Theory</text>
</a>
</g>
</g>
<!-- NaturalLaw&#45;&gt;Theory -->
<g id="edge2" class="edge">
<title>NaturalLaw&#45;&gt;Theory</title>
<path fill="none" stroke="#000000" d="M125.3301,-108.1686C126.9769,-116.0734 128.9435,-125.5128 130.7665,-134.2635"/>
<polygon fill="none" stroke="#000000" points="127.347,-135.0106 132.813,-144.0866 134.1998,-133.5829 127.347,-135.0106"/>
</g>
<!-- Property -->
<g id="node7" class="node">
<title>Property</title>
<g id="a_node7"><a xlink:href="http://emmo.info/emmo/middle/properties#EMMO_b7bcff25_ffc3_474e_9ab5_01b1664bd4ba" xlink:title="Property">
<ellipse fill="#ffffcc" stroke="#000000" stroke-width="2" cx="239.545" cy="-162" rx="40.8928" ry="18"/>
<text text-anchor="middle" x="239.545" y="-158.3" font-family="Times,serif" font-size="14.00" fill="#000000">Property</text>
</a>
</g>
</g>
<!-- Property&#45;&gt;Conventional -->
<g id="edge9" class="edge">
<title>Property&#45;&gt;Conventional</title>
<path fill="none" stroke="#000000" d="M239.545,-180.1686C239.545,-187.869 239.545,-197.0257 239.545,-205.5834"/>
<polygon fill="none" stroke="#000000" points="236.0451,-205.5867 239.545,-215.5867 243.0451,-205.5868 236.0451,-205.5867"/>
</g>
<!-- Theory&#45;&gt;Conventional -->
<g id="edge4" class="edge">
<title>Theory&#45;&gt;Conventional</title>
<path fill="none" stroke="#000000" d="M157.8866,-176.9184C172.1059,-186.8581 191.061,-200.1082 207.1291,-211.3404"/>
<polygon fill="none" stroke="#000000" points="205.5092,-214.4783 215.7105,-217.339 209.5197,-208.7411 205.5092,-214.4783"/>
</g>
<!-- MetricPrefix -->
<g id="node9" class="node">
<title>MetricPrefix</title>
<g id="a_node9"><a xlink:href="http://emmo.info/emmo/middle/metrology#EMMO_7d2afa66_ae9e_4095_a9bf_421d0be401b6" xlink:title="MetricPrefix">
<ellipse fill="#ffffcc" stroke="#000000" stroke-width="2" cx="454.545" cy="-18" rx="55.7903" ry="18"/>
<text text-anchor="middle" x="454.545" y="-14.3" font-family="Times,serif" font-size="14.00" fill="#000000">MetricPrefix</text>
</a>
</g>
</g>
<!-- Constant -->
<g id="node10" class="node">
<title>Constant</title>
<g id="a_node10"><a xlink:href="http://emmo.info/emmo/middle/math#EMMO_ae15fb4f_8e4d_41de_a0f9_3997f89ba6a2" xlink:title="Constant">
<ellipse fill="#ffffcc" stroke="#000000" cx="454.545" cy="-90" rx="42.4939" ry="18"/>
<text text-anchor="middle" x="454.545" y="-86.3" font-family="Times,serif" font-size="14.00" fill="#000000">Constant</text>
</a>
</g>
</g>
<!-- MetricPrefix&#45;&gt;Constant -->
<g id="edge3" class="edge">
<title>MetricPrefix&#45;&gt;Constant</title>
<path fill="none" stroke="#000000" d="M454.545,-36.1686C454.545,-43.869 454.545,-53.0257 454.545,-61.5834"/>
<polygon fill="none" stroke="#000000" points="451.0451,-61.5867 454.545,-71.5867 458.0451,-61.5868 451.0451,-61.5867"/>
</g>
<!-- Constant&#45;&gt;Variable -->
<g id="edge10" class="edge">
<title>Constant&#45;&gt;Variable</title>
<path fill="none" stroke="#000000" d="M431.2757,-105.0936C414.9954,-115.6538 393.0526,-129.8869 375.185,-141.4768"/>
<polygon fill="none" stroke="#000000" points="373.2685,-138.548 366.7836,-146.9263 377.0779,-144.4207 373.2685,-138.548"/>
</g>
<!-- Variable&#45;&gt;Conventional -->
<g id="edge1" class="edge">
<title>Variable&#45;&gt;Conventional</title>
<path fill="none" stroke="#000000" d="M321.4893,-177.2693C307.1009,-187.2305 288.0726,-200.404 271.9742,-211.549"/>
<polygon fill="none" stroke="#000000" points="269.6099,-208.9289 263.3802,-217.4987 273.5944,-214.6842 269.6099,-208.9289"/>
</g>
<!-- key1 -->
<g id="node12" class="node">
<title>key1</title>
<text text-anchor="start" x="546.545" y="-13.8" font-family="Times,serif" font-size="14.00" fill="#000000">isA</text>
</g>
<!-- key2 -->
<g id="node13" class="node">
<title>key2</title>
<text text-anchor="start" x="625.545" y="-13.8" font-family="Times,serif" font-size="14.00" fill="#000000"> </text>
</g>
<!-- key1&#45;&gt;key2 -->
<g id="edge11" class="edge">
<title>key1:e&#45;&gt;key2:w</title>
<path fill="none" stroke="#000000" d="M567.545,-19C588.545,-19 596.2559,-19 613.1031,-19"/>
<polygon fill="none" stroke="#000000" points="613.545,-22.5001 623.545,-19 613.5449,-15.5001 613.545,-22.5001"/>
</g>
</g>
</svg>
