<?xml version="1.0" encoding="UTF-8" standalone="no"?>
<!DOCTYPE svg PUBLIC "-//W3C//DTD SVG 1.1//EN"
 "http://www.w3.org/Graphics/SVG/1.1/DTD/svg11.dtd">
<!-- Generated by graphviz version 2.40.1 (20161225.0304)
 -->
<!-- Title: %3 Pages: 1 -->
<svg width="584pt" height="305pt"
 viewBox="0.00 0.00 584.04 305.00" xmlns="http://www.w3.org/2000/svg" xmlns:xlink="http://www.w3.org/1999/xlink">
<g id="graph0" class="graph" transform="scale(1 1) rotate(0) translate(4 301)">
<title>%3</title>
<polygon fill="#ffffff" stroke="transparent" points="-4,4 -4,-301 580.0409,-301 580.0409,4 -4,4"/>
<!-- MaterialLaw -->
<g id="node1" class="node">
<title>MaterialLaw</title>
<g id="a_node1"><a xlink:href="http://emmo.info/emmo/middle/models#EMMO_f19ff3b4_6bfe_4c41_a2b2_9affd39c140b" xlink:title="MaterialLaw">
<ellipse fill="#ffffcc" stroke="#000000" cx="56.545" cy="-18" rx="56.59" ry="18"/>
<text text-anchor="middle" x="56.545" y="-14.3" font-family="Times,serif" font-size="14.00" fill="#000000">MaterialLaw</text>
</a>
</g>
</g>
<!-- NaturalLaw -->
<g id="node6" class="node">
<title>NaturalLaw</title>
<g id="a_node6"><a xlink:href="http://emmo.info/emmo/middle/models#EMMO_db9a009e_f097_43f5_9520_6cbc07e7610b" xlink:title="NaturalLaw">
<ellipse fill="#ffffcc" stroke="#000000" cx="186.545" cy="-105" rx="52.7911" ry="18"/>
<text text-anchor="middle" x="186.545" y="-101.3" font-family="Times,serif" font-size="14.00" fill="#000000">NaturalLaw</text>
</a>
</g>
</g>
<!-- MaterialLaw&#45;&gt;NaturalLaw -->
<g id="edge5" class="edge">
<title>MaterialLaw&#45;&gt;NaturalLaw</title>
<path fill="none" stroke="#000000" d="M80.997,-34.364C101.5153,-48.0955 131.0087,-67.8334 153.6056,-82.9559"/>
<polygon fill="none" stroke="#000000" points="151.9453,-86.0563 162.2026,-88.7093 155.8386,-80.2388 151.9453,-86.0563"/>
<text text-anchor="middle" x="139.045" y="-57.8" font-family="Times,serif" font-size="14.00" fill="#000000">isA</text>
</g>
<!-- PhysicalLaw -->
<g id="node2" class="node">
<title>PhysicalLaw</title>
<g id="a_node2"><a xlink:href="http://emmo.info/emmo/middle/models#EMMO_9c32fd69_f480_4130_83b3_fb25d9face14" xlink:title="PhysicalLaw">
<ellipse fill="#ffffcc" stroke="#000000" cx="186.545" cy="-18" rx="55.7903" ry="18"/>
<text text-anchor="middle" x="186.545" y="-14.3" font-family="Times,serif" font-size="14.00" fill="#000000">PhysicalLaw</text>
</a>
</g>
</g>
<!-- PhysicalLaw&#45;&gt;NaturalLaw -->
<g id="edge4" class="edge">
<title>PhysicalLaw&#45;&gt;NaturalLaw</title>
<path fill="none" stroke="#000000" d="M186.545,-36.0265C186.545,-47.8082 186.545,-63.4393 186.545,-76.8419"/>
<polygon fill="none" stroke="#000000" points="183.0451,-76.9966 186.545,-86.9966 190.0451,-76.9967 183.0451,-76.9966"/>
<text text-anchor="middle" x="196.045" y="-57.8" font-family="Times,serif" font-size="14.00" fill="#000000">isA</text>
</g>
<!-- MetricPrefix -->
<g id="node3" class="node">
<title>MetricPrefix</title>
<g id="a_node3"><a xlink:href="http://emmo.info/emmo/middle/units#EMMO_7d2afa66_ae9e_4095_a9bf_421d0be401b6" xlink:title="MetricPrefix">
<ellipse fill="#ffffcc" stroke="#000000" stroke-width="2" cx="316.545" cy="-18" rx="55.7903" ry="18"/>
<text text-anchor="middle" x="316.545" y="-14.3" font-family="Times,serif" font-size="14.00" fill="#000000">MetricPrefix</text>
</a>
</g>
</g>
<!-- Constant -->
<g id="node7" class="node">
<title>Constant</title>
<g id="a_node7"><a xlink:href="http://emmo.info/emmo/middle/math#EMMO_ae15fb4f_8e4d_41de_a0f9_3997f89ba6a2" xlink:title="Constant">
<ellipse fill="#ffffcc" stroke="#000000" cx="313.545" cy="-105" rx="42.4939" ry="18"/>
<text text-anchor="middle" x="313.545" y="-101.3" font-family="Times,serif" font-size="14.00" fill="#000000">Constant</text>
</a>
</g>
</g>
<!-- MetricPrefix&#45;&gt;Constant -->
<g id="edge2" class="edge">
<title>MetricPrefix&#45;&gt;Constant</title>
<path fill="none" stroke="#000000" d="M315.9234,-36.0265C315.5171,-47.8082 314.9781,-63.4393 314.516,-76.8419"/>
<polygon fill="none" stroke="#000000" points="311.0126,-76.8819 314.1658,-86.9966 318.0084,-77.1232 311.0126,-76.8819"/>
<text text-anchor="middle" x="324.045" y="-57.8" font-family="Times,serif" font-size="14.00" fill="#000000">isA</text>
</g>
<!-- Unknown -->
<g id="node4" class="node">
<title>Unknown</title>
<g id="a_node4"><a xlink:href="http://emmo.info/emmo/middle/math#EMMO_fe7e56ce_118b_4243_9aad_20eb9f4f31f6" xlink:title="Unknown">
<ellipse fill="#ffffcc" stroke="#000000" cx="530.545" cy="-105" rx="45.4919" ry="18"/>
<text text-anchor="middle" x="530.545" y="-101.3" font-family="Times,serif" font-size="14.00" fill="#000000">Unknown</text>
</a>
</g>
</g>
<!-- Variable -->
<g id="node10" class="node">
<title>Variable</title>
<g id="a_node10"><a xlink:href="http://emmo.info/emmo/middle/math#EMMO_1eed0732_e3f1_4b2c_a9c4_b4e75eeb5895" xlink:title="Variable">
<ellipse fill="#ffffcc" stroke="#000000" cx="419.545" cy="-192" rx="40.8928" ry="18"/>
<text text-anchor="middle" x="419.545" y="-188.3" font-family="Times,serif" font-size="14.00" fill="#000000">Variable</text>
</a>
</g>
</g>
<!-- Unknown&#45;&gt;Variable -->
<g id="edge7" class="edge">
<title>Unknown&#45;&gt;Variable</title>
<path fill="none" stroke="#000000" d="M509.9269,-121.1601C492.372,-134.9194 466.987,-154.8157 447.5863,-170.0216"/>
<polygon fill="none" stroke="#000000" points="445.3899,-167.2962 439.6784,-176.2197 449.7081,-172.8056 445.3899,-167.2962"/>
<text text-anchor="middle" x="491.045" y="-144.8" font-family="Times,serif" font-size="14.00" fill="#000000">isA</text>
</g>
<!-- Property -->
<g id="node5" class="node">
<title>Property</title>
<g id="a_node5"><a xlink:href="http://emmo.info/emmo/middle/properties#EMMO_b7bcff25_ffc3_474e_9ab5_01b1664bd4ba" xlink:title="Property">
<ellipse fill="#ffffcc" stroke="#000000" stroke-width="2" cx="314.545" cy="-192" rx="40.8928" ry="18"/>
<text text-anchor="middle" x="314.545" y="-188.3" font-family="Times,serif" font-size="14.00" fill="#000000">Property</text>
</a>
</g>
</g>
<!-- Conventional -->
<g id="node11" class="node">
<title>Conventional</title>
<g id="a_node11"><a xlink:href="http://emmo.info/emmo/top/semiotics#EMMO_35d2e130_6e01_41ed_94f7_00b333d46cf9" xlink:title="Conventional">
<ellipse fill="#ffffcc" stroke="#000000" stroke-width="2" cx="314.545" cy="-279" rx="57.6901" ry="18"/>
<text text-anchor="middle" x="314.545" y="-275.3" font-family="Times,serif" font-size="14.00" fill="#000000">Conventional</text>
</a>
</g>
</g>
<!-- Property&#45;&gt;Conventional -->
<g id="edge9" class="edge">
<title>Property&#45;&gt;Conventional</title>
<path fill="none" stroke="#000000" d="M314.545,-210.0265C314.545,-221.8082 314.545,-237.4393 314.545,-250.8419"/>
<polygon fill="none" stroke="#000000" points="311.0451,-250.9966 314.545,-260.9966 318.0451,-250.9967 311.0451,-250.9966"/>
<text text-anchor="middle" x="324.045" y="-231.8" font-family="Times,serif" font-size="14.00" fill="#000000">isA</text>
</g>
<!-- Theory -->
<g id="node9" class="node">
<title>Theory</title>
<g id="a_node9"><a xlink:href="http://emmo.info/emmo/middle/models#EMMO_8d2d9374_ef3a_47e6_8595_6bc208e07519" xlink:title="Theory">
<ellipse fill="#ffffcc" stroke="#000000" cx="209.545" cy="-192" rx="36.2938" ry="18"/>
<text text-anchor="middle" x="209.545" y="-188.3" font-family="Times,serif" font-size="14.00" fill="#000000">Theory</text>
</a>
</g>
</g>
<!-- NaturalLaw&#45;&gt;Theory -->
<g id="edge1" class="edge">
<title>NaturalLaw&#45;&gt;Theory</title>
<path fill="none" stroke="#000000" d="M191.3106,-123.0265C194.4562,-134.9249 198.6396,-150.7492 202.206,-164.2394"/>
<polygon fill="none" stroke="#000000" points="198.8458,-165.2234 204.7855,-173.9966 205.6133,-163.4342 198.8458,-165.2234"/>
<text text-anchor="middle" x="208.045" y="-144.8" font-family="Times,serif" font-size="14.00" fill="#000000">isA</text>
</g>
<!-- Constant&#45;&gt;Variable -->
<g id="edge10" class="edge">
<title>Constant&#45;&gt;Variable</title>
<path fill="none" stroke="#000000" d="M333.4828,-121.364C350.021,-134.9378 373.7103,-154.3809 392.0498,-169.4332"/>
<polygon fill="none" stroke="#000000" points="390.1044,-172.3644 400.0547,-176.0033 394.5454,-166.9535 390.1044,-172.3644"/>
<text text-anchor="middle" x="382.045" y="-144.8" font-family="Times,serif" font-size="14.00" fill="#000000">isA</text>
</g>
<!-- Parameter -->
<g id="node8" class="node">
<title>Parameter</title>
<g id="a_node8"><a xlink:href="http://emmo.info/emmo/middle/math#EMMO_d1d436e7_72fc_49cd_863b_7bfb4ba5276a" xlink:title="Parameter">
<ellipse fill="#ffffcc" stroke="#000000" cx="420.545" cy="-105" rx="46.5926" ry="18"/>
<text text-anchor="middle" x="420.545" y="-101.3" font-family="Times,serif" font-size="14.00" fill="#000000">Parameter</text>
</a>
</g>
</g>
<!-- Parameter&#45;&gt;Variable -->
<g id="edge3" class="edge">
<title>Parameter&#45;&gt;Variable</title>
<path fill="none" stroke="#000000" d="M420.3378,-123.0265C420.2024,-134.8082 420.0227,-150.4393 419.8686,-163.8419"/>
<polygon fill="none" stroke="#000000" points="416.3672,-163.957 419.7519,-173.9966 423.3667,-164.0376 416.3672,-163.957"/>
<text text-anchor="middle" x="429.045" y="-144.8" font-family="Times,serif" font-size="14.00" fill="#000000">isA</text>
</g>
<!-- Theory&#45;&gt;Conventional -->
<g id="edge6" class="edge">
<title>Theory&#45;&gt;Conventional</title>
<path fill="none" stroke="#000000" d="M228.3169,-207.5539C244.3791,-220.8625 267.7456,-240.2233 286.104,-255.4346"/>
<polygon fill="none" stroke="#000000" points="284.209,-258.4098 294.1423,-262.0949 288.6751,-253.0196 284.209,-258.4098"/>
<text text-anchor="middle" x="277.045" y="-231.8" font-family="Times,serif" font-size="14.00" fill="#000000">isA</text>
</g>
<!-- Variable&#45;&gt;Conventional -->
<g id="edge8" class="edge">
<title>Variable&#45;&gt;Conventional</title>
<path fill="none" stroke="#000000" d="M400.2864,-207.9571C384.2679,-221.2296 361.2357,-240.3134 343.0757,-255.3603"/>
<polygon fill="none" stroke="#000000" points="340.5846,-252.879 335.1174,-261.9543 345.0507,-258.2691 340.5846,-252.879"/>
<text text-anchor="middle" x="382.045" y="-231.8" font-family="Times,serif" font-size="14.00" fill="#000000">isA</text>
</g>
</g>
</svg>
