<?xml version="1.0" encoding="UTF-8" standalone="no"?>
<!DOCTYPE svg PUBLIC "-//W3C//DTD SVG 1.1//EN"
 "http://www.w3.org/Graphics/SVG/1.1/DTD/svg11.dtd">
<!-- Generated by graphviz version 2.40.1 (20161225.0304)
 -->
<!-- Title: %3 Pages: 1 -->
<svg width="578pt" height="260pt"
 viewBox="0.00 0.00 578.34 260.00" xmlns="http://www.w3.org/2000/svg" xmlns:xlink="http://www.w3.org/1999/xlink">
<g id="graph0" class="graph" transform="scale(1 1) rotate(0) translate(4 256)">
<title>%3</title>
<polygon fill="#ffffff" stroke="transparent" points="-4,4 -4,-256 574.3408,-256 574.3408,4 -4,4"/>
<!-- Variable -->
<g id="node1" class="node">
<title>Variable</title>
<g id="a_node1"><a xlink:href="http://emmo.info/emmo/middle/math#EMMO_1eed0732_e3f1_4b2c_a9c4_b4e75eeb5895" xlink:title="Variable">
<ellipse fill="#ffffcc" stroke="#000000" cx="408.545" cy="-162" rx="40.8928" ry="18"/>
<text text-anchor="middle" x="408.545" y="-158.3" font-family="Times,serif" font-size="14.00" fill="#000000">Variable</text>
</a>
</g>
</g>
<!-- Conventional -->
<g id="node3" class="node">
<title>Conventional</title>
<g id="a_node3"><a xlink:href="http://emmo.info/emmo/top/semiotics#EMMO_35d2e130_6e01_41ed_94f7_00b333d46cf9" xlink:title="Conventional">
<ellipse fill="#ffffcc" stroke="#000000" stroke-width="2" cx="303.545" cy="-234" rx="57.6901" ry="18"/>
<text text-anchor="middle" x="303.545" y="-230.3" font-family="Times,serif" font-size="14.00" fill="#000000">Conventional</text>
</a>
</g>
</g>
<!-- Variable&#45;&gt;Conventional -->
<g id="edge5" class="edge">
<title>Variable&#45;&gt;Conventional</title>
<path fill="none" stroke="#000000" d="M386.2772,-177.2693C371.7505,-187.2305 352.5392,-200.404 336.2861,-211.549"/>
<polygon fill="none" stroke="#000000" points="333.8774,-208.9568 327.6094,-217.4987 337.8361,-214.7299 333.8774,-208.9568"/>
</g>
<!-- NaturalLaw -->
<g id="node2" class="node">
<title>NaturalLaw</title>
<g id="a_node2"><a xlink:href="http://emmo.info/emmo/middle/models#EMMO_db9a009e_f097_43f5_9520_6cbc07e7610b" xlink:title="NaturalLaw">
<ellipse fill="#ffffcc" stroke="#000000" cx="186.545" cy="-90" rx="52.7911" ry="18"/>
<text text-anchor="middle" x="186.545" y="-86.3" font-family="Times,serif" font-size="14.00" fill="#000000">NaturalLaw</text>
</a>
</g>
</g>
<!-- Theory -->
<g id="node4" class="node">
<title>Theory</title>
<g id="a_node4"><a xlink:href="http://emmo.info/emmo/middle/models#EMMO_8d2d9374_ef3a_47e6_8595_6bc208e07519" xlink:title="Theory">
<ellipse fill="#ffffcc" stroke="#000000" cx="198.545" cy="-162" rx="36.2938" ry="18"/>
<text text-anchor="middle" x="198.545" y="-158.3" font-family="Times,serif" font-size="14.00" fill="#000000">Theory</text>
</a>
</g>
</g>
<!-- NaturalLaw&#45;&gt;Theory -->
<g id="edge10" class="edge">
<title>NaturalLaw&#45;&gt;Theory</title>
<path fill="none" stroke="#000000" d="M189.5731,-108.1686C190.8565,-115.869 192.3826,-125.0257 193.8089,-133.5834"/>
<polygon fill="none" stroke="#000000" points="190.3797,-134.2982 195.4761,-143.5867 197.2844,-133.1474 190.3797,-134.2982"/>
</g>
<!-- Theory&#45;&gt;Conventional -->
<g id="edge8" class="edge">
<title>Theory&#45;&gt;Conventional</title>
<path fill="none" stroke="#000000" d="M220.0467,-176.744C234.7613,-186.834 254.5374,-200.3948 271.1499,-211.7862"/>
<polygon fill="none" stroke="#000000" points="269.2786,-214.7468 279.5052,-217.5156 273.2373,-208.9737 269.2786,-214.7468"/>
</g>
<!-- MetricPrefix -->
<g id="node5" class="node">
<title>MetricPrefix</title>
<g id="a_node5"><a xlink:href="http://emmo.info/emmo/middle/metrology#EMMO_7d2afa66_ae9e_4095_a9bf_421d0be401b6" xlink:title="MetricPrefix">
<ellipse fill="#ffffcc" stroke="#000000" stroke-width="2" cx="316.545" cy="-18" rx="55.7903" ry="18"/>
<text text-anchor="middle" x="316.545" y="-14.3" font-family="Times,serif" font-size="14.00" fill="#000000">MetricPrefix</text>
</a>
</g>
</g>
<!-- Constant -->
<g id="node7" class="node">
<title>Constant</title>
<g id="a_node7"><a xlink:href="http://emmo.info/emmo/middle/math#EMMO_ae15fb4f_8e4d_41de_a0f9_3997f89ba6a2" xlink:title="Constant">
<ellipse fill="#ffffcc" stroke="#000000" cx="307.545" cy="-90" rx="42.4939" ry="18"/>
<text text-anchor="middle" x="307.545" y="-86.3" font-family="Times,serif" font-size="14.00" fill="#000000">Constant</text>
</a>
</g>
</g>
<!-- MetricPrefix&#45;&gt;Constant -->
<g id="edge3" class="edge">
<title>MetricPrefix&#45;&gt;Constant</title>
<path fill="none" stroke="#000000" d="M314.2739,-36.1686C313.3114,-43.869 312.1668,-53.0257 311.0971,-61.5834"/>
<polygon fill="none" stroke="#000000" points="307.6141,-61.2298 309.8466,-71.5867 314.56,-62.0981 307.6141,-61.2298"/>
</g>
<!-- Property -->
<g id="node6" class="node">
<title>Property</title>
<g id="a_node6"><a xlink:href="http://emmo.info/emmo/middle/properties#EMMO_b7bcff25_ffc3_474e_9ab5_01b1664bd4ba" xlink:title="Property">
<ellipse fill="#ffffcc" stroke="#000000" stroke-width="2" cx="303.545" cy="-162" rx="40.8928" ry="18"/>
<text text-anchor="middle" x="303.545" y="-158.3" font-family="Times,serif" font-size="14.00" fill="#000000">Property</text>
</a>
</g>
</g>
<!-- Property&#45;&gt;Conventional -->
<g id="edge7" class="edge">
<title>Property&#45;&gt;Conventional</title>
<path fill="none" stroke="#000000" d="M303.545,-180.1686C303.545,-187.869 303.545,-197.0257 303.545,-205.5834"/>
<polygon fill="none" stroke="#000000" points="300.0451,-205.5867 303.545,-215.5867 307.0451,-205.5868 300.0451,-205.5867"/>
</g>
<!-- Constant&#45;&gt;Variable -->
<g id="edge9" class="edge">
<title>Constant&#45;&gt;Variable</title>
<path fill="none" stroke="#000000" d="M329.4605,-105.6229C343.8524,-115.8825 362.8627,-129.4344 378.6379,-140.6801"/>
<polygon fill="none" stroke="#000000" points="376.8448,-143.7001 387.0192,-146.6549 380.9081,-138.0001 376.8448,-143.7001"/>
</g>
<!-- MaterialLaw -->
<g id="node8" class="node">
<title>MaterialLaw</title>
<g id="a_node8"><a xlink:href="http://emmo.info/emmo/middle/models#EMMO_f19ff3b4_6bfe_4c41_a2b2_9affd39c140b" xlink:title="MaterialLaw">
<ellipse fill="#ffffcc" stroke="#000000" cx="56.545" cy="-18" rx="56.59" ry="18"/>
<text text-anchor="middle" x="56.545" y="-14.3" font-family="Times,serif" font-size="14.00" fill="#000000">MaterialLaw</text>
</a>
</g>
</g>
<!-- MaterialLaw&#45;&gt;NaturalLaw -->
<g id="edge4" class="edge">
<title>MaterialLaw&#45;&gt;NaturalLaw</title>
<path fill="none" stroke="#000000" d="M84.753,-33.6229C103.8777,-44.215 129.3382,-58.3163 150.0114,-69.766"/>
<polygon fill="none" stroke="#000000" points="148.3949,-72.8716 158.8386,-74.6549 151.7864,-66.7481 148.3949,-72.8716"/>
</g>
<!-- Unknown -->
<g id="node9" class="node">
<title>Unknown</title>
<g id="a_node9"><a xlink:href="http://emmo.info/emmo/middle/math#EMMO_fe7e56ce_118b_4243_9aad_20eb9f4f31f6" xlink:title="Unknown">
<ellipse fill="#ffffcc" stroke="#000000" cx="413.545" cy="-90" rx="45.4919" ry="18"/>
<text text-anchor="middle" x="413.545" y="-86.3" font-family="Times,serif" font-size="14.00" fill="#000000">Unknown</text>
</a>
</g>
</g>
<!-- Unknown&#45;&gt;Variable -->
<g id="edge1" class="edge">
<title>Unknown&#45;&gt;Variable</title>
<path fill="none" stroke="#000000" d="M412.2833,-108.1686C411.7485,-115.869 411.1126,-125.0257 410.5184,-133.5834"/>
<polygon fill="none" stroke="#000000" points="407.025,-133.3683 409.8237,-143.5867 414.0081,-133.8533 407.025,-133.3683"/>
</g>
<!-- PhysicalLaw -->
<g id="node10" class="node">
<title>PhysicalLaw</title>
<g id="a_node10"><a xlink:href="http://emmo.info/emmo/middle/models#EMMO_9c32fd69_f480_4130_83b3_fb25d9face14" xlink:title="PhysicalLaw">
<ellipse fill="#ffffcc" stroke="#000000" cx="186.545" cy="-18" rx="55.7903" ry="18"/>
<text text-anchor="middle" x="186.545" y="-14.3" font-family="Times,serif" font-size="14.00" fill="#000000">PhysicalLaw</text>
</a>
</g>
</g>
<!-- PhysicalLaw&#45;&gt;NaturalLaw -->
<g id="edge6" class="edge">
<title>PhysicalLaw&#45;&gt;NaturalLaw</title>
<path fill="none" stroke="#000000" d="M186.545,-36.1686C186.545,-43.869 186.545,-53.0257 186.545,-61.5834"/>
<polygon fill="none" stroke="#000000" points="183.0451,-61.5867 186.545,-71.5867 190.0451,-61.5868 183.0451,-61.5867"/>
</g>
<!-- Parameter -->
<g id="node11" class="node">
<title>Parameter</title>
<g id="a_node11"><a xlink:href="http://emmo.info/emmo/middle/math#EMMO_d1d436e7_72fc_49cd_863b_7bfb4ba5276a" xlink:title="Parameter">
<ellipse fill="#ffffcc" stroke="#000000" cx="523.545" cy="-90" rx="46.5926" ry="18"/>
<text text-anchor="middle" x="523.545" y="-86.3" font-family="Times,serif" font-size="14.00" fill="#000000">Parameter</text>
</a>
</g>
</g>
<!-- Parameter&#45;&gt;Variable -->
<g id="edge2" class="edge">
<title>Parameter&#45;&gt;Variable</title>
<path fill="none" stroke="#000000" d="M498.8746,-105.4458C481.973,-116.0277 459.3803,-130.1727 441.0181,-141.669"/>
<polygon fill="none" stroke="#000000" points="439.0058,-138.7995 432.3872,-147.0727 442.7204,-144.7326 439.0058,-138.7995"/>
</g>
<!-- key1 -->
<g id="node12" class="node">
<title>key1</title>
<text text-anchor="start" x="408.545" y="-13.8" font-family="Times,serif" font-size="14.00" fill="#000000">isA</text>
</g>
<!-- key2 -->
<g id="node13" class="node">
<title>key2</title>
<text text-anchor="start" x="487.545" y="-13.8" font-family="Times,serif" font-size="14.00" fill="#000000"> </text>
</g>
<!-- key1&#45;&gt;key2 -->
<g id="edge11" class="edge">
<title>key1:e&#45;&gt;key2:w</title>
<path fill="none" stroke="#000000" d="M429.545,-19C450.545,-19 458.2559,-19 475.1031,-19"/>
<polygon fill="none" stroke="#000000" points="475.545,-22.5001 485.545,-19 475.5449,-15.5001 475.545,-22.5001"/>
</g>
</g>
</svg>
