<?xml version="1.0" encoding="UTF-8" standalone="no"?>
<!DOCTYPE svg PUBLIC "-//W3C//DTD SVG 1.1//EN"
 "http://www.w3.org/Graphics/SVG/1.1/DTD/svg11.dtd">
<!-- Generated by graphviz version 2.40.1 (20161225.0304)
 -->
<!-- Title: %3 Pages: 1 -->
<svg width="722pt" height="260pt"
 viewBox="0.00 0.00 721.80 260.00" xmlns="http://www.w3.org/2000/svg" xmlns:xlink="http://www.w3.org/1999/xlink">
<g id="graph0" class="graph" transform="scale(1 1) rotate(0) translate(4 256)">
<title>%3</title>
<polygon fill="#ffffff" stroke="transparent" points="-4,4 -4,-256 717.7958,-256 717.7958,4 -4,4"/>
<!-- Unknown -->
<g id="node1" class="node">
<title>Unknown</title>
<g id="a_node1"><a xlink:href="http://emmo.info/emmo/middle/math#EMMO_fe7e56ce_118b_4243_9aad_20eb9f4f31f6" xlink:title="Unknown">
<ellipse fill="#ffffcc" stroke="#000000" cx="156.7958" cy="-90" rx="45.4919" ry="18"/>
<text text-anchor="middle" x="156.7958" y="-86.3" font-family="Times,serif" font-size="14.00" fill="#000000">Unknown</text>
</a>
</g>
</g>
<!-- Variable -->
<g id="node9" class="node">
<title>Variable</title>
<g id="a_node9"><a xlink:href="http://emmo.info/emmo/middle/math#EMMO_1eed0732_e3f1_4b2c_a9c4_b4e75eeb5895" xlink:title="Variable">
<ellipse fill="#ffffcc" stroke="#000000" cx="168.7958" cy="-162" rx="40.8928" ry="18"/>
<text text-anchor="middle" x="168.7958" y="-158.3" font-family="Times,serif" font-size="14.00" fill="#000000">Variable</text>
</a>
</g>
</g>
<!-- Unknown&#45;&gt;Variable -->
<g id="edge7" class="edge">
<title>Unknown&#45;&gt;Variable</title>
<path fill="none" stroke="#000000" d="M159.824,-108.1686C161.1074,-115.869 162.6335,-125.0257 164.0597,-133.5834"/>
<polygon fill="none" stroke="#000000" points="160.6305,-134.2982 165.727,-143.5867 167.5353,-133.1474 160.6305,-134.2982"/>
</g>
<!-- PhysicalLaw -->
<g id="node2" class="node">
<title>PhysicalLaw</title>
<g id="a_node2"><a xlink:href="http://emmo.info/emmo/middle/models#EMMO_9c32fd69_f480_4130_83b3_fb25d9face14" xlink:title="PhysicalLaw">
<ellipse fill="#ffffcc" stroke="#000000" cx="513.7958" cy="-18" rx="55.7903" ry="18"/>
<text text-anchor="middle" x="513.7958" y="-14.3" font-family="Times,serif" font-size="14.00" fill="#000000">PhysicalLaw</text>
</a>
</g>
</g>
<!-- NaturalLaw -->
<g id="node4" class="node">
<title>NaturalLaw</title>
<g id="a_node4"><a xlink:href="http://emmo.info/emmo/middle/models#EMMO_db9a009e_f097_43f5_9520_6cbc07e7610b" xlink:title="NaturalLaw">
<ellipse fill="#ffffcc" stroke="#000000" cx="383.7958" cy="-90" rx="52.7911" ry="18"/>
<text text-anchor="middle" x="383.7958" y="-86.3" font-family="Times,serif" font-size="14.00" fill="#000000">NaturalLaw</text>
</a>
</g>
</g>
<!-- PhysicalLaw&#45;&gt;NaturalLaw -->
<g id="edge9" class="edge">
<title>PhysicalLaw&#45;&gt;NaturalLaw</title>
<path fill="none" stroke="#000000" d="M485.5878,-33.6229C466.4632,-44.215 441.0026,-58.3163 420.3295,-69.766"/>
<polygon fill="none" stroke="#000000" points="418.5544,-66.7481 411.5023,-74.6549 421.946,-72.8716 418.5544,-66.7481"/>
</g>
<!-- Parameter -->
<g id="node3" class="node">
<title>Parameter</title>
<g id="a_node3"><a xlink:href="http://emmo.info/emmo/middle/math#EMMO_d1d436e7_72fc_49cd_863b_7bfb4ba5276a" xlink:title="Parameter">
<ellipse fill="#ffffcc" stroke="#000000" cx="46.7958" cy="-90" rx="46.5926" ry="18"/>
<text text-anchor="middle" x="46.7958" y="-86.3" font-family="Times,serif" font-size="14.00" fill="#000000">Parameter</text>
</a>
</g>
</g>
<!-- Parameter&#45;&gt;Variable -->
<g id="edge1" class="edge">
<title>Parameter&#45;&gt;Variable</title>
<path fill="none" stroke="#000000" d="M72.371,-105.0936C90.6698,-115.8928 115.4771,-130.5332 135.347,-142.2597"/>
<polygon fill="none" stroke="#000000" points="133.6968,-145.3499 144.0878,-147.4182 137.2546,-139.3214 133.6968,-145.3499"/>
</g>
<!-- Theory -->
<g id="node6" class="node">
<title>Theory</title>
<g id="a_node6"><a xlink:href="http://emmo.info/emmo/middle/models#EMMO_8d2d9374_ef3a_47e6_8595_6bc208e07519" xlink:title="Theory">
<ellipse fill="#ffffcc" stroke="#000000" cx="378.7958" cy="-162" rx="36.2938" ry="18"/>
<text text-anchor="middle" x="378.7958" y="-158.3" font-family="Times,serif" font-size="14.00" fill="#000000">Theory</text>
</a>
</g>
</g>
<!-- NaturalLaw&#45;&gt;Theory -->
<g id="edge10" class="edge">
<title>NaturalLaw&#45;&gt;Theory</title>
<path fill="none" stroke="#000000" d="M382.5341,-108.1686C381.9994,-115.869 381.3635,-125.0257 380.7692,-133.5834"/>
<polygon fill="none" stroke="#000000" points="377.2758,-133.3683 380.0745,-143.5867 384.259,-133.8533 377.2758,-133.3683"/>
</g>
<!-- Property -->
<g id="node5" class="node">
<title>Property</title>
<g id="a_node5"><a xlink:href="http://emmo.info/emmo/middle/properties#EMMO_b7bcff25_ffc3_474e_9ab5_01b1664bd4ba" xlink:title="Property">
<ellipse fill="#ffffcc" stroke="#000000" stroke-width="2" cx="278.7958" cy="-162" rx="40.8928" ry="18"/>
<text text-anchor="middle" x="278.7958" y="-158.3" font-family="Times,serif" font-size="14.00" fill="#000000">Property</text>
</a>
</g>
</g>
<!-- Conventional -->
<g id="node11" class="node">
<title>Conventional</title>
<g id="a_node11"><a xlink:href="http://emmo.info/emmo/top/semiotics#EMMO_35d2e130_6e01_41ed_94f7_00b333d46cf9" xlink:title="Conventional">
<ellipse fill="#ffffcc" stroke="#000000" stroke-width="2" cx="278.7958" cy="-234" rx="57.6901" ry="18"/>
<text text-anchor="middle" x="278.7958" y="-230.3" font-family="Times,serif" font-size="14.00" fill="#000000">Conventional</text>
</a>
</g>
</g>
<!-- Property&#45;&gt;Conventional -->
<g id="edge4" class="edge">
<title>Property&#45;&gt;Conventional</title>
<path fill="none" stroke="#000000" d="M278.7958,-180.1686C278.7958,-187.869 278.7958,-197.0257 278.7958,-205.5834"/>
<polygon fill="none" stroke="#000000" points="275.2959,-205.5867 278.7958,-215.5867 282.2959,-205.5868 275.2959,-205.5867"/>
</g>
<!-- Theory&#45;&gt;Conventional -->
<g id="edge3" class="edge">
<title>Theory&#45;&gt;Conventional</title>
<path fill="none" stroke="#000000" d="M358.0758,-176.9184C344.2707,-186.8581 325.8677,-200.1082 310.2675,-211.3404"/>
<polygon fill="none" stroke="#000000" points="308.0064,-208.6555 301.9361,-217.339 312.0966,-214.3363 308.0064,-208.6555"/>
</g>
<!-- MetricPrefix -->
<g id="node7" class="node">
<title>MetricPrefix</title>
<g id="a_node7"><a xlink:href="http://emmo.info/emmo/middle/metrology#EMMO_7d2afa66_ae9e_4095_a9bf_421d0be401b6" xlink:title="MetricPrefix">
<ellipse fill="#ffffcc" stroke="#000000" stroke-width="2" cx="253.7958" cy="-18" rx="55.7903" ry="18"/>
<text text-anchor="middle" x="253.7958" y="-14.3" font-family="Times,serif" font-size="14.00" fill="#000000">MetricPrefix</text>
</a>
</g>
</g>
<!-- Constant -->
<g id="node8" class="node">
<title>Constant</title>
<g id="a_node8"><a xlink:href="http://emmo.info/emmo/middle/math#EMMO_ae15fb4f_8e4d_41de_a0f9_3997f89ba6a2" xlink:title="Constant">
<ellipse fill="#ffffcc" stroke="#000000" cx="262.7958" cy="-90" rx="42.4939" ry="18"/>
<text text-anchor="middle" x="262.7958" y="-86.3" font-family="Times,serif" font-size="14.00" fill="#000000">Constant</text>
</a>
</g>
</g>
<!-- MetricPrefix&#45;&gt;Constant -->
<g id="edge6" class="edge">
<title>MetricPrefix&#45;&gt;Constant</title>
<path fill="none" stroke="#000000" d="M256.0669,-36.1686C257.0295,-43.869 258.1741,-53.0257 259.2438,-61.5834"/>
<polygon fill="none" stroke="#000000" points="255.7808,-62.0981 260.4942,-71.5867 262.7267,-61.2298 255.7808,-62.0981"/>
</g>
<!-- Constant&#45;&gt;Variable -->
<g id="edge5" class="edge">
<title>Constant&#45;&gt;Variable</title>
<path fill="none" stroke="#000000" d="M241.9342,-105.9791C228.822,-116.0225 211.7302,-129.1141 197.3667,-140.1159"/>
<polygon fill="none" stroke="#000000" points="195.0863,-137.4539 189.2758,-146.3133 199.3428,-143.011 195.0863,-137.4539"/>
</g>
<!-- Variable&#45;&gt;Conventional -->
<g id="edge8" class="edge">
<title>Variable&#45;&gt;Conventional</title>
<path fill="none" stroke="#000000" d="M191.8555,-177.0936C207.306,-187.2066 227.9028,-200.6882 245.1707,-211.9908"/>
<polygon fill="none" stroke="#000000" points="243.5685,-215.1252 253.8523,-217.6733 247.4021,-209.2682 243.5685,-215.1252"/>
</g>
<!-- MaterialLaw -->
<g id="node10" class="node">
<title>MaterialLaw</title>
<g id="a_node10"><a xlink:href="http://emmo.info/emmo/middle/models#EMMO_f19ff3b4_6bfe_4c41_a2b2_9affd39c140b" xlink:title="MaterialLaw">
<ellipse fill="#ffffcc" stroke="#000000" cx="383.7958" cy="-18" rx="56.59" ry="18"/>
<text text-anchor="middle" x="383.7958" y="-14.3" font-family="Times,serif" font-size="14.00" fill="#000000">MaterialLaw</text>
</a>
</g>
</g>
<!-- MaterialLaw&#45;&gt;NaturalLaw -->
<g id="edge2" class="edge">
<title>MaterialLaw&#45;&gt;NaturalLaw</title>
<path fill="none" stroke="#000000" d="M383.7958,-36.1686C383.7958,-43.869 383.7958,-53.0257 383.7958,-61.5834"/>
<polygon fill="none" stroke="#000000" points="380.2959,-61.5867 383.7958,-71.5867 387.2959,-61.5868 380.2959,-61.5867"/>
</g>
<!-- key1 -->
<g id="node12" class="node">
<title>key1</title>
<text text-anchor="start" x="605.7958" y="-13.8" font-family="Times,serif" font-size="14.00" fill="#000000">isA</text>
</g>
<!-- key2 -->
<g id="node13" class="node">
<title>key2</title>
<text text-anchor="start" x="684.7958" y="-13.8" font-family="Times,serif" font-size="14.00" fill="#000000"> </text>
</g>
<!-- key1&#45;&gt;key2 -->
<g id="edge11" class="edge">
<title>key1:e&#45;&gt;key2:w</title>
<path fill="none" stroke="#000000" d="M626.7958,-19C647.7958,-19 655.5068,-19 672.354,-19"/>
<polygon fill="none" stroke="#000000" points="672.7959,-22.5001 682.7958,-19 672.7958,-15.5001 672.7959,-22.5001"/>
</g>
</g>
</svg>
