<?xml version="1.0" encoding="UTF-8" standalone="no"?>
<!DOCTYPE svg PUBLIC "-//W3C//DTD SVG 1.1//EN"
 "http://www.w3.org/Graphics/SVG/1.1/DTD/svg11.dtd">
<!-- Generated by graphviz version 2.40.1 (20161225.0304)
 -->
<!-- Title: %3 Pages: 1 -->
<svg width="662pt" height="260pt"
 viewBox="0.00 0.00 661.90 260.00" xmlns="http://www.w3.org/2000/svg" xmlns:xlink="http://www.w3.org/1999/xlink">
<g id="graph0" class="graph" transform="scale(1 1) rotate(0) translate(4 256)">
<title>%3</title>
<polygon fill="#ffffff" stroke="transparent" points="-4,4 -4,-256 657.895,-256 657.895,4 -4,4"/>
<!-- Theory -->
<g id="node1" class="node">
<title>Theory</title>
<g id="a_node1"><a xlink:href="http://emmo.info/emmo/middle/models#EMMO_8d2d9374_ef3a_47e6_8595_6bc208e07519" xlink:title="Theory">
<ellipse fill="#ffffcc" stroke="#000000" cx="384.895" cy="-162" rx="36.2938" ry="18"/>
<text text-anchor="middle" x="384.895" y="-158.3" font-family="Times,serif" font-size="14.00" fill="#000000">Theory</text>
</a>
</g>
</g>
<!-- Conventional -->
<g id="node6" class="node">
<title>Conventional</title>
<g id="a_node6"><a xlink:href="http://emmo.info/emmo/top/semiotics#EMMO_35d2e130_6e01_41ed_94f7_00b333d46cf9" xlink:title="Conventional">
<ellipse fill="#ffffcc" stroke="#000000" stroke-width="2" cx="285.895" cy="-234" rx="57.6901" ry="18"/>
<text text-anchor="middle" x="285.895" y="-230.3" font-family="Times,serif" font-size="14.00" fill="#000000">Conventional</text>
</a>
</g>
</g>
<!-- Theory&#45;&gt;Conventional -->
<g id="edge8" class="edge">
<title>Theory&#45;&gt;Conventional</title>
<path fill="none" stroke="#000000" d="M364.3822,-176.9184C350.7152,-186.8581 332.4962,-200.1082 317.052,-211.3404"/>
<polygon fill="none" stroke="#000000" points="314.8327,-208.6267 308.8039,-217.339 318.9499,-214.2878 314.8327,-208.6267"/>
</g>
<!-- MetricPrefix -->
<g id="node2" class="node">
<title>MetricPrefix</title>
<g id="a_node2"><a xlink:href="http://emmo.info/emmo/middle/metrology#EMMO_7d2afa66_ae9e_4095_a9bf_421d0be401b6" xlink:title="MetricPrefix">
<ellipse fill="#ffffcc" stroke="#000000" stroke-width="2" cx="55.895" cy="-18" rx="55.7903" ry="18"/>
<text text-anchor="middle" x="55.895" y="-14.3" font-family="Times,serif" font-size="14.00" fill="#000000">MetricPrefix</text>
</a>
</g>
</g>
<!-- Constant -->
<g id="node3" class="node">
<title>Constant</title>
<g id="a_node3"><a xlink:href="http://emmo.info/emmo/middle/math#EMMO_ae15fb4f_8e4d_41de_a0f9_3997f89ba6a2" xlink:title="Constant">
<ellipse fill="#ffffcc" stroke="#000000" cx="55.895" cy="-90" rx="42.4939" ry="18"/>
<text text-anchor="middle" x="55.895" y="-86.3" font-family="Times,serif" font-size="14.00" fill="#000000">Constant</text>
</a>
</g>
</g>
<!-- MetricPrefix&#45;&gt;Constant -->
<g id="edge3" class="edge">
<title>MetricPrefix&#45;&gt;Constant</title>
<path fill="none" stroke="#000000" d="M55.895,-36.1686C55.895,-43.869 55.895,-53.0257 55.895,-61.5834"/>
<polygon fill="none" stroke="#000000" points="52.3951,-61.5867 55.895,-71.5867 59.3951,-61.5868 52.3951,-61.5867"/>
</g>
<!-- Variable -->
<g id="node4" class="node">
<title>Variable</title>
<g id="a_node4"><a xlink:href="http://emmo.info/emmo/middle/math#EMMO_1eed0732_e3f1_4b2c_a9c4_b4e75eeb5895" xlink:title="Variable">
<ellipse fill="#ffffcc" stroke="#000000" cx="177.895" cy="-162" rx="40.8928" ry="18"/>
<text text-anchor="middle" x="177.895" y="-158.3" font-family="Times,serif" font-size="14.00" fill="#000000">Variable</text>
</a>
</g>
</g>
<!-- Constant&#45;&gt;Variable -->
<g id="edge9" class="edge">
<title>Constant&#45;&gt;Variable</title>
<path fill="none" stroke="#000000" d="M80.878,-104.744C99.2559,-115.59 124.4291,-130.4463 144.5277,-142.3078"/>
<polygon fill="none" stroke="#000000" points="142.9714,-145.4534 153.3624,-147.5217 146.5293,-139.4249 142.9714,-145.4534"/>
</g>
<!-- Variable&#45;&gt;Conventional -->
<g id="edge1" class="edge">
<title>Variable&#45;&gt;Conventional</title>
<path fill="none" stroke="#000000" d="M200.5354,-177.0936C215.705,-187.2066 235.9273,-200.6882 252.8812,-211.9908"/>
<polygon fill="none" stroke="#000000" points="251.1431,-215.0385 261.405,-217.6733 255.026,-209.2141 251.1431,-215.0385"/>
</g>
<!-- MaterialLaw -->
<g id="node5" class="node">
<title>MaterialLaw</title>
<g id="a_node5"><a xlink:href="http://emmo.info/emmo/middle/models#EMMO_f19ff3b4_6bfe_4c41_a2b2_9affd39c140b" xlink:title="MaterialLaw">
<ellipse fill="#ffffcc" stroke="#000000" cx="323.895" cy="-18" rx="56.59" ry="18"/>
<text text-anchor="middle" x="323.895" y="-14.3" font-family="Times,serif" font-size="14.00" fill="#000000">MaterialLaw</text>
</a>
</g>
</g>
<!-- NaturalLaw -->
<g id="node11" class="node">
<title>NaturalLaw</title>
<g id="a_node11"><a xlink:href="http://emmo.info/emmo/middle/models#EMMO_db9a009e_f097_43f5_9520_6cbc07e7610b" xlink:title="NaturalLaw">
<ellipse fill="#ffffcc" stroke="#000000" cx="388.895" cy="-90" rx="52.7911" ry="18"/>
<text text-anchor="middle" x="388.895" y="-86.3" font-family="Times,serif" font-size="14.00" fill="#000000">NaturalLaw</text>
</a>
</g>
</g>
<!-- MaterialLaw&#45;&gt;NaturalLaw -->
<g id="edge5" class="edge">
<title>MaterialLaw&#45;&gt;NaturalLaw</title>
<path fill="none" stroke="#000000" d="M339.6297,-35.4292C347.6936,-44.3615 357.6538,-55.3944 366.5035,-65.1971"/>
<polygon fill="none" stroke="#000000" points="364.0062,-67.654 373.3053,-72.7313 369.2021,-62.9632 364.0062,-67.654"/>
</g>
<!-- Unknown -->
<g id="node7" class="node">
<title>Unknown</title>
<g id="a_node7"><a xlink:href="http://emmo.info/emmo/middle/math#EMMO_fe7e56ce_118b_4243_9aad_20eb9f4f31f6" xlink:title="Unknown">
<ellipse fill="#ffffcc" stroke="#000000" cx="161.895" cy="-90" rx="45.4919" ry="18"/>
<text text-anchor="middle" x="161.895" y="-86.3" font-family="Times,serif" font-size="14.00" fill="#000000">Unknown</text>
</a>
</g>
</g>
<!-- Unknown&#45;&gt;Variable -->
<g id="edge6" class="edge">
<title>Unknown&#45;&gt;Variable</title>
<path fill="none" stroke="#000000" d="M165.9325,-108.1686C167.6437,-115.869 169.6785,-125.0257 171.5802,-133.5834"/>
<polygon fill="none" stroke="#000000" points="168.2172,-134.5841 173.8032,-143.5867 175.0505,-133.0656 168.2172,-134.5841"/>
</g>
<!-- Property -->
<g id="node8" class="node">
<title>Property</title>
<g id="a_node8"><a xlink:href="http://emmo.info/emmo/middle/properties#EMMO_b7bcff25_ffc3_474e_9ab5_01b1664bd4ba" xlink:title="Property">
<ellipse fill="#ffffcc" stroke="#000000" stroke-width="2" cx="285.895" cy="-162" rx="40.8928" ry="18"/>
<text text-anchor="middle" x="285.895" y="-158.3" font-family="Times,serif" font-size="14.00" fill="#000000">Property</text>
</a>
</g>
</g>
<!-- Property&#45;&gt;Conventional -->
<g id="edge10" class="edge">
<title>Property&#45;&gt;Conventional</title>
<path fill="none" stroke="#000000" d="M285.895,-180.1686C285.895,-187.869 285.895,-197.0257 285.895,-205.5834"/>
<polygon fill="none" stroke="#000000" points="282.3951,-205.5867 285.895,-215.5867 289.3951,-205.5868 282.3951,-205.5867"/>
</g>
<!-- Parameter -->
<g id="node9" class="node">
<title>Parameter</title>
<g id="a_node9"><a xlink:href="http://emmo.info/emmo/middle/math#EMMO_d1d436e7_72fc_49cd_863b_7bfb4ba5276a" xlink:title="Parameter">
<ellipse fill="#ffffcc" stroke="#000000" cx="271.895" cy="-90" rx="46.5926" ry="18"/>
<text text-anchor="middle" x="271.895" y="-86.3" font-family="Times,serif" font-size="14.00" fill="#000000">Parameter</text>
</a>
</g>
</g>
<!-- Parameter&#45;&gt;Variable -->
<g id="edge4" class="edge">
<title>Parameter&#45;&gt;Variable</title>
<path fill="none" stroke="#000000" d="M250.565,-106.3379C237.5241,-116.3267 220.6798,-129.2287 206.4922,-140.0958"/>
<polygon fill="none" stroke="#000000" points="204.3052,-137.3622 198.4947,-146.2216 208.5618,-142.9193 204.3052,-137.3622"/>
</g>
<!-- PhysicalLaw -->
<g id="node10" class="node">
<title>PhysicalLaw</title>
<g id="a_node10"><a xlink:href="http://emmo.info/emmo/middle/models#EMMO_9c32fd69_f480_4130_83b3_fb25d9face14" xlink:title="PhysicalLaw">
<ellipse fill="#ffffcc" stroke="#000000" cx="453.895" cy="-18" rx="55.7903" ry="18"/>
<text text-anchor="middle" x="453.895" y="-14.3" font-family="Times,serif" font-size="14.00" fill="#000000">PhysicalLaw</text>
</a>
</g>
</g>
<!-- PhysicalLaw&#45;&gt;NaturalLaw -->
<g id="edge2" class="edge">
<title>PhysicalLaw&#45;&gt;NaturalLaw</title>
<path fill="none" stroke="#000000" d="M438.1604,-35.4292C430.0964,-44.3615 420.1362,-55.3944 411.2866,-65.1971"/>
<polygon fill="none" stroke="#000000" points="408.5879,-62.9632 404.4848,-72.7313 413.7838,-67.654 408.5879,-62.9632"/>
</g>
<!-- NaturalLaw&#45;&gt;Theory -->
<g id="edge7" class="edge">
<title>NaturalLaw&#45;&gt;Theory</title>
<path fill="none" stroke="#000000" d="M387.8857,-108.1686C387.4579,-115.869 386.9492,-125.0257 386.4737,-133.5834"/>
<polygon fill="none" stroke="#000000" points="382.9782,-133.408 385.918,-143.5867 389.9674,-133.7963 382.9782,-133.408"/>
</g>
<!-- key1 -->
<g id="node12" class="node">
<title>key1</title>
<text text-anchor="start" x="545.895" y="-13.8" font-family="Times,serif" font-size="14.00" fill="#000000">isA</text>
</g>
<!-- key2 -->
<g id="node13" class="node">
<title>key2</title>
<text text-anchor="start" x="624.895" y="-13.8" font-family="Times,serif" font-size="14.00" fill="#000000"> </text>
</g>
<!-- key1&#45;&gt;key2 -->
<g id="edge11" class="edge">
<title>key1:e&#45;&gt;key2:w</title>
<path fill="none" stroke="#000000" d="M566.895,-19C587.895,-19 595.606,-19 612.4531,-19"/>
<polygon fill="none" stroke="#000000" points="612.8951,-22.5001 622.895,-19 612.895,-15.5001 612.8951,-22.5001"/>
</g>
</g>
</svg>
