<?xml version="1.0" encoding="UTF-8" standalone="no"?>
<!DOCTYPE svg PUBLIC "-//W3C//DTD SVG 1.1//EN"
 "http://www.w3.org/Graphics/SVG/1.1/DTD/svg11.dtd">
<!-- Generated by graphviz version 2.40.1 (20161225.0304)
 -->
<!-- Title: %3 Pages: 1 -->
<svg width="518pt" height="305pt"
 viewBox="0.00 0.00 517.79 305.00" xmlns="http://www.w3.org/2000/svg" xmlns:xlink="http://www.w3.org/1999/xlink">
<g id="graph0" class="graph" transform="scale(1 1) rotate(0) translate(4 301)">
<title>%3</title>
<polygon fill="#ffffff" stroke="transparent" points="-4,4 -4,-301 513.7901,-301 513.7901,4 -4,4"/>
<!-- NaturalLaw -->
<g id="node1" class="node">
<title>NaturalLaw</title>
<g id="a_node1"><a xlink:href="http://emmo.info/emmo/middle/models#EMMO_db9a009e_f097_43f5_9520_6cbc07e7610b" xlink:title="NaturalLaw">
<ellipse fill="#ffffcc" stroke="#000000" cx="388.895" cy="-105" rx="52.7911" ry="18"/>
<text text-anchor="middle" x="388.895" y="-101.3" font-family="Times,serif" font-size="14.00" fill="#000000">NaturalLaw</text>
</a>
</g>
</g>
<!-- Theory -->
<g id="node4" class="node">
<title>Theory</title>
<g id="a_node4"><a xlink:href="http://emmo.info/emmo/middle/models#EMMO_8d2d9374_ef3a_47e6_8595_6bc208e07519" xlink:title="Theory">
<ellipse fill="#ffffcc" stroke="#000000" cx="384.895" cy="-192" rx="36.2938" ry="18"/>
<text text-anchor="middle" x="384.895" y="-188.3" font-family="Times,serif" font-size="14.00" fill="#000000">Theory</text>
</a>
</g>
</g>
<!-- NaturalLaw&#45;&gt;Theory -->
<g id="edge3" class="edge">
<title>NaturalLaw&#45;&gt;Theory</title>
<path fill="none" stroke="#000000" d="M388.0662,-123.0265C387.5245,-134.8082 386.8059,-150.4393 386.1897,-163.8419"/>
<polygon fill="none" stroke="#000000" points="382.6859,-163.8464 385.7228,-173.9966 389.6785,-164.168 382.6859,-163.8464"/>
<text text-anchor="middle" x="397.395" y="-144.8" font-family="Times,serif" font-size="14.00" fill="#000000">isA</text>
</g>
<!-- Constant -->
<g id="node2" class="node">
<title>Constant</title>
<g id="a_node2"><a xlink:href="http://emmo.info/emmo/middle/math#EMMO_ae15fb4f_8e4d_41de_a0f9_3997f89ba6a2" xlink:title="Constant">
<ellipse fill="#ffffcc" stroke="#000000" cx="55.895" cy="-105" rx="42.4939" ry="18"/>
<text text-anchor="middle" x="55.895" y="-101.3" font-family="Times,serif" font-size="14.00" fill="#000000">Constant</text>
</a>
</g>
</g>
<!-- Variable -->
<g id="node6" class="node">
<title>Variable</title>
<g id="a_node6"><a xlink:href="http://emmo.info/emmo/middle/math#EMMO_1eed0732_e3f1_4b2c_a9c4_b4e75eeb5895" xlink:title="Variable">
<ellipse fill="#ffffcc" stroke="#000000" cx="177.895" cy="-192" rx="40.8928" ry="18"/>
<text text-anchor="middle" x="177.895" y="-188.3" font-family="Times,serif" font-size="14.00" fill="#000000">Variable</text>
</a>
</g>
</g>
<!-- Constant&#45;&gt;Variable -->
<g id="edge9" class="edge">
<title>Constant&#45;&gt;Variable</title>
<path fill="none" stroke="#000000" d="M77.7062,-120.5539C97.3102,-134.5338 126.279,-155.1918 148.0308,-170.7034"/>
<polygon fill="none" stroke="#000000" points="146.0987,-173.6243 156.2727,-176.5808 150.163,-167.925 146.0987,-173.6243"/>
<text text-anchor="middle" x="134.395" y="-144.8" font-family="Times,serif" font-size="14.00" fill="#000000">isA</text>
</g>
<!-- Parameter -->
<g id="node3" class="node">
<title>Parameter</title>
<g id="a_node3"><a xlink:href="http://emmo.info/emmo/middle/math#EMMO_d1d436e7_72fc_49cd_863b_7bfb4ba5276a" xlink:title="Parameter">
<ellipse fill="#ffffcc" stroke="#000000" cx="162.895" cy="-105" rx="46.5926" ry="18"/>
<text text-anchor="middle" x="162.895" y="-101.3" font-family="Times,serif" font-size="14.00" fill="#000000">Parameter</text>
</a>
</g>
</g>
<!-- Parameter&#45;&gt;Variable -->
<g id="edge4" class="edge">
<title>Parameter&#45;&gt;Variable</title>
<path fill="none" stroke="#000000" d="M166.0031,-123.0265C168.0344,-134.8082 170.7294,-150.4393 173.0402,-163.8419"/>
<polygon fill="none" stroke="#000000" points="169.6428,-164.7367 174.791,-173.9966 176.541,-163.5473 169.6428,-164.7367"/>
<text text-anchor="middle" x="181.395" y="-144.8" font-family="Times,serif" font-size="14.00" fill="#000000">isA</text>
</g>
<!-- Conventional -->
<g id="node7" class="node">
<title>Conventional</title>
<g id="a_node7"><a xlink:href="http://emmo.info/emmo/top/semiotics#EMMO_35d2e130_6e01_41ed_94f7_00b333d46cf9" xlink:title="Conventional">
<ellipse fill="#ffffcc" stroke="#000000" stroke-width="2" cx="285.895" cy="-279" rx="57.6901" ry="18"/>
<text text-anchor="middle" x="285.895" y="-275.3" font-family="Times,serif" font-size="14.00" fill="#000000">Conventional</text>
</a>
</g>
</g>
<!-- Theory&#45;&gt;Conventional -->
<g id="edge7" class="edge">
<title>Theory&#45;&gt;Conventional</title>
<path fill="none" stroke="#000000" d="M366.7369,-207.9571C351.7699,-221.11 330.3085,-239.97 313.2593,-254.9526"/>
<polygon fill="none" stroke="#000000" points="310.4932,-252.724 305.2919,-261.9543 315.114,-257.9822 310.4932,-252.724"/>
<text text-anchor="middle" x="351.395" y="-231.8" font-family="Times,serif" font-size="14.00" fill="#000000">isA</text>
</g>
<!-- Unknown -->
<g id="node5" class="node">
<title>Unknown</title>
<g id="a_node5"><a xlink:href="http://emmo.info/emmo/middle/math#EMMO_fe7e56ce_118b_4243_9aad_20eb9f4f31f6" xlink:title="Unknown">
<ellipse fill="#ffffcc" stroke="#000000" cx="272.895" cy="-105" rx="45.4919" ry="18"/>
<text text-anchor="middle" x="272.895" y="-101.3" font-family="Times,serif" font-size="14.00" fill="#000000">Unknown</text>
</a>
</g>
</g>
<!-- Unknown&#45;&gt;Variable -->
<g id="edge5" class="edge">
<title>Unknown&#45;&gt;Variable</title>
<path fill="none" stroke="#000000" d="M254.5781,-121.7745C240.0287,-135.0986 219.5153,-153.8846 203.3657,-168.6742"/>
<polygon fill="none" stroke="#000000" points="200.8446,-166.2371 195.8336,-175.5721 205.5722,-171.3995 200.8446,-166.2371"/>
<text text-anchor="middle" x="241.395" y="-144.8" font-family="Times,serif" font-size="14.00" fill="#000000">isA</text>
</g>
<!-- Variable&#45;&gt;Conventional -->
<g id="edge2" class="edge">
<title>Variable&#45;&gt;Conventional</title>
<path fill="none" stroke="#000000" d="M197.7039,-207.9571C214.2543,-221.2894 238.0839,-240.4854 256.8013,-255.5634"/>
<polygon fill="none" stroke="#000000" points="254.7516,-258.4066 264.7348,-261.9543 259.1429,-252.9553 254.7516,-258.4066"/>
<text text-anchor="middle" x="248.395" y="-231.8" font-family="Times,serif" font-size="14.00" fill="#000000">isA</text>
</g>
<!-- MaterialLaw -->
<g id="node8" class="node">
<title>MaterialLaw</title>
<g id="a_node8"><a xlink:href="http://emmo.info/emmo/middle/models#EMMO_f19ff3b4_6bfe_4c41_a2b2_9affd39c140b" xlink:title="MaterialLaw">
<ellipse fill="#ffffcc" stroke="#000000" cx="323.895" cy="-18" rx="56.59" ry="18"/>
<text text-anchor="middle" x="323.895" y="-14.3" font-family="Times,serif" font-size="14.00" fill="#000000">MaterialLaw</text>
</a>
</g>
</g>
<!-- MaterialLaw&#45;&gt;NaturalLaw -->
<g id="edge1" class="edge">
<title>MaterialLaw&#45;&gt;NaturalLaw</title>
<path fill="none" stroke="#000000" d="M337.0488,-35.6057C346.3877,-48.1056 359.0775,-65.0904 369.5651,-79.1276"/>
<polygon fill="none" stroke="#000000" points="366.9717,-81.5042 375.7609,-87.4204 372.5795,-77.3145 366.9717,-81.5042"/>
<text text-anchor="middle" x="370.395" y="-57.8" font-family="Times,serif" font-size="14.00" fill="#000000">isA</text>
</g>
<!-- PhysicalLaw -->
<g id="node9" class="node">
<title>PhysicalLaw</title>
<g id="a_node9"><a xlink:href="http://emmo.info/emmo/middle/models#EMMO_9c32fd69_f480_4130_83b3_fb25d9face14" xlink:title="PhysicalLaw">
<ellipse fill="#ffffcc" stroke="#000000" cx="453.895" cy="-18" rx="55.7903" ry="18"/>
<text text-anchor="middle" x="453.895" y="-14.3" font-family="Times,serif" font-size="14.00" fill="#000000">PhysicalLaw</text>
</a>
</g>
</g>
<!-- PhysicalLaw&#45;&gt;NaturalLaw -->
<g id="edge10" class="edge">
<title>PhysicalLaw&#45;&gt;NaturalLaw</title>
<path fill="none" stroke="#000000" d="M440.7413,-35.6057C431.4024,-48.1056 418.7126,-65.0904 408.225,-79.1276"/>
<polygon fill="none" stroke="#000000" points="405.2106,-77.3145 402.0292,-87.4204 410.8184,-81.5042 405.2106,-77.3145"/>
<text text-anchor="middle" x="435.395" y="-57.8" font-family="Times,serif" font-size="14.00" fill="#000000">isA</text>
</g>
<!-- MetricPrefix -->
<g id="node10" class="node">
<title>MetricPrefix</title>
<g id="a_node10"><a xlink:href="http://emmo.info/emmo/middle/units#EMMO_7d2afa66_ae9e_4095_a9bf_421d0be401b6" xlink:title="MetricPrefix">
<ellipse fill="#ffffcc" stroke="#000000" stroke-width="2" cx="55.895" cy="-18" rx="55.7903" ry="18"/>
<text text-anchor="middle" x="55.895" y="-14.3" font-family="Times,serif" font-size="14.00" fill="#000000">MetricPrefix</text>
</a>
</g>
</g>
<!-- MetricPrefix&#45;&gt;Constant -->
<g id="edge8" class="edge">
<title>MetricPrefix&#45;&gt;Constant</title>
<path fill="none" stroke="#000000" d="M55.895,-36.0265C55.895,-47.8082 55.895,-63.4393 55.895,-76.8419"/>
<polygon fill="none" stroke="#000000" points="52.3951,-76.9966 55.895,-86.9966 59.3951,-76.9967 52.3951,-76.9966"/>
<text text-anchor="middle" x="65.395" y="-57.8" font-family="Times,serif" font-size="14.00" fill="#000000">isA</text>
</g>
<!-- Property -->
<g id="node11" class="node">
<title>Property</title>
<g id="a_node11"><a xlink:href="http://emmo.info/emmo/middle/properties#EMMO_b7bcff25_ffc3_474e_9ab5_01b1664bd4ba" xlink:title="Property">
<ellipse fill="#ffffcc" stroke="#000000" stroke-width="2" cx="285.895" cy="-192" rx="40.8928" ry="18"/>
<text text-anchor="middle" x="285.895" y="-188.3" font-family="Times,serif" font-size="14.00" fill="#000000">Property</text>
</a>
</g>
</g>
<!-- Property&#45;&gt;Conventional -->
<g id="edge6" class="edge">
<title>Property&#45;&gt;Conventional</title>
<path fill="none" stroke="#000000" d="M285.895,-210.0265C285.895,-221.8082 285.895,-237.4393 285.895,-250.8419"/>
<polygon fill="none" stroke="#000000" points="282.3951,-250.9966 285.895,-260.9966 289.3951,-250.9967 282.3951,-250.9966"/>
<text text-anchor="middle" x="295.395" y="-231.8" font-family="Times,serif" font-size="14.00" fill="#000000">isA</text>
</g>
</g>
</svg>
