<?xml version="1.0" encoding="UTF-8" standalone="no"?>
<!DOCTYPE svg PUBLIC "-//W3C//DTD SVG 1.1//EN"
 "http://www.w3.org/Graphics/SVG/1.1/DTD/svg11.dtd">
<!-- Generated by graphviz version 2.40.1 (20161225.0304)
 -->
<!-- Title: %3 Pages: 1 -->
<svg width="663pt" height="260pt"
 viewBox="0.00 0.00 662.90 260.00" xmlns="http://www.w3.org/2000/svg" xmlns:xlink="http://www.w3.org/1999/xlink">
<g id="graph0" class="graph" transform="scale(1 1) rotate(0) translate(4 256)">
<title>%3</title>
<polygon fill="#ffffff" stroke="transparent" points="-4,4 -4,-256 658.895,-256 658.895,4 -4,4"/>
<!-- Property -->
<g id="node1" class="node">
<title>Property</title>
<g id="a_node1"><a xlink:href="http://emmo.info/emmo/middle/properties#EMMO_b7bcff25_ffc3_474e_9ab5_01b1664bd4ba" xlink:title="Property">
<ellipse fill="#ffffcc" stroke="#000000" stroke-width="2" cx="94.895" cy="-162" rx="40.8928" ry="18"/>
<text text-anchor="middle" x="94.895" y="-158.3" font-family="Times,serif" font-size="14.00" fill="#000000">Property</text>
</a>
</g>
</g>
<!-- Conventional -->
<g id="node7" class="node">
<title>Conventional</title>
<g id="a_node7"><a xlink:href="http://emmo.info/emmo/top/semiotics#EMMO_35d2e130_6e01_41ed_94f7_00b333d46cf9" xlink:title="Conventional">
<ellipse fill="#ffffcc" stroke="#000000" stroke-width="2" cx="194.895" cy="-234" rx="57.6901" ry="18"/>
<text text-anchor="middle" x="194.895" y="-230.3" font-family="Times,serif" font-size="14.00" fill="#000000">Conventional</text>
</a>
</g>
</g>
<!-- Property&#45;&gt;Conventional -->
<g id="edge4" class="edge">
<title>Property&#45;&gt;Conventional</title>
<path fill="none" stroke="#000000" d="M116.5936,-177.6229C130.3583,-187.5336 148.39,-200.5164 163.6795,-211.5248"/>
<polygon fill="none" stroke="#000000" points="161.6866,-214.4028 171.8471,-217.4055 165.7768,-208.722 161.6866,-214.4028"/>
</g>
<!-- PhysicalLaw -->
<g id="node2" class="node">
<title>PhysicalLaw</title>
<g id="a_node2"><a xlink:href="http://emmo.info/emmo/middle/models#EMMO_9c32fd69_f480_4130_83b3_fb25d9face14" xlink:title="PhysicalLaw">
<ellipse fill="#ffffcc" stroke="#000000" cx="323.895" cy="-18" rx="55.7903" ry="18"/>
<text text-anchor="middle" x="323.895" y="-14.3" font-family="Times,serif" font-size="14.00" fill="#000000">PhysicalLaw</text>
</a>
</g>
</g>
<!-- NaturalLaw -->
<g id="node3" class="node">
<title>NaturalLaw</title>
<g id="a_node3"><a xlink:href="http://emmo.info/emmo/middle/models#EMMO_db9a009e_f097_43f5_9520_6cbc07e7610b" xlink:title="NaturalLaw">
<ellipse fill="#ffffcc" stroke="#000000" cx="388.895" cy="-90" rx="52.7911" ry="18"/>
<text text-anchor="middle" x="388.895" y="-86.3" font-family="Times,serif" font-size="14.00" fill="#000000">NaturalLaw</text>
</a>
</g>
</g>
<!-- PhysicalLaw&#45;&gt;NaturalLaw -->
<g id="edge8" class="edge">
<title>PhysicalLaw&#45;&gt;NaturalLaw</title>
<path fill="none" stroke="#000000" d="M339.6297,-35.4292C347.6936,-44.3615 357.6538,-55.3944 366.5035,-65.1971"/>
<polygon fill="none" stroke="#000000" points="364.0062,-67.654 373.3053,-72.7313 369.2021,-62.9632 364.0062,-67.654"/>
</g>
<!-- Theory -->
<g id="node5" class="node">
<title>Theory</title>
<g id="a_node5"><a xlink:href="http://emmo.info/emmo/middle/models#EMMO_8d2d9374_ef3a_47e6_8595_6bc208e07519" xlink:title="Theory">
<ellipse fill="#ffffcc" stroke="#000000" cx="355.895" cy="-162" rx="36.2938" ry="18"/>
<text text-anchor="middle" x="355.895" y="-158.3" font-family="Times,serif" font-size="14.00" fill="#000000">Theory</text>
</a>
</g>
</g>
<!-- NaturalLaw&#45;&gt;Theory -->
<g id="edge7" class="edge">
<title>NaturalLaw&#45;&gt;Theory</title>
<path fill="none" stroke="#000000" d="M380.7377,-107.7978C376.9413,-116.0808 372.3453,-126.1085 368.1439,-135.2752"/>
<polygon fill="none" stroke="#000000" points="364.9434,-133.858 363.9585,-144.407 371.3068,-136.7746 364.9434,-133.858"/>
</g>
<!-- Variable -->
<g id="node4" class="node">
<title>Variable</title>
<g id="a_node4"><a xlink:href="http://emmo.info/emmo/middle/math#EMMO_1eed0732_e3f1_4b2c_a9c4_b4e75eeb5895" xlink:title="Variable">
<ellipse fill="#ffffcc" stroke="#000000" cx="194.895" cy="-162" rx="40.8928" ry="18"/>
<text text-anchor="middle" x="194.895" y="-158.3" font-family="Times,serif" font-size="14.00" fill="#000000">Variable</text>
</a>
</g>
</g>
<!-- Variable&#45;&gt;Conventional -->
<g id="edge9" class="edge">
<title>Variable&#45;&gt;Conventional</title>
<path fill="none" stroke="#000000" d="M194.895,-180.1686C194.895,-187.869 194.895,-197.0257 194.895,-205.5834"/>
<polygon fill="none" stroke="#000000" points="191.3951,-205.5867 194.895,-215.5867 198.3951,-205.5868 191.3951,-205.5867"/>
</g>
<!-- Theory&#45;&gt;Conventional -->
<g id="edge1" class="edge">
<title>Theory&#45;&gt;Conventional</title>
<path fill="none" stroke="#000000" d="M328.5836,-174.2138C303.6772,-185.3521 266.4754,-201.9889 237.6345,-214.8867"/>
<polygon fill="none" stroke="#000000" points="235.9039,-211.8265 228.204,-219.1041 238.7616,-218.2167 235.9039,-211.8265"/>
</g>
<!-- MetricPrefix -->
<g id="node6" class="node">
<title>MetricPrefix</title>
<g id="a_node6"><a xlink:href="http://emmo.info/emmo/middle/metrology#EMMO_7d2afa66_ae9e_4095_a9bf_421d0be401b6" xlink:title="MetricPrefix">
<ellipse fill="#ffffcc" stroke="#000000" stroke-width="2" cx="55.895" cy="-18" rx="55.7903" ry="18"/>
<text text-anchor="middle" x="55.895" y="-14.3" font-family="Times,serif" font-size="14.00" fill="#000000">MetricPrefix</text>
</a>
</g>
</g>
<!-- Constant -->
<g id="node8" class="node">
<title>Constant</title>
<g id="a_node8"><a xlink:href="http://emmo.info/emmo/middle/math#EMMO_ae15fb4f_8e4d_41de_a0f9_3997f89ba6a2" xlink:title="Constant">
<ellipse fill="#ffffcc" stroke="#000000" cx="55.895" cy="-90" rx="42.4939" ry="18"/>
<text text-anchor="middle" x="55.895" y="-86.3" font-family="Times,serif" font-size="14.00" fill="#000000">Constant</text>
</a>
</g>
</g>
<!-- MetricPrefix&#45;&gt;Constant -->
<g id="edge2" class="edge">
<title>MetricPrefix&#45;&gt;Constant</title>
<path fill="none" stroke="#000000" d="M55.895,-36.1686C55.895,-43.869 55.895,-53.0257 55.895,-61.5834"/>
<polygon fill="none" stroke="#000000" points="52.3951,-61.5867 55.895,-71.5867 59.3951,-61.5868 52.3951,-61.5867"/>
</g>
<!-- Constant&#45;&gt;Variable -->
<g id="edge6" class="edge">
<title>Constant&#45;&gt;Variable</title>
<path fill="none" stroke="#000000" d="M83.0256,-104.0532C104.7871,-115.3254 135.5104,-131.2396 159.2553,-143.5391"/>
<polygon fill="none" stroke="#000000" points="157.8158,-146.7351 168.3051,-148.2268 161.0354,-140.5195 157.8158,-146.7351"/>
</g>
<!-- Unknown -->
<g id="node9" class="node">
<title>Unknown</title>
<g id="a_node9"><a xlink:href="http://emmo.info/emmo/middle/math#EMMO_fe7e56ce_118b_4243_9aad_20eb9f4f31f6" xlink:title="Unknown">
<ellipse fill="#ffffcc" stroke="#000000" cx="161.895" cy="-90" rx="45.4919" ry="18"/>
<text text-anchor="middle" x="161.895" y="-86.3" font-family="Times,serif" font-size="14.00" fill="#000000">Unknown</text>
</a>
</g>
</g>
<!-- Unknown&#45;&gt;Variable -->
<g id="edge3" class="edge">
<title>Unknown&#45;&gt;Variable</title>
<path fill="none" stroke="#000000" d="M170.0523,-107.7978C173.7808,-115.9325 178.2804,-125.7499 182.4201,-134.7819"/>
<polygon fill="none" stroke="#000000" points="179.3689,-136.5251 186.7172,-144.1575 185.7323,-133.6085 179.3689,-136.5251"/>
</g>
<!-- MaterialLaw -->
<g id="node10" class="node">
<title>MaterialLaw</title>
<g id="a_node10"><a xlink:href="http://emmo.info/emmo/middle/models#EMMO_f19ff3b4_6bfe_4c41_a2b2_9affd39c140b" xlink:title="MaterialLaw">
<ellipse fill="#ffffcc" stroke="#000000" cx="453.895" cy="-18" rx="56.59" ry="18"/>
<text text-anchor="middle" x="453.895" y="-14.3" font-family="Times,serif" font-size="14.00" fill="#000000">MaterialLaw</text>
</a>
</g>
</g>
<!-- MaterialLaw&#45;&gt;NaturalLaw -->
<g id="edge10" class="edge">
<title>MaterialLaw&#45;&gt;NaturalLaw</title>
<path fill="none" stroke="#000000" d="M438.1604,-35.4292C430.0964,-44.3615 420.1362,-55.3944 411.2866,-65.1971"/>
<polygon fill="none" stroke="#000000" points="408.5879,-62.9632 404.4848,-72.7313 413.7838,-67.654 408.5879,-62.9632"/>
</g>
<!-- Parameter -->
<g id="node11" class="node">
<title>Parameter</title>
<g id="a_node11"><a xlink:href="http://emmo.info/emmo/middle/math#EMMO_d1d436e7_72fc_49cd_863b_7bfb4ba5276a" xlink:title="Parameter">
<ellipse fill="#ffffcc" stroke="#000000" cx="271.895" cy="-90" rx="46.5926" ry="18"/>
<text text-anchor="middle" x="271.895" y="-86.3" font-family="Times,serif" font-size="14.00" fill="#000000">Parameter</text>
</a>
</g>
</g>
<!-- Parameter&#45;&gt;Variable -->
<g id="edge5" class="edge">
<title>Parameter&#45;&gt;Variable</title>
<path fill="none" stroke="#000000" d="M254.0362,-106.6992C243.8568,-116.2175 230.9443,-128.2916 219.7834,-138.7278"/>
<polygon fill="none" stroke="#000000" points="217.3054,-136.2531 212.3916,-145.6396 222.0864,-141.3661 217.3054,-136.2531"/>
</g>
<!-- key1 -->
<g id="node12" class="node">
<title>key1</title>
<text text-anchor="start" x="546.895" y="-13.8" font-family="Times,serif" font-size="14.00" fill="#000000">isA</text>
</g>
<!-- key2 -->
<g id="node13" class="node">
<title>key2</title>
<text text-anchor="start" x="625.895" y="-13.8" font-family="Times,serif" font-size="14.00" fill="#000000"> </text>
</g>
<!-- key1&#45;&gt;key2 -->
<g id="edge11" class="edge">
<title>key1:e&#45;&gt;key2:w</title>
<path fill="none" stroke="#000000" d="M567.895,-19C588.895,-19 596.606,-19 613.4531,-19"/>
<polygon fill="none" stroke="#000000" points="613.8951,-22.5001 623.895,-19 613.895,-15.5001 613.8951,-22.5001"/>
</g>
</g>
</svg>
