<?xml version="1.0" encoding="UTF-8" standalone="no"?>
<!DOCTYPE svg PUBLIC "-//W3C//DTD SVG 1.1//EN"
 "http://www.w3.org/Graphics/SVG/1.1/DTD/svg11.dtd">
<!-- Generated by graphviz version 2.40.1 (20161225.0304)
 -->
<!-- Title: %3 Pages: 1 -->
<svg width="722pt" height="260pt"
 viewBox="0.00 0.00 722.50 260.00" xmlns="http://www.w3.org/2000/svg" xmlns:xlink="http://www.w3.org/1999/xlink">
<g id="graph0" class="graph" transform="scale(1 1) rotate(0) translate(4 256)">
<title>%3</title>
<polygon fill="#ffffff" stroke="transparent" points="-4,4 -4,-256 718.496,-256 718.496,4 -4,4"/>
<!-- Property -->
<g id="node1" class="node">
<title>Property</title>
<g id="a_node1"><a xlink:href="http://emmo.info/emmo/middle/properties#EMMO_b7bcff25_ffc3_474e_9ab5_01b1664bd4ba" xlink:title="Property">
<ellipse fill="#ffffcc" stroke="#000000" stroke-width="2" cx="109.496" cy="-162" rx="40.8928" ry="18"/>
<text text-anchor="middle" x="109.496" y="-158.3" font-family="Times,serif" font-size="14.00" fill="#000000">Property</text>
</a>
</g>
</g>
<!-- Conventional -->
<g id="node7" class="node">
<title>Conventional</title>
<g id="a_node7"><a xlink:href="http://emmo.info/emmo/top/semiotics#EMMO_35d2e130_6e01_41ed_94f7_00b333d46cf9" xlink:title="Conventional">
<ellipse fill="#ffffcc" stroke="#000000" stroke-width="2" cx="209.496" cy="-234" rx="57.6901" ry="18"/>
<text text-anchor="middle" x="209.496" y="-230.3" font-family="Times,serif" font-size="14.00" fill="#000000">Conventional</text>
</a>
</g>
</g>
<!-- Property&#45;&gt;Conventional -->
<g id="edge1" class="edge">
<title>Property&#45;&gt;Conventional</title>
<path fill="none" stroke="#000000" d="M131.1945,-177.6229C144.9592,-187.5336 162.9909,-200.5164 178.2804,-211.5248"/>
<polygon fill="none" stroke="#000000" points="176.2876,-214.4028 186.448,-217.4055 180.3777,-208.722 176.2876,-214.4028"/>
</g>
<!-- Unknown -->
<g id="node2" class="node">
<title>Unknown</title>
<g id="a_node2"><a xlink:href="http://emmo.info/emmo/middle/math#EMMO_fe7e56ce_118b_4243_9aad_20eb9f4f31f6" xlink:title="Unknown">
<ellipse fill="#ffffcc" stroke="#000000" cx="45.496" cy="-90" rx="45.4919" ry="18"/>
<text text-anchor="middle" x="45.496" y="-86.3" font-family="Times,serif" font-size="14.00" fill="#000000">Unknown</text>
</a>
</g>
</g>
<!-- Variable -->
<g id="node5" class="node">
<title>Variable</title>
<g id="a_node5"><a xlink:href="http://emmo.info/emmo/middle/math#EMMO_1eed0732_e3f1_4b2c_a9c4_b4e75eeb5895" xlink:title="Variable">
<ellipse fill="#ffffcc" stroke="#000000" cx="209.496" cy="-162" rx="40.8928" ry="18"/>
<text text-anchor="middle" x="209.496" y="-158.3" font-family="Times,serif" font-size="14.00" fill="#000000">Variable</text>
</a>
</g>
</g>
<!-- Unknown&#45;&gt;Variable -->
<g id="edge10" class="edge">
<title>Unknown&#45;&gt;Variable</title>
<path fill="none" stroke="#000000" d="M75.9588,-103.3739C102.7569,-115.1389 141.9048,-132.3258 170.8907,-145.0514"/>
<polygon fill="none" stroke="#000000" points="169.7352,-148.3665 180.2986,-149.1817 172.5492,-141.9569 169.7352,-148.3665"/>
</g>
<!-- Parameter -->
<g id="node3" class="node">
<title>Parameter</title>
<g id="a_node3"><a xlink:href="http://emmo.info/emmo/middle/math#EMMO_d1d436e7_72fc_49cd_863b_7bfb4ba5276a" xlink:title="Parameter">
<ellipse fill="#ffffcc" stroke="#000000" cx="155.496" cy="-90" rx="46.5926" ry="18"/>
<text text-anchor="middle" x="155.496" y="-86.3" font-family="Times,serif" font-size="14.00" fill="#000000">Parameter</text>
</a>
</g>
</g>
<!-- Parameter&#45;&gt;Variable -->
<g id="edge8" class="edge">
<title>Parameter&#45;&gt;Variable</title>
<path fill="none" stroke="#000000" d="M168.5679,-107.4292C175.1345,-116.1847 183.2146,-126.9582 190.456,-136.6133"/>
<polygon fill="none" stroke="#000000" points="187.7444,-138.8313 196.5444,-144.7313 193.3444,-134.6313 187.7444,-138.8313"/>
</g>
<!-- PhysicalLaw -->
<g id="node4" class="node">
<title>PhysicalLaw</title>
<g id="a_node4"><a xlink:href="http://emmo.info/emmo/middle/models#EMMO_9c32fd69_f480_4130_83b3_fb25d9face14" xlink:title="PhysicalLaw">
<ellipse fill="#ffffcc" stroke="#000000" cx="383.496" cy="-18" rx="55.7903" ry="18"/>
<text text-anchor="middle" x="383.496" y="-14.3" font-family="Times,serif" font-size="14.00" fill="#000000">PhysicalLaw</text>
</a>
</g>
</g>
<!-- NaturalLaw -->
<g id="node6" class="node">
<title>NaturalLaw</title>
<g id="a_node6"><a xlink:href="http://emmo.info/emmo/middle/models#EMMO_db9a009e_f097_43f5_9520_6cbc07e7610b" xlink:title="NaturalLaw">
<ellipse fill="#ffffcc" stroke="#000000" cx="383.496" cy="-90" rx="52.7911" ry="18"/>
<text text-anchor="middle" x="383.496" y="-86.3" font-family="Times,serif" font-size="14.00" fill="#000000">NaturalLaw</text>
</a>
</g>
</g>
<!-- PhysicalLaw&#45;&gt;NaturalLaw -->
<g id="edge3" class="edge">
<title>PhysicalLaw&#45;&gt;NaturalLaw</title>
<path fill="none" stroke="#000000" d="M383.496,-36.1686C383.496,-43.869 383.496,-53.0257 383.496,-61.5834"/>
<polygon fill="none" stroke="#000000" points="379.9961,-61.5867 383.496,-71.5867 386.9961,-61.5868 379.9961,-61.5867"/>
</g>
<!-- Variable&#45;&gt;Conventional -->
<g id="edge9" class="edge">
<title>Variable&#45;&gt;Conventional</title>
<path fill="none" stroke="#000000" d="M209.496,-180.1686C209.496,-187.869 209.496,-197.0257 209.496,-205.5834"/>
<polygon fill="none" stroke="#000000" points="205.9961,-205.5867 209.496,-215.5867 212.9961,-205.5868 205.9961,-205.5867"/>
</g>
<!-- Theory -->
<g id="node8" class="node">
<title>Theory</title>
<g id="a_node8"><a xlink:href="http://emmo.info/emmo/middle/models#EMMO_8d2d9374_ef3a_47e6_8595_6bc208e07519" xlink:title="Theory">
<ellipse fill="#ffffcc" stroke="#000000" cx="313.496" cy="-162" rx="36.2938" ry="18"/>
<text text-anchor="middle" x="313.496" y="-158.3" font-family="Times,serif" font-size="14.00" fill="#000000">Theory</text>
</a>
</g>
</g>
<!-- NaturalLaw&#45;&gt;Theory -->
<g id="edge7" class="edge">
<title>NaturalLaw&#45;&gt;Theory</title>
<path fill="none" stroke="#000000" d="M366.5509,-107.4292C357.5228,-116.7153 346.2875,-128.2715 336.4834,-138.3558"/>
<polygon fill="none" stroke="#000000" points="333.7867,-136.1086 329.3254,-145.7183 338.8057,-140.9881 333.7867,-136.1086"/>
</g>
<!-- Theory&#45;&gt;Conventional -->
<g id="edge4" class="edge">
<title>Theory&#45;&gt;Conventional</title>
<path fill="none" stroke="#000000" d="M292.1991,-176.744C277.6246,-186.834 258.0368,-200.3948 241.5825,-211.7862"/>
<polygon fill="none" stroke="#000000" points="239.5364,-208.9458 233.3068,-217.5156 243.5209,-214.7011 239.5364,-208.9458"/>
</g>
<!-- MetricPrefix -->
<g id="node9" class="node">
<title>MetricPrefix</title>
<g id="a_node9"><a xlink:href="http://emmo.info/emmo/middle/metrology#EMMO_7d2afa66_ae9e_4095_a9bf_421d0be401b6" xlink:title="MetricPrefix">
<ellipse fill="#ffffcc" stroke="#000000" stroke-width="2" cx="253.496" cy="-18" rx="55.7903" ry="18"/>
<text text-anchor="middle" x="253.496" y="-14.3" font-family="Times,serif" font-size="14.00" fill="#000000">MetricPrefix</text>
</a>
</g>
</g>
<!-- Constant -->
<g id="node10" class="node">
<title>Constant</title>
<g id="a_node10"><a xlink:href="http://emmo.info/emmo/middle/math#EMMO_ae15fb4f_8e4d_41de_a0f9_3997f89ba6a2" xlink:title="Constant">
<ellipse fill="#ffffcc" stroke="#000000" cx="262.496" cy="-90" rx="42.4939" ry="18"/>
<text text-anchor="middle" x="262.496" y="-86.3" font-family="Times,serif" font-size="14.00" fill="#000000">Constant</text>
</a>
</g>
</g>
<!-- MetricPrefix&#45;&gt;Constant -->
<g id="edge2" class="edge">
<title>MetricPrefix&#45;&gt;Constant</title>
<path fill="none" stroke="#000000" d="M255.767,-36.1686C256.7296,-43.869 257.8742,-53.0257 258.9439,-61.5834"/>
<polygon fill="none" stroke="#000000" points="255.4809,-62.0981 260.1943,-71.5867 262.4268,-61.2298 255.4809,-62.0981"/>
</g>
<!-- Constant&#45;&gt;Variable -->
<g id="edge6" class="edge">
<title>Constant&#45;&gt;Variable</title>
<path fill="none" stroke="#000000" d="M249.6661,-107.4292C243.2211,-116.1847 235.2906,-126.9582 228.1834,-136.6133"/>
<polygon fill="none" stroke="#000000" points="225.3172,-134.6031 222.2076,-144.7313 230.9545,-138.7528 225.3172,-134.6031"/>
</g>
<!-- MaterialLaw -->
<g id="node11" class="node">
<title>MaterialLaw</title>
<g id="a_node11"><a xlink:href="http://emmo.info/emmo/middle/models#EMMO_f19ff3b4_6bfe_4c41_a2b2_9affd39c140b" xlink:title="MaterialLaw">
<ellipse fill="#ffffcc" stroke="#000000" cx="513.496" cy="-18" rx="56.59" ry="18"/>
<text text-anchor="middle" x="513.496" y="-14.3" font-family="Times,serif" font-size="14.00" fill="#000000">MaterialLaw</text>
</a>
</g>
</g>
<!-- MaterialLaw&#45;&gt;NaturalLaw -->
<g id="edge5" class="edge">
<title>MaterialLaw&#45;&gt;NaturalLaw</title>
<path fill="none" stroke="#000000" d="M485.2879,-33.6229C466.1633,-44.215 440.7027,-58.3163 420.0296,-69.766"/>
<polygon fill="none" stroke="#000000" points="418.2545,-66.7481 411.2024,-74.6549 421.6461,-72.8716 418.2545,-66.7481"/>
</g>
<!-- key1 -->
<g id="node12" class="node">
<title>key1</title>
<text text-anchor="start" x="606.496" y="-13.8" font-family="Times,serif" font-size="14.00" fill="#000000">isA</text>
</g>
<!-- key2 -->
<g id="node13" class="node">
<title>key2</title>
<text text-anchor="start" x="685.496" y="-13.8" font-family="Times,serif" font-size="14.00" fill="#000000"> </text>
</g>
<!-- key1&#45;&gt;key2 -->
<g id="edge11" class="edge">
<title>key1:e&#45;&gt;key2:w</title>
<path fill="none" stroke="#000000" d="M627.496,-19C648.496,-19 656.2069,-19 673.0541,-19"/>
<polygon fill="none" stroke="#000000" points="673.496,-22.5001 683.496,-19 673.4959,-15.5001 673.496,-22.5001"/>
</g>
</g>
</svg>
