<?xml version="1.0" encoding="UTF-8" standalone="no"?>
<!DOCTYPE svg PUBLIC "-//W3C//DTD SVG 1.1//EN"
 "http://www.w3.org/Graphics/SVG/1.1/DTD/svg11.dtd">
<!-- Generated by graphviz version 2.40.1 (20161225.0304)
 -->
<!-- Title: %3 Pages: 1 -->
<svg width="571pt" height="260pt"
 viewBox="0.00 0.00 570.90 260.00" xmlns="http://www.w3.org/2000/svg" xmlns:xlink="http://www.w3.org/1999/xlink">
<g id="graph0" class="graph" transform="scale(1 1) rotate(0) translate(4 256)">
<title>%3</title>
<polygon fill="#ffffff" stroke="transparent" points="-4,4 -4,-256 566.895,-256 566.895,4 -4,4"/>
<!-- PhysicalLaw -->
<g id="node1" class="node">
<title>PhysicalLaw</title>
<g id="a_node1"><a xlink:href="http://emmo.info/emmo/middle/models#EMMO_9c32fd69_f480_4130_83b3_fb25d9face14" xlink:title="PhysicalLaw">
<ellipse fill="#ffffcc" stroke="#000000" cx="55.895" cy="-18" rx="55.7903" ry="18"/>
<text text-anchor="middle" x="55.895" y="-14.3" font-family="Times,serif" font-size="14.00" fill="#000000">PhysicalLaw</text>
</a>
</g>
</g>
<!-- NaturalLaw -->
<g id="node4" class="node">
<title>NaturalLaw</title>
<g id="a_node4"><a xlink:href="http://emmo.info/emmo/middle/models#EMMO_db9a009e_f097_43f5_9520_6cbc07e7610b" xlink:title="NaturalLaw">
<ellipse fill="#ffffcc" stroke="#000000" cx="138.895" cy="-90" rx="52.7911" ry="18"/>
<text text-anchor="middle" x="138.895" y="-86.3" font-family="Times,serif" font-size="14.00" fill="#000000">NaturalLaw</text>
</a>
</g>
</g>
<!-- PhysicalLaw&#45;&gt;NaturalLaw -->
<g id="edge7" class="edge">
<title>PhysicalLaw&#45;&gt;NaturalLaw</title>
<path fill="none" stroke="#000000" d="M75.5649,-35.063C86.315,-44.3884 99.7971,-56.0837 111.5558,-66.284"/>
<polygon fill="none" stroke="#000000" points="109.519,-69.1505 119.3664,-73.0595 114.106,-63.8628 109.519,-69.1505"/>
</g>
<!-- Parameter -->
<g id="node2" class="node">
<title>Parameter</title>
<g id="a_node2"><a xlink:href="http://emmo.info/emmo/middle/math#EMMO_d1d436e7_72fc_49cd_863b_7bfb4ba5276a" xlink:title="Parameter">
<ellipse fill="#ffffcc" stroke="#000000" cx="255.895" cy="-90" rx="46.5926" ry="18"/>
<text text-anchor="middle" x="255.895" y="-86.3" font-family="Times,serif" font-size="14.00" fill="#000000">Parameter</text>
</a>
</g>
</g>
<!-- Variable -->
<g id="node8" class="node">
<title>Variable</title>
<g id="a_node8"><a xlink:href="http://emmo.info/emmo/middle/math#EMMO_1eed0732_e3f1_4b2c_a9c4_b4e75eeb5895" xlink:title="Variable">
<ellipse fill="#ffffcc" stroke="#000000" cx="358.895" cy="-162" rx="40.8928" ry="18"/>
<text text-anchor="middle" x="358.895" y="-158.3" font-family="Times,serif" font-size="14.00" fill="#000000">Variable</text>
</a>
</g>
</g>
<!-- Parameter&#45;&gt;Variable -->
<g id="edge8" class="edge">
<title>Parameter&#45;&gt;Variable</title>
<path fill="none" stroke="#000000" d="M278.4988,-105.8007C293.1887,-116.0693 312.5161,-129.5798 328.5391,-140.7803"/>
<polygon fill="none" stroke="#000000" points="326.8491,-143.8693 337.0504,-146.73 330.8596,-138.132 326.8491,-143.8693"/>
</g>
<!-- Property -->
<g id="node3" class="node">
<title>Property</title>
<g id="a_node3"><a xlink:href="http://emmo.info/emmo/middle/properties#EMMO_b7bcff25_ffc3_474e_9ab5_01b1664bd4ba" xlink:title="Property">
<ellipse fill="#ffffcc" stroke="#000000" stroke-width="2" cx="254.895" cy="-162" rx="40.8928" ry="18"/>
<text text-anchor="middle" x="254.895" y="-158.3" font-family="Times,serif" font-size="14.00" fill="#000000">Property</text>
</a>
</g>
</g>
<!-- Conventional -->
<g id="node9" class="node">
<title>Conventional</title>
<g id="a_node9"><a xlink:href="http://emmo.info/emmo/top/semiotics#EMMO_35d2e130_6e01_41ed_94f7_00b333d46cf9" xlink:title="Conventional">
<ellipse fill="#ffffcc" stroke="#000000" stroke-width="2" cx="254.895" cy="-234" rx="57.6901" ry="18"/>
<text text-anchor="middle" x="254.895" y="-230.3" font-family="Times,serif" font-size="14.00" fill="#000000">Conventional</text>
</a>
</g>
</g>
<!-- Property&#45;&gt;Conventional -->
<g id="edge6" class="edge">
<title>Property&#45;&gt;Conventional</title>
<path fill="none" stroke="#000000" d="M254.895,-180.1686C254.895,-187.869 254.895,-197.0257 254.895,-205.5834"/>
<polygon fill="none" stroke="#000000" points="251.3951,-205.5867 254.895,-215.5867 258.3951,-205.5868 251.3951,-205.5867"/>
</g>
<!-- Theory -->
<g id="node6" class="node">
<title>Theory</title>
<g id="a_node6"><a xlink:href="http://emmo.info/emmo/middle/models#EMMO_8d2d9374_ef3a_47e6_8595_6bc208e07519" xlink:title="Theory">
<ellipse fill="#ffffcc" stroke="#000000" cx="152.895" cy="-162" rx="36.2938" ry="18"/>
<text text-anchor="middle" x="152.895" y="-158.3" font-family="Times,serif" font-size="14.00" fill="#000000">Theory</text>
</a>
</g>
</g>
<!-- NaturalLaw&#45;&gt;Theory -->
<g id="edge10" class="edge">
<title>NaturalLaw&#45;&gt;Theory</title>
<path fill="none" stroke="#000000" d="M142.4278,-108.1686C143.9251,-115.869 145.7056,-125.0257 147.3696,-133.5834"/>
<polygon fill="none" stroke="#000000" points="143.9703,-134.4386 149.3147,-143.5867 150.8416,-133.1025 143.9703,-134.4386"/>
</g>
<!-- MetricPrefix -->
<g id="node5" class="node">
<title>MetricPrefix</title>
<g id="a_node5"><a xlink:href="http://emmo.info/emmo/middle/metrology#EMMO_7d2afa66_ae9e_4095_a9bf_421d0be401b6" xlink:title="MetricPrefix">
<ellipse fill="#ffffcc" stroke="#000000" stroke-width="2" cx="362.895" cy="-18" rx="55.7903" ry="18"/>
<text text-anchor="middle" x="362.895" y="-14.3" font-family="Times,serif" font-size="14.00" fill="#000000">MetricPrefix</text>
</a>
</g>
</g>
<!-- Constant -->
<g id="node7" class="node">
<title>Constant</title>
<g id="a_node7"><a xlink:href="http://emmo.info/emmo/middle/math#EMMO_ae15fb4f_8e4d_41de_a0f9_3997f89ba6a2" xlink:title="Constant">
<ellipse fill="#ffffcc" stroke="#000000" cx="362.895" cy="-90" rx="42.4939" ry="18"/>
<text text-anchor="middle" x="362.895" y="-86.3" font-family="Times,serif" font-size="14.00" fill="#000000">Constant</text>
</a>
</g>
</g>
<!-- MetricPrefix&#45;&gt;Constant -->
<g id="edge2" class="edge">
<title>MetricPrefix&#45;&gt;Constant</title>
<path fill="none" stroke="#000000" d="M362.895,-36.1686C362.895,-43.869 362.895,-53.0257 362.895,-61.5834"/>
<polygon fill="none" stroke="#000000" points="359.3951,-61.5867 362.895,-71.5867 366.3951,-61.5868 359.3951,-61.5867"/>
</g>
<!-- Theory&#45;&gt;Conventional -->
<g id="edge3" class="edge">
<title>Theory&#45;&gt;Conventional</title>
<path fill="none" stroke="#000000" d="M174.0295,-176.9184C188.1107,-186.8581 206.8817,-200.1082 222.7939,-211.3404"/>
<polygon fill="none" stroke="#000000" points="221.1039,-214.4315 231.292,-217.339 225.1407,-208.7127 221.1039,-214.4315"/>
</g>
<!-- Constant&#45;&gt;Variable -->
<g id="edge9" class="edge">
<title>Constant&#45;&gt;Variable</title>
<path fill="none" stroke="#000000" d="M361.8857,-108.1686C361.4579,-115.869 360.9492,-125.0257 360.4737,-133.5834"/>
<polygon fill="none" stroke="#000000" points="356.9782,-133.408 359.918,-143.5867 363.9674,-133.7963 356.9782,-133.408"/>
</g>
<!-- Variable&#45;&gt;Conventional -->
<g id="edge4" class="edge">
<title>Variable&#45;&gt;Conventional</title>
<path fill="none" stroke="#000000" d="M336.8393,-177.2693C322.4509,-187.2305 303.4226,-200.404 287.3243,-211.549"/>
<polygon fill="none" stroke="#000000" points="284.96,-208.9289 278.7303,-217.4987 288.9445,-214.6842 284.96,-208.9289"/>
</g>
<!-- MaterialLaw -->
<g id="node10" class="node">
<title>MaterialLaw</title>
<g id="a_node10"><a xlink:href="http://emmo.info/emmo/middle/models#EMMO_f19ff3b4_6bfe_4c41_a2b2_9affd39c140b" xlink:title="MaterialLaw">
<ellipse fill="#ffffcc" stroke="#000000" cx="185.895" cy="-18" rx="56.59" ry="18"/>
<text text-anchor="middle" x="185.895" y="-14.3" font-family="Times,serif" font-size="14.00" fill="#000000">MaterialLaw</text>
</a>
</g>
</g>
<!-- MaterialLaw&#45;&gt;NaturalLaw -->
<g id="edge1" class="edge">
<title>MaterialLaw&#45;&gt;NaturalLaw</title>
<path fill="none" stroke="#000000" d="M174.2771,-35.7978C168.7562,-44.2552 162.0481,-54.5315 155.9632,-63.853"/>
<polygon fill="none" stroke="#000000" points="152.9148,-62.12 150.3794,-72.407 158.7765,-65.9464 152.9148,-62.12"/>
</g>
<!-- Unknown -->
<g id="node11" class="node">
<title>Unknown</title>
<g id="a_node11"><a xlink:href="http://emmo.info/emmo/middle/math#EMMO_fe7e56ce_118b_4243_9aad_20eb9f4f31f6" xlink:title="Unknown">
<ellipse fill="#ffffcc" stroke="#000000" cx="468.895" cy="-90" rx="45.4919" ry="18"/>
<text text-anchor="middle" x="468.895" y="-86.3" font-family="Times,serif" font-size="14.00" fill="#000000">Unknown</text>
</a>
</g>
</g>
<!-- Unknown&#45;&gt;Variable -->
<g id="edge5" class="edge">
<title>Unknown&#45;&gt;Variable</title>
<path fill="none" stroke="#000000" d="M445.2973,-105.4458C429.385,-115.8611 408.1991,-129.7283 390.7887,-141.1242"/>
<polygon fill="none" stroke="#000000" points="388.5264,-138.4218 382.0762,-146.8269 392.3601,-144.2787 388.5264,-138.4218"/>
</g>
<!-- key1 -->
<g id="node12" class="node">
<title>key1</title>
<text text-anchor="start" x="454.895" y="-13.8" font-family="Times,serif" font-size="14.00" fill="#000000">isA</text>
</g>
<!-- key2 -->
<g id="node13" class="node">
<title>key2</title>
<text text-anchor="start" x="533.895" y="-13.8" font-family="Times,serif" font-size="14.00" fill="#000000"> </text>
</g>
<!-- key1&#45;&gt;key2 -->
<g id="edge11" class="edge">
<title>key1:e&#45;&gt;key2:w</title>
<path fill="none" stroke="#000000" d="M475.895,-19C496.895,-19 504.606,-19 521.4531,-19"/>
<polygon fill="none" stroke="#000000" points="521.8951,-22.5001 531.895,-19 521.895,-15.5001 521.8951,-22.5001"/>
</g>
</g>
</svg>
