<?xml version="1.0" encoding="UTF-8" standalone="no"?>
<!DOCTYPE svg PUBLIC "-//W3C//DTD SVG 1.1//EN"
 "http://www.w3.org/Graphics/SVG/1.1/DTD/svg11.dtd">
<!-- Generated by graphviz version 2.40.1 (20161225.0304)
 -->
<!-- Title: %3 Pages: 1 -->
<svg width="591pt" height="188pt"
 viewBox="0.00 0.00 590.75 188.00" xmlns="http://www.w3.org/2000/svg" xmlns:xlink="http://www.w3.org/1999/xlink">
<g id="graph0" class="graph" transform="scale(1 1) rotate(0) translate(4 184)">
<title>%3</title>
<polygon fill="#ffffff" stroke="transparent" points="-4,4 -4,-184 586.7468,-184 586.7468,4 -4,4"/>
<!-- Photon -->
<g id="node1" class="node">
<title>Photon</title>
<g id="a_node1"><a xlink:href="http://emmo.info/emmo/middle/physicalistic#EMMO_25f8b804_9a0b_4387_a3e7_b35bce5365ee" xlink:title="Photon">
<ellipse fill="#ffffcc" stroke="#000000" cx="35.7468" cy="-18" rx="35.9954" ry="18"/>
<text text-anchor="middle" x="35.7468" y="-14.3" font-family="Times,serif" font-size="14.00" fill="#000000">Photon</text>
</a>
</g>
</g>
<!-- Massless -->
<g id="node2" class="node">
<title>Massless</title>
<g id="a_node2"><a xlink:href="http://emmo.info/emmo/middle/physicalistic#EMMO_e5488299_8dab_4ebb_900a_26d2abed8396" xlink:title="Massless">
<ellipse fill="#ffc880" stroke="#000000" cx="173.7468" cy="-90" rx="42.7926" ry="18"/>
<text text-anchor="middle" x="173.7468" y="-86.3" font-family="Times,serif" font-size="14.00" fill="#000000">Massless</text>
</a>
</g>
</g>
<!-- Photon&#45;&gt;Massless -->
<g id="edge4" class="edge">
<title>Photon&#45;&gt;Massless</title>
<path fill="none" stroke="#000000" d="M60.7376,-31.0387C82.2259,-42.2499 113.4876,-58.5604 137.6866,-71.186"/>
<polygon fill="none" stroke="#000000" points="136.0954,-74.3035 146.5803,-75.8261 139.3334,-68.0974 136.0954,-74.3035"/>
</g>
<!-- ElementaryParticle -->
<g id="node4" class="node">
<title>ElementaryParticle</title>
<g id="a_node4"><a xlink:href="http://emmo.info/emmo/middle/physicalistic#EMMO_c26a0340_d619_4928_b1a1_1a04e88bb89d" xlink:title="ElementaryParticle">
<ellipse fill="#ffffcc" stroke="#000000" stroke-width="2" cx="223.7468" cy="-162" rx="78.7863" ry="18"/>
<text text-anchor="middle" x="223.7468" y="-158.3" font-family="Times,serif" font-size="14.00" fill="#000000">ElementaryParticle</text>
</a>
</g>
</g>
<!-- Massless&#45;&gt;ElementaryParticle -->
<g id="edge3" class="edge">
<title>Massless&#45;&gt;ElementaryParticle</title>
<path fill="none" stroke="#000000" d="M185.8504,-107.4292C191.7364,-115.905 198.9358,-126.2721 205.4725,-135.6849"/>
<polygon fill="none" stroke="#000000" points="202.6537,-137.7621 211.2325,-143.9794 208.4033,-133.7693 202.6537,-137.7621"/>
</g>
<!-- Graviton -->
<g id="node3" class="node">
<title>Graviton</title>
<g id="a_node3"><a xlink:href="http://emmo.info/emmo/middle/physicalistic#EMMO_eb3c61f0_3983_4346_a0c6_e7f6b90a67a8" xlink:title="Graviton">
<ellipse fill="#ffffcc" stroke="#000000" cx="131.7468" cy="-18" rx="42.4939" ry="18"/>
<text text-anchor="middle" x="131.7468" y="-14.3" font-family="Times,serif" font-size="14.00" fill="#000000">Graviton</text>
</a>
</g>
</g>
<!-- Graviton&#45;&gt;Massless -->
<g id="edge2" class="edge">
<title>Graviton&#45;&gt;Massless</title>
<path fill="none" stroke="#000000" d="M142.1289,-35.7978C147.0115,-44.168 152.9334,-54.3198 158.3261,-63.5644"/>
<polygon fill="none" stroke="#000000" points="155.4222,-65.5327 163.4842,-72.407 161.4687,-62.0056 155.4222,-65.5327"/>
</g>
<!-- Electron -->
<g id="node5" class="node">
<title>Electron</title>
<g id="a_node5"><a xlink:href="http://emmo.info/emmo/middle/physicalistic#EMMO_8043d3c6_a4c1_4089_ba34_9744e28e5b3d" xlink:title="Electron">
<ellipse fill="#ffffcc" stroke="#000000" cx="315.7468" cy="-18" rx="40.0939" ry="18"/>
<text text-anchor="middle" x="315.7468" y="-14.3" font-family="Times,serif" font-size="14.00" fill="#000000">Electron</text>
</a>
</g>
</g>
<!-- Massive -->
<g id="node8" class="node">
<title>Massive</title>
<g id="a_node8"><a xlink:href="http://emmo.info/emmo/middle/physicalistic#EMMO_385b8f6e_43ac_4596_ad76_ac322c68b7ca" xlink:title="Massive">
<ellipse fill="#ffc880" stroke="#000000" cx="315.7468" cy="-90" rx="40.0939" ry="18"/>
<text text-anchor="middle" x="315.7468" y="-86.3" font-family="Times,serif" font-size="14.00" fill="#000000">Massive</text>
</a>
</g>
</g>
<!-- Electron&#45;&gt;Massive -->
<g id="edge6" class="edge">
<title>Electron&#45;&gt;Massive</title>
<path fill="none" stroke="#000000" d="M315.7468,-36.1686C315.7468,-43.869 315.7468,-53.0257 315.7468,-61.5834"/>
<polygon fill="none" stroke="#000000" points="312.2469,-61.5867 315.7468,-71.5867 319.2469,-61.5868 312.2469,-61.5867"/>
</g>
<!-- Gluon -->
<g id="node6" class="node">
<title>Gluon</title>
<g id="a_node6"><a xlink:href="http://emmo.info/emmo/middle/physicalistic#EMMO_7db59e56_f68b_48b7_ae99_891c35ae5c3b" xlink:title="Gluon">
<ellipse fill="#ffffcc" stroke="#000000" cx="224.7468" cy="-18" rx="32.4942" ry="18"/>
<text text-anchor="middle" x="224.7468" y="-14.3" font-family="Times,serif" font-size="14.00" fill="#000000">Gluon</text>
</a>
</g>
</g>
<!-- Gluon&#45;&gt;Massless -->
<g id="edge1" class="edge">
<title>Gluon&#45;&gt;Massless</title>
<path fill="none" stroke="#000000" d="M212.6605,-35.063C206.4638,-43.8114 198.7896,-54.6455 191.8983,-64.3744"/>
<polygon fill="none" stroke="#000000" points="189.0248,-62.376 186.1006,-72.5593 194.7369,-66.4221 189.0248,-62.376"/>
</g>
<!-- Quark -->
<g id="node7" class="node">
<title>Quark</title>
<g id="a_node7"><a xlink:href="http://emmo.info/emmo/middle/physicalistic#EMMO_72d53756_7fb1_46ed_980f_83f47efbe105" xlink:title="Quark">
<ellipse fill="#ffffcc" stroke="#000000" cx="406.7468" cy="-18" rx="32.4942" ry="18"/>
<text text-anchor="middle" x="406.7468" y="-14.3" font-family="Times,serif" font-size="14.00" fill="#000000">Quark</text>
</a>
</g>
</g>
<!-- Quark&#45;&gt;Massive -->
<g id="edge7" class="edge">
<title>Quark&#45;&gt;Massive</title>
<path fill="none" stroke="#000000" d="M387.8916,-32.9184C375.1842,-42.9727 358.1957,-56.4141 343.8962,-67.7279"/>
<polygon fill="none" stroke="#000000" points="341.5109,-65.1522 335.8404,-74.1018 345.8543,-70.6417 341.5109,-65.1522"/>
</g>
<!-- Massive&#45;&gt;ElementaryParticle -->
<g id="edge5" class="edge">
<title>Massive&#45;&gt;ElementaryParticle</title>
<path fill="none" stroke="#000000" d="M295.329,-105.9791C283.2295,-115.4483 267.6676,-127.6272 254.1459,-138.2095"/>
<polygon fill="none" stroke="#000000" points="251.7574,-135.6342 246.0395,-144.5536 256.0716,-141.1467 251.7574,-135.6342"/>
</g>
<!-- key1 -->
<g id="node9" class="node">
<title>key1</title>
<text text-anchor="start" x="474.7468" y="-13.8" font-family="Times,serif" font-size="14.00" fill="#000000">isA</text>
</g>
<!-- key2 -->
<g id="node10" class="node">
<title>key2</title>
<text text-anchor="start" x="553.7468" y="-13.8" font-family="Times,serif" font-size="14.00" fill="#000000"> </text>
</g>
<!-- key1&#45;&gt;key2 -->
<g id="edge8" class="edge">
<title>key1:e&#45;&gt;key2:w</title>
<path fill="none" stroke="#000000" d="M495.7468,-19C516.7468,-19 524.4578,-19 541.3049,-19"/>
<polygon fill="none" stroke="#000000" points="541.7469,-22.5001 551.7468,-19 541.7468,-15.5001 541.7469,-22.5001"/>
</g>
</g>
</svg>
