<?xml version="1.0" encoding="UTF-8" standalone="no"?>
<!DOCTYPE svg PUBLIC "-//W3C//DTD SVG 1.1//EN"
 "http://www.w3.org/Graphics/SVG/1.1/DTD/svg11.dtd">
<!-- Generated by graphviz version 2.40.1 (20161225.0304)
 -->
<!-- Title: %3 Pages: 1 -->
<svg width="591pt" height="188pt"
 viewBox="0.00 0.00 591.30 188.00" xmlns="http://www.w3.org/2000/svg" xmlns:xlink="http://www.w3.org/1999/xlink">
<g id="graph0" class="graph" transform="scale(1 1) rotate(0) translate(4 184)">
<title>%3</title>
<polygon fill="#ffffff" stroke="transparent" points="-4,4 -4,-184 587.2964,-184 587.2964,4 -4,4"/>
<!-- Massless -->
<g id="node1" class="node">
<title>Massless</title>
<g id="a_node1"><a xlink:href="http://emmo.info/emmo/middle/physicalistic#EMMO_e5488299_8dab_4ebb_900a_26d2abed8396" xlink:title="Massless">
<ellipse fill="#ffc880" stroke="#000000" cx="274.2964" cy="-90" rx="42.7926" ry="18"/>
<text text-anchor="middle" x="274.2964" y="-86.3" font-family="Times,serif" font-size="14.00" fill="#000000">Massless</text>
</a>
</g>
</g>
<!-- ElementaryParticle -->
<g id="node3" class="node">
<title>ElementaryParticle</title>
<g id="a_node3"><a xlink:href="http://emmo.info/emmo/middle/physicalistic#EMMO_c26a0340_d619_4928_b1a1_1a04e88bb89d" xlink:title="ElementaryParticle">
<ellipse fill="#ffffcc" stroke="#000000" stroke-width="2" cx="181.2964" cy="-162" rx="78.7863" ry="18"/>
<text text-anchor="middle" x="181.2964" y="-158.3" font-family="Times,serif" font-size="14.00" fill="#000000">ElementaryParticle</text>
</a>
</g>
</g>
<!-- Massless&#45;&gt;ElementaryParticle -->
<g id="edge3" class="edge">
<title>Massless&#45;&gt;ElementaryParticle</title>
<path fill="none" stroke="#000000" d="M253.6567,-105.9791C241.4257,-115.4483 225.6946,-127.6272 212.0259,-138.2095"/>
<polygon fill="none" stroke="#000000" points="209.596,-135.6643 203.8314,-144.5536 213.8813,-141.1994 209.596,-135.6643"/>
</g>
<!-- Graviton -->
<g id="node2" class="node">
<title>Graviton</title>
<g id="a_node2"><a xlink:href="http://emmo.info/emmo/middle/physicalistic#EMMO_eb3c61f0_3983_4346_a0c6_e7f6b90a67a8" xlink:title="Graviton">
<ellipse fill="#ffffcc" stroke="#000000" cx="224.2964" cy="-18" rx="42.4939" ry="18"/>
<text text-anchor="middle" x="224.2964" y="-14.3" font-family="Times,serif" font-size="14.00" fill="#000000">Graviton</text>
</a>
</g>
</g>
<!-- Graviton&#45;&gt;Massless -->
<g id="edge6" class="edge">
<title>Graviton&#45;&gt;Massless</title>
<path fill="none" stroke="#000000" d="M236.4,-35.4292C242.3745,-44.0325 249.7022,-54.5844 256.3165,-64.1089"/>
<polygon fill="none" stroke="#000000" points="253.5522,-66.2644 262.131,-72.4818 259.3018,-62.2716 253.5522,-66.2644"/>
</g>
<!-- Electron -->
<g id="node4" class="node">
<title>Electron</title>
<g id="a_node4"><a xlink:href="http://emmo.info/emmo/middle/physicalistic#EMMO_8043d3c6_a4c1_4089_ba34_9744e28e5b3d" xlink:title="Electron">
<ellipse fill="#ffffcc" stroke="#000000" cx="40.2964" cy="-18" rx="40.0939" ry="18"/>
<text text-anchor="middle" x="40.2964" y="-14.3" font-family="Times,serif" font-size="14.00" fill="#000000">Electron</text>
</a>
</g>
</g>
<!-- Massive -->
<g id="node7" class="node">
<title>Massive</title>
<g id="a_node7"><a xlink:href="http://emmo.info/emmo/middle/physicalistic#EMMO_385b8f6e_43ac_4596_ad76_ac322c68b7ca" xlink:title="Massive">
<ellipse fill="#ffc880" stroke="#000000" cx="131.2964" cy="-90" rx="40.0939" ry="18"/>
<text text-anchor="middle" x="131.2964" y="-86.3" font-family="Times,serif" font-size="14.00" fill="#000000">Massive</text>
</a>
</g>
</g>
<!-- Electron&#45;&gt;Massive -->
<g id="edge4" class="edge">
<title>Electron&#45;&gt;Massive</title>
<path fill="none" stroke="#000000" d="M60.4923,-33.9791C73.0673,-43.9286 89.4234,-56.8697 103.2468,-67.8069"/>
<polygon fill="none" stroke="#000000" points="101.4562,-70.8532 111.4701,-74.3133 105.7996,-65.3636 101.4562,-70.8532"/>
</g>
<!-- Gluon -->
<g id="node5" class="node">
<title>Gluon</title>
<g id="a_node5"><a xlink:href="http://emmo.info/emmo/middle/physicalistic#EMMO_7db59e56_f68b_48b7_ae99_891c35ae5c3b" xlink:title="Gluon">
<ellipse fill="#ffffcc" stroke="#000000" cx="317.2964" cy="-18" rx="32.4942" ry="18"/>
<text text-anchor="middle" x="317.2964" y="-14.3" font-family="Times,serif" font-size="14.00" fill="#000000">Gluon</text>
</a>
</g>
</g>
<!-- Gluon&#45;&gt;Massless -->
<g id="edge7" class="edge">
<title>Gluon&#45;&gt;Massless</title>
<path fill="none" stroke="#000000" d="M306.8873,-35.4292C301.8017,-43.9447 295.5759,-54.3692 289.9335,-63.817"/>
<polygon fill="none" stroke="#000000" points="286.8813,-62.1017 284.7587,-72.4818 292.8911,-65.6909 286.8813,-62.1017"/>
</g>
<!-- Quark -->
<g id="node6" class="node">
<title>Quark</title>
<g id="a_node6"><a xlink:href="http://emmo.info/emmo/middle/physicalistic#EMMO_72d53756_7fb1_46ed_980f_83f47efbe105" xlink:title="Quark">
<ellipse fill="#ffffcc" stroke="#000000" cx="131.2964" cy="-18" rx="32.4942" ry="18"/>
<text text-anchor="middle" x="131.2964" y="-14.3" font-family="Times,serif" font-size="14.00" fill="#000000">Quark</text>
</a>
</g>
</g>
<!-- Quark&#45;&gt;Massive -->
<g id="edge1" class="edge">
<title>Quark&#45;&gt;Massive</title>
<path fill="none" stroke="#000000" d="M131.2964,-36.1686C131.2964,-43.869 131.2964,-53.0257 131.2964,-61.5834"/>
<polygon fill="none" stroke="#000000" points="127.7965,-61.5867 131.2964,-71.5867 134.7965,-61.5868 127.7965,-61.5867"/>
</g>
<!-- Massive&#45;&gt;ElementaryParticle -->
<g id="edge5" class="edge">
<title>Massive&#45;&gt;ElementaryParticle</title>
<path fill="none" stroke="#000000" d="M143.4,-107.4292C149.286,-115.905 156.4854,-126.2721 163.0221,-135.6849"/>
<polygon fill="none" stroke="#000000" points="160.2033,-137.7621 168.7821,-143.9794 165.9529,-133.7693 160.2033,-137.7621"/>
</g>
<!-- Photon -->
<g id="node8" class="node">
<title>Photon</title>
<g id="a_node8"><a xlink:href="http://emmo.info/emmo/middle/physicalistic#EMMO_25f8b804_9a0b_4387_a3e7_b35bce5365ee" xlink:title="Photon">
<ellipse fill="#ffffcc" stroke="#000000" cx="403.2964" cy="-18" rx="35.9954" ry="18"/>
<text text-anchor="middle" x="403.2964" y="-14.3" font-family="Times,serif" font-size="14.00" fill="#000000">Photon</text>
</a>
</g>
</g>
<!-- Photon&#45;&gt;Massless -->
<g id="edge2" class="edge">
<title>Photon&#45;&gt;Massless</title>
<path fill="none" stroke="#000000" d="M379.3348,-31.3739C359.6106,-42.3828 331.3808,-58.1389 309.1533,-70.545"/>
<polygon fill="none" stroke="#000000" points="307.3719,-67.531 300.3457,-75.4609 310.7835,-73.6434 307.3719,-67.531"/>
</g>
<!-- key1 -->
<g id="node9" class="node">
<title>key1</title>
<text text-anchor="start" x="475.2964" y="-13.8" font-family="Times,serif" font-size="14.00" fill="#000000">isA</text>
</g>
<!-- key2 -->
<g id="node10" class="node">
<title>key2</title>
<text text-anchor="start" x="554.2964" y="-13.8" font-family="Times,serif" font-size="14.00" fill="#000000"> </text>
</g>
<!-- key1&#45;&gt;key2 -->
<g id="edge8" class="edge">
<title>key1:e&#45;&gt;key2:w</title>
<path fill="none" stroke="#000000" d="M496.2964,-19C517.2964,-19 525.0074,-19 541.8545,-19"/>
<polygon fill="none" stroke="#000000" points="542.2965,-22.5001 552.2964,-19 542.2964,-15.5001 542.2965,-22.5001"/>
</g>
</g>
</svg>
