<?xml version="1.0" encoding="UTF-8" standalone="no"?>
<!DOCTYPE svg PUBLIC "-//W3C//DTD SVG 1.1//EN"
 "http://www.w3.org/Graphics/SVG/1.1/DTD/svg11.dtd">
<!-- Generated by graphviz version 2.40.1 (20161225.0304)
 -->
<!-- Title: %3 Pages: 1 -->
<svg width="590pt" height="188pt"
 viewBox="0.00 0.00 590.25 188.00" xmlns="http://www.w3.org/2000/svg" xmlns:xlink="http://www.w3.org/1999/xlink">
<g id="graph0" class="graph" transform="scale(1 1) rotate(0) translate(4 184)">
<title>%3</title>
<polygon fill="#ffffff" stroke="transparent" points="-4,4 -4,-184 586.2463,-184 586.2463,4 -4,4"/>
<!-- Graviton -->
<g id="node1" class="node">
<title>Graviton</title>
<g id="a_node1"><a xlink:href="http://emmo.info/emmo/middle/physicalistic#EMMO_eb3c61f0_3983_4346_a0c6_e7f6b90a67a8" xlink:title="Graviton">
<ellipse fill="#ffffcc" stroke="#000000" cx="42.2463" cy="-18" rx="42.4939" ry="18"/>
<text text-anchor="middle" x="42.2463" y="-14.3" font-family="Times,serif" font-size="14.00" fill="#000000">Graviton</text>
</a>
</g>
</g>
<!-- Massless -->
<g id="node8" class="node">
<title>Massless</title>
<g id="a_node8"><a xlink:href="http://emmo.info/emmo/middle/physicalistic#EMMO_e5488299_8dab_4ebb_900a_26d2abed8396" xlink:title="Massless">
<ellipse fill="#ffc880" stroke="#000000" cx="175.2463" cy="-90" rx="42.7926" ry="18"/>
<text text-anchor="middle" x="175.2463" y="-86.3" font-family="Times,serif" font-size="14.00" fill="#000000">Massless</text>
</a>
</g>
</g>
<!-- Graviton&#45;&gt;Massless -->
<g id="edge4" class="edge">
<title>Graviton&#45;&gt;Massless</title>
<path fill="none" stroke="#000000" d="M68.5228,-32.2249C88.8829,-43.2469 117.3008,-58.631 139.6934,-70.7534"/>
<polygon fill="none" stroke="#000000" points="138.1087,-73.8754 148.5691,-75.5582 141.4413,-67.7195 138.1087,-73.8754"/>
</g>
<!-- ElementaryParticle -->
<g id="node2" class="node">
<title>ElementaryParticle</title>
<g id="a_node2"><a xlink:href="http://emmo.info/emmo/middle/physicalistic#EMMO_c26a0340_d619_4928_b1a1_1a04e88bb89d" xlink:title="ElementaryParticle">
<ellipse fill="#ffffcc" stroke="#000000" stroke-width="2" cx="225.2463" cy="-162" rx="78.7863" ry="18"/>
<text text-anchor="middle" x="225.2463" y="-158.3" font-family="Times,serif" font-size="14.00" fill="#000000">ElementaryParticle</text>
</a>
</g>
</g>
<!-- Electron -->
<g id="node3" class="node">
<title>Electron</title>
<g id="a_node3"><a xlink:href="http://emmo.info/emmo/middle/physicalistic#EMMO_8043d3c6_a4c1_4089_ba34_9744e28e5b3d" xlink:title="Electron">
<ellipse fill="#ffffcc" stroke="#000000" cx="315.2463" cy="-18" rx="40.0939" ry="18"/>
<text text-anchor="middle" x="315.2463" y="-14.3" font-family="Times,serif" font-size="14.00" fill="#000000">Electron</text>
</a>
</g>
</g>
<!-- Massive -->
<g id="node6" class="node">
<title>Massive</title>
<g id="a_node6"><a xlink:href="http://emmo.info/emmo/middle/physicalistic#EMMO_385b8f6e_43ac_4596_ad76_ac322c68b7ca" xlink:title="Massive">
<ellipse fill="#ffc880" stroke="#000000" cx="315.2463" cy="-90" rx="40.0939" ry="18"/>
<text text-anchor="middle" x="315.2463" y="-86.3" font-family="Times,serif" font-size="14.00" fill="#000000">Massive</text>
</a>
</g>
</g>
<!-- Electron&#45;&gt;Massive -->
<g id="edge1" class="edge">
<title>Electron&#45;&gt;Massive</title>
<path fill="none" stroke="#000000" d="M315.2463,-36.1686C315.2463,-43.869 315.2463,-53.0257 315.2463,-61.5834"/>
<polygon fill="none" stroke="#000000" points="311.7464,-61.5867 315.2463,-71.5867 318.7464,-61.5868 311.7464,-61.5867"/>
</g>
<!-- Gluon -->
<g id="node4" class="node">
<title>Gluon</title>
<g id="a_node4"><a xlink:href="http://emmo.info/emmo/middle/physicalistic#EMMO_7db59e56_f68b_48b7_ae99_891c35ae5c3b" xlink:title="Gluon">
<ellipse fill="#ffffcc" stroke="#000000" cx="135.2463" cy="-18" rx="32.4942" ry="18"/>
<text text-anchor="middle" x="135.2463" y="-14.3" font-family="Times,serif" font-size="14.00" fill="#000000">Gluon</text>
</a>
</g>
</g>
<!-- Gluon&#45;&gt;Massless -->
<g id="edge6" class="edge">
<title>Gluon&#45;&gt;Massless</title>
<path fill="none" stroke="#000000" d="M144.9291,-35.4292C149.5765,-43.7945 155.2474,-54.002 160.4219,-63.3161"/>
<polygon fill="none" stroke="#000000" points="157.4586,-65.1893 165.3747,-72.2311 163.5777,-61.7898 157.4586,-65.1893"/>
</g>
<!-- Quark -->
<g id="node5" class="node">
<title>Quark</title>
<g id="a_node5"><a xlink:href="http://emmo.info/emmo/middle/physicalistic#EMMO_72d53756_7fb1_46ed_980f_83f47efbe105" xlink:title="Quark">
<ellipse fill="#ffffcc" stroke="#000000" cx="406.2463" cy="-18" rx="32.4942" ry="18"/>
<text text-anchor="middle" x="406.2463" y="-14.3" font-family="Times,serif" font-size="14.00" fill="#000000">Quark</text>
</a>
</g>
</g>
<!-- Quark&#45;&gt;Massive -->
<g id="edge3" class="edge">
<title>Quark&#45;&gt;Massive</title>
<path fill="none" stroke="#000000" d="M387.391,-32.9184C374.6836,-42.9727 357.6951,-56.4141 343.3957,-67.7279"/>
<polygon fill="none" stroke="#000000" points="341.0103,-65.1522 335.3398,-74.1018 345.3537,-70.6417 341.0103,-65.1522"/>
</g>
<!-- Massive&#45;&gt;ElementaryParticle -->
<g id="edge7" class="edge">
<title>Massive&#45;&gt;ElementaryParticle</title>
<path fill="none" stroke="#000000" d="M295.2723,-105.9791C283.4359,-115.4483 268.2123,-127.6272 254.9844,-138.2095"/>
<polygon fill="none" stroke="#000000" points="252.6765,-135.5735 247.0543,-144.5536 257.0494,-141.0396 252.6765,-135.5735"/>
</g>
<!-- Photon -->
<g id="node7" class="node">
<title>Photon</title>
<g id="a_node7"><a xlink:href="http://emmo.info/emmo/middle/physicalistic#EMMO_25f8b804_9a0b_4387_a3e7_b35bce5365ee" xlink:title="Photon">
<ellipse fill="#ffffcc" stroke="#000000" cx="221.2463" cy="-18" rx="35.9954" ry="18"/>
<text text-anchor="middle" x="221.2463" y="-14.3" font-family="Times,serif" font-size="14.00" fill="#000000">Photon</text>
</a>
</g>
</g>
<!-- Photon&#45;&gt;Massless -->
<g id="edge2" class="edge">
<title>Photon&#45;&gt;Massless</title>
<path fill="none" stroke="#000000" d="M210.1109,-35.4292C204.6705,-43.9447 198.0104,-54.3692 191.9743,-63.817"/>
<polygon fill="none" stroke="#000000" points="188.873,-62.1704 186.4385,-72.4818 194.7718,-65.9392 188.873,-62.1704"/>
</g>
<!-- Massless&#45;&gt;ElementaryParticle -->
<g id="edge5" class="edge">
<title>Massless&#45;&gt;ElementaryParticle</title>
<path fill="none" stroke="#000000" d="M187.3499,-107.4292C193.2359,-115.905 200.4352,-126.2721 206.9719,-135.6849"/>
<polygon fill="none" stroke="#000000" points="204.1531,-137.7621 212.732,-143.9794 209.9028,-133.7693 204.1531,-137.7621"/>
</g>
<!-- key1 -->
<g id="node9" class="node">
<title>key1</title>
<text text-anchor="start" x="474.2463" y="-13.8" font-family="Times,serif" font-size="14.00" fill="#000000">isA</text>
</g>
<!-- key2 -->
<g id="node10" class="node">
<title>key2</title>
<text text-anchor="start" x="553.2463" y="-13.8" font-family="Times,serif" font-size="14.00" fill="#000000"> </text>
</g>
<!-- key1&#45;&gt;key2 -->
<g id="edge8" class="edge">
<title>key1:e&#45;&gt;key2:w</title>
<path fill="none" stroke="#000000" d="M495.2463,-19C516.2463,-19 523.9572,-19 540.8044,-19"/>
<polygon fill="none" stroke="#000000" points="541.2463,-22.5001 551.2463,-19 541.2462,-15.5001 541.2463,-22.5001"/>
</g>
</g>
</svg>
