<?xml version="1.0" encoding="UTF-8" standalone="no"?>
<!DOCTYPE svg PUBLIC "-//W3C//DTD SVG 1.1//EN"
 "http://www.w3.org/Graphics/SVG/1.1/DTD/svg11.dtd">
<!-- Generated by graphviz version 2.40.1 (20161225.0304)
 -->
<!-- Title: %3 Pages: 1 -->
<svg width="447pt" height="218pt"
 viewBox="0.00 0.00 446.79 218.00" xmlns="http://www.w3.org/2000/svg" xmlns:xlink="http://www.w3.org/1999/xlink">
<g id="graph0" class="graph" transform="scale(1 1) rotate(0) translate(4 214)">
<title>%3</title>
<polygon fill="#ffffff" stroke="transparent" points="-4,4 -4,-214 442.7935,-214 442.7935,4 -4,4"/>
<!-- Massive -->
<g id="node1" class="node">
<title>Massive</title>
<g id="a_node1"><a xlink:href="http://emmo.info/emmo/middle/physicalistic#EMMO_385b8f6e_43ac_4596_ad76_ac322c68b7ca" xlink:title="Massive">
<ellipse fill="#ffc880" stroke="#000000" cx="307.4971" cy="-105" rx="40.0939" ry="18"/>
<text text-anchor="middle" x="307.4971" y="-101.3" font-family="Times,serif" font-size="14.00" fill="#000000">Massive</text>
</a>
</g>
</g>
<!-- ElementaryParticle -->
<g id="node5" class="node">
<title>ElementaryParticle</title>
<g id="a_node5"><a xlink:href="http://emmo.info/emmo/middle/physicalistic#EMMO_c26a0340_d619_4928_b1a1_1a04e88bb89d" xlink:title="ElementaryParticle">
<ellipse fill="#ffffcc" stroke="#000000" stroke-width="2" cx="212.4971" cy="-192" rx="78.7863" ry="18"/>
<text text-anchor="middle" x="212.4971" y="-188.3" font-family="Times,serif" font-size="14.00" fill="#000000">ElementaryParticle</text>
</a>
</g>
</g>
<!-- Massive&#45;&gt;ElementaryParticle -->
<g id="edge3" class="edge">
<title>Massive&#45;&gt;ElementaryParticle</title>
<path fill="none" stroke="#000000" d="M289.6283,-121.364C275.4018,-134.3925 255.2708,-152.8283 239.1424,-167.5986"/>
<polygon fill="none" stroke="#000000" points="236.6006,-165.1803 231.5897,-174.5152 241.3283,-170.3427 236.6006,-165.1803"/>
<text text-anchor="middle" x="275.9971" y="-144.8" font-family="Times,serif" font-size="14.00" fill="#000000">isA</text>
</g>
<!-- Gluon -->
<g id="node2" class="node">
<title>Gluon</title>
<g id="a_node2"><a xlink:href="http://emmo.info/emmo/middle/physicalistic#EMMO_7db59e56_f68b_48b7_ae99_891c35ae5c3b" xlink:title="Gluon">
<ellipse fill="#ffffcc" stroke="#000000" cx="32.4971" cy="-18" rx="32.4942" ry="18"/>
<text text-anchor="middle" x="32.4971" y="-14.3" font-family="Times,serif" font-size="14.00" fill="#000000">Gluon</text>
</a>
</g>
</g>
<!-- Massless -->
<g id="node4" class="node">
<title>Massless</title>
<g id="a_node4"><a xlink:href="http://emmo.info/emmo/middle/physicalistic#EMMO_e5488299_8dab_4ebb_900a_26d2abed8396" xlink:title="Massless">
<ellipse fill="#ffc880" stroke="#000000" cx="162.4971" cy="-105" rx="42.7926" ry="18"/>
<text text-anchor="middle" x="162.4971" y="-101.3" font-family="Times,serif" font-size="14.00" fill="#000000">Massless</text>
</a>
</g>
</g>
<!-- Gluon&#45;&gt;Massless -->
<g id="edge6" class="edge">
<title>Gluon&#45;&gt;Massless</title>
<path fill="none" stroke="#000000" d="M53.3839,-31.9781C74.3507,-46.0097 106.9121,-67.8008 131.012,-83.9292"/>
<polygon fill="none" stroke="#000000" points="129.2137,-86.9371 139.4709,-89.5902 133.1069,-81.1197 129.2137,-86.9371"/>
<text text-anchor="middle" x="114.9971" y="-57.8" font-family="Times,serif" font-size="14.00" fill="#000000">isA</text>
</g>
<!-- Photon -->
<g id="node3" class="node">
<title>Photon</title>
<g id="a_node3"><a xlink:href="http://emmo.info/emmo/middle/physicalistic#EMMO_25f8b804_9a0b_4387_a3e7_b35bce5365ee" xlink:title="Photon">
<ellipse fill="#ffffcc" stroke="#000000" cx="118.4971" cy="-18" rx="35.9954" ry="18"/>
<text text-anchor="middle" x="118.4971" y="-14.3" font-family="Times,serif" font-size="14.00" fill="#000000">Photon</text>
</a>
</g>
</g>
<!-- Photon&#45;&gt;Massless -->
<g id="edge2" class="edge">
<title>Photon&#45;&gt;Massless</title>
<path fill="none" stroke="#000000" d="M127.4012,-35.6057C133.5628,-47.789 141.8794,-64.2331 148.8701,-78.0557"/>
<polygon fill="none" stroke="#000000" points="145.8188,-79.7778 153.4553,-87.1218 152.0654,-76.6185 145.8188,-79.7778"/>
<text text-anchor="middle" x="152.9971" y="-57.8" font-family="Times,serif" font-size="14.00" fill="#000000">isA</text>
</g>
<!-- Massless&#45;&gt;ElementaryParticle -->
<g id="edge4" class="edge">
<title>Massless&#45;&gt;ElementaryParticle</title>
<path fill="none" stroke="#000000" d="M172.6154,-122.6057C179.6172,-134.789 189.0678,-151.2331 197.0119,-165.0557"/>
<polygon fill="none" stroke="#000000" points="194.2049,-167.1957 202.2223,-174.1218 200.274,-163.7077 194.2049,-167.1957"/>
<text text-anchor="middle" x="199.9971" y="-144.8" font-family="Times,serif" font-size="14.00" fill="#000000">isA</text>
</g>
<!-- Graviton -->
<g id="node6" class="node">
<title>Graviton</title>
<g id="a_node6"><a xlink:href="http://emmo.info/emmo/middle/physicalistic#EMMO_eb3c61f0_3983_4346_a0c6_e7f6b90a67a8" xlink:title="Graviton">
<ellipse fill="#ffffcc" stroke="#000000" cx="214.4971" cy="-18" rx="42.4939" ry="18"/>
<text text-anchor="middle" x="214.4971" y="-14.3" font-family="Times,serif" font-size="14.00" fill="#000000">Graviton</text>
</a>
</g>
</g>
<!-- Graviton&#45;&gt;Massless -->
<g id="edge5" class="edge">
<title>Graviton&#45;&gt;Massless</title>
<path fill="none" stroke="#000000" d="M203.9741,-35.6057C196.5735,-47.9876 186.5424,-64.7703 178.199,-78.7296"/>
<polygon fill="none" stroke="#000000" points="175.1307,-77.0411 173.0044,-87.4204 181.1392,-80.6325 175.1307,-77.0411"/>
<text text-anchor="middle" x="201.9971" y="-57.8" font-family="Times,serif" font-size="14.00" fill="#000000">isA</text>
</g>
<!-- Quark -->
<g id="node7" class="node">
<title>Quark</title>
<g id="a_node7"><a xlink:href="http://emmo.info/emmo/middle/physicalistic#EMMO_72d53756_7fb1_46ed_980f_83f47efbe105" xlink:title="Quark">
<ellipse fill="#ffffcc" stroke="#000000" cx="307.4971" cy="-18" rx="32.4942" ry="18"/>
<text text-anchor="middle" x="307.4971" y="-14.3" font-family="Times,serif" font-size="14.00" fill="#000000">Quark</text>
</a>
</g>
</g>
<!-- Quark&#45;&gt;Massive -->
<g id="edge7" class="edge">
<title>Quark&#45;&gt;Massive</title>
<path fill="none" stroke="#000000" d="M307.4971,-36.0265C307.4971,-47.8082 307.4971,-63.4393 307.4971,-76.8419"/>
<polygon fill="none" stroke="#000000" points="303.9972,-76.9966 307.4971,-86.9966 310.9972,-76.9967 303.9972,-76.9966"/>
<text text-anchor="middle" x="316.9971" y="-57.8" font-family="Times,serif" font-size="14.00" fill="#000000">isA</text>
</g>
<!-- Electron -->
<g id="node8" class="node">
<title>Electron</title>
<g id="a_node8"><a xlink:href="http://emmo.info/emmo/middle/physicalistic#EMMO_8043d3c6_a4c1_4089_ba34_9744e28e5b3d" xlink:title="Electron">
<ellipse fill="#ffffcc" stroke="#000000" cx="398.4971" cy="-18" rx="40.0939" ry="18"/>
<text text-anchor="middle" x="398.4971" y="-14.3" font-family="Times,serif" font-size="14.00" fill="#000000">Electron</text>
</a>
</g>
</g>
<!-- Electron&#45;&gt;Massive -->
<g id="edge1" class="edge">
<title>Electron&#45;&gt;Massive</title>
<path fill="none" stroke="#000000" d="M381.3807,-34.364C367.4877,-47.6463 347.7164,-66.5486 332.122,-81.4575"/>
<polygon fill="none" stroke="#000000" points="329.6557,-78.9732 324.8462,-88.4135 334.493,-84.033 329.6557,-78.9732"/>
<text text-anchor="middle" x="366.9971" y="-57.8" font-family="Times,serif" font-size="14.00" fill="#000000">isA</text>
</g>
</g>
</svg>
