<?xml version="1.0" encoding="UTF-8" standalone="no"?>
<!DOCTYPE svg PUBLIC "-//W3C//DTD SVG 1.1//EN"
 "http://www.w3.org/Graphics/SVG/1.1/DTD/svg11.dtd">
<!-- Generated by graphviz version 2.40.1 (20161225.0304)
 -->
<!-- Title: %3 Pages: 1 -->
<svg width="370pt" height="126pt"
 viewBox="0.00 0.00 369.64 126.00" xmlns="http://www.w3.org/2000/svg" xmlns:xlink="http://www.w3.org/1999/xlink">
<g id="graph0" class="graph" transform="scale(1 1) rotate(0) translate(4 122)">
<title>%3</title>
<polygon fill="#ffffff" stroke="transparent" points="-4,4 -4,-122 365.643,-122 365.643,4 -4,4"/>
<!-- ElementaryParticle -->
<g id="node1" class="node">
<title>ElementaryParticle</title>
<g id="a_node1"><a xlink:href="http://emmo.info/emmo/middle/physicalistic#EMMO_c26a0340_d619_4928_b1a1_1a04e88bb89d" xlink:title="ElementaryParticle">
<ellipse fill="#ffffcc" stroke="#000000" stroke-width="2" cx="78.643" cy="-23" rx="78.7863" ry="18"/>
<text text-anchor="middle" x="78.643" y="-19.3" font-family="Times,serif" font-size="14.00" fill="#000000">ElementaryParticle</text>
</a>
</g>
</g>
<!-- Elementary -->
<g id="node2" class="node">
<title>Elementary</title>
<g id="a_node2"><a xlink:href="http://emmo.info/emmo/top/physical#EMMO_0f795e3e_c602_4577_9a43_d5a231aa1360" xlink:title="Elementary">
<ellipse fill="#ffffcc" stroke="#000000" stroke-width="2" cx="78.643" cy="-100" rx="51.9908" ry="18"/>
<text text-anchor="middle" x="78.643" y="-96.3" font-family="Times,serif" font-size="14.00" fill="#000000">Elementary</text>
</a>
</g>
</g>
<!-- ElementaryParticle&#45;&gt;Elementary -->
<g id="edge1" class="edge">
<title>ElementaryParticle&#45;&gt;Elementary</title>
<path fill="none" stroke="#000000" d="M78.643,-41.2479C78.643,-50.3578 78.643,-61.5826 78.643,-71.7718"/>
<polygon fill="none" stroke="#000000" points="75.1431,-71.883 78.643,-81.8831 82.1431,-71.8831 75.1431,-71.883"/>
</g>
<!-- Elementary&#45;&gt;Elementary -->
<g id="edge2" class="edge">
<title>Elementary&#45;&gt;Elementary</title>
<path fill="none" stroke="#ff00ff" d="M112.855,-86.384C131.5319,-83.9574 148.6384,-88.4961 148.6384,-100 148.6384,-109.3469 137.3454,-114.0957 123.0927,-114.2463"/>
<polygon fill="#ff00ff" stroke="#ff00ff" points="123.0513,-110.7372 112.855,-113.616 122.621,-117.724 123.0513,-110.7372"/>
</g>
<!-- key1 -->
<g id="node3" class="node">
<title>key1</title>
<text text-anchor="start" x="260.643" y="-28.8" font-family="Times,serif" font-size="14.00" fill="#000000">isA</text>
<text text-anchor="start" x="185.643" y="-9.8" font-family="Times,serif" font-size="14.00" fill="#000000">hasTemporalPart</text>
</g>
<!-- key2 -->
<g id="node4" class="node">
<title>key2</title>
<text text-anchor="start" x="332.643" y="-28.8" font-family="Times,serif" font-size="14.00" fill="#000000"> </text>
<text text-anchor="start" x="332.643" y="-9.8" font-family="Times,serif" font-size="14.00" fill="#000000"> </text>
</g>
<!-- key1&#45;&gt;key2 -->
<g id="edge3" class="edge">
<title>key1:e&#45;&gt;key2:w</title>
<path fill="none" stroke="#ff00ff" d="M281.643,-13C299.5076,-13 306.3813,-13 320.296,-13"/>
<polygon fill="#ff00ff" stroke="#ff00ff" points="320.6431,-16.5001 330.643,-13 320.643,-9.5001 320.6431,-16.5001"/>
</g>
<!-- key1&#45;&gt;key2 -->
<g id="edge4" class="edge">
<title>key1:e&#45;&gt;key2:w</title>
<path fill="none" stroke="#000000" d="M281.643,-33C299.5076,-33 306.3813,-33 320.296,-33"/>
<polygon fill="none" stroke="#000000" points="320.6431,-36.5001 330.643,-33 320.643,-29.5001 320.6431,-36.5001"/>
</g>
</g>
</svg>
