<?xml version="1.0" encoding="UTF-8" standalone="no"?>
<!DOCTYPE svg PUBLIC "-//W3C//DTD SVG 1.1//EN"
 "http://www.w3.org/Graphics/SVG/1.1/DTD/svg11.dtd">
<!-- Generated by graphviz version 2.40.1 (20161225.0304)
 -->
<!-- Title: %3 Pages: 1 -->
<svg width="1092pt" height="620pt"
 viewBox="0.00 0.00 1092.00 620.00" xmlns="http://www.w3.org/2000/svg" xmlns:xlink="http://www.w3.org/1999/xlink">
<g id="graph0" class="graph" transform="scale(1 1) rotate(0) translate(4 616)">
<title>%3</title>
<polygon fill="#ffffff" stroke="transparent" points="-4,4 -4,-616 1088,-616 1088,4 -4,4"/>
<!-- hasIcon -->
<g id="node1" class="node">
<title>hasIcon</title>
<g id="a_node1"><a xlink:href="http://emmo.info/emmo/top/semiotics#EMMO_39c3815d_8cae_4c8f_b2ff_eeba24bec455" xlink:title="hasIcon">
<polygon fill="#0079ba" stroke="#000000" points="1078,-396 1019,-396 1019,-360 1078,-360 1078,-396"/>
<text text-anchor="middle" x="1048.5" y="-374.3" font-family="Times,serif" font-size="14.00" fill="#ffffff">hasIcon</text>
</a>
</g>
</g>
<!-- hasSign -->
<g id="node3" class="node">
<title>hasSign</title>
<g id="a_node3"><a xlink:href="http://emmo.info/emmo/top/semiotics#EMMO_60577dea_9019_4537_ac41_80b0fb563d41" xlink:title="hasSign">
<polygon fill="#0079ba" stroke="#000000" points="865,-468 806,-468 806,-432 865,-432 865,-468"/>
<text text-anchor="middle" x="835.5" y="-446.3" font-family="Times,serif" font-size="14.00" fill="#ffffff">hasSign</text>
</a>
</g>
</g>
<!-- hasIcon&#45;&gt;hasSign -->
<g id="edge16" class="edge">
<title>hasIcon&#45;&gt;hasSign</title>
<path fill="none" stroke="#000000" d="M1018.8621,-392.1675C1015.7253,-393.52 1012.5631,-394.8237 1009.5,-396 964.2167,-413.3901 910.7435,-429.3242 875.1443,-439.3057"/>
<polygon fill="none" stroke="#000000" points="873.8473,-436.0334 865.1496,-442.0833 875.7217,-442.7778 873.8473,-436.0334"/>
</g>
<!-- hasSpatialPart -->
<g id="node2" class="node">
<title>hasSpatialPart</title>
<g id="a_node2"><a xlink:href="http://emmo.info/emmo/top/physical#EMMO_f68030be_94b8_4c61_a161_886468558054" xlink:title="hasSpatialPart">
<polygon fill="#0079ba" stroke="#000000" points="186.5,-180 92.5,-180 92.5,-144 186.5,-144 186.5,-180"/>
<text text-anchor="middle" x="139.5" y="-158.3" font-family="Times,serif" font-size="14.00" fill="#ffffff">hasSpatialPart</text>
</a>
</g>
</g>
<!-- hasProperPart -->
<g id="node4" class="node">
<title>hasProperPart</title>
<g id="a_node4"><a xlink:href="http://emmo.info/emmo/top/mereotopology#EMMO_9380ab64_0363_4804_b13f_3a8a94119a76" xlink:title="hasProperPart">
<polygon fill="#0079ba" stroke="#000000" points="496.5,-252 404.5,-252 404.5,-216 496.5,-216 496.5,-252"/>
<text text-anchor="middle" x="450.5" y="-230.3" font-family="Times,serif" font-size="14.00" fill="#ffffff">hasProperPart</text>
</a>
</g>
</g>
<!-- hasSpatialPart&#45;&gt;hasProperPart -->
<g id="edge6" class="edge">
<title>hasSpatialPart&#45;&gt;hasProperPart</title>
<path fill="none" stroke="#000000" d="M186.6004,-175.5865C192.2815,-177.1247 198.0128,-178.6298 203.5,-180 268.6421,-196.2664 344.1212,-212.373 394.3276,-222.7035"/>
<polygon fill="none" stroke="#000000" points="393.8337,-226.1749 404.3329,-224.7545 395.2395,-219.3175 393.8337,-226.1749"/>
</g>
<!-- semiotical -->
<g id="node12" class="node">
<title>semiotical</title>
<g id="a_node12"><a xlink:href="http://emmo.info/emmo/top/semiotics#EMMO_2337e25c_3c60_43fc_a8f9_b11a3f974291" xlink:title="semiotical">
<polygon fill="#0079ba" stroke="#000000" points="823,-540 750,-540 750,-504 823,-504 823,-540"/>
<text text-anchor="middle" x="786.5" y="-518.3" font-family="Times,serif" font-size="14.00" fill="#ffffff">semiotical</text>
</a>
</g>
</g>
<!-- hasSign&#45;&gt;semiotical -->
<g id="edge8" class="edge">
<title>hasSign&#45;&gt;semiotical</title>
<path fill="none" stroke="#000000" d="M823.1352,-468.1686C817.5491,-476.3768 810.837,-486.2394 804.6928,-495.2677"/>
<polygon fill="none" stroke="#000000" points="801.764,-493.3504 799.0313,-503.5867 807.551,-497.2888 801.764,-493.3504"/>
</g>
<!-- hasPart -->
<g id="node16" class="node">
<title>hasPart</title>
<g id="a_node16"><a xlink:href="http://emmo.info/emmo/top/mereotopology#EMMO_17e27c22_37e1_468c_9dd7_95e137f73e7f" xlink:title="hasPart">
<polygon fill="#0079ba" stroke="#000000" points="551.5,-324 495.5,-324 495.5,-288 551.5,-288 551.5,-324"/>
<text text-anchor="middle" x="523.5" y="-302.3" font-family="Times,serif" font-size="14.00" fill="#ffffff">hasPart</text>
</a>
</g>
</g>
<!-- hasProperPart&#45;&gt;hasPart -->
<g id="edge11" class="edge">
<title>hasProperPart&#45;&gt;hasPart</title>
<path fill="none" stroke="#000000" d="M468.921,-252.1686C477.6529,-260.781 488.2317,-271.2149 497.7423,-280.5952"/>
<polygon fill="none" stroke="#000000" points="495.5075,-283.3069 505.0849,-287.8372 500.423,-278.3231 495.5075,-283.3069"/>
</g>
<!-- EMMORelation -->
<g id="node5" class="node">
<title>EMMORelation</title>
<g id="a_node5"><a xlink:href="http://emmo.info/emmo/top/mereotopology#EMMO_ec2472ae_cf4a_46a5_8555_1556f5a6c3c5" xlink:title="EMMORelation">
<polygon fill="#0079ba" stroke="#000000" stroke-width="2" points="687.5,-612 581.5,-612 581.5,-576 687.5,-576 687.5,-612"/>
<text text-anchor="middle" x="634.5" y="-590.3" font-family="Times,serif" font-size="14.00" fill="#ffffff">EMMORelation</text>
</a>
</g>
</g>
<!-- hasPhysicsDimension -->
<g id="node6" class="node">
<title>hasPhysicsDimension</title>
<g id="a_node6"><a xlink:href="http://emmo.info/emmo/middle/metrology#EMMO_bed1d005_b04e_4a90_94cf_02bc678a8569" xlink:title="hasPhysicsDimension">
<polygon fill="#0079ba" stroke="#000000" points="1020.5,-252 884.5,-252 884.5,-216 1020.5,-216 1020.5,-252"/>
<text text-anchor="middle" x="952.5" y="-230.3" font-family="Times,serif" font-size="14.00" fill="#ffffff">hasPhysicsDimension</text>
</a>
</g>
</g>
<!-- hasProperty -->
<g id="node19" class="node">
<title>hasProperty</title>
<g id="a_node19"><a xlink:href="http://emmo.info/emmo/middle/properties#EMMO_e1097637_70d2_4895_973f_2396f04fa204" xlink:title="hasProperty">
<polygon fill="#0079ba" stroke="#000000" points="993,-324 912,-324 912,-288 993,-288 993,-324"/>
<text text-anchor="middle" x="952.5" y="-302.3" font-family="Times,serif" font-size="14.00" fill="#ffffff">hasProperty</text>
</a>
</g>
</g>
<!-- hasPhysicsDimension&#45;&gt;hasProperty -->
<g id="edge29" class="edge">
<title>hasPhysicsDimension&#45;&gt;hasProperty</title>
<path fill="none" stroke="#000000" d="M952.5,-252.1686C952.5,-259.869 952.5,-269.0257 952.5,-277.5834"/>
<polygon fill="none" stroke="#000000" points="949.0001,-277.5867 952.5,-287.5867 956.0001,-277.5868 949.0001,-277.5867"/>
</g>
<!-- hasVariable -->
<g id="node7" class="node">
<title>hasVariable</title>
<g id="a_node7"><a xlink:href="http://emmo.info/emmo/middle/math#EMMO_3446e167_c576_49d6_846c_215bb8878a55" xlink:title="hasVariable">
<polygon fill="#0079ba" stroke="#000000" points="894,-324 813,-324 813,-288 894,-288 894,-324"/>
<text text-anchor="middle" x="853.5" y="-302.3" font-family="Times,serif" font-size="14.00" fill="#ffffff">hasVariable</text>
</a>
</g>
</g>
<!-- hasConvention -->
<g id="node20" class="node">
<title>hasConvention</title>
<g id="a_node20"><a xlink:href="http://emmo.info/emmo/top/semiotics#EMMO_eb3518bf_f799_4f9e_8c3e_ce59af11453b" xlink:title="hasConvention">
<polygon fill="#0079ba" stroke="#000000" points="1000.5,-396 902.5,-396 902.5,-360 1000.5,-360 1000.5,-396"/>
<text text-anchor="middle" x="951.5" y="-374.3" font-family="Times,serif" font-size="14.00" fill="#ffffff">hasConvention</text>
</a>
</g>
</g>
<!-- hasVariable&#45;&gt;hasConvention -->
<g id="edge25" class="edge">
<title>hasVariable&#45;&gt;hasConvention</title>
<path fill="none" stroke="#000000" d="M878.2295,-324.1686C890.4162,-333.1221 905.2823,-344.0442 918.4312,-353.7045"/>
<polygon fill="none" stroke="#000000" points="916.6473,-356.737 926.7784,-359.8372 920.7918,-351.0958 916.6473,-356.737"/>
</g>
<!-- hasOverlapWith -->
<g id="node8" class="node">
<title>hasOverlapWith</title>
<g id="a_node8"><a xlink:href="http://emmo.info/emmo/top/mereotopology#EMMO_d893d373_b579_4867_841e_1c2b31a8d2c6" xlink:title="hasOverlapWith">
<polygon fill="#0079ba" stroke="#000000" points="482.5,-396 376.5,-396 376.5,-360 482.5,-360 482.5,-396"/>
<text text-anchor="middle" x="429.5" y="-374.3" font-family="Times,serif" font-size="14.00" fill="#ffffff">hasOverlapWith</text>
</a>
</g>
</g>
<!-- connected -->
<g id="node30" class="node">
<title>connected</title>
<g id="a_node30"><a xlink:href="http://emmo.info/emmo/top/mereotopology#EMMO_6703954e_34c4_4a15_a9e7_f313760ae1a8" xlink:title="connected">
<polygon fill="#0079ba" stroke="#000000" points="615,-468 544,-468 544,-432 615,-432 615,-468"/>
<text text-anchor="middle" x="579.5" y="-446.3" font-family="Times,serif" font-size="14.00" fill="#ffffff">connected</text>
</a>
</g>
</g>
<!-- hasOverlapWith&#45;&gt;connected -->
<g id="edge24" class="edge">
<title>hasOverlapWith&#45;&gt;connected</title>
<path fill="none" stroke="#000000" d="M467.3513,-396.1686C487.8394,-406.0029 513.2757,-418.2123 534.7417,-428.516"/>
<polygon fill="none" stroke="#000000" points="533.452,-431.7792 543.9818,-432.9513 536.4811,-425.4686 533.452,-431.7792"/>
</g>
<!-- hasSpatioTemporalPart -->
<g id="node9" class="node">
<title>hasSpatioTemporalPart</title>
<g id="a_node9"><a xlink:href="http://emmo.info/emmo/top/physical#EMMO_6e046dd0_9634_4013_b2b1_9cc468087c83" xlink:title="hasSpatioTemporalPart">
<polygon fill="#0079ba" stroke="#000000" points="356.5,-180 212.5,-180 212.5,-144 356.5,-144 356.5,-180"/>
<text text-anchor="middle" x="284.5" y="-158.3" font-family="Times,serif" font-size="14.00" fill="#ffffff">hasSpatioTemporalPart</text>
</a>
</g>
</g>
<!-- hasSpatioTemporalPart&#45;&gt;hasProperPart -->
<g id="edge7" class="edge">
<title>hasSpatioTemporalPart&#45;&gt;hasProperPart</title>
<path fill="none" stroke="#000000" d="M326.3888,-180.1686C348.5903,-189.7982 376.0422,-201.705 399.4784,-211.8701"/>
<polygon fill="none" stroke="#000000" points="398.3455,-215.1938 408.9124,-215.962 401.1309,-208.7718 398.3455,-215.1938"/>
</g>
<!-- mereotopological -->
<g id="node10" class="node">
<title>mereotopological</title>
<g id="a_node10"><a xlink:href="http://emmo.info/emmo/top/mereotopology#EMMO_03212fd7_abfd_4828_9c8e_62c293052d4b" xlink:title="mereotopological">
<polygon fill="#0079ba" stroke="#000000" points="635.5,-540 523.5,-540 523.5,-504 635.5,-504 635.5,-540"/>
<text text-anchor="middle" x="579.5" y="-518.3" font-family="Times,serif" font-size="14.00" fill="#ffffff">mereotopological</text>
</a>
</g>
</g>
<!-- mereotopological&#45;&gt;EMMORelation -->
<g id="edge18" class="edge">
<title>mereotopological&#45;&gt;EMMORelation</title>
<path fill="none" stroke="#000000" d="M593.3788,-540.1686C599.7136,-548.4614 607.3384,-558.443 614.2926,-567.5467"/>
<polygon fill="none" stroke="#000000" points="611.5825,-569.7647 620.4343,-575.5867 617.1452,-565.5153 611.5825,-569.7647"/>
</g>
<!-- disconnected -->
<g id="node11" class="node">
<title>disconnected</title>
<g id="a_node11"><a xlink:href="http://emmo.info/emmo/top/mereotopology#EMMO_517dfaf9_4970_41ac_81ee_d031627d2c7c" xlink:title="disconnected">
<polygon fill="#0079ba" stroke="#000000" points="526,-468 439,-468 439,-432 526,-432 526,-468"/>
<text text-anchor="middle" x="482.5" y="-446.3" font-family="Times,serif" font-size="14.00" fill="#ffffff">disconnected</text>
</a>
</g>
</g>
<!-- disconnected&#45;&gt;mereotopological -->
<g id="edge20" class="edge">
<title>disconnected&#45;&gt;mereotopological</title>
<path fill="none" stroke="#000000" d="M506.9772,-468.1686C519.0395,-477.1221 533.754,-488.0442 546.7686,-497.7045"/>
<polygon fill="none" stroke="#000000" points="544.9148,-500.6873 555.0306,-503.8372 549.087,-495.0665 544.9148,-500.6873"/>
</g>
<!-- semiotical&#45;&gt;EMMORelation -->
<g id="edge5" class="edge">
<title>semiotical&#45;&gt;EMMORelation</title>
<path fill="none" stroke="#000000" d="M749.705,-539.4292C729.2554,-549.1159 703.5908,-561.2728 681.6786,-571.6523"/>
<polygon fill="none" stroke="#000000" points="680.0825,-568.5354 672.5435,-575.9794 683.0792,-574.8616 680.0825,-568.5354"/>
</g>
<!-- hasIndex -->
<g id="node13" class="node">
<title>hasIndex</title>
<g id="a_node13"><a xlink:href="http://emmo.info/emmo/top/semiotics#EMMO_297999d6_c9e4_4262_9536_bd524d1c6e21" xlink:title="hasIndex">
<polygon fill="#0079ba" stroke="#000000" points="768,-396 703,-396 703,-360 768,-360 768,-396"/>
<text text-anchor="middle" x="735.5" y="-374.3" font-family="Times,serif" font-size="14.00" fill="#ffffff">hasIndex</text>
</a>
</g>
</g>
<!-- hasIndex&#45;&gt;hasSign -->
<g id="edge19" class="edge">
<title>hasIndex&#45;&gt;hasSign</title>
<path fill="none" stroke="#000000" d="M760.7342,-396.1686C773.288,-405.2073 788.6283,-416.2524 802.1391,-425.9802"/>
<polygon fill="none" stroke="#000000" points="800.1134,-428.8345 810.2739,-431.8372 804.2036,-423.1537 800.1134,-428.8345"/>
</g>
<!-- hasMember -->
<g id="node14" class="node">
<title>hasMember</title>
<g id="a_node14"><a xlink:href="http://emmo.info/emmo/top/mereotopology#EMMO_6b7276a4_4b9d_440a_b577_0277539c0fc4" xlink:title="hasMember">
<polygon fill="#0079ba" stroke="#000000" points="456.5,-180 374.5,-180 374.5,-144 456.5,-144 456.5,-180"/>
<text text-anchor="middle" x="415.5" y="-158.3" font-family="Times,serif" font-size="14.00" fill="#ffffff">hasMember</text>
</a>
</g>
</g>
<!-- hasMember&#45;&gt;hasProperPart -->
<g id="edge15" class="edge">
<title>hasMember&#45;&gt;hasProperPart</title>
<path fill="none" stroke="#000000" d="M424.332,-180.1686C428.1986,-188.1229 432.8206,-197.631 437.0968,-206.4277"/>
<polygon fill="none" stroke="#000000" points="434.0293,-208.1232 441.5491,-215.5867 440.3249,-205.0629 434.0293,-208.1232"/>
</g>
<!-- hasInterpretant -->
<g id="node15" class="node">
<title>hasInterpretant</title>
<g id="a_node15"><a xlink:href="http://emmo.info/emmo/top/semiotics#EMMO_7fb7fe7e_bdf9_4eeb_adad_e384dd5285c6" xlink:title="hasInterpretant">
<polygon fill="#0079ba" stroke="#000000" points="884.5,-396 786.5,-396 786.5,-360 884.5,-360 884.5,-396"/>
<text text-anchor="middle" x="835.5" y="-374.3" font-family="Times,serif" font-size="14.00" fill="#ffffff">hasInterpretant</text>
</a>
</g>
</g>
<!-- hasInterpretant&#45;&gt;hasSign -->
<g id="edge14" class="edge">
<title>hasInterpretant&#45;&gt;hasSign</title>
<path fill="none" stroke="#000000" d="M835.5,-396.1686C835.5,-403.869 835.5,-413.0257 835.5,-421.5834"/>
<polygon fill="none" stroke="#000000" points="832.0001,-421.5867 835.5,-431.5867 839.0001,-421.5868 832.0001,-421.5867"/>
</g>
<!-- hasPart&#45;&gt;hasOverlapWith -->
<g id="edge22" class="edge">
<title>hasPart&#45;&gt;hasOverlapWith</title>
<path fill="none" stroke="#000000" d="M499.7798,-324.1686C488.0906,-333.1221 473.8312,-344.0442 461.2191,-353.7045"/>
<polygon fill="none" stroke="#000000" points="459.0231,-350.9778 453.2126,-359.8372 463.2797,-356.5349 459.0231,-350.9778"/>
</g>
<!-- encloses -->
<g id="node26" class="node">
<title>encloses</title>
<g id="a_node26"><a xlink:href="http://emmo.info/emmo/top/mereotopology#EMMO_8c898653_1118_4682_9bbf_6cc334d16a99" xlink:title="encloses">
<polygon fill="#0079ba" stroke="#000000" points="562.5,-396 500.5,-396 500.5,-360 562.5,-360 562.5,-396"/>
<text text-anchor="middle" x="531.5" y="-374.3" font-family="Times,serif" font-size="14.00" fill="#ffffff">encloses</text>
</a>
</g>
</g>
<!-- hasPart&#45;&gt;encloses -->
<g id="edge21" class="edge">
<title>hasPart&#45;&gt;encloses</title>
<path fill="none" stroke="#000000" d="M525.5187,-324.1686C526.3743,-331.869 527.3917,-341.0257 528.3426,-349.5834"/>
<polygon fill="none" stroke="#000000" points="524.8711,-350.0344 529.4541,-359.5867 531.8283,-349.2614 524.8711,-350.0344"/>
</g>
<!-- hasContactWith -->
<g id="node17" class="node">
<title>hasContactWith</title>
<g id="a_node17"><a xlink:href="http://emmo.info/emmo/top/mereotopology#EMMO_4d6504f1_c470_4ce9_b941_bbbebc9ab05d" xlink:title="hasContactWith">
<polygon fill="#0079ba" stroke="#000000" points="684.5,-396 580.5,-396 580.5,-360 684.5,-360 684.5,-396"/>
<text text-anchor="middle" x="632.5" y="-374.3" font-family="Times,serif" font-size="14.00" fill="#ffffff">hasContactWith</text>
</a>
</g>
</g>
<!-- hasContactWith&#45;&gt;connected -->
<g id="edge9" class="edge">
<title>hasContactWith&#45;&gt;connected</title>
<path fill="none" stroke="#000000" d="M619.1259,-396.1686C613.0838,-404.3768 605.8237,-414.2394 599.1779,-423.2677"/>
<polygon fill="none" stroke="#000000" points="596.1637,-421.4585 593.0542,-431.5867 601.8011,-425.6082 596.1637,-421.4585"/>
</g>
<!-- hasReferenceUnit -->
<g id="node18" class="node">
<title>hasReferenceUnit</title>
<g id="a_node18"><a xlink:href="http://emmo.info/emmo/middle/metrology#EMMO_67fc0a36_8dcb_4ffa_9a43_31074efa3296" xlink:title="hasReferenceUnit">
<polygon fill="#0079ba" stroke="#000000" points="113,-36 0,-36 0,0 113,0 113,-36"/>
<text text-anchor="middle" x="56.5" y="-14.3" font-family="Times,serif" font-size="14.00" fill="#ffffff">hasReferenceUnit</text>
</a>
</g>
</g>
<!-- hasSpatialDirectPart -->
<g id="node25" class="node">
<title>hasSpatialDirectPart</title>
<g id="a_node25"><a xlink:href="http://emmo.info/emmo/middle/reductionistic#EMMO_b2282816_b7a3_44c6_b2cb_3feff1ceb7fe" xlink:title="hasSpatialDirectPart">
<polygon fill="#0079ba" stroke="#000000" points="186.5,-108 58.5,-108 58.5,-72 186.5,-72 186.5,-108"/>
<text text-anchor="middle" x="122.5" y="-86.3" font-family="Times,serif" font-size="14.00" fill="#ffffff">hasSpatialDirectPart</text>
</a>
</g>
</g>
<!-- hasReferenceUnit&#45;&gt;hasSpatialDirectPart -->
<g id="edge10" class="edge">
<title>hasReferenceUnit&#45;&gt;hasSpatialDirectPart</title>
<path fill="none" stroke="#000000" d="M73.1546,-36.1686C80.9114,-44.6306 90.2802,-54.8511 98.761,-64.1029"/>
<polygon fill="none" stroke="#000000" points="96.2838,-66.5802 105.6212,-71.5867 101.4439,-61.8501 96.2838,-66.5802"/>
</g>
<!-- hasProperty&#45;&gt;hasConvention -->
<g id="edge17" class="edge">
<title>hasProperty&#45;&gt;hasConvention</title>
<path fill="none" stroke="#000000" d="M952.2477,-324.1686C952.1407,-331.869 952.0135,-341.0257 951.8947,-349.5834"/>
<polygon fill="none" stroke="#000000" points="948.3951,-349.5391 951.7557,-359.5867 955.3944,-349.6363 948.3951,-349.5391"/>
</g>
<!-- hasConvention&#45;&gt;hasSign -->
<g id="edge3" class="edge">
<title>hasConvention&#45;&gt;hasSign</title>
<path fill="none" stroke="#000000" d="M922.2283,-396.1686C907.3912,-405.3779 889.1985,-416.6699 873.3138,-426.5294"/>
<polygon fill="none" stroke="#000000" points="871.413,-423.5898 864.7623,-431.8372 875.1045,-429.5372 871.413,-423.5898"/>
</g>
<!-- hasTemporalDirectPart -->
<g id="node21" class="node">
<title>hasTemporalDirectPart</title>
<g id="a_node21"><a xlink:href="http://emmo.info/emmo/middle/reductionistic#EMMO_65a2c5b8_e4d8_4a51_b2f8_e55effc0547d" xlink:title="hasTemporalDirectPart">
<polygon fill="#0079ba" stroke="#000000" points="601,-108 458,-108 458,-72 601,-72 601,-108"/>
<text text-anchor="middle" x="529.5" y="-86.3" font-family="Times,serif" font-size="14.00" fill="#ffffff">hasTemporalDirectPart</text>
</a>
</g>
</g>
<!-- hasTemporalPart -->
<g id="node22" class="node">
<title>hasTemporalPart</title>
<g id="a_node22"><a xlink:href="http://emmo.info/emmo/top/physical#EMMO_7afbed84_7593_4a23_bd88_9d9c6b04e8f6" xlink:title="hasTemporalPart">
<polygon fill="#0079ba" stroke="#000000" points="584.5,-180 474.5,-180 474.5,-144 584.5,-144 584.5,-180"/>
<text text-anchor="middle" x="529.5" y="-158.3" font-family="Times,serif" font-size="14.00" fill="#ffffff">hasTemporalPart</text>
</a>
</g>
</g>
<!-- hasTemporalDirectPart&#45;&gt;hasTemporalPart -->
<g id="edge28" class="edge">
<title>hasTemporalDirectPart&#45;&gt;hasTemporalPart</title>
<path fill="none" stroke="#000000" d="M529.5,-108.1686C529.5,-115.869 529.5,-125.0257 529.5,-133.5834"/>
<polygon fill="none" stroke="#000000" points="526.0001,-133.5867 529.5,-143.5867 533.0001,-133.5868 526.0001,-133.5867"/>
</g>
<!-- hasTemporalPart&#45;&gt;hasProperPart -->
<g id="edge26" class="edge">
<title>hasTemporalPart&#45;&gt;hasProperPart</title>
<path fill="none" stroke="#000000" d="M509.565,-180.1686C500.0217,-188.8663 488.4401,-199.4217 478.0694,-208.8735"/>
<polygon fill="none" stroke="#000000" points="475.462,-206.5143 470.4287,-215.8372 480.1772,-211.6879 475.462,-206.5143"/>
</g>
<!-- hasQuantityValue -->
<g id="node23" class="node">
<title>hasQuantityValue</title>
<g id="a_node23"><a xlink:href="http://emmo.info/emmo/middle/metrology#EMMO_8ef3cd6d_ae58_4a8d_9fc0_ad8f49015cd0" xlink:title="hasQuantityValue">
<polygon fill="#0079ba" stroke="#000000" points="245.5,-36 131.5,-36 131.5,0 245.5,0 245.5,-36"/>
<text text-anchor="middle" x="188.5" y="-14.3" font-family="Times,serif" font-size="14.00" fill="#ffffff">hasQuantityValue</text>
</a>
</g>
</g>
<!-- hasQuantityValue&#45;&gt;hasSpatialDirectPart -->
<g id="edge12" class="edge">
<title>hasQuantityValue&#45;&gt;hasSpatialDirectPart</title>
<path fill="none" stroke="#000000" d="M171.8454,-36.1686C164.0886,-44.6306 154.7198,-54.8511 146.239,-64.1029"/>
<polygon fill="none" stroke="#000000" points="143.5561,-61.8501 139.3788,-71.5867 148.7162,-66.5802 143.5561,-61.8501"/>
</g>
<!-- hasSpatioTemporalDirectPart -->
<g id="node24" class="node">
<title>hasSpatioTemporalDirectPart</title>
<g id="a_node24"><a xlink:href="http://emmo.info/emmo/middle/reductionistic#EMMO_663859e5_add3_4c9e_96fb_c99399de278d" xlink:title="hasSpatioTemporalDirectPart">
<polygon fill="#0079ba" stroke="#000000" points="382.5,-108 204.5,-108 204.5,-72 382.5,-72 382.5,-108"/>
<text text-anchor="middle" x="293.5" y="-86.3" font-family="Times,serif" font-size="14.00" fill="#ffffff">hasSpatioTemporalDirectPart</text>
</a>
</g>
</g>
<!-- hasSpatioTemporalDirectPart&#45;&gt;hasSpatioTemporalPart -->
<g id="edge23" class="edge">
<title>hasSpatioTemporalDirectPart&#45;&gt;hasSpatioTemporalPart</title>
<path fill="none" stroke="#000000" d="M291.2289,-108.1686C290.2664,-115.869 289.1218,-125.0257 288.0521,-133.5834"/>
<polygon fill="none" stroke="#000000" points="284.5691,-133.2298 286.8017,-143.5867 291.5151,-134.0981 284.5691,-133.2298"/>
</g>
<!-- hasSpatialDirectPart&#45;&gt;hasSpatialPart -->
<g id="edge13" class="edge">
<title>hasSpatialDirectPart&#45;&gt;hasSpatialPart</title>
<path fill="none" stroke="#000000" d="M126.7898,-108.1686C128.608,-115.869 130.7699,-125.0257 132.7905,-133.5834"/>
<polygon fill="none" stroke="#000000" points="129.4481,-134.6586 135.1524,-143.5867 136.2608,-133.05 129.4481,-134.6586"/>
</g>
<!-- encloses&#45;&gt;connected -->
<g id="edge1" class="edge">
<title>encloses&#45;&gt;connected</title>
<path fill="none" stroke="#000000" d="M543.6124,-396.1686C549.0281,-404.2921 555.5242,-414.0363 561.4921,-422.9882"/>
<polygon fill="none" stroke="#000000" points="558.7653,-425.2077 567.2245,-431.5867 564.5896,-421.3247 558.7653,-425.2077"/>
</g>
<!-- hasProperParticipant -->
<g id="node27" class="node">
<title>hasProperParticipant</title>
<g id="a_node27"><a xlink:href="http://emmo.info/emmo/middle/holistic#EMMO_c5aae418_1622_4d02_93c5_21159e28e6c1" xlink:title="hasProperParticipant">
<polygon fill="#0079ba" stroke="#000000" points="732,-180 603,-180 603,-144 732,-144 732,-180"/>
<text text-anchor="middle" x="667.5" y="-158.3" font-family="Times,serif" font-size="14.00" fill="#ffffff">hasProperParticipant</text>
</a>
</g>
</g>
<!-- hasProperParticipant&#45;&gt;hasProperPart -->
<g id="edge32" class="edge">
<title>hasProperParticipant&#45;&gt;hasProperPart</title>
<path fill="none" stroke="#000000" d="M613.0218,-180.0757C580.4819,-190.8724 539.2385,-204.5568 506.4423,-215.4385"/>
<polygon fill="none" stroke="#000000" points="504.9433,-212.2482 496.5543,-218.7193 507.1478,-218.892 504.9433,-212.2482"/>
</g>
<!-- hasParticipant -->
<g id="node31" class="node">
<title>hasParticipant</title>
<g id="a_node31"><a xlink:href="http://emmo.info/emmo/middle/holistic#EMMO_ae2d1a96_bfa1_409a_a7d2_03d69e8a125a" xlink:title="hasParticipant">
<polygon fill="#0079ba" stroke="#000000" points="644,-252 551,-252 551,-216 644,-216 644,-252"/>
<text text-anchor="middle" x="597.5" y="-230.3" font-family="Times,serif" font-size="14.00" fill="#ffffff">hasParticipant</text>
</a>
</g>
</g>
<!-- hasProperParticipant&#45;&gt;hasParticipant -->
<g id="edge31" class="edge">
<title>hasProperParticipant&#45;&gt;hasParticipant</title>
<path fill="none" stroke="#000000" d="M649.836,-180.1686C641.5268,-188.7152 631.4736,-199.0557 622.4082,-208.3802"/>
<polygon fill="none" stroke="#000000" points="619.8631,-205.977 615.4018,-215.5867 624.8821,-210.8565 619.8631,-205.977"/>
</g>
<!-- hasModel -->
<g id="node28" class="node">
<title>hasModel</title>
<g id="a_node28"><a xlink:href="http://emmo.info/emmo/middle/models#EMMO_24c71baf_6db6_48b9_86c8_8c70cf36db0c" xlink:title="hasModel">
<polygon fill="#0079ba" stroke="#000000" points="1084,-324 1013,-324 1013,-288 1084,-288 1084,-324"/>
<text text-anchor="middle" x="1048.5" y="-302.3" font-family="Times,serif" font-size="14.00" fill="#ffffff">hasModel</text>
</a>
</g>
</g>
<!-- hasModel&#45;&gt;hasIcon -->
<g id="edge2" class="edge">
<title>hasModel&#45;&gt;hasIcon</title>
<path fill="none" stroke="#000000" d="M1048.5,-324.1686C1048.5,-331.869 1048.5,-341.0257 1048.5,-349.5834"/>
<polygon fill="none" stroke="#000000" points="1045.0001,-349.5867 1048.5,-359.5867 1052.0001,-349.5868 1045.0001,-349.5867"/>
</g>
<!-- overcrosses -->
<g id="node29" class="node">
<title>overcrosses</title>
<g id="a_node29"><a xlink:href="http://emmo.info/emmo/top/mereotopology#EMMO_9cb984ca_48ad_4864_b09e_50d3fff19420" xlink:title="overcrosses">
<polygon fill="#0079ba" stroke="#000000" points="469.5,-324 389.5,-324 389.5,-288 469.5,-288 469.5,-324"/>
<text text-anchor="middle" x="429.5" y="-302.3" font-family="Times,serif" font-size="14.00" fill="#ffffff">overcrosses</text>
</a>
</g>
</g>
<!-- overcrosses&#45;&gt;hasOverlapWith -->
<g id="edge30" class="edge">
<title>overcrosses&#45;&gt;hasOverlapWith</title>
<path fill="none" stroke="#000000" d="M429.5,-324.1686C429.5,-331.869 429.5,-341.0257 429.5,-349.5834"/>
<polygon fill="none" stroke="#000000" points="426.0001,-349.5867 429.5,-359.5867 433.0001,-349.5868 426.0001,-349.5867"/>
</g>
<!-- connected&#45;&gt;mereotopological -->
<g id="edge27" class="edge">
<title>connected&#45;&gt;mereotopological</title>
<path fill="none" stroke="#000000" d="M579.5,-468.1686C579.5,-475.869 579.5,-485.0257 579.5,-493.5834"/>
<polygon fill="none" stroke="#000000" points="576.0001,-493.5867 579.5,-503.5867 583.0001,-493.5868 576.0001,-493.5867"/>
</g>
<!-- hasParticipant&#45;&gt;hasPart -->
<g id="edge4" class="edge">
<title>hasParticipant&#45;&gt;hasPart</title>
<path fill="none" stroke="#000000" d="M578.8267,-252.1686C569.9751,-260.781 559.2514,-271.2149 549.6105,-280.5952"/>
<polygon fill="none" stroke="#000000" points="546.8939,-278.355 542.1674,-287.8372 551.7754,-283.3721 546.8939,-278.355"/>
</g>
<!-- key1 -->
<g id="node32" class="node">
<title>key1</title>
<text text-anchor="start" x="281.5" y="-13.8" font-family="Times,serif" font-size="14.00" fill="#000000">isA</text>
</g>
<!-- key2 -->
<g id="node33" class="node">
<title>key2</title>
<text text-anchor="start" x="360.5" y="-13.8" font-family="Times,serif" font-size="14.00" fill="#000000"> </text>
</g>
<!-- key1&#45;&gt;key2 -->
<g id="edge33" class="edge">
<title>key1:e&#45;&gt;key2:w</title>
<path fill="none" stroke="#000000" d="M302.5,-19C323.5,-19 331.2109,-19 348.0581,-19"/>
<polygon fill="none" stroke="#000000" points="348.5,-22.5001 358.5,-19 348.5,-15.5001 348.5,-22.5001"/>
</g>
</g>
</svg>
