<?xml version="1.0" encoding="UTF-8" standalone="no"?>
<!DOCTYPE svg PUBLIC "-//W3C//DTD SVG 1.1//EN"
 "http://www.w3.org/Graphics/SVG/1.1/DTD/svg11.dtd">
<!-- Generated by graphviz version 2.40.1 (20161225.0304)
 -->
<!-- Title: %3 Pages: 1 -->
<svg width="1094pt" height="620pt"
 viewBox="0.00 0.00 1094.00 620.00" xmlns="http://www.w3.org/2000/svg" xmlns:xlink="http://www.w3.org/1999/xlink">
<g id="graph0" class="graph" transform="scale(1 1) rotate(0) translate(4 616)">
<title>%3</title>
<polygon fill="#ffffff" stroke="transparent" points="-4,4 -4,-616 1090,-616 1090,4 -4,4"/>
<!-- disconnected -->
<g id="node1" class="node">
<title>disconnected</title>
<g id="a_node1"><a xlink:href="http://emmo.info/emmo/top/mereotopology#EMMO_517dfaf9_4970_41ac_81ee_d031627d2c7c" xlink:title="disconnected">
<polygon fill="#0079ba" stroke="#000000" points="530,-468 443,-468 443,-432 530,-432 530,-468"/>
<text text-anchor="middle" x="486.5" y="-446.3" font-family="Times,serif" font-size="14.00" fill="#ffffff">disconnected</text>
</a>
</g>
</g>
<!-- mereotopological -->
<g id="node17" class="node">
<title>mereotopological</title>
<g id="a_node17"><a xlink:href="http://emmo.info/emmo/top/mereotopology#EMMO_03212fd7_abfd_4828_9c8e_62c293052d4b" xlink:title="mereotopological">
<polygon fill="#0079ba" stroke="#000000" points="639.5,-540 527.5,-540 527.5,-504 639.5,-504 639.5,-540"/>
<text text-anchor="middle" x="583.5" y="-518.3" font-family="Times,serif" font-size="14.00" fill="#ffffff">mereotopological</text>
</a>
</g>
</g>
<!-- disconnected&#45;&gt;mereotopological -->
<g id="edge18" class="edge">
<title>disconnected&#45;&gt;mereotopological</title>
<path fill="none" stroke="#000000" d="M510.9772,-468.1686C523.0395,-477.1221 537.754,-488.0442 550.7686,-497.7045"/>
<polygon fill="none" stroke="#000000" points="548.9148,-500.6873 559.0306,-503.8372 553.087,-495.0665 548.9148,-500.6873"/>
</g>
<!-- hasOverlapWith -->
<g id="node2" class="node">
<title>hasOverlapWith</title>
<g id="a_node2"><a xlink:href="http://emmo.info/emmo/top/mereotopology#EMMO_d893d373_b579_4867_841e_1c2b31a8d2c6" xlink:title="hasOverlapWith">
<polygon fill="#0079ba" stroke="#000000" points="484.5,-396 378.5,-396 378.5,-360 484.5,-360 484.5,-396"/>
<text text-anchor="middle" x="431.5" y="-374.3" font-family="Times,serif" font-size="14.00" fill="#ffffff">hasOverlapWith</text>
</a>
</g>
</g>
<!-- connected -->
<g id="node12" class="node">
<title>connected</title>
<g id="a_node12"><a xlink:href="http://emmo.info/emmo/top/mereotopology#EMMO_6703954e_34c4_4a15_a9e7_f313760ae1a8" xlink:title="connected">
<polygon fill="#0079ba" stroke="#000000" points="619,-468 548,-468 548,-432 619,-432 619,-468"/>
<text text-anchor="middle" x="583.5" y="-446.3" font-family="Times,serif" font-size="14.00" fill="#ffffff">connected</text>
</a>
</g>
</g>
<!-- hasOverlapWith&#45;&gt;connected -->
<g id="edge11" class="edge">
<title>hasOverlapWith&#45;&gt;connected</title>
<path fill="none" stroke="#000000" d="M469.856,-396.1686C490.7873,-406.0835 516.8152,-418.4125 538.6787,-428.7688"/>
<polygon fill="none" stroke="#000000" points="537.231,-431.9559 547.7667,-433.0737 540.2277,-425.6297 537.231,-431.9559"/>
</g>
<!-- semiotical -->
<g id="node3" class="node">
<title>semiotical</title>
<g id="a_node3"><a xlink:href="http://emmo.info/emmo/top/semiotics#EMMO_2337e25c_3c60_43fc_a8f9_b11a3f974291" xlink:title="semiotical">
<polygon fill="#0079ba" stroke="#000000" points="835,-540 762,-540 762,-504 835,-504 835,-540"/>
<text text-anchor="middle" x="798.5" y="-518.3" font-family="Times,serif" font-size="14.00" fill="#ffffff">semiotical</text>
</a>
</g>
</g>
<!-- EMMORelation -->
<g id="node18" class="node">
<title>EMMORelation</title>
<g id="a_node18"><a xlink:href="http://emmo.info/emmo/top/mereotopology#EMMO_ec2472ae_cf4a_46a5_8555_1556f5a6c3c5" xlink:title="EMMORelation">
<polygon fill="#0079ba" stroke="#000000" stroke-width="2" points="691.5,-612 585.5,-612 585.5,-576 691.5,-576 691.5,-612"/>
<text text-anchor="middle" x="638.5" y="-590.3" font-family="Times,serif" font-size="14.00" fill="#ffffff">EMMORelation</text>
</a>
</g>
</g>
<!-- semiotical&#45;&gt;EMMORelation -->
<g id="edge24" class="edge">
<title>semiotical&#45;&gt;EMMORelation</title>
<path fill="none" stroke="#000000" d="M761.7928,-538.5183C739.883,-548.3776 711.7737,-561.0268 687.9292,-571.7569"/>
<polygon fill="none" stroke="#000000" points="686.3665,-568.622 678.6836,-575.9174 689.2391,-575.0054 686.3665,-568.622"/>
</g>
<!-- hasProperty -->
<g id="node4" class="node">
<title>hasProperty</title>
<g id="a_node4"><a xlink:href="http://emmo.info/emmo/middle/properties#EMMO_e1097637_70d2_4895_973f_2396f04fa204" xlink:title="hasProperty">
<polygon fill="#0079ba" stroke="#000000" points="702,-324 621,-324 621,-288 702,-288 702,-324"/>
<text text-anchor="middle" x="661.5" y="-302.3" font-family="Times,serif" font-size="14.00" fill="#ffffff">hasProperty</text>
</a>
</g>
</g>
<!-- hasConvention -->
<g id="node31" class="node">
<title>hasConvention</title>
<g id="a_node31"><a xlink:href="http://emmo.info/emmo/top/semiotics#EMMO_eb3518bf_f799_4f9e_8c3e_ce59af11453b" xlink:title="hasConvention">
<polygon fill="#0079ba" stroke="#000000" points="802.5,-396 704.5,-396 704.5,-360 802.5,-360 802.5,-396"/>
<text text-anchor="middle" x="753.5" y="-374.3" font-family="Times,serif" font-size="14.00" fill="#ffffff">hasConvention</text>
</a>
</g>
</g>
<!-- hasProperty&#45;&gt;hasConvention -->
<g id="edge30" class="edge">
<title>hasProperty&#45;&gt;hasConvention</title>
<path fill="none" stroke="#000000" d="M684.7155,-324.1686C696.047,-333.0368 709.8464,-343.8363 722.1027,-353.4282"/>
<polygon fill="none" stroke="#000000" points="720.2598,-356.4303 730.2919,-359.8372 724.574,-350.9178 720.2598,-356.4303"/>
</g>
<!-- hasSpatioTemporalPart -->
<g id="node5" class="node">
<title>hasSpatioTemporalPart</title>
<g id="a_node5"><a xlink:href="http://emmo.info/emmo/top/physical#EMMO_6e046dd0_9634_4013_b2b1_9cc468087c83" xlink:title="hasSpatioTemporalPart">
<polygon fill="#0079ba" stroke="#000000" points="500.5,-180 356.5,-180 356.5,-144 500.5,-144 500.5,-180"/>
<text text-anchor="middle" x="428.5" y="-158.3" font-family="Times,serif" font-size="14.00" fill="#ffffff">hasSpatioTemporalPart</text>
</a>
</g>
</g>
<!-- hasProperPart -->
<g id="node8" class="node">
<title>hasProperPart</title>
<g id="a_node8"><a xlink:href="http://emmo.info/emmo/top/mereotopology#EMMO_9380ab64_0363_4804_b13f_3a8a94119a76" xlink:title="hasProperPart">
<polygon fill="#0079ba" stroke="#000000" points="405.5,-252 313.5,-252 313.5,-216 405.5,-216 405.5,-252"/>
<text text-anchor="middle" x="359.5" y="-230.3" font-family="Times,serif" font-size="14.00" fill="#ffffff">hasProperPart</text>
</a>
</g>
</g>
<!-- hasSpatioTemporalPart&#45;&gt;hasProperPart -->
<g id="edge29" class="edge">
<title>hasSpatioTemporalPart&#45;&gt;hasProperPart</title>
<path fill="none" stroke="#000000" d="M411.0884,-180.1686C402.979,-188.6306 393.1844,-198.8511 384.318,-208.1029"/>
<polygon fill="none" stroke="#000000" points="381.5382,-205.9451 377.146,-215.5867 386.5921,-210.7885 381.5382,-205.9451"/>
</g>
<!-- hasIndex -->
<g id="node6" class="node">
<title>hasIndex</title>
<g id="a_node6"><a xlink:href="http://emmo.info/emmo/top/semiotics#EMMO_297999d6_c9e4_4262_9536_bd524d1c6e21" xlink:title="hasIndex">
<polygon fill="#0079ba" stroke="#000000" points="886,-396 821,-396 821,-360 886,-360 886,-396"/>
<text text-anchor="middle" x="853.5" y="-374.3" font-family="Times,serif" font-size="14.00" fill="#ffffff">hasIndex</text>
</a>
</g>
</g>
<!-- hasSign -->
<g id="node25" class="node">
<title>hasSign</title>
<g id="a_node25"><a xlink:href="http://emmo.info/emmo/top/semiotics#EMMO_60577dea_9019_4537_ac41_80b0fb563d41" xlink:title="hasSign">
<polygon fill="#0079ba" stroke="#000000" points="883,-468 824,-468 824,-432 883,-432 883,-468"/>
<text text-anchor="middle" x="853.5" y="-446.3" font-family="Times,serif" font-size="14.00" fill="#ffffff">hasSign</text>
</a>
</g>
</g>
<!-- hasIndex&#45;&gt;hasSign -->
<g id="edge23" class="edge">
<title>hasIndex&#45;&gt;hasSign</title>
<path fill="none" stroke="#000000" d="M853.5,-396.1686C853.5,-403.869 853.5,-413.0257 853.5,-421.5834"/>
<polygon fill="none" stroke="#000000" points="850.0001,-421.5867 853.5,-431.5867 857.0001,-421.5868 850.0001,-421.5867"/>
</g>
<!-- hasProperParticipant -->
<g id="node7" class="node">
<title>hasProperParticipant</title>
<g id="a_node7"><a xlink:href="http://emmo.info/emmo/middle/holistic#EMMO_c5aae418_1622_4d02_93c5_21159e28e6c1" xlink:title="hasProperParticipant">
<polygon fill="#0079ba" stroke="#000000" points="648,-180 519,-180 519,-144 648,-144 648,-180"/>
<text text-anchor="middle" x="583.5" y="-158.3" font-family="Times,serif" font-size="14.00" fill="#ffffff">hasProperParticipant</text>
</a>
</g>
</g>
<!-- hasProperParticipant&#45;&gt;hasProperPart -->
<g id="edge13" class="edge">
<title>hasProperParticipant&#45;&gt;hasProperPart</title>
<path fill="none" stroke="#000000" d="M527.2645,-180.0757C493.0582,-191.0706 449.5349,-205.0602 415.3915,-216.0349"/>
<polygon fill="none" stroke="#000000" points="414.0217,-212.7987 405.5725,-219.191 416.1638,-219.4629 414.0217,-212.7987"/>
</g>
<!-- hasParticipant -->
<g id="node29" class="node">
<title>hasParticipant</title>
<g id="a_node29"><a xlink:href="http://emmo.info/emmo/middle/holistic#EMMO_ae2d1a96_bfa1_409a_a7d2_03d69e8a125a" xlink:title="hasParticipant">
<polygon fill="#0079ba" stroke="#000000" points="573,-252 480,-252 480,-216 573,-216 573,-252"/>
<text text-anchor="middle" x="526.5" y="-230.3" font-family="Times,serif" font-size="14.00" fill="#ffffff">hasParticipant</text>
</a>
</g>
</g>
<!-- hasProperParticipant&#45;&gt;hasParticipant -->
<g id="edge12" class="edge">
<title>hasProperParticipant&#45;&gt;hasParticipant</title>
<path fill="none" stroke="#000000" d="M569.1165,-180.1686C562.5514,-188.4614 554.6493,-198.443 547.4422,-207.5467"/>
<polygon fill="none" stroke="#000000" points="544.5401,-205.5738 541.0772,-215.5867 550.0284,-209.9187 544.5401,-205.5738"/>
</g>
<!-- hasPart -->
<g id="node13" class="node">
<title>hasPart</title>
<g id="a_node13"><a xlink:href="http://emmo.info/emmo/top/mereotopology#EMMO_17e27c22_37e1_468c_9dd7_95e137f73e7f" xlink:title="hasPart">
<polygon fill="#0079ba" stroke="#000000" points="553.5,-324 497.5,-324 497.5,-288 553.5,-288 553.5,-324"/>
<text text-anchor="middle" x="525.5" y="-302.3" font-family="Times,serif" font-size="14.00" fill="#ffffff">hasPart</text>
</a>
</g>
</g>
<!-- hasProperPart&#45;&gt;hasPart -->
<g id="edge31" class="edge">
<title>hasProperPart&#45;&gt;hasPart</title>
<path fill="none" stroke="#000000" d="M401.3888,-252.1686C428.046,-263.7308 462.2724,-278.576 488.0287,-289.7474"/>
<polygon fill="none" stroke="#000000" points="486.8849,-293.0663 497.4519,-293.8345 489.6704,-286.6443 486.8849,-293.0663"/>
</g>
<!-- hasContactWith -->
<g id="node9" class="node">
<title>hasContactWith</title>
<g id="a_node9"><a xlink:href="http://emmo.info/emmo/top/mereotopology#EMMO_4d6504f1_c470_4ce9_b941_bbbebc9ab05d" xlink:title="hasContactWith">
<polygon fill="#0079ba" stroke="#000000" points="686.5,-396 582.5,-396 582.5,-360 686.5,-360 686.5,-396"/>
<text text-anchor="middle" x="634.5" y="-374.3" font-family="Times,serif" font-size="14.00" fill="#ffffff">hasContactWith</text>
</a>
</g>
</g>
<!-- hasContactWith&#45;&gt;connected -->
<g id="edge20" class="edge">
<title>hasContactWith&#45;&gt;connected</title>
<path fill="none" stroke="#000000" d="M621.6305,-396.1686C615.8165,-404.3768 608.8304,-414.2394 602.4354,-423.2677"/>
<polygon fill="none" stroke="#000000" points="599.4669,-421.4034 596.5427,-431.5867 605.179,-425.4495 599.4669,-421.4034"/>
</g>
<!-- hasReferenceUnit -->
<g id="node10" class="node">
<title>hasReferenceUnit</title>
<g id="a_node10"><a xlink:href="http://emmo.info/emmo/middle/metrology#EMMO_67fc0a36_8dcb_4ffa_9a43_31074efa3296" xlink:title="hasReferenceUnit">
<polygon fill="#0079ba" stroke="#000000" points="265,-36 152,-36 152,0 265,0 265,-36"/>
<text text-anchor="middle" x="208.5" y="-14.3" font-family="Times,serif" font-size="14.00" fill="#ffffff">hasReferenceUnit</text>
</a>
</g>
</g>
<!-- hasSpatialDirectPart -->
<g id="node15" class="node">
<title>hasSpatialDirectPart</title>
<g id="a_node15"><a xlink:href="http://emmo.info/emmo/middle/reductionistic#EMMO_b2282816_b7a3_44c6_b2cb_3feff1ceb7fe" xlink:title="hasSpatialDirectPart">
<polygon fill="#0079ba" stroke="#000000" points="338.5,-108 210.5,-108 210.5,-72 338.5,-72 338.5,-108"/>
<text text-anchor="middle" x="274.5" y="-86.3" font-family="Times,serif" font-size="14.00" fill="#ffffff">hasSpatialDirectPart</text>
</a>
</g>
</g>
<!-- hasReferenceUnit&#45;&gt;hasSpatialDirectPart -->
<g id="edge25" class="edge">
<title>hasReferenceUnit&#45;&gt;hasSpatialDirectPart</title>
<path fill="none" stroke="#000000" d="M225.1546,-36.1686C232.9114,-44.6306 242.2802,-54.8511 250.761,-64.1029"/>
<polygon fill="none" stroke="#000000" points="248.2838,-66.5802 257.6212,-71.5867 253.4439,-61.8501 248.2838,-66.5802"/>
</g>
<!-- encloses -->
<g id="node11" class="node">
<title>encloses</title>
<g id="a_node11"><a xlink:href="http://emmo.info/emmo/top/mereotopology#EMMO_8c898653_1118_4682_9bbf_6cc334d16a99" xlink:title="encloses">
<polygon fill="#0079ba" stroke="#000000" points="564.5,-396 502.5,-396 502.5,-360 564.5,-360 564.5,-396"/>
<text text-anchor="middle" x="533.5" y="-374.3" font-family="Times,serif" font-size="14.00" fill="#ffffff">encloses</text>
</a>
</g>
</g>
<!-- encloses&#45;&gt;connected -->
<g id="edge3" class="edge">
<title>encloses&#45;&gt;connected</title>
<path fill="none" stroke="#000000" d="M546.1171,-396.1686C551.8172,-404.3768 558.6663,-414.2394 564.9359,-423.2677"/>
<polygon fill="none" stroke="#000000" points="562.1342,-425.3694 570.713,-431.5867 567.8838,-421.3766 562.1342,-425.3694"/>
</g>
<!-- connected&#45;&gt;mereotopological -->
<g id="edge4" class="edge">
<title>connected&#45;&gt;mereotopological</title>
<path fill="none" stroke="#000000" d="M583.5,-468.1686C583.5,-475.869 583.5,-485.0257 583.5,-493.5834"/>
<polygon fill="none" stroke="#000000" points="580.0001,-493.5867 583.5,-503.5867 587.0001,-493.5868 580.0001,-493.5867"/>
</g>
<!-- hasPart&#45;&gt;hasOverlapWith -->
<g id="edge16" class="edge">
<title>hasPart&#45;&gt;hasOverlapWith</title>
<path fill="none" stroke="#000000" d="M501.7798,-324.1686C490.0906,-333.1221 475.8312,-344.0442 463.2191,-353.7045"/>
<polygon fill="none" stroke="#000000" points="461.0231,-350.9778 455.2126,-359.8372 465.2797,-356.5349 461.0231,-350.9778"/>
</g>
<!-- hasPart&#45;&gt;encloses -->
<g id="edge15" class="edge">
<title>hasPart&#45;&gt;encloses</title>
<path fill="none" stroke="#000000" d="M527.5187,-324.1686C528.3743,-331.869 529.3917,-341.0257 530.3426,-349.5834"/>
<polygon fill="none" stroke="#000000" points="526.8711,-350.0344 531.4541,-359.5867 533.8283,-349.2614 526.8711,-350.0344"/>
</g>
<!-- hasQuantityValue -->
<g id="node14" class="node">
<title>hasQuantityValue</title>
<g id="a_node14"><a xlink:href="http://emmo.info/emmo/middle/metrology#EMMO_8ef3cd6d_ae58_4a8d_9fc0_ad8f49015cd0" xlink:title="hasQuantityValue">
<polygon fill="#0079ba" stroke="#000000" points="397.5,-36 283.5,-36 283.5,0 397.5,0 397.5,-36"/>
<text text-anchor="middle" x="340.5" y="-14.3" font-family="Times,serif" font-size="14.00" fill="#ffffff">hasQuantityValue</text>
</a>
</g>
</g>
<!-- hasQuantityValue&#45;&gt;hasSpatialDirectPart -->
<g id="edge28" class="edge">
<title>hasQuantityValue&#45;&gt;hasSpatialDirectPart</title>
<path fill="none" stroke="#000000" d="M323.8454,-36.1686C316.0886,-44.6306 306.7198,-54.8511 298.239,-64.1029"/>
<polygon fill="none" stroke="#000000" points="295.5561,-61.8501 291.3788,-71.5867 300.7162,-66.5802 295.5561,-61.8501"/>
</g>
<!-- hasSpatialPart -->
<g id="node28" class="node">
<title>hasSpatialPart</title>
<g id="a_node28"><a xlink:href="http://emmo.info/emmo/top/physical#EMMO_f68030be_94b8_4c61_a161_886468558054" xlink:title="hasSpatialPart">
<polygon fill="#0079ba" stroke="#000000" points="338.5,-180 244.5,-180 244.5,-144 338.5,-144 338.5,-180"/>
<text text-anchor="middle" x="291.5" y="-158.3" font-family="Times,serif" font-size="14.00" fill="#ffffff">hasSpatialPart</text>
</a>
</g>
</g>
<!-- hasSpatialDirectPart&#45;&gt;hasSpatialPart -->
<g id="edge9" class="edge">
<title>hasSpatialDirectPart&#45;&gt;hasSpatialPart</title>
<path fill="none" stroke="#000000" d="M278.7898,-108.1686C280.608,-115.869 282.7699,-125.0257 284.7905,-133.5834"/>
<polygon fill="none" stroke="#000000" points="281.4481,-134.6586 287.1524,-143.5867 288.2608,-133.05 281.4481,-134.6586"/>
</g>
<!-- overcrosses -->
<g id="node16" class="node">
<title>overcrosses</title>
<g id="a_node16"><a xlink:href="http://emmo.info/emmo/top/mereotopology#EMMO_9cb984ca_48ad_4864_b09e_50d3fff19420" xlink:title="overcrosses">
<polygon fill="#0079ba" stroke="#000000" points="471.5,-324 391.5,-324 391.5,-288 471.5,-288 471.5,-324"/>
<text text-anchor="middle" x="431.5" y="-302.3" font-family="Times,serif" font-size="14.00" fill="#ffffff">overcrosses</text>
</a>
</g>
</g>
<!-- overcrosses&#45;&gt;hasOverlapWith -->
<g id="edge14" class="edge">
<title>overcrosses&#45;&gt;hasOverlapWith</title>
<path fill="none" stroke="#000000" d="M431.5,-324.1686C431.5,-331.869 431.5,-341.0257 431.5,-349.5834"/>
<polygon fill="none" stroke="#000000" points="428.0001,-349.5867 431.5,-359.5867 435.0001,-349.5868 428.0001,-349.5867"/>
</g>
<!-- mereotopological&#45;&gt;EMMORelation -->
<g id="edge19" class="edge">
<title>mereotopological&#45;&gt;EMMORelation</title>
<path fill="none" stroke="#000000" d="M597.3788,-540.1686C603.7136,-548.4614 611.3384,-558.443 618.2926,-567.5467"/>
<polygon fill="none" stroke="#000000" points="615.5825,-569.7647 624.4343,-575.5867 621.1452,-565.5153 615.5825,-569.7647"/>
</g>
<!-- hasTemporalPart -->
<g id="node19" class="node">
<title>hasTemporalPart</title>
<g id="a_node19"><a xlink:href="http://emmo.info/emmo/top/physical#EMMO_7afbed84_7593_4a23_bd88_9d9c6b04e8f6" xlink:title="hasTemporalPart">
<polygon fill="#0079ba" stroke="#000000" points="126.5,-180 16.5,-180 16.5,-144 126.5,-144 126.5,-180"/>
<text text-anchor="middle" x="71.5" y="-158.3" font-family="Times,serif" font-size="14.00" fill="#ffffff">hasTemporalPart</text>
</a>
</g>
</g>
<!-- hasTemporalPart&#45;&gt;hasProperPart -->
<g id="edge1" class="edge">
<title>hasTemporalPart&#45;&gt;hasProperPart</title>
<path fill="none" stroke="#000000" d="M126.6222,-177.6451C129.6223,-178.4522 132.5963,-179.242 135.5,-180 192.535,-194.8897 258.127,-210.5296 303.528,-221.1228"/>
<polygon fill="none" stroke="#000000" points="302.937,-224.5788 313.4702,-223.4372 304.5241,-217.761 302.937,-224.5788"/>
</g>
<!-- hasModel -->
<g id="node20" class="node">
<title>hasModel</title>
<g id="a_node20"><a xlink:href="http://emmo.info/emmo/middle/models#EMMO_24c71baf_6db6_48b9_86c8_8c70cf36db0c" xlink:title="hasModel">
<polygon fill="#0079ba" stroke="#000000" points="1086,-324 1015,-324 1015,-288 1086,-288 1086,-324"/>
<text text-anchor="middle" x="1050.5" y="-302.3" font-family="Times,serif" font-size="14.00" fill="#ffffff">hasModel</text>
</a>
</g>
</g>
<!-- hasIcon -->
<g id="node30" class="node">
<title>hasIcon</title>
<g id="a_node30"><a xlink:href="http://emmo.info/emmo/top/semiotics#EMMO_39c3815d_8cae_4c8f_b2ff_eeba24bec455" xlink:title="hasIcon">
<polygon fill="#0079ba" stroke="#000000" points="1080,-396 1021,-396 1021,-360 1080,-360 1080,-396"/>
<text text-anchor="middle" x="1050.5" y="-374.3" font-family="Times,serif" font-size="14.00" fill="#ffffff">hasIcon</text>
</a>
</g>
</g>
<!-- hasModel&#45;&gt;hasIcon -->
<g id="edge2" class="edge">
<title>hasModel&#45;&gt;hasIcon</title>
<path fill="none" stroke="#000000" d="M1050.5,-324.1686C1050.5,-331.869 1050.5,-341.0257 1050.5,-349.5834"/>
<polygon fill="none" stroke="#000000" points="1047.0001,-349.5867 1050.5,-359.5867 1054.0001,-349.5868 1047.0001,-349.5867"/>
</g>
<!-- hasInterpretant -->
<g id="node21" class="node">
<title>hasInterpretant</title>
<g id="a_node21"><a xlink:href="http://emmo.info/emmo/top/semiotics#EMMO_7fb7fe7e_bdf9_4eeb_adad_e384dd5285c6" xlink:title="hasInterpretant">
<polygon fill="#0079ba" stroke="#000000" points="1002.5,-396 904.5,-396 904.5,-360 1002.5,-360 1002.5,-396"/>
<text text-anchor="middle" x="953.5" y="-374.3" font-family="Times,serif" font-size="14.00" fill="#ffffff">hasInterpretant</text>
</a>
</g>
</g>
<!-- hasInterpretant&#45;&gt;hasSign -->
<g id="edge27" class="edge">
<title>hasInterpretant&#45;&gt;hasSign</title>
<path fill="none" stroke="#000000" d="M928.2658,-396.1686C915.712,-405.2073 900.3717,-416.2524 886.8609,-425.9802"/>
<polygon fill="none" stroke="#000000" points="884.7964,-423.1537 878.7261,-431.8372 888.8866,-428.8345 884.7964,-423.1537"/>
</g>
<!-- hasVariable -->
<g id="node22" class="node">
<title>hasVariable</title>
<g id="a_node22"><a xlink:href="http://emmo.info/emmo/middle/math#EMMO_3446e167_c576_49d6_846c_215bb8878a55" xlink:title="hasVariable">
<polygon fill="#0079ba" stroke="#000000" points="801,-324 720,-324 720,-288 801,-288 801,-324"/>
<text text-anchor="middle" x="760.5" y="-302.3" font-family="Times,serif" font-size="14.00" fill="#ffffff">hasVariable</text>
</a>
</g>
</g>
<!-- hasVariable&#45;&gt;hasConvention -->
<g id="edge26" class="edge">
<title>hasVariable&#45;&gt;hasConvention</title>
<path fill="none" stroke="#000000" d="M758.7336,-324.1686C757.985,-331.869 757.0947,-341.0257 756.2627,-349.5834"/>
<polygon fill="none" stroke="#000000" points="752.7744,-349.2949 755.2902,-359.5867 759.7415,-349.9724 752.7744,-349.2949"/>
</g>
<!-- hasMember -->
<g id="node23" class="node">
<title>hasMember</title>
<g id="a_node23"><a xlink:href="http://emmo.info/emmo/top/mereotopology#EMMO_6b7276a4_4b9d_440a_b577_0277539c0fc4" xlink:title="hasMember">
<polygon fill="#0079ba" stroke="#000000" points="226.5,-180 144.5,-180 144.5,-144 226.5,-144 226.5,-180"/>
<text text-anchor="middle" x="185.5" y="-158.3" font-family="Times,serif" font-size="14.00" fill="#ffffff">hasMember</text>
</a>
</g>
</g>
<!-- hasMember&#45;&gt;hasProperPart -->
<g id="edge10" class="edge">
<title>hasMember&#45;&gt;hasProperPart</title>
<path fill="none" stroke="#000000" d="M226.7356,-179.063C250.5285,-188.9083 280.7053,-201.3953 306.2746,-211.9757"/>
<polygon fill="none" stroke="#000000" points="305.2474,-215.3384 315.8258,-215.9279 307.9239,-208.8703 305.2474,-215.3384"/>
</g>
<!-- hasTemporalDirectPart -->
<g id="node24" class="node">
<title>hasTemporalDirectPart</title>
<g id="a_node24"><a xlink:href="http://emmo.info/emmo/middle/reductionistic#EMMO_65a2c5b8_e4d8_4a51_b2f8_e55effc0547d" xlink:title="hasTemporalDirectPart">
<polygon fill="#0079ba" stroke="#000000" points="143,-108 0,-108 0,-72 143,-72 143,-108"/>
<text text-anchor="middle" x="71.5" y="-86.3" font-family="Times,serif" font-size="14.00" fill="#ffffff">hasTemporalDirectPart</text>
</a>
</g>
</g>
<!-- hasTemporalDirectPart&#45;&gt;hasTemporalPart -->
<g id="edge17" class="edge">
<title>hasTemporalDirectPart&#45;&gt;hasTemporalPart</title>
<path fill="none" stroke="#000000" d="M71.5,-108.1686C71.5,-115.869 71.5,-125.0257 71.5,-133.5834"/>
<polygon fill="none" stroke="#000000" points="68.0001,-133.5867 71.5,-143.5867 75.0001,-133.5868 68.0001,-133.5867"/>
</g>
<!-- hasSign&#45;&gt;semiotical -->
<g id="edge5" class="edge">
<title>hasSign&#45;&gt;semiotical</title>
<path fill="none" stroke="#000000" d="M839.6212,-468.1686C833.2864,-476.4614 825.6616,-486.443 818.7074,-495.5467"/>
<polygon fill="none" stroke="#000000" points="815.8548,-493.5153 812.5657,-503.5867 821.4175,-497.7647 815.8548,-493.5153"/>
</g>
<!-- hasSpatioTemporalDirectPart -->
<g id="node26" class="node">
<title>hasSpatioTemporalDirectPart</title>
<g id="a_node26"><a xlink:href="http://emmo.info/emmo/middle/reductionistic#EMMO_663859e5_add3_4c9e_96fb_c99399de278d" xlink:title="hasSpatioTemporalDirectPart">
<polygon fill="#0079ba" stroke="#000000" points="534.5,-108 356.5,-108 356.5,-72 534.5,-72 534.5,-108"/>
<text text-anchor="middle" x="445.5" y="-86.3" font-family="Times,serif" font-size="14.00" fill="#ffffff">hasSpatioTemporalDirectPart</text>
</a>
</g>
</g>
<!-- hasSpatioTemporalDirectPart&#45;&gt;hasSpatioTemporalPart -->
<g id="edge32" class="edge">
<title>hasSpatioTemporalDirectPart&#45;&gt;hasSpatioTemporalPart</title>
<path fill="none" stroke="#000000" d="M441.2102,-108.1686C439.392,-115.869 437.2301,-125.0257 435.2095,-133.5834"/>
<polygon fill="none" stroke="#000000" points="431.7392,-133.05 432.8476,-143.5867 438.5519,-134.6586 431.7392,-133.05"/>
</g>
<!-- hasPhysicsDimension -->
<g id="node27" class="node">
<title>hasPhysicsDimension</title>
<g id="a_node27"><a xlink:href="http://emmo.info/emmo/middle/metrology#EMMO_bed1d005_b04e_4a90_94cf_02bc678a8569" xlink:title="hasPhysicsDimension">
<polygon fill="#0079ba" stroke="#000000" points="729.5,-252 593.5,-252 593.5,-216 729.5,-216 729.5,-252"/>
<text text-anchor="middle" x="661.5" y="-230.3" font-family="Times,serif" font-size="14.00" fill="#ffffff">hasPhysicsDimension</text>
</a>
</g>
</g>
<!-- hasPhysicsDimension&#45;&gt;hasProperty -->
<g id="edge7" class="edge">
<title>hasPhysicsDimension&#45;&gt;hasProperty</title>
<path fill="none" stroke="#000000" d="M661.5,-252.1686C661.5,-259.869 661.5,-269.0257 661.5,-277.5834"/>
<polygon fill="none" stroke="#000000" points="658.0001,-277.5867 661.5,-287.5867 665.0001,-277.5868 658.0001,-277.5867"/>
</g>
<!-- hasSpatialPart&#45;&gt;hasProperPart -->
<g id="edge6" class="edge">
<title>hasSpatialPart&#45;&gt;hasProperPart</title>
<path fill="none" stroke="#000000" d="M308.6593,-180.1686C316.6511,-188.6306 326.3038,-198.8511 335.0416,-208.1029"/>
<polygon fill="none" stroke="#000000" points="332.6989,-210.7198 342.1097,-215.5867 337.788,-205.9134 332.6989,-210.7198"/>
</g>
<!-- hasParticipant&#45;&gt;hasPart -->
<g id="edge22" class="edge">
<title>hasParticipant&#45;&gt;hasPart</title>
<path fill="none" stroke="#000000" d="M526.2477,-252.1686C526.1407,-259.869 526.0135,-269.0257 525.8947,-277.5834"/>
<polygon fill="none" stroke="#000000" points="522.3951,-277.5391 525.7557,-287.5867 529.3944,-277.6363 522.3951,-277.5391"/>
</g>
<!-- hasIcon&#45;&gt;hasSign -->
<g id="edge21" class="edge">
<title>hasIcon&#45;&gt;hasSign</title>
<path fill="none" stroke="#000000" d="M1020.8271,-392.0782C1017.6971,-393.4481 1014.546,-394.7803 1011.5,-396 971.7971,-411.8978 925.3804,-427.4064 893.1745,-437.6944"/>
<polygon fill="none" stroke="#000000" points="891.7172,-434.4847 883.2439,-440.8451 893.8341,-441.157 891.7172,-434.4847"/>
</g>
<!-- hasConvention&#45;&gt;hasSign -->
<g id="edge8" class="edge">
<title>hasConvention&#45;&gt;hasSign</title>
<path fill="none" stroke="#000000" d="M778.7342,-396.1686C791.288,-405.2073 806.6283,-416.2524 820.1391,-425.9802"/>
<polygon fill="none" stroke="#000000" points="818.1134,-428.8345 828.2739,-431.8372 822.2036,-423.1537 818.1134,-428.8345"/>
</g>
<!-- key1 -->
<g id="node32" class="node">
<title>key1</title>
<text text-anchor="start" x="433.5" y="-13.8" font-family="Times,serif" font-size="14.00" fill="#000000">isA</text>
</g>
<!-- key2 -->
<g id="node33" class="node">
<title>key2</title>
<text text-anchor="start" x="512.5" y="-13.8" font-family="Times,serif" font-size="14.00" fill="#000000"> </text>
</g>
<!-- key1&#45;&gt;key2 -->
<g id="edge33" class="edge">
<title>key1:e&#45;&gt;key2:w</title>
<path fill="none" stroke="#000000" d="M454.5,-19C475.5,-19 483.2109,-19 500.0581,-19"/>
<polygon fill="none" stroke="#000000" points="500.5,-22.5001 510.5,-19 500.5,-15.5001 500.5,-22.5001"/>
</g>
</g>
</svg>
