<?xml version="1.0" encoding="UTF-8" standalone="no"?>
<!DOCTYPE svg PUBLIC "-//W3C//DTD SVG 1.1//EN"
 "http://www.w3.org/Graphics/SVG/1.1/DTD/svg11.dtd">
<!-- Generated by graphviz version 2.40.1 (20161225.0304)
 -->
<!-- Title: %3 Pages: 1 -->
<svg width="454pt" height="308pt"
 viewBox="0.00 0.00 454.35 308.00" xmlns="http://www.w3.org/2000/svg" xmlns:xlink="http://www.w3.org/1999/xlink">
<g id="graph0" class="graph" transform="scale(1 1) rotate(0) translate(4 304)">
<title>%3</title>
<polygon fill="#ffffff" stroke="transparent" points="-4,4 -4,-304 450.3454,-304 450.3454,4 -4,4"/>
<!-- Perspective -->
<g id="node1" class="node">
<title>Perspective</title>
<g id="a_node1"><a xlink:href="http://emmo.info/emmo/top#EMMO_49267eba_5548_4163_8f36_518d65b583f9" xlink:title="Perspective">
<ellipse fill="#ffffcc" stroke="#000000" stroke-width="2" cx="51.3454" cy="-42" rx="51.1914" ry="18"/>
<text text-anchor="middle" x="51.3454" y="-38.3" font-family="Times,serif" font-size="14.00" fill="#000000">Perspective</text>
</a>
</g>
</g>
<!-- Physical -->
<g id="node4" class="node">
<title>Physical</title>
<g id="a_node4"><a xlink:href="http://emmo.info/emmo/top/physical#EMMO_c5ddfdba_c074_4aa4_ad6b_1ac4942d300d" xlink:title="Physical">
<ellipse fill="#ffffcc" stroke="#000000" cx="111.3454" cy="-138" rx="40.0939" ry="18"/>
<text text-anchor="middle" x="111.3454" y="-134.3" font-family="Times,serif" font-size="14.00" fill="#000000">Physical</text>
</a>
</g>
</g>
<!-- Perspective&#45;&gt;Physical -->
<g id="edge6" class="edge">
<title>Perspective&#45;&gt;Physical</title>
<path fill="none" stroke="#000000" d="M62.3504,-59.6079C71.4847,-74.2229 84.6103,-95.2238 94.9774,-111.8112"/>
<polygon fill="none" stroke="#000000" points="92.1423,-113.8788 100.4103,-120.5037 98.0783,-110.1687 92.1423,-113.8788"/>
</g>
<!-- EMMO -->
<g id="node2" class="node">
<title>EMMO</title>
<g id="a_node2"><a xlink:href="http://emmo.info/emmo/top/mereotopology#EMMO_802d3e92_8770_4f98_a289_ccaaab7fdddf" xlink:title="EMMO">
<ellipse fill="#ffc880" stroke="#000000" stroke-width="2" cx="258.3454" cy="-282" rx="38.9931" ry="18"/>
<text text-anchor="middle" x="258.3454" y="-278.3" font-family="Times,serif" font-size="14.00" fill="#000000">EMMO</text>
</a>
</g>
</g>
<!-- Quantum -->
<g id="node8" class="node">
<title>Quantum</title>
<g id="a_node8"><a xlink:href="http://emmo.info/emmo/top/mereotopology#EMMO_3f9ae00e_810c_4518_aec2_7200e424cf68" xlink:title="Quantum">
<ellipse fill="#ffffcc" stroke="#000000" cx="231.3454" cy="-138" rx="44.393" ry="18"/>
<text text-anchor="middle" x="231.3454" y="-134.3" font-family="Times,serif" font-size="14.00" fill="#000000">Quantum</text>
</a>
</g>
</g>
<!-- EMMO&#45;&gt;Quantum -->
<g id="edge12" class="edge">
<title>EMMO&#45;&gt;Quantum</title>
<path fill="none" stroke="#0000ff" d="M264.1705,-264.0133C269.2232,-245.5557 274.6717,-216.1969 267.3454,-192 264.2599,-181.8092 258.5469,-171.7838 252.5666,-163.1903"/>
<polygon fill="#0000ff" stroke="#0000ff" points="255.3516,-161.07 246.5846,-155.121 249.7283,-165.2388 255.3516,-161.07"/>
</g>
<!-- Item -->
<g id="node3" class="node">
<title>Item</title>
<g id="a_node3"><a xlink:href="http://emmo.info/emmo/top/mereotopology#EMMO_eb3a768e_d53e_4be9_a23b_0714833c36de" xlink:title="Item">
<ellipse fill="#ffffcc" stroke="#000000" cx="231.3454" cy="-210" rx="27.0966" ry="18"/>
<text text-anchor="middle" x="231.3454" y="-206.3" font-family="Times,serif" font-size="14.00" fill="#000000">Item</text>
</a>
</g>
</g>
<!-- Item&#45;&gt;EMMO -->
<g id="edge1" class="edge">
<title>Item&#45;&gt;EMMO</title>
<path fill="none" stroke="#000000" d="M238.0196,-227.7978C241.0701,-235.9325 244.7517,-245.7499 248.1386,-254.7819"/>
<polygon fill="none" stroke="#000000" points="244.866,-256.0231 251.6545,-264.1575 251.4203,-253.5652 244.866,-256.0231"/>
</g>
<!-- Physical&#45;&gt;Item -->
<g id="edge7" class="edge">
<title>Physical&#45;&gt;Item</title>
<path fill="none" stroke="#000000" d="M135.6292,-152.5703C154.9581,-164.1676 182.062,-180.43 202.4959,-192.6903"/>
<polygon fill="none" stroke="#000000" points="200.7067,-195.6984 211.0824,-197.8422 204.3082,-189.6959 200.7067,-195.6984"/>
</g>
<!-- Physical&#45;&gt;Physical -->
<g id="edge9" class="edge">
<title>Physical&#45;&gt;Physical</title>
<path fill="none" stroke="#ff00ff" d="M139.8393,-125.1007C155.3945,-122.8018 169.6419,-127.1016 169.6419,-138 169.6419,-146.4293 161.119,-150.9112 150.0601,-151.4457"/>
<polygon fill="#ff00ff" stroke="#ff00ff" points="150.0119,-147.9382 139.8393,-150.8993 149.6382,-154.9282 150.0119,-147.9382"/>
</g>
<!-- Elementary -->
<g id="node5" class="node">
<title>Elementary</title>
<g id="a_node5"><a xlink:href="http://emmo.info/emmo/top/physical#EMMO_0f795e3e_c602_4577_9a43_d5a231aa1360" xlink:title="Elementary">
<ellipse fill="#ffffcc" stroke="#000000" stroke-width="2" cx="172.3454" cy="-42" rx="51.9908" ry="18"/>
<text text-anchor="middle" x="172.3454" y="-38.3" font-family="Times,serif" font-size="14.00" fill="#000000">Elementary</text>
</a>
</g>
</g>
<!-- Physical&#45;&gt;Elementary -->
<g id="edge8" class="edge">
<title>Physical&#45;&gt;Elementary</title>
<path fill="none" stroke="#0000ff" d="M127.2146,-121.3089C138.0209,-106.8671 151.7493,-85.7178 161.3914,-68.8906"/>
<polygon fill="#0000ff" stroke="#0000ff" points="164.5006,-70.5007 166.2833,-60.0569 158.3769,-67.1095 164.5006,-70.5007"/>
</g>
<!-- Elementary&#45;&gt;Physical -->
<g id="edge2" class="edge">
<title>Elementary&#45;&gt;Physical</title>
<path fill="none" stroke="#000000" d="M156.124,-59.1629C145.3412,-73.6334 131.7569,-94.5882 122.2149,-111.2571"/>
<polygon fill="none" stroke="#000000" points="119.1518,-109.5638 117.373,-120.0083 125.2768,-112.9527 119.1518,-109.5638"/>
</g>
<!-- Elementary&#45;&gt;Elementary -->
<g id="edge3" class="edge">
<title>Elementary&#45;&gt;Elementary</title>
<path fill="none" stroke="#ff00ff" d="M199.2827,-26.4269C220.5349,-20.4027 242.3408,-25.5938 242.3408,-42 242.3408,-55.8428 226.8169,-61.7013 209.1999,-59.5755"/>
<polygon fill="#ff00ff" stroke="#ff00ff" points="209.7776,-56.1216 199.2827,-57.5731 208.3921,-62.9831 209.7776,-56.1216"/>
</g>
<!-- Void -->
<g id="node6" class="node">
<title>Void</title>
<g id="a_node6"><a xlink:href="http://emmo.info/emmo/top/physical#EMMO_29072ec4_ffcb_42fb_bdc7_26f05a2e9873" xlink:title="Void">
<ellipse fill="#ffffcc" stroke="#000000" cx="322.3454" cy="-138" rx="28.6953" ry="18"/>
<text text-anchor="middle" x="322.3454" y="-134.3" font-family="Times,serif" font-size="14.00" fill="#000000">Void</text>
</a>
</g>
</g>
<!-- Void&#45;&gt;Item -->
<g id="edge4" class="edge">
<title>Void&#45;&gt;Item</title>
<path fill="none" stroke="#000000" d="M304.3668,-152.2249C290.8186,-162.9443 272.0557,-177.7897 256.9419,-189.7478"/>
<polygon fill="none" stroke="#000000" points="254.6476,-187.1 248.9771,-196.0497 258.9911,-192.5896 254.6476,-187.1"/>
</g>
<!-- Void&#45;&gt;Void -->
<g id="edge5" class="edge">
<title>Void&#45;&gt;Void</title>
<path fill="none" stroke="#0000ff" d="M343.4311,-125.4525C356.5029,-122.4269 368.9429,-126.6094 368.9429,-138 368.9429,-146.365 362.2339,-150.8426 353.4927,-151.4328"/>
<polygon fill="#0000ff" stroke="#0000ff" points="353.6995,-147.9376 343.4311,-150.5475 353.0858,-154.9106 353.6995,-147.9376"/>
</g>
<!-- Collection -->
<g id="node7" class="node">
<title>Collection</title>
<g id="a_node7"><a xlink:href="http://emmo.info/emmo/top/mereotopology#EMMO_2d2ecd97_067f_4d0e_950c_d746b7700a31" xlink:title="Collection">
<ellipse fill="#ffffcc" stroke="#000000" cx="361.3454" cy="-210" rx="47.3916" ry="18"/>
<text text-anchor="middle" x="361.3454" y="-206.3" font-family="Times,serif" font-size="14.00" fill="#000000">Collection</text>
</a>
</g>
</g>
<!-- Collection&#45;&gt;EMMO -->
<g id="edge10" class="edge">
<title>Collection&#45;&gt;EMMO</title>
<path fill="none" stroke="#000000" d="M338.4864,-225.9791C323.7845,-236.2562 304.5166,-249.725 288.5582,-260.8804"/>
<polygon fill="none" stroke="#000000" points="286.2737,-258.2069 280.0829,-266.8049 290.2842,-263.9442 286.2737,-258.2069"/>
</g>
<!-- Collection&#45;&gt;Item -->
<g id="edge11" class="edge">
<title>Collection&#45;&gt;Item</title>
<path fill="none" stroke="#0000ff" stroke-dasharray="5,2" d="M313.6626,-210C298.7952,-210 283.9277,-210 269.0602,-210"/>
<polygon fill="#0000ff" stroke="#0000ff" points="268.7674,-206.5001 258.7673,-210 268.7673,-213.5001 268.7674,-206.5001"/>
</g>
<!-- Quantum&#45;&gt;Item -->
<g id="edge13" class="edge">
<title>Quantum&#45;&gt;Item</title>
<path fill="none" stroke="#000000" d="M231.3454,-156.1686C231.3454,-163.869 231.3454,-173.0257 231.3454,-181.5834"/>
<polygon fill="none" stroke="#000000" points="227.8455,-181.5867 231.3454,-191.5867 234.8455,-181.5868 227.8455,-181.5867"/>
</g>
<!-- key1 -->
<g id="node9" class="node">
<title>key1</title>
<text text-anchor="start" x="345.3454" y="-66.8" font-family="Times,serif" font-size="14.00" fill="#000000">isA</text>
<text text-anchor="start" x="298.3454" y="-47.8" font-family="Times,serif" font-size="14.00" fill="#000000">hasMember</text>
<text text-anchor="start" x="324.3454" y="-28.8" font-family="Times,serif" font-size="14.00" fill="#000000">hasPart</text>
<text text-anchor="start" x="270.3454" y="-9.8" font-family="Times,serif" font-size="14.00" fill="#000000">hasTemporalPart</text>
</g>
<!-- key2 -->
<g id="node10" class="node">
<title>key2</title>
<text text-anchor="start" x="417.3454" y="-66.8" font-family="Times,serif" font-size="14.00" fill="#000000"> </text>
<text text-anchor="start" x="417.3454" y="-47.8" font-family="Times,serif" font-size="14.00" fill="#000000"> </text>
<text text-anchor="start" x="417.3454" y="-28.8" font-family="Times,serif" font-size="14.00" fill="#000000"> </text>
<text text-anchor="start" x="417.3454" y="-9.8" font-family="Times,serif" font-size="14.00" fill="#000000"> </text>
</g>
<!-- key1&#45;&gt;key2 -->
<g id="edge14" class="edge">
<title>key1:e&#45;&gt;key2:w</title>
<path fill="none" stroke="#ff00ff" d="M366.3454,-13C384.21,-13 391.0837,-13 404.9984,-13"/>
<polygon fill="#ff00ff" stroke="#ff00ff" points="405.3455,-16.5001 415.3454,-13 405.3454,-9.5001 405.3455,-16.5001"/>
</g>
<!-- key1&#45;&gt;key2 -->
<g id="edge15" class="edge">
<title>key1:e&#45;&gt;key2:w</title>
<path fill="none" stroke="#0000ff" d="M366.3454,-32C384.21,-32 391.0837,-32 404.9984,-32"/>
<polygon fill="#0000ff" stroke="#0000ff" points="405.3455,-35.5001 415.3454,-32 405.3454,-28.5001 405.3455,-35.5001"/>
</g>
<!-- key1&#45;&gt;key2 -->
<g id="edge16" class="edge">
<title>key1:e&#45;&gt;key2:w</title>
<path fill="none" stroke="#0000ff" stroke-dasharray="5,2" d="M366.3454,-52C384.21,-52 391.0837,-52 404.9984,-52"/>
<polygon fill="#0000ff" stroke="#0000ff" points="405.3455,-55.5001 415.3454,-52 405.3454,-48.5001 405.3455,-55.5001"/>
</g>
<!-- key1&#45;&gt;key2 -->
<g id="edge17" class="edge">
<title>key1:e&#45;&gt;key2:w</title>
<path fill="none" stroke="#000000" d="M366.3454,-71C384.21,-71 391.0837,-71 404.9984,-71"/>
<polygon fill="none" stroke="#000000" points="405.3455,-74.5001 415.3454,-71 405.3454,-67.5001 405.3455,-74.5001"/>
</g>
</g>
</svg>
