<?xml version="1.0" encoding="UTF-8" standalone="no"?>
<!DOCTYPE svg PUBLIC "-//W3C//DTD SVG 1.1//EN"
 "http://www.w3.org/Graphics/SVG/1.1/DTD/svg11.dtd">
<!-- Generated by graphviz version 2.40.1 (20161225.0304)
 -->
<!-- Title: %3 Pages: 1 -->
<svg width="826pt" height="740pt"
 viewBox="0.00 0.00 826.00 740.00" xmlns="http://www.w3.org/2000/svg" xmlns:xlink="http://www.w3.org/1999/xlink">
<g id="graph0" class="graph" transform="scale(1 1) rotate(0) translate(4 736)">
<title>%3</title>
<polygon fill="#ffffff" stroke="transparent" points="-4,4 -4,-736 822,-736 822,4 -4,4"/>
<!-- hasMember -->
<g id="node1" class="node">
<title>hasMember</title>
<g id="a_node1"><a xlink:href="http://emmo.info/emmo/top/mereotopology#EMMO_6b7276a4_4b9d_440a_b577_0277539c0fc4" xlink:title="hasMember">
<polygon fill="#0079ba" stroke="#000000" points="268.5,-210 186.5,-210 186.5,-174 268.5,-174 268.5,-210"/>
<text text-anchor="middle" x="227.5" y="-188.3" font-family="Times,serif" font-size="14.00" fill="#ffffff">hasMember</text>
</a>
</g>
</g>
<!-- hasProperPart -->
<g id="node18" class="node">
<title>hasProperPart</title>
<g id="a_node18"><a xlink:href="http://emmo.info/emmo/top/mereotopology#EMMO_9380ab64_0363_4804_b13f_3a8a94119a76" xlink:title="hasProperPart">
<polygon fill="#0079ba" stroke="#000000" points="593.5,-297 501.5,-297 501.5,-261 593.5,-261 593.5,-297"/>
<text text-anchor="middle" x="547.5" y="-275.3" font-family="Times,serif" font-size="14.00" fill="#ffffff">hasProperPart</text>
</a>
</g>
</g>
<!-- hasMember&#45;&gt;hasProperPart -->
<g id="edge1" class="edge">
<title>hasMember&#45;&gt;hasProperPart</title>
<path fill="none" stroke="#000000" d="M268.5962,-207.1457C271.5986,-208.1442 274.5895,-209.1064 277.5,-210 350.6486,-232.4575 436.4671,-253.5022 491.3817,-266.3082"/>
<polygon fill="none" stroke="#000000" points="490.7335,-269.7507 501.2658,-268.602 492.3159,-262.9319 490.7335,-269.7507"/>
<text text-anchor="middle" x="405" y="-231.8" font-family="Times,serif" font-size="14.00" fill="#000000">isA</text>
</g>
<!-- mereotopological -->
<g id="node2" class="node">
<title>mereotopological</title>
<g id="a_node2"><a xlink:href="http://emmo.info/emmo/top/mereotopology#EMMO_03212fd7_abfd_4828_9c8e_62c293052d4b" xlink:title="mereotopological">
<polygon fill="#0079ba" stroke="#000000" points="406.5,-645 294.5,-645 294.5,-609 406.5,-609 406.5,-645"/>
<text text-anchor="middle" x="350.5" y="-623.3" font-family="Times,serif" font-size="14.00" fill="#ffffff">mereotopological</text>
</a>
</g>
</g>
<!-- EMMORelation -->
<g id="node5" class="node">
<title>EMMORelation</title>
<g id="a_node5"><a xlink:href="http://emmo.info/emmo/top/mereotopology#EMMO_ec2472ae_cf4a_46a5_8555_1556f5a6c3c5" xlink:title="EMMORelation">
<polygon fill="#0079ba" stroke="#000000" stroke-width="2" points="344.5,-732 238.5,-732 238.5,-696 344.5,-696 344.5,-732"/>
<text text-anchor="middle" x="291.5" y="-710.3" font-family="Times,serif" font-size="14.00" fill="#ffffff">EMMORelation</text>
</a>
</g>
</g>
<!-- mereotopological&#45;&gt;EMMORelation -->
<g id="edge9" class="edge">
<title>mereotopological&#45;&gt;EMMORelation</title>
<path fill="none" stroke="#000000" d="M338.2752,-645.0265C329.9688,-657.2748 318.8411,-673.6835 309.5232,-687.4234"/>
<polygon fill="none" stroke="#000000" points="306.4252,-685.7558 303.7092,-695.9966 312.2186,-689.6847 306.4252,-685.7558"/>
<text text-anchor="middle" x="335" y="-666.8" font-family="Times,serif" font-size="14.00" fill="#000000">isA</text>
</g>
<!-- hasQuantityValue -->
<g id="node3" class="node">
<title>hasQuantityValue</title>
<g id="a_node3"><a xlink:href="http://emmo.info/emmo/middle/units#EMMO_8ef3cd6d_ae58_4a8d_9fc0_ad8f49015cd0" xlink:title="hasQuantityValue">
<polygon fill="#0079ba" stroke="#000000" points="486.5,-36 372.5,-36 372.5,0 486.5,0 486.5,-36"/>
<text text-anchor="middle" x="429.5" y="-14.3" font-family="Times,serif" font-size="14.00" fill="#ffffff">hasQuantityValue</text>
</a>
</g>
</g>
<!-- hasSpatialDirectPart -->
<g id="node23" class="node">
<title>hasSpatialDirectPart</title>
<g id="a_node23"><a xlink:href="http://emmo.info/emmo/middle/reductionistic#EMMO_b2282816_b7a3_44c6_b2cb_3feff1ceb7fe" xlink:title="hasSpatialDirectPart">
<polygon fill="#0079ba" stroke="#000000" points="559.5,-123 431.5,-123 431.5,-87 559.5,-87 559.5,-123"/>
<text text-anchor="middle" x="495.5" y="-101.3" font-family="Times,serif" font-size="14.00" fill="#ffffff">hasSpatialDirectPart</text>
</a>
</g>
</g>
<!-- hasQuantityValue&#45;&gt;hasSpatialDirectPart -->
<g id="edge31" class="edge">
<title>hasQuantityValue&#45;&gt;hasSpatialDirectPart</title>
<path fill="none" stroke="#000000" d="M443.1752,-36.0265C452.5556,-48.3915 465.1525,-64.9964 475.6357,-78.8153"/>
<polygon fill="none" stroke="#000000" points="473.0099,-81.1451 481.8423,-86.9966 478.5868,-76.9143 473.0099,-81.1451"/>
<text text-anchor="middle" x="476" y="-57.8" font-family="Times,serif" font-size="14.00" fill="#000000">isA</text>
</g>
<!-- hasInterpretant -->
<g id="node4" class="node">
<title>hasInterpretant</title>
<g id="a_node4"><a xlink:href="http://emmo.info/emmo/top/semiotics#EMMO_7fb7fe7e_bdf9_4eeb_adad_e384dd5285c6" xlink:title="hasInterpretant">
<polygon fill="#0079ba" stroke="#000000" points="380.5,-471 282.5,-471 282.5,-435 380.5,-435 380.5,-471"/>
<text text-anchor="middle" x="331.5" y="-449.3" font-family="Times,serif" font-size="14.00" fill="#ffffff">hasInterpretant</text>
</a>
</g>
</g>
<!-- hasSign -->
<g id="node27" class="node">
<title>hasSign</title>
<g id="a_node27"><a xlink:href="http://emmo.info/emmo/top/semiotics#EMMO_60577dea_9019_4537_ac41_80b0fb563d41" xlink:title="hasSign">
<polygon fill="#0079ba" stroke="#000000" points="245,-558 186,-558 186,-522 245,-522 245,-558"/>
<text text-anchor="middle" x="215.5" y="-536.3" font-family="Times,serif" font-size="14.00" fill="#ffffff">hasSign</text>
</a>
</g>
</g>
<!-- hasInterpretant&#45;&gt;hasSign -->
<g id="edge22" class="edge">
<title>hasInterpretant&#45;&gt;hasSign</title>
<path fill="none" stroke="#000000" d="M307.4647,-471.0265C290.1226,-484.0331 266.5254,-501.731 247.5762,-515.9429"/>
<polygon fill="none" stroke="#000000" points="245.4045,-513.1966 239.5045,-521.9966 249.6045,-518.7966 245.4045,-513.1966"/>
<text text-anchor="middle" x="290" y="-492.8" font-family="Times,serif" font-size="14.00" fill="#000000">isA</text>
</g>
<!-- hasModel -->
<g id="node6" class="node">
<title>hasModel</title>
<g id="a_node6"><a xlink:href="http://emmo.info/emmo/middle/models#EMMO_24c71baf_6db6_48b9_86c8_8c70cf36db0c" xlink:title="hasModel">
<polygon fill="#0079ba" stroke="#000000" points="71,-384 0,-384 0,-348 71,-348 71,-384"/>
<text text-anchor="middle" x="35.5" y="-362.3" font-family="Times,serif" font-size="14.00" fill="#ffffff">hasModel</text>
</a>
</g>
</g>
<!-- hasIcon -->
<g id="node26" class="node">
<title>hasIcon</title>
<g id="a_node26"><a xlink:href="http://emmo.info/emmo/top/semiotics#EMMO_39c3815d_8cae_4c8f_b2ff_eeba24bec455" xlink:title="hasIcon">
<polygon fill="#0079ba" stroke="#000000" points="65,-471 6,-471 6,-435 65,-435 65,-471"/>
<text text-anchor="middle" x="35.5" y="-449.3" font-family="Times,serif" font-size="14.00" fill="#ffffff">hasIcon</text>
</a>
</g>
</g>
<!-- hasModel&#45;&gt;hasIcon -->
<g id="edge24" class="edge">
<title>hasModel&#45;&gt;hasIcon</title>
<path fill="none" stroke="#000000" d="M35.5,-384.0265C35.5,-395.8082 35.5,-411.4393 35.5,-424.8419"/>
<polygon fill="none" stroke="#000000" points="32.0001,-424.9966 35.5,-434.9966 39.0001,-424.9967 32.0001,-424.9966"/>
<text text-anchor="middle" x="45" y="-405.8" font-family="Times,serif" font-size="14.00" fill="#000000">isA</text>
</g>
<!-- hasVariable -->
<g id="node7" class="node">
<title>hasVariable</title>
<g id="a_node7"><a xlink:href="http://emmo.info/emmo/middle/math#EMMO_3446e167_c576_49d6_846c_215bb8878a55" xlink:title="hasVariable">
<polygon fill="#0079ba" stroke="#000000" points="298,-384 217,-384 217,-348 298,-348 298,-384"/>
<text text-anchor="middle" x="257.5" y="-362.3" font-family="Times,serif" font-size="14.00" fill="#ffffff">hasVariable</text>
</a>
</g>
</g>
<!-- hasConvention -->
<g id="node10" class="node">
<title>hasConvention</title>
<g id="a_node10"><a xlink:href="http://emmo.info/emmo/top/semiotics#EMMO_eb3518bf_f799_4f9e_8c3e_ce59af11453b" xlink:title="hasConvention">
<polygon fill="#0079ba" stroke="#000000" points="264.5,-471 166.5,-471 166.5,-435 264.5,-435 264.5,-471"/>
<text text-anchor="middle" x="215.5" y="-449.3" font-family="Times,serif" font-size="14.00" fill="#ffffff">hasConvention</text>
</a>
</g>
</g>
<!-- hasVariable&#45;&gt;hasConvention -->
<g id="edge32" class="edge">
<title>hasVariable&#45;&gt;hasConvention</title>
<path fill="none" stroke="#000000" d="M248.7976,-384.0265C242.9972,-396.0415 235.2642,-412.0599 228.7105,-425.6354"/>
<polygon fill="none" stroke="#000000" points="225.3869,-424.4695 224.1913,-434.9966 231.6908,-427.5128 225.3869,-424.4695"/>
<text text-anchor="middle" x="249" y="-405.8" font-family="Times,serif" font-size="14.00" fill="#000000">isA</text>
</g>
<!-- hasPhysicsDimension -->
<g id="node8" class="node">
<title>hasPhysicsDimension</title>
<g id="a_node8"><a xlink:href="http://emmo.info/emmo/middle/units#EMMO_bed1d005_b04e_4a90_94cf_02bc678a8569" xlink:title="hasPhysicsDimension">
<polygon fill="#0079ba" stroke="#000000" points="226.5,-297 90.5,-297 90.5,-261 226.5,-261 226.5,-297"/>
<text text-anchor="middle" x="158.5" y="-275.3" font-family="Times,serif" font-size="14.00" fill="#ffffff">hasPhysicsDimension</text>
</a>
</g>
</g>
<!-- hasProperty -->
<g id="node9" class="node">
<title>hasProperty</title>
<g id="a_node9"><a xlink:href="http://emmo.info/emmo/middle/properties#EMMO_e1097637_70d2_4895_973f_2396f04fa204" xlink:title="hasProperty">
<polygon fill="#0079ba" stroke="#000000" points="199,-384 118,-384 118,-348 199,-348 199,-384"/>
<text text-anchor="middle" x="158.5" y="-362.3" font-family="Times,serif" font-size="14.00" fill="#ffffff">hasProperty</text>
</a>
</g>
</g>
<!-- hasPhysicsDimension&#45;&gt;hasProperty -->
<g id="edge26" class="edge">
<title>hasPhysicsDimension&#45;&gt;hasProperty</title>
<path fill="none" stroke="#000000" d="M158.5,-297.0265C158.5,-308.8082 158.5,-324.4393 158.5,-337.8419"/>
<polygon fill="none" stroke="#000000" points="155.0001,-337.9966 158.5,-347.9966 162.0001,-337.9967 155.0001,-337.9966"/>
<text text-anchor="middle" x="168" y="-318.8" font-family="Times,serif" font-size="14.00" fill="#000000">isA</text>
</g>
<!-- hasProperty&#45;&gt;hasConvention -->
<g id="edge15" class="edge">
<title>hasProperty&#45;&gt;hasConvention</title>
<path fill="none" stroke="#000000" d="M170.3104,-384.0265C178.3352,-396.2748 189.0857,-412.6835 198.0878,-426.4234"/>
<polygon fill="none" stroke="#000000" points="195.2968,-428.5501 203.7047,-434.9966 201.152,-424.7139 195.2968,-428.5501"/>
<text text-anchor="middle" x="200" y="-405.8" font-family="Times,serif" font-size="14.00" fill="#000000">isA</text>
</g>
<!-- hasConvention&#45;&gt;hasSign -->
<g id="edge30" class="edge">
<title>hasConvention&#45;&gt;hasSign</title>
<path fill="none" stroke="#000000" d="M215.5,-471.0265C215.5,-482.8082 215.5,-498.4393 215.5,-511.8419"/>
<polygon fill="none" stroke="#000000" points="212.0001,-511.9966 215.5,-521.9966 219.0001,-511.9967 212.0001,-511.9966"/>
<text text-anchor="middle" x="225" y="-492.8" font-family="Times,serif" font-size="14.00" fill="#000000">isA</text>
</g>
<!-- semiotical -->
<g id="node11" class="node">
<title>semiotical</title>
<g id="a_node11"><a xlink:href="http://emmo.info/emmo/top/semiotics#EMMO_2337e25c_3c60_43fc_a8f9_b11a3f974291" xlink:title="semiotical">
<polygon fill="#0079ba" stroke="#000000" points="273,-645 200,-645 200,-609 273,-609 273,-645"/>
<text text-anchor="middle" x="236.5" y="-623.3" font-family="Times,serif" font-size="14.00" fill="#ffffff">semiotical</text>
</a>
</g>
</g>
<!-- semiotical&#45;&gt;EMMORelation -->
<g id="edge25" class="edge">
<title>semiotical&#45;&gt;EMMORelation</title>
<path fill="none" stroke="#000000" d="M247.896,-645.0265C255.6393,-657.2748 266.0126,-673.6835 274.6987,-687.4234"/>
<polygon fill="none" stroke="#000000" points="271.8165,-689.4143 280.1186,-695.9966 277.7333,-685.6738 271.8165,-689.4143"/>
<text text-anchor="middle" x="277" y="-666.8" font-family="Times,serif" font-size="14.00" fill="#000000">isA</text>
</g>
<!-- encloses -->
<g id="node12" class="node">
<title>encloses</title>
<g id="a_node12"><a xlink:href="http://emmo.info/emmo/top/mereotopology#EMMO_8c898653_1118_4682_9bbf_6cc334d16a99" xlink:title="encloses">
<polygon fill="#0079ba" stroke="#000000" points="706.5,-471 644.5,-471 644.5,-435 706.5,-435 706.5,-471"/>
<text text-anchor="middle" x="675.5" y="-449.3" font-family="Times,serif" font-size="14.00" fill="#ffffff">encloses</text>
</a>
</g>
</g>
<!-- connected -->
<g id="node15" class="node">
<title>connected</title>
<g id="a_node15"><a xlink:href="http://emmo.info/emmo/top/mereotopology#EMMO_6703954e_34c4_4a15_a9e7_f313760ae1a8" xlink:title="connected">
<polygon fill="#0079ba" stroke="#000000" points="579,-558 508,-558 508,-522 579,-522 579,-558"/>
<text text-anchor="middle" x="543.5" y="-536.3" font-family="Times,serif" font-size="14.00" fill="#ffffff">connected</text>
</a>
</g>
</g>
<!-- encloses&#45;&gt;connected -->
<g id="edge17" class="edge">
<title>encloses&#45;&gt;connected</title>
<path fill="none" stroke="#000000" d="M648.1495,-471.0265C628.2384,-484.1497 601.0811,-502.0488 579.4216,-516.3244"/>
<polygon fill="none" stroke="#000000" points="577.2389,-513.5711 570.8154,-521.9966 581.0912,-519.4158 577.2389,-513.5711"/>
<text text-anchor="middle" x="627" y="-492.8" font-family="Times,serif" font-size="14.00" fill="#000000">isA</text>
</g>
<!-- hasSpatioTemporalPart -->
<g id="node13" class="node">
<title>hasSpatioTemporalPart</title>
<g id="a_node13"><a xlink:href="http://emmo.info/emmo/top/physical#EMMO_6e046dd0_9634_4013_b2b1_9cc468087c83" xlink:title="hasSpatioTemporalPart">
<polygon fill="#0079ba" stroke="#000000" points="430.5,-210 286.5,-210 286.5,-174 430.5,-174 430.5,-210"/>
<text text-anchor="middle" x="358.5" y="-188.3" font-family="Times,serif" font-size="14.00" fill="#ffffff">hasSpatioTemporalPart</text>
</a>
</g>
</g>
<!-- hasSpatioTemporalPart&#45;&gt;hasProperPart -->
<g id="edge20" class="edge">
<title>hasSpatioTemporalPart&#45;&gt;hasProperPart</title>
<path fill="none" stroke="#000000" d="M397.6609,-210.0265C427.057,-223.558 467.4838,-242.1672 498.9379,-256.646"/>
<polygon fill="none" stroke="#000000" points="497.8419,-259.9945 508.3892,-260.9966 500.769,-253.6358 497.8419,-259.9945"/>
<text text-anchor="middle" x="474" y="-231.8" font-family="Times,serif" font-size="14.00" fill="#000000">isA</text>
</g>
<!-- hasProperParticipant -->
<g id="node14" class="node">
<title>hasProperParticipant</title>
<g id="a_node14"><a xlink:href="http://emmo.info/emmo/middle/holistic#EMMO_c5aae418_1622_4d02_93c5_21159e28e6c1" xlink:title="hasProperParticipant">
<polygon fill="#0079ba" stroke="#000000" points="818,-210 689,-210 689,-174 818,-174 818,-210"/>
<text text-anchor="middle" x="753.5" y="-188.3" font-family="Times,serif" font-size="14.00" fill="#ffffff">hasProperParticipant</text>
</a>
</g>
</g>
<!-- hasProperParticipant&#45;&gt;hasProperPart -->
<g id="edge7" class="edge">
<title>hasProperParticipant&#45;&gt;hasProperPart</title>
<path fill="none" stroke="#000000" d="M710.8167,-210.0265C678.5003,-223.6746 633.9528,-242.4884 599.5457,-257.0195"/>
<polygon fill="none" stroke="#000000" points="597.9791,-253.8818 590.1287,-260.9966 600.7025,-260.3303 597.9791,-253.8818"/>
<text text-anchor="middle" x="673" y="-231.8" font-family="Times,serif" font-size="14.00" fill="#000000">isA</text>
</g>
<!-- hasParticipant -->
<g id="node31" class="node">
<title>hasParticipant</title>
<g id="a_node31"><a xlink:href="http://emmo.info/emmo/middle/holistic#EMMO_ae2d1a96_bfa1_409a_a7d2_03d69e8a125a" xlink:title="hasParticipant">
<polygon fill="#0079ba" stroke="#000000" points="712,-297 619,-297 619,-261 712,-261 712,-297"/>
<text text-anchor="middle" x="665.5" y="-275.3" font-family="Times,serif" font-size="14.00" fill="#ffffff">hasParticipant</text>
</a>
</g>
</g>
<!-- hasProperParticipant&#45;&gt;hasParticipant -->
<g id="edge6" class="edge">
<title>hasProperParticipant&#45;&gt;hasParticipant</title>
<path fill="none" stroke="#000000" d="M735.2663,-210.0265C722.5232,-222.6248 705.3281,-239.6245 691.1976,-253.5945"/>
<polygon fill="none" stroke="#000000" points="688.361,-251.4771 683.7103,-260.9966 693.2824,-256.455 688.361,-251.4771"/>
<text text-anchor="middle" x="725" y="-231.8" font-family="Times,serif" font-size="14.00" fill="#000000">isA</text>
</g>
<!-- connected&#45;&gt;mereotopological -->
<g id="edge13" class="edge">
<title>connected&#45;&gt;mereotopological</title>
<path fill="none" stroke="#000000" d="M507.6505,-556.1601C477.2591,-569.8599 433.3709,-589.6437 399.6948,-604.8241"/>
<polygon fill="none" stroke="#000000" points="398.1652,-601.6744 390.487,-608.9748 401.0419,-608.056 398.1652,-601.6744"/>
<text text-anchor="middle" x="469" y="-579.8" font-family="Times,serif" font-size="14.00" fill="#000000">isA</text>
</g>
<!-- hasPart -->
<g id="node16" class="node">
<title>hasPart</title>
<g id="a_node16"><a xlink:href="http://emmo.info/emmo/top/mereotopology#EMMO_17e27c22_37e1_468c_9dd7_95e137f73e7f" xlink:title="hasPart">
<polygon fill="#0079ba" stroke="#000000" points="634.5,-384 578.5,-384 578.5,-348 634.5,-348 634.5,-384"/>
<text text-anchor="middle" x="606.5" y="-362.3" font-family="Times,serif" font-size="14.00" fill="#ffffff">hasPart</text>
</a>
</g>
</g>
<!-- hasPart&#45;&gt;encloses -->
<g id="edge4" class="edge">
<title>hasPart&#45;&gt;encloses</title>
<path fill="none" stroke="#000000" d="M620.7968,-384.0265C630.6036,-396.3915 643.773,-412.9964 654.7328,-426.8153"/>
<polygon fill="none" stroke="#000000" points="652.2652,-429.3365 661.2215,-434.9966 657.7497,-424.9867 652.2652,-429.3365"/>
<text text-anchor="middle" x="655" y="-405.8" font-family="Times,serif" font-size="14.00" fill="#000000">isA</text>
</g>
<!-- hasOverlapWith -->
<g id="node21" class="node">
<title>hasOverlapWith</title>
<g id="a_node21"><a xlink:href="http://emmo.info/emmo/top/mereotopology#EMMO_d893d373_b579_4867_841e_1c2b31a8d2c6" xlink:title="hasOverlapWith">
<polygon fill="#0079ba" stroke="#000000" points="504.5,-471 398.5,-471 398.5,-435 504.5,-435 504.5,-471"/>
<text text-anchor="middle" x="451.5" y="-449.3" font-family="Times,serif" font-size="14.00" fill="#ffffff">hasOverlapWith</text>
</a>
</g>
</g>
<!-- hasPart&#45;&gt;hasOverlapWith -->
<g id="edge5" class="edge">
<title>hasPart&#45;&gt;hasOverlapWith</title>
<path fill="none" stroke="#000000" d="M578.4307,-381.755C554.4466,-395.2171 519.6223,-414.7636 492.5145,-429.979"/>
<polygon fill="none" stroke="#000000" points="490.6512,-427.0111 483.644,-434.9579 494.0774,-433.1153 490.6512,-427.0111"/>
<text text-anchor="middle" x="548" y="-405.8" font-family="Times,serif" font-size="14.00" fill="#000000">isA</text>
</g>
<!-- hasSpatialPart -->
<g id="node17" class="node">
<title>hasSpatialPart</title>
<g id="a_node17"><a xlink:href="http://emmo.info/emmo/top/physical#EMMO_f68030be_94b8_4c61_a161_886468558054" xlink:title="hasSpatialPart">
<polygon fill="#0079ba" stroke="#000000" points="542.5,-210 448.5,-210 448.5,-174 542.5,-174 542.5,-210"/>
<text text-anchor="middle" x="495.5" y="-188.3" font-family="Times,serif" font-size="14.00" fill="#ffffff">hasSpatialPart</text>
</a>
</g>
</g>
<!-- hasSpatialPart&#45;&gt;hasProperPart -->
<g id="edge23" class="edge">
<title>hasSpatialPart&#45;&gt;hasProperPart</title>
<path fill="none" stroke="#000000" d="M506.2744,-210.0265C513.5256,-222.1582 523.2162,-238.3713 531.3801,-252.0302"/>
<polygon fill="none" stroke="#000000" points="528.6046,-254.2087 536.7394,-260.9966 534.6132,-250.6173 528.6046,-254.2087"/>
<text text-anchor="middle" x="535" y="-231.8" font-family="Times,serif" font-size="14.00" fill="#000000">isA</text>
</g>
<!-- hasProperPart&#45;&gt;hasPart -->
<g id="edge21" class="edge">
<title>hasProperPart&#45;&gt;hasPart</title>
<path fill="none" stroke="#000000" d="M559.7248,-297.0265C568.0312,-309.2748 579.1589,-325.6835 588.4768,-339.4234"/>
<polygon fill="none" stroke="#000000" points="585.7814,-341.6847 594.2908,-347.9966 591.5748,-337.7558 585.7814,-341.6847"/>
<text text-anchor="middle" x="591" y="-318.8" font-family="Times,serif" font-size="14.00" fill="#000000">isA</text>
</g>
<!-- hasContactWith -->
<g id="node19" class="node">
<title>hasContactWith</title>
<g id="a_node19"><a xlink:href="http://emmo.info/emmo/top/mereotopology#EMMO_4d6504f1_c470_4ce9_b941_bbbebc9ab05d" xlink:title="hasContactWith">
<polygon fill="#0079ba" stroke="#000000" points="626.5,-471 522.5,-471 522.5,-435 626.5,-435 626.5,-471"/>
<text text-anchor="middle" x="574.5" y="-449.3" font-family="Times,serif" font-size="14.00" fill="#ffffff">hasContactWith</text>
</a>
</g>
</g>
<!-- hasContactWith&#45;&gt;connected -->
<g id="edge29" class="edge">
<title>hasContactWith&#45;&gt;connected</title>
<path fill="none" stroke="#000000" d="M568.0768,-471.0265C563.8371,-482.9249 558.1985,-498.7492 553.3917,-512.2394"/>
<polygon fill="none" stroke="#000000" points="549.9746,-511.402 549.915,-521.9966 556.5685,-513.7516 549.9746,-511.402"/>
<text text-anchor="middle" x="571" y="-492.8" font-family="Times,serif" font-size="14.00" fill="#000000">isA</text>
</g>
<!-- hasReferenceUnit -->
<g id="node20" class="node">
<title>hasReferenceUnit</title>
<g id="a_node20"><a xlink:href="http://emmo.info/emmo/middle/units#EMMO_67fc0a36_8dcb_4ffa_9a43_31074efa3296" xlink:title="hasReferenceUnit">
<polygon fill="#0079ba" stroke="#000000" points="618,-36 505,-36 505,0 618,0 618,-36"/>
<text text-anchor="middle" x="561.5" y="-14.3" font-family="Times,serif" font-size="14.00" fill="#ffffff">hasReferenceUnit</text>
</a>
</g>
</g>
<!-- hasReferenceUnit&#45;&gt;hasSpatialDirectPart -->
<g id="edge3" class="edge">
<title>hasReferenceUnit&#45;&gt;hasSpatialDirectPart</title>
<path fill="none" stroke="#000000" d="M547.8248,-36.0265C538.4444,-48.3915 525.8475,-64.9964 515.3643,-78.8153"/>
<polygon fill="none" stroke="#000000" points="512.4132,-76.9143 509.1577,-86.9966 517.9901,-81.1451 512.4132,-76.9143"/>
<text text-anchor="middle" x="542" y="-57.8" font-family="Times,serif" font-size="14.00" fill="#000000">isA</text>
</g>
<!-- hasOverlapWith&#45;&gt;connected -->
<g id="edge2" class="edge">
<title>hasOverlapWith&#45;&gt;connected</title>
<path fill="none" stroke="#000000" d="M470.5625,-471.0265C484.0082,-483.7414 502.1949,-500.9397 517.0439,-514.9817"/>
<polygon fill="none" stroke="#000000" points="514.7914,-517.6688 524.462,-521.9966 519.601,-512.5827 514.7914,-517.6688"/>
<text text-anchor="middle" x="513" y="-492.8" font-family="Times,serif" font-size="14.00" fill="#000000">isA</text>
</g>
<!-- hasIndex -->
<g id="node22" class="node">
<title>hasIndex</title>
<g id="a_node22"><a xlink:href="http://emmo.info/emmo/top/semiotics#EMMO_297999d6_c9e4_4262_9536_bd524d1c6e21" xlink:title="hasIndex">
<polygon fill="#0079ba" stroke="#000000" points="148,-471 83,-471 83,-435 148,-435 148,-471"/>
<text text-anchor="middle" x="115.5" y="-449.3" font-family="Times,serif" font-size="14.00" fill="#ffffff">hasIndex</text>
</a>
</g>
</g>
<!-- hasIndex&#45;&gt;hasSign -->
<g id="edge12" class="edge">
<title>hasIndex&#45;&gt;hasSign</title>
<path fill="none" stroke="#000000" d="M136.2201,-471.0265C150.9691,-483.8581 170.9663,-501.2557 187.1867,-515.3674"/>
<polygon fill="none" stroke="#000000" points="184.9647,-518.0735 194.8065,-521.9966 189.5593,-512.7924 184.9647,-518.0735"/>
<text text-anchor="middle" x="181" y="-492.8" font-family="Times,serif" font-size="14.00" fill="#000000">isA</text>
</g>
<!-- hasSpatialDirectPart&#45;&gt;hasSpatialPart -->
<g id="edge28" class="edge">
<title>hasSpatialDirectPart&#45;&gt;hasSpatialPart</title>
<path fill="none" stroke="#000000" d="M495.5,-123.0265C495.5,-134.8082 495.5,-150.4393 495.5,-163.8419"/>
<polygon fill="none" stroke="#000000" points="492.0001,-163.9966 495.5,-173.9966 499.0001,-163.9967 492.0001,-163.9966"/>
<text text-anchor="middle" x="505" y="-144.8" font-family="Times,serif" font-size="14.00" fill="#000000">isA</text>
</g>
<!-- hasTemporalPart -->
<g id="node24" class="node">
<title>hasTemporalPart</title>
<g id="a_node24"><a xlink:href="http://emmo.info/emmo/top/physical#EMMO_7afbed84_7593_4a23_bd88_9d9c6b04e8f6" xlink:title="hasTemporalPart">
<polygon fill="#0079ba" stroke="#000000" points="670.5,-210 560.5,-210 560.5,-174 670.5,-174 670.5,-210"/>
<text text-anchor="middle" x="615.5" y="-188.3" font-family="Times,serif" font-size="14.00" fill="#ffffff">hasTemporalPart</text>
</a>
</g>
</g>
<!-- hasTemporalPart&#45;&gt;hasProperPart -->
<g id="edge16" class="edge">
<title>hasTemporalPart&#45;&gt;hasProperPart</title>
<path fill="none" stroke="#000000" d="M601.4104,-210.0265C591.7457,-222.3915 578.7672,-238.9964 567.9662,-252.8153"/>
<polygon fill="none" stroke="#000000" points="564.9722,-250.9624 561.5716,-260.9966 570.4874,-255.2731 564.9722,-250.9624"/>
<text text-anchor="middle" x="596" y="-231.8" font-family="Times,serif" font-size="14.00" fill="#000000">isA</text>
</g>
<!-- disconnected -->
<g id="node25" class="node">
<title>disconnected</title>
<g id="a_node25"><a xlink:href="http://emmo.info/emmo/top/mereotopology#EMMO_517dfaf9_4970_41ac_81ee_d031627d2c7c" xlink:title="disconnected">
<polygon fill="#0079ba" stroke="#000000" points="394,-558 307,-558 307,-522 394,-522 394,-558"/>
<text text-anchor="middle" x="350.5" y="-536.3" font-family="Times,serif" font-size="14.00" fill="#ffffff">disconnected</text>
</a>
</g>
</g>
<!-- disconnected&#45;&gt;mereotopological -->
<g id="edge18" class="edge">
<title>disconnected&#45;&gt;mereotopological</title>
<path fill="none" stroke="#000000" d="M350.5,-558.0265C350.5,-569.8082 350.5,-585.4393 350.5,-598.8419"/>
<polygon fill="none" stroke="#000000" points="347.0001,-598.9966 350.5,-608.9966 354.0001,-598.9967 347.0001,-598.9966"/>
<text text-anchor="middle" x="360" y="-579.8" font-family="Times,serif" font-size="14.00" fill="#000000">isA</text>
</g>
<!-- hasIcon&#45;&gt;hasSign -->
<g id="edge14" class="edge">
<title>hasIcon&#45;&gt;hasSign</title>
<path fill="none" stroke="#000000" d="M65.2825,-468.1983C85.56,-478.4704 113.0531,-492.2502 137.5,-504 150.1401,-510.0751 164.018,-516.5443 176.519,-522.2985"/>
<polygon fill="none" stroke="#000000" points="175.2183,-525.5525 185.7669,-526.541 178.1371,-519.19 175.2183,-525.5525"/>
<text text-anchor="middle" x="147" y="-492.8" font-family="Times,serif" font-size="14.00" fill="#000000">isA</text>
</g>
<!-- hasSign&#45;&gt;semiotical -->
<g id="edge11" class="edge">
<title>hasSign&#45;&gt;semiotical</title>
<path fill="none" stroke="#000000" d="M219.8512,-558.0265C222.7232,-569.9249 226.5429,-585.7492 229.7992,-599.2394"/>
<polygon fill="none" stroke="#000000" points="226.4056,-600.0971 232.1544,-608.9966 233.2102,-598.4545 226.4056,-600.0971"/>
<text text-anchor="middle" x="237" y="-579.8" font-family="Times,serif" font-size="14.00" fill="#000000">isA</text>
</g>
<!-- hasTemporalDirectPart -->
<g id="node28" class="node">
<title>hasTemporalDirectPart</title>
<g id="a_node28"><a xlink:href="http://emmo.info/emmo/middle/reductionistic#EMMO_65a2c5b8_e4d8_4a51_b2f8_e55effc0547d" xlink:title="hasTemporalDirectPart">
<polygon fill="#0079ba" stroke="#000000" points="721,-123 578,-123 578,-87 721,-87 721,-123"/>
<text text-anchor="middle" x="649.5" y="-101.3" font-family="Times,serif" font-size="14.00" fill="#ffffff">hasTemporalDirectPart</text>
</a>
</g>
</g>
<!-- hasTemporalDirectPart&#45;&gt;hasTemporalPart -->
<g id="edge8" class="edge">
<title>hasTemporalDirectPart&#45;&gt;hasTemporalPart</title>
<path fill="none" stroke="#000000" d="M642.4552,-123.0265C637.7596,-135.0415 631.4996,-151.0599 626.1942,-164.6354"/>
<polygon fill="none" stroke="#000000" points="622.9159,-163.4086 622.5358,-173.9966 629.4357,-165.9566 622.9159,-163.4086"/>
<text text-anchor="middle" x="645" y="-144.8" font-family="Times,serif" font-size="14.00" fill="#000000">isA</text>
</g>
<!-- hasSpatioTemporalDirectPart -->
<g id="node29" class="node">
<title>hasSpatioTemporalDirectPart</title>
<g id="a_node29"><a xlink:href="http://emmo.info/emmo/middle/reductionistic#EMMO_663859e5_add3_4c9e_96fb_c99399de278d" xlink:title="hasSpatioTemporalDirectPart">
<polygon fill="#0079ba" stroke="#000000" points="413.5,-123 235.5,-123 235.5,-87 413.5,-87 413.5,-123"/>
<text text-anchor="middle" x="324.5" y="-101.3" font-family="Times,serif" font-size="14.00" fill="#ffffff">hasSpatioTemporalDirectPart</text>
</a>
</g>
</g>
<!-- hasSpatioTemporalDirectPart&#45;&gt;hasSpatioTemporalPart -->
<g id="edge27" class="edge">
<title>hasSpatioTemporalDirectPart&#45;&gt;hasSpatioTemporalPart</title>
<path fill="none" stroke="#000000" d="M331.5448,-123.0265C336.2404,-135.0415 342.5004,-151.0599 347.8058,-164.6354"/>
<polygon fill="none" stroke="#000000" points="344.5643,-165.9566 351.4642,-173.9966 351.0841,-163.4086 344.5643,-165.9566"/>
<text text-anchor="middle" x="354" y="-144.8" font-family="Times,serif" font-size="14.00" fill="#000000">isA</text>
</g>
<!-- overcrosses -->
<g id="node30" class="node">
<title>overcrosses</title>
<g id="a_node30"><a xlink:href="http://emmo.info/emmo/top/mereotopology#EMMO_9cb984ca_48ad_4864_b09e_50d3fff19420" xlink:title="overcrosses">
<polygon fill="#0079ba" stroke="#000000" points="491.5,-384 411.5,-384 411.5,-348 491.5,-348 491.5,-384"/>
<text text-anchor="middle" x="451.5" y="-362.3" font-family="Times,serif" font-size="14.00" fill="#ffffff">overcrosses</text>
</a>
</g>
</g>
<!-- overcrosses&#45;&gt;hasOverlapWith -->
<g id="edge19" class="edge">
<title>overcrosses&#45;&gt;hasOverlapWith</title>
<path fill="none" stroke="#000000" d="M451.5,-384.0265C451.5,-395.8082 451.5,-411.4393 451.5,-424.8419"/>
<polygon fill="none" stroke="#000000" points="448.0001,-424.9966 451.5,-434.9966 455.0001,-424.9967 448.0001,-424.9966"/>
<text text-anchor="middle" x="461" y="-405.8" font-family="Times,serif" font-size="14.00" fill="#000000">isA</text>
</g>
<!-- hasParticipant&#45;&gt;hasPart -->
<g id="edge10" class="edge">
<title>hasParticipant&#45;&gt;hasPart</title>
<path fill="none" stroke="#000000" d="M653.2752,-297.0265C644.9688,-309.2748 633.8411,-325.6835 624.5232,-339.4234"/>
<polygon fill="none" stroke="#000000" points="621.4252,-337.7558 618.7092,-347.9966 627.2186,-341.6847 621.4252,-337.7558"/>
<text text-anchor="middle" x="650" y="-318.8" font-family="Times,serif" font-size="14.00" fill="#000000">isA</text>
</g>
</g>
</svg>
