<?xml version="1.0" encoding="UTF-8" standalone="no"?>
<!DOCTYPE svg PUBLIC "-//W3C//DTD SVG 1.1//EN"
 "http://www.w3.org/Graphics/SVG/1.1/DTD/svg11.dtd">
<!-- Generated by graphviz version 2.40.1 (20161225.0304)
 -->
<!-- Title: %3 Pages: 1 -->
<svg width="582pt" height="308pt"
 viewBox="0.00 0.00 582.20 308.00" xmlns="http://www.w3.org/2000/svg" xmlns:xlink="http://www.w3.org/1999/xlink">
<g id="graph0" class="graph" transform="scale(1 1) rotate(0) translate(4 304)">
<title>%3</title>
<polygon fill="#ffffff" stroke="transparent" points="-4,4 -4,-304 578.1961,-304 578.1961,4 -4,4"/>
<!-- Quantum -->
<g id="node1" class="node">
<title>Quantum</title>
<g id="a_node1"><a xlink:href="http://emmo.info/emmo/top/mereotopology#EMMO_3f9ae00e_810c_4518_aec2_7200e424cf68" xlink:title="Quantum">
<ellipse fill="#ffffcc" stroke="#000000" cx="44.1961" cy="-138" rx="44.393" ry="18"/>
<text text-anchor="middle" x="44.1961" y="-134.3" font-family="Times,serif" font-size="14.00" fill="#000000">Quantum</text>
</a>
</g>
</g>
<!-- Item -->
<g id="node5" class="node">
<title>Item</title>
<g id="a_node5"><a xlink:href="http://emmo.info/emmo/top/mereotopology#EMMO_eb3a768e_d53e_4be9_a23b_0714833c36de" xlink:title="Item">
<ellipse fill="#ffffcc" stroke="#000000" cx="135.1961" cy="-210" rx="27.0966" ry="18"/>
<text text-anchor="middle" x="135.1961" y="-206.3" font-family="Times,serif" font-size="14.00" fill="#000000">Item</text>
</a>
</g>
</g>
<!-- Quantum&#45;&gt;Item -->
<g id="edge11" class="edge">
<title>Quantum&#45;&gt;Item</title>
<path fill="none" stroke="#000000" d="M64.8454,-154.3379C78.1715,-164.8816 95.6001,-178.6713 109.7758,-189.8872"/>
<polygon fill="none" stroke="#000000" points="107.6768,-192.6896 117.6908,-196.1496 112.0202,-187.2 107.6768,-192.6896"/>
</g>
<!-- Void -->
<g id="node2" class="node">
<title>Void</title>
<g id="a_node2"><a xlink:href="http://emmo.info/emmo/top/physical#EMMO_29072ec4_ffcb_42fb_bdc7_26f05a2e9873" xlink:title="Void">
<ellipse fill="#ffffcc" stroke="#000000" cx="135.1961" cy="-138" rx="28.6953" ry="18"/>
<text text-anchor="middle" x="135.1961" y="-134.3" font-family="Times,serif" font-size="14.00" fill="#000000">Void</text>
</a>
</g>
</g>
<!-- Void&#45;&gt;Void -->
<g id="edge5" class="edge">
<title>Void&#45;&gt;Void</title>
<path fill="none" stroke="#0000ff" d="M156.2818,-125.4525C169.3535,-122.4269 181.7935,-126.6094 181.7935,-138 181.7935,-146.365 175.0846,-150.8426 166.3433,-151.4328"/>
<polygon fill="#0000ff" stroke="#0000ff" points="166.5501,-147.9376 156.2818,-150.5475 165.9365,-154.9106 166.5501,-147.9376"/>
</g>
<!-- Void&#45;&gt;Item -->
<g id="edge4" class="edge">
<title>Void&#45;&gt;Item</title>
<path fill="none" stroke="#000000" d="M135.1961,-156.1686C135.1961,-163.869 135.1961,-173.0257 135.1961,-181.5834"/>
<polygon fill="none" stroke="#000000" points="131.6962,-181.5867 135.1961,-191.5867 138.6962,-181.5868 131.6962,-181.5867"/>
</g>
<!-- Collection -->
<g id="node3" class="node">
<title>Collection</title>
<g id="a_node3"><a xlink:href="http://emmo.info/emmo/top/mereotopology#EMMO_2d2ecd97_067f_4d0e_950c_d746b7700a31" xlink:title="Collection">
<ellipse fill="#ffffcc" stroke="#000000" cx="265.1961" cy="-210" rx="47.3916" ry="18"/>
<text text-anchor="middle" x="265.1961" y="-206.3" font-family="Times,serif" font-size="14.00" fill="#000000">Collection</text>
</a>
</g>
</g>
<!-- EMMO -->
<g id="node4" class="node">
<title>EMMO</title>
<g id="a_node4"><a xlink:href="http://emmo.info/emmo/top/mereotopology#EMMO_802d3e92_8770_4f98_a289_ccaaab7fdddf" xlink:title="EMMO">
<ellipse fill="#ffc880" stroke="#000000" stroke-width="2" cx="162.1961" cy="-282" rx="38.9931" ry="18"/>
<text text-anchor="middle" x="162.1961" y="-278.3" font-family="Times,serif" font-size="14.00" fill="#000000">EMMO</text>
</a>
</g>
</g>
<!-- Collection&#45;&gt;EMMO -->
<g id="edge9" class="edge">
<title>Collection&#45;&gt;EMMO</title>
<path fill="none" stroke="#000000" d="M242.337,-225.9791C227.6352,-236.2562 208.3672,-249.725 192.4088,-260.8804"/>
<polygon fill="none" stroke="#000000" points="190.1243,-258.2069 183.9335,-266.8049 194.1349,-263.9442 190.1243,-258.2069"/>
</g>
<!-- Collection&#45;&gt;Item -->
<g id="edge10" class="edge">
<title>Collection&#45;&gt;Item</title>
<path fill="none" stroke="#0000ff" stroke-dasharray="5,2" d="M217.5133,-210C202.6458,-210 187.7783,-210 172.9108,-210"/>
<polygon fill="#0000ff" stroke="#0000ff" points="172.618,-206.5001 162.618,-210 172.6179,-213.5001 172.618,-206.5001"/>
</g>
<!-- EMMO&#45;&gt;Quantum -->
<g id="edge12" class="edge">
<title>EMMO&#45;&gt;Quantum</title>
<path fill="none" stroke="#0000ff" d="M170.2177,-264.1601C177.6194,-244.7514 185.4901,-213.6102 171.1961,-192 166.1519,-184.374 121.968,-166.6427 87.1145,-153.5687"/>
<polygon fill="#0000ff" stroke="#0000ff" points="88.1645,-150.225 77.5717,-150.0169 85.7227,-156.7853 88.1645,-150.225"/>
</g>
<!-- Item&#45;&gt;EMMO -->
<g id="edge13" class="edge">
<title>Item&#45;&gt;EMMO</title>
<path fill="none" stroke="#000000" d="M141.8702,-227.7978C144.9208,-235.9325 148.6023,-245.7499 151.9893,-254.7819"/>
<polygon fill="none" stroke="#000000" points="148.7167,-256.0231 155.5051,-264.1575 155.271,-253.5652 148.7167,-256.0231"/>
</g>
<!-- Perspective -->
<g id="node6" class="node">
<title>Perspective</title>
<g id="a_node6"><a xlink:href="http://emmo.info/emmo/top#EMMO_49267eba_5548_4163_8f36_518d65b583f9" xlink:title="Perspective">
<ellipse fill="#ffffcc" stroke="#000000" stroke-width="2" cx="179.1961" cy="-42" rx="51.1914" ry="18"/>
<text text-anchor="middle" x="179.1961" y="-38.3" font-family="Times,serif" font-size="14.00" fill="#000000">Perspective</text>
</a>
</g>
</g>
<!-- Physical -->
<g id="node7" class="node">
<title>Physical</title>
<g id="a_node7"><a xlink:href="http://emmo.info/emmo/top/physical#EMMO_c5ddfdba_c074_4aa4_ad6b_1ac4942d300d" xlink:title="Physical">
<ellipse fill="#ffffcc" stroke="#000000" cx="240.1961" cy="-138" rx="40.0939" ry="18"/>
<text text-anchor="middle" x="240.1961" y="-134.3" font-family="Times,serif" font-size="14.00" fill="#000000">Physical</text>
</a>
</g>
</g>
<!-- Perspective&#45;&gt;Physical -->
<g id="edge3" class="edge">
<title>Perspective&#45;&gt;Physical</title>
<path fill="none" stroke="#000000" d="M190.3844,-59.6079C199.671,-74.2229 213.0154,-95.2238 223.5553,-111.8112"/>
<polygon fill="none" stroke="#000000" points="220.7615,-113.9406 229.0787,-120.5037 226.6696,-110.1864 220.7615,-113.9406"/>
</g>
<!-- Physical&#45;&gt;Item -->
<g id="edge6" class="edge">
<title>Physical&#45;&gt;Item</title>
<path fill="none" stroke="#000000" d="M218.1846,-153.0936C202.105,-164.1196 180.1859,-179.1498 162.9123,-190.9946"/>
<polygon fill="none" stroke="#000000" points="160.6263,-188.3183 154.3583,-196.8602 164.585,-194.0914 160.6263,-188.3183"/>
</g>
<!-- Physical&#45;&gt;Physical -->
<g id="edge8" class="edge">
<title>Physical&#45;&gt;Physical</title>
<path fill="none" stroke="#ff00ff" d="M268.6899,-125.1007C284.2452,-122.8018 298.4925,-127.1016 298.4925,-138 298.4925,-146.4293 289.9697,-150.9112 278.9107,-151.4457"/>
<polygon fill="#ff00ff" stroke="#ff00ff" points="278.8625,-147.9382 268.6899,-150.8993 278.4888,-154.9282 278.8625,-147.9382"/>
</g>
<!-- Elementary -->
<g id="node8" class="node">
<title>Elementary</title>
<g id="a_node8"><a xlink:href="http://emmo.info/emmo/top/physical#EMMO_0f795e3e_c602_4577_9a43_d5a231aa1360" xlink:title="Elementary">
<ellipse fill="#ffffcc" stroke="#000000" stroke-width="2" cx="300.1961" cy="-42" rx="51.9908" ry="18"/>
<text text-anchor="middle" x="300.1961" y="-38.3" font-family="Times,serif" font-size="14.00" fill="#000000">Elementary</text>
</a>
</g>
</g>
<!-- Physical&#45;&gt;Elementary -->
<g id="edge7" class="edge">
<title>Physical&#45;&gt;Elementary</title>
<path fill="none" stroke="#0000ff" d="M255.8914,-121.3089C266.5472,-106.8671 280.0553,-85.7178 289.5222,-68.8906"/>
<polygon fill="#0000ff" stroke="#0000ff" points="292.623,-70.5146 294.322,-60.0569 286.4723,-67.1726 292.623,-70.5146"/>
</g>
<!-- Elementary&#45;&gt;Physical -->
<g id="edge1" class="edge">
<title>Elementary&#45;&gt;Physical</title>
<path fill="none" stroke="#000000" d="M284.1534,-59.1629C273.6197,-73.4994 260.4027,-94.2007 251.0482,-110.793"/>
<polygon fill="none" stroke="#000000" points="247.7394,-109.5512 246.0363,-120.0083 253.8888,-112.8957 247.7394,-109.5512"/>
</g>
<!-- Elementary&#45;&gt;Elementary -->
<g id="edge2" class="edge">
<title>Elementary&#45;&gt;Elementary</title>
<path fill="none" stroke="#ff00ff" d="M327.1333,-26.4269C348.3855,-20.4027 370.1915,-25.5938 370.1915,-42 370.1915,-55.8428 354.6675,-61.7013 337.0505,-59.5755"/>
<polygon fill="#ff00ff" stroke="#ff00ff" points="337.6282,-56.1216 327.1333,-57.5731 336.2428,-62.9831 337.6282,-56.1216"/>
</g>
<!-- key1 -->
<g id="node9" class="node">
<title>key1</title>
<text text-anchor="start" x="473.1961" y="-66.8" font-family="Times,serif" font-size="14.00" fill="#000000">isA</text>
<text text-anchor="start" x="426.1961" y="-47.8" font-family="Times,serif" font-size="14.00" fill="#000000">hasMember</text>
<text text-anchor="start" x="452.1961" y="-28.8" font-family="Times,serif" font-size="14.00" fill="#000000">hasPart</text>
<text text-anchor="start" x="398.1961" y="-9.8" font-family="Times,serif" font-size="14.00" fill="#000000">hasTemporalPart</text>
</g>
<!-- key2 -->
<g id="node10" class="node">
<title>key2</title>
<text text-anchor="start" x="545.1961" y="-66.8" font-family="Times,serif" font-size="14.00" fill="#000000"> </text>
<text text-anchor="start" x="545.1961" y="-47.8" font-family="Times,serif" font-size="14.00" fill="#000000"> </text>
<text text-anchor="start" x="545.1961" y="-28.8" font-family="Times,serif" font-size="14.00" fill="#000000"> </text>
<text text-anchor="start" x="545.1961" y="-9.8" font-family="Times,serif" font-size="14.00" fill="#000000"> </text>
</g>
<!-- key1&#45;&gt;key2 -->
<g id="edge14" class="edge">
<title>key1:e&#45;&gt;key2:w</title>
<path fill="none" stroke="#ff00ff" d="M494.1961,-13C512.0607,-13 518.9343,-13 532.8491,-13"/>
<polygon fill="#ff00ff" stroke="#ff00ff" points="533.1961,-16.5001 543.1961,-13 533.196,-9.5001 533.1961,-16.5001"/>
</g>
<!-- key1&#45;&gt;key2 -->
<g id="edge15" class="edge">
<title>key1:e&#45;&gt;key2:w</title>
<path fill="none" stroke="#0000ff" d="M494.1961,-32C512.0607,-32 518.9343,-32 532.8491,-32"/>
<polygon fill="#0000ff" stroke="#0000ff" points="533.1961,-35.5001 543.1961,-32 533.196,-28.5001 533.1961,-35.5001"/>
</g>
<!-- key1&#45;&gt;key2 -->
<g id="edge16" class="edge">
<title>key1:e&#45;&gt;key2:w</title>
<path fill="none" stroke="#0000ff" stroke-dasharray="5,2" d="M494.1961,-52C512.0607,-52 518.9343,-52 532.8491,-52"/>
<polygon fill="#0000ff" stroke="#0000ff" points="533.1961,-55.5001 543.1961,-52 533.196,-48.5001 533.1961,-55.5001"/>
</g>
<!-- key1&#45;&gt;key2 -->
<g id="edge17" class="edge">
<title>key1:e&#45;&gt;key2:w</title>
<path fill="none" stroke="#000000" d="M494.1961,-71C512.0607,-71 518.9343,-71 532.8491,-71"/>
<polygon fill="none" stroke="#000000" points="533.1961,-74.5001 543.1961,-71 533.196,-67.5001 533.1961,-74.5001"/>
</g>
</g>
</svg>
