<?xml version="1.0" encoding="UTF-8" standalone="no"?>
<!DOCTYPE svg PUBLIC "-//W3C//DTD SVG 1.1//EN"
 "http://www.w3.org/Graphics/SVG/1.1/DTD/svg11.dtd">
<!-- Generated by graphviz version 2.40.1 (20161225.0304)
 -->
<!-- Title: %3 Pages: 1 -->
<svg width="1116pt" height="620pt"
 viewBox="0.00 0.00 1116.00 620.00" xmlns="http://www.w3.org/2000/svg" xmlns:xlink="http://www.w3.org/1999/xlink">
<g id="graph0" class="graph" transform="scale(1 1) rotate(0) translate(4 616)">
<title>%3</title>
<polygon fill="#ffffff" stroke="transparent" points="-4,4 -4,-616 1112,-616 1112,4 -4,4"/>
<!-- hasQuantityValue -->
<g id="node1" class="node">
<title>hasQuantityValue</title>
<g id="a_node1"><a xlink:href="http://emmo.info/emmo/middle/metrology#EMMO_8ef3cd6d_ae58_4a8d_9fc0_ad8f49015cd0" xlink:title="hasQuantityValue">
<polygon fill="#0079ba" stroke="#000000" points="114,-36 0,-36 0,0 114,0 114,-36"/>
<text text-anchor="middle" x="57" y="-14.3" font-family="Times,serif" font-size="14.00" fill="#ffffff">hasQuantityValue</text>
</a>
</g>
</g>
<!-- hasSpatialDirectPart -->
<g id="node23" class="node">
<title>hasSpatialDirectPart</title>
<g id="a_node23"><a xlink:href="http://emmo.info/emmo/middle/reductionistic#EMMO_b2282816_b7a3_44c6_b2cb_3feff1ceb7fe" xlink:title="hasSpatialDirectPart">
<polygon fill="#0079ba" stroke="#000000" points="187,-108 59,-108 59,-72 187,-72 187,-108"/>
<text text-anchor="middle" x="123" y="-86.3" font-family="Times,serif" font-size="14.00" fill="#ffffff">hasSpatialDirectPart</text>
</a>
</g>
</g>
<!-- hasQuantityValue&#45;&gt;hasSpatialDirectPart -->
<g id="edge28" class="edge">
<title>hasQuantityValue&#45;&gt;hasSpatialDirectPart</title>
<path fill="none" stroke="#000000" d="M73.6546,-36.1686C81.4114,-44.6306 90.7802,-54.8511 99.261,-64.1029"/>
<polygon fill="none" stroke="#000000" points="96.7838,-66.5802 106.1212,-71.5867 101.9439,-61.8501 96.7838,-66.5802"/>
</g>
<!-- disconnected -->
<g id="node2" class="node">
<title>disconnected</title>
<g id="a_node2"><a xlink:href="http://emmo.info/emmo/top/mereotopology#EMMO_517dfaf9_4970_41ac_81ee_d031627d2c7c" xlink:title="disconnected">
<polygon fill="#0079ba" stroke="#000000" points="745.5,-468 658.5,-468 658.5,-432 745.5,-432 745.5,-468"/>
<text text-anchor="middle" x="702" y="-446.3" font-family="Times,serif" font-size="14.00" fill="#ffffff">disconnected</text>
</a>
</g>
</g>
<!-- mereotopological -->
<g id="node8" class="node">
<title>mereotopological</title>
<g id="a_node8"><a xlink:href="http://emmo.info/emmo/top/mereotopology#EMMO_03212fd7_abfd_4828_9c8e_62c293052d4b" xlink:title="mereotopological">
<polygon fill="#0079ba" stroke="#000000" points="758,-540 646,-540 646,-504 758,-504 758,-540"/>
<text text-anchor="middle" x="702" y="-518.3" font-family="Times,serif" font-size="14.00" fill="#ffffff">mereotopological</text>
</a>
</g>
</g>
<!-- disconnected&#45;&gt;mereotopological -->
<g id="edge23" class="edge">
<title>disconnected&#45;&gt;mereotopological</title>
<path fill="none" stroke="#000000" d="M702,-468.1686C702,-475.869 702,-485.0257 702,-493.5834"/>
<polygon fill="none" stroke="#000000" points="698.5001,-493.5867 702,-503.5867 705.5001,-493.5868 698.5001,-493.5867"/>
</g>
<!-- hasConvention -->
<g id="node3" class="node">
<title>hasConvention</title>
<g id="a_node3"><a xlink:href="http://emmo.info/emmo/top/semiotics#EMMO_eb3518bf_f799_4f9e_8c3e_ce59af11453b" xlink:title="hasConvention">
<polygon fill="#0079ba" stroke="#000000" points="831,-396 733,-396 733,-360 831,-360 831,-396"/>
<text text-anchor="middle" x="782" y="-374.3" font-family="Times,serif" font-size="14.00" fill="#ffffff">hasConvention</text>
</a>
</g>
</g>
<!-- hasSign -->
<g id="node17" class="node">
<title>hasSign</title>
<g id="a_node17"><a xlink:href="http://emmo.info/emmo/top/semiotics#EMMO_60577dea_9019_4537_ac41_80b0fb563d41" xlink:title="hasSign">
<polygon fill="#0079ba" stroke="#000000" points="911.5,-468 852.5,-468 852.5,-432 911.5,-432 911.5,-468"/>
<text text-anchor="middle" x="882" y="-446.3" font-family="Times,serif" font-size="14.00" fill="#ffffff">hasSign</text>
</a>
</g>
</g>
<!-- hasConvention&#45;&gt;hasSign -->
<g id="edge13" class="edge">
<title>hasConvention&#45;&gt;hasSign</title>
<path fill="none" stroke="#000000" d="M807.2342,-396.1686C819.788,-405.2073 835.1283,-416.2524 848.6391,-425.9802"/>
<polygon fill="none" stroke="#000000" points="846.6134,-428.8345 856.7739,-431.8372 850.7036,-423.1537 846.6134,-428.8345"/>
</g>
<!-- encloses -->
<g id="node4" class="node">
<title>encloses</title>
<g id="a_node4"><a xlink:href="http://emmo.info/emmo/top/mereotopology#EMMO_8c898653_1118_4682_9bbf_6cc334d16a99" xlink:title="encloses">
<polygon fill="#0079ba" stroke="#000000" points="469,-396 407,-396 407,-360 469,-360 469,-396"/>
<text text-anchor="middle" x="438" y="-374.3" font-family="Times,serif" font-size="14.00" fill="#ffffff">encloses</text>
</a>
</g>
</g>
<!-- connected -->
<g id="node9" class="node">
<title>connected</title>
<g id="a_node9"><a xlink:href="http://emmo.info/emmo/top/mereotopology#EMMO_6703954e_34c4_4a15_a9e7_f313760ae1a8" xlink:title="connected">
<polygon fill="#0079ba" stroke="#000000" points="637.5,-468 566.5,-468 566.5,-432 637.5,-432 637.5,-468"/>
<text text-anchor="middle" x="602" y="-446.3" font-family="Times,serif" font-size="14.00" fill="#ffffff">connected</text>
</a>
</g>
</g>
<!-- encloses&#45;&gt;connected -->
<g id="edge21" class="edge">
<title>encloses&#45;&gt;connected</title>
<path fill="none" stroke="#000000" d="M469.4268,-392.1853C472.3232,-393.4797 475.2147,-394.7669 478,-396 504.1357,-407.5709 533.4529,-420.3473 557.0167,-430.5666"/>
<polygon fill="none" stroke="#000000" points="555.8381,-433.8704 566.4053,-434.6351 558.6215,-427.4475 555.8381,-433.8704"/>
</g>
<!-- hasOverlapWith -->
<g id="node5" class="node">
<title>hasOverlapWith</title>
<g id="a_node5"><a xlink:href="http://emmo.info/emmo/top/mereotopology#EMMO_d893d373_b579_4867_841e_1c2b31a8d2c6" xlink:title="hasOverlapWith">
<polygon fill="#0079ba" stroke="#000000" points="593,-396 487,-396 487,-360 593,-360 593,-396"/>
<text text-anchor="middle" x="540" y="-374.3" font-family="Times,serif" font-size="14.00" fill="#ffffff">hasOverlapWith</text>
</a>
</g>
</g>
<!-- hasOverlapWith&#45;&gt;connected -->
<g id="edge27" class="edge">
<title>hasOverlapWith&#45;&gt;connected</title>
<path fill="none" stroke="#000000" d="M555.6452,-396.1686C562.8591,-404.546 571.557,-414.6469 579.4605,-423.8251"/>
<polygon fill="none" stroke="#000000" points="576.9667,-426.2929 586.1441,-431.5867 582.2711,-421.7252 576.9667,-426.2929"/>
</g>
<!-- hasParticipant -->
<g id="node6" class="node">
<title>hasParticipant</title>
<g id="a_node6"><a xlink:href="http://emmo.info/emmo/middle/holistic#EMMO_ae2d1a96_bfa1_409a_a7d2_03d69e8a125a" xlink:title="hasParticipant">
<polygon fill="#0079ba" stroke="#000000" points="670.5,-252 577.5,-252 577.5,-216 670.5,-216 670.5,-252"/>
<text text-anchor="middle" x="624" y="-230.3" font-family="Times,serif" font-size="14.00" fill="#ffffff">hasParticipant</text>
</a>
</g>
</g>
<!-- hasPart -->
<g id="node24" class="node">
<title>hasPart</title>
<g id="a_node24"><a xlink:href="http://emmo.info/emmo/top/mereotopology#EMMO_17e27c22_37e1_468c_9dd7_95e137f73e7f" xlink:title="hasPart">
<polygon fill="#0079ba" stroke="#000000" points="474,-324 418,-324 418,-288 474,-288 474,-324"/>
<text text-anchor="middle" x="446" y="-302.3" font-family="Times,serif" font-size="14.00" fill="#ffffff">hasPart</text>
</a>
</g>
</g>
<!-- hasParticipant&#45;&gt;hasPart -->
<g id="edge8" class="edge">
<title>hasParticipant&#45;&gt;hasPart</title>
<path fill="none" stroke="#000000" d="M579.0831,-252.1686C549.6021,-264.0935 511.4876,-279.5106 483.6081,-290.7877"/>
<polygon fill="none" stroke="#000000" points="482.1625,-287.5969 474.2046,-294.5914 484.7874,-294.0861 482.1625,-287.5969"/>
</g>
<!-- hasTemporalDirectPart -->
<g id="node7" class="node">
<title>hasTemporalDirectPart</title>
<g id="a_node7"><a xlink:href="http://emmo.info/emmo/middle/reductionistic#EMMO_65a2c5b8_e4d8_4a51_b2f8_e55effc0547d" xlink:title="hasTemporalDirectPart">
<polygon fill="#0079ba" stroke="#000000" points="348.5,-108 205.5,-108 205.5,-72 348.5,-72 348.5,-108"/>
<text text-anchor="middle" x="277" y="-86.3" font-family="Times,serif" font-size="14.00" fill="#ffffff">hasTemporalDirectPart</text>
</a>
</g>
</g>
<!-- hasTemporalPart -->
<g id="node10" class="node">
<title>hasTemporalPart</title>
<g id="a_node10"><a xlink:href="http://emmo.info/emmo/top/physical#EMMO_7afbed84_7593_4a23_bd88_9d9c6b04e8f6" xlink:title="hasTemporalPart">
<polygon fill="#0079ba" stroke="#000000" points="323,-180 213,-180 213,-144 323,-144 323,-180"/>
<text text-anchor="middle" x="268" y="-158.3" font-family="Times,serif" font-size="14.00" fill="#ffffff">hasTemporalPart</text>
</a>
</g>
</g>
<!-- hasTemporalDirectPart&#45;&gt;hasTemporalPart -->
<g id="edge16" class="edge">
<title>hasTemporalDirectPart&#45;&gt;hasTemporalPart</title>
<path fill="none" stroke="#000000" d="M274.7289,-108.1686C273.7664,-115.869 272.6218,-125.0257 271.5521,-133.5834"/>
<polygon fill="none" stroke="#000000" points="268.0691,-133.2298 270.3017,-143.5867 275.0151,-134.0981 268.0691,-133.2298"/>
</g>
<!-- EMMORelation -->
<g id="node26" class="node">
<title>EMMORelation</title>
<g id="a_node26"><a xlink:href="http://emmo.info/emmo/top/mereotopology#EMMO_ec2472ae_cf4a_46a5_8555_1556f5a6c3c5" xlink:title="EMMORelation">
<polygon fill="#0079ba" stroke="#000000" stroke-width="2" points="810,-612 704,-612 704,-576 810,-576 810,-612"/>
<text text-anchor="middle" x="757" y="-590.3" font-family="Times,serif" font-size="14.00" fill="#ffffff">EMMORelation</text>
</a>
</g>
</g>
<!-- mereotopological&#45;&gt;EMMORelation -->
<g id="edge26" class="edge">
<title>mereotopological&#45;&gt;EMMORelation</title>
<path fill="none" stroke="#000000" d="M715.8788,-540.1686C722.2136,-548.4614 729.8384,-558.443 736.7926,-567.5467"/>
<polygon fill="none" stroke="#000000" points="734.0825,-569.7647 742.9343,-575.5867 739.6452,-565.5153 734.0825,-569.7647"/>
</g>
<!-- connected&#45;&gt;mereotopological -->
<g id="edge5" class="edge">
<title>connected&#45;&gt;mereotopological</title>
<path fill="none" stroke="#000000" d="M627.2342,-468.1686C639.788,-477.2073 655.1283,-488.2524 668.6391,-497.9802"/>
<polygon fill="none" stroke="#000000" points="666.6134,-500.8345 676.7739,-503.8372 670.7036,-495.1537 666.6134,-500.8345"/>
</g>
<!-- hasProperPart -->
<g id="node27" class="node">
<title>hasProperPart</title>
<g id="a_node27"><a xlink:href="http://emmo.info/emmo/top/mereotopology#EMMO_9380ab64_0363_4804_b13f_3a8a94119a76" xlink:title="hasProperPart">
<polygon fill="#0079ba" stroke="#000000" points="447,-252 355,-252 355,-216 447,-216 447,-252"/>
<text text-anchor="middle" x="401" y="-230.3" font-family="Times,serif" font-size="14.00" fill="#ffffff">hasProperPart</text>
</a>
</g>
</g>
<!-- hasTemporalPart&#45;&gt;hasProperPart -->
<g id="edge15" class="edge">
<title>hasTemporalPart&#45;&gt;hasProperPart</title>
<path fill="none" stroke="#000000" d="M301.5615,-180.1686C318.8881,-189.5484 340.2058,-201.0888 358.6536,-211.0756"/>
<polygon fill="none" stroke="#000000" points="356.9889,-214.1543 367.4492,-215.8372 360.3214,-207.9985 356.9889,-214.1543"/>
</g>
<!-- hasPhysicsDimension -->
<g id="node11" class="node">
<title>hasPhysicsDimension</title>
<g id="a_node11"><a xlink:href="http://emmo.info/emmo/middle/metrology#EMMO_bed1d005_b04e_4a90_94cf_02bc678a8569" xlink:title="hasPhysicsDimension">
<polygon fill="#0079ba" stroke="#000000" points="893,-252 757,-252 757,-216 893,-216 893,-252"/>
<text text-anchor="middle" x="825" y="-230.3" font-family="Times,serif" font-size="14.00" fill="#ffffff">hasPhysicsDimension</text>
</a>
</g>
</g>
<!-- hasProperty -->
<g id="node25" class="node">
<title>hasProperty</title>
<g id="a_node25"><a xlink:href="http://emmo.info/emmo/middle/properties#EMMO_e1097637_70d2_4895_973f_2396f04fa204" xlink:title="hasProperty">
<polygon fill="#0079ba" stroke="#000000" points="865.5,-324 784.5,-324 784.5,-288 865.5,-288 865.5,-324"/>
<text text-anchor="middle" x="825" y="-302.3" font-family="Times,serif" font-size="14.00" fill="#ffffff">hasProperty</text>
</a>
</g>
</g>
<!-- hasPhysicsDimension&#45;&gt;hasProperty -->
<g id="edge14" class="edge">
<title>hasPhysicsDimension&#45;&gt;hasProperty</title>
<path fill="none" stroke="#000000" d="M825,-252.1686C825,-259.869 825,-269.0257 825,-277.5834"/>
<polygon fill="none" stroke="#000000" points="821.5001,-277.5867 825,-287.5867 828.5001,-277.5868 821.5001,-277.5867"/>
</g>
<!-- hasMember -->
<g id="node12" class="node">
<title>hasMember</title>
<g id="a_node12"><a xlink:href="http://emmo.info/emmo/top/mereotopology#EMMO_6b7276a4_4b9d_440a_b577_0277539c0fc4" xlink:title="hasMember">
<polygon fill="#0079ba" stroke="#000000" points="423,-180 341,-180 341,-144 423,-144 423,-180"/>
<text text-anchor="middle" x="382" y="-158.3" font-family="Times,serif" font-size="14.00" fill="#ffffff">hasMember</text>
</a>
</g>
</g>
<!-- hasMember&#45;&gt;hasProperPart -->
<g id="edge17" class="edge">
<title>hasMember&#45;&gt;hasProperPart</title>
<path fill="none" stroke="#000000" d="M386.7945,-180.1686C388.8489,-187.9537 391.296,-197.2271 393.5756,-205.8653"/>
<polygon fill="none" stroke="#000000" points="390.2052,-206.8108 396.1409,-215.5867 396.9735,-205.0247 390.2052,-206.8108"/>
</g>
<!-- hasContactWith -->
<g id="node13" class="node">
<title>hasContactWith</title>
<g id="a_node13"><a xlink:href="http://emmo.info/emmo/top/mereotopology#EMMO_4d6504f1_c470_4ce9_b941_bbbebc9ab05d" xlink:title="hasContactWith">
<polygon fill="#0079ba" stroke="#000000" points="715,-396 611,-396 611,-360 715,-360 715,-396"/>
<text text-anchor="middle" x="663" y="-374.3" font-family="Times,serif" font-size="14.00" fill="#ffffff">hasContactWith</text>
</a>
</g>
</g>
<!-- hasContactWith&#45;&gt;connected -->
<g id="edge30" class="edge">
<title>hasContactWith&#45;&gt;connected</title>
<path fill="none" stroke="#000000" d="M647.6071,-396.1686C640.5096,-404.546 631.952,-414.6469 624.176,-423.8251"/>
<polygon fill="none" stroke="#000000" points="621.3939,-421.6944 617.6001,-431.5867 626.7348,-426.2193 621.3939,-421.6944"/>
</g>
<!-- hasIndex -->
<g id="node14" class="node">
<title>hasIndex</title>
<g id="a_node14"><a xlink:href="http://emmo.info/emmo/top/semiotics#EMMO_297999d6_c9e4_4262_9536_bd524d1c6e21" xlink:title="hasIndex">
<polygon fill="#0079ba" stroke="#000000" points="914.5,-396 849.5,-396 849.5,-360 914.5,-360 914.5,-396"/>
<text text-anchor="middle" x="882" y="-374.3" font-family="Times,serif" font-size="14.00" fill="#ffffff">hasIndex</text>
</a>
</g>
</g>
<!-- hasIndex&#45;&gt;hasSign -->
<g id="edge3" class="edge">
<title>hasIndex&#45;&gt;hasSign</title>
<path fill="none" stroke="#000000" d="M882,-396.1686C882,-403.869 882,-413.0257 882,-421.5834"/>
<polygon fill="none" stroke="#000000" points="878.5001,-421.5867 882,-431.5867 885.5001,-421.5868 878.5001,-421.5867"/>
</g>
<!-- semiotical -->
<g id="node15" class="node">
<title>semiotical</title>
<g id="a_node15"><a xlink:href="http://emmo.info/emmo/top/semiotics#EMMO_2337e25c_3c60_43fc_a8f9_b11a3f974291" xlink:title="semiotical">
<polygon fill="#0079ba" stroke="#000000" points="854.5,-540 781.5,-540 781.5,-504 854.5,-504 854.5,-540"/>
<text text-anchor="middle" x="818" y="-518.3" font-family="Times,serif" font-size="14.00" fill="#ffffff">semiotical</text>
</a>
</g>
</g>
<!-- semiotical&#45;&gt;EMMORelation -->
<g id="edge22" class="edge">
<title>semiotical&#45;&gt;EMMORelation</title>
<path fill="none" stroke="#000000" d="M802.6071,-540.1686C795.5096,-548.546 786.952,-558.6469 779.176,-567.8251"/>
<polygon fill="none" stroke="#000000" points="776.3939,-565.6944 772.6001,-575.5867 781.7348,-570.2193 776.3939,-565.6944"/>
</g>
<!-- hasSpatioTemporalDirectPart -->
<g id="node16" class="node">
<title>hasSpatioTemporalDirectPart</title>
<g id="a_node16"><a xlink:href="http://emmo.info/emmo/middle/reductionistic#EMMO_663859e5_add3_4c9e_96fb_c99399de278d" xlink:title="hasSpatioTemporalDirectPart">
<polygon fill="#0079ba" stroke="#000000" points="602,-108 424,-108 424,-72 602,-72 602,-108"/>
<text text-anchor="middle" x="513" y="-86.3" font-family="Times,serif" font-size="14.00" fill="#ffffff">hasSpatioTemporalDirectPart</text>
</a>
</g>
</g>
<!-- hasSpatioTemporalPart -->
<g id="node20" class="node">
<title>hasSpatioTemporalPart</title>
<g id="a_node20"><a xlink:href="http://emmo.info/emmo/top/physical#EMMO_6e046dd0_9634_4013_b2b1_9cc468087c83" xlink:title="hasSpatioTemporalPart">
<polygon fill="#0079ba" stroke="#000000" points="585,-180 441,-180 441,-144 585,-144 585,-180"/>
<text text-anchor="middle" x="513" y="-158.3" font-family="Times,serif" font-size="14.00" fill="#ffffff">hasSpatioTemporalPart</text>
</a>
</g>
</g>
<!-- hasSpatioTemporalDirectPart&#45;&gt;hasSpatioTemporalPart -->
<g id="edge4" class="edge">
<title>hasSpatioTemporalDirectPart&#45;&gt;hasSpatioTemporalPart</title>
<path fill="none" stroke="#000000" d="M513,-108.1686C513,-115.869 513,-125.0257 513,-133.5834"/>
<polygon fill="none" stroke="#000000" points="509.5001,-133.5867 513,-143.5867 516.5001,-133.5868 509.5001,-133.5867"/>
</g>
<!-- hasSign&#45;&gt;semiotical -->
<g id="edge2" class="edge">
<title>hasSign&#45;&gt;semiotical</title>
<path fill="none" stroke="#000000" d="M865.8501,-468.1686C858.3283,-476.6306 849.2435,-486.8511 841.0196,-496.1029"/>
<polygon fill="none" stroke="#000000" points="838.3951,-493.7873 834.3673,-503.5867 843.627,-498.4379 838.3951,-493.7873"/>
</g>
<!-- hasReferenceUnit -->
<g id="node18" class="node">
<title>hasReferenceUnit</title>
<g id="a_node18"><a xlink:href="http://emmo.info/emmo/middle/metrology#EMMO_67fc0a36_8dcb_4ffa_9a43_31074efa3296" xlink:title="hasReferenceUnit">
<polygon fill="#0079ba" stroke="#000000" points="245.5,-36 132.5,-36 132.5,0 245.5,0 245.5,-36"/>
<text text-anchor="middle" x="189" y="-14.3" font-family="Times,serif" font-size="14.00" fill="#ffffff">hasReferenceUnit</text>
</a>
</g>
</g>
<!-- hasReferenceUnit&#45;&gt;hasSpatialDirectPart -->
<g id="edge7" class="edge">
<title>hasReferenceUnit&#45;&gt;hasSpatialDirectPart</title>
<path fill="none" stroke="#000000" d="M172.3454,-36.1686C164.5886,-44.6306 155.2198,-54.8511 146.739,-64.1029"/>
<polygon fill="none" stroke="#000000" points="144.0561,-61.8501 139.8788,-71.5867 149.2162,-66.5802 144.0561,-61.8501"/>
</g>
<!-- hasProperParticipant -->
<g id="node19" class="node">
<title>hasProperParticipant</title>
<g id="a_node19"><a xlink:href="http://emmo.info/emmo/middle/holistic#EMMO_c5aae418_1622_4d02_93c5_21159e28e6c1" xlink:title="hasProperParticipant">
<polygon fill="#0079ba" stroke="#000000" points="732.5,-180 603.5,-180 603.5,-144 732.5,-144 732.5,-180"/>
<text text-anchor="middle" x="668" y="-158.3" font-family="Times,serif" font-size="14.00" fill="#ffffff">hasProperParticipant</text>
</a>
</g>
</g>
<!-- hasProperParticipant&#45;&gt;hasParticipant -->
<g id="edge24" class="edge">
<title>hasProperParticipant&#45;&gt;hasParticipant</title>
<path fill="none" stroke="#000000" d="M656.8969,-180.1686C651.9326,-188.2921 645.9778,-198.0363 640.5072,-206.9882"/>
<polygon fill="none" stroke="#000000" points="637.4806,-205.2288 635.2526,-215.5867 643.4536,-208.879 637.4806,-205.2288"/>
</g>
<!-- hasProperParticipant&#45;&gt;hasProperPart -->
<g id="edge25" class="edge">
<title>hasProperParticipant&#45;&gt;hasProperPart</title>
<path fill="none" stroke="#000000" d="M603.3667,-179.4292C558.5509,-191.5144 499.4765,-207.4445 456.7325,-218.971"/>
<polygon fill="none" stroke="#000000" points="455.7995,-215.5975 447.0556,-221.5805 457.6221,-222.3561 455.7995,-215.5975"/>
</g>
<!-- hasSpatioTemporalPart&#45;&gt;hasProperPart -->
<g id="edge6" class="edge">
<title>hasSpatioTemporalPart&#45;&gt;hasProperPart</title>
<path fill="none" stroke="#000000" d="M484.7377,-180.1686C470.5448,-189.2926 453.1718,-200.461 437.9364,-210.2551"/>
<polygon fill="none" stroke="#000000" points="435.7724,-207.4854 429.2533,-215.8372 439.5578,-213.3737 435.7724,-207.4854"/>
</g>
<!-- hasIcon -->
<g id="node21" class="node">
<title>hasIcon</title>
<g id="a_node21"><a xlink:href="http://emmo.info/emmo/top/semiotics#EMMO_39c3815d_8cae_4c8f_b2ff_eeba24bec455" xlink:title="hasIcon">
<polygon fill="#0079ba" stroke="#000000" points="991.5,-396 932.5,-396 932.5,-360 991.5,-360 991.5,-396"/>
<text text-anchor="middle" x="962" y="-374.3" font-family="Times,serif" font-size="14.00" fill="#ffffff">hasIcon</text>
</a>
</g>
</g>
<!-- hasIcon&#45;&gt;hasSign -->
<g id="edge18" class="edge">
<title>hasIcon&#45;&gt;hasSign</title>
<path fill="none" stroke="#000000" d="M941.8126,-396.1686C932.1486,-404.8663 920.4204,-415.4217 909.9184,-424.8735"/>
<polygon fill="none" stroke="#000000" points="907.2725,-422.546 902.1809,-431.8372 911.9553,-427.749 907.2725,-422.546"/>
</g>
<!-- hasVariable -->
<g id="node22" class="node">
<title>hasVariable</title>
<g id="a_node22"><a xlink:href="http://emmo.info/emmo/middle/math#EMMO_3446e167_c576_49d6_846c_215bb8878a55" xlink:title="hasVariable">
<polygon fill="#0079ba" stroke="#000000" points="766.5,-324 685.5,-324 685.5,-288 766.5,-288 766.5,-324"/>
<text text-anchor="middle" x="726" y="-302.3" font-family="Times,serif" font-size="14.00" fill="#ffffff">hasVariable</text>
</a>
</g>
</g>
<!-- hasVariable&#45;&gt;hasConvention -->
<g id="edge19" class="edge">
<title>hasVariable&#45;&gt;hasConvention</title>
<path fill="none" stroke="#000000" d="M740.1312,-324.1686C746.5811,-332.4614 754.3445,-342.443 761.4252,-351.5467"/>
<polygon fill="none" stroke="#000000" points="758.7764,-353.842 767.6786,-359.5867 764.3019,-349.5444 758.7764,-353.842"/>
</g>
<!-- hasSpatialPart -->
<g id="node28" class="node">
<title>hasSpatialPart</title>
<g id="a_node28"><a xlink:href="http://emmo.info/emmo/top/physical#EMMO_f68030be_94b8_4c61_a161_886468558054" xlink:title="hasSpatialPart">
<polygon fill="#0079ba" stroke="#000000" points="187,-180 93,-180 93,-144 187,-144 187,-180"/>
<text text-anchor="middle" x="140" y="-158.3" font-family="Times,serif" font-size="14.00" fill="#ffffff">hasSpatialPart</text>
</a>
</g>
</g>
<!-- hasSpatialDirectPart&#45;&gt;hasSpatialPart -->
<g id="edge11" class="edge">
<title>hasSpatialDirectPart&#45;&gt;hasSpatialPart</title>
<path fill="none" stroke="#000000" d="M127.2898,-108.1686C129.108,-115.869 131.2699,-125.0257 133.2905,-133.5834"/>
<polygon fill="none" stroke="#000000" points="129.9481,-134.6586 135.6524,-143.5867 136.7608,-133.05 129.9481,-134.6586"/>
</g>
<!-- hasPart&#45;&gt;encloses -->
<g id="edge9" class="edge">
<title>hasPart&#45;&gt;encloses</title>
<path fill="none" stroke="#000000" d="M443.9813,-324.1686C443.1257,-331.869 442.1083,-341.0257 441.1574,-349.5834"/>
<polygon fill="none" stroke="#000000" points="437.6717,-349.2614 440.0459,-359.5867 444.6289,-350.0344 437.6717,-349.2614"/>
</g>
<!-- hasPart&#45;&gt;hasOverlapWith -->
<g id="edge10" class="edge">
<title>hasPart&#45;&gt;hasOverlapWith</title>
<path fill="none" stroke="#000000" d="M469.7202,-324.1686C481.4094,-333.1221 495.6688,-344.0442 508.2809,-353.7045"/>
<polygon fill="none" stroke="#000000" points="506.2203,-356.5349 516.2874,-359.8372 510.4769,-350.9778 506.2203,-356.5349"/>
</g>
<!-- hasProperty&#45;&gt;hasConvention -->
<g id="edge31" class="edge">
<title>hasProperty&#45;&gt;hasConvention</title>
<path fill="none" stroke="#000000" d="M814.1493,-324.1686C809.2977,-332.2921 803.4783,-342.0363 798.132,-350.9882"/>
<polygon fill="none" stroke="#000000" points="795.1194,-349.2067 792.9968,-359.5867 801.1292,-352.7959 795.1194,-349.2067"/>
</g>
<!-- hasProperPart&#45;&gt;hasPart -->
<g id="edge29" class="edge">
<title>hasProperPart&#45;&gt;hasPart</title>
<path fill="none" stroke="#000000" d="M412.3554,-252.1686C417.4326,-260.2921 423.5227,-270.0363 429.1176,-278.9882"/>
<polygon fill="none" stroke="#000000" points="426.2237,-280.9617 434.4917,-287.5867 432.1597,-277.2517 426.2237,-280.9617"/>
</g>
<!-- hasSpatialPart&#45;&gt;hasProperPart -->
<g id="edge1" class="edge">
<title>hasSpatialPart&#45;&gt;hasProperPart</title>
<path fill="none" stroke="#000000" d="M187.1744,-175.306C192.8424,-176.8934 198.5505,-178.4868 204,-180 251.5659,-193.208 305.6512,-208.0185 345.1017,-218.7835"/>
<polygon fill="none" stroke="#000000" points="344.2346,-222.1748 354.8033,-221.4298 346.0768,-215.4216 344.2346,-222.1748"/>
</g>
<!-- overcrosses -->
<g id="node29" class="node">
<title>overcrosses</title>
<g id="a_node29"><a xlink:href="http://emmo.info/emmo/top/mereotopology#EMMO_9cb984ca_48ad_4864_b09e_50d3fff19420" xlink:title="overcrosses">
<polygon fill="#0079ba" stroke="#000000" points="580,-324 500,-324 500,-288 580,-288 580,-324"/>
<text text-anchor="middle" x="540" y="-302.3" font-family="Times,serif" font-size="14.00" fill="#ffffff">overcrosses</text>
</a>
</g>
</g>
<!-- overcrosses&#45;&gt;hasOverlapWith -->
<g id="edge12" class="edge">
<title>overcrosses&#45;&gt;hasOverlapWith</title>
<path fill="none" stroke="#000000" d="M540,-324.1686C540,-331.869 540,-341.0257 540,-349.5834"/>
<polygon fill="none" stroke="#000000" points="536.5001,-349.5867 540,-359.5867 543.5001,-349.5868 536.5001,-349.5867"/>
</g>
<!-- hasInterpretant -->
<g id="node30" class="node">
<title>hasInterpretant</title>
<g id="a_node30"><a xlink:href="http://emmo.info/emmo/top/semiotics#EMMO_7fb7fe7e_bdf9_4eeb_adad_e384dd5285c6" xlink:title="hasInterpretant">
<polygon fill="#0079ba" stroke="#000000" points="1108,-396 1010,-396 1010,-360 1108,-360 1108,-396"/>
<text text-anchor="middle" x="1059" y="-374.3" font-family="Times,serif" font-size="14.00" fill="#ffffff">hasInterpretant</text>
</a>
</g>
</g>
<!-- hasInterpretant&#45;&gt;hasSign -->
<g id="edge20" class="edge">
<title>hasInterpretant&#45;&gt;hasSign</title>
<path fill="none" stroke="#000000" d="M1014.3354,-396.1686C985.5697,-407.8699 948.5379,-422.9337 920.9669,-434.1491"/>
<polygon fill="none" stroke="#000000" points="919.5824,-430.9337 911.6383,-437.9437 922.2201,-437.4177 919.5824,-430.9337"/>
</g>
<!-- hasModel -->
<g id="node31" class="node">
<title>hasModel</title>
<g id="a_node31"><a xlink:href="http://emmo.info/emmo/middle/models#EMMO_24c71baf_6db6_48b9_86c8_8c70cf36db0c" xlink:title="hasModel">
<polygon fill="#0079ba" stroke="#000000" points="997.5,-324 926.5,-324 926.5,-288 997.5,-288 997.5,-324"/>
<text text-anchor="middle" x="962" y="-302.3" font-family="Times,serif" font-size="14.00" fill="#ffffff">hasModel</text>
</a>
</g>
</g>
<!-- hasModel&#45;&gt;hasIcon -->
<g id="edge32" class="edge">
<title>hasModel&#45;&gt;hasIcon</title>
<path fill="none" stroke="#000000" d="M962,-324.1686C962,-331.869 962,-341.0257 962,-349.5834"/>
<polygon fill="none" stroke="#000000" points="958.5001,-349.5867 962,-359.5867 965.5001,-349.5868 958.5001,-349.5867"/>
</g>
<!-- key1 -->
<g id="node32" class="node">
<title>key1</title>
<text text-anchor="start" x="282" y="-13.8" font-family="Times,serif" font-size="14.00" fill="#000000">isA</text>
</g>
<!-- key2 -->
<g id="node33" class="node">
<title>key2</title>
<text text-anchor="start" x="361" y="-13.8" font-family="Times,serif" font-size="14.00" fill="#000000"> </text>
</g>
<!-- key1&#45;&gt;key2 -->
<g id="edge33" class="edge">
<title>key1:e&#45;&gt;key2:w</title>
<path fill="none" stroke="#000000" d="M303,-19C324,-19 331.7109,-19 348.5581,-19"/>
<polygon fill="none" stroke="#000000" points="349,-22.5001 359,-19 349,-15.5001 349,-22.5001"/>
</g>
</g>
</svg>
