<?xml version="1.0" encoding="UTF-8" standalone="no"?>
<!DOCTYPE svg PUBLIC "-//W3C//DTD SVG 1.1//EN"
 "http://www.w3.org/Graphics/SVG/1.1/DTD/svg11.dtd">
<!-- Generated by graphviz version 2.40.1 (20161225.0304)
 -->
<!-- Title: %3 Pages: 1 -->
<svg width="582pt" height="308pt"
 viewBox="0.00 0.00 581.60 308.00" xmlns="http://www.w3.org/2000/svg" xmlns:xlink="http://www.w3.org/1999/xlink">
<g id="graph0" class="graph" transform="scale(1 1) rotate(0) translate(4 304)">
<title>%3</title>
<polygon fill="#ffffff" stroke="transparent" points="-4,4 -4,-304 577.5975,-304 577.5975,4 -4,4"/>
<!-- Void -->
<g id="node1" class="node">
<title>Void</title>
<g id="a_node1"><a xlink:href="http://emmo.info/emmo/top/physical#EMMO_29072ec4_ffcb_42fb_bdc7_26f05a2e9873" xlink:title="Void">
<ellipse fill="#ffffcc" stroke="#000000" cx="28.5975" cy="-138" rx="28.6953" ry="18"/>
<text text-anchor="middle" x="28.5975" y="-134.3" font-family="Times,serif" font-size="14.00" fill="#000000">Void</text>
</a>
</g>
</g>
<!-- Void&#45;&gt;Void -->
<g id="edge2" class="edge">
<title>Void&#45;&gt;Void</title>
<path fill="none" stroke="#0000ff" d="M49.6832,-125.4525C62.7549,-122.4269 75.1949,-126.6094 75.1949,-138 75.1949,-146.365 68.4859,-150.8426 59.7447,-151.4328"/>
<polygon fill="#0000ff" stroke="#0000ff" points="59.9515,-147.9376 49.6832,-150.5475 59.3379,-154.9106 59.9515,-147.9376"/>
</g>
<!-- Item -->
<g id="node5" class="node">
<title>Item</title>
<g id="a_node5"><a xlink:href="http://emmo.info/emmo/top/mereotopology#EMMO_eb3a768e_d53e_4be9_a23b_0714833c36de" xlink:title="Item">
<ellipse fill="#ffffcc" stroke="#000000" cx="137.5975" cy="-210" rx="27.0966" ry="18"/>
<text text-anchor="middle" x="137.5975" y="-206.3" font-family="Times,serif" font-size="14.00" fill="#000000">Item</text>
</a>
</g>
</g>
<!-- Void&#45;&gt;Item -->
<g id="edge1" class="edge">
<title>Void&#45;&gt;Item</title>
<path fill="none" stroke="#000000" d="M48.3365,-151.0387C65.4674,-162.3544 90.4622,-178.8648 109.648,-191.538"/>
<polygon fill="none" stroke="#000000" points="107.7322,-194.4671 118.0052,-197.0583 111.5903,-188.6263 107.7322,-194.4671"/>
</g>
<!-- EMMO -->
<g id="node2" class="node">
<title>EMMO</title>
<g id="a_node2"><a xlink:href="http://emmo.info/emmo/top/mereotopology#EMMO_802d3e92_8770_4f98_a289_ccaaab7fdddf" xlink:title="EMMO">
<ellipse fill="#ffc880" stroke="#000000" stroke-width="2" cx="164.5975" cy="-282" rx="38.9931" ry="18"/>
<text text-anchor="middle" x="164.5975" y="-278.3" font-family="Times,serif" font-size="14.00" fill="#000000">EMMO</text>
</a>
</g>
</g>
<!-- Quantum -->
<g id="node4" class="node">
<title>Quantum</title>
<g id="a_node4"><a xlink:href="http://emmo.info/emmo/top/mereotopology#EMMO_3f9ae00e_810c_4518_aec2_7200e424cf68" xlink:title="Quantum">
<ellipse fill="#ffffcc" stroke="#000000" cx="137.5975" cy="-138" rx="44.393" ry="18"/>
<text text-anchor="middle" x="137.5975" y="-134.3" font-family="Times,serif" font-size="14.00" fill="#000000">Quantum</text>
</a>
</g>
</g>
<!-- EMMO&#45;&gt;Quantum -->
<g id="edge11" class="edge">
<title>EMMO&#45;&gt;Quantum</title>
<path fill="none" stroke="#0000ff" d="M170.4225,-264.0133C175.4752,-245.5557 180.9237,-216.1969 173.5975,-192 170.5119,-181.8092 164.7989,-171.7838 158.8186,-163.1903"/>
<polygon fill="#0000ff" stroke="#0000ff" points="161.6036,-161.07 152.8366,-155.121 155.9803,-165.2388 161.6036,-161.07"/>
</g>
<!-- Collection -->
<g id="node3" class="node">
<title>Collection</title>
<g id="a_node3"><a xlink:href="http://emmo.info/emmo/top/mereotopology#EMMO_2d2ecd97_067f_4d0e_950c_d746b7700a31" xlink:title="Collection">
<ellipse fill="#ffffcc" stroke="#000000" cx="267.5975" cy="-210" rx="47.3916" ry="18"/>
<text text-anchor="middle" x="267.5975" y="-206.3" font-family="Times,serif" font-size="14.00" fill="#000000">Collection</text>
</a>
</g>
</g>
<!-- Collection&#45;&gt;EMMO -->
<g id="edge12" class="edge">
<title>Collection&#45;&gt;EMMO</title>
<path fill="none" stroke="#000000" d="M244.7384,-225.9791C230.0365,-236.2562 210.7686,-249.725 194.8102,-260.8804"/>
<polygon fill="none" stroke="#000000" points="192.5257,-258.2069 186.3349,-266.8049 196.5362,-263.9442 192.5257,-258.2069"/>
</g>
<!-- Collection&#45;&gt;Item -->
<g id="edge13" class="edge">
<title>Collection&#45;&gt;Item</title>
<path fill="none" stroke="#0000ff" stroke-dasharray="5,2" d="M219.9147,-210C205.0472,-210 190.1797,-210 175.3122,-210"/>
<polygon fill="#0000ff" stroke="#0000ff" points="175.0194,-206.5001 165.0193,-210 175.0193,-213.5001 175.0194,-206.5001"/>
</g>
<!-- Quantum&#45;&gt;Item -->
<g id="edge9" class="edge">
<title>Quantum&#45;&gt;Item</title>
<path fill="none" stroke="#000000" d="M137.5975,-156.1686C137.5975,-163.869 137.5975,-173.0257 137.5975,-181.5834"/>
<polygon fill="none" stroke="#000000" points="134.0976,-181.5867 137.5975,-191.5867 141.0976,-181.5868 134.0976,-181.5867"/>
</g>
<!-- Item&#45;&gt;EMMO -->
<g id="edge5" class="edge">
<title>Item&#45;&gt;EMMO</title>
<path fill="none" stroke="#000000" d="M144.2716,-227.7978C147.3221,-235.9325 151.0037,-245.7499 154.3907,-254.7819"/>
<polygon fill="none" stroke="#000000" points="151.1181,-256.0231 157.9065,-264.1575 157.6724,-253.5652 151.1181,-256.0231"/>
</g>
<!-- Perspective -->
<g id="node6" class="node">
<title>Perspective</title>
<g id="a_node6"><a xlink:href="http://emmo.info/emmo/top#EMMO_49267eba_5548_4163_8f36_518d65b583f9" xlink:title="Perspective">
<ellipse fill="#ffffcc" stroke="#000000" stroke-width="2" cx="178.5975" cy="-42" rx="51.1914" ry="18"/>
<text text-anchor="middle" x="178.5975" y="-38.3" font-family="Times,serif" font-size="14.00" fill="#000000">Perspective</text>
</a>
</g>
</g>
<!-- Physical -->
<g id="node7" class="node">
<title>Physical</title>
<g id="a_node7"><a xlink:href="http://emmo.info/emmo/top/physical#EMMO_c5ddfdba_c074_4aa4_ad6b_1ac4942d300d" xlink:title="Physical">
<ellipse fill="#ffffcc" stroke="#000000" cx="239.5975" cy="-138" rx="40.0939" ry="18"/>
<text text-anchor="middle" x="239.5975" y="-134.3" font-family="Times,serif" font-size="14.00" fill="#000000">Physical</text>
</a>
</g>
</g>
<!-- Perspective&#45;&gt;Physical -->
<g id="edge10" class="edge">
<title>Perspective&#45;&gt;Physical</title>
<path fill="none" stroke="#000000" d="M189.7858,-59.6079C199.0724,-74.2229 212.4168,-95.2238 222.9567,-111.8112"/>
<polygon fill="none" stroke="#000000" points="220.1629,-113.9406 228.4801,-120.5037 226.071,-110.1864 220.1629,-113.9406"/>
</g>
<!-- Physical&#45;&gt;Item -->
<g id="edge6" class="edge">
<title>Physical&#45;&gt;Item</title>
<path fill="none" stroke="#000000" d="M217.9659,-153.2693C202.4288,-164.2367 181.3752,-179.0981 164.7142,-190.8588"/>
<polygon fill="none" stroke="#000000" points="162.6058,-188.0629 156.4545,-196.6892 166.6426,-193.7817 162.6058,-188.0629"/>
</g>
<!-- Physical&#45;&gt;Physical -->
<g id="edge8" class="edge">
<title>Physical&#45;&gt;Physical</title>
<path fill="none" stroke="#ff00ff" d="M268.0913,-125.1007C283.6465,-122.8018 297.8939,-127.1016 297.8939,-138 297.8939,-146.4293 289.371,-150.9112 278.3121,-151.4457"/>
<polygon fill="#ff00ff" stroke="#ff00ff" points="278.2639,-147.9382 268.0913,-150.8993 277.8902,-154.9282 278.2639,-147.9382"/>
</g>
<!-- Elementary -->
<g id="node8" class="node">
<title>Elementary</title>
<g id="a_node8"><a xlink:href="http://emmo.info/emmo/top/physical#EMMO_0f795e3e_c602_4577_9a43_d5a231aa1360" xlink:title="Elementary">
<ellipse fill="#ffffcc" stroke="#000000" stroke-width="2" cx="299.5975" cy="-42" rx="51.9908" ry="18"/>
<text text-anchor="middle" x="299.5975" y="-38.3" font-family="Times,serif" font-size="14.00" fill="#000000">Elementary</text>
</a>
</g>
</g>
<!-- Physical&#45;&gt;Elementary -->
<g id="edge7" class="edge">
<title>Physical&#45;&gt;Elementary</title>
<path fill="none" stroke="#0000ff" d="M255.2928,-121.3089C265.9486,-106.8671 279.4567,-85.7178 288.9236,-68.8906"/>
<polygon fill="#0000ff" stroke="#0000ff" points="292.0244,-70.5146 293.7234,-60.0569 285.8737,-67.1726 292.0244,-70.5146"/>
</g>
<!-- Elementary&#45;&gt;Physical -->
<g id="edge3" class="edge">
<title>Elementary&#45;&gt;Physical</title>
<path fill="none" stroke="#000000" d="M283.5548,-59.1629C273.0211,-73.4994 259.804,-94.2007 250.4496,-110.793"/>
<polygon fill="none" stroke="#000000" points="247.1408,-109.5512 245.4376,-120.0083 253.2902,-112.8957 247.1408,-109.5512"/>
</g>
<!-- Elementary&#45;&gt;Elementary -->
<g id="edge4" class="edge">
<title>Elementary&#45;&gt;Elementary</title>
<path fill="none" stroke="#ff00ff" d="M326.5347,-26.4269C347.7869,-20.4027 369.5928,-25.5938 369.5928,-42 369.5928,-55.8428 354.0689,-61.7013 336.4519,-59.5755"/>
<polygon fill="#ff00ff" stroke="#ff00ff" points="337.0296,-56.1216 326.5347,-57.5731 335.6441,-62.9831 337.0296,-56.1216"/>
</g>
<!-- key1 -->
<g id="node9" class="node">
<title>key1</title>
<text text-anchor="start" x="472.5975" y="-66.8" font-family="Times,serif" font-size="14.00" fill="#000000">isA</text>
<text text-anchor="start" x="425.5975" y="-47.8" font-family="Times,serif" font-size="14.00" fill="#000000">hasMember</text>
<text text-anchor="start" x="451.5975" y="-28.8" font-family="Times,serif" font-size="14.00" fill="#000000">hasPart</text>
<text text-anchor="start" x="397.5975" y="-9.8" font-family="Times,serif" font-size="14.00" fill="#000000">hasTemporalPart</text>
</g>
<!-- key2 -->
<g id="node10" class="node">
<title>key2</title>
<text text-anchor="start" x="544.5975" y="-66.8" font-family="Times,serif" font-size="14.00" fill="#000000"> </text>
<text text-anchor="start" x="544.5975" y="-47.8" font-family="Times,serif" font-size="14.00" fill="#000000"> </text>
<text text-anchor="start" x="544.5975" y="-28.8" font-family="Times,serif" font-size="14.00" fill="#000000"> </text>
<text text-anchor="start" x="544.5975" y="-9.8" font-family="Times,serif" font-size="14.00" fill="#000000"> </text>
</g>
<!-- key1&#45;&gt;key2 -->
<g id="edge14" class="edge">
<title>key1:e&#45;&gt;key2:w</title>
<path fill="none" stroke="#ff00ff" d="M493.5975,-13C511.462,-13 518.3357,-13 532.2505,-13"/>
<polygon fill="#ff00ff" stroke="#ff00ff" points="532.5975,-16.5001 542.5975,-13 532.5974,-9.5001 532.5975,-16.5001"/>
</g>
<!-- key1&#45;&gt;key2 -->
<g id="edge15" class="edge">
<title>key1:e&#45;&gt;key2:w</title>
<path fill="none" stroke="#0000ff" d="M493.5975,-32C511.462,-32 518.3357,-32 532.2505,-32"/>
<polygon fill="#0000ff" stroke="#0000ff" points="532.5975,-35.5001 542.5975,-32 532.5974,-28.5001 532.5975,-35.5001"/>
</g>
<!-- key1&#45;&gt;key2 -->
<g id="edge16" class="edge">
<title>key1:e&#45;&gt;key2:w</title>
<path fill="none" stroke="#0000ff" stroke-dasharray="5,2" d="M493.5975,-52C511.462,-52 518.3357,-52 532.2505,-52"/>
<polygon fill="#0000ff" stroke="#0000ff" points="532.5975,-55.5001 542.5975,-52 532.5974,-48.5001 532.5975,-55.5001"/>
</g>
<!-- key1&#45;&gt;key2 -->
<g id="edge17" class="edge">
<title>key1:e&#45;&gt;key2:w</title>
<path fill="none" stroke="#000000" d="M493.5975,-71C511.462,-71 518.3357,-71 532.2505,-71"/>
<polygon fill="none" stroke="#000000" points="532.5975,-74.5001 542.5975,-71 532.5974,-67.5001 532.5975,-74.5001"/>
</g>
</g>
</svg>
