<?xml version="1.0" encoding="UTF-8" standalone="no"?>
<!DOCTYPE svg PUBLIC "-//W3C//DTD SVG 1.1//EN"
 "http://www.w3.org/Graphics/SVG/1.1/DTD/svg11.dtd">
<!-- Generated by graphviz version 2.40.1 (20161225.0304)
 -->
<!-- Title: %3 Pages: 1 -->
<svg width="495pt" height="305pt"
 viewBox="0.00 0.00 495.49 305.00" xmlns="http://www.w3.org/2000/svg" xmlns:xlink="http://www.w3.org/1999/xlink">
<g id="graph0" class="graph" transform="scale(1 1) rotate(0) translate(4 301)">
<title>%3</title>
<polygon fill="#ffffff" stroke="transparent" points="-4,4 -4,-301 491.4925,-301 491.4925,4 -4,4"/>
<!-- Physical -->
<g id="node1" class="node">
<title>Physical</title>
<g id="a_node1"><a xlink:href="http://emmo.info/emmo/top/physical#EMMO_c5ddfdba_c074_4aa4_ad6b_1ac4942d300d" xlink:title="Physical">
<ellipse fill="#ffffcc" stroke="#000000" cx="308.1961" cy="-105" rx="40.0939" ry="18"/>
<text text-anchor="middle" x="308.1961" y="-101.3" font-family="Times,serif" font-size="14.00" fill="#000000">Physical</text>
</a>
</g>
</g>
<!-- Physical&#45;&gt;Physical -->
<g id="edge11" class="edge">
<title>Physical&#45;&gt;Physical</title>
<path fill="none" stroke="#ff00ff" d="M344.6313,-97.125C356.7764,-97.125 366.4925,-99.75 366.4925,-105 366.4925,-108.6914 361.689,-111.0851 354.6152,-112.1809"/>
<polygon fill="#ff00ff" stroke="#ff00ff" points="354.3645,-108.6898 344.6313,-112.875 354.85,-115.673 354.3645,-108.6898"/>
<text text-anchor="middle" x="426.9925" y="-101.3" font-family="Times,serif" font-size="14.00" fill="#000000">hasTemporalPart only</text>
</g>
<!-- Item -->
<g id="node5" class="node">
<title>Item</title>
<g id="a_node5"><a xlink:href="http://emmo.info/emmo/top/mereotopology#EMMO_eb3a768e_d53e_4be9_a23b_0714833c36de" xlink:title="Item">
<ellipse fill="#ffffcc" stroke="#000000" cx="135.1961" cy="-192" rx="27.0966" ry="18"/>
<text text-anchor="middle" x="135.1961" y="-188.3" font-family="Times,serif" font-size="14.00" fill="#000000">Item</text>
</a>
</g>
</g>
<!-- Physical&#45;&gt;Item -->
<g id="edge9" class="edge">
<title>Physical&#45;&gt;Item</title>
<path fill="none" stroke="#000000" d="M281.1648,-118.5938C250.0271,-134.2526 198.9626,-159.9324 166.228,-176.3944"/>
<polygon fill="none" stroke="#000000" points="164.4681,-173.3617 157.1066,-180.9814 167.6131,-179.6154 164.4681,-173.3617"/>
<text text-anchor="middle" x="241.6961" y="-144.8" font-family="Times,serif" font-size="14.00" fill="#000000">isA</text>
</g>
<!-- Elementary -->
<g id="node7" class="node">
<title>Elementary</title>
<g id="a_node7"><a xlink:href="http://emmo.info/emmo/top/physical#EMMO_0f795e3e_c602_4577_9a43_d5a231aa1360" xlink:title="Elementary">
<ellipse fill="#ffffcc" stroke="#000000" stroke-width="2" cx="137.1961" cy="-18" rx="51.9908" ry="18"/>
<text text-anchor="middle" x="137.1961" y="-14.3" font-family="Times,serif" font-size="14.00" fill="#000000">Elementary</text>
</a>
</g>
</g>
<!-- Physical&#45;&gt;Elementary -->
<g id="edge10" class="edge">
<title>Physical&#45;&gt;Elementary</title>
<path fill="none" stroke="#0000ff" d="M292.5288,-88.3158C281.3576,-77.2572 265.4855,-63.1523 249.1961,-54 231.2278,-43.9045 210.0227,-36.1743 190.9244,-30.5132"/>
<polygon fill="#0000ff" stroke="#0000ff" points="191.7333,-27.1046 181.1575,-27.74 189.8212,-33.8384 191.7333,-27.1046"/>
<text text-anchor="middle" x="307.6961" y="-57.8" font-family="Times,serif" font-size="14.00" fill="#000000">hasPart some</text>
</g>
<!-- EMMO -->
<g id="node2" class="node">
<title>EMMO</title>
<g id="a_node2"><a xlink:href="http://emmo.info/emmo/top/mereotopology#EMMO_802d3e92_8770_4f98_a289_ccaaab7fdddf" xlink:title="EMMO">
<ellipse fill="#ffc880" stroke="#000000" stroke-width="2" cx="193.1961" cy="-279" rx="38.9931" ry="18"/>
<text text-anchor="middle" x="193.1961" y="-275.3" font-family="Times,serif" font-size="14.00" fill="#000000">EMMO</text>
</a>
</g>
</g>
<!-- Quantum -->
<g id="node8" class="node">
<title>Quantum</title>
<g id="a_node8"><a xlink:href="http://emmo.info/emmo/top/mereotopology#EMMO_3f9ae00e_810c_4518_aec2_7200e424cf68" xlink:title="Quantum">
<ellipse fill="#ffffcc" stroke="#000000" cx="44.1961" cy="-105" rx="44.393" ry="18"/>
<text text-anchor="middle" x="44.1961" y="-101.3" font-family="Times,serif" font-size="14.00" fill="#000000">Quantum</text>
</a>
</g>
</g>
<!-- EMMO&#45;&gt;Quantum -->
<g id="edge2" class="edge">
<title>EMMO&#45;&gt;Quantum</title>
<path fill="none" stroke="#0000ff" d="M154.7111,-275.1831C114.9218,-268.9548 54.7105,-252.6338 26.1961,-210 10.6315,-186.7283 19.7675,-154.2653 29.8348,-131.6176"/>
<polygon fill="#0000ff" stroke="#0000ff" points="33.0045,-133.102 34.1371,-122.5679 26.6825,-130.0965 33.0045,-133.102"/>
<text text-anchor="middle" x="62.6961" y="-188.3" font-family="Times,serif" font-size="14.00" fill="#000000">hasPart some</text>
</g>
<!-- Perspective -->
<g id="node3" class="node">
<title>Perspective</title>
<g id="a_node3"><a xlink:href="http://emmo.info/emmo/top#EMMO_49267eba_5548_4163_8f36_518d65b583f9" xlink:title="Perspective">
<ellipse fill="#ffffcc" stroke="#000000" stroke-width="2" cx="397.1961" cy="-18" rx="51.1914" ry="18"/>
<text text-anchor="middle" x="397.1961" y="-14.3" font-family="Times,serif" font-size="14.00" fill="#000000">Perspective</text>
</a>
</g>
</g>
<!-- Perspective&#45;&gt;Physical -->
<g id="edge6" class="edge">
<title>Perspective&#45;&gt;Physical</title>
<path fill="none" stroke="#000000" d="M381.1658,-35.3019C371.739,-45.3192 359.489,-58.0692 348.1961,-69 343.8095,-73.2459 339.0562,-77.6698 334.4091,-81.9041"/>
<polygon fill="none" stroke="#000000" points="331.8577,-79.4918 326.7723,-88.7864 336.5439,-84.6918 331.8577,-79.4918"/>
<text text-anchor="middle" x="370.6961" y="-57.8" font-family="Times,serif" font-size="14.00" fill="#000000">isA</text>
</g>
<!-- Void -->
<g id="node4" class="node">
<title>Void</title>
<g id="a_node4"><a xlink:href="http://emmo.info/emmo/top/physical#EMMO_29072ec4_ffcb_42fb_bdc7_26f05a2e9873" xlink:title="Void">
<ellipse fill="#ffffcc" stroke="#000000" cx="135.1961" cy="-105" rx="28.6953" ry="18"/>
<text text-anchor="middle" x="135.1961" y="-101.3" font-family="Times,serif" font-size="14.00" fill="#000000">Void</text>
</a>
</g>
</g>
<!-- Void&#45;&gt;Void -->
<g id="edge13" class="edge">
<title>Void&#45;&gt;Void</title>
<path fill="none" stroke="#0000ff" d="M161.0721,-97.2192C172.2355,-96.5822 181.7935,-99.1758 181.7935,-105 181.7935,-108.9131 177.4789,-111.3679 171.2616,-112.3644"/>
<polygon fill="#0000ff" stroke="#0000ff" points="170.9208,-108.8753 161.0721,-112.7808 171.2067,-115.8695 170.9208,-108.8753"/>
<text text-anchor="middle" x="215.7935" y="-101.3" font-family="Times,serif" font-size="14.00" fill="#000000">hasPart only</text>
</g>
<!-- Void&#45;&gt;Item -->
<g id="edge12" class="edge">
<title>Void&#45;&gt;Item</title>
<path fill="none" stroke="#000000" d="M135.1961,-123.0265C135.1961,-134.8082 135.1961,-150.4393 135.1961,-163.8419"/>
<polygon fill="none" stroke="#000000" points="131.6962,-163.9966 135.1961,-173.9966 138.6962,-163.9967 131.6962,-163.9966"/>
<text text-anchor="middle" x="144.6961" y="-144.8" font-family="Times,serif" font-size="14.00" fill="#000000">isA</text>
</g>
<!-- Item&#45;&gt;EMMO -->
<g id="edge1" class="edge">
<title>Item&#45;&gt;EMMO</title>
<path fill="none" stroke="#000000" d="M146.3791,-208.7745C154.7753,-221.3688 166.4247,-238.8429 176.0023,-253.2094"/>
<polygon fill="none" stroke="#000000" points="173.1912,-255.3025 181.6504,-261.6815 179.0156,-251.4196 173.1912,-255.3025"/>
<text text-anchor="middle" x="177.6961" y="-231.8" font-family="Times,serif" font-size="14.00" fill="#000000">isA</text>
</g>
<!-- Collection -->
<g id="node6" class="node">
<title>Collection</title>
<g id="a_node6"><a xlink:href="http://emmo.info/emmo/top/mereotopology#EMMO_2d2ecd97_067f_4d0e_950c_d746b7700a31" xlink:title="Collection">
<ellipse fill="#ffffcc" stroke="#000000" cx="326.1961" cy="-192" rx="47.3916" ry="18"/>
<text text-anchor="middle" x="326.1961" y="-188.3" font-family="Times,serif" font-size="14.00" fill="#000000">Collection</text>
</a>
</g>
</g>
<!-- Collection&#45;&gt;EMMO -->
<g id="edge7" class="edge">
<title>Collection&#45;&gt;EMMO</title>
<path fill="none" stroke="#000000" d="M302.1108,-207.755C280.339,-221.9967 248.1571,-243.048 224.4176,-258.5769"/>
<polygon fill="none" stroke="#000000" points="222.2245,-255.8292 215.7718,-264.2324 226.0564,-261.6872 222.2245,-255.8292"/>
<text text-anchor="middle" x="277.6961" y="-231.8" font-family="Times,serif" font-size="14.00" fill="#000000">isA</text>
</g>
<!-- Collection&#45;&gt;Item -->
<g id="edge8" class="edge">
<title>Collection&#45;&gt;Item</title>
<path fill="none" stroke="#0000ff" stroke-dasharray="5,2" d="M278.5817,-192C245.8627,-192 203.0266,-192 172.7214,-192"/>
<polygon fill="#0000ff" stroke="#0000ff" points="172.5618,-188.5001 162.5617,-192 172.5617,-195.5001 172.5618,-188.5001"/>
<text text-anchor="middle" x="220.622" y="-177.8" font-family="Times,serif" font-size="14.00" fill="#000000">hasMember some</text>
</g>
<!-- Elementary&#45;&gt;Physical -->
<g id="edge3" class="edge">
<title>Elementary&#45;&gt;Physical</title>
<path fill="none" stroke="#000000" d="M164.1975,-33.4524C182.6193,-43.8348 207.6699,-57.6422 230.1961,-69 243.0369,-75.4744 257.2702,-82.1788 270.0253,-88.0214"/>
<polygon fill="none" stroke="#000000" points="268.8916,-91.3507 279.4436,-92.3032 271.7887,-84.9783 268.8916,-91.3507"/>
<text text-anchor="middle" x="239.6961" y="-57.8" font-family="Times,serif" font-size="14.00" fill="#000000">isA</text>
</g>
<!-- Elementary&#45;&gt;Elementary -->
<g id="edge4" class="edge">
<title>Elementary&#45;&gt;Elementary</title>
<path fill="none" stroke="#ff00ff" d="M184.3034,-10.1731C197.2772,-10.5512 207.1915,-13.1602 207.1915,-18 207.1915,-21.4786 202.0697,-23.8048 194.3715,-24.9785"/>
<polygon fill="#ff00ff" stroke="#ff00ff" points="193.9741,-21.4995 184.3034,-25.8269 194.562,-28.4748 193.9741,-21.4995"/>
<text text-anchor="middle" x="267.6915" y="-14.3" font-family="Times,serif" font-size="14.00" fill="#000000">hasTemporalPart only</text>
</g>
<!-- Quantum&#45;&gt;Item -->
<g id="edge5" class="edge">
<title>Quantum&#45;&gt;Item</title>
<path fill="none" stroke="#000000" d="M61.7418,-121.7745C76.1224,-135.523 96.5856,-155.0867 112.2628,-170.0748"/>
<polygon fill="none" stroke="#000000" points="109.8799,-172.6388 119.5267,-177.0194 114.7172,-167.5791 109.8799,-172.6388"/>
<text text-anchor="middle" x="104.6961" y="-144.8" font-family="Times,serif" font-size="14.00" fill="#000000">isA</text>
</g>
</g>
</svg>
