<?xml version="1.0" encoding="UTF-8" standalone="no"?>
<!DOCTYPE svg PUBLIC "-//W3C//DTD SVG 1.1//EN"
 "http://www.w3.org/Graphics/SVG/1.1/DTD/svg11.dtd">
<!-- Generated by graphviz version 2.40.1 (20161225.0304)
 -->
<!-- Title: %3 Pages: 1 -->
<svg width="655pt" height="305pt"
 viewBox="0.00 0.00 655.44 305.00" xmlns="http://www.w3.org/2000/svg" xmlns:xlink="http://www.w3.org/1999/xlink">
<g id="graph0" class="graph" transform="scale(1 1) rotate(0) translate(4 301)">
<title>%3</title>
<polygon fill="#ffffff" stroke="transparent" points="-4,4 -4,-301 651.4412,-301 651.4412,4 -4,4"/>
<!-- Elementary -->
<g id="node1" class="node">
<title>Elementary</title>
<g id="a_node1"><a xlink:href="http://emmo.info/emmo/top/physical#EMMO_0f795e3e_c602_4577_9a43_d5a231aa1360" xlink:title="Elementary">
<ellipse fill="#ffffcc" stroke="#000000" stroke-width="2" cx="51.9954" cy="-18" rx="51.9908" ry="18"/>
<text text-anchor="middle" x="51.9954" y="-14.3" font-family="Times,serif" font-size="14.00" fill="#000000">Elementary</text>
</a>
</g>
</g>
<!-- Elementary&#45;&gt;Elementary -->
<g id="edge7" class="edge">
<title>Elementary&#45;&gt;Elementary</title>
<path fill="none" stroke="#ff00ff" d="M99.1027,-10.1731C112.0765,-10.5512 121.9908,-13.1602 121.9908,-18 121.9908,-21.4786 116.869,-23.8048 109.1708,-24.9785"/>
<polygon fill="#ff00ff" stroke="#ff00ff" points="108.7734,-21.4995 99.1027,-25.8269 109.3613,-28.4748 108.7734,-21.4995"/>
<text text-anchor="middle" x="182.4908" y="-14.3" font-family="Times,serif" font-size="14.00" fill="#000000">hasTemporalPart only</text>
</g>
<!-- Physical -->
<g id="node7" class="node">
<title>Physical</title>
<g id="a_node7"><a xlink:href="http://emmo.info/emmo/top/physical#EMMO_c5ddfdba_c074_4aa4_ad6b_1ac4942d300d" xlink:title="Physical">
<ellipse fill="#ffffcc" stroke="#000000" cx="103.9954" cy="-105" rx="40.0939" ry="18"/>
<text text-anchor="middle" x="103.9954" y="-101.3" font-family="Times,serif" font-size="14.00" fill="#000000">Physical</text>
</a>
</g>
</g>
<!-- Elementary&#45;&gt;Physical -->
<g id="edge6" class="edge">
<title>Elementary&#45;&gt;Physical</title>
<path fill="none" stroke="#000000" d="M62.7698,-36.0265C70.1883,-48.4381 80.1601,-65.1218 88.4382,-78.9716"/>
<polygon fill="none" stroke="#000000" points="85.4548,-80.8023 93.5896,-87.5903 91.4634,-77.211 85.4548,-80.8023"/>
<text text-anchor="middle" x="91.4954" y="-57.8" font-family="Times,serif" font-size="14.00" fill="#000000">isA</text>
</g>
<!-- Perspective -->
<g id="node2" class="node">
<title>Perspective</title>
<g id="a_node2"><a xlink:href="http://emmo.info/emmo/top#EMMO_49267eba_5548_4163_8f36_518d65b583f9" xlink:title="Perspective">
<ellipse fill="#ffffcc" stroke="#000000" stroke-width="2" cx="311.9954" cy="-18" rx="51.1914" ry="18"/>
<text text-anchor="middle" x="311.9954" y="-14.3" font-family="Times,serif" font-size="14.00" fill="#000000">Perspective</text>
</a>
</g>
</g>
<!-- Perspective&#45;&gt;Physical -->
<g id="edge10" class="edge">
<title>Perspective&#45;&gt;Physical</title>
<path fill="none" stroke="#000000" d="M278.5766,-31.9781C241.6294,-47.4319 182.1795,-72.298 143.0971,-88.645"/>
<polygon fill="none" stroke="#000000" points="141.5007,-85.5188 133.6258,-92.6065 144.2019,-91.9766 141.5007,-85.5188"/>
<text text-anchor="middle" x="230.4954" y="-57.8" font-family="Times,serif" font-size="14.00" fill="#000000">isA</text>
</g>
<!-- Quantum -->
<g id="node3" class="node">
<title>Quantum</title>
<g id="a_node3"><a xlink:href="http://emmo.info/emmo/top/mereotopology#EMMO_3f9ae00e_810c_4518_aec2_7200e424cf68" xlink:title="Quantum">
<ellipse fill="#ffffcc" stroke="#000000" cx="344.9954" cy="-105" rx="44.393" ry="18"/>
<text text-anchor="middle" x="344.9954" y="-101.3" font-family="Times,serif" font-size="14.00" fill="#000000">Quantum</text>
</a>
</g>
</g>
<!-- Item -->
<g id="node6" class="node">
<title>Item</title>
<g id="a_node6"><a xlink:href="http://emmo.info/emmo/top/mereotopology#EMMO_eb3a768e_d53e_4be9_a23b_0714833c36de" xlink:title="Item">
<ellipse fill="#ffffcc" stroke="#000000" cx="367.9954" cy="-192" rx="27.0966" ry="18"/>
<text text-anchor="middle" x="367.9954" y="-188.3" font-family="Times,serif" font-size="14.00" fill="#000000">Item</text>
</a>
</g>
</g>
<!-- Quantum&#45;&gt;Item -->
<g id="edge13" class="edge">
<title>Quantum&#45;&gt;Item</title>
<path fill="none" stroke="#000000" d="M343.064,-123.2872C342.5868,-133.1639 342.9176,-145.4588 345.9954,-156 347.0642,-159.6606 348.6081,-163.3212 350.3898,-166.8304"/>
<polygon fill="none" stroke="#000000" points="347.4614,-168.758 355.4981,-175.6619 353.5208,-165.2532 347.4614,-168.758"/>
<text text-anchor="middle" x="355.4954" y="-144.8" font-family="Times,serif" font-size="14.00" fill="#000000">isA</text>
</g>
<!-- Void -->
<g id="node4" class="node">
<title>Void</title>
<g id="a_node4"><a xlink:href="http://emmo.info/emmo/top/physical#EMMO_29072ec4_ffcb_42fb_bdc7_26f05a2e9873" xlink:title="Void">
<ellipse fill="#ffffcc" stroke="#000000" cx="435.9954" cy="-105" rx="28.6953" ry="18"/>
<text text-anchor="middle" x="435.9954" y="-101.3" font-family="Times,serif" font-size="14.00" fill="#000000">Void</text>
</a>
</g>
</g>
<!-- Void&#45;&gt;Void -->
<g id="edge12" class="edge">
<title>Void&#45;&gt;Void</title>
<path fill="none" stroke="#0000ff" d="M461.8714,-97.2192C473.0348,-96.5822 482.5928,-99.1758 482.5928,-105 482.5928,-108.9131 478.2782,-111.3679 472.0609,-112.3644"/>
<polygon fill="#0000ff" stroke="#0000ff" points="471.7201,-108.8753 461.8714,-112.7808 472.006,-115.8695 471.7201,-108.8753"/>
<text text-anchor="middle" x="516.5928" y="-101.3" font-family="Times,serif" font-size="14.00" fill="#000000">hasPart only</text>
</g>
<!-- Void&#45;&gt;Item -->
<g id="edge11" class="edge">
<title>Void&#45;&gt;Item</title>
<path fill="none" stroke="#000000" d="M423.2051,-121.364C413.0423,-134.3664 398.6702,-152.7543 387.1373,-167.5096"/>
<polygon fill="none" stroke="#000000" points="384.1289,-165.6751 380.7283,-175.7093 389.6442,-169.9858 384.1289,-165.6751"/>
<text text-anchor="middle" x="415.4954" y="-144.8" font-family="Times,serif" font-size="14.00" fill="#000000">isA</text>
</g>
<!-- EMMO -->
<g id="node5" class="node">
<title>EMMO</title>
<g id="a_node5"><a xlink:href="http://emmo.info/emmo/top/mereotopology#EMMO_802d3e92_8770_4f98_a289_ccaaab7fdddf" xlink:title="EMMO">
<ellipse fill="#ffc880" stroke="#000000" stroke-width="2" cx="398.9954" cy="-279" rx="38.9931" ry="18"/>
<text text-anchor="middle" x="398.9954" y="-275.3" font-family="Times,serif" font-size="14.00" fill="#000000">EMMO</text>
</a>
</g>
</g>
<!-- EMMO&#45;&gt;Quantum -->
<g id="edge1" class="edge">
<title>EMMO&#45;&gt;Quantum</title>
<path fill="none" stroke="#0000ff" d="M404.3092,-261.1248C409.7286,-239.5768 415.8103,-202.6869 403.9954,-174 399.8688,-163.9806 383.1544,-144.8186 368.5647,-129.2257"/>
<polygon fill="#0000ff" stroke="#0000ff" points="371.0558,-126.7661 361.6376,-121.9134 365.974,-131.5802 371.0558,-126.7661"/>
<text text-anchor="middle" x="446.4954" y="-188.3" font-family="Times,serif" font-size="14.00" fill="#000000">hasPart some</text>
</g>
<!-- Item&#45;&gt;EMMO -->
<g id="edge2" class="edge">
<title>Item&#45;&gt;EMMO</title>
<path fill="none" stroke="#000000" d="M374.2687,-209.6057C378.5681,-221.6719 384.3567,-237.9172 389.2522,-251.6562"/>
<polygon fill="none" stroke="#000000" points="385.9715,-252.8768 392.625,-261.1218 392.5654,-250.5272 385.9715,-252.8768"/>
<text text-anchor="middle" x="394.4954" y="-231.8" font-family="Times,serif" font-size="14.00" fill="#000000">isA</text>
</g>
<!-- Physical&#45;&gt;Elementary -->
<g id="edge4" class="edge">
<title>Physical&#45;&gt;Elementary</title>
<path fill="none" stroke="#0000ff" d="M109.0093,-87C110.8472,-76.75 111.3472,-64 105.9954,-54 102.7448,-47.9262 97.9667,-42.7002 92.5762,-38.2634"/>
<polygon fill="#0000ff" stroke="#0000ff" points="94.5031,-35.3378 84.3468,-32.321 90.4051,-41.0129 94.5031,-35.3378"/>
<text text-anchor="middle" x="147.4954" y="-57.8" font-family="Times,serif" font-size="14.00" fill="#000000">hasPart some</text>
</g>
<!-- Physical&#45;&gt;Item -->
<g id="edge3" class="edge">
<title>Physical&#45;&gt;Item</title>
<path fill="none" stroke="#000000" d="M136.6318,-115.7552C186.8132,-132.2922 282.4699,-163.8155 333.6577,-180.6842"/>
<polygon fill="none" stroke="#000000" points="332.6826,-184.0479 343.2757,-183.8537 334.8736,-177.3996 332.6826,-184.0479"/>
<text text-anchor="middle" x="260.4954" y="-144.8" font-family="Times,serif" font-size="14.00" fill="#000000">isA</text>
</g>
<!-- Physical&#45;&gt;Physical -->
<g id="edge5" class="edge">
<title>Physical&#45;&gt;Physical</title>
<path fill="none" stroke="#ff00ff" d="M140.4307,-97.125C152.5757,-97.125 162.2918,-99.75 162.2918,-105 162.2918,-108.6914 157.4883,-111.0851 150.4145,-112.1809"/>
<polygon fill="#ff00ff" stroke="#ff00ff" points="150.1638,-108.6898 140.4307,-112.875 150.6493,-115.673 150.1638,-108.6898"/>
<text text-anchor="middle" x="222.7918" y="-101.3" font-family="Times,serif" font-size="14.00" fill="#000000">hasTemporalPart only</text>
</g>
<!-- Collection -->
<g id="node8" class="node">
<title>Collection</title>
<g id="a_node8"><a xlink:href="http://emmo.info/emmo/top/mereotopology#EMMO_2d2ecd97_067f_4d0e_950c_d746b7700a31" xlink:title="Collection">
<ellipse fill="#ffffcc" stroke="#000000" cx="599.9954" cy="-192" rx="47.3916" ry="18"/>
<text text-anchor="middle" x="599.9954" y="-188.3" font-family="Times,serif" font-size="14.00" fill="#000000">Collection</text>
</a>
</g>
</g>
<!-- Collection&#45;&gt;EMMO -->
<g id="edge8" class="edge">
<title>Collection&#45;&gt;EMMO</title>
<path fill="none" stroke="#000000" d="M568.5891,-205.5938C532.9638,-221.0137 474.8879,-246.151 436.8056,-262.6344"/>
<polygon fill="none" stroke="#000000" points="435.3673,-259.4431 427.5803,-266.6274 438.1479,-265.8672 435.3673,-259.4431"/>
<text text-anchor="middle" x="520.4954" y="-231.8" font-family="Times,serif" font-size="14.00" fill="#000000">isA</text>
</g>
<!-- Collection&#45;&gt;Item -->
<g id="edge9" class="edge">
<title>Collection&#45;&gt;Item</title>
<path fill="none" stroke="#0000ff" stroke-dasharray="5,2" d="M581.8368,-175.1951C569.7104,-165.1606 552.8518,-153.3562 535.4954,-148 514.4736,-141.5126 457.6049,-141.8043 436.4954,-148 420.6275,-152.6573 404.9557,-162.2481 392.6153,-171.2901"/>
<polygon fill="#0000ff" stroke="#0000ff" points="390.4545,-168.5364 384.6426,-177.3949 394.7102,-174.0942 390.4545,-168.5364"/>
<text text-anchor="middle" x="485.9954" y="-144.8" font-family="Times,serif" font-size="14.00" fill="#000000">hasMember some</text>
</g>
</g>
</svg>
