<?xml version="1.0" encoding="UTF-8" standalone="no"?>
<!DOCTYPE svg PUBLIC "-//W3C//DTD SVG 1.1//EN"
 "http://www.w3.org/Graphics/SVG/1.1/DTD/svg11.dtd">
<!-- Generated by graphviz version 2.40.1 (20161225.0304)
 -->
<!-- Title: %3 Pages: 1 -->
<svg width="454pt" height="308pt"
 viewBox="0.00 0.00 454.00 308.00" xmlns="http://www.w3.org/2000/svg" xmlns:xlink="http://www.w3.org/1999/xlink">
<g id="graph0" class="graph" transform="scale(1 1) rotate(0) translate(4 304)">
<title>%3</title>
<polygon fill="#ffffff" stroke="transparent" points="-4,4 -4,-304 449.9954,-304 449.9954,4 -4,4"/>
<!-- Elementary -->
<g id="node1" class="node">
<title>Elementary</title>
<g id="a_node1"><a xlink:href="http://emmo.info/emmo/top/physical#EMMO_0f795e3e_c602_4577_9a43_d5a231aa1360" xlink:title="Elementary">
<ellipse fill="#ffffcc" stroke="#000000" stroke-width="2" cx="51.9954" cy="-42" rx="51.9908" ry="18"/>
<text text-anchor="middle" x="51.9954" y="-38.3" font-family="Times,serif" font-size="14.00" fill="#000000">Elementary</text>
</a>
</g>
</g>
<!-- Elementary&#45;&gt;Elementary -->
<g id="edge10" class="edge">
<title>Elementary&#45;&gt;Elementary</title>
<path fill="none" stroke="#ff00ff" d="M78.9326,-26.4269C100.1849,-20.4027 121.9908,-25.5938 121.9908,-42 121.9908,-55.8428 106.4668,-61.7013 88.8499,-59.5755"/>
<polygon fill="#ff00ff" stroke="#ff00ff" points="89.4275,-56.1216 78.9326,-57.5731 88.0421,-62.9831 89.4275,-56.1216"/>
</g>
<!-- Physical -->
<g id="node7" class="node">
<title>Physical</title>
<g id="a_node7"><a xlink:href="http://emmo.info/emmo/top/physical#EMMO_c5ddfdba_c074_4aa4_ad6b_1ac4942d300d" xlink:title="Physical">
<ellipse fill="#ffffcc" stroke="#000000" cx="120.9954" cy="-138" rx="40.0939" ry="18"/>
<text text-anchor="middle" x="120.9954" y="-134.3" font-family="Times,serif" font-size="14.00" fill="#000000">Physical</text>
</a>
</g>
</g>
<!-- Elementary&#45;&gt;Physical -->
<g id="edge9" class="edge">
<title>Elementary&#45;&gt;Physical</title>
<path fill="none" stroke="#000000" d="M59.5623,-60.0569C68.8293,-75.135 84.1956,-96.7765 97.3593,-113.4312"/>
<polygon fill="none" stroke="#000000" points="94.9834,-116.0586 103.9983,-121.6248 100.4222,-111.6518 94.9834,-116.0586"/>
</g>
<!-- Item -->
<g id="node2" class="node">
<title>Item</title>
<g id="a_node2"><a xlink:href="http://emmo.info/emmo/top/mereotopology#EMMO_eb3a768e_d53e_4be9_a23b_0714833c36de" xlink:title="Item">
<ellipse fill="#ffffcc" stroke="#000000" cx="240.9954" cy="-210" rx="27.0966" ry="18"/>
<text text-anchor="middle" x="240.9954" y="-206.3" font-family="Times,serif" font-size="14.00" fill="#000000">Item</text>
</a>
</g>
</g>
<!-- EMMO -->
<g id="node4" class="node">
<title>EMMO</title>
<g id="a_node4"><a xlink:href="http://emmo.info/emmo/top/mereotopology#EMMO_802d3e92_8770_4f98_a289_ccaaab7fdddf" xlink:title="EMMO">
<ellipse fill="#ffc880" stroke="#000000" stroke-width="2" cx="267.9954" cy="-282" rx="38.9931" ry="18"/>
<text text-anchor="middle" x="267.9954" y="-278.3" font-family="Times,serif" font-size="14.00" fill="#000000">EMMO</text>
</a>
</g>
</g>
<!-- Item&#45;&gt;EMMO -->
<g id="edge5" class="edge">
<title>Item&#45;&gt;EMMO</title>
<path fill="none" stroke="#000000" d="M247.6695,-227.7978C250.7201,-235.9325 254.4016,-245.7499 257.7886,-254.7819"/>
<polygon fill="none" stroke="#000000" points="254.516,-256.0231 261.3044,-264.1575 261.0703,-253.5652 254.516,-256.0231"/>
</g>
<!-- Void -->
<g id="node3" class="node">
<title>Void</title>
<g id="a_node3"><a xlink:href="http://emmo.info/emmo/top/physical#EMMO_29072ec4_ffcb_42fb_bdc7_26f05a2e9873" xlink:title="Void">
<ellipse fill="#ffffcc" stroke="#000000" cx="331.9954" cy="-138" rx="28.6953" ry="18"/>
<text text-anchor="middle" x="331.9954" y="-134.3" font-family="Times,serif" font-size="14.00" fill="#000000">Void</text>
</a>
</g>
</g>
<!-- Void&#45;&gt;Item -->
<g id="edge12" class="edge">
<title>Void&#45;&gt;Item</title>
<path fill="none" stroke="#000000" d="M314.0167,-152.2249C300.4685,-162.9443 281.7056,-177.7897 266.5919,-189.7478"/>
<polygon fill="none" stroke="#000000" points="264.2976,-187.1 258.6271,-196.0497 268.641,-192.5896 264.2976,-187.1"/>
</g>
<!-- Void&#45;&gt;Void -->
<g id="edge13" class="edge">
<title>Void&#45;&gt;Void</title>
<path fill="none" stroke="#0000ff" d="M353.0811,-125.4525C366.1528,-122.4269 378.5928,-126.6094 378.5928,-138 378.5928,-146.365 371.8839,-150.8426 363.1426,-151.4328"/>
<polygon fill="#0000ff" stroke="#0000ff" points="363.3494,-147.9376 353.0811,-150.5475 362.7358,-154.9106 363.3494,-147.9376"/>
</g>
<!-- Quantum -->
<g id="node6" class="node">
<title>Quantum</title>
<g id="a_node6"><a xlink:href="http://emmo.info/emmo/top/mereotopology#EMMO_3f9ae00e_810c_4518_aec2_7200e424cf68" xlink:title="Quantum">
<ellipse fill="#ffffcc" stroke="#000000" cx="240.9954" cy="-138" rx="44.393" ry="18"/>
<text text-anchor="middle" x="240.9954" y="-134.3" font-family="Times,serif" font-size="14.00" fill="#000000">Quantum</text>
</a>
</g>
</g>
<!-- EMMO&#45;&gt;Quantum -->
<g id="edge6" class="edge">
<title>EMMO&#45;&gt;Quantum</title>
<path fill="none" stroke="#0000ff" d="M273.8204,-264.0133C278.8731,-245.5557 284.3216,-216.1969 276.9954,-192 273.9099,-181.8092 268.1968,-171.7838 262.2165,-163.1903"/>
<polygon fill="#0000ff" stroke="#0000ff" points="265.0016,-161.07 256.2345,-155.121 259.3782,-165.2388 265.0016,-161.07"/>
</g>
<!-- Collection -->
<g id="node5" class="node">
<title>Collection</title>
<g id="a_node5"><a xlink:href="http://emmo.info/emmo/top/mereotopology#EMMO_2d2ecd97_067f_4d0e_950c_d746b7700a31" xlink:title="Collection">
<ellipse fill="#ffffcc" stroke="#000000" cx="370.9954" cy="-210" rx="47.3916" ry="18"/>
<text text-anchor="middle" x="370.9954" y="-206.3" font-family="Times,serif" font-size="14.00" fill="#000000">Collection</text>
</a>
</g>
</g>
<!-- Collection&#45;&gt;Item -->
<g id="edge8" class="edge">
<title>Collection&#45;&gt;Item</title>
<path fill="none" stroke="#0000ff" stroke-dasharray="5,2" d="M323.3126,-210C308.4451,-210 293.5776,-210 278.7101,-210"/>
<polygon fill="#0000ff" stroke="#0000ff" points="278.4173,-206.5001 268.4173,-210 278.4172,-213.5001 278.4173,-206.5001"/>
</g>
<!-- Collection&#45;&gt;EMMO -->
<g id="edge7" class="edge">
<title>Collection&#45;&gt;EMMO</title>
<path fill="none" stroke="#000000" d="M348.1363,-225.9791C333.4345,-236.2562 314.1665,-249.725 298.2081,-260.8804"/>
<polygon fill="none" stroke="#000000" points="295.9236,-258.2069 289.7328,-266.8049 299.9342,-263.9442 295.9236,-258.2069"/>
</g>
<!-- Quantum&#45;&gt;Item -->
<g id="edge11" class="edge">
<title>Quantum&#45;&gt;Item</title>
<path fill="none" stroke="#000000" d="M240.9954,-156.1686C240.9954,-163.869 240.9954,-173.0257 240.9954,-181.5834"/>
<polygon fill="none" stroke="#000000" points="237.4955,-181.5867 240.9954,-191.5867 244.4955,-181.5868 237.4955,-181.5867"/>
</g>
<!-- Physical&#45;&gt;Elementary -->
<g id="edge3" class="edge">
<title>Physical&#45;&gt;Elementary</title>
<path fill="none" stroke="#0000ff" d="M113.4685,-120.0083C104.3485,-105.1598 89.2872,-83.9142 76.2426,-67.3435"/>
<polygon fill="#0000ff" stroke="#0000ff" points="78.6484,-64.7511 69.6471,-59.1629 73.1989,-69.1446 78.6484,-64.7511"/>
</g>
<!-- Physical&#45;&gt;Item -->
<g id="edge2" class="edge">
<title>Physical&#45;&gt;Item</title>
<path fill="none" stroke="#000000" d="M145.2792,-152.5703C164.608,-164.1676 191.712,-180.43 212.1458,-192.6903"/>
<polygon fill="none" stroke="#000000" points="210.3567,-195.6984 220.7323,-197.8422 213.9582,-189.6959 210.3567,-195.6984"/>
</g>
<!-- Physical&#45;&gt;Physical -->
<g id="edge4" class="edge">
<title>Physical&#45;&gt;Physical</title>
<path fill="none" stroke="#ff00ff" d="M149.4892,-125.1007C165.0445,-122.8018 179.2918,-127.1016 179.2918,-138 179.2918,-146.4293 170.769,-150.9112 159.71,-151.4457"/>
<polygon fill="#ff00ff" stroke="#ff00ff" points="159.6619,-147.9382 149.4892,-150.8993 159.2881,-154.9282 159.6619,-147.9382"/>
</g>
<!-- Perspective -->
<g id="node8" class="node">
<title>Perspective</title>
<g id="a_node8"><a xlink:href="http://emmo.info/emmo/top#EMMO_49267eba_5548_4163_8f36_518d65b583f9" xlink:title="Perspective">
<ellipse fill="#ffffcc" stroke="#000000" stroke-width="2" cx="190.9954" cy="-42" rx="51.1914" ry="18"/>
<text text-anchor="middle" x="190.9954" y="-38.3" font-family="Times,serif" font-size="14.00" fill="#000000">Perspective</text>
</a>
</g>
</g>
<!-- Perspective&#45;&gt;Physical -->
<g id="edge1" class="edge">
<title>Perspective&#45;&gt;Physical</title>
<path fill="none" stroke="#000000" d="M178.1563,-59.6079C167.3336,-74.4504 151.7085,-95.8792 139.5289,-112.5826"/>
<polygon fill="none" stroke="#000000" points="136.5813,-110.6845 133.5176,-120.8267 142.2373,-114.8088 136.5813,-110.6845"/>
</g>
<!-- key1 -->
<g id="node9" class="node">
<title>key1</title>
<text text-anchor="start" x="344.9954" y="-66.8" font-family="Times,serif" font-size="14.00" fill="#000000">isA</text>
<text text-anchor="start" x="297.9954" y="-47.8" font-family="Times,serif" font-size="14.00" fill="#000000">hasMember</text>
<text text-anchor="start" x="323.9954" y="-28.8" font-family="Times,serif" font-size="14.00" fill="#000000">hasPart</text>
<text text-anchor="start" x="269.9954" y="-9.8" font-family="Times,serif" font-size="14.00" fill="#000000">hasTemporalPart</text>
</g>
<!-- key2 -->
<g id="node10" class="node">
<title>key2</title>
<text text-anchor="start" x="416.9954" y="-66.8" font-family="Times,serif" font-size="14.00" fill="#000000"> </text>
<text text-anchor="start" x="416.9954" y="-47.8" font-family="Times,serif" font-size="14.00" fill="#000000"> </text>
<text text-anchor="start" x="416.9954" y="-28.8" font-family="Times,serif" font-size="14.00" fill="#000000"> </text>
<text text-anchor="start" x="416.9954" y="-9.8" font-family="Times,serif" font-size="14.00" fill="#000000"> </text>
</g>
<!-- key1&#45;&gt;key2 -->
<g id="edge14" class="edge">
<title>key1:e&#45;&gt;key2:w</title>
<path fill="none" stroke="#ff00ff" d="M365.9954,-13C383.86,-13 390.7336,-13 404.6484,-13"/>
<polygon fill="#ff00ff" stroke="#ff00ff" points="404.9954,-16.5001 414.9954,-13 404.9954,-9.5001 404.9954,-16.5001"/>
</g>
<!-- key1&#45;&gt;key2 -->
<g id="edge15" class="edge">
<title>key1:e&#45;&gt;key2:w</title>
<path fill="none" stroke="#0000ff" d="M365.9954,-32C383.86,-32 390.7336,-32 404.6484,-32"/>
<polygon fill="#0000ff" stroke="#0000ff" points="404.9954,-35.5001 414.9954,-32 404.9954,-28.5001 404.9954,-35.5001"/>
</g>
<!-- key1&#45;&gt;key2 -->
<g id="edge16" class="edge">
<title>key1:e&#45;&gt;key2:w</title>
<path fill="none" stroke="#0000ff" stroke-dasharray="5,2" d="M365.9954,-52C383.86,-52 390.7336,-52 404.6484,-52"/>
<polygon fill="#0000ff" stroke="#0000ff" points="404.9954,-55.5001 414.9954,-52 404.9954,-48.5001 404.9954,-55.5001"/>
</g>
<!-- key1&#45;&gt;key2 -->
<g id="edge17" class="edge">
<title>key1:e&#45;&gt;key2:w</title>
<path fill="none" stroke="#000000" d="M365.9954,-71C383.86,-71 390.7336,-71 404.6484,-71"/>
<polygon fill="none" stroke="#000000" points="404.9954,-74.5001 414.9954,-71 404.9954,-67.5001 404.9954,-74.5001"/>
</g>
</g>
</svg>
