<?xml version="1.0" encoding="UTF-8" standalone="no"?>
<!DOCTYPE svg PUBLIC "-//W3C//DTD SVG 1.1//EN"
 "http://www.w3.org/Graphics/SVG/1.1/DTD/svg11.dtd">
<!-- Generated by graphviz version 2.40.1 (20161225.0304)
 -->
<!-- Title: %3 Pages: 1 -->
<svg width="489pt" height="308pt"
 viewBox="0.00 0.00 489.20 308.00" xmlns="http://www.w3.org/2000/svg" xmlns:xlink="http://www.w3.org/1999/xlink">
<g id="graph0" class="graph" transform="scale(1 1) rotate(0) translate(4 304)">
<title>%3</title>
<polygon fill="#ffffff" stroke="transparent" points="-4,4 -4,-304 485.1961,-304 485.1961,4 -4,4"/>
<!-- Quantum -->
<g id="node1" class="node">
<title>Quantum</title>
<g id="a_node1"><a xlink:href="http://emmo.info/emmo/top/mereotopology#EMMO_3f9ae00e_810c_4518_aec2_7200e424cf68" xlink:title="Quantum">
<ellipse fill="#ffffcc" stroke="#000000" cx="44.1961" cy="-138" rx="44.393" ry="18"/>
<text text-anchor="middle" x="44.1961" y="-134.3" font-family="Times,serif" font-size="14.00" fill="#000000">Quantum</text>
</a>
</g>
</g>
<!-- Item -->
<g id="node3" class="node">
<title>Item</title>
<g id="a_node3"><a xlink:href="http://emmo.info/emmo/top/mereotopology#EMMO_eb3a768e_d53e_4be9_a23b_0714833c36de" xlink:title="Item">
<ellipse fill="#ffffcc" stroke="#000000" cx="146.1961" cy="-210" rx="27.0966" ry="18"/>
<text text-anchor="middle" x="146.1961" y="-206.3" font-family="Times,serif" font-size="14.00" fill="#000000">Item</text>
</a>
</g>
</g>
<!-- Quantum&#45;&gt;Item -->
<g id="edge10" class="edge">
<title>Quantum&#45;&gt;Item</title>
<path fill="none" stroke="#000000" d="M66.3286,-153.6229C81.8957,-164.6115 102.8132,-179.3768 119.3364,-191.0402"/>
<polygon fill="none" stroke="#000000" points="117.3367,-193.9128 127.5248,-196.8203 121.3735,-188.194 117.3367,-193.9128"/>
</g>
<!-- Perspective -->
<g id="node2" class="node">
<title>Perspective</title>
<g id="a_node2"><a xlink:href="http://emmo.info/emmo/top#EMMO_49267eba_5548_4163_8f36_518d65b583f9" xlink:title="Perspective">
<ellipse fill="#ffffcc" stroke="#000000" stroke-width="2" cx="86.1961" cy="-42" rx="51.1914" ry="18"/>
<text text-anchor="middle" x="86.1961" y="-38.3" font-family="Times,serif" font-size="14.00" fill="#000000">Perspective</text>
</a>
</g>
</g>
<!-- Physical -->
<g id="node6" class="node">
<title>Physical</title>
<g id="a_node6"><a xlink:href="http://emmo.info/emmo/top/physical#EMMO_c5ddfdba_c074_4aa4_ad6b_1ac4942d300d" xlink:title="Physical">
<ellipse fill="#ffffcc" stroke="#000000" cx="146.1961" cy="-138" rx="40.0939" ry="18"/>
<text text-anchor="middle" x="146.1961" y="-134.3" font-family="Times,serif" font-size="14.00" fill="#000000">Physical</text>
</a>
</g>
</g>
<!-- Perspective&#45;&gt;Physical -->
<g id="edge13" class="edge">
<title>Perspective&#45;&gt;Physical</title>
<path fill="none" stroke="#000000" d="M97.201,-59.6079C106.3354,-74.2229 119.461,-95.2238 129.8281,-111.8112"/>
<polygon fill="none" stroke="#000000" points="126.9929,-113.8788 135.2609,-120.5037 132.9289,-110.1687 126.9929,-113.8788"/>
</g>
<!-- EMMO -->
<g id="node4" class="node">
<title>EMMO</title>
<g id="a_node4"><a xlink:href="http://emmo.info/emmo/top/mereotopology#EMMO_802d3e92_8770_4f98_a289_ccaaab7fdddf" xlink:title="EMMO">
<ellipse fill="#ffc880" stroke="#000000" stroke-width="2" cx="173.1961" cy="-282" rx="38.9931" ry="18"/>
<text text-anchor="middle" x="173.1961" y="-278.3" font-family="Times,serif" font-size="14.00" fill="#000000">EMMO</text>
</a>
</g>
</g>
<!-- Item&#45;&gt;EMMO -->
<g id="edge7" class="edge">
<title>Item&#45;&gt;EMMO</title>
<path fill="none" stroke="#000000" d="M152.8702,-227.7978C155.9208,-235.9325 159.6023,-245.7499 162.9893,-254.7819"/>
<polygon fill="none" stroke="#000000" points="159.7167,-256.0231 166.5051,-264.1575 166.271,-253.5652 159.7167,-256.0231"/>
</g>
<!-- EMMO&#45;&gt;Quantum -->
<g id="edge6" class="edge">
<title>EMMO&#45;&gt;Quantum</title>
<path fill="none" stroke="#0000ff" d="M181.3361,-264.0806C188.8415,-244.6021 196.8024,-213.4003 182.1961,-192 179.3131,-187.776 126.7616,-167.9628 87.3608,-153.5578"/>
<polygon fill="#0000ff" stroke="#0000ff" points="88.2592,-150.1601 77.6652,-150.0248 85.8626,-156.737 88.2592,-150.1601"/>
</g>
<!-- Elementary -->
<g id="node5" class="node">
<title>Elementary</title>
<g id="a_node5"><a xlink:href="http://emmo.info/emmo/top/physical#EMMO_0f795e3e_c602_4577_9a43_d5a231aa1360" xlink:title="Elementary">
<ellipse fill="#ffffcc" stroke="#000000" stroke-width="2" cx="207.1961" cy="-42" rx="51.9908" ry="18"/>
<text text-anchor="middle" x="207.1961" y="-38.3" font-family="Times,serif" font-size="14.00" fill="#000000">Elementary</text>
</a>
</g>
</g>
<!-- Elementary&#45;&gt;Elementary -->
<g id="edge5" class="edge">
<title>Elementary&#45;&gt;Elementary</title>
<path fill="none" stroke="#ff00ff" d="M234.1333,-26.4269C255.3855,-20.4027 277.1915,-25.5938 277.1915,-42 277.1915,-55.8428 261.6675,-61.7013 244.0505,-59.5755"/>
<polygon fill="#ff00ff" stroke="#ff00ff" points="244.6282,-56.1216 234.1333,-57.5731 243.2428,-62.9831 244.6282,-56.1216"/>
</g>
<!-- Elementary&#45;&gt;Physical -->
<g id="edge4" class="edge">
<title>Elementary&#45;&gt;Physical</title>
<path fill="none" stroke="#000000" d="M190.9746,-59.1629C180.1918,-73.6334 166.6076,-94.5882 157.0655,-111.2571"/>
<polygon fill="none" stroke="#000000" points="154.0024,-109.5638 152.2237,-120.0083 160.1274,-112.9527 154.0024,-109.5638"/>
</g>
<!-- Physical&#45;&gt;Item -->
<g id="edge1" class="edge">
<title>Physical&#45;&gt;Item</title>
<path fill="none" stroke="#000000" d="M146.1961,-156.1686C146.1961,-163.869 146.1961,-173.0257 146.1961,-181.5834"/>
<polygon fill="none" stroke="#000000" points="142.6962,-181.5867 146.1961,-191.5867 149.6962,-181.5868 142.6962,-181.5867"/>
</g>
<!-- Physical&#45;&gt;Elementary -->
<g id="edge2" class="edge">
<title>Physical&#45;&gt;Elementary</title>
<path fill="none" stroke="#0000ff" d="M162.0652,-121.3089C172.8715,-106.8671 186.6,-85.7178 196.2421,-68.8906"/>
<polygon fill="#0000ff" stroke="#0000ff" points="199.3513,-70.5007 201.1339,-60.0569 193.2275,-67.1095 199.3513,-70.5007"/>
</g>
<!-- Physical&#45;&gt;Physical -->
<g id="edge3" class="edge">
<title>Physical&#45;&gt;Physical</title>
<path fill="none" stroke="#ff00ff" d="M174.6899,-125.1007C190.2452,-122.8018 204.4925,-127.1016 204.4925,-138 204.4925,-146.4293 195.9697,-150.9112 184.9107,-151.4457"/>
<polygon fill="#ff00ff" stroke="#ff00ff" points="184.8625,-147.9382 174.6899,-150.8993 184.4888,-154.9282 184.8625,-147.9382"/>
</g>
<!-- Void -->
<g id="node7" class="node">
<title>Void</title>
<g id="a_node7"><a xlink:href="http://emmo.info/emmo/top/physical#EMMO_29072ec4_ffcb_42fb_bdc7_26f05a2e9873" xlink:title="Void">
<ellipse fill="#ffffcc" stroke="#000000" cx="251.1961" cy="-138" rx="28.6953" ry="18"/>
<text text-anchor="middle" x="251.1961" y="-134.3" font-family="Times,serif" font-size="14.00" fill="#000000">Void</text>
</a>
</g>
</g>
<!-- Void&#45;&gt;Item -->
<g id="edge8" class="edge">
<title>Void&#45;&gt;Item</title>
<path fill="none" stroke="#000000" d="M231.4464,-151.5426C215.1097,-162.7449 191.7286,-178.7777 173.5833,-191.2202"/>
<polygon fill="none" stroke="#000000" points="171.4179,-188.4612 165.15,-197.003 175.3766,-194.2343 171.4179,-188.4612"/>
</g>
<!-- Void&#45;&gt;Void -->
<g id="edge9" class="edge">
<title>Void&#45;&gt;Void</title>
<path fill="none" stroke="#0000ff" d="M272.2818,-125.4525C285.3535,-122.4269 297.7935,-126.6094 297.7935,-138 297.7935,-146.365 291.0846,-150.8426 282.3433,-151.4328"/>
<polygon fill="#0000ff" stroke="#0000ff" points="282.5501,-147.9376 272.2818,-150.5475 281.9365,-154.9106 282.5501,-147.9376"/>
</g>
<!-- Collection -->
<g id="node8" class="node">
<title>Collection</title>
<g id="a_node8"><a xlink:href="http://emmo.info/emmo/top/mereotopology#EMMO_2d2ecd97_067f_4d0e_950c_d746b7700a31" xlink:title="Collection">
<ellipse fill="#ffffcc" stroke="#000000" cx="276.1961" cy="-210" rx="47.3916" ry="18"/>
<text text-anchor="middle" x="276.1961" y="-206.3" font-family="Times,serif" font-size="14.00" fill="#000000">Collection</text>
</a>
</g>
</g>
<!-- Collection&#45;&gt;Item -->
<g id="edge12" class="edge">
<title>Collection&#45;&gt;Item</title>
<path fill="none" stroke="#0000ff" stroke-dasharray="5,2" d="M228.5133,-210C213.6458,-210 198.7783,-210 183.9108,-210"/>
<polygon fill="#0000ff" stroke="#0000ff" points="183.618,-206.5001 173.618,-210 183.6179,-213.5001 183.618,-206.5001"/>
</g>
<!-- Collection&#45;&gt;EMMO -->
<g id="edge11" class="edge">
<title>Collection&#45;&gt;EMMO</title>
<path fill="none" stroke="#000000" d="M253.337,-225.9791C238.6352,-236.2562 219.3672,-249.725 203.4088,-260.8804"/>
<polygon fill="none" stroke="#000000" points="201.1243,-258.2069 194.9335,-266.8049 205.1349,-263.9442 201.1243,-258.2069"/>
</g>
<!-- key1 -->
<g id="node9" class="node">
<title>key1</title>
<text text-anchor="start" x="380.1961" y="-66.8" font-family="Times,serif" font-size="14.00" fill="#000000">isA</text>
<text text-anchor="start" x="333.1961" y="-47.8" font-family="Times,serif" font-size="14.00" fill="#000000">hasMember</text>
<text text-anchor="start" x="359.1961" y="-28.8" font-family="Times,serif" font-size="14.00" fill="#000000">hasPart</text>
<text text-anchor="start" x="305.1961" y="-9.8" font-family="Times,serif" font-size="14.00" fill="#000000">hasTemporalPart</text>
</g>
<!-- key2 -->
<g id="node10" class="node">
<title>key2</title>
<text text-anchor="start" x="452.1961" y="-66.8" font-family="Times,serif" font-size="14.00" fill="#000000"> </text>
<text text-anchor="start" x="452.1961" y="-47.8" font-family="Times,serif" font-size="14.00" fill="#000000"> </text>
<text text-anchor="start" x="452.1961" y="-28.8" font-family="Times,serif" font-size="14.00" fill="#000000"> </text>
<text text-anchor="start" x="452.1961" y="-9.8" font-family="Times,serif" font-size="14.00" fill="#000000"> </text>
</g>
<!-- key1&#45;&gt;key2 -->
<g id="edge14" class="edge">
<title>key1:e&#45;&gt;key2:w</title>
<path fill="none" stroke="#ff00ff" d="M401.1961,-13C419.0607,-13 425.9343,-13 439.8491,-13"/>
<polygon fill="#ff00ff" stroke="#ff00ff" points="440.1961,-16.5001 450.1961,-13 440.196,-9.5001 440.1961,-16.5001"/>
</g>
<!-- key1&#45;&gt;key2 -->
<g id="edge15" class="edge">
<title>key1:e&#45;&gt;key2:w</title>
<path fill="none" stroke="#0000ff" d="M401.1961,-32C419.0607,-32 425.9343,-32 439.8491,-32"/>
<polygon fill="#0000ff" stroke="#0000ff" points="440.1961,-35.5001 450.1961,-32 440.196,-28.5001 440.1961,-35.5001"/>
</g>
<!-- key1&#45;&gt;key2 -->
<g id="edge16" class="edge">
<title>key1:e&#45;&gt;key2:w</title>
<path fill="none" stroke="#0000ff" stroke-dasharray="5,2" d="M401.1961,-52C419.0607,-52 425.9343,-52 439.8491,-52"/>
<polygon fill="#0000ff" stroke="#0000ff" points="440.1961,-55.5001 450.1961,-52 440.196,-48.5001 440.1961,-55.5001"/>
</g>
<!-- key1&#45;&gt;key2 -->
<g id="edge17" class="edge">
<title>key1:e&#45;&gt;key2:w</title>
<path fill="none" stroke="#000000" d="M401.1961,-71C419.0607,-71 425.9343,-71 439.8491,-71"/>
<polygon fill="none" stroke="#000000" points="440.1961,-74.5001 450.1961,-71 440.196,-67.5001 440.1961,-74.5001"/>
</g>
</g>
</svg>
