<?xml version="1.0" encoding="UTF-8" standalone="no"?>
<!DOCTYPE svg PUBLIC "-//W3C//DTD SVG 1.1//EN"
 "http://www.w3.org/Graphics/SVG/1.1/DTD/svg11.dtd">
<!-- Generated by graphviz version 2.40.1 (20161225.0304)
 -->
<!-- Title: %3 Pages: 1 -->
<svg width="573pt" height="308pt"
 viewBox="0.00 0.00 573.20 308.00" xmlns="http://www.w3.org/2000/svg" xmlns:xlink="http://www.w3.org/1999/xlink">
<g id="graph0" class="graph" transform="scale(1 1) rotate(0) translate(4 304)">
<title>%3</title>
<polygon fill="#ffffff" stroke="transparent" points="-4,4 -4,-304 569.1961,-304 569.1961,4 -4,4"/>
<!-- EMMO -->
<g id="node1" class="node">
<title>EMMO</title>
<g id="a_node1"><a xlink:href="http://emmo.info/emmo/top/mereotopology#EMMO_802d3e92_8770_4f98_a289_ccaaab7fdddf" xlink:title="EMMO">
<ellipse fill="#ffc880" stroke="#000000" stroke-width="2" cx="181.1961" cy="-282" rx="38.9931" ry="18"/>
<text text-anchor="middle" x="181.1961" y="-278.3" font-family="Times,serif" font-size="14.00" fill="#000000">EMMO</text>
</a>
</g>
</g>
<!-- Quantum -->
<g id="node6" class="node">
<title>Quantum</title>
<g id="a_node6"><a xlink:href="http://emmo.info/emmo/top/mereotopology#EMMO_3f9ae00e_810c_4518_aec2_7200e424cf68" xlink:title="Quantum">
<ellipse fill="#ffffcc" stroke="#000000" cx="44.1961" cy="-138" rx="44.393" ry="18"/>
<text text-anchor="middle" x="44.1961" y="-134.3" font-family="Times,serif" font-size="14.00" fill="#000000">Quantum</text>
</a>
</g>
</g>
<!-- EMMO&#45;&gt;Quantum -->
<g id="edge7" class="edge">
<title>EMMO&#45;&gt;Quantum</title>
<path fill="none" stroke="#0000ff" d="M154.6561,-268.5145C137.4445,-258.8656 115.309,-244.667 99.1961,-228 81.2308,-209.4169 66.3559,-183.9649 56.6252,-164.8683"/>
<polygon fill="#0000ff" stroke="#0000ff" points="59.711,-163.2124 52.1436,-155.7972 53.4351,-166.313 59.711,-163.2124"/>
</g>
<!-- Item -->
<g id="node2" class="node">
<title>Item</title>
<g id="a_node2"><a xlink:href="http://emmo.info/emmo/top/mereotopology#EMMO_eb3a768e_d53e_4be9_a23b_0714833c36de" xlink:title="Item">
<ellipse fill="#ffffcc" stroke="#000000" cx="135.1961" cy="-210" rx="27.0966" ry="18"/>
<text text-anchor="middle" x="135.1961" y="-206.3" font-family="Times,serif" font-size="14.00" fill="#000000">Item</text>
</a>
</g>
</g>
<!-- Item&#45;&gt;EMMO -->
<g id="edge6" class="edge">
<title>Item&#45;&gt;EMMO</title>
<path fill="none" stroke="#000000" d="M145.865,-226.6992C151.3921,-235.3504 158.2681,-246.1127 164.4813,-255.8377"/>
<polygon fill="none" stroke="#000000" points="161.6098,-257.8442 169.9432,-264.3868 167.5087,-254.0755 161.6098,-257.8442"/>
</g>
<!-- Elementary -->
<g id="node3" class="node">
<title>Elementary</title>
<g id="a_node3"><a xlink:href="http://emmo.info/emmo/top/physical#EMMO_0f795e3e_c602_4577_9a43_d5a231aa1360" xlink:title="Elementary">
<ellipse fill="#ffffcc" stroke="#000000" stroke-width="2" cx="171.1961" cy="-42" rx="51.9908" ry="18"/>
<text text-anchor="middle" x="171.1961" y="-38.3" font-family="Times,serif" font-size="14.00" fill="#000000">Elementary</text>
</a>
</g>
</g>
<!-- Elementary&#45;&gt;Elementary -->
<g id="edge3" class="edge">
<title>Elementary&#45;&gt;Elementary</title>
<path fill="none" stroke="#ff00ff" d="M198.1333,-26.4269C219.3855,-20.4027 241.1915,-25.5938 241.1915,-42 241.1915,-55.8428 225.6675,-61.7013 208.0505,-59.5755"/>
<polygon fill="#ff00ff" stroke="#ff00ff" points="208.6282,-56.1216 198.1333,-57.5731 207.2428,-62.9831 208.6282,-56.1216"/>
</g>
<!-- Physical -->
<g id="node7" class="node">
<title>Physical</title>
<g id="a_node7"><a xlink:href="http://emmo.info/emmo/top/physical#EMMO_c5ddfdba_c074_4aa4_ad6b_1ac4942d300d" xlink:title="Physical">
<ellipse fill="#ffffcc" stroke="#000000" cx="240.1961" cy="-138" rx="40.0939" ry="18"/>
<text text-anchor="middle" x="240.1961" y="-134.3" font-family="Times,serif" font-size="14.00" fill="#000000">Physical</text>
</a>
</g>
</g>
<!-- Elementary&#45;&gt;Physical -->
<g id="edge2" class="edge">
<title>Elementary&#45;&gt;Physical</title>
<path fill="none" stroke="#000000" d="M178.763,-60.0569C188.03,-75.135 203.3963,-96.7765 216.56,-113.4312"/>
<polygon fill="none" stroke="#000000" points="214.1841,-116.0586 223.199,-121.6248 219.6229,-111.6518 214.1841,-116.0586"/>
</g>
<!-- Void -->
<g id="node4" class="node">
<title>Void</title>
<g id="a_node4"><a xlink:href="http://emmo.info/emmo/top/physical#EMMO_29072ec4_ffcb_42fb_bdc7_26f05a2e9873" xlink:title="Void">
<ellipse fill="#ffffcc" stroke="#000000" cx="135.1961" cy="-138" rx="28.6953" ry="18"/>
<text text-anchor="middle" x="135.1961" y="-134.3" font-family="Times,serif" font-size="14.00" fill="#000000">Void</text>
</a>
</g>
</g>
<!-- Void&#45;&gt;Item -->
<g id="edge4" class="edge">
<title>Void&#45;&gt;Item</title>
<path fill="none" stroke="#000000" d="M135.1961,-156.1686C135.1961,-163.869 135.1961,-173.0257 135.1961,-181.5834"/>
<polygon fill="none" stroke="#000000" points="131.6962,-181.5867 135.1961,-191.5867 138.6962,-181.5868 131.6962,-181.5867"/>
</g>
<!-- Void&#45;&gt;Void -->
<g id="edge5" class="edge">
<title>Void&#45;&gt;Void</title>
<path fill="none" stroke="#0000ff" d="M156.2818,-125.4525C169.3535,-122.4269 181.7935,-126.6094 181.7935,-138 181.7935,-146.365 175.0846,-150.8426 166.3433,-151.4328"/>
<polygon fill="#0000ff" stroke="#0000ff" points="166.5501,-147.9376 156.2818,-150.5475 165.9365,-154.9106 166.5501,-147.9376"/>
</g>
<!-- Collection -->
<g id="node5" class="node">
<title>Collection</title>
<g id="a_node5"><a xlink:href="http://emmo.info/emmo/top/mereotopology#EMMO_2d2ecd97_067f_4d0e_950c_d746b7700a31" xlink:title="Collection">
<ellipse fill="#ffffcc" stroke="#000000" cx="228.1961" cy="-210" rx="47.3916" ry="18"/>
<text text-anchor="middle" x="228.1961" y="-206.3" font-family="Times,serif" font-size="14.00" fill="#000000">Collection</text>
</a>
</g>
</g>
<!-- Collection&#45;&gt;EMMO -->
<g id="edge12" class="edge">
<title>Collection&#45;&gt;EMMO</title>
<path fill="none" stroke="#000000" d="M216.5781,-227.7978C211.0161,-236.3183 204.2489,-246.685 198.1281,-256.0615"/>
<polygon fill="none" stroke="#000000" points="195.0537,-254.3684 192.5182,-264.6554 200.9153,-258.1948 195.0537,-254.3684"/>
</g>
<!-- Collection&#45;&gt;Item -->
<g id="edge13" class="edge">
<title>Collection&#45;&gt;Item</title>
<path fill="none" stroke="#0000ff" stroke-dasharray="5,2" d="M180.6857,-210C178.0782,-210 175.4706,-210 172.8631,-210"/>
<polygon fill="#0000ff" stroke="#0000ff" points="172.8055,-206.5001 162.8055,-210 172.8054,-213.5001 172.8055,-206.5001"/>
</g>
<!-- Quantum&#45;&gt;Item -->
<g id="edge1" class="edge">
<title>Quantum&#45;&gt;Item</title>
<path fill="none" stroke="#000000" d="M64.8454,-154.3379C78.1715,-164.8816 95.6001,-178.6713 109.7758,-189.8872"/>
<polygon fill="none" stroke="#000000" points="107.6768,-192.6896 117.6908,-196.1496 112.0202,-187.2 107.6768,-192.6896"/>
</g>
<!-- Physical&#45;&gt;Item -->
<g id="edge9" class="edge">
<title>Physical&#45;&gt;Item</title>
<path fill="none" stroke="#000000" d="M218.1846,-153.0936C202.105,-164.1196 180.1859,-179.1498 162.9123,-190.9946"/>
<polygon fill="none" stroke="#000000" points="160.6263,-188.3183 154.3583,-196.8602 164.585,-194.0914 160.6263,-188.3183"/>
</g>
<!-- Physical&#45;&gt;Elementary -->
<g id="edge10" class="edge">
<title>Physical&#45;&gt;Elementary</title>
<path fill="none" stroke="#0000ff" d="M232.6692,-120.0083C223.5492,-105.1598 208.4879,-83.9142 195.4433,-67.3435"/>
<polygon fill="#0000ff" stroke="#0000ff" points="197.849,-64.7511 188.8478,-59.1629 192.3996,-69.1446 197.849,-64.7511"/>
</g>
<!-- Physical&#45;&gt;Physical -->
<g id="edge11" class="edge">
<title>Physical&#45;&gt;Physical</title>
<path fill="none" stroke="#ff00ff" d="M268.6899,-125.1007C284.2452,-122.8018 298.4925,-127.1016 298.4925,-138 298.4925,-146.4293 289.9697,-150.9112 278.9107,-151.4457"/>
<polygon fill="#ff00ff" stroke="#ff00ff" points="278.8625,-147.9382 268.6899,-150.8993 278.4888,-154.9282 278.8625,-147.9382"/>
</g>
<!-- Perspective -->
<g id="node8" class="node">
<title>Perspective</title>
<g id="a_node8"><a xlink:href="http://emmo.info/emmo/top#EMMO_49267eba_5548_4163_8f36_518d65b583f9" xlink:title="Perspective">
<ellipse fill="#ffffcc" stroke="#000000" stroke-width="2" cx="310.1961" cy="-42" rx="51.1914" ry="18"/>
<text text-anchor="middle" x="310.1961" y="-38.3" font-family="Times,serif" font-size="14.00" fill="#000000">Perspective</text>
</a>
</g>
</g>
<!-- Perspective&#45;&gt;Physical -->
<g id="edge8" class="edge">
<title>Perspective&#45;&gt;Physical</title>
<path fill="none" stroke="#000000" d="M297.357,-59.6079C286.5343,-74.4504 270.9092,-95.8792 258.7296,-112.5826"/>
<polygon fill="none" stroke="#000000" points="255.782,-110.6845 252.7182,-120.8267 261.438,-114.8088 255.782,-110.6845"/>
</g>
<!-- key1 -->
<g id="node9" class="node">
<title>key1</title>
<text text-anchor="start" x="464.1961" y="-66.8" font-family="Times,serif" font-size="14.00" fill="#000000">isA</text>
<text text-anchor="start" x="417.1961" y="-47.8" font-family="Times,serif" font-size="14.00" fill="#000000">hasMember</text>
<text text-anchor="start" x="443.1961" y="-28.8" font-family="Times,serif" font-size="14.00" fill="#000000">hasPart</text>
<text text-anchor="start" x="389.1961" y="-9.8" font-family="Times,serif" font-size="14.00" fill="#000000">hasTemporalPart</text>
</g>
<!-- key2 -->
<g id="node10" class="node">
<title>key2</title>
<text text-anchor="start" x="536.1961" y="-66.8" font-family="Times,serif" font-size="14.00" fill="#000000"> </text>
<text text-anchor="start" x="536.1961" y="-47.8" font-family="Times,serif" font-size="14.00" fill="#000000"> </text>
<text text-anchor="start" x="536.1961" y="-28.8" font-family="Times,serif" font-size="14.00" fill="#000000"> </text>
<text text-anchor="start" x="536.1961" y="-9.8" font-family="Times,serif" font-size="14.00" fill="#000000"> </text>
</g>
<!-- key1&#45;&gt;key2 -->
<g id="edge14" class="edge">
<title>key1:e&#45;&gt;key2:w</title>
<path fill="none" stroke="#ff00ff" d="M485.1961,-13C503.0607,-13 509.9343,-13 523.8491,-13"/>
<polygon fill="#ff00ff" stroke="#ff00ff" points="524.1961,-16.5001 534.1961,-13 524.196,-9.5001 524.1961,-16.5001"/>
</g>
<!-- key1&#45;&gt;key2 -->
<g id="edge15" class="edge">
<title>key1:e&#45;&gt;key2:w</title>
<path fill="none" stroke="#0000ff" d="M485.1961,-32C503.0607,-32 509.9343,-32 523.8491,-32"/>
<polygon fill="#0000ff" stroke="#0000ff" points="524.1961,-35.5001 534.1961,-32 524.196,-28.5001 524.1961,-35.5001"/>
</g>
<!-- key1&#45;&gt;key2 -->
<g id="edge16" class="edge">
<title>key1:e&#45;&gt;key2:w</title>
<path fill="none" stroke="#0000ff" stroke-dasharray="5,2" d="M485.1961,-52C503.0607,-52 509.9343,-52 523.8491,-52"/>
<polygon fill="#0000ff" stroke="#0000ff" points="524.1961,-55.5001 534.1961,-52 524.196,-48.5001 524.1961,-55.5001"/>
</g>
<!-- key1&#45;&gt;key2 -->
<g id="edge17" class="edge">
<title>key1:e&#45;&gt;key2:w</title>
<path fill="none" stroke="#000000" d="M485.1961,-71C503.0607,-71 509.9343,-71 523.8491,-71"/>
<polygon fill="none" stroke="#000000" points="524.1961,-74.5001 534.1961,-71 524.196,-67.5001 524.1961,-74.5001"/>
</g>
</g>
</svg>
