<?xml version="1.0" encoding="UTF-8" standalone="no"?>
<!DOCTYPE svg PUBLIC "-//W3C//DTD SVG 1.1//EN"
 "http://www.w3.org/Graphics/SVG/1.1/DTD/svg11.dtd">
<!-- Generated by graphviz version 2.40.1 (20161225.0304)
 -->
<!-- Title: %3 Pages: 1 -->
<svg width="1036pt" height="620pt"
 viewBox="0.00 0.00 1036.00 620.00" xmlns="http://www.w3.org/2000/svg" xmlns:xlink="http://www.w3.org/1999/xlink">
<g id="graph0" class="graph" transform="scale(1 1) rotate(0) translate(4 616)">
<title>%3</title>
<polygon fill="#ffffff" stroke="transparent" points="-4,4 -4,-616 1032,-616 1032,4 -4,4"/>
<!-- hasTemporalDirectPart -->
<g id="node1" class="node">
<title>hasTemporalDirectPart</title>
<g id="a_node1"><a xlink:href="http://emmo.info/emmo/middle/reductionistic#EMMO_65a2c5b8_e4d8_4a51_b2f8_e55effc0547d" xlink:title="hasTemporalDirectPart">
<polygon fill="#0079ba" stroke="#000000" points="143,-108 0,-108 0,-72 143,-72 143,-108"/>
<text text-anchor="middle" x="71.5" y="-86.3" font-family="Times,serif" font-size="14.00" fill="#ffffff">hasTemporalDirectPart</text>
</a>
</g>
</g>
<!-- hasTemporalPart -->
<g id="node8" class="node">
<title>hasTemporalPart</title>
<g id="a_node8"><a xlink:href="http://emmo.info/emmo/top/physical#EMMO_7afbed84_7593_4a23_bd88_9d9c6b04e8f6" xlink:title="hasTemporalPart">
<polygon fill="#0079ba" stroke="#000000" points="126.5,-180 16.5,-180 16.5,-144 126.5,-144 126.5,-180"/>
<text text-anchor="middle" x="71.5" y="-158.3" font-family="Times,serif" font-size="14.00" fill="#ffffff">hasTemporalPart</text>
</a>
</g>
</g>
<!-- hasTemporalDirectPart&#45;&gt;hasTemporalPart -->
<g id="edge22" class="edge">
<title>hasTemporalDirectPart&#45;&gt;hasTemporalPart</title>
<path fill="none" stroke="#000000" d="M71.5,-108.1686C71.5,-115.869 71.5,-125.0257 71.5,-133.5834"/>
<polygon fill="none" stroke="#000000" points="68.0001,-133.5867 71.5,-143.5867 75.0001,-133.5868 68.0001,-133.5867"/>
</g>
<!-- hasConvention -->
<g id="node2" class="node">
<title>hasConvention</title>
<g id="a_node2"><a xlink:href="http://emmo.info/emmo/top/semiotics#EMMO_eb3518bf_f799_4f9e_8c3e_ce59af11453b" xlink:title="hasConvention">
<polygon fill="#0079ba" stroke="#000000" points="751.5,-396 653.5,-396 653.5,-360 751.5,-360 751.5,-396"/>
<text text-anchor="middle" x="702.5" y="-374.3" font-family="Times,serif" font-size="14.00" fill="#ffffff">hasConvention</text>
</a>
</g>
</g>
<!-- hasSign -->
<g id="node4" class="node">
<title>hasSign</title>
<g id="a_node4"><a xlink:href="http://emmo.info/emmo/top/semiotics#EMMO_60577dea_9019_4537_ac41_80b0fb563d41" xlink:title="hasSign">
<polygon fill="#0079ba" stroke="#000000" points="848,-468 789,-468 789,-432 848,-432 848,-468"/>
<text text-anchor="middle" x="818.5" y="-446.3" font-family="Times,serif" font-size="14.00" fill="#ffffff">hasSign</text>
</a>
</g>
</g>
<!-- hasConvention&#45;&gt;hasSign -->
<g id="edge27" class="edge">
<title>hasConvention&#45;&gt;hasSign</title>
<path fill="none" stroke="#000000" d="M731.7717,-396.1686C746.6088,-405.3779 764.8015,-416.6699 780.6862,-426.5294"/>
<polygon fill="none" stroke="#000000" points="778.8955,-429.5372 789.2377,-431.8372 782.587,-423.5898 778.8955,-429.5372"/>
</g>
<!-- hasParticipant -->
<g id="node3" class="node">
<title>hasParticipant</title>
<g id="a_node3"><a xlink:href="http://emmo.info/emmo/middle/holistic#EMMO_ae2d1a96_bfa1_409a_a7d2_03d69e8a125a" xlink:title="hasParticipant">
<polygon fill="#0079ba" stroke="#000000" points="591,-252 498,-252 498,-216 591,-216 591,-252"/>
<text text-anchor="middle" x="544.5" y="-230.3" font-family="Times,serif" font-size="14.00" fill="#ffffff">hasParticipant</text>
</a>
</g>
</g>
<!-- hasPart -->
<g id="node22" class="node">
<title>hasPart</title>
<g id="a_node22"><a xlink:href="http://emmo.info/emmo/top/mereotopology#EMMO_17e27c22_37e1_468c_9dd7_95e137f73e7f" xlink:title="hasPart">
<polygon fill="#0079ba" stroke="#000000" points="394.5,-324 338.5,-324 338.5,-288 394.5,-288 394.5,-324"/>
<text text-anchor="middle" x="366.5" y="-302.3" font-family="Times,serif" font-size="14.00" fill="#ffffff">hasPart</text>
</a>
</g>
</g>
<!-- hasParticipant&#45;&gt;hasPart -->
<g id="edge3" class="edge">
<title>hasParticipant&#45;&gt;hasPart</title>
<path fill="none" stroke="#000000" d="M499.5831,-252.1686C470.1021,-264.0935 431.9876,-279.5106 404.1081,-290.7877"/>
<polygon fill="none" stroke="#000000" points="402.6625,-287.5969 394.7046,-294.5914 405.2874,-294.0861 402.6625,-287.5969"/>
</g>
<!-- semiotical -->
<g id="node12" class="node">
<title>semiotical</title>
<g id="a_node12"><a xlink:href="http://emmo.info/emmo/top/semiotics#EMMO_2337e25c_3c60_43fc_a8f9_b11a3f974291" xlink:title="semiotical">
<polygon fill="#0079ba" stroke="#000000" points="787,-540 714,-540 714,-504 787,-504 787,-540"/>
<text text-anchor="middle" x="750.5" y="-518.3" font-family="Times,serif" font-size="14.00" fill="#ffffff">semiotical</text>
</a>
</g>
</g>
<!-- hasSign&#45;&gt;semiotical -->
<g id="edge14" class="edge">
<title>hasSign&#45;&gt;semiotical</title>
<path fill="none" stroke="#000000" d="M801.3407,-468.1686C793.3489,-476.6306 783.6962,-486.8511 774.9584,-496.1029"/>
<polygon fill="none" stroke="#000000" points="772.212,-493.9134 767.8903,-503.5867 777.3011,-498.7198 772.212,-493.9134"/>
</g>
<!-- encloses -->
<g id="node5" class="node">
<title>encloses</title>
<g id="a_node5"><a xlink:href="http://emmo.info/emmo/top/mereotopology#EMMO_8c898653_1118_4682_9bbf_6cc334d16a99" xlink:title="encloses">
<polygon fill="#0079ba" stroke="#000000" points="389.5,-396 327.5,-396 327.5,-360 389.5,-360 389.5,-396"/>
<text text-anchor="middle" x="358.5" y="-374.3" font-family="Times,serif" font-size="14.00" fill="#ffffff">encloses</text>
</a>
</g>
</g>
<!-- connected -->
<g id="node13" class="node">
<title>connected</title>
<g id="a_node13"><a xlink:href="http://emmo.info/emmo/top/mereotopology#EMMO_6703954e_34c4_4a15_a9e7_f313760ae1a8" xlink:title="connected">
<polygon fill="#0079ba" stroke="#000000" points="558,-468 487,-468 487,-432 558,-432 558,-468"/>
<text text-anchor="middle" x="522.5" y="-446.3" font-family="Times,serif" font-size="14.00" fill="#ffffff">connected</text>
</a>
</g>
</g>
<!-- encloses&#45;&gt;connected -->
<g id="edge28" class="edge">
<title>encloses&#45;&gt;connected</title>
<path fill="none" stroke="#000000" d="M389.9268,-392.1853C392.8232,-393.4797 395.7147,-394.7669 398.5,-396 424.6357,-407.5709 453.9529,-420.3473 477.5167,-430.5666"/>
<polygon fill="none" stroke="#000000" points="476.3381,-433.8704 486.9053,-434.6351 479.1215,-427.4475 476.3381,-433.8704"/>
</g>
<!-- overcrosses -->
<g id="node6" class="node">
<title>overcrosses</title>
<g id="a_node6"><a xlink:href="http://emmo.info/emmo/top/mereotopology#EMMO_9cb984ca_48ad_4864_b09e_50d3fff19420" xlink:title="overcrosses">
<polygon fill="#0079ba" stroke="#000000" points="500.5,-324 420.5,-324 420.5,-288 500.5,-288 500.5,-324"/>
<text text-anchor="middle" x="460.5" y="-302.3" font-family="Times,serif" font-size="14.00" fill="#ffffff">overcrosses</text>
</a>
</g>
</g>
<!-- hasOverlapWith -->
<g id="node16" class="node">
<title>hasOverlapWith</title>
<g id="a_node16"><a xlink:href="http://emmo.info/emmo/top/mereotopology#EMMO_d893d373_b579_4867_841e_1c2b31a8d2c6" xlink:title="hasOverlapWith">
<polygon fill="#0079ba" stroke="#000000" points="513.5,-396 407.5,-396 407.5,-360 513.5,-360 513.5,-396"/>
<text text-anchor="middle" x="460.5" y="-374.3" font-family="Times,serif" font-size="14.00" fill="#ffffff">hasOverlapWith</text>
</a>
</g>
</g>
<!-- overcrosses&#45;&gt;hasOverlapWith -->
<g id="edge17" class="edge">
<title>overcrosses&#45;&gt;hasOverlapWith</title>
<path fill="none" stroke="#000000" d="M460.5,-324.1686C460.5,-331.869 460.5,-341.0257 460.5,-349.5834"/>
<polygon fill="none" stroke="#000000" points="457.0001,-349.5867 460.5,-359.5867 464.0001,-349.5868 457.0001,-349.5867"/>
</g>
<!-- disconnected -->
<g id="node7" class="node">
<title>disconnected</title>
<g id="a_node7"><a xlink:href="http://emmo.info/emmo/top/mereotopology#EMMO_517dfaf9_4970_41ac_81ee_d031627d2c7c" xlink:title="disconnected">
<polygon fill="#0079ba" stroke="#000000" points="670,-468 583,-468 583,-432 670,-432 670,-468"/>
<text text-anchor="middle" x="626.5" y="-446.3" font-family="Times,serif" font-size="14.00" fill="#ffffff">disconnected</text>
</a>
</g>
</g>
<!-- mereotopological -->
<g id="node9" class="node">
<title>mereotopological</title>
<g id="a_node9"><a xlink:href="http://emmo.info/emmo/top/mereotopology#EMMO_03212fd7_abfd_4828_9c8e_62c293052d4b" xlink:title="mereotopological">
<polygon fill="#0079ba" stroke="#000000" points="682.5,-540 570.5,-540 570.5,-504 682.5,-504 682.5,-540"/>
<text text-anchor="middle" x="626.5" y="-518.3" font-family="Times,serif" font-size="14.00" fill="#ffffff">mereotopological</text>
</a>
</g>
</g>
<!-- disconnected&#45;&gt;mereotopological -->
<g id="edge5" class="edge">
<title>disconnected&#45;&gt;mereotopological</title>
<path fill="none" stroke="#000000" d="M626.5,-468.1686C626.5,-475.869 626.5,-485.0257 626.5,-493.5834"/>
<polygon fill="none" stroke="#000000" points="623.0001,-493.5867 626.5,-503.5867 630.0001,-493.5868 623.0001,-493.5867"/>
</g>
<!-- hasProperPart -->
<g id="node21" class="node">
<title>hasProperPart</title>
<g id="a_node21"><a xlink:href="http://emmo.info/emmo/top/mereotopology#EMMO_9380ab64_0363_4804_b13f_3a8a94119a76" xlink:title="hasProperPart">
<polygon fill="#0079ba" stroke="#000000" points="376.5,-252 284.5,-252 284.5,-216 376.5,-216 376.5,-252"/>
<text text-anchor="middle" x="330.5" y="-230.3" font-family="Times,serif" font-size="14.00" fill="#ffffff">hasProperPart</text>
</a>
</g>
</g>
<!-- hasTemporalPart&#45;&gt;hasProperPart -->
<g id="edge21" class="edge">
<title>hasTemporalPart&#45;&gt;hasProperPart</title>
<path fill="none" stroke="#000000" d="M126.654,-177.5272C129.646,-178.3648 132.6095,-179.1933 135.5,-180 182.2449,-193.0458 235.3281,-207.7378 274.2946,-218.4997"/>
<polygon fill="none" stroke="#000000" points="273.8173,-221.9988 284.3882,-221.2867 275.6804,-215.2513 273.8173,-221.9988"/>
</g>
<!-- EMMORelation -->
<g id="node14" class="node">
<title>EMMORelation</title>
<g id="a_node14"><a xlink:href="http://emmo.info/emmo/top/mereotopology#EMMO_ec2472ae_cf4a_46a5_8555_1556f5a6c3c5" xlink:title="EMMORelation">
<polygon fill="#0079ba" stroke="#000000" stroke-width="2" points="734.5,-612 628.5,-612 628.5,-576 734.5,-576 734.5,-612"/>
<text text-anchor="middle" x="681.5" y="-590.3" font-family="Times,serif" font-size="14.00" fill="#ffffff">EMMORelation</text>
</a>
</g>
</g>
<!-- mereotopological&#45;&gt;EMMORelation -->
<g id="edge15" class="edge">
<title>mereotopological&#45;&gt;EMMORelation</title>
<path fill="none" stroke="#000000" d="M640.3788,-540.1686C646.7136,-548.4614 654.3384,-558.443 661.2926,-567.5467"/>
<polygon fill="none" stroke="#000000" points="658.5825,-569.7647 667.4343,-575.5867 664.1452,-565.5153 658.5825,-569.7647"/>
</g>
<!-- hasReferenceUnit -->
<g id="node10" class="node">
<title>hasReferenceUnit</title>
<g id="a_node10"><a xlink:href="http://emmo.info/emmo/middle/metrology#EMMO_67fc0a36_8dcb_4ffa_9a43_31074efa3296" xlink:title="hasReferenceUnit">
<polygon fill="#0079ba" stroke="#000000" points="461,-36 348,-36 348,0 461,0 461,-36"/>
<text text-anchor="middle" x="404.5" y="-14.3" font-family="Times,serif" font-size="14.00" fill="#ffffff">hasReferenceUnit</text>
</a>
</g>
</g>
<!-- hasSpatialDirectPart -->
<g id="node24" class="node">
<title>hasSpatialDirectPart</title>
<g id="a_node24"><a xlink:href="http://emmo.info/emmo/middle/reductionistic#EMMO_b2282816_b7a3_44c6_b2cb_3feff1ceb7fe" xlink:title="hasSpatialDirectPart">
<polygon fill="#0079ba" stroke="#000000" points="534.5,-108 406.5,-108 406.5,-72 534.5,-72 534.5,-108"/>
<text text-anchor="middle" x="470.5" y="-86.3" font-family="Times,serif" font-size="14.00" fill="#ffffff">hasSpatialDirectPart</text>
</a>
</g>
</g>
<!-- hasReferenceUnit&#45;&gt;hasSpatialDirectPart -->
<g id="edge23" class="edge">
<title>hasReferenceUnit&#45;&gt;hasSpatialDirectPart</title>
<path fill="none" stroke="#000000" d="M421.1546,-36.1686C428.9114,-44.6306 438.2802,-54.8511 446.761,-64.1029"/>
<polygon fill="none" stroke="#000000" points="444.2838,-66.5802 453.6212,-71.5867 449.4439,-61.8501 444.2838,-66.5802"/>
</g>
<!-- hasMember -->
<g id="node11" class="node">
<title>hasMember</title>
<g id="a_node11"><a xlink:href="http://emmo.info/emmo/top/mereotopology#EMMO_6b7276a4_4b9d_440a_b577_0277539c0fc4" xlink:title="hasMember">
<polygon fill="#0079ba" stroke="#000000" points="226.5,-180 144.5,-180 144.5,-144 226.5,-144 226.5,-180"/>
<text text-anchor="middle" x="185.5" y="-158.3" font-family="Times,serif" font-size="14.00" fill="#ffffff">hasMember</text>
</a>
</g>
</g>
<!-- hasMember&#45;&gt;hasProperPart -->
<g id="edge7" class="edge">
<title>hasMember&#45;&gt;hasProperPart</title>
<path fill="none" stroke="#000000" d="M222.0896,-180.1686C241.2239,-189.6698 264.8229,-201.3879 285.1122,-211.4626"/>
<polygon fill="none" stroke="#000000" points="283.6603,-214.6494 294.1735,-215.962 286.7735,-208.3797 283.6603,-214.6494"/>
</g>
<!-- semiotical&#45;&gt;EMMORelation -->
<g id="edge12" class="edge">
<title>semiotical&#45;&gt;EMMORelation</title>
<path fill="none" stroke="#000000" d="M733.0884,-540.1686C724.979,-548.6306 715.1844,-558.8511 706.318,-568.1029"/>
<polygon fill="none" stroke="#000000" points="703.5382,-565.9451 699.146,-575.5867 708.5921,-570.7885 703.5382,-565.9451"/>
</g>
<!-- connected&#45;&gt;mereotopological -->
<g id="edge10" class="edge">
<title>connected&#45;&gt;mereotopological</title>
<path fill="none" stroke="#000000" d="M548.7436,-468.1686C561.7995,-477.2073 577.7535,-488.2524 591.8047,-497.9802"/>
<polygon fill="none" stroke="#000000" points="590.0506,-501.0227 600.2648,-503.8372 594.0351,-495.2674 590.0506,-501.0227"/>
</g>
<!-- hasSpatioTemporalDirectPart -->
<g id="node15" class="node">
<title>hasSpatioTemporalDirectPart</title>
<g id="a_node15"><a xlink:href="http://emmo.info/emmo/middle/reductionistic#EMMO_663859e5_add3_4c9e_96fb_c99399de278d" xlink:title="hasSpatioTemporalDirectPart">
<polygon fill="#0079ba" stroke="#000000" points="388.5,-108 210.5,-108 210.5,-72 388.5,-72 388.5,-108"/>
<text text-anchor="middle" x="299.5" y="-86.3" font-family="Times,serif" font-size="14.00" fill="#ffffff">hasSpatioTemporalDirectPart</text>
</a>
</g>
</g>
<!-- hasSpatioTemporalPart -->
<g id="node19" class="node">
<title>hasSpatioTemporalPart</title>
<g id="a_node19"><a xlink:href="http://emmo.info/emmo/top/physical#EMMO_6e046dd0_9634_4013_b2b1_9cc468087c83" xlink:title="hasSpatioTemporalPart">
<polygon fill="#0079ba" stroke="#000000" points="388.5,-180 244.5,-180 244.5,-144 388.5,-144 388.5,-180"/>
<text text-anchor="middle" x="316.5" y="-158.3" font-family="Times,serif" font-size="14.00" fill="#ffffff">hasSpatioTemporalPart</text>
</a>
</g>
</g>
<!-- hasSpatioTemporalDirectPart&#45;&gt;hasSpatioTemporalPart -->
<g id="edge4" class="edge">
<title>hasSpatioTemporalDirectPart&#45;&gt;hasSpatioTemporalPart</title>
<path fill="none" stroke="#000000" d="M303.7898,-108.1686C305.608,-115.869 307.7699,-125.0257 309.7905,-133.5834"/>
<polygon fill="none" stroke="#000000" points="306.4481,-134.6586 312.1524,-143.5867 313.2608,-133.05 306.4481,-134.6586"/>
</g>
<!-- hasOverlapWith&#45;&gt;connected -->
<g id="edge13" class="edge">
<title>hasOverlapWith&#45;&gt;connected</title>
<path fill="none" stroke="#000000" d="M476.1452,-396.1686C483.3591,-404.546 492.057,-414.6469 499.9605,-423.8251"/>
<polygon fill="none" stroke="#000000" points="497.4667,-426.2929 506.6441,-431.5867 502.7711,-421.7252 497.4667,-426.2929"/>
</g>
<!-- hasProperParticipant -->
<g id="node17" class="node">
<title>hasProperParticipant</title>
<g id="a_node17"><a xlink:href="http://emmo.info/emmo/middle/holistic#EMMO_c5aae418_1622_4d02_93c5_21159e28e6c1" xlink:title="hasProperParticipant">
<polygon fill="#0079ba" stroke="#000000" points="648,-180 519,-180 519,-144 648,-144 648,-180"/>
<text text-anchor="middle" x="583.5" y="-158.3" font-family="Times,serif" font-size="14.00" fill="#ffffff">hasProperParticipant</text>
</a>
</g>
</g>
<!-- hasProperParticipant&#45;&gt;hasParticipant -->
<g id="edge24" class="edge">
<title>hasProperParticipant&#45;&gt;hasParticipant</title>
<path fill="none" stroke="#000000" d="M573.6587,-180.1686C569.3043,-188.2075 564.0902,-197.8334 559.2831,-206.7082"/>
<polygon fill="none" stroke="#000000" points="556.1592,-205.1268 554.4739,-215.5867 562.3143,-208.4608 556.1592,-205.1268"/>
</g>
<!-- hasProperParticipant&#45;&gt;hasProperPart -->
<g id="edge25" class="edge">
<title>hasProperParticipant&#45;&gt;hasProperPart</title>
<path fill="none" stroke="#000000" d="M519.984,-180.0757C478.9627,-191.7498 426.0778,-206.8 386.607,-218.0328"/>
<polygon fill="none" stroke="#000000" points="385.5366,-214.6984 376.8765,-220.8019 387.4526,-221.431 385.5366,-214.6984"/>
</g>
<!-- hasContactWith -->
<g id="node18" class="node">
<title>hasContactWith</title>
<g id="a_node18"><a xlink:href="http://emmo.info/emmo/top/mereotopology#EMMO_4d6504f1_c470_4ce9_b941_bbbebc9ab05d" xlink:title="hasContactWith">
<polygon fill="#0079ba" stroke="#000000" points="635.5,-396 531.5,-396 531.5,-360 635.5,-360 635.5,-396"/>
<text text-anchor="middle" x="583.5" y="-374.3" font-family="Times,serif" font-size="14.00" fill="#ffffff">hasContactWith</text>
</a>
</g>
</g>
<!-- hasContactWith&#45;&gt;connected -->
<g id="edge9" class="edge">
<title>hasContactWith&#45;&gt;connected</title>
<path fill="none" stroke="#000000" d="M568.1071,-396.1686C561.0096,-404.546 552.452,-414.6469 544.676,-423.8251"/>
<polygon fill="none" stroke="#000000" points="541.8939,-421.6944 538.1001,-431.5867 547.2348,-426.2193 541.8939,-421.6944"/>
</g>
<!-- hasSpatioTemporalPart&#45;&gt;hasProperPart -->
<g id="edge1" class="edge">
<title>hasSpatioTemporalPart&#45;&gt;hasProperPart</title>
<path fill="none" stroke="#000000" d="M320.0328,-180.1686C321.5301,-187.869 323.3105,-197.0257 324.9745,-205.5834"/>
<polygon fill="none" stroke="#000000" points="321.5752,-206.4386 326.9196,-215.5867 328.4465,-205.1025 321.5752,-206.4386"/>
</g>
<!-- hasInterpretant -->
<g id="node20" class="node">
<title>hasInterpretant</title>
<g id="a_node20"><a xlink:href="http://emmo.info/emmo/top/semiotics#EMMO_7fb7fe7e_bdf9_4eeb_adad_e384dd5285c6" xlink:title="hasInterpretant">
<polygon fill="#0079ba" stroke="#000000" points="867.5,-396 769.5,-396 769.5,-360 867.5,-360 867.5,-396"/>
<text text-anchor="middle" x="818.5" y="-374.3" font-family="Times,serif" font-size="14.00" fill="#ffffff">hasInterpretant</text>
</a>
</g>
</g>
<!-- hasInterpretant&#45;&gt;hasSign -->
<g id="edge30" class="edge">
<title>hasInterpretant&#45;&gt;hasSign</title>
<path fill="none" stroke="#000000" d="M818.5,-396.1686C818.5,-403.869 818.5,-413.0257 818.5,-421.5834"/>
<polygon fill="none" stroke="#000000" points="815.0001,-421.5867 818.5,-431.5867 822.0001,-421.5868 815.0001,-421.5867"/>
</g>
<!-- hasProperPart&#45;&gt;hasPart -->
<g id="edge32" class="edge">
<title>hasProperPart&#45;&gt;hasPart</title>
<path fill="none" stroke="#000000" d="M339.5843,-252.1686C343.5615,-260.1229 348.3155,-269.631 352.7139,-278.4277"/>
<polygon fill="none" stroke="#000000" points="349.6907,-280.2077 357.2934,-287.5867 355.9517,-277.0772 349.6907,-280.2077"/>
</g>
<!-- hasPart&#45;&gt;encloses -->
<g id="edge18" class="edge">
<title>hasPart&#45;&gt;encloses</title>
<path fill="none" stroke="#000000" d="M364.4813,-324.1686C363.6257,-331.869 362.6083,-341.0257 361.6574,-349.5834"/>
<polygon fill="none" stroke="#000000" points="358.1717,-349.2614 360.5459,-359.5867 365.1289,-350.0344 358.1717,-349.2614"/>
</g>
<!-- hasPart&#45;&gt;hasOverlapWith -->
<g id="edge19" class="edge">
<title>hasPart&#45;&gt;hasOverlapWith</title>
<path fill="none" stroke="#000000" d="M390.2202,-324.1686C401.9094,-333.1221 416.1688,-344.0442 428.7809,-353.7045"/>
<polygon fill="none" stroke="#000000" points="426.7203,-356.5349 436.7874,-359.8372 430.9769,-350.9778 426.7203,-356.5349"/>
</g>
<!-- hasVariable -->
<g id="node23" class="node">
<title>hasVariable</title>
<g id="a_node23"><a xlink:href="http://emmo.info/emmo/middle/math#EMMO_3446e167_c576_49d6_846c_215bb8878a55" xlink:title="hasVariable">
<polygon fill="#0079ba" stroke="#000000" points="683,-324 602,-324 602,-288 683,-288 683,-324"/>
<text text-anchor="middle" x="642.5" y="-302.3" font-family="Times,serif" font-size="14.00" fill="#ffffff">hasVariable</text>
</a>
</g>
</g>
<!-- hasVariable&#45;&gt;hasConvention -->
<g id="edge16" class="edge">
<title>hasVariable&#45;&gt;hasConvention</title>
<path fill="none" stroke="#000000" d="M657.6405,-324.1686C664.6217,-332.546 673.0391,-342.6469 680.6876,-351.8251"/>
<polygon fill="none" stroke="#000000" points="678.0649,-354.1452 687.1556,-359.5867 683.4425,-349.6638 678.0649,-354.1452"/>
</g>
<!-- hasSpatialPart -->
<g id="node28" class="node">
<title>hasSpatialPart</title>
<g id="a_node28"><a xlink:href="http://emmo.info/emmo/top/physical#EMMO_f68030be_94b8_4c61_a161_886468558054" xlink:title="hasSpatialPart">
<polygon fill="#0079ba" stroke="#000000" points="500.5,-180 406.5,-180 406.5,-144 500.5,-144 500.5,-180"/>
<text text-anchor="middle" x="453.5" y="-158.3" font-family="Times,serif" font-size="14.00" fill="#ffffff">hasSpatialPart</text>
</a>
</g>
</g>
<!-- hasSpatialDirectPart&#45;&gt;hasSpatialPart -->
<g id="edge6" class="edge">
<title>hasSpatialDirectPart&#45;&gt;hasSpatialPart</title>
<path fill="none" stroke="#000000" d="M466.2102,-108.1686C464.392,-115.869 462.2301,-125.0257 460.2095,-133.5834"/>
<polygon fill="none" stroke="#000000" points="456.7392,-133.05 457.8476,-143.5867 463.5519,-134.6586 456.7392,-133.05"/>
</g>
<!-- hasPhysicsDimension -->
<g id="node25" class="node">
<title>hasPhysicsDimension</title>
<g id="a_node25"><a xlink:href="http://emmo.info/emmo/middle/metrology#EMMO_bed1d005_b04e_4a90_94cf_02bc678a8569" xlink:title="hasPhysicsDimension">
<polygon fill="#0079ba" stroke="#000000" points="809.5,-252 673.5,-252 673.5,-216 809.5,-216 809.5,-252"/>
<text text-anchor="middle" x="741.5" y="-230.3" font-family="Times,serif" font-size="14.00" fill="#ffffff">hasPhysicsDimension</text>
</a>
</g>
</g>
<!-- hasProperty -->
<g id="node30" class="node">
<title>hasProperty</title>
<g id="a_node30"><a xlink:href="http://emmo.info/emmo/middle/properties#EMMO_e1097637_70d2_4895_973f_2396f04fa204" xlink:title="hasProperty">
<polygon fill="#0079ba" stroke="#000000" points="782,-324 701,-324 701,-288 782,-288 782,-324"/>
<text text-anchor="middle" x="741.5" y="-302.3" font-family="Times,serif" font-size="14.00" fill="#ffffff">hasProperty</text>
</a>
</g>
</g>
<!-- hasPhysicsDimension&#45;&gt;hasProperty -->
<g id="edge8" class="edge">
<title>hasPhysicsDimension&#45;&gt;hasProperty</title>
<path fill="none" stroke="#000000" d="M741.5,-252.1686C741.5,-259.869 741.5,-269.0257 741.5,-277.5834"/>
<polygon fill="none" stroke="#000000" points="738.0001,-277.5867 741.5,-287.5867 745.0001,-277.5868 738.0001,-277.5867"/>
</g>
<!-- hasModel -->
<g id="node26" class="node">
<title>hasModel</title>
<g id="a_node26"><a xlink:href="http://emmo.info/emmo/middle/models#EMMO_24c71baf_6db6_48b9_86c8_8c70cf36db0c" xlink:title="hasModel">
<polygon fill="#0079ba" stroke="#000000" points="951,-324 880,-324 880,-288 951,-288 951,-324"/>
<text text-anchor="middle" x="915.5" y="-302.3" font-family="Times,serif" font-size="14.00" fill="#ffffff">hasModel</text>
</a>
</g>
</g>
<!-- hasIcon -->
<g id="node27" class="node">
<title>hasIcon</title>
<g id="a_node27"><a xlink:href="http://emmo.info/emmo/top/semiotics#EMMO_39c3815d_8cae_4c8f_b2ff_eeba24bec455" xlink:title="hasIcon">
<polygon fill="#0079ba" stroke="#000000" points="945,-396 886,-396 886,-360 945,-360 945,-396"/>
<text text-anchor="middle" x="915.5" y="-374.3" font-family="Times,serif" font-size="14.00" fill="#ffffff">hasIcon</text>
</a>
</g>
</g>
<!-- hasModel&#45;&gt;hasIcon -->
<g id="edge29" class="edge">
<title>hasModel&#45;&gt;hasIcon</title>
<path fill="none" stroke="#000000" d="M915.5,-324.1686C915.5,-331.869 915.5,-341.0257 915.5,-349.5834"/>
<polygon fill="none" stroke="#000000" points="912.0001,-349.5867 915.5,-359.5867 919.0001,-349.5868 912.0001,-349.5867"/>
</g>
<!-- hasIcon&#45;&gt;hasSign -->
<g id="edge2" class="edge">
<title>hasIcon&#45;&gt;hasSign</title>
<path fill="none" stroke="#000000" d="M891.0228,-396.1686C878.9605,-405.1221 864.246,-416.0442 851.2314,-425.7045"/>
<polygon fill="none" stroke="#000000" points="848.913,-423.0665 842.9694,-431.8372 853.0852,-428.6873 848.913,-423.0665"/>
</g>
<!-- hasSpatialPart&#45;&gt;hasProperPart -->
<g id="edge20" class="edge">
<title>hasSpatialPart&#45;&gt;hasProperPart</title>
<path fill="none" stroke="#000000" d="M422.4619,-180.1686C406.7295,-189.3779 387.4389,-200.6699 370.5956,-210.5294"/>
<polygon fill="none" stroke="#000000" points="368.3902,-207.7648 361.5282,-215.8372 371.9265,-213.8059 368.3902,-207.7648"/>
</g>
<!-- hasQuantityValue -->
<g id="node29" class="node">
<title>hasQuantityValue</title>
<g id="a_node29"><a xlink:href="http://emmo.info/emmo/middle/metrology#EMMO_8ef3cd6d_ae58_4a8d_9fc0_ad8f49015cd0" xlink:title="hasQuantityValue">
<polygon fill="#0079ba" stroke="#000000" points="593.5,-36 479.5,-36 479.5,0 593.5,0 593.5,-36"/>
<text text-anchor="middle" x="536.5" y="-14.3" font-family="Times,serif" font-size="14.00" fill="#ffffff">hasQuantityValue</text>
</a>
</g>
</g>
<!-- hasQuantityValue&#45;&gt;hasSpatialDirectPart -->
<g id="edge26" class="edge">
<title>hasQuantityValue&#45;&gt;hasSpatialDirectPart</title>
<path fill="none" stroke="#000000" d="M519.8454,-36.1686C512.0886,-44.6306 502.7198,-54.8511 494.239,-64.1029"/>
<polygon fill="none" stroke="#000000" points="491.5561,-61.8501 487.3788,-71.5867 496.7162,-66.5802 491.5561,-61.8501"/>
</g>
<!-- hasProperty&#45;&gt;hasConvention -->
<g id="edge31" class="edge">
<title>hasProperty&#45;&gt;hasConvention</title>
<path fill="none" stroke="#000000" d="M731.6587,-324.1686C727.3043,-332.2075 722.0902,-341.8334 717.2831,-350.7082"/>
<polygon fill="none" stroke="#000000" points="714.1592,-349.1268 712.4739,-359.5867 720.3143,-352.4608 714.1592,-349.1268"/>
</g>
<!-- hasIndex -->
<g id="node31" class="node">
<title>hasIndex</title>
<g id="a_node31"><a xlink:href="http://emmo.info/emmo/top/semiotics#EMMO_297999d6_c9e4_4262_9536_bd524d1c6e21" xlink:title="hasIndex">
<polygon fill="#0079ba" stroke="#000000" points="1028,-396 963,-396 963,-360 1028,-360 1028,-396"/>
<text text-anchor="middle" x="995.5" y="-374.3" font-family="Times,serif" font-size="14.00" fill="#ffffff">hasIndex</text>
</a>
</g>
</g>
<!-- hasIndex&#45;&gt;hasSign -->
<g id="edge11" class="edge">
<title>hasIndex&#45;&gt;hasSign</title>
<path fill="none" stroke="#000000" d="M962.8715,-392.45C960.0455,-393.6635 957.2256,-394.861 954.5,-396 922.0376,-409.5656 884.8961,-424.2575 857.6388,-434.8869"/>
<polygon fill="none" stroke="#000000" points="856.1211,-431.7218 848.0708,-438.6096 858.6594,-438.2454 856.1211,-431.7218"/>
</g>
<!-- key1 -->
<g id="node32" class="node">
<title>key1</title>
<text text-anchor="start" x="629.5" y="-13.8" font-family="Times,serif" font-size="14.00" fill="#000000">isA</text>
</g>
<!-- key2 -->
<g id="node33" class="node">
<title>key2</title>
<text text-anchor="start" x="708.5" y="-13.8" font-family="Times,serif" font-size="14.00" fill="#000000"> </text>
</g>
<!-- key1&#45;&gt;key2 -->
<g id="edge33" class="edge">
<title>key1:e&#45;&gt;key2:w</title>
<path fill="none" stroke="#000000" d="M650.5,-19C671.5,-19 679.2109,-19 696.0581,-19"/>
<polygon fill="none" stroke="#000000" points="696.5,-22.5001 706.5,-19 696.5,-15.5001 696.5,-22.5001"/>
</g>
</g>
</svg>
