<?xml version="1.0" encoding="UTF-8" standalone="no"?>
<!DOCTYPE svg PUBLIC "-//W3C//DTD SVG 1.1//EN"
 "http://www.w3.org/Graphics/SVG/1.1/DTD/svg11.dtd">
<!-- Generated by graphviz version 2.40.1 (20161225.0304)
 -->
<!-- Title: %3 Pages: 1 -->
<svg width="1284pt" height="620pt"
 viewBox="0.00 0.00 1284.00 620.00" xmlns="http://www.w3.org/2000/svg" xmlns:xlink="http://www.w3.org/1999/xlink">
<g id="graph0" class="graph" transform="scale(1 1) rotate(0) translate(4 616)">
<title>%3</title>
<polygon fill="#ffffff" stroke="transparent" points="-4,4 -4,-616 1280,-616 1280,4 -4,4"/>
<!-- hasQuantityValue -->
<g id="node1" class="node">
<title>hasQuantityValue</title>
<g id="a_node1"><a xlink:href="http://emmo.info/emmo/middle/metrology#EMMO_8ef3cd6d_ae58_4a8d_9fc0_ad8f49015cd0" xlink:title="hasQuantityValue">
<polygon fill="#0079ba" stroke="#000000" points="114,-36 0,-36 0,0 114,0 114,-36"/>
<text text-anchor="middle" x="57" y="-14.3" font-family="Times,serif" font-size="14.00" fill="#ffffff">hasQuantityValue</text>
</a>
</g>
</g>
<!-- hasSpatialDirectPart -->
<g id="node9" class="node">
<title>hasSpatialDirectPart</title>
<g id="a_node9"><a xlink:href="http://emmo.info/emmo/middle/reductionistic#EMMO_b2282816_b7a3_44c6_b2cb_3feff1ceb7fe" xlink:title="hasSpatialDirectPart">
<polygon fill="#0079ba" stroke="#000000" points="187,-108 59,-108 59,-72 187,-72 187,-108"/>
<text text-anchor="middle" x="123" y="-86.3" font-family="Times,serif" font-size="14.00" fill="#ffffff">hasSpatialDirectPart</text>
</a>
</g>
</g>
<!-- hasQuantityValue&#45;&gt;hasSpatialDirectPart -->
<g id="edge2" class="edge">
<title>hasQuantityValue&#45;&gt;hasSpatialDirectPart</title>
<path fill="none" stroke="#000000" d="M73.6546,-36.1686C81.4114,-44.6306 90.7802,-54.8511 99.261,-64.1029"/>
<polygon fill="none" stroke="#000000" points="96.7838,-66.5802 106.1212,-71.5867 101.9439,-61.8501 96.7838,-66.5802"/>
</g>
<!-- hasTemporalPart -->
<g id="node2" class="node">
<title>hasTemporalPart</title>
<g id="a_node2"><a xlink:href="http://emmo.info/emmo/top/physical#EMMO_7afbed84_7593_4a23_bd88_9d9c6b04e8f6" xlink:title="hasTemporalPart">
<polygon fill="#0079ba" stroke="#000000" points="332,-180 222,-180 222,-144 332,-144 332,-180"/>
<text text-anchor="middle" x="277" y="-158.3" font-family="Times,serif" font-size="14.00" fill="#ffffff">hasTemporalPart</text>
</a>
</g>
</g>
<!-- hasProperPart -->
<g id="node19" class="node">
<title>hasProperPart</title>
<g id="a_node19"><a xlink:href="http://emmo.info/emmo/top/mereotopology#EMMO_9380ab64_0363_4804_b13f_3a8a94119a76" xlink:title="hasProperPart">
<polygon fill="#0079ba" stroke="#000000" points="532,-252 440,-252 440,-216 532,-216 532,-252"/>
<text text-anchor="middle" x="486" y="-230.3" font-family="Times,serif" font-size="14.00" fill="#ffffff">hasProperPart</text>
</a>
</g>
</g>
<!-- hasTemporalPart&#45;&gt;hasProperPart -->
<g id="edge14" class="edge">
<title>hasTemporalPart&#45;&gt;hasProperPart</title>
<path fill="none" stroke="#000000" d="M329.4698,-180.0757C360.2622,-190.6836 399.1466,-204.0792 430.4561,-214.8652"/>
<polygon fill="none" stroke="#000000" points="429.3175,-218.1748 439.9122,-218.1229 431.5976,-211.5566 429.3175,-218.1748"/>
</g>
<!-- hasProperParticipant -->
<g id="node3" class="node">
<title>hasProperParticipant</title>
<g id="a_node3"><a xlink:href="http://emmo.info/emmo/middle/holistic#EMMO_c5aae418_1622_4d02_93c5_21159e28e6c1" xlink:title="hasProperParticipant">
<polygon fill="#0079ba" stroke="#000000" points="741.5,-180 612.5,-180 612.5,-144 741.5,-144 741.5,-180"/>
<text text-anchor="middle" x="677" y="-158.3" font-family="Times,serif" font-size="14.00" fill="#ffffff">hasProperParticipant</text>
</a>
</g>
</g>
<!-- hasProperParticipant&#45;&gt;hasProperPart -->
<g id="edge30" class="edge">
<title>hasProperParticipant&#45;&gt;hasProperPart</title>
<path fill="none" stroke="#000000" d="M628.8026,-180.1686C602.3091,-190.1557 569.3176,-202.5923 541.7218,-212.9949"/>
<polygon fill="none" stroke="#000000" points="540.328,-209.7799 532.2053,-216.5823 542.7972,-216.3299 540.328,-209.7799"/>
</g>
<!-- hasParticipant -->
<g id="node22" class="node">
<title>hasParticipant</title>
<g id="a_node22"><a xlink:href="http://emmo.info/emmo/middle/holistic#EMMO_ae2d1a96_bfa1_409a_a7d2_03d69e8a125a" xlink:title="hasParticipant">
<polygon fill="#0079ba" stroke="#000000" points="691.5,-252 598.5,-252 598.5,-216 691.5,-216 691.5,-252"/>
<text text-anchor="middle" x="645" y="-230.3" font-family="Times,serif" font-size="14.00" fill="#ffffff">hasParticipant</text>
</a>
</g>
</g>
<!-- hasProperParticipant&#45;&gt;hasParticipant -->
<g id="edge29" class="edge">
<title>hasProperParticipant&#45;&gt;hasParticipant</title>
<path fill="none" stroke="#000000" d="M668.925,-180.1686C665.3898,-188.1229 661.164,-197.631 657.2544,-206.4277"/>
<polygon fill="none" stroke="#000000" points="654.0468,-205.0271 653.1837,-215.5867 660.4435,-207.8701 654.0468,-205.0271"/>
</g>
<!-- hasSign -->
<g id="node4" class="node">
<title>hasSign</title>
<g id="a_node4"><a xlink:href="http://emmo.info/emmo/top/semiotics#EMMO_60577dea_9019_4537_ac41_80b0fb563d41" xlink:title="hasSign">
<polygon fill="#0079ba" stroke="#000000" points="1056.5,-468 997.5,-468 997.5,-432 1056.5,-432 1056.5,-468"/>
<text text-anchor="middle" x="1027" y="-446.3" font-family="Times,serif" font-size="14.00" fill="#ffffff">hasSign</text>
</a>
</g>
</g>
<!-- semiotical -->
<g id="node12" class="node">
<title>semiotical</title>
<g id="a_node12"><a xlink:href="http://emmo.info/emmo/top/semiotics#EMMO_2337e25c_3c60_43fc_a8f9_b11a3f974291" xlink:title="semiotical">
<polygon fill="#0079ba" stroke="#000000" points="1007.5,-540 934.5,-540 934.5,-504 1007.5,-504 1007.5,-540"/>
<text text-anchor="middle" x="971" y="-518.3" font-family="Times,serif" font-size="14.00" fill="#ffffff">semiotical</text>
</a>
</g>
</g>
<!-- hasSign&#45;&gt;semiotical -->
<g id="edge27" class="edge">
<title>hasSign&#45;&gt;semiotical</title>
<path fill="none" stroke="#000000" d="M1012.8688,-468.1686C1006.4189,-476.4614 998.6555,-486.443 991.5748,-495.5467"/>
<polygon fill="none" stroke="#000000" points="988.6981,-493.5444 985.3214,-503.5867 994.2236,-497.842 988.6981,-493.5444"/>
</g>
<!-- hasContactWith -->
<g id="node5" class="node">
<title>hasContactWith</title>
<g id="a_node5"><a xlink:href="http://emmo.info/emmo/top/mereotopology#EMMO_4d6504f1_c470_4ce9_b941_bbbebc9ab05d" xlink:title="hasContactWith">
<polygon fill="#0079ba" stroke="#000000" points="882,-396 778,-396 778,-360 882,-360 882,-396"/>
<text text-anchor="middle" x="830" y="-374.3" font-family="Times,serif" font-size="14.00" fill="#ffffff">hasContactWith</text>
</a>
</g>
</g>
<!-- connected -->
<g id="node8" class="node">
<title>connected</title>
<g id="a_node8"><a xlink:href="http://emmo.info/emmo/top/mereotopology#EMMO_6703954e_34c4_4a15_a9e7_f313760ae1a8" xlink:title="connected">
<polygon fill="#0079ba" stroke="#000000" points="756.5,-468 685.5,-468 685.5,-432 756.5,-432 756.5,-468"/>
<text text-anchor="middle" x="721" y="-446.3" font-family="Times,serif" font-size="14.00" fill="#ffffff">connected</text>
</a>
</g>
</g>
<!-- hasContactWith&#45;&gt;connected -->
<g id="edge13" class="edge">
<title>hasContactWith&#45;&gt;connected</title>
<path fill="none" stroke="#000000" d="M802.4947,-396.1686C788.682,-405.2926 771.7744,-416.461 756.9471,-426.2551"/>
<polygon fill="none" stroke="#000000" points="754.9114,-423.4051 748.4965,-431.8372 758.7696,-429.2459 754.9114,-423.4051"/>
</g>
<!-- encloses -->
<g id="node6" class="node">
<title>encloses</title>
<g id="a_node6"><a xlink:href="http://emmo.info/emmo/top/mereotopology#EMMO_8c898653_1118_4682_9bbf_6cc334d16a99" xlink:title="encloses">
<polygon fill="#0079ba" stroke="#000000" points="636,-396 574,-396 574,-360 636,-360 636,-396"/>
<text text-anchor="middle" x="605" y="-374.3" font-family="Times,serif" font-size="14.00" fill="#ffffff">encloses</text>
</a>
</g>
</g>
<!-- encloses&#45;&gt;connected -->
<g id="edge17" class="edge">
<title>encloses&#45;&gt;connected</title>
<path fill="none" stroke="#000000" d="M634.2717,-396.1686C649.1088,-405.3779 667.3015,-416.6699 683.1862,-426.5294"/>
<polygon fill="none" stroke="#000000" points="681.3955,-429.5372 691.7377,-431.8372 685.087,-423.5898 681.3955,-429.5372"/>
</g>
<!-- hasReferenceUnit -->
<g id="node7" class="node">
<title>hasReferenceUnit</title>
<g id="a_node7"><a xlink:href="http://emmo.info/emmo/middle/metrology#EMMO_67fc0a36_8dcb_4ffa_9a43_31074efa3296" xlink:title="hasReferenceUnit">
<polygon fill="#0079ba" stroke="#000000" points="245.5,-36 132.5,-36 132.5,0 245.5,0 245.5,-36"/>
<text text-anchor="middle" x="189" y="-14.3" font-family="Times,serif" font-size="14.00" fill="#ffffff">hasReferenceUnit</text>
</a>
</g>
</g>
<!-- hasReferenceUnit&#45;&gt;hasSpatialDirectPart -->
<g id="edge23" class="edge">
<title>hasReferenceUnit&#45;&gt;hasSpatialDirectPart</title>
<path fill="none" stroke="#000000" d="M172.3454,-36.1686C164.5886,-44.6306 155.2198,-54.8511 146.739,-64.1029"/>
<polygon fill="none" stroke="#000000" points="144.0561,-61.8501 139.8788,-71.5867 149.2162,-66.5802 144.0561,-61.8501"/>
</g>
<!-- mereotopological -->
<g id="node10" class="node">
<title>mereotopological</title>
<g id="a_node10"><a xlink:href="http://emmo.info/emmo/top/mereotopology#EMMO_03212fd7_abfd_4828_9c8e_62c293052d4b" xlink:title="mereotopological">
<polygon fill="#0079ba" stroke="#000000" points="888,-540 776,-540 776,-504 888,-504 888,-540"/>
<text text-anchor="middle" x="832" y="-518.3" font-family="Times,serif" font-size="14.00" fill="#ffffff">mereotopological</text>
</a>
</g>
</g>
<!-- connected&#45;&gt;mereotopological -->
<g id="edge11" class="edge">
<title>connected&#45;&gt;mereotopological</title>
<path fill="none" stroke="#000000" d="M749.01,-468.1686C763.0761,-477.2926 780.294,-488.461 795.3933,-498.2551"/>
<polygon fill="none" stroke="#000000" points="793.7047,-501.3316 803.999,-503.8372 797.514,-495.4588 793.7047,-501.3316"/>
</g>
<!-- hasSpatialPart -->
<g id="node21" class="node">
<title>hasSpatialPart</title>
<g id="a_node21"><a xlink:href="http://emmo.info/emmo/top/physical#EMMO_f68030be_94b8_4c61_a161_886468558054" xlink:title="hasSpatialPart">
<polygon fill="#0079ba" stroke="#000000" points="187,-180 93,-180 93,-144 187,-144 187,-180"/>
<text text-anchor="middle" x="140" y="-158.3" font-family="Times,serif" font-size="14.00" fill="#ffffff">hasSpatialPart</text>
</a>
</g>
</g>
<!-- hasSpatialDirectPart&#45;&gt;hasSpatialPart -->
<g id="edge22" class="edge">
<title>hasSpatialDirectPart&#45;&gt;hasSpatialPart</title>
<path fill="none" stroke="#000000" d="M127.2898,-108.1686C129.108,-115.869 131.2699,-125.0257 133.2905,-133.5834"/>
<polygon fill="none" stroke="#000000" points="129.9481,-134.6586 135.6524,-143.5867 136.7608,-133.05 129.9481,-134.6586"/>
</g>
<!-- EMMORelation -->
<g id="node30" class="node">
<title>EMMORelation</title>
<g id="a_node30"><a xlink:href="http://emmo.info/emmo/top/mereotopology#EMMO_ec2472ae_cf4a_46a5_8555_1556f5a6c3c5" xlink:title="EMMORelation">
<polygon fill="#0079ba" stroke="#000000" stroke-width="2" points="940,-612 834,-612 834,-576 940,-576 940,-612"/>
<text text-anchor="middle" x="887" y="-590.3" font-family="Times,serif" font-size="14.00" fill="#ffffff">EMMORelation</text>
</a>
</g>
</g>
<!-- mereotopological&#45;&gt;EMMORelation -->
<g id="edge16" class="edge">
<title>mereotopological&#45;&gt;EMMORelation</title>
<path fill="none" stroke="#000000" d="M845.8788,-540.1686C852.2136,-548.4614 859.8384,-558.443 866.7926,-567.5467"/>
<polygon fill="none" stroke="#000000" points="864.0825,-569.7647 872.9343,-575.5867 869.6452,-565.5153 864.0825,-569.7647"/>
</g>
<!-- hasOverlapWith -->
<g id="node11" class="node">
<title>hasOverlapWith</title>
<g id="a_node11"><a xlink:href="http://emmo.info/emmo/top/mereotopology#EMMO_d893d373_b579_4867_841e_1c2b31a8d2c6" xlink:title="hasOverlapWith">
<polygon fill="#0079ba" stroke="#000000" points="760,-396 654,-396 654,-360 760,-360 760,-396"/>
<text text-anchor="middle" x="707" y="-374.3" font-family="Times,serif" font-size="14.00" fill="#ffffff">hasOverlapWith</text>
</a>
</g>
</g>
<!-- hasOverlapWith&#45;&gt;connected -->
<g id="edge24" class="edge">
<title>hasOverlapWith&#45;&gt;connected</title>
<path fill="none" stroke="#000000" d="M710.5328,-396.1686C712.0301,-403.869 713.8105,-413.0257 715.4745,-421.5834"/>
<polygon fill="none" stroke="#000000" points="712.0752,-422.4386 717.4196,-431.5867 718.9465,-421.1025 712.0752,-422.4386"/>
</g>
<!-- semiotical&#45;&gt;EMMORelation -->
<g id="edge28" class="edge">
<title>semiotical&#45;&gt;EMMORelation</title>
<path fill="none" stroke="#000000" d="M949.8033,-540.1686C939.5566,-548.9515 927.0997,-559.6288 915.9903,-569.1511"/>
<polygon fill="none" stroke="#000000" points="913.5048,-566.6718 908.19,-575.8372 918.0603,-571.9866 913.5048,-566.6718"/>
</g>
<!-- hasIcon -->
<g id="node13" class="node">
<title>hasIcon</title>
<g id="a_node13"><a xlink:href="http://emmo.info/emmo/top/semiotics#EMMO_39c3815d_8cae_4c8f_b2ff_eeba24bec455" xlink:title="hasIcon">
<polygon fill="#0079ba" stroke="#000000" points="959.5,-396 900.5,-396 900.5,-360 959.5,-360 959.5,-396"/>
<text text-anchor="middle" x="930" y="-374.3" font-family="Times,serif" font-size="14.00" fill="#ffffff">hasIcon</text>
</a>
</g>
</g>
<!-- hasIcon&#45;&gt;hasSign -->
<g id="edge19" class="edge">
<title>hasIcon&#45;&gt;hasSign</title>
<path fill="none" stroke="#000000" d="M954.4772,-396.1686C966.5395,-405.1221 981.254,-416.0442 994.2686,-425.7045"/>
<polygon fill="none" stroke="#000000" points="992.4148,-428.6873 1002.5306,-431.8372 996.587,-423.0665 992.4148,-428.6873"/>
</g>
<!-- hasPhysicsDimension -->
<g id="node14" class="node">
<title>hasPhysicsDimension</title>
<g id="a_node14"><a xlink:href="http://emmo.info/emmo/middle/metrology#EMMO_bed1d005_b04e_4a90_94cf_02bc678a8569" xlink:title="hasPhysicsDimension">
<polygon fill="#0079ba" stroke="#000000" points="1093,-252 957,-252 957,-216 1093,-216 1093,-252"/>
<text text-anchor="middle" x="1025" y="-230.3" font-family="Times,serif" font-size="14.00" fill="#ffffff">hasPhysicsDimension</text>
</a>
</g>
</g>
<!-- hasProperty -->
<g id="node25" class="node">
<title>hasProperty</title>
<g id="a_node25"><a xlink:href="http://emmo.info/emmo/middle/properties#EMMO_e1097637_70d2_4895_973f_2396f04fa204" xlink:title="hasProperty">
<polygon fill="#0079ba" stroke="#000000" points="1065.5,-324 984.5,-324 984.5,-288 1065.5,-288 1065.5,-324"/>
<text text-anchor="middle" x="1025" y="-302.3" font-family="Times,serif" font-size="14.00" fill="#ffffff">hasProperty</text>
</a>
</g>
</g>
<!-- hasPhysicsDimension&#45;&gt;hasProperty -->
<g id="edge4" class="edge">
<title>hasPhysicsDimension&#45;&gt;hasProperty</title>
<path fill="none" stroke="#000000" d="M1025,-252.1686C1025,-259.869 1025,-269.0257 1025,-277.5834"/>
<polygon fill="none" stroke="#000000" points="1021.5001,-277.5867 1025,-287.5867 1028.5001,-277.5868 1021.5001,-277.5867"/>
</g>
<!-- hasPart -->
<g id="node15" class="node">
<title>hasPart</title>
<g id="a_node15"><a xlink:href="http://emmo.info/emmo/top/mereotopology#EMMO_17e27c22_37e1_468c_9dd7_95e137f73e7f" xlink:title="hasPart">
<polygon fill="#0079ba" stroke="#000000" points="641,-324 585,-324 585,-288 641,-288 641,-324"/>
<text text-anchor="middle" x="613" y="-302.3" font-family="Times,serif" font-size="14.00" fill="#ffffff">hasPart</text>
</a>
</g>
</g>
<!-- hasPart&#45;&gt;encloses -->
<g id="edge7" class="edge">
<title>hasPart&#45;&gt;encloses</title>
<path fill="none" stroke="#000000" d="M610.9813,-324.1686C610.1257,-331.869 609.1083,-341.0257 608.1574,-349.5834"/>
<polygon fill="none" stroke="#000000" points="604.6717,-349.2614 607.0459,-359.5867 611.6289,-350.0344 604.6717,-349.2614"/>
</g>
<!-- hasPart&#45;&gt;hasOverlapWith -->
<g id="edge8" class="edge">
<title>hasPart&#45;&gt;hasOverlapWith</title>
<path fill="none" stroke="#000000" d="M636.7202,-324.1686C648.4094,-333.1221 662.6688,-344.0442 675.2809,-353.7045"/>
<polygon fill="none" stroke="#000000" points="673.2203,-356.5349 683.2874,-359.8372 677.4769,-350.9778 673.2203,-356.5349"/>
</g>
<!-- hasModel -->
<g id="node16" class="node">
<title>hasModel</title>
<g id="a_node16"><a xlink:href="http://emmo.info/emmo/middle/models#EMMO_24c71baf_6db6_48b9_86c8_8c70cf36db0c" xlink:title="hasModel">
<polygon fill="#0079ba" stroke="#000000" points="965.5,-324 894.5,-324 894.5,-288 965.5,-288 965.5,-324"/>
<text text-anchor="middle" x="930" y="-302.3" font-family="Times,serif" font-size="14.00" fill="#ffffff">hasModel</text>
</a>
</g>
</g>
<!-- hasModel&#45;&gt;hasIcon -->
<g id="edge12" class="edge">
<title>hasModel&#45;&gt;hasIcon</title>
<path fill="none" stroke="#000000" d="M930,-324.1686C930,-331.869 930,-341.0257 930,-349.5834"/>
<polygon fill="none" stroke="#000000" points="926.5001,-349.5867 930,-359.5867 933.5001,-349.5868 926.5001,-349.5867"/>
</g>
<!-- hasSpatioTemporalDirectPart -->
<g id="node17" class="node">
<title>hasSpatioTemporalDirectPart</title>
<g id="a_node17"><a xlink:href="http://emmo.info/emmo/middle/reductionistic#EMMO_663859e5_add3_4c9e_96fb_c99399de278d" xlink:title="hasSpatioTemporalDirectPart">
<polygon fill="#0079ba" stroke="#000000" points="545,-108 367,-108 367,-72 545,-72 545,-108"/>
<text text-anchor="middle" x="456" y="-86.3" font-family="Times,serif" font-size="14.00" fill="#ffffff">hasSpatioTemporalDirectPart</text>
</a>
</g>
</g>
<!-- hasSpatioTemporalPart -->
<g id="node24" class="node">
<title>hasSpatioTemporalPart</title>
<g id="a_node24"><a xlink:href="http://emmo.info/emmo/top/physical#EMMO_6e046dd0_9634_4013_b2b1_9cc468087c83" xlink:title="hasSpatioTemporalPart">
<polygon fill="#0079ba" stroke="#000000" points="494,-180 350,-180 350,-144 494,-144 494,-180"/>
<text text-anchor="middle" x="422" y="-158.3" font-family="Times,serif" font-size="14.00" fill="#ffffff">hasSpatioTemporalPart</text>
</a>
</g>
</g>
<!-- hasSpatioTemporalDirectPart&#45;&gt;hasSpatioTemporalPart -->
<g id="edge18" class="edge">
<title>hasSpatioTemporalDirectPart&#45;&gt;hasSpatioTemporalPart</title>
<path fill="none" stroke="#000000" d="M447.4204,-108.1686C443.6642,-116.1229 439.1743,-125.631 435.0202,-134.4277"/>
<polygon fill="none" stroke="#000000" points="431.8004,-133.0497 430.6952,-143.5867 438.1301,-136.0388 431.8004,-133.0497"/>
</g>
<!-- overcrosses -->
<g id="node18" class="node">
<title>overcrosses</title>
<g id="a_node18"><a xlink:href="http://emmo.info/emmo/top/mereotopology#EMMO_9cb984ca_48ad_4864_b09e_50d3fff19420" xlink:title="overcrosses">
<polygon fill="#0079ba" stroke="#000000" points="747,-324 667,-324 667,-288 747,-288 747,-324"/>
<text text-anchor="middle" x="707" y="-302.3" font-family="Times,serif" font-size="14.00" fill="#ffffff">overcrosses</text>
</a>
</g>
</g>
<!-- overcrosses&#45;&gt;hasOverlapWith -->
<g id="edge32" class="edge">
<title>overcrosses&#45;&gt;hasOverlapWith</title>
<path fill="none" stroke="#000000" d="M707,-324.1686C707,-331.869 707,-341.0257 707,-349.5834"/>
<polygon fill="none" stroke="#000000" points="703.5001,-349.5867 707,-359.5867 710.5001,-349.5868 703.5001,-349.5867"/>
</g>
<!-- hasProperPart&#45;&gt;hasPart -->
<g id="edge31" class="edge">
<title>hasProperPart&#45;&gt;hasPart</title>
<path fill="none" stroke="#000000" d="M518.0475,-252.1686C535.729,-262.1928 557.7634,-274.6847 576.1537,-285.1108"/>
<polygon fill="none" stroke="#000000" points="574.4286,-288.156 584.854,-290.0432 577.8809,-282.0666 574.4286,-288.156"/>
</g>
<!-- hasConvention -->
<g id="node20" class="node">
<title>hasConvention</title>
<g id="a_node20"><a xlink:href="http://emmo.info/emmo/top/semiotics#EMMO_eb3518bf_f799_4f9e_8c3e_ce59af11453b" xlink:title="hasConvention">
<polygon fill="#0079ba" stroke="#000000" points="1076,-396 978,-396 978,-360 1076,-360 1076,-396"/>
<text text-anchor="middle" x="1027" y="-374.3" font-family="Times,serif" font-size="14.00" fill="#ffffff">hasConvention</text>
</a>
</g>
</g>
<!-- hasConvention&#45;&gt;hasSign -->
<g id="edge25" class="edge">
<title>hasConvention&#45;&gt;hasSign</title>
<path fill="none" stroke="#000000" d="M1027,-396.1686C1027,-403.869 1027,-413.0257 1027,-421.5834"/>
<polygon fill="none" stroke="#000000" points="1023.5001,-421.5867 1027,-431.5867 1030.5001,-421.5868 1023.5001,-421.5867"/>
</g>
<!-- hasSpatialPart&#45;&gt;hasProperPart -->
<g id="edge20" class="edge">
<title>hasSpatialPart&#45;&gt;hasProperPart</title>
<path fill="none" stroke="#000000" d="M187.0474,-173.9414C195.6639,-176.0314 204.5898,-178.1324 213,-180 287.8168,-196.614 374.7333,-213.372 430.0289,-223.7166"/>
<polygon fill="none" stroke="#000000" points="429.5035,-227.1789 439.9757,-225.572 430.7871,-220.2976 429.5035,-227.1789"/>
</g>
<!-- hasParticipant&#45;&gt;hasPart -->
<g id="edge21" class="edge">
<title>hasParticipant&#45;&gt;hasPart</title>
<path fill="none" stroke="#000000" d="M636.925,-252.1686C633.3898,-260.1229 629.164,-269.631 625.2544,-278.4277"/>
<polygon fill="none" stroke="#000000" points="622.0468,-277.0271 621.1837,-287.5867 628.4435,-279.8701 622.0468,-277.0271"/>
</g>
<!-- disconnected -->
<g id="node23" class="node">
<title>disconnected</title>
<g id="a_node23"><a xlink:href="http://emmo.info/emmo/top/mereotopology#EMMO_517dfaf9_4970_41ac_81ee_d031627d2c7c" xlink:title="disconnected">
<polygon fill="#0079ba" stroke="#000000" points="875.5,-468 788.5,-468 788.5,-432 875.5,-432 875.5,-468"/>
<text text-anchor="middle" x="832" y="-446.3" font-family="Times,serif" font-size="14.00" fill="#ffffff">disconnected</text>
</a>
</g>
</g>
<!-- disconnected&#45;&gt;mereotopological -->
<g id="edge6" class="edge">
<title>disconnected&#45;&gt;mereotopological</title>
<path fill="none" stroke="#000000" d="M832,-468.1686C832,-475.869 832,-485.0257 832,-493.5834"/>
<polygon fill="none" stroke="#000000" points="828.5001,-493.5867 832,-503.5867 835.5001,-493.5868 828.5001,-493.5867"/>
</g>
<!-- hasSpatioTemporalPart&#45;&gt;hasProperPart -->
<g id="edge3" class="edge">
<title>hasSpatioTemporalPart&#45;&gt;hasProperPart</title>
<path fill="none" stroke="#000000" d="M438.1499,-180.1686C445.6717,-188.6306 454.7565,-198.8511 462.9804,-208.1029"/>
<polygon fill="none" stroke="#000000" points="460.373,-210.4379 469.6327,-215.5867 465.6049,-205.7873 460.373,-210.4379"/>
</g>
<!-- hasProperty&#45;&gt;hasConvention -->
<g id="edge10" class="edge">
<title>hasProperty&#45;&gt;hasConvention</title>
<path fill="none" stroke="#000000" d="M1025.5047,-324.1686C1025.7186,-331.869 1025.9729,-341.0257 1026.2106,-349.5834"/>
<polygon fill="none" stroke="#000000" points="1022.7121,-349.6878 1026.4885,-359.5867 1029.7094,-349.4934 1022.7121,-349.6878"/>
</g>
<!-- hasIndex -->
<g id="node26" class="node">
<title>hasIndex</title>
<g id="a_node26"><a xlink:href="http://emmo.info/emmo/top/semiotics#EMMO_297999d6_c9e4_4262_9536_bd524d1c6e21" xlink:title="hasIndex">
<polygon fill="#0079ba" stroke="#000000" points="1159.5,-396 1094.5,-396 1094.5,-360 1159.5,-360 1159.5,-396"/>
<text text-anchor="middle" x="1127" y="-374.3" font-family="Times,serif" font-size="14.00" fill="#ffffff">hasIndex</text>
</a>
</g>
</g>
<!-- hasIndex&#45;&gt;hasSign -->
<g id="edge26" class="edge">
<title>hasIndex&#45;&gt;hasSign</title>
<path fill="none" stroke="#000000" d="M1101.7658,-396.1686C1089.212,-405.2073 1073.8717,-416.2524 1060.3609,-425.9802"/>
<polygon fill="none" stroke="#000000" points="1058.2964,-423.1537 1052.2261,-431.8372 1062.3866,-428.8345 1058.2964,-423.1537"/>
</g>
<!-- hasMember -->
<g id="node27" class="node">
<title>hasMember</title>
<g id="a_node27"><a xlink:href="http://emmo.info/emmo/top/mereotopology#EMMO_6b7276a4_4b9d_440a_b577_0277539c0fc4" xlink:title="hasMember">
<polygon fill="#0079ba" stroke="#000000" points="594,-180 512,-180 512,-144 594,-144 594,-180"/>
<text text-anchor="middle" x="553" y="-158.3" font-family="Times,serif" font-size="14.00" fill="#ffffff">hasMember</text>
</a>
</g>
</g>
<!-- hasMember&#45;&gt;hasProperPart -->
<g id="edge1" class="edge">
<title>hasMember&#45;&gt;hasProperPart</title>
<path fill="none" stroke="#000000" d="M536.0931,-180.1686C528.2187,-188.6306 518.708,-198.8511 510.0987,-208.1029"/>
<polygon fill="none" stroke="#000000" points="507.3847,-205.8817 503.1346,-215.5867 512.5092,-210.6503 507.3847,-205.8817"/>
</g>
<!-- hasVariable -->
<g id="node28" class="node">
<title>hasVariable</title>
<g id="a_node28"><a xlink:href="http://emmo.info/emmo/middle/math#EMMO_3446e167_c576_49d6_846c_215bb8878a55" xlink:title="hasVariable">
<polygon fill="#0079ba" stroke="#000000" points="1164.5,-324 1083.5,-324 1083.5,-288 1164.5,-288 1164.5,-324"/>
<text text-anchor="middle" x="1124" y="-302.3" font-family="Times,serif" font-size="14.00" fill="#ffffff">hasVariable</text>
</a>
</g>
</g>
<!-- hasVariable&#45;&gt;hasConvention -->
<g id="edge15" class="edge">
<title>hasVariable&#45;&gt;hasConvention</title>
<path fill="none" stroke="#000000" d="M1099.5228,-324.1686C1087.4605,-333.1221 1072.746,-344.0442 1059.7314,-353.7045"/>
<polygon fill="none" stroke="#000000" points="1057.413,-351.0665 1051.4694,-359.8372 1061.5852,-356.6873 1057.413,-351.0665"/>
</g>
<!-- hasInterpretant -->
<g id="node29" class="node">
<title>hasInterpretant</title>
<g id="a_node29"><a xlink:href="http://emmo.info/emmo/top/semiotics#EMMO_7fb7fe7e_bdf9_4eeb_adad_e384dd5285c6" xlink:title="hasInterpretant">
<polygon fill="#0079ba" stroke="#000000" points="1276,-396 1178,-396 1178,-360 1276,-360 1276,-396"/>
<text text-anchor="middle" x="1227" y="-374.3" font-family="Times,serif" font-size="14.00" fill="#ffffff">hasInterpretant</text>
</a>
</g>
</g>
<!-- hasInterpretant&#45;&gt;hasSign -->
<g id="edge9" class="edge">
<title>hasInterpretant&#45;&gt;hasSign</title>
<path fill="none" stroke="#000000" d="M1177.8183,-395.7054C1143.4383,-408.0822 1098.1436,-424.3883 1066.1957,-435.8896"/>
<polygon fill="none" stroke="#000000" points="1064.9595,-432.6146 1056.7362,-439.295 1067.3306,-439.2008 1064.9595,-432.6146"/>
</g>
<!-- hasTemporalDirectPart -->
<g id="node31" class="node">
<title>hasTemporalDirectPart</title>
<g id="a_node31"><a xlink:href="http://emmo.info/emmo/middle/reductionistic#EMMO_65a2c5b8_e4d8_4a51_b2f8_e55effc0547d" xlink:title="hasTemporalDirectPart">
<polygon fill="#0079ba" stroke="#000000" points="348.5,-108 205.5,-108 205.5,-72 348.5,-72 348.5,-108"/>
<text text-anchor="middle" x="277" y="-86.3" font-family="Times,serif" font-size="14.00" fill="#ffffff">hasTemporalDirectPart</text>
</a>
</g>
</g>
<!-- hasTemporalDirectPart&#45;&gt;hasTemporalPart -->
<g id="edge5" class="edge">
<title>hasTemporalDirectPart&#45;&gt;hasTemporalPart</title>
<path fill="none" stroke="#000000" d="M277,-108.1686C277,-115.869 277,-125.0257 277,-133.5834"/>
<polygon fill="none" stroke="#000000" points="273.5001,-133.5867 277,-143.5867 280.5001,-133.5868 273.5001,-133.5867"/>
</g>
<!-- key1 -->
<g id="node32" class="node">
<title>key1</title>
<text text-anchor="start" x="282" y="-13.8" font-family="Times,serif" font-size="14.00" fill="#000000">isA</text>
</g>
<!-- key2 -->
<g id="node33" class="node">
<title>key2</title>
<text text-anchor="start" x="361" y="-13.8" font-family="Times,serif" font-size="14.00" fill="#000000"> </text>
</g>
<!-- key1&#45;&gt;key2 -->
<g id="edge33" class="edge">
<title>key1:e&#45;&gt;key2:w</title>
<path fill="none" stroke="#000000" d="M303,-19C324,-19 331.7109,-19 348.5581,-19"/>
<polygon fill="none" stroke="#000000" points="349,-22.5001 359,-19 349,-15.5001 349,-22.5001"/>
</g>
</g>
</svg>
