<?xml version="1.0" encoding="UTF-8" standalone="no"?>
<!DOCTYPE svg PUBLIC "-//W3C//DTD SVG 1.1//EN"
 "http://www.w3.org/Graphics/SVG/1.1/DTD/svg11.dtd">
<!-- Generated by graphviz version 2.40.1 (20161225.0304)
 -->
<!-- Title: %3 Pages: 1 -->
<svg width="1103pt" height="620pt"
 viewBox="0.00 0.00 1103.00 620.00" xmlns="http://www.w3.org/2000/svg" xmlns:xlink="http://www.w3.org/1999/xlink">
<g id="graph0" class="graph" transform="scale(1 1) rotate(0) translate(4 616)">
<title>%3</title>
<polygon fill="#ffffff" stroke="transparent" points="-4,4 -4,-616 1099,-616 1099,4 -4,4"/>
<!-- hasInterpretant -->
<g id="node1" class="node">
<title>hasInterpretant</title>
<g id="a_node1"><a xlink:href="http://emmo.info/emmo/top/semiotics#EMMO_7fb7fe7e_bdf9_4eeb_adad_e384dd5285c6" xlink:title="hasInterpretant">
<polygon fill="#0079ba" stroke="#000000" points="98,-396 0,-396 0,-360 98,-360 98,-396"/>
<text text-anchor="middle" x="49" y="-374.3" font-family="Times,serif" font-size="14.00" fill="#ffffff">hasInterpretant</text>
</a>
</g>
</g>
<!-- hasSign -->
<g id="node29" class="node">
<title>hasSign</title>
<g id="a_node29"><a xlink:href="http://emmo.info/emmo/top/semiotics#EMMO_60577dea_9019_4537_ac41_80b0fb563d41" xlink:title="hasSign">
<polygon fill="#0079ba" stroke="#000000" points="294.5,-468 235.5,-468 235.5,-432 294.5,-432 294.5,-468"/>
<text text-anchor="middle" x="265" y="-446.3" font-family="Times,serif" font-size="14.00" fill="#ffffff">hasSign</text>
</a>
</g>
</g>
<!-- hasInterpretant&#45;&gt;hasSign -->
<g id="edge5" class="edge">
<title>hasInterpretant&#45;&gt;hasSign</title>
<path fill="none" stroke="#000000" d="M98.0137,-394.3379C136.6969,-407.2323 189.944,-424.9813 225.822,-436.9407"/>
<polygon fill="none" stroke="#000000" points="224.8606,-440.3095 235.4543,-440.1514 227.0743,-433.6687 224.8606,-440.3095"/>
</g>
<!-- hasProperPart -->
<g id="node2" class="node">
<title>hasProperPart</title>
<g id="a_node2"><a xlink:href="http://emmo.info/emmo/top/mereotopology#EMMO_9380ab64_0363_4804_b13f_3a8a94119a76" xlink:title="hasProperPart">
<polygon fill="#0079ba" stroke="#000000" points="582,-252 490,-252 490,-216 582,-216 582,-252"/>
<text text-anchor="middle" x="536" y="-230.3" font-family="Times,serif" font-size="14.00" fill="#ffffff">hasProperPart</text>
</a>
</g>
</g>
<!-- hasPart -->
<g id="node13" class="node">
<title>hasPart</title>
<g id="a_node13"><a xlink:href="http://emmo.info/emmo/top/mereotopology#EMMO_17e27c22_37e1_468c_9dd7_95e137f73e7f" xlink:title="hasPart">
<polygon fill="#0079ba" stroke="#000000" points="510,-324 454,-324 454,-288 510,-288 510,-324"/>
<text text-anchor="middle" x="482" y="-302.3" font-family="Times,serif" font-size="14.00" fill="#ffffff">hasPart</text>
</a>
</g>
</g>
<!-- hasProperPart&#45;&gt;hasPart -->
<g id="edge24" class="edge">
<title>hasProperPart&#45;&gt;hasPart</title>
<path fill="none" stroke="#000000" d="M522.3735,-252.1686C516.154,-260.4614 508.6678,-270.443 501.84,-279.5467"/>
<polygon fill="none" stroke="#000000" points="499.01,-277.4867 495.81,-287.5867 504.61,-281.6867 499.01,-277.4867"/>
</g>
<!-- hasProperty -->
<g id="node3" class="node">
<title>hasProperty</title>
<g id="a_node3"><a xlink:href="http://emmo.info/emmo/middle/properties#EMMO_e1097637_70d2_4895_973f_2396f04fa204" xlink:title="hasProperty">
<polygon fill="#0079ba" stroke="#000000" points="257.5,-324 176.5,-324 176.5,-288 257.5,-288 257.5,-324"/>
<text text-anchor="middle" x="217" y="-302.3" font-family="Times,serif" font-size="14.00" fill="#ffffff">hasProperty</text>
</a>
</g>
</g>
<!-- hasConvention -->
<g id="node18" class="node">
<title>hasConvention</title>
<g id="a_node18"><a xlink:href="http://emmo.info/emmo/top/semiotics#EMMO_eb3518bf_f799_4f9e_8c3e_ce59af11453b" xlink:title="hasConvention">
<polygon fill="#0079ba" stroke="#000000" points="214,-396 116,-396 116,-360 214,-360 214,-396"/>
<text text-anchor="middle" x="165" y="-374.3" font-family="Times,serif" font-size="14.00" fill="#ffffff">hasConvention</text>
</a>
</g>
</g>
<!-- hasProperty&#45;&gt;hasConvention -->
<g id="edge9" class="edge">
<title>hasProperty&#45;&gt;hasConvention</title>
<path fill="none" stroke="#000000" d="M203.8782,-324.1686C197.9501,-332.3768 190.8271,-342.2394 184.3067,-351.2677"/>
<polygon fill="none" stroke="#000000" points="181.316,-349.4307 178.2985,-359.5867 186.9908,-353.5292 181.316,-349.4307"/>
</g>
<!-- hasModel -->
<g id="node4" class="node">
<title>hasModel</title>
<g id="a_node4"><a xlink:href="http://emmo.info/emmo/middle/models#EMMO_24c71baf_6db6_48b9_86c8_8c70cf36db0c" xlink:title="hasModel">
<polygon fill="#0079ba" stroke="#000000" points="380.5,-324 309.5,-324 309.5,-288 380.5,-288 380.5,-324"/>
<text text-anchor="middle" x="345" y="-302.3" font-family="Times,serif" font-size="14.00" fill="#ffffff">hasModel</text>
</a>
</g>
</g>
<!-- hasIcon -->
<g id="node26" class="node">
<title>hasIcon</title>
<g id="a_node26"><a xlink:href="http://emmo.info/emmo/top/semiotics#EMMO_39c3815d_8cae_4c8f_b2ff_eeba24bec455" xlink:title="hasIcon">
<polygon fill="#0079ba" stroke="#000000" points="374.5,-396 315.5,-396 315.5,-360 374.5,-360 374.5,-396"/>
<text text-anchor="middle" x="345" y="-374.3" font-family="Times,serif" font-size="14.00" fill="#ffffff">hasIcon</text>
</a>
</g>
</g>
<!-- hasModel&#45;&gt;hasIcon -->
<g id="edge32" class="edge">
<title>hasModel&#45;&gt;hasIcon</title>
<path fill="none" stroke="#000000" d="M345,-324.1686C345,-331.869 345,-341.0257 345,-349.5834"/>
<polygon fill="none" stroke="#000000" points="341.5001,-349.5867 345,-359.5867 348.5001,-349.5868 341.5001,-349.5867"/>
</g>
<!-- hasQuantityValue -->
<g id="node5" class="node">
<title>hasQuantityValue</title>
<g id="a_node5"><a xlink:href="http://emmo.info/emmo/middle/metrology#EMMO_8ef3cd6d_ae58_4a8d_9fc0_ad8f49015cd0" xlink:title="hasQuantityValue">
<polygon fill="#0079ba" stroke="#000000" points="819,-36 705,-36 705,0 819,0 819,-36"/>
<text text-anchor="middle" x="762" y="-14.3" font-family="Times,serif" font-size="14.00" fill="#ffffff">hasQuantityValue</text>
</a>
</g>
</g>
<!-- hasSpatialDirectPart -->
<g id="node23" class="node">
<title>hasSpatialDirectPart</title>
<g id="a_node23"><a xlink:href="http://emmo.info/emmo/middle/reductionistic#EMMO_b2282816_b7a3_44c6_b2cb_3feff1ceb7fe" xlink:title="hasSpatialDirectPart">
<polygon fill="#0079ba" stroke="#000000" points="892,-108 764,-108 764,-72 892,-72 892,-108"/>
<text text-anchor="middle" x="828" y="-86.3" font-family="Times,serif" font-size="14.00" fill="#ffffff">hasSpatialDirectPart</text>
</a>
</g>
</g>
<!-- hasQuantityValue&#45;&gt;hasSpatialDirectPart -->
<g id="edge2" class="edge">
<title>hasQuantityValue&#45;&gt;hasSpatialDirectPart</title>
<path fill="none" stroke="#000000" d="M778.6546,-36.1686C786.4114,-44.6306 795.7802,-54.8511 804.261,-64.1029"/>
<polygon fill="none" stroke="#000000" points="801.7838,-66.5802 811.1212,-71.5867 806.9439,-61.8501 801.7838,-66.5802"/>
</g>
<!-- encloses -->
<g id="node6" class="node">
<title>encloses</title>
<g id="a_node6"><a xlink:href="http://emmo.info/emmo/top/mereotopology#EMMO_8c898653_1118_4682_9bbf_6cc334d16a99" xlink:title="encloses">
<polygon fill="#0079ba" stroke="#000000" points="455,-396 393,-396 393,-360 455,-360 455,-396"/>
<text text-anchor="middle" x="424" y="-374.3" font-family="Times,serif" font-size="14.00" fill="#ffffff">encloses</text>
</a>
</g>
</g>
<!-- connected -->
<g id="node12" class="node">
<title>connected</title>
<g id="a_node12"><a xlink:href="http://emmo.info/emmo/top/mereotopology#EMMO_6703954e_34c4_4a15_a9e7_f313760ae1a8" xlink:title="connected">
<polygon fill="#0079ba" stroke="#000000" points="553.5,-468 482.5,-468 482.5,-432 553.5,-432 553.5,-468"/>
<text text-anchor="middle" x="518" y="-446.3" font-family="Times,serif" font-size="14.00" fill="#ffffff">connected</text>
</a>
</g>
</g>
<!-- encloses&#45;&gt;connected -->
<g id="edge29" class="edge">
<title>encloses&#45;&gt;connected</title>
<path fill="none" stroke="#000000" d="M447.7202,-396.1686C459.4094,-405.1221 473.6688,-416.0442 486.2809,-425.7045"/>
<polygon fill="none" stroke="#000000" points="484.2203,-428.5349 494.2874,-431.8372 488.4769,-422.9778 484.2203,-428.5349"/>
</g>
<!-- hasPhysicsDimension -->
<g id="node7" class="node">
<title>hasPhysicsDimension</title>
<g id="a_node7"><a xlink:href="http://emmo.info/emmo/middle/metrology#EMMO_bed1d005_b04e_4a90_94cf_02bc678a8569" xlink:title="hasPhysicsDimension">
<polygon fill="#0079ba" stroke="#000000" points="285,-252 149,-252 149,-216 285,-216 285,-252"/>
<text text-anchor="middle" x="217" y="-230.3" font-family="Times,serif" font-size="14.00" fill="#ffffff">hasPhysicsDimension</text>
</a>
</g>
</g>
<!-- hasPhysicsDimension&#45;&gt;hasProperty -->
<g id="edge21" class="edge">
<title>hasPhysicsDimension&#45;&gt;hasProperty</title>
<path fill="none" stroke="#000000" d="M217,-252.1686C217,-259.869 217,-269.0257 217,-277.5834"/>
<polygon fill="none" stroke="#000000" points="213.5001,-277.5867 217,-287.5867 220.5001,-277.5868 213.5001,-277.5867"/>
</g>
<!-- hasSpatioTemporalDirectPart -->
<g id="node8" class="node">
<title>hasSpatioTemporalDirectPart</title>
<g id="a_node8"><a xlink:href="http://emmo.info/emmo/middle/reductionistic#EMMO_663859e5_add3_4c9e_96fb_c99399de278d" xlink:title="hasSpatioTemporalDirectPart">
<polygon fill="#0079ba" stroke="#000000" points="535,-108 357,-108 357,-72 535,-72 535,-108"/>
<text text-anchor="middle" x="446" y="-86.3" font-family="Times,serif" font-size="14.00" fill="#ffffff">hasSpatioTemporalDirectPart</text>
</a>
</g>
</g>
<!-- hasSpatioTemporalPart -->
<g id="node15" class="node">
<title>hasSpatioTemporalPart</title>
<g id="a_node15"><a xlink:href="http://emmo.info/emmo/top/physical#EMMO_6e046dd0_9634_4013_b2b1_9cc468087c83" xlink:title="hasSpatioTemporalPart">
<polygon fill="#0079ba" stroke="#000000" points="535,-180 391,-180 391,-144 535,-144 535,-180"/>
<text text-anchor="middle" x="463" y="-158.3" font-family="Times,serif" font-size="14.00" fill="#ffffff">hasSpatioTemporalPart</text>
</a>
</g>
</g>
<!-- hasSpatioTemporalDirectPart&#45;&gt;hasSpatioTemporalPart -->
<g id="edge3" class="edge">
<title>hasSpatioTemporalDirectPart&#45;&gt;hasSpatioTemporalPart</title>
<path fill="none" stroke="#000000" d="M450.2898,-108.1686C452.108,-115.869 454.2699,-125.0257 456.2905,-133.5834"/>
<polygon fill="none" stroke="#000000" points="452.9481,-134.6586 458.6524,-143.5867 459.7608,-133.05 452.9481,-134.6586"/>
</g>
<!-- overcrosses -->
<g id="node9" class="node">
<title>overcrosses</title>
<g id="a_node9"><a xlink:href="http://emmo.info/emmo/top/mereotopology#EMMO_9cb984ca_48ad_4864_b09e_50d3fff19420" xlink:title="overcrosses">
<polygon fill="#0079ba" stroke="#000000" points="688,-324 608,-324 608,-288 688,-288 688,-324"/>
<text text-anchor="middle" x="648" y="-302.3" font-family="Times,serif" font-size="14.00" fill="#ffffff">overcrosses</text>
</a>
</g>
</g>
<!-- hasOverlapWith -->
<g id="node19" class="node">
<title>hasOverlapWith</title>
<g id="a_node19"><a xlink:href="http://emmo.info/emmo/top/mereotopology#EMMO_d893d373_b579_4867_841e_1c2b31a8d2c6" xlink:title="hasOverlapWith">
<polygon fill="#0079ba" stroke="#000000" points="701,-396 595,-396 595,-360 701,-360 701,-396"/>
<text text-anchor="middle" x="648" y="-374.3" font-family="Times,serif" font-size="14.00" fill="#ffffff">hasOverlapWith</text>
</a>
</g>
</g>
<!-- overcrosses&#45;&gt;hasOverlapWith -->
<g id="edge25" class="edge">
<title>overcrosses&#45;&gt;hasOverlapWith</title>
<path fill="none" stroke="#000000" d="M648,-324.1686C648,-331.869 648,-341.0257 648,-349.5834"/>
<polygon fill="none" stroke="#000000" points="644.5001,-349.5867 648,-359.5867 651.5001,-349.5868 644.5001,-349.5867"/>
</g>
<!-- mereotopological -->
<g id="node10" class="node">
<title>mereotopological</title>
<g id="a_node10"><a xlink:href="http://emmo.info/emmo/top/mereotopology#EMMO_03212fd7_abfd_4828_9c8e_62c293052d4b" xlink:title="mereotopological">
<polygon fill="#0079ba" stroke="#000000" points="471,-540 359,-540 359,-504 471,-504 471,-540"/>
<text text-anchor="middle" x="415" y="-518.3" font-family="Times,serif" font-size="14.00" fill="#ffffff">mereotopological</text>
</a>
</g>
</g>
<!-- EMMORelation -->
<g id="node17" class="node">
<title>EMMORelation</title>
<g id="a_node17"><a xlink:href="http://emmo.info/emmo/top/mereotopology#EMMO_ec2472ae_cf4a_46a5_8555_1556f5a6c3c5" xlink:title="EMMORelation">
<polygon fill="#0079ba" stroke="#000000" stroke-width="2" points="399,-612 293,-612 293,-576 399,-576 399,-612"/>
<text text-anchor="middle" x="346" y="-590.3" font-family="Times,serif" font-size="14.00" fill="#ffffff">EMMORelation</text>
</a>
</g>
</g>
<!-- mereotopological&#45;&gt;EMMORelation -->
<g id="edge14" class="edge">
<title>mereotopological&#45;&gt;EMMORelation</title>
<path fill="none" stroke="#000000" d="M397.5884,-540.1686C389.479,-548.6306 379.6844,-558.8511 370.818,-568.1029"/>
<polygon fill="none" stroke="#000000" points="368.0382,-565.9451 363.646,-575.5867 373.0921,-570.7885 368.0382,-565.9451"/>
</g>
<!-- hasSpatialPart -->
<g id="node11" class="node">
<title>hasSpatialPart</title>
<g id="a_node11"><a xlink:href="http://emmo.info/emmo/top/physical#EMMO_f68030be_94b8_4c61_a161_886468558054" xlink:title="hasSpatialPart">
<polygon fill="#0079ba" stroke="#000000" points="875,-180 781,-180 781,-144 875,-144 875,-180"/>
<text text-anchor="middle" x="828" y="-158.3" font-family="Times,serif" font-size="14.00" fill="#ffffff">hasSpatialPart</text>
</a>
</g>
</g>
<!-- hasSpatialPart&#45;&gt;hasProperPart -->
<g id="edge23" class="edge">
<title>hasSpatialPart&#45;&gt;hasProperPart</title>
<path fill="none" stroke="#000000" d="M780.7294,-177.5098C777.7832,-178.3784 774.8558,-179.2159 772,-180 711.0784,-196.7275 640.3383,-212.4279 592.3113,-222.5407"/>
<polygon fill="none" stroke="#000000" points="591.4896,-219.1368 582.4193,-224.6123 592.9244,-225.9882 591.4896,-219.1368"/>
</g>
<!-- connected&#45;&gt;mereotopological -->
<g id="edge6" class="edge">
<title>connected&#45;&gt;mereotopological</title>
<path fill="none" stroke="#000000" d="M492.0088,-468.1686C479.0784,-477.2073 463.2778,-488.2524 449.3617,-497.9802"/>
<polygon fill="none" stroke="#000000" points="447.1737,-495.2392 440.9829,-503.8372 451.1843,-500.9765 447.1737,-495.2392"/>
</g>
<!-- hasPart&#45;&gt;encloses -->
<g id="edge30" class="edge">
<title>hasPart&#45;&gt;encloses</title>
<path fill="none" stroke="#000000" d="M467.3642,-324.1686C460.6839,-332.4614 452.6432,-342.443 445.3096,-351.5467"/>
<polygon fill="none" stroke="#000000" points="442.3806,-349.6035 438.8329,-359.5867 447.8319,-353.9948 442.3806,-349.6035"/>
</g>
<!-- hasPart&#45;&gt;hasOverlapWith -->
<g id="edge31" class="edge">
<title>hasPart&#45;&gt;hasOverlapWith</title>
<path fill="none" stroke="#000000" d="M510.1596,-318.2138C533.845,-328.487 568.3147,-343.4377 596.8583,-355.8181"/>
<polygon fill="none" stroke="#000000" points="595.72,-359.1393 606.287,-359.9076 598.5055,-352.7174 595.72,-359.1393"/>
</g>
<!-- hasTemporalDirectPart -->
<g id="node14" class="node">
<title>hasTemporalDirectPart</title>
<g id="a_node14"><a xlink:href="http://emmo.info/emmo/middle/reductionistic#EMMO_65a2c5b8_e4d8_4a51_b2f8_e55effc0547d" xlink:title="hasTemporalDirectPart">
<polygon fill="#0079ba" stroke="#000000" points="696.5,-108 553.5,-108 553.5,-72 696.5,-72 696.5,-108"/>
<text text-anchor="middle" x="625" y="-86.3" font-family="Times,serif" font-size="14.00" fill="#ffffff">hasTemporalDirectPart</text>
</a>
</g>
</g>
<!-- hasTemporalPart -->
<g id="node16" class="node">
<title>hasTemporalPart</title>
<g id="a_node16"><a xlink:href="http://emmo.info/emmo/top/physical#EMMO_7afbed84_7593_4a23_bd88_9d9c6b04e8f6" xlink:title="hasTemporalPart">
<polygon fill="#0079ba" stroke="#000000" points="663,-180 553,-180 553,-144 663,-144 663,-180"/>
<text text-anchor="middle" x="608" y="-158.3" font-family="Times,serif" font-size="14.00" fill="#ffffff">hasTemporalPart</text>
</a>
</g>
</g>
<!-- hasTemporalDirectPart&#45;&gt;hasTemporalPart -->
<g id="edge28" class="edge">
<title>hasTemporalDirectPart&#45;&gt;hasTemporalPart</title>
<path fill="none" stroke="#000000" d="M620.7102,-108.1686C618.892,-115.869 616.7301,-125.0257 614.7095,-133.5834"/>
<polygon fill="none" stroke="#000000" points="611.2392,-133.05 612.3476,-143.5867 618.0519,-134.6586 611.2392,-133.05"/>
</g>
<!-- hasSpatioTemporalPart&#45;&gt;hasProperPart -->
<g id="edge27" class="edge">
<title>hasSpatioTemporalPart&#45;&gt;hasProperPart</title>
<path fill="none" stroke="#000000" d="M481.421,-180.1686C490.1529,-188.781 500.7317,-199.2149 510.2423,-208.5952"/>
<polygon fill="none" stroke="#000000" points="508.0075,-211.3069 517.5849,-215.8372 512.923,-206.3231 508.0075,-211.3069"/>
</g>
<!-- hasTemporalPart&#45;&gt;hasProperPart -->
<g id="edge17" class="edge">
<title>hasTemporalPart&#45;&gt;hasProperPart</title>
<path fill="none" stroke="#000000" d="M589.8314,-180.1686C581.2848,-188.7152 570.9443,-199.0557 561.6198,-208.3802"/>
<polygon fill="none" stroke="#000000" points="559.0095,-206.0408 554.4133,-215.5867 563.9592,-210.9905 559.0095,-206.0408"/>
</g>
<!-- hasConvention&#45;&gt;hasSign -->
<g id="edge1" class="edge">
<title>hasConvention&#45;&gt;hasSign</title>
<path fill="none" stroke="#000000" d="M190.2342,-396.1686C202.788,-405.2073 218.1283,-416.2524 231.6391,-425.9802"/>
<polygon fill="none" stroke="#000000" points="229.6134,-428.8345 239.7739,-431.8372 233.7036,-423.1537 229.6134,-428.8345"/>
</g>
<!-- hasOverlapWith&#45;&gt;connected -->
<g id="edge8" class="edge">
<title>hasOverlapWith&#45;&gt;connected</title>
<path fill="none" stroke="#000000" d="M615.1955,-396.1686C598.4138,-405.4632 577.8015,-416.8792 559.8837,-426.8029"/>
<polygon fill="none" stroke="#000000" points="557.8462,-423.9304 550.794,-431.8372 561.2377,-430.0539 557.8462,-423.9304"/>
</g>
<!-- semiotical -->
<g id="node20" class="node">
<title>semiotical</title>
<g id="a_node20"><a xlink:href="http://emmo.info/emmo/top/semiotics#EMMO_2337e25c_3c60_43fc_a8f9_b11a3f974291" xlink:title="semiotical">
<polygon fill="#0079ba" stroke="#000000" points="327.5,-540 254.5,-540 254.5,-504 327.5,-504 327.5,-540"/>
<text text-anchor="middle" x="291" y="-518.3" font-family="Times,serif" font-size="14.00" fill="#ffffff">semiotical</text>
</a>
</g>
</g>
<!-- semiotical&#45;&gt;EMMORelation -->
<g id="edge26" class="edge">
<title>semiotical&#45;&gt;EMMORelation</title>
<path fill="none" stroke="#000000" d="M304.8788,-540.1686C311.2136,-548.4614 318.8384,-558.443 325.7926,-567.5467"/>
<polygon fill="none" stroke="#000000" points="323.0825,-569.7647 331.9343,-575.5867 328.6452,-565.5153 323.0825,-569.7647"/>
</g>
<!-- hasContactWith -->
<g id="node21" class="node">
<title>hasContactWith</title>
<g id="a_node21"><a xlink:href="http://emmo.info/emmo/top/mereotopology#EMMO_4d6504f1_c470_4ce9_b941_bbbebc9ab05d" xlink:title="hasContactWith">
<polygon fill="#0079ba" stroke="#000000" points="577,-396 473,-396 473,-360 577,-360 577,-396"/>
<text text-anchor="middle" x="525" y="-374.3" font-family="Times,serif" font-size="14.00" fill="#ffffff">hasContactWith</text>
</a>
</g>
</g>
<!-- hasContactWith&#45;&gt;connected -->
<g id="edge13" class="edge">
<title>hasContactWith&#45;&gt;connected</title>
<path fill="none" stroke="#000000" d="M523.2336,-396.1686C522.485,-403.869 521.5947,-413.0257 520.7627,-421.5834"/>
<polygon fill="none" stroke="#000000" points="517.2744,-421.2949 519.7902,-431.5867 524.2415,-421.9724 517.2744,-421.2949"/>
</g>
<!-- hasMember -->
<g id="node22" class="node">
<title>hasMember</title>
<g id="a_node22"><a xlink:href="http://emmo.info/emmo/top/mereotopology#EMMO_6b7276a4_4b9d_440a_b577_0277539c0fc4" xlink:title="hasMember">
<polygon fill="#0079ba" stroke="#000000" points="763,-180 681,-180 681,-144 763,-144 763,-180"/>
<text text-anchor="middle" x="722" y="-158.3" font-family="Times,serif" font-size="14.00" fill="#ffffff">hasMember</text>
</a>
</g>
</g>
<!-- hasMember&#45;&gt;hasProperPart -->
<g id="edge7" class="edge">
<title>hasMember&#45;&gt;hasProperPart</title>
<path fill="none" stroke="#000000" d="M680.7206,-177.9791C654.47,-188.1406 620.1584,-201.4226 591.5332,-212.5033"/>
<polygon fill="none" stroke="#000000" points="590.1256,-209.295 582.0634,-216.169 592.6526,-215.823 590.1256,-209.295"/>
</g>
<!-- hasSpatialDirectPart&#45;&gt;hasSpatialPart -->
<g id="edge22" class="edge">
<title>hasSpatialDirectPart&#45;&gt;hasSpatialPart</title>
<path fill="none" stroke="#000000" d="M828,-108.1686C828,-115.869 828,-125.0257 828,-133.5834"/>
<polygon fill="none" stroke="#000000" points="824.5001,-133.5867 828,-143.5867 831.5001,-133.5868 824.5001,-133.5867"/>
</g>
<!-- hasReferenceUnit -->
<g id="node24" class="node">
<title>hasReferenceUnit</title>
<g id="a_node24"><a xlink:href="http://emmo.info/emmo/middle/metrology#EMMO_67fc0a36_8dcb_4ffa_9a43_31074efa3296" xlink:title="hasReferenceUnit">
<polygon fill="#0079ba" stroke="#000000" points="950.5,-36 837.5,-36 837.5,0 950.5,0 950.5,-36"/>
<text text-anchor="middle" x="894" y="-14.3" font-family="Times,serif" font-size="14.00" fill="#ffffff">hasReferenceUnit</text>
</a>
</g>
</g>
<!-- hasReferenceUnit&#45;&gt;hasSpatialDirectPart -->
<g id="edge11" class="edge">
<title>hasReferenceUnit&#45;&gt;hasSpatialDirectPart</title>
<path fill="none" stroke="#000000" d="M877.3454,-36.1686C869.5886,-44.6306 860.2198,-54.8511 851.739,-64.1029"/>
<polygon fill="none" stroke="#000000" points="849.0561,-61.8501 844.8788,-71.5867 854.2162,-66.5802 849.0561,-61.8501"/>
</g>
<!-- hasIndex -->
<g id="node25" class="node">
<title>hasIndex</title>
<g id="a_node25"><a xlink:href="http://emmo.info/emmo/top/semiotics#EMMO_297999d6_c9e4_4262_9536_bd524d1c6e21" xlink:title="hasIndex">
<polygon fill="#0079ba" stroke="#000000" points="297.5,-396 232.5,-396 232.5,-360 297.5,-360 297.5,-396"/>
<text text-anchor="middle" x="265" y="-374.3" font-family="Times,serif" font-size="14.00" fill="#ffffff">hasIndex</text>
</a>
</g>
</g>
<!-- hasIndex&#45;&gt;hasSign -->
<g id="edge18" class="edge">
<title>hasIndex&#45;&gt;hasSign</title>
<path fill="none" stroke="#000000" d="M265,-396.1686C265,-403.869 265,-413.0257 265,-421.5834"/>
<polygon fill="none" stroke="#000000" points="261.5001,-421.5867 265,-431.5867 268.5001,-421.5868 261.5001,-421.5867"/>
</g>
<!-- hasIcon&#45;&gt;hasSign -->
<g id="edge10" class="edge">
<title>hasIcon&#45;&gt;hasSign</title>
<path fill="none" stroke="#000000" d="M324.8126,-396.1686C315.1486,-404.8663 303.4204,-415.4217 292.9184,-424.8735"/>
<polygon fill="none" stroke="#000000" points="290.2725,-422.546 285.1809,-431.8372 294.9553,-427.749 290.2725,-422.546"/>
</g>
<!-- disconnected -->
<g id="node27" class="node">
<title>disconnected</title>
<g id="a_node27"><a xlink:href="http://emmo.info/emmo/top/mereotopology#EMMO_517dfaf9_4970_41ac_81ee_d031627d2c7c" xlink:title="disconnected">
<polygon fill="#0079ba" stroke="#000000" points="458.5,-468 371.5,-468 371.5,-432 458.5,-432 458.5,-468"/>
<text text-anchor="middle" x="415" y="-446.3" font-family="Times,serif" font-size="14.00" fill="#ffffff">disconnected</text>
</a>
</g>
</g>
<!-- disconnected&#45;&gt;mereotopological -->
<g id="edge15" class="edge">
<title>disconnected&#45;&gt;mereotopological</title>
<path fill="none" stroke="#000000" d="M415,-468.1686C415,-475.869 415,-485.0257 415,-493.5834"/>
<polygon fill="none" stroke="#000000" points="411.5001,-493.5867 415,-503.5867 418.5001,-493.5868 411.5001,-493.5867"/>
</g>
<!-- hasProperParticipant -->
<g id="node28" class="node">
<title>hasProperParticipant</title>
<g id="a_node28"><a xlink:href="http://emmo.info/emmo/middle/holistic#EMMO_c5aae418_1622_4d02_93c5_21159e28e6c1" xlink:title="hasProperParticipant">
<polygon fill="#0079ba" stroke="#000000" points="372.5,-180 243.5,-180 243.5,-144 372.5,-144 372.5,-180"/>
<text text-anchor="middle" x="308" y="-158.3" font-family="Times,serif" font-size="14.00" fill="#ffffff">hasProperParticipant</text>
</a>
</g>
</g>
<!-- hasProperParticipant&#45;&gt;hasProperPart -->
<g id="edge20" class="edge">
<title>hasProperParticipant&#45;&gt;hasProperPart</title>
<path fill="none" stroke="#000000" d="M365.2397,-180.0757C400.4474,-191.1939 445.3524,-205.3744 480.2764,-216.4031"/>
<polygon fill="none" stroke="#000000" points="479.256,-219.7511 489.8458,-219.425 481.3639,-213.0761 479.256,-219.7511"/>
</g>
<!-- hasParticipant -->
<g id="node30" class="node">
<title>hasParticipant</title>
<g id="a_node30"><a xlink:href="http://emmo.info/emmo/middle/holistic#EMMO_ae2d1a96_bfa1_409a_a7d2_03d69e8a125a" xlink:title="hasParticipant">
<polygon fill="#0079ba" stroke="#000000" points="446.5,-252 353.5,-252 353.5,-216 446.5,-216 446.5,-252"/>
<text text-anchor="middle" x="400" y="-230.3" font-family="Times,serif" font-size="14.00" fill="#ffffff">hasParticipant</text>
</a>
</g>
</g>
<!-- hasProperParticipant&#45;&gt;hasParticipant -->
<g id="edge19" class="edge">
<title>hasProperParticipant&#45;&gt;hasParticipant</title>
<path fill="none" stroke="#000000" d="M331.2155,-180.1686C342.547,-189.0368 356.3464,-199.8363 368.6027,-209.4282"/>
<polygon fill="none" stroke="#000000" points="366.7598,-212.4303 376.7919,-215.8372 371.074,-206.9178 366.7598,-212.4303"/>
</g>
<!-- hasSign&#45;&gt;semiotical -->
<g id="edge12" class="edge">
<title>hasSign&#45;&gt;semiotical</title>
<path fill="none" stroke="#000000" d="M271.5609,-468.1686C274.4027,-476.0383 277.7937,-485.4288 280.9419,-494.1467"/>
<polygon fill="none" stroke="#000000" points="277.6623,-495.37 284.3508,-503.5867 284.2462,-492.9924 277.6623,-495.37"/>
</g>
<!-- hasParticipant&#45;&gt;hasPart -->
<g id="edge4" class="edge">
<title>hasParticipant&#45;&gt;hasPart</title>
<path fill="none" stroke="#000000" d="M420.6921,-252.1686C430.6948,-260.9515 442.855,-271.6288 453.6999,-281.1511"/>
<polygon fill="none" stroke="#000000" points="451.4908,-283.8692 461.3146,-287.8372 456.1094,-278.6091 451.4908,-283.8692"/>
</g>
<!-- hasVariable -->
<g id="node31" class="node">
<title>hasVariable</title>
<g id="a_node31"><a xlink:href="http://emmo.info/emmo/middle/math#EMMO_3446e167_c576_49d6_846c_215bb8878a55" xlink:title="hasVariable">
<polygon fill="#0079ba" stroke="#000000" points="158.5,-324 77.5,-324 77.5,-288 158.5,-288 158.5,-324"/>
<text text-anchor="middle" x="118" y="-302.3" font-family="Times,serif" font-size="14.00" fill="#ffffff">hasVariable</text>
</a>
</g>
</g>
<!-- hasVariable&#45;&gt;hasConvention -->
<g id="edge16" class="edge">
<title>hasVariable&#45;&gt;hasConvention</title>
<path fill="none" stroke="#000000" d="M129.8601,-324.1686C135.1629,-332.2921 141.5237,-342.0363 147.3673,-350.9882"/>
<polygon fill="none" stroke="#000000" points="144.5831,-353.1261 152.9802,-359.5867 150.4448,-349.2997 144.5831,-353.1261"/>
</g>
<!-- key1 -->
<g id="node32" class="node">
<title>key1</title>
<text text-anchor="start" x="987" y="-13.8" font-family="Times,serif" font-size="14.00" fill="#000000">isA</text>
</g>
<!-- key2 -->
<g id="node33" class="node">
<title>key2</title>
<text text-anchor="start" x="1066" y="-13.8" font-family="Times,serif" font-size="14.00" fill="#000000"> </text>
</g>
<!-- key1&#45;&gt;key2 -->
<g id="edge33" class="edge">
<title>key1:e&#45;&gt;key2:w</title>
<path fill="none" stroke="#000000" d="M1008,-19C1029,-19 1036.7109,-19 1053.5581,-19"/>
<polygon fill="none" stroke="#000000" points="1054,-22.5001 1064,-19 1054,-15.5001 1054,-22.5001"/>
</g>
</g>
</svg>
