<?xml version="1.0" encoding="UTF-8" standalone="no"?>
<!DOCTYPE svg PUBLIC "-//W3C//DTD SVG 1.1//EN"
 "http://www.w3.org/Graphics/SVG/1.1/DTD/svg11.dtd">
<!-- Generated by graphviz version 2.40.1 (20161225.0304)
 -->
<!-- Title: %3 Pages: 1 -->
<svg width="1060pt" height="740pt"
 viewBox="0.00 0.00 1059.50 740.00" xmlns="http://www.w3.org/2000/svg" xmlns:xlink="http://www.w3.org/1999/xlink">
<g id="graph0" class="graph" transform="scale(1 1) rotate(0) translate(4 736)">
<title>%3</title>
<polygon fill="#ffffff" stroke="transparent" points="-4,4 -4,-736 1055.5,-736 1055.5,4 -4,4"/>
<!-- hasProperParticipant -->
<g id="node1" class="node">
<title>hasProperParticipant</title>
<g id="a_node1"><a xlink:href="http://emmo.info/emmo/middle/holistic#EMMO_c5aae418_1622_4d02_93c5_21159e28e6c1" xlink:title="hasProperParticipant">
<polygon fill="#0079ba" stroke="#000000" points="498.5,-210 369.5,-210 369.5,-174 498.5,-174 498.5,-210"/>
<text text-anchor="middle" x="434" y="-188.3" font-family="Times,serif" font-size="14.00" fill="#ffffff">hasProperParticipant</text>
</a>
</g>
</g>
<!-- hasParticipant -->
<g id="node9" class="node">
<title>hasParticipant</title>
<g id="a_node9"><a xlink:href="http://emmo.info/emmo/middle/holistic#EMMO_ae2d1a96_bfa1_409a_a7d2_03d69e8a125a" xlink:title="hasParticipant">
<polygon fill="#0079ba" stroke="#000000" points="533.5,-297 440.5,-297 440.5,-261 533.5,-261 533.5,-297"/>
<text text-anchor="middle" x="487" y="-275.3" font-family="Times,serif" font-size="14.00" fill="#ffffff">hasParticipant</text>
</a>
</g>
</g>
<!-- hasProperParticipant&#45;&gt;hasParticipant -->
<g id="edge5" class="edge">
<title>hasProperParticipant&#45;&gt;hasParticipant</title>
<path fill="none" stroke="#000000" d="M444.9816,-210.0265C452.4433,-222.2748 462.4394,-238.6835 470.8097,-252.4234"/>
<polygon fill="none" stroke="#000000" points="467.8408,-254.2775 476.0324,-260.9966 473.8188,-250.6356 467.8408,-254.2775"/>
<text text-anchor="middle" x="473.5" y="-231.8" font-family="Times,serif" font-size="14.00" fill="#000000">isA</text>
</g>
<!-- hasProperPart -->
<g id="node25" class="node">
<title>hasProperPart</title>
<g id="a_node25"><a xlink:href="http://emmo.info/emmo/top/mereotopology#EMMO_9380ab64_0363_4804_b13f_3a8a94119a76" xlink:title="hasProperPart">
<polygon fill="#0079ba" stroke="#000000" points="651,-297 559,-297 559,-261 651,-261 651,-297"/>
<text text-anchor="middle" x="605" y="-275.3" font-family="Times,serif" font-size="14.00" fill="#ffffff">hasProperPart</text>
</a>
</g>
</g>
<!-- hasProperParticipant&#45;&gt;hasProperPart -->
<g id="edge6" class="edge">
<title>hasProperParticipant&#45;&gt;hasProperPart</title>
<path fill="none" stroke="#000000" d="M469.4313,-210.0265C495.9131,-223.4997 532.2893,-242.0068 560.6944,-256.4585"/>
<polygon fill="none" stroke="#000000" points="559.1142,-259.5815 569.6141,-260.9966 562.2884,-253.3425 559.1142,-259.5815"/>
<text text-anchor="middle" x="539.5" y="-231.8" font-family="Times,serif" font-size="14.00" fill="#000000">isA</text>
</g>
<!-- hasReferenceUnit -->
<g id="node2" class="node">
<title>hasReferenceUnit</title>
<g id="a_node2"><a xlink:href="http://emmo.info/emmo/middle/units#EMMO_67fc0a36_8dcb_4ffa_9a43_31074efa3296" xlink:title="hasReferenceUnit">
<polygon fill="#0079ba" stroke="#000000" points="816.5,-36 703.5,-36 703.5,0 816.5,0 816.5,-36"/>
<text text-anchor="middle" x="760" y="-14.3" font-family="Times,serif" font-size="14.00" fill="#ffffff">hasReferenceUnit</text>
</a>
</g>
</g>
<!-- hasSpatialDirectPart -->
<g id="node4" class="node">
<title>hasSpatialDirectPart</title>
<g id="a_node4"><a xlink:href="http://emmo.info/emmo/middle/reductionistic#EMMO_b2282816_b7a3_44c6_b2cb_3feff1ceb7fe" xlink:title="hasSpatialDirectPart">
<polygon fill="#0079ba" stroke="#000000" points="890,-123 762,-123 762,-87 890,-87 890,-123"/>
<text text-anchor="middle" x="826" y="-101.3" font-family="Times,serif" font-size="14.00" fill="#ffffff">hasSpatialDirectPart</text>
</a>
</g>
</g>
<!-- hasReferenceUnit&#45;&gt;hasSpatialDirectPart -->
<g id="edge13" class="edge">
<title>hasReferenceUnit&#45;&gt;hasSpatialDirectPart</title>
<path fill="none" stroke="#000000" d="M773.6752,-36.0265C783.0556,-48.3915 795.6525,-64.9964 806.1357,-78.8153"/>
<polygon fill="none" stroke="#000000" points="803.5099,-81.1451 812.3423,-86.9966 809.0868,-76.9143 803.5099,-81.1451"/>
<text text-anchor="middle" x="806.5" y="-57.8" font-family="Times,serif" font-size="14.00" fill="#000000">isA</text>
</g>
<!-- hasMember -->
<g id="node3" class="node">
<title>hasMember</title>
<g id="a_node3"><a xlink:href="http://emmo.info/emmo/top/mereotopology#EMMO_6b7276a4_4b9d_440a_b577_0277539c0fc4" xlink:title="hasMember">
<polygon fill="#0079ba" stroke="#000000" points="599,-210 517,-210 517,-174 599,-174 599,-210"/>
<text text-anchor="middle" x="558" y="-188.3" font-family="Times,serif" font-size="14.00" fill="#ffffff">hasMember</text>
</a>
</g>
</g>
<!-- hasMember&#45;&gt;hasProperPart -->
<g id="edge1" class="edge">
<title>hasMember&#45;&gt;hasProperPart</title>
<path fill="none" stroke="#000000" d="M567.7384,-210.0265C574.2923,-222.1582 583.0512,-238.3713 590.4301,-252.0302"/>
<polygon fill="none" stroke="#000000" points="587.4416,-253.862 595.274,-260.9966 593.6003,-250.5348 587.4416,-253.862"/>
<text text-anchor="middle" x="594.5" y="-231.8" font-family="Times,serif" font-size="14.00" fill="#000000">isA</text>
</g>
<!-- hasSpatialPart -->
<g id="node17" class="node">
<title>hasSpatialPart</title>
<g id="a_node17"><a xlink:href="http://emmo.info/emmo/top/physical#EMMO_f68030be_94b8_4c61_a161_886468558054" xlink:title="hasSpatialPart">
<polygon fill="#0079ba" stroke="#000000" points="873,-210 779,-210 779,-174 873,-174 873,-210"/>
<text text-anchor="middle" x="826" y="-188.3" font-family="Times,serif" font-size="14.00" fill="#ffffff">hasSpatialPart</text>
</a>
</g>
</g>
<!-- hasSpatialDirectPart&#45;&gt;hasSpatialPart -->
<g id="edge17" class="edge">
<title>hasSpatialDirectPart&#45;&gt;hasSpatialPart</title>
<path fill="none" stroke="#000000" d="M826,-123.0265C826,-134.8082 826,-150.4393 826,-163.8419"/>
<polygon fill="none" stroke="#000000" points="822.5001,-163.9966 826,-173.9966 829.5001,-163.9967 822.5001,-163.9966"/>
<text text-anchor="middle" x="835.5" y="-144.8" font-family="Times,serif" font-size="14.00" fill="#000000">isA</text>
</g>
<!-- hasInterpretant -->
<g id="node5" class="node">
<title>hasInterpretant</title>
<g id="a_node5"><a xlink:href="http://emmo.info/emmo/top/semiotics#EMMO_7fb7fe7e_bdf9_4eeb_adad_e384dd5285c6" xlink:title="hasInterpretant">
<polygon fill="#0079ba" stroke="#000000" points="98,-471 0,-471 0,-435 98,-435 98,-471"/>
<text text-anchor="middle" x="49" y="-449.3" font-family="Times,serif" font-size="14.00" fill="#ffffff">hasInterpretant</text>
</a>
</g>
</g>
<!-- hasSign -->
<g id="node11" class="node">
<title>hasSign</title>
<g id="a_node11"><a xlink:href="http://emmo.info/emmo/top/semiotics#EMMO_60577dea_9019_4537_ac41_80b0fb563d41" xlink:title="hasSign">
<polygon fill="#0079ba" stroke="#000000" points="258.5,-558 199.5,-558 199.5,-522 258.5,-522 258.5,-558"/>
<text text-anchor="middle" x="229" y="-536.3" font-family="Times,serif" font-size="14.00" fill="#ffffff">hasSign</text>
</a>
</g>
</g>
<!-- hasInterpretant&#45;&gt;hasSign -->
<g id="edge28" class="edge">
<title>hasInterpretant&#45;&gt;hasSign</title>
<path fill="none" stroke="#000000" d="M86.2961,-471.0265C116.7187,-485.7307 159.5467,-506.4309 190.334,-521.3114"/>
<polygon fill="none" stroke="#000000" points="188.9485,-524.5291 199.4751,-525.7296 191.9947,-518.2267 188.9485,-524.5291"/>
<text text-anchor="middle" x="159.5" y="-492.8" font-family="Times,serif" font-size="14.00" fill="#000000">isA</text>
</g>
<!-- hasSpatioTemporalDirectPart -->
<g id="node6" class="node">
<title>hasSpatioTemporalDirectPart</title>
<g id="a_node6"><a xlink:href="http://emmo.info/emmo/middle/reductionistic#EMMO_663859e5_add3_4c9e_96fb_c99399de278d" xlink:title="hasSpatioTemporalDirectPart">
<polygon fill="#0079ba" stroke="#000000" points="744,-123 566,-123 566,-87 744,-87 744,-123"/>
<text text-anchor="middle" x="655" y="-101.3" font-family="Times,serif" font-size="14.00" fill="#ffffff">hasSpatioTemporalDirectPart</text>
</a>
</g>
</g>
<!-- hasSpatioTemporalPart -->
<g id="node16" class="node">
<title>hasSpatioTemporalPart</title>
<g id="a_node16"><a xlink:href="http://emmo.info/emmo/top/physical#EMMO_6e046dd0_9634_4013_b2b1_9cc468087c83" xlink:title="hasSpatioTemporalPart">
<polygon fill="#0079ba" stroke="#000000" points="761,-210 617,-210 617,-174 761,-174 761,-210"/>
<text text-anchor="middle" x="689" y="-188.3" font-family="Times,serif" font-size="14.00" fill="#ffffff">hasSpatioTemporalPart</text>
</a>
</g>
</g>
<!-- hasSpatioTemporalDirectPart&#45;&gt;hasSpatioTemporalPart -->
<g id="edge2" class="edge">
<title>hasSpatioTemporalDirectPart&#45;&gt;hasSpatioTemporalPart</title>
<path fill="none" stroke="#000000" d="M662.0448,-123.0265C666.7404,-135.0415 673.0004,-151.0599 678.3058,-164.6354"/>
<polygon fill="none" stroke="#000000" points="675.0643,-165.9566 681.9642,-173.9966 681.5841,-163.4086 675.0643,-165.9566"/>
<text text-anchor="middle" x="684.5" y="-144.8" font-family="Times,serif" font-size="14.00" fill="#000000">isA</text>
</g>
<!-- hasContactWith -->
<g id="node7" class="node">
<title>hasContactWith</title>
<g id="a_node7"><a xlink:href="http://emmo.info/emmo/top/mereotopology#EMMO_4d6504f1_c470_4ce9_b941_bbbebc9ab05d" xlink:title="hasContactWith">
<polygon fill="#0079ba" stroke="#000000" points="497,-471 393,-471 393,-435 497,-435 497,-471"/>
<text text-anchor="middle" x="445" y="-449.3" font-family="Times,serif" font-size="14.00" fill="#ffffff">hasContactWith</text>
</a>
</g>
</g>
<!-- connected -->
<g id="node29" class="node">
<title>connected</title>
<g id="a_node29"><a xlink:href="http://emmo.info/emmo/top/mereotopology#EMMO_6703954e_34c4_4a15_a9e7_f313760ae1a8" xlink:title="connected">
<polygon fill="#0079ba" stroke="#000000" points="501.5,-558 430.5,-558 430.5,-522 501.5,-522 501.5,-558"/>
<text text-anchor="middle" x="466" y="-536.3" font-family="Times,serif" font-size="14.00" fill="#ffffff">connected</text>
</a>
</g>
</g>
<!-- hasContactWith&#45;&gt;connected -->
<g id="edge31" class="edge">
<title>hasContactWith&#45;&gt;connected</title>
<path fill="none" stroke="#000000" d="M449.3512,-471.0265C452.2232,-482.9249 456.0429,-498.7492 459.2992,-512.2394"/>
<polygon fill="none" stroke="#000000" points="455.9056,-513.0971 461.6544,-521.9966 462.7102,-511.4545 455.9056,-513.0971"/>
<text text-anchor="middle" x="466.5" y="-492.8" font-family="Times,serif" font-size="14.00" fill="#000000">isA</text>
</g>
<!-- hasProperty -->
<g id="node8" class="node">
<title>hasProperty</title>
<g id="a_node8"><a xlink:href="http://emmo.info/emmo/middle/properties#EMMO_e1097637_70d2_4895_973f_2396f04fa204" xlink:title="hasProperty">
<polygon fill="#0079ba" stroke="#000000" points="364.5,-384 283.5,-384 283.5,-348 364.5,-348 364.5,-384"/>
<text text-anchor="middle" x="324" y="-362.3" font-family="Times,serif" font-size="14.00" fill="#ffffff">hasProperty</text>
</a>
</g>
</g>
<!-- hasConvention -->
<g id="node28" class="node">
<title>hasConvention</title>
<g id="a_node28"><a xlink:href="http://emmo.info/emmo/top/semiotics#EMMO_eb3518bf_f799_4f9e_8c3e_ce59af11453b" xlink:title="hasConvention">
<polygon fill="#0079ba" stroke="#000000" points="375,-471 277,-471 277,-435 375,-435 375,-471"/>
<text text-anchor="middle" x="326" y="-449.3" font-family="Times,serif" font-size="14.00" fill="#ffffff">hasConvention</text>
</a>
</g>
</g>
<!-- hasProperty&#45;&gt;hasConvention -->
<g id="edge26" class="edge">
<title>hasProperty&#45;&gt;hasConvention</title>
<path fill="none" stroke="#000000" d="M324.4144,-384.0265C324.6852,-395.8082 325.0446,-411.4393 325.3527,-424.8419"/>
<polygon fill="none" stroke="#000000" points="321.8571,-425.0798 325.5861,-434.9966 328.8553,-424.9188 321.8571,-425.0798"/>
<text text-anchor="middle" x="335.5" y="-405.8" font-family="Times,serif" font-size="14.00" fill="#000000">isA</text>
</g>
<!-- hasPart -->
<g id="node31" class="node">
<title>hasPart</title>
<g id="a_node31"><a xlink:href="http://emmo.info/emmo/top/mereotopology#EMMO_17e27c22_37e1_468c_9dd7_95e137f73e7f" xlink:title="hasPart">
<polygon fill="#0079ba" stroke="#000000" points="582,-384 526,-384 526,-348 582,-348 582,-384"/>
<text text-anchor="middle" x="554" y="-362.3" font-family="Times,serif" font-size="14.00" fill="#ffffff">hasPart</text>
</a>
</g>
</g>
<!-- hasParticipant&#45;&gt;hasPart -->
<g id="edge21" class="edge">
<title>hasParticipant&#45;&gt;hasPart</title>
<path fill="none" stroke="#000000" d="M500.8824,-297.0265C510.4049,-309.3915 523.1926,-325.9964 533.8348,-339.8153"/>
<polygon fill="none" stroke="#000000" points="531.2608,-342.2093 540.1353,-347.9966 536.8068,-337.9382 531.2608,-342.2093"/>
<text text-anchor="middle" x="534.5" y="-318.8" font-family="Times,serif" font-size="14.00" fill="#000000">isA</text>
</g>
<!-- hasModel -->
<g id="node10" class="node">
<title>hasModel</title>
<g id="a_node10"><a xlink:href="http://emmo.info/emmo/middle/models#EMMO_24c71baf_6db6_48b9_86c8_8c70cf36db0c" xlink:title="hasModel">
<polygon fill="#0079ba" stroke="#000000" points="264.5,-384 193.5,-384 193.5,-348 264.5,-348 264.5,-384"/>
<text text-anchor="middle" x="229" y="-362.3" font-family="Times,serif" font-size="14.00" fill="#ffffff">hasModel</text>
</a>
</g>
</g>
<!-- hasIcon -->
<g id="node24" class="node">
<title>hasIcon</title>
<g id="a_node24"><a xlink:href="http://emmo.info/emmo/top/semiotics#EMMO_39c3815d_8cae_4c8f_b2ff_eeba24bec455" xlink:title="hasIcon">
<polygon fill="#0079ba" stroke="#000000" points="258.5,-471 199.5,-471 199.5,-435 258.5,-435 258.5,-471"/>
<text text-anchor="middle" x="229" y="-449.3" font-family="Times,serif" font-size="14.00" fill="#ffffff">hasIcon</text>
</a>
</g>
</g>
<!-- hasModel&#45;&gt;hasIcon -->
<g id="edge15" class="edge">
<title>hasModel&#45;&gt;hasIcon</title>
<path fill="none" stroke="#000000" d="M229,-384.0265C229,-395.8082 229,-411.4393 229,-424.8419"/>
<polygon fill="none" stroke="#000000" points="225.5001,-424.9966 229,-434.9966 232.5001,-424.9967 225.5001,-424.9966"/>
<text text-anchor="middle" x="238.5" y="-405.8" font-family="Times,serif" font-size="14.00" fill="#000000">isA</text>
</g>
<!-- semiotical -->
<g id="node12" class="node">
<title>semiotical</title>
<g id="a_node12"><a xlink:href="http://emmo.info/emmo/top/semiotics#EMMO_2337e25c_3c60_43fc_a8f9_b11a3f974291" xlink:title="semiotical">
<polygon fill="#0079ba" stroke="#000000" points="281.5,-645 208.5,-645 208.5,-609 281.5,-609 281.5,-645"/>
<text text-anchor="middle" x="245" y="-623.3" font-family="Times,serif" font-size="14.00" fill="#ffffff">semiotical</text>
</a>
</g>
</g>
<!-- hasSign&#45;&gt;semiotical -->
<g id="edge30" class="edge">
<title>hasSign&#45;&gt;semiotical</title>
<path fill="none" stroke="#000000" d="M232.3152,-558.0265C234.482,-569.8082 237.3567,-585.4393 239.8215,-598.8419"/>
<polygon fill="none" stroke="#000000" points="236.4379,-599.7947 241.689,-608.9966 243.3225,-598.5285 236.4379,-599.7947"/>
<text text-anchor="middle" x="247.5" y="-579.8" font-family="Times,serif" font-size="14.00" fill="#000000">isA</text>
</g>
<!-- EMMORelation -->
<g id="node26" class="node">
<title>EMMORelation</title>
<g id="a_node26"><a xlink:href="http://emmo.info/emmo/top/mereotopology#EMMO_ec2472ae_cf4a_46a5_8555_1556f5a6c3c5" xlink:title="EMMORelation">
<polygon fill="#0079ba" stroke="#000000" stroke-width="2" points="353,-732 247,-732 247,-696 353,-696 353,-732"/>
<text text-anchor="middle" x="300" y="-710.3" font-family="Times,serif" font-size="14.00" fill="#ffffff">EMMORelation</text>
</a>
</g>
</g>
<!-- semiotical&#45;&gt;EMMORelation -->
<g id="edge27" class="edge">
<title>semiotical&#45;&gt;EMMORelation</title>
<path fill="none" stroke="#000000" d="M256.396,-645.0265C264.1393,-657.2748 274.5126,-673.6835 283.1987,-687.4234"/>
<polygon fill="none" stroke="#000000" points="280.3165,-689.4143 288.6186,-695.9966 286.2333,-685.6738 280.3165,-689.4143"/>
<text text-anchor="middle" x="285.5" y="-666.8" font-family="Times,serif" font-size="14.00" fill="#000000">isA</text>
</g>
<!-- encloses -->
<g id="node13" class="node">
<title>encloses</title>
<g id="a_node13"><a xlink:href="http://emmo.info/emmo/top/mereotopology#EMMO_8c898653_1118_4682_9bbf_6cc334d16a99" xlink:title="encloses">
<polygon fill="#0079ba" stroke="#000000" points="577,-471 515,-471 515,-435 577,-435 577,-471"/>
<text text-anchor="middle" x="546" y="-449.3" font-family="Times,serif" font-size="14.00" fill="#ffffff">encloses</text>
</a>
</g>
</g>
<!-- encloses&#45;&gt;connected -->
<g id="edge22" class="edge">
<title>encloses&#45;&gt;connected</title>
<path fill="none" stroke="#000000" d="M529.4239,-471.0265C517.8393,-483.6248 502.2073,-500.6245 489.3614,-514.5945"/>
<polygon fill="none" stroke="#000000" points="486.7472,-512.2665 482.5548,-521.9966 491.8999,-517.0047 486.7472,-512.2665"/>
<text text-anchor="middle" x="520.5" y="-492.8" font-family="Times,serif" font-size="14.00" fill="#000000">isA</text>
</g>
<!-- overcrosses -->
<g id="node14" class="node">
<title>overcrosses</title>
<g id="a_node14"><a xlink:href="http://emmo.info/emmo/top/mereotopology#EMMO_9cb984ca_48ad_4864_b09e_50d3fff19420" xlink:title="overcrosses">
<polygon fill="#0079ba" stroke="#000000" points="688,-384 608,-384 608,-348 688,-348 688,-384"/>
<text text-anchor="middle" x="648" y="-362.3" font-family="Times,serif" font-size="14.00" fill="#ffffff">overcrosses</text>
</a>
</g>
</g>
<!-- hasOverlapWith -->
<g id="node15" class="node">
<title>hasOverlapWith</title>
<g id="a_node15"><a xlink:href="http://emmo.info/emmo/top/mereotopology#EMMO_d893d373_b579_4867_841e_1c2b31a8d2c6" xlink:title="hasOverlapWith">
<polygon fill="#0079ba" stroke="#000000" points="701,-471 595,-471 595,-435 701,-435 701,-471"/>
<text text-anchor="middle" x="648" y="-449.3" font-family="Times,serif" font-size="14.00" fill="#ffffff">hasOverlapWith</text>
</a>
</g>
</g>
<!-- overcrosses&#45;&gt;hasOverlapWith -->
<g id="edge23" class="edge">
<title>overcrosses&#45;&gt;hasOverlapWith</title>
<path fill="none" stroke="#000000" d="M648,-384.0265C648,-395.8082 648,-411.4393 648,-424.8419"/>
<polygon fill="none" stroke="#000000" points="644.5001,-424.9966 648,-434.9966 651.5001,-424.9967 644.5001,-424.9966"/>
<text text-anchor="middle" x="657.5" y="-405.8" font-family="Times,serif" font-size="14.00" fill="#000000">isA</text>
</g>
<!-- hasOverlapWith&#45;&gt;connected -->
<g id="edge18" class="edge">
<title>hasOverlapWith&#45;&gt;connected</title>
<path fill="none" stroke="#000000" d="M610.2895,-471.0265C581.416,-484.8286 541.4912,-503.9136 510.9567,-518.5097"/>
<polygon fill="none" stroke="#000000" points="509.3173,-515.414 501.8046,-522.8846 512.3363,-521.7295 509.3173,-515.414"/>
<text text-anchor="middle" x="577.5" y="-492.8" font-family="Times,serif" font-size="14.00" fill="#000000">isA</text>
</g>
<!-- hasSpatioTemporalPart&#45;&gt;hasProperPart -->
<g id="edge29" class="edge">
<title>hasSpatioTemporalPart&#45;&gt;hasProperPart</title>
<path fill="none" stroke="#000000" d="M671.5951,-210.0265C659.4312,-222.6248 643.0177,-239.6245 629.5295,-253.5945"/>
<polygon fill="none" stroke="#000000" points="626.8106,-251.3715 622.3826,-260.9966 631.8464,-256.2337 626.8106,-251.3715"/>
<text text-anchor="middle" x="662.5" y="-231.8" font-family="Times,serif" font-size="14.00" fill="#000000">isA</text>
</g>
<!-- hasSpatialPart&#45;&gt;hasProperPart -->
<g id="edge12" class="edge">
<title>hasSpatialPart&#45;&gt;hasProperPart</title>
<path fill="none" stroke="#000000" d="M780.2087,-210.0265C745.391,-223.733 697.3392,-242.6493 660.3628,-257.2056"/>
<polygon fill="none" stroke="#000000" points="658.7556,-254.0768 650.7327,-260.9966 661.3197,-260.5903 658.7556,-254.0768"/>
<text text-anchor="middle" x="738.5" y="-231.8" font-family="Times,serif" font-size="14.00" fill="#000000">isA</text>
</g>
<!-- disconnected -->
<g id="node18" class="node">
<title>disconnected</title>
<g id="a_node18"><a xlink:href="http://emmo.info/emmo/top/mereotopology#EMMO_517dfaf9_4970_41ac_81ee_d031627d2c7c" xlink:title="disconnected">
<polygon fill="#0079ba" stroke="#000000" points="401.5,-558 314.5,-558 314.5,-522 401.5,-522 401.5,-558"/>
<text text-anchor="middle" x="358" y="-536.3" font-family="Times,serif" font-size="14.00" fill="#ffffff">disconnected</text>
</a>
</g>
</g>
<!-- mereotopological -->
<g id="node22" class="node">
<title>mereotopological</title>
<g id="a_node22"><a xlink:href="http://emmo.info/emmo/top/mereotopology#EMMO_03212fd7_abfd_4828_9c8e_62c293052d4b" xlink:title="mereotopological">
<polygon fill="#0079ba" stroke="#000000" points="414,-645 302,-645 302,-609 414,-609 414,-645"/>
<text text-anchor="middle" x="358" y="-623.3" font-family="Times,serif" font-size="14.00" fill="#ffffff">mereotopological</text>
</a>
</g>
</g>
<!-- disconnected&#45;&gt;mereotopological -->
<g id="edge14" class="edge">
<title>disconnected&#45;&gt;mereotopological</title>
<path fill="none" stroke="#000000" d="M358,-558.0265C358,-569.8082 358,-585.4393 358,-598.8419"/>
<polygon fill="none" stroke="#000000" points="354.5001,-598.9966 358,-608.9966 361.5001,-598.9967 354.5001,-598.9966"/>
<text text-anchor="middle" x="367.5" y="-579.8" font-family="Times,serif" font-size="14.00" fill="#000000">isA</text>
</g>
<!-- hasQuantityValue -->
<g id="node19" class="node">
<title>hasQuantityValue</title>
<g id="a_node19"><a xlink:href="http://emmo.info/emmo/middle/units#EMMO_8ef3cd6d_ae58_4a8d_9fc0_ad8f49015cd0" xlink:title="hasQuantityValue">
<polygon fill="#0079ba" stroke="#000000" points="949,-36 835,-36 835,0 949,0 949,-36"/>
<text text-anchor="middle" x="892" y="-14.3" font-family="Times,serif" font-size="14.00" fill="#ffffff">hasQuantityValue</text>
</a>
</g>
</g>
<!-- hasQuantityValue&#45;&gt;hasSpatialDirectPart -->
<g id="edge20" class="edge">
<title>hasQuantityValue&#45;&gt;hasSpatialDirectPart</title>
<path fill="none" stroke="#000000" d="M878.3248,-36.0265C868.9444,-48.3915 856.3475,-64.9964 845.8643,-78.8153"/>
<polygon fill="none" stroke="#000000" points="842.9132,-76.9143 839.6577,-86.9966 848.4901,-81.1451 842.9132,-76.9143"/>
<text text-anchor="middle" x="872.5" y="-57.8" font-family="Times,serif" font-size="14.00" fill="#000000">isA</text>
</g>
<!-- hasIndex -->
<g id="node20" class="node">
<title>hasIndex</title>
<g id="a_node20"><a xlink:href="http://emmo.info/emmo/top/semiotics#EMMO_297999d6_c9e4_4262_9536_bd524d1c6e21" xlink:title="hasIndex">
<polygon fill="#0079ba" stroke="#000000" points="181.5,-471 116.5,-471 116.5,-435 181.5,-435 181.5,-471"/>
<text text-anchor="middle" x="149" y="-449.3" font-family="Times,serif" font-size="14.00" fill="#ffffff">hasIndex</text>
</a>
</g>
</g>
<!-- hasIndex&#45;&gt;hasSign -->
<g id="edge24" class="edge">
<title>hasIndex&#45;&gt;hasSign</title>
<path fill="none" stroke="#000000" d="M165.5761,-471.0265C177.1607,-483.6248 192.7927,-500.6245 205.6386,-514.5945"/>
<polygon fill="none" stroke="#000000" points="203.1001,-517.0047 212.4452,-521.9966 208.2528,-512.2665 203.1001,-517.0047"/>
<text text-anchor="middle" x="203.5" y="-492.8" font-family="Times,serif" font-size="14.00" fill="#000000">isA</text>
</g>
<!-- hasTemporalPart -->
<g id="node21" class="node">
<title>hasTemporalPart</title>
<g id="a_node21"><a xlink:href="http://emmo.info/emmo/top/physical#EMMO_7afbed84_7593_4a23_bd88_9d9c6b04e8f6" xlink:title="hasTemporalPart">
<polygon fill="#0079ba" stroke="#000000" points="1018,-210 908,-210 908,-174 1018,-174 1018,-210"/>
<text text-anchor="middle" x="963" y="-188.3" font-family="Times,serif" font-size="14.00" fill="#ffffff">hasTemporalPart</text>
</a>
</g>
</g>
<!-- hasTemporalPart&#45;&gt;hasProperPart -->
<g id="edge19" class="edge">
<title>hasTemporalPart&#45;&gt;hasProperPart</title>
<path fill="none" stroke="#000000" d="M907.8471,-205.4031C840.8722,-221.6791 728.526,-248.9811 661.1186,-265.3622"/>
<polygon fill="none" stroke="#000000" points="659.9957,-262.0332 651.105,-267.7957 661.6487,-268.8352 659.9957,-262.0332"/>
<text text-anchor="middle" x="815.5" y="-231.8" font-family="Times,serif" font-size="14.00" fill="#000000">isA</text>
</g>
<!-- mereotopological&#45;&gt;EMMORelation -->
<g id="edge7" class="edge">
<title>mereotopological&#45;&gt;EMMORelation</title>
<path fill="none" stroke="#000000" d="M345.9824,-645.0265C337.8168,-657.2748 326.8777,-673.6835 317.7177,-687.4234"/>
<polygon fill="none" stroke="#000000" points="314.6371,-685.7347 312.0022,-695.9966 320.4615,-689.6176 314.6371,-685.7347"/>
<text text-anchor="middle" x="342.5" y="-666.8" font-family="Times,serif" font-size="14.00" fill="#000000">isA</text>
</g>
<!-- hasPhysicsDimension -->
<g id="node23" class="node">
<title>hasPhysicsDimension</title>
<g id="a_node23"><a xlink:href="http://emmo.info/emmo/middle/units#EMMO_bed1d005_b04e_4a90_94cf_02bc678a8569" xlink:title="hasPhysicsDimension">
<polygon fill="#0079ba" stroke="#000000" points="392,-297 256,-297 256,-261 392,-261 392,-297"/>
<text text-anchor="middle" x="324" y="-275.3" font-family="Times,serif" font-size="14.00" fill="#ffffff">hasPhysicsDimension</text>
</a>
</g>
</g>
<!-- hasPhysicsDimension&#45;&gt;hasProperty -->
<g id="edge25" class="edge">
<title>hasPhysicsDimension&#45;&gt;hasProperty</title>
<path fill="none" stroke="#000000" d="M324,-297.0265C324,-308.8082 324,-324.4393 324,-337.8419"/>
<polygon fill="none" stroke="#000000" points="320.5001,-337.9966 324,-347.9966 327.5001,-337.9967 320.5001,-337.9966"/>
<text text-anchor="middle" x="333.5" y="-318.8" font-family="Times,serif" font-size="14.00" fill="#000000">isA</text>
</g>
<!-- hasIcon&#45;&gt;hasSign -->
<g id="edge11" class="edge">
<title>hasIcon&#45;&gt;hasSign</title>
<path fill="none" stroke="#000000" d="M229,-471.0265C229,-482.8082 229,-498.4393 229,-511.8419"/>
<polygon fill="none" stroke="#000000" points="225.5001,-511.9966 229,-521.9966 232.5001,-511.9967 225.5001,-511.9966"/>
<text text-anchor="middle" x="238.5" y="-492.8" font-family="Times,serif" font-size="14.00" fill="#000000">isA</text>
</g>
<!-- hasProperPart&#45;&gt;hasPart -->
<g id="edge9" class="edge">
<title>hasProperPart&#45;&gt;hasPart</title>
<path fill="none" stroke="#000000" d="M594.4328,-297.0265C587.3211,-309.1582 577.8168,-325.3713 569.8099,-339.0302"/>
<polygon fill="none" stroke="#000000" points="566.5915,-337.5996 564.5537,-347.9966 572.6304,-341.1397 566.5915,-337.5996"/>
<text text-anchor="middle" x="592.5" y="-318.8" font-family="Times,serif" font-size="14.00" fill="#000000">isA</text>
</g>
<!-- hasVariable -->
<g id="node27" class="node">
<title>hasVariable</title>
<g id="a_node27"><a xlink:href="http://emmo.info/emmo/middle/math#EMMO_3446e167_c576_49d6_846c_215bb8878a55" xlink:title="hasVariable">
<polygon fill="#0079ba" stroke="#000000" points="463.5,-384 382.5,-384 382.5,-348 463.5,-348 463.5,-384"/>
<text text-anchor="middle" x="423" y="-362.3" font-family="Times,serif" font-size="14.00" fill="#ffffff">hasVariable</text>
</a>
</g>
</g>
<!-- hasVariable&#45;&gt;hasConvention -->
<g id="edge8" class="edge">
<title>hasVariable&#45;&gt;hasConvention</title>
<path fill="none" stroke="#000000" d="M402.9015,-384.0265C388.7251,-396.7414 369.55,-413.9397 353.8939,-427.9817"/>
<polygon fill="none" stroke="#000000" points="351.1802,-425.7141 346.0727,-434.9966 355.8541,-430.9252 351.1802,-425.7141"/>
<text text-anchor="middle" x="390.5" y="-405.8" font-family="Times,serif" font-size="14.00" fill="#000000">isA</text>
</g>
<!-- hasConvention&#45;&gt;hasSign -->
<g id="edge16" class="edge">
<title>hasConvention&#45;&gt;hasSign</title>
<path fill="none" stroke="#000000" d="M305.9015,-471.0265C291.7251,-483.7414 272.55,-500.9397 256.8939,-514.9817"/>
<polygon fill="none" stroke="#000000" points="254.1802,-512.7141 249.0727,-521.9966 258.8541,-517.9252 254.1802,-512.7141"/>
<text text-anchor="middle" x="293.5" y="-492.8" font-family="Times,serif" font-size="14.00" fill="#000000">isA</text>
</g>
<!-- connected&#45;&gt;mereotopological -->
<g id="edge32" class="edge">
<title>connected&#45;&gt;mereotopological</title>
<path fill="none" stroke="#000000" d="M443.6223,-558.0265C427.6934,-570.8581 406.0964,-588.2557 388.5784,-602.3674"/>
<polygon fill="none" stroke="#000000" points="385.9409,-599.9977 380.349,-608.9966 390.3322,-605.449 385.9409,-599.9977"/>
<text text-anchor="middle" x="428.5" y="-579.8" font-family="Times,serif" font-size="14.00" fill="#000000">isA</text>
</g>
<!-- hasTemporalDirectPart -->
<g id="node30" class="node">
<title>hasTemporalDirectPart</title>
<g id="a_node30"><a xlink:href="http://emmo.info/emmo/middle/reductionistic#EMMO_65a2c5b8_e4d8_4a51_b2f8_e55effc0547d" xlink:title="hasTemporalDirectPart">
<polygon fill="#0079ba" stroke="#000000" points="1051.5,-123 908.5,-123 908.5,-87 1051.5,-87 1051.5,-123"/>
<text text-anchor="middle" x="980" y="-101.3" font-family="Times,serif" font-size="14.00" fill="#ffffff">hasTemporalDirectPart</text>
</a>
</g>
</g>
<!-- hasTemporalDirectPart&#45;&gt;hasTemporalPart -->
<g id="edge10" class="edge">
<title>hasTemporalDirectPart&#45;&gt;hasTemporalPart</title>
<path fill="none" stroke="#000000" d="M976.4776,-123.0265C974.1754,-134.8082 971.121,-150.4393 968.5022,-163.8419"/>
<polygon fill="none" stroke="#000000" points="965.0007,-163.511 966.5179,-173.9966 971.8708,-164.8535 965.0007,-163.511"/>
<text text-anchor="middle" x="982.5" y="-144.8" font-family="Times,serif" font-size="14.00" fill="#000000">isA</text>
</g>
<!-- hasPart&#45;&gt;encloses -->
<g id="edge3" class="edge">
<title>hasPart&#45;&gt;encloses</title>
<path fill="none" stroke="#000000" d="M552.3424,-384.0265C551.259,-395.8082 549.8217,-411.4393 548.5892,-424.8419"/>
<polygon fill="none" stroke="#000000" points="545.086,-424.7181 547.6555,-434.9966 552.0565,-425.3592 545.086,-424.7181"/>
<text text-anchor="middle" x="560.5" y="-405.8" font-family="Times,serif" font-size="14.00" fill="#000000">isA</text>
</g>
<!-- hasPart&#45;&gt;hasOverlapWith -->
<g id="edge4" class="edge">
<title>hasPart&#45;&gt;hasOverlapWith</title>
<path fill="none" stroke="#000000" d="M573.4769,-384.0265C587.2149,-396.7414 605.7969,-413.9397 620.9688,-427.9817"/>
<polygon fill="none" stroke="#000000" points="618.8316,-430.7728 628.5481,-434.9966 623.5864,-425.6354 618.8316,-430.7728"/>
<text text-anchor="middle" x="616.5" y="-405.8" font-family="Times,serif" font-size="14.00" fill="#000000">isA</text>
</g>
</g>
</svg>
