<?xml version="1.0" encoding="UTF-8" standalone="no"?>
<!DOCTYPE svg PUBLIC "-//W3C//DTD SVG 1.1//EN"
 "http://www.w3.org/Graphics/SVG/1.1/DTD/svg11.dtd">
<!-- Generated by graphviz version 2.40.1 (20161225.0304)
 -->
<!-- Title: %3 Pages: 1 -->
<svg width="838pt" height="620pt"
 viewBox="0.00 0.00 837.50 620.00" xmlns="http://www.w3.org/2000/svg" xmlns:xlink="http://www.w3.org/1999/xlink">
<g id="graph0" class="graph" transform="scale(1 1) rotate(0) translate(4 616)">
<title>%3</title>
<polygon fill="#ffffff" stroke="transparent" points="-4,4 -4,-616 833.5,-616 833.5,4 -4,4"/>
<!-- disconnected -->
<g id="node1" class="node">
<title>disconnected</title>
<g id="a_node1"><a xlink:href="http://emmo.info/emmo/top/mereotopology#EMMO_517dfaf9_4970_41ac_81ee_d031627d2c7c" xlink:title="disconnected">
<polygon fill="#0079ba" stroke="#000000" points="290.5,-468 203.5,-468 203.5,-432 290.5,-432 290.5,-468"/>
<text text-anchor="middle" x="247" y="-446.3" font-family="Times,serif" font-size="14.00" fill="#ffffff">disconnected</text>
</a>
</g>
</g>
<!-- mereotopological -->
<g id="node10" class="node">
<title>mereotopological</title>
<g id="a_node10"><a xlink:href="http://emmo.info/emmo/top/mereotopology#EMMO_03212fd7_abfd_4828_9c8e_62c293052d4b" xlink:title="mereotopological">
<polygon fill="#0079ba" stroke="#000000" points="400,-540 288,-540 288,-504 400,-504 400,-540"/>
<text text-anchor="middle" x="344" y="-518.3" font-family="Times,serif" font-size="14.00" fill="#ffffff">mereotopological</text>
</a>
</g>
</g>
<!-- disconnected&#45;&gt;mereotopological -->
<g id="edge7" class="edge">
<title>disconnected&#45;&gt;mereotopological</title>
<path fill="none" stroke="#000000" d="M271.4772,-468.1686C283.5395,-477.1221 298.254,-488.0442 311.2686,-497.7045"/>
<polygon fill="none" stroke="#000000" points="309.4148,-500.6873 319.5306,-503.8372 313.587,-495.0665 309.4148,-500.6873"/>
</g>
<!-- hasIndex -->
<g id="node2" class="node">
<title>hasIndex</title>
<g id="a_node2"><a xlink:href="http://emmo.info/emmo/top/semiotics#EMMO_297999d6_c9e4_4262_9536_bd524d1c6e21" xlink:title="hasIndex">
<polygon fill="#0079ba" stroke="#000000" points="629.5,-396 564.5,-396 564.5,-360 629.5,-360 629.5,-396"/>
<text text-anchor="middle" x="597" y="-374.3" font-family="Times,serif" font-size="14.00" fill="#ffffff">hasIndex</text>
</a>
</g>
</g>
<!-- hasSign -->
<g id="node26" class="node">
<title>hasSign</title>
<g id="a_node26"><a xlink:href="http://emmo.info/emmo/top/semiotics#EMMO_60577dea_9019_4537_ac41_80b0fb563d41" xlink:title="hasSign">
<polygon fill="#0079ba" stroke="#000000" points="626.5,-468 567.5,-468 567.5,-432 626.5,-432 626.5,-468"/>
<text text-anchor="middle" x="597" y="-446.3" font-family="Times,serif" font-size="14.00" fill="#ffffff">hasSign</text>
</a>
</g>
</g>
<!-- hasIndex&#45;&gt;hasSign -->
<g id="edge30" class="edge">
<title>hasIndex&#45;&gt;hasSign</title>
<path fill="none" stroke="#000000" d="M597,-396.1686C597,-403.869 597,-413.0257 597,-421.5834"/>
<polygon fill="none" stroke="#000000" points="593.5001,-421.5867 597,-431.5867 600.5001,-421.5868 593.5001,-421.5867"/>
</g>
<!-- hasModel -->
<g id="node3" class="node">
<title>hasModel</title>
<g id="a_node3"><a xlink:href="http://emmo.info/emmo/middle/models#EMMO_24c71baf_6db6_48b9_86c8_8c70cf36db0c" xlink:title="hasModel">
<polygon fill="#0079ba" stroke="#000000" points="829.5,-324 758.5,-324 758.5,-288 829.5,-288 829.5,-324"/>
<text text-anchor="middle" x="794" y="-302.3" font-family="Times,serif" font-size="14.00" fill="#ffffff">hasModel</text>
</a>
</g>
</g>
<!-- hasIcon -->
<g id="node22" class="node">
<title>hasIcon</title>
<g id="a_node22"><a xlink:href="http://emmo.info/emmo/top/semiotics#EMMO_39c3815d_8cae_4c8f_b2ff_eeba24bec455" xlink:title="hasIcon">
<polygon fill="#0079ba" stroke="#000000" points="823.5,-396 764.5,-396 764.5,-360 823.5,-360 823.5,-396"/>
<text text-anchor="middle" x="794" y="-374.3" font-family="Times,serif" font-size="14.00" fill="#ffffff">hasIcon</text>
</a>
</g>
</g>
<!-- hasModel&#45;&gt;hasIcon -->
<g id="edge17" class="edge">
<title>hasModel&#45;&gt;hasIcon</title>
<path fill="none" stroke="#000000" d="M794,-324.1686C794,-331.869 794,-341.0257 794,-349.5834"/>
<polygon fill="none" stroke="#000000" points="790.5001,-349.5867 794,-359.5867 797.5001,-349.5868 790.5001,-349.5867"/>
</g>
<!-- hasTemporalDirectPart -->
<g id="node4" class="node">
<title>hasTemporalDirectPart</title>
<g id="a_node4"><a xlink:href="http://emmo.info/emmo/middle/reductionistic#EMMO_65a2c5b8_e4d8_4a51_b2f8_e55effc0547d" xlink:title="hasTemporalDirectPart">
<polygon fill="#0079ba" stroke="#000000" points="544.5,-108 401.5,-108 401.5,-72 544.5,-72 544.5,-108"/>
<text text-anchor="middle" x="473" y="-86.3" font-family="Times,serif" font-size="14.00" fill="#ffffff">hasTemporalDirectPart</text>
</a>
</g>
</g>
<!-- hasTemporalPart -->
<g id="node5" class="node">
<title>hasTemporalPart</title>
<g id="a_node5"><a xlink:href="http://emmo.info/emmo/top/physical#EMMO_7afbed84_7593_4a23_bd88_9d9c6b04e8f6" xlink:title="hasTemporalPart">
<polygon fill="#0079ba" stroke="#000000" points="494,-180 384,-180 384,-144 494,-144 494,-180"/>
<text text-anchor="middle" x="439" y="-158.3" font-family="Times,serif" font-size="14.00" fill="#ffffff">hasTemporalPart</text>
</a>
</g>
</g>
<!-- hasTemporalDirectPart&#45;&gt;hasTemporalPart -->
<g id="edge10" class="edge">
<title>hasTemporalDirectPart&#45;&gt;hasTemporalPart</title>
<path fill="none" stroke="#000000" d="M464.4204,-108.1686C460.6642,-116.1229 456.1743,-125.631 452.0202,-134.4277"/>
<polygon fill="none" stroke="#000000" points="448.8004,-133.0497 447.6952,-143.5867 455.1301,-136.0388 448.8004,-133.0497"/>
</g>
<!-- hasProperPart -->
<g id="node6" class="node">
<title>hasProperPart</title>
<g id="a_node6"><a xlink:href="http://emmo.info/emmo/top/mereotopology#EMMO_9380ab64_0363_4804_b13f_3a8a94119a76" xlink:title="hasProperPart">
<polygon fill="#0079ba" stroke="#000000" points="395,-252 303,-252 303,-216 395,-216 395,-252"/>
<text text-anchor="middle" x="349" y="-230.3" font-family="Times,serif" font-size="14.00" fill="#ffffff">hasProperPart</text>
</a>
</g>
</g>
<!-- hasTemporalPart&#45;&gt;hasProperPart -->
<g id="edge19" class="edge">
<title>hasTemporalPart&#45;&gt;hasProperPart</title>
<path fill="none" stroke="#000000" d="M416.2892,-180.1686C405.204,-189.0368 391.7046,-199.8363 379.7148,-209.4282"/>
<polygon fill="none" stroke="#000000" points="377.3258,-206.8571 371.7035,-215.8372 381.6987,-212.3232 377.3258,-206.8571"/>
</g>
<!-- hasPart -->
<g id="node25" class="node">
<title>hasPart</title>
<g id="a_node25"><a xlink:href="http://emmo.info/emmo/top/mereotopology#EMMO_17e27c22_37e1_468c_9dd7_95e137f73e7f" xlink:title="hasPart">
<polygon fill="#0079ba" stroke="#000000" points="419,-324 363,-324 363,-288 419,-288 419,-324"/>
<text text-anchor="middle" x="391" y="-302.3" font-family="Times,serif" font-size="14.00" fill="#ffffff">hasPart</text>
</a>
</g>
</g>
<!-- hasProperPart&#45;&gt;hasPart -->
<g id="edge31" class="edge">
<title>hasProperPart&#45;&gt;hasPart</title>
<path fill="none" stroke="#000000" d="M359.5984,-252.1686C364.2877,-260.2075 369.9028,-269.8334 375.0798,-278.7082"/>
<polygon fill="none" stroke="#000000" points="372.1969,-280.7125 380.2589,-287.5867 378.2434,-277.1854 372.1969,-280.7125"/>
</g>
<!-- hasSpatialDirectPart -->
<g id="node7" class="node">
<title>hasSpatialDirectPart</title>
<g id="a_node7"><a xlink:href="http://emmo.info/emmo/middle/reductionistic#EMMO_b2282816_b7a3_44c6_b2cb_3feff1ceb7fe" xlink:title="hasSpatialDirectPart">
<polygon fill="#0079ba" stroke="#000000" points="187,-108 59,-108 59,-72 187,-72 187,-108"/>
<text text-anchor="middle" x="123" y="-86.3" font-family="Times,serif" font-size="14.00" fill="#ffffff">hasSpatialDirectPart</text>
</a>
</g>
</g>
<!-- hasSpatialPart -->
<g id="node16" class="node">
<title>hasSpatialPart</title>
<g id="a_node16"><a xlink:href="http://emmo.info/emmo/top/physical#EMMO_f68030be_94b8_4c61_a161_886468558054" xlink:title="hasSpatialPart">
<polygon fill="#0079ba" stroke="#000000" points="204,-180 110,-180 110,-144 204,-144 204,-180"/>
<text text-anchor="middle" x="157" y="-158.3" font-family="Times,serif" font-size="14.00" fill="#ffffff">hasSpatialPart</text>
</a>
</g>
</g>
<!-- hasSpatialDirectPart&#45;&gt;hasSpatialPart -->
<g id="edge2" class="edge">
<title>hasSpatialDirectPart&#45;&gt;hasSpatialPart</title>
<path fill="none" stroke="#000000" d="M131.5796,-108.1686C135.3358,-116.1229 139.8257,-125.631 143.9798,-134.4277"/>
<polygon fill="none" stroke="#000000" points="140.8699,-136.0388 148.3048,-143.5867 147.1996,-133.0497 140.8699,-136.0388"/>
</g>
<!-- hasConvention -->
<g id="node8" class="node">
<title>hasConvention</title>
<g id="a_node8"><a xlink:href="http://emmo.info/emmo/top/semiotics#EMMO_eb3518bf_f799_4f9e_8c3e_ce59af11453b" xlink:title="hasConvention">
<polygon fill="#0079ba" stroke="#000000" points="746,-396 648,-396 648,-360 746,-360 746,-396"/>
<text text-anchor="middle" x="697" y="-374.3" font-family="Times,serif" font-size="14.00" fill="#ffffff">hasConvention</text>
</a>
</g>
</g>
<!-- hasConvention&#45;&gt;hasSign -->
<g id="edge12" class="edge">
<title>hasConvention&#45;&gt;hasSign</title>
<path fill="none" stroke="#000000" d="M671.7658,-396.1686C659.212,-405.2073 643.8717,-416.2524 630.3609,-425.9802"/>
<polygon fill="none" stroke="#000000" points="628.2964,-423.1537 622.2261,-431.8372 632.3866,-428.8345 628.2964,-423.1537"/>
</g>
<!-- hasProperty -->
<g id="node9" class="node">
<title>hasProperty</title>
<g id="a_node9"><a xlink:href="http://emmo.info/emmo/middle/properties#EMMO_e1097637_70d2_4895_973f_2396f04fa204" xlink:title="hasProperty">
<polygon fill="#0079ba" stroke="#000000" points="738.5,-324 657.5,-324 657.5,-288 738.5,-288 738.5,-324"/>
<text text-anchor="middle" x="698" y="-302.3" font-family="Times,serif" font-size="14.00" fill="#ffffff">hasProperty</text>
</a>
</g>
</g>
<!-- hasProperty&#45;&gt;hasConvention -->
<g id="edge9" class="edge">
<title>hasProperty&#45;&gt;hasConvention</title>
<path fill="none" stroke="#000000" d="M697.7477,-324.1686C697.6407,-331.869 697.5135,-341.0257 697.3947,-349.5834"/>
<polygon fill="none" stroke="#000000" points="693.8951,-349.5391 697.2557,-359.5867 700.8944,-349.6363 693.8951,-349.5391"/>
</g>
<!-- EMMORelation -->
<g id="node13" class="node">
<title>EMMORelation</title>
<g id="a_node13"><a xlink:href="http://emmo.info/emmo/top/mereotopology#EMMO_ec2472ae_cf4a_46a5_8555_1556f5a6c3c5" xlink:title="EMMORelation">
<polygon fill="#0079ba" stroke="#000000" stroke-width="2" points="452,-612 346,-612 346,-576 452,-576 452,-612"/>
<text text-anchor="middle" x="399" y="-590.3" font-family="Times,serif" font-size="14.00" fill="#ffffff">EMMORelation</text>
</a>
</g>
</g>
<!-- mereotopological&#45;&gt;EMMORelation -->
<g id="edge18" class="edge">
<title>mereotopological&#45;&gt;EMMORelation</title>
<path fill="none" stroke="#000000" d="M357.8788,-540.1686C364.2136,-548.4614 371.8384,-558.443 378.7926,-567.5467"/>
<polygon fill="none" stroke="#000000" points="376.0825,-569.7647 384.9343,-575.5867 381.6452,-565.5153 376.0825,-569.7647"/>
</g>
<!-- hasQuantityValue -->
<g id="node11" class="node">
<title>hasQuantityValue</title>
<g id="a_node11"><a xlink:href="http://emmo.info/emmo/middle/metrology#EMMO_8ef3cd6d_ae58_4a8d_9fc0_ad8f49015cd0" xlink:title="hasQuantityValue">
<polygon fill="#0079ba" stroke="#000000" points="114,-36 0,-36 0,0 114,0 114,-36"/>
<text text-anchor="middle" x="57" y="-14.3" font-family="Times,serif" font-size="14.00" fill="#ffffff">hasQuantityValue</text>
</a>
</g>
</g>
<!-- hasQuantityValue&#45;&gt;hasSpatialDirectPart -->
<g id="edge25" class="edge">
<title>hasQuantityValue&#45;&gt;hasSpatialDirectPart</title>
<path fill="none" stroke="#000000" d="M73.6546,-36.1686C81.4114,-44.6306 90.7802,-54.8511 99.261,-64.1029"/>
<polygon fill="none" stroke="#000000" points="96.7838,-66.5802 106.1212,-71.5867 101.9439,-61.8501 96.7838,-66.5802"/>
</g>
<!-- hasContactWith -->
<g id="node12" class="node">
<title>hasContactWith</title>
<g id="a_node12"><a xlink:href="http://emmo.info/emmo/top/mereotopology#EMMO_4d6504f1_c470_4ce9_b941_bbbebc9ab05d" xlink:title="hasContactWith">
<polygon fill="#0079ba" stroke="#000000" points="226,-396 122,-396 122,-360 226,-360 226,-396"/>
<text text-anchor="middle" x="174" y="-374.3" font-family="Times,serif" font-size="14.00" fill="#ffffff">hasContactWith</text>
</a>
</g>
</g>
<!-- connected -->
<g id="node15" class="node">
<title>connected</title>
<g id="a_node15"><a xlink:href="http://emmo.info/emmo/top/mereotopology#EMMO_6703954e_34c4_4a15_a9e7_f313760ae1a8" xlink:title="connected">
<polygon fill="#0079ba" stroke="#000000" points="379.5,-468 308.5,-468 308.5,-432 379.5,-432 379.5,-468"/>
<text text-anchor="middle" x="344" y="-446.3" font-family="Times,serif" font-size="14.00" fill="#ffffff">connected</text>
</a>
</g>
</g>
<!-- hasContactWith&#45;&gt;connected -->
<g id="edge26" class="edge">
<title>hasContactWith&#45;&gt;connected</title>
<path fill="none" stroke="#000000" d="M216.8982,-396.1686C241.93,-406.7704 273.4791,-420.1323 298.8824,-430.8914"/>
<polygon fill="none" stroke="#000000" points="297.718,-434.1991 308.2912,-434.8763 300.448,-427.7534 297.718,-434.1991"/>
</g>
<!-- hasMember -->
<g id="node14" class="node">
<title>hasMember</title>
<g id="a_node14"><a xlink:href="http://emmo.info/emmo/top/mereotopology#EMMO_6b7276a4_4b9d_440a_b577_0277539c0fc4" xlink:title="hasMember">
<polygon fill="#0079ba" stroke="#000000" points="92,-180 10,-180 10,-144 92,-144 92,-180"/>
<text text-anchor="middle" x="51" y="-158.3" font-family="Times,serif" font-size="14.00" fill="#ffffff">hasMember</text>
</a>
</g>
</g>
<!-- hasMember&#45;&gt;hasProperPart -->
<g id="edge23" class="edge">
<title>hasMember&#45;&gt;hasProperPart</title>
<path fill="none" stroke="#000000" d="M92.0609,-177.2646C95.0715,-178.2352 98.074,-179.1587 101,-180 165.9754,-198.6822 242.1489,-214.3676 292.7584,-223.9376"/>
<polygon fill="none" stroke="#000000" points="292.3687,-227.4254 302.8423,-225.8274 293.6582,-220.5452 292.3687,-227.4254"/>
</g>
<!-- connected&#45;&gt;mereotopological -->
<g id="edge32" class="edge">
<title>connected&#45;&gt;mereotopological</title>
<path fill="none" stroke="#000000" d="M344,-468.1686C344,-475.869 344,-485.0257 344,-493.5834"/>
<polygon fill="none" stroke="#000000" points="340.5001,-493.5867 344,-503.5867 347.5001,-493.5868 340.5001,-493.5867"/>
</g>
<!-- hasSpatialPart&#45;&gt;hasProperPart -->
<g id="edge22" class="edge">
<title>hasSpatialPart&#45;&gt;hasProperPart</title>
<path fill="none" stroke="#000000" d="M204.4607,-179.7978C231.2814,-189.8555 264.9617,-202.4856 293.0616,-213.0231"/>
<polygon fill="none" stroke="#000000" points="292.1555,-216.4213 302.7478,-216.6554 294.6134,-209.867 292.1555,-216.4213"/>
</g>
<!-- hasSpatioTemporalPart -->
<g id="node17" class="node">
<title>hasSpatioTemporalPart</title>
<g id="a_node17"><a xlink:href="http://emmo.info/emmo/top/physical#EMMO_6e046dd0_9634_4013_b2b1_9cc468087c83" xlink:title="hasSpatioTemporalPart">
<polygon fill="#0079ba" stroke="#000000" points="366,-180 222,-180 222,-144 366,-144 366,-180"/>
<text text-anchor="middle" x="294" y="-158.3" font-family="Times,serif" font-size="14.00" fill="#ffffff">hasSpatioTemporalPart</text>
</a>
</g>
</g>
<!-- hasSpatioTemporalPart&#45;&gt;hasProperPart -->
<g id="edge1" class="edge">
<title>hasSpatioTemporalPart&#45;&gt;hasProperPart</title>
<path fill="none" stroke="#000000" d="M307.8788,-180.1686C314.2136,-188.4614 321.8384,-198.443 328.7926,-207.5467"/>
<polygon fill="none" stroke="#000000" points="326.0825,-209.7647 334.9343,-215.5867 331.6452,-205.5153 326.0825,-209.7647"/>
</g>
<!-- hasOverlapWith -->
<g id="node18" class="node">
<title>hasOverlapWith</title>
<g id="a_node18"><a xlink:href="http://emmo.info/emmo/top/mereotopology#EMMO_d893d373_b579_4867_841e_1c2b31a8d2c6" xlink:title="hasOverlapWith">
<polygon fill="#0079ba" stroke="#000000" points="350,-396 244,-396 244,-360 350,-360 350,-396"/>
<text text-anchor="middle" x="297" y="-374.3" font-family="Times,serif" font-size="14.00" fill="#ffffff">hasOverlapWith</text>
</a>
</g>
</g>
<!-- hasOverlapWith&#45;&gt;connected -->
<g id="edge13" class="edge">
<title>hasOverlapWith&#45;&gt;connected</title>
<path fill="none" stroke="#000000" d="M308.8601,-396.1686C314.1629,-404.2921 320.5237,-414.0363 326.3673,-422.9882"/>
<polygon fill="none" stroke="#000000" points="323.5831,-425.1261 331.9802,-431.5867 329.4448,-421.2997 323.5831,-425.1261"/>
</g>
<!-- hasReferenceUnit -->
<g id="node19" class="node">
<title>hasReferenceUnit</title>
<g id="a_node19"><a xlink:href="http://emmo.info/emmo/middle/metrology#EMMO_67fc0a36_8dcb_4ffa_9a43_31074efa3296" xlink:title="hasReferenceUnit">
<polygon fill="#0079ba" stroke="#000000" points="245.5,-36 132.5,-36 132.5,0 245.5,0 245.5,-36"/>
<text text-anchor="middle" x="189" y="-14.3" font-family="Times,serif" font-size="14.00" fill="#ffffff">hasReferenceUnit</text>
</a>
</g>
</g>
<!-- hasReferenceUnit&#45;&gt;hasSpatialDirectPart -->
<g id="edge29" class="edge">
<title>hasReferenceUnit&#45;&gt;hasSpatialDirectPart</title>
<path fill="none" stroke="#000000" d="M172.3454,-36.1686C164.5886,-44.6306 155.2198,-54.8511 146.739,-64.1029"/>
<polygon fill="none" stroke="#000000" points="144.0561,-61.8501 139.8788,-71.5867 149.2162,-66.5802 144.0561,-61.8501"/>
</g>
<!-- hasVariable -->
<g id="node20" class="node">
<title>hasVariable</title>
<g id="a_node20"><a xlink:href="http://emmo.info/emmo/middle/math#EMMO_3446e167_c576_49d6_846c_215bb8878a55" xlink:title="hasVariable">
<polygon fill="#0079ba" stroke="#000000" points="639.5,-324 558.5,-324 558.5,-288 639.5,-288 639.5,-324"/>
<text text-anchor="middle" x="599" y="-302.3" font-family="Times,serif" font-size="14.00" fill="#ffffff">hasVariable</text>
</a>
</g>
</g>
<!-- hasVariable&#45;&gt;hasConvention -->
<g id="edge3" class="edge">
<title>hasVariable&#45;&gt;hasConvention</title>
<path fill="none" stroke="#000000" d="M623.7295,-324.1686C635.9162,-333.1221 650.7823,-344.0442 663.9312,-353.7045"/>
<polygon fill="none" stroke="#000000" points="662.1473,-356.737 672.2784,-359.8372 666.2918,-351.0958 662.1473,-356.737"/>
</g>
<!-- hasParticipant -->
<g id="node21" class="node">
<title>hasParticipant</title>
<g id="a_node21"><a xlink:href="http://emmo.info/emmo/middle/holistic#EMMO_ae2d1a96_bfa1_409a_a7d2_03d69e8a125a" xlink:title="hasParticipant">
<polygon fill="#0079ba" stroke="#000000" points="580.5,-252 487.5,-252 487.5,-216 580.5,-216 580.5,-252"/>
<text text-anchor="middle" x="534" y="-230.3" font-family="Times,serif" font-size="14.00" fill="#ffffff">hasParticipant</text>
</a>
</g>
</g>
<!-- hasParticipant&#45;&gt;hasPart -->
<g id="edge28" class="edge">
<title>hasParticipant&#45;&gt;hasPart</title>
<path fill="none" stroke="#000000" d="M497.9151,-252.1686C476.7254,-262.8376 449.9838,-276.3019 428.5461,-287.0957"/>
<polygon fill="none" stroke="#000000" points="426.7702,-284.0711 419.4125,-291.6944 429.9182,-290.3234 426.7702,-284.0711"/>
</g>
<!-- hasIcon&#45;&gt;hasSign -->
<g id="edge24" class="edge">
<title>hasIcon&#45;&gt;hasSign</title>
<path fill="none" stroke="#000000" d="M764.3271,-392.0782C761.1971,-393.4481 758.046,-394.7803 755,-396 715.2971,-411.8978 668.8804,-427.4064 636.6745,-437.6944"/>
<polygon fill="none" stroke="#000000" points="635.2172,-434.4847 626.7439,-440.8451 637.3341,-441.157 635.2172,-434.4847"/>
</g>
<!-- hasProperParticipant -->
<g id="node23" class="node">
<title>hasProperParticipant</title>
<g id="a_node23"><a xlink:href="http://emmo.info/emmo/middle/holistic#EMMO_c5aae418_1622_4d02_93c5_21159e28e6c1" xlink:title="hasProperParticipant">
<polygon fill="#0079ba" stroke="#000000" points="641.5,-180 512.5,-180 512.5,-144 641.5,-144 641.5,-180"/>
<text text-anchor="middle" x="577" y="-158.3" font-family="Times,serif" font-size="14.00" fill="#ffffff">hasProperParticipant</text>
</a>
</g>
</g>
<!-- hasProperParticipant&#45;&gt;hasProperPart -->
<g id="edge6" class="edge">
<title>hasProperParticipant&#45;&gt;hasProperPart</title>
<path fill="none" stroke="#000000" d="M519.7603,-180.0757C484.5526,-191.1939 439.6476,-205.3744 404.7236,-216.4031"/>
<polygon fill="none" stroke="#000000" points="403.6361,-213.0761 395.1542,-219.425 405.744,-219.7511 403.6361,-213.0761"/>
</g>
<!-- hasProperParticipant&#45;&gt;hasParticipant -->
<g id="edge5" class="edge">
<title>hasProperParticipant&#45;&gt;hasParticipant</title>
<path fill="none" stroke="#000000" d="M566.1493,-180.1686C561.2977,-188.2921 555.4783,-198.0363 550.132,-206.9882"/>
<polygon fill="none" stroke="#000000" points="547.1194,-205.2067 544.9968,-215.5867 553.1292,-208.7959 547.1194,-205.2067"/>
</g>
<!-- semiotical -->
<g id="node24" class="node">
<title>semiotical</title>
<g id="a_node24"><a xlink:href="http://emmo.info/emmo/top/semiotics#EMMO_2337e25c_3c60_43fc_a8f9_b11a3f974291" xlink:title="semiotical">
<polygon fill="#0079ba" stroke="#000000" points="585.5,-540 512.5,-540 512.5,-504 585.5,-504 585.5,-540"/>
<text text-anchor="middle" x="549" y="-518.3" font-family="Times,serif" font-size="14.00" fill="#ffffff">semiotical</text>
</a>
</g>
</g>
<!-- semiotical&#45;&gt;EMMORelation -->
<g id="edge8" class="edge">
<title>semiotical&#45;&gt;EMMORelation</title>
<path fill="none" stroke="#000000" d="M512.3059,-539.6132C492.2844,-549.2235 467.2846,-561.2234 445.8652,-571.5047"/>
<polygon fill="none" stroke="#000000" points="444.1198,-568.4601 436.6192,-575.9428 447.149,-574.7708 444.1198,-568.4601"/>
</g>
<!-- hasPart&#45;&gt;hasOverlapWith -->
<g id="edge15" class="edge">
<title>hasPart&#45;&gt;hasOverlapWith</title>
<path fill="none" stroke="#000000" d="M367.2798,-324.1686C355.5906,-333.1221 341.3312,-344.0442 328.7191,-353.7045"/>
<polygon fill="none" stroke="#000000" points="326.5231,-350.9778 320.7126,-359.8372 330.7797,-356.5349 326.5231,-350.9778"/>
</g>
<!-- encloses -->
<g id="node29" class="node">
<title>encloses</title>
<g id="a_node29"><a xlink:href="http://emmo.info/emmo/top/mereotopology#EMMO_8c898653_1118_4682_9bbf_6cc334d16a99" xlink:title="encloses">
<polygon fill="#0079ba" stroke="#000000" points="430,-396 368,-396 368,-360 430,-360 430,-396"/>
<text text-anchor="middle" x="399" y="-374.3" font-family="Times,serif" font-size="14.00" fill="#ffffff">encloses</text>
</a>
</g>
</g>
<!-- hasPart&#45;&gt;encloses -->
<g id="edge14" class="edge">
<title>hasPart&#45;&gt;encloses</title>
<path fill="none" stroke="#000000" d="M393.0187,-324.1686C393.8743,-331.869 394.8917,-341.0257 395.8426,-349.5834"/>
<polygon fill="none" stroke="#000000" points="392.3711,-350.0344 396.9541,-359.5867 399.3283,-349.2614 392.3711,-350.0344"/>
</g>
<!-- hasSign&#45;&gt;semiotical -->
<g id="edge27" class="edge">
<title>hasSign&#45;&gt;semiotical</title>
<path fill="none" stroke="#000000" d="M584.8876,-468.1686C579.4719,-476.2921 572.9758,-486.0363 567.0079,-494.9882"/>
<polygon fill="none" stroke="#000000" points="563.9104,-493.3247 561.2755,-503.5867 569.7347,-497.2077 563.9104,-493.3247"/>
</g>
<!-- hasPhysicsDimension -->
<g id="node27" class="node">
<title>hasPhysicsDimension</title>
<g id="a_node27"><a xlink:href="http://emmo.info/emmo/middle/metrology#EMMO_bed1d005_b04e_4a90_94cf_02bc678a8569" xlink:title="hasPhysicsDimension">
<polygon fill="#0079ba" stroke="#000000" points="766,-252 630,-252 630,-216 766,-216 766,-252"/>
<text text-anchor="middle" x="698" y="-230.3" font-family="Times,serif" font-size="14.00" fill="#ffffff">hasPhysicsDimension</text>
</a>
</g>
</g>
<!-- hasPhysicsDimension&#45;&gt;hasProperty -->
<g id="edge4" class="edge">
<title>hasPhysicsDimension&#45;&gt;hasProperty</title>
<path fill="none" stroke="#000000" d="M698,-252.1686C698,-259.869 698,-269.0257 698,-277.5834"/>
<polygon fill="none" stroke="#000000" points="694.5001,-277.5867 698,-287.5867 701.5001,-277.5868 694.5001,-277.5867"/>
</g>
<!-- overcrosses -->
<g id="node28" class="node">
<title>overcrosses</title>
<g id="a_node28"><a xlink:href="http://emmo.info/emmo/top/mereotopology#EMMO_9cb984ca_48ad_4864_b09e_50d3fff19420" xlink:title="overcrosses">
<polygon fill="#0079ba" stroke="#000000" points="337,-324 257,-324 257,-288 337,-288 337,-324"/>
<text text-anchor="middle" x="297" y="-302.3" font-family="Times,serif" font-size="14.00" fill="#ffffff">overcrosses</text>
</a>
</g>
</g>
<!-- overcrosses&#45;&gt;hasOverlapWith -->
<g id="edge20" class="edge">
<title>overcrosses&#45;&gt;hasOverlapWith</title>
<path fill="none" stroke="#000000" d="M297,-324.1686C297,-331.869 297,-341.0257 297,-349.5834"/>
<polygon fill="none" stroke="#000000" points="293.5001,-349.5867 297,-359.5867 300.5001,-349.5868 293.5001,-349.5867"/>
</g>
<!-- encloses&#45;&gt;connected -->
<g id="edge16" class="edge">
<title>encloses&#45;&gt;connected</title>
<path fill="none" stroke="#000000" d="M385.1212,-396.1686C378.7864,-404.4614 371.1616,-414.443 364.2074,-423.5467"/>
<polygon fill="none" stroke="#000000" points="361.3548,-421.5153 358.0657,-431.5867 366.9175,-425.7647 361.3548,-421.5153"/>
</g>
<!-- hasSpatioTemporalDirectPart -->
<g id="node30" class="node">
<title>hasSpatioTemporalDirectPart</title>
<g id="a_node30"><a xlink:href="http://emmo.info/emmo/middle/reductionistic#EMMO_663859e5_add3_4c9e_96fb_c99399de278d" xlink:title="hasSpatioTemporalDirectPart">
<polygon fill="#0079ba" stroke="#000000" points="383,-108 205,-108 205,-72 383,-72 383,-108"/>
<text text-anchor="middle" x="294" y="-86.3" font-family="Times,serif" font-size="14.00" fill="#ffffff">hasSpatioTemporalDirectPart</text>
</a>
</g>
</g>
<!-- hasSpatioTemporalDirectPart&#45;&gt;hasSpatioTemporalPart -->
<g id="edge21" class="edge">
<title>hasSpatioTemporalDirectPart&#45;&gt;hasSpatioTemporalPart</title>
<path fill="none" stroke="#000000" d="M294,-108.1686C294,-115.869 294,-125.0257 294,-133.5834"/>
<polygon fill="none" stroke="#000000" points="290.5001,-133.5867 294,-143.5867 297.5001,-133.5868 290.5001,-133.5867"/>
</g>
<!-- hasInterpretant -->
<g id="node31" class="node">
<title>hasInterpretant</title>
<g id="a_node31"><a xlink:href="http://emmo.info/emmo/top/semiotics#EMMO_7fb7fe7e_bdf9_4eeb_adad_e384dd5285c6" xlink:title="hasInterpretant">
<polygon fill="#0079ba" stroke="#000000" points="546,-396 448,-396 448,-360 546,-360 546,-396"/>
<text text-anchor="middle" x="497" y="-374.3" font-family="Times,serif" font-size="14.00" fill="#ffffff">hasInterpretant</text>
</a>
</g>
</g>
<!-- hasInterpretant&#45;&gt;hasSign -->
<g id="edge11" class="edge">
<title>hasInterpretant&#45;&gt;hasSign</title>
<path fill="none" stroke="#000000" d="M522.2342,-396.1686C534.788,-405.2073 550.1283,-416.2524 563.6391,-425.9802"/>
<polygon fill="none" stroke="#000000" points="561.6134,-428.8345 571.7739,-431.8372 565.7036,-423.1537 561.6134,-428.8345"/>
</g>
<!-- key1 -->
<g id="node32" class="node">
<title>key1</title>
<text text-anchor="start" x="282" y="-13.8" font-family="Times,serif" font-size="14.00" fill="#000000">isA</text>
</g>
<!-- key2 -->
<g id="node33" class="node">
<title>key2</title>
<text text-anchor="start" x="361" y="-13.8" font-family="Times,serif" font-size="14.00" fill="#000000"> </text>
</g>
<!-- key1&#45;&gt;key2 -->
<g id="edge33" class="edge">
<title>key1:e&#45;&gt;key2:w</title>
<path fill="none" stroke="#000000" d="M303,-19C324,-19 331.7109,-19 348.5581,-19"/>
<polygon fill="none" stroke="#000000" points="349,-22.5001 359,-19 349,-15.5001 349,-22.5001"/>
</g>
</g>
</svg>
