<?xml version="1.0" encoding="UTF-8" standalone="no"?>
<!DOCTYPE svg PUBLIC "-//W3C//DTD SVG 1.1//EN"
 "http://www.w3.org/Graphics/SVG/1.1/DTD/svg11.dtd">
<!-- Generated by graphviz version 2.40.1 (20161225.0304)
 -->
<!-- Title: %3 Pages: 1 -->
<svg width="834pt" height="620pt"
 viewBox="0.00 0.00 833.50 620.00" xmlns="http://www.w3.org/2000/svg" xmlns:xlink="http://www.w3.org/1999/xlink">
<g id="graph0" class="graph" transform="scale(1 1) rotate(0) translate(4 616)">
<title>%3</title>
<polygon fill="#ffffff" stroke="transparent" points="-4,4 -4,-616 829.5,-616 829.5,4 -4,4"/>
<!-- disconnected -->
<g id="node1" class="node">
<title>disconnected</title>
<g id="a_node1"><a xlink:href="http://emmo.info/emmo/top/mereotopology#EMMO_517dfaf9_4970_41ac_81ee_d031627d2c7c" xlink:title="disconnected">
<polygon fill="#0079ba" stroke="#000000" points="286.5,-468 199.5,-468 199.5,-432 286.5,-432 286.5,-468"/>
<text text-anchor="middle" x="243" y="-446.3" font-family="Times,serif" font-size="14.00" fill="#ffffff">disconnected</text>
</a>
</g>
</g>
<!-- mereotopological -->
<g id="node9" class="node">
<title>mereotopological</title>
<g id="a_node9"><a xlink:href="http://emmo.info/emmo/top/mereotopology#EMMO_03212fd7_abfd_4828_9c8e_62c293052d4b" xlink:title="mereotopological">
<polygon fill="#0079ba" stroke="#000000" points="396,-540 284,-540 284,-504 396,-504 396,-540"/>
<text text-anchor="middle" x="340" y="-518.3" font-family="Times,serif" font-size="14.00" fill="#ffffff">mereotopological</text>
</a>
</g>
</g>
<!-- disconnected&#45;&gt;mereotopological -->
<g id="edge10" class="edge">
<title>disconnected&#45;&gt;mereotopological</title>
<path fill="none" stroke="#000000" d="M267.4772,-468.1686C279.5395,-477.1221 294.254,-488.0442 307.2686,-497.7045"/>
<polygon fill="none" stroke="#000000" points="305.4148,-500.6873 315.5306,-503.8372 309.587,-495.0665 305.4148,-500.6873"/>
</g>
<!-- hasIndex -->
<g id="node2" class="node">
<title>hasIndex</title>
<g id="a_node2"><a xlink:href="http://emmo.info/emmo/top/semiotics#EMMO_297999d6_c9e4_4262_9536_bd524d1c6e21" xlink:title="hasIndex">
<polygon fill="#0079ba" stroke="#000000" points="625.5,-396 560.5,-396 560.5,-360 625.5,-360 625.5,-396"/>
<text text-anchor="middle" x="593" y="-374.3" font-family="Times,serif" font-size="14.00" fill="#ffffff">hasIndex</text>
</a>
</g>
</g>
<!-- hasSign -->
<g id="node25" class="node">
<title>hasSign</title>
<g id="a_node25"><a xlink:href="http://emmo.info/emmo/top/semiotics#EMMO_60577dea_9019_4537_ac41_80b0fb563d41" xlink:title="hasSign">
<polygon fill="#0079ba" stroke="#000000" points="622.5,-468 563.5,-468 563.5,-432 622.5,-432 622.5,-468"/>
<text text-anchor="middle" x="593" y="-446.3" font-family="Times,serif" font-size="14.00" fill="#ffffff">hasSign</text>
</a>
</g>
</g>
<!-- hasIndex&#45;&gt;hasSign -->
<g id="edge3" class="edge">
<title>hasIndex&#45;&gt;hasSign</title>
<path fill="none" stroke="#000000" d="M593,-396.1686C593,-403.869 593,-413.0257 593,-421.5834"/>
<polygon fill="none" stroke="#000000" points="589.5001,-421.5867 593,-431.5867 596.5001,-421.5868 589.5001,-421.5867"/>
</g>
<!-- hasModel -->
<g id="node3" class="node">
<title>hasModel</title>
<g id="a_node3"><a xlink:href="http://emmo.info/emmo/middle/models#EMMO_24c71baf_6db6_48b9_86c8_8c70cf36db0c" xlink:title="hasModel">
<polygon fill="#0079ba" stroke="#000000" points="825.5,-324 754.5,-324 754.5,-288 825.5,-288 825.5,-324"/>
<text text-anchor="middle" x="790" y="-302.3" font-family="Times,serif" font-size="14.00" fill="#ffffff">hasModel</text>
</a>
</g>
</g>
<!-- hasIcon -->
<g id="node21" class="node">
<title>hasIcon</title>
<g id="a_node21"><a xlink:href="http://emmo.info/emmo/top/semiotics#EMMO_39c3815d_8cae_4c8f_b2ff_eeba24bec455" xlink:title="hasIcon">
<polygon fill="#0079ba" stroke="#000000" points="819.5,-396 760.5,-396 760.5,-360 819.5,-360 819.5,-396"/>
<text text-anchor="middle" x="790" y="-374.3" font-family="Times,serif" font-size="14.00" fill="#ffffff">hasIcon</text>
</a>
</g>
</g>
<!-- hasModel&#45;&gt;hasIcon -->
<g id="edge24" class="edge">
<title>hasModel&#45;&gt;hasIcon</title>
<path fill="none" stroke="#000000" d="M790,-324.1686C790,-331.869 790,-341.0257 790,-349.5834"/>
<polygon fill="none" stroke="#000000" points="786.5001,-349.5867 790,-359.5867 793.5001,-349.5868 786.5001,-349.5867"/>
</g>
<!-- hasTemporalDirectPart -->
<g id="node4" class="node">
<title>hasTemporalDirectPart</title>
<g id="a_node4"><a xlink:href="http://emmo.info/emmo/middle/reductionistic#EMMO_65a2c5b8_e4d8_4a51_b2f8_e55effc0547d" xlink:title="hasTemporalDirectPart">
<polygon fill="#0079ba" stroke="#000000" points="534.5,-108 391.5,-108 391.5,-72 534.5,-72 534.5,-108"/>
<text text-anchor="middle" x="463" y="-86.3" font-family="Times,serif" font-size="14.00" fill="#ffffff">hasTemporalDirectPart</text>
</a>
</g>
</g>
<!-- hasTemporalPart -->
<g id="node5" class="node">
<title>hasTemporalPart</title>
<g id="a_node5"><a xlink:href="http://emmo.info/emmo/top/physical#EMMO_7afbed84_7593_4a23_bd88_9d9c6b04e8f6" xlink:title="hasTemporalPart">
<polygon fill="#0079ba" stroke="#000000" points="484,-180 374,-180 374,-144 484,-144 484,-180"/>
<text text-anchor="middle" x="429" y="-158.3" font-family="Times,serif" font-size="14.00" fill="#ffffff">hasTemporalPart</text>
</a>
</g>
</g>
<!-- hasTemporalDirectPart&#45;&gt;hasTemporalPart -->
<g id="edge7" class="edge">
<title>hasTemporalDirectPart&#45;&gt;hasTemporalPart</title>
<path fill="none" stroke="#000000" d="M454.4204,-108.1686C450.6642,-116.1229 446.1743,-125.631 442.0202,-134.4277"/>
<polygon fill="none" stroke="#000000" points="438.8004,-133.0497 437.6952,-143.5867 445.1301,-136.0388 438.8004,-133.0497"/>
</g>
<!-- hasProperPart -->
<g id="node6" class="node">
<title>hasProperPart</title>
<g id="a_node6"><a xlink:href="http://emmo.info/emmo/top/mereotopology#EMMO_9380ab64_0363_4804_b13f_3a8a94119a76" xlink:title="hasProperPart">
<polygon fill="#0079ba" stroke="#000000" points="397,-252 305,-252 305,-216 397,-216 397,-252"/>
<text text-anchor="middle" x="351" y="-230.3" font-family="Times,serif" font-size="14.00" fill="#ffffff">hasProperPart</text>
</a>
</g>
</g>
<!-- hasTemporalPart&#45;&gt;hasProperPart -->
<g id="edge26" class="edge">
<title>hasTemporalPart&#45;&gt;hasProperPart</title>
<path fill="none" stroke="#000000" d="M409.3173,-180.1686C399.8949,-188.8663 388.4599,-199.4217 378.2204,-208.8735"/>
<polygon fill="none" stroke="#000000" points="375.6505,-206.4825 370.6764,-215.8372 380.3984,-211.6262 375.6505,-206.4825"/>
</g>
<!-- hasPart -->
<g id="node24" class="node">
<title>hasPart</title>
<g id="a_node24"><a xlink:href="http://emmo.info/emmo/top/mereotopology#EMMO_17e27c22_37e1_468c_9dd7_95e137f73e7f" xlink:title="hasPart">
<polygon fill="#0079ba" stroke="#000000" points="415,-324 359,-324 359,-288 415,-288 415,-324"/>
<text text-anchor="middle" x="387" y="-302.3" font-family="Times,serif" font-size="14.00" fill="#ffffff">hasPart</text>
</a>
</g>
</g>
<!-- hasProperPart&#45;&gt;hasPart -->
<g id="edge18" class="edge">
<title>hasProperPart&#45;&gt;hasPart</title>
<path fill="none" stroke="#000000" d="M360.0843,-252.1686C364.0615,-260.1229 368.8155,-269.631 373.2139,-278.4277"/>
<polygon fill="none" stroke="#000000" points="370.1907,-280.2077 377.7934,-287.5867 376.4517,-277.0772 370.1907,-280.2077"/>
</g>
<!-- hasConvention -->
<g id="node7" class="node">
<title>hasConvention</title>
<g id="a_node7"><a xlink:href="http://emmo.info/emmo/top/semiotics#EMMO_eb3518bf_f799_4f9e_8c3e_ce59af11453b" xlink:title="hasConvention">
<polygon fill="#0079ba" stroke="#000000" points="742,-396 644,-396 644,-360 742,-360 742,-396"/>
<text text-anchor="middle" x="693" y="-374.3" font-family="Times,serif" font-size="14.00" fill="#ffffff">hasConvention</text>
</a>
</g>
</g>
<!-- hasConvention&#45;&gt;hasSign -->
<g id="edge17" class="edge">
<title>hasConvention&#45;&gt;hasSign</title>
<path fill="none" stroke="#000000" d="M667.7658,-396.1686C655.212,-405.2073 639.8717,-416.2524 626.3609,-425.9802"/>
<polygon fill="none" stroke="#000000" points="624.2964,-423.1537 618.2261,-431.8372 628.3866,-428.8345 624.2964,-423.1537"/>
</g>
<!-- hasProperty -->
<g id="node8" class="node">
<title>hasProperty</title>
<g id="a_node8"><a xlink:href="http://emmo.info/emmo/middle/properties#EMMO_e1097637_70d2_4895_973f_2396f04fa204" xlink:title="hasProperty">
<polygon fill="#0079ba" stroke="#000000" points="734.5,-324 653.5,-324 653.5,-288 734.5,-288 734.5,-324"/>
<text text-anchor="middle" x="694" y="-302.3" font-family="Times,serif" font-size="14.00" fill="#ffffff">hasProperty</text>
</a>
</g>
</g>
<!-- hasProperty&#45;&gt;hasConvention -->
<g id="edge2" class="edge">
<title>hasProperty&#45;&gt;hasConvention</title>
<path fill="none" stroke="#000000" d="M693.7477,-324.1686C693.6407,-331.869 693.5135,-341.0257 693.3947,-349.5834"/>
<polygon fill="none" stroke="#000000" points="689.8951,-349.5391 693.2557,-359.5867 696.8944,-349.6363 689.8951,-349.5391"/>
</g>
<!-- EMMORelation -->
<g id="node13" class="node">
<title>EMMORelation</title>
<g id="a_node13"><a xlink:href="http://emmo.info/emmo/top/mereotopology#EMMO_ec2472ae_cf4a_46a5_8555_1556f5a6c3c5" xlink:title="EMMORelation">
<polygon fill="#0079ba" stroke="#000000" stroke-width="2" points="448,-612 342,-612 342,-576 448,-576 448,-612"/>
<text text-anchor="middle" x="395" y="-590.3" font-family="Times,serif" font-size="14.00" fill="#ffffff">EMMORelation</text>
</a>
</g>
</g>
<!-- mereotopological&#45;&gt;EMMORelation -->
<g id="edge11" class="edge">
<title>mereotopological&#45;&gt;EMMORelation</title>
<path fill="none" stroke="#000000" d="M353.8788,-540.1686C360.2136,-548.4614 367.8384,-558.443 374.7926,-567.5467"/>
<polygon fill="none" stroke="#000000" points="372.0825,-569.7647 380.9343,-575.5867 377.6452,-565.5153 372.0825,-569.7647"/>
</g>
<!-- hasQuantityValue -->
<g id="node10" class="node">
<title>hasQuantityValue</title>
<g id="a_node10"><a xlink:href="http://emmo.info/emmo/middle/metrology#EMMO_8ef3cd6d_ae58_4a8d_9fc0_ad8f49015cd0" xlink:title="hasQuantityValue">
<polygon fill="#0079ba" stroke="#000000" points="300,-36 186,-36 186,0 300,0 300,-36"/>
<text text-anchor="middle" x="243" y="-14.3" font-family="Times,serif" font-size="14.00" fill="#ffffff">hasQuantityValue</text>
</a>
</g>
</g>
<!-- hasSpatialDirectPart -->
<g id="node30" class="node">
<title>hasSpatialDirectPart</title>
<g id="a_node30"><a xlink:href="http://emmo.info/emmo/middle/reductionistic#EMMO_b2282816_b7a3_44c6_b2cb_3feff1ceb7fe" xlink:title="hasSpatialDirectPart">
<polygon fill="#0079ba" stroke="#000000" points="373,-108 245,-108 245,-72 373,-72 373,-108"/>
<text text-anchor="middle" x="309" y="-86.3" font-family="Times,serif" font-size="14.00" fill="#ffffff">hasSpatialDirectPart</text>
</a>
</g>
</g>
<!-- hasQuantityValue&#45;&gt;hasSpatialDirectPart -->
<g id="edge19" class="edge">
<title>hasQuantityValue&#45;&gt;hasSpatialDirectPart</title>
<path fill="none" stroke="#000000" d="M259.6546,-36.1686C267.4114,-44.6306 276.7802,-54.8511 285.261,-64.1029"/>
<polygon fill="none" stroke="#000000" points="282.7838,-66.5802 292.1212,-71.5867 287.9439,-61.8501 282.7838,-66.5802"/>
</g>
<!-- hasContactWith -->
<g id="node11" class="node">
<title>hasContactWith</title>
<g id="a_node11"><a xlink:href="http://emmo.info/emmo/top/mereotopology#EMMO_4d6504f1_c470_4ce9_b941_bbbebc9ab05d" xlink:title="hasContactWith">
<polygon fill="#0079ba" stroke="#000000" points="222,-396 118,-396 118,-360 222,-360 222,-396"/>
<text text-anchor="middle" x="170" y="-374.3" font-family="Times,serif" font-size="14.00" fill="#ffffff">hasContactWith</text>
</a>
</g>
</g>
<!-- connected -->
<g id="node14" class="node">
<title>connected</title>
<g id="a_node14"><a xlink:href="http://emmo.info/emmo/top/mereotopology#EMMO_6703954e_34c4_4a15_a9e7_f313760ae1a8" xlink:title="connected">
<polygon fill="#0079ba" stroke="#000000" points="375.5,-468 304.5,-468 304.5,-432 375.5,-432 375.5,-468"/>
<text text-anchor="middle" x="340" y="-446.3" font-family="Times,serif" font-size="14.00" fill="#ffffff">connected</text>
</a>
</g>
</g>
<!-- hasContactWith&#45;&gt;connected -->
<g id="edge22" class="edge">
<title>hasContactWith&#45;&gt;connected</title>
<path fill="none" stroke="#000000" d="M212.8982,-396.1686C237.93,-406.7704 269.4791,-420.1323 294.8824,-430.8914"/>
<polygon fill="none" stroke="#000000" points="293.718,-434.1991 304.2912,-434.8763 296.448,-427.7534 293.718,-434.1991"/>
</g>
<!-- hasMember -->
<g id="node12" class="node">
<title>hasMember</title>
<g id="a_node12"><a xlink:href="http://emmo.info/emmo/top/mereotopology#EMMO_6b7276a4_4b9d_440a_b577_0277539c0fc4" xlink:title="hasMember">
<polygon fill="#0079ba" stroke="#000000" points="82,-180 0,-180 0,-144 82,-144 82,-180"/>
<text text-anchor="middle" x="41" y="-158.3" font-family="Times,serif" font-size="14.00" fill="#ffffff">hasMember</text>
</a>
</g>
</g>
<!-- hasMember&#45;&gt;hasProperPart -->
<g id="edge12" class="edge">
<title>hasMember&#45;&gt;hasProperPart</title>
<path fill="none" stroke="#000000" d="M82.0517,-177.2967C85.0645,-178.2597 88.07,-179.1728 91,-180 160.3996,-199.5936 242.0584,-215.4035 295.0861,-224.7384"/>
<polygon fill="none" stroke="#000000" points="294.5185,-228.1922 304.9711,-226.4619 295.7209,-221.2962 294.5185,-228.1922"/>
</g>
<!-- connected&#45;&gt;mereotopological -->
<g id="edge14" class="edge">
<title>connected&#45;&gt;mereotopological</title>
<path fill="none" stroke="#000000" d="M340,-468.1686C340,-475.869 340,-485.0257 340,-493.5834"/>
<polygon fill="none" stroke="#000000" points="336.5001,-493.5867 340,-503.5867 343.5001,-493.5868 336.5001,-493.5867"/>
</g>
<!-- hasSpatioTemporalPart -->
<g id="node15" class="node">
<title>hasSpatioTemporalPart</title>
<g id="a_node15"><a xlink:href="http://emmo.info/emmo/top/physical#EMMO_6e046dd0_9634_4013_b2b1_9cc468087c83" xlink:title="hasSpatioTemporalPart">
<polygon fill="#0079ba" stroke="#000000" points="244,-180 100,-180 100,-144 244,-144 244,-180"/>
<text text-anchor="middle" x="172" y="-158.3" font-family="Times,serif" font-size="14.00" fill="#ffffff">hasSpatioTemporalPart</text>
</a>
</g>
</g>
<!-- hasSpatioTemporalPart&#45;&gt;hasProperPart -->
<g id="edge4" class="edge">
<title>hasSpatioTemporalPart&#45;&gt;hasProperPart</title>
<path fill="none" stroke="#000000" d="M217.1693,-180.1686C241.3223,-189.8838 271.2378,-201.9169 296.6556,-212.1408"/>
<polygon fill="none" stroke="#000000" points="295.5718,-215.4773 306.1556,-215.962 298.1841,-208.983 295.5718,-215.4773"/>
</g>
<!-- hasSpatialPart -->
<g id="node16" class="node">
<title>hasSpatialPart</title>
<g id="a_node16"><a xlink:href="http://emmo.info/emmo/top/physical#EMMO_f68030be_94b8_4c61_a161_886468558054" xlink:title="hasSpatialPart">
<polygon fill="#0079ba" stroke="#000000" points="356,-180 262,-180 262,-144 356,-144 356,-180"/>
<text text-anchor="middle" x="309" y="-158.3" font-family="Times,serif" font-size="14.00" fill="#ffffff">hasSpatialPart</text>
</a>
</g>
</g>
<!-- hasSpatialPart&#45;&gt;hasProperPart -->
<g id="edge20" class="edge">
<title>hasSpatialPart&#45;&gt;hasProperPart</title>
<path fill="none" stroke="#000000" d="M319.5984,-180.1686C324.2877,-188.2075 329.9028,-197.8334 335.0798,-206.7082"/>
<polygon fill="none" stroke="#000000" points="332.1969,-208.7125 340.2589,-215.5867 338.2434,-205.1854 332.1969,-208.7125"/>
</g>
<!-- hasOverlapWith -->
<g id="node17" class="node">
<title>hasOverlapWith</title>
<g id="a_node17"><a xlink:href="http://emmo.info/emmo/top/mereotopology#EMMO_d893d373_b579_4867_841e_1c2b31a8d2c6" xlink:title="hasOverlapWith">
<polygon fill="#0079ba" stroke="#000000" points="346,-396 240,-396 240,-360 346,-360 346,-396"/>
<text text-anchor="middle" x="293" y="-374.3" font-family="Times,serif" font-size="14.00" fill="#ffffff">hasOverlapWith</text>
</a>
</g>
</g>
<!-- hasOverlapWith&#45;&gt;connected -->
<g id="edge25" class="edge">
<title>hasOverlapWith&#45;&gt;connected</title>
<path fill="none" stroke="#000000" d="M304.8601,-396.1686C310.1629,-404.2921 316.5237,-414.0363 322.3673,-422.9882"/>
<polygon fill="none" stroke="#000000" points="319.5831,-425.1261 327.9802,-431.5867 325.4448,-421.2997 319.5831,-425.1261"/>
</g>
<!-- hasReferenceUnit -->
<g id="node18" class="node">
<title>hasReferenceUnit</title>
<g id="a_node18"><a xlink:href="http://emmo.info/emmo/middle/metrology#EMMO_67fc0a36_8dcb_4ffa_9a43_31074efa3296" xlink:title="hasReferenceUnit">
<polygon fill="#0079ba" stroke="#000000" points="431.5,-36 318.5,-36 318.5,0 431.5,0 431.5,-36"/>
<text text-anchor="middle" x="375" y="-14.3" font-family="Times,serif" font-size="14.00" fill="#ffffff">hasReferenceUnit</text>
</a>
</g>
</g>
<!-- hasReferenceUnit&#45;&gt;hasSpatialDirectPart -->
<g id="edge6" class="edge">
<title>hasReferenceUnit&#45;&gt;hasSpatialDirectPart</title>
<path fill="none" stroke="#000000" d="M358.3454,-36.1686C350.5886,-44.6306 341.2198,-54.8511 332.739,-64.1029"/>
<polygon fill="none" stroke="#000000" points="330.0561,-61.8501 325.8788,-71.5867 335.2162,-66.5802 330.0561,-61.8501"/>
</g>
<!-- hasVariable -->
<g id="node19" class="node">
<title>hasVariable</title>
<g id="a_node19"><a xlink:href="http://emmo.info/emmo/middle/math#EMMO_3446e167_c576_49d6_846c_215bb8878a55" xlink:title="hasVariable">
<polygon fill="#0079ba" stroke="#000000" points="635.5,-324 554.5,-324 554.5,-288 635.5,-288 635.5,-324"/>
<text text-anchor="middle" x="595" y="-302.3" font-family="Times,serif" font-size="14.00" fill="#ffffff">hasVariable</text>
</a>
</g>
</g>
<!-- hasVariable&#45;&gt;hasConvention -->
<g id="edge5" class="edge">
<title>hasVariable&#45;&gt;hasConvention</title>
<path fill="none" stroke="#000000" d="M619.7295,-324.1686C631.9162,-333.1221 646.7823,-344.0442 659.9312,-353.7045"/>
<polygon fill="none" stroke="#000000" points="658.1473,-356.737 668.2784,-359.8372 662.2918,-351.0958 658.1473,-356.737"/>
</g>
<!-- hasParticipant -->
<g id="node20" class="node">
<title>hasParticipant</title>
<g id="a_node20"><a xlink:href="http://emmo.info/emmo/middle/holistic#EMMO_ae2d1a96_bfa1_409a_a7d2_03d69e8a125a" xlink:title="hasParticipant">
<polygon fill="#0079ba" stroke="#000000" points="576.5,-252 483.5,-252 483.5,-216 576.5,-216 576.5,-252"/>
<text text-anchor="middle" x="530" y="-230.3" font-family="Times,serif" font-size="14.00" fill="#ffffff">hasParticipant</text>
</a>
</g>
</g>
<!-- hasParticipant&#45;&gt;hasPart -->
<g id="edge28" class="edge">
<title>hasParticipant&#45;&gt;hasPart</title>
<path fill="none" stroke="#000000" d="M493.9151,-252.1686C472.7254,-262.8376 445.9838,-276.3019 424.5461,-287.0957"/>
<polygon fill="none" stroke="#000000" points="422.7702,-284.0711 415.4125,-291.6944 425.9182,-290.3234 422.7702,-284.0711"/>
</g>
<!-- hasIcon&#45;&gt;hasSign -->
<g id="edge21" class="edge">
<title>hasIcon&#45;&gt;hasSign</title>
<path fill="none" stroke="#000000" d="M760.3271,-392.0782C757.1971,-393.4481 754.046,-394.7803 751,-396 711.2971,-411.8978 664.8804,-427.4064 632.6745,-437.6944"/>
<polygon fill="none" stroke="#000000" points="631.2172,-434.4847 622.7439,-440.8451 633.3341,-441.157 631.2172,-434.4847"/>
</g>
<!-- hasProperParticipant -->
<g id="node22" class="node">
<title>hasProperParticipant</title>
<g id="a_node22"><a xlink:href="http://emmo.info/emmo/middle/holistic#EMMO_c5aae418_1622_4d02_93c5_21159e28e6c1" xlink:title="hasProperParticipant">
<polygon fill="#0079ba" stroke="#000000" points="631.5,-180 502.5,-180 502.5,-144 631.5,-144 631.5,-180"/>
<text text-anchor="middle" x="567" y="-158.3" font-family="Times,serif" font-size="14.00" fill="#ffffff">hasProperParticipant</text>
</a>
</g>
</g>
<!-- hasProperParticipant&#45;&gt;hasProperPart -->
<g id="edge30" class="edge">
<title>hasProperParticipant&#45;&gt;hasProperPart</title>
<path fill="none" stroke="#000000" d="M512.7729,-180.0757C480.4961,-190.8346 439.6165,-204.4612 407.0272,-215.3243"/>
<polygon fill="none" stroke="#000000" points="405.5782,-212.1179 397.1982,-218.6006 407.7918,-218.7587 405.5782,-212.1179"/>
</g>
<!-- hasProperParticipant&#45;&gt;hasParticipant -->
<g id="edge29" class="edge">
<title>hasProperParticipant&#45;&gt;hasParticipant</title>
<path fill="none" stroke="#000000" d="M557.6633,-180.1686C553.5757,-188.1229 548.6896,-197.631 544.1691,-206.4277"/>
<polygon fill="none" stroke="#000000" points="540.9201,-205.0926 539.4624,-215.5867 547.1461,-208.2922 540.9201,-205.0926"/>
</g>
<!-- semiotical -->
<g id="node23" class="node">
<title>semiotical</title>
<g id="a_node23"><a xlink:href="http://emmo.info/emmo/top/semiotics#EMMO_2337e25c_3c60_43fc_a8f9_b11a3f974291" xlink:title="semiotical">
<polygon fill="#0079ba" stroke="#000000" points="581.5,-540 508.5,-540 508.5,-504 581.5,-504 581.5,-540"/>
<text text-anchor="middle" x="545" y="-518.3" font-family="Times,serif" font-size="14.00" fill="#ffffff">semiotical</text>
</a>
</g>
</g>
<!-- semiotical&#45;&gt;EMMORelation -->
<g id="edge16" class="edge">
<title>semiotical&#45;&gt;EMMORelation</title>
<path fill="none" stroke="#000000" d="M508.3059,-539.6132C488.2844,-549.2235 463.2846,-561.2234 441.8652,-571.5047"/>
<polygon fill="none" stroke="#000000" points="440.1198,-568.4601 432.6192,-575.9428 443.149,-574.7708 440.1198,-568.4601"/>
</g>
<!-- hasPart&#45;&gt;hasOverlapWith -->
<g id="edge9" class="edge">
<title>hasPart&#45;&gt;hasOverlapWith</title>
<path fill="none" stroke="#000000" d="M363.2798,-324.1686C351.5906,-333.1221 337.3312,-344.0442 324.7191,-353.7045"/>
<polygon fill="none" stroke="#000000" points="322.5231,-350.9778 316.7126,-359.8372 326.7797,-356.5349 322.5231,-350.9778"/>
</g>
<!-- encloses -->
<g id="node28" class="node">
<title>encloses</title>
<g id="a_node28"><a xlink:href="http://emmo.info/emmo/top/mereotopology#EMMO_8c898653_1118_4682_9bbf_6cc334d16a99" xlink:title="encloses">
<polygon fill="#0079ba" stroke="#000000" points="426,-396 364,-396 364,-360 426,-360 426,-396"/>
<text text-anchor="middle" x="395" y="-374.3" font-family="Times,serif" font-size="14.00" fill="#ffffff">encloses</text>
</a>
</g>
</g>
<!-- hasPart&#45;&gt;encloses -->
<g id="edge8" class="edge">
<title>hasPart&#45;&gt;encloses</title>
<path fill="none" stroke="#000000" d="M389.0187,-324.1686C389.8743,-331.869 390.8917,-341.0257 391.8426,-349.5834"/>
<polygon fill="none" stroke="#000000" points="388.3711,-350.0344 392.9541,-359.5867 395.3283,-349.2614 388.3711,-350.0344"/>
</g>
<!-- hasSign&#45;&gt;semiotical -->
<g id="edge32" class="edge">
<title>hasSign&#45;&gt;semiotical</title>
<path fill="none" stroke="#000000" d="M580.8876,-468.1686C575.4719,-476.2921 568.9758,-486.0363 563.0079,-494.9882"/>
<polygon fill="none" stroke="#000000" points="559.9104,-493.3247 557.2755,-503.5867 565.7347,-497.2077 559.9104,-493.3247"/>
</g>
<!-- hasPhysicsDimension -->
<g id="node26" class="node">
<title>hasPhysicsDimension</title>
<g id="a_node26"><a xlink:href="http://emmo.info/emmo/middle/metrology#EMMO_bed1d005_b04e_4a90_94cf_02bc678a8569" xlink:title="hasPhysicsDimension">
<polygon fill="#0079ba" stroke="#000000" points="762,-252 626,-252 626,-216 762,-216 762,-252"/>
<text text-anchor="middle" x="694" y="-230.3" font-family="Times,serif" font-size="14.00" fill="#ffffff">hasPhysicsDimension</text>
</a>
</g>
</g>
<!-- hasPhysicsDimension&#45;&gt;hasProperty -->
<g id="edge27" class="edge">
<title>hasPhysicsDimension&#45;&gt;hasProperty</title>
<path fill="none" stroke="#000000" d="M694,-252.1686C694,-259.869 694,-269.0257 694,-277.5834"/>
<polygon fill="none" stroke="#000000" points="690.5001,-277.5867 694,-287.5867 697.5001,-277.5868 690.5001,-277.5867"/>
</g>
<!-- overcrosses -->
<g id="node27" class="node">
<title>overcrosses</title>
<g id="a_node27"><a xlink:href="http://emmo.info/emmo/top/mereotopology#EMMO_9cb984ca_48ad_4864_b09e_50d3fff19420" xlink:title="overcrosses">
<polygon fill="#0079ba" stroke="#000000" points="333,-324 253,-324 253,-288 333,-288 333,-324"/>
<text text-anchor="middle" x="293" y="-302.3" font-family="Times,serif" font-size="14.00" fill="#ffffff">overcrosses</text>
</a>
</g>
</g>
<!-- overcrosses&#45;&gt;hasOverlapWith -->
<g id="edge23" class="edge">
<title>overcrosses&#45;&gt;hasOverlapWith</title>
<path fill="none" stroke="#000000" d="M293,-324.1686C293,-331.869 293,-341.0257 293,-349.5834"/>
<polygon fill="none" stroke="#000000" points="289.5001,-349.5867 293,-359.5867 296.5001,-349.5868 289.5001,-349.5867"/>
</g>
<!-- encloses&#45;&gt;connected -->
<g id="edge15" class="edge">
<title>encloses&#45;&gt;connected</title>
<path fill="none" stroke="#000000" d="M381.1212,-396.1686C374.7864,-404.4614 367.1616,-414.443 360.2074,-423.5467"/>
<polygon fill="none" stroke="#000000" points="357.3548,-421.5153 354.0657,-431.5867 362.9175,-425.7647 357.3548,-421.5153"/>
</g>
<!-- hasSpatioTemporalDirectPart -->
<g id="node29" class="node">
<title>hasSpatioTemporalDirectPart</title>
<g id="a_node29"><a xlink:href="http://emmo.info/emmo/middle/reductionistic#EMMO_663859e5_add3_4c9e_96fb_c99399de278d" xlink:title="hasSpatioTemporalDirectPart">
<polygon fill="#0079ba" stroke="#000000" points="227,-108 49,-108 49,-72 227,-72 227,-108"/>
<text text-anchor="middle" x="138" y="-86.3" font-family="Times,serif" font-size="14.00" fill="#ffffff">hasSpatioTemporalDirectPart</text>
</a>
</g>
</g>
<!-- hasSpatioTemporalDirectPart&#45;&gt;hasSpatioTemporalPart -->
<g id="edge1" class="edge">
<title>hasSpatioTemporalDirectPart&#45;&gt;hasSpatioTemporalPart</title>
<path fill="none" stroke="#000000" d="M146.5796,-108.1686C150.3358,-116.1229 154.8257,-125.631 158.9798,-134.4277"/>
<polygon fill="none" stroke="#000000" points="155.8699,-136.0388 163.3048,-143.5867 162.1996,-133.0497 155.8699,-136.0388"/>
</g>
<!-- hasSpatialDirectPart&#45;&gt;hasSpatialPart -->
<g id="edge31" class="edge">
<title>hasSpatialDirectPart&#45;&gt;hasSpatialPart</title>
<path fill="none" stroke="#000000" d="M309,-108.1686C309,-115.869 309,-125.0257 309,-133.5834"/>
<polygon fill="none" stroke="#000000" points="305.5001,-133.5867 309,-143.5867 312.5001,-133.5868 305.5001,-133.5867"/>
</g>
<!-- hasInterpretant -->
<g id="node31" class="node">
<title>hasInterpretant</title>
<g id="a_node31"><a xlink:href="http://emmo.info/emmo/top/semiotics#EMMO_7fb7fe7e_bdf9_4eeb_adad_e384dd5285c6" xlink:title="hasInterpretant">
<polygon fill="#0079ba" stroke="#000000" points="542,-396 444,-396 444,-360 542,-360 542,-396"/>
<text text-anchor="middle" x="493" y="-374.3" font-family="Times,serif" font-size="14.00" fill="#ffffff">hasInterpretant</text>
</a>
</g>
</g>
<!-- hasInterpretant&#45;&gt;hasSign -->
<g id="edge13" class="edge">
<title>hasInterpretant&#45;&gt;hasSign</title>
<path fill="none" stroke="#000000" d="M518.2342,-396.1686C530.788,-405.2073 546.1283,-416.2524 559.6391,-425.9802"/>
<polygon fill="none" stroke="#000000" points="557.6134,-428.8345 567.7739,-431.8372 561.7036,-423.1537 557.6134,-428.8345"/>
</g>
<!-- key1 -->
<g id="node32" class="node">
<title>key1</title>
<text text-anchor="start" x="468" y="-13.8" font-family="Times,serif" font-size="14.00" fill="#000000">isA</text>
</g>
<!-- key2 -->
<g id="node33" class="node">
<title>key2</title>
<text text-anchor="start" x="547" y="-13.8" font-family="Times,serif" font-size="14.00" fill="#000000"> </text>
</g>
<!-- key1&#45;&gt;key2 -->
<g id="edge33" class="edge">
<title>key1:e&#45;&gt;key2:w</title>
<path fill="none" stroke="#000000" d="M489,-19C510,-19 517.7109,-19 534.5581,-19"/>
<polygon fill="none" stroke="#000000" points="535,-22.5001 545,-19 535,-15.5001 535,-22.5001"/>
</g>
</g>
</svg>
