<?xml version="1.0" encoding="UTF-8" standalone="no"?>
<!DOCTYPE svg PUBLIC "-//W3C//DTD SVG 1.1//EN"
 "http://www.w3.org/Graphics/SVG/1.1/DTD/svg11.dtd">
<!-- Generated by graphviz version 2.40.1 (20161225.0304)
 -->
<!-- Title: %3 Pages: 1 -->
<svg width="885pt" height="620pt"
 viewBox="0.00 0.00 885.00 620.00" xmlns="http://www.w3.org/2000/svg" xmlns:xlink="http://www.w3.org/1999/xlink">
<g id="graph0" class="graph" transform="scale(1 1) rotate(0) translate(4 616)">
<title>%3</title>
<polygon fill="#ffffff" stroke="transparent" points="-4,4 -4,-616 881,-616 881,4 -4,4"/>
<!-- hasSpatioTemporalPart -->
<g id="node1" class="node">
<title>hasSpatioTemporalPart</title>
<g id="a_node1"><a xlink:href="http://emmo.info/emmo/top/physical#EMMO_6e046dd0_9634_4013_b2b1_9cc468087c83" xlink:title="hasSpatioTemporalPart">
<polygon fill="#0079ba" stroke="#000000" points="729.5,-180 585.5,-180 585.5,-144 729.5,-144 729.5,-180"/>
<text text-anchor="middle" x="657.5" y="-158.3" font-family="Times,serif" font-size="14.00" fill="#ffffff">hasSpatioTemporalPart</text>
</a>
</g>
</g>
<!-- hasProperPart -->
<g id="node4" class="node">
<title>hasProperPart</title>
<g id="a_node4"><a xlink:href="http://emmo.info/emmo/top/mereotopology#EMMO_9380ab64_0363_4804_b13f_3a8a94119a76" xlink:title="hasProperPart">
<polygon fill="#0079ba" stroke="#000000" points="630.5,-252 538.5,-252 538.5,-216 630.5,-216 630.5,-252"/>
<text text-anchor="middle" x="584.5" y="-230.3" font-family="Times,serif" font-size="14.00" fill="#ffffff">hasProperPart</text>
</a>
</g>
</g>
<!-- hasSpatioTemporalPart&#45;&gt;hasProperPart -->
<g id="edge27" class="edge">
<title>hasSpatioTemporalPart&#45;&gt;hasProperPart</title>
<path fill="none" stroke="#000000" d="M639.079,-180.1686C630.3471,-188.781 619.7683,-199.2149 610.2577,-208.5952"/>
<polygon fill="none" stroke="#000000" points="607.577,-206.3231 602.9151,-215.8372 612.4925,-211.3069 607.577,-206.3231"/>
</g>
<!-- hasIndex -->
<g id="node2" class="node">
<title>hasIndex</title>
<g id="a_node2"><a xlink:href="http://emmo.info/emmo/top/semiotics#EMMO_297999d6_c9e4_4262_9536_bd524d1c6e21" xlink:title="hasIndex">
<polygon fill="#0079ba" stroke="#000000" points="65,-396 0,-396 0,-360 65,-360 65,-396"/>
<text text-anchor="middle" x="32.5" y="-374.3" font-family="Times,serif" font-size="14.00" fill="#ffffff">hasIndex</text>
</a>
</g>
</g>
<!-- hasSign -->
<g id="node15" class="node">
<title>hasSign</title>
<g id="a_node15"><a xlink:href="http://emmo.info/emmo/top/semiotics#EMMO_60577dea_9019_4537_ac41_80b0fb563d41" xlink:title="hasSign">
<polygon fill="#0079ba" stroke="#000000" points="239,-468 180,-468 180,-432 239,-432 239,-468"/>
<text text-anchor="middle" x="209.5" y="-446.3" font-family="Times,serif" font-size="14.00" fill="#ffffff">hasSign</text>
</a>
</g>
</g>
<!-- hasIndex&#45;&gt;hasSign -->
<g id="edge23" class="edge">
<title>hasIndex&#45;&gt;hasSign</title>
<path fill="none" stroke="#000000" d="M65.1285,-392.45C67.9545,-393.6635 70.7744,-394.861 73.5,-396 105.9624,-409.5656 143.1039,-424.2575 170.3612,-434.8869"/>
<polygon fill="none" stroke="#000000" points="169.3406,-438.2454 179.9292,-438.6096 171.8789,-431.7218 169.3406,-438.2454"/>
</g>
<!-- hasVariable -->
<g id="node3" class="node">
<title>hasVariable</title>
<g id="a_node3"><a xlink:href="http://emmo.info/emmo/middle/math#EMMO_3446e167_c576_49d6_846c_215bb8878a55" xlink:title="hasVariable">
<polygon fill="#0079ba" stroke="#000000" points="316,-324 235,-324 235,-288 316,-288 316,-324"/>
<text text-anchor="middle" x="275.5" y="-302.3" font-family="Times,serif" font-size="14.00" fill="#ffffff">hasVariable</text>
</a>
</g>
</g>
<!-- hasConvention -->
<g id="node29" class="node">
<title>hasConvention</title>
<g id="a_node29"><a xlink:href="http://emmo.info/emmo/top/semiotics#EMMO_eb3518bf_f799_4f9e_8c3e_ce59af11453b" xlink:title="hasConvention">
<polygon fill="#0079ba" stroke="#000000" points="374.5,-396 276.5,-396 276.5,-360 374.5,-360 374.5,-396"/>
<text text-anchor="middle" x="325.5" y="-374.3" font-family="Times,serif" font-size="14.00" fill="#ffffff">hasConvention</text>
</a>
</g>
</g>
<!-- hasVariable&#45;&gt;hasConvention -->
<g id="edge3" class="edge">
<title>hasVariable&#45;&gt;hasConvention</title>
<path fill="none" stroke="#000000" d="M288.1171,-324.1686C293.8172,-332.3768 300.6663,-342.2394 306.9359,-351.2677"/>
<polygon fill="none" stroke="#000000" points="304.1342,-353.3694 312.713,-359.5867 309.8838,-349.3766 304.1342,-353.3694"/>
</g>
<!-- hasPart -->
<g id="node30" class="node">
<title>hasPart</title>
<g id="a_node30"><a xlink:href="http://emmo.info/emmo/top/mereotopology#EMMO_17e27c22_37e1_468c_9dd7_95e137f73e7f" xlink:title="hasPart">
<polygon fill="#0079ba" stroke="#000000" points="689.5,-324 633.5,-324 633.5,-288 689.5,-288 689.5,-324"/>
<text text-anchor="middle" x="661.5" y="-302.3" font-family="Times,serif" font-size="14.00" fill="#ffffff">hasPart</text>
</a>
</g>
</g>
<!-- hasProperPart&#45;&gt;hasPart -->
<g id="edge15" class="edge">
<title>hasProperPart&#45;&gt;hasPart</title>
<path fill="none" stroke="#000000" d="M603.9304,-252.1686C613.232,-260.8663 624.5204,-271.4217 634.6286,-280.8735"/>
<polygon fill="none" stroke="#000000" points="632.3811,-283.5637 642.0759,-287.8372 637.1621,-278.4507 632.3811,-283.5637"/>
</g>
<!-- hasContactWith -->
<g id="node5" class="node">
<title>hasContactWith</title>
<g id="a_node5"><a xlink:href="http://emmo.info/emmo/top/mereotopology#EMMO_4d6504f1_c470_4ce9_b941_bbbebc9ab05d" xlink:title="hasContactWith">
<polygon fill="#0079ba" stroke="#000000" points="496.5,-396 392.5,-396 392.5,-360 496.5,-360 496.5,-396"/>
<text text-anchor="middle" x="444.5" y="-374.3" font-family="Times,serif" font-size="14.00" fill="#ffffff">hasContactWith</text>
</a>
</g>
</g>
<!-- connected -->
<g id="node18" class="node">
<title>connected</title>
<g id="a_node18"><a xlink:href="http://emmo.info/emmo/top/mereotopology#EMMO_6703954e_34c4_4a15_a9e7_f313760ae1a8" xlink:title="connected">
<polygon fill="#0079ba" stroke="#000000" points="541,-468 470,-468 470,-432 541,-432 541,-468"/>
<text text-anchor="middle" x="505.5" y="-446.3" font-family="Times,serif" font-size="14.00" fill="#ffffff">connected</text>
</a>
</g>
</g>
<!-- hasContactWith&#45;&gt;connected -->
<g id="edge16" class="edge">
<title>hasContactWith&#45;&gt;connected</title>
<path fill="none" stroke="#000000" d="M459.8929,-396.1686C466.9904,-404.546 475.548,-414.6469 483.324,-423.8251"/>
<polygon fill="none" stroke="#000000" points="480.7652,-426.2193 489.8999,-431.5867 486.1061,-421.6944 480.7652,-426.2193"/>
</g>
<!-- hasIcon -->
<g id="node6" class="node">
<title>hasIcon</title>
<g id="a_node6"><a xlink:href="http://emmo.info/emmo/top/semiotics#EMMO_39c3815d_8cae_4c8f_b2ff_eeba24bec455" xlink:title="hasIcon">
<polygon fill="#0079ba" stroke="#000000" points="142,-396 83,-396 83,-360 142,-360 142,-396"/>
<text text-anchor="middle" x="112.5" y="-374.3" font-family="Times,serif" font-size="14.00" fill="#ffffff">hasIcon</text>
</a>
</g>
</g>
<!-- hasIcon&#45;&gt;hasSign -->
<g id="edge14" class="edge">
<title>hasIcon&#45;&gt;hasSign</title>
<path fill="none" stroke="#000000" d="M136.9772,-396.1686C149.0395,-405.1221 163.754,-416.0442 176.7686,-425.7045"/>
<polygon fill="none" stroke="#000000" points="174.9148,-428.6873 185.0306,-431.8372 179.087,-423.0665 174.9148,-428.6873"/>
</g>
<!-- hasOverlapWith -->
<g id="node7" class="node">
<title>hasOverlapWith</title>
<g id="a_node7"><a xlink:href="http://emmo.info/emmo/top/mereotopology#EMMO_d893d373_b579_4867_841e_1c2b31a8d2c6" xlink:title="hasOverlapWith">
<polygon fill="#0079ba" stroke="#000000" points="620.5,-396 514.5,-396 514.5,-360 620.5,-360 620.5,-396"/>
<text text-anchor="middle" x="567.5" y="-374.3" font-family="Times,serif" font-size="14.00" fill="#ffffff">hasOverlapWith</text>
</a>
</g>
</g>
<!-- hasOverlapWith&#45;&gt;connected -->
<g id="edge7" class="edge">
<title>hasOverlapWith&#45;&gt;connected</title>
<path fill="none" stroke="#000000" d="M551.8548,-396.1686C544.6409,-404.546 535.943,-414.6469 528.0395,-423.8251"/>
<polygon fill="none" stroke="#000000" points="525.2289,-421.7252 521.3559,-431.5867 530.5333,-426.2929 525.2289,-421.7252"/>
</g>
<!-- overcrosses -->
<g id="node8" class="node">
<title>overcrosses</title>
<g id="a_node8"><a xlink:href="http://emmo.info/emmo/top/mereotopology#EMMO_9cb984ca_48ad_4864_b09e_50d3fff19420" xlink:title="overcrosses">
<polygon fill="#0079ba" stroke="#000000" points="607.5,-324 527.5,-324 527.5,-288 607.5,-288 607.5,-324"/>
<text text-anchor="middle" x="567.5" y="-302.3" font-family="Times,serif" font-size="14.00" fill="#ffffff">overcrosses</text>
</a>
</g>
</g>
<!-- overcrosses&#45;&gt;hasOverlapWith -->
<g id="edge9" class="edge">
<title>overcrosses&#45;&gt;hasOverlapWith</title>
<path fill="none" stroke="#000000" d="M567.5,-324.1686C567.5,-331.869 567.5,-341.0257 567.5,-349.5834"/>
<polygon fill="none" stroke="#000000" points="564.0001,-349.5867 567.5,-359.5867 571.0001,-349.5868 564.0001,-349.5867"/>
</g>
<!-- mereotopological -->
<g id="node9" class="node">
<title>mereotopological</title>
<g id="a_node9"><a xlink:href="http://emmo.info/emmo/top/mereotopology#EMMO_03212fd7_abfd_4828_9c8e_62c293052d4b" xlink:title="mereotopological">
<polygon fill="#0079ba" stroke="#000000" points="457.5,-540 345.5,-540 345.5,-504 457.5,-504 457.5,-540"/>
<text text-anchor="middle" x="401.5" y="-518.3" font-family="Times,serif" font-size="14.00" fill="#ffffff">mereotopological</text>
</a>
</g>
</g>
<!-- EMMORelation -->
<g id="node22" class="node">
<title>EMMORelation</title>
<g id="a_node22"><a xlink:href="http://emmo.info/emmo/top/mereotopology#EMMO_ec2472ae_cf4a_46a5_8555_1556f5a6c3c5" xlink:title="EMMORelation">
<polygon fill="#0079ba" stroke="#000000" stroke-width="2" points="385.5,-612 279.5,-612 279.5,-576 385.5,-576 385.5,-612"/>
<text text-anchor="middle" x="332.5" y="-590.3" font-family="Times,serif" font-size="14.00" fill="#ffffff">EMMORelation</text>
</a>
</g>
</g>
<!-- mereotopological&#45;&gt;EMMORelation -->
<g id="edge24" class="edge">
<title>mereotopological&#45;&gt;EMMORelation</title>
<path fill="none" stroke="#000000" d="M384.0884,-540.1686C375.979,-548.6306 366.1844,-558.8511 357.318,-568.1029"/>
<polygon fill="none" stroke="#000000" points="354.5382,-565.9451 350.146,-575.5867 359.5921,-570.7885 354.5382,-565.9451"/>
</g>
<!-- hasQuantityValue -->
<g id="node10" class="node">
<title>hasQuantityValue</title>
<g id="a_node10"><a xlink:href="http://emmo.info/emmo/middle/metrology#EMMO_8ef3cd6d_ae58_4a8d_9fc0_ad8f49015cd0" xlink:title="hasQuantityValue">
<polygon fill="#0079ba" stroke="#000000" points="283.5,-36 169.5,-36 169.5,0 283.5,0 283.5,-36"/>
<text text-anchor="middle" x="226.5" y="-14.3" font-family="Times,serif" font-size="14.00" fill="#ffffff">hasQuantityValue</text>
</a>
</g>
</g>
<!-- hasSpatialDirectPart -->
<g id="node26" class="node">
<title>hasSpatialDirectPart</title>
<g id="a_node26"><a xlink:href="http://emmo.info/emmo/middle/reductionistic#EMMO_b2282816_b7a3_44c6_b2cb_3feff1ceb7fe" xlink:title="hasSpatialDirectPart">
<polygon fill="#0079ba" stroke="#000000" points="356.5,-108 228.5,-108 228.5,-72 356.5,-72 356.5,-108"/>
<text text-anchor="middle" x="292.5" y="-86.3" font-family="Times,serif" font-size="14.00" fill="#ffffff">hasSpatialDirectPart</text>
</a>
</g>
</g>
<!-- hasQuantityValue&#45;&gt;hasSpatialDirectPart -->
<g id="edge8" class="edge">
<title>hasQuantityValue&#45;&gt;hasSpatialDirectPart</title>
<path fill="none" stroke="#000000" d="M243.1546,-36.1686C250.9114,-44.6306 260.2802,-54.8511 268.761,-64.1029"/>
<polygon fill="none" stroke="#000000" points="266.2838,-66.5802 275.6212,-71.5867 271.4439,-61.8501 266.2838,-66.5802"/>
</g>
<!-- semiotical -->
<g id="node11" class="node">
<title>semiotical</title>
<g id="a_node11"><a xlink:href="http://emmo.info/emmo/top/semiotics#EMMO_2337e25c_3c60_43fc_a8f9_b11a3f974291" xlink:title="semiotical">
<polygon fill="#0079ba" stroke="#000000" points="314,-540 241,-540 241,-504 314,-504 314,-540"/>
<text text-anchor="middle" x="277.5" y="-518.3" font-family="Times,serif" font-size="14.00" fill="#ffffff">semiotical</text>
</a>
</g>
</g>
<!-- semiotical&#45;&gt;EMMORelation -->
<g id="edge29" class="edge">
<title>semiotical&#45;&gt;EMMORelation</title>
<path fill="none" stroke="#000000" d="M291.3788,-540.1686C297.7136,-548.4614 305.3384,-558.443 312.2926,-567.5467"/>
<polygon fill="none" stroke="#000000" points="309.5825,-569.7647 318.4343,-575.5867 315.1452,-565.5153 309.5825,-569.7647"/>
</g>
<!-- encloses -->
<g id="node12" class="node">
<title>encloses</title>
<g id="a_node12"><a xlink:href="http://emmo.info/emmo/top/mereotopology#EMMO_8c898653_1118_4682_9bbf_6cc334d16a99" xlink:title="encloses">
<polygon fill="#0079ba" stroke="#000000" points="700.5,-396 638.5,-396 638.5,-360 700.5,-360 700.5,-396"/>
<text text-anchor="middle" x="669.5" y="-374.3" font-family="Times,serif" font-size="14.00" fill="#ffffff">encloses</text>
</a>
</g>
</g>
<!-- encloses&#45;&gt;connected -->
<g id="edge22" class="edge">
<title>encloses&#45;&gt;connected</title>
<path fill="none" stroke="#000000" d="M638.0732,-392.1853C635.1768,-393.4797 632.2853,-394.7669 629.5,-396 603.3643,-407.5709 574.0471,-420.3473 550.4833,-430.5666"/>
<polygon fill="none" stroke="#000000" points="548.8785,-427.4475 541.0947,-434.6351 551.6619,-433.8704 548.8785,-427.4475"/>
</g>
<!-- hasSpatioTemporalDirectPart -->
<g id="node13" class="node">
<title>hasSpatioTemporalDirectPart</title>
<g id="a_node13"><a xlink:href="http://emmo.info/emmo/middle/reductionistic#EMMO_663859e5_add3_4c9e_96fb_c99399de278d" xlink:title="hasSpatioTemporalDirectPart">
<polygon fill="#0079ba" stroke="#000000" points="763.5,-108 585.5,-108 585.5,-72 763.5,-72 763.5,-108"/>
<text text-anchor="middle" x="674.5" y="-86.3" font-family="Times,serif" font-size="14.00" fill="#ffffff">hasSpatioTemporalDirectPart</text>
</a>
</g>
</g>
<!-- hasSpatioTemporalDirectPart&#45;&gt;hasSpatioTemporalPart -->
<g id="edge1" class="edge">
<title>hasSpatioTemporalDirectPart&#45;&gt;hasSpatioTemporalPart</title>
<path fill="none" stroke="#000000" d="M670.2102,-108.1686C668.392,-115.869 666.2301,-125.0257 664.2095,-133.5834"/>
<polygon fill="none" stroke="#000000" points="660.7392,-133.05 661.8476,-143.5867 667.5519,-134.6586 660.7392,-133.05"/>
</g>
<!-- hasModel -->
<g id="node14" class="node">
<title>hasModel</title>
<g id="a_node14"><a xlink:href="http://emmo.info/emmo/middle/models#EMMO_24c71baf_6db6_48b9_86c8_8c70cf36db0c" xlink:title="hasModel">
<polygon fill="#0079ba" stroke="#000000" points="148,-324 77,-324 77,-288 148,-288 148,-324"/>
<text text-anchor="middle" x="112.5" y="-302.3" font-family="Times,serif" font-size="14.00" fill="#ffffff">hasModel</text>
</a>
</g>
</g>
<!-- hasModel&#45;&gt;hasIcon -->
<g id="edge20" class="edge">
<title>hasModel&#45;&gt;hasIcon</title>
<path fill="none" stroke="#000000" d="M112.5,-324.1686C112.5,-331.869 112.5,-341.0257 112.5,-349.5834"/>
<polygon fill="none" stroke="#000000" points="109.0001,-349.5867 112.5,-359.5867 116.0001,-349.5868 109.0001,-349.5867"/>
</g>
<!-- hasSign&#45;&gt;semiotical -->
<g id="edge26" class="edge">
<title>hasSign&#45;&gt;semiotical</title>
<path fill="none" stroke="#000000" d="M226.6593,-468.1686C234.6511,-476.6306 244.3038,-486.8511 253.0416,-496.1029"/>
<polygon fill="none" stroke="#000000" points="250.6989,-498.7198 260.1097,-503.5867 255.788,-493.9134 250.6989,-498.7198"/>
</g>
<!-- hasParticipant -->
<g id="node16" class="node">
<title>hasParticipant</title>
<g id="a_node16"><a xlink:href="http://emmo.info/emmo/middle/holistic#EMMO_ae2d1a96_bfa1_409a_a7d2_03d69e8a125a" xlink:title="hasParticipant">
<polygon fill="#0079ba" stroke="#000000" points="784,-252 691,-252 691,-216 784,-216 784,-252"/>
<text text-anchor="middle" x="737.5" y="-230.3" font-family="Times,serif" font-size="14.00" fill="#ffffff">hasParticipant</text>
</a>
</g>
</g>
<!-- hasParticipant&#45;&gt;hasPart -->
<g id="edge11" class="edge">
<title>hasParticipant&#45;&gt;hasPart</title>
<path fill="none" stroke="#000000" d="M718.322,-252.1686C709.1412,-260.8663 697.9994,-271.4217 688.0224,-280.8735"/>
<polygon fill="none" stroke="#000000" points="685.5243,-278.4189 680.6719,-287.8372 690.3385,-283.5005 685.5243,-278.4189"/>
</g>
<!-- hasSpatialPart -->
<g id="node17" class="node">
<title>hasSpatialPart</title>
<g id="a_node17"><a xlink:href="http://emmo.info/emmo/top/physical#EMMO_f68030be_94b8_4c61_a161_886468558054" xlink:title="hasSpatialPart">
<polygon fill="#0079ba" stroke="#000000" points="339.5,-180 245.5,-180 245.5,-144 339.5,-144 339.5,-180"/>
<text text-anchor="middle" x="292.5" y="-158.3" font-family="Times,serif" font-size="14.00" fill="#ffffff">hasSpatialPart</text>
</a>
</g>
</g>
<!-- hasSpatialPart&#45;&gt;hasProperPart -->
<g id="edge10" class="edge">
<title>hasSpatialPart&#45;&gt;hasProperPart</title>
<path fill="none" stroke="#000000" d="M339.7706,-177.5098C342.7168,-178.3784 345.6442,-179.2159 348.5,-180 409.4216,-196.7275 480.1617,-212.4279 528.1887,-222.5407"/>
<polygon fill="none" stroke="#000000" points="527.5756,-225.9882 538.0807,-224.6123 529.0104,-219.1368 527.5756,-225.9882"/>
</g>
<!-- connected&#45;&gt;mereotopological -->
<g id="edge6" class="edge">
<title>connected&#45;&gt;mereotopological</title>
<path fill="none" stroke="#000000" d="M479.2564,-468.1686C466.2005,-477.2073 450.2465,-488.2524 436.1953,-497.9802"/>
<polygon fill="none" stroke="#000000" points="433.9649,-495.2674 427.7352,-503.8372 437.9494,-501.0227 433.9649,-495.2674"/>
</g>
<!-- hasProperty -->
<g id="node19" class="node">
<title>hasProperty</title>
<g id="a_node19"><a xlink:href="http://emmo.info/emmo/middle/properties#EMMO_e1097637_70d2_4895_973f_2396f04fa204" xlink:title="hasProperty">
<polygon fill="#0079ba" stroke="#000000" points="415,-324 334,-324 334,-288 415,-288 415,-324"/>
<text text-anchor="middle" x="374.5" y="-302.3" font-family="Times,serif" font-size="14.00" fill="#ffffff">hasProperty</text>
</a>
</g>
</g>
<!-- hasProperty&#45;&gt;hasConvention -->
<g id="edge19" class="edge">
<title>hasProperty&#45;&gt;hasConvention</title>
<path fill="none" stroke="#000000" d="M362.1352,-324.1686C356.5491,-332.3768 349.837,-342.2394 343.6928,-351.2677"/>
<polygon fill="none" stroke="#000000" points="340.764,-349.3504 338.0313,-359.5867 346.551,-353.2888 340.764,-349.3504"/>
</g>
<!-- hasMember -->
<g id="node20" class="node">
<title>hasMember</title>
<g id="a_node20"><a xlink:href="http://emmo.info/emmo/top/mereotopology#EMMO_6b7276a4_4b9d_440a_b577_0277539c0fc4" xlink:title="hasMember">
<polygon fill="#0079ba" stroke="#000000" points="439.5,-180 357.5,-180 357.5,-144 439.5,-144 439.5,-180"/>
<text text-anchor="middle" x="398.5" y="-158.3" font-family="Times,serif" font-size="14.00" fill="#ffffff">hasMember</text>
</a>
</g>
</g>
<!-- hasMember&#45;&gt;hasProperPart -->
<g id="edge2" class="edge">
<title>hasMember&#45;&gt;hasProperPart</title>
<path fill="none" stroke="#000000" d="M439.7794,-177.9791C466.03,-188.1406 500.3416,-201.4226 528.9668,-212.5033"/>
<polygon fill="none" stroke="#000000" points="527.8474,-215.823 538.4366,-216.169 530.3744,-209.295 527.8474,-215.823"/>
</g>
<!-- hasInterpretant -->
<g id="node21" class="node">
<title>hasInterpretant</title>
<g id="a_node21"><a xlink:href="http://emmo.info/emmo/top/semiotics#EMMO_7fb7fe7e_bdf9_4eeb_adad_e384dd5285c6" xlink:title="hasInterpretant">
<polygon fill="#0079ba" stroke="#000000" points="258.5,-396 160.5,-396 160.5,-360 258.5,-360 258.5,-396"/>
<text text-anchor="middle" x="209.5" y="-374.3" font-family="Times,serif" font-size="14.00" fill="#ffffff">hasInterpretant</text>
</a>
</g>
</g>
<!-- hasInterpretant&#45;&gt;hasSign -->
<g id="edge21" class="edge">
<title>hasInterpretant&#45;&gt;hasSign</title>
<path fill="none" stroke="#000000" d="M209.5,-396.1686C209.5,-403.869 209.5,-413.0257 209.5,-421.5834"/>
<polygon fill="none" stroke="#000000" points="206.0001,-421.5867 209.5,-431.5867 213.0001,-421.5868 206.0001,-421.5867"/>
</g>
<!-- hasProperParticipant -->
<g id="node23" class="node">
<title>hasProperParticipant</title>
<g id="a_node23"><a xlink:href="http://emmo.info/emmo/middle/holistic#EMMO_c5aae418_1622_4d02_93c5_21159e28e6c1" xlink:title="hasProperParticipant">
<polygon fill="#0079ba" stroke="#000000" points="877,-180 748,-180 748,-144 877,-144 877,-180"/>
<text text-anchor="middle" x="812.5" y="-158.3" font-family="Times,serif" font-size="14.00" fill="#ffffff">hasProperParticipant</text>
</a>
</g>
</g>
<!-- hasProperParticipant&#45;&gt;hasProperPart -->
<g id="edge31" class="edge">
<title>hasProperParticipant&#45;&gt;hasProperPart</title>
<path fill="none" stroke="#000000" d="M755.2603,-180.0757C720.0526,-191.1939 675.1476,-205.3744 640.2236,-216.4031"/>
<polygon fill="none" stroke="#000000" points="639.1361,-213.0761 630.6542,-219.425 641.244,-219.7511 639.1361,-213.0761"/>
</g>
<!-- hasProperParticipant&#45;&gt;hasParticipant -->
<g id="edge30" class="edge">
<title>hasProperParticipant&#45;&gt;hasParticipant</title>
<path fill="none" stroke="#000000" d="M793.5743,-180.1686C784.5143,-188.8663 773.5191,-199.4217 763.6735,-208.8735"/>
<polygon fill="none" stroke="#000000" points="761.2096,-206.387 756.4196,-215.8372 766.0574,-211.4367 761.2096,-206.387"/>
</g>
<!-- hasPhysicsDimension -->
<g id="node24" class="node">
<title>hasPhysicsDimension</title>
<g id="a_node24"><a xlink:href="http://emmo.info/emmo/middle/metrology#EMMO_bed1d005_b04e_4a90_94cf_02bc678a8569" xlink:title="hasPhysicsDimension">
<polygon fill="#0079ba" stroke="#000000" points="442.5,-252 306.5,-252 306.5,-216 442.5,-216 442.5,-252"/>
<text text-anchor="middle" x="374.5" y="-230.3" font-family="Times,serif" font-size="14.00" fill="#ffffff">hasPhysicsDimension</text>
</a>
</g>
</g>
<!-- hasPhysicsDimension&#45;&gt;hasProperty -->
<g id="edge25" class="edge">
<title>hasPhysicsDimension&#45;&gt;hasProperty</title>
<path fill="none" stroke="#000000" d="M374.5,-252.1686C374.5,-259.869 374.5,-269.0257 374.5,-277.5834"/>
<polygon fill="none" stroke="#000000" points="371.0001,-277.5867 374.5,-287.5867 378.0001,-277.5868 371.0001,-277.5867"/>
</g>
<!-- hasTemporalDirectPart -->
<g id="node25" class="node">
<title>hasTemporalDirectPart</title>
<g id="a_node25"><a xlink:href="http://emmo.info/emmo/middle/reductionistic#EMMO_65a2c5b8_e4d8_4a51_b2f8_e55effc0547d" xlink:title="hasTemporalDirectPart">
<polygon fill="#0079ba" stroke="#000000" points="567,-108 424,-108 424,-72 567,-72 567,-108"/>
<text text-anchor="middle" x="495.5" y="-86.3" font-family="Times,serif" font-size="14.00" fill="#ffffff">hasTemporalDirectPart</text>
</a>
</g>
</g>
<!-- hasTemporalPart -->
<g id="node28" class="node">
<title>hasTemporalPart</title>
<g id="a_node28"><a xlink:href="http://emmo.info/emmo/top/physical#EMMO_7afbed84_7593_4a23_bd88_9d9c6b04e8f6" xlink:title="hasTemporalPart">
<polygon fill="#0079ba" stroke="#000000" points="567.5,-180 457.5,-180 457.5,-144 567.5,-144 567.5,-180"/>
<text text-anchor="middle" x="512.5" y="-158.3" font-family="Times,serif" font-size="14.00" fill="#ffffff">hasTemporalPart</text>
</a>
</g>
</g>
<!-- hasTemporalDirectPart&#45;&gt;hasTemporalPart -->
<g id="edge4" class="edge">
<title>hasTemporalDirectPart&#45;&gt;hasTemporalPart</title>
<path fill="none" stroke="#000000" d="M499.7898,-108.1686C501.608,-115.869 503.7699,-125.0257 505.7905,-133.5834"/>
<polygon fill="none" stroke="#000000" points="502.4481,-134.6586 508.1524,-143.5867 509.2608,-133.05 502.4481,-134.6586"/>
</g>
<!-- hasSpatialDirectPart&#45;&gt;hasSpatialPart -->
<g id="edge28" class="edge">
<title>hasSpatialDirectPart&#45;&gt;hasSpatialPart</title>
<path fill="none" stroke="#000000" d="M292.5,-108.1686C292.5,-115.869 292.5,-125.0257 292.5,-133.5834"/>
<polygon fill="none" stroke="#000000" points="289.0001,-133.5867 292.5,-143.5867 296.0001,-133.5868 289.0001,-133.5867"/>
</g>
<!-- hasReferenceUnit -->
<g id="node27" class="node">
<title>hasReferenceUnit</title>
<g id="a_node27"><a xlink:href="http://emmo.info/emmo/middle/metrology#EMMO_67fc0a36_8dcb_4ffa_9a43_31074efa3296" xlink:title="hasReferenceUnit">
<polygon fill="#0079ba" stroke="#000000" points="415,-36 302,-36 302,0 415,0 415,-36"/>
<text text-anchor="middle" x="358.5" y="-14.3" font-family="Times,serif" font-size="14.00" fill="#ffffff">hasReferenceUnit</text>
</a>
</g>
</g>
<!-- hasReferenceUnit&#45;&gt;hasSpatialDirectPart -->
<g id="edge5" class="edge">
<title>hasReferenceUnit&#45;&gt;hasSpatialDirectPart</title>
<path fill="none" stroke="#000000" d="M341.8454,-36.1686C334.0886,-44.6306 324.7198,-54.8511 316.239,-64.1029"/>
<polygon fill="none" stroke="#000000" points="313.5561,-61.8501 309.3788,-71.5867 318.7162,-66.5802 313.5561,-61.8501"/>
</g>
<!-- hasTemporalPart&#45;&gt;hasProperPart -->
<g id="edge17" class="edge">
<title>hasTemporalPart&#45;&gt;hasProperPart</title>
<path fill="none" stroke="#000000" d="M530.6686,-180.1686C539.2152,-188.7152 549.5557,-199.0557 558.8802,-208.3802"/>
<polygon fill="none" stroke="#000000" points="556.5408,-210.9905 566.0867,-215.5867 561.4905,-206.0408 556.5408,-210.9905"/>
</g>
<!-- hasConvention&#45;&gt;hasSign -->
<g id="edge32" class="edge">
<title>hasConvention&#45;&gt;hasSign</title>
<path fill="none" stroke="#000000" d="M296.2283,-396.1686C281.3912,-405.3779 263.1985,-416.6699 247.3138,-426.5294"/>
<polygon fill="none" stroke="#000000" points="245.413,-423.5898 238.7623,-431.8372 249.1045,-429.5372 245.413,-423.5898"/>
</g>
<!-- hasPart&#45;&gt;hasOverlapWith -->
<g id="edge13" class="edge">
<title>hasPart&#45;&gt;hasOverlapWith</title>
<path fill="none" stroke="#000000" d="M637.7798,-324.1686C626.0906,-333.1221 611.8312,-344.0442 599.2191,-353.7045"/>
<polygon fill="none" stroke="#000000" points="597.0231,-350.9778 591.2126,-359.8372 601.2797,-356.5349 597.0231,-350.9778"/>
</g>
<!-- hasPart&#45;&gt;encloses -->
<g id="edge12" class="edge">
<title>hasPart&#45;&gt;encloses</title>
<path fill="none" stroke="#000000" d="M663.5187,-324.1686C664.3743,-331.869 665.3917,-341.0257 666.3426,-349.5834"/>
<polygon fill="none" stroke="#000000" points="662.8711,-350.0344 667.4541,-359.5867 669.8283,-349.2614 662.8711,-350.0344"/>
</g>
<!-- disconnected -->
<g id="node31" class="node">
<title>disconnected</title>
<g id="a_node31"><a xlink:href="http://emmo.info/emmo/top/mereotopology#EMMO_517dfaf9_4970_41ac_81ee_d031627d2c7c" xlink:title="disconnected">
<polygon fill="#0079ba" stroke="#000000" points="445,-468 358,-468 358,-432 445,-432 445,-468"/>
<text text-anchor="middle" x="401.5" y="-446.3" font-family="Times,serif" font-size="14.00" fill="#ffffff">disconnected</text>
</a>
</g>
</g>
<!-- disconnected&#45;&gt;mereotopological -->
<g id="edge18" class="edge">
<title>disconnected&#45;&gt;mereotopological</title>
<path fill="none" stroke="#000000" d="M401.5,-468.1686C401.5,-475.869 401.5,-485.0257 401.5,-493.5834"/>
<polygon fill="none" stroke="#000000" points="398.0001,-493.5867 401.5,-503.5867 405.0001,-493.5868 398.0001,-493.5867"/>
</g>
<!-- key1 -->
<g id="node32" class="node">
<title>key1</title>
<text text-anchor="start" x="451.5" y="-13.8" font-family="Times,serif" font-size="14.00" fill="#000000">isA</text>
</g>
<!-- key2 -->
<g id="node33" class="node">
<title>key2</title>
<text text-anchor="start" x="530.5" y="-13.8" font-family="Times,serif" font-size="14.00" fill="#000000"> </text>
</g>
<!-- key1&#45;&gt;key2 -->
<g id="edge33" class="edge">
<title>key1:e&#45;&gt;key2:w</title>
<path fill="none" stroke="#000000" d="M472.5,-19C493.5,-19 501.2109,-19 518.0581,-19"/>
<polygon fill="none" stroke="#000000" points="518.5,-22.5001 528.5,-19 518.5,-15.5001 518.5,-22.5001"/>
</g>
</g>
</svg>
