<?xml version="1.0" encoding="UTF-8" standalone="no"?>
<!DOCTYPE svg PUBLIC "-//W3C//DTD SVG 1.1//EN"
 "http://www.w3.org/Graphics/SVG/1.1/DTD/svg11.dtd">
<!-- Generated by graphviz version 2.40.1 (20161225.0304)
 -->
<!-- Title: %3 Pages: 1 -->
<svg width="577pt" height="308pt"
 viewBox="0.00 0.00 577.45 308.00" xmlns="http://www.w3.org/2000/svg" xmlns:xlink="http://www.w3.org/1999/xlink">
<g id="graph0" class="graph" transform="scale(1 1) rotate(0) translate(4 304)">
<title>%3</title>
<polygon fill="#ffffff" stroke="transparent" points="-4,4 -4,-304 573.4458,-304 573.4458,4 -4,4"/>
<!-- Physical -->
<g id="node1" class="node">
<title>Physical</title>
<g id="a_node1"><a xlink:href="http://emmo.info/emmo/top/physical#EMMO_c5ddfdba_c074_4aa4_ad6b_1ac4942d300d" xlink:title="Physical">
<ellipse fill="#ffffcc" stroke="#000000" cx="245.4458" cy="-138" rx="40.0939" ry="18"/>
<text text-anchor="middle" x="245.4458" y="-134.3" font-family="Times,serif" font-size="14.00" fill="#000000">Physical</text>
</a>
</g>
</g>
<!-- Physical&#45;&gt;Physical -->
<g id="edge7" class="edge">
<title>Physical&#45;&gt;Physical</title>
<path fill="none" stroke="#ff00ff" d="M273.9397,-125.1007C289.4949,-122.8018 303.7422,-127.1016 303.7422,-138 303.7422,-146.4293 295.2194,-150.9112 284.1605,-151.4457"/>
<polygon fill="#ff00ff" stroke="#ff00ff" points="284.1123,-147.9382 273.9397,-150.8993 283.7385,-154.9282 284.1123,-147.9382"/>
</g>
<!-- Elementary -->
<g id="node2" class="node">
<title>Elementary</title>
<g id="a_node2"><a xlink:href="http://emmo.info/emmo/top/physical#EMMO_0f795e3e_c602_4577_9a43_d5a231aa1360" xlink:title="Elementary">
<ellipse fill="#ffffcc" stroke="#000000" stroke-width="2" cx="175.4458" cy="-42" rx="51.9908" ry="18"/>
<text text-anchor="middle" x="175.4458" y="-38.3" font-family="Times,serif" font-size="14.00" fill="#000000">Elementary</text>
</a>
</g>
</g>
<!-- Physical&#45;&gt;Elementary -->
<g id="edge6" class="edge">
<title>Physical&#45;&gt;Elementary</title>
<path fill="none" stroke="#0000ff" d="M237.7315,-120.0083C228.4568,-105.1598 213.1742,-83.9142 199.957,-67.3435"/>
<polygon fill="#0000ff" stroke="#0000ff" points="202.3125,-64.6944 193.2763,-59.1629 196.8907,-69.1221 202.3125,-64.6944"/>
</g>
<!-- Item -->
<g id="node8" class="node">
<title>Item</title>
<g id="a_node8"><a xlink:href="http://emmo.info/emmo/top/mereotopology#EMMO_eb3a768e_d53e_4be9_a23b_0714833c36de" xlink:title="Item">
<ellipse fill="#ffffcc" stroke="#000000" cx="140.4458" cy="-210" rx="27.0966" ry="18"/>
<text text-anchor="middle" x="140.4458" y="-206.3" font-family="Times,serif" font-size="14.00" fill="#000000">Item</text>
</a>
</g>
</g>
<!-- Physical&#45;&gt;Item -->
<g id="edge5" class="edge">
<title>Physical&#45;&gt;Item</title>
<path fill="none" stroke="#000000" d="M223.4343,-153.0936C207.3547,-164.1196 185.4357,-179.1498 168.1621,-190.9946"/>
<polygon fill="none" stroke="#000000" points="165.876,-188.3183 159.608,-196.8602 169.8347,-194.0914 165.876,-188.3183"/>
</g>
<!-- Elementary&#45;&gt;Physical -->
<g id="edge11" class="edge">
<title>Elementary&#45;&gt;Physical</title>
<path fill="none" stroke="#000000" d="M183.2008,-60.0569C192.7114,-75.2733 208.5032,-97.1741 221.9203,-113.8883"/>
<polygon fill="none" stroke="#000000" points="219.2249,-116.1212 228.2782,-121.6248 224.633,-111.6767 219.2249,-116.1212"/>
</g>
<!-- Elementary&#45;&gt;Elementary -->
<g id="edge12" class="edge">
<title>Elementary&#45;&gt;Elementary</title>
<path fill="none" stroke="#ff00ff" d="M202.383,-26.4269C223.6353,-20.4027 245.4412,-25.5938 245.4412,-42 245.4412,-55.8428 229.9172,-61.7013 212.3003,-59.5755"/>
<polygon fill="#ff00ff" stroke="#ff00ff" points="212.8779,-56.1216 202.383,-57.5731 211.4925,-62.9831 212.8779,-56.1216"/>
</g>
<!-- Void -->
<g id="node3" class="node">
<title>Void</title>
<g id="a_node3"><a xlink:href="http://emmo.info/emmo/top/physical#EMMO_29072ec4_ffcb_42fb_bdc7_26f05a2e9873" xlink:title="Void">
<ellipse fill="#ffffcc" stroke="#000000" cx="140.4458" cy="-138" rx="28.6953" ry="18"/>
<text text-anchor="middle" x="140.4458" y="-134.3" font-family="Times,serif" font-size="14.00" fill="#000000">Void</text>
</a>
</g>
</g>
<!-- Void&#45;&gt;Void -->
<g id="edge4" class="edge">
<title>Void&#45;&gt;Void</title>
<path fill="none" stroke="#0000ff" d="M161.5315,-125.4525C174.6032,-122.4269 187.0433,-126.6094 187.0433,-138 187.0433,-146.365 180.3343,-150.8426 171.593,-151.4328"/>
<polygon fill="#0000ff" stroke="#0000ff" points="171.7998,-147.9376 161.5315,-150.5475 171.1862,-154.9106 171.7998,-147.9376"/>
</g>
<!-- Void&#45;&gt;Item -->
<g id="edge3" class="edge">
<title>Void&#45;&gt;Item</title>
<path fill="none" stroke="#000000" d="M140.4458,-156.1686C140.4458,-163.869 140.4458,-173.0257 140.4458,-181.5834"/>
<polygon fill="none" stroke="#000000" points="136.9459,-181.5867 140.4458,-191.5867 143.9459,-181.5868 136.9459,-181.5867"/>
</g>
<!-- Perspective -->
<g id="node4" class="node">
<title>Perspective</title>
<g id="a_node4"><a xlink:href="http://emmo.info/emmo/top#EMMO_49267eba_5548_4163_8f36_518d65b583f9" xlink:title="Perspective">
<ellipse fill="#ffffcc" stroke="#000000" stroke-width="2" cx="314.4458" cy="-42" rx="51.1914" ry="18"/>
<text text-anchor="middle" x="314.4458" y="-38.3" font-family="Times,serif" font-size="14.00" fill="#000000">Perspective</text>
</a>
</g>
</g>
<!-- Perspective&#45;&gt;Physical -->
<g id="edge13" class="edge">
<title>Perspective&#45;&gt;Physical</title>
<path fill="none" stroke="#000000" d="M301.7901,-59.6079C291.1221,-74.4504 275.7201,-95.8792 263.7146,-112.5826"/>
<polygon fill="none" stroke="#000000" points="260.7834,-110.6638 257.7891,-120.8267 266.4675,-114.7493 260.7834,-110.6638"/>
</g>
<!-- Collection -->
<g id="node5" class="node">
<title>Collection</title>
<g id="a_node5"><a xlink:href="http://emmo.info/emmo/top/mereotopology#EMMO_2d2ecd97_067f_4d0e_950c_d746b7700a31" xlink:title="Collection">
<ellipse fill="#ffffcc" stroke="#000000" cx="47.4458" cy="-210" rx="47.3916" ry="18"/>
<text text-anchor="middle" x="47.4458" y="-206.3" font-family="Times,serif" font-size="14.00" fill="#000000">Collection</text>
</a>
</g>
</g>
<!-- EMMO -->
<g id="node7" class="node">
<title>EMMO</title>
<g id="a_node7"><a xlink:href="http://emmo.info/emmo/top/mereotopology#EMMO_802d3e92_8770_4f98_a289_ccaaab7fdddf" xlink:title="EMMO">
<ellipse fill="#ffc880" stroke="#000000" stroke-width="2" cx="93.4458" cy="-282" rx="38.9931" ry="18"/>
<text text-anchor="middle" x="93.4458" y="-278.3" font-family="Times,serif" font-size="14.00" fill="#000000">EMMO</text>
</a>
</g>
</g>
<!-- Collection&#45;&gt;EMMO -->
<g id="edge1" class="edge">
<title>Collection&#45;&gt;EMMO</title>
<path fill="none" stroke="#000000" d="M58.8166,-227.7978C64.2603,-236.3183 70.8834,-246.685 76.874,-256.0615"/>
<polygon fill="none" stroke="#000000" points="74.0311,-258.1128 82.3645,-264.6554 79.93,-254.3441 74.0311,-258.1128"/>
</g>
<!-- Collection&#45;&gt;Item -->
<g id="edge2" class="edge">
<title>Collection&#45;&gt;Item</title>
<path fill="none" stroke="#0000ff" stroke-dasharray="5,2" d="M95.0356,-210C97.6742,-210 100.3128,-210 102.9514,-210"/>
<polygon fill="#0000ff" stroke="#0000ff" points="103.1288,-213.5001 113.1287,-210 103.1287,-206.5001 103.1288,-213.5001"/>
</g>
<!-- Quantum -->
<g id="node6" class="node">
<title>Quantum</title>
<g id="a_node6"><a xlink:href="http://emmo.info/emmo/top/mereotopology#EMMO_3f9ae00e_810c_4518_aec2_7200e424cf68" xlink:title="Quantum">
<ellipse fill="#ffffcc" stroke="#000000" cx="49.4458" cy="-138" rx="44.393" ry="18"/>
<text text-anchor="middle" x="49.4458" y="-134.3" font-family="Times,serif" font-size="14.00" fill="#000000">Quantum</text>
</a>
</g>
</g>
<!-- Quantum&#45;&gt;Item -->
<g id="edge8" class="edge">
<title>Quantum&#45;&gt;Item</title>
<path fill="none" stroke="#000000" d="M70.0951,-154.3379C83.4212,-164.8816 100.8498,-178.6713 115.0255,-189.8872"/>
<polygon fill="none" stroke="#000000" points="112.9266,-192.6896 122.9405,-196.1496 117.27,-187.2 112.9266,-192.6896"/>
</g>
<!-- EMMO&#45;&gt;Quantum -->
<g id="edge9" class="edge">
<title>EMMO&#45;&gt;Quantum</title>
<path fill="none" stroke="#0000ff" d="M124.1288,-270.885C142.9041,-262.3014 165.3805,-248.4001 176.4458,-228 184.0744,-213.9357 185.2727,-205.3449 176.4458,-192 171.4016,-184.374 127.2177,-166.6427 92.3642,-153.5687"/>
<polygon fill="#0000ff" stroke="#0000ff" points="93.4142,-150.225 82.8214,-150.0169 90.9725,-156.7853 93.4142,-150.225"/>
</g>
<!-- Item&#45;&gt;EMMO -->
<g id="edge10" class="edge">
<title>Item&#45;&gt;EMMO</title>
<path fill="none" stroke="#000000" d="M129.5449,-226.6992C123.8976,-235.3504 116.8722,-246.1127 110.524,-255.8377"/>
<polygon fill="none" stroke="#000000" points="107.4787,-254.0998 104.9433,-264.3868 113.3404,-257.9262 107.4787,-254.0998"/>
</g>
<!-- key1 -->
<g id="node9" class="node">
<title>key1</title>
<text text-anchor="start" x="468.4458" y="-66.8" font-family="Times,serif" font-size="14.00" fill="#000000">isA</text>
<text text-anchor="start" x="421.4458" y="-47.8" font-family="Times,serif" font-size="14.00" fill="#000000">hasMember</text>
<text text-anchor="start" x="447.4458" y="-28.8" font-family="Times,serif" font-size="14.00" fill="#000000">hasPart</text>
<text text-anchor="start" x="393.4458" y="-9.8" font-family="Times,serif" font-size="14.00" fill="#000000">hasTemporalPart</text>
</g>
<!-- key2 -->
<g id="node10" class="node">
<title>key2</title>
<text text-anchor="start" x="540.4458" y="-66.8" font-family="Times,serif" font-size="14.00" fill="#000000"> </text>
<text text-anchor="start" x="540.4458" y="-47.8" font-family="Times,serif" font-size="14.00" fill="#000000"> </text>
<text text-anchor="start" x="540.4458" y="-28.8" font-family="Times,serif" font-size="14.00" fill="#000000"> </text>
<text text-anchor="start" x="540.4458" y="-9.8" font-family="Times,serif" font-size="14.00" fill="#000000"> </text>
</g>
<!-- key1&#45;&gt;key2 -->
<g id="edge14" class="edge">
<title>key1:e&#45;&gt;key2:w</title>
<path fill="none" stroke="#ff00ff" d="M489.4458,-13C507.3104,-13 514.1841,-13 528.0988,-13"/>
<polygon fill="#ff00ff" stroke="#ff00ff" points="528.4458,-16.5001 538.4458,-13 528.4458,-9.5001 528.4458,-16.5001"/>
</g>
<!-- key1&#45;&gt;key2 -->
<g id="edge15" class="edge">
<title>key1:e&#45;&gt;key2:w</title>
<path fill="none" stroke="#0000ff" d="M489.4458,-32C507.3104,-32 514.1841,-32 528.0988,-32"/>
<polygon fill="#0000ff" stroke="#0000ff" points="528.4458,-35.5001 538.4458,-32 528.4458,-28.5001 528.4458,-35.5001"/>
</g>
<!-- key1&#45;&gt;key2 -->
<g id="edge16" class="edge">
<title>key1:e&#45;&gt;key2:w</title>
<path fill="none" stroke="#0000ff" stroke-dasharray="5,2" d="M489.4458,-52C507.3104,-52 514.1841,-52 528.0988,-52"/>
<polygon fill="#0000ff" stroke="#0000ff" points="528.4458,-55.5001 538.4458,-52 528.4458,-48.5001 528.4458,-55.5001"/>
</g>
<!-- key1&#45;&gt;key2 -->
<g id="edge17" class="edge">
<title>key1:e&#45;&gt;key2:w</title>
<path fill="none" stroke="#000000" d="M489.4458,-71C507.3104,-71 514.1841,-71 528.0988,-71"/>
<polygon fill="none" stroke="#000000" points="528.4458,-74.5001 538.4458,-71 528.4458,-67.5001 528.4458,-74.5001"/>
</g>
</g>
</svg>
