<?xml version="1.0" encoding="UTF-8" standalone="no"?>
<!DOCTYPE svg PUBLIC "-//W3C//DTD SVG 1.1//EN"
 "http://www.w3.org/Graphics/SVG/1.1/DTD/svg11.dtd">
<!-- Generated by graphviz version 2.40.1 (20161225.0304)
 -->
<!-- Title: %3 Pages: 1 -->
<svg width="970pt" height="620pt"
 viewBox="0.00 0.00 970.00 620.00" xmlns="http://www.w3.org/2000/svg" xmlns:xlink="http://www.w3.org/1999/xlink">
<g id="graph0" class="graph" transform="scale(1 1) rotate(0) translate(4 616)">
<title>%3</title>
<polygon fill="#ffffff" stroke="transparent" points="-4,4 -4,-616 966,-616 966,4 -4,4"/>
<!-- hasSpatioTemporalPart -->
<g id="node1" class="node">
<title>hasSpatioTemporalPart</title>
<g id="a_node1"><a xlink:href="http://emmo.info/emmo/top/physical#EMMO_6e046dd0_9634_4013_b2b1_9cc468087c83" xlink:title="hasSpatioTemporalPart">
<polygon fill="#0079ba" stroke="#000000" points="814.5,-180 670.5,-180 670.5,-144 814.5,-144 814.5,-180"/>
<text text-anchor="middle" x="742.5" y="-158.3" font-family="Times,serif" font-size="14.00" fill="#ffffff">hasSpatioTemporalPart</text>
</a>
</g>
</g>
<!-- hasProperPart -->
<g id="node6" class="node">
<title>hasProperPart</title>
<g id="a_node6"><a xlink:href="http://emmo.info/emmo/top/mereotopology#EMMO_9380ab64_0363_4804_b13f_3a8a94119a76" xlink:title="hasProperPart">
<polygon fill="#0079ba" stroke="#000000" points="696.5,-252 604.5,-252 604.5,-216 696.5,-216 696.5,-252"/>
<text text-anchor="middle" x="650.5" y="-230.3" font-family="Times,serif" font-size="14.00" fill="#ffffff">hasProperPart</text>
</a>
</g>
</g>
<!-- hasSpatioTemporalPart&#45;&gt;hasProperPart -->
<g id="edge11" class="edge">
<title>hasSpatioTemporalPart&#45;&gt;hasProperPart</title>
<path fill="none" stroke="#000000" d="M719.2845,-180.1686C707.953,-189.0368 694.1536,-199.8363 681.8973,-209.4282"/>
<polygon fill="none" stroke="#000000" points="679.426,-206.9178 673.7081,-215.8372 683.7402,-212.4303 679.426,-206.9178"/>
</g>
<!-- hasQuantityValue -->
<g id="node2" class="node">
<title>hasQuantityValue</title>
<g id="a_node2"><a xlink:href="http://emmo.info/emmo/middle/metrology#EMMO_8ef3cd6d_ae58_4a8d_9fc0_ad8f49015cd0" xlink:title="hasQuantityValue">
<polygon fill="#0079ba" stroke="#000000" points="579.5,-36 465.5,-36 465.5,0 579.5,0 579.5,-36"/>
<text text-anchor="middle" x="522.5" y="-14.3" font-family="Times,serif" font-size="14.00" fill="#ffffff">hasQuantityValue</text>
</a>
</g>
</g>
<!-- hasSpatialDirectPart -->
<g id="node17" class="node">
<title>hasSpatialDirectPart</title>
<g id="a_node17"><a xlink:href="http://emmo.info/emmo/middle/reductionistic#EMMO_b2282816_b7a3_44c6_b2cb_3feff1ceb7fe" xlink:title="hasSpatialDirectPart">
<polygon fill="#0079ba" stroke="#000000" points="652.5,-108 524.5,-108 524.5,-72 652.5,-72 652.5,-108"/>
<text text-anchor="middle" x="588.5" y="-86.3" font-family="Times,serif" font-size="14.00" fill="#ffffff">hasSpatialDirectPart</text>
</a>
</g>
</g>
<!-- hasQuantityValue&#45;&gt;hasSpatialDirectPart -->
<g id="edge1" class="edge">
<title>hasQuantityValue&#45;&gt;hasSpatialDirectPart</title>
<path fill="none" stroke="#000000" d="M539.1546,-36.1686C546.9114,-44.6306 556.2802,-54.8511 564.761,-64.1029"/>
<polygon fill="none" stroke="#000000" points="562.2838,-66.5802 571.6212,-71.5867 567.4439,-61.8501 562.2838,-66.5802"/>
</g>
<!-- hasVariable -->
<g id="node3" class="node">
<title>hasVariable</title>
<g id="a_node3"><a xlink:href="http://emmo.info/emmo/middle/math#EMMO_3446e167_c576_49d6_846c_215bb8878a55" xlink:title="hasVariable">
<polygon fill="#0079ba" stroke="#000000" points="81,-324 0,-324 0,-288 81,-288 81,-324"/>
<text text-anchor="middle" x="40.5" y="-302.3" font-family="Times,serif" font-size="14.00" fill="#ffffff">hasVariable</text>
</a>
</g>
</g>
<!-- hasConvention -->
<g id="node14" class="node">
<title>hasConvention</title>
<g id="a_node14"><a xlink:href="http://emmo.info/emmo/top/semiotics#EMMO_eb3518bf_f799_4f9e_8c3e_ce59af11453b" xlink:title="hasConvention">
<polygon fill="#0079ba" stroke="#000000" points="186.5,-396 88.5,-396 88.5,-360 186.5,-360 186.5,-396"/>
<text text-anchor="middle" x="137.5" y="-374.3" font-family="Times,serif" font-size="14.00" fill="#ffffff">hasConvention</text>
</a>
</g>
</g>
<!-- hasVariable&#45;&gt;hasConvention -->
<g id="edge14" class="edge">
<title>hasVariable&#45;&gt;hasConvention</title>
<path fill="none" stroke="#000000" d="M64.9772,-324.1686C77.0395,-333.1221 91.754,-344.0442 104.7686,-353.7045"/>
<polygon fill="none" stroke="#000000" points="102.9148,-356.6873 113.0306,-359.8372 107.087,-351.0665 102.9148,-356.6873"/>
</g>
<!-- hasTemporalDirectPart -->
<g id="node4" class="node">
<title>hasTemporalDirectPart</title>
<g id="a_node4"><a xlink:href="http://emmo.info/emmo/middle/reductionistic#EMMO_65a2c5b8_e4d8_4a51_b2f8_e55effc0547d" xlink:title="hasTemporalDirectPart">
<polygon fill="#0079ba" stroke="#000000" points="457,-108 314,-108 314,-72 457,-72 457,-108"/>
<text text-anchor="middle" x="385.5" y="-86.3" font-family="Times,serif" font-size="14.00" fill="#ffffff">hasTemporalDirectPart</text>
</a>
</g>
</g>
<!-- hasTemporalPart -->
<g id="node8" class="node">
<title>hasTemporalPart</title>
<g id="a_node8"><a xlink:href="http://emmo.info/emmo/top/physical#EMMO_7afbed84_7593_4a23_bd88_9d9c6b04e8f6" xlink:title="hasTemporalPart">
<polygon fill="#0079ba" stroke="#000000" points="440.5,-180 330.5,-180 330.5,-144 440.5,-144 440.5,-180"/>
<text text-anchor="middle" x="385.5" y="-158.3" font-family="Times,serif" font-size="14.00" fill="#ffffff">hasTemporalPart</text>
</a>
</g>
</g>
<!-- hasTemporalDirectPart&#45;&gt;hasTemporalPart -->
<g id="edge13" class="edge">
<title>hasTemporalDirectPart&#45;&gt;hasTemporalPart</title>
<path fill="none" stroke="#000000" d="M385.5,-108.1686C385.5,-115.869 385.5,-125.0257 385.5,-133.5834"/>
<polygon fill="none" stroke="#000000" points="382.0001,-133.5867 385.5,-143.5867 389.0001,-133.5868 382.0001,-133.5867"/>
</g>
<!-- EMMORelation -->
<g id="node5" class="node">
<title>EMMORelation</title>
<g id="a_node5"><a xlink:href="http://emmo.info/emmo/top/mereotopology#EMMO_ec2472ae_cf4a_46a5_8555_1556f5a6c3c5" xlink:title="EMMORelation">
<polygon fill="#0079ba" stroke="#000000" stroke-width="2" points="498.5,-612 392.5,-612 392.5,-576 498.5,-576 498.5,-612"/>
<text text-anchor="middle" x="445.5" y="-590.3" font-family="Times,serif" font-size="14.00" fill="#ffffff">EMMORelation</text>
</a>
</g>
</g>
<!-- hasPart -->
<g id="node15" class="node">
<title>hasPart</title>
<g id="a_node15"><a xlink:href="http://emmo.info/emmo/top/mereotopology#EMMO_17e27c22_37e1_468c_9dd7_95e137f73e7f" xlink:title="hasPart">
<polygon fill="#0079ba" stroke="#000000" points="779.5,-324 723.5,-324 723.5,-288 779.5,-288 779.5,-324"/>
<text text-anchor="middle" x="751.5" y="-302.3" font-family="Times,serif" font-size="14.00" fill="#ffffff">hasPart</text>
</a>
</g>
</g>
<!-- hasProperPart&#45;&gt;hasPart -->
<g id="edge12" class="edge">
<title>hasProperPart&#45;&gt;hasPart</title>
<path fill="none" stroke="#000000" d="M675.9866,-252.1686C688.6659,-261.2073 704.1596,-272.2524 717.8055,-281.9802"/>
<polygon fill="none" stroke="#000000" points="715.8471,-284.8824 726.0216,-287.8372 719.9105,-279.1824 715.8471,-284.8824"/>
</g>
<!-- encloses -->
<g id="node7" class="node">
<title>encloses</title>
<g id="a_node7"><a xlink:href="http://emmo.info/emmo/top/mereotopology#EMMO_8c898653_1118_4682_9bbf_6cc334d16a99" xlink:title="encloses">
<polygon fill="#0079ba" stroke="#000000" points="790.5,-396 728.5,-396 728.5,-360 790.5,-360 790.5,-396"/>
<text text-anchor="middle" x="759.5" y="-374.3" font-family="Times,serif" font-size="14.00" fill="#ffffff">encloses</text>
</a>
</g>
</g>
<!-- connected -->
<g id="node11" class="node">
<title>connected</title>
<g id="a_node11"><a xlink:href="http://emmo.info/emmo/top/mereotopology#EMMO_6703954e_34c4_4a15_a9e7_f313760ae1a8" xlink:title="connected">
<polygon fill="#0079ba" stroke="#000000" points="678,-468 607,-468 607,-432 678,-432 678,-468"/>
<text text-anchor="middle" x="642.5" y="-446.3" font-family="Times,serif" font-size="14.00" fill="#ffffff">connected</text>
</a>
</g>
</g>
<!-- encloses&#45;&gt;connected -->
<g id="edge21" class="edge">
<title>encloses&#45;&gt;connected</title>
<path fill="none" stroke="#000000" d="M729.976,-396.1686C715.0109,-405.3779 696.6614,-416.6699 680.6397,-426.5294"/>
<polygon fill="none" stroke="#000000" points="678.6968,-423.6153 672.0146,-431.8372 682.3655,-429.577 678.6968,-423.6153"/>
</g>
<!-- hasTemporalPart&#45;&gt;hasProperPart -->
<g id="edge8" class="edge">
<title>hasTemporalPart&#45;&gt;hasProperPart</title>
<path fill="none" stroke="#000000" d="M440.6466,-177.5542C443.6404,-178.3848 446.6064,-179.2044 449.5,-180 498.32,-193.4227 553.9164,-208.33 594.2441,-219.0751"/>
<polygon fill="none" stroke="#000000" points="593.5906,-222.523 604.1545,-221.7138 595.3917,-215.7586 593.5906,-222.523"/>
</g>
<!-- hasContactWith -->
<g id="node9" class="node">
<title>hasContactWith</title>
<g id="a_node9"><a xlink:href="http://emmo.info/emmo/top/mereotopology#EMMO_4d6504f1_c470_4ce9_b941_bbbebc9ab05d" xlink:title="hasContactWith">
<polygon fill="#0079ba" stroke="#000000" points="586.5,-396 482.5,-396 482.5,-360 586.5,-360 586.5,-396"/>
<text text-anchor="middle" x="534.5" y="-374.3" font-family="Times,serif" font-size="14.00" fill="#ffffff">hasContactWith</text>
</a>
</g>
</g>
<!-- hasContactWith&#45;&gt;connected -->
<g id="edge3" class="edge">
<title>hasContactWith&#45;&gt;connected</title>
<path fill="none" stroke="#000000" d="M561.753,-396.1686C575.4389,-405.2926 592.1915,-416.461 606.8827,-426.2551"/>
<polygon fill="none" stroke="#000000" points="604.9938,-429.2023 615.2558,-431.8372 608.8767,-423.3779 604.9938,-429.2023"/>
</g>
<!-- overcrosses -->
<g id="node10" class="node">
<title>overcrosses</title>
<g id="a_node10"><a xlink:href="http://emmo.info/emmo/top/mereotopology#EMMO_9cb984ca_48ad_4864_b09e_50d3fff19420" xlink:title="overcrosses">
<polygon fill="#0079ba" stroke="#000000" points="697.5,-324 617.5,-324 617.5,-288 697.5,-288 697.5,-324"/>
<text text-anchor="middle" x="657.5" y="-302.3" font-family="Times,serif" font-size="14.00" fill="#ffffff">overcrosses</text>
</a>
</g>
</g>
<!-- hasOverlapWith -->
<g id="node12" class="node">
<title>hasOverlapWith</title>
<g id="a_node12"><a xlink:href="http://emmo.info/emmo/top/mereotopology#EMMO_d893d373_b579_4867_841e_1c2b31a8d2c6" xlink:title="hasOverlapWith">
<polygon fill="#0079ba" stroke="#000000" points="710.5,-396 604.5,-396 604.5,-360 710.5,-360 710.5,-396"/>
<text text-anchor="middle" x="657.5" y="-374.3" font-family="Times,serif" font-size="14.00" fill="#ffffff">hasOverlapWith</text>
</a>
</g>
</g>
<!-- overcrosses&#45;&gt;hasOverlapWith -->
<g id="edge19" class="edge">
<title>overcrosses&#45;&gt;hasOverlapWith</title>
<path fill="none" stroke="#000000" d="M657.5,-324.1686C657.5,-331.869 657.5,-341.0257 657.5,-349.5834"/>
<polygon fill="none" stroke="#000000" points="654.0001,-349.5867 657.5,-359.5867 661.0001,-349.5868 654.0001,-349.5867"/>
</g>
<!-- mereotopological -->
<g id="node24" class="node">
<title>mereotopological</title>
<g id="a_node24"><a xlink:href="http://emmo.info/emmo/top/mereotopology#EMMO_03212fd7_abfd_4828_9c8e_62c293052d4b" xlink:title="mereotopological">
<polygon fill="#0079ba" stroke="#000000" points="586.5,-540 474.5,-540 474.5,-504 586.5,-504 586.5,-540"/>
<text text-anchor="middle" x="530.5" y="-518.3" font-family="Times,serif" font-size="14.00" fill="#ffffff">mereotopological</text>
</a>
</g>
</g>
<!-- connected&#45;&gt;mereotopological -->
<g id="edge25" class="edge">
<title>connected&#45;&gt;mereotopological</title>
<path fill="none" stroke="#000000" d="M614.2377,-468.1686C600.0448,-477.2926 582.6718,-488.461 567.4364,-498.2551"/>
<polygon fill="none" stroke="#000000" points="565.2724,-495.4854 558.7533,-503.8372 569.0578,-501.3737 565.2724,-495.4854"/>
</g>
<!-- hasOverlapWith&#45;&gt;connected -->
<g id="edge20" class="edge">
<title>hasOverlapWith&#45;&gt;connected</title>
<path fill="none" stroke="#000000" d="M653.7149,-396.1686C652.1106,-403.869 650.203,-413.0257 648.4201,-421.5834"/>
<polygon fill="none" stroke="#000000" points="644.9493,-421.0831 646.3361,-431.5867 651.8021,-422.5108 644.9493,-421.0831"/>
</g>
<!-- hasPhysicsDimension -->
<g id="node13" class="node">
<title>hasPhysicsDimension</title>
<g id="a_node13"><a xlink:href="http://emmo.info/emmo/middle/metrology#EMMO_bed1d005_b04e_4a90_94cf_02bc678a8569" xlink:title="hasPhysicsDimension">
<polygon fill="#0079ba" stroke="#000000" points="207.5,-252 71.5,-252 71.5,-216 207.5,-216 207.5,-252"/>
<text text-anchor="middle" x="139.5" y="-230.3" font-family="Times,serif" font-size="14.00" fill="#ffffff">hasPhysicsDimension</text>
</a>
</g>
</g>
<!-- hasProperty -->
<g id="node16" class="node">
<title>hasProperty</title>
<g id="a_node16"><a xlink:href="http://emmo.info/emmo/middle/properties#EMMO_e1097637_70d2_4895_973f_2396f04fa204" xlink:title="hasProperty">
<polygon fill="#0079ba" stroke="#000000" points="180,-324 99,-324 99,-288 180,-288 180,-324"/>
<text text-anchor="middle" x="139.5" y="-302.3" font-family="Times,serif" font-size="14.00" fill="#ffffff">hasProperty</text>
</a>
</g>
</g>
<!-- hasPhysicsDimension&#45;&gt;hasProperty -->
<g id="edge32" class="edge">
<title>hasPhysicsDimension&#45;&gt;hasProperty</title>
<path fill="none" stroke="#000000" d="M139.5,-252.1686C139.5,-259.869 139.5,-269.0257 139.5,-277.5834"/>
<polygon fill="none" stroke="#000000" points="136.0001,-277.5867 139.5,-287.5867 143.0001,-277.5868 136.0001,-277.5867"/>
</g>
<!-- hasSign -->
<g id="node20" class="node">
<title>hasSign</title>
<g id="a_node20"><a xlink:href="http://emmo.info/emmo/top/semiotics#EMMO_60577dea_9019_4537_ac41_80b0fb563d41" xlink:title="hasSign">
<polygon fill="#0079ba" stroke="#000000" points="361,-468 302,-468 302,-432 361,-432 361,-468"/>
<text text-anchor="middle" x="331.5" y="-446.3" font-family="Times,serif" font-size="14.00" fill="#ffffff">hasSign</text>
</a>
</g>
</g>
<!-- hasConvention&#45;&gt;hasSign -->
<g id="edge6" class="edge">
<title>hasConvention&#45;&gt;hasSign</title>
<path fill="none" stroke="#000000" d="M186.4544,-396.1686C219.2711,-408.348 261.9034,-424.1703 292.4414,-435.504"/>
<polygon fill="none" stroke="#000000" points="291.3107,-438.8176 301.9037,-439.0158 293.7463,-432.255 291.3107,-438.8176"/>
</g>
<!-- hasPart&#45;&gt;encloses -->
<g id="edge9" class="edge">
<title>hasPart&#45;&gt;encloses</title>
<path fill="none" stroke="#000000" d="M753.5187,-324.1686C754.3743,-331.869 755.3917,-341.0257 756.3426,-349.5834"/>
<polygon fill="none" stroke="#000000" points="752.8711,-350.0344 757.4541,-359.5867 759.8283,-349.2614 752.8711,-350.0344"/>
</g>
<!-- hasPart&#45;&gt;hasOverlapWith -->
<g id="edge10" class="edge">
<title>hasPart&#45;&gt;hasOverlapWith</title>
<path fill="none" stroke="#000000" d="M727.7798,-324.1686C716.0906,-333.1221 701.8312,-344.0442 689.2191,-353.7045"/>
<polygon fill="none" stroke="#000000" points="687.0231,-350.9778 681.2126,-359.8372 691.2797,-356.5349 687.0231,-350.9778"/>
</g>
<!-- hasProperty&#45;&gt;hasConvention -->
<g id="edge4" class="edge">
<title>hasProperty&#45;&gt;hasConvention</title>
<path fill="none" stroke="#000000" d="M138.9953,-324.1686C138.7814,-331.869 138.5271,-341.0257 138.2894,-349.5834"/>
<polygon fill="none" stroke="#000000" points="134.7906,-349.4934 138.0115,-359.5867 141.7879,-349.6878 134.7906,-349.4934"/>
</g>
<!-- hasSpatialPart -->
<g id="node28" class="node">
<title>hasSpatialPart</title>
<g id="a_node28"><a xlink:href="http://emmo.info/emmo/top/physical#EMMO_f68030be_94b8_4c61_a161_886468558054" xlink:title="hasSpatialPart">
<polygon fill="#0079ba" stroke="#000000" points="652.5,-180 558.5,-180 558.5,-144 652.5,-144 652.5,-180"/>
<text text-anchor="middle" x="605.5" y="-158.3" font-family="Times,serif" font-size="14.00" fill="#ffffff">hasSpatialPart</text>
</a>
</g>
</g>
<!-- hasSpatialDirectPart&#45;&gt;hasSpatialPart -->
<g id="edge2" class="edge">
<title>hasSpatialDirectPart&#45;&gt;hasSpatialPart</title>
<path fill="none" stroke="#000000" d="M592.7898,-108.1686C594.608,-115.869 596.7699,-125.0257 598.7905,-133.5834"/>
<polygon fill="none" stroke="#000000" points="595.4481,-134.6586 601.1524,-143.5867 602.2608,-133.05 595.4481,-134.6586"/>
</g>
<!-- hasReferenceUnit -->
<g id="node18" class="node">
<title>hasReferenceUnit</title>
<g id="a_node18"><a xlink:href="http://emmo.info/emmo/middle/metrology#EMMO_67fc0a36_8dcb_4ffa_9a43_31074efa3296" xlink:title="hasReferenceUnit">
<polygon fill="#0079ba" stroke="#000000" points="711,-36 598,-36 598,0 711,0 711,-36"/>
<text text-anchor="middle" x="654.5" y="-14.3" font-family="Times,serif" font-size="14.00" fill="#ffffff">hasReferenceUnit</text>
</a>
</g>
</g>
<!-- hasReferenceUnit&#45;&gt;hasSpatialDirectPart -->
<g id="edge29" class="edge">
<title>hasReferenceUnit&#45;&gt;hasSpatialDirectPart</title>
<path fill="none" stroke="#000000" d="M637.8454,-36.1686C630.0886,-44.6306 620.7198,-54.8511 612.239,-64.1029"/>
<polygon fill="none" stroke="#000000" points="609.5561,-61.8501 605.3788,-71.5867 614.7162,-66.5802 609.5561,-61.8501"/>
</g>
<!-- hasProperParticipant -->
<g id="node19" class="node">
<title>hasProperParticipant</title>
<g id="a_node19"><a xlink:href="http://emmo.info/emmo/middle/holistic#EMMO_c5aae418_1622_4d02_93c5_21159e28e6c1" xlink:title="hasProperParticipant">
<polygon fill="#0079ba" stroke="#000000" points="962,-180 833,-180 833,-144 962,-144 962,-180"/>
<text text-anchor="middle" x="897.5" y="-158.3" font-family="Times,serif" font-size="14.00" fill="#ffffff">hasProperParticipant</text>
</a>
</g>
</g>
<!-- hasProperParticipant&#45;&gt;hasProperPart -->
<g id="edge27" class="edge">
<title>hasProperParticipant&#45;&gt;hasProperPart</title>
<path fill="none" stroke="#000000" d="M835.4903,-180.0757C795.8739,-191.6238 744.9238,-206.4756 706.5282,-217.6679"/>
<polygon fill="none" stroke="#000000" points="705.1736,-214.417 696.5527,-220.5757 707.1326,-221.1373 705.1736,-214.417"/>
</g>
<!-- hasParticipant -->
<g id="node27" class="node">
<title>hasParticipant</title>
<g id="a_node27"><a xlink:href="http://emmo.info/emmo/middle/holistic#EMMO_ae2d1a96_bfa1_409a_a7d2_03d69e8a125a" xlink:title="hasParticipant">
<polygon fill="#0079ba" stroke="#000000" points="898,-252 805,-252 805,-216 898,-216 898,-252"/>
<text text-anchor="middle" x="851.5" y="-230.3" font-family="Times,serif" font-size="14.00" fill="#ffffff">hasParticipant</text>
</a>
</g>
</g>
<!-- hasProperParticipant&#45;&gt;hasParticipant -->
<g id="edge26" class="edge">
<title>hasProperParticipant&#45;&gt;hasParticipant</title>
<path fill="none" stroke="#000000" d="M885.8923,-180.1686C880.7022,-188.2921 874.4768,-198.0363 868.7575,-206.9882"/>
<polygon fill="none" stroke="#000000" points="865.6985,-205.2754 863.264,-215.5867 871.5974,-209.0441 865.6985,-205.2754"/>
</g>
<!-- semiotical -->
<g id="node21" class="node">
<title>semiotical</title>
<g id="a_node21"><a xlink:href="http://emmo.info/emmo/top/semiotics#EMMO_2337e25c_3c60_43fc_a8f9_b11a3f974291" xlink:title="semiotical">
<polygon fill="#0079ba" stroke="#000000" points="427,-540 354,-540 354,-504 427,-504 427,-540"/>
<text text-anchor="middle" x="390.5" y="-518.3" font-family="Times,serif" font-size="14.00" fill="#ffffff">semiotical</text>
</a>
</g>
</g>
<!-- hasSign&#45;&gt;semiotical -->
<g id="edge15" class="edge">
<title>hasSign&#45;&gt;semiotical</title>
<path fill="none" stroke="#000000" d="M346.3882,-468.1686C353.253,-476.546 361.5301,-486.6469 369.0511,-495.8251"/>
<polygon fill="none" stroke="#000000" points="366.3659,-498.0703 375.4114,-503.5867 371.7803,-493.6335 366.3659,-498.0703"/>
</g>
<!-- semiotical&#45;&gt;EMMORelation -->
<g id="edge16" class="edge">
<title>semiotical&#45;&gt;EMMORelation</title>
<path fill="none" stroke="#000000" d="M404.3788,-540.1686C410.7136,-548.4614 418.3384,-558.443 425.2926,-567.5467"/>
<polygon fill="none" stroke="#000000" points="422.5825,-569.7647 431.4343,-575.5867 428.1452,-565.5153 422.5825,-569.7647"/>
</g>
<!-- hasIcon -->
<g id="node22" class="node">
<title>hasIcon</title>
<g id="a_node22"><a xlink:href="http://emmo.info/emmo/top/semiotics#EMMO_39c3815d_8cae_4c8f_b2ff_eeba24bec455" xlink:title="hasIcon">
<polygon fill="#0079ba" stroke="#000000" points="264,-396 205,-396 205,-360 264,-360 264,-396"/>
<text text-anchor="middle" x="234.5" y="-374.3" font-family="Times,serif" font-size="14.00" fill="#ffffff">hasIcon</text>
</a>
</g>
</g>
<!-- hasIcon&#45;&gt;hasSign -->
<g id="edge22" class="edge">
<title>hasIcon&#45;&gt;hasSign</title>
<path fill="none" stroke="#000000" d="M258.9772,-396.1686C271.0395,-405.1221 285.754,-416.0442 298.7686,-425.7045"/>
<polygon fill="none" stroke="#000000" points="296.9148,-428.6873 307.0306,-431.8372 301.087,-423.0665 296.9148,-428.6873"/>
</g>
<!-- hasSpatioTemporalDirectPart -->
<g id="node23" class="node">
<title>hasSpatioTemporalDirectPart</title>
<g id="a_node23"><a xlink:href="http://emmo.info/emmo/middle/reductionistic#EMMO_663859e5_add3_4c9e_96fb_c99399de278d" xlink:title="hasSpatioTemporalDirectPart">
<polygon fill="#0079ba" stroke="#000000" points="848.5,-108 670.5,-108 670.5,-72 848.5,-72 848.5,-108"/>
<text text-anchor="middle" x="759.5" y="-86.3" font-family="Times,serif" font-size="14.00" fill="#ffffff">hasSpatioTemporalDirectPart</text>
</a>
</g>
</g>
<!-- hasSpatioTemporalDirectPart&#45;&gt;hasSpatioTemporalPart -->
<g id="edge5" class="edge">
<title>hasSpatioTemporalDirectPart&#45;&gt;hasSpatioTemporalPart</title>
<path fill="none" stroke="#000000" d="M755.2102,-108.1686C753.392,-115.869 751.2301,-125.0257 749.2095,-133.5834"/>
<polygon fill="none" stroke="#000000" points="745.7392,-133.05 746.8476,-143.5867 752.5519,-134.6586 745.7392,-133.05"/>
</g>
<!-- mereotopological&#45;&gt;EMMORelation -->
<g id="edge7" class="edge">
<title>mereotopological&#45;&gt;EMMORelation</title>
<path fill="none" stroke="#000000" d="M509.0509,-540.1686C498.6822,-548.9515 486.0771,-559.6288 474.8354,-569.1511"/>
<polygon fill="none" stroke="#000000" points="472.3105,-566.703 466.9422,-575.8372 476.8349,-572.0444 472.3105,-566.703"/>
</g>
<!-- hasModel -->
<g id="node25" class="node">
<title>hasModel</title>
<g id="a_node25"><a xlink:href="http://emmo.info/emmo/middle/models#EMMO_24c71baf_6db6_48b9_86c8_8c70cf36db0c" xlink:title="hasModel">
<polygon fill="#0079ba" stroke="#000000" points="270,-324 199,-324 199,-288 270,-288 270,-324"/>
<text text-anchor="middle" x="234.5" y="-302.3" font-family="Times,serif" font-size="14.00" fill="#ffffff">hasModel</text>
</a>
</g>
</g>
<!-- hasModel&#45;&gt;hasIcon -->
<g id="edge31" class="edge">
<title>hasModel&#45;&gt;hasIcon</title>
<path fill="none" stroke="#000000" d="M234.5,-324.1686C234.5,-331.869 234.5,-341.0257 234.5,-349.5834"/>
<polygon fill="none" stroke="#000000" points="231.0001,-349.5867 234.5,-359.5867 238.0001,-349.5868 231.0001,-349.5867"/>
</g>
<!-- hasMember -->
<g id="node26" class="node">
<title>hasMember</title>
<g id="a_node26"><a xlink:href="http://emmo.info/emmo/top/mereotopology#EMMO_6b7276a4_4b9d_440a_b577_0277539c0fc4" xlink:title="hasMember">
<polygon fill="#0079ba" stroke="#000000" points="540.5,-180 458.5,-180 458.5,-144 540.5,-144 540.5,-180"/>
<text text-anchor="middle" x="499.5" y="-158.3" font-family="Times,serif" font-size="14.00" fill="#ffffff">hasMember</text>
</a>
</g>
</g>
<!-- hasMember&#45;&gt;hasProperPart -->
<g id="edge28" class="edge">
<title>hasMember&#45;&gt;hasProperPart</title>
<path fill="none" stroke="#000000" d="M537.6037,-180.1686C557.6195,-189.7126 582.3267,-201.4935 603.5194,-211.5987"/>
<polygon fill="none" stroke="#000000" points="602.1375,-214.8172 612.6703,-215.962 605.1503,-208.4987 602.1375,-214.8172"/>
</g>
<!-- hasParticipant&#45;&gt;hasPart -->
<g id="edge30" class="edge">
<title>hasParticipant&#45;&gt;hasPart</title>
<path fill="none" stroke="#000000" d="M826.2658,-252.1686C813.712,-261.2073 798.3717,-272.2524 784.8609,-281.9802"/>
<polygon fill="none" stroke="#000000" points="782.7964,-279.1537 776.7261,-287.8372 786.8866,-284.8345 782.7964,-279.1537"/>
</g>
<!-- hasSpatialPart&#45;&gt;hasProperPart -->
<g id="edge17" class="edge">
<title>hasSpatialPart&#45;&gt;hasProperPart</title>
<path fill="none" stroke="#000000" d="M616.8554,-180.1686C621.9326,-188.2921 628.0227,-198.0363 633.6176,-206.9882"/>
<polygon fill="none" stroke="#000000" points="630.7237,-208.9617 638.9917,-215.5867 636.6597,-205.2517 630.7237,-208.9617"/>
</g>
<!-- hasInterpretant -->
<g id="node29" class="node">
<title>hasInterpretant</title>
<g id="a_node29"><a xlink:href="http://emmo.info/emmo/top/semiotics#EMMO_7fb7fe7e_bdf9_4eeb_adad_e384dd5285c6" xlink:title="hasInterpretant">
<polygon fill="#0079ba" stroke="#000000" points="380.5,-396 282.5,-396 282.5,-360 380.5,-360 380.5,-396"/>
<text text-anchor="middle" x="331.5" y="-374.3" font-family="Times,serif" font-size="14.00" fill="#ffffff">hasInterpretant</text>
</a>
</g>
</g>
<!-- hasInterpretant&#45;&gt;hasSign -->
<g id="edge18" class="edge">
<title>hasInterpretant&#45;&gt;hasSign</title>
<path fill="none" stroke="#000000" d="M331.5,-396.1686C331.5,-403.869 331.5,-413.0257 331.5,-421.5834"/>
<polygon fill="none" stroke="#000000" points="328.0001,-421.5867 331.5,-431.5867 335.0001,-421.5868 328.0001,-421.5867"/>
</g>
<!-- disconnected -->
<g id="node30" class="node">
<title>disconnected</title>
<g id="a_node30"><a xlink:href="http://emmo.info/emmo/top/mereotopology#EMMO_517dfaf9_4970_41ac_81ee_d031627d2c7c" xlink:title="disconnected">
<polygon fill="#0079ba" stroke="#000000" points="574,-468 487,-468 487,-432 574,-432 574,-468"/>
<text text-anchor="middle" x="530.5" y="-446.3" font-family="Times,serif" font-size="14.00" fill="#ffffff">disconnected</text>
</a>
</g>
</g>
<!-- disconnected&#45;&gt;mereotopological -->
<g id="edge23" class="edge">
<title>disconnected&#45;&gt;mereotopological</title>
<path fill="none" stroke="#000000" d="M530.5,-468.1686C530.5,-475.869 530.5,-485.0257 530.5,-493.5834"/>
<polygon fill="none" stroke="#000000" points="527.0001,-493.5867 530.5,-503.5867 534.0001,-493.5868 527.0001,-493.5867"/>
</g>
<!-- hasIndex -->
<g id="node31" class="node">
<title>hasIndex</title>
<g id="a_node31"><a xlink:href="http://emmo.info/emmo/top/semiotics#EMMO_297999d6_c9e4_4262_9536_bd524d1c6e21" xlink:title="hasIndex">
<polygon fill="#0079ba" stroke="#000000" points="464,-396 399,-396 399,-360 464,-360 464,-396"/>
<text text-anchor="middle" x="431.5" y="-374.3" font-family="Times,serif" font-size="14.00" fill="#ffffff">hasIndex</text>
</a>
</g>
</g>
<!-- hasIndex&#45;&gt;hasSign -->
<g id="edge24" class="edge">
<title>hasIndex&#45;&gt;hasSign</title>
<path fill="none" stroke="#000000" d="M406.2658,-396.1686C393.712,-405.2073 378.3717,-416.2524 364.8609,-425.9802"/>
<polygon fill="none" stroke="#000000" points="362.7964,-423.1537 356.7261,-431.8372 366.8866,-428.8345 362.7964,-423.1537"/>
</g>
<!-- key1 -->
<g id="node32" class="node">
<title>key1</title>
<text text-anchor="start" x="747.5" y="-13.8" font-family="Times,serif" font-size="14.00" fill="#000000">isA</text>
</g>
<!-- key2 -->
<g id="node33" class="node">
<title>key2</title>
<text text-anchor="start" x="826.5" y="-13.8" font-family="Times,serif" font-size="14.00" fill="#000000"> </text>
</g>
<!-- key1&#45;&gt;key2 -->
<g id="edge33" class="edge">
<title>key1:e&#45;&gt;key2:w</title>
<path fill="none" stroke="#000000" d="M768.5,-19C789.5,-19 797.2109,-19 814.0581,-19"/>
<polygon fill="none" stroke="#000000" points="814.5,-22.5001 824.5,-19 814.5,-15.5001 814.5,-22.5001"/>
</g>
</g>
</svg>
