<?xml version="1.0" encoding="UTF-8" standalone="no"?>
<!DOCTYPE svg PUBLIC "-//W3C//DTD SVG 1.1//EN"
 "http://www.w3.org/Graphics/SVG/1.1/DTD/svg11.dtd">
<!-- Generated by graphviz version 2.40.1 (20161225.0304)
 -->
<!-- Title: %3 Pages: 1 -->
<svg width="992pt" height="620pt"
 viewBox="0.00 0.00 991.50 620.00" xmlns="http://www.w3.org/2000/svg" xmlns:xlink="http://www.w3.org/1999/xlink">
<g id="graph0" class="graph" transform="scale(1 1) rotate(0) translate(4 616)">
<title>%3</title>
<polygon fill="#ffffff" stroke="transparent" points="-4,4 -4,-616 987.5,-616 987.5,4 -4,4"/>
<!-- EMMORelation -->
<g id="node1" class="node">
<title>EMMORelation</title>
<g id="a_node1"><a xlink:href="http://emmo.info/emmo/top/mereotopology#EMMO_ec2472ae_cf4a_46a5_8555_1556f5a6c3c5" xlink:title="EMMORelation">
<polygon fill="#0079ba" stroke="#000000" stroke-width="2" points="381.5,-612 275.5,-612 275.5,-576 381.5,-576 381.5,-612"/>
<text text-anchor="middle" x="328.5" y="-590.3" font-family="Times,serif" font-size="14.00" fill="#ffffff">EMMORelation</text>
</a>
</g>
</g>
<!-- semiotical -->
<g id="node2" class="node">
<title>semiotical</title>
<g id="a_node2"><a xlink:href="http://emmo.info/emmo/top/semiotics#EMMO_2337e25c_3c60_43fc_a8f9_b11a3f974291" xlink:title="semiotical">
<polygon fill="#0079ba" stroke="#000000" points="310,-540 237,-540 237,-504 310,-504 310,-540"/>
<text text-anchor="middle" x="273.5" y="-518.3" font-family="Times,serif" font-size="14.00" fill="#ffffff">semiotical</text>
</a>
</g>
</g>
<!-- semiotical&#45;&gt;EMMORelation -->
<g id="edge20" class="edge">
<title>semiotical&#45;&gt;EMMORelation</title>
<path fill="none" stroke="#000000" d="M287.3788,-540.1686C293.7136,-548.4614 301.3384,-558.443 308.2926,-567.5467"/>
<polygon fill="none" stroke="#000000" points="305.5825,-569.7647 314.4343,-575.5867 311.1452,-565.5153 305.5825,-569.7647"/>
</g>
<!-- hasOverlapWith -->
<g id="node3" class="node">
<title>hasOverlapWith</title>
<g id="a_node3"><a xlink:href="http://emmo.info/emmo/top/mereotopology#EMMO_d893d373_b579_4867_841e_1c2b31a8d2c6" xlink:title="hasOverlapWith">
<polygon fill="#0079ba" stroke="#000000" points="504.5,-396 398.5,-396 398.5,-360 504.5,-360 504.5,-396"/>
<text text-anchor="middle" x="451.5" y="-374.3" font-family="Times,serif" font-size="14.00" fill="#ffffff">hasOverlapWith</text>
</a>
</g>
</g>
<!-- connected -->
<g id="node28" class="node">
<title>connected</title>
<g id="a_node28"><a xlink:href="http://emmo.info/emmo/top/mereotopology#EMMO_6703954e_34c4_4a15_a9e7_f313760ae1a8" xlink:title="connected">
<polygon fill="#0079ba" stroke="#000000" points="538,-468 467,-468 467,-432 538,-432 538,-468"/>
<text text-anchor="middle" x="502.5" y="-446.3" font-family="Times,serif" font-size="14.00" fill="#ffffff">connected</text>
</a>
</g>
</g>
<!-- hasOverlapWith&#45;&gt;connected -->
<g id="edge11" class="edge">
<title>hasOverlapWith&#45;&gt;connected</title>
<path fill="none" stroke="#000000" d="M464.3695,-396.1686C470.1835,-404.3768 477.1696,-414.2394 483.5646,-423.2677"/>
<polygon fill="none" stroke="#000000" points="480.821,-425.4495 489.4573,-431.5867 486.5331,-421.4034 480.821,-425.4495"/>
</g>
<!-- hasQuantityValue -->
<g id="node4" class="node">
<title>hasQuantityValue</title>
<g id="a_node4"><a xlink:href="http://emmo.info/emmo/middle/metrology#EMMO_8ef3cd6d_ae58_4a8d_9fc0_ad8f49015cd0" xlink:title="hasQuantityValue">
<polygon fill="#0079ba" stroke="#000000" points="665.5,-36 551.5,-36 551.5,0 665.5,0 665.5,-36"/>
<text text-anchor="middle" x="608.5" y="-14.3" font-family="Times,serif" font-size="14.00" fill="#ffffff">hasQuantityValue</text>
</a>
</g>
</g>
<!-- hasSpatialDirectPart -->
<g id="node22" class="node">
<title>hasSpatialDirectPart</title>
<g id="a_node22"><a xlink:href="http://emmo.info/emmo/middle/reductionistic#EMMO_b2282816_b7a3_44c6_b2cb_3feff1ceb7fe" xlink:title="hasSpatialDirectPart">
<polygon fill="#0079ba" stroke="#000000" points="738.5,-108 610.5,-108 610.5,-72 738.5,-72 738.5,-108"/>
<text text-anchor="middle" x="674.5" y="-86.3" font-family="Times,serif" font-size="14.00" fill="#ffffff">hasSpatialDirectPart</text>
</a>
</g>
</g>
<!-- hasQuantityValue&#45;&gt;hasSpatialDirectPart -->
<g id="edge12" class="edge">
<title>hasQuantityValue&#45;&gt;hasSpatialDirectPart</title>
<path fill="none" stroke="#000000" d="M625.1546,-36.1686C632.9114,-44.6306 642.2802,-54.8511 650.761,-64.1029"/>
<polygon fill="none" stroke="#000000" points="648.2838,-66.5802 657.6212,-71.5867 653.4439,-61.8501 648.2838,-66.5802"/>
</g>
<!-- overcrosses -->
<g id="node5" class="node">
<title>overcrosses</title>
<g id="a_node5"><a xlink:href="http://emmo.info/emmo/top/mereotopology#EMMO_9cb984ca_48ad_4864_b09e_50d3fff19420" xlink:title="overcrosses">
<polygon fill="#0079ba" stroke="#000000" points="491.5,-324 411.5,-324 411.5,-288 491.5,-288 491.5,-324"/>
<text text-anchor="middle" x="451.5" y="-302.3" font-family="Times,serif" font-size="14.00" fill="#ffffff">overcrosses</text>
</a>
</g>
</g>
<!-- overcrosses&#45;&gt;hasOverlapWith -->
<g id="edge21" class="edge">
<title>overcrosses&#45;&gt;hasOverlapWith</title>
<path fill="none" stroke="#000000" d="M451.5,-324.1686C451.5,-331.869 451.5,-341.0257 451.5,-349.5834"/>
<polygon fill="none" stroke="#000000" points="448.0001,-349.5867 451.5,-359.5867 455.0001,-349.5868 448.0001,-349.5867"/>
</g>
<!-- mereotopological -->
<g id="node6" class="node">
<title>mereotopological</title>
<g id="a_node6"><a xlink:href="http://emmo.info/emmo/top/mereotopology#EMMO_03212fd7_abfd_4828_9c8e_62c293052d4b" xlink:title="mereotopological">
<polygon fill="#0079ba" stroke="#000000" points="447.5,-540 335.5,-540 335.5,-504 447.5,-504 447.5,-540"/>
<text text-anchor="middle" x="391.5" y="-518.3" font-family="Times,serif" font-size="14.00" fill="#ffffff">mereotopological</text>
</a>
</g>
</g>
<!-- mereotopological&#45;&gt;EMMORelation -->
<g id="edge16" class="edge">
<title>mereotopological&#45;&gt;EMMORelation</title>
<path fill="none" stroke="#000000" d="M375.6024,-540.1686C368.2722,-548.546 359.434,-558.6469 351.4031,-567.8251"/>
<polygon fill="none" stroke="#000000" points="348.5627,-565.7562 344.6116,-575.5867 353.8307,-570.3657 348.5627,-565.7562"/>
</g>
<!-- hasSpatioTemporalDirectPart -->
<g id="node7" class="node">
<title>hasSpatioTemporalDirectPart</title>
<g id="a_node7"><a xlink:href="http://emmo.info/emmo/middle/reductionistic#EMMO_663859e5_add3_4c9e_96fb_c99399de278d" xlink:title="hasSpatioTemporalDirectPart">
<polygon fill="#0079ba" stroke="#000000" points="934.5,-108 756.5,-108 756.5,-72 934.5,-72 934.5,-108"/>
<text text-anchor="middle" x="845.5" y="-86.3" font-family="Times,serif" font-size="14.00" fill="#ffffff">hasSpatioTemporalDirectPart</text>
</a>
</g>
</g>
<!-- hasSpatioTemporalPart -->
<g id="node20" class="node">
<title>hasSpatioTemporalPart</title>
<g id="a_node20"><a xlink:href="http://emmo.info/emmo/top/physical#EMMO_6e046dd0_9634_4013_b2b1_9cc468087c83" xlink:title="hasSpatioTemporalPart">
<polygon fill="#0079ba" stroke="#000000" points="883.5,-180 739.5,-180 739.5,-144 883.5,-144 883.5,-180"/>
<text text-anchor="middle" x="811.5" y="-158.3" font-family="Times,serif" font-size="14.00" fill="#ffffff">hasSpatioTemporalPart</text>
</a>
</g>
</g>
<!-- hasSpatioTemporalDirectPart&#45;&gt;hasSpatioTemporalPart -->
<g id="edge6" class="edge">
<title>hasSpatioTemporalDirectPart&#45;&gt;hasSpatioTemporalPart</title>
<path fill="none" stroke="#000000" d="M836.9204,-108.1686C833.1642,-116.1229 828.6743,-125.631 824.5202,-134.4277"/>
<polygon fill="none" stroke="#000000" points="821.3004,-133.0497 820.1952,-143.5867 827.6301,-136.0388 821.3004,-133.0497"/>
</g>
<!-- hasTemporalDirectPart -->
<g id="node8" class="node">
<title>hasTemporalDirectPart</title>
<g id="a_node8"><a xlink:href="http://emmo.info/emmo/middle/reductionistic#EMMO_65a2c5b8_e4d8_4a51_b2f8_e55effc0547d" xlink:title="hasTemporalDirectPart">
<polygon fill="#0079ba" stroke="#000000" points="592,-108 449,-108 449,-72 592,-72 592,-108"/>
<text text-anchor="middle" x="520.5" y="-86.3" font-family="Times,serif" font-size="14.00" fill="#ffffff">hasTemporalDirectPart</text>
</a>
</g>
</g>
<!-- hasTemporalPart -->
<g id="node11" class="node">
<title>hasTemporalPart</title>
<g id="a_node11"><a xlink:href="http://emmo.info/emmo/top/physical#EMMO_7afbed84_7593_4a23_bd88_9d9c6b04e8f6" xlink:title="hasTemporalPart">
<polygon fill="#0079ba" stroke="#000000" points="609.5,-180 499.5,-180 499.5,-144 609.5,-144 609.5,-180"/>
<text text-anchor="middle" x="554.5" y="-158.3" font-family="Times,serif" font-size="14.00" fill="#ffffff">hasTemporalPart</text>
</a>
</g>
</g>
<!-- hasTemporalDirectPart&#45;&gt;hasTemporalPart -->
<g id="edge22" class="edge">
<title>hasTemporalDirectPart&#45;&gt;hasTemporalPart</title>
<path fill="none" stroke="#000000" d="M529.0796,-108.1686C532.8358,-116.1229 537.3257,-125.631 541.4798,-134.4277"/>
<polygon fill="none" stroke="#000000" points="538.3699,-136.0388 545.8048,-143.5867 544.6996,-133.0497 538.3699,-136.0388"/>
</g>
<!-- disconnected -->
<g id="node9" class="node">
<title>disconnected</title>
<g id="a_node9"><a xlink:href="http://emmo.info/emmo/top/mereotopology#EMMO_517dfaf9_4970_41ac_81ee_d031627d2c7c" xlink:title="disconnected">
<polygon fill="#0079ba" stroke="#000000" points="435,-468 348,-468 348,-432 435,-432 435,-468"/>
<text text-anchor="middle" x="391.5" y="-446.3" font-family="Times,serif" font-size="14.00" fill="#ffffff">disconnected</text>
</a>
</g>
</g>
<!-- disconnected&#45;&gt;mereotopological -->
<g id="edge31" class="edge">
<title>disconnected&#45;&gt;mereotopological</title>
<path fill="none" stroke="#000000" d="M391.5,-468.1686C391.5,-475.869 391.5,-485.0257 391.5,-493.5834"/>
<polygon fill="none" stroke="#000000" points="388.0001,-493.5867 391.5,-503.5867 395.0001,-493.5868 388.0001,-493.5867"/>
</g>
<!-- hasParticipant -->
<g id="node10" class="node">
<title>hasParticipant</title>
<g id="a_node10"><a xlink:href="http://emmo.info/emmo/middle/holistic#EMMO_ae2d1a96_bfa1_409a_a7d2_03d69e8a125a" xlink:title="hasParticipant">
<polygon fill="#0079ba" stroke="#000000" points="476,-252 383,-252 383,-216 476,-216 476,-252"/>
<text text-anchor="middle" x="429.5" y="-230.3" font-family="Times,serif" font-size="14.00" fill="#ffffff">hasParticipant</text>
</a>
</g>
</g>
<!-- hasPart -->
<g id="node14" class="node">
<title>hasPart</title>
<g id="a_node14"><a xlink:href="http://emmo.info/emmo/top/mereotopology#EMMO_17e27c22_37e1_468c_9dd7_95e137f73e7f" xlink:title="hasPart">
<polygon fill="#0079ba" stroke="#000000" points="573.5,-324 517.5,-324 517.5,-288 573.5,-288 573.5,-324"/>
<text text-anchor="middle" x="545.5" y="-302.3" font-family="Times,serif" font-size="14.00" fill="#ffffff">hasPart</text>
</a>
</g>
</g>
<!-- hasParticipant&#45;&gt;hasPart -->
<g id="edge18" class="edge">
<title>hasParticipant&#45;&gt;hasPart</title>
<path fill="none" stroke="#000000" d="M458.7717,-252.1686C473.9486,-261.5888 492.6365,-273.1882 508.7738,-283.2045"/>
<polygon fill="none" stroke="#000000" points="507.0959,-286.2824 517.4381,-288.5823 510.7875,-280.3349 507.0959,-286.2824"/>
</g>
<!-- hasProperPart -->
<g id="node17" class="node">
<title>hasProperPart</title>
<g id="a_node17"><a xlink:href="http://emmo.info/emmo/top/mereotopology#EMMO_9380ab64_0363_4804_b13f_3a8a94119a76" xlink:title="hasProperPart">
<polygon fill="#0079ba" stroke="#000000" points="653.5,-252 561.5,-252 561.5,-216 653.5,-216 653.5,-252"/>
<text text-anchor="middle" x="607.5" y="-230.3" font-family="Times,serif" font-size="14.00" fill="#ffffff">hasProperPart</text>
</a>
</g>
</g>
<!-- hasTemporalPart&#45;&gt;hasProperPart -->
<g id="edge29" class="edge">
<title>hasTemporalPart&#45;&gt;hasProperPart</title>
<path fill="none" stroke="#000000" d="M567.8741,-180.1686C573.9162,-188.3768 581.1763,-198.2394 587.8221,-207.2677"/>
<polygon fill="none" stroke="#000000" points="585.1989,-209.6082 593.9458,-215.5867 590.8363,-205.4585 585.1989,-209.6082"/>
</g>
<!-- hasIcon -->
<g id="node12" class="node">
<title>hasIcon</title>
<g id="a_node12"><a xlink:href="http://emmo.info/emmo/top/semiotics#EMMO_39c3815d_8cae_4c8f_b2ff_eeba24bec455" xlink:title="hasIcon">
<polygon fill="#0079ba" stroke="#000000" points="65,-396 6,-396 6,-360 65,-360 65,-396"/>
<text text-anchor="middle" x="35.5" y="-374.3" font-family="Times,serif" font-size="14.00" fill="#ffffff">hasIcon</text>
</a>
</g>
</g>
<!-- hasSign -->
<g id="node16" class="node">
<title>hasSign</title>
<g id="a_node16"><a xlink:href="http://emmo.info/emmo/top/semiotics#EMMO_60577dea_9019_4537_ac41_80b0fb563d41" xlink:title="hasSign">
<polygon fill="#0079ba" stroke="#000000" points="245,-468 186,-468 186,-432 245,-432 245,-468"/>
<text text-anchor="middle" x="215.5" y="-446.3" font-family="Times,serif" font-size="14.00" fill="#ffffff">hasSign</text>
</a>
</g>
</g>
<!-- hasIcon&#45;&gt;hasSign -->
<g id="edge28" class="edge">
<title>hasIcon&#45;&gt;hasSign</title>
<path fill="none" stroke="#000000" d="M65.2697,-392.3739C68.0393,-393.6286 70.8138,-394.8552 73.5,-396 107.7929,-410.6155 147.5027,-425.5524 176.1953,-436.0008"/>
<polygon fill="none" stroke="#000000" points="175.2637,-439.3859 185.8579,-439.5015 177.6481,-432.8045 175.2637,-439.3859"/>
</g>
<!-- hasIndex -->
<g id="node13" class="node">
<title>hasIndex</title>
<g id="a_node13"><a xlink:href="http://emmo.info/emmo/top/semiotics#EMMO_297999d6_c9e4_4262_9536_bd524d1c6e21" xlink:title="hasIndex">
<polygon fill="#0079ba" stroke="#000000" points="148,-396 83,-396 83,-360 148,-360 148,-396"/>
<text text-anchor="middle" x="115.5" y="-374.3" font-family="Times,serif" font-size="14.00" fill="#ffffff">hasIndex</text>
</a>
</g>
</g>
<!-- hasIndex&#45;&gt;hasSign -->
<g id="edge25" class="edge">
<title>hasIndex&#45;&gt;hasSign</title>
<path fill="none" stroke="#000000" d="M140.7342,-396.1686C153.288,-405.2073 168.6283,-416.2524 182.1391,-425.9802"/>
<polygon fill="none" stroke="#000000" points="180.1134,-428.8345 190.2739,-431.8372 184.2036,-423.1537 180.1134,-428.8345"/>
</g>
<!-- hasPart&#45;&gt;hasOverlapWith -->
<g id="edge2" class="edge">
<title>hasPart&#45;&gt;hasOverlapWith</title>
<path fill="none" stroke="#000000" d="M521.7798,-324.1686C510.0906,-333.1221 495.8312,-344.0442 483.2191,-353.7045"/>
<polygon fill="none" stroke="#000000" points="481.0231,-350.9778 475.2126,-359.8372 485.2797,-356.5349 481.0231,-350.9778"/>
</g>
<!-- encloses -->
<g id="node25" class="node">
<title>encloses</title>
<g id="a_node25"><a xlink:href="http://emmo.info/emmo/top/mereotopology#EMMO_8c898653_1118_4682_9bbf_6cc334d16a99" xlink:title="encloses">
<polygon fill="#0079ba" stroke="#000000" points="584.5,-396 522.5,-396 522.5,-360 584.5,-360 584.5,-396"/>
<text text-anchor="middle" x="553.5" y="-374.3" font-family="Times,serif" font-size="14.00" fill="#ffffff">encloses</text>
</a>
</g>
</g>
<!-- hasPart&#45;&gt;encloses -->
<g id="edge1" class="edge">
<title>hasPart&#45;&gt;encloses</title>
<path fill="none" stroke="#000000" d="M547.5187,-324.1686C548.3743,-331.869 549.3917,-341.0257 550.3426,-349.5834"/>
<polygon fill="none" stroke="#000000" points="546.8711,-350.0344 551.4541,-359.5867 553.8283,-349.2614 546.8711,-350.0344"/>
</g>
<!-- hasProperParticipant -->
<g id="node15" class="node">
<title>hasProperParticipant</title>
<g id="a_node15"><a xlink:href="http://emmo.info/emmo/middle/holistic#EMMO_c5aae418_1622_4d02_93c5_21159e28e6c1" xlink:title="hasProperParticipant">
<polygon fill="#0079ba" stroke="#000000" points="481,-180 352,-180 352,-144 481,-144 481,-180"/>
<text text-anchor="middle" x="416.5" y="-158.3" font-family="Times,serif" font-size="14.00" fill="#ffffff">hasProperParticipant</text>
</a>
</g>
</g>
<!-- hasProperParticipant&#45;&gt;hasParticipant -->
<g id="edge4" class="edge">
<title>hasProperParticipant&#45;&gt;hasParticipant</title>
<path fill="none" stroke="#000000" d="M419.7804,-180.1686C421.1708,-187.869 422.8241,-197.0257 424.3692,-205.5834"/>
<polygon fill="none" stroke="#000000" points="420.9542,-206.3678 426.1754,-215.5867 427.8428,-205.1239 420.9542,-206.3678"/>
</g>
<!-- hasProperParticipant&#45;&gt;hasProperPart -->
<g id="edge5" class="edge">
<title>hasProperParticipant&#45;&gt;hasProperPart</title>
<path fill="none" stroke="#000000" d="M464.6974,-180.1686C491.1909,-190.1557 524.1824,-202.5923 551.7782,-212.9949"/>
<polygon fill="none" stroke="#000000" points="550.7028,-216.3299 561.2947,-216.5823 553.172,-209.7799 550.7028,-216.3299"/>
</g>
<!-- hasSign&#45;&gt;semiotical -->
<g id="edge9" class="edge">
<title>hasSign&#45;&gt;semiotical</title>
<path fill="none" stroke="#000000" d="M230.1358,-468.1686C236.8161,-476.4614 244.8568,-486.443 252.1904,-495.5467"/>
<polygon fill="none" stroke="#000000" points="249.6681,-497.9948 258.6671,-503.5867 255.1194,-493.6035 249.6681,-497.9948"/>
</g>
<!-- hasProperPart&#45;&gt;hasPart -->
<g id="edge3" class="edge">
<title>hasProperPart&#45;&gt;hasPart</title>
<path fill="none" stroke="#000000" d="M591.8548,-252.1686C584.6409,-260.546 575.943,-270.6469 568.0395,-279.8251"/>
<polygon fill="none" stroke="#000000" points="565.2289,-277.7252 561.3559,-287.5867 570.5333,-282.2929 565.2289,-277.7252"/>
</g>
<!-- hasProperty -->
<g id="node18" class="node">
<title>hasProperty</title>
<g id="a_node18"><a xlink:href="http://emmo.info/emmo/middle/properties#EMMO_e1097637_70d2_4895_973f_2396f04fa204" xlink:title="hasProperty">
<polygon fill="#0079ba" stroke="#000000" points="283,-324 202,-324 202,-288 283,-288 283,-324"/>
<text text-anchor="middle" x="242.5" y="-302.3" font-family="Times,serif" font-size="14.00" fill="#ffffff">hasProperty</text>
</a>
</g>
</g>
<!-- hasConvention -->
<g id="node31" class="node">
<title>hasConvention</title>
<g id="a_node31"><a xlink:href="http://emmo.info/emmo/top/semiotics#EMMO_eb3518bf_f799_4f9e_8c3e_ce59af11453b" xlink:title="hasConvention">
<polygon fill="#0079ba" stroke="#000000" points="380.5,-396 282.5,-396 282.5,-360 380.5,-360 380.5,-396"/>
<text text-anchor="middle" x="331.5" y="-374.3" font-family="Times,serif" font-size="14.00" fill="#ffffff">hasConvention</text>
</a>
</g>
</g>
<!-- hasProperty&#45;&gt;hasConvention -->
<g id="edge10" class="edge">
<title>hasProperty&#45;&gt;hasConvention</title>
<path fill="none" stroke="#000000" d="M264.9585,-324.1686C275.9205,-333.0368 289.2699,-343.8363 301.1265,-353.4282"/>
<polygon fill="none" stroke="#000000" points="299.0729,-356.2687 309.0487,-359.8372 303.4755,-350.8266 299.0729,-356.2687"/>
</g>
<!-- hasSpatialPart -->
<g id="node19" class="node">
<title>hasSpatialPart</title>
<g id="a_node19"><a xlink:href="http://emmo.info/emmo/top/physical#EMMO_f68030be_94b8_4c61_a161_886468558054" xlink:title="hasSpatialPart">
<polygon fill="#0079ba" stroke="#000000" points="721.5,-180 627.5,-180 627.5,-144 721.5,-144 721.5,-180"/>
<text text-anchor="middle" x="674.5" y="-158.3" font-family="Times,serif" font-size="14.00" fill="#ffffff">hasSpatialPart</text>
</a>
</g>
</g>
<!-- hasSpatialPart&#45;&gt;hasProperPart -->
<g id="edge7" class="edge">
<title>hasSpatialPart&#45;&gt;hasProperPart</title>
<path fill="none" stroke="#000000" d="M657.5931,-180.1686C649.7187,-188.6306 640.208,-198.8511 631.5987,-208.1029"/>
<polygon fill="none" stroke="#000000" points="628.8847,-205.8817 624.6346,-215.5867 634.0092,-210.6503 628.8847,-205.8817"/>
</g>
<!-- hasSpatioTemporalPart&#45;&gt;hasProperPart -->
<g id="edge24" class="edge">
<title>hasSpatioTemporalPart&#45;&gt;hasProperPart</title>
<path fill="none" stroke="#000000" d="M760.2855,-180.0757C730.6788,-190.5251 693.4079,-203.6796 663.0898,-214.3801"/>
<polygon fill="none" stroke="#000000" points="661.7741,-211.1328 653.5091,-217.7615 664.1039,-217.7337 661.7741,-211.1328"/>
</g>
<!-- hasModel -->
<g id="node21" class="node">
<title>hasModel</title>
<g id="a_node21"><a xlink:href="http://emmo.info/emmo/middle/models#EMMO_24c71baf_6db6_48b9_86c8_8c70cf36db0c" xlink:title="hasModel">
<polygon fill="#0079ba" stroke="#000000" points="71,-324 0,-324 0,-288 71,-288 71,-324"/>
<text text-anchor="middle" x="35.5" y="-302.3" font-family="Times,serif" font-size="14.00" fill="#ffffff">hasModel</text>
</a>
</g>
</g>
<!-- hasModel&#45;&gt;hasIcon -->
<g id="edge30" class="edge">
<title>hasModel&#45;&gt;hasIcon</title>
<path fill="none" stroke="#000000" d="M35.5,-324.1686C35.5,-331.869 35.5,-341.0257 35.5,-349.5834"/>
<polygon fill="none" stroke="#000000" points="32.0001,-349.5867 35.5,-359.5867 39.0001,-349.5868 32.0001,-349.5867"/>
</g>
<!-- hasSpatialDirectPart&#45;&gt;hasSpatialPart -->
<g id="edge8" class="edge">
<title>hasSpatialDirectPart&#45;&gt;hasSpatialPart</title>
<path fill="none" stroke="#000000" d="M674.5,-108.1686C674.5,-115.869 674.5,-125.0257 674.5,-133.5834"/>
<polygon fill="none" stroke="#000000" points="671.0001,-133.5867 674.5,-143.5867 678.0001,-133.5868 671.0001,-133.5867"/>
</g>
<!-- hasReferenceUnit -->
<g id="node23" class="node">
<title>hasReferenceUnit</title>
<g id="a_node23"><a xlink:href="http://emmo.info/emmo/middle/metrology#EMMO_67fc0a36_8dcb_4ffa_9a43_31074efa3296" xlink:title="hasReferenceUnit">
<polygon fill="#0079ba" stroke="#000000" points="797,-36 684,-36 684,0 797,0 797,-36"/>
<text text-anchor="middle" x="740.5" y="-14.3" font-family="Times,serif" font-size="14.00" fill="#ffffff">hasReferenceUnit</text>
</a>
</g>
</g>
<!-- hasReferenceUnit&#45;&gt;hasSpatialDirectPart -->
<g id="edge27" class="edge">
<title>hasReferenceUnit&#45;&gt;hasSpatialDirectPart</title>
<path fill="none" stroke="#000000" d="M723.8454,-36.1686C716.0886,-44.6306 706.7198,-54.8511 698.239,-64.1029"/>
<polygon fill="none" stroke="#000000" points="695.5561,-61.8501 691.3788,-71.5867 700.7162,-66.5802 695.5561,-61.8501"/>
</g>
<!-- hasVariable -->
<g id="node24" class="node">
<title>hasVariable</title>
<g id="a_node24"><a xlink:href="http://emmo.info/emmo/middle/math#EMMO_3446e167_c576_49d6_846c_215bb8878a55" xlink:title="hasVariable">
<polygon fill="#0079ba" stroke="#000000" points="382,-324 301,-324 301,-288 382,-288 382,-324"/>
<text text-anchor="middle" x="341.5" y="-302.3" font-family="Times,serif" font-size="14.00" fill="#ffffff">hasVariable</text>
</a>
</g>
</g>
<!-- hasVariable&#45;&gt;hasConvention -->
<g id="edge23" class="edge">
<title>hasVariable&#45;&gt;hasConvention</title>
<path fill="none" stroke="#000000" d="M338.9766,-324.1686C337.9071,-331.869 336.6353,-341.0257 335.4468,-349.5834"/>
<polygon fill="none" stroke="#000000" points="331.9664,-349.2003 334.0574,-359.5867 338.8999,-350.1633 331.9664,-349.2003"/>
</g>
<!-- encloses&#45;&gt;connected -->
<g id="edge14" class="edge">
<title>encloses&#45;&gt;connected</title>
<path fill="none" stroke="#000000" d="M540.6305,-396.1686C534.8165,-404.3768 527.8304,-414.2394 521.4354,-423.2677"/>
<polygon fill="none" stroke="#000000" points="518.4669,-421.4034 515.5427,-431.5867 524.179,-425.4495 518.4669,-421.4034"/>
</g>
<!-- hasPhysicsDimension -->
<g id="node26" class="node">
<title>hasPhysicsDimension</title>
<g id="a_node26"><a xlink:href="http://emmo.info/emmo/middle/metrology#EMMO_bed1d005_b04e_4a90_94cf_02bc678a8569" xlink:title="hasPhysicsDimension">
<polygon fill="#0079ba" stroke="#000000" points="310.5,-252 174.5,-252 174.5,-216 310.5,-216 310.5,-252"/>
<text text-anchor="middle" x="242.5" y="-230.3" font-family="Times,serif" font-size="14.00" fill="#ffffff">hasPhysicsDimension</text>
</a>
</g>
</g>
<!-- hasPhysicsDimension&#45;&gt;hasProperty -->
<g id="edge13" class="edge">
<title>hasPhysicsDimension&#45;&gt;hasProperty</title>
<path fill="none" stroke="#000000" d="M242.5,-252.1686C242.5,-259.869 242.5,-269.0257 242.5,-277.5834"/>
<polygon fill="none" stroke="#000000" points="239.0001,-277.5867 242.5,-287.5867 246.0001,-277.5868 239.0001,-277.5867"/>
</g>
<!-- hasInterpretant -->
<g id="node27" class="node">
<title>hasInterpretant</title>
<g id="a_node27"><a xlink:href="http://emmo.info/emmo/top/semiotics#EMMO_7fb7fe7e_bdf9_4eeb_adad_e384dd5285c6" xlink:title="hasInterpretant">
<polygon fill="#0079ba" stroke="#000000" points="264.5,-396 166.5,-396 166.5,-360 264.5,-360 264.5,-396"/>
<text text-anchor="middle" x="215.5" y="-374.3" font-family="Times,serif" font-size="14.00" fill="#ffffff">hasInterpretant</text>
</a>
</g>
</g>
<!-- hasInterpretant&#45;&gt;hasSign -->
<g id="edge19" class="edge">
<title>hasInterpretant&#45;&gt;hasSign</title>
<path fill="none" stroke="#000000" d="M215.5,-396.1686C215.5,-403.869 215.5,-413.0257 215.5,-421.5834"/>
<polygon fill="none" stroke="#000000" points="212.0001,-421.5867 215.5,-431.5867 219.0001,-421.5868 212.0001,-421.5867"/>
</g>
<!-- connected&#45;&gt;mereotopological -->
<g id="edge32" class="edge">
<title>connected&#45;&gt;mereotopological</title>
<path fill="none" stroke="#000000" d="M474.49,-468.1686C460.4239,-477.2926 443.206,-488.461 428.1067,-498.2551"/>
<polygon fill="none" stroke="#000000" points="425.986,-495.4588 419.501,-503.8372 429.7953,-501.3316 425.986,-495.4588"/>
</g>
<!-- hasContactWith -->
<g id="node29" class="node">
<title>hasContactWith</title>
<g id="a_node29"><a xlink:href="http://emmo.info/emmo/top/mereotopology#EMMO_4d6504f1_c470_4ce9_b941_bbbebc9ab05d" xlink:title="hasContactWith">
<polygon fill="#0079ba" stroke="#000000" points="706.5,-396 602.5,-396 602.5,-360 706.5,-360 706.5,-396"/>
<text text-anchor="middle" x="654.5" y="-374.3" font-family="Times,serif" font-size="14.00" fill="#ffffff">hasContactWith</text>
</a>
</g>
</g>
<!-- hasContactWith&#45;&gt;connected -->
<g id="edge26" class="edge">
<title>hasContactWith&#45;&gt;connected</title>
<path fill="none" stroke="#000000" d="M616.144,-396.1686C595.2127,-406.0835 569.1848,-418.4125 547.3213,-428.7688"/>
<polygon fill="none" stroke="#000000" points="545.7723,-425.6297 538.2333,-433.0737 548.769,-431.9559 545.7723,-425.6297"/>
</g>
<!-- hasMember -->
<g id="node30" class="node">
<title>hasMember</title>
<g id="a_node30"><a xlink:href="http://emmo.info/emmo/top/mereotopology#EMMO_6b7276a4_4b9d_440a_b577_0277539c0fc4" xlink:title="hasMember">
<polygon fill="#0079ba" stroke="#000000" points="983.5,-180 901.5,-180 901.5,-144 983.5,-144 983.5,-180"/>
<text text-anchor="middle" x="942.5" y="-158.3" font-family="Times,serif" font-size="14.00" fill="#ffffff">hasMember</text>
</a>
</g>
</g>
<!-- hasMember&#45;&gt;hasProperPart -->
<g id="edge15" class="edge">
<title>hasMember&#45;&gt;hasProperPart</title>
<path fill="none" stroke="#000000" d="M901.4645,-177.3552C898.4479,-178.3045 895.4372,-179.1985 892.5,-180 814.3578,-201.3243 721.9038,-217.1694 663.9687,-226.0026"/>
<polygon fill="none" stroke="#000000" points="663.2838,-222.5662 653.9171,-227.5175 664.3271,-229.488 663.2838,-222.5662"/>
</g>
<!-- hasConvention&#45;&gt;hasSign -->
<g id="edge17" class="edge">
<title>hasConvention&#45;&gt;hasSign</title>
<path fill="none" stroke="#000000" d="M302.2283,-396.1686C287.3912,-405.3779 269.1985,-416.6699 253.3138,-426.5294"/>
<polygon fill="none" stroke="#000000" points="251.413,-423.5898 244.7623,-431.8372 255.1045,-429.5372 251.413,-423.5898"/>
</g>
<!-- key1 -->
<g id="node32" class="node">
<title>key1</title>
<text text-anchor="start" x="833.5" y="-13.8" font-family="Times,serif" font-size="14.00" fill="#000000">isA</text>
</g>
<!-- key2 -->
<g id="node33" class="node">
<title>key2</title>
<text text-anchor="start" x="912.5" y="-13.8" font-family="Times,serif" font-size="14.00" fill="#000000"> </text>
</g>
<!-- key1&#45;&gt;key2 -->
<g id="edge33" class="edge">
<title>key1:e&#45;&gt;key2:w</title>
<path fill="none" stroke="#000000" d="M854.5,-19C875.5,-19 883.2109,-19 900.0581,-19"/>
<polygon fill="none" stroke="#000000" points="900.5,-22.5001 910.5,-19 900.5,-15.5001 900.5,-22.5001"/>
</g>
</g>
</svg>
