<?xml version="1.0" encoding="UTF-8" standalone="no"?>
<!DOCTYPE svg PUBLIC "-//W3C//DTD SVG 1.1//EN"
 "http://www.w3.org/Graphics/SVG/1.1/DTD/svg11.dtd">
<!-- Generated by graphviz version 2.40.1 (20161225.0304)
 -->
<!-- Title: %3 Pages: 1 -->
<svg width="1197pt" height="620pt"
 viewBox="0.00 0.00 1196.50 620.00" xmlns="http://www.w3.org/2000/svg" xmlns:xlink="http://www.w3.org/1999/xlink">
<g id="graph0" class="graph" transform="scale(1 1) rotate(0) translate(4 616)">
<title>%3</title>
<polygon fill="#ffffff" stroke="transparent" points="-4,4 -4,-616 1192.5,-616 1192.5,4 -4,4"/>
<!-- hasProperParticipant -->
<g id="node1" class="node">
<title>hasProperParticipant</title>
<g id="a_node1"><a xlink:href="http://emmo.info/emmo/middle/holistic#EMMO_c5aae418_1622_4d02_93c5_21159e28e6c1" xlink:title="hasProperParticipant">
<polygon fill="#0079ba" stroke="#000000" points="673.5,-180 544.5,-180 544.5,-144 673.5,-144 673.5,-180"/>
<text text-anchor="middle" x="609" y="-158.3" font-family="Times,serif" font-size="14.00" fill="#ffffff">hasProperParticipant</text>
</a>
</g>
</g>
<!-- hasProperPart -->
<g id="node17" class="node">
<title>hasProperPart</title>
<g id="a_node17"><a xlink:href="http://emmo.info/emmo/top/mereotopology#EMMO_9380ab64_0363_4804_b13f_3a8a94119a76" xlink:title="hasProperPart">
<polygon fill="#0079ba" stroke="#000000" points="448,-252 356,-252 356,-216 448,-216 448,-252"/>
<text text-anchor="middle" x="402" y="-230.3" font-family="Times,serif" font-size="14.00" fill="#ffffff">hasProperPart</text>
</a>
</g>
</g>
<!-- hasProperParticipant&#45;&gt;hasProperPart -->
<g id="edge24" class="edge">
<title>hasProperParticipant&#45;&gt;hasProperPart</title>
<path fill="none" stroke="#000000" d="M557.0323,-180.0757C526.8822,-190.5627 488.899,-203.7742 458.0756,-214.4955"/>
<polygon fill="none" stroke="#000000" points="456.6337,-211.2912 448.3385,-217.8822 458.9334,-217.9027 456.6337,-211.2912"/>
</g>
<!-- hasParticipant -->
<g id="node28" class="node">
<title>hasParticipant</title>
<g id="a_node28"><a xlink:href="http://emmo.info/emmo/middle/holistic#EMMO_ae2d1a96_bfa1_409a_a7d2_03d69e8a125a" xlink:title="hasParticipant">
<polygon fill="#0079ba" stroke="#000000" points="596.5,-252 503.5,-252 503.5,-216 596.5,-216 596.5,-252"/>
<text text-anchor="middle" x="550" y="-230.3" font-family="Times,serif" font-size="14.00" fill="#ffffff">hasParticipant</text>
</a>
</g>
</g>
<!-- hasProperParticipant&#45;&gt;hasParticipant -->
<g id="edge23" class="edge">
<title>hasProperParticipant&#45;&gt;hasParticipant</title>
<path fill="none" stroke="#000000" d="M594.1118,-180.1686C587.247,-188.546 578.9699,-198.6469 571.4489,-207.8251"/>
<polygon fill="none" stroke="#000000" points="568.7197,-205.6335 565.0886,-215.5867 574.1341,-210.0703 568.7197,-205.6335"/>
</g>
<!-- hasSpatioTemporalPart -->
<g id="node2" class="node">
<title>hasSpatioTemporalPart</title>
<g id="a_node2"><a xlink:href="http://emmo.info/emmo/top/physical#EMMO_6e046dd0_9634_4013_b2b1_9cc468087c83" xlink:title="hasSpatioTemporalPart">
<polygon fill="#0079ba" stroke="#000000" points="178,-180 34,-180 34,-144 178,-144 178,-180"/>
<text text-anchor="middle" x="106" y="-158.3" font-family="Times,serif" font-size="14.00" fill="#ffffff">hasSpatioTemporalPart</text>
</a>
</g>
</g>
<!-- hasSpatioTemporalPart&#45;&gt;hasProperPart -->
<g id="edge20" class="edge">
<title>hasSpatioTemporalPart&#45;&gt;hasProperPart</title>
<path fill="none" stroke="#000000" d="M178.0312,-179.5211C229.6346,-192.0733 298.1433,-208.7375 345.7437,-220.316"/>
<polygon fill="none" stroke="#000000" points="345.0262,-223.7435 355.5701,-222.7062 346.6807,-216.9418 345.0262,-223.7435"/>
</g>
<!-- EMMORelation -->
<g id="node3" class="node">
<title>EMMORelation</title>
<g id="a_node3"><a xlink:href="http://emmo.info/emmo/top/mereotopology#EMMO_ec2472ae_cf4a_46a5_8555_1556f5a6c3c5" xlink:title="EMMORelation">
<polygon fill="#0079ba" stroke="#000000" stroke-width="2" points="849,-612 743,-612 743,-576 849,-576 849,-612"/>
<text text-anchor="middle" x="796" y="-590.3" font-family="Times,serif" font-size="14.00" fill="#ffffff">EMMORelation</text>
</a>
</g>
</g>
<!-- disconnected -->
<g id="node4" class="node">
<title>disconnected</title>
<g id="a_node4"><a xlink:href="http://emmo.info/emmo/top/mereotopology#EMMO_517dfaf9_4970_41ac_81ee_d031627d2c7c" xlink:title="disconnected">
<polygon fill="#0079ba" stroke="#000000" points="784.5,-468 697.5,-468 697.5,-432 784.5,-432 784.5,-468"/>
<text text-anchor="middle" x="741" y="-446.3" font-family="Times,serif" font-size="14.00" fill="#ffffff">disconnected</text>
</a>
</g>
</g>
<!-- mereotopological -->
<g id="node8" class="node">
<title>mereotopological</title>
<g id="a_node8"><a xlink:href="http://emmo.info/emmo/top/mereotopology#EMMO_03212fd7_abfd_4828_9c8e_62c293052d4b" xlink:title="mereotopological">
<polygon fill="#0079ba" stroke="#000000" points="797,-540 685,-540 685,-504 797,-504 797,-540"/>
<text text-anchor="middle" x="741" y="-518.3" font-family="Times,serif" font-size="14.00" fill="#ffffff">mereotopological</text>
</a>
</g>
</g>
<!-- disconnected&#45;&gt;mereotopological -->
<g id="edge2" class="edge">
<title>disconnected&#45;&gt;mereotopological</title>
<path fill="none" stroke="#000000" d="M741,-468.1686C741,-475.869 741,-485.0257 741,-493.5834"/>
<polygon fill="none" stroke="#000000" points="737.5001,-493.5867 741,-503.5867 744.5001,-493.5868 737.5001,-493.5867"/>
</g>
<!-- hasOverlapWith -->
<g id="node5" class="node">
<title>hasOverlapWith</title>
<g id="a_node5"><a xlink:href="http://emmo.info/emmo/top/mereotopology#EMMO_d893d373_b579_4867_841e_1c2b31a8d2c6" xlink:title="hasOverlapWith">
<polygon fill="#0079ba" stroke="#000000" points="667,-396 561,-396 561,-360 667,-360 667,-396"/>
<text text-anchor="middle" x="614" y="-374.3" font-family="Times,serif" font-size="14.00" fill="#ffffff">hasOverlapWith</text>
</a>
</g>
</g>
<!-- connected -->
<g id="node27" class="node">
<title>connected</title>
<g id="a_node27"><a xlink:href="http://emmo.info/emmo/top/mereotopology#EMMO_6703954e_34c4_4a15_a9e7_f313760ae1a8" xlink:title="connected">
<polygon fill="#0079ba" stroke="#000000" points="664.5,-468 593.5,-468 593.5,-432 664.5,-432 664.5,-468"/>
<text text-anchor="middle" x="629" y="-446.3" font-family="Times,serif" font-size="14.00" fill="#ffffff">connected</text>
</a>
</g>
</g>
<!-- hasOverlapWith&#45;&gt;connected -->
<g id="edge13" class="edge">
<title>hasOverlapWith&#45;&gt;connected</title>
<path fill="none" stroke="#000000" d="M617.7851,-396.1686C619.3894,-403.869 621.297,-413.0257 623.0799,-421.5834"/>
<polygon fill="none" stroke="#000000" points="619.6979,-422.5108 625.1639,-431.5867 626.5507,-421.0831 619.6979,-422.5108"/>
</g>
<!-- hasTemporalDirectPart -->
<g id="node6" class="node">
<title>hasTemporalDirectPart</title>
<g id="a_node6"><a xlink:href="http://emmo.info/emmo/middle/reductionistic#EMMO_65a2c5b8_e4d8_4a51_b2f8_e55effc0547d" xlink:title="hasTemporalDirectPart">
<polygon fill="#0079ba" stroke="#000000" points="339.5,-108 196.5,-108 196.5,-72 339.5,-72 339.5,-108"/>
<text text-anchor="middle" x="268" y="-86.3" font-family="Times,serif" font-size="14.00" fill="#ffffff">hasTemporalDirectPart</text>
</a>
</g>
</g>
<!-- hasTemporalPart -->
<g id="node7" class="node">
<title>hasTemporalPart</title>
<g id="a_node7"><a xlink:href="http://emmo.info/emmo/top/physical#EMMO_7afbed84_7593_4a23_bd88_9d9c6b04e8f6" xlink:title="hasTemporalPart">
<polygon fill="#0079ba" stroke="#000000" points="314,-180 204,-180 204,-144 314,-144 314,-180"/>
<text text-anchor="middle" x="259" y="-158.3" font-family="Times,serif" font-size="14.00" fill="#ffffff">hasTemporalPart</text>
</a>
</g>
</g>
<!-- hasTemporalDirectPart&#45;&gt;hasTemporalPart -->
<g id="edge32" class="edge">
<title>hasTemporalDirectPart&#45;&gt;hasTemporalPart</title>
<path fill="none" stroke="#000000" d="M265.7289,-108.1686C264.7664,-115.869 263.6218,-125.0257 262.5521,-133.5834"/>
<polygon fill="none" stroke="#000000" points="259.0691,-133.2298 261.3017,-143.5867 266.0151,-134.0981 259.0691,-133.2298"/>
</g>
<!-- hasTemporalPart&#45;&gt;hasProperPart -->
<g id="edge28" class="edge">
<title>hasTemporalPart&#45;&gt;hasProperPart</title>
<path fill="none" stroke="#000000" d="M295.0849,-180.1686C313.7989,-189.5911 336.8432,-201.1938 356.74,-211.2117"/>
<polygon fill="none" stroke="#000000" points="355.4208,-214.4661 365.9266,-215.8372 358.5689,-208.2139 355.4208,-214.4661"/>
</g>
<!-- mereotopological&#45;&gt;EMMORelation -->
<g id="edge3" class="edge">
<title>mereotopological&#45;&gt;EMMORelation</title>
<path fill="none" stroke="#000000" d="M754.8788,-540.1686C761.2136,-548.4614 768.8384,-558.443 775.7926,-567.5467"/>
<polygon fill="none" stroke="#000000" points="773.0825,-569.7647 781.9343,-575.5867 778.6452,-565.5153 773.0825,-569.7647"/>
</g>
<!-- hasIndex -->
<g id="node9" class="node">
<title>hasIndex</title>
<g id="a_node9"><a xlink:href="http://emmo.info/emmo/top/semiotics#EMMO_297999d6_c9e4_4262_9536_bd524d1c6e21" xlink:title="hasIndex">
<polygon fill="#0079ba" stroke="#000000" points="872.5,-396 807.5,-396 807.5,-360 872.5,-360 872.5,-396"/>
<text text-anchor="middle" x="840" y="-374.3" font-family="Times,serif" font-size="14.00" fill="#ffffff">hasIndex</text>
</a>
</g>
</g>
<!-- hasSign -->
<g id="node23" class="node">
<title>hasSign</title>
<g id="a_node23"><a xlink:href="http://emmo.info/emmo/top/semiotics#EMMO_60577dea_9019_4537_ac41_80b0fb563d41" xlink:title="hasSign">
<polygon fill="#0079ba" stroke="#000000" points="969.5,-468 910.5,-468 910.5,-432 969.5,-432 969.5,-468"/>
<text text-anchor="middle" x="940" y="-446.3" font-family="Times,serif" font-size="14.00" fill="#ffffff">hasSign</text>
</a>
</g>
</g>
<!-- hasIndex&#45;&gt;hasSign -->
<g id="edge16" class="edge">
<title>hasIndex&#45;&gt;hasSign</title>
<path fill="none" stroke="#000000" d="M865.2342,-396.1686C877.788,-405.2073 893.1283,-416.2524 906.6391,-425.9802"/>
<polygon fill="none" stroke="#000000" points="904.6134,-428.8345 914.7739,-431.8372 908.7036,-423.1537 904.6134,-428.8345"/>
</g>
<!-- hasMember -->
<g id="node10" class="node">
<title>hasMember</title>
<g id="a_node10"><a xlink:href="http://emmo.info/emmo/top/mereotopology#EMMO_6b7276a4_4b9d_440a_b577_0277539c0fc4" xlink:title="hasMember">
<polygon fill="#0079ba" stroke="#000000" points="414,-180 332,-180 332,-144 414,-144 414,-180"/>
<text text-anchor="middle" x="373" y="-158.3" font-family="Times,serif" font-size="14.00" fill="#ffffff">hasMember</text>
</a>
</g>
</g>
<!-- hasMember&#45;&gt;hasProperPart -->
<g id="edge14" class="edge">
<title>hasMember&#45;&gt;hasProperPart</title>
<path fill="none" stroke="#000000" d="M380.3179,-180.1686C383.4876,-188.0383 387.27,-197.4288 390.7813,-206.1467"/>
<polygon fill="none" stroke="#000000" points="387.6008,-207.6185 394.5835,-215.5867 394.0939,-205.0032 387.6008,-207.6185"/>
</g>
<!-- hasReferenceUnit -->
<g id="node11" class="node">
<title>hasReferenceUnit</title>
<g id="a_node11"><a xlink:href="http://emmo.info/emmo/middle/metrology#EMMO_67fc0a36_8dcb_4ffa_9a43_31074efa3296" xlink:title="hasReferenceUnit">
<polygon fill="#0079ba" stroke="#000000" points="469.5,-36 356.5,-36 356.5,0 469.5,0 469.5,-36"/>
<text text-anchor="middle" x="413" y="-14.3" font-family="Times,serif" font-size="14.00" fill="#ffffff">hasReferenceUnit</text>
</a>
</g>
</g>
<!-- hasSpatialDirectPart -->
<g id="node18" class="node">
<title>hasSpatialDirectPart</title>
<g id="a_node18"><a xlink:href="http://emmo.info/emmo/middle/reductionistic#EMMO_b2282816_b7a3_44c6_b2cb_3feff1ceb7fe" xlink:title="hasSpatialDirectPart">
<polygon fill="#0079ba" stroke="#000000" points="543,-108 415,-108 415,-72 543,-72 543,-108"/>
<text text-anchor="middle" x="479" y="-86.3" font-family="Times,serif" font-size="14.00" fill="#ffffff">hasSpatialDirectPart</text>
</a>
</g>
</g>
<!-- hasReferenceUnit&#45;&gt;hasSpatialDirectPart -->
<g id="edge29" class="edge">
<title>hasReferenceUnit&#45;&gt;hasSpatialDirectPart</title>
<path fill="none" stroke="#000000" d="M429.6546,-36.1686C437.4114,-44.6306 446.7802,-54.8511 455.261,-64.1029"/>
<polygon fill="none" stroke="#000000" points="452.7838,-66.5802 462.1212,-71.5867 457.9439,-61.8501 452.7838,-66.5802"/>
</g>
<!-- hasInterpretant -->
<g id="node12" class="node">
<title>hasInterpretant</title>
<g id="a_node12"><a xlink:href="http://emmo.info/emmo/top/semiotics#EMMO_7fb7fe7e_bdf9_4eeb_adad_e384dd5285c6" xlink:title="hasInterpretant">
<polygon fill="#0079ba" stroke="#000000" points="989,-396 891,-396 891,-360 989,-360 989,-396"/>
<text text-anchor="middle" x="940" y="-374.3" font-family="Times,serif" font-size="14.00" fill="#ffffff">hasInterpretant</text>
</a>
</g>
</g>
<!-- hasInterpretant&#45;&gt;hasSign -->
<g id="edge7" class="edge">
<title>hasInterpretant&#45;&gt;hasSign</title>
<path fill="none" stroke="#000000" d="M940,-396.1686C940,-403.869 940,-413.0257 940,-421.5834"/>
<polygon fill="none" stroke="#000000" points="936.5001,-421.5867 940,-431.5867 943.5001,-421.5868 936.5001,-421.5867"/>
</g>
<!-- hasPart -->
<g id="node13" class="node">
<title>hasPart</title>
<g id="a_node13"><a xlink:href="http://emmo.info/emmo/top/mereotopology#EMMO_17e27c22_37e1_468c_9dd7_95e137f73e7f" xlink:title="hasPart">
<polygon fill="#0079ba" stroke="#000000" points="548,-324 492,-324 492,-288 548,-288 548,-324"/>
<text text-anchor="middle" x="520" y="-302.3" font-family="Times,serif" font-size="14.00" fill="#ffffff">hasPart</text>
</a>
</g>
</g>
<!-- hasPart&#45;&gt;hasOverlapWith -->
<g id="edge26" class="edge">
<title>hasPart&#45;&gt;hasOverlapWith</title>
<path fill="none" stroke="#000000" d="M543.7202,-324.1686C555.4094,-333.1221 569.6688,-344.0442 582.2809,-353.7045"/>
<polygon fill="none" stroke="#000000" points="580.2203,-356.5349 590.2874,-359.8372 584.4769,-350.9778 580.2203,-356.5349"/>
</g>
<!-- encloses -->
<g id="node25" class="node">
<title>encloses</title>
<g id="a_node25"><a xlink:href="http://emmo.info/emmo/top/mereotopology#EMMO_8c898653_1118_4682_9bbf_6cc334d16a99" xlink:title="encloses">
<polygon fill="#0079ba" stroke="#000000" points="543,-396 481,-396 481,-360 543,-360 543,-396"/>
<text text-anchor="middle" x="512" y="-374.3" font-family="Times,serif" font-size="14.00" fill="#ffffff">encloses</text>
</a>
</g>
</g>
<!-- hasPart&#45;&gt;encloses -->
<g id="edge25" class="edge">
<title>hasPart&#45;&gt;encloses</title>
<path fill="none" stroke="#000000" d="M517.9813,-324.1686C517.1257,-331.869 516.1083,-341.0257 515.1574,-349.5834"/>
<polygon fill="none" stroke="#000000" points="511.6717,-349.2614 514.0459,-359.5867 518.6289,-350.0344 511.6717,-349.2614"/>
</g>
<!-- hasProperty -->
<g id="node14" class="node">
<title>hasProperty</title>
<g id="a_node14"><a xlink:href="http://emmo.info/emmo/middle/properties#EMMO_e1097637_70d2_4895_973f_2396f04fa204" xlink:title="hasProperty">
<polygon fill="#0079ba" stroke="#000000" points="998.5,-324 917.5,-324 917.5,-288 998.5,-288 998.5,-324"/>
<text text-anchor="middle" x="958" y="-302.3" font-family="Times,serif" font-size="14.00" fill="#ffffff">hasProperty</text>
</a>
</g>
</g>
<!-- hasConvention -->
<g id="node15" class="node">
<title>hasConvention</title>
<g id="a_node15"><a xlink:href="http://emmo.info/emmo/top/semiotics#EMMO_eb3518bf_f799_4f9e_8c3e_ce59af11453b" xlink:title="hasConvention">
<polygon fill="#0079ba" stroke="#000000" points="1105,-396 1007,-396 1007,-360 1105,-360 1105,-396"/>
<text text-anchor="middle" x="1056" y="-374.3" font-family="Times,serif" font-size="14.00" fill="#ffffff">hasConvention</text>
</a>
</g>
</g>
<!-- hasProperty&#45;&gt;hasConvention -->
<g id="edge12" class="edge">
<title>hasProperty&#45;&gt;hasConvention</title>
<path fill="none" stroke="#000000" d="M982.7295,-324.1686C994.9162,-333.1221 1009.7823,-344.0442 1022.9312,-353.7045"/>
<polygon fill="none" stroke="#000000" points="1021.1473,-356.737 1031.2784,-359.8372 1025.2918,-351.0958 1021.1473,-356.737"/>
</g>
<!-- hasConvention&#45;&gt;hasSign -->
<g id="edge1" class="edge">
<title>hasConvention&#45;&gt;hasSign</title>
<path fill="none" stroke="#000000" d="M1026.7283,-396.1686C1011.8912,-405.3779 993.6985,-416.6699 977.8138,-426.5294"/>
<polygon fill="none" stroke="#000000" points="975.913,-423.5898 969.2623,-431.8372 979.6045,-429.5372 975.913,-423.5898"/>
</g>
<!-- hasIcon -->
<g id="node16" class="node">
<title>hasIcon</title>
<g id="a_node16"><a xlink:href="http://emmo.info/emmo/top/semiotics#EMMO_39c3815d_8cae_4c8f_b2ff_eeba24bec455" xlink:title="hasIcon">
<polygon fill="#0079ba" stroke="#000000" points="1182.5,-396 1123.5,-396 1123.5,-360 1182.5,-360 1182.5,-396"/>
<text text-anchor="middle" x="1153" y="-374.3" font-family="Times,serif" font-size="14.00" fill="#ffffff">hasIcon</text>
</a>
</g>
</g>
<!-- hasIcon&#45;&gt;hasSign -->
<g id="edge6" class="edge">
<title>hasIcon&#45;&gt;hasSign</title>
<path fill="none" stroke="#000000" d="M1123.3621,-392.1675C1120.2253,-393.52 1117.0631,-394.8237 1114,-396 1068.7167,-413.3901 1015.2435,-429.3242 979.6443,-439.3057"/>
<polygon fill="none" stroke="#000000" points="978.3473,-436.0334 969.6496,-442.0833 980.2217,-442.7778 978.3473,-436.0334"/>
</g>
<!-- hasProperPart&#45;&gt;hasPart -->
<g id="edge31" class="edge">
<title>hasProperPart&#45;&gt;hasPart</title>
<path fill="none" stroke="#000000" d="M431.7764,-252.1686C447.3302,-261.6591 466.509,-273.3614 483.0077,-283.4284"/>
<polygon fill="none" stroke="#000000" points="481.4984,-286.6076 491.8579,-288.8285 485.1445,-280.6321 481.4984,-286.6076"/>
</g>
<!-- hasSpatialPart -->
<g id="node24" class="node">
<title>hasSpatialPart</title>
<g id="a_node24"><a xlink:href="http://emmo.info/emmo/top/physical#EMMO_f68030be_94b8_4c61_a161_886468558054" xlink:title="hasSpatialPart">
<polygon fill="#0079ba" stroke="#000000" points="526,-180 432,-180 432,-144 526,-144 526,-180"/>
<text text-anchor="middle" x="479" y="-158.3" font-family="Times,serif" font-size="14.00" fill="#ffffff">hasSpatialPart</text>
</a>
</g>
</g>
<!-- hasSpatialDirectPart&#45;&gt;hasSpatialPart -->
<g id="edge11" class="edge">
<title>hasSpatialDirectPart&#45;&gt;hasSpatialPart</title>
<path fill="none" stroke="#000000" d="M479,-108.1686C479,-115.869 479,-125.0257 479,-133.5834"/>
<polygon fill="none" stroke="#000000" points="475.5001,-133.5867 479,-143.5867 482.5001,-133.5868 475.5001,-133.5867"/>
</g>
<!-- hasQuantityValue -->
<g id="node19" class="node">
<title>hasQuantityValue</title>
<g id="a_node19"><a xlink:href="http://emmo.info/emmo/middle/metrology#EMMO_8ef3cd6d_ae58_4a8d_9fc0_ad8f49015cd0" xlink:title="hasQuantityValue">
<polygon fill="#0079ba" stroke="#000000" points="602,-36 488,-36 488,0 602,0 602,-36"/>
<text text-anchor="middle" x="545" y="-14.3" font-family="Times,serif" font-size="14.00" fill="#ffffff">hasQuantityValue</text>
</a>
</g>
</g>
<!-- hasQuantityValue&#45;&gt;hasSpatialDirectPart -->
<g id="edge5" class="edge">
<title>hasQuantityValue&#45;&gt;hasSpatialDirectPart</title>
<path fill="none" stroke="#000000" d="M528.3454,-36.1686C520.5886,-44.6306 511.2198,-54.8511 502.739,-64.1029"/>
<polygon fill="none" stroke="#000000" points="500.0561,-61.8501 495.8788,-71.5867 505.2162,-66.5802 500.0561,-61.8501"/>
</g>
<!-- hasSpatioTemporalDirectPart -->
<g id="node20" class="node">
<title>hasSpatioTemporalDirectPart</title>
<g id="a_node20"><a xlink:href="http://emmo.info/emmo/middle/reductionistic#EMMO_663859e5_add3_4c9e_96fb_c99399de278d" xlink:title="hasSpatioTemporalDirectPart">
<polygon fill="#0079ba" stroke="#000000" points="178,-108 0,-108 0,-72 178,-72 178,-108"/>
<text text-anchor="middle" x="89" y="-86.3" font-family="Times,serif" font-size="14.00" fill="#ffffff">hasSpatioTemporalDirectPart</text>
</a>
</g>
</g>
<!-- hasSpatioTemporalDirectPart&#45;&gt;hasSpatioTemporalPart -->
<g id="edge17" class="edge">
<title>hasSpatioTemporalDirectPart&#45;&gt;hasSpatioTemporalPart</title>
<path fill="none" stroke="#000000" d="M93.2898,-108.1686C95.108,-115.869 97.2699,-125.0257 99.2905,-133.5834"/>
<polygon fill="none" stroke="#000000" points="95.9481,-134.6586 101.6524,-143.5867 102.7608,-133.05 95.9481,-134.6586"/>
</g>
<!-- semiotical -->
<g id="node21" class="node">
<title>semiotical</title>
<g id="a_node21"><a xlink:href="http://emmo.info/emmo/top/semiotics#EMMO_2337e25c_3c60_43fc_a8f9_b11a3f974291" xlink:title="semiotical">
<polygon fill="#0079ba" stroke="#000000" points="917.5,-540 844.5,-540 844.5,-504 917.5,-504 917.5,-540"/>
<text text-anchor="middle" x="881" y="-518.3" font-family="Times,serif" font-size="14.00" fill="#ffffff">semiotical</text>
</a>
</g>
</g>
<!-- semiotical&#45;&gt;EMMORelation -->
<g id="edge22" class="edge">
<title>semiotical&#45;&gt;EMMORelation</title>
<path fill="none" stroke="#000000" d="M859.5509,-540.1686C849.1822,-548.9515 836.5771,-559.6288 825.3354,-569.1511"/>
<polygon fill="none" stroke="#000000" points="822.8105,-566.703 817.4422,-575.8372 827.3349,-572.0444 822.8105,-566.703"/>
</g>
<!-- hasModel -->
<g id="node22" class="node">
<title>hasModel</title>
<g id="a_node22"><a xlink:href="http://emmo.info/emmo/middle/models#EMMO_24c71baf_6db6_48b9_86c8_8c70cf36db0c" xlink:title="hasModel">
<polygon fill="#0079ba" stroke="#000000" points="1188.5,-324 1117.5,-324 1117.5,-288 1188.5,-288 1188.5,-324"/>
<text text-anchor="middle" x="1153" y="-302.3" font-family="Times,serif" font-size="14.00" fill="#ffffff">hasModel</text>
</a>
</g>
</g>
<!-- hasModel&#45;&gt;hasIcon -->
<g id="edge15" class="edge">
<title>hasModel&#45;&gt;hasIcon</title>
<path fill="none" stroke="#000000" d="M1153,-324.1686C1153,-331.869 1153,-341.0257 1153,-349.5834"/>
<polygon fill="none" stroke="#000000" points="1149.5001,-349.5867 1153,-359.5867 1156.5001,-349.5868 1149.5001,-349.5867"/>
</g>
<!-- hasSign&#45;&gt;semiotical -->
<g id="edge18" class="edge">
<title>hasSign&#45;&gt;semiotical</title>
<path fill="none" stroke="#000000" d="M925.1118,-468.1686C918.247,-476.546 909.9699,-486.6469 902.4489,-495.8251"/>
<polygon fill="none" stroke="#000000" points="899.7197,-493.6335 896.0886,-503.5867 905.1341,-498.0703 899.7197,-493.6335"/>
</g>
<!-- hasSpatialPart&#45;&gt;hasProperPart -->
<g id="edge21" class="edge">
<title>hasSpatialPart&#45;&gt;hasProperPart</title>
<path fill="none" stroke="#000000" d="M459.5696,-180.1686C450.268,-188.8663 438.9796,-199.4217 428.8714,-208.8735"/>
<polygon fill="none" stroke="#000000" points="426.3379,-206.4507 421.4241,-215.8372 431.1189,-211.5637 426.3379,-206.4507"/>
</g>
<!-- encloses&#45;&gt;connected -->
<g id="edge9" class="edge">
<title>encloses&#45;&gt;connected</title>
<path fill="none" stroke="#000000" d="M541.524,-396.1686C556.4891,-405.3779 574.8386,-416.6699 590.8603,-426.5294"/>
<polygon fill="none" stroke="#000000" points="589.1345,-429.577 599.4854,-431.8372 592.8032,-423.6153 589.1345,-429.577"/>
</g>
<!-- hasContactWith -->
<g id="node26" class="node">
<title>hasContactWith</title>
<g id="a_node26"><a xlink:href="http://emmo.info/emmo/top/mereotopology#EMMO_4d6504f1_c470_4ce9_b941_bbbebc9ab05d" xlink:title="hasContactWith">
<polygon fill="#0079ba" stroke="#000000" points="789,-396 685,-396 685,-360 789,-360 789,-396"/>
<text text-anchor="middle" x="737" y="-374.3" font-family="Times,serif" font-size="14.00" fill="#ffffff">hasContactWith</text>
</a>
</g>
</g>
<!-- hasContactWith&#45;&gt;connected -->
<g id="edge4" class="edge">
<title>hasContactWith&#45;&gt;connected</title>
<path fill="none" stroke="#000000" d="M709.747,-396.1686C696.0611,-405.2926 679.3085,-416.461 664.6173,-426.2551"/>
<polygon fill="none" stroke="#000000" points="662.6233,-423.3779 656.2442,-431.8372 666.5062,-429.2023 662.6233,-423.3779"/>
</g>
<!-- connected&#45;&gt;mereotopological -->
<g id="edge27" class="edge">
<title>connected&#45;&gt;mereotopological</title>
<path fill="none" stroke="#000000" d="M657.2623,-468.1686C671.4552,-477.2926 688.8282,-488.461 704.0636,-498.2551"/>
<polygon fill="none" stroke="#000000" points="702.4422,-501.3737 712.7467,-503.8372 706.2276,-495.4854 702.4422,-501.3737"/>
</g>
<!-- hasParticipant&#45;&gt;hasPart -->
<g id="edge19" class="edge">
<title>hasParticipant&#45;&gt;hasPart</title>
<path fill="none" stroke="#000000" d="M542.4297,-252.1686C539.1507,-260.0383 535.238,-269.4288 531.6055,-278.1467"/>
<polygon fill="none" stroke="#000000" points="528.2876,-277.0098 527.6722,-287.5867 534.7492,-279.7021 528.2876,-277.0098"/>
</g>
<!-- overcrosses -->
<g id="node29" class="node">
<title>overcrosses</title>
<g id="a_node29"><a xlink:href="http://emmo.info/emmo/top/mereotopology#EMMO_9cb984ca_48ad_4864_b09e_50d3fff19420" xlink:title="overcrosses">
<polygon fill="#0079ba" stroke="#000000" points="654,-324 574,-324 574,-288 654,-288 654,-324"/>
<text text-anchor="middle" x="614" y="-302.3" font-family="Times,serif" font-size="14.00" fill="#ffffff">overcrosses</text>
</a>
</g>
</g>
<!-- overcrosses&#45;&gt;hasOverlapWith -->
<g id="edge30" class="edge">
<title>overcrosses&#45;&gt;hasOverlapWith</title>
<path fill="none" stroke="#000000" d="M614,-324.1686C614,-331.869 614,-341.0257 614,-349.5834"/>
<polygon fill="none" stroke="#000000" points="610.5001,-349.5867 614,-359.5867 617.5001,-349.5868 610.5001,-349.5867"/>
</g>
<!-- hasPhysicsDimension -->
<g id="node30" class="node">
<title>hasPhysicsDimension</title>
<g id="a_node30"><a xlink:href="http://emmo.info/emmo/middle/metrology#EMMO_bed1d005_b04e_4a90_94cf_02bc678a8569" xlink:title="hasPhysicsDimension">
<polygon fill="#0079ba" stroke="#000000" points="1026,-252 890,-252 890,-216 1026,-216 1026,-252"/>
<text text-anchor="middle" x="958" y="-230.3" font-family="Times,serif" font-size="14.00" fill="#ffffff">hasPhysicsDimension</text>
</a>
</g>
</g>
<!-- hasPhysicsDimension&#45;&gt;hasProperty -->
<g id="edge10" class="edge">
<title>hasPhysicsDimension&#45;&gt;hasProperty</title>
<path fill="none" stroke="#000000" d="M958,-252.1686C958,-259.869 958,-269.0257 958,-277.5834"/>
<polygon fill="none" stroke="#000000" points="954.5001,-277.5867 958,-287.5867 961.5001,-277.5868 954.5001,-277.5867"/>
</g>
<!-- hasVariable -->
<g id="node31" class="node">
<title>hasVariable</title>
<g id="a_node31"><a xlink:href="http://emmo.info/emmo/middle/math#EMMO_3446e167_c576_49d6_846c_215bb8878a55" xlink:title="hasVariable">
<polygon fill="#0079ba" stroke="#000000" points="1097.5,-324 1016.5,-324 1016.5,-288 1097.5,-288 1097.5,-324"/>
<text text-anchor="middle" x="1057" y="-302.3" font-family="Times,serif" font-size="14.00" fill="#ffffff">hasVariable</text>
</a>
</g>
</g>
<!-- hasVariable&#45;&gt;hasConvention -->
<g id="edge8" class="edge">
<title>hasVariable&#45;&gt;hasConvention</title>
<path fill="none" stroke="#000000" d="M1056.7477,-324.1686C1056.6407,-331.869 1056.5135,-341.0257 1056.3947,-349.5834"/>
<polygon fill="none" stroke="#000000" points="1052.8951,-349.5391 1056.2557,-359.5867 1059.8944,-349.6363 1052.8951,-349.5391"/>
</g>
<!-- key1 -->
<g id="node32" class="node">
<title>key1</title>
<text text-anchor="start" x="638" y="-13.8" font-family="Times,serif" font-size="14.00" fill="#000000">isA</text>
</g>
<!-- key2 -->
<g id="node33" class="node">
<title>key2</title>
<text text-anchor="start" x="717" y="-13.8" font-family="Times,serif" font-size="14.00" fill="#000000"> </text>
</g>
<!-- key1&#45;&gt;key2 -->
<g id="edge33" class="edge">
<title>key1:e&#45;&gt;key2:w</title>
<path fill="none" stroke="#000000" d="M659,-19C680,-19 687.7109,-19 704.5581,-19"/>
<polygon fill="none" stroke="#000000" points="705,-22.5001 715,-19 705,-15.5001 705,-22.5001"/>
</g>
</g>
</svg>
