<?xml version="1.0" encoding="UTF-8" standalone="no"?>
<!DOCTYPE svg PUBLIC "-//W3C//DTD SVG 1.1//EN"
 "http://www.w3.org/Graphics/SVG/1.1/DTD/svg11.dtd">
<!-- Generated by graphviz version 2.40.1 (20161225.0304)
 -->
<!-- Title: %3 Pages: 1 -->
<svg width="710pt" height="620pt"
 viewBox="0.00 0.00 709.50 620.00" xmlns="http://www.w3.org/2000/svg" xmlns:xlink="http://www.w3.org/1999/xlink">
<g id="graph0" class="graph" transform="scale(1 1) rotate(0) translate(4 616)">
<title>%3</title>
<polygon fill="#ffffff" stroke="transparent" points="-4,4 -4,-616 705.5,-616 705.5,4 -4,4"/>
<!-- EMMORelation -->
<g id="node1" class="node">
<title>EMMORelation</title>
<g id="a_node1"><a xlink:href="http://emmo.info/emmo/top/mereotopology#EMMO_ec2472ae_cf4a_46a5_8555_1556f5a6c3c5" xlink:title="EMMORelation">
<polygon fill="#0079ba" stroke="#000000" stroke-width="2" points="325,-612 219,-612 219,-576 325,-576 325,-612"/>
<text text-anchor="middle" x="272" y="-590.3" font-family="Times,serif" font-size="14.00" fill="#ffffff">EMMORelation</text>
</a>
</g>
</g>
<!-- hasSpatialPart -->
<g id="node2" class="node">
<title>hasSpatialPart</title>
<g id="a_node2"><a xlink:href="http://emmo.info/emmo/top/physical#EMMO_f68030be_94b8_4c61_a161_886468558054" xlink:title="hasSpatialPart">
<polygon fill="#0079ba" stroke="#000000" points="290,-180 196,-180 196,-144 290,-144 290,-180"/>
<text text-anchor="middle" x="243" y="-158.3" font-family="Times,serif" font-size="14.00" fill="#ffffff">hasSpatialPart</text>
</a>
</g>
</g>
<!-- hasProperPart -->
<g id="node22" class="node">
<title>hasProperPart</title>
<g id="a_node22"><a xlink:href="http://emmo.info/emmo/top/mereotopology#EMMO_9380ab64_0363_4804_b13f_3a8a94119a76" xlink:title="hasProperPart">
<polygon fill="#0079ba" stroke="#000000" points="349,-252 257,-252 257,-216 349,-216 349,-252"/>
<text text-anchor="middle" x="303" y="-230.3" font-family="Times,serif" font-size="14.00" fill="#ffffff">hasProperPart</text>
</a>
</g>
</g>
<!-- hasSpatialPart&#45;&gt;hasProperPart -->
<g id="edge32" class="edge">
<title>hasSpatialPart&#45;&gt;hasProperPart</title>
<path fill="none" stroke="#000000" d="M258.1405,-180.1686C265.1217,-188.546 273.5391,-198.6469 281.1876,-207.8251"/>
<polygon fill="none" stroke="#000000" points="278.5649,-210.1452 287.6556,-215.5867 283.9425,-205.6638 278.5649,-210.1452"/>
</g>
<!-- hasProperty -->
<g id="node3" class="node">
<title>hasProperty</title>
<g id="a_node3"><a xlink:href="http://emmo.info/emmo/middle/properties#EMMO_e1097637_70d2_4895_973f_2396f04fa204" xlink:title="hasProperty">
<polygon fill="#0079ba" stroke="#000000" points="559.5,-324 478.5,-324 478.5,-288 559.5,-288 559.5,-324"/>
<text text-anchor="middle" x="519" y="-302.3" font-family="Times,serif" font-size="14.00" fill="#ffffff">hasProperty</text>
</a>
</g>
</g>
<!-- hasConvention -->
<g id="node16" class="node">
<title>hasConvention</title>
<g id="a_node16"><a xlink:href="http://emmo.info/emmo/top/semiotics#EMMO_eb3518bf_f799_4f9e_8c3e_ce59af11453b" xlink:title="hasConvention">
<polygon fill="#0079ba" stroke="#000000" points="618,-396 520,-396 520,-360 618,-360 618,-396"/>
<text text-anchor="middle" x="569" y="-374.3" font-family="Times,serif" font-size="14.00" fill="#ffffff">hasConvention</text>
</a>
</g>
</g>
<!-- hasProperty&#45;&gt;hasConvention -->
<g id="edge31" class="edge">
<title>hasProperty&#45;&gt;hasConvention</title>
<path fill="none" stroke="#000000" d="M531.6171,-324.1686C537.3172,-332.3768 544.1663,-342.2394 550.4359,-351.2677"/>
<polygon fill="none" stroke="#000000" points="547.6342,-353.3694 556.213,-359.5867 553.3838,-349.3766 547.6342,-353.3694"/>
</g>
<!-- hasSpatioTemporalDirectPart -->
<g id="node4" class="node">
<title>hasSpatioTemporalDirectPart</title>
<g id="a_node4"><a xlink:href="http://emmo.info/emmo/middle/reductionistic#EMMO_663859e5_add3_4c9e_96fb_c99399de278d" xlink:title="hasSpatioTemporalDirectPart">
<polygon fill="#0079ba" stroke="#000000" points="631,-108 453,-108 453,-72 631,-72 631,-108"/>
<text text-anchor="middle" x="542" y="-86.3" font-family="Times,serif" font-size="14.00" fill="#ffffff">hasSpatioTemporalDirectPart</text>
</a>
</g>
</g>
<!-- hasSpatioTemporalPart -->
<g id="node19" class="node">
<title>hasSpatioTemporalPart</title>
<g id="a_node19"><a xlink:href="http://emmo.info/emmo/top/physical#EMMO_6e046dd0_9634_4013_b2b1_9cc468087c83" xlink:title="hasSpatioTemporalPart">
<polygon fill="#0079ba" stroke="#000000" points="580,-180 436,-180 436,-144 580,-144 580,-180"/>
<text text-anchor="middle" x="508" y="-158.3" font-family="Times,serif" font-size="14.00" fill="#ffffff">hasSpatioTemporalPart</text>
</a>
</g>
</g>
<!-- hasSpatioTemporalDirectPart&#45;&gt;hasSpatioTemporalPart -->
<g id="edge26" class="edge">
<title>hasSpatioTemporalDirectPart&#45;&gt;hasSpatioTemporalPart</title>
<path fill="none" stroke="#000000" d="M533.4204,-108.1686C529.6642,-116.1229 525.1743,-125.631 521.0202,-134.4277"/>
<polygon fill="none" stroke="#000000" points="517.8004,-133.0497 516.6952,-143.5867 524.1301,-136.0388 517.8004,-133.0497"/>
</g>
<!-- hasVariable -->
<g id="node5" class="node">
<title>hasVariable</title>
<g id="a_node5"><a xlink:href="http://emmo.info/emmo/middle/math#EMMO_3446e167_c576_49d6_846c_215bb8878a55" xlink:title="hasVariable">
<polygon fill="#0079ba" stroke="#000000" points="658.5,-324 577.5,-324 577.5,-288 658.5,-288 658.5,-324"/>
<text text-anchor="middle" x="618" y="-302.3" font-family="Times,serif" font-size="14.00" fill="#ffffff">hasVariable</text>
</a>
</g>
</g>
<!-- hasVariable&#45;&gt;hasConvention -->
<g id="edge28" class="edge">
<title>hasVariable&#45;&gt;hasConvention</title>
<path fill="none" stroke="#000000" d="M605.6352,-324.1686C600.0491,-332.3768 593.337,-342.2394 587.1928,-351.2677"/>
<polygon fill="none" stroke="#000000" points="584.264,-349.3504 581.5313,-359.5867 590.051,-353.2888 584.264,-349.3504"/>
</g>
<!-- overcrosses -->
<g id="node6" class="node">
<title>overcrosses</title>
<g id="a_node6"><a xlink:href="http://emmo.info/emmo/top/mereotopology#EMMO_9cb984ca_48ad_4864_b09e_50d3fff19420" xlink:title="overcrosses">
<polygon fill="#0079ba" stroke="#000000" points="215,-324 135,-324 135,-288 215,-288 215,-324"/>
<text text-anchor="middle" x="175" y="-302.3" font-family="Times,serif" font-size="14.00" fill="#ffffff">overcrosses</text>
</a>
</g>
</g>
<!-- hasOverlapWith -->
<g id="node30" class="node">
<title>hasOverlapWith</title>
<g id="a_node30"><a xlink:href="http://emmo.info/emmo/top/mereotopology#EMMO_d893d373_b579_4867_841e_1c2b31a8d2c6" xlink:title="hasOverlapWith">
<polygon fill="#0079ba" stroke="#000000" points="228,-396 122,-396 122,-360 228,-360 228,-396"/>
<text text-anchor="middle" x="175" y="-374.3" font-family="Times,serif" font-size="14.00" fill="#ffffff">hasOverlapWith</text>
</a>
</g>
</g>
<!-- overcrosses&#45;&gt;hasOverlapWith -->
<g id="edge17" class="edge">
<title>overcrosses&#45;&gt;hasOverlapWith</title>
<path fill="none" stroke="#000000" d="M175,-324.1686C175,-331.869 175,-341.0257 175,-349.5834"/>
<polygon fill="none" stroke="#000000" points="171.5001,-349.5867 175,-359.5867 178.5001,-349.5868 171.5001,-349.5867"/>
</g>
<!-- hasIcon -->
<g id="node7" class="node">
<title>hasIcon</title>
<g id="a_node7"><a xlink:href="http://emmo.info/emmo/top/semiotics#EMMO_39c3815d_8cae_4c8f_b2ff_eeba24bec455" xlink:title="hasIcon">
<polygon fill="#0079ba" stroke="#000000" points="385.5,-396 326.5,-396 326.5,-360 385.5,-360 385.5,-396"/>
<text text-anchor="middle" x="356" y="-374.3" font-family="Times,serif" font-size="14.00" fill="#ffffff">hasIcon</text>
</a>
</g>
</g>
<!-- hasSign -->
<g id="node10" class="node">
<title>hasSign</title>
<g id="a_node10"><a xlink:href="http://emmo.info/emmo/top/semiotics#EMMO_60577dea_9019_4537_ac41_80b0fb563d41" xlink:title="hasSign">
<polygon fill="#0079ba" stroke="#000000" points="482.5,-468 423.5,-468 423.5,-432 482.5,-432 482.5,-468"/>
<text text-anchor="middle" x="453" y="-446.3" font-family="Times,serif" font-size="14.00" fill="#ffffff">hasSign</text>
</a>
</g>
</g>
<!-- hasIcon&#45;&gt;hasSign -->
<g id="edge2" class="edge">
<title>hasIcon&#45;&gt;hasSign</title>
<path fill="none" stroke="#000000" d="M380.4772,-396.1686C392.5395,-405.1221 407.254,-416.0442 420.2686,-425.7045"/>
<polygon fill="none" stroke="#000000" points="418.4148,-428.6873 428.5306,-431.8372 422.587,-423.0665 418.4148,-428.6873"/>
</g>
<!-- mereotopological -->
<g id="node8" class="node">
<title>mereotopological</title>
<g id="a_node8"><a xlink:href="http://emmo.info/emmo/top/mereotopology#EMMO_03212fd7_abfd_4828_9c8e_62c293052d4b" xlink:title="mereotopological">
<polygon fill="#0079ba" stroke="#000000" points="273,-540 161,-540 161,-504 273,-504 273,-540"/>
<text text-anchor="middle" x="217" y="-518.3" font-family="Times,serif" font-size="14.00" fill="#ffffff">mereotopological</text>
</a>
</g>
</g>
<!-- mereotopological&#45;&gt;EMMORelation -->
<g id="edge12" class="edge">
<title>mereotopological&#45;&gt;EMMORelation</title>
<path fill="none" stroke="#000000" d="M230.8788,-540.1686C237.2136,-548.4614 244.8384,-558.443 251.7926,-567.5467"/>
<polygon fill="none" stroke="#000000" points="249.0825,-569.7647 257.9343,-575.5867 254.6452,-565.5153 249.0825,-569.7647"/>
</g>
<!-- hasParticipant -->
<g id="node9" class="node">
<title>hasParticipant</title>
<g id="a_node9"><a xlink:href="http://emmo.info/emmo/middle/holistic#EMMO_ae2d1a96_bfa1_409a_a7d2_03d69e8a125a" xlink:title="hasParticipant">
<polygon fill="#0079ba" stroke="#000000" points="229.5,-252 136.5,-252 136.5,-216 229.5,-216 229.5,-252"/>
<text text-anchor="middle" x="183" y="-230.3" font-family="Times,serif" font-size="14.00" fill="#ffffff">hasParticipant</text>
</a>
</g>
</g>
<!-- hasPart -->
<g id="node21" class="node">
<title>hasPart</title>
<g id="a_node21"><a xlink:href="http://emmo.info/emmo/top/mereotopology#EMMO_17e27c22_37e1_468c_9dd7_95e137f73e7f" xlink:title="hasPart">
<polygon fill="#0079ba" stroke="#000000" points="296,-324 240,-324 240,-288 296,-288 296,-324"/>
<text text-anchor="middle" x="268" y="-302.3" font-family="Times,serif" font-size="14.00" fill="#ffffff">hasPart</text>
</a>
</g>
</g>
<!-- hasParticipant&#45;&gt;hasPart -->
<g id="edge9" class="edge">
<title>hasParticipant&#45;&gt;hasPart</title>
<path fill="none" stroke="#000000" d="M204.4491,-252.1686C214.8178,-260.9515 227.4229,-271.6288 238.6646,-281.1511"/>
<polygon fill="none" stroke="#000000" points="236.6651,-284.0444 246.5578,-287.8372 241.1895,-278.703 236.6651,-284.0444"/>
</g>
<!-- semiotical -->
<g id="node14" class="node">
<title>semiotical</title>
<g id="a_node14"><a xlink:href="http://emmo.info/emmo/top/semiotics#EMMO_2337e25c_3c60_43fc_a8f9_b11a3f974291" xlink:title="semiotical">
<polygon fill="#0079ba" stroke="#000000" points="447.5,-540 374.5,-540 374.5,-504 447.5,-504 447.5,-540"/>
<text text-anchor="middle" x="411" y="-518.3" font-family="Times,serif" font-size="14.00" fill="#ffffff">semiotical</text>
</a>
</g>
</g>
<!-- hasSign&#45;&gt;semiotical -->
<g id="edge6" class="edge">
<title>hasSign&#45;&gt;semiotical</title>
<path fill="none" stroke="#000000" d="M442.4016,-468.1686C437.7123,-476.2075 432.0972,-485.8334 426.9202,-494.7082"/>
<polygon fill="none" stroke="#000000" points="423.7566,-493.1854 421.7411,-503.5867 429.8031,-496.7125 423.7566,-493.1854"/>
</g>
<!-- hasInterpretant -->
<g id="node11" class="node">
<title>hasInterpretant</title>
<g id="a_node11"><a xlink:href="http://emmo.info/emmo/top/semiotics#EMMO_7fb7fe7e_bdf9_4eeb_adad_e384dd5285c6" xlink:title="hasInterpretant">
<polygon fill="#0079ba" stroke="#000000" points="502,-396 404,-396 404,-360 502,-360 502,-396"/>
<text text-anchor="middle" x="453" y="-374.3" font-family="Times,serif" font-size="14.00" fill="#ffffff">hasInterpretant</text>
</a>
</g>
</g>
<!-- hasInterpretant&#45;&gt;hasSign -->
<g id="edge27" class="edge">
<title>hasInterpretant&#45;&gt;hasSign</title>
<path fill="none" stroke="#000000" d="M453,-396.1686C453,-403.869 453,-413.0257 453,-421.5834"/>
<polygon fill="none" stroke="#000000" points="449.5001,-421.5867 453,-431.5867 456.5001,-421.5868 449.5001,-421.5867"/>
</g>
<!-- hasTemporalDirectPart -->
<g id="node12" class="node">
<title>hasTemporalDirectPart</title>
<g id="a_node12"><a xlink:href="http://emmo.info/emmo/middle/reductionistic#EMMO_65a2c5b8_e4d8_4a51_b2f8_e55effc0547d" xlink:title="hasTemporalDirectPart">
<polygon fill="#0079ba" stroke="#000000" points="434.5,-108 291.5,-108 291.5,-72 434.5,-72 434.5,-108"/>
<text text-anchor="middle" x="363" y="-86.3" font-family="Times,serif" font-size="14.00" fill="#ffffff">hasTemporalDirectPart</text>
</a>
</g>
</g>
<!-- hasTemporalPart -->
<g id="node15" class="node">
<title>hasTemporalPart</title>
<g id="a_node15"><a xlink:href="http://emmo.info/emmo/top/physical#EMMO_7afbed84_7593_4a23_bd88_9d9c6b04e8f6" xlink:title="hasTemporalPart">
<polygon fill="#0079ba" stroke="#000000" points="418,-180 308,-180 308,-144 418,-144 418,-180"/>
<text text-anchor="middle" x="363" y="-158.3" font-family="Times,serif" font-size="14.00" fill="#ffffff">hasTemporalPart</text>
</a>
</g>
</g>
<!-- hasTemporalDirectPart&#45;&gt;hasTemporalPart -->
<g id="edge5" class="edge">
<title>hasTemporalDirectPart&#45;&gt;hasTemporalPart</title>
<path fill="none" stroke="#000000" d="M363,-108.1686C363,-115.869 363,-125.0257 363,-133.5834"/>
<polygon fill="none" stroke="#000000" points="359.5001,-133.5867 363,-143.5867 366.5001,-133.5868 359.5001,-133.5867"/>
</g>
<!-- hasProperParticipant -->
<g id="node13" class="node">
<title>hasProperParticipant</title>
<g id="a_node13"><a xlink:href="http://emmo.info/emmo/middle/holistic#EMMO_c5aae418_1622_4d02_93c5_21159e28e6c1" xlink:title="hasProperParticipant">
<polygon fill="#0079ba" stroke="#000000" points="177.5,-180 48.5,-180 48.5,-144 177.5,-144 177.5,-180"/>
<text text-anchor="middle" x="113" y="-158.3" font-family="Times,serif" font-size="14.00" fill="#ffffff">hasProperParticipant</text>
</a>
</g>
</g>
<!-- hasProperParticipant&#45;&gt;hasParticipant -->
<g id="edge7" class="edge">
<title>hasProperParticipant&#45;&gt;hasParticipant</title>
<path fill="none" stroke="#000000" d="M130.664,-180.1686C138.9732,-188.7152 149.0264,-199.0557 158.0918,-208.3802"/>
<polygon fill="none" stroke="#000000" points="155.6179,-210.8565 165.0982,-215.5867 160.6369,-205.977 155.6179,-210.8565"/>
</g>
<!-- hasProperParticipant&#45;&gt;hasProperPart -->
<g id="edge8" class="edge">
<title>hasProperParticipant&#45;&gt;hasProperPart</title>
<path fill="none" stroke="#000000" d="M160.945,-180.1686C187.2015,-190.1185 219.8737,-202.4995 247.2624,-212.8784"/>
<polygon fill="none" stroke="#000000" points="246.1192,-216.188 256.7106,-216.4588 248.5998,-209.6422 246.1192,-216.188"/>
</g>
<!-- semiotical&#45;&gt;EMMORelation -->
<g id="edge29" class="edge">
<title>semiotical&#45;&gt;EMMORelation</title>
<path fill="none" stroke="#000000" d="M375.9244,-540.1686C357.7339,-549.5911 335.3342,-561.1938 315.994,-571.2117"/>
<polygon fill="none" stroke="#000000" points="314.334,-568.1299 307.0643,-575.8372 317.5537,-574.3455 314.334,-568.1299"/>
</g>
<!-- hasTemporalPart&#45;&gt;hasProperPart -->
<g id="edge21" class="edge">
<title>hasTemporalPart&#45;&gt;hasProperPart</title>
<path fill="none" stroke="#000000" d="M347.8595,-180.1686C340.8783,-188.546 332.4609,-198.6469 324.8124,-207.8251"/>
<polygon fill="none" stroke="#000000" points="322.0575,-205.6638 318.3444,-215.5867 327.4351,-210.1452 322.0575,-205.6638"/>
</g>
<!-- hasConvention&#45;&gt;hasSign -->
<g id="edge30" class="edge">
<title>hasConvention&#45;&gt;hasSign</title>
<path fill="none" stroke="#000000" d="M539.7283,-396.1686C524.8912,-405.3779 506.6985,-416.6699 490.8138,-426.5294"/>
<polygon fill="none" stroke="#000000" points="488.913,-423.5898 482.2623,-431.8372 492.6045,-429.5372 488.913,-423.5898"/>
</g>
<!-- hasSpatialDirectPart -->
<g id="node17" class="node">
<title>hasSpatialDirectPart</title>
<g id="a_node17"><a xlink:href="http://emmo.info/emmo/middle/reductionistic#EMMO_b2282816_b7a3_44c6_b2cb_3feff1ceb7fe" xlink:title="hasSpatialDirectPart">
<polygon fill="#0079ba" stroke="#000000" points="273,-108 145,-108 145,-72 273,-72 273,-108"/>
<text text-anchor="middle" x="209" y="-86.3" font-family="Times,serif" font-size="14.00" fill="#ffffff">hasSpatialDirectPart</text>
</a>
</g>
</g>
<!-- hasSpatialDirectPart&#45;&gt;hasSpatialPart -->
<g id="edge24" class="edge">
<title>hasSpatialDirectPart&#45;&gt;hasSpatialPart</title>
<path fill="none" stroke="#000000" d="M217.5796,-108.1686C221.3358,-116.1229 225.8257,-125.631 229.9798,-134.4277"/>
<polygon fill="none" stroke="#000000" points="226.8699,-136.0388 234.3048,-143.5867 233.1996,-133.0497 226.8699,-136.0388"/>
</g>
<!-- hasReferenceUnit -->
<g id="node18" class="node">
<title>hasReferenceUnit</title>
<g id="a_node18"><a xlink:href="http://emmo.info/emmo/middle/metrology#EMMO_67fc0a36_8dcb_4ffa_9a43_31074efa3296" xlink:title="hasReferenceUnit">
<polygon fill="#0079ba" stroke="#000000" points="199.5,-36 86.5,-36 86.5,0 199.5,0 199.5,-36"/>
<text text-anchor="middle" x="143" y="-14.3" font-family="Times,serif" font-size="14.00" fill="#ffffff">hasReferenceUnit</text>
</a>
</g>
</g>
<!-- hasReferenceUnit&#45;&gt;hasSpatialDirectPart -->
<g id="edge23" class="edge">
<title>hasReferenceUnit&#45;&gt;hasSpatialDirectPart</title>
<path fill="none" stroke="#000000" d="M159.6546,-36.1686C167.4114,-44.6306 176.7802,-54.8511 185.261,-64.1029"/>
<polygon fill="none" stroke="#000000" points="182.7838,-66.5802 192.1212,-71.5867 187.9439,-61.8501 182.7838,-66.5802"/>
</g>
<!-- hasSpatioTemporalPart&#45;&gt;hasProperPart -->
<g id="edge20" class="edge">
<title>hasSpatioTemporalPart&#45;&gt;hasProperPart</title>
<path fill="none" stroke="#000000" d="M456.5345,-180.0757C426.7826,-190.5251 389.329,-203.6796 358.8623,-214.3801"/>
<polygon fill="none" stroke="#000000" points="357.5098,-211.1454 349.2346,-217.7615 359.8295,-217.7499 357.5098,-211.1454"/>
</g>
<!-- hasPhysicsDimension -->
<g id="node20" class="node">
<title>hasPhysicsDimension</title>
<g id="a_node20"><a xlink:href="http://emmo.info/emmo/middle/metrology#EMMO_bed1d005_b04e_4a90_94cf_02bc678a8569" xlink:title="hasPhysicsDimension">
<polygon fill="#0079ba" stroke="#000000" points="587,-252 451,-252 451,-216 587,-216 587,-252"/>
<text text-anchor="middle" x="519" y="-230.3" font-family="Times,serif" font-size="14.00" fill="#ffffff">hasPhysicsDimension</text>
</a>
</g>
</g>
<!-- hasPhysicsDimension&#45;&gt;hasProperty -->
<g id="edge16" class="edge">
<title>hasPhysicsDimension&#45;&gt;hasProperty</title>
<path fill="none" stroke="#000000" d="M519,-252.1686C519,-259.869 519,-269.0257 519,-277.5834"/>
<polygon fill="none" stroke="#000000" points="515.5001,-277.5867 519,-287.5867 522.5001,-277.5868 515.5001,-277.5867"/>
</g>
<!-- encloses -->
<g id="node28" class="node">
<title>encloses</title>
<g id="a_node28"><a xlink:href="http://emmo.info/emmo/top/mereotopology#EMMO_8c898653_1118_4682_9bbf_6cc334d16a99" xlink:title="encloses">
<polygon fill="#0079ba" stroke="#000000" points="308,-396 246,-396 246,-360 308,-360 308,-396"/>
<text text-anchor="middle" x="277" y="-374.3" font-family="Times,serif" font-size="14.00" fill="#ffffff">encloses</text>
</a>
</g>
</g>
<!-- hasPart&#45;&gt;encloses -->
<g id="edge14" class="edge">
<title>hasPart&#45;&gt;encloses</title>
<path fill="none" stroke="#000000" d="M270.2711,-324.1686C271.2336,-331.869 272.3782,-341.0257 273.4479,-349.5834"/>
<polygon fill="none" stroke="#000000" points="269.9849,-350.0981 274.6983,-359.5867 276.9309,-349.2298 269.9849,-350.0981"/>
</g>
<!-- hasPart&#45;&gt;hasOverlapWith -->
<g id="edge15" class="edge">
<title>hasPart&#45;&gt;hasOverlapWith</title>
<path fill="none" stroke="#000000" d="M244.5322,-324.1686C232.9673,-333.1221 218.8596,-344.0442 206.3817,-353.7045"/>
<polygon fill="none" stroke="#000000" points="204.225,-350.9479 198.4603,-359.8372 208.5102,-356.4829 204.225,-350.9479"/>
</g>
<!-- hasProperPart&#45;&gt;hasPart -->
<g id="edge4" class="edge">
<title>hasProperPart&#45;&gt;hasPart</title>
<path fill="none" stroke="#000000" d="M294.168,-252.1686C290.3014,-260.1229 285.6794,-269.631 281.4032,-278.4277"/>
<polygon fill="none" stroke="#000000" points="278.1751,-277.0629 276.9509,-287.5867 284.4707,-280.1232 278.1751,-277.0629"/>
</g>
<!-- hasModel -->
<g id="node23" class="node">
<title>hasModel</title>
<g id="a_node23"><a xlink:href="http://emmo.info/emmo/middle/models#EMMO_24c71baf_6db6_48b9_86c8_8c70cf36db0c" xlink:title="hasModel">
<polygon fill="#0079ba" stroke="#000000" points="391.5,-324 320.5,-324 320.5,-288 391.5,-288 391.5,-324"/>
<text text-anchor="middle" x="356" y="-302.3" font-family="Times,serif" font-size="14.00" fill="#ffffff">hasModel</text>
</a>
</g>
</g>
<!-- hasModel&#45;&gt;hasIcon -->
<g id="edge25" class="edge">
<title>hasModel&#45;&gt;hasIcon</title>
<path fill="none" stroke="#000000" d="M356,-324.1686C356,-331.869 356,-341.0257 356,-349.5834"/>
<polygon fill="none" stroke="#000000" points="352.5001,-349.5867 356,-359.5867 359.5001,-349.5868 352.5001,-349.5867"/>
</g>
<!-- hasMember -->
<g id="node24" class="node">
<title>hasMember</title>
<g id="a_node24"><a xlink:href="http://emmo.info/emmo/top/mereotopology#EMMO_6b7276a4_4b9d_440a_b577_0277539c0fc4" xlink:title="hasMember">
<polygon fill="#0079ba" stroke="#000000" points="680,-180 598,-180 598,-144 680,-144 680,-180"/>
<text text-anchor="middle" x="639" y="-158.3" font-family="Times,serif" font-size="14.00" fill="#ffffff">hasMember</text>
</a>
</g>
</g>
<!-- hasMember&#45;&gt;hasProperPart -->
<g id="edge11" class="edge">
<title>hasMember&#45;&gt;hasProperPart</title>
<path fill="none" stroke="#000000" d="M597.9651,-177.3573C594.9484,-178.3061 591.9374,-179.1994 589,-180 510.3563,-201.4342 417.2629,-217.2973 359.1574,-226.0995"/>
<polygon fill="none" stroke="#000000" points="358.4517,-222.6661 349.0802,-227.6083 359.4883,-229.5889 358.4517,-222.6661"/>
</g>
<!-- hasContactWith -->
<g id="node25" class="node">
<title>hasContactWith</title>
<g id="a_node25"><a xlink:href="http://emmo.info/emmo/top/mereotopology#EMMO_4d6504f1_c470_4ce9_b941_bbbebc9ab05d" xlink:title="hasContactWith">
<polygon fill="#0079ba" stroke="#000000" points="104,-396 0,-396 0,-360 104,-360 104,-396"/>
<text text-anchor="middle" x="52" y="-374.3" font-family="Times,serif" font-size="14.00" fill="#ffffff">hasContactWith</text>
</a>
</g>
</g>
<!-- connected -->
<g id="node29" class="node">
<title>connected</title>
<g id="a_node29"><a xlink:href="http://emmo.info/emmo/top/mereotopology#EMMO_6703954e_34c4_4a15_a9e7_f313760ae1a8" xlink:title="connected">
<polygon fill="#0079ba" stroke="#000000" points="252.5,-468 181.5,-468 181.5,-432 252.5,-432 252.5,-468"/>
<text text-anchor="middle" x="217" y="-446.3" font-family="Times,serif" font-size="14.00" fill="#ffffff">connected</text>
</a>
</g>
</g>
<!-- hasContactWith&#45;&gt;connected -->
<g id="edge3" class="edge">
<title>hasContactWith&#45;&gt;connected</title>
<path fill="none" stroke="#000000" d="M93.6365,-396.1686C117.4879,-406.5766 147.4358,-419.6447 171.8513,-430.2987"/>
<polygon fill="none" stroke="#000000" points="170.6894,-433.6104 181.2546,-434.402 173.4891,-427.1946 170.6894,-433.6104"/>
</g>
<!-- disconnected -->
<g id="node26" class="node">
<title>disconnected</title>
<g id="a_node26"><a xlink:href="http://emmo.info/emmo/top/mereotopology#EMMO_517dfaf9_4970_41ac_81ee_d031627d2c7c" xlink:title="disconnected">
<polygon fill="#0079ba" stroke="#000000" points="163.5,-468 76.5,-468 76.5,-432 163.5,-432 163.5,-468"/>
<text text-anchor="middle" x="120" y="-446.3" font-family="Times,serif" font-size="14.00" fill="#ffffff">disconnected</text>
</a>
</g>
</g>
<!-- disconnected&#45;&gt;mereotopological -->
<g id="edge10" class="edge">
<title>disconnected&#45;&gt;mereotopological</title>
<path fill="none" stroke="#000000" d="M144.4772,-468.1686C156.5395,-477.1221 171.254,-488.0442 184.2686,-497.7045"/>
<polygon fill="none" stroke="#000000" points="182.4148,-500.6873 192.5306,-503.8372 186.587,-495.0665 182.4148,-500.6873"/>
</g>
<!-- hasIndex -->
<g id="node27" class="node">
<title>hasIndex</title>
<g id="a_node27"><a xlink:href="http://emmo.info/emmo/top/semiotics#EMMO_297999d6_c9e4_4262_9536_bd524d1c6e21" xlink:title="hasIndex">
<polygon fill="#0079ba" stroke="#000000" points="701.5,-396 636.5,-396 636.5,-360 701.5,-360 701.5,-396"/>
<text text-anchor="middle" x="669" y="-374.3" font-family="Times,serif" font-size="14.00" fill="#ffffff">hasIndex</text>
</a>
</g>
</g>
<!-- hasIndex&#45;&gt;hasSign -->
<g id="edge18" class="edge">
<title>hasIndex&#45;&gt;hasSign</title>
<path fill="none" stroke="#000000" d="M636.1153,-392.4766C633.0502,-393.7098 629.9777,-394.9032 627,-396 581.4818,-412.7655 528.0551,-428.8233 492.531,-439.0045"/>
<polygon fill="none" stroke="#000000" points="491.219,-435.7388 482.5591,-441.8427 493.1353,-442.4714 491.219,-435.7388"/>
</g>
<!-- encloses&#45;&gt;connected -->
<g id="edge13" class="edge">
<title>encloses&#45;&gt;connected</title>
<path fill="none" stroke="#000000" d="M261.8595,-396.1686C254.8783,-404.546 246.4609,-414.6469 238.8124,-423.8251"/>
<polygon fill="none" stroke="#000000" points="236.0575,-421.6638 232.3444,-431.5867 241.4351,-426.1452 236.0575,-421.6638"/>
</g>
<!-- connected&#45;&gt;mereotopological -->
<g id="edge22" class="edge">
<title>connected&#45;&gt;mereotopological</title>
<path fill="none" stroke="#000000" d="M217,-468.1686C217,-475.869 217,-485.0257 217,-493.5834"/>
<polygon fill="none" stroke="#000000" points="213.5001,-493.5867 217,-503.5867 220.5001,-493.5868 213.5001,-493.5867"/>
</g>
<!-- hasOverlapWith&#45;&gt;connected -->
<g id="edge19" class="edge">
<title>hasOverlapWith&#45;&gt;connected</title>
<path fill="none" stroke="#000000" d="M185.5984,-396.1686C190.2877,-404.2075 195.9028,-413.8334 201.0798,-422.7082"/>
<polygon fill="none" stroke="#000000" points="198.1969,-424.7125 206.2589,-431.5867 204.2434,-421.1854 198.1969,-424.7125"/>
</g>
<!-- hasQuantityValue -->
<g id="node31" class="node">
<title>hasQuantityValue</title>
<g id="a_node31"><a xlink:href="http://emmo.info/emmo/middle/metrology#EMMO_8ef3cd6d_ae58_4a8d_9fc0_ad8f49015cd0" xlink:title="hasQuantityValue">
<polygon fill="#0079ba" stroke="#000000" points="332,-36 218,-36 218,0 332,0 332,-36"/>
<text text-anchor="middle" x="275" y="-14.3" font-family="Times,serif" font-size="14.00" fill="#ffffff">hasQuantityValue</text>
</a>
</g>
</g>
<!-- hasQuantityValue&#45;&gt;hasSpatialDirectPart -->
<g id="edge1" class="edge">
<title>hasQuantityValue&#45;&gt;hasSpatialDirectPart</title>
<path fill="none" stroke="#000000" d="M258.3454,-36.1686C250.5886,-44.6306 241.2198,-54.8511 232.739,-64.1029"/>
<polygon fill="none" stroke="#000000" points="230.0561,-61.8501 225.8788,-71.5867 235.2162,-66.5802 230.0561,-61.8501"/>
</g>
<!-- key1 -->
<g id="node32" class="node">
<title>key1</title>
<text text-anchor="start" x="368" y="-13.8" font-family="Times,serif" font-size="14.00" fill="#000000">isA</text>
</g>
<!-- key2 -->
<g id="node33" class="node">
<title>key2</title>
<text text-anchor="start" x="447" y="-13.8" font-family="Times,serif" font-size="14.00" fill="#000000"> </text>
</g>
<!-- key1&#45;&gt;key2 -->
<g id="edge33" class="edge">
<title>key1:e&#45;&gt;key2:w</title>
<path fill="none" stroke="#000000" d="M389,-19C410,-19 417.7109,-19 434.5581,-19"/>
<polygon fill="none" stroke="#000000" points="435,-22.5001 445,-19 435,-15.5001 435,-22.5001"/>
</g>
</g>
</svg>
