<?xml version="1.0" encoding="UTF-8" standalone="no"?>
<!DOCTYPE svg PUBLIC "-//W3C//DTD SVG 1.1//EN"
 "http://www.w3.org/Graphics/SVG/1.1/DTD/svg11.dtd">
<!-- Generated by graphviz version 2.40.1 (20161225.0304)
 -->
<!-- Title: %3 Pages: 1 -->
<svg width="1187pt" height="620pt"
 viewBox="0.00 0.00 1186.50 620.00" xmlns="http://www.w3.org/2000/svg" xmlns:xlink="http://www.w3.org/1999/xlink">
<g id="graph0" class="graph" transform="scale(1 1) rotate(0) translate(4 616)">
<title>%3</title>
<polygon fill="#ffffff" stroke="transparent" points="-4,4 -4,-616 1182.5,-616 1182.5,4 -4,4"/>
<!-- hasTemporalDirectPart -->
<g id="node1" class="node">
<title>hasTemporalDirectPart</title>
<g id="a_node1"><a xlink:href="http://emmo.info/emmo/middle/reductionistic#EMMO_65a2c5b8_e4d8_4a51_b2f8_e55effc0547d" xlink:title="hasTemporalDirectPart">
<polygon fill="#0079ba" stroke="#000000" points="143,-108 0,-108 0,-72 143,-72 143,-108"/>
<text text-anchor="middle" x="71.5" y="-86.3" font-family="Times,serif" font-size="14.00" fill="#ffffff">hasTemporalDirectPart</text>
</a>
</g>
</g>
<!-- hasTemporalPart -->
<g id="node4" class="node">
<title>hasTemporalPart</title>
<g id="a_node4"><a xlink:href="http://emmo.info/emmo/top/physical#EMMO_7afbed84_7593_4a23_bd88_9d9c6b04e8f6" xlink:title="hasTemporalPart">
<polygon fill="#0079ba" stroke="#000000" points="126.5,-180 16.5,-180 16.5,-144 126.5,-144 126.5,-180"/>
<text text-anchor="middle" x="71.5" y="-158.3" font-family="Times,serif" font-size="14.00" fill="#ffffff">hasTemporalPart</text>
</a>
</g>
</g>
<!-- hasTemporalDirectPart&#45;&gt;hasTemporalPart -->
<g id="edge1" class="edge">
<title>hasTemporalDirectPart&#45;&gt;hasTemporalPart</title>
<path fill="none" stroke="#000000" d="M71.5,-108.1686C71.5,-115.869 71.5,-125.0257 71.5,-133.5834"/>
<polygon fill="none" stroke="#000000" points="68.0001,-133.5867 71.5,-143.5867 75.0001,-133.5868 68.0001,-133.5867"/>
</g>
<!-- hasQuantityValue -->
<g id="node2" class="node">
<title>hasQuantityValue</title>
<g id="a_node2"><a xlink:href="http://emmo.info/emmo/middle/metrology#EMMO_8ef3cd6d_ae58_4a8d_9fc0_ad8f49015cd0" xlink:title="hasQuantityValue">
<polygon fill="#0079ba" stroke="#000000" points="461.5,-36 347.5,-36 347.5,0 461.5,0 461.5,-36"/>
<text text-anchor="middle" x="404.5" y="-14.3" font-family="Times,serif" font-size="14.00" fill="#ffffff">hasQuantityValue</text>
</a>
</g>
</g>
<!-- hasSpatialDirectPart -->
<g id="node14" class="node">
<title>hasSpatialDirectPart</title>
<g id="a_node14"><a xlink:href="http://emmo.info/emmo/middle/reductionistic#EMMO_b2282816_b7a3_44c6_b2cb_3feff1ceb7fe" xlink:title="hasSpatialDirectPart">
<polygon fill="#0079ba" stroke="#000000" points="534.5,-108 406.5,-108 406.5,-72 534.5,-72 534.5,-108"/>
<text text-anchor="middle" x="470.5" y="-86.3" font-family="Times,serif" font-size="14.00" fill="#ffffff">hasSpatialDirectPart</text>
</a>
</g>
</g>
<!-- hasQuantityValue&#45;&gt;hasSpatialDirectPart -->
<g id="edge20" class="edge">
<title>hasQuantityValue&#45;&gt;hasSpatialDirectPart</title>
<path fill="none" stroke="#000000" d="M421.1546,-36.1686C428.9114,-44.6306 438.2802,-54.8511 446.761,-64.1029"/>
<polygon fill="none" stroke="#000000" points="444.2838,-66.5802 453.6212,-71.5867 449.4439,-61.8501 444.2838,-66.5802"/>
</g>
<!-- hasContactWith -->
<g id="node3" class="node">
<title>hasContactWith</title>
<g id="a_node3"><a xlink:href="http://emmo.info/emmo/top/mereotopology#EMMO_4d6504f1_c470_4ce9_b941_bbbebc9ab05d" xlink:title="hasContactWith">
<polygon fill="#0079ba" stroke="#000000" points="785.5,-396 681.5,-396 681.5,-360 785.5,-360 785.5,-396"/>
<text text-anchor="middle" x="733.5" y="-374.3" font-family="Times,serif" font-size="14.00" fill="#ffffff">hasContactWith</text>
</a>
</g>
</g>
<!-- connected -->
<g id="node31" class="node">
<title>connected</title>
<g id="a_node31"><a xlink:href="http://emmo.info/emmo/top/mereotopology#EMMO_6703954e_34c4_4a15_a9e7_f313760ae1a8" xlink:title="connected">
<polygon fill="#0079ba" stroke="#000000" points="659,-468 588,-468 588,-432 659,-432 659,-468"/>
<text text-anchor="middle" x="623.5" y="-446.3" font-family="Times,serif" font-size="14.00" fill="#ffffff">connected</text>
</a>
</g>
</g>
<!-- hasContactWith&#45;&gt;connected -->
<g id="edge29" class="edge">
<title>hasContactWith&#45;&gt;connected</title>
<path fill="none" stroke="#000000" d="M705.7424,-396.1686C691.803,-405.2926 674.7402,-416.461 659.7769,-426.2551"/>
<polygon fill="none" stroke="#000000" points="657.699,-423.4321 651.2488,-431.8372 661.5326,-429.289 657.699,-423.4321"/>
</g>
<!-- hasProperPart -->
<g id="node24" class="node">
<title>hasProperPart</title>
<g id="a_node24"><a xlink:href="http://emmo.info/emmo/top/mereotopology#EMMO_9380ab64_0363_4804_b13f_3a8a94119a76" xlink:title="hasProperPart">
<polygon fill="#0079ba" stroke="#000000" points="429.5,-252 337.5,-252 337.5,-216 429.5,-216 429.5,-252"/>
<text text-anchor="middle" x="383.5" y="-230.3" font-family="Times,serif" font-size="14.00" fill="#ffffff">hasProperPart</text>
</a>
</g>
</g>
<!-- hasTemporalPart&#45;&gt;hasProperPart -->
<g id="edge26" class="edge">
<title>hasTemporalPart&#45;&gt;hasProperPart</title>
<path fill="none" stroke="#000000" d="M126.6023,-177.7231C129.6076,-178.5101 132.5881,-179.2742 135.5,-180 200.9007,-196.3017 276.6863,-212.4015 327.0977,-222.7206"/>
<polygon fill="none" stroke="#000000" points="326.6461,-226.2005 337.1438,-224.7693 328.0448,-219.3417 326.6461,-226.2005"/>
</g>
<!-- hasVariable -->
<g id="node5" class="node">
<title>hasVariable</title>
<g id="a_node5"><a xlink:href="http://emmo.info/emmo/middle/math#EMMO_3446e167_c576_49d6_846c_215bb8878a55" xlink:title="hasVariable">
<polygon fill="#0079ba" stroke="#000000" points="1052,-324 971,-324 971,-288 1052,-288 1052,-324"/>
<text text-anchor="middle" x="1011.5" y="-302.3" font-family="Times,serif" font-size="14.00" fill="#ffffff">hasVariable</text>
</a>
</g>
</g>
<!-- hasConvention -->
<g id="node28" class="node">
<title>hasConvention</title>
<g id="a_node28"><a xlink:href="http://emmo.info/emmo/top/semiotics#EMMO_eb3518bf_f799_4f9e_8c3e_ce59af11453b" xlink:title="hasConvention">
<polygon fill="#0079ba" stroke="#000000" points="1062.5,-396 964.5,-396 964.5,-360 1062.5,-360 1062.5,-396"/>
<text text-anchor="middle" x="1013.5" y="-374.3" font-family="Times,serif" font-size="14.00" fill="#ffffff">hasConvention</text>
</a>
</g>
</g>
<!-- hasVariable&#45;&gt;hasConvention -->
<g id="edge28" class="edge">
<title>hasVariable&#45;&gt;hasConvention</title>
<path fill="none" stroke="#000000" d="M1012.0047,-324.1686C1012.2186,-331.869 1012.4729,-341.0257 1012.7106,-349.5834"/>
<polygon fill="none" stroke="#000000" points="1009.2121,-349.6878 1012.9885,-359.5867 1016.2094,-349.4934 1009.2121,-349.6878"/>
</g>
<!-- EMMORelation -->
<g id="node6" class="node">
<title>EMMORelation</title>
<g id="a_node6"><a xlink:href="http://emmo.info/emmo/top/mereotopology#EMMO_ec2472ae_cf4a_46a5_8555_1556f5a6c3c5" xlink:title="EMMORelation">
<polygon fill="#0079ba" stroke="#000000" stroke-width="2" points="840.5,-612 734.5,-612 734.5,-576 840.5,-576 840.5,-612"/>
<text text-anchor="middle" x="787.5" y="-590.3" font-family="Times,serif" font-size="14.00" fill="#ffffff">EMMORelation</text>
</a>
</g>
</g>
<!-- encloses -->
<g id="node7" class="node">
<title>encloses</title>
<g id="a_node7"><a xlink:href="http://emmo.info/emmo/top/mereotopology#EMMO_8c898653_1118_4682_9bbf_6cc334d16a99" xlink:title="encloses">
<polygon fill="#0079ba" stroke="#000000" points="539.5,-396 477.5,-396 477.5,-360 539.5,-360 539.5,-396"/>
<text text-anchor="middle" x="508.5" y="-374.3" font-family="Times,serif" font-size="14.00" fill="#ffffff">encloses</text>
</a>
</g>
</g>
<!-- encloses&#45;&gt;connected -->
<g id="edge21" class="edge">
<title>encloses&#45;&gt;connected</title>
<path fill="none" stroke="#000000" d="M537.5194,-396.1686C552.2286,-405.3779 570.2644,-416.6699 586.0122,-426.5294"/>
<polygon fill="none" stroke="#000000" points="584.1567,-429.4971 594.4899,-431.8372 587.8714,-423.564 584.1567,-429.4971"/>
</g>
<!-- hasMember -->
<g id="node8" class="node">
<title>hasMember</title>
<g id="a_node8"><a xlink:href="http://emmo.info/emmo/top/mereotopology#EMMO_6b7276a4_4b9d_440a_b577_0277539c0fc4" xlink:title="hasMember">
<polygon fill="#0079ba" stroke="#000000" points="226.5,-180 144.5,-180 144.5,-144 226.5,-144 226.5,-180"/>
<text text-anchor="middle" x="185.5" y="-158.3" font-family="Times,serif" font-size="14.00" fill="#ffffff">hasMember</text>
</a>
</g>
</g>
<!-- hasMember&#45;&gt;hasProperPart -->
<g id="edge32" class="edge">
<title>hasMember&#45;&gt;hasProperPart</title>
<path fill="none" stroke="#000000" d="M226.5257,-176.9184C255.7818,-187.557 295.4672,-201.9881 327.6147,-213.6781"/>
<polygon fill="none" stroke="#000000" points="326.7356,-217.0826 337.3296,-217.2108 329.1278,-210.504 326.7356,-217.0826"/>
</g>
<!-- disconnected -->
<g id="node9" class="node">
<title>disconnected</title>
<g id="a_node9"><a xlink:href="http://emmo.info/emmo/top/mereotopology#EMMO_517dfaf9_4970_41ac_81ee_d031627d2c7c" xlink:title="disconnected">
<polygon fill="#0079ba" stroke="#000000" points="776,-468 689,-468 689,-432 776,-432 776,-468"/>
<text text-anchor="middle" x="732.5" y="-446.3" font-family="Times,serif" font-size="14.00" fill="#ffffff">disconnected</text>
</a>
</g>
</g>
<!-- mereotopological -->
<g id="node21" class="node">
<title>mereotopological</title>
<g id="a_node21"><a xlink:href="http://emmo.info/emmo/top/mereotopology#EMMO_03212fd7_abfd_4828_9c8e_62c293052d4b" xlink:title="mereotopological">
<polygon fill="#0079ba" stroke="#000000" points="788.5,-540 676.5,-540 676.5,-504 788.5,-504 788.5,-540"/>
<text text-anchor="middle" x="732.5" y="-518.3" font-family="Times,serif" font-size="14.00" fill="#ffffff">mereotopological</text>
</a>
</g>
</g>
<!-- disconnected&#45;&gt;mereotopological -->
<g id="edge25" class="edge">
<title>disconnected&#45;&gt;mereotopological</title>
<path fill="none" stroke="#000000" d="M732.5,-468.1686C732.5,-475.869 732.5,-485.0257 732.5,-493.5834"/>
<polygon fill="none" stroke="#000000" points="729.0001,-493.5867 732.5,-503.5867 736.0001,-493.5868 729.0001,-493.5867"/>
</g>
<!-- hasIndex -->
<g id="node10" class="node">
<title>hasIndex</title>
<g id="a_node10"><a xlink:href="http://emmo.info/emmo/top/semiotics#EMMO_297999d6_c9e4_4262_9536_bd524d1c6e21" xlink:title="hasIndex">
<polygon fill="#0079ba" stroke="#000000" points="869,-396 804,-396 804,-360 869,-360 869,-396"/>
<text text-anchor="middle" x="836.5" y="-374.3" font-family="Times,serif" font-size="14.00" fill="#ffffff">hasIndex</text>
</a>
</g>
</g>
<!-- hasSign -->
<g id="node17" class="node">
<title>hasSign</title>
<g id="a_node17"><a xlink:href="http://emmo.info/emmo/top/semiotics#EMMO_60577dea_9019_4537_ac41_80b0fb563d41" xlink:title="hasSign">
<polygon fill="#0079ba" stroke="#000000" points="946,-468 887,-468 887,-432 946,-432 946,-468"/>
<text text-anchor="middle" x="916.5" y="-446.3" font-family="Times,serif" font-size="14.00" fill="#ffffff">hasSign</text>
</a>
</g>
</g>
<!-- hasIndex&#45;&gt;hasSign -->
<g id="edge22" class="edge">
<title>hasIndex&#45;&gt;hasSign</title>
<path fill="none" stroke="#000000" d="M856.6874,-396.1686C866.3514,-404.8663 878.0796,-415.4217 888.5816,-424.8735"/>
<polygon fill="none" stroke="#000000" points="886.5447,-427.749 896.3191,-431.8372 891.2275,-422.546 886.5447,-427.749"/>
</g>
<!-- hasPart -->
<g id="node11" class="node">
<title>hasPart</title>
<g id="a_node11"><a xlink:href="http://emmo.info/emmo/top/mereotopology#EMMO_17e27c22_37e1_468c_9dd7_95e137f73e7f" xlink:title="hasPart">
<polygon fill="#0079ba" stroke="#000000" points="544.5,-324 488.5,-324 488.5,-288 544.5,-288 544.5,-324"/>
<text text-anchor="middle" x="516.5" y="-302.3" font-family="Times,serif" font-size="14.00" fill="#ffffff">hasPart</text>
</a>
</g>
</g>
<!-- hasPart&#45;&gt;encloses -->
<g id="edge4" class="edge">
<title>hasPart&#45;&gt;encloses</title>
<path fill="none" stroke="#000000" d="M514.4813,-324.1686C513.6257,-331.869 512.6083,-341.0257 511.6574,-349.5834"/>
<polygon fill="none" stroke="#000000" points="508.1717,-349.2614 510.5459,-359.5867 515.1289,-350.0344 508.1717,-349.2614"/>
</g>
<!-- hasOverlapWith -->
<g id="node12" class="node">
<title>hasOverlapWith</title>
<g id="a_node12"><a xlink:href="http://emmo.info/emmo/top/mereotopology#EMMO_d893d373_b579_4867_841e_1c2b31a8d2c6" xlink:title="hasOverlapWith">
<polygon fill="#0079ba" stroke="#000000" points="663.5,-396 557.5,-396 557.5,-360 663.5,-360 663.5,-396"/>
<text text-anchor="middle" x="610.5" y="-374.3" font-family="Times,serif" font-size="14.00" fill="#ffffff">hasOverlapWith</text>
</a>
</g>
</g>
<!-- hasPart&#45;&gt;hasOverlapWith -->
<g id="edge5" class="edge">
<title>hasPart&#45;&gt;hasOverlapWith</title>
<path fill="none" stroke="#000000" d="M540.2202,-324.1686C551.9094,-333.1221 566.1688,-344.0442 578.7809,-353.7045"/>
<polygon fill="none" stroke="#000000" points="576.7203,-356.5349 586.7874,-359.8372 580.9769,-350.9778 576.7203,-356.5349"/>
</g>
<!-- hasOverlapWith&#45;&gt;connected -->
<g id="edge16" class="edge">
<title>hasOverlapWith&#45;&gt;connected</title>
<path fill="none" stroke="#000000" d="M613.7804,-396.1686C615.1708,-403.869 616.8241,-413.0257 618.3692,-421.5834"/>
<polygon fill="none" stroke="#000000" points="614.9542,-422.3678 620.1754,-431.5867 621.8428,-421.1239 614.9542,-422.3678"/>
</g>
<!-- hasSpatioTemporalDirectPart -->
<g id="node13" class="node">
<title>hasSpatioTemporalDirectPart</title>
<g id="a_node13"><a xlink:href="http://emmo.info/emmo/middle/reductionistic#EMMO_663859e5_add3_4c9e_96fb_c99399de278d" xlink:title="hasSpatioTemporalDirectPart">
<polygon fill="#0079ba" stroke="#000000" points="388.5,-108 210.5,-108 210.5,-72 388.5,-72 388.5,-108"/>
<text text-anchor="middle" x="299.5" y="-86.3" font-family="Times,serif" font-size="14.00" fill="#ffffff">hasSpatioTemporalDirectPart</text>
</a>
</g>
</g>
<!-- hasSpatioTemporalPart -->
<g id="node25" class="node">
<title>hasSpatioTemporalPart</title>
<g id="a_node25"><a xlink:href="http://emmo.info/emmo/top/physical#EMMO_6e046dd0_9634_4013_b2b1_9cc468087c83" xlink:title="hasSpatioTemporalPart">
<polygon fill="#0079ba" stroke="#000000" points="388.5,-180 244.5,-180 244.5,-144 388.5,-144 388.5,-180"/>
<text text-anchor="middle" x="316.5" y="-158.3" font-family="Times,serif" font-size="14.00" fill="#ffffff">hasSpatioTemporalPart</text>
</a>
</g>
</g>
<!-- hasSpatioTemporalDirectPart&#45;&gt;hasSpatioTemporalPart -->
<g id="edge19" class="edge">
<title>hasSpatioTemporalDirectPart&#45;&gt;hasSpatioTemporalPart</title>
<path fill="none" stroke="#000000" d="M303.7898,-108.1686C305.608,-115.869 307.7699,-125.0257 309.7905,-133.5834"/>
<polygon fill="none" stroke="#000000" points="306.4481,-134.6586 312.1524,-143.5867 313.2608,-133.05 306.4481,-134.6586"/>
</g>
<!-- hasSpatialPart -->
<g id="node26" class="node">
<title>hasSpatialPart</title>
<g id="a_node26"><a xlink:href="http://emmo.info/emmo/top/physical#EMMO_f68030be_94b8_4c61_a161_886468558054" xlink:title="hasSpatialPart">
<polygon fill="#0079ba" stroke="#000000" points="500.5,-180 406.5,-180 406.5,-144 500.5,-144 500.5,-180"/>
<text text-anchor="middle" x="453.5" y="-158.3" font-family="Times,serif" font-size="14.00" fill="#ffffff">hasSpatialPart</text>
</a>
</g>
</g>
<!-- hasSpatialDirectPart&#45;&gt;hasSpatialPart -->
<g id="edge27" class="edge">
<title>hasSpatialDirectPart&#45;&gt;hasSpatialPart</title>
<path fill="none" stroke="#000000" d="M466.2102,-108.1686C464.392,-115.869 462.2301,-125.0257 460.2095,-133.5834"/>
<polygon fill="none" stroke="#000000" points="456.7392,-133.05 457.8476,-143.5867 463.5519,-134.6586 456.7392,-133.05"/>
</g>
<!-- hasReferenceUnit -->
<g id="node15" class="node">
<title>hasReferenceUnit</title>
<g id="a_node15"><a xlink:href="http://emmo.info/emmo/middle/metrology#EMMO_67fc0a36_8dcb_4ffa_9a43_31074efa3296" xlink:title="hasReferenceUnit">
<polygon fill="#0079ba" stroke="#000000" points="593,-36 480,-36 480,0 593,0 593,-36"/>
<text text-anchor="middle" x="536.5" y="-14.3" font-family="Times,serif" font-size="14.00" fill="#ffffff">hasReferenceUnit</text>
</a>
</g>
</g>
<!-- hasReferenceUnit&#45;&gt;hasSpatialDirectPart -->
<g id="edge2" class="edge">
<title>hasReferenceUnit&#45;&gt;hasSpatialDirectPart</title>
<path fill="none" stroke="#000000" d="M519.8454,-36.1686C512.0886,-44.6306 502.7198,-54.8511 494.239,-64.1029"/>
<polygon fill="none" stroke="#000000" points="491.5561,-61.8501 487.3788,-71.5867 496.7162,-66.5802 491.5561,-61.8501"/>
</g>
<!-- hasProperty -->
<g id="node16" class="node">
<title>hasProperty</title>
<g id="a_node16"><a xlink:href="http://emmo.info/emmo/middle/properties#EMMO_e1097637_70d2_4895_973f_2396f04fa204" xlink:title="hasProperty">
<polygon fill="#0079ba" stroke="#000000" points="1151,-324 1070,-324 1070,-288 1151,-288 1151,-324"/>
<text text-anchor="middle" x="1110.5" y="-302.3" font-family="Times,serif" font-size="14.00" fill="#ffffff">hasProperty</text>
</a>
</g>
</g>
<!-- hasProperty&#45;&gt;hasConvention -->
<g id="edge10" class="edge">
<title>hasProperty&#45;&gt;hasConvention</title>
<path fill="none" stroke="#000000" d="M1086.0228,-324.1686C1073.9605,-333.1221 1059.246,-344.0442 1046.2314,-353.7045"/>
<polygon fill="none" stroke="#000000" points="1043.913,-351.0665 1037.9694,-359.8372 1048.0852,-356.6873 1043.913,-351.0665"/>
</g>
<!-- semiotical -->
<g id="node27" class="node">
<title>semiotical</title>
<g id="a_node27"><a xlink:href="http://emmo.info/emmo/top/semiotics#EMMO_2337e25c_3c60_43fc_a8f9_b11a3f974291" xlink:title="semiotical">
<polygon fill="#0079ba" stroke="#000000" points="904,-540 831,-540 831,-504 904,-504 904,-540"/>
<text text-anchor="middle" x="867.5" y="-518.3" font-family="Times,serif" font-size="14.00" fill="#ffffff">semiotical</text>
</a>
</g>
</g>
<!-- hasSign&#45;&gt;semiotical -->
<g id="edge24" class="edge">
<title>hasSign&#45;&gt;semiotical</title>
<path fill="none" stroke="#000000" d="M904.1352,-468.1686C898.5491,-476.3768 891.837,-486.2394 885.6928,-495.2677"/>
<polygon fill="none" stroke="#000000" points="882.764,-493.3504 880.0313,-503.5867 888.551,-497.2888 882.764,-493.3504"/>
</g>
<!-- hasIcon -->
<g id="node18" class="node">
<title>hasIcon</title>
<g id="a_node18"><a xlink:href="http://emmo.info/emmo/top/semiotics#EMMO_39c3815d_8cae_4c8f_b2ff_eeba24bec455" xlink:title="hasIcon">
<polygon fill="#0079ba" stroke="#000000" points="946,-396 887,-396 887,-360 946,-360 946,-396"/>
<text text-anchor="middle" x="916.5" y="-374.3" font-family="Times,serif" font-size="14.00" fill="#ffffff">hasIcon</text>
</a>
</g>
</g>
<!-- hasIcon&#45;&gt;hasSign -->
<g id="edge8" class="edge">
<title>hasIcon&#45;&gt;hasSign</title>
<path fill="none" stroke="#000000" d="M916.5,-396.1686C916.5,-403.869 916.5,-413.0257 916.5,-421.5834"/>
<polygon fill="none" stroke="#000000" points="913.0001,-421.5867 916.5,-431.5867 920.0001,-421.5868 913.0001,-421.5867"/>
</g>
<!-- hasModel -->
<g id="node19" class="node">
<title>hasModel</title>
<g id="a_node19"><a xlink:href="http://emmo.info/emmo/middle/models#EMMO_24c71baf_6db6_48b9_86c8_8c70cf36db0c" xlink:title="hasModel">
<polygon fill="#0079ba" stroke="#000000" points="952,-324 881,-324 881,-288 952,-288 952,-324"/>
<text text-anchor="middle" x="916.5" y="-302.3" font-family="Times,serif" font-size="14.00" fill="#ffffff">hasModel</text>
</a>
</g>
</g>
<!-- hasModel&#45;&gt;hasIcon -->
<g id="edge17" class="edge">
<title>hasModel&#45;&gt;hasIcon</title>
<path fill="none" stroke="#000000" d="M916.5,-324.1686C916.5,-331.869 916.5,-341.0257 916.5,-349.5834"/>
<polygon fill="none" stroke="#000000" points="913.0001,-349.5867 916.5,-359.5867 920.0001,-349.5868 913.0001,-349.5867"/>
</g>
<!-- hasProperParticipant -->
<g id="node20" class="node">
<title>hasProperParticipant</title>
<g id="a_node20"><a xlink:href="http://emmo.info/emmo/middle/holistic#EMMO_c5aae418_1622_4d02_93c5_21159e28e6c1" xlink:title="hasProperParticipant">
<polygon fill="#0079ba" stroke="#000000" points="648,-180 519,-180 519,-144 648,-144 648,-180"/>
<text text-anchor="middle" x="583.5" y="-158.3" font-family="Times,serif" font-size="14.00" fill="#ffffff">hasProperParticipant</text>
</a>
</g>
</g>
<!-- hasParticipant -->
<g id="node23" class="node">
<title>hasParticipant</title>
<g id="a_node23"><a xlink:href="http://emmo.info/emmo/middle/holistic#EMMO_ae2d1a96_bfa1_409a_a7d2_03d69e8a125a" xlink:title="hasParticipant">
<polygon fill="#0079ba" stroke="#000000" points="597,-252 504,-252 504,-216 597,-216 597,-252"/>
<text text-anchor="middle" x="550.5" y="-230.3" font-family="Times,serif" font-size="14.00" fill="#ffffff">hasParticipant</text>
</a>
</g>
</g>
<!-- hasProperParticipant&#45;&gt;hasParticipant -->
<g id="edge12" class="edge">
<title>hasProperParticipant&#45;&gt;hasParticipant</title>
<path fill="none" stroke="#000000" d="M575.1727,-180.1686C571.527,-188.1229 567.1691,-197.631 563.1373,-206.4277"/>
<polygon fill="none" stroke="#000000" points="559.9243,-205.0378 558.9394,-215.5867 566.2877,-207.9544 559.9243,-205.0378"/>
</g>
<!-- hasProperParticipant&#45;&gt;hasProperPart -->
<g id="edge13" class="edge">
<title>hasProperParticipant&#45;&gt;hasProperPart</title>
<path fill="none" stroke="#000000" d="M533.2897,-180.0757C504.701,-190.3676 468.8233,-203.2836 439.3485,-213.8945"/>
<polygon fill="none" stroke="#000000" points="437.8413,-210.7172 429.618,-217.3975 440.2124,-217.3034 437.8413,-210.7172"/>
</g>
<!-- mereotopological&#45;&gt;EMMORelation -->
<g id="edge3" class="edge">
<title>mereotopological&#45;&gt;EMMORelation</title>
<path fill="none" stroke="#000000" d="M746.3788,-540.1686C752.7136,-548.4614 760.3384,-558.443 767.2926,-567.5467"/>
<polygon fill="none" stroke="#000000" points="764.5825,-569.7647 773.4343,-575.5867 770.1452,-565.5153 764.5825,-569.7647"/>
</g>
<!-- overcrosses -->
<g id="node22" class="node">
<title>overcrosses</title>
<g id="a_node22"><a xlink:href="http://emmo.info/emmo/top/mereotopology#EMMO_9cb984ca_48ad_4864_b09e_50d3fff19420" xlink:title="overcrosses">
<polygon fill="#0079ba" stroke="#000000" points="650.5,-324 570.5,-324 570.5,-288 650.5,-288 650.5,-324"/>
<text text-anchor="middle" x="610.5" y="-302.3" font-family="Times,serif" font-size="14.00" fill="#ffffff">overcrosses</text>
</a>
</g>
</g>
<!-- overcrosses&#45;&gt;hasOverlapWith -->
<g id="edge31" class="edge">
<title>overcrosses&#45;&gt;hasOverlapWith</title>
<path fill="none" stroke="#000000" d="M610.5,-324.1686C610.5,-331.869 610.5,-341.0257 610.5,-349.5834"/>
<polygon fill="none" stroke="#000000" points="607.0001,-349.5867 610.5,-359.5867 614.0001,-349.5868 607.0001,-349.5867"/>
</g>
<!-- hasParticipant&#45;&gt;hasPart -->
<g id="edge23" class="edge">
<title>hasParticipant&#45;&gt;hasPart</title>
<path fill="none" stroke="#000000" d="M541.9204,-252.1686C538.1642,-260.1229 533.6743,-269.631 529.5202,-278.4277"/>
<polygon fill="none" stroke="#000000" points="526.3004,-277.0497 525.1952,-287.5867 532.6301,-280.0388 526.3004,-277.0497"/>
</g>
<!-- hasProperPart&#45;&gt;hasPart -->
<g id="edge30" class="edge">
<title>hasProperPart&#45;&gt;hasPart</title>
<path fill="none" stroke="#000000" d="M417.0615,-252.1686C436.0612,-262.4542 459.8601,-275.3378 479.4114,-285.922"/>
<polygon fill="none" stroke="#000000" points="477.8846,-289.0753 488.3449,-290.7582 481.2171,-282.9195 477.8846,-289.0753"/>
</g>
<!-- hasSpatioTemporalPart&#45;&gt;hasProperPart -->
<g id="edge7" class="edge">
<title>hasSpatioTemporalPart&#45;&gt;hasProperPart</title>
<path fill="none" stroke="#000000" d="M333.4069,-180.1686C341.2813,-188.6306 350.792,-198.8511 359.4013,-208.1029"/>
<polygon fill="none" stroke="#000000" points="356.9908,-210.6503 366.3654,-215.5867 362.1153,-205.8817 356.9908,-210.6503"/>
</g>
<!-- hasSpatialPart&#45;&gt;hasProperPart -->
<g id="edge6" class="edge">
<title>hasSpatialPart&#45;&gt;hasProperPart</title>
<path fill="none" stroke="#000000" d="M435.836,-180.1686C427.5268,-188.7152 417.4736,-199.0557 408.4082,-208.3802"/>
<polygon fill="none" stroke="#000000" points="405.8631,-205.977 401.4018,-215.5867 410.8821,-210.8565 405.8631,-205.977"/>
</g>
<!-- semiotical&#45;&gt;EMMORelation -->
<g id="edge18" class="edge">
<title>semiotical&#45;&gt;EMMORelation</title>
<path fill="none" stroke="#000000" d="M847.3126,-540.1686C837.6486,-548.8663 825.9204,-559.4217 815.4184,-568.8735"/>
<polygon fill="none" stroke="#000000" points="812.7725,-566.546 807.6809,-575.8372 817.4553,-571.749 812.7725,-566.546"/>
</g>
<!-- hasConvention&#45;&gt;hasSign -->
<g id="edge15" class="edge">
<title>hasConvention&#45;&gt;hasSign</title>
<path fill="none" stroke="#000000" d="M989.0228,-396.1686C976.9605,-405.1221 962.246,-416.0442 949.2314,-425.7045"/>
<polygon fill="none" stroke="#000000" points="946.913,-423.0665 940.9694,-431.8372 951.0852,-428.6873 946.913,-423.0665"/>
</g>
<!-- hasInterpretant -->
<g id="node29" class="node">
<title>hasInterpretant</title>
<g id="a_node29"><a xlink:href="http://emmo.info/emmo/top/semiotics#EMMO_7fb7fe7e_bdf9_4eeb_adad_e384dd5285c6" xlink:title="hasInterpretant">
<polygon fill="#0079ba" stroke="#000000" points="1178.5,-396 1080.5,-396 1080.5,-360 1178.5,-360 1178.5,-396"/>
<text text-anchor="middle" x="1129.5" y="-374.3" font-family="Times,serif" font-size="14.00" fill="#ffffff">hasInterpretant</text>
</a>
</g>
</g>
<!-- hasInterpretant&#45;&gt;hasSign -->
<g id="edge9" class="edge">
<title>hasInterpretant&#45;&gt;hasSign</title>
<path fill="none" stroke="#000000" d="M1080.3661,-394.6087C1042.5704,-407.3846 991.0353,-424.805 955.9162,-436.6762"/>
<polygon fill="none" stroke="#000000" points="954.3775,-433.5017 946.0249,-440.0197 956.6192,-440.1331 954.3775,-433.5017"/>
</g>
<!-- hasPhysicsDimension -->
<g id="node30" class="node">
<title>hasPhysicsDimension</title>
<g id="a_node30"><a xlink:href="http://emmo.info/emmo/middle/metrology#EMMO_bed1d005_b04e_4a90_94cf_02bc678a8569" xlink:title="hasPhysicsDimension">
<polygon fill="#0079ba" stroke="#000000" points="1178.5,-252 1042.5,-252 1042.5,-216 1178.5,-216 1178.5,-252"/>
<text text-anchor="middle" x="1110.5" y="-230.3" font-family="Times,serif" font-size="14.00" fill="#ffffff">hasPhysicsDimension</text>
</a>
</g>
</g>
<!-- hasPhysicsDimension&#45;&gt;hasProperty -->
<g id="edge11" class="edge">
<title>hasPhysicsDimension&#45;&gt;hasProperty</title>
<path fill="none" stroke="#000000" d="M1110.5,-252.1686C1110.5,-259.869 1110.5,-269.0257 1110.5,-277.5834"/>
<polygon fill="none" stroke="#000000" points="1107.0001,-277.5867 1110.5,-287.5867 1114.0001,-277.5868 1107.0001,-277.5867"/>
</g>
<!-- connected&#45;&gt;mereotopological -->
<g id="edge14" class="edge">
<title>connected&#45;&gt;mereotopological</title>
<path fill="none" stroke="#000000" d="M651.0053,-468.1686C664.818,-477.2926 681.7256,-488.461 696.5529,-498.2551"/>
<polygon fill="none" stroke="#000000" points="694.7304,-501.2459 705.0035,-503.8372 698.5886,-495.4051 694.7304,-501.2459"/>
</g>
<!-- key1 -->
<g id="node32" class="node">
<title>key1</title>
<text text-anchor="start" x="629.5" y="-13.8" font-family="Times,serif" font-size="14.00" fill="#000000">isA</text>
</g>
<!-- key2 -->
<g id="node33" class="node">
<title>key2</title>
<text text-anchor="start" x="708.5" y="-13.8" font-family="Times,serif" font-size="14.00" fill="#000000"> </text>
</g>
<!-- key1&#45;&gt;key2 -->
<g id="edge33" class="edge">
<title>key1:e&#45;&gt;key2:w</title>
<path fill="none" stroke="#000000" d="M650.5,-19C671.5,-19 679.2109,-19 696.0581,-19"/>
<polygon fill="none" stroke="#000000" points="696.5,-22.5001 706.5,-19 696.5,-15.5001 696.5,-22.5001"/>
</g>
</g>
</svg>
