<?xml version="1.0" encoding="UTF-8" standalone="no"?>
<!DOCTYPE svg PUBLIC "-//W3C//DTD SVG 1.1//EN"
 "http://www.w3.org/Graphics/SVG/1.1/DTD/svg11.dtd">
<!-- Generated by graphviz version 2.40.1 (20161225.0304)
 -->
<!-- Title: %3 Pages: 1 -->
<svg width="356pt" height="116pt"
 viewBox="0.00 0.00 355.50 116.00" xmlns="http://www.w3.org/2000/svg" xmlns:xlink="http://www.w3.org/1999/xlink">
<g id="graph0" class="graph" transform="scale(1 1) rotate(0) translate(4 112)">
<title>%3</title>
<polygon fill="#ffffff" stroke="transparent" points="-4,4 -4,-112 351.5,-112 351.5,4 -4,4"/>
<!-- semiotical -->
<g id="node1" class="node">
<title>semiotical</title>
<g id="a_node1"><a xlink:href="http://emmo.info/emmo/top/semiotics#EMMO_2337e25c_3c60_43fc_a8f9_b11a3f974291" xlink:title="semiotical">
<polygon fill="#0079ba" stroke="#000000" stroke-width="2" points="73,-36 0,-36 0,0 73,0 73,-36"/>
<text text-anchor="middle" x="36.5" y="-14.3" font-family="Times,serif" font-size="14.00" fill="#ffffff">semiotical</text>
</a>
</g>
</g>
<!-- EMMORelation -->
<g id="node2" class="node">
<title>EMMORelation</title>
<g id="a_node2"><a xlink:href="http://emmo.info/emmo/top/mereotopology#EMMO_ec2472ae_cf4a_46a5_8555_1556f5a6c3c5" xlink:title="EMMORelation">
<polygon fill="#0079ba" stroke="#000000" stroke-width="2" points="144.5,-108 38.5,-108 38.5,-72 144.5,-72 144.5,-108"/>
<text text-anchor="middle" x="91.5" y="-86.3" font-family="Times,serif" font-size="14.00" fill="#ffffff">EMMORelation</text>
</a>
</g>
</g>
<!-- semiotical&#45;&gt;EMMORelation -->
<g id="edge1" class="edge">
<title>semiotical&#45;&gt;EMMORelation</title>
<path fill="none" stroke="#000000" d="M50.3788,-36.1686C56.7136,-44.4614 64.3384,-54.443 71.2926,-63.5467"/>
<polygon fill="none" stroke="#000000" points="68.5825,-65.7647 77.4343,-71.5867 74.1452,-61.5153 68.5825,-65.7647"/>
</g>
<!-- mereotopological -->
<g id="node3" class="node">
<title>mereotopological</title>
<g id="a_node3"><a xlink:href="http://emmo.info/emmo/top/mereotopology#EMMO_03212fd7_abfd_4828_9c8e_62c293052d4b" xlink:title="mereotopological">
<polygon fill="#0079ba" stroke="#000000" stroke-width="2" points="203.5,-36 91.5,-36 91.5,0 203.5,0 203.5,-36"/>
<text text-anchor="middle" x="147.5" y="-14.3" font-family="Times,serif" font-size="14.00" fill="#ffffff">mereotopological</text>
</a>
</g>
</g>
<!-- mereotopological&#45;&gt;EMMORelation -->
<g id="edge2" class="edge">
<title>mereotopological&#45;&gt;EMMORelation</title>
<path fill="none" stroke="#000000" d="M133.3688,-36.1686C126.9189,-44.4614 119.1555,-54.443 112.0748,-63.5467"/>
<polygon fill="none" stroke="#000000" points="109.1981,-61.5444 105.8214,-71.5867 114.7236,-65.842 109.1981,-61.5444"/>
</g>
<!-- key1 -->
<g id="node4" class="node">
<title>key1</title>
<text text-anchor="start" x="239.5" y="-13.8" font-family="Times,serif" font-size="14.00" fill="#000000">isA</text>
</g>
<!-- key2 -->
<g id="node5" class="node">
<title>key2</title>
<text text-anchor="start" x="318.5" y="-13.8" font-family="Times,serif" font-size="14.00" fill="#000000"> </text>
</g>
<!-- key1&#45;&gt;key2 -->
<g id="edge3" class="edge">
<title>key1:e&#45;&gt;key2:w</title>
<path fill="none" stroke="#000000" d="M260.5,-19C281.5,-19 289.2109,-19 306.0581,-19"/>
<polygon fill="none" stroke="#000000" points="306.5,-22.5001 316.5,-19 306.5,-15.5001 306.5,-22.5001"/>
</g>
</g>
</svg>
