<?xml version="1.0" encoding="UTF-8" standalone="no"?>
<!DOCTYPE svg PUBLIC "-//W3C//DTD SVG 1.1//EN"
 "http://www.w3.org/Graphics/SVG/1.1/DTD/svg11.dtd">
<!-- Generated by graphviz version 2.40.1 (20161225.0304)
 -->
<!-- Title: %3 Pages: 1 -->
<svg width="450pt" height="188pt"
 viewBox="0.00 0.00 450.39 188.00" xmlns="http://www.w3.org/2000/svg" xmlns:xlink="http://www.w3.org/1999/xlink">
<g id="graph0" class="graph" transform="scale(1 1) rotate(0) translate(4 184)">
<title>%3</title>
<polygon fill="#ffffff" stroke="transparent" points="-4,4 -4,-184 446.3922,-184 446.3922,4 -4,4"/>
<!-- ArithmeticExpression -->
<g id="node1" class="node">
<title>ArithmeticExpression</title>
<g id="a_node1"><a xlink:href="http://emmo.info/emmo/middle/math#EMMO_89083bab_f69c_4d06_bf6d_62973b56cdc7" xlink:title="ArithmeticExpression">
<ellipse fill="#ffffcc" stroke="#000000" cx="88.3922" cy="-18" rx="88.2844" ry="18"/>
<text text-anchor="middle" x="88.3922" y="-14.3" font-family="Times,serif" font-size="14.00" fill="#000000">ArithmeticExpression</text>
</a>
</g>
</g>
<!-- AlgebricExpression -->
<g id="node3" class="node">
<title>AlgebricExpression</title>
<g id="a_node3"><a xlink:href="http://emmo.info/emmo/top/math#EMMO_1aed91a3_d00c_48af_8f43_a0c958b2512a" xlink:title="AlgebricExpression">
<ellipse fill="#ffffcc" stroke="#000000" cx="167.3922" cy="-90" rx="80.6858" ry="18"/>
<text text-anchor="middle" x="167.3922" y="-86.3" font-family="Times,serif" font-size="14.00" fill="#000000">AlgebricExpression</text>
</a>
</g>
</g>
<!-- ArithmeticExpression&#45;&gt;AlgebricExpression -->
<g id="edge1" class="edge">
<title>ArithmeticExpression&#45;&gt;AlgebricExpression</title>
<path fill="none" stroke="#000000" d="M107.9203,-35.7978C117.774,-44.7783 129.8779,-55.8098 140.5883,-65.5711"/>
<polygon fill="none" stroke="#000000" points="138.3401,-68.2577 148.0887,-72.407 143.0554,-63.0841 138.3401,-68.2577"/>
</g>
<!-- Expression -->
<g id="node2" class="node">
<title>Expression</title>
<g id="a_node2"><a xlink:href="http://emmo.info/emmo/middle/math#EMMO_f9bc8b52_85e9_4b53_b969_dd7724d5b8e4" xlink:title="Expression">
<ellipse fill="#ffffcc" stroke="#000000" stroke-width="2" cx="167.3922" cy="-162" rx="50.0912" ry="18"/>
<text text-anchor="middle" x="167.3922" y="-158.3" font-family="Times,serif" font-size="14.00" fill="#000000">Expression</text>
</a>
</g>
</g>
<!-- AlgebricExpression&#45;&gt;Expression -->
<g id="edge3" class="edge">
<title>AlgebricExpression&#45;&gt;Expression</title>
<path fill="none" stroke="#000000" d="M167.3922,-108.1686C167.3922,-115.869 167.3922,-125.0257 167.3922,-133.5834"/>
<polygon fill="none" stroke="#000000" points="163.8923,-133.5867 167.3922,-143.5867 170.8923,-133.5868 163.8923,-133.5867"/>
</g>
<!-- Polynomial -->
<g id="node4" class="node">
<title>Polynomial</title>
<g id="a_node4"><a xlink:href="http://emmo.info/emmo/top/math#EMMO_91447ec0_fb55_49f2_85a5_3172dff6482c" xlink:title="Polynomial">
<ellipse fill="#ffffcc" stroke="#000000" cx="246.3922" cy="-18" rx="51.9908" ry="18"/>
<text text-anchor="middle" x="246.3922" y="-14.3" font-family="Times,serif" font-size="14.00" fill="#000000">Polynomial</text>
</a>
</g>
</g>
<!-- Polynomial&#45;&gt;AlgebricExpression -->
<g id="edge2" class="edge">
<title>Polynomial&#45;&gt;AlgebricExpression</title>
<path fill="none" stroke="#000000" d="M227.6703,-35.063C217.7569,-44.0979 205.4027,-55.3575 194.4642,-65.3267"/>
<polygon fill="none" stroke="#000000" points="191.838,-62.9847 186.8047,-72.3076 196.5533,-68.1583 191.838,-62.9847"/>
</g>
<!-- key1 -->
<g id="node5" class="node">
<title>key1</title>
<text text-anchor="start" x="334.3922" y="-13.8" font-family="Times,serif" font-size="14.00" fill="#000000">isA</text>
</g>
<!-- key2 -->
<g id="node6" class="node">
<title>key2</title>
<text text-anchor="start" x="413.3922" y="-13.8" font-family="Times,serif" font-size="14.00" fill="#000000"> </text>
</g>
<!-- key1&#45;&gt;key2 -->
<g id="edge4" class="edge">
<title>key1:e&#45;&gt;key2:w</title>
<path fill="none" stroke="#000000" d="M355.3922,-19C376.3922,-19 384.1031,-19 400.9503,-19"/>
<polygon fill="none" stroke="#000000" points="401.3922,-22.5001 411.3922,-19 401.3921,-15.5001 401.3922,-22.5001"/>
</g>
</g>
</svg>
