<?xml version="1.0" encoding="UTF-8" standalone="no"?>
<!DOCTYPE svg PUBLIC "-//W3C//DTD SVG 1.1//EN"
 "http://www.w3.org/Graphics/SVG/1.1/DTD/svg11.dtd">
<!-- Generated by graphviz version 2.40.1 (20161225.0304)
 -->
<!-- Title: %3 Pages: 1 -->
<svg width="450pt" height="188pt"
 viewBox="0.00 0.00 450.00 188.00" xmlns="http://www.w3.org/2000/svg" xmlns:xlink="http://www.w3.org/1999/xlink">
<g id="graph0" class="graph" transform="scale(1 1) rotate(0) translate(4 184)">
<title>%3</title>
<polygon fill="#ffffff" stroke="transparent" points="-4,4 -4,-184 445.9954,-184 445.9954,4 -4,4"/>
<!-- Expression -->
<g id="node1" class="node">
<title>Expression</title>
<g id="a_node1"><a xlink:href="http://emmo.info/emmo/middle/math#EMMO_f9bc8b52_85e9_4b53_b969_dd7724d5b8e4" xlink:title="Expression">
<ellipse fill="#ffffcc" stroke="#000000" stroke-width="2" cx="130.9954" cy="-162" rx="50.0912" ry="18"/>
<text text-anchor="middle" x="130.9954" y="-158.3" font-family="Times,serif" font-size="14.00" fill="#000000">Expression</text>
</a>
</g>
</g>
<!-- AlgebricExpression -->
<g id="node2" class="node">
<title>AlgebricExpression</title>
<g id="a_node2"><a xlink:href="http://emmo.info/emmo/top/math#EMMO_1aed91a3_d00c_48af_8f43_a0c958b2512a" xlink:title="AlgebricExpression">
<ellipse fill="#ffffcc" stroke="#000000" cx="130.9954" cy="-90" rx="80.6858" ry="18"/>
<text text-anchor="middle" x="130.9954" y="-86.3" font-family="Times,serif" font-size="14.00" fill="#000000">AlgebricExpression</text>
</a>
</g>
</g>
<!-- AlgebricExpression&#45;&gt;Expression -->
<g id="edge1" class="edge">
<title>AlgebricExpression&#45;&gt;Expression</title>
<path fill="none" stroke="#000000" d="M130.9954,-108.1686C130.9954,-115.869 130.9954,-125.0257 130.9954,-133.5834"/>
<polygon fill="none" stroke="#000000" points="127.4955,-133.5867 130.9954,-143.5867 134.4955,-133.5868 127.4955,-133.5867"/>
</g>
<!-- Polynomial -->
<g id="node3" class="node">
<title>Polynomial</title>
<g id="a_node3"><a xlink:href="http://emmo.info/emmo/top/math#EMMO_91447ec0_fb55_49f2_85a5_3172dff6482c" xlink:title="Polynomial">
<ellipse fill="#ffffcc" stroke="#000000" cx="51.9954" cy="-18" rx="51.9908" ry="18"/>
<text text-anchor="middle" x="51.9954" y="-14.3" font-family="Times,serif" font-size="14.00" fill="#000000">Polynomial</text>
</a>
</g>
</g>
<!-- Polynomial&#45;&gt;AlgebricExpression -->
<g id="edge3" class="edge">
<title>Polynomial&#45;&gt;AlgebricExpression</title>
<path fill="none" stroke="#000000" d="M70.7173,-35.063C80.6306,-44.0979 92.9849,-55.3575 103.9233,-65.3267"/>
<polygon fill="none" stroke="#000000" points="101.8343,-68.1583 111.5829,-72.3076 106.5495,-62.9847 101.8343,-68.1583"/>
</g>
<!-- ArithmeticExpression -->
<g id="node4" class="node">
<title>ArithmeticExpression</title>
<g id="a_node4"><a xlink:href="http://emmo.info/emmo/middle/math#EMMO_89083bab_f69c_4d06_bf6d_62973b56cdc7" xlink:title="ArithmeticExpression">
<ellipse fill="#ffffcc" stroke="#000000" cx="209.9954" cy="-18" rx="88.2844" ry="18"/>
<text text-anchor="middle" x="209.9954" y="-14.3" font-family="Times,serif" font-size="14.00" fill="#000000">ArithmeticExpression</text>
</a>
</g>
</g>
<!-- ArithmeticExpression&#45;&gt;AlgebricExpression -->
<g id="edge2" class="edge">
<title>ArithmeticExpression&#45;&gt;AlgebricExpression</title>
<path fill="none" stroke="#000000" d="M190.4673,-35.7978C180.6136,-44.7783 168.5097,-55.8098 157.7993,-65.5711"/>
<polygon fill="none" stroke="#000000" points="155.3322,-63.0841 150.2988,-72.407 160.0474,-68.2577 155.3322,-63.0841"/>
</g>
<!-- key1 -->
<g id="node5" class="node">
<title>key1</title>
<text text-anchor="start" x="333.9954" y="-13.8" font-family="Times,serif" font-size="14.00" fill="#000000">isA</text>
</g>
<!-- key2 -->
<g id="node6" class="node">
<title>key2</title>
<text text-anchor="start" x="412.9954" y="-13.8" font-family="Times,serif" font-size="14.00" fill="#000000"> </text>
</g>
<!-- key1&#45;&gt;key2 -->
<g id="edge4" class="edge">
<title>key1:e&#45;&gt;key2:w</title>
<path fill="none" stroke="#000000" d="M354.9954,-19C375.9954,-19 383.7063,-19 400.5535,-19"/>
<polygon fill="none" stroke="#000000" points="400.9954,-22.5001 410.9954,-19 400.9954,-15.5001 400.9954,-22.5001"/>
</g>
</g>
</svg>
