<?xml version="1.0" encoding="UTF-8" standalone="no"?>
<!DOCTYPE svg PUBLIC "-//W3C//DTD SVG 1.1//EN"
 "http://www.w3.org/Graphics/SVG/1.1/DTD/svg11.dtd">
<!-- Generated by graphviz version 2.40.1 (20161225.0304)
 -->
<!-- Title: %3 Pages: 1 -->
<svg width="821pt" height="260pt"
 viewBox="0.00 0.00 821.24 260.00" xmlns="http://www.w3.org/2000/svg" xmlns:xlink="http://www.w3.org/1999/xlink">
<g id="graph0" class="graph" transform="scale(1 1) rotate(0) translate(4 256)">
<title>%3</title>
<polygon fill="#ffffff" stroke="transparent" points="-4,4 -4,-256 817.2359,-256 817.2359,4 -4,4"/>
<!-- FunctionDefinition -->
<g id="node1" class="node">
<title>FunctionDefinition</title>
<g id="a_node1"><a xlink:href="http://emmo.info/emmo/top/math#EMMO_4bc29b0f_8fcc_4026_a291_f9774a66d9b8" xlink:title="FunctionDefinition">
<ellipse fill="#ffffcc" stroke="#000000" cx="77.9931" cy="-18" rx="77.9862" ry="18"/>
<text text-anchor="middle" x="77.9931" y="-14.3" font-family="Times,serif" font-size="14.00" fill="#000000">FunctionDefinition</text>
</a>
</g>
</g>
<!-- DefiningEquation -->
<g id="node9" class="node">
<title>DefiningEquation</title>
<g id="a_node9"><a xlink:href="http://emmo.info/emmo/top/math#EMMO_29afdf54_90ae_4c98_8845_fa9ea3f143a8" xlink:title="DefiningEquation">
<ellipse fill="#ffffcc" stroke="#000000" cx="77.9931" cy="-90" rx="73.387" ry="18"/>
<text text-anchor="middle" x="77.9931" y="-86.3" font-family="Times,serif" font-size="14.00" fill="#000000">DefiningEquation</text>
</a>
</g>
</g>
<!-- FunctionDefinition&#45;&gt;DefiningEquation -->
<g id="edge8" class="edge">
<title>FunctionDefinition&#45;&gt;DefiningEquation</title>
<path fill="none" stroke="#000000" d="M77.9931,-36.1686C77.9931,-43.869 77.9931,-53.0257 77.9931,-61.5834"/>
<polygon fill="none" stroke="#000000" points="74.4932,-61.5867 77.9931,-71.5867 81.4932,-61.5868 74.4932,-61.5867"/>
</g>
<!-- Equation -->
<g id="node2" class="node">
<title>Equation</title>
<g id="a_node2"><a xlink:href="http://emmo.info/emmo/middle/math#EMMO_e56ee3eb_7609_4ae1_8bed_51974f0960a6" xlink:title="Equation">
<ellipse fill="#ffffcc" stroke="#000000" cx="396.9931" cy="-162" rx="42.4939" ry="18"/>
<text text-anchor="middle" x="396.9931" y="-158.3" font-family="Times,serif" font-size="14.00" fill="#000000">Equation</text>
</a>
</g>
</g>
<!-- Formula -->
<g id="node3" class="node">
<title>Formula</title>
<g id="a_node3"><a xlink:href="http://emmo.info/emmo/middle/math#EMMO_88470739_03d3_4c47_a03e_b30a1288d50c" xlink:title="Formula">
<ellipse fill="#ffffcc" stroke="#000000" stroke-width="2" cx="449.9931" cy="-234" rx="40.8928" ry="18"/>
<text text-anchor="middle" x="449.9931" y="-230.3" font-family="Times,serif" font-size="14.00" fill="#000000">Formula</text>
</a>
</g>
</g>
<!-- Equation&#45;&gt;Formula -->
<g id="edge1" class="edge">
<title>Equation&#45;&gt;Formula</title>
<path fill="none" stroke="#000000" d="M409.8229,-179.4292C416.2679,-188.1847 424.1984,-198.9582 431.3057,-208.6133"/>
<polygon fill="none" stroke="#000000" points="428.5345,-210.7528 437.2814,-216.7313 434.1719,-206.6031 428.5345,-210.7528"/>
</g>
<!-- PhysicsEquation -->
<g id="node4" class="node">
<title>PhysicsEquation</title>
<g id="a_node4"><a xlink:href="http://emmo.info/emmo/middle/models#EMMO_27c5d8c6_8af7_4d63_beb1_ec37cd8b3fa3" xlink:title="PhysicsEquation">
<ellipse fill="#ffffcc" stroke="#000000" cx="238.9931" cy="-90" rx="69.5877" ry="18"/>
<text text-anchor="middle" x="238.9931" y="-86.3" font-family="Times,serif" font-size="14.00" fill="#000000">PhysicsEquation</text>
</a>
</g>
</g>
<!-- PhysicsEquation&#45;&gt;Equation -->
<g id="edge2" class="edge">
<title>PhysicsEquation&#45;&gt;Equation</title>
<path fill="none" stroke="#000000" d="M273.6669,-105.8007C298.828,-117.2666 332.8588,-132.7743 358.7988,-144.595"/>
<polygon fill="none" stroke="#000000" points="357.407,-147.807 367.9581,-148.7689 360.3097,-141.4372 357.407,-147.807"/>
</g>
<!-- Inequality -->
<g id="node5" class="node">
<title>Inequality</title>
<g id="a_node5"><a xlink:href="http://emmo.info/emmo/middle/math#EMMO_0b6ebe5a_0026_4bef_a1c1_5be00df9f98e" xlink:title="Inequality">
<ellipse fill="#ffffcc" stroke="#000000" cx="502.9931" cy="-162" rx="46.2923" ry="18"/>
<text text-anchor="middle" x="502.9931" y="-158.3" font-family="Times,serif" font-size="14.00" fill="#000000">Inequality</text>
</a>
</g>
</g>
<!-- Inequality&#45;&gt;Formula -->
<g id="edge5" class="edge">
<title>Inequality&#45;&gt;Formula</title>
<path fill="none" stroke="#000000" d="M490.1633,-179.4292C483.7183,-188.1847 475.7877,-198.9582 468.6805,-208.6133"/>
<polygon fill="none" stroke="#000000" points="465.8143,-206.6031 462.7048,-216.7313 471.4517,-210.7528 465.8143,-206.6031"/>
</g>
<!-- MaterialRelation -->
<g id="node6" class="node">
<title>MaterialRelation</title>
<g id="a_node6"><a xlink:href="http://emmo.info/emmo/middle/models#EMMO_e5438930_04e7_4d42_ade5_3700d4a52ab7" xlink:title="MaterialRelation">
<ellipse fill="#ffffcc" stroke="#000000" cx="396.9931" cy="-90" rx="70.6878" ry="18"/>
<text text-anchor="middle" x="396.9931" y="-86.3" font-family="Times,serif" font-size="14.00" fill="#000000">MaterialRelation</text>
</a>
</g>
</g>
<!-- MaterialRelation&#45;&gt;Equation -->
<g id="edge6" class="edge">
<title>MaterialRelation&#45;&gt;Equation</title>
<path fill="none" stroke="#000000" d="M396.9931,-108.1686C396.9931,-115.869 396.9931,-125.0257 396.9931,-133.5834"/>
<polygon fill="none" stroke="#000000" points="393.4932,-133.5867 396.9931,-143.5867 400.4932,-133.5868 393.4932,-133.5867"/>
</g>
<!-- AlgebricEquation -->
<g id="node7" class="node">
<title>AlgebricEquation</title>
<g id="a_node7"><a xlink:href="http://emmo.info/emmo/top/math#EMMO_98d65021_4574_4890_b2fb_46430841077f" xlink:title="AlgebricEquation">
<ellipse fill="#ffffcc" stroke="#000000" cx="558.9931" cy="-90" rx="73.387" ry="18"/>
<text text-anchor="middle" x="558.9931" y="-86.3" font-family="Times,serif" font-size="14.00" fill="#000000">AlgebricEquation</text>
</a>
</g>
</g>
<!-- AlgebricEquation&#45;&gt;Equation -->
<g id="edge4" class="edge">
<title>AlgebricEquation&#45;&gt;Equation</title>
<path fill="none" stroke="#000000" d="M523.4415,-105.8007C497.4774,-117.3403 462.3019,-132.9739 435.6423,-144.8226"/>
<polygon fill="none" stroke="#000000" points="433.9551,-141.7423 426.2384,-149.0021 436.7981,-148.139 433.9551,-141.7423"/>
</g>
<!-- ArithmeticEquation -->
<g id="node8" class="node">
<title>ArithmeticEquation</title>
<g id="a_node8"><a xlink:href="http://emmo.info/emmo/top/math#EMMO_a6138ba7_e365_4f2d_b6b4_fe5a5918d403" xlink:title="ArithmeticEquation">
<ellipse fill="#ffffcc" stroke="#000000" cx="731.9931" cy="-90" rx="81.4863" ry="18"/>
<text text-anchor="middle" x="731.9931" y="-86.3" font-family="Times,serif" font-size="14.00" fill="#000000">ArithmeticEquation</text>
</a>
</g>
</g>
<!-- ArithmeticEquation&#45;&gt;Equation -->
<g id="edge3" class="edge">
<title>ArithmeticEquation&#45;&gt;Equation</title>
<path fill="none" stroke="#000000" d="M671.3138,-102.0978C661.1922,-104.0884 650.7986,-106.1158 640.9931,-108 555.3035,-124.4661 532.2759,-121.4118 447.9931,-144 444.8188,-144.8507 441.5592,-145.8053 438.2969,-146.8194"/>
<polygon fill="none" stroke="#000000" points="437.0012,-143.5606 428.5848,-149.996 439.1774,-150.2138 437.0012,-143.5606"/>
</g>
<!-- DefiningEquation&#45;&gt;Equation -->
<g id="edge7" class="edge">
<title>DefiningEquation&#45;&gt;Equation</title>
<path fill="none" stroke="#000000" d="M132.1071,-102.2138C193.1461,-115.9907 291.4562,-138.1798 349.589,-151.3007"/>
<polygon fill="none" stroke="#000000" points="349.0836,-154.7746 359.6089,-153.5622 350.6249,-147.9463 349.0836,-154.7746"/>
</g>
<!-- key1 -->
<g id="node10" class="node">
<title>key1</title>
<text text-anchor="start" x="191.9931" y="-13.8" font-family="Times,serif" font-size="14.00" fill="#000000">isA</text>
</g>
<!-- key2 -->
<g id="node11" class="node">
<title>key2</title>
<text text-anchor="start" x="270.9931" y="-13.8" font-family="Times,serif" font-size="14.00" fill="#000000"> </text>
</g>
<!-- key1&#45;&gt;key2 -->
<g id="edge9" class="edge">
<title>key1:e&#45;&gt;key2:w</title>
<path fill="none" stroke="#000000" d="M212.9931,-19C233.9931,-19 241.704,-19 258.5512,-19"/>
<polygon fill="none" stroke="#000000" points="258.9931,-22.5001 268.9931,-19 258.993,-15.5001 258.9931,-22.5001"/>
</g>
</g>
</svg>
