<?xml version="1.0" encoding="UTF-8" standalone="no"?>
<!DOCTYPE svg PUBLIC "-//W3C//DTD SVG 1.1//EN"
 "http://www.w3.org/Graphics/SVG/1.1/DTD/svg11.dtd">
<!-- Generated by graphviz version 2.40.1 (20161225.0304)
 -->
<!-- Title: %3 Pages: 1 -->
<svg width="817pt" height="260pt"
 viewBox="0.00 0.00 817.39 260.00" xmlns="http://www.w3.org/2000/svg" xmlns:xlink="http://www.w3.org/1999/xlink">
<g id="graph0" class="graph" transform="scale(1 1) rotate(0) translate(4 256)">
<title>%3</title>
<polygon fill="#ffffff" stroke="transparent" points="-4,4 -4,-256 813.3875,-256 813.3875,4 -4,4"/>
<!-- MaterialRelation -->
<g id="node1" class="node">
<title>MaterialRelation</title>
<g id="a_node1"><a xlink:href="http://emmo.info/emmo/middle/models#EMMO_e5438930_04e7_4d42_ade5_3700d4a52ab7" xlink:title="MaterialRelation">
<ellipse fill="#ffffcc" stroke="#000000" cx="70.8437" cy="-90" rx="70.6878" ry="18"/>
<text text-anchor="middle" x="70.8437" y="-86.3" font-family="Times,serif" font-size="14.00" fill="#000000">MaterialRelation</text>
</a>
</g>
</g>
<!-- Equation -->
<g id="node7" class="node">
<title>Equation</title>
<g id="a_node7"><a xlink:href="http://emmo.info/emmo/middle/math#EMMO_e56ee3eb_7609_4ae1_8bed_51974f0960a6" xlink:title="Equation">
<ellipse fill="#ffffcc" stroke="#000000" cx="405.8437" cy="-162" rx="42.4939" ry="18"/>
<text text-anchor="middle" x="405.8437" y="-158.3" font-family="Times,serif" font-size="14.00" fill="#000000">Equation</text>
</a>
</g>
</g>
<!-- MaterialRelation&#45;&gt;Equation -->
<g id="edge8" class="edge">
<title>MaterialRelation&#45;&gt;Equation</title>
<path fill="none" stroke="#000000" d="M123.7527,-102.0035C132.7869,-104.0248 142.0815,-106.0866 150.8437,-108 222.9625,-123.7488 306.7104,-141.3529 357.9846,-152.0533"/>
<polygon fill="none" stroke="#000000" points="357.2894,-155.4836 367.7934,-154.0988 358.7185,-148.631 357.2894,-155.4836"/>
</g>
<!-- AlgebricEquation -->
<g id="node2" class="node">
<title>AlgebricEquation</title>
<g id="a_node2"><a xlink:href="http://emmo.info/emmo/top/math#EMMO_98d65021_4574_4890_b2fb_46430841077f" xlink:title="AlgebricEquation">
<ellipse fill="#ffffcc" stroke="#000000" cx="232.8437" cy="-90" rx="73.387" ry="18"/>
<text text-anchor="middle" x="232.8437" y="-86.3" font-family="Times,serif" font-size="14.00" fill="#000000">AlgebricEquation</text>
</a>
</g>
</g>
<!-- AlgebricEquation&#45;&gt;Equation -->
<g id="edge5" class="edge">
<title>AlgebricEquation&#45;&gt;Equation</title>
<path fill="none" stroke="#000000" d="M270.3821,-105.6229C298.685,-117.4021 337.4155,-133.5212 366.2151,-145.5072"/>
<polygon fill="none" stroke="#000000" points="364.9946,-148.7902 375.5718,-149.4013 367.6843,-142.3275 364.9946,-148.7902"/>
</g>
<!-- ArithmeticEquation -->
<g id="node3" class="node">
<title>ArithmeticEquation</title>
<g id="a_node3"><a xlink:href="http://emmo.info/emmo/top/math#EMMO_a6138ba7_e365_4f2d_b6b4_fe5a5918d403" xlink:title="ArithmeticEquation">
<ellipse fill="#ffffcc" stroke="#000000" cx="405.8437" cy="-90" rx="81.4863" ry="18"/>
<text text-anchor="middle" x="405.8437" y="-86.3" font-family="Times,serif" font-size="14.00" fill="#000000">ArithmeticEquation</text>
</a>
</g>
</g>
<!-- ArithmeticEquation&#45;&gt;Equation -->
<g id="edge1" class="edge">
<title>ArithmeticEquation&#45;&gt;Equation</title>
<path fill="none" stroke="#000000" d="M405.8437,-108.1686C405.8437,-115.869 405.8437,-125.0257 405.8437,-133.5834"/>
<polygon fill="none" stroke="#000000" points="402.3438,-133.5867 405.8437,-143.5867 409.3438,-133.5868 402.3438,-133.5867"/>
</g>
<!-- DefiningEquation -->
<g id="node4" class="node">
<title>DefiningEquation</title>
<g id="a_node4"><a xlink:href="http://emmo.info/emmo/top/math#EMMO_29afdf54_90ae_4c98_8845_fa9ea3f143a8" xlink:title="DefiningEquation">
<ellipse fill="#ffffcc" stroke="#000000" cx="578.8437" cy="-90" rx="73.387" ry="18"/>
<text text-anchor="middle" x="578.8437" y="-86.3" font-family="Times,serif" font-size="14.00" fill="#000000">DefiningEquation</text>
</a>
</g>
</g>
<!-- DefiningEquation&#45;&gt;Equation -->
<g id="edge3" class="edge">
<title>DefiningEquation&#45;&gt;Equation</title>
<path fill="none" stroke="#000000" d="M541.3053,-105.6229C513.0024,-117.4021 474.2719,-133.5212 445.4723,-145.5072"/>
<polygon fill="none" stroke="#000000" points="444.0031,-142.3275 436.1156,-149.4013 446.6928,-148.7902 444.0031,-142.3275"/>
</g>
<!-- Inequality -->
<g id="node5" class="node">
<title>Inequality</title>
<g id="a_node5"><a xlink:href="http://emmo.info/emmo/middle/math#EMMO_0b6ebe5a_0026_4bef_a1c1_5be00df9f98e" xlink:title="Inequality">
<ellipse fill="#ffffcc" stroke="#000000" cx="511.8437" cy="-162" rx="46.2923" ry="18"/>
<text text-anchor="middle" x="511.8437" y="-158.3" font-family="Times,serif" font-size="14.00" fill="#000000">Inequality</text>
</a>
</g>
</g>
<!-- Formula -->
<g id="node8" class="node">
<title>Formula</title>
<g id="a_node8"><a xlink:href="http://emmo.info/emmo/middle/math#EMMO_88470739_03d3_4c47_a03e_b30a1288d50c" xlink:title="Formula">
<ellipse fill="#ffffcc" stroke="#000000" stroke-width="2" cx="458.8437" cy="-234" rx="40.8928" ry="18"/>
<text text-anchor="middle" x="458.8437" y="-230.3" font-family="Times,serif" font-size="14.00" fill="#000000">Formula</text>
</a>
</g>
</g>
<!-- Inequality&#45;&gt;Formula -->
<g id="edge4" class="edge">
<title>Inequality&#45;&gt;Formula</title>
<path fill="none" stroke="#000000" d="M499.0139,-179.4292C492.5689,-188.1847 484.6383,-198.9582 477.5311,-208.6133"/>
<polygon fill="none" stroke="#000000" points="474.6649,-206.6031 471.5554,-216.7313 480.3023,-210.7528 474.6649,-206.6031"/>
</g>
<!-- FunctionDefinition -->
<g id="node6" class="node">
<title>FunctionDefinition</title>
<g id="a_node6"><a xlink:href="http://emmo.info/emmo/top/math#EMMO_4bc29b0f_8fcc_4026_a291_f9774a66d9b8" xlink:title="FunctionDefinition">
<ellipse fill="#ffffcc" stroke="#000000" cx="578.8437" cy="-18" rx="77.9862" ry="18"/>
<text text-anchor="middle" x="578.8437" y="-14.3" font-family="Times,serif" font-size="14.00" fill="#000000">FunctionDefinition</text>
</a>
</g>
</g>
<!-- FunctionDefinition&#45;&gt;DefiningEquation -->
<g id="edge7" class="edge">
<title>FunctionDefinition&#45;&gt;DefiningEquation</title>
<path fill="none" stroke="#000000" d="M578.8437,-36.1686C578.8437,-43.869 578.8437,-53.0257 578.8437,-61.5834"/>
<polygon fill="none" stroke="#000000" points="575.3438,-61.5867 578.8437,-71.5867 582.3438,-61.5868 575.3438,-61.5867"/>
</g>
<!-- Equation&#45;&gt;Formula -->
<g id="edge2" class="edge">
<title>Equation&#45;&gt;Formula</title>
<path fill="none" stroke="#000000" d="M418.6735,-179.4292C425.1185,-188.1847 433.0491,-198.9582 440.1563,-208.6133"/>
<polygon fill="none" stroke="#000000" points="437.3851,-210.7528 446.132,-216.7313 443.0225,-206.6031 437.3851,-210.7528"/>
</g>
<!-- PhysicsEquation -->
<g id="node9" class="node">
<title>PhysicsEquation</title>
<g id="a_node9"><a xlink:href="http://emmo.info/emmo/middle/models#EMMO_27c5d8c6_8af7_4d63_beb1_ec37cd8b3fa3" xlink:title="PhysicsEquation">
<ellipse fill="#ffffcc" stroke="#000000" cx="739.8437" cy="-90" rx="69.5877" ry="18"/>
<text text-anchor="middle" x="739.8437" y="-86.3" font-family="Times,serif" font-size="14.00" fill="#000000">PhysicsEquation</text>
</a>
</g>
</g>
<!-- PhysicsEquation&#45;&gt;Equation -->
<g id="edge6" class="edge">
<title>PhysicsEquation&#45;&gt;Equation</title>
<path fill="none" stroke="#000000" d="M688.0787,-102.179C679.0179,-104.2008 669.6682,-106.2172 660.8437,-108 570.5994,-126.2322 545.8879,-120.5998 456.8437,-144 453.6653,-144.8353 450.4027,-145.7786 447.1384,-146.7848"/>
<polygon fill="none" stroke="#000000" points="445.8482,-143.5239 437.4224,-149.947 448.0147,-150.1803 445.8482,-143.5239"/>
</g>
<!-- key1 -->
<g id="node10" class="node">
<title>key1</title>
<text text-anchor="start" x="692.8437" y="-13.8" font-family="Times,serif" font-size="14.00" fill="#000000">isA</text>
</g>
<!-- key2 -->
<g id="node11" class="node">
<title>key2</title>
<text text-anchor="start" x="771.8437" y="-13.8" font-family="Times,serif" font-size="14.00" fill="#000000"> </text>
</g>
<!-- key1&#45;&gt;key2 -->
<g id="edge9" class="edge">
<title>key1:e&#45;&gt;key2:w</title>
<path fill="none" stroke="#000000" d="M713.8437,-19C734.8437,-19 742.5547,-19 759.4018,-19"/>
<polygon fill="none" stroke="#000000" points="759.8437,-22.5001 769.8437,-19 759.8437,-15.5001 759.8437,-22.5001"/>
</g>
</g>
</svg>
