<?xml version="1.0" encoding="UTF-8" standalone="no"?>
<!DOCTYPE svg PUBLIC "-//W3C//DTD SVG 1.1//EN"
 "http://www.w3.org/Graphics/SVG/1.1/DTD/svg11.dtd">
<!-- Generated by graphviz version 2.40.1 (20161225.0304)
 -->
<!-- Title: %3 Pages: 1 -->
<svg width="817pt" height="260pt"
 viewBox="0.00 0.00 817.29 260.00" xmlns="http://www.w3.org/2000/svg" xmlns:xlink="http://www.w3.org/1999/xlink">
<g id="graph0" class="graph" transform="scale(1 1) rotate(0) translate(4 256)">
<title>%3</title>
<polygon fill="#ffffff" stroke="transparent" points="-4,4 -4,-256 813.2872,-256 813.2872,4 -4,4"/>
<!-- AlgebricEquation -->
<g id="node1" class="node">
<title>AlgebricEquation</title>
<g id="a_node1"><a xlink:href="http://emmo.info/emmo/top/math#EMMO_98d65021_4574_4890_b2fb_46430841077f" xlink:title="AlgebricEquation">
<ellipse fill="#ffffcc" stroke="#000000" cx="73.4435" cy="-90" rx="73.387" ry="18"/>
<text text-anchor="middle" x="73.4435" y="-86.3" font-family="Times,serif" font-size="14.00" fill="#000000">AlgebricEquation</text>
</a>
</g>
</g>
<!-- Equation -->
<g id="node4" class="node">
<title>Equation</title>
<g id="a_node4"><a xlink:href="http://emmo.info/emmo/middle/math#EMMO_e56ee3eb_7609_4ae1_8bed_51974f0960a6" xlink:title="Equation">
<ellipse fill="#ffffcc" stroke="#000000" cx="419.4435" cy="-162" rx="42.4939" ry="18"/>
<text text-anchor="middle" x="419.4435" y="-158.3" font-family="Times,serif" font-size="14.00" fill="#000000">Equation</text>
</a>
</g>
</g>
<!-- AlgebricEquation&#45;&gt;Equation -->
<g id="edge4" class="edge">
<title>AlgebricEquation&#45;&gt;Equation</title>
<path fill="none" stroke="#000000" d="M128.3399,-101.9948C137.7125,-104.0171 147.3546,-106.0814 156.4435,-108 231.2678,-123.7946 318.2045,-141.5231 370.9974,-152.2198"/>
<polygon fill="none" stroke="#000000" points="370.5913,-155.7085 381.087,-154.2627 371.9805,-148.8478 370.5913,-155.7085"/>
</g>
<!-- ArithmeticEquation -->
<g id="node2" class="node">
<title>ArithmeticEquation</title>
<g id="a_node2"><a xlink:href="http://emmo.info/emmo/top/math#EMMO_a6138ba7_e365_4f2d_b6b4_fe5a5918d403" xlink:title="ArithmeticEquation">
<ellipse fill="#ffffcc" stroke="#000000" cx="246.4435" cy="-90" rx="81.4863" ry="18"/>
<text text-anchor="middle" x="246.4435" y="-86.3" font-family="Times,serif" font-size="14.00" fill="#000000">ArithmeticEquation</text>
</a>
</g>
</g>
<!-- ArithmeticEquation&#45;&gt;Equation -->
<g id="edge8" class="edge">
<title>ArithmeticEquation&#45;&gt;Equation</title>
<path fill="none" stroke="#000000" d="M284.8378,-105.9791C313.0993,-117.7412 351.4065,-133.684 379.9288,-145.5546"/>
<polygon fill="none" stroke="#000000" points="378.6207,-148.8011 389.1979,-149.4122 381.3104,-142.3385 378.6207,-148.8011"/>
</g>
<!-- DefiningEquation -->
<g id="node3" class="node">
<title>DefiningEquation</title>
<g id="a_node3"><a xlink:href="http://emmo.info/emmo/top/math#EMMO_29afdf54_90ae_4c98_8845_fa9ea3f143a8" xlink:title="DefiningEquation">
<ellipse fill="#ffffcc" stroke="#000000" cx="419.4435" cy="-90" rx="73.387" ry="18"/>
<text text-anchor="middle" x="419.4435" y="-86.3" font-family="Times,serif" font-size="14.00" fill="#000000">DefiningEquation</text>
</a>
</g>
</g>
<!-- DefiningEquation&#45;&gt;Equation -->
<g id="edge6" class="edge">
<title>DefiningEquation&#45;&gt;Equation</title>
<path fill="none" stroke="#000000" d="M419.4435,-108.1686C419.4435,-115.869 419.4435,-125.0257 419.4435,-133.5834"/>
<polygon fill="none" stroke="#000000" points="415.9436,-133.5867 419.4435,-143.5867 422.9436,-133.5868 415.9436,-133.5867"/>
</g>
<!-- Formula -->
<g id="node6" class="node">
<title>Formula</title>
<g id="a_node6"><a xlink:href="http://emmo.info/emmo/middle/math#EMMO_88470739_03d3_4c47_a03e_b30a1288d50c" xlink:title="Formula">
<ellipse fill="#ffffcc" stroke="#000000" stroke-width="2" cx="472.4435" cy="-234" rx="40.8928" ry="18"/>
<text text-anchor="middle" x="472.4435" y="-230.3" font-family="Times,serif" font-size="14.00" fill="#000000">Formula</text>
</a>
</g>
</g>
<!-- Equation&#45;&gt;Formula -->
<g id="edge1" class="edge">
<title>Equation&#45;&gt;Formula</title>
<path fill="none" stroke="#000000" d="M432.2733,-179.4292C438.7183,-188.1847 446.6489,-198.9582 453.7561,-208.6133"/>
<polygon fill="none" stroke="#000000" points="450.9849,-210.7528 459.7318,-216.7313 456.6223,-206.6031 450.9849,-210.7528"/>
</g>
<!-- FunctionDefinition -->
<g id="node5" class="node">
<title>FunctionDefinition</title>
<g id="a_node5"><a xlink:href="http://emmo.info/emmo/top/math#EMMO_4bc29b0f_8fcc_4026_a291_f9774a66d9b8" xlink:title="FunctionDefinition">
<ellipse fill="#ffffcc" stroke="#000000" cx="419.4435" cy="-18" rx="77.9862" ry="18"/>
<text text-anchor="middle" x="419.4435" y="-14.3" font-family="Times,serif" font-size="14.00" fill="#000000">FunctionDefinition</text>
</a>
</g>
</g>
<!-- FunctionDefinition&#45;&gt;DefiningEquation -->
<g id="edge5" class="edge">
<title>FunctionDefinition&#45;&gt;DefiningEquation</title>
<path fill="none" stroke="#000000" d="M419.4435,-36.1686C419.4435,-43.869 419.4435,-53.0257 419.4435,-61.5834"/>
<polygon fill="none" stroke="#000000" points="415.9436,-61.5867 419.4435,-71.5867 422.9436,-61.5868 415.9436,-61.5867"/>
</g>
<!-- PhysicsEquation -->
<g id="node7" class="node">
<title>PhysicsEquation</title>
<g id="a_node7"><a xlink:href="http://emmo.info/emmo/middle/models#EMMO_27c5d8c6_8af7_4d63_beb1_ec37cd8b3fa3" xlink:title="PhysicsEquation">
<ellipse fill="#ffffcc" stroke="#000000" cx="580.4435" cy="-90" rx="69.5877" ry="18"/>
<text text-anchor="middle" x="580.4435" y="-86.3" font-family="Times,serif" font-size="14.00" fill="#000000">PhysicsEquation</text>
</a>
</g>
</g>
<!-- PhysicsEquation&#45;&gt;Equation -->
<g id="edge7" class="edge">
<title>PhysicsEquation&#45;&gt;Equation</title>
<path fill="none" stroke="#000000" d="M545.5089,-105.6229C519.7277,-117.1524 484.6494,-132.8396 458.0405,-144.7392"/>
<polygon fill="none" stroke="#000000" points="456.3532,-141.6597 448.6533,-148.9372 459.2109,-148.0498 456.3532,-141.6597"/>
</g>
<!-- MaterialRelation -->
<g id="node8" class="node">
<title>MaterialRelation</title>
<g id="a_node8"><a xlink:href="http://emmo.info/emmo/middle/models#EMMO_e5438930_04e7_4d42_ade5_3700d4a52ab7" xlink:title="MaterialRelation">
<ellipse fill="#ffffcc" stroke="#000000" cx="738.4435" cy="-90" rx="70.6878" ry="18"/>
<text text-anchor="middle" x="738.4435" y="-86.3" font-family="Times,serif" font-size="14.00" fill="#000000">MaterialRelation</text>
</a>
</g>
</g>
<!-- MaterialRelation&#45;&gt;Equation -->
<g id="edge2" class="edge">
<title>MaterialRelation&#45;&gt;Equation</title>
<path fill="none" stroke="#000000" d="M686.2329,-102.1735C677.3074,-104.1751 668.118,-106.1862 659.4435,-108 575.7433,-125.501 552.9965,-121.7067 470.4435,-144 467.2708,-144.8568 464.0124,-145.8157 460.751,-146.8329"/>
<polygon fill="none" stroke="#000000" points="459.4531,-143.575 451.0403,-150.0152 461.6331,-150.2269 459.4531,-143.575"/>
</g>
<!-- Inequality -->
<g id="node9" class="node">
<title>Inequality</title>
<g id="a_node9"><a xlink:href="http://emmo.info/emmo/middle/math#EMMO_0b6ebe5a_0026_4bef_a1c1_5be00df9f98e" xlink:title="Inequality">
<ellipse fill="#ffffcc" stroke="#000000" cx="525.4435" cy="-162" rx="46.2923" ry="18"/>
<text text-anchor="middle" x="525.4435" y="-158.3" font-family="Times,serif" font-size="14.00" fill="#000000">Inequality</text>
</a>
</g>
</g>
<!-- Inequality&#45;&gt;Formula -->
<g id="edge3" class="edge">
<title>Inequality&#45;&gt;Formula</title>
<path fill="none" stroke="#000000" d="M512.6137,-179.4292C506.1687,-188.1847 498.2381,-198.9582 491.1309,-208.6133"/>
<polygon fill="none" stroke="#000000" points="488.2647,-206.6031 485.1552,-216.7313 493.9021,-210.7528 488.2647,-206.6031"/>
</g>
<!-- key1 -->
<g id="node10" class="node">
<title>key1</title>
<text text-anchor="start" x="533.4435" y="-13.8" font-family="Times,serif" font-size="14.00" fill="#000000">isA</text>
</g>
<!-- key2 -->
<g id="node11" class="node">
<title>key2</title>
<text text-anchor="start" x="612.4435" y="-13.8" font-family="Times,serif" font-size="14.00" fill="#000000"> </text>
</g>
<!-- key1&#45;&gt;key2 -->
<g id="edge9" class="edge">
<title>key1:e&#45;&gt;key2:w</title>
<path fill="none" stroke="#000000" d="M554.4435,-19C575.4435,-19 583.1544,-19 600.0016,-19"/>
<polygon fill="none" stroke="#000000" points="600.4435,-22.5001 610.4435,-19 600.4434,-15.5001 600.4435,-22.5001"/>
</g>
</g>
</svg>
