<?xml version="1.0" encoding="UTF-8" standalone="no"?>
<!DOCTYPE svg PUBLIC "-//W3C//DTD SVG 1.1//EN"
 "http://www.w3.org/Graphics/SVG/1.1/DTD/svg11.dtd">
<!-- Generated by graphviz version 2.40.1 (20161225.0304)
 -->
<!-- Title: %3 Pages: 1 -->
<svg width="817pt" height="305pt"
 viewBox="0.00 0.00 816.69 305.00" xmlns="http://www.w3.org/2000/svg" xmlns:xlink="http://www.w3.org/1999/xlink">
<g id="graph0" class="graph" transform="scale(1 1) rotate(0) translate(4 301)">
<title>%3</title>
<polygon fill="#ffffff" stroke="transparent" points="-4,4 -4,-301 812.6863,-301 812.6863,4 -4,4"/>
<!-- ArithmeticEquation -->
<g id="node1" class="node">
<title>ArithmeticEquation</title>
<g id="a_node1"><a xlink:href="http://emmo.info/emmo/top/math#EMMO_a6138ba7_e365_4f2d_b6b4_fe5a5918d403" xlink:title="ArithmeticEquation">
<ellipse fill="#ffffcc" stroke="#000000" cx="81.2428" cy="-105" rx="81.4863" ry="18"/>
<text text-anchor="middle" x="81.2428" y="-101.3" font-family="Times,serif" font-size="14.00" fill="#000000">ArithmeticEquation</text>
</a>
</g>
</g>
<!-- Equation -->
<g id="node5" class="node">
<title>Equation</title>
<g id="a_node5"><a xlink:href="http://emmo.info/emmo/middle/math#EMMO_e56ee3eb_7609_4ae1_8bed_51974f0960a6" xlink:title="Equation">
<ellipse fill="#ffffcc" stroke="#000000" cx="411.2428" cy="-192" rx="42.4939" ry="18"/>
<text text-anchor="middle" x="411.2428" y="-188.3" font-family="Times,serif" font-size="14.00" fill="#000000">Equation</text>
</a>
</g>
</g>
<!-- ArithmeticEquation&#45;&gt;Equation -->
<g id="edge1" class="edge">
<title>ArithmeticEquation&#45;&gt;Equation</title>
<path fill="none" stroke="#000000" d="M133.5323,-118.7854C197.4023,-135.6239 304.4328,-163.841 365.2815,-179.8829"/>
<polygon fill="none" stroke="#000000" points="364.4372,-183.2799 374.9991,-182.4448 366.2218,-176.5111 364.4372,-183.2799"/>
<text text-anchor="middle" x="275.7428" y="-144.8" font-family="Times,serif" font-size="14.00" fill="#000000">isA</text>
</g>
<!-- PhysicsEquation -->
<g id="node2" class="node">
<title>PhysicsEquation</title>
<g id="a_node2"><a xlink:href="http://emmo.info/emmo/middle/models#EMMO_27c5d8c6_8af7_4d63_beb1_ec37cd8b3fa3" xlink:title="PhysicsEquation">
<ellipse fill="#ffffcc" stroke="#000000" cx="250.2428" cy="-105" rx="69.5877" ry="18"/>
<text text-anchor="middle" x="250.2428" y="-101.3" font-family="Times,serif" font-size="14.00" fill="#000000">PhysicsEquation</text>
</a>
</g>
</g>
<!-- PhysicsEquation&#45;&gt;Equation -->
<g id="edge7" class="edge">
<title>PhysicsEquation&#45;&gt;Equation</title>
<path fill="none" stroke="#000000" d="M280.5257,-121.364C307.6497,-136.0211 347.4381,-157.5217 375.9854,-172.9479"/>
<polygon fill="none" stroke="#000000" points="374.3671,-176.0517 384.8288,-177.7266 377.695,-169.8933 374.3671,-176.0517"/>
<text text-anchor="middle" x="350.7428" y="-144.8" font-family="Times,serif" font-size="14.00" fill="#000000">isA</text>
</g>
<!-- DefiningEquation -->
<g id="node3" class="node">
<title>DefiningEquation</title>
<g id="a_node3"><a xlink:href="http://emmo.info/emmo/top/math#EMMO_29afdf54_90ae_4c98_8845_fa9ea3f143a8" xlink:title="DefiningEquation">
<ellipse fill="#ffffcc" stroke="#000000" cx="411.2428" cy="-105" rx="73.387" ry="18"/>
<text text-anchor="middle" x="411.2428" y="-101.3" font-family="Times,serif" font-size="14.00" fill="#000000">DefiningEquation</text>
</a>
</g>
</g>
<!-- DefiningEquation&#45;&gt;Equation -->
<g id="edge5" class="edge">
<title>DefiningEquation&#45;&gt;Equation</title>
<path fill="none" stroke="#000000" d="M411.2428,-123.0265C411.2428,-134.8082 411.2428,-150.4393 411.2428,-163.8419"/>
<polygon fill="none" stroke="#000000" points="407.7429,-163.9966 411.2428,-173.9966 414.7429,-163.9967 407.7429,-163.9966"/>
<text text-anchor="middle" x="420.7428" y="-144.8" font-family="Times,serif" font-size="14.00" fill="#000000">isA</text>
</g>
<!-- MaterialRelation -->
<g id="node4" class="node">
<title>MaterialRelation</title>
<g id="a_node4"><a xlink:href="http://emmo.info/emmo/middle/models#EMMO_e5438930_04e7_4d42_ade5_3700d4a52ab7" xlink:title="MaterialRelation">
<ellipse fill="#ffffcc" stroke="#000000" cx="573.2428" cy="-105" rx="70.6878" ry="18"/>
<text text-anchor="middle" x="573.2428" y="-101.3" font-family="Times,serif" font-size="14.00" fill="#000000">MaterialRelation</text>
</a>
</g>
</g>
<!-- MaterialRelation&#45;&gt;Equation -->
<g id="edge4" class="edge">
<title>MaterialRelation&#45;&gt;Equation</title>
<path fill="none" stroke="#000000" d="M542.7718,-121.364C515.3967,-136.0655 475.201,-157.6521 446.4583,-173.088"/>
<polygon fill="none" stroke="#000000" points="444.7135,-170.0522 437.5595,-177.867 448.0254,-176.2191 444.7135,-170.0522"/>
<text text-anchor="middle" x="511.7428" y="-144.8" font-family="Times,serif" font-size="14.00" fill="#000000">isA</text>
</g>
<!-- Formula -->
<g id="node8" class="node">
<title>Formula</title>
<g id="a_node8"><a xlink:href="http://emmo.info/emmo/middle/math#EMMO_88470739_03d3_4c47_a03e_b30a1288d50c" xlink:title="Formula">
<ellipse fill="#ffffcc" stroke="#000000" stroke-width="2" cx="464.2428" cy="-279" rx="40.8928" ry="18"/>
<text text-anchor="middle" x="464.2428" y="-275.3" font-family="Times,serif" font-size="14.00" fill="#000000">Formula</text>
</a>
</g>
</g>
<!-- Equation&#45;&gt;Formula -->
<g id="edge3" class="edge">
<title>Equation&#45;&gt;Formula</title>
<path fill="none" stroke="#000000" d="M421.9681,-209.6057C429.5111,-221.9876 439.7351,-238.7703 448.239,-252.7296"/>
<polygon fill="none" stroke="#000000" points="445.3417,-254.7013 453.5334,-261.4204 451.3198,-251.0594 445.3417,-254.7013"/>
<text text-anchor="middle" x="450.7428" y="-231.8" font-family="Times,serif" font-size="14.00" fill="#000000">isA</text>
</g>
<!-- Inequality -->
<g id="node6" class="node">
<title>Inequality</title>
<g id="a_node6"><a xlink:href="http://emmo.info/emmo/middle/math#EMMO_0b6ebe5a_0026_4bef_a1c1_5be00df9f98e" xlink:title="Inequality">
<ellipse fill="#ffffcc" stroke="#000000" cx="517.2428" cy="-192" rx="46.2923" ry="18"/>
<text text-anchor="middle" x="517.2428" y="-188.3" font-family="Times,serif" font-size="14.00" fill="#000000">Inequality</text>
</a>
</g>
</g>
<!-- Inequality&#45;&gt;Formula -->
<g id="edge6" class="edge">
<title>Inequality&#45;&gt;Formula</title>
<path fill="none" stroke="#000000" d="M506.5175,-209.6057C498.9745,-221.9876 488.7505,-238.7703 480.2466,-252.7296"/>
<polygon fill="none" stroke="#000000" points="477.1658,-251.0594 474.9522,-261.4204 483.1438,-254.7013 477.1658,-251.0594"/>
<text text-anchor="middle" x="503.7428" y="-231.8" font-family="Times,serif" font-size="14.00" fill="#000000">isA</text>
</g>
<!-- AlgebricEquation -->
<g id="node7" class="node">
<title>AlgebricEquation</title>
<g id="a_node7"><a xlink:href="http://emmo.info/emmo/top/math#EMMO_98d65021_4574_4890_b2fb_46430841077f" xlink:title="AlgebricEquation">
<ellipse fill="#ffffcc" stroke="#000000" cx="735.2428" cy="-105" rx="73.387" ry="18"/>
<text text-anchor="middle" x="735.2428" y="-101.3" font-family="Times,serif" font-size="14.00" fill="#000000">AlgebricEquation</text>
</a>
</g>
</g>
<!-- AlgebricEquation&#45;&gt;Equation -->
<g id="edge8" class="edge">
<title>AlgebricEquation&#45;&gt;Equation</title>
<path fill="none" stroke="#000000" d="M680.9702,-117.1681C625.5892,-129.9462 537.3516,-151.3059 462.2428,-174 459.1419,-174.9369 455.9505,-175.9483 452.7494,-176.9969"/>
<polygon fill="none" stroke="#000000" points="451.555,-173.7059 443.1974,-180.2177 453.7916,-180.339 451.555,-173.7059"/>
<text text-anchor="middle" x="591.7428" y="-144.8" font-family="Times,serif" font-size="14.00" fill="#000000">isA</text>
</g>
<!-- FunctionDefinition -->
<g id="node9" class="node">
<title>FunctionDefinition</title>
<g id="a_node9"><a xlink:href="http://emmo.info/emmo/top/math#EMMO_4bc29b0f_8fcc_4026_a291_f9774a66d9b8" xlink:title="FunctionDefinition">
<ellipse fill="#ffffcc" stroke="#000000" cx="411.2428" cy="-18" rx="77.9862" ry="18"/>
<text text-anchor="middle" x="411.2428" y="-14.3" font-family="Times,serif" font-size="14.00" fill="#000000">FunctionDefinition</text>
</a>
</g>
</g>
<!-- FunctionDefinition&#45;&gt;DefiningEquation -->
<g id="edge2" class="edge">
<title>FunctionDefinition&#45;&gt;DefiningEquation</title>
<path fill="none" stroke="#000000" d="M411.2428,-36.0265C411.2428,-47.8082 411.2428,-63.4393 411.2428,-76.8419"/>
<polygon fill="none" stroke="#000000" points="407.7429,-76.9966 411.2428,-86.9966 414.7429,-76.9967 407.7429,-76.9966"/>
<text text-anchor="middle" x="420.7428" y="-57.8" font-family="Times,serif" font-size="14.00" fill="#000000">isA</text>
</g>
</g>
</svg>
