<?xml version="1.0" encoding="UTF-8" standalone="no"?>
<!DOCTYPE svg PUBLIC "-//W3C//DTD SVG 1.1//EN"
 "http://www.w3.org/Graphics/SVG/1.1/DTD/svg11.dtd">
<!-- Generated by graphviz version 2.40.1 (20161225.0304)
 -->
<!-- Title: %3 Pages: 1 -->
<svg width="821pt" height="260pt"
 viewBox="0.00 0.00 821.24 260.00" xmlns="http://www.w3.org/2000/svg" xmlns:xlink="http://www.w3.org/1999/xlink">
<g id="graph0" class="graph" transform="scale(1 1) rotate(0) translate(4 256)">
<title>%3</title>
<polygon fill="#ffffff" stroke="transparent" points="-4,4 -4,-256 817.2359,-256 817.2359,4 -4,4"/>
<!-- FunctionDefinition -->
<g id="node1" class="node">
<title>FunctionDefinition</title>
<g id="a_node1"><a xlink:href="http://emmo.info/emmo/top/math#EMMO_4bc29b0f_8fcc_4026_a291_f9774a66d9b8" xlink:title="FunctionDefinition">
<ellipse fill="#ffffcc" stroke="#000000" cx="77.9931" cy="-18" rx="77.9862" ry="18"/>
<text text-anchor="middle" x="77.9931" y="-14.3" font-family="Times,serif" font-size="14.00" fill="#000000">FunctionDefinition</text>
</a>
</g>
</g>
<!-- DefiningEquation -->
<g id="node9" class="node">
<title>DefiningEquation</title>
<g id="a_node9"><a xlink:href="http://emmo.info/emmo/top/math#EMMO_29afdf54_90ae_4c98_8845_fa9ea3f143a8" xlink:title="DefiningEquation">
<ellipse fill="#ffffcc" stroke="#000000" cx="77.9931" cy="-90" rx="73.387" ry="18"/>
<text text-anchor="middle" x="77.9931" y="-86.3" font-family="Times,serif" font-size="14.00" fill="#000000">DefiningEquation</text>
</a>
</g>
</g>
<!-- FunctionDefinition&#45;&gt;DefiningEquation -->
<g id="edge1" class="edge">
<title>FunctionDefinition&#45;&gt;DefiningEquation</title>
<path fill="none" stroke="#000000" d="M77.9931,-36.1686C77.9931,-43.869 77.9931,-53.0257 77.9931,-61.5834"/>
<polygon fill="none" stroke="#000000" points="74.4932,-61.5867 77.9931,-71.5867 81.4932,-61.5868 74.4932,-61.5867"/>
</g>
<!-- Equation -->
<g id="node2" class="node">
<title>Equation</title>
<g id="a_node2"><a xlink:href="http://emmo.info/emmo/middle/math#EMMO_e56ee3eb_7609_4ae1_8bed_51974f0960a6" xlink:title="Equation">
<ellipse fill="#ffffcc" stroke="#000000" cx="399.9931" cy="-162" rx="42.4939" ry="18"/>
<text text-anchor="middle" x="399.9931" y="-158.3" font-family="Times,serif" font-size="14.00" fill="#000000">Equation</text>
</a>
</g>
</g>
<!-- Formula -->
<g id="node4" class="node">
<title>Formula</title>
<g id="a_node4"><a xlink:href="http://emmo.info/emmo/middle/math#EMMO_88470739_03d3_4c47_a03e_b30a1288d50c" xlink:title="Formula">
<ellipse fill="#ffffcc" stroke="#000000" stroke-width="2" cx="452.9931" cy="-234" rx="40.8928" ry="18"/>
<text text-anchor="middle" x="452.9931" y="-230.3" font-family="Times,serif" font-size="14.00" fill="#000000">Formula</text>
</a>
</g>
</g>
<!-- Equation&#45;&gt;Formula -->
<g id="edge7" class="edge">
<title>Equation&#45;&gt;Formula</title>
<path fill="none" stroke="#000000" d="M412.8229,-179.4292C419.2679,-188.1847 427.1984,-198.9582 434.3057,-208.6133"/>
<polygon fill="none" stroke="#000000" points="431.5345,-210.7528 440.2814,-216.7313 437.1719,-206.6031 431.5345,-210.7528"/>
</g>
<!-- Inequality -->
<g id="node3" class="node">
<title>Inequality</title>
<g id="a_node3"><a xlink:href="http://emmo.info/emmo/middle/math#EMMO_0b6ebe5a_0026_4bef_a1c1_5be00df9f98e" xlink:title="Inequality">
<ellipse fill="#ffffcc" stroke="#000000" cx="505.9931" cy="-162" rx="46.2923" ry="18"/>
<text text-anchor="middle" x="505.9931" y="-158.3" font-family="Times,serif" font-size="14.00" fill="#000000">Inequality</text>
</a>
</g>
</g>
<!-- Inequality&#45;&gt;Formula -->
<g id="edge2" class="edge">
<title>Inequality&#45;&gt;Formula</title>
<path fill="none" stroke="#000000" d="M493.1633,-179.4292C486.7183,-188.1847 478.7877,-198.9582 471.6805,-208.6133"/>
<polygon fill="none" stroke="#000000" points="468.8143,-206.6031 465.7048,-216.7313 474.4517,-210.7528 468.8143,-206.6031"/>
</g>
<!-- PhysicsEquation -->
<g id="node5" class="node">
<title>PhysicsEquation</title>
<g id="a_node5"><a xlink:href="http://emmo.info/emmo/middle/models#EMMO_27c5d8c6_8af7_4d63_beb1_ec37cd8b3fa3" xlink:title="PhysicsEquation">
<ellipse fill="#ffffcc" stroke="#000000" cx="238.9931" cy="-90" rx="69.5877" ry="18"/>
<text text-anchor="middle" x="238.9931" y="-86.3" font-family="Times,serif" font-size="14.00" fill="#000000">PhysicsEquation</text>
</a>
</g>
</g>
<!-- PhysicsEquation&#45;&gt;Equation -->
<g id="edge3" class="edge">
<title>PhysicsEquation&#45;&gt;Equation</title>
<path fill="none" stroke="#000000" d="M273.9277,-105.6229C299.7088,-117.1524 334.7871,-132.8396 361.3961,-144.7392"/>
<polygon fill="none" stroke="#000000" points="360.2256,-148.0498 370.7832,-148.9372 363.0834,-141.6597 360.2256,-148.0498"/>
</g>
<!-- AlgebricEquation -->
<g id="node6" class="node">
<title>AlgebricEquation</title>
<g id="a_node6"><a xlink:href="http://emmo.info/emmo/top/math#EMMO_98d65021_4574_4890_b2fb_46430841077f" xlink:title="AlgebricEquation">
<ellipse fill="#ffffcc" stroke="#000000" cx="399.9931" cy="-90" rx="73.387" ry="18"/>
<text text-anchor="middle" x="399.9931" y="-86.3" font-family="Times,serif" font-size="14.00" fill="#000000">AlgebricEquation</text>
</a>
</g>
</g>
<!-- AlgebricEquation&#45;&gt;Equation -->
<g id="edge6" class="edge">
<title>AlgebricEquation&#45;&gt;Equation</title>
<path fill="none" stroke="#000000" d="M399.9931,-108.1686C399.9931,-115.869 399.9931,-125.0257 399.9931,-133.5834"/>
<polygon fill="none" stroke="#000000" points="396.4932,-133.5867 399.9931,-143.5867 403.4932,-133.5868 396.4932,-133.5867"/>
</g>
<!-- MaterialRelation -->
<g id="node7" class="node">
<title>MaterialRelation</title>
<g id="a_node7"><a xlink:href="http://emmo.info/emmo/middle/models#EMMO_e5438930_04e7_4d42_ade5_3700d4a52ab7" xlink:title="MaterialRelation">
<ellipse fill="#ffffcc" stroke="#000000" cx="561.9931" cy="-90" rx="70.6878" ry="18"/>
<text text-anchor="middle" x="561.9931" y="-86.3" font-family="Times,serif" font-size="14.00" fill="#000000">MaterialRelation</text>
</a>
</g>
</g>
<!-- MaterialRelation&#45;&gt;Equation -->
<g id="edge8" class="edge">
<title>MaterialRelation&#45;&gt;Equation</title>
<path fill="none" stroke="#000000" d="M526.4415,-105.8007C500.4774,-117.3403 465.3019,-132.9739 438.6423,-144.8226"/>
<polygon fill="none" stroke="#000000" points="436.9551,-141.7423 429.2384,-149.0021 439.7981,-148.139 436.9551,-141.7423"/>
</g>
<!-- ArithmeticEquation -->
<g id="node8" class="node">
<title>ArithmeticEquation</title>
<g id="a_node8"><a xlink:href="http://emmo.info/emmo/top/math#EMMO_a6138ba7_e365_4f2d_b6b4_fe5a5918d403" xlink:title="ArithmeticEquation">
<ellipse fill="#ffffcc" stroke="#000000" cx="731.9931" cy="-90" rx="81.4863" ry="18"/>
<text text-anchor="middle" x="731.9931" y="-86.3" font-family="Times,serif" font-size="14.00" fill="#000000">ArithmeticEquation</text>
</a>
</g>
</g>
<!-- ArithmeticEquation&#45;&gt;Equation -->
<g id="edge5" class="edge">
<title>ArithmeticEquation&#45;&gt;Equation</title>
<path fill="none" stroke="#000000" d="M671.4966,-102.1951C661.6393,-104.1546 651.5348,-106.1467 641.9931,-108 557.1943,-124.4709 534.4109,-121.5593 450.9931,-144 447.8196,-144.8537 444.5606,-145.8105 441.2987,-146.8261"/>
<polygon fill="none" stroke="#000000" points="440.002,-143.5677 431.5873,-150.0055 442.18,-150.2203 440.002,-143.5677"/>
</g>
<!-- DefiningEquation&#45;&gt;Equation -->
<g id="edge4" class="edge">
<title>DefiningEquation&#45;&gt;Equation</title>
<path fill="none" stroke="#000000" d="M132.2519,-102.1324C193.925,-115.9227 293.6308,-138.2171 352.3936,-151.3566"/>
<polygon fill="none" stroke="#000000" points="351.6429,-154.7751 362.1657,-153.5417 353.1705,-147.9438 351.6429,-154.7751"/>
</g>
<!-- key1 -->
<g id="node10" class="node">
<title>key1</title>
<text text-anchor="start" x="191.9931" y="-13.8" font-family="Times,serif" font-size="14.00" fill="#000000">isA</text>
</g>
<!-- key2 -->
<g id="node11" class="node">
<title>key2</title>
<text text-anchor="start" x="270.9931" y="-13.8" font-family="Times,serif" font-size="14.00" fill="#000000"> </text>
</g>
<!-- key1&#45;&gt;key2 -->
<g id="edge9" class="edge">
<title>key1:e&#45;&gt;key2:w</title>
<path fill="none" stroke="#000000" d="M212.9931,-19C233.9931,-19 241.704,-19 258.5512,-19"/>
<polygon fill="none" stroke="#000000" points="258.9931,-22.5001 268.9931,-19 258.993,-15.5001 258.9931,-22.5001"/>
</g>
</g>
</svg>
