<?xml version="1.0" encoding="UTF-8" standalone="no"?>
<!DOCTYPE svg PUBLIC "-//W3C//DTD SVG 1.1//EN"
 "http://www.w3.org/Graphics/SVG/1.1/DTD/svg11.dtd">
<!-- Generated by graphviz version 2.40.1 (20161225.0304)
 -->
<!-- Title: %3 Pages: 1 -->
<svg width="817pt" height="260pt"
 viewBox="0.00 0.00 816.69 260.00" xmlns="http://www.w3.org/2000/svg" xmlns:xlink="http://www.w3.org/1999/xlink">
<g id="graph0" class="graph" transform="scale(1 1) rotate(0) translate(4 256)">
<title>%3</title>
<polygon fill="#ffffff" stroke="transparent" points="-4,4 -4,-256 812.6863,-256 812.6863,4 -4,4"/>
<!-- ArithmeticEquation -->
<g id="node1" class="node">
<title>ArithmeticEquation</title>
<g id="a_node1"><a xlink:href="http://emmo.info/emmo/top/math#EMMO_a6138ba7_e365_4f2d_b6b4_fe5a5918d403" xlink:title="ArithmeticEquation">
<ellipse fill="#ffffcc" stroke="#000000" cx="81.2428" cy="-90" rx="81.4863" ry="18"/>
<text text-anchor="middle" x="81.2428" y="-86.3" font-family="Times,serif" font-size="14.00" fill="#000000">ArithmeticEquation</text>
</a>
</g>
</g>
<!-- Equation -->
<g id="node6" class="node">
<title>Equation</title>
<g id="a_node6"><a xlink:href="http://emmo.info/emmo/middle/math#EMMO_e56ee3eb_7609_4ae1_8bed_51974f0960a6" xlink:title="Equation">
<ellipse fill="#ffffcc" stroke="#000000" cx="413.2428" cy="-162" rx="42.4939" ry="18"/>
<text text-anchor="middle" x="413.2428" y="-158.3" font-family="Times,serif" font-size="14.00" fill="#000000">Equation</text>
</a>
</g>
</g>
<!-- ArithmeticEquation&#45;&gt;Equation -->
<g id="edge5" class="edge">
<title>ArithmeticEquation&#45;&gt;Equation</title>
<path fill="none" stroke="#000000" d="M139.4527,-102.6238C203.6193,-116.5395 305.6426,-138.665 365.3579,-151.6153"/>
<polygon fill="none" stroke="#000000" points="364.7668,-155.0684 375.2814,-153.7674 366.2504,-148.2274 364.7668,-155.0684"/>
</g>
<!-- MaterialRelation -->
<g id="node2" class="node">
<title>MaterialRelation</title>
<g id="a_node2"><a xlink:href="http://emmo.info/emmo/middle/models#EMMO_e5438930_04e7_4d42_ade5_3700d4a52ab7" xlink:title="MaterialRelation">
<ellipse fill="#ffffcc" stroke="#000000" cx="251.2428" cy="-90" rx="70.6878" ry="18"/>
<text text-anchor="middle" x="251.2428" y="-86.3" font-family="Times,serif" font-size="14.00" fill="#000000">MaterialRelation</text>
</a>
</g>
</g>
<!-- MaterialRelation&#45;&gt;Equation -->
<g id="edge3" class="edge">
<title>MaterialRelation&#45;&gt;Equation</title>
<path fill="none" stroke="#000000" d="M286.7944,-105.8007C312.7584,-117.3403 347.934,-132.9739 374.5936,-144.8226"/>
<polygon fill="none" stroke="#000000" points="373.4378,-148.139 383.9974,-149.0021 376.2808,-141.7423 373.4378,-148.139"/>
</g>
<!-- Inequality -->
<g id="node3" class="node">
<title>Inequality</title>
<g id="a_node3"><a xlink:href="http://emmo.info/emmo/middle/math#EMMO_0b6ebe5a_0026_4bef_a1c1_5be00df9f98e" xlink:title="Inequality">
<ellipse fill="#ffffcc" stroke="#000000" cx="519.2428" cy="-162" rx="46.2923" ry="18"/>
<text text-anchor="middle" x="519.2428" y="-158.3" font-family="Times,serif" font-size="14.00" fill="#000000">Inequality</text>
</a>
</g>
</g>
<!-- Formula -->
<g id="node8" class="node">
<title>Formula</title>
<g id="a_node8"><a xlink:href="http://emmo.info/emmo/middle/math#EMMO_88470739_03d3_4c47_a03e_b30a1288d50c" xlink:title="Formula">
<ellipse fill="#ffffcc" stroke="#000000" stroke-width="2" cx="466.2428" cy="-234" rx="40.8928" ry="18"/>
<text text-anchor="middle" x="466.2428" y="-230.3" font-family="Times,serif" font-size="14.00" fill="#000000">Formula</text>
</a>
</g>
</g>
<!-- Inequality&#45;&gt;Formula -->
<g id="edge2" class="edge">
<title>Inequality&#45;&gt;Formula</title>
<path fill="none" stroke="#000000" d="M506.413,-179.4292C499.968,-188.1847 492.0374,-198.9582 484.9302,-208.6133"/>
<polygon fill="none" stroke="#000000" points="482.064,-206.6031 478.9545,-216.7313 487.7014,-210.7528 482.064,-206.6031"/>
</g>
<!-- DefiningEquation -->
<g id="node4" class="node">
<title>DefiningEquation</title>
<g id="a_node4"><a xlink:href="http://emmo.info/emmo/top/math#EMMO_29afdf54_90ae_4c98_8845_fa9ea3f143a8" xlink:title="DefiningEquation">
<ellipse fill="#ffffcc" stroke="#000000" cx="413.2428" cy="-90" rx="73.387" ry="18"/>
<text text-anchor="middle" x="413.2428" y="-86.3" font-family="Times,serif" font-size="14.00" fill="#000000">DefiningEquation</text>
</a>
</g>
</g>
<!-- DefiningEquation&#45;&gt;Equation -->
<g id="edge7" class="edge">
<title>DefiningEquation&#45;&gt;Equation</title>
<path fill="none" stroke="#000000" d="M413.2428,-108.1686C413.2428,-115.869 413.2428,-125.0257 413.2428,-133.5834"/>
<polygon fill="none" stroke="#000000" points="409.7429,-133.5867 413.2428,-143.5867 416.7429,-133.5868 409.7429,-133.5867"/>
</g>
<!-- FunctionDefinition -->
<g id="node5" class="node">
<title>FunctionDefinition</title>
<g id="a_node5"><a xlink:href="http://emmo.info/emmo/top/math#EMMO_4bc29b0f_8fcc_4026_a291_f9774a66d9b8" xlink:title="FunctionDefinition">
<ellipse fill="#ffffcc" stroke="#000000" cx="413.2428" cy="-18" rx="77.9862" ry="18"/>
<text text-anchor="middle" x="413.2428" y="-14.3" font-family="Times,serif" font-size="14.00" fill="#000000">FunctionDefinition</text>
</a>
</g>
</g>
<!-- FunctionDefinition&#45;&gt;DefiningEquation -->
<g id="edge1" class="edge">
<title>FunctionDefinition&#45;&gt;DefiningEquation</title>
<path fill="none" stroke="#000000" d="M413.2428,-36.1686C413.2428,-43.869 413.2428,-53.0257 413.2428,-61.5834"/>
<polygon fill="none" stroke="#000000" points="409.7429,-61.5867 413.2428,-71.5867 416.7429,-61.5868 409.7429,-61.5867"/>
</g>
<!-- Equation&#45;&gt;Formula -->
<g id="edge8" class="edge">
<title>Equation&#45;&gt;Formula</title>
<path fill="none" stroke="#000000" d="M426.0726,-179.4292C432.5176,-188.1847 440.4482,-198.9582 447.5554,-208.6133"/>
<polygon fill="none" stroke="#000000" points="444.7842,-210.7528 453.5311,-216.7313 450.4216,-206.6031 444.7842,-210.7528"/>
</g>
<!-- PhysicsEquation -->
<g id="node7" class="node">
<title>PhysicsEquation</title>
<g id="a_node7"><a xlink:href="http://emmo.info/emmo/middle/models#EMMO_27c5d8c6_8af7_4d63_beb1_ec37cd8b3fa3" xlink:title="PhysicsEquation">
<ellipse fill="#ffffcc" stroke="#000000" cx="574.2428" cy="-90" rx="69.5877" ry="18"/>
<text text-anchor="middle" x="574.2428" y="-86.3" font-family="Times,serif" font-size="14.00" fill="#000000">PhysicsEquation</text>
</a>
</g>
</g>
<!-- PhysicsEquation&#45;&gt;Equation -->
<g id="edge4" class="edge">
<title>PhysicsEquation&#45;&gt;Equation</title>
<path fill="none" stroke="#000000" d="M539.3082,-105.6229C513.5271,-117.1524 478.4488,-132.8396 451.8398,-144.7392"/>
<polygon fill="none" stroke="#000000" points="450.1525,-141.6597 442.4526,-148.9372 453.0102,-148.0498 450.1525,-141.6597"/>
</g>
<!-- AlgebricEquation -->
<g id="node9" class="node">
<title>AlgebricEquation</title>
<g id="a_node9"><a xlink:href="http://emmo.info/emmo/top/math#EMMO_98d65021_4574_4890_b2fb_46430841077f" xlink:title="AlgebricEquation">
<ellipse fill="#ffffcc" stroke="#000000" cx="735.2428" cy="-90" rx="73.387" ry="18"/>
<text text-anchor="middle" x="735.2428" y="-86.3" font-family="Times,serif" font-size="14.00" fill="#000000">AlgebricEquation</text>
</a>
</g>
</g>
<!-- AlgebricEquation&#45;&gt;Equation -->
<g id="edge6" class="edge">
<title>AlgebricEquation&#45;&gt;Equation</title>
<path fill="none" stroke="#000000" d="M680.5937,-102.2182C671.4696,-104.1943 662.0953,-106.1857 653.2428,-108 569.4738,-125.1687 546.7958,-121.7067 464.2428,-144 461.0701,-144.8568 457.8117,-145.8157 454.5503,-146.8329"/>
<polygon fill="none" stroke="#000000" points="453.2524,-143.575 444.8397,-150.0152 455.4324,-150.2269 453.2524,-143.575"/>
</g>
<!-- key1 -->
<g id="node10" class="node">
<title>key1</title>
<text text-anchor="start" x="527.2428" y="-13.8" font-family="Times,serif" font-size="14.00" fill="#000000">isA</text>
</g>
<!-- key2 -->
<g id="node11" class="node">
<title>key2</title>
<text text-anchor="start" x="606.2428" y="-13.8" font-family="Times,serif" font-size="14.00" fill="#000000"> </text>
</g>
<!-- key1&#45;&gt;key2 -->
<g id="edge9" class="edge">
<title>key1:e&#45;&gt;key2:w</title>
<path fill="none" stroke="#000000" d="M548.2428,-19C569.2428,-19 576.9537,-19 593.8009,-19"/>
<polygon fill="none" stroke="#000000" points="594.2428,-22.5001 604.2428,-19 594.2428,-15.5001 594.2428,-22.5001"/>
</g>
</g>
</svg>
