<?xml version="1.0" encoding="UTF-8" standalone="no"?>
<!DOCTYPE svg PUBLIC "-//W3C//DTD SVG 1.1//EN"
 "http://www.w3.org/Graphics/SVG/1.1/DTD/svg11.dtd">
<!-- Generated by graphviz version 2.40.1 (20161225.0304)
 -->
<!-- Title: %3 Pages: 1 -->
<svg width="966pt" height="260pt"
 viewBox="0.00 0.00 965.54 260.00" xmlns="http://www.w3.org/2000/svg" xmlns:xlink="http://www.w3.org/1999/xlink">
<g id="graph0" class="graph" transform="scale(1 1) rotate(0) translate(4 256)">
<title>%3</title>
<polygon fill="#ffffff" stroke="transparent" points="-4,4 -4,-256 961.5438,-256 961.5438,4 -4,4"/>
<!-- Formula -->
<g id="node1" class="node">
<title>Formula</title>
<g id="a_node1"><a xlink:href="http://emmo.info/emmo/middle/math#EMMO_88470739_03d3_4c47_a03e_b30a1288d50c" xlink:title="Formula">
<ellipse fill="#ffffcc" stroke="#000000" stroke-width="2" cx="336.5438" cy="-234" rx="40.8928" ry="18"/>
<text text-anchor="middle" x="336.5438" y="-230.3" font-family="Times,serif" font-size="14.00" fill="#000000">Formula</text>
</a>
</g>
</g>
<!-- PhysicsEquation -->
<g id="node2" class="node">
<title>PhysicsEquation</title>
<g id="a_node2"><a xlink:href="http://emmo.info/emmo/middle/models#EMMO_27c5d8c6_8af7_4d63_beb1_ec37cd8b3fa3" xlink:title="PhysicsEquation">
<ellipse fill="#ffffcc" stroke="#000000" cx="69.5438" cy="-90" rx="69.5877" ry="18"/>
<text text-anchor="middle" x="69.5438" y="-86.3" font-family="Times,serif" font-size="14.00" fill="#000000">PhysicsEquation</text>
</a>
</g>
</g>
<!-- Equation -->
<g id="node9" class="node">
<title>Equation</title>
<g id="a_node9"><a xlink:href="http://emmo.info/emmo/middle/math#EMMO_e56ee3eb_7609_4ae1_8bed_51974f0960a6" xlink:title="Equation">
<ellipse fill="#ffffcc" stroke="#000000" cx="389.5438" cy="-162" rx="42.4939" ry="18"/>
<text text-anchor="middle" x="389.5438" y="-158.3" font-family="Times,serif" font-size="14.00" fill="#000000">Equation</text>
</a>
</g>
</g>
<!-- PhysicsEquation&#45;&gt;Equation -->
<g id="edge8" class="edge">
<title>PhysicsEquation&#45;&gt;Equation</title>
<path fill="none" stroke="#000000" d="M121.0855,-102.2045C129.899,-104.2025 138.9745,-106.2044 147.5438,-108 232.0913,-125.7157 255.126,-121.5593 338.5438,-144 341.7173,-144.8537 344.9763,-145.8105 348.2382,-146.8261"/>
<polygon fill="none" stroke="#000000" points="347.3569,-150.2203 357.9496,-150.0055 349.535,-143.5677 347.3569,-150.2203"/>
</g>
<!-- Inequality -->
<g id="node3" class="node">
<title>Inequality</title>
<g id="a_node3"><a xlink:href="http://emmo.info/emmo/middle/math#EMMO_0b6ebe5a_0026_4bef_a1c1_5be00df9f98e" xlink:title="Inequality">
<ellipse fill="#ffffcc" stroke="#000000" cx="283.5438" cy="-162" rx="46.2923" ry="18"/>
<text text-anchor="middle" x="283.5438" y="-158.3" font-family="Times,serif" font-size="14.00" fill="#000000">Inequality</text>
</a>
</g>
</g>
<!-- Inequality&#45;&gt;Formula -->
<g id="edge1" class="edge">
<title>Inequality&#45;&gt;Formula</title>
<path fill="none" stroke="#000000" d="M296.3737,-179.4292C302.8186,-188.1847 310.7492,-198.9582 317.8564,-208.6133"/>
<polygon fill="none" stroke="#000000" points="315.0853,-210.7528 323.8322,-216.7313 320.7226,-206.6031 315.0853,-210.7528"/>
</g>
<!-- MaterialRelation -->
<g id="node4" class="node">
<title>MaterialRelation</title>
<g id="a_node4"><a xlink:href="http://emmo.info/emmo/middle/models#EMMO_e5438930_04e7_4d42_ade5_3700d4a52ab7" xlink:title="MaterialRelation">
<ellipse fill="#ffffcc" stroke="#000000" cx="227.5438" cy="-90" rx="70.6878" ry="18"/>
<text text-anchor="middle" x="227.5438" y="-86.3" font-family="Times,serif" font-size="14.00" fill="#000000">MaterialRelation</text>
</a>
</g>
</g>
<!-- MaterialRelation&#45;&gt;Equation -->
<g id="edge6" class="edge">
<title>MaterialRelation&#45;&gt;Equation</title>
<path fill="none" stroke="#000000" d="M263.0954,-105.8007C289.0595,-117.3403 324.235,-132.9739 350.8946,-144.8226"/>
<polygon fill="none" stroke="#000000" points="349.7388,-148.139 360.2985,-149.0021 352.5819,-141.7423 349.7388,-148.139"/>
</g>
<!-- AlgebricEquation -->
<g id="node5" class="node">
<title>AlgebricEquation</title>
<g id="a_node5"><a xlink:href="http://emmo.info/emmo/top/math#EMMO_98d65021_4574_4890_b2fb_46430841077f" xlink:title="AlgebricEquation">
<ellipse fill="#ffffcc" stroke="#000000" cx="389.5438" cy="-90" rx="73.387" ry="18"/>
<text text-anchor="middle" x="389.5438" y="-86.3" font-family="Times,serif" font-size="14.00" fill="#000000">AlgebricEquation</text>
</a>
</g>
</g>
<!-- AlgebricEquation&#45;&gt;Equation -->
<g id="edge3" class="edge">
<title>AlgebricEquation&#45;&gt;Equation</title>
<path fill="none" stroke="#000000" d="M389.5438,-108.1686C389.5438,-115.869 389.5438,-125.0257 389.5438,-133.5834"/>
<polygon fill="none" stroke="#000000" points="386.0439,-133.5867 389.5438,-143.5867 393.0439,-133.5868 386.0439,-133.5867"/>
</g>
<!-- ArithmeticEquation -->
<g id="node6" class="node">
<title>ArithmeticEquation</title>
<g id="a_node6"><a xlink:href="http://emmo.info/emmo/top/math#EMMO_a6138ba7_e365_4f2d_b6b4_fe5a5918d403" xlink:title="ArithmeticEquation">
<ellipse fill="#ffffcc" stroke="#000000" cx="562.5438" cy="-90" rx="81.4863" ry="18"/>
<text text-anchor="middle" x="562.5438" y="-86.3" font-family="Times,serif" font-size="14.00" fill="#000000">ArithmeticEquation</text>
</a>
</g>
</g>
<!-- ArithmeticEquation&#45;&gt;Equation -->
<g id="edge5" class="edge">
<title>ArithmeticEquation&#45;&gt;Equation</title>
<path fill="none" stroke="#000000" d="M524.1495,-105.9791C495.888,-117.7412 457.5808,-133.684 429.0585,-145.5546"/>
<polygon fill="none" stroke="#000000" points="427.6769,-142.3385 419.7894,-149.4122 430.3666,-148.8011 427.6769,-142.3385"/>
</g>
<!-- DefiningEquation -->
<g id="node7" class="node">
<title>DefiningEquation</title>
<g id="a_node7"><a xlink:href="http://emmo.info/emmo/top/math#EMMO_29afdf54_90ae_4c98_8845_fa9ea3f143a8" xlink:title="DefiningEquation">
<ellipse fill="#ffffcc" stroke="#000000" cx="735.5438" cy="-90" rx="73.387" ry="18"/>
<text text-anchor="middle" x="735.5438" y="-86.3" font-family="Times,serif" font-size="14.00" fill="#000000">DefiningEquation</text>
</a>
</g>
</g>
<!-- DefiningEquation&#45;&gt;Equation -->
<g id="edge7" class="edge">
<title>DefiningEquation&#45;&gt;Equation</title>
<path fill="none" stroke="#000000" d="M680.6474,-101.9948C671.2748,-104.0171 661.6327,-106.0814 652.5438,-108 577.7195,-123.7946 490.7828,-141.5231 437.9899,-152.2198"/>
<polygon fill="none" stroke="#000000" points="437.0068,-148.8478 427.9003,-154.2627 438.396,-155.7085 437.0068,-148.8478"/>
</g>
<!-- FunctionDefinition -->
<g id="node8" class="node">
<title>FunctionDefinition</title>
<g id="a_node8"><a xlink:href="http://emmo.info/emmo/top/math#EMMO_4bc29b0f_8fcc_4026_a291_f9774a66d9b8" xlink:title="FunctionDefinition">
<ellipse fill="#ffffcc" stroke="#000000" cx="735.5438" cy="-18" rx="77.9862" ry="18"/>
<text text-anchor="middle" x="735.5438" y="-14.3" font-family="Times,serif" font-size="14.00" fill="#000000">FunctionDefinition</text>
</a>
</g>
</g>
<!-- FunctionDefinition&#45;&gt;DefiningEquation -->
<g id="edge2" class="edge">
<title>FunctionDefinition&#45;&gt;DefiningEquation</title>
<path fill="none" stroke="#000000" d="M735.5438,-36.1686C735.5438,-43.869 735.5438,-53.0257 735.5438,-61.5834"/>
<polygon fill="none" stroke="#000000" points="732.0439,-61.5867 735.5438,-71.5867 739.0439,-61.5868 732.0439,-61.5867"/>
</g>
<!-- Equation&#45;&gt;Formula -->
<g id="edge4" class="edge">
<title>Equation&#45;&gt;Formula</title>
<path fill="none" stroke="#000000" d="M376.714,-179.4292C370.269,-188.1847 362.3385,-198.9582 355.2312,-208.6133"/>
<polygon fill="none" stroke="#000000" points="352.365,-206.6031 349.2555,-216.7313 358.0024,-210.7528 352.365,-206.6031"/>
</g>
<!-- key1 -->
<g id="node10" class="node">
<title>key1</title>
<text text-anchor="start" x="849.5438" y="-13.8" font-family="Times,serif" font-size="14.00" fill="#000000">isA</text>
</g>
<!-- key2 -->
<g id="node11" class="node">
<title>key2</title>
<text text-anchor="start" x="928.5438" y="-13.8" font-family="Times,serif" font-size="14.00" fill="#000000"> </text>
</g>
<!-- key1&#45;&gt;key2 -->
<g id="edge9" class="edge">
<title>key1:e&#45;&gt;key2:w</title>
<path fill="none" stroke="#000000" d="M870.5438,-19C891.5438,-19 899.2548,-19 916.1019,-19"/>
<polygon fill="none" stroke="#000000" points="916.5439,-22.5001 926.5438,-19 916.5438,-15.5001 916.5439,-22.5001"/>
</g>
</g>
</svg>
