<?xml version="1.0" encoding="UTF-8" standalone="no"?>
<!DOCTYPE svg PUBLIC "-//W3C//DTD SVG 1.1//EN"
 "http://www.w3.org/Graphics/SVG/1.1/DTD/svg11.dtd">
<!-- Generated by graphviz version 2.40.1 (20161225.0304)
 -->
<!-- Title: %3 Pages: 1 -->
<svg width="847pt" height="188pt"
 viewBox="0.00 0.00 847.25 188.00" xmlns="http://www.w3.org/2000/svg" xmlns:xlink="http://www.w3.org/1999/xlink">
<g id="graph0" class="graph" transform="scale(1 1) rotate(0) translate(4 184)">
<title>%3</title>
<polygon fill="#ffffff" stroke="transparent" points="-4,4 -4,-184 843.2474,-184 843.2474,4 -4,4"/>
<!-- Point -->
<g id="node1" class="node">
<title>Point</title>
<g id="a_node1"><a xlink:href="http://emmo.info/emmo/middle/perceptual#EMMO_39362460_2a97_4367_8f93_0418c2ac9a08" xlink:title="Point">
<ellipse fill="#ffffcc" stroke="#000000" cx="29.2474" cy="-18" rx="29.4969" ry="18"/>
<text text-anchor="middle" x="29.2474" y="-14.3" font-family="Times,serif" font-size="14.00" fill="#000000">Point</text>
</a>
</g>
</g>
<!-- 0&#45;manifold -->
<g id="node13" class="node">
<title>0&#45;manifold</title>
<g id="a_node13"><a xlink:href="http://emmo.info/emmo/middle/perceptual#EMMO_0ab0485c_9e5b_4257_a679_90a2dfba5c7c" xlink:title="0&#45;manifold">
<ellipse fill="#ffffcc" stroke="#000000" cx="70.2474" cy="-90" rx="50.0912" ry="18"/>
<text text-anchor="middle" x="70.2474" y="-86.3" font-family="Times,serif" font-size="14.00" fill="#000000">0&#45;manifold</text>
</a>
</g>
</g>
<!-- Point&#45;&gt;0&#45;manifold -->
<g id="edge5" class="edge">
<title>Point&#45;&gt;0&#45;manifold</title>
<path fill="none" stroke="#000000" d="M38.9638,-35.063C43.809,-43.5716 49.7777,-54.0532 55.1982,-63.5721"/>
<polygon fill="none" stroke="#000000" points="52.1827,-65.3497 60.1726,-72.3076 58.2656,-61.8858 52.1827,-65.3497"/>
</g>
<!-- Geometrical -->
<g id="node2" class="node">
<title>Geometrical</title>
<g id="a_node2"><a xlink:href="http://emmo.info/emmo/middle/perceptual#EMMO_b5957cef_a287_442d_a3ce_fd39f20ba1cd" xlink:title="Geometrical">
<ellipse fill="#ffffcc" stroke="#000000" stroke-width="2" cx="288.2474" cy="-162" rx="54.6905" ry="18"/>
<text text-anchor="middle" x="288.2474" y="-158.3" font-family="Times,serif" font-size="14.00" fill="#000000">Geometrical</text>
</a>
</g>
</g>
<!-- Torus -->
<g id="node3" class="node">
<title>Torus</title>
<g id="a_node3"><a xlink:href="http://emmo.info/emmo/middle/perceptual#EMMO_86060335_31c2_4820_b433_27c64aea0366" xlink:title="Torus">
<ellipse fill="#ffffcc" stroke="#000000" cx="107.2474" cy="-18" rx="31.3957" ry="18"/>
<text text-anchor="middle" x="107.2474" y="-14.3" font-family="Times,serif" font-size="14.00" fill="#000000">Torus</text>
</a>
</g>
</g>
<!-- 2&#45;manifold -->
<g id="node6" class="node">
<title>2&#45;manifold</title>
<g id="a_node6"><a xlink:href="http://emmo.info/emmo/middle/perceptual#EMMO_9268958f_7f54_48ab_a693_febe2645892b" xlink:title="2&#45;manifold">
<ellipse fill="#ffffcc" stroke="#000000" cx="208.2474" cy="-90" rx="50.0912" ry="18"/>
<text text-anchor="middle" x="208.2474" y="-86.3" font-family="Times,serif" font-size="14.00" fill="#000000">2&#45;manifold</text>
</a>
</g>
</g>
<!-- Torus&#45;&gt;2&#45;manifold -->
<g id="edge9" class="edge">
<title>Torus&#45;&gt;2&#45;manifold</title>
<path fill="none" stroke="#000000" d="M127.2018,-32.2249C141.4968,-42.4154 161.0225,-56.3347 177.3266,-67.9574"/>
<polygon fill="none" stroke="#000000" points="175.3397,-70.8393 185.5142,-73.7941 179.403,-65.1393 175.3397,-70.8393"/>
</g>
<!-- Plane -->
<g id="node4" class="node">
<title>Plane</title>
<g id="a_node4"><a xlink:href="http://emmo.info/emmo/middle/perceptual#EMMO_25f5ca8e_8f7f_44d8_a392_bd3fe8894458" xlink:title="Plane">
<ellipse fill="#ffffcc" stroke="#000000" cx="187.2474" cy="-18" rx="30.5947" ry="18"/>
<text text-anchor="middle" x="187.2474" y="-14.3" font-family="Times,serif" font-size="14.00" fill="#000000">Plane</text>
</a>
</g>
</g>
<!-- Plane&#45;&gt;2&#45;manifold -->
<g id="edge7" class="edge">
<title>Plane&#45;&gt;2&#45;manifold</title>
<path fill="none" stroke="#000000" d="M192.4384,-35.7978C194.7682,-43.7854 197.5711,-53.3955 200.1657,-62.2913"/>
<polygon fill="none" stroke="#000000" points="196.8102,-63.2869 202.9702,-71.9069 203.5302,-61.3269 196.8102,-63.2869"/>
</g>
<!-- EuclideanSpace -->
<g id="node5" class="node">
<title>EuclideanSpace</title>
<g id="a_node5"><a xlink:href="http://emmo.info/emmo/middle/perceptual#EMMO_5f278af9_8593_4e27_a717_ccc9e07a0ddf" xlink:title="EuclideanSpace">
<ellipse fill="#ffffcc" stroke="#000000" cx="391.2474" cy="-18" rx="66.8882" ry="18"/>
<text text-anchor="middle" x="391.2474" y="-14.3" font-family="Times,serif" font-size="14.00" fill="#000000">EuclideanSpace</text>
</a>
</g>
</g>
<!-- 3&#45;manifold -->
<g id="node9" class="node">
<title>3&#45;manifold</title>
<g id="a_node9"><a xlink:href="http://emmo.info/emmo/middle/perceptual#EMMO_46f0f8df_4dc6_418f_8036_10427a3a288e" xlink:title="3&#45;manifold">
<ellipse fill="#ffffcc" stroke="#000000" cx="369.2474" cy="-90" rx="50.0912" ry="18"/>
<text text-anchor="middle" x="369.2474" y="-86.3" font-family="Times,serif" font-size="14.00" fill="#000000">3&#45;manifold</text>
</a>
</g>
</g>
<!-- EuclideanSpace&#45;&gt;3&#45;manifold -->
<g id="edge6" class="edge">
<title>EuclideanSpace&#45;&gt;3&#45;manifold</title>
<path fill="none" stroke="#000000" d="M385.6959,-36.1686C383.2805,-44.0734 380.3963,-53.5128 377.7224,-62.2635"/>
<polygon fill="none" stroke="#000000" points="374.296,-61.5003 374.7209,-72.0866 380.9904,-63.5459 374.296,-61.5003"/>
</g>
<!-- 2&#45;manifold&#45;&gt;Geometrical -->
<g id="edge2" class="edge">
<title>2&#45;manifold&#45;&gt;Geometrical</title>
<path fill="none" stroke="#000000" d="M227.2063,-107.063C237.5678,-116.3884 250.5626,-128.0837 261.8963,-138.284"/>
<polygon fill="none" stroke="#000000" points="259.6503,-140.9713 269.4246,-145.0595 264.333,-135.7683 259.6503,-140.9713"/>
</g>
<!-- Curve -->
<g id="node7" class="node">
<title>Curve</title>
<g id="a_node7"><a xlink:href="http://emmo.info/emmo/middle/perceptual#EMMO_0ef4ff4a_5458_4f2a_b51f_4689d472a3f2" xlink:title="Curve">
<ellipse fill="#ffffcc" stroke="#000000" cx="508.2474" cy="-18" rx="32.4942" ry="18"/>
<text text-anchor="middle" x="508.2474" y="-14.3" font-family="Times,serif" font-size="14.00" fill="#000000">Curve</text>
</a>
</g>
</g>
<!-- 1&#45;manifold -->
<g id="node10" class="node">
<title>1&#45;manifold</title>
<g id="a_node10"><a xlink:href="http://emmo.info/emmo/middle/perceptual#EMMO_0c576e13_4ee7_4f3d_bfe9_1614243df018" xlink:title="1&#45;manifold">
<ellipse fill="#ffffcc" stroke="#000000" cx="529.2474" cy="-90" rx="50.0912" ry="18"/>
<text text-anchor="middle" x="529.2474" y="-86.3" font-family="Times,serif" font-size="14.00" fill="#000000">1&#45;manifold</text>
</a>
</g>
</g>
<!-- Curve&#45;&gt;1&#45;manifold -->
<g id="edge10" class="edge">
<title>Curve&#45;&gt;1&#45;manifold</title>
<path fill="none" stroke="#000000" d="M513.4384,-35.7978C515.7682,-43.7854 518.5711,-53.3955 521.1657,-62.2913"/>
<polygon fill="none" stroke="#000000" points="517.8102,-63.2869 523.9702,-71.9069 524.5302,-61.3269 517.8102,-63.2869"/>
</g>
<!-- Sphere -->
<g id="node8" class="node">
<title>Sphere</title>
<g id="a_node8"><a xlink:href="http://emmo.info/emmo/middle/perceptual#EMMO_d7bf784a_db94_4dd9_861c_54f262846fbf" xlink:title="Sphere">
<ellipse fill="#ffffcc" stroke="#000000" cx="271.2474" cy="-18" rx="35.194" ry="18"/>
<text text-anchor="middle" x="271.2474" y="-14.3" font-family="Times,serif" font-size="14.00" fill="#000000">Sphere</text>
</a>
</g>
</g>
<!-- Sphere&#45;&gt;2&#45;manifold -->
<g id="edge3" class="edge">
<title>Sphere&#45;&gt;2&#45;manifold</title>
<path fill="none" stroke="#000000" d="M256.6356,-34.6992C248.8341,-43.6152 239.0705,-54.7736 230.3606,-64.7278"/>
<polygon fill="none" stroke="#000000" points="227.61,-62.5562 223.6589,-72.3868 232.878,-67.1658 227.61,-62.5562"/>
</g>
<!-- 3&#45;manifold&#45;&gt;Geometrical -->
<g id="edge11" class="edge">
<title>3&#45;manifold&#45;&gt;Geometrical</title>
<path fill="none" stroke="#000000" d="M350.4608,-106.6992C339.9805,-116.015 326.7461,-127.779 315.1805,-138.0594"/>
<polygon fill="none" stroke="#000000" points="312.6435,-135.6317 307.4946,-144.8914 317.294,-140.8636 312.6435,-135.6317"/>
</g>
<!-- 1&#45;manifold&#45;&gt;Geometrical -->
<g id="edge4" class="edge">
<title>1&#45;manifold&#45;&gt;Geometrical</title>
<path fill="none" stroke="#000000" d="M490.5266,-101.568C449.2475,-113.9004 383.7258,-133.4753 338.4958,-146.988"/>
<polygon fill="none" stroke="#000000" points="337.4645,-143.6432 328.8849,-149.8593 339.4684,-150.3503 337.4645,-143.6432"/>
</g>
<!-- Circle -->
<g id="node11" class="node">
<title>Circle</title>
<g id="a_node11"><a xlink:href="http://emmo.info/emmo/middle/perceptual#EMMO_b2a234a8_579a_422c_9305_b8f7e72c76cd" xlink:title="Circle">
<ellipse fill="#ffffcc" stroke="#000000" cx="591.2474" cy="-18" rx="32.4942" ry="18"/>
<text text-anchor="middle" x="591.2474" y="-14.3" font-family="Times,serif" font-size="14.00" fill="#000000">Circle</text>
</a>
</g>
</g>
<!-- Circle&#45;&gt;1&#45;manifold -->
<g id="edge12" class="edge">
<title>Circle&#45;&gt;1&#45;manifold</title>
<path fill="none" stroke="#000000" d="M577.1786,-34.3379C569.3978,-43.3737 559.5642,-54.7934 550.8319,-64.9342"/>
<polygon fill="none" stroke="#000000" points="547.9981,-62.8612 544.1251,-72.7227 553.3025,-67.4289 547.9981,-62.8612"/>
</g>
<!-- Line -->
<g id="node12" class="node">
<title>Line</title>
<g id="a_node12"><a xlink:href="http://emmo.info/emmo/middle/perceptual#EMMO_3e309118_e8b7_4021_80f4_642d2df65d94" xlink:title="Line">
<ellipse fill="#ffffcc" stroke="#000000" cx="668.2474" cy="-18" rx="27" ry="18"/>
<text text-anchor="middle" x="668.2474" y="-14.3" font-family="Times,serif" font-size="14.00" fill="#000000">Line</text>
</a>
</g>
</g>
<!-- Line&#45;&gt;1&#45;manifold -->
<g id="edge8" class="edge">
<title>Line&#45;&gt;1&#45;manifold</title>
<path fill="none" stroke="#000000" d="M646.8333,-29.0922C625.6043,-40.0885 592.6348,-57.1662 567.0026,-70.4433"/>
<polygon fill="none" stroke="#000000" points="565.1961,-67.4373 557.9265,-75.1447 568.4158,-73.653 565.1961,-67.4373"/>
</g>
<!-- 0&#45;manifold&#45;&gt;Geometrical -->
<g id="edge1" class="edge">
<title>0&#45;manifold&#45;&gt;Geometrical</title>
<path fill="none" stroke="#000000" d="M107.2281,-102.2138C143.8132,-114.297 199.9911,-132.8511 240.0536,-146.0828"/>
<polygon fill="none" stroke="#000000" points="239.0215,-149.4278 249.6147,-149.2406 241.2169,-142.7809 239.0215,-149.4278"/>
</g>
<!-- key1 -->
<g id="node14" class="node">
<title>key1</title>
<text text-anchor="start" x="731.2474" y="-13.8" font-family="Times,serif" font-size="14.00" fill="#000000">isA</text>
</g>
<!-- key2 -->
<g id="node15" class="node">
<title>key2</title>
<text text-anchor="start" x="810.2474" y="-13.8" font-family="Times,serif" font-size="14.00" fill="#000000"> </text>
</g>
<!-- key1&#45;&gt;key2 -->
<g id="edge13" class="edge">
<title>key1:e&#45;&gt;key2:w</title>
<path fill="none" stroke="#000000" d="M752.2474,-19C773.2474,-19 780.9583,-19 797.8055,-19"/>
<polygon fill="none" stroke="#000000" points="798.2474,-22.5001 808.2474,-19 798.2474,-15.5001 798.2474,-22.5001"/>
</g>
</g>
</svg>
