<?xml version="1.0" encoding="UTF-8" standalone="no"?>
<!DOCTYPE svg PUBLIC "-//W3C//DTD SVG 1.1//EN"
 "http://www.w3.org/Graphics/SVG/1.1/DTD/svg11.dtd">
<!-- Generated by graphviz version 2.40.1 (20161225.0304)
 -->
<!-- Title: %3 Pages: 1 -->
<svg width="703pt" height="218pt"
 viewBox="0.00 0.00 702.74 218.00" xmlns="http://www.w3.org/2000/svg" xmlns:xlink="http://www.w3.org/1999/xlink">
<g id="graph0" class="graph" transform="scale(1 1) rotate(0) translate(4 214)">
<title>%3</title>
<polygon fill="#ffffff" stroke="transparent" points="-4,4 -4,-214 698.7445,-214 698.7445,4 -4,4"/>
<!-- 1&#45;manifold -->
<g id="node1" class="node">
<title>1&#45;manifold</title>
<g id="a_node1"><a xlink:href="http://emmo.info/emmo/middle/perceptual#EMMO_0c576e13_4ee7_4f3d_bfe9_1614243df018" xlink:title="1&#45;manifold">
<ellipse fill="#ffffcc" stroke="#000000" cx="547.2474" cy="-105" rx="50.0912" ry="18"/>
<text text-anchor="middle" x="547.2474" y="-101.3" font-family="Times,serif" font-size="14.00" fill="#000000">1&#45;manifold</text>
</a>
</g>
</g>
<!-- Geometrical -->
<g id="node6" class="node">
<title>Geometrical</title>
<g id="a_node6"><a xlink:href="http://emmo.info/emmo/middle/perceptual#EMMO_b5957cef_a287_442d_a3ce_fd39f20ba1cd" xlink:title="Geometrical">
<ellipse fill="#ffffcc" stroke="#000000" stroke-width="2" cx="298.2474" cy="-192" rx="54.6905" ry="18"/>
<text text-anchor="middle" x="298.2474" y="-188.3" font-family="Times,serif" font-size="14.00" fill="#000000">Geometrical</text>
</a>
</g>
</g>
<!-- 1&#45;manifold&#45;&gt;Geometrical -->
<g id="edge5" class="edge">
<title>1&#45;manifold&#45;&gt;Geometrical</title>
<path fill="none" stroke="#000000" d="M511.3066,-117.5576C467.585,-132.8338 393.6524,-158.6657 345.3966,-175.5262"/>
<polygon fill="none" stroke="#000000" points="344.0928,-172.2742 335.8069,-178.8768 346.4018,-178.8824 344.0928,-172.2742"/>
<text text-anchor="middle" x="447.7474" y="-144.8" font-family="Times,serif" font-size="14.00" fill="#000000">isA</text>
</g>
<!-- Plane -->
<g id="node2" class="node">
<title>Plane</title>
<g id="a_node2"><a xlink:href="http://emmo.info/emmo/middle/perceptual#EMMO_25f5ca8e_8f7f_44d8_a392_bd3fe8894458" xlink:title="Plane">
<ellipse fill="#ffffcc" stroke="#000000" cx="107.2474" cy="-18" rx="30.5947" ry="18"/>
<text text-anchor="middle" x="107.2474" y="-14.3" font-family="Times,serif" font-size="14.00" fill="#000000">Plane</text>
</a>
</g>
</g>
<!-- 2&#45;manifold -->
<g id="node5" class="node">
<title>2&#45;manifold</title>
<g id="a_node5"><a xlink:href="http://emmo.info/emmo/middle/perceptual#EMMO_9268958f_7f54_48ab_a693_febe2645892b" xlink:title="2&#45;manifold">
<ellipse fill="#ffffcc" stroke="#000000" cx="229.2474" cy="-105" rx="50.0912" ry="18"/>
<text text-anchor="middle" x="229.2474" y="-101.3" font-family="Times,serif" font-size="14.00" fill="#000000">2&#45;manifold</text>
</a>
</g>
</g>
<!-- Plane&#45;&gt;2&#45;manifold -->
<g id="edge11" class="edge">
<title>Plane&#45;&gt;2&#45;manifold</title>
<path fill="none" stroke="#000000" d="M126.8488,-31.9781C146.0807,-45.6926 175.7075,-66.8199 198.1546,-82.8273"/>
<polygon fill="none" stroke="#000000" points="196.1955,-85.729 206.3695,-88.6854 200.2598,-80.0297 196.1955,-85.729"/>
<text text-anchor="middle" x="185.7474" y="-57.8" font-family="Times,serif" font-size="14.00" fill="#000000">isA</text>
</g>
<!-- Torus -->
<g id="node3" class="node">
<title>Torus</title>
<g id="a_node3"><a xlink:href="http://emmo.info/emmo/middle/perceptual#EMMO_86060335_31c2_4820_b433_27c64aea0366" xlink:title="Torus">
<ellipse fill="#ffffcc" stroke="#000000" cx="187.2474" cy="-18" rx="31.3957" ry="18"/>
<text text-anchor="middle" x="187.2474" y="-14.3" font-family="Times,serif" font-size="14.00" fill="#000000">Torus</text>
</a>
</g>
</g>
<!-- Torus&#45;&gt;2&#45;manifold -->
<g id="edge6" class="edge">
<title>Torus&#45;&gt;2&#45;manifold</title>
<path fill="none" stroke="#000000" d="M195.7467,-35.6057C201.6283,-47.789 209.5668,-64.2331 216.2398,-78.0557"/>
<polygon fill="none" stroke="#000000" points="213.1171,-79.6379 220.6166,-87.1218 219.421,-76.5947 213.1171,-79.6379"/>
<text text-anchor="middle" x="220.7474" y="-57.8" font-family="Times,serif" font-size="14.00" fill="#000000">isA</text>
</g>
<!-- 0&#45;manifold -->
<g id="node4" class="node">
<title>0&#45;manifold</title>
<g id="a_node4"><a xlink:href="http://emmo.info/emmo/middle/perceptual#EMMO_0ab0485c_9e5b_4257_a679_90a2dfba5c7c" xlink:title="0&#45;manifold">
<ellipse fill="#ffffcc" stroke="#000000" cx="70.2474" cy="-105" rx="50.0912" ry="18"/>
<text text-anchor="middle" x="70.2474" y="-101.3" font-family="Times,serif" font-size="14.00" fill="#000000">0&#45;manifold</text>
</a>
</g>
</g>
<!-- 0&#45;manifold&#45;&gt;Geometrical -->
<g id="edge9" class="edge">
<title>0&#45;manifold&#45;&gt;Geometrical</title>
<path fill="none" stroke="#000000" d="M104.8757,-118.2134C144.4846,-133.3274 209.4717,-158.1251 253.0422,-174.7506"/>
<polygon fill="none" stroke="#000000" points="251.9494,-178.0798 262.5402,-178.3749 254.445,-171.5397 251.9494,-178.0798"/>
<text text-anchor="middle" x="207.7474" y="-144.8" font-family="Times,serif" font-size="14.00" fill="#000000">isA</text>
</g>
<!-- 2&#45;manifold&#45;&gt;Geometrical -->
<g id="edge7" class="edge">
<title>2&#45;manifold&#45;&gt;Geometrical</title>
<path fill="none" stroke="#000000" d="M243.2106,-122.6057C253.2178,-135.2235 266.8494,-152.4113 278.0424,-166.5241"/>
<polygon fill="none" stroke="#000000" points="275.3488,-168.7603 284.305,-174.4204 280.8333,-164.4105 275.3488,-168.7603"/>
<text text-anchor="middle" x="277.7474" y="-144.8" font-family="Times,serif" font-size="14.00" fill="#000000">isA</text>
</g>
<!-- EuclideanSpace -->
<g id="node7" class="node">
<title>EuclideanSpace</title>
<g id="a_node7"><a xlink:href="http://emmo.info/emmo/middle/perceptual#EMMO_5f278af9_8593_4e27_a717_ccc9e07a0ddf" xlink:title="EuclideanSpace">
<ellipse fill="#ffffcc" stroke="#000000" cx="391.2474" cy="-18" rx="66.8882" ry="18"/>
<text text-anchor="middle" x="391.2474" y="-14.3" font-family="Times,serif" font-size="14.00" fill="#000000">EuclideanSpace</text>
</a>
</g>
</g>
<!-- 3&#45;manifold -->
<g id="node9" class="node">
<title>3&#45;manifold</title>
<g id="a_node9"><a xlink:href="http://emmo.info/emmo/middle/perceptual#EMMO_46f0f8df_4dc6_418f_8036_10427a3a288e" xlink:title="3&#45;manifold">
<ellipse fill="#ffffcc" stroke="#000000" cx="369.2474" cy="-105" rx="50.0912" ry="18"/>
<text text-anchor="middle" x="369.2474" y="-101.3" font-family="Times,serif" font-size="14.00" fill="#000000">3&#45;manifold</text>
</a>
</g>
</g>
<!-- EuclideanSpace&#45;&gt;3&#45;manifold -->
<g id="edge3" class="edge">
<title>EuclideanSpace&#45;&gt;3&#45;manifold</title>
<path fill="none" stroke="#000000" d="M386.689,-36.0265C383.6802,-47.9249 379.6786,-63.7492 376.2673,-77.2394"/>
<polygon fill="none" stroke="#000000" points="372.8584,-76.4437 373.8,-86.9966 379.6448,-78.1599 372.8584,-76.4437"/>
<text text-anchor="middle" x="391.7474" y="-57.8" font-family="Times,serif" font-size="14.00" fill="#000000">isA</text>
</g>
<!-- Curve -->
<g id="node8" class="node">
<title>Curve</title>
<g id="a_node8"><a xlink:href="http://emmo.info/emmo/middle/perceptual#EMMO_0ef4ff4a_5458_4f2a_b51f_4689d472a3f2" xlink:title="Curve">
<ellipse fill="#ffffcc" stroke="#000000" cx="508.2474" cy="-18" rx="32.4942" ry="18"/>
<text text-anchor="middle" x="508.2474" y="-14.3" font-family="Times,serif" font-size="14.00" fill="#000000">Curve</text>
</a>
</g>
</g>
<!-- Curve&#45;&gt;1&#45;manifold -->
<g id="edge8" class="edge">
<title>Curve&#45;&gt;1&#45;manifold</title>
<path fill="none" stroke="#000000" d="M516.1396,-35.6057C521.5486,-47.6719 528.831,-63.9172 534.9899,-77.6562"/>
<polygon fill="none" stroke="#000000" points="531.9487,-79.4284 539.2331,-87.1218 538.3362,-76.565 531.9487,-79.4284"/>
<text text-anchor="middle" x="539.7474" y="-57.8" font-family="Times,serif" font-size="14.00" fill="#000000">isA</text>
</g>
<!-- 3&#45;manifold&#45;&gt;Geometrical -->
<g id="edge1" class="edge">
<title>3&#45;manifold&#45;&gt;Geometrical</title>
<path fill="none" stroke="#000000" d="M354.8795,-122.6057C344.5823,-135.2235 330.5555,-152.4113 319.0381,-166.5241"/>
<polygon fill="none" stroke="#000000" points="316.205,-164.46 312.5939,-174.4204 321.6283,-168.8859 316.205,-164.46"/>
<text text-anchor="middle" x="347.7474" y="-144.8" font-family="Times,serif" font-size="14.00" fill="#000000">isA</text>
</g>
<!-- Sphere -->
<g id="node10" class="node">
<title>Sphere</title>
<g id="a_node10"><a xlink:href="http://emmo.info/emmo/middle/perceptual#EMMO_d7bf784a_db94_4dd9_861c_54f262846fbf" xlink:title="Sphere">
<ellipse fill="#ffffcc" stroke="#000000" cx="271.2474" cy="-18" rx="35.194" ry="18"/>
<text text-anchor="middle" x="271.2474" y="-14.3" font-family="Times,serif" font-size="14.00" fill="#000000">Sphere</text>
</a>
</g>
</g>
<!-- Sphere&#45;&gt;2&#45;manifold -->
<g id="edge4" class="edge">
<title>Sphere&#45;&gt;2&#45;manifold</title>
<path fill="none" stroke="#000000" d="M262.7481,-35.6057C256.8665,-47.789 248.928,-64.2331 242.255,-78.0557"/>
<polygon fill="none" stroke="#000000" points="239.0739,-76.5947 237.8782,-87.1218 245.3777,-79.6379 239.0739,-76.5947"/>
<text text-anchor="middle" x="262.7474" y="-57.8" font-family="Times,serif" font-size="14.00" fill="#000000">isA</text>
</g>
<!-- Line -->
<g id="node11" class="node">
<title>Line</title>
<g id="a_node11"><a xlink:href="http://emmo.info/emmo/middle/perceptual#EMMO_3e309118_e8b7_4021_80f4_642d2df65d94" xlink:title="Line">
<ellipse fill="#ffffcc" stroke="#000000" cx="585.2474" cy="-18" rx="27" ry="18"/>
<text text-anchor="middle" x="585.2474" y="-14.3" font-family="Times,serif" font-size="14.00" fill="#000000">Line</text>
</a>
</g>
</g>
<!-- Line&#45;&gt;1&#45;manifold -->
<g id="edge10" class="edge">
<title>Line&#45;&gt;1&#45;manifold</title>
<path fill="none" stroke="#000000" d="M577.5575,-35.6057C572.2873,-47.6719 565.1916,-63.9172 559.1907,-77.6562"/>
<polygon fill="none" stroke="#000000" points="555.8516,-76.5569 555.0563,-87.1218 562.2664,-79.3588 555.8516,-76.5569"/>
<text text-anchor="middle" x="578.7474" y="-57.8" font-family="Times,serif" font-size="14.00" fill="#000000">isA</text>
</g>
<!-- Circle -->
<g id="node12" class="node">
<title>Circle</title>
<g id="a_node12"><a xlink:href="http://emmo.info/emmo/middle/perceptual#EMMO_b2a234a8_579a_422c_9305_b8f7e72c76cd" xlink:title="Circle">
<ellipse fill="#ffffcc" stroke="#000000" cx="662.2474" cy="-18" rx="32.4942" ry="18"/>
<text text-anchor="middle" x="662.2474" y="-14.3" font-family="Times,serif" font-size="14.00" fill="#000000">Circle</text>
</a>
</g>
</g>
<!-- Circle&#45;&gt;1&#45;manifold -->
<g id="edge12" class="edge">
<title>Circle&#45;&gt;1&#45;manifold</title>
<path fill="none" stroke="#000000" d="M642.999,-32.5618C625.0156,-46.1666 597.8965,-66.6829 577.1049,-82.4122"/>
<polygon fill="none" stroke="#000000" points="574.7751,-79.7859 568.9118,-88.6104 578.9984,-85.3684 574.7751,-79.7859"/>
<text text-anchor="middle" x="621.7474" y="-57.8" font-family="Times,serif" font-size="14.00" fill="#000000">isA</text>
</g>
<!-- Point -->
<g id="node13" class="node">
<title>Point</title>
<g id="a_node13"><a xlink:href="http://emmo.info/emmo/middle/perceptual#EMMO_39362460_2a97_4367_8f93_0418c2ac9a08" xlink:title="Point">
<ellipse fill="#ffffcc" stroke="#000000" cx="29.2474" cy="-18" rx="29.4969" ry="18"/>
<text text-anchor="middle" x="29.2474" y="-14.3" font-family="Times,serif" font-size="14.00" fill="#000000">Point</text>
</a>
</g>
</g>
<!-- Point&#45;&gt;0&#45;manifold -->
<g id="edge2" class="edge">
<title>Point&#45;&gt;0&#45;manifold</title>
<path fill="none" stroke="#000000" d="M37.5444,-35.6057C43.2859,-47.789 51.0354,-64.2331 57.5495,-78.0557"/>
<polygon fill="none" stroke="#000000" points="54.393,-79.5681 61.8221,-87.1218 60.7251,-76.5839 54.393,-79.5681"/>
<text text-anchor="middle" x="61.7474" y="-57.8" font-family="Times,serif" font-size="14.00" fill="#000000">isA</text>
</g>
</g>
</svg>
