<?xml version="1.0" encoding="UTF-8" standalone="no"?>
<!DOCTYPE svg PUBLIC "-//W3C//DTD SVG 1.1//EN"
 "http://www.w3.org/Graphics/SVG/1.1/DTD/svg11.dtd">
<!-- Generated by graphviz version 2.40.1 (20161225.0304)
 -->
<!-- Title: %3 Pages: 1 -->
<svg width="847pt" height="188pt"
 viewBox="0.00 0.00 846.94 188.00" xmlns="http://www.w3.org/2000/svg" xmlns:xlink="http://www.w3.org/1999/xlink">
<g id="graph0" class="graph" transform="scale(1 1) rotate(0) translate(4 184)">
<title>%3</title>
<polygon fill="#ffffff" stroke="transparent" points="-4,4 -4,-184 842.9441,-184 842.9441,4 -4,4"/>
<!-- EuclideanSpace -->
<g id="node1" class="node">
<title>EuclideanSpace</title>
<g id="a_node1"><a xlink:href="http://emmo.info/emmo/middle/perceptual#EMMO_5f278af9_8593_4e27_a717_ccc9e07a0ddf" xlink:title="EuclideanSpace">
<ellipse fill="#ffffcc" stroke="#000000" cx="66.9441" cy="-18" rx="66.8882" ry="18"/>
<text text-anchor="middle" x="66.9441" y="-14.3" font-family="Times,serif" font-size="14.00" fill="#000000">EuclideanSpace</text>
</a>
</g>
</g>
<!-- 3&#45;manifold -->
<g id="node5" class="node">
<title>3&#45;manifold</title>
<g id="a_node5"><a xlink:href="http://emmo.info/emmo/middle/perceptual#EMMO_46f0f8df_4dc6_418f_8036_10427a3a288e" xlink:title="3&#45;manifold">
<ellipse fill="#ffffcc" stroke="#000000" cx="130.9441" cy="-90" rx="50.0912" ry="18"/>
<text text-anchor="middle" x="130.9441" y="-86.3" font-family="Times,serif" font-size="14.00" fill="#000000">3&#45;manifold</text>
</a>
</g>
</g>
<!-- EuclideanSpace&#45;&gt;3&#45;manifold -->
<g id="edge9" class="edge">
<title>EuclideanSpace&#45;&gt;3&#45;manifold</title>
<path fill="none" stroke="#000000" d="M82.7643,-35.7978C90.5724,-44.5818 100.1245,-55.328 108.6584,-64.9286"/>
<polygon fill="none" stroke="#000000" points="106.267,-67.5066 115.5267,-72.6554 111.4989,-62.856 106.267,-67.5066"/>
</g>
<!-- 2&#45;manifold -->
<g id="node2" class="node">
<title>2&#45;manifold</title>
<g id="a_node2"><a xlink:href="http://emmo.info/emmo/middle/perceptual#EMMO_9268958f_7f54_48ab_a693_febe2645892b" xlink:title="2&#45;manifold">
<ellipse fill="#ffffcc" stroke="#000000" cx="291.9441" cy="-90" rx="50.0912" ry="18"/>
<text text-anchor="middle" x="291.9441" y="-86.3" font-family="Times,serif" font-size="14.00" fill="#000000">2&#45;manifold</text>
</a>
</g>
</g>
<!-- Geometrical -->
<g id="node11" class="node">
<title>Geometrical</title>
<g id="a_node11"><a xlink:href="http://emmo.info/emmo/middle/perceptual#EMMO_b5957cef_a287_442d_a3ce_fd39f20ba1cd" xlink:title="Geometrical">
<ellipse fill="#ffffcc" stroke="#000000" stroke-width="2" cx="371.9441" cy="-162" rx="54.6905" ry="18"/>
<text text-anchor="middle" x="371.9441" y="-158.3" font-family="Times,serif" font-size="14.00" fill="#000000">Geometrical</text>
</a>
</g>
</g>
<!-- 2&#45;manifold&#45;&gt;Geometrical -->
<g id="edge5" class="edge">
<title>2&#45;manifold&#45;&gt;Geometrical</title>
<path fill="none" stroke="#000000" d="M310.9029,-107.063C321.2645,-116.3884 334.2593,-128.0837 345.593,-138.284"/>
<polygon fill="none" stroke="#000000" points="343.3469,-140.9713 353.1213,-145.0595 348.0297,-135.7683 343.3469,-140.9713"/>
</g>
<!-- Curve -->
<g id="node3" class="node">
<title>Curve</title>
<g id="a_node3"><a xlink:href="http://emmo.info/emmo/middle/perceptual#EMMO_0ef4ff4a_5458_4f2a_b51f_4689d472a3f2" xlink:title="Curve">
<ellipse fill="#ffffcc" stroke="#000000" cx="431.9441" cy="-18" rx="32.4942" ry="18"/>
<text text-anchor="middle" x="431.9441" y="-14.3" font-family="Times,serif" font-size="14.00" fill="#000000">Curve</text>
</a>
</g>
</g>
<!-- 1&#45;manifold -->
<g id="node6" class="node">
<title>1&#45;manifold</title>
<g id="a_node6"><a xlink:href="http://emmo.info/emmo/middle/perceptual#EMMO_0c576e13_4ee7_4f3d_bfe9_1614243df018" xlink:title="1&#45;manifold">
<ellipse fill="#ffffcc" stroke="#000000" cx="460.9441" cy="-90" rx="50.0912" ry="18"/>
<text text-anchor="middle" x="460.9441" y="-86.3" font-family="Times,serif" font-size="14.00" fill="#000000">1&#45;manifold</text>
</a>
</g>
</g>
<!-- Curve&#45;&gt;1&#45;manifold -->
<g id="edge12" class="edge">
<title>Curve&#45;&gt;1&#45;manifold</title>
<path fill="none" stroke="#000000" d="M439.1126,-35.7978C442.3891,-43.9325 446.3433,-53.7499 449.9812,-62.7819"/>
<polygon fill="none" stroke="#000000" points="446.7748,-64.1893 453.7575,-72.1575 453.2679,-61.5739 446.7748,-64.1893"/>
</g>
<!-- Sphere -->
<g id="node4" class="node">
<title>Sphere</title>
<g id="a_node4"><a xlink:href="http://emmo.info/emmo/middle/perceptual#EMMO_d7bf784a_db94_4dd9_861c_54f262846fbf" xlink:title="Sphere">
<ellipse fill="#ffffcc" stroke="#000000" cx="186.9441" cy="-18" rx="35.194" ry="18"/>
<text text-anchor="middle" x="186.9441" y="-14.3" font-family="Times,serif" font-size="14.00" fill="#000000">Sphere</text>
</a>
</g>
</g>
<!-- Sphere&#45;&gt;2&#45;manifold -->
<g id="edge3" class="edge">
<title>Sphere&#45;&gt;2&#45;manifold</title>
<path fill="none" stroke="#000000" d="M208.1924,-32.5703C223.093,-42.7878 243.2743,-56.6264 260.0926,-68.159"/>
<polygon fill="none" stroke="#000000" points="258.3085,-71.1794 268.5352,-73.9482 262.2672,-65.4063 258.3085,-71.1794"/>
</g>
<!-- 3&#45;manifold&#45;&gt;Geometrical -->
<g id="edge10" class="edge">
<title>3&#45;manifold&#45;&gt;Geometrical</title>
<path fill="none" stroke="#000000" d="M169.6649,-101.568C210.944,-113.9004 276.4657,-133.4753 321.6956,-146.988"/>
<polygon fill="none" stroke="#000000" points="320.7231,-150.3503 331.3066,-149.8593 322.7269,-143.6432 320.7231,-150.3503"/>
</g>
<!-- 1&#45;manifold&#45;&gt;Geometrical -->
<g id="edge2" class="edge">
<title>1&#45;manifold&#45;&gt;Geometrical</title>
<path fill="none" stroke="#000000" d="M440.302,-106.6992C428.5916,-116.1728 413.7518,-128.178 400.8934,-138.5803"/>
<polygon fill="none" stroke="#000000" points="398.3557,-136.1313 392.7825,-145.1419 402.7583,-141.5735 398.3557,-136.1313"/>
</g>
<!-- Circle -->
<g id="node7" class="node">
<title>Circle</title>
<g id="a_node7"><a xlink:href="http://emmo.info/emmo/middle/perceptual#EMMO_b2a234a8_579a_422c_9305_b8f7e72c76cd" xlink:title="Circle">
<ellipse fill="#ffffcc" stroke="#000000" cx="514.9441" cy="-18" rx="32.4942" ry="18"/>
<text text-anchor="middle" x="514.9441" y="-14.3" font-family="Times,serif" font-size="14.00" fill="#000000">Circle</text>
</a>
</g>
</g>
<!-- Circle&#45;&gt;1&#45;manifold -->
<g id="edge8" class="edge">
<title>Circle&#45;&gt;1&#45;manifold</title>
<path fill="none" stroke="#000000" d="M502.4196,-34.6992C495.8651,-43.4386 487.6946,-54.3326 480.3428,-64.1351"/>
<polygon fill="none" stroke="#000000" points="477.354,-62.2868 474.1539,-72.3868 482.954,-66.4868 477.354,-62.2868"/>
</g>
<!-- Line -->
<g id="node8" class="node">
<title>Line</title>
<g id="a_node8"><a xlink:href="http://emmo.info/emmo/middle/perceptual#EMMO_3e309118_e8b7_4021_80f4_642d2df65d94" xlink:title="Line">
<ellipse fill="#ffffcc" stroke="#000000" cx="591.9441" cy="-18" rx="27" ry="18"/>
<text text-anchor="middle" x="591.9441" y="-14.3" font-family="Times,serif" font-size="14.00" fill="#000000">Line</text>
</a>
</g>
</g>
<!-- Line&#45;&gt;1&#45;manifold -->
<g id="edge6" class="edge">
<title>Line&#45;&gt;1&#45;manifold</title>
<path fill="none" stroke="#000000" d="M570.8966,-29.568C551.2309,-40.3767 521.4426,-56.7489 497.8297,-69.727"/>
<polygon fill="none" stroke="#000000" points="495.8687,-66.8109 488.7909,-74.6949 499.2403,-72.9454 495.8687,-66.8109"/>
</g>
<!-- 0&#45;manifold -->
<g id="node9" class="node">
<title>0&#45;manifold</title>
<g id="a_node9"><a xlink:href="http://emmo.info/emmo/middle/perceptual#EMMO_0ab0485c_9e5b_4257_a679_90a2dfba5c7c" xlink:title="0&#45;manifold">
<ellipse fill="#ffffcc" stroke="#000000" cx="636.9441" cy="-90" rx="50.0912" ry="18"/>
<text text-anchor="middle" x="636.9441" y="-86.3" font-family="Times,serif" font-size="14.00" fill="#000000">0&#45;manifold</text>
</a>
</g>
</g>
<!-- 0&#45;manifold&#45;&gt;Geometrical -->
<g id="edge1" class="edge">
<title>0&#45;manifold&#45;&gt;Geometrical</title>
<path fill="none" stroke="#000000" d="M596.984,-100.8571C550.8958,-113.3791 474.972,-134.0075 424.2243,-147.7956"/>
<polygon fill="none" stroke="#000000" points="423.1592,-144.458 414.4267,-150.4575 424.9946,-151.2131 423.1592,-144.458"/>
</g>
<!-- Point -->
<g id="node10" class="node">
<title>Point</title>
<g id="a_node10"><a xlink:href="http://emmo.info/emmo/middle/perceptual#EMMO_39362460_2a97_4367_8f93_0418c2ac9a08" xlink:title="Point">
<ellipse fill="#ffffcc" stroke="#000000" cx="665.9441" cy="-18" rx="29.4969" ry="18"/>
<text text-anchor="middle" x="665.9441" y="-14.3" font-family="Times,serif" font-size="14.00" fill="#000000">Point</text>
</a>
</g>
</g>
<!-- Point&#45;&gt;0&#45;manifold -->
<g id="edge4" class="edge">
<title>Point&#45;&gt;0&#45;manifold</title>
<path fill="none" stroke="#000000" d="M658.7755,-35.7978C655.499,-43.9325 651.5448,-53.7499 647.9069,-62.7819"/>
<polygon fill="none" stroke="#000000" points="644.6203,-61.5739 644.1306,-72.1575 651.1134,-64.1893 644.6203,-61.5739"/>
</g>
<!-- Torus -->
<g id="node12" class="node">
<title>Torus</title>
<g id="a_node12"><a xlink:href="http://emmo.info/emmo/middle/perceptual#EMMO_86060335_31c2_4820_b433_27c64aea0366" xlink:title="Torus">
<ellipse fill="#ffffcc" stroke="#000000" cx="270.9441" cy="-18" rx="31.3957" ry="18"/>
<text text-anchor="middle" x="270.9441" y="-14.3" font-family="Times,serif" font-size="14.00" fill="#000000">Torus</text>
</a>
</g>
</g>
<!-- Torus&#45;&gt;2&#45;manifold -->
<g id="edge11" class="edge">
<title>Torus&#45;&gt;2&#45;manifold</title>
<path fill="none" stroke="#000000" d="M276.1351,-35.7978C278.4648,-43.7854 281.2677,-53.3955 283.8624,-62.2913"/>
<polygon fill="none" stroke="#000000" points="280.5068,-63.2869 286.6669,-71.9069 287.2268,-61.3269 280.5068,-63.2869"/>
</g>
<!-- Plane -->
<g id="node13" class="node">
<title>Plane</title>
<g id="a_node13"><a xlink:href="http://emmo.info/emmo/middle/perceptual#EMMO_25f5ca8e_8f7f_44d8_a392_bd3fe8894458" xlink:title="Plane">
<ellipse fill="#ffffcc" stroke="#000000" cx="350.9441" cy="-18" rx="30.5947" ry="18"/>
<text text-anchor="middle" x="350.9441" y="-14.3" font-family="Times,serif" font-size="14.00" fill="#000000">Plane</text>
</a>
</g>
</g>
<!-- Plane&#45;&gt;2&#45;manifold -->
<g id="edge7" class="edge">
<title>Plane&#45;&gt;2&#45;manifold</title>
<path fill="none" stroke="#000000" d="M337.556,-34.3379C330.1517,-43.3737 320.7939,-54.7934 312.4841,-64.9342"/>
<polygon fill="none" stroke="#000000" points="309.7329,-62.7695 306.1018,-72.7227 315.1473,-67.2063 309.7329,-62.7695"/>
</g>
<!-- key1 -->
<g id="node14" class="node">
<title>key1</title>
<text text-anchor="start" x="730.9441" y="-13.8" font-family="Times,serif" font-size="14.00" fill="#000000">isA</text>
</g>
<!-- key2 -->
<g id="node15" class="node">
<title>key2</title>
<text text-anchor="start" x="809.9441" y="-13.8" font-family="Times,serif" font-size="14.00" fill="#000000"> </text>
</g>
<!-- key1&#45;&gt;key2 -->
<g id="edge13" class="edge">
<title>key1:e&#45;&gt;key2:w</title>
<path fill="none" stroke="#000000" d="M751.9441,-19C772.9441,-19 780.655,-19 797.5022,-19"/>
<polygon fill="none" stroke="#000000" points="797.9441,-22.5001 807.9441,-19 797.944,-15.5001 797.9441,-22.5001"/>
</g>
</g>
</svg>
