<?xml version="1.0" encoding="UTF-8" standalone="no"?>
<!DOCTYPE svg PUBLIC "-//W3C//DTD SVG 1.1//EN"
 "http://www.w3.org/Graphics/SVG/1.1/DTD/svg11.dtd">
<!-- Generated by graphviz version 2.40.1 (20161225.0304)
 -->
<!-- Title: %3 Pages: 1 -->
<svg width="703pt" height="218pt"
 viewBox="0.00 0.00 703.14 218.00" xmlns="http://www.w3.org/2000/svg" xmlns:xlink="http://www.w3.org/1999/xlink">
<g id="graph0" class="graph" transform="scale(1 1) rotate(0) translate(4 214)">
<title>%3</title>
<polygon fill="#ffffff" stroke="transparent" points="-4,4 -4,-214 699.1413,-214 699.1413,4 -4,4"/>
<!-- EuclideanSpace -->
<g id="node1" class="node">
<title>EuclideanSpace</title>
<g id="a_node1"><a xlink:href="http://emmo.info/emmo/middle/perceptual#EMMO_5f278af9_8593_4e27_a717_ccc9e07a0ddf" xlink:title="EuclideanSpace">
<ellipse fill="#ffffcc" stroke="#000000" cx="66.9441" cy="-18" rx="66.8882" ry="18"/>
<text text-anchor="middle" x="66.9441" y="-14.3" font-family="Times,serif" font-size="14.00" fill="#000000">EuclideanSpace</text>
</a>
</g>
</g>
<!-- 3&#45;manifold -->
<g id="node3" class="node">
<title>3&#45;manifold</title>
<g id="a_node3"><a xlink:href="http://emmo.info/emmo/middle/perceptual#EMMO_46f0f8df_4dc6_418f_8036_10427a3a288e" xlink:title="3&#45;manifold">
<ellipse fill="#ffffcc" stroke="#000000" cx="104.9441" cy="-105" rx="50.0912" ry="18"/>
<text text-anchor="middle" x="104.9441" y="-101.3" font-family="Times,serif" font-size="14.00" fill="#000000">3&#45;manifold</text>
</a>
</g>
</g>
<!-- EuclideanSpace&#45;&gt;3&#45;manifold -->
<g id="edge11" class="edge">
<title>EuclideanSpace&#45;&gt;3&#45;manifold</title>
<path fill="none" stroke="#000000" d="M74.8177,-36.0265C80.0656,-48.0415 87.0622,-64.0599 92.9917,-77.6354"/>
<polygon fill="none" stroke="#000000" points="89.8704,-79.2336 97.0805,-86.9966 96.2852,-76.4317 89.8704,-79.2336"/>
<text text-anchor="middle" x="98.4441" y="-57.8" font-family="Times,serif" font-size="14.00" fill="#000000">isA</text>
</g>
<!-- Curve -->
<g id="node2" class="node">
<title>Curve</title>
<g id="a_node2"><a xlink:href="http://emmo.info/emmo/middle/perceptual#EMMO_0ef4ff4a_5458_4f2a_b51f_4689d472a3f2" xlink:title="Curve">
<ellipse fill="#ffffcc" stroke="#000000" cx="183.9441" cy="-18" rx="32.4942" ry="18"/>
<text text-anchor="middle" x="183.9441" y="-14.3" font-family="Times,serif" font-size="14.00" fill="#000000">Curve</text>
</a>
</g>
</g>
<!-- 1&#45;manifold -->
<g id="node8" class="node">
<title>1&#45;manifold</title>
<g id="a_node8"><a xlink:href="http://emmo.info/emmo/middle/perceptual#EMMO_0c576e13_4ee7_4f3d_bfe9_1614243df018" xlink:title="1&#45;manifold">
<ellipse fill="#ffffcc" stroke="#000000" cx="270.9441" cy="-105" rx="50.0912" ry="18"/>
<text text-anchor="middle" x="270.9441" y="-101.3" font-family="Times,serif" font-size="14.00" fill="#000000">1&#45;manifold</text>
</a>
</g>
</g>
<!-- Curve&#45;&gt;1&#45;manifold -->
<g id="edge4" class="edge">
<title>Curve&#45;&gt;1&#45;manifold</title>
<path fill="none" stroke="#000000" d="M199.9012,-33.9571C212.9345,-46.9904 231.5716,-65.6276 246.4871,-80.5431"/>
<polygon fill="none" stroke="#000000" points="244.3524,-83.3581 253.8983,-87.9543 249.3021,-78.4083 244.3524,-83.3581"/>
<text text-anchor="middle" x="242.4441" y="-57.8" font-family="Times,serif" font-size="14.00" fill="#000000">isA</text>
</g>
<!-- Geometrical -->
<g id="node13" class="node">
<title>Geometrical</title>
<g id="a_node13"><a xlink:href="http://emmo.info/emmo/middle/perceptual#EMMO_b5957cef_a287_442d_a3ce_fd39f20ba1cd" xlink:title="Geometrical">
<ellipse fill="#ffffcc" stroke="#000000" stroke-width="2" cx="333.9441" cy="-192" rx="54.6905" ry="18"/>
<text text-anchor="middle" x="333.9441" y="-188.3" font-family="Times,serif" font-size="14.00" fill="#000000">Geometrical</text>
</a>
</g>
</g>
<!-- 3&#45;manifold&#45;&gt;Geometrical -->
<g id="edge3" class="edge">
<title>3&#45;manifold&#45;&gt;Geometrical</title>
<path fill="none" stroke="#000000" d="M139.7242,-118.2134C179.5069,-133.3274 244.779,-158.1251 288.5406,-174.7506"/>
<polygon fill="none" stroke="#000000" points="287.4891,-178.0952 298.0802,-178.3749 289.9751,-171.5515 287.4891,-178.0952"/>
<text text-anchor="middle" x="243.4441" y="-144.8" font-family="Times,serif" font-size="14.00" fill="#000000">isA</text>
</g>
<!-- Sphere -->
<g id="node4" class="node">
<title>Sphere</title>
<g id="a_node4"><a xlink:href="http://emmo.info/emmo/middle/perceptual#EMMO_d7bf784a_db94_4dd9_861c_54f262846fbf" xlink:title="Sphere">
<ellipse fill="#ffffcc" stroke="#000000" cx="499.9441" cy="-18" rx="35.194" ry="18"/>
<text text-anchor="middle" x="499.9441" y="-14.3" font-family="Times,serif" font-size="14.00" fill="#000000">Sphere</text>
</a>
</g>
</g>
<!-- 2&#45;manifold -->
<g id="node12" class="node">
<title>2&#45;manifold</title>
<g id="a_node12"><a xlink:href="http://emmo.info/emmo/middle/perceptual#EMMO_9268958f_7f54_48ab_a693_febe2645892b" xlink:title="2&#45;manifold">
<ellipse fill="#ffffcc" stroke="#000000" cx="550.9441" cy="-105" rx="50.0912" ry="18"/>
<text text-anchor="middle" x="550.9441" y="-101.3" font-family="Times,serif" font-size="14.00" fill="#000000">2&#45;manifold</text>
</a>
</g>
</g>
<!-- Sphere&#45;&gt;2&#45;manifold -->
<g id="edge6" class="edge">
<title>Sphere&#45;&gt;2&#45;manifold</title>
<path fill="none" stroke="#000000" d="M510.2647,-35.6057C517.4753,-47.9062 527.2318,-64.5497 535.3824,-78.4537"/>
<polygon fill="none" stroke="#000000" points="532.3871,-80.2649 540.4638,-87.1218 538.426,-76.7248 532.3871,-80.2649"/>
<text text-anchor="middle" x="538.4441" y="-57.8" font-family="Times,serif" font-size="14.00" fill="#000000">isA</text>
</g>
<!-- Line -->
<g id="node5" class="node">
<title>Line</title>
<g id="a_node5"><a xlink:href="http://emmo.info/emmo/middle/perceptual#EMMO_3e309118_e8b7_4021_80f4_642d2df65d94" xlink:title="Line">
<ellipse fill="#ffffcc" stroke="#000000" cx="260.9441" cy="-18" rx="27" ry="18"/>
<text text-anchor="middle" x="260.9441" y="-14.3" font-family="Times,serif" font-size="14.00" fill="#000000">Line</text>
</a>
</g>
</g>
<!-- Line&#45;&gt;1&#45;manifold -->
<g id="edge1" class="edge">
<title>Line&#45;&gt;1&#45;manifold</title>
<path fill="none" stroke="#000000" d="M263.0161,-36.0265C264.3703,-47.8082 266.167,-63.4393 267.7075,-76.8419"/>
<polygon fill="none" stroke="#000000" points="264.2556,-77.4617 268.8747,-86.9966 271.2098,-76.6624 264.2556,-77.4617"/>
<text text-anchor="middle" x="276.4441" y="-57.8" font-family="Times,serif" font-size="14.00" fill="#000000">isA</text>
</g>
<!-- Circle -->
<g id="node6" class="node">
<title>Circle</title>
<g id="a_node6"><a xlink:href="http://emmo.info/emmo/middle/perceptual#EMMO_b2a234a8_579a_422c_9305_b8f7e72c76cd" xlink:title="Circle">
<ellipse fill="#ffffcc" stroke="#000000" cx="337.9441" cy="-18" rx="32.4942" ry="18"/>
<text text-anchor="middle" x="337.9441" y="-14.3" font-family="Times,serif" font-size="14.00" fill="#000000">Circle</text>
</a>
</g>
</g>
<!-- Circle&#45;&gt;1&#45;manifold -->
<g id="edge8" class="edge">
<title>Circle&#45;&gt;1&#45;manifold</title>
<path fill="none" stroke="#000000" d="M325.0258,-34.7745C315.2988,-47.405 301.7921,-64.9436 290.7103,-79.3334"/>
<polygon fill="none" stroke="#000000" points="287.8411,-77.3227 284.5126,-87.3812 293.3871,-81.5938 287.8411,-77.3227"/>
<text text-anchor="middle" x="318.4441" y="-57.8" font-family="Times,serif" font-size="14.00" fill="#000000">isA</text>
</g>
<!-- Point -->
<g id="node7" class="node">
<title>Point</title>
<g id="a_node7"><a xlink:href="http://emmo.info/emmo/middle/perceptual#EMMO_39362460_2a97_4367_8f93_0418c2ac9a08" xlink:title="Point">
<ellipse fill="#ffffcc" stroke="#000000" cx="417.9441" cy="-18" rx="29.4969" ry="18"/>
<text text-anchor="middle" x="417.9441" y="-14.3" font-family="Times,serif" font-size="14.00" fill="#000000">Point</text>
</a>
</g>
</g>
<!-- 0&#45;manifold -->
<g id="node11" class="node">
<title>0&#45;manifold</title>
<g id="a_node11"><a xlink:href="http://emmo.info/emmo/middle/perceptual#EMMO_0ab0485c_9e5b_4257_a679_90a2dfba5c7c" xlink:title="0&#45;manifold">
<ellipse fill="#ffffcc" stroke="#000000" cx="398.9441" cy="-105" rx="50.0912" ry="18"/>
<text text-anchor="middle" x="398.9441" y="-101.3" font-family="Times,serif" font-size="14.00" fill="#000000">0&#45;manifold</text>
</a>
</g>
</g>
<!-- Point&#45;&gt;0&#45;manifold -->
<g id="edge2" class="edge">
<title>Point&#45;&gt;0&#45;manifold</title>
<path fill="none" stroke="#000000" d="M414.0072,-36.0265C411.4342,-47.8082 408.0205,-63.4393 405.0935,-76.8419"/>
<polygon fill="none" stroke="#000000" points="401.5901,-76.4801 402.8758,-86.9966 408.4289,-77.9737 401.5901,-76.4801"/>
<text text-anchor="middle" x="419.4441" y="-57.8" font-family="Times,serif" font-size="14.00" fill="#000000">isA</text>
</g>
<!-- 1&#45;manifold&#45;&gt;Geometrical -->
<g id="edge5" class="edge">
<title>1&#45;manifold&#45;&gt;Geometrical</title>
<path fill="none" stroke="#000000" d="M283.6931,-122.6057C292.7446,-135.1056 305.044,-152.0904 315.2089,-166.1276"/>
<polygon fill="none" stroke="#000000" points="312.5141,-168.3738 321.214,-174.4204 318.1837,-164.2682 312.5141,-168.3738"/>
<text text-anchor="middle" x="316.4441" y="-144.8" font-family="Times,serif" font-size="14.00" fill="#000000">isA</text>
</g>
<!-- Plane -->
<g id="node9" class="node">
<title>Plane</title>
<g id="a_node9"><a xlink:href="http://emmo.info/emmo/middle/perceptual#EMMO_25f5ca8e_8f7f_44d8_a392_bd3fe8894458" xlink:title="Plane">
<ellipse fill="#ffffcc" stroke="#000000" cx="583.9441" cy="-18" rx="30.5947" ry="18"/>
<text text-anchor="middle" x="583.9441" y="-14.3" font-family="Times,serif" font-size="14.00" fill="#000000">Plane</text>
</a>
</g>
</g>
<!-- Plane&#45;&gt;2&#45;manifold -->
<g id="edge9" class="edge">
<title>Plane&#45;&gt;2&#45;manifold</title>
<path fill="none" stroke="#000000" d="M577.266,-35.6057C572.6892,-47.6719 566.5272,-63.9172 561.3158,-77.6562"/>
<polygon fill="none" stroke="#000000" points="557.9995,-76.5305 557.7254,-87.1218 564.5445,-79.0132 557.9995,-76.5305"/>
<text text-anchor="middle" x="579.4441" y="-57.8" font-family="Times,serif" font-size="14.00" fill="#000000">isA</text>
</g>
<!-- Torus -->
<g id="node10" class="node">
<title>Torus</title>
<g id="a_node10"><a xlink:href="http://emmo.info/emmo/middle/perceptual#EMMO_86060335_31c2_4820_b433_27c64aea0366" xlink:title="Torus">
<ellipse fill="#ffffcc" stroke="#000000" cx="663.9441" cy="-18" rx="31.3957" ry="18"/>
<text text-anchor="middle" x="663.9441" y="-14.3" font-family="Times,serif" font-size="14.00" fill="#000000">Torus</text>
</a>
</g>
</g>
<!-- Torus&#45;&gt;2&#45;manifold -->
<g id="edge12" class="edge">
<title>Torus&#45;&gt;2&#45;manifold</title>
<path fill="none" stroke="#000000" d="M645.0304,-32.5618C627.3598,-46.1666 600.7123,-66.6829 580.2823,-82.4122"/>
<polygon fill="none" stroke="#000000" points="578.0201,-79.7366 572.2317,-88.6104 582.2905,-85.2832 578.0201,-79.7366"/>
<text text-anchor="middle" x="624.4441" y="-57.8" font-family="Times,serif" font-size="14.00" fill="#000000">isA</text>
</g>
<!-- 0&#45;manifold&#45;&gt;Geometrical -->
<g id="edge10" class="edge">
<title>0&#45;manifold&#45;&gt;Geometrical</title>
<path fill="none" stroke="#000000" d="M385.7903,-122.6057C376.4514,-135.1056 363.7616,-152.0904 353.274,-166.1276"/>
<polygon fill="none" stroke="#000000" points="350.2596,-164.3145 347.0782,-174.4204 355.8674,-168.5042 350.2596,-164.3145"/>
<text text-anchor="middle" x="380.4441" y="-144.8" font-family="Times,serif" font-size="14.00" fill="#000000">isA</text>
</g>
<!-- 2&#45;manifold&#45;&gt;Geometrical -->
<g id="edge7" class="edge">
<title>2&#45;manifold&#45;&gt;Geometrical</title>
<path fill="none" stroke="#000000" d="M517.5134,-118.4031C480.2018,-133.3621 419.6593,-157.6349 378.3846,-174.1828"/>
<polygon fill="none" stroke="#000000" points="376.8306,-171.035 368.8512,-178.005 379.4355,-177.5323 376.8306,-171.035"/>
<text text-anchor="middle" x="465.4441" y="-144.8" font-family="Times,serif" font-size="14.00" fill="#000000">isA</text>
</g>
</g>
</svg>
