<?xml version="1.0" encoding="UTF-8" standalone="no"?>
<!DOCTYPE svg PUBLIC "-//W3C//DTD SVG 1.1//EN"
 "http://www.w3.org/Graphics/SVG/1.1/DTD/svg11.dtd">
<!-- Generated by graphviz version 2.40.1 (20161225.0304)
 -->
<!-- Title: %3 Pages: 1 -->
<svg width="846pt" height="188pt"
 viewBox="0.00 0.00 846.50 188.00" xmlns="http://www.w3.org/2000/svg" xmlns:xlink="http://www.w3.org/1999/xlink">
<g id="graph0" class="graph" transform="scale(1 1) rotate(0) translate(4 184)">
<title>%3</title>
<polygon fill="#ffffff" stroke="transparent" points="-4,4 -4,-184 842.4971,-184 842.4971,4 -4,4"/>
<!-- 3&#45;manifold -->
<g id="node1" class="node">
<title>3&#45;manifold</title>
<g id="a_node1"><a xlink:href="http://emmo.info/emmo/middle/perceptual#EMMO_46f0f8df_4dc6_418f_8036_10427a3a288e" xlink:title="3&#45;manifold">
<ellipse fill="#ffffcc" stroke="#000000" cx="588.4971" cy="-90" rx="50.0912" ry="18"/>
<text text-anchor="middle" x="588.4971" y="-86.3" font-family="Times,serif" font-size="14.00" fill="#000000">3&#45;manifold</text>
</a>
</g>
</g>
<!-- Geometrical -->
<g id="node8" class="node">
<title>Geometrical</title>
<g id="a_node8"><a xlink:href="http://emmo.info/emmo/middle/perceptual#EMMO_b5957cef_a287_442d_a3ce_fd39f20ba1cd" xlink:title="Geometrical">
<ellipse fill="#ffffcc" stroke="#000000" stroke-width="2" cx="349.4971" cy="-162" rx="54.6905" ry="18"/>
<text text-anchor="middle" x="349.4971" y="-158.3" font-family="Times,serif" font-size="14.00" fill="#000000">Geometrical</text>
</a>
</g>
</g>
<!-- 3&#45;manifold&#45;&gt;Geometrical -->
<g id="edge3" class="edge">
<title>3&#45;manifold&#45;&gt;Geometrical</title>
<path fill="none" stroke="#000000" d="M550.0976,-101.568C509.3696,-113.8376 444.8444,-133.2761 400.0155,-146.7811"/>
<polygon fill="none" stroke="#000000" points="398.7663,-143.5019 390.201,-149.7377 400.7855,-150.2044 398.7663,-143.5019"/>
</g>
<!-- 1&#45;manifold -->
<g id="node2" class="node">
<title>1&#45;manifold</title>
<g id="a_node2"><a xlink:href="http://emmo.info/emmo/middle/perceptual#EMMO_0c576e13_4ee7_4f3d_bfe9_1614243df018" xlink:title="1&#45;manifold">
<ellipse fill="#ffffcc" stroke="#000000" cx="141.4971" cy="-90" rx="50.0912" ry="18"/>
<text text-anchor="middle" x="141.4971" y="-86.3" font-family="Times,serif" font-size="14.00" fill="#000000">1&#45;manifold</text>
</a>
</g>
</g>
<!-- 1&#45;manifold&#45;&gt;Geometrical -->
<g id="edge8" class="edge">
<title>1&#45;manifold&#45;&gt;Geometrical</title>
<path fill="none" stroke="#000000" d="M177.728,-102.5414C212.1322,-114.4506 264.0618,-132.4262 301.8147,-145.4946"/>
<polygon fill="none" stroke="#000000" points="300.9787,-148.9089 311.5735,-148.8726 303.2685,-142.294 300.9787,-148.9089"/>
</g>
<!-- Circle -->
<g id="node3" class="node">
<title>Circle</title>
<g id="a_node3"><a xlink:href="http://emmo.info/emmo/middle/perceptual#EMMO_b2a234a8_579a_422c_9305_b8f7e72c76cd" xlink:title="Circle">
<ellipse fill="#ffffcc" stroke="#000000" cx="32.4971" cy="-18" rx="32.4942" ry="18"/>
<text text-anchor="middle" x="32.4971" y="-14.3" font-family="Times,serif" font-size="14.00" fill="#000000">Circle</text>
</a>
</g>
</g>
<!-- Circle&#45;&gt;1&#45;manifold -->
<g id="edge12" class="edge">
<title>Circle&#45;&gt;1&#45;manifold</title>
<path fill="none" stroke="#000000" d="M53.5134,-31.8823C69.25,-42.2771 91.0674,-56.6886 109.0391,-68.5599"/>
<polygon fill="none" stroke="#000000" points="107.2361,-71.5635 117.5092,-74.1547 111.0943,-65.7227 107.2361,-71.5635"/>
</g>
<!-- Line -->
<g id="node4" class="node">
<title>Line</title>
<g id="a_node4"><a xlink:href="http://emmo.info/emmo/middle/perceptual#EMMO_3e309118_e8b7_4021_80f4_642d2df65d94" xlink:title="Line">
<ellipse fill="#ffffcc" stroke="#000000" cx="109.4971" cy="-18" rx="27" ry="18"/>
<text text-anchor="middle" x="109.4971" y="-14.3" font-family="Times,serif" font-size="14.00" fill="#000000">Line</text>
</a>
</g>
</g>
<!-- Line&#45;&gt;1&#45;manifold -->
<g id="edge5" class="edge">
<title>Line&#45;&gt;1&#45;manifold</title>
<path fill="none" stroke="#000000" d="M117.2434,-35.4292C120.8951,-43.6456 125.3368,-53.6392 129.4162,-62.8179"/>
<polygon fill="none" stroke="#000000" points="126.2282,-64.2628 133.488,-71.9794 132.6249,-61.4198 126.2282,-64.2628"/>
</g>
<!-- 0&#45;manifold -->
<g id="node5" class="node">
<title>0&#45;manifold</title>
<g id="a_node5"><a xlink:href="http://emmo.info/emmo/middle/perceptual#EMMO_0ab0485c_9e5b_4257_a679_90a2dfba5c7c" xlink:title="0&#45;manifold">
<ellipse fill="#ffffcc" stroke="#000000" cx="278.4971" cy="-90" rx="50.0912" ry="18"/>
<text text-anchor="middle" x="278.4971" y="-86.3" font-family="Times,serif" font-size="14.00" fill="#000000">0&#45;manifold</text>
</a>
</g>
</g>
<!-- 0&#45;manifold&#45;&gt;Geometrical -->
<g id="edge1" class="edge">
<title>0&#45;manifold&#45;&gt;Geometrical</title>
<path fill="none" stroke="#000000" d="M295.3231,-107.063C304.2114,-116.0765 315.2831,-127.3041 325.0965,-137.2557"/>
<polygon fill="none" stroke="#000000" points="322.7851,-139.8965 332.2987,-144.5593 327.7693,-134.9814 322.7851,-139.8965"/>
</g>
<!-- Point -->
<g id="node6" class="node">
<title>Point</title>
<g id="a_node6"><a xlink:href="http://emmo.info/emmo/middle/perceptual#EMMO_39362460_2a97_4367_8f93_0418c2ac9a08" xlink:title="Point">
<ellipse fill="#ffffcc" stroke="#000000" cx="266.4971" cy="-18" rx="29.4969" ry="18"/>
<text text-anchor="middle" x="266.4971" y="-14.3" font-family="Times,serif" font-size="14.00" fill="#000000">Point</text>
</a>
</g>
</g>
<!-- Point&#45;&gt;0&#45;manifold -->
<g id="edge6" class="edge">
<title>Point&#45;&gt;0&#45;manifold</title>
<path fill="none" stroke="#000000" d="M269.5252,-36.1686C270.8086,-43.869 272.3347,-53.0257 273.761,-61.5834"/>
<polygon fill="none" stroke="#000000" points="270.3318,-62.2982 275.4282,-71.5867 277.2365,-61.1474 270.3318,-62.2982"/>
</g>
<!-- Sphere -->
<g id="node7" class="node">
<title>Sphere</title>
<g id="a_node7"><a xlink:href="http://emmo.info/emmo/middle/perceptual#EMMO_d7bf784a_db94_4dd9_861c_54f262846fbf" xlink:title="Sphere">
<ellipse fill="#ffffcc" stroke="#000000" cx="348.4971" cy="-18" rx="35.194" ry="18"/>
<text text-anchor="middle" x="348.4971" y="-14.3" font-family="Times,serif" font-size="14.00" fill="#000000">Sphere</text>
</a>
</g>
</g>
<!-- 2&#45;manifold -->
<g id="node12" class="node">
<title>2&#45;manifold</title>
<g id="a_node12"><a xlink:href="http://emmo.info/emmo/middle/perceptual#EMMO_9268958f_7f54_48ab_a693_febe2645892b" xlink:title="2&#45;manifold">
<ellipse fill="#ffffcc" stroke="#000000" cx="420.4971" cy="-90" rx="50.0912" ry="18"/>
<text text-anchor="middle" x="420.4971" y="-86.3" font-family="Times,serif" font-size="14.00" fill="#000000">2&#45;manifold</text>
</a>
</g>
</g>
<!-- Sphere&#45;&gt;2&#45;manifold -->
<g id="edge10" class="edge">
<title>Sphere&#45;&gt;2&#45;manifold</title>
<path fill="none" stroke="#000000" d="M364.835,-34.3379C374.1165,-43.6194 385.9133,-55.4162 396.2556,-65.7585"/>
<polygon fill="none" stroke="#000000" points="393.9266,-68.3793 403.4726,-72.9755 398.8764,-63.4295 393.9266,-68.3793"/>
</g>
<!-- Torus -->
<g id="node9" class="node">
<title>Torus</title>
<g id="a_node9"><a xlink:href="http://emmo.info/emmo/middle/perceptual#EMMO_86060335_31c2_4820_b433_27c64aea0366" xlink:title="Torus">
<ellipse fill="#ffffcc" stroke="#000000" cx="432.4971" cy="-18" rx="31.3957" ry="18"/>
<text text-anchor="middle" x="432.4971" y="-14.3" font-family="Times,serif" font-size="14.00" fill="#000000">Torus</text>
</a>
</g>
</g>
<!-- Torus&#45;&gt;2&#45;manifold -->
<g id="edge7" class="edge">
<title>Torus&#45;&gt;2&#45;manifold</title>
<path fill="none" stroke="#000000" d="M429.469,-36.1686C428.1856,-43.869 426.6595,-53.0257 425.2332,-61.5834"/>
<polygon fill="none" stroke="#000000" points="421.7577,-61.1474 423.566,-71.5867 428.6624,-62.2982 421.7577,-61.1474"/>
</g>
<!-- Plane -->
<g id="node10" class="node">
<title>Plane</title>
<g id="a_node10"><a xlink:href="http://emmo.info/emmo/middle/perceptual#EMMO_25f5ca8e_8f7f_44d8_a392_bd3fe8894458" xlink:title="Plane">
<ellipse fill="#ffffcc" stroke="#000000" cx="512.4971" cy="-18" rx="30.5947" ry="18"/>
<text text-anchor="middle" x="512.4971" y="-14.3" font-family="Times,serif" font-size="14.00" fill="#000000">Plane</text>
</a>
</g>
</g>
<!-- Plane&#45;&gt;2&#45;manifold -->
<g id="edge2" class="edge">
<title>Plane&#45;&gt;2&#45;manifold</title>
<path fill="none" stroke="#000000" d="M493.8795,-32.5703C481.2389,-42.4629 464.2609,-55.7501 449.8194,-67.0521"/>
<polygon fill="none" stroke="#000000" points="447.3795,-64.5172 441.6615,-73.4366 451.6937,-70.0297 447.3795,-64.5172"/>
</g>
<!-- EuclideanSpace -->
<g id="node11" class="node">
<title>EuclideanSpace</title>
<g id="a_node11"><a xlink:href="http://emmo.info/emmo/middle/perceptual#EMMO_5f278af9_8593_4e27_a717_ccc9e07a0ddf" xlink:title="EuclideanSpace">
<ellipse fill="#ffffcc" stroke="#000000" cx="627.4971" cy="-18" rx="66.8882" ry="18"/>
<text text-anchor="middle" x="627.4971" y="-14.3" font-family="Times,serif" font-size="14.00" fill="#000000">EuclideanSpace</text>
</a>
</g>
</g>
<!-- EuclideanSpace&#45;&gt;3&#45;manifold -->
<g id="edge9" class="edge">
<title>EuclideanSpace&#45;&gt;3&#45;manifold</title>
<path fill="none" stroke="#000000" d="M617.6558,-36.1686C613.2344,-44.3312 607.9267,-54.13 603.0586,-63.1173"/>
<polygon fill="none" stroke="#000000" points="599.8856,-61.6266 598.2002,-72.0866 606.0406,-64.9607 599.8856,-61.6266"/>
</g>
<!-- 2&#45;manifold&#45;&gt;Geometrical -->
<g id="edge4" class="edge">
<title>2&#45;manifold&#45;&gt;Geometrical</title>
<path fill="none" stroke="#000000" d="M403.6711,-107.063C394.7828,-116.0765 383.7112,-127.3041 373.8977,-137.2557"/>
<polygon fill="none" stroke="#000000" points="371.2249,-134.9814 366.6956,-144.5593 376.2092,-139.8965 371.2249,-134.9814"/>
</g>
<!-- Curve -->
<g id="node13" class="node">
<title>Curve</title>
<g id="a_node13"><a xlink:href="http://emmo.info/emmo/middle/perceptual#EMMO_0ef4ff4a_5458_4f2a_b51f_4689d472a3f2" xlink:title="Curve">
<ellipse fill="#ffffcc" stroke="#000000" cx="186.4971" cy="-18" rx="32.4942" ry="18"/>
<text text-anchor="middle" x="186.4971" y="-14.3" font-family="Times,serif" font-size="14.00" fill="#000000">Curve</text>
</a>
</g>
</g>
<!-- Curve&#45;&gt;1&#45;manifold -->
<g id="edge11" class="edge">
<title>Curve&#45;&gt;1&#45;manifold</title>
<path fill="none" stroke="#000000" d="M175.8327,-35.063C170.5149,-43.5716 163.9638,-54.0532 158.0146,-63.5721"/>
<polygon fill="none" stroke="#000000" points="154.8869,-61.9726 152.5549,-72.3076 160.8229,-65.6826 154.8869,-61.9726"/>
</g>
<!-- key1 -->
<g id="node14" class="node">
<title>key1</title>
<text text-anchor="start" x="730.4971" y="-13.8" font-family="Times,serif" font-size="14.00" fill="#000000">isA</text>
</g>
<!-- key2 -->
<g id="node15" class="node">
<title>key2</title>
<text text-anchor="start" x="809.4971" y="-13.8" font-family="Times,serif" font-size="14.00" fill="#000000"> </text>
</g>
<!-- key1&#45;&gt;key2 -->
<g id="edge13" class="edge">
<title>key1:e&#45;&gt;key2:w</title>
<path fill="none" stroke="#000000" d="M751.4971,-19C772.4971,-19 780.2081,-19 797.0552,-19"/>
<polygon fill="none" stroke="#000000" points="797.4972,-22.5001 807.4971,-19 797.4971,-15.5001 797.4972,-22.5001"/>
</g>
</g>
</svg>
