<?xml version="1.0" encoding="UTF-8" standalone="no"?>
<!DOCTYPE svg PUBLIC "-//W3C//DTD SVG 1.1//EN"
 "http://www.w3.org/Graphics/SVG/1.1/DTD/svg11.dtd">
<!-- Generated by graphviz version 2.40.1 (20161225.0304)
 -->
<!-- Title: %3 Pages: 1 -->
<svg width="848pt" height="188pt"
 viewBox="0.00 0.00 847.94 188.00" xmlns="http://www.w3.org/2000/svg" xmlns:xlink="http://www.w3.org/1999/xlink">
<g id="graph0" class="graph" transform="scale(1 1) rotate(0) translate(4 184)">
<title>%3</title>
<polygon fill="#ffffff" stroke="transparent" points="-4,4 -4,-184 843.9441,-184 843.9441,4 -4,4"/>
<!-- Curve -->
<g id="node1" class="node">
<title>Curve</title>
<g id="a_node1"><a xlink:href="http://emmo.info/emmo/middle/perceptual#EMMO_0ef4ff4a_5458_4f2a_b51f_4689d472a3f2" xlink:title="Curve">
<ellipse fill="#ffffcc" stroke="#000000" cx="260.9441" cy="-18" rx="32.4942" ry="18"/>
<text text-anchor="middle" x="260.9441" y="-14.3" font-family="Times,serif" font-size="14.00" fill="#000000">Curve</text>
</a>
</g>
</g>
<!-- 1&#45;manifold -->
<g id="node4" class="node">
<title>1&#45;manifold</title>
<g id="a_node4"><a xlink:href="http://emmo.info/emmo/middle/perceptual#EMMO_0c576e13_4ee7_4f3d_bfe9_1614243df018" xlink:title="1&#45;manifold">
<ellipse fill="#ffffcc" stroke="#000000" cx="323.9441" cy="-90" rx="50.0912" ry="18"/>
<text text-anchor="middle" x="323.9441" y="-86.3" font-family="Times,serif" font-size="14.00" fill="#000000">1&#45;manifold</text>
</a>
</g>
</g>
<!-- Curve&#45;&gt;1&#45;manifold -->
<g id="edge8" class="edge">
<title>Curve&#45;&gt;1&#45;manifold</title>
<path fill="none" stroke="#000000" d="M275.2397,-34.3379C283.1461,-43.3737 293.1383,-54.7934 302.0115,-64.9342"/>
<polygon fill="none" stroke="#000000" points="299.6073,-67.5017 308.8264,-72.7227 304.8754,-62.8922 299.6073,-67.5017"/>
</g>
<!-- Sphere -->
<g id="node2" class="node">
<title>Sphere</title>
<g id="a_node2"><a xlink:href="http://emmo.info/emmo/middle/perceptual#EMMO_d7bf784a_db94_4dd9_861c_54f262846fbf" xlink:title="Sphere">
<ellipse fill="#ffffcc" stroke="#000000" cx="500.9441" cy="-18" rx="35.194" ry="18"/>
<text text-anchor="middle" x="500.9441" y="-14.3" font-family="Times,serif" font-size="14.00" fill="#000000">Sphere</text>
</a>
</g>
</g>
<!-- 2&#45;manifold -->
<g id="node13" class="node">
<title>2&#45;manifold</title>
<g id="a_node13"><a xlink:href="http://emmo.info/emmo/middle/perceptual#EMMO_9268958f_7f54_48ab_a693_febe2645892b" xlink:title="2&#45;manifold">
<ellipse fill="#ffffcc" stroke="#000000" cx="542.9441" cy="-90" rx="50.0912" ry="18"/>
<text text-anchor="middle" x="542.9441" y="-86.3" font-family="Times,serif" font-size="14.00" fill="#000000">2&#45;manifold</text>
</a>
</g>
</g>
<!-- Sphere&#45;&gt;2&#45;manifold -->
<g id="edge1" class="edge">
<title>Sphere&#45;&gt;2&#45;manifold</title>
<path fill="none" stroke="#000000" d="M511.1111,-35.4292C515.9908,-43.7945 521.9452,-54.002 527.3785,-63.3161"/>
<polygon fill="none" stroke="#000000" points="524.5169,-65.3569 532.5789,-72.2311 530.5634,-61.8298 524.5169,-65.3569"/>
</g>
<!-- 3&#45;manifold -->
<g id="node3" class="node">
<title>3&#45;manifold</title>
<g id="a_node3"><a xlink:href="http://emmo.info/emmo/middle/perceptual#EMMO_46f0f8df_4dc6_418f_8036_10427a3a288e" xlink:title="3&#45;manifold">
<ellipse fill="#ffffcc" stroke="#000000" cx="72.9441" cy="-90" rx="50.0912" ry="18"/>
<text text-anchor="middle" x="72.9441" y="-86.3" font-family="Times,serif" font-size="14.00" fill="#000000">3&#45;manifold</text>
</a>
</g>
</g>
<!-- Geometrical -->
<g id="node9" class="node">
<title>Geometrical</title>
<g id="a_node9"><a xlink:href="http://emmo.info/emmo/middle/perceptual#EMMO_b5957cef_a287_442d_a3ce_fd39f20ba1cd" xlink:title="Geometrical">
<ellipse fill="#ffffcc" stroke="#000000" stroke-width="2" cx="261.9441" cy="-162" rx="54.6905" ry="18"/>
<text text-anchor="middle" x="261.9441" y="-158.3" font-family="Times,serif" font-size="14.00" fill="#000000">Geometrical</text>
</a>
</g>
</g>
<!-- 3&#45;manifold&#45;&gt;Geometrical -->
<g id="edge6" class="edge">
<title>3&#45;manifold&#45;&gt;Geometrical</title>
<path fill="none" stroke="#000000" d="M107.6096,-103.2059C138.2595,-114.8821 183.175,-131.9927 216.6576,-144.748"/>
<polygon fill="none" stroke="#000000" points="215.6232,-148.0993 226.2141,-148.3886 218.1152,-141.5579 215.6232,-148.0993"/>
</g>
<!-- 1&#45;manifold&#45;&gt;Geometrical -->
<g id="edge3" class="edge">
<title>1&#45;manifold&#45;&gt;Geometrical</title>
<path fill="none" stroke="#000000" d="M308.9356,-107.4292C301.376,-116.2081 292.0693,-127.0159 283.7381,-136.6907"/>
<polygon fill="none" stroke="#000000" points="280.9023,-134.6202 277.0292,-144.4818 286.2067,-139.1879 280.9023,-134.6202"/>
</g>
<!-- Circle -->
<g id="node5" class="node">
<title>Circle</title>
<g id="a_node5"><a xlink:href="http://emmo.info/emmo/middle/perceptual#EMMO_b2a234a8_579a_422c_9305_b8f7e72c76cd" xlink:title="Circle">
<ellipse fill="#ffffcc" stroke="#000000" cx="343.9441" cy="-18" rx="32.4942" ry="18"/>
<text text-anchor="middle" x="343.9441" y="-14.3" font-family="Times,serif" font-size="14.00" fill="#000000">Circle</text>
</a>
</g>
</g>
<!-- Circle&#45;&gt;1&#45;manifold -->
<g id="edge4" class="edge">
<title>Circle&#45;&gt;1&#45;manifold</title>
<path fill="none" stroke="#000000" d="M339.0002,-35.7978C336.8053,-43.6995 334.1693,-53.189 331.7207,-62.0041"/>
<polygon fill="none" stroke="#000000" points="328.2741,-61.3349 328.9699,-71.9069 335.0188,-63.2085 328.2741,-61.3349"/>
</g>
<!-- Line -->
<g id="node6" class="node">
<title>Line</title>
<g id="a_node6"><a xlink:href="http://emmo.info/emmo/middle/perceptual#EMMO_3e309118_e8b7_4021_80f4_642d2df65d94" xlink:title="Line">
<ellipse fill="#ffffcc" stroke="#000000" cx="420.9441" cy="-18" rx="27" ry="18"/>
<text text-anchor="middle" x="420.9441" y="-14.3" font-family="Times,serif" font-size="14.00" fill="#000000">Line</text>
</a>
</g>
</g>
<!-- Line&#45;&gt;1&#45;manifold -->
<g id="edge5" class="edge">
<title>Line&#45;&gt;1&#45;manifold</title>
<path fill="none" stroke="#000000" d="M402.6991,-31.5426C389.0854,-41.6476 370.1766,-55.6831 354.2992,-67.4684"/>
<polygon fill="none" stroke="#000000" points="351.7868,-64.9744 345.8432,-73.745 355.959,-70.5952 351.7868,-64.9744"/>
</g>
<!-- 0&#45;manifold -->
<g id="node7" class="node">
<title>0&#45;manifold</title>
<g id="a_node7"><a xlink:href="http://emmo.info/emmo/middle/perceptual#EMMO_0ab0485c_9e5b_4257_a679_90a2dfba5c7c" xlink:title="0&#45;manifold">
<ellipse fill="#ffffcc" stroke="#000000" cx="200.9441" cy="-90" rx="50.0912" ry="18"/>
<text text-anchor="middle" x="200.9441" y="-86.3" font-family="Times,serif" font-size="14.00" fill="#000000">0&#45;manifold</text>
</a>
</g>
</g>
<!-- 0&#45;manifold&#45;&gt;Geometrical -->
<g id="edge2" class="edge">
<title>0&#45;manifold&#45;&gt;Geometrical</title>
<path fill="none" stroke="#000000" d="M215.7105,-107.4292C223.1481,-116.2081 232.3047,-127.0159 240.5015,-136.6907"/>
<polygon fill="none" stroke="#000000" points="237.9676,-139.1144 247.1022,-144.4818 243.3085,-134.5894 237.9676,-139.1144"/>
</g>
<!-- Point -->
<g id="node8" class="node">
<title>Point</title>
<g id="a_node8"><a xlink:href="http://emmo.info/emmo/middle/perceptual#EMMO_39362460_2a97_4367_8f93_0418c2ac9a08" xlink:title="Point">
<ellipse fill="#ffffcc" stroke="#000000" cx="180.9441" cy="-18" rx="29.4969" ry="18"/>
<text text-anchor="middle" x="180.9441" y="-14.3" font-family="Times,serif" font-size="14.00" fill="#000000">Point</text>
</a>
</g>
</g>
<!-- Point&#45;&gt;0&#45;manifold -->
<g id="edge11" class="edge">
<title>Point&#45;&gt;0&#45;manifold</title>
<path fill="none" stroke="#000000" d="M185.8879,-35.7978C188.0828,-43.6995 190.7188,-53.189 193.1674,-62.0041"/>
<polygon fill="none" stroke="#000000" points="189.8694,-63.2085 195.9182,-71.9069 196.614,-61.3349 189.8694,-63.2085"/>
</g>
<!-- Torus -->
<g id="node10" class="node">
<title>Torus</title>
<g id="a_node10"><a xlink:href="http://emmo.info/emmo/middle/perceptual#EMMO_86060335_31c2_4820_b433_27c64aea0366" xlink:title="Torus">
<ellipse fill="#ffffcc" stroke="#000000" cx="584.9441" cy="-18" rx="31.3957" ry="18"/>
<text text-anchor="middle" x="584.9441" y="-14.3" font-family="Times,serif" font-size="14.00" fill="#000000">Torus</text>
</a>
</g>
</g>
<!-- Torus&#45;&gt;2&#45;manifold -->
<g id="edge9" class="edge">
<title>Torus&#45;&gt;2&#45;manifold</title>
<path fill="none" stroke="#000000" d="M574.9906,-35.063C570.0273,-43.5716 563.913,-54.0532 558.3603,-63.5721"/>
<polygon fill="none" stroke="#000000" points="555.2802,-61.9062 553.2646,-72.3076 561.3266,-65.4333 555.2802,-61.9062"/>
</g>
<!-- Plane -->
<g id="node11" class="node">
<title>Plane</title>
<g id="a_node11"><a xlink:href="http://emmo.info/emmo/middle/perceptual#EMMO_25f5ca8e_8f7f_44d8_a392_bd3fe8894458" xlink:title="Plane">
<ellipse fill="#ffffcc" stroke="#000000" cx="664.9441" cy="-18" rx="30.5947" ry="18"/>
<text text-anchor="middle" x="664.9441" y="-14.3" font-family="Times,serif" font-size="14.00" fill="#000000">Plane</text>
</a>
</g>
</g>
<!-- Plane&#45;&gt;2&#45;manifold -->
<g id="edge7" class="edge">
<title>Plane&#45;&gt;2&#45;manifold</title>
<path fill="none" stroke="#000000" d="M643.1329,-30.8722C625.0217,-41.5607 598.9178,-56.9663 577.8957,-69.3728"/>
<polygon fill="none" stroke="#000000" points="576.0688,-66.3869 569.2356,-74.4837 579.6266,-72.4153 576.0688,-66.3869"/>
</g>
<!-- EuclideanSpace -->
<g id="node12" class="node">
<title>EuclideanSpace</title>
<g id="a_node12"><a xlink:href="http://emmo.info/emmo/middle/perceptual#EMMO_5f278af9_8593_4e27_a717_ccc9e07a0ddf" xlink:title="EuclideanSpace">
<ellipse fill="#ffffcc" stroke="#000000" cx="66.9441" cy="-18" rx="66.8882" ry="18"/>
<text text-anchor="middle" x="66.9441" y="-14.3" font-family="Times,serif" font-size="14.00" fill="#000000">EuclideanSpace</text>
</a>
</g>
</g>
<!-- EuclideanSpace&#45;&gt;3&#45;manifold -->
<g id="edge12" class="edge">
<title>EuclideanSpace&#45;&gt;3&#45;manifold</title>
<path fill="none" stroke="#000000" d="M68.4581,-36.1686C69.0998,-43.869 69.8629,-53.0257 70.576,-61.5834"/>
<polygon fill="none" stroke="#000000" points="67.0912,-61.912 71.4096,-71.5867 74.067,-61.3306 67.0912,-61.912"/>
</g>
<!-- 2&#45;manifold&#45;&gt;Geometrical -->
<g id="edge10" class="edge">
<title>2&#45;manifold&#45;&gt;Geometrical</title>
<path fill="none" stroke="#000000" d="M502.0842,-100.4694C452.6467,-113.1367 369.299,-134.4927 314.9561,-148.4168"/>
<polygon fill="none" stroke="#000000" points="313.9796,-145.0539 305.1613,-150.9265 315.7172,-151.8348 313.9796,-145.0539"/>
</g>
<!-- key1 -->
<g id="node14" class="node">
<title>key1</title>
<text text-anchor="start" x="731.9441" y="-13.8" font-family="Times,serif" font-size="14.00" fill="#000000">isA</text>
</g>
<!-- key2 -->
<g id="node15" class="node">
<title>key2</title>
<text text-anchor="start" x="810.9441" y="-13.8" font-family="Times,serif" font-size="14.00" fill="#000000"> </text>
</g>
<!-- key1&#45;&gt;key2 -->
<g id="edge13" class="edge">
<title>key1:e&#45;&gt;key2:w</title>
<path fill="none" stroke="#000000" d="M752.9441,-19C773.9441,-19 781.655,-19 798.5022,-19"/>
<polygon fill="none" stroke="#000000" points="798.9441,-22.5001 808.9441,-19 798.944,-15.5001 798.9441,-22.5001"/>
</g>
</g>
</svg>
