<?xml version="1.0" encoding="UTF-8" standalone="no"?>
<!DOCTYPE svg PUBLIC "-//W3C//DTD SVG 1.1//EN"
 "http://www.w3.org/Graphics/SVG/1.1/DTD/svg11.dtd">
<!-- Generated by graphviz version 2.40.1 (20161225.0304)
 -->
<!-- Title: %3 Pages: 1 -->
<svg width="847pt" height="188pt"
 viewBox="0.00 0.00 847.25 188.00" xmlns="http://www.w3.org/2000/svg" xmlns:xlink="http://www.w3.org/1999/xlink">
<g id="graph0" class="graph" transform="scale(1 1) rotate(0) translate(4 184)">
<title>%3</title>
<polygon fill="#ffffff" stroke="transparent" points="-4,4 -4,-184 843.2474,-184 843.2474,4 -4,4"/>
<!-- Line -->
<g id="node1" class="node">
<title>Line</title>
<g id="a_node1"><a xlink:href="http://emmo.info/emmo/middle/perceptual#EMMO_3e309118_e8b7_4021_80f4_642d2df65d94" xlink:title="Line">
<ellipse fill="#ffffcc" stroke="#000000" cx="351.2474" cy="-18" rx="27" ry="18"/>
<text text-anchor="middle" x="351.2474" y="-14.3" font-family="Times,serif" font-size="14.00" fill="#000000">Line</text>
</a>
</g>
</g>
<!-- 1&#45;manifold -->
<g id="node12" class="node">
<title>1&#45;manifold</title>
<g id="a_node12"><a xlink:href="http://emmo.info/emmo/middle/perceptual#EMMO_0c576e13_4ee7_4f3d_bfe9_1614243df018" xlink:title="1&#45;manifold">
<ellipse fill="#ffffcc" stroke="#000000" cx="389.2474" cy="-90" rx="50.0912" ry="18"/>
<text text-anchor="middle" x="389.2474" y="-86.3" font-family="Times,serif" font-size="14.00" fill="#000000">1&#45;manifold</text>
</a>
</g>
</g>
<!-- Line&#45;&gt;1&#45;manifold -->
<g id="edge10" class="edge">
<title>Line&#45;&gt;1&#45;manifold</title>
<path fill="none" stroke="#000000" d="M360.2529,-35.063C364.6972,-43.4839 370.1616,-53.8373 375.1438,-63.2774"/>
<polygon fill="none" stroke="#000000" points="372.1467,-65.0974 379.9097,-72.3076 378.3375,-61.83 372.1467,-65.0974"/>
</g>
<!-- 0&#45;manifold -->
<g id="node2" class="node">
<title>0&#45;manifold</title>
<g id="a_node2"><a xlink:href="http://emmo.info/emmo/middle/perceptual#EMMO_0ab0485c_9e5b_4257_a679_90a2dfba5c7c" xlink:title="0&#45;manifold">
<ellipse fill="#ffffcc" stroke="#000000" cx="91.2474" cy="-90" rx="50.0912" ry="18"/>
<text text-anchor="middle" x="91.2474" y="-86.3" font-family="Times,serif" font-size="14.00" fill="#000000">0&#45;manifold</text>
</a>
</g>
</g>
<!-- Geometrical -->
<g id="node5" class="node">
<title>Geometrical</title>
<g id="a_node5"><a xlink:href="http://emmo.info/emmo/middle/perceptual#EMMO_b5957cef_a287_442d_a3ce_fd39f20ba1cd" xlink:title="Geometrical">
<ellipse fill="#ffffcc" stroke="#000000" stroke-width="2" cx="311.2474" cy="-162" rx="54.6905" ry="18"/>
<text text-anchor="middle" x="311.2474" y="-158.3" font-family="Times,serif" font-size="14.00" fill="#000000">Geometrical</text>
</a>
</g>
</g>
<!-- 0&#45;manifold&#45;&gt;Geometrical -->
<g id="edge1" class="edge">
<title>0&#45;manifold&#45;&gt;Geometrical</title>
<path fill="none" stroke="#000000" d="M128.5674,-102.2138C165.4881,-114.297 222.1814,-132.8511 262.6115,-146.0828"/>
<polygon fill="none" stroke="#000000" points="261.6676,-149.4565 272.2603,-149.2406 263.845,-142.8037 261.6676,-149.4565"/>
</g>
<!-- Sphere -->
<g id="node3" class="node">
<title>Sphere</title>
<g id="a_node3"><a xlink:href="http://emmo.info/emmo/middle/perceptual#EMMO_d7bf784a_db94_4dd9_861c_54f262846fbf" xlink:title="Sphere">
<ellipse fill="#ffffcc" stroke="#000000" cx="111.2474" cy="-18" rx="35.194" ry="18"/>
<text text-anchor="middle" x="111.2474" y="-14.3" font-family="Times,serif" font-size="14.00" fill="#000000">Sphere</text>
</a>
</g>
</g>
<!-- 2&#45;manifold -->
<g id="node9" class="node">
<title>2&#45;manifold</title>
<g id="a_node9"><a xlink:href="http://emmo.info/emmo/middle/perceptual#EMMO_9268958f_7f54_48ab_a693_febe2645892b" xlink:title="2&#45;manifold">
<ellipse fill="#ffffcc" stroke="#000000" cx="233.2474" cy="-90" rx="50.0912" ry="18"/>
<text text-anchor="middle" x="233.2474" y="-86.3" font-family="Times,serif" font-size="14.00" fill="#000000">2&#45;manifold</text>
</a>
</g>
</g>
<!-- Sphere&#45;&gt;2&#45;manifold -->
<g id="edge4" class="edge">
<title>Sphere&#45;&gt;2&#45;manifold</title>
<path fill="none" stroke="#000000" d="M134.4818,-31.7121C152.5488,-42.3746 177.9027,-57.3375 198.3981,-69.4332"/>
<polygon fill="none" stroke="#000000" points="196.7475,-72.5231 207.1385,-74.5915 200.3053,-66.4947 196.7475,-72.5231"/>
</g>
<!-- Point -->
<g id="node4" class="node">
<title>Point</title>
<g id="a_node4"><a xlink:href="http://emmo.info/emmo/middle/perceptual#EMMO_39362460_2a97_4367_8f93_0418c2ac9a08" xlink:title="Point">
<ellipse fill="#ffffcc" stroke="#000000" cx="29.2474" cy="-18" rx="29.4969" ry="18"/>
<text text-anchor="middle" x="29.2474" y="-14.3" font-family="Times,serif" font-size="14.00" fill="#000000">Point</text>
</a>
</g>
</g>
<!-- Point&#45;&gt;0&#45;manifold -->
<g id="edge9" class="edge">
<title>Point&#45;&gt;0&#45;manifold</title>
<path fill="none" stroke="#000000" d="M43.0072,-33.9791C50.7766,-43.0017 60.6644,-54.4843 69.4628,-64.7018"/>
<polygon fill="none" stroke="#000000" points="67.0466,-67.2597 76.2241,-72.5536 72.351,-62.692 67.0466,-67.2597"/>
</g>
<!-- Torus -->
<g id="node6" class="node">
<title>Torus</title>
<g id="a_node6"><a xlink:href="http://emmo.info/emmo/middle/perceptual#EMMO_86060335_31c2_4820_b433_27c64aea0366" xlink:title="Torus">
<ellipse fill="#ffffcc" stroke="#000000" cx="195.2474" cy="-18" rx="31.3957" ry="18"/>
<text text-anchor="middle" x="195.2474" y="-14.3" font-family="Times,serif" font-size="14.00" fill="#000000">Torus</text>
</a>
</g>
</g>
<!-- Torus&#45;&gt;2&#45;manifold -->
<g id="edge11" class="edge">
<title>Torus&#45;&gt;2&#45;manifold</title>
<path fill="none" stroke="#000000" d="M204.4461,-35.4292C208.8612,-43.7945 214.2485,-54.002 219.1643,-63.3161"/>
<polygon fill="none" stroke="#000000" points="216.1064,-65.0209 223.8694,-72.2311 222.2971,-61.7536 216.1064,-65.0209"/>
</g>
<!-- Plane -->
<g id="node7" class="node">
<title>Plane</title>
<g id="a_node7"><a xlink:href="http://emmo.info/emmo/middle/perceptual#EMMO_25f5ca8e_8f7f_44d8_a392_bd3fe8894458" xlink:title="Plane">
<ellipse fill="#ffffcc" stroke="#000000" cx="275.2474" cy="-18" rx="30.5947" ry="18"/>
<text text-anchor="middle" x="275.2474" y="-14.3" font-family="Times,serif" font-size="14.00" fill="#000000">Plane</text>
</a>
</g>
</g>
<!-- Plane&#45;&gt;2&#45;manifold -->
<g id="edge12" class="edge">
<title>Plane&#45;&gt;2&#45;manifold</title>
<path fill="none" stroke="#000000" d="M265.294,-35.063C260.3306,-43.5716 254.2163,-54.0532 248.6637,-63.5721"/>
<polygon fill="none" stroke="#000000" points="245.5835,-61.9062 243.568,-72.3076 251.63,-65.4333 245.5835,-61.9062"/>
</g>
<!-- EuclideanSpace -->
<g id="node8" class="node">
<title>EuclideanSpace</title>
<g id="a_node8"><a xlink:href="http://emmo.info/emmo/middle/perceptual#EMMO_5f278af9_8593_4e27_a717_ccc9e07a0ddf" xlink:title="EuclideanSpace">
<ellipse fill="#ffffcc" stroke="#000000" cx="628.2474" cy="-18" rx="66.8882" ry="18"/>
<text text-anchor="middle" x="628.2474" y="-14.3" font-family="Times,serif" font-size="14.00" fill="#000000">EuclideanSpace</text>
</a>
</g>
</g>
<!-- 3&#45;manifold -->
<g id="node11" class="node">
<title>3&#45;manifold</title>
<g id="a_node11"><a xlink:href="http://emmo.info/emmo/middle/perceptual#EMMO_46f0f8df_4dc6_418f_8036_10427a3a288e" xlink:title="3&#45;manifold">
<ellipse fill="#ffffcc" stroke="#000000" cx="586.2474" cy="-90" rx="50.0912" ry="18"/>
<text text-anchor="middle" x="586.2474" y="-86.3" font-family="Times,serif" font-size="14.00" fill="#000000">3&#45;manifold</text>
</a>
</g>
</g>
<!-- EuclideanSpace&#45;&gt;3&#45;manifold -->
<g id="edge5" class="edge">
<title>EuclideanSpace&#45;&gt;3&#45;manifold</title>
<path fill="none" stroke="#000000" d="M617.8654,-35.7978C613.0192,-44.1056 607.1492,-54.1684 601.789,-63.3573"/>
<polygon fill="none" stroke="#000000" points="598.6711,-61.7561 596.6556,-72.1575 604.7175,-65.2832 598.6711,-61.7561"/>
</g>
<!-- 2&#45;manifold&#45;&gt;Geometrical -->
<g id="edge6" class="edge">
<title>2&#45;manifold&#45;&gt;Geometrical</title>
<path fill="none" stroke="#000000" d="M251.7323,-107.063C261.6652,-116.2318 274.08,-127.6916 284.9971,-137.7689"/>
<polygon fill="none" stroke="#000000" points="282.9028,-140.599 292.6249,-144.81 287.6508,-135.4553 282.9028,-140.599"/>
</g>
<!-- Curve -->
<g id="node10" class="node">
<title>Curve</title>
<g id="a_node10"><a xlink:href="http://emmo.info/emmo/middle/perceptual#EMMO_0ef4ff4a_5458_4f2a_b51f_4689d472a3f2" xlink:title="Curve">
<ellipse fill="#ffffcc" stroke="#000000" cx="428.2474" cy="-18" rx="32.4942" ry="18"/>
<text text-anchor="middle" x="428.2474" y="-14.3" font-family="Times,serif" font-size="14.00" fill="#000000">Curve</text>
</a>
</g>
</g>
<!-- Curve&#45;&gt;1&#45;manifold -->
<g id="edge2" class="edge">
<title>Curve&#45;&gt;1&#45;manifold</title>
<path fill="none" stroke="#000000" d="M418.8066,-35.4292C414.2754,-43.7945 408.7463,-54.002 403.7012,-63.3161"/>
<polygon fill="none" stroke="#000000" points="400.5576,-61.7712 398.8722,-72.2311 406.7126,-65.1052 400.5576,-61.7712"/>
</g>
<!-- 3&#45;manifold&#45;&gt;Geometrical -->
<g id="edge7" class="edge">
<title>3&#45;manifold&#45;&gt;Geometrical</title>
<path fill="none" stroke="#000000" d="M545.6702,-100.6238C497.5268,-113.2287 417.1289,-134.2783 364.1453,-148.1504"/>
<polygon fill="none" stroke="#000000" points="363.0461,-144.8201 354.2586,-150.7389 364.8191,-151.5919 363.0461,-144.8201"/>
</g>
<!-- 1&#45;manifold&#45;&gt;Geometrical -->
<g id="edge3" class="edge">
<title>1&#45;manifold&#45;&gt;Geometrical</title>
<path fill="none" stroke="#000000" d="M370.7625,-107.063C360.8296,-116.2318 348.4148,-127.6916 337.4977,-137.7689"/>
<polygon fill="none" stroke="#000000" points="334.844,-135.4553 329.8699,-144.81 339.592,-140.599 334.844,-135.4553"/>
</g>
<!-- Circle -->
<g id="node13" class="node">
<title>Circle</title>
<g id="a_node13"><a xlink:href="http://emmo.info/emmo/middle/perceptual#EMMO_b2a234a8_579a_422c_9305_b8f7e72c76cd" xlink:title="Circle">
<ellipse fill="#ffffcc" stroke="#000000" cx="511.2474" cy="-18" rx="32.4942" ry="18"/>
<text text-anchor="middle" x="511.2474" y="-14.3" font-family="Times,serif" font-size="14.00" fill="#000000">Circle</text>
</a>
</g>
</g>
<!-- Circle&#45;&gt;1&#45;manifold -->
<g id="edge8" class="edge">
<title>Circle&#45;&gt;1&#45;manifold</title>
<path fill="none" stroke="#000000" d="M488.8707,-31.2059C470.7742,-41.8858 444.9734,-57.1125 424.1629,-69.3941"/>
<polygon fill="none" stroke="#000000" points="422.1264,-66.5319 415.2932,-74.6287 425.6842,-72.5604 422.1264,-66.5319"/>
</g>
<!-- key1 -->
<g id="node14" class="node">
<title>key1</title>
<text text-anchor="start" x="731.2474" y="-13.8" font-family="Times,serif" font-size="14.00" fill="#000000">isA</text>
</g>
<!-- key2 -->
<g id="node15" class="node">
<title>key2</title>
<text text-anchor="start" x="810.2474" y="-13.8" font-family="Times,serif" font-size="14.00" fill="#000000"> </text>
</g>
<!-- key1&#45;&gt;key2 -->
<g id="edge13" class="edge">
<title>key1:e&#45;&gt;key2:w</title>
<path fill="none" stroke="#000000" d="M752.2474,-19C773.2474,-19 780.9583,-19 797.8055,-19"/>
<polygon fill="none" stroke="#000000" points="798.2474,-22.5001 808.2474,-19 798.2474,-15.5001 798.2474,-22.5001"/>
</g>
</g>
</svg>
