<?xml version="1.0" encoding="UTF-8" standalone="no"?>
<!DOCTYPE svg PUBLIC "-//W3C//DTD SVG 1.1//EN"
 "http://www.w3.org/Graphics/SVG/1.1/DTD/svg11.dtd">
<!-- Generated by graphviz version 2.40.1 (20161225.0304)
 -->
<!-- Title: %3 Pages: 1 -->
<svg width="847pt" height="188pt"
 viewBox="0.00 0.00 846.94 188.00" xmlns="http://www.w3.org/2000/svg" xmlns:xlink="http://www.w3.org/1999/xlink">
<g id="graph0" class="graph" transform="scale(1 1) rotate(0) translate(4 184)">
<title>%3</title>
<polygon fill="#ffffff" stroke="transparent" points="-4,4 -4,-184 842.9441,-184 842.9441,4 -4,4"/>
<!-- 2&#45;manifold -->
<g id="node1" class="node">
<title>2&#45;manifold</title>
<g id="a_node1"><a xlink:href="http://emmo.info/emmo/middle/perceptual#EMMO_9268958f_7f54_48ab_a693_febe2645892b" xlink:title="2&#45;manifold">
<ellipse fill="#ffffcc" stroke="#000000" cx="558.9441" cy="-90" rx="50.0912" ry="18"/>
<text text-anchor="middle" x="558.9441" y="-86.3" font-family="Times,serif" font-size="14.00" fill="#000000">2&#45;manifold</text>
</a>
</g>
</g>
<!-- Geometrical -->
<g id="node10" class="node">
<title>Geometrical</title>
<g id="a_node10"><a xlink:href="http://emmo.info/emmo/middle/perceptual#EMMO_b5957cef_a287_442d_a3ce_fd39f20ba1cd" xlink:title="Geometrical">
<ellipse fill="#ffffcc" stroke="#000000" stroke-width="2" cx="341.9441" cy="-162" rx="54.6905" ry="18"/>
<text text-anchor="middle" x="341.9441" y="-158.3" font-family="Times,serif" font-size="14.00" fill="#000000">Geometrical</text>
</a>
</g>
</g>
<!-- 2&#45;manifold&#45;&gt;Geometrical -->
<g id="edge12" class="edge">
<title>2&#45;manifold&#45;&gt;Geometrical</title>
<path fill="none" stroke="#000000" d="M522.133,-102.2138C485.8274,-114.2599 430.1384,-132.7374 390.2842,-145.9609"/>
<polygon fill="none" stroke="#000000" points="389.1576,-142.647 380.7687,-149.1181 391.3621,-149.2908 389.1576,-142.647"/>
</g>
<!-- Curve -->
<g id="node2" class="node">
<title>Curve</title>
<g id="a_node2"><a xlink:href="http://emmo.info/emmo/middle/perceptual#EMMO_0ef4ff4a_5458_4f2a_b51f_4689d472a3f2" xlink:title="Curve">
<ellipse fill="#ffffcc" stroke="#000000" cx="183.9441" cy="-18" rx="32.4942" ry="18"/>
<text text-anchor="middle" x="183.9441" y="-14.3" font-family="Times,serif" font-size="14.00" fill="#000000">Curve</text>
</a>
</g>
</g>
<!-- 1&#45;manifold -->
<g id="node5" class="node">
<title>1&#45;manifold</title>
<g id="a_node5"><a xlink:href="http://emmo.info/emmo/middle/perceptual#EMMO_0c576e13_4ee7_4f3d_bfe9_1614243df018" xlink:title="1&#45;manifold">
<ellipse fill="#ffffcc" stroke="#000000" cx="274.9441" cy="-90" rx="50.0912" ry="18"/>
<text text-anchor="middle" x="274.9441" y="-86.3" font-family="Times,serif" font-size="14.00" fill="#000000">1&#45;manifold</text>
</a>
</g>
</g>
<!-- Curve&#45;&gt;1&#45;manifold -->
<g id="edge6" class="edge">
<title>Curve&#45;&gt;1&#45;manifold</title>
<path fill="none" stroke="#000000" d="M202.7993,-32.9184C215.3326,-42.8349 232.0306,-56.0465 246.2055,-67.2618"/>
<polygon fill="none" stroke="#000000" points="244.1954,-70.1345 254.2094,-73.5945 248.5388,-64.6449 244.1954,-70.1345"/>
</g>
<!-- Sphere -->
<g id="node3" class="node">
<title>Sphere</title>
<g id="a_node3"><a xlink:href="http://emmo.info/emmo/middle/perceptual#EMMO_d7bf784a_db94_4dd9_861c_54f262846fbf" xlink:title="Sphere">
<ellipse fill="#ffffcc" stroke="#000000" cx="499.9441" cy="-18" rx="35.194" ry="18"/>
<text text-anchor="middle" x="499.9441" y="-14.3" font-family="Times,serif" font-size="14.00" fill="#000000">Sphere</text>
</a>
</g>
</g>
<!-- Sphere&#45;&gt;2&#45;manifold -->
<g id="edge2" class="edge">
<title>Sphere&#45;&gt;2&#45;manifold</title>
<path fill="none" stroke="#000000" d="M513.6281,-34.6992C520.8619,-43.5269 529.8971,-54.5529 537.9923,-64.4318"/>
<polygon fill="none" stroke="#000000" points="535.4656,-66.8704 544.511,-72.3868 540.88,-62.4336 535.4656,-66.8704"/>
</g>
<!-- 3&#45;manifold -->
<g id="node4" class="node">
<title>3&#45;manifold</title>
<g id="a_node4"><a xlink:href="http://emmo.info/emmo/middle/perceptual#EMMO_46f0f8df_4dc6_418f_8036_10427a3a288e" xlink:title="3&#45;manifold">
<ellipse fill="#ffffcc" stroke="#000000" cx="115.9441" cy="-90" rx="50.0912" ry="18"/>
<text text-anchor="middle" x="115.9441" y="-86.3" font-family="Times,serif" font-size="14.00" fill="#000000">3&#45;manifold</text>
</a>
</g>
</g>
<!-- 3&#45;manifold&#45;&gt;Geometrical -->
<g id="edge8" class="edge">
<title>3&#45;manifold&#45;&gt;Geometrical</title>
<path fill="none" stroke="#000000" d="M153.5171,-101.9702C191.6307,-114.1126 250.8133,-132.9672 292.6676,-146.3013"/>
<polygon fill="none" stroke="#000000" points="291.7893,-149.6948 302.3799,-149.3955 293.9142,-143.0251 291.7893,-149.6948"/>
</g>
<!-- 1&#45;manifold&#45;&gt;Geometrical -->
<g id="edge5" class="edge">
<title>1&#45;manifold&#45;&gt;Geometrical</title>
<path fill="none" stroke="#000000" d="M291.1629,-107.4292C299.4749,-116.3615 309.7416,-127.3944 318.8636,-137.1971"/>
<polygon fill="none" stroke="#000000" points="316.5,-139.7949 325.8746,-144.7313 321.6245,-135.0263 316.5,-139.7949"/>
</g>
<!-- Circle -->
<g id="node6" class="node">
<title>Circle</title>
<g id="a_node6"><a xlink:href="http://emmo.info/emmo/middle/perceptual#EMMO_b2a234a8_579a_422c_9305_b8f7e72c76cd" xlink:title="Circle">
<ellipse fill="#ffffcc" stroke="#000000" cx="266.9441" cy="-18" rx="32.4942" ry="18"/>
<text text-anchor="middle" x="266.9441" y="-14.3" font-family="Times,serif" font-size="14.00" fill="#000000">Circle</text>
</a>
</g>
</g>
<!-- Circle&#45;&gt;1&#45;manifold -->
<g id="edge1" class="edge">
<title>Circle&#45;&gt;1&#45;manifold</title>
<path fill="none" stroke="#000000" d="M268.9628,-36.1686C269.8184,-43.869 270.8358,-53.0257 271.7867,-61.5834"/>
<polygon fill="none" stroke="#000000" points="268.3151,-62.0344 272.8981,-71.5867 275.2723,-61.2614 268.3151,-62.0344"/>
</g>
<!-- Line -->
<g id="node7" class="node">
<title>Line</title>
<g id="a_node7"><a xlink:href="http://emmo.info/emmo/middle/perceptual#EMMO_3e309118_e8b7_4021_80f4_642d2df65d94" xlink:title="Line">
<ellipse fill="#ffffcc" stroke="#000000" cx="343.9441" cy="-18" rx="27" ry="18"/>
<text text-anchor="middle" x="343.9441" y="-14.3" font-family="Times,serif" font-size="14.00" fill="#000000">Line</text>
</a>
</g>
</g>
<!-- Line&#45;&gt;1&#45;manifold -->
<g id="edge7" class="edge">
<title>Line&#45;&gt;1&#45;manifold</title>
<path fill="none" stroke="#000000" d="M329.3109,-33.2693C320.3977,-42.5701 308.8008,-54.6712 298.6083,-65.3069"/>
<polygon fill="none" stroke="#000000" points="295.8853,-63.0897 291.4932,-72.7313 300.9393,-67.9331 295.8853,-63.0897"/>
</g>
<!-- 0&#45;manifold -->
<g id="node8" class="node">
<title>0&#45;manifold</title>
<g id="a_node8"><a xlink:href="http://emmo.info/emmo/middle/perceptual#EMMO_0ab0485c_9e5b_4257_a679_90a2dfba5c7c" xlink:title="0&#45;manifold">
<ellipse fill="#ffffcc" stroke="#000000" cx="408.9441" cy="-90" rx="50.0912" ry="18"/>
<text text-anchor="middle" x="408.9441" y="-86.3" font-family="Times,serif" font-size="14.00" fill="#000000">0&#45;manifold</text>
</a>
</g>
</g>
<!-- 0&#45;manifold&#45;&gt;Geometrical -->
<g id="edge4" class="edge">
<title>0&#45;manifold&#45;&gt;Geometrical</title>
<path fill="none" stroke="#000000" d="M392.7252,-107.4292C384.4132,-116.3615 374.1465,-127.3944 365.0246,-137.1971"/>
<polygon fill="none" stroke="#000000" points="362.2636,-135.0263 358.0135,-144.7313 367.3881,-139.7949 362.2636,-135.0263"/>
</g>
<!-- Point -->
<g id="node9" class="node">
<title>Point</title>
<g id="a_node9"><a xlink:href="http://emmo.info/emmo/middle/perceptual#EMMO_39362460_2a97_4367_8f93_0418c2ac9a08" xlink:title="Point">
<ellipse fill="#ffffcc" stroke="#000000" cx="417.9441" cy="-18" rx="29.4969" ry="18"/>
<text text-anchor="middle" x="417.9441" y="-14.3" font-family="Times,serif" font-size="14.00" fill="#000000">Point</text>
</a>
</g>
</g>
<!-- Point&#45;&gt;0&#45;manifold -->
<g id="edge9" class="edge">
<title>Point&#45;&gt;0&#45;manifold</title>
<path fill="none" stroke="#000000" d="M415.673,-36.1686C414.7104,-43.869 413.5659,-53.0257 412.4961,-61.5834"/>
<polygon fill="none" stroke="#000000" points="409.0132,-61.2298 411.2457,-71.5867 415.9591,-62.0981 409.0132,-61.2298"/>
</g>
<!-- Torus -->
<g id="node11" class="node">
<title>Torus</title>
<g id="a_node11"><a xlink:href="http://emmo.info/emmo/middle/perceptual#EMMO_86060335_31c2_4820_b433_27c64aea0366" xlink:title="Torus">
<ellipse fill="#ffffcc" stroke="#000000" cx="583.9441" cy="-18" rx="31.3957" ry="18"/>
<text text-anchor="middle" x="583.9441" y="-14.3" font-family="Times,serif" font-size="14.00" fill="#000000">Torus</text>
</a>
</g>
</g>
<!-- Torus&#45;&gt;2&#45;manifold -->
<g id="edge3" class="edge">
<title>Torus&#45;&gt;2&#45;manifold</title>
<path fill="none" stroke="#000000" d="M577.7643,-35.7978C574.9908,-43.7854 571.654,-53.3955 568.5651,-62.2913"/>
<polygon fill="none" stroke="#000000" points="565.2002,-61.3121 565.2264,-71.9069 571.8129,-63.6082 565.2002,-61.3121"/>
</g>
<!-- Plane -->
<g id="node12" class="node">
<title>Plane</title>
<g id="a_node12"><a xlink:href="http://emmo.info/emmo/middle/perceptual#EMMO_25f5ca8e_8f7f_44d8_a392_bd3fe8894458" xlink:title="Plane">
<ellipse fill="#ffffcc" stroke="#000000" cx="663.9441" cy="-18" rx="30.5947" ry="18"/>
<text text-anchor="middle" x="663.9441" y="-14.3" font-family="Times,serif" font-size="14.00" fill="#000000">Plane</text>
</a>
</g>
</g>
<!-- Plane&#45;&gt;2&#45;manifold -->
<g id="edge10" class="edge">
<title>Plane&#45;&gt;2&#45;manifold</title>
<path fill="none" stroke="#000000" d="M643.699,-31.8823C628.7793,-42.113 608.1852,-56.2346 591.0336,-67.9958"/>
<polygon fill="none" stroke="#000000" points="588.6943,-65.3559 582.4264,-73.8978 592.6531,-71.1291 588.6943,-65.3559"/>
</g>
<!-- EuclideanSpace -->
<g id="node13" class="node">
<title>EuclideanSpace</title>
<g id="a_node13"><a xlink:href="http://emmo.info/emmo/middle/perceptual#EMMO_5f278af9_8593_4e27_a717_ccc9e07a0ddf" xlink:title="EuclideanSpace">
<ellipse fill="#ffffcc" stroke="#000000" cx="66.9441" cy="-18" rx="66.8882" ry="18"/>
<text text-anchor="middle" x="66.9441" y="-14.3" font-family="Times,serif" font-size="14.00" fill="#000000">EuclideanSpace</text>
</a>
</g>
</g>
<!-- EuclideanSpace&#45;&gt;3&#45;manifold -->
<g id="edge11" class="edge">
<title>EuclideanSpace&#45;&gt;3&#45;manifold</title>
<path fill="none" stroke="#000000" d="M79.0564,-35.7978C84.8122,-44.2552 91.8058,-54.5315 98.1496,-63.853"/>
<polygon fill="none" stroke="#000000" points="95.4512,-66.109 103.971,-72.407 101.2382,-62.1706 95.4512,-66.109"/>
</g>
<!-- key1 -->
<g id="node14" class="node">
<title>key1</title>
<text text-anchor="start" x="730.9441" y="-13.8" font-family="Times,serif" font-size="14.00" fill="#000000">isA</text>
</g>
<!-- key2 -->
<g id="node15" class="node">
<title>key2</title>
<text text-anchor="start" x="809.9441" y="-13.8" font-family="Times,serif" font-size="14.00" fill="#000000"> </text>
</g>
<!-- key1&#45;&gt;key2 -->
<g id="edge13" class="edge">
<title>key1:e&#45;&gt;key2:w</title>
<path fill="none" stroke="#000000" d="M751.9441,-19C772.9441,-19 780.655,-19 797.5022,-19"/>
<polygon fill="none" stroke="#000000" points="797.9441,-22.5001 807.9441,-19 797.944,-15.5001 797.9441,-22.5001"/>
</g>
</g>
</svg>
