<?xml version="1.0" encoding="UTF-8" standalone="no"?>
<!DOCTYPE svg PUBLIC "-//W3C//DTD SVG 1.1//EN"
 "http://www.w3.org/Graphics/SVG/1.1/DTD/svg11.dtd">
<!-- Generated by graphviz version 2.40.1 (20161225.0304)
 -->
<!-- Title: %3 Pages: 1 -->
<svg width="847pt" height="188pt"
 viewBox="0.00 0.00 847.50 188.00" xmlns="http://www.w3.org/2000/svg" xmlns:xlink="http://www.w3.org/1999/xlink">
<g id="graph0" class="graph" transform="scale(1 1) rotate(0) translate(4 184)">
<title>%3</title>
<polygon fill="#ffffff" stroke="transparent" points="-4,4 -4,-184 843.4971,-184 843.4971,4 -4,4"/>
<!-- 3&#45;manifold -->
<g id="node1" class="node">
<title>3&#45;manifold</title>
<g id="a_node1"><a xlink:href="http://emmo.info/emmo/middle/perceptual#EMMO_46f0f8df_4dc6_418f_8036_10427a3a288e" xlink:title="3&#45;manifold">
<ellipse fill="#ffffcc" stroke="#000000" cx="585.4971" cy="-90" rx="50.0912" ry="18"/>
<text text-anchor="middle" x="585.4971" y="-86.3" font-family="Times,serif" font-size="14.00" fill="#000000">3&#45;manifold</text>
</a>
</g>
</g>
<!-- Geometrical -->
<g id="node7" class="node">
<title>Geometrical</title>
<g id="a_node7"><a xlink:href="http://emmo.info/emmo/middle/perceptual#EMMO_b5957cef_a287_442d_a3ce_fd39f20ba1cd" xlink:title="Geometrical">
<ellipse fill="#ffffcc" stroke="#000000" stroke-width="2" cx="345.4971" cy="-162" rx="54.6905" ry="18"/>
<text text-anchor="middle" x="345.4971" y="-158.3" font-family="Times,serif" font-size="14.00" fill="#000000">Geometrical</text>
</a>
</g>
</g>
<!-- 3&#45;manifold&#45;&gt;Geometrical -->
<g id="edge11" class="edge">
<title>3&#45;manifold&#45;&gt;Geometrical</title>
<path fill="none" stroke="#000000" d="M546.937,-101.568C505.9154,-113.8745 440.8528,-133.3933 395.8206,-146.903"/>
<polygon fill="none" stroke="#000000" points="394.5385,-143.6334 385.966,-149.8593 396.55,-150.3382 394.5385,-143.6334"/>
</g>
<!-- 1&#45;manifold -->
<g id="node2" class="node">
<title>1&#45;manifold</title>
<g id="a_node2"><a xlink:href="http://emmo.info/emmo/middle/perceptual#EMMO_0c576e13_4ee7_4f3d_bfe9_1614243df018" xlink:title="1&#45;manifold">
<ellipse fill="#ffffcc" stroke="#000000" cx="139.4971" cy="-90" rx="50.0912" ry="18"/>
<text text-anchor="middle" x="139.4971" y="-86.3" font-family="Times,serif" font-size="14.00" fill="#000000">1&#45;manifold</text>
</a>
</g>
</g>
<!-- 1&#45;manifold&#45;&gt;Geometrical -->
<g id="edge7" class="edge">
<title>1&#45;manifold&#45;&gt;Geometrical</title>
<path fill="none" stroke="#000000" d="M175.8516,-102.7064C209.8872,-114.6024 260.9374,-132.4452 298.1441,-145.4494"/>
<polygon fill="none" stroke="#000000" points="297.1702,-148.8166 307.765,-148.8121 299.4799,-142.2086 297.1702,-148.8166"/>
</g>
<!-- Circle -->
<g id="node3" class="node">
<title>Circle</title>
<g id="a_node3"><a xlink:href="http://emmo.info/emmo/middle/perceptual#EMMO_b2a234a8_579a_422c_9305_b8f7e72c76cd" xlink:title="Circle">
<ellipse fill="#ffffcc" stroke="#000000" cx="32.4971" cy="-18" rx="32.4942" ry="18"/>
<text text-anchor="middle" x="32.4971" y="-14.3" font-family="Times,serif" font-size="14.00" fill="#000000">Circle</text>
</a>
</g>
</g>
<!-- Circle&#45;&gt;1&#45;manifold -->
<g id="edge12" class="edge">
<title>Circle&#45;&gt;1&#45;manifold</title>
<path fill="none" stroke="#000000" d="M53.3818,-32.0532C68.6082,-42.2991 89.5343,-56.3801 106.9452,-68.0959"/>
<polygon fill="none" stroke="#000000" points="105.4302,-71.2951 115.6808,-73.9741 109.3382,-65.4875 105.4302,-71.2951"/>
</g>
<!-- Line -->
<g id="node4" class="node">
<title>Line</title>
<g id="a_node4"><a xlink:href="http://emmo.info/emmo/middle/perceptual#EMMO_3e309118_e8b7_4021_80f4_642d2df65d94" xlink:title="Line">
<ellipse fill="#ffffcc" stroke="#000000" cx="109.4971" cy="-18" rx="27" ry="18"/>
<text text-anchor="middle" x="109.4971" y="-14.3" font-family="Times,serif" font-size="14.00" fill="#000000">Line</text>
</a>
</g>
</g>
<!-- Line&#45;&gt;1&#45;manifold -->
<g id="edge10" class="edge">
<title>Line&#45;&gt;1&#45;manifold</title>
<path fill="none" stroke="#000000" d="M116.7593,-35.4292C120.1467,-43.5591 124.2592,-53.429 128.0504,-62.5278"/>
<polygon fill="none" stroke="#000000" points="124.9116,-64.0948 131.9885,-71.9794 131.3731,-61.4025 124.9116,-64.0948"/>
</g>
<!-- 0&#45;manifold -->
<g id="node5" class="node">
<title>0&#45;manifold</title>
<g id="a_node5"><a xlink:href="http://emmo.info/emmo/middle/perceptual#EMMO_0ab0485c_9e5b_4257_a679_90a2dfba5c7c" xlink:title="0&#45;manifold">
<ellipse fill="#ffffcc" stroke="#000000" cx="276.4971" cy="-90" rx="50.0912" ry="18"/>
<text text-anchor="middle" x="276.4971" y="-86.3" font-family="Times,serif" font-size="14.00" fill="#000000">0&#45;manifold</text>
</a>
</g>
</g>
<!-- 0&#45;manifold&#45;&gt;Geometrical -->
<g id="edge9" class="edge">
<title>0&#45;manifold&#45;&gt;Geometrical</title>
<path fill="none" stroke="#000000" d="M292.8492,-107.063C301.4871,-116.0765 312.2468,-127.3041 321.7839,-137.2557"/>
<polygon fill="none" stroke="#000000" points="319.3371,-139.7611 328.7831,-144.5593 324.391,-134.9177 319.3371,-139.7611"/>
</g>
<!-- Point -->
<g id="node6" class="node">
<title>Point</title>
<g id="a_node6"><a xlink:href="http://emmo.info/emmo/middle/perceptual#EMMO_39362460_2a97_4367_8f93_0418c2ac9a08" xlink:title="Point">
<ellipse fill="#ffffcc" stroke="#000000" cx="266.4971" cy="-18" rx="29.4969" ry="18"/>
<text text-anchor="middle" x="266.4971" y="-14.3" font-family="Times,serif" font-size="14.00" fill="#000000">Point</text>
</a>
</g>
</g>
<!-- Point&#45;&gt;0&#45;manifold -->
<g id="edge1" class="edge">
<title>Point&#45;&gt;0&#45;manifold</title>
<path fill="none" stroke="#000000" d="M269.0205,-36.1686C270.09,-43.869 271.3618,-53.0257 272.5504,-61.5834"/>
<polygon fill="none" stroke="#000000" points="269.0972,-62.1633 273.9397,-71.5867 276.0307,-61.2003 269.0972,-62.1633"/>
</g>
<!-- Torus -->
<g id="node8" class="node">
<title>Torus</title>
<g id="a_node8"><a xlink:href="http://emmo.info/emmo/middle/perceptual#EMMO_86060335_31c2_4820_b433_27c64aea0366" xlink:title="Torus">
<ellipse fill="#ffffcc" stroke="#000000" cx="344.4971" cy="-18" rx="31.3957" ry="18"/>
<text text-anchor="middle" x="344.4971" y="-14.3" font-family="Times,serif" font-size="14.00" fill="#000000">Torus</text>
</a>
</g>
</g>
<!-- 2&#45;manifold -->
<g id="node12" class="node">
<title>2&#45;manifold</title>
<g id="a_node12"><a xlink:href="http://emmo.info/emmo/middle/perceptual#EMMO_9268958f_7f54_48ab_a693_febe2645892b" xlink:title="2&#45;manifold">
<ellipse fill="#ffffcc" stroke="#000000" cx="414.4971" cy="-90" rx="50.0912" ry="18"/>
<text text-anchor="middle" x="414.4971" y="-86.3" font-family="Times,serif" font-size="14.00" fill="#000000">2&#45;manifold</text>
</a>
</g>
</g>
<!-- Torus&#45;&gt;2&#45;manifold -->
<g id="edge5" class="edge">
<title>Torus&#45;&gt;2&#45;manifold</title>
<path fill="none" stroke="#000000" d="M360.0324,-33.9791C369.0428,-43.247 380.5768,-55.1106 390.7092,-65.5324"/>
<polygon fill="none" stroke="#000000" points="388.3029,-68.0783 397.7832,-72.8085 393.3219,-63.1988 388.3029,-68.0783"/>
</g>
<!-- Plane -->
<g id="node9" class="node">
<title>Plane</title>
<g id="a_node9"><a xlink:href="http://emmo.info/emmo/middle/perceptual#EMMO_25f5ca8e_8f7f_44d8_a392_bd3fe8894458" xlink:title="Plane">
<ellipse fill="#ffffcc" stroke="#000000" cx="424.4971" cy="-18" rx="30.5947" ry="18"/>
<text text-anchor="middle" x="424.4971" y="-14.3" font-family="Times,serif" font-size="14.00" fill="#000000">Plane</text>
</a>
</g>
</g>
<!-- Plane&#45;&gt;2&#45;manifold -->
<g id="edge4" class="edge">
<title>Plane&#45;&gt;2&#45;manifold</title>
<path fill="none" stroke="#000000" d="M421.9737,-36.1686C420.9042,-43.869 419.6324,-53.0257 418.4439,-61.5834"/>
<polygon fill="none" stroke="#000000" points="414.9636,-61.2003 417.0545,-71.5867 421.897,-62.1633 414.9636,-61.2003"/>
</g>
<!-- Sphere -->
<g id="node10" class="node">
<title>Sphere</title>
<g id="a_node10"><a xlink:href="http://emmo.info/emmo/middle/perceptual#EMMO_d7bf784a_db94_4dd9_861c_54f262846fbf" xlink:title="Sphere">
<ellipse fill="#ffffcc" stroke="#000000" cx="508.4971" cy="-18" rx="35.194" ry="18"/>
<text text-anchor="middle" x="508.4971" y="-14.3" font-family="Times,serif" font-size="14.00" fill="#000000">Sphere</text>
</a>
</g>
</g>
<!-- Sphere&#45;&gt;2&#45;manifold -->
<g id="edge6" class="edge">
<title>Sphere&#45;&gt;2&#45;manifold</title>
<path fill="none" stroke="#000000" d="M488.5621,-33.2693C475.6777,-43.1383 458.6767,-56.1603 444.213,-67.2389"/>
<polygon fill="none" stroke="#000000" points="441.851,-64.6393 436.0405,-73.4987 446.1076,-70.1965 441.851,-64.6393"/>
</g>
<!-- EuclideanSpace -->
<g id="node11" class="node">
<title>EuclideanSpace</title>
<g id="a_node11"><a xlink:href="http://emmo.info/emmo/middle/perceptual#EMMO_5f278af9_8593_4e27_a717_ccc9e07a0ddf" xlink:title="EuclideanSpace">
<ellipse fill="#ffffcc" stroke="#000000" cx="628.4971" cy="-18" rx="66.8882" ry="18"/>
<text text-anchor="middle" x="628.4971" y="-14.3" font-family="Times,serif" font-size="14.00" fill="#000000">EuclideanSpace</text>
</a>
</g>
</g>
<!-- EuclideanSpace&#45;&gt;3&#45;manifold -->
<g id="edge8" class="edge">
<title>EuclideanSpace&#45;&gt;3&#45;manifold</title>
<path fill="none" stroke="#000000" d="M617.8679,-35.7978C612.9063,-44.1056 606.8965,-54.1684 601.4087,-63.3573"/>
<polygon fill="none" stroke="#000000" points="598.2756,-61.7774 596.1531,-72.1575 604.2854,-65.3666 598.2756,-61.7774"/>
</g>
<!-- 2&#45;manifold&#45;&gt;Geometrical -->
<g id="edge2" class="edge">
<title>2&#45;manifold&#45;&gt;Geometrical</title>
<path fill="none" stroke="#000000" d="M398.1451,-107.063C389.5072,-116.0765 378.7474,-127.3041 369.2104,-137.2557"/>
<polygon fill="none" stroke="#000000" points="366.6032,-134.9177 362.2111,-144.5593 371.6571,-139.7611 366.6032,-134.9177"/>
</g>
<!-- Curve -->
<g id="node13" class="node">
<title>Curve</title>
<g id="a_node13"><a xlink:href="http://emmo.info/emmo/middle/perceptual#EMMO_0ef4ff4a_5458_4f2a_b51f_4689d472a3f2" xlink:title="Curve">
<ellipse fill="#ffffcc" stroke="#000000" cx="186.4971" cy="-18" rx="32.4942" ry="18"/>
<text text-anchor="middle" x="186.4971" y="-14.3" font-family="Times,serif" font-size="14.00" fill="#000000">Curve</text>
</a>
</g>
</g>
<!-- Curve&#45;&gt;1&#45;manifold -->
<g id="edge3" class="edge">
<title>Curve&#45;&gt;1&#45;manifold</title>
<path fill="none" stroke="#000000" d="M175.3588,-35.063C169.7473,-43.6593 162.8211,-54.2696 156.5567,-63.8662"/>
<polygon fill="none" stroke="#000000" points="153.5818,-62.0206 151.0463,-72.3076 159.4434,-65.847 153.5818,-62.0206"/>
</g>
<!-- key1 -->
<g id="node14" class="node">
<title>key1</title>
<text text-anchor="start" x="731.4971" y="-13.8" font-family="Times,serif" font-size="14.00" fill="#000000">isA</text>
</g>
<!-- key2 -->
<g id="node15" class="node">
<title>key2</title>
<text text-anchor="start" x="810.4971" y="-13.8" font-family="Times,serif" font-size="14.00" fill="#000000"> </text>
</g>
<!-- key1&#45;&gt;key2 -->
<g id="edge13" class="edge">
<title>key1:e&#45;&gt;key2:w</title>
<path fill="none" stroke="#000000" d="M752.4971,-19C773.4971,-19 781.2081,-19 798.0552,-19"/>
<polygon fill="none" stroke="#000000" points="798.4972,-22.5001 808.4971,-19 798.4971,-15.5001 798.4972,-22.5001"/>
</g>
</g>
</svg>
