<?xml version="1.0" encoding="UTF-8" standalone="no"?>
<!DOCTYPE svg PUBLIC "-//W3C//DTD SVG 1.1//EN"
 "http://www.w3.org/Graphics/SVG/1.1/DTD/svg11.dtd">
<!-- Generated by graphviz version 2.40.1 (20161225.0304)
 -->
<!-- Title: %3 Pages: 1 -->
<svg width="577pt" height="270pt"
 viewBox="0.00 0.00 577.35 270.00" xmlns="http://www.w3.org/2000/svg" xmlns:xlink="http://www.w3.org/1999/xlink">
<g id="graph0" class="graph" transform="scale(1 1) rotate(0) translate(4 266)">
<title>%3</title>
<polygon fill="#ffffff" stroke="transparent" points="-4,4 -4,-266 573.3466,-266 573.3466,4 -4,4"/>
<!-- Symbol -->
<g id="node1" class="node">
<title>Symbol</title>
<g id="a_node1"><a xlink:href="http://emmo.info/emmo/middle/perceptual#EMMO_a1083d0a_c1fb_471f_8e20_a98f881ad527" xlink:title="Symbol">
<ellipse fill="#ffffcc" stroke="#000000" stroke-width="2" cx="38.3466" cy="-100" rx="38.1938" ry="18"/>
<text text-anchor="middle" x="38.3466" y="-96.3" font-family="Times,serif" font-size="14.00" fill="#000000">Symbol</text>
</a>
</g>
</g>
<!-- Symbolic -->
<g id="node7" class="node">
<title>Symbolic</title>
<g id="a_node7"><a xlink:href="http://emmo.info/emmo/middle/perceptual#EMMO_057e7d57_aff0_49de_911a_8861d85cef40" xlink:title="Symbolic">
<ellipse fill="#ffffcc" stroke="#000000" cx="175.3466" cy="-172" rx="44.6926" ry="18"/>
<text text-anchor="middle" x="175.3466" y="-168.3" font-family="Times,serif" font-size="14.00" fill="#000000">Symbolic</text>
</a>
</g>
</g>
<!-- Symbol&#45;&gt;Symbolic -->
<g id="edge9" class="edge">
<title>Symbol&#45;&gt;Symbolic</title>
<path fill="none" stroke="#000000" d="M64.1152,-113.5426C85.1909,-124.6189 115.2522,-140.4176 138.8112,-152.7989"/>
<polygon fill="none" stroke="#000000" points="137.3329,-155.9759 147.8131,-157.5299 140.5894,-149.7795 137.3329,-155.9759"/>
</g>
<!-- Geometrical -->
<g id="node2" class="node">
<title>Geometrical</title>
<g id="a_node2"><a xlink:href="http://emmo.info/emmo/middle/perceptual#EMMO_b5957cef_a287_442d_a3ce_fd39f20ba1cd" xlink:title="Geometrical">
<ellipse fill="#ffffcc" stroke="#000000" stroke-width="2" cx="292.3466" cy="-172" rx="54.6905" ry="18"/>
<text text-anchor="middle" x="292.3466" y="-168.3" font-family="Times,serif" font-size="14.00" fill="#000000">Geometrical</text>
</a>
</g>
</g>
<!-- Graphical -->
<g id="node10" class="node">
<title>Graphical</title>
<g id="a_node10"><a xlink:href="http://emmo.info/emmo/middle/perceptual#EMMO_c74da218_9147_4f03_92d1_8894abca55f3" xlink:title="Graphical">
<ellipse fill="#ffffcc" stroke="#000000" stroke-width="2" cx="292.3466" cy="-244" rx="45.4919" ry="18"/>
<text text-anchor="middle" x="292.3466" y="-240.3" font-family="Times,serif" font-size="14.00" fill="#000000">Graphical</text>
</a>
</g>
</g>
<!-- Geometrical&#45;&gt;Graphical -->
<g id="edge8" class="edge">
<title>Geometrical&#45;&gt;Graphical</title>
<path fill="none" stroke="#000000" d="M292.3466,-190.1686C292.3466,-197.869 292.3466,-207.0257 292.3466,-215.5834"/>
<polygon fill="none" stroke="#000000" points="288.8467,-215.5867 292.3466,-225.5867 295.8467,-215.5868 288.8467,-215.5867"/>
</g>
<!-- Mathematical -->
<g id="node3" class="node">
<title>Mathematical</title>
<g id="a_node3"><a xlink:href="http://emmo.info/emmo/middle/math#EMMO_54ee6b5e_5261_44a8_86eb_5717e7fdb9d0" xlink:title="Mathematical">
<ellipse fill="#ffffcc" stroke="#000000" stroke-width="2" cx="156.3466" cy="-23" rx="59.5901" ry="18"/>
<text text-anchor="middle" x="156.3466" y="-19.3" font-family="Times,serif" font-size="14.00" fill="#000000">Mathematical</text>
</a>
</g>
</g>
<!-- Language -->
<g id="node5" class="node">
<title>Language</title>
<g id="a_node5"><a xlink:href="http://emmo.info/emmo/middle/perceptual#EMMO_d8d2144e_5c8d_455d_a643_5caf4d8d9df8" xlink:title="Language">
<ellipse fill="#ffffcc" stroke="#000000" cx="223.3466" cy="-100" rx="45.4919" ry="18"/>
<text text-anchor="middle" x="223.3466" y="-96.3" font-family="Times,serif" font-size="14.00" fill="#000000">Language</text>
</a>
</g>
</g>
<!-- Mathematical&#45;&gt;Language -->
<g id="edge3" class="edge">
<title>Mathematical&#45;&gt;Language</title>
<path fill="none" stroke="#000000" d="M171.5499,-40.4725C180.4354,-50.6842 191.7982,-63.7429 201.616,-75.026"/>
<polygon fill="none" stroke="#000000" points="199.2296,-77.6154 208.4342,-82.8619 204.5104,-73.0204 199.2296,-77.6154"/>
</g>
<!-- String -->
<g id="node4" class="node">
<title>String</title>
<g id="a_node4"><a xlink:href="http://emmo.info/emmo/middle/perceptual#EMMO_50ea1ec5_f157_41b0_b46b_a9032f17ca10" xlink:title="String">
<ellipse fill="#ffffcc" stroke="#000000" cx="127.3466" cy="-100" rx="32.4942" ry="18"/>
<text text-anchor="middle" x="127.3466" y="-96.3" font-family="Times,serif" font-size="14.00" fill="#000000">String</text>
</a>
</g>
</g>
<!-- String&#45;&gt;Symbol -->
<g id="edge6" class="edge">
<title>String&#45;&gt;Symbol</title>
<path fill="none" stroke="#006400" d="M101.6526,-111.0889C93.6598,-113.1384 85.6669,-113.8813 77.674,-113.3176"/>
<polygon fill="#006400" stroke="#006400" points="77.9375,-109.8205 67.5497,-111.9048 76.97,-116.7534 77.9375,-109.8205"/>
</g>
<!-- String&#45;&gt;Symbol -->
<g id="edge7" class="edge">
<title>String&#45;&gt;Symbol</title>
<path fill="none" stroke="#006400" d="M101.6526,-88.9111C93.6598,-86.8616 85.6669,-86.1187 77.674,-86.6824"/>
<polygon fill="#006400" stroke="#006400" points="76.97,-83.2466 67.5497,-88.0952 77.9375,-90.1795 76.97,-83.2466"/>
</g>
<!-- String&#45;&gt;Symbolic -->
<g id="edge5" class="edge">
<title>String&#45;&gt;Symbolic</title>
<path fill="none" stroke="#000000" d="M138.7219,-117.063C144.4953,-125.723 151.6312,-136.4269 158.0661,-146.0793"/>
<polygon fill="none" stroke="#000000" points="155.2603,-148.1803 163.7195,-154.5593 161.0846,-144.2973 155.2603,-148.1803"/>
</g>
<!-- Language&#45;&gt;Symbolic -->
<g id="edge2" class="edge">
<title>Language&#45;&gt;Symbolic</title>
<path fill="none" stroke="#000000" d="M211.7271,-117.4292C205.9916,-126.0325 198.957,-136.5844 192.6073,-146.1089"/>
<polygon fill="none" stroke="#000000" points="189.6603,-144.2198 187.0254,-154.4818 195.4847,-148.1027 189.6603,-144.2198"/>
</g>
<!-- Metrological -->
<g id="node6" class="node">
<title>Metrological</title>
<g id="a_node6"><a xlink:href="http://emmo.info/emmo/middle/metrology#EMMO_985bec21_989f_4b9e_a4b3_735d88099c3c" xlink:title="Metrological">
<ellipse fill="#ffffcc" stroke="#000000" stroke-width="2" cx="290.3466" cy="-23" rx="56.59" ry="18"/>
<text text-anchor="middle" x="290.3466" y="-19.3" font-family="Times,serif" font-size="14.00" fill="#000000">Metrological</text>
</a>
</g>
</g>
<!-- Metrological&#45;&gt;Language -->
<g id="edge1" class="edge">
<title>Metrological&#45;&gt;Language</title>
<path fill="none" stroke="#000000" d="M275.1433,-40.4725C266.2578,-50.6842 254.895,-63.7429 245.0772,-75.026"/>
<polygon fill="none" stroke="#000000" points="242.1828,-73.0204 238.259,-82.8619 247.4636,-77.6154 242.1828,-73.0204"/>
</g>
<!-- Symbolic&#45;&gt;Graphical -->
<g id="edge4" class="edge">
<title>Symbolic&#45;&gt;Graphical</title>
<path fill="none" stroke="#000000" d="M199.8736,-187.0936C216.9963,-197.6306 240.0613,-211.8244 258.8722,-223.4004"/>
<polygon fill="none" stroke="#000000" points="257.0979,-226.4181 267.4489,-228.6783 260.7667,-220.4565 257.0979,-226.4181"/>
</g>
<!-- Pictorial -->
<g id="node8" class="node">
<title>Pictorial</title>
<g id="a_node8"><a xlink:href="http://emmo.info/emmo/middle/perceptual#EMMO_1da53c06_9577_4008_8652_272fa3b62be7" xlink:title="Pictorial">
<ellipse fill="#ffffcc" stroke="#000000" cx="405.3466" cy="-172" rx="40.0939" ry="18"/>
<text text-anchor="middle" x="405.3466" y="-168.3" font-family="Times,serif" font-size="14.00" fill="#000000">Pictorial</text>
</a>
</g>
</g>
<!-- Pictorial&#45;&gt;Graphical -->
<g id="edge10" class="edge">
<title>Pictorial&#45;&gt;Graphical</title>
<path fill="none" stroke="#000000" d="M382.2067,-186.744C365.7818,-197.2094 343.4968,-211.4087 325.2289,-223.0485"/>
<polygon fill="none" stroke="#000000" points="323.1797,-220.204 316.627,-228.5293 326.9413,-226.1074 323.1797,-220.204"/>
</g>
<!-- SymbolicComposition -->
<g id="node9" class="node">
<title>SymbolicComposition</title>
<g id="a_node9"><a xlink:href="http://emmo.info/emmo/middle/perceptual#EMMO_89a0c87c_0804_4013_937a_6fe234d9499c" xlink:title="SymbolicComposition">
<ellipse fill="#ffffcc" stroke="#000000" cx="377.3466" cy="-100" rx="90.9839" ry="18"/>
<text text-anchor="middle" x="377.3466" y="-96.3" font-family="Times,serif" font-size="14.00" fill="#000000">SymbolicComposition</text>
</a>
</g>
</g>
<!-- SymbolicComposition&#45;&gt;Symbolic -->
<g id="edge11" class="edge">
<title>SymbolicComposition&#45;&gt;Symbolic</title>
<path fill="none" stroke="#000000" d="M328.8716,-115.2693C294.4873,-127.0159 248.9453,-143.2293 216.3558,-155.3158"/>
<polygon fill="none" stroke="#000000" points="214.8297,-152.1495 206.6844,-158.9248 217.277,-158.7078 214.8297,-152.1495"/>
</g>
<!-- SymbolicComposition&#45;&gt;Symbolic -->
<g id="edge12" class="edge">
<title>SymbolicComposition&#45;&gt;Symbolic</title>
<path fill="none" stroke="#006400" d="M337.2705,-116.3379C303.6641,-128.8151 255.8205,-145.8379 220.7973,-157.7621"/>
<polygon fill="#006400" stroke="#006400" points="219.632,-154.4614 211.2814,-160.9821 221.8757,-161.0921 219.632,-154.4614"/>
</g>
<!-- key1 -->
<g id="node11" class="node">
<title>key1</title>
<text text-anchor="start" x="468.3466" y="-28.8" font-family="Times,serif" font-size="14.00" fill="#000000">isA</text>
<text text-anchor="start" x="375.3466" y="-9.8" font-family="Times,serif" font-size="14.00" fill="#000000">hasSpatialDirectPart</text>
</g>
<!-- key2 -->
<g id="node12" class="node">
<title>key2</title>
<text text-anchor="start" x="540.3466" y="-28.8" font-family="Times,serif" font-size="14.00" fill="#000000"> </text>
<text text-anchor="start" x="540.3466" y="-9.8" font-family="Times,serif" font-size="14.00" fill="#000000"> </text>
</g>
<!-- key1&#45;&gt;key2 -->
<g id="edge13" class="edge">
<title>key1:e&#45;&gt;key2:w</title>
<path fill="none" stroke="#006400" d="M489.3466,-13C507.2112,-13 514.0849,-13 527.9996,-13"/>
<polygon fill="#006400" stroke="#006400" points="528.3466,-16.5001 538.3466,-13 528.3466,-9.5001 528.3466,-16.5001"/>
</g>
<!-- key1&#45;&gt;key2 -->
<g id="edge14" class="edge">
<title>key1:e&#45;&gt;key2:w</title>
<path fill="none" stroke="#000000" d="M489.3466,-33C507.2112,-33 514.0849,-33 527.9996,-33"/>
<polygon fill="none" stroke="#000000" points="528.3466,-36.5001 538.3466,-33 528.3466,-29.5001 528.3466,-36.5001"/>
</g>
</g>
</svg>
