<?xml version="1.0" encoding="UTF-8" standalone="no"?>
<!DOCTYPE svg PUBLIC "-//W3C//DTD SVG 1.1//EN"
 "http://www.w3.org/Graphics/SVG/1.1/DTD/svg11.dtd">
<!-- Generated by graphviz version 2.40.1 (20161225.0304)
 -->
<!-- Title: %3 Pages: 1 -->
<svg width="555pt" height="270pt"
 viewBox="0.00 0.00 554.54 270.00" xmlns="http://www.w3.org/2000/svg" xmlns:xlink="http://www.w3.org/1999/xlink">
<g id="graph0" class="graph" transform="scale(1 1) rotate(0) translate(4 266)">
<title>%3</title>
<polygon fill="#ffffff" stroke="transparent" points="-4,4 -4,-266 550.5369,-266 550.5369,4 -4,4"/>
<!-- Geometrical -->
<g id="node1" class="node">
<title>Geometrical</title>
<g id="a_node1"><a xlink:href="http://emmo.info/emmo/middle/perceptual#EMMO_b5957cef_a287_442d_a3ce_fd39f20ba1cd" xlink:title="Geometrical">
<ellipse fill="#ffffcc" stroke="#000000" stroke-width="2" cx="146.545" cy="-172" rx="54.6905" ry="18"/>
<text text-anchor="middle" x="146.545" y="-168.3" font-family="Times,serif" font-size="14.00" fill="#000000">Geometrical</text>
</a>
</g>
</g>
<!-- Graphical -->
<g id="node6" class="node">
<title>Graphical</title>
<g id="a_node6"><a xlink:href="http://emmo.info/emmo/middle/perceptual#EMMO_c74da218_9147_4f03_92d1_8894abca55f3" xlink:title="Graphical">
<ellipse fill="#ffffcc" stroke="#000000" stroke-width="2" cx="263.545" cy="-244" rx="45.4919" ry="18"/>
<text text-anchor="middle" x="263.545" y="-240.3" font-family="Times,serif" font-size="14.00" fill="#000000">Graphical</text>
</a>
</g>
</g>
<!-- Geometrical&#45;&gt;Graphical -->
<g id="edge1" class="edge">
<title>Geometrical&#45;&gt;Graphical</title>
<path fill="none" stroke="#000000" d="M172.5111,-187.9791C189.5205,-198.4465 211.9105,-212.225 230.2288,-223.4978"/>
<polygon fill="none" stroke="#000000" points="228.502,-226.5447 238.8529,-228.8049 232.1707,-220.5831 228.502,-226.5447"/>
</g>
<!-- Language -->
<g id="node2" class="node">
<title>Language</title>
<g id="a_node2"><a xlink:href="http://emmo.info/emmo/middle/perceptual#EMMO_d8d2144e_5c8d_455d_a643_5caf4d8d9df8" xlink:title="Language">
<ellipse fill="#ffffcc" stroke="#000000" cx="123.545" cy="-100" rx="45.4919" ry="18"/>
<text text-anchor="middle" x="123.545" y="-96.3" font-family="Times,serif" font-size="14.00" fill="#000000">Language</text>
</a>
</g>
</g>
<!-- Symbolic -->
<g id="node5" class="node">
<title>Symbolic</title>
<g id="a_node5"><a xlink:href="http://emmo.info/emmo/middle/perceptual#EMMO_057e7d57_aff0_49de_911a_8861d85cef40" xlink:title="Symbolic">
<ellipse fill="#ffffcc" stroke="#000000" cx="263.545" cy="-172" rx="44.6926" ry="18"/>
<text text-anchor="middle" x="263.545" y="-168.3" font-family="Times,serif" font-size="14.00" fill="#000000">Symbolic</text>
</a>
</g>
</g>
<!-- Language&#45;&gt;Symbolic -->
<g id="edge2" class="edge">
<title>Language&#45;&gt;Symbolic</title>
<path fill="none" stroke="#000000" d="M151.5396,-114.3972C173.0957,-125.4832 203.0852,-140.9064 226.6081,-153.0039"/>
<polygon fill="none" stroke="#000000" points="225.1053,-156.1667 235.5989,-157.6277 228.3067,-149.9417 225.1053,-156.1667"/>
</g>
<!-- Metrological -->
<g id="node3" class="node">
<title>Metrological</title>
<g id="a_node3"><a xlink:href="http://emmo.info/emmo/middle/metrology#EMMO_985bec21_989f_4b9e_a4b3_735d88099c3c" xlink:title="Metrological">
<ellipse fill="#ffffcc" stroke="#000000" stroke-width="2" cx="56.545" cy="-23" rx="56.59" ry="18"/>
<text text-anchor="middle" x="56.545" y="-19.3" font-family="Times,serif" font-size="14.00" fill="#000000">Metrological</text>
</a>
</g>
</g>
<!-- Metrological&#45;&gt;Language -->
<g id="edge4" class="edge">
<title>Metrological&#45;&gt;Language</title>
<path fill="none" stroke="#000000" d="M71.7483,-40.4725C80.6338,-50.6842 91.9966,-63.7429 101.8143,-75.026"/>
<polygon fill="none" stroke="#000000" points="99.428,-77.6154 108.6326,-82.8619 104.7088,-73.0204 99.428,-77.6154"/>
</g>
<!-- String -->
<g id="node4" class="node">
<title>String</title>
<g id="a_node4"><a xlink:href="http://emmo.info/emmo/middle/perceptual#EMMO_50ea1ec5_f157_41b0_b46b_a9032f17ca10" xlink:title="String">
<ellipse fill="#ffffcc" stroke="#000000" cx="219.545" cy="-100" rx="32.4942" ry="18"/>
<text text-anchor="middle" x="219.545" y="-96.3" font-family="Times,serif" font-size="14.00" fill="#000000">String</text>
</a>
</g>
</g>
<!-- String&#45;&gt;Symbolic -->
<g id="edge7" class="edge">
<title>String&#45;&gt;Symbolic</title>
<path fill="none" stroke="#000000" d="M229.9724,-117.063C235.1721,-125.5716 241.5775,-136.0532 247.3946,-145.5721"/>
<polygon fill="none" stroke="#000000" points="244.5319,-147.5998 252.7329,-154.3076 250.5049,-143.9497 244.5319,-147.5998"/>
</g>
<!-- Symbol -->
<g id="node9" class="node">
<title>Symbol</title>
<g id="a_node9"><a xlink:href="http://emmo.info/emmo/middle/perceptual#EMMO_a1083d0a_c1fb_471f_8e20_a98f881ad527" xlink:title="Symbol">
<ellipse fill="#ffffcc" stroke="#000000" stroke-width="2" cx="308.545" cy="-100" rx="38.1938" ry="18"/>
<text text-anchor="middle" x="308.545" y="-96.3" font-family="Times,serif" font-size="14.00" fill="#000000">Symbol</text>
</a>
</g>
</g>
<!-- String&#45;&gt;Symbol -->
<g id="edge8" class="edge">
<title>String&#45;&gt;Symbol</title>
<path fill="none" stroke="#006400" d="M245.2715,-111.0973C253.2657,-113.1435 261.2598,-113.8828 269.254,-113.315"/>
<polygon fill="#006400" stroke="#006400" points="269.962,-116.7501 279.3799,-111.8968 268.9911,-109.8178 269.962,-116.7501"/>
</g>
<!-- String&#45;&gt;Symbol -->
<g id="edge9" class="edge">
<title>String&#45;&gt;Symbol</title>
<path fill="none" stroke="#006400" d="M245.2715,-88.9027C253.2657,-86.8565 261.2598,-86.1172 269.254,-86.685"/>
<polygon fill="#006400" stroke="#006400" points="268.9911,-90.1822 279.3799,-88.1032 269.962,-83.2499 268.9911,-90.1822"/>
</g>
<!-- Symbolic&#45;&gt;Graphical -->
<g id="edge10" class="edge">
<title>Symbolic&#45;&gt;Graphical</title>
<path fill="none" stroke="#000000" d="M263.545,-190.1686C263.545,-197.869 263.545,-207.0257 263.545,-215.5834"/>
<polygon fill="none" stroke="#000000" points="260.0451,-215.5867 263.545,-225.5867 267.0451,-215.5868 260.0451,-215.5867"/>
</g>
<!-- Pictorial -->
<g id="node7" class="node">
<title>Pictorial</title>
<g id="a_node7"><a xlink:href="http://emmo.info/emmo/middle/perceptual#EMMO_1da53c06_9577_4008_8652_272fa3b62be7" xlink:title="Pictorial">
<ellipse fill="#ffffcc" stroke="#000000" cx="366.545" cy="-172" rx="40.0939" ry="18"/>
<text text-anchor="middle" x="366.545" y="-168.3" font-family="Times,serif" font-size="14.00" fill="#000000">Pictorial</text>
</a>
</g>
</g>
<!-- Pictorial&#45;&gt;Graphical -->
<g id="edge5" class="edge">
<title>Pictorial&#45;&gt;Graphical</title>
<path fill="none" stroke="#000000" d="M344.7013,-187.2693C330.1524,-197.4395 310.8132,-210.9581 294.6629,-222.2477"/>
<polygon fill="none" stroke="#000000" points="292.26,-219.657 286.0692,-228.2549 296.2705,-225.3942 292.26,-219.657"/>
</g>
<!-- SymbolicComposition -->
<g id="node8" class="node">
<title>SymbolicComposition</title>
<g id="a_node8"><a xlink:href="http://emmo.info/emmo/middle/perceptual#EMMO_89a0c87c_0804_4013_937a_6fe234d9499c" xlink:title="SymbolicComposition">
<ellipse fill="#ffffcc" stroke="#000000" cx="455.545" cy="-100" rx="90.9839" ry="18"/>
<text text-anchor="middle" x="455.545" y="-96.3" font-family="Times,serif" font-size="14.00" fill="#000000">SymbolicComposition</text>
</a>
</g>
</g>
<!-- SymbolicComposition&#45;&gt;Symbolic -->
<g id="edge11" class="edge">
<title>SymbolicComposition&#45;&gt;Symbolic</title>
<path fill="none" stroke="#000000" d="M408.6989,-115.4458C376.3855,-127.0415 333.9917,-142.9157 303.3143,-154.8948"/>
<polygon fill="none" stroke="#000000" points="301.8201,-151.7214 293.7935,-158.6369 304.3807,-158.2363 301.8201,-151.7214"/>
</g>
<!-- SymbolicComposition&#45;&gt;Symbolic -->
<g id="edge12" class="edge">
<title>SymbolicComposition&#45;&gt;Symbolic</title>
<path fill="none" stroke="#006400" d="M417.2772,-116.5183C385.79,-128.8369 341.2524,-145.5107 308.1571,-157.3548"/>
<polygon fill="#006400" stroke="#006400" points="306.9639,-154.0643 298.7143,-160.7123 309.3091,-160.6598 306.9639,-154.0643"/>
</g>
<!-- Symbol&#45;&gt;Symbolic -->
<g id="edge3" class="edge">
<title>Symbol&#45;&gt;Symbolic</title>
<path fill="none" stroke="#000000" d="M297.6517,-117.4292C292.3295,-125.9447 285.8142,-136.3692 279.9093,-145.817"/>
<polygon fill="none" stroke="#000000" points="276.8259,-144.1468 274.4939,-154.4818 282.7619,-147.8568 276.8259,-144.1468"/>
</g>
<!-- Mathematical -->
<g id="node10" class="node">
<title>Mathematical</title>
<g id="a_node10"><a xlink:href="http://emmo.info/emmo/middle/math#EMMO_54ee6b5e_5261_44a8_86eb_5717e7fdb9d0" xlink:title="Mathematical">
<ellipse fill="#ffffcc" stroke="#000000" stroke-width="2" cx="190.545" cy="-23" rx="59.5901" ry="18"/>
<text text-anchor="middle" x="190.545" y="-19.3" font-family="Times,serif" font-size="14.00" fill="#000000">Mathematical</text>
</a>
</g>
</g>
<!-- Mathematical&#45;&gt;Language -->
<g id="edge6" class="edge">
<title>Mathematical&#45;&gt;Language</title>
<path fill="none" stroke="#000000" d="M175.3416,-40.4725C166.4561,-50.6842 155.0934,-63.7429 145.2756,-75.026"/>
<polygon fill="none" stroke="#000000" points="142.3812,-73.0204 138.4574,-82.8619 147.662,-77.6154 142.3812,-73.0204"/>
</g>
<!-- key1 -->
<g id="node11" class="node">
<title>key1</title>
<text text-anchor="start" x="371.545" y="-28.8" font-family="Times,serif" font-size="14.00" fill="#000000">isA</text>
<text text-anchor="start" x="278.545" y="-9.8" font-family="Times,serif" font-size="14.00" fill="#000000">hasSpatialDirectPart</text>
</g>
<!-- key2 -->
<g id="node12" class="node">
<title>key2</title>
<text text-anchor="start" x="443.545" y="-28.8" font-family="Times,serif" font-size="14.00" fill="#000000"> </text>
<text text-anchor="start" x="443.545" y="-9.8" font-family="Times,serif" font-size="14.00" fill="#000000"> </text>
</g>
<!-- key1&#45;&gt;key2 -->
<g id="edge13" class="edge">
<title>key1:e&#45;&gt;key2:w</title>
<path fill="none" stroke="#006400" d="M392.545,-13C410.4096,-13 417.2832,-13 431.198,-13"/>
<polygon fill="#006400" stroke="#006400" points="431.545,-16.5001 441.545,-13 431.5449,-9.5001 431.545,-16.5001"/>
</g>
<!-- key1&#45;&gt;key2 -->
<g id="edge14" class="edge">
<title>key1:e&#45;&gt;key2:w</title>
<path fill="none" stroke="#000000" d="M392.545,-33C410.4096,-33 417.2832,-33 431.198,-33"/>
<polygon fill="none" stroke="#000000" points="431.545,-36.5001 441.545,-33 431.5449,-29.5001 431.545,-36.5001"/>
</g>
</g>
</svg>
