<?xml version="1.0" encoding="UTF-8" standalone="no"?>
<!DOCTYPE svg PUBLIC "-//W3C//DTD SVG 1.1//EN"
 "http://www.w3.org/Graphics/SVG/1.1/DTD/svg11.dtd">
<!-- Generated by graphviz version 2.40.1 (20161225.0304)
 -->
<!-- Title: %3 Pages: 1 -->
<svg width="852pt" height="270pt"
 viewBox="0.00 0.00 851.60 270.00" xmlns="http://www.w3.org/2000/svg" xmlns:xlink="http://www.w3.org/1999/xlink">
<g id="graph0" class="graph" transform="scale(1 1) rotate(0) translate(4 266)">
<title>%3</title>
<polygon fill="#ffffff" stroke="transparent" points="-4,4 -4,-266 847.5952,-266 847.5952,4 -4,4"/>
<!-- Language -->
<g id="node1" class="node">
<title>Language</title>
<g id="a_node1"><a xlink:href="http://emmo.info/emmo/middle/perceptual#EMMO_d8d2144e_5c8d_455d_a643_5caf4d8d9df8" xlink:title="Language">
<ellipse fill="#ffffcc" stroke="#000000" cx="494.5952" cy="-100" rx="45.4919" ry="18"/>
<text text-anchor="middle" x="494.5952" y="-96.3" font-family="Times,serif" font-size="14.00" fill="#000000">Language</text>
</a>
</g>
</g>
<!-- Symbolic -->
<g id="node3" class="node">
<title>Symbolic</title>
<g id="a_node3"><a xlink:href="http://emmo.info/emmo/middle/perceptual#EMMO_057e7d57_aff0_49de_911a_8861d85cef40" xlink:title="Symbolic">
<ellipse fill="#ffffcc" stroke="#000000" cx="270.5952" cy="-172" rx="44.6926" ry="18"/>
<text text-anchor="middle" x="270.5952" y="-168.3" font-family="Times,serif" font-size="14.00" fill="#000000">Symbolic</text>
</a>
</g>
</g>
<!-- Language&#45;&gt;Symbolic -->
<g id="edge6" class="edge">
<title>Language&#45;&gt;Symbolic</title>
<path fill="none" stroke="#000000" d="M459.7611,-111.6919C453.3904,-113.8073 446.7971,-115.9814 440.5952,-118 398.3835,-131.7387 350.1412,-147.0231 315.8577,-157.8144"/>
<polygon fill="none" stroke="#000000" points="314.6217,-154.534 306.1324,-160.8729 316.7218,-161.2115 314.6217,-154.534"/>
</g>
<!-- Metrological -->
<g id="node2" class="node">
<title>Metrological</title>
<g id="a_node2"><a xlink:href="http://emmo.info/emmo/middle/metrology#EMMO_985bec21_989f_4b9e_a4b3_735d88099c3c" xlink:title="Metrological">
<ellipse fill="#ffffcc" stroke="#000000" stroke-width="2" cx="427.5952" cy="-23" rx="56.59" ry="18"/>
<text text-anchor="middle" x="427.5952" y="-19.3" font-family="Times,serif" font-size="14.00" fill="#000000">Metrological</text>
</a>
</g>
</g>
<!-- Metrological&#45;&gt;Language -->
<g id="edge1" class="edge">
<title>Metrological&#45;&gt;Language</title>
<path fill="none" stroke="#000000" d="M442.7985,-40.4725C451.684,-50.6842 463.0468,-63.7429 472.8645,-75.026"/>
<polygon fill="none" stroke="#000000" points="470.4781,-77.6154 479.6828,-82.8619 475.7589,-73.0204 470.4781,-77.6154"/>
</g>
<!-- Graphical -->
<g id="node6" class="node">
<title>Graphical</title>
<g id="a_node6"><a xlink:href="http://emmo.info/emmo/middle/perceptual#EMMO_c74da218_9147_4f03_92d1_8894abca55f3" xlink:title="Graphical">
<ellipse fill="#ffffcc" stroke="#000000" stroke-width="2" cx="167.5952" cy="-244" rx="45.4919" ry="18"/>
<text text-anchor="middle" x="167.5952" y="-240.3" font-family="Times,serif" font-size="14.00" fill="#000000">Graphical</text>
</a>
</g>
</g>
<!-- Symbolic&#45;&gt;Graphical -->
<g id="edge10" class="edge">
<title>Symbolic&#45;&gt;Graphical</title>
<path fill="none" stroke="#000000" d="M248.2457,-187.6229C233.7684,-197.7429 214.7086,-211.0663 198.7529,-222.2199"/>
<polygon fill="none" stroke="#000000" points="196.4475,-219.561 190.2567,-228.1589 200.458,-225.2982 196.4475,-219.561"/>
</g>
<!-- Geometrical -->
<g id="node4" class="node">
<title>Geometrical</title>
<g id="a_node4"><a xlink:href="http://emmo.info/emmo/middle/perceptual#EMMO_b5957cef_a287_442d_a3ce_fd39f20ba1cd" xlink:title="Geometrical">
<ellipse fill="#ffffcc" stroke="#000000" stroke-width="2" cx="54.5952" cy="-172" rx="54.6905" ry="18"/>
<text text-anchor="middle" x="54.5952" y="-168.3" font-family="Times,serif" font-size="14.00" fill="#000000">Geometrical</text>
</a>
</g>
</g>
<!-- Geometrical&#45;&gt;Graphical -->
<g id="edge4" class="edge">
<title>Geometrical&#45;&gt;Graphical</title>
<path fill="none" stroke="#000000" d="M79.9546,-188.1582C96.1348,-198.4677 117.2701,-211.9345 134.7312,-223.0601"/>
<polygon fill="none" stroke="#000000" points="133.1673,-226.2137 143.4816,-228.6356 136.9288,-220.3102 133.1673,-226.2137"/>
</g>
<!-- Symbol -->
<g id="node5" class="node">
<title>Symbol</title>
<g id="a_node5"><a xlink:href="http://emmo.info/emmo/middle/perceptual#EMMO_a1083d0a_c1fb_471f_8e20_a98f881ad527" xlink:title="Symbol">
<ellipse fill="#ffffcc" stroke="#000000" stroke-width="2" cx="110.5952" cy="-100" rx="38.1938" ry="18"/>
<text text-anchor="middle" x="110.5952" y="-96.3" font-family="Times,serif" font-size="14.00" fill="#000000">Symbol</text>
</a>
</g>
</g>
<!-- Symbol&#45;&gt;Symbolic -->
<g id="edge5" class="edge">
<title>Symbol&#45;&gt;Symbolic</title>
<path fill="none" stroke="#000000" d="M138.465,-112.5414C164.1254,-124.0886 202.4598,-141.3391 231.2388,-154.2896"/>
<polygon fill="none" stroke="#000000" points="230.0446,-157.5903 240.6001,-158.5022 232.9172,-151.2068 230.0446,-157.5903"/>
</g>
<!-- String -->
<g id="node7" class="node">
<title>String</title>
<g id="a_node7"><a xlink:href="http://emmo.info/emmo/middle/perceptual#EMMO_50ea1ec5_f157_41b0_b46b_a9032f17ca10" xlink:title="String">
<ellipse fill="#ffffcc" stroke="#000000" cx="199.5952" cy="-100" rx="32.4942" ry="18"/>
<text text-anchor="middle" x="199.5952" y="-96.3" font-family="Times,serif" font-size="14.00" fill="#000000">String</text>
</a>
</g>
</g>
<!-- String&#45;&gt;Symbolic -->
<g id="edge7" class="edge">
<title>String&#45;&gt;Symbolic</title>
<path fill="none" stroke="#000000" d="M215.3524,-115.9791C224.5572,-125.3137 236.3588,-137.2814 246.6889,-147.7571"/>
<polygon fill="none" stroke="#000000" points="244.3791,-150.3995 253.8927,-155.0623 249.3634,-145.4844 244.3791,-150.3995"/>
</g>
<!-- String&#45;&gt;Symbol -->
<g id="edge8" class="edge">
<title>String&#45;&gt;Symbol</title>
<path fill="none" stroke="#006400" d="M173.9012,-111.0889C165.9083,-113.1384 157.9154,-113.8813 149.9226,-113.3176"/>
<polygon fill="#006400" stroke="#006400" points="150.1861,-109.8205 139.7983,-111.9048 149.2186,-116.7534 150.1861,-109.8205"/>
</g>
<!-- String&#45;&gt;Symbol -->
<g id="edge9" class="edge">
<title>String&#45;&gt;Symbol</title>
<path fill="none" stroke="#006400" d="M173.9012,-88.9111C165.9083,-86.8616 157.9154,-86.1187 149.9226,-86.6824"/>
<polygon fill="#006400" stroke="#006400" points="149.2186,-83.2466 139.7983,-88.0952 150.1861,-90.1795 149.2186,-83.2466"/>
</g>
<!-- Pictorial -->
<g id="node8" class="node">
<title>Pictorial</title>
<g id="a_node8"><a xlink:href="http://emmo.info/emmo/middle/perceptual#EMMO_1da53c06_9577_4008_8652_272fa3b62be7" xlink:title="Pictorial">
<ellipse fill="#ffffcc" stroke="#000000" cx="167.5952" cy="-172" rx="40.0939" ry="18"/>
<text text-anchor="middle" x="167.5952" y="-168.3" font-family="Times,serif" font-size="14.00" fill="#000000">Pictorial</text>
</a>
</g>
</g>
<!-- Pictorial&#45;&gt;Graphical -->
<g id="edge3" class="edge">
<title>Pictorial&#45;&gt;Graphical</title>
<path fill="none" stroke="#000000" d="M167.5952,-190.1686C167.5952,-197.869 167.5952,-207.0257 167.5952,-215.5834"/>
<polygon fill="none" stroke="#000000" points="164.0953,-215.5867 167.5952,-225.5867 171.0953,-215.5868 164.0953,-215.5867"/>
</g>
<!-- SymbolicComposition -->
<g id="node9" class="node">
<title>SymbolicComposition</title>
<g id="a_node9"><a xlink:href="http://emmo.info/emmo/middle/perceptual#EMMO_89a0c87c_0804_4013_937a_6fe234d9499c" xlink:title="SymbolicComposition">
<ellipse fill="#ffffcc" stroke="#000000" cx="340.5952" cy="-100" rx="90.9839" ry="18"/>
<text text-anchor="middle" x="340.5952" y="-96.3" font-family="Times,serif" font-size="14.00" fill="#000000">SymbolicComposition</text>
</a>
</g>
</g>
<!-- SymbolicComposition&#45;&gt;Symbolic -->
<g id="edge11" class="edge">
<title>SymbolicComposition&#45;&gt;Symbolic</title>
<path fill="none" stroke="#000000" d="M317.7719,-117.4292C308.2368,-126.2959 297.4093,-137.2322 288.4567,-146.9806"/>
<polygon fill="none" stroke="#000000" points="285.8032,-144.6973 281.7394,-154.4818 291.0179,-149.3671 285.8032,-144.6973"/>
</g>
<!-- SymbolicComposition&#45;&gt;Symbolic -->
<g id="edge12" class="edge">
<title>SymbolicComposition&#45;&gt;Symbolic</title>
<path fill="none" stroke="#006400" d="M328.8836,-118.1686C320.6728,-127.5549 309.5716,-139.1049 299.1988,-149.0964"/>
<polygon fill="#006400" stroke="#006400" points="296.7041,-146.6381 291.8262,-156.0432 301.5045,-151.7328 296.7041,-146.6381"/>
</g>
<!-- Mathematical -->
<g id="node10" class="node">
<title>Mathematical</title>
<g id="a_node10"><a xlink:href="http://emmo.info/emmo/middle/math#EMMO_54ee6b5e_5261_44a8_86eb_5717e7fdb9d0" xlink:title="Mathematical">
<ellipse fill="#ffffcc" stroke="#000000" stroke-width="2" cx="561.5952" cy="-23" rx="59.5901" ry="18"/>
<text text-anchor="middle" x="561.5952" y="-19.3" font-family="Times,serif" font-size="14.00" fill="#000000">Mathematical</text>
</a>
</g>
</g>
<!-- Mathematical&#45;&gt;Language -->
<g id="edge2" class="edge">
<title>Mathematical&#45;&gt;Language</title>
<path fill="none" stroke="#000000" d="M546.3918,-40.4725C537.5063,-50.6842 526.1435,-63.7429 516.3258,-75.026"/>
<polygon fill="none" stroke="#000000" points="513.4314,-73.0204 509.5075,-82.8619 518.7122,-77.6154 513.4314,-73.0204"/>
</g>
<!-- key1 -->
<g id="node11" class="node">
<title>key1</title>
<text text-anchor="start" x="742.5952" y="-28.8" font-family="Times,serif" font-size="14.00" fill="#000000">isA</text>
<text text-anchor="start" x="649.5952" y="-9.8" font-family="Times,serif" font-size="14.00" fill="#000000">hasSpatialDirectPart</text>
</g>
<!-- key2 -->
<g id="node12" class="node">
<title>key2</title>
<text text-anchor="start" x="814.5952" y="-28.8" font-family="Times,serif" font-size="14.00" fill="#000000"> </text>
<text text-anchor="start" x="814.5952" y="-9.8" font-family="Times,serif" font-size="14.00" fill="#000000"> </text>
</g>
<!-- key1&#45;&gt;key2 -->
<g id="edge13" class="edge">
<title>key1:e&#45;&gt;key2:w</title>
<path fill="none" stroke="#006400" d="M763.5952,-13C781.4597,-13 788.3334,-13 802.2481,-13"/>
<polygon fill="#006400" stroke="#006400" points="802.5952,-16.5001 812.5952,-13 802.5951,-9.5001 802.5952,-16.5001"/>
</g>
<!-- key1&#45;&gt;key2 -->
<g id="edge14" class="edge">
<title>key1:e&#45;&gt;key2:w</title>
<path fill="none" stroke="#000000" d="M763.5952,-33C781.4597,-33 788.3334,-33 802.2481,-33"/>
<polygon fill="none" stroke="#000000" points="802.5952,-36.5001 812.5952,-33 802.5951,-29.5001 802.5952,-36.5001"/>
</g>
</g>
</svg>
