<?xml version="1.0" encoding="UTF-8" standalone="no"?>
<!DOCTYPE svg PUBLIC "-//W3C//DTD SVG 1.1//EN"
 "http://www.w3.org/Graphics/SVG/1.1/DTD/svg11.dtd">
<!-- Generated by graphviz version 2.40.1 (20161225.0304)
 -->
<!-- Title: %3 Pages: 1 -->
<svg width="716pt" height="305pt"
 viewBox="0.00 0.00 716.29 305.00" xmlns="http://www.w3.org/2000/svg" xmlns:xlink="http://www.w3.org/1999/xlink">
<g id="graph0" class="graph" transform="scale(1 1) rotate(0) translate(4 301)">
<title>%3</title>
<polygon fill="#ffffff" stroke="transparent" points="-4,4 -4,-301 712.2884,-301 712.2884,4 -4,4"/>
<!-- SymbolicComposition -->
<g id="node1" class="node">
<title>SymbolicComposition</title>
<g id="a_node1"><a xlink:href="http://emmo.info/emmo/middle/perceptual#EMMO_89a0c87c_0804_4013_937a_6fe234d9499c" xlink:title="SymbolicComposition">
<ellipse fill="#ffffcc" stroke="#000000" cx="90.9919" cy="-105" rx="90.9839" ry="18"/>
<text text-anchor="middle" x="90.9919" y="-101.3" font-family="Times,serif" font-size="14.00" fill="#000000">SymbolicComposition</text>
</a>
</g>
</g>
<!-- Symbolic -->
<g id="node8" class="node">
<title>Symbolic</title>
<g id="a_node8"><a xlink:href="http://emmo.info/emmo/middle/perceptual#EMMO_057e7d57_aff0_49de_911a_8861d85cef40" xlink:title="Symbolic">
<ellipse fill="#ffffcc" stroke="#000000" cx="437.9919" cy="-192" rx="44.6926" ry="18"/>
<text text-anchor="middle" x="437.9919" y="-188.3" font-family="Times,serif" font-size="14.00" fill="#000000">Symbolic</text>
</a>
</g>
</g>
<!-- SymbolicComposition&#45;&gt;Symbolic -->
<g id="edge11" class="edge">
<title>SymbolicComposition&#45;&gt;Symbolic</title>
<path fill="none" stroke="#000000" d="M117.9005,-122.3562C136.7801,-133.7147 163.016,-147.9021 187.9919,-156 252.9672,-177.0669 331.4306,-185.8251 382.9116,-189.4539"/>
<polygon fill="none" stroke="#000000" points="382.9445,-192.9637 393.1542,-190.1332 383.4078,-185.979 382.9445,-192.9637"/>
<text text-anchor="middle" x="197.4919" y="-144.8" font-family="Times,serif" font-size="14.00" fill="#000000">isA</text>
</g>
<!-- SymbolicComposition&#45;&gt;Symbolic -->
<g id="edge12" class="edge">
<title>SymbolicComposition&#45;&gt;Symbolic</title>
<path fill="none" stroke="#006400" d="M148.0371,-119.0349C167.2383,-124.7122 188.4764,-132.0635 206.9919,-141 217.6497,-146.144 218.0217,-151.5611 228.9919,-156 278.9162,-176.2012 340.0224,-185.0704 383.2332,-188.9621"/>
<polygon fill="#006400" stroke="#006400" points="383.0076,-192.4554 393.2656,-189.8054 383.594,-185.48 383.0076,-192.4554"/>
<text text-anchor="middle" x="301.4919" y="-144.8" font-family="Times,serif" font-size="14.00" fill="#000000">hasSpatialDirectPart some</text>
</g>
<!-- Geometrical -->
<g id="node2" class="node">
<title>Geometrical</title>
<g id="a_node2"><a xlink:href="http://emmo.info/emmo/middle/perceptual#EMMO_b5957cef_a287_442d_a3ce_fd39f20ba1cd" xlink:title="Geometrical">
<ellipse fill="#ffffcc" stroke="#000000" stroke-width="2" cx="554.9919" cy="-192" rx="54.6905" ry="18"/>
<text text-anchor="middle" x="554.9919" y="-188.3" font-family="Times,serif" font-size="14.00" fill="#000000">Geometrical</text>
</a>
</g>
</g>
<!-- Graphical -->
<g id="node9" class="node">
<title>Graphical</title>
<g id="a_node9"><a xlink:href="http://emmo.info/emmo/middle/perceptual#EMMO_c74da218_9147_4f03_92d1_8894abca55f3" xlink:title="Graphical">
<ellipse fill="#ffffcc" stroke="#000000" stroke-width="2" cx="554.9919" cy="-279" rx="45.4919" ry="18"/>
<text text-anchor="middle" x="554.9919" y="-275.3" font-family="Times,serif" font-size="14.00" fill="#000000">Graphical</text>
</a>
</g>
</g>
<!-- Geometrical&#45;&gt;Graphical -->
<g id="edge6" class="edge">
<title>Geometrical&#45;&gt;Graphical</title>
<path fill="none" stroke="#000000" d="M554.9919,-210.0265C554.9919,-221.8082 554.9919,-237.4393 554.9919,-250.8419"/>
<polygon fill="none" stroke="#000000" points="551.492,-250.9966 554.9919,-260.9966 558.492,-250.9967 551.492,-250.9966"/>
<text text-anchor="middle" x="564.4919" y="-231.8" font-family="Times,serif" font-size="14.00" fill="#000000">isA</text>
</g>
<!-- Metrological -->
<g id="node3" class="node">
<title>Metrological</title>
<g id="a_node3"><a xlink:href="http://emmo.info/emmo/middle/units#EMMO_985bec21_989f_4b9e_a4b3_735d88099c3c" xlink:title="Metrological">
<ellipse fill="#ffffcc" stroke="#000000" stroke-width="2" cx="499.9919" cy="-18" rx="56.59" ry="18"/>
<text text-anchor="middle" x="499.9919" y="-14.3" font-family="Times,serif" font-size="14.00" fill="#000000">Metrological</text>
</a>
</g>
</g>
<!-- Language -->
<g id="node6" class="node">
<title>Language</title>
<g id="a_node6"><a xlink:href="http://emmo.info/emmo/middle/perceptual#EMMO_d8d2144e_5c8d_455d_a643_5caf4d8d9df8" xlink:title="Language">
<ellipse fill="#ffffcc" stroke="#000000" cx="566.9919" cy="-105" rx="45.4919" ry="18"/>
<text text-anchor="middle" x="566.9919" y="-101.3" font-family="Times,serif" font-size="14.00" fill="#000000">Language</text>
</a>
</g>
</g>
<!-- Metrological&#45;&gt;Language -->
<g id="edge2" class="edge">
<title>Metrological&#45;&gt;Language</title>
<path fill="none" stroke="#000000" d="M513.5504,-35.6057C523.24,-48.1878 536.4292,-65.3141 547.2803,-79.4043"/>
<polygon fill="none" stroke="#000000" points="544.8077,-81.93 553.6823,-87.7173 550.3538,-77.6589 544.8077,-81.93"/>
<text text-anchor="middle" x="547.4919" y="-57.8" font-family="Times,serif" font-size="14.00" fill="#000000">isA</text>
</g>
<!-- Mathematical -->
<g id="node4" class="node">
<title>Mathematical</title>
<g id="a_node4"><a xlink:href="http://emmo.info/emmo/middle/math#EMMO_54ee6b5e_5261_44a8_86eb_5717e7fdb9d0" xlink:title="Mathematical">
<ellipse fill="#ffffcc" stroke="#000000" stroke-width="2" cx="633.9919" cy="-18" rx="59.5901" ry="18"/>
<text text-anchor="middle" x="633.9919" y="-14.3" font-family="Times,serif" font-size="14.00" fill="#000000">Mathematical</text>
</a>
</g>
</g>
<!-- Mathematical&#45;&gt;Language -->
<g id="edge7" class="edge">
<title>Mathematical&#45;&gt;Language</title>
<path fill="none" stroke="#000000" d="M620.4335,-35.6057C610.7439,-48.1878 597.5547,-65.3141 586.7036,-79.4043"/>
<polygon fill="none" stroke="#000000" points="583.6301,-77.6589 580.3016,-87.7173 589.1761,-81.93 583.6301,-77.6589"/>
<text text-anchor="middle" x="613.4919" y="-57.8" font-family="Times,serif" font-size="14.00" fill="#000000">isA</text>
</g>
<!-- Symbol -->
<g id="node5" class="node">
<title>Symbol</title>
<g id="a_node5"><a xlink:href="http://emmo.info/emmo/middle/perceptual#EMMO_a1083d0a_c1fb_471f_8e20_a98f881ad527" xlink:title="Symbol">
<ellipse fill="#ffffcc" stroke="#000000" stroke-width="2" cx="237.9919" cy="-105" rx="38.1938" ry="18"/>
<text text-anchor="middle" x="237.9919" y="-101.3" font-family="Times,serif" font-size="14.00" fill="#000000">Symbol</text>
</a>
</g>
</g>
<!-- Symbol&#45;&gt;Symbolic -->
<g id="edge3" class="edge">
<title>Symbol&#45;&gt;Symbolic</title>
<path fill="none" stroke="#000000" d="M275.0047,-109.8404C304.218,-114.7397 345.3483,-124.0845 377.9919,-141 391.3403,-147.917 404.2923,-158.3022 414.7253,-167.8997"/>
<polygon fill="none" stroke="#000000" points="412.5276,-170.6405 422.1773,-175.0148 417.3616,-165.5777 412.5276,-170.6405"/>
<text text-anchor="middle" x="409.4919" y="-144.8" font-family="Times,serif" font-size="14.00" fill="#000000">isA</text>
</g>
<!-- Language&#45;&gt;Symbolic -->
<g id="edge1" class="edge">
<title>Language&#45;&gt;Symbolic</title>
<path fill="none" stroke="#000000" d="M543.9293,-120.5539C523.2372,-134.509 492.6783,-155.1185 469.6923,-170.6207"/>
<polygon fill="none" stroke="#000000" points="467.6235,-167.7943 461.2898,-176.2875 471.5376,-173.5978 467.6235,-167.7943"/>
<text text-anchor="middle" x="520.4919" y="-144.8" font-family="Times,serif" font-size="14.00" fill="#000000">isA</text>
</g>
<!-- String -->
<g id="node7" class="node">
<title>String</title>
<g id="a_node7"><a xlink:href="http://emmo.info/emmo/middle/perceptual#EMMO_50ea1ec5_f157_41b0_b46b_a9032f17ca10" xlink:title="String">
<ellipse fill="#ffffcc" stroke="#000000" cx="470.9919" cy="-105" rx="32.4942" ry="18"/>
<text text-anchor="middle" x="470.9919" y="-101.3" font-family="Times,serif" font-size="14.00" fill="#000000">String</text>
</a>
</g>
</g>
<!-- String&#45;&gt;Symbol -->
<g id="edge9" class="edge">
<title>String&#45;&gt;Symbol</title>
<path fill="none" stroke="#006400" d="M438.4794,-105C399.0666,-105 332.2775,-105 286.707,-105"/>
<polygon fill="#006400" stroke="#006400" points="286.4672,-101.5001 276.4671,-105 286.4671,-108.5001 286.4672,-101.5001"/>
<text text-anchor="middle" x="357.4167" y="-90.8" font-family="Times,serif" font-size="14.00" fill="#000000">hasSpatialDirectPart some</text>
</g>
<!-- String&#45;&gt;Symbol -->
<g id="edge10" class="edge">
<title>String&#45;&gt;Symbol</title>
<path fill="none" stroke="#006400" d="M446.3397,-117.0189C440.1426,-119.4906 433.4052,-121.7261 426.9167,-123 396.6064,-128.9507 318.3444,-128.3177 287.9167,-123 284.0452,-122.3234 280.0777,-121.3725 276.1538,-120.2575"/>
<polygon fill="#006400" stroke="#006400" points="277.1595,-116.9047 266.569,-117.2108 275.0388,-123.5758 277.1595,-116.9047"/>
<text text-anchor="middle" x="357.4167" y="-111.8" font-family="Times,serif" font-size="14.00" fill="#000000">hasSpatialDirectPart only</text>
</g>
<!-- String&#45;&gt;Symbolic -->
<g id="edge8" class="edge">
<title>String&#45;&gt;Symbolic</title>
<path fill="none" stroke="#000000" d="M464.1543,-123.0265C459.5969,-135.0415 453.5209,-151.0599 448.3716,-164.6354"/>
<polygon fill="none" stroke="#000000" points="445.0949,-163.4053 444.8208,-173.9966 451.6399,-165.888 445.0949,-163.4053"/>
<text text-anchor="middle" x="466.4919" y="-144.8" font-family="Times,serif" font-size="14.00" fill="#000000">isA</text>
</g>
<!-- Symbolic&#45;&gt;Graphical -->
<g id="edge4" class="edge">
<title>Symbolic&#45;&gt;Graphical</title>
<path fill="none" stroke="#000000" d="M459.4515,-207.9571C477.8898,-221.6676 504.6677,-241.5794 525.1859,-256.8366"/>
<polygon fill="none" stroke="#000000" points="523.159,-259.691 533.2721,-262.8494 527.336,-254.0737 523.159,-259.691"/>
<text text-anchor="middle" x="513.4919" y="-231.8" font-family="Times,serif" font-size="14.00" fill="#000000">isA</text>
</g>
<!-- Pictorial -->
<g id="node10" class="node">
<title>Pictorial</title>
<g id="a_node10"><a xlink:href="http://emmo.info/emmo/middle/perceptual#EMMO_1da53c06_9577_4008_8652_272fa3b62be7" xlink:title="Pictorial">
<ellipse fill="#ffffcc" stroke="#000000" cx="667.9919" cy="-192" rx="40.0939" ry="18"/>
<text text-anchor="middle" x="667.9919" y="-188.3" font-family="Times,serif" font-size="14.00" fill="#000000">Pictorial</text>
</a>
</g>
</g>
<!-- Pictorial&#45;&gt;Graphical -->
<g id="edge5" class="edge">
<title>Pictorial&#45;&gt;Graphical</title>
<path fill="none" stroke="#000000" d="M647.5285,-207.755C629.8316,-221.3801 604.0395,-241.2377 584.1776,-256.5296"/>
<polygon fill="none" stroke="#000000" points="581.8578,-253.8984 576.0693,-262.7723 586.1282,-259.445 581.8578,-253.8984"/>
<text text-anchor="middle" x="627.4919" y="-231.8" font-family="Times,serif" font-size="14.00" fill="#000000">isA</text>
</g>
</g>
</svg>
