<?xml version="1.0" encoding="UTF-8" standalone="no"?>
<!DOCTYPE svg PUBLIC "-//W3C//DTD SVG 1.1//EN"
 "http://www.w3.org/Graphics/SVG/1.1/DTD/svg11.dtd">
<!-- Generated by graphviz version 2.40.1 (20161225.0304)
 -->
<!-- Title: %3 Pages: 1 -->
<svg width="701pt" height="305pt"
 viewBox="0.00 0.00 701.29 305.00" xmlns="http://www.w3.org/2000/svg" xmlns:xlink="http://www.w3.org/1999/xlink">
<g id="graph0" class="graph" transform="scale(1 1) rotate(0) translate(4 301)">
<title>%3</title>
<polygon fill="#ffffff" stroke="transparent" points="-4,4 -4,-301 697.2918,-301 697.2918,4 -4,4"/>
<!-- Language -->
<g id="node1" class="node">
<title>Language</title>
<g id="a_node1"><a xlink:href="http://emmo.info/emmo/middle/perceptual#EMMO_d8d2144e_5c8d_455d_a643_5caf4d8d9df8" xlink:title="Language">
<ellipse fill="#ffffcc" stroke="#000000" cx="566.4971" cy="-105" rx="45.4919" ry="18"/>
<text text-anchor="middle" x="566.4971" y="-101.3" font-family="Times,serif" font-size="14.00" fill="#000000">Language</text>
</a>
</g>
</g>
<!-- Symbolic -->
<g id="node3" class="node">
<title>Symbolic</title>
<g id="a_node3"><a xlink:href="http://emmo.info/emmo/middle/perceptual#EMMO_057e7d57_aff0_49de_911a_8861d85cef40" xlink:title="Symbolic">
<ellipse fill="#ffffcc" stroke="#000000" cx="301.4971" cy="-192" rx="44.6926" ry="18"/>
<text text-anchor="middle" x="301.4971" y="-188.3" font-family="Times,serif" font-size="14.00" fill="#000000">Symbolic</text>
</a>
</g>
</g>
<!-- Language&#45;&gt;Symbolic -->
<g id="edge12" class="edge">
<title>Language&#45;&gt;Symbolic</title>
<path fill="none" stroke="#000000" d="M558.7804,-122.98C552.9587,-134.3069 543.853,-148.2138 531.4971,-156 503.1109,-173.8879 414.8002,-183.7157 356.2343,-188.4142"/>
<polygon fill="none" stroke="#000000" points="355.7258,-184.943 346.0263,-189.2056 356.2669,-191.922 355.7258,-184.943"/>
<text text-anchor="middle" x="556.9971" y="-144.8" font-family="Times,serif" font-size="14.00" fill="#000000">isA</text>
</g>
<!-- String -->
<g id="node2" class="node">
<title>String</title>
<g id="a_node2"><a xlink:href="http://emmo.info/emmo/middle/perceptual#EMMO_50ea1ec5_f157_41b0_b46b_a9032f17ca10" xlink:title="String">
<ellipse fill="#ffffcc" stroke="#000000" cx="32.4971" cy="-105" rx="32.4942" ry="18"/>
<text text-anchor="middle" x="32.4971" y="-101.3" font-family="Times,serif" font-size="14.00" fill="#000000">String</text>
</a>
</g>
</g>
<!-- String&#45;&gt;Symbolic -->
<g id="edge1" class="edge">
<title>String&#45;&gt;Symbolic</title>
<path fill="none" stroke="#000000" d="M60.7034,-113.9413C101.8232,-127.0014 180.6178,-152.1224 247.4971,-174 250.6436,-175.0293 253.8912,-176.0974 257.1597,-177.1766"/>
<polygon fill="none" stroke="#000000" points="256.3541,-180.5967 266.9475,-180.4195 258.5557,-173.9519 256.3541,-180.5967"/>
<text text-anchor="middle" x="198.9971" y="-144.8" font-family="Times,serif" font-size="14.00" fill="#000000">isA</text>
</g>
<!-- Symbol -->
<g id="node5" class="node">
<title>Symbol</title>
<g id="a_node5"><a xlink:href="http://emmo.info/emmo/middle/perceptual#EMMO_a1083d0a_c1fb_471f_8e20_a98f881ad527" xlink:title="Symbol">
<ellipse fill="#ffffcc" stroke="#000000" stroke-width="2" cx="265.4971" cy="-105" rx="38.1938" ry="18"/>
<text text-anchor="middle" x="265.4971" y="-101.3" font-family="Times,serif" font-size="14.00" fill="#000000">Symbol</text>
</a>
</g>
</g>
<!-- String&#45;&gt;Symbol -->
<g id="edge2" class="edge">
<title>String&#45;&gt;Symbol</title>
<path fill="none" stroke="#006400" d="M65.3861,-105C104.8381,-105 171.3277,-105 216.7527,-105"/>
<polygon fill="#006400" stroke="#006400" points="216.9617,-108.5001 226.9617,-105 216.9616,-101.5001 216.9617,-108.5001"/>
<text text-anchor="middle" x="146.0724" y="-90.8" font-family="Times,serif" font-size="14.00" fill="#000000">hasSpatialDirectPart some</text>
</g>
<!-- String&#45;&gt;Symbol -->
<g id="edge3" class="edge">
<title>String&#45;&gt;Symbol</title>
<path fill="none" stroke="#006400" d="M57.1493,-117.0189C63.3464,-119.4906 70.0839,-121.7261 76.5724,-123 106.8827,-128.9507 185.1447,-128.3177 215.5724,-123 219.4439,-122.3234 223.4113,-121.3725 227.3352,-120.2575"/>
<polygon fill="#006400" stroke="#006400" points="228.4502,-123.5758 236.92,-117.2108 226.3296,-116.9047 228.4502,-123.5758"/>
<text text-anchor="middle" x="146.0724" y="-111.8" font-family="Times,serif" font-size="14.00" fill="#000000">hasSpatialDirectPart only</text>
</g>
<!-- Graphical -->
<g id="node4" class="node">
<title>Graphical</title>
<g id="a_node4"><a xlink:href="http://emmo.info/emmo/middle/perceptual#EMMO_c74da218_9147_4f03_92d1_8894abca55f3" xlink:title="Graphical">
<ellipse fill="#ffffcc" stroke="#000000" stroke-width="2" cx="198.4971" cy="-279" rx="45.4919" ry="18"/>
<text text-anchor="middle" x="198.4971" y="-275.3" font-family="Times,serif" font-size="14.00" fill="#000000">Graphical</text>
</a>
</g>
</g>
<!-- Symbolic&#45;&gt;Graphical -->
<g id="edge4" class="edge">
<title>Symbolic&#45;&gt;Graphical</title>
<path fill="none" stroke="#000000" d="M282.1236,-208.364C266.2556,-221.7671 243.6126,-240.8927 225.889,-255.8631"/>
<polygon fill="none" stroke="#000000" points="223.515,-253.2869 218.134,-262.4135 228.0319,-258.6346 223.515,-253.2869"/>
<text text-anchor="middle" x="265.9971" y="-231.8" font-family="Times,serif" font-size="14.00" fill="#000000">isA</text>
</g>
<!-- Symbol&#45;&gt;Symbolic -->
<g id="edge11" class="edge">
<title>Symbol&#45;&gt;Symbolic</title>
<path fill="none" stroke="#000000" d="M272.9563,-123.0265C277.9281,-135.0415 284.5564,-151.0599 290.1739,-164.6354"/>
<polygon fill="none" stroke="#000000" points="286.9898,-166.0947 294.0474,-173.9966 293.4579,-163.4182 286.9898,-166.0947"/>
<text text-anchor="middle" x="295.9971" y="-144.8" font-family="Times,serif" font-size="14.00" fill="#000000">isA</text>
</g>
<!-- Geometrical -->
<g id="node6" class="node">
<title>Geometrical</title>
<g id="a_node6"><a xlink:href="http://emmo.info/emmo/middle/perceptual#EMMO_b5957cef_a287_442d_a3ce_fd39f20ba1cd" xlink:title="Geometrical">
<ellipse fill="#ffffcc" stroke="#000000" stroke-width="2" cx="85.4971" cy="-192" rx="54.6905" ry="18"/>
<text text-anchor="middle" x="85.4971" y="-188.3" font-family="Times,serif" font-size="14.00" fill="#000000">Geometrical</text>
</a>
</g>
</g>
<!-- Geometrical&#45;&gt;Graphical -->
<g id="edge8" class="edge">
<title>Geometrical&#45;&gt;Graphical</title>
<path fill="none" stroke="#000000" d="M107.0175,-208.5688C124.7232,-222.2006 149.9847,-241.6497 169.4774,-256.6574"/>
<polygon fill="none" stroke="#000000" points="167.3805,-259.4601 177.4393,-262.7874 171.6509,-253.9136 167.3805,-259.4601"/>
<text text-anchor="middle" x="158.9971" y="-231.8" font-family="Times,serif" font-size="14.00" fill="#000000">isA</text>
</g>
<!-- SymbolicComposition -->
<g id="node7" class="node">
<title>SymbolicComposition</title>
<g id="a_node7"><a xlink:href="http://emmo.info/emmo/middle/perceptual#EMMO_89a0c87c_0804_4013_937a_6fe234d9499c" xlink:title="SymbolicComposition">
<ellipse fill="#ffffcc" stroke="#000000" cx="412.4971" cy="-105" rx="90.9839" ry="18"/>
<text text-anchor="middle" x="412.4971" y="-101.3" font-family="Times,serif" font-size="14.00" fill="#000000">SymbolicComposition</text>
</a>
</g>
</g>
<!-- SymbolicComposition&#45;&gt;Symbolic -->
<g id="edge5" class="edge">
<title>SymbolicComposition&#45;&gt;Symbolic</title>
<path fill="none" stroke="#000000" d="M377.4164,-121.6704C367.32,-127.1847 356.5875,-133.7782 347.4971,-141 338.0618,-148.4958 328.9072,-158.0215 321.2821,-166.8062"/>
<polygon fill="none" stroke="#000000" points="318.4986,-164.6783 314.7453,-174.586 323.8579,-169.1814 318.4986,-164.6783"/>
<text text-anchor="middle" x="356.9971" y="-144.8" font-family="Times,serif" font-size="14.00" fill="#000000">isA</text>
</g>
<!-- SymbolicComposition&#45;&gt;Symbolic -->
<g id="edge6" class="edge">
<title>SymbolicComposition&#45;&gt;Symbolic</title>
<path fill="none" stroke="#006400" d="M398.8566,-122.895C390.3066,-133.357 378.634,-146.3579 366.4971,-156 358.3915,-162.4395 348.9804,-168.3793 339.8787,-173.5"/>
<polygon fill="#006400" stroke="#006400" points="338.07,-170.4991 330.94,-178.3358 341.4008,-176.6559 338.07,-170.4991"/>
<text text-anchor="middle" x="454.9971" y="-144.8" font-family="Times,serif" font-size="14.00" fill="#000000">hasSpatialDirectPart some</text>
</g>
<!-- Pictorial -->
<g id="node8" class="node">
<title>Pictorial</title>
<g id="a_node8"><a xlink:href="http://emmo.info/emmo/middle/perceptual#EMMO_1da53c06_9577_4008_8652_272fa3b62be7" xlink:title="Pictorial">
<ellipse fill="#ffffcc" stroke="#000000" cx="198.4971" cy="-192" rx="40.0939" ry="18"/>
<text text-anchor="middle" x="198.4971" y="-188.3" font-family="Times,serif" font-size="14.00" fill="#000000">Pictorial</text>
</a>
</g>
</g>
<!-- Pictorial&#45;&gt;Graphical -->
<g id="edge10" class="edge">
<title>Pictorial&#45;&gt;Graphical</title>
<path fill="none" stroke="#000000" d="M198.4971,-210.0265C198.4971,-221.8082 198.4971,-237.4393 198.4971,-250.8419"/>
<polygon fill="none" stroke="#000000" points="194.9972,-250.9966 198.4971,-260.9966 201.9972,-250.9967 194.9972,-250.9966"/>
<text text-anchor="middle" x="207.9971" y="-231.8" font-family="Times,serif" font-size="14.00" fill="#000000">isA</text>
</g>
<!-- Metrological -->
<g id="node9" class="node">
<title>Metrological</title>
<g id="a_node9"><a xlink:href="http://emmo.info/emmo/middle/units#EMMO_985bec21_989f_4b9e_a4b3_735d88099c3c" xlink:title="Metrological">
<ellipse fill="#ffffcc" stroke="#000000" stroke-width="2" cx="499.4971" cy="-18" rx="56.59" ry="18"/>
<text text-anchor="middle" x="499.4971" y="-14.3" font-family="Times,serif" font-size="14.00" fill="#000000">Metrological</text>
</a>
</g>
</g>
<!-- Metrological&#45;&gt;Language -->
<g id="edge7" class="edge">
<title>Metrological&#45;&gt;Language</title>
<path fill="none" stroke="#000000" d="M513.0556,-35.6057C522.7452,-48.1878 535.9344,-65.3141 546.7855,-79.4043"/>
<polygon fill="none" stroke="#000000" points="544.3129,-81.93 553.1875,-87.7173 549.8589,-77.6589 544.3129,-81.93"/>
<text text-anchor="middle" x="546.9971" y="-57.8" font-family="Times,serif" font-size="14.00" fill="#000000">isA</text>
</g>
<!-- Mathematical -->
<g id="node10" class="node">
<title>Mathematical</title>
<g id="a_node10"><a xlink:href="http://emmo.info/emmo/middle/math#EMMO_54ee6b5e_5261_44a8_86eb_5717e7fdb9d0" xlink:title="Mathematical">
<ellipse fill="#ffffcc" stroke="#000000" stroke-width="2" cx="633.4971" cy="-18" rx="59.5901" ry="18"/>
<text text-anchor="middle" x="633.4971" y="-14.3" font-family="Times,serif" font-size="14.00" fill="#000000">Mathematical</text>
</a>
</g>
</g>
<!-- Mathematical&#45;&gt;Language -->
<g id="edge9" class="edge">
<title>Mathematical&#45;&gt;Language</title>
<path fill="none" stroke="#000000" d="M619.9387,-35.6057C610.249,-48.1878 597.0598,-65.3141 586.2088,-79.4043"/>
<polygon fill="none" stroke="#000000" points="583.1353,-77.6589 579.8067,-87.7173 588.6813,-81.93 583.1353,-77.6589"/>
<text text-anchor="middle" x="612.9971" y="-57.8" font-family="Times,serif" font-size="14.00" fill="#000000">isA</text>
</g>
</g>
</svg>
