<?xml version="1.0" encoding="UTF-8" standalone="no"?>
<!DOCTYPE svg PUBLIC "-//W3C//DTD SVG 1.1//EN"
 "http://www.w3.org/Graphics/SVG/1.1/DTD/svg11.dtd">
<!-- Generated by graphviz version 2.40.1 (20161225.0304)
 -->
<!-- Title: %3 Pages: 1 -->
<svg width="780pt" height="270pt"
 viewBox="0.00 0.00 779.99 270.00" xmlns="http://www.w3.org/2000/svg" xmlns:xlink="http://www.w3.org/1999/xlink">
<g id="graph0" class="graph" transform="scale(1 1) rotate(0) translate(4 266)">
<title>%3</title>
<polygon fill="#ffffff" stroke="transparent" points="-4,4 -4,-266 775.9919,-266 775.9919,4 -4,4"/>
<!-- SymbolicComposition -->
<g id="node1" class="node">
<title>SymbolicComposition</title>
<g id="a_node1"><a xlink:href="http://emmo.info/emmo/middle/perceptual#EMMO_89a0c87c_0804_4013_937a_6fe234d9499c" xlink:title="SymbolicComposition">
<ellipse fill="#ffffcc" stroke="#000000" cx="90.9919" cy="-100" rx="90.9839" ry="18"/>
<text text-anchor="middle" x="90.9919" y="-96.3" font-family="Times,serif" font-size="14.00" fill="#000000">SymbolicComposition</text>
</a>
</g>
</g>
<!-- Symbolic -->
<g id="node9" class="node">
<title>Symbolic</title>
<g id="a_node9"><a xlink:href="http://emmo.info/emmo/middle/perceptual#EMMO_057e7d57_aff0_49de_911a_8861d85cef40" xlink:title="Symbolic">
<ellipse fill="#ffffcc" stroke="#000000" cx="281.9919" cy="-172" rx="44.6926" ry="18"/>
<text text-anchor="middle" x="281.9919" y="-168.3" font-family="Times,serif" font-size="14.00" fill="#000000">Symbolic</text>
</a>
</g>
</g>
<!-- SymbolicComposition&#45;&gt;Symbolic -->
<g id="edge1" class="edge">
<title>SymbolicComposition&#45;&gt;Symbolic</title>
<path fill="none" stroke="#000000" d="M129.0303,-116.5183C160.212,-128.784 204.2723,-145.3676 237.1586,-157.202"/>
<polygon fill="none" stroke="#000000" points="236.3847,-160.6422 246.9793,-160.7123 238.7408,-154.0506 236.3847,-160.6422"/>
</g>
<!-- SymbolicComposition&#45;&gt;Symbolic -->
<g id="edge2" class="edge">
<title>SymbolicComposition&#45;&gt;Symbolic</title>
<path fill="none" stroke="#006400" d="M138.1145,-115.6229C170.1749,-127.1921 212.0276,-142.9478 242.3768,-154.8621"/>
<polygon fill="#006400" stroke="#006400" points="241.2128,-158.1655 251.7993,-158.5853 243.7852,-151.6552 241.2128,-158.1655"/>
</g>
<!-- Pictorial -->
<g id="node2" class="node">
<title>Pictorial</title>
<g id="a_node2"><a xlink:href="http://emmo.info/emmo/middle/perceptual#EMMO_1da53c06_9577_4008_8652_272fa3b62be7" xlink:title="Pictorial">
<ellipse fill="#ffffcc" stroke="#000000" cx="384.9919" cy="-172" rx="40.0939" ry="18"/>
<text text-anchor="middle" x="384.9919" y="-168.3" font-family="Times,serif" font-size="14.00" fill="#000000">Pictorial</text>
</a>
</g>
</g>
<!-- Graphical -->
<g id="node10" class="node">
<title>Graphical</title>
<g id="a_node10"><a xlink:href="http://emmo.info/emmo/middle/perceptual#EMMO_c74da218_9147_4f03_92d1_8894abca55f3" xlink:title="Graphical">
<ellipse fill="#ffffcc" stroke="#000000" stroke-width="2" cx="384.9919" cy="-244" rx="45.4919" ry="18"/>
<text text-anchor="middle" x="384.9919" y="-240.3" font-family="Times,serif" font-size="14.00" fill="#000000">Graphical</text>
</a>
</g>
</g>
<!-- Pictorial&#45;&gt;Graphical -->
<g id="edge10" class="edge">
<title>Pictorial&#45;&gt;Graphical</title>
<path fill="none" stroke="#000000" d="M384.9919,-190.1686C384.9919,-197.869 384.9919,-207.0257 384.9919,-215.5834"/>
<polygon fill="none" stroke="#000000" points="381.492,-215.5867 384.9919,-225.5867 388.492,-215.5868 381.492,-215.5867"/>
</g>
<!-- Symbol -->
<g id="node3" class="node">
<title>Symbol</title>
<g id="a_node3"><a xlink:href="http://emmo.info/emmo/middle/perceptual#EMMO_a1083d0a_c1fb_471f_8e20_a98f881ad527" xlink:title="Symbol">
<ellipse fill="#ffffcc" stroke="#000000" stroke-width="2" cx="237.9919" cy="-100" rx="38.1938" ry="18"/>
<text text-anchor="middle" x="237.9919" y="-96.3" font-family="Times,serif" font-size="14.00" fill="#000000">Symbol</text>
</a>
</g>
</g>
<!-- Symbol&#45;&gt;Symbolic -->
<g id="edge9" class="edge">
<title>Symbol&#45;&gt;Symbolic</title>
<path fill="none" stroke="#000000" d="M248.6431,-117.4292C253.847,-125.9447 260.2176,-136.3692 265.9912,-145.817"/>
<polygon fill="none" stroke="#000000" points="263.0853,-147.774 271.2863,-154.4818 269.0583,-144.1238 263.0853,-147.774"/>
</g>
<!-- Metrological -->
<g id="node4" class="node">
<title>Metrological</title>
<g id="a_node4"><a xlink:href="http://emmo.info/emmo/middle/metrology#EMMO_985bec21_989f_4b9e_a4b3_735d88099c3c" xlink:title="Metrological">
<ellipse fill="#ffffcc" stroke="#000000" stroke-width="2" cx="355.9919" cy="-23" rx="56.59" ry="18"/>
<text text-anchor="middle" x="355.9919" y="-19.3" font-family="Times,serif" font-size="14.00" fill="#000000">Metrological</text>
</a>
</g>
</g>
<!-- Language -->
<g id="node6" class="node">
<title>Language</title>
<g id="a_node6"><a xlink:href="http://emmo.info/emmo/middle/perceptual#EMMO_d8d2144e_5c8d_455d_a643_5caf4d8d9df8" xlink:title="Language">
<ellipse fill="#ffffcc" stroke="#000000" cx="422.9919" cy="-100" rx="45.4919" ry="18"/>
<text text-anchor="middle" x="422.9919" y="-96.3" font-family="Times,serif" font-size="14.00" fill="#000000">Language</text>
</a>
</g>
</g>
<!-- Metrological&#45;&gt;Language -->
<g id="edge12" class="edge">
<title>Metrological&#45;&gt;Language</title>
<path fill="none" stroke="#000000" d="M371.1953,-40.4725C380.0808,-50.6842 391.4435,-63.7429 401.2613,-75.026"/>
<polygon fill="none" stroke="#000000" points="398.8749,-77.6154 408.0796,-82.8619 404.1557,-73.0204 398.8749,-77.6154"/>
</g>
<!-- Mathematical -->
<g id="node5" class="node">
<title>Mathematical</title>
<g id="a_node5"><a xlink:href="http://emmo.info/emmo/middle/math#EMMO_54ee6b5e_5261_44a8_86eb_5717e7fdb9d0" xlink:title="Mathematical">
<ellipse fill="#ffffcc" stroke="#000000" stroke-width="2" cx="489.9919" cy="-23" rx="59.5901" ry="18"/>
<text text-anchor="middle" x="489.9919" y="-19.3" font-family="Times,serif" font-size="14.00" fill="#000000">Mathematical</text>
</a>
</g>
</g>
<!-- Mathematical&#45;&gt;Language -->
<g id="edge11" class="edge">
<title>Mathematical&#45;&gt;Language</title>
<path fill="none" stroke="#000000" d="M474.7886,-40.4725C465.9031,-50.6842 454.5403,-63.7429 444.7226,-75.026"/>
<polygon fill="none" stroke="#000000" points="441.8282,-73.0204 437.9043,-82.8619 447.1089,-77.6154 441.8282,-73.0204"/>
</g>
<!-- Language&#45;&gt;Symbolic -->
<g id="edge6" class="edge">
<title>Language&#45;&gt;Symbolic</title>
<path fill="none" stroke="#000000" d="M394.7974,-114.3972C373.0872,-125.4832 342.8835,-140.9064 319.1927,-153.0039"/>
<polygon fill="none" stroke="#000000" points="317.452,-149.9628 310.1376,-157.6277 320.6354,-156.197 317.452,-149.9628"/>
</g>
<!-- Geometrical -->
<g id="node7" class="node">
<title>Geometrical</title>
<g id="a_node7"><a xlink:href="http://emmo.info/emmo/middle/perceptual#EMMO_b5957cef_a287_442d_a3ce_fd39f20ba1cd" xlink:title="Geometrical">
<ellipse fill="#ffffcc" stroke="#000000" stroke-width="2" cx="497.9919" cy="-172" rx="54.6905" ry="18"/>
<text text-anchor="middle" x="497.9919" y="-168.3" font-family="Times,serif" font-size="14.00" fill="#000000">Geometrical</text>
</a>
</g>
</g>
<!-- Geometrical&#45;&gt;Graphical -->
<g id="edge8" class="edge">
<title>Geometrical&#45;&gt;Graphical</title>
<path fill="none" stroke="#000000" d="M472.6325,-188.1582C456.4523,-198.4677 435.317,-211.9345 417.8559,-223.0601"/>
<polygon fill="none" stroke="#000000" points="415.6583,-220.3102 409.1055,-228.6356 419.4198,-226.2137 415.6583,-220.3102"/>
</g>
<!-- String -->
<g id="node8" class="node">
<title>String</title>
<g id="a_node8"><a xlink:href="http://emmo.info/emmo/middle/perceptual#EMMO_50ea1ec5_f157_41b0_b46b_a9032f17ca10" xlink:title="String">
<ellipse fill="#ffffcc" stroke="#000000" cx="326.9919" cy="-100" rx="32.4942" ry="18"/>
<text text-anchor="middle" x="326.9919" y="-96.3" font-family="Times,serif" font-size="14.00" fill="#000000">String</text>
</a>
</g>
</g>
<!-- String&#45;&gt;Symbol -->
<g id="edge4" class="edge">
<title>String&#45;&gt;Symbol</title>
<path fill="none" stroke="#006400" d="M301.298,-111.0889C293.3051,-113.1384 285.3122,-113.8813 277.3194,-113.3176"/>
<polygon fill="#006400" stroke="#006400" points="277.5828,-109.8205 267.1951,-111.9048 276.6153,-116.7534 277.5828,-109.8205"/>
</g>
<!-- String&#45;&gt;Symbol -->
<g id="edge5" class="edge">
<title>String&#45;&gt;Symbol</title>
<path fill="none" stroke="#006400" d="M301.298,-88.9111C293.3051,-86.8616 285.3122,-86.1187 277.3194,-86.6824"/>
<polygon fill="#006400" stroke="#006400" points="276.6153,-83.2466 267.1951,-88.0952 277.5828,-90.1795 276.6153,-83.2466"/>
</g>
<!-- String&#45;&gt;Symbolic -->
<g id="edge3" class="edge">
<title>String&#45;&gt;Symbolic</title>
<path fill="none" stroke="#000000" d="M316.3276,-117.063C311.0097,-125.5716 304.4586,-136.0532 298.5094,-145.5721"/>
<polygon fill="none" stroke="#000000" points="295.3817,-143.9726 293.0497,-154.3076 301.3177,-147.6826 295.3817,-143.9726"/>
</g>
<!-- Symbolic&#45;&gt;Graphical -->
<g id="edge7" class="edge">
<title>Symbolic&#45;&gt;Graphical</title>
<path fill="none" stroke="#000000" d="M304.3414,-187.6229C318.8186,-197.7429 337.8784,-211.0663 353.8342,-222.2199"/>
<polygon fill="none" stroke="#000000" points="352.1291,-225.2982 362.3304,-228.1589 356.1396,-219.561 352.1291,-225.2982"/>
</g>
<!-- key1 -->
<g id="node11" class="node">
<title>key1</title>
<text text-anchor="start" x="670.9919" y="-28.8" font-family="Times,serif" font-size="14.00" fill="#000000">isA</text>
<text text-anchor="start" x="577.9919" y="-9.8" font-family="Times,serif" font-size="14.00" fill="#000000">hasSpatialDirectPart</text>
</g>
<!-- key2 -->
<g id="node12" class="node">
<title>key2</title>
<text text-anchor="start" x="742.9919" y="-28.8" font-family="Times,serif" font-size="14.00" fill="#000000"> </text>
<text text-anchor="start" x="742.9919" y="-9.8" font-family="Times,serif" font-size="14.00" fill="#000000"> </text>
</g>
<!-- key1&#45;&gt;key2 -->
<g id="edge13" class="edge">
<title>key1:e&#45;&gt;key2:w</title>
<path fill="none" stroke="#006400" d="M691.9919,-13C709.8565,-13 716.7302,-13 730.6449,-13"/>
<polygon fill="#006400" stroke="#006400" points="730.992,-16.5001 740.9919,-13 730.9919,-9.5001 730.992,-16.5001"/>
</g>
<!-- key1&#45;&gt;key2 -->
<g id="edge14" class="edge">
<title>key1:e&#45;&gt;key2:w</title>
<path fill="none" stroke="#000000" d="M691.9919,-33C709.8565,-33 716.7302,-33 730.6449,-33"/>
<polygon fill="none" stroke="#000000" points="730.992,-36.5001 740.9919,-33 730.9919,-29.5001 730.992,-36.5001"/>
</g>
</g>
</svg>
