<?xml version="1.0" encoding="UTF-8" standalone="no"?>
<!DOCTYPE svg PUBLIC "-//W3C//DTD SVG 1.1//EN"
 "http://www.w3.org/Graphics/SVG/1.1/DTD/svg11.dtd">
<!-- Generated by graphviz version 2.40.1 (20161225.0304)
 -->
<!-- Title: %3 Pages: 1 -->
<svg width="741pt" height="332pt"
 viewBox="0.00 0.00 740.50 332.00" xmlns="http://www.w3.org/2000/svg" xmlns:xlink="http://www.w3.org/1999/xlink">
<g id="graph0" class="graph" transform="scale(1 1) rotate(0) translate(4 328)">
<title>%3</title>
<polygon fill="#ffffff" stroke="transparent" points="-4,4 -4,-328 736.5,-328 736.5,4 -4,4"/>
<!-- hasQuantityValue -->
<g id="node1" class="node">
<title>hasQuantityValue</title>
<g id="a_node1"><a xlink:href="http://emmo.info/emmo/middle/metrology#EMMO_8ef3cd6d_ae58_4a8d_9fc0_ad8f49015cd0" xlink:title="hasQuantityValue">
<polygon fill="#0079ba" stroke="#000000" points="114,-36 0,-36 0,0 114,0 114,-36"/>
<text text-anchor="middle" x="57" y="-14.3" font-family="Times,serif" font-size="14.00" fill="#ffffff">hasQuantityValue</text>
</a>
</g>
</g>
<!-- hasSpatialDirectPart -->
<g id="node9" class="node">
<title>hasSpatialDirectPart</title>
<g id="a_node9"><a xlink:href="http://emmo.info/emmo/middle/reductionistic#EMMO_b2282816_b7a3_44c6_b2cb_3feff1ceb7fe" xlink:title="hasSpatialDirectPart">
<polygon fill="#0079ba" stroke="#000000" points="187,-108 59,-108 59,-72 187,-72 187,-108"/>
<text text-anchor="middle" x="123" y="-86.3" font-family="Times,serif" font-size="14.00" fill="#ffffff">hasSpatialDirectPart</text>
</a>
</g>
</g>
<!-- hasQuantityValue&#45;&gt;hasSpatialDirectPart -->
<g id="edge3" class="edge">
<title>hasQuantityValue&#45;&gt;hasSpatialDirectPart</title>
<path fill="none" stroke="#000000" d="M73.6546,-36.1686C81.4114,-44.6306 90.7802,-54.8511 99.261,-64.1029"/>
<polygon fill="none" stroke="#000000" points="96.7838,-66.5802 106.1212,-71.5867 101.9439,-61.8501 96.7838,-66.5802"/>
</g>
<!-- hasTemporalPart -->
<g id="node2" class="node">
<title>hasTemporalPart</title>
<g id="a_node2"><a xlink:href="http://emmo.info/emmo/top/physical#EMMO_7afbed84_7593_4a23_bd88_9d9c6b04e8f6" xlink:title="hasTemporalPart">
<polygon fill="#0079ba" stroke="#000000" points="323,-180 213,-180 213,-144 323,-144 323,-180"/>
<text text-anchor="middle" x="268" y="-158.3" font-family="Times,serif" font-size="14.00" fill="#ffffff">hasTemporalPart</text>
</a>
</g>
</g>
<!-- hasProperPart -->
<g id="node5" class="node">
<title>hasProperPart</title>
<g id="a_node5"><a xlink:href="http://emmo.info/emmo/top/mereotopology#EMMO_9380ab64_0363_4804_b13f_3a8a94119a76" xlink:title="hasProperPart">
<polygon fill="#0079ba" stroke="#000000" points="493,-252 401,-252 401,-216 493,-216 493,-252"/>
<text text-anchor="middle" x="447" y="-230.3" font-family="Times,serif" font-size="14.00" fill="#ffffff">hasProperPart</text>
</a>
</g>
</g>
<!-- hasTemporalPart&#45;&gt;hasProperPart -->
<g id="edge9" class="edge">
<title>hasTemporalPart&#45;&gt;hasProperPart</title>
<path fill="none" stroke="#000000" d="M313.1693,-180.1686C337.3223,-189.8838 367.2378,-201.9169 392.6556,-212.1408"/>
<polygon fill="none" stroke="#000000" points="391.5718,-215.4773 402.1556,-215.962 394.1841,-208.983 391.5718,-215.4773"/>
</g>
<!-- hasMember -->
<g id="node3" class="node">
<title>hasMember</title>
<g id="a_node3"><a xlink:href="http://emmo.info/emmo/top/mereotopology#EMMO_6b7276a4_4b9d_440a_b577_0277539c0fc4" xlink:title="hasMember">
<polygon fill="#0079ba" stroke="#000000" points="423,-180 341,-180 341,-144 423,-144 423,-180"/>
<text text-anchor="middle" x="382" y="-158.3" font-family="Times,serif" font-size="14.00" fill="#ffffff">hasMember</text>
</a>
</g>
</g>
<!-- hasMember&#45;&gt;hasProperPart -->
<g id="edge2" class="edge">
<title>hasMember&#45;&gt;hasProperPart</title>
<path fill="none" stroke="#000000" d="M398.4022,-180.1686C406.0415,-188.6306 415.2683,-198.8511 423.6207,-208.1029"/>
<polygon fill="none" stroke="#000000" points="421.0779,-210.5094 430.3769,-215.5867 426.2738,-205.8187 421.0779,-210.5094"/>
</g>
<!-- hasProperParticipant -->
<g id="node4" class="node">
<title>hasProperParticipant</title>
<g id="a_node4"><a xlink:href="http://emmo.info/emmo/middle/holistic#EMMO_c5aae418_1622_4d02_93c5_21159e28e6c1" xlink:title="hasProperParticipant">
<polygon fill="#0079ba" stroke="#000000" points="732.5,-180 603.5,-180 603.5,-144 732.5,-144 732.5,-180"/>
<text text-anchor="middle" x="668" y="-158.3" font-family="Times,serif" font-size="14.00" fill="#ffffff">hasProperParticipant</text>
</a>
</g>
</g>
<!-- hasProperParticipant&#45;&gt;hasProperPart -->
<g id="edge13" class="edge">
<title>hasProperParticipant&#45;&gt;hasProperPart</title>
<path fill="none" stroke="#000000" d="M612.5176,-180.0757C579.0022,-190.9947 536.421,-204.8674 502.8412,-215.8074"/>
<polygon fill="none" stroke="#000000" points="501.6014,-212.5302 493.1775,-218.9558 503.7698,-219.1859 501.6014,-212.5302"/>
</g>
<!-- hasParticipant -->
<g id="node7" class="node">
<title>hasParticipant</title>
<g id="a_node7"><a xlink:href="http://emmo.info/emmo/middle/holistic#EMMO_ae2d1a96_bfa1_409a_a7d2_03d69e8a125a" xlink:title="hasParticipant">
<polygon fill="#0079ba" stroke="#000000" points="659.5,-252 566.5,-252 566.5,-216 659.5,-216 659.5,-252"/>
<text text-anchor="middle" x="613" y="-230.3" font-family="Times,serif" font-size="14.00" fill="#ffffff">hasParticipant</text>
</a>
</g>
</g>
<!-- hasProperParticipant&#45;&gt;hasParticipant -->
<g id="edge12" class="edge">
<title>hasProperParticipant&#45;&gt;hasParticipant</title>
<path fill="none" stroke="#000000" d="M654.1212,-180.1686C647.7864,-188.4614 640.1616,-198.443 633.2074,-207.5467"/>
<polygon fill="none" stroke="#000000" points="630.3548,-205.5153 627.0657,-215.5867 635.9175,-209.7647 630.3548,-205.5153"/>
</g>
<!-- hasPart -->
<g id="node11" class="node">
<title>hasPart</title>
<g id="a_node11"><a xlink:href="http://emmo.info/emmo/top/mereotopology#EMMO_17e27c22_37e1_468c_9dd7_95e137f73e7f" xlink:title="hasPart">
<polygon fill="#0079ba" stroke="#000000" stroke-width="2" points="530,-324 474,-324 474,-288 530,-288 530,-324"/>
<text text-anchor="middle" x="502" y="-302.3" font-family="Times,serif" font-size="14.00" fill="#ffffff">hasPart</text>
</a>
</g>
</g>
<!-- hasProperPart&#45;&gt;hasPart -->
<g id="edge11" class="edge">
<title>hasProperPart&#45;&gt;hasPart</title>
<path fill="none" stroke="#000000" d="M460.8788,-252.1686C467.2136,-260.4614 474.8384,-270.443 481.7926,-279.5467"/>
<polygon fill="none" stroke="#000000" points="479.0825,-281.7647 487.9343,-287.5867 484.6452,-277.5153 479.0825,-281.7647"/>
</g>
<!-- hasSpatialPart -->
<g id="node6" class="node">
<title>hasSpatialPart</title>
<g id="a_node6"><a xlink:href="http://emmo.info/emmo/top/physical#EMMO_f68030be_94b8_4c61_a161_886468558054" xlink:title="hasSpatialPart">
<polygon fill="#0079ba" stroke="#000000" points="187,-180 93,-180 93,-144 187,-144 187,-180"/>
<text text-anchor="middle" x="140" y="-158.3" font-family="Times,serif" font-size="14.00" fill="#ffffff">hasSpatialPart</text>
</a>
</g>
</g>
<!-- hasSpatialPart&#45;&gt;hasProperPart -->
<g id="edge4" class="edge">
<title>hasSpatialPart&#45;&gt;hasProperPart</title>
<path fill="none" stroke="#000000" d="M187.1051,-175.568C192.7853,-177.1095 198.5152,-178.6204 204,-180 267.716,-196.0265 341.4528,-212.0619 390.8385,-222.4438"/>
<polygon fill="none" stroke="#000000" points="390.1824,-225.8822 400.6876,-224.5071 391.6178,-219.031 390.1824,-225.8822"/>
</g>
<!-- hasParticipant&#45;&gt;hasPart -->
<g id="edge5" class="edge">
<title>hasParticipant&#45;&gt;hasPart</title>
<path fill="none" stroke="#000000" d="M584.99,-252.1686C570.9239,-261.2926 553.706,-272.461 538.6067,-282.2551"/>
<polygon fill="none" stroke="#000000" points="536.486,-279.4588 530.001,-287.8372 540.2953,-285.3316 536.486,-279.4588"/>
</g>
<!-- hasReferenceUnit -->
<g id="node8" class="node">
<title>hasReferenceUnit</title>
<g id="a_node8"><a xlink:href="http://emmo.info/emmo/middle/metrology#EMMO_67fc0a36_8dcb_4ffa_9a43_31074efa3296" xlink:title="hasReferenceUnit">
<polygon fill="#0079ba" stroke="#000000" points="245.5,-36 132.5,-36 132.5,0 245.5,0 245.5,-36"/>
<text text-anchor="middle" x="189" y="-14.3" font-family="Times,serif" font-size="14.00" fill="#ffffff">hasReferenceUnit</text>
</a>
</g>
</g>
<!-- hasReferenceUnit&#45;&gt;hasSpatialDirectPart -->
<g id="edge7" class="edge">
<title>hasReferenceUnit&#45;&gt;hasSpatialDirectPart</title>
<path fill="none" stroke="#000000" d="M172.3454,-36.1686C164.5886,-44.6306 155.2198,-54.8511 146.739,-64.1029"/>
<polygon fill="none" stroke="#000000" points="144.0561,-61.8501 139.8788,-71.5867 149.2162,-66.5802 144.0561,-61.8501"/>
</g>
<!-- hasSpatialDirectPart&#45;&gt;hasSpatialPart -->
<g id="edge6" class="edge">
<title>hasSpatialDirectPart&#45;&gt;hasSpatialPart</title>
<path fill="none" stroke="#000000" d="M127.2898,-108.1686C129.108,-115.869 131.2699,-125.0257 133.2905,-133.5834"/>
<polygon fill="none" stroke="#000000" points="129.9481,-134.6586 135.6524,-143.5867 136.7608,-133.05 129.9481,-134.6586"/>
</g>
<!-- hasSpatioTemporalPart -->
<g id="node10" class="node">
<title>hasSpatioTemporalPart</title>
<g id="a_node10"><a xlink:href="http://emmo.info/emmo/top/physical#EMMO_6e046dd0_9634_4013_b2b1_9cc468087c83" xlink:title="hasSpatioTemporalPart">
<polygon fill="#0079ba" stroke="#000000" points="585,-180 441,-180 441,-144 585,-144 585,-180"/>
<text text-anchor="middle" x="513" y="-158.3" font-family="Times,serif" font-size="14.00" fill="#ffffff">hasSpatioTemporalPart</text>
</a>
</g>
</g>
<!-- hasSpatioTemporalPart&#45;&gt;hasProperPart -->
<g id="edge10" class="edge">
<title>hasSpatioTemporalPart&#45;&gt;hasProperPart</title>
<path fill="none" stroke="#000000" d="M496.3454,-180.1686C488.5886,-188.6306 479.2198,-198.8511 470.739,-208.1029"/>
<polygon fill="none" stroke="#000000" points="468.0561,-205.8501 463.8788,-215.5867 473.2162,-210.5802 468.0561,-205.8501"/>
</g>
<!-- hasSpatioTemporalDirectPart -->
<g id="node12" class="node">
<title>hasSpatioTemporalDirectPart</title>
<g id="a_node12"><a xlink:href="http://emmo.info/emmo/middle/reductionistic#EMMO_663859e5_add3_4c9e_96fb_c99399de278d" xlink:title="hasSpatioTemporalDirectPart">
<polygon fill="#0079ba" stroke="#000000" points="602,-108 424,-108 424,-72 602,-72 602,-108"/>
<text text-anchor="middle" x="513" y="-86.3" font-family="Times,serif" font-size="14.00" fill="#ffffff">hasSpatioTemporalDirectPart</text>
</a>
</g>
</g>
<!-- hasSpatioTemporalDirectPart&#45;&gt;hasSpatioTemporalPart -->
<g id="edge1" class="edge">
<title>hasSpatioTemporalDirectPart&#45;&gt;hasSpatioTemporalPart</title>
<path fill="none" stroke="#000000" d="M513,-108.1686C513,-115.869 513,-125.0257 513,-133.5834"/>
<polygon fill="none" stroke="#000000" points="509.5001,-133.5867 513,-143.5867 516.5001,-133.5868 509.5001,-133.5867"/>
</g>
<!-- hasTemporalDirectPart -->
<g id="node13" class="node">
<title>hasTemporalDirectPart</title>
<g id="a_node13"><a xlink:href="http://emmo.info/emmo/middle/reductionistic#EMMO_65a2c5b8_e4d8_4a51_b2f8_e55effc0547d" xlink:title="hasTemporalDirectPart">
<polygon fill="#0079ba" stroke="#000000" points="348.5,-108 205.5,-108 205.5,-72 348.5,-72 348.5,-108"/>
<text text-anchor="middle" x="277" y="-86.3" font-family="Times,serif" font-size="14.00" fill="#ffffff">hasTemporalDirectPart</text>
</a>
</g>
</g>
<!-- hasTemporalDirectPart&#45;&gt;hasTemporalPart -->
<g id="edge8" class="edge">
<title>hasTemporalDirectPart&#45;&gt;hasTemporalPart</title>
<path fill="none" stroke="#000000" d="M274.7289,-108.1686C273.7664,-115.869 272.6218,-125.0257 271.5521,-133.5834"/>
<polygon fill="none" stroke="#000000" points="268.0691,-133.2298 270.3017,-143.5867 275.0151,-134.0981 268.0691,-133.2298"/>
</g>
<!-- key1 -->
<g id="node14" class="node">
<title>key1</title>
<text text-anchor="start" x="282" y="-13.8" font-family="Times,serif" font-size="14.00" fill="#000000">isA</text>
</g>
<!-- key2 -->
<g id="node15" class="node">
<title>key2</title>
<text text-anchor="start" x="361" y="-13.8" font-family="Times,serif" font-size="14.00" fill="#000000"> </text>
</g>
<!-- key1&#45;&gt;key2 -->
<g id="edge14" class="edge">
<title>key1:e&#45;&gt;key2:w</title>
<path fill="none" stroke="#000000" d="M303,-19C324,-19 331.7109,-19 348.5581,-19"/>
<polygon fill="none" stroke="#000000" points="349,-22.5001 359,-19 349,-15.5001 349,-22.5001"/>
</g>
</g>
</svg>
