<?xml version="1.0" encoding="UTF-8" standalone="no"?>
<!DOCTYPE svg PUBLIC "-//W3C//DTD SVG 1.1//EN"
 "http://www.w3.org/Graphics/SVG/1.1/DTD/svg11.dtd">
<!-- Generated by graphviz version 2.40.1 (20161225.0304)
 -->
<!-- Title: %3 Pages: 1 -->
<svg width="656pt" height="332pt"
 viewBox="0.00 0.00 656.00 332.00" xmlns="http://www.w3.org/2000/svg" xmlns:xlink="http://www.w3.org/1999/xlink">
<g id="graph0" class="graph" transform="scale(1 1) rotate(0) translate(4 328)">
<title>%3</title>
<polygon fill="#ffffff" stroke="transparent" points="-4,4 -4,-328 652,-328 652,4 -4,4"/>
<!-- hasSpatioTemporalPart -->
<g id="node1" class="node">
<title>hasSpatioTemporalPart</title>
<g id="a_node1"><a xlink:href="http://emmo.info/emmo/top/physical#EMMO_6e046dd0_9634_4013_b2b1_9cc468087c83" xlink:title="hasSpatioTemporalPart">
<polygon fill="#0079ba" stroke="#000000" points="500.5,-180 356.5,-180 356.5,-144 500.5,-144 500.5,-180"/>
<text text-anchor="middle" x="428.5" y="-158.3" font-family="Times,serif" font-size="14.00" fill="#ffffff">hasSpatioTemporalPart</text>
</a>
</g>
</g>
<!-- hasProperPart -->
<g id="node6" class="node">
<title>hasProperPart</title>
<g id="a_node6"><a xlink:href="http://emmo.info/emmo/top/mereotopology#EMMO_9380ab64_0363_4804_b13f_3a8a94119a76" xlink:title="hasProperPart">
<polygon fill="#0079ba" stroke="#000000" points="405.5,-252 313.5,-252 313.5,-216 405.5,-216 405.5,-252"/>
<text text-anchor="middle" x="359.5" y="-230.3" font-family="Times,serif" font-size="14.00" fill="#ffffff">hasProperPart</text>
</a>
</g>
</g>
<!-- hasSpatioTemporalPart&#45;&gt;hasProperPart -->
<g id="edge10" class="edge">
<title>hasSpatioTemporalPart&#45;&gt;hasProperPart</title>
<path fill="none" stroke="#000000" d="M411.0884,-180.1686C402.979,-188.6306 393.1844,-198.8511 384.318,-208.1029"/>
<polygon fill="none" stroke="#000000" points="381.5382,-205.9451 377.146,-215.5867 386.5921,-210.7885 381.5382,-205.9451"/>
</g>
<!-- hasSpatioTemporalDirectPart -->
<g id="node2" class="node">
<title>hasSpatioTemporalDirectPart</title>
<g id="a_node2"><a xlink:href="http://emmo.info/emmo/middle/reductionistic#EMMO_663859e5_add3_4c9e_96fb_c99399de278d" xlink:title="hasSpatioTemporalDirectPart">
<polygon fill="#0079ba" stroke="#000000" points="534.5,-108 356.5,-108 356.5,-72 534.5,-72 534.5,-108"/>
<text text-anchor="middle" x="445.5" y="-86.3" font-family="Times,serif" font-size="14.00" fill="#ffffff">hasSpatioTemporalDirectPart</text>
</a>
</g>
</g>
<!-- hasSpatioTemporalDirectPart&#45;&gt;hasSpatioTemporalPart -->
<g id="edge3" class="edge">
<title>hasSpatioTemporalDirectPart&#45;&gt;hasSpatioTemporalPart</title>
<path fill="none" stroke="#000000" d="M441.2102,-108.1686C439.392,-115.869 437.2301,-125.0257 435.2095,-133.5834"/>
<polygon fill="none" stroke="#000000" points="431.7392,-133.05 432.8476,-143.5867 438.5519,-134.6586 431.7392,-133.05"/>
</g>
<!-- hasSpatialDirectPart -->
<g id="node3" class="node">
<title>hasSpatialDirectPart</title>
<g id="a_node3"><a xlink:href="http://emmo.info/emmo/middle/reductionistic#EMMO_b2282816_b7a3_44c6_b2cb_3feff1ceb7fe" xlink:title="hasSpatialDirectPart">
<polygon fill="#0079ba" stroke="#000000" points="338.5,-108 210.5,-108 210.5,-72 338.5,-72 338.5,-108"/>
<text text-anchor="middle" x="274.5" y="-86.3" font-family="Times,serif" font-size="14.00" fill="#ffffff">hasSpatialDirectPart</text>
</a>
</g>
</g>
<!-- hasSpatialPart -->
<g id="node11" class="node">
<title>hasSpatialPart</title>
<g id="a_node11"><a xlink:href="http://emmo.info/emmo/top/physical#EMMO_f68030be_94b8_4c61_a161_886468558054" xlink:title="hasSpatialPart">
<polygon fill="#0079ba" stroke="#000000" points="338.5,-180 244.5,-180 244.5,-144 338.5,-144 338.5,-180"/>
<text text-anchor="middle" x="291.5" y="-158.3" font-family="Times,serif" font-size="14.00" fill="#ffffff">hasSpatialPart</text>
</a>
</g>
</g>
<!-- hasSpatialDirectPart&#45;&gt;hasSpatialPart -->
<g id="edge1" class="edge">
<title>hasSpatialDirectPart&#45;&gt;hasSpatialPart</title>
<path fill="none" stroke="#000000" d="M278.7898,-108.1686C280.608,-115.869 282.7699,-125.0257 284.7905,-133.5834"/>
<polygon fill="none" stroke="#000000" points="281.4481,-134.6586 287.1524,-143.5867 288.2608,-133.05 281.4481,-134.6586"/>
</g>
<!-- hasQuantityValue -->
<g id="node4" class="node">
<title>hasQuantityValue</title>
<g id="a_node4"><a xlink:href="http://emmo.info/emmo/middle/metrology#EMMO_8ef3cd6d_ae58_4a8d_9fc0_ad8f49015cd0" xlink:title="hasQuantityValue">
<polygon fill="#0079ba" stroke="#000000" points="265.5,-36 151.5,-36 151.5,0 265.5,0 265.5,-36"/>
<text text-anchor="middle" x="208.5" y="-14.3" font-family="Times,serif" font-size="14.00" fill="#ffffff">hasQuantityValue</text>
</a>
</g>
</g>
<!-- hasQuantityValue&#45;&gt;hasSpatialDirectPart -->
<g id="edge2" class="edge">
<title>hasQuantityValue&#45;&gt;hasSpatialDirectPart</title>
<path fill="none" stroke="#000000" d="M225.1546,-36.1686C232.9114,-44.6306 242.2802,-54.8511 250.761,-64.1029"/>
<polygon fill="none" stroke="#000000" points="248.2838,-66.5802 257.6212,-71.5867 253.4439,-61.8501 248.2838,-66.5802"/>
</g>
<!-- hasTemporalDirectPart -->
<g id="node5" class="node">
<title>hasTemporalDirectPart</title>
<g id="a_node5"><a xlink:href="http://emmo.info/emmo/middle/reductionistic#EMMO_65a2c5b8_e4d8_4a51_b2f8_e55effc0547d" xlink:title="hasTemporalDirectPart">
<polygon fill="#0079ba" stroke="#000000" points="143,-108 0,-108 0,-72 143,-72 143,-108"/>
<text text-anchor="middle" x="71.5" y="-86.3" font-family="Times,serif" font-size="14.00" fill="#ffffff">hasTemporalDirectPart</text>
</a>
</g>
</g>
<!-- hasTemporalPart -->
<g id="node7" class="node">
<title>hasTemporalPart</title>
<g id="a_node7"><a xlink:href="http://emmo.info/emmo/top/physical#EMMO_7afbed84_7593_4a23_bd88_9d9c6b04e8f6" xlink:title="hasTemporalPart">
<polygon fill="#0079ba" stroke="#000000" points="126.5,-180 16.5,-180 16.5,-144 126.5,-144 126.5,-180"/>
<text text-anchor="middle" x="71.5" y="-158.3" font-family="Times,serif" font-size="14.00" fill="#ffffff">hasTemporalPart</text>
</a>
</g>
</g>
<!-- hasTemporalDirectPart&#45;&gt;hasTemporalPart -->
<g id="edge13" class="edge">
<title>hasTemporalDirectPart&#45;&gt;hasTemporalPart</title>
<path fill="none" stroke="#000000" d="M71.5,-108.1686C71.5,-115.869 71.5,-125.0257 71.5,-133.5834"/>
<polygon fill="none" stroke="#000000" points="68.0001,-133.5867 71.5,-143.5867 75.0001,-133.5868 68.0001,-133.5867"/>
</g>
<!-- hasPart -->
<g id="node10" class="node">
<title>hasPart</title>
<g id="a_node10"><a xlink:href="http://emmo.info/emmo/top/mereotopology#EMMO_17e27c22_37e1_468c_9dd7_95e137f73e7f" xlink:title="hasPart">
<polygon fill="#0079ba" stroke="#000000" stroke-width="2" points="442.5,-324 386.5,-324 386.5,-288 442.5,-288 442.5,-324"/>
<text text-anchor="middle" x="414.5" y="-302.3" font-family="Times,serif" font-size="14.00" fill="#ffffff">hasPart</text>
</a>
</g>
</g>
<!-- hasProperPart&#45;&gt;hasPart -->
<g id="edge12" class="edge">
<title>hasProperPart&#45;&gt;hasPart</title>
<path fill="none" stroke="#000000" d="M373.3788,-252.1686C379.7136,-260.4614 387.3384,-270.443 394.2926,-279.5467"/>
<polygon fill="none" stroke="#000000" points="391.5825,-281.7647 400.4343,-287.5867 397.1452,-277.5153 391.5825,-281.7647"/>
</g>
<!-- hasTemporalPart&#45;&gt;hasProperPart -->
<g id="edge4" class="edge">
<title>hasTemporalPart&#45;&gt;hasProperPart</title>
<path fill="none" stroke="#000000" d="M126.6222,-177.6451C129.6223,-178.4522 132.5963,-179.242 135.5,-180 192.535,-194.8897 258.127,-210.5296 303.528,-221.1228"/>
<polygon fill="none" stroke="#000000" points="302.937,-224.5788 313.4702,-223.4372 304.5241,-217.761 302.937,-224.5788"/>
</g>
<!-- hasMember -->
<g id="node8" class="node">
<title>hasMember</title>
<g id="a_node8"><a xlink:href="http://emmo.info/emmo/top/mereotopology#EMMO_6b7276a4_4b9d_440a_b577_0277539c0fc4" xlink:title="hasMember">
<polygon fill="#0079ba" stroke="#000000" points="226.5,-180 144.5,-180 144.5,-144 226.5,-144 226.5,-180"/>
<text text-anchor="middle" x="185.5" y="-158.3" font-family="Times,serif" font-size="14.00" fill="#ffffff">hasMember</text>
</a>
</g>
</g>
<!-- hasMember&#45;&gt;hasProperPart -->
<g id="edge9" class="edge">
<title>hasMember&#45;&gt;hasProperPart</title>
<path fill="none" stroke="#000000" d="M226.7356,-179.063C250.5285,-188.9083 280.7053,-201.3953 306.2746,-211.9757"/>
<polygon fill="none" stroke="#000000" points="305.2474,-215.3384 315.8258,-215.9279 307.9239,-208.8703 305.2474,-215.3384"/>
</g>
<!-- hasParticipant -->
<g id="node9" class="node">
<title>hasParticipant</title>
<g id="a_node9"><a xlink:href="http://emmo.info/emmo/middle/holistic#EMMO_ae2d1a96_bfa1_409a_a7d2_03d69e8a125a" xlink:title="hasParticipant">
<polygon fill="#0079ba" stroke="#000000" points="573,-252 480,-252 480,-216 573,-216 573,-252"/>
<text text-anchor="middle" x="526.5" y="-230.3" font-family="Times,serif" font-size="14.00" fill="#ffffff">hasParticipant</text>
</a>
</g>
</g>
<!-- hasParticipant&#45;&gt;hasPart -->
<g id="edge11" class="edge">
<title>hasParticipant&#45;&gt;hasPart</title>
<path fill="none" stroke="#000000" d="M498.2377,-252.1686C484.0448,-261.2926 466.6718,-272.461 451.4364,-282.2551"/>
<polygon fill="none" stroke="#000000" points="449.2724,-279.4854 442.7533,-287.8372 453.0578,-285.3737 449.2724,-279.4854"/>
</g>
<!-- hasSpatialPart&#45;&gt;hasProperPart -->
<g id="edge5" class="edge">
<title>hasSpatialPart&#45;&gt;hasProperPart</title>
<path fill="none" stroke="#000000" d="M308.6593,-180.1686C316.6511,-188.6306 326.3038,-198.8511 335.0416,-208.1029"/>
<polygon fill="none" stroke="#000000" points="332.6989,-210.7198 342.1097,-215.5867 337.788,-205.9134 332.6989,-210.7198"/>
</g>
<!-- hasReferenceUnit -->
<g id="node12" class="node">
<title>hasReferenceUnit</title>
<g id="a_node12"><a xlink:href="http://emmo.info/emmo/middle/metrology#EMMO_67fc0a36_8dcb_4ffa_9a43_31074efa3296" xlink:title="hasReferenceUnit">
<polygon fill="#0079ba" stroke="#000000" points="397,-36 284,-36 284,0 397,0 397,-36"/>
<text text-anchor="middle" x="340.5" y="-14.3" font-family="Times,serif" font-size="14.00" fill="#ffffff">hasReferenceUnit</text>
</a>
</g>
</g>
<!-- hasReferenceUnit&#45;&gt;hasSpatialDirectPart -->
<g id="edge8" class="edge">
<title>hasReferenceUnit&#45;&gt;hasSpatialDirectPart</title>
<path fill="none" stroke="#000000" d="M323.8454,-36.1686C316.0886,-44.6306 306.7198,-54.8511 298.239,-64.1029"/>
<polygon fill="none" stroke="#000000" points="295.5561,-61.8501 291.3788,-71.5867 300.7162,-66.5802 295.5561,-61.8501"/>
</g>
<!-- hasProperParticipant -->
<g id="node13" class="node">
<title>hasProperParticipant</title>
<g id="a_node13"><a xlink:href="http://emmo.info/emmo/middle/holistic#EMMO_c5aae418_1622_4d02_93c5_21159e28e6c1" xlink:title="hasProperParticipant">
<polygon fill="#0079ba" stroke="#000000" points="648,-180 519,-180 519,-144 648,-144 648,-180"/>
<text text-anchor="middle" x="583.5" y="-158.3" font-family="Times,serif" font-size="14.00" fill="#ffffff">hasProperParticipant</text>
</a>
</g>
</g>
<!-- hasProperParticipant&#45;&gt;hasProperPart -->
<g id="edge7" class="edge">
<title>hasProperParticipant&#45;&gt;hasProperPart</title>
<path fill="none" stroke="#000000" d="M527.2645,-180.0757C493.0582,-191.0706 449.5349,-205.0602 415.3915,-216.0349"/>
<polygon fill="none" stroke="#000000" points="414.0217,-212.7987 405.5725,-219.191 416.1638,-219.4629 414.0217,-212.7987"/>
</g>
<!-- hasProperParticipant&#45;&gt;hasParticipant -->
<g id="edge6" class="edge">
<title>hasProperParticipant&#45;&gt;hasParticipant</title>
<path fill="none" stroke="#000000" d="M569.1165,-180.1686C562.5514,-188.4614 554.6493,-198.443 547.4422,-207.5467"/>
<polygon fill="none" stroke="#000000" points="544.5401,-205.5738 541.0772,-215.5867 550.0284,-209.9187 544.5401,-205.5738"/>
</g>
<!-- key1 -->
<g id="node14" class="node">
<title>key1</title>
<text text-anchor="start" x="433.5" y="-13.8" font-family="Times,serif" font-size="14.00" fill="#000000">isA</text>
</g>
<!-- key2 -->
<g id="node15" class="node">
<title>key2</title>
<text text-anchor="start" x="512.5" y="-13.8" font-family="Times,serif" font-size="14.00" fill="#000000"> </text>
</g>
<!-- key1&#45;&gt;key2 -->
<g id="edge14" class="edge">
<title>key1:e&#45;&gt;key2:w</title>
<path fill="none" stroke="#000000" d="M454.5,-19C475.5,-19 483.2109,-19 500.0581,-19"/>
<polygon fill="none" stroke="#000000" points="500.5,-22.5001 510.5,-19 500.5,-15.5001 500.5,-22.5001"/>
</g>
</g>
</svg>
