<?xml version="1.0" encoding="UTF-8" standalone="no"?>
<!DOCTYPE svg PUBLIC "-//W3C//DTD SVG 1.1//EN"
 "http://www.w3.org/Graphics/SVG/1.1/DTD/svg11.dtd">
<!-- Generated by graphviz version 2.40.1 (20161225.0304)
 -->
<!-- Title: %3 Pages: 1 -->
<svg width="690pt" height="332pt"
 viewBox="0.00 0.00 690.00 332.00" xmlns="http://www.w3.org/2000/svg" xmlns:xlink="http://www.w3.org/1999/xlink">
<g id="graph0" class="graph" transform="scale(1 1) rotate(0) translate(4 328)">
<title>%3</title>
<polygon fill="#ffffff" stroke="transparent" points="-4,4 -4,-328 686,-328 686,4 -4,4"/>
<!-- hasProperParticipant -->
<g id="node1" class="node">
<title>hasProperParticipant</title>
<g id="a_node1"><a xlink:href="http://emmo.info/emmo/middle/holistic#EMMO_c5aae418_1622_4d02_93c5_21159e28e6c1" xlink:title="hasProperParticipant">
<polygon fill="#0079ba" stroke="#000000" points="682,-180 553,-180 553,-144 682,-144 682,-180"/>
<text text-anchor="middle" x="617.5" y="-158.3" font-family="Times,serif" font-size="14.00" fill="#ffffff">hasProperParticipant</text>
</a>
</g>
</g>
<!-- hasProperPart -->
<g id="node9" class="node">
<title>hasProperPart</title>
<g id="a_node9"><a xlink:href="http://emmo.info/emmo/top/mereotopology#EMMO_9380ab64_0363_4804_b13f_3a8a94119a76" xlink:title="hasProperPart">
<polygon fill="#0079ba" stroke="#000000" points="473.5,-252 381.5,-252 381.5,-216 473.5,-216 473.5,-252"/>
<text text-anchor="middle" x="427.5" y="-230.3" font-family="Times,serif" font-size="14.00" fill="#ffffff">hasProperPart</text>
</a>
</g>
</g>
<!-- hasProperParticipant&#45;&gt;hasProperPart -->
<g id="edge7" class="edge">
<title>hasProperParticipant&#45;&gt;hasProperPart</title>
<path fill="none" stroke="#000000" d="M569.555,-180.1686C543.2985,-190.1185 510.6263,-202.4995 483.2376,-212.8784"/>
<polygon fill="none" stroke="#000000" points="481.9002,-209.6422 473.7894,-216.4588 484.3808,-216.188 481.9002,-209.6422"/>
</g>
<!-- hasParticipant -->
<g id="node11" class="node">
<title>hasParticipant</title>
<g id="a_node11"><a xlink:href="http://emmo.info/emmo/middle/holistic#EMMO_ae2d1a96_bfa1_409a_a7d2_03d69e8a125a" xlink:title="hasParticipant">
<polygon fill="#0079ba" stroke="#000000" points="624,-252 531,-252 531,-216 624,-216 624,-252"/>
<text text-anchor="middle" x="577.5" y="-230.3" font-family="Times,serif" font-size="14.00" fill="#ffffff">hasParticipant</text>
</a>
</g>
</g>
<!-- hasProperParticipant&#45;&gt;hasParticipant -->
<g id="edge6" class="edge">
<title>hasProperParticipant&#45;&gt;hasParticipant</title>
<path fill="none" stroke="#000000" d="M607.4063,-180.1686C602.9403,-188.2075 597.5925,-197.8334 592.6621,-206.7082"/>
<polygon fill="none" stroke="#000000" points="589.5265,-205.1454 587.7296,-215.5867 595.6456,-208.5449 589.5265,-205.1454"/>
</g>
<!-- hasTemporalPart -->
<g id="node2" class="node">
<title>hasTemporalPart</title>
<g id="a_node2"><a xlink:href="http://emmo.info/emmo/top/physical#EMMO_7afbed84_7593_4a23_bd88_9d9c6b04e8f6" xlink:title="hasTemporalPart">
<polygon fill="#0079ba" stroke="#000000" points="143.5,-180 33.5,-180 33.5,-144 143.5,-144 143.5,-180"/>
<text text-anchor="middle" x="88.5" y="-158.3" font-family="Times,serif" font-size="14.00" fill="#ffffff">hasTemporalPart</text>
</a>
</g>
</g>
<!-- hasTemporalPart&#45;&gt;hasProperPart -->
<g id="edge11" class="edge">
<title>hasTemporalPart&#45;&gt;hasProperPart</title>
<path fill="none" stroke="#000000" d="M143.8164,-174.388C152.4109,-176.2851 161.1919,-178.2075 169.5,-180 238.906,-194.9746 318.9525,-211.6335 371.2466,-222.4345"/>
<polygon fill="none" stroke="#000000" points="370.8229,-225.9207 381.324,-224.5143 372.2379,-219.0652 370.8229,-225.9207"/>
</g>
<!-- hasSpatialPart -->
<g id="node3" class="node">
<title>hasSpatialPart</title>
<g id="a_node3"><a xlink:href="http://emmo.info/emmo/top/physical#EMMO_f68030be_94b8_4c61_a161_886468558054" xlink:title="hasSpatialPart">
<polygon fill="#0079ba" stroke="#000000" points="272.5,-180 178.5,-180 178.5,-144 272.5,-144 272.5,-180"/>
<text text-anchor="middle" x="225.5" y="-158.3" font-family="Times,serif" font-size="14.00" fill="#ffffff">hasSpatialPart</text>
</a>
</g>
</g>
<!-- hasSpatialPart&#45;&gt;hasProperPart -->
<g id="edge12" class="edge">
<title>hasSpatialPart&#45;&gt;hasProperPart</title>
<path fill="none" stroke="#000000" d="M272.6051,-178.7899C302.2931,-189.3718 340.7672,-203.0854 371.9432,-214.1976"/>
<polygon fill="none" stroke="#000000" points="370.7717,-217.4956 381.3663,-217.5563 373.1219,-210.902 370.7717,-217.4956"/>
</g>
<!-- hasSpatialDirectPart -->
<g id="node4" class="node">
<title>hasSpatialDirectPart</title>
<g id="a_node4"><a xlink:href="http://emmo.info/emmo/middle/reductionistic#EMMO_b2282816_b7a3_44c6_b2cb_3feff1ceb7fe" xlink:title="hasSpatialDirectPart">
<polygon fill="#0079ba" stroke="#000000" points="289.5,-108 161.5,-108 161.5,-72 289.5,-72 289.5,-108"/>
<text text-anchor="middle" x="225.5" y="-86.3" font-family="Times,serif" font-size="14.00" fill="#ffffff">hasSpatialDirectPart</text>
</a>
</g>
</g>
<!-- hasSpatialDirectPart&#45;&gt;hasSpatialPart -->
<g id="edge2" class="edge">
<title>hasSpatialDirectPart&#45;&gt;hasSpatialPart</title>
<path fill="none" stroke="#000000" d="M225.5,-108.1686C225.5,-115.869 225.5,-125.0257 225.5,-133.5834"/>
<polygon fill="none" stroke="#000000" points="222.0001,-133.5867 225.5,-143.5867 229.0001,-133.5868 222.0001,-133.5867"/>
</g>
<!-- hasReferenceUnit -->
<g id="node5" class="node">
<title>hasReferenceUnit</title>
<g id="a_node5"><a xlink:href="http://emmo.info/emmo/middle/metrology#EMMO_67fc0a36_8dcb_4ffa_9a43_31074efa3296" xlink:title="hasReferenceUnit">
<polygon fill="#0079ba" stroke="#000000" points="216,-36 103,-36 103,0 216,0 216,-36"/>
<text text-anchor="middle" x="159.5" y="-14.3" font-family="Times,serif" font-size="14.00" fill="#ffffff">hasReferenceUnit</text>
</a>
</g>
</g>
<!-- hasReferenceUnit&#45;&gt;hasSpatialDirectPart -->
<g id="edge13" class="edge">
<title>hasReferenceUnit&#45;&gt;hasSpatialDirectPart</title>
<path fill="none" stroke="#000000" d="M176.1546,-36.1686C183.9114,-44.6306 193.2802,-54.8511 201.761,-64.1029"/>
<polygon fill="none" stroke="#000000" points="199.2838,-66.5802 208.6212,-71.5867 204.4439,-61.8501 199.2838,-66.5802"/>
</g>
<!-- hasSpatioTemporalPart -->
<g id="node6" class="node">
<title>hasSpatioTemporalPart</title>
<g id="a_node6"><a xlink:href="http://emmo.info/emmo/top/physical#EMMO_6e046dd0_9634_4013_b2b1_9cc468087c83" xlink:title="hasSpatioTemporalPart">
<polygon fill="#0079ba" stroke="#000000" points="434.5,-180 290.5,-180 290.5,-144 434.5,-144 434.5,-180"/>
<text text-anchor="middle" x="362.5" y="-158.3" font-family="Times,serif" font-size="14.00" fill="#ffffff">hasSpatioTemporalPart</text>
</a>
</g>
</g>
<!-- hasSpatioTemporalPart&#45;&gt;hasProperPart -->
<g id="edge10" class="edge">
<title>hasSpatioTemporalPart&#45;&gt;hasProperPart</title>
<path fill="none" stroke="#000000" d="M378.9022,-180.1686C386.5415,-188.6306 395.7683,-198.8511 404.1207,-208.1029"/>
<polygon fill="none" stroke="#000000" points="401.5779,-210.5094 410.8769,-215.5867 406.7738,-205.8187 401.5779,-210.5094"/>
</g>
<!-- hasSpatioTemporalDirectPart -->
<g id="node7" class="node">
<title>hasSpatioTemporalDirectPart</title>
<g id="a_node7"><a xlink:href="http://emmo.info/emmo/middle/reductionistic#EMMO_663859e5_add3_4c9e_96fb_c99399de278d" xlink:title="hasSpatioTemporalDirectPart">
<polygon fill="#0079ba" stroke="#000000" points="485.5,-108 307.5,-108 307.5,-72 485.5,-72 485.5,-108"/>
<text text-anchor="middle" x="396.5" y="-86.3" font-family="Times,serif" font-size="14.00" fill="#ffffff">hasSpatioTemporalDirectPart</text>
</a>
</g>
</g>
<!-- hasSpatioTemporalDirectPart&#45;&gt;hasSpatioTemporalPart -->
<g id="edge5" class="edge">
<title>hasSpatioTemporalDirectPart&#45;&gt;hasSpatioTemporalPart</title>
<path fill="none" stroke="#000000" d="M387.9204,-108.1686C384.1642,-116.1229 379.6743,-125.631 375.5202,-134.4277"/>
<polygon fill="none" stroke="#000000" points="372.3004,-133.0497 371.1952,-143.5867 378.6301,-136.0388 372.3004,-133.0497"/>
</g>
<!-- hasPart -->
<g id="node8" class="node">
<title>hasPart</title>
<g id="a_node8"><a xlink:href="http://emmo.info/emmo/top/mereotopology#EMMO_17e27c22_37e1_468c_9dd7_95e137f73e7f" xlink:title="hasPart">
<polygon fill="#0079ba" stroke="#000000" stroke-width="2" points="510.5,-324 454.5,-324 454.5,-288 510.5,-288 510.5,-324"/>
<text text-anchor="middle" x="482.5" y="-302.3" font-family="Times,serif" font-size="14.00" fill="#ffffff">hasPart</text>
</a>
</g>
</g>
<!-- hasProperPart&#45;&gt;hasPart -->
<g id="edge3" class="edge">
<title>hasProperPart&#45;&gt;hasPart</title>
<path fill="none" stroke="#000000" d="M441.3788,-252.1686C447.7136,-260.4614 455.3384,-270.443 462.2926,-279.5467"/>
<polygon fill="none" stroke="#000000" points="459.5825,-281.7647 468.4343,-287.5867 465.1452,-277.5153 459.5825,-281.7647"/>
</g>
<!-- hasMember -->
<g id="node10" class="node">
<title>hasMember</title>
<g id="a_node10"><a xlink:href="http://emmo.info/emmo/top/mereotopology#EMMO_6b7276a4_4b9d_440a_b577_0277539c0fc4" xlink:title="hasMember">
<polygon fill="#0079ba" stroke="#000000" points="534.5,-180 452.5,-180 452.5,-144 534.5,-144 534.5,-180"/>
<text text-anchor="middle" x="493.5" y="-158.3" font-family="Times,serif" font-size="14.00" fill="#ffffff">hasMember</text>
</a>
</g>
</g>
<!-- hasMember&#45;&gt;hasProperPart -->
<g id="edge9" class="edge">
<title>hasMember&#45;&gt;hasProperPart</title>
<path fill="none" stroke="#000000" d="M476.8454,-180.1686C469.0886,-188.6306 459.7198,-198.8511 451.239,-208.1029"/>
<polygon fill="none" stroke="#000000" points="448.5561,-205.8501 444.3788,-215.5867 453.7162,-210.5802 448.5561,-205.8501"/>
</g>
<!-- hasParticipant&#45;&gt;hasPart -->
<g id="edge8" class="edge">
<title>hasParticipant&#45;&gt;hasPart</title>
<path fill="none" stroke="#000000" d="M553.5275,-252.1686C541.7139,-261.1221 527.3028,-272.0442 514.5565,-281.7045"/>
<polygon fill="none" stroke="#000000" points="512.3205,-279.0075 506.4648,-287.8372 516.5486,-284.5863 512.3205,-279.0075"/>
</g>
<!-- hasQuantityValue -->
<g id="node12" class="node">
<title>hasQuantityValue</title>
<g id="a_node12"><a xlink:href="http://emmo.info/emmo/middle/metrology#EMMO_8ef3cd6d_ae58_4a8d_9fc0_ad8f49015cd0" xlink:title="hasQuantityValue">
<polygon fill="#0079ba" stroke="#000000" points="348.5,-36 234.5,-36 234.5,0 348.5,0 348.5,-36"/>
<text text-anchor="middle" x="291.5" y="-14.3" font-family="Times,serif" font-size="14.00" fill="#ffffff">hasQuantityValue</text>
</a>
</g>
</g>
<!-- hasQuantityValue&#45;&gt;hasSpatialDirectPart -->
<g id="edge1" class="edge">
<title>hasQuantityValue&#45;&gt;hasSpatialDirectPart</title>
<path fill="none" stroke="#000000" d="M274.8454,-36.1686C267.0886,-44.6306 257.7198,-54.8511 249.239,-64.1029"/>
<polygon fill="none" stroke="#000000" points="246.5561,-61.8501 242.3788,-71.5867 251.7162,-66.5802 246.5561,-61.8501"/>
</g>
<!-- hasTemporalDirectPart -->
<g id="node13" class="node">
<title>hasTemporalDirectPart</title>
<g id="a_node13"><a xlink:href="http://emmo.info/emmo/middle/reductionistic#EMMO_65a2c5b8_e4d8_4a51_b2f8_e55effc0547d" xlink:title="hasTemporalDirectPart">
<polygon fill="#0079ba" stroke="#000000" points="143,-108 0,-108 0,-72 143,-72 143,-108"/>
<text text-anchor="middle" x="71.5" y="-86.3" font-family="Times,serif" font-size="14.00" fill="#ffffff">hasTemporalDirectPart</text>
</a>
</g>
</g>
<!-- hasTemporalDirectPart&#45;&gt;hasTemporalPart -->
<g id="edge4" class="edge">
<title>hasTemporalDirectPart&#45;&gt;hasTemporalPart</title>
<path fill="none" stroke="#000000" d="M75.7898,-108.1686C77.608,-115.869 79.7699,-125.0257 81.7905,-133.5834"/>
<polygon fill="none" stroke="#000000" points="78.4481,-134.6586 84.1524,-143.5867 85.2608,-133.05 78.4481,-134.6586"/>
</g>
<!-- key1 -->
<g id="node14" class="node">
<title>key1</title>
<text text-anchor="start" x="384.5" y="-13.8" font-family="Times,serif" font-size="14.00" fill="#000000">isA</text>
</g>
<!-- key2 -->
<g id="node15" class="node">
<title>key2</title>
<text text-anchor="start" x="463.5" y="-13.8" font-family="Times,serif" font-size="14.00" fill="#000000"> </text>
</g>
<!-- key1&#45;&gt;key2 -->
<g id="edge14" class="edge">
<title>key1:e&#45;&gt;key2:w</title>
<path fill="none" stroke="#000000" d="M405.5,-19C426.5,-19 434.2109,-19 451.0581,-19"/>
<polygon fill="none" stroke="#000000" points="451.5,-22.5001 461.5,-19 451.5,-15.5001 451.5,-22.5001"/>
</g>
</g>
</svg>
