<?xml version="1.0" encoding="UTF-8" standalone="no"?>
<!DOCTYPE svg PUBLIC "-//W3C//DTD SVG 1.1//EN"
 "http://www.w3.org/Graphics/SVG/1.1/DTD/svg11.dtd">
<!-- Generated by graphviz version 2.40.1 (20161225.0304)
 -->
<!-- Title: %3 Pages: 1 -->
<svg width="657pt" height="332pt"
 viewBox="0.00 0.00 656.50 332.00" xmlns="http://www.w3.org/2000/svg" xmlns:xlink="http://www.w3.org/1999/xlink">
<g id="graph0" class="graph" transform="scale(1 1) rotate(0) translate(4 328)">
<title>%3</title>
<polygon fill="#ffffff" stroke="transparent" points="-4,4 -4,-328 652.5,-328 652.5,4 -4,4"/>
<!-- hasProperPart -->
<g id="node1" class="node">
<title>hasProperPart</title>
<g id="a_node1"><a xlink:href="http://emmo.info/emmo/top/mereotopology#EMMO_9380ab64_0363_4804_b13f_3a8a94119a76" xlink:title="hasProperPart">
<polygon fill="#0079ba" stroke="#000000" points="432,-252 340,-252 340,-216 432,-216 432,-252"/>
<text text-anchor="middle" x="386" y="-230.3" font-family="Times,serif" font-size="14.00" fill="#ffffff">hasProperPart</text>
</a>
</g>
</g>
<!-- hasPart -->
<g id="node11" class="node">
<title>hasPart</title>
<g id="a_node11"><a xlink:href="http://emmo.info/emmo/top/mereotopology#EMMO_17e27c22_37e1_468c_9dd7_95e137f73e7f" xlink:title="hasPart">
<polygon fill="#0079ba" stroke="#000000" stroke-width="2" points="469,-324 413,-324 413,-288 469,-288 469,-324"/>
<text text-anchor="middle" x="441" y="-302.3" font-family="Times,serif" font-size="14.00" fill="#ffffff">hasPart</text>
</a>
</g>
</g>
<!-- hasProperPart&#45;&gt;hasPart -->
<g id="edge10" class="edge">
<title>hasProperPart&#45;&gt;hasPart</title>
<path fill="none" stroke="#000000" d="M399.8788,-252.1686C406.2136,-260.4614 413.8384,-270.443 420.7926,-279.5467"/>
<polygon fill="none" stroke="#000000" points="418.0825,-281.7647 426.9343,-287.5867 423.6452,-277.5153 418.0825,-281.7647"/>
</g>
<!-- hasSpatioTemporalPart -->
<g id="node2" class="node">
<title>hasSpatioTemporalPart</title>
<g id="a_node2"><a xlink:href="http://emmo.info/emmo/top/physical#EMMO_6e046dd0_9634_4013_b2b1_9cc468087c83" xlink:title="hasSpatioTemporalPart">
<polygon fill="#0079ba" stroke="#000000" points="161,-180 17,-180 17,-144 161,-144 161,-180"/>
<text text-anchor="middle" x="89" y="-158.3" font-family="Times,serif" font-size="14.00" fill="#ffffff">hasSpatioTemporalPart</text>
</a>
</g>
</g>
<!-- hasSpatioTemporalPart&#45;&gt;hasProperPart -->
<g id="edge12" class="edge">
<title>hasSpatioTemporalPart&#45;&gt;hasProperPart</title>
<path fill="none" stroke="#000000" d="M161.2746,-179.5211C213.2126,-192.1121 282.2182,-208.8408 329.9966,-220.4234"/>
<polygon fill="none" stroke="#000000" points="329.3129,-223.859 339.856,-222.8136 330.9622,-217.056 329.3129,-223.859"/>
</g>
<!-- hasQuantityValue -->
<g id="node3" class="node">
<title>hasQuantityValue</title>
<g id="a_node3"><a xlink:href="http://emmo.info/emmo/middle/metrology#EMMO_8ef3cd6d_ae58_4a8d_9fc0_ad8f49015cd0" xlink:title="hasQuantityValue">
<polygon fill="#0079ba" stroke="#000000" points="300,-36 186,-36 186,0 300,0 300,-36"/>
<text text-anchor="middle" x="243" y="-14.3" font-family="Times,serif" font-size="14.00" fill="#ffffff">hasQuantityValue</text>
</a>
</g>
</g>
<!-- hasSpatialDirectPart -->
<g id="node7" class="node">
<title>hasSpatialDirectPart</title>
<g id="a_node7"><a xlink:href="http://emmo.info/emmo/middle/reductionistic#EMMO_b2282816_b7a3_44c6_b2cb_3feff1ceb7fe" xlink:title="hasSpatialDirectPart">
<polygon fill="#0079ba" stroke="#000000" points="373,-108 245,-108 245,-72 373,-72 373,-108"/>
<text text-anchor="middle" x="309" y="-86.3" font-family="Times,serif" font-size="14.00" fill="#ffffff">hasSpatialDirectPart</text>
</a>
</g>
</g>
<!-- hasQuantityValue&#45;&gt;hasSpatialDirectPart -->
<g id="edge1" class="edge">
<title>hasQuantityValue&#45;&gt;hasSpatialDirectPart</title>
<path fill="none" stroke="#000000" d="M259.6546,-36.1686C267.4114,-44.6306 276.7802,-54.8511 285.261,-64.1029"/>
<polygon fill="none" stroke="#000000" points="282.7838,-66.5802 292.1212,-71.5867 287.9439,-61.8501 282.7838,-66.5802"/>
</g>
<!-- hasMember -->
<g id="node4" class="node">
<title>hasMember</title>
<g id="a_node4"><a xlink:href="http://emmo.info/emmo/top/mereotopology#EMMO_6b7276a4_4b9d_440a_b577_0277539c0fc4" xlink:title="hasMember">
<polygon fill="#0079ba" stroke="#000000" points="261,-180 179,-180 179,-144 261,-144 261,-180"/>
<text text-anchor="middle" x="220" y="-158.3" font-family="Times,serif" font-size="14.00" fill="#ffffff">hasMember</text>
</a>
</g>
</g>
<!-- hasMember&#45;&gt;hasProperPart -->
<g id="edge6" class="edge">
<title>hasMember&#45;&gt;hasProperPart</title>
<path fill="none" stroke="#000000" d="M261.0337,-179.7978C283.4102,-189.5032 311.309,-201.6039 335.0661,-211.9082"/>
<polygon fill="none" stroke="#000000" points="333.7184,-215.1386 344.2853,-215.9069 336.5038,-208.7167 333.7184,-215.1386"/>
</g>
<!-- hasSpatioTemporalDirectPart -->
<g id="node5" class="node">
<title>hasSpatioTemporalDirectPart</title>
<g id="a_node5"><a xlink:href="http://emmo.info/emmo/middle/reductionistic#EMMO_663859e5_add3_4c9e_96fb_c99399de278d" xlink:title="hasSpatioTemporalDirectPart">
<polygon fill="#0079ba" stroke="#000000" points="178,-108 0,-108 0,-72 178,-72 178,-108"/>
<text text-anchor="middle" x="89" y="-86.3" font-family="Times,serif" font-size="14.00" fill="#ffffff">hasSpatioTemporalDirectPart</text>
</a>
</g>
</g>
<!-- hasSpatioTemporalDirectPart&#45;&gt;hasSpatioTemporalPart -->
<g id="edge2" class="edge">
<title>hasSpatioTemporalDirectPart&#45;&gt;hasSpatioTemporalPart</title>
<path fill="none" stroke="#000000" d="M89,-108.1686C89,-115.869 89,-125.0257 89,-133.5834"/>
<polygon fill="none" stroke="#000000" points="85.5001,-133.5867 89,-143.5867 92.5001,-133.5868 85.5001,-133.5867"/>
</g>
<!-- hasReferenceUnit -->
<g id="node6" class="node">
<title>hasReferenceUnit</title>
<g id="a_node6"><a xlink:href="http://emmo.info/emmo/middle/metrology#EMMO_67fc0a36_8dcb_4ffa_9a43_31074efa3296" xlink:title="hasReferenceUnit">
<polygon fill="#0079ba" stroke="#000000" points="431.5,-36 318.5,-36 318.5,0 431.5,0 431.5,-36"/>
<text text-anchor="middle" x="375" y="-14.3" font-family="Times,serif" font-size="14.00" fill="#ffffff">hasReferenceUnit</text>
</a>
</g>
</g>
<!-- hasReferenceUnit&#45;&gt;hasSpatialDirectPart -->
<g id="edge7" class="edge">
<title>hasReferenceUnit&#45;&gt;hasSpatialDirectPart</title>
<path fill="none" stroke="#000000" d="M358.3454,-36.1686C350.5886,-44.6306 341.2198,-54.8511 332.739,-64.1029"/>
<polygon fill="none" stroke="#000000" points="330.0561,-61.8501 325.8788,-71.5867 335.2162,-66.5802 330.0561,-61.8501"/>
</g>
<!-- hasSpatialPart -->
<g id="node9" class="node">
<title>hasSpatialPart</title>
<g id="a_node9"><a xlink:href="http://emmo.info/emmo/top/physical#EMMO_f68030be_94b8_4c61_a161_886468558054" xlink:title="hasSpatialPart">
<polygon fill="#0079ba" stroke="#000000" points="373,-180 279,-180 279,-144 373,-144 373,-180"/>
<text text-anchor="middle" x="326" y="-158.3" font-family="Times,serif" font-size="14.00" fill="#ffffff">hasSpatialPart</text>
</a>
</g>
</g>
<!-- hasSpatialDirectPart&#45;&gt;hasSpatialPart -->
<g id="edge8" class="edge">
<title>hasSpatialDirectPart&#45;&gt;hasSpatialPart</title>
<path fill="none" stroke="#000000" d="M313.2898,-108.1686C315.108,-115.869 317.2699,-125.0257 319.2905,-133.5834"/>
<polygon fill="none" stroke="#000000" points="315.9481,-134.6586 321.6524,-143.5867 322.7608,-133.05 315.9481,-134.6586"/>
</g>
<!-- hasProperParticipant -->
<g id="node8" class="node">
<title>hasProperParticipant</title>
<g id="a_node8"><a xlink:href="http://emmo.info/emmo/middle/holistic#EMMO_c5aae418_1622_4d02_93c5_21159e28e6c1" xlink:title="hasProperParticipant">
<polygon fill="#0079ba" stroke="#000000" points="648.5,-180 519.5,-180 519.5,-144 648.5,-144 648.5,-180"/>
<text text-anchor="middle" x="584" y="-158.3" font-family="Times,serif" font-size="14.00" fill="#ffffff">hasProperParticipant</text>
</a>
</g>
</g>
<!-- hasProperParticipant&#45;&gt;hasProperPart -->
<g id="edge5" class="edge">
<title>hasProperParticipant&#45;&gt;hasProperPart</title>
<path fill="none" stroke="#000000" d="M534.2918,-180.0757C506.1949,-190.2928 470.9863,-203.0959 441.9277,-213.6627"/>
<polygon fill="none" stroke="#000000" points="440.5298,-210.4467 432.328,-217.1535 442.922,-217.0253 440.5298,-210.4467"/>
</g>
<!-- hasParticipant -->
<g id="node10" class="node">
<title>hasParticipant</title>
<g id="a_node10"><a xlink:href="http://emmo.info/emmo/middle/holistic#EMMO_ae2d1a96_bfa1_409a_a7d2_03d69e8a125a" xlink:title="hasParticipant">
<polygon fill="#0079ba" stroke="#000000" points="586.5,-252 493.5,-252 493.5,-216 586.5,-216 586.5,-252"/>
<text text-anchor="middle" x="540" y="-230.3" font-family="Times,serif" font-size="14.00" fill="#ffffff">hasParticipant</text>
</a>
</g>
</g>
<!-- hasProperParticipant&#45;&gt;hasParticipant -->
<g id="edge4" class="edge">
<title>hasProperParticipant&#45;&gt;hasParticipant</title>
<path fill="none" stroke="#000000" d="M572.8969,-180.1686C567.9326,-188.2921 561.9778,-198.0363 556.5072,-206.9882"/>
<polygon fill="none" stroke="#000000" points="553.4806,-205.2288 551.2526,-215.5867 559.4536,-208.879 553.4806,-205.2288"/>
</g>
<!-- hasSpatialPart&#45;&gt;hasProperPart -->
<g id="edge9" class="edge">
<title>hasSpatialPart&#45;&gt;hasProperPart</title>
<path fill="none" stroke="#000000" d="M341.1405,-180.1686C348.1217,-188.546 356.5391,-198.6469 364.1876,-207.8251"/>
<polygon fill="none" stroke="#000000" points="361.5649,-210.1452 370.6556,-215.5867 366.9425,-205.6638 361.5649,-210.1452"/>
</g>
<!-- hasParticipant&#45;&gt;hasPart -->
<g id="edge3" class="edge">
<title>hasParticipant&#45;&gt;hasPart</title>
<path fill="none" stroke="#000000" d="M515.0181,-252.1686C502.7072,-261.1221 487.6893,-272.0442 474.4063,-281.7045"/>
<polygon fill="none" stroke="#000000" points="472.0027,-279.1248 465.9739,-287.8372 476.1199,-284.786 472.0027,-279.1248"/>
</g>
<!-- hasTemporalDirectPart -->
<g id="node12" class="node">
<title>hasTemporalDirectPart</title>
<g id="a_node12"><a xlink:href="http://emmo.info/emmo/middle/reductionistic#EMMO_65a2c5b8_e4d8_4a51_b2f8_e55effc0547d" xlink:title="hasTemporalDirectPart">
<polygon fill="#0079ba" stroke="#000000" points="534.5,-108 391.5,-108 391.5,-72 534.5,-72 534.5,-108"/>
<text text-anchor="middle" x="463" y="-86.3" font-family="Times,serif" font-size="14.00" fill="#ffffff">hasTemporalDirectPart</text>
</a>
</g>
</g>
<!-- hasTemporalPart -->
<g id="node13" class="node">
<title>hasTemporalPart</title>
<g id="a_node13"><a xlink:href="http://emmo.info/emmo/top/physical#EMMO_7afbed84_7593_4a23_bd88_9d9c6b04e8f6" xlink:title="hasTemporalPart">
<polygon fill="#0079ba" stroke="#000000" points="501,-180 391,-180 391,-144 501,-144 501,-180"/>
<text text-anchor="middle" x="446" y="-158.3" font-family="Times,serif" font-size="14.00" fill="#ffffff">hasTemporalPart</text>
</a>
</g>
</g>
<!-- hasTemporalDirectPart&#45;&gt;hasTemporalPart -->
<g id="edge13" class="edge">
<title>hasTemporalDirectPart&#45;&gt;hasTemporalPart</title>
<path fill="none" stroke="#000000" d="M458.7102,-108.1686C456.892,-115.869 454.7301,-125.0257 452.7095,-133.5834"/>
<polygon fill="none" stroke="#000000" points="449.2392,-133.05 450.3476,-143.5867 456.0519,-134.6586 449.2392,-133.05"/>
</g>
<!-- hasTemporalPart&#45;&gt;hasProperPart -->
<g id="edge11" class="edge">
<title>hasTemporalPart&#45;&gt;hasProperPart</title>
<path fill="none" stroke="#000000" d="M430.8595,-180.1686C423.8783,-188.546 415.4609,-198.6469 407.8124,-207.8251"/>
<polygon fill="none" stroke="#000000" points="405.0575,-205.6638 401.3444,-215.5867 410.4351,-210.1452 405.0575,-205.6638"/>
</g>
<!-- key1 -->
<g id="node14" class="node">
<title>key1</title>
<text text-anchor="start" x="468" y="-13.8" font-family="Times,serif" font-size="14.00" fill="#000000">isA</text>
</g>
<!-- key2 -->
<g id="node15" class="node">
<title>key2</title>
<text text-anchor="start" x="547" y="-13.8" font-family="Times,serif" font-size="14.00" fill="#000000"> </text>
</g>
<!-- key1&#45;&gt;key2 -->
<g id="edge14" class="edge">
<title>key1:e&#45;&gt;key2:w</title>
<path fill="none" stroke="#000000" d="M489,-19C510,-19 517.7109,-19 534.5581,-19"/>
<polygon fill="none" stroke="#000000" points="535,-22.5001 545,-19 535,-15.5001 535,-22.5001"/>
</g>
</g>
</svg>
