<?xml version="1.0" encoding="UTF-8" standalone="no"?>
<!DOCTYPE svg PUBLIC "-//W3C//DTD SVG 1.1//EN"
 "http://www.w3.org/Graphics/SVG/1.1/DTD/svg11.dtd">
<!-- Generated by graphviz version 2.40.1 (20161225.0304)
 -->
<!-- Title: %3 Pages: 1 -->
<svg width="640pt" height="332pt"
 viewBox="0.00 0.00 639.50 332.00" xmlns="http://www.w3.org/2000/svg" xmlns:xlink="http://www.w3.org/1999/xlink">
<g id="graph0" class="graph" transform="scale(1 1) rotate(0) translate(4 328)">
<title>%3</title>
<polygon fill="#ffffff" stroke="transparent" points="-4,4 -4,-328 635.5,-328 635.5,4 -4,4"/>
<!-- hasMember -->
<g id="node1" class="node">
<title>hasMember</title>
<g id="a_node1"><a xlink:href="http://emmo.info/emmo/top/mereotopology#EMMO_6b7276a4_4b9d_440a_b577_0277539c0fc4" xlink:title="hasMember">
<polygon fill="#0079ba" stroke="#000000" points="82,-180 0,-180 0,-144 82,-144 82,-180"/>
<text text-anchor="middle" x="41" y="-158.3" font-family="Times,serif" font-size="14.00" fill="#ffffff">hasMember</text>
</a>
</g>
</g>
<!-- hasProperPart -->
<g id="node6" class="node">
<title>hasProperPart</title>
<g id="a_node6"><a xlink:href="http://emmo.info/emmo/top/mereotopology#EMMO_9380ab64_0363_4804_b13f_3a8a94119a76" xlink:title="hasProperPart">
<polygon fill="#0079ba" stroke="#000000" points="415,-252 323,-252 323,-216 415,-216 415,-252"/>
<text text-anchor="middle" x="369" y="-230.3" font-family="Times,serif" font-size="14.00" fill="#ffffff">hasProperPart</text>
</a>
</g>
</g>
<!-- hasMember&#45;&gt;hasProperPart -->
<g id="edge4" class="edge">
<title>hasMember&#45;&gt;hasProperPart</title>
<path fill="none" stroke="#000000" d="M82.0397,-177.3398C85.0553,-178.2927 88.0647,-179.1917 91,-180 166.6381,-200.8281 255.9922,-216.6714 312.5767,-225.6519"/>
<polygon fill="none" stroke="#000000" points="312.3285,-229.1558 322.7502,-227.2486 313.4139,-222.2404 312.3285,-229.1558"/>
</g>
<!-- hasTemporalDirectPart -->
<g id="node2" class="node">
<title>hasTemporalDirectPart</title>
<g id="a_node2"><a xlink:href="http://emmo.info/emmo/middle/reductionistic#EMMO_65a2c5b8_e4d8_4a51_b2f8_e55effc0547d" xlink:title="hasTemporalDirectPart">
<polygon fill="#0079ba" stroke="#000000" points="534.5,-108 391.5,-108 391.5,-72 534.5,-72 534.5,-108"/>
<text text-anchor="middle" x="463" y="-86.3" font-family="Times,serif" font-size="14.00" fill="#ffffff">hasTemporalDirectPart</text>
</a>
</g>
</g>
<!-- hasTemporalPart -->
<g id="node13" class="node">
<title>hasTemporalPart</title>
<g id="a_node13"><a xlink:href="http://emmo.info/emmo/top/physical#EMMO_7afbed84_7593_4a23_bd88_9d9c6b04e8f6" xlink:title="hasTemporalPart">
<polygon fill="#0079ba" stroke="#000000" points="484,-180 374,-180 374,-144 484,-144 484,-180"/>
<text text-anchor="middle" x="429" y="-158.3" font-family="Times,serif" font-size="14.00" fill="#ffffff">hasTemporalPart</text>
</a>
</g>
</g>
<!-- hasTemporalDirectPart&#45;&gt;hasTemporalPart -->
<g id="edge11" class="edge">
<title>hasTemporalDirectPart&#45;&gt;hasTemporalPart</title>
<path fill="none" stroke="#000000" d="M454.4204,-108.1686C450.6642,-116.1229 446.1743,-125.631 442.0202,-134.4277"/>
<polygon fill="none" stroke="#000000" points="438.8004,-133.0497 437.6952,-143.5867 445.1301,-136.0388 438.8004,-133.0497"/>
</g>
<!-- hasSpatioTemporalPart -->
<g id="node3" class="node">
<title>hasSpatioTemporalPart</title>
<g id="a_node3"><a xlink:href="http://emmo.info/emmo/top/physical#EMMO_6e046dd0_9634_4013_b2b1_9cc468087c83" xlink:title="hasSpatioTemporalPart">
<polygon fill="#0079ba" stroke="#000000" points="244,-180 100,-180 100,-144 244,-144 244,-180"/>
<text text-anchor="middle" x="172" y="-158.3" font-family="Times,serif" font-size="14.00" fill="#ffffff">hasSpatioTemporalPart</text>
</a>
</g>
</g>
<!-- hasSpatioTemporalPart&#45;&gt;hasProperPart -->
<g id="edge10" class="edge">
<title>hasSpatioTemporalPart&#45;&gt;hasProperPart</title>
<path fill="none" stroke="#000000" d="M221.4571,-180.0757C249.4122,-190.2928 284.4429,-203.0959 313.3548,-213.6627"/>
<polygon fill="none" stroke="#000000" points="312.3122,-217.008 322.906,-217.1535 314.7151,-210.4333 312.3122,-217.008"/>
</g>
<!-- hasSpatioTemporalDirectPart -->
<g id="node4" class="node">
<title>hasSpatioTemporalDirectPart</title>
<g id="a_node4"><a xlink:href="http://emmo.info/emmo/middle/reductionistic#EMMO_663859e5_add3_4c9e_96fb_c99399de278d" xlink:title="hasSpatioTemporalDirectPart">
<polygon fill="#0079ba" stroke="#000000" points="227,-108 49,-108 49,-72 227,-72 227,-108"/>
<text text-anchor="middle" x="138" y="-86.3" font-family="Times,serif" font-size="14.00" fill="#ffffff">hasSpatioTemporalDirectPart</text>
</a>
</g>
</g>
<!-- hasSpatioTemporalDirectPart&#45;&gt;hasSpatioTemporalPart -->
<g id="edge13" class="edge">
<title>hasSpatioTemporalDirectPart&#45;&gt;hasSpatioTemporalPart</title>
<path fill="none" stroke="#000000" d="M146.5796,-108.1686C150.3358,-116.1229 154.8257,-125.631 158.9798,-134.4277"/>
<polygon fill="none" stroke="#000000" points="155.8699,-136.0388 163.3048,-143.5867 162.1996,-133.0497 155.8699,-136.0388"/>
</g>
<!-- hasProperParticipant -->
<g id="node5" class="node">
<title>hasProperParticipant</title>
<g id="a_node5"><a xlink:href="http://emmo.info/emmo/middle/holistic#EMMO_c5aae418_1622_4d02_93c5_21159e28e6c1" xlink:title="hasProperParticipant">
<polygon fill="#0079ba" stroke="#000000" points="631.5,-180 502.5,-180 502.5,-144 631.5,-144 631.5,-180"/>
<text text-anchor="middle" x="567" y="-158.3" font-family="Times,serif" font-size="14.00" fill="#ffffff">hasProperParticipant</text>
</a>
</g>
</g>
<!-- hasProperParticipant&#45;&gt;hasProperPart -->
<g id="edge7" class="edge">
<title>hasProperParticipant&#45;&gt;hasProperPart</title>
<path fill="none" stroke="#000000" d="M517.2918,-180.0757C489.1949,-190.2928 453.9863,-203.0959 424.9277,-213.6627"/>
<polygon fill="none" stroke="#000000" points="423.5298,-210.4467 415.328,-217.1535 425.922,-217.0253 423.5298,-210.4467"/>
</g>
<!-- hasParticipant -->
<g id="node10" class="node">
<title>hasParticipant</title>
<g id="a_node10"><a xlink:href="http://emmo.info/emmo/middle/holistic#EMMO_ae2d1a96_bfa1_409a_a7d2_03d69e8a125a" xlink:title="hasParticipant">
<polygon fill="#0079ba" stroke="#000000" points="569.5,-252 476.5,-252 476.5,-216 569.5,-216 569.5,-252"/>
<text text-anchor="middle" x="523" y="-230.3" font-family="Times,serif" font-size="14.00" fill="#ffffff">hasParticipant</text>
</a>
</g>
</g>
<!-- hasProperParticipant&#45;&gt;hasParticipant -->
<g id="edge6" class="edge">
<title>hasProperParticipant&#45;&gt;hasParticipant</title>
<path fill="none" stroke="#000000" d="M555.8969,-180.1686C550.9326,-188.2921 544.9778,-198.0363 539.5072,-206.9882"/>
<polygon fill="none" stroke="#000000" points="536.4806,-205.2288 534.2526,-215.5867 542.4536,-208.879 536.4806,-205.2288"/>
</g>
<!-- hasPart -->
<g id="node9" class="node">
<title>hasPart</title>
<g id="a_node9"><a xlink:href="http://emmo.info/emmo/top/mereotopology#EMMO_17e27c22_37e1_468c_9dd7_95e137f73e7f" xlink:title="hasPart">
<polygon fill="#0079ba" stroke="#000000" stroke-width="2" points="452,-324 396,-324 396,-288 452,-288 452,-324"/>
<text text-anchor="middle" x="424" y="-302.3" font-family="Times,serif" font-size="14.00" fill="#ffffff">hasPart</text>
</a>
</g>
</g>
<!-- hasProperPart&#45;&gt;hasPart -->
<g id="edge12" class="edge">
<title>hasProperPart&#45;&gt;hasPart</title>
<path fill="none" stroke="#000000" d="M382.8788,-252.1686C389.2136,-260.4614 396.8384,-270.443 403.7926,-279.5467"/>
<polygon fill="none" stroke="#000000" points="401.0825,-281.7647 409.9343,-287.5867 406.6452,-277.5153 401.0825,-281.7647"/>
</g>
<!-- hasSpatialPart -->
<g id="node7" class="node">
<title>hasSpatialPart</title>
<g id="a_node7"><a xlink:href="http://emmo.info/emmo/top/physical#EMMO_f68030be_94b8_4c61_a161_886468558054" xlink:title="hasSpatialPart">
<polygon fill="#0079ba" stroke="#000000" points="356,-180 262,-180 262,-144 356,-144 356,-180"/>
<text text-anchor="middle" x="309" y="-158.3" font-family="Times,serif" font-size="14.00" fill="#ffffff">hasSpatialPart</text>
</a>
</g>
</g>
<!-- hasSpatialPart&#45;&gt;hasProperPart -->
<g id="edge2" class="edge">
<title>hasSpatialPart&#45;&gt;hasProperPart</title>
<path fill="none" stroke="#000000" d="M324.1405,-180.1686C331.1217,-188.546 339.5391,-198.6469 347.1876,-207.8251"/>
<polygon fill="none" stroke="#000000" points="344.5649,-210.1452 353.6556,-215.5867 349.9425,-205.6638 344.5649,-210.1452"/>
</g>
<!-- hasReferenceUnit -->
<g id="node8" class="node">
<title>hasReferenceUnit</title>
<g id="a_node8"><a xlink:href="http://emmo.info/emmo/middle/metrology#EMMO_67fc0a36_8dcb_4ffa_9a43_31074efa3296" xlink:title="hasReferenceUnit">
<polygon fill="#0079ba" stroke="#000000" points="299.5,-36 186.5,-36 186.5,0 299.5,0 299.5,-36"/>
<text text-anchor="middle" x="243" y="-14.3" font-family="Times,serif" font-size="14.00" fill="#ffffff">hasReferenceUnit</text>
</a>
</g>
</g>
<!-- hasSpatialDirectPart -->
<g id="node12" class="node">
<title>hasSpatialDirectPart</title>
<g id="a_node12"><a xlink:href="http://emmo.info/emmo/middle/reductionistic#EMMO_b2282816_b7a3_44c6_b2cb_3feff1ceb7fe" xlink:title="hasSpatialDirectPart">
<polygon fill="#0079ba" stroke="#000000" points="373,-108 245,-108 245,-72 373,-72 373,-108"/>
<text text-anchor="middle" x="309" y="-86.3" font-family="Times,serif" font-size="14.00" fill="#ffffff">hasSpatialDirectPart</text>
</a>
</g>
</g>
<!-- hasReferenceUnit&#45;&gt;hasSpatialDirectPart -->
<g id="edge8" class="edge">
<title>hasReferenceUnit&#45;&gt;hasSpatialDirectPart</title>
<path fill="none" stroke="#000000" d="M259.6546,-36.1686C267.4114,-44.6306 276.7802,-54.8511 285.261,-64.1029"/>
<polygon fill="none" stroke="#000000" points="282.7838,-66.5802 292.1212,-71.5867 287.9439,-61.8501 282.7838,-66.5802"/>
</g>
<!-- hasParticipant&#45;&gt;hasPart -->
<g id="edge5" class="edge">
<title>hasParticipant&#45;&gt;hasPart</title>
<path fill="none" stroke="#000000" d="M498.0181,-252.1686C485.7072,-261.1221 470.6893,-272.0442 457.4063,-281.7045"/>
<polygon fill="none" stroke="#000000" points="455.0027,-279.1248 448.9739,-287.8372 459.1199,-284.786 455.0027,-279.1248"/>
</g>
<!-- hasQuantityValue -->
<g id="node11" class="node">
<title>hasQuantityValue</title>
<g id="a_node11"><a xlink:href="http://emmo.info/emmo/middle/metrology#EMMO_8ef3cd6d_ae58_4a8d_9fc0_ad8f49015cd0" xlink:title="hasQuantityValue">
<polygon fill="#0079ba" stroke="#000000" points="432,-36 318,-36 318,0 432,0 432,-36"/>
<text text-anchor="middle" x="375" y="-14.3" font-family="Times,serif" font-size="14.00" fill="#ffffff">hasQuantityValue</text>
</a>
</g>
</g>
<!-- hasQuantityValue&#45;&gt;hasSpatialDirectPart -->
<g id="edge9" class="edge">
<title>hasQuantityValue&#45;&gt;hasSpatialDirectPart</title>
<path fill="none" stroke="#000000" d="M358.3454,-36.1686C350.5886,-44.6306 341.2198,-54.8511 332.739,-64.1029"/>
<polygon fill="none" stroke="#000000" points="330.0561,-61.8501 325.8788,-71.5867 335.2162,-66.5802 330.0561,-61.8501"/>
</g>
<!-- hasSpatialDirectPart&#45;&gt;hasSpatialPart -->
<g id="edge3" class="edge">
<title>hasSpatialDirectPart&#45;&gt;hasSpatialPart</title>
<path fill="none" stroke="#000000" d="M309,-108.1686C309,-115.869 309,-125.0257 309,-133.5834"/>
<polygon fill="none" stroke="#000000" points="305.5001,-133.5867 309,-143.5867 312.5001,-133.5868 305.5001,-133.5867"/>
</g>
<!-- hasTemporalPart&#45;&gt;hasProperPart -->
<g id="edge1" class="edge">
<title>hasTemporalPart&#45;&gt;hasProperPart</title>
<path fill="none" stroke="#000000" d="M413.8595,-180.1686C406.8783,-188.546 398.4609,-198.6469 390.8124,-207.8251"/>
<polygon fill="none" stroke="#000000" points="388.0575,-205.6638 384.3444,-215.5867 393.4351,-210.1452 388.0575,-205.6638"/>
</g>
<!-- key1 -->
<g id="node14" class="node">
<title>key1</title>
<text text-anchor="start" x="468" y="-13.8" font-family="Times,serif" font-size="14.00" fill="#000000">isA</text>
</g>
<!-- key2 -->
<g id="node15" class="node">
<title>key2</title>
<text text-anchor="start" x="547" y="-13.8" font-family="Times,serif" font-size="14.00" fill="#000000"> </text>
</g>
<!-- key1&#45;&gt;key2 -->
<g id="edge14" class="edge">
<title>key1:e&#45;&gt;key2:w</title>
<path fill="none" stroke="#000000" d="M489,-19C510,-19 517.7109,-19 534.5581,-19"/>
<polygon fill="none" stroke="#000000" points="535,-22.5001 545,-19 535,-15.5001 535,-22.5001"/>
</g>
</g>
</svg>
