<?xml version="1.0" encoding="UTF-8" standalone="no"?>
<!DOCTYPE svg PUBLIC "-//W3C//DTD SVG 1.1//EN"
 "http://www.w3.org/Graphics/SVG/1.1/DTD/svg11.dtd">
<!-- Generated by graphviz version 2.40.1 (20161225.0304)
 -->
<!-- Title: %3 Pages: 1 -->
<svg width="860pt" height="332pt"
 viewBox="0.00 0.00 859.50 332.00" xmlns="http://www.w3.org/2000/svg" xmlns:xlink="http://www.w3.org/1999/xlink">
<g id="graph0" class="graph" transform="scale(1 1) rotate(0) translate(4 328)">
<title>%3</title>
<polygon fill="#ffffff" stroke="transparent" points="-4,4 -4,-328 855.5,-328 855.5,4 -4,4"/>
<!-- hasSpatialPart -->
<g id="node1" class="node">
<title>hasSpatialPart</title>
<g id="a_node1"><a xlink:href="http://emmo.info/emmo/top/physical#EMMO_f68030be_94b8_4c61_a161_886468558054" xlink:title="hasSpatialPart">
<polygon fill="#0079ba" stroke="#000000" points="631.5,-180 537.5,-180 537.5,-144 631.5,-144 631.5,-180"/>
<text text-anchor="middle" x="584.5" y="-158.3" font-family="Times,serif" font-size="14.00" fill="#ffffff">hasSpatialPart</text>
</a>
</g>
</g>
<!-- hasProperPart -->
<g id="node13" class="node">
<title>hasProperPart</title>
<g id="a_node13"><a xlink:href="http://emmo.info/emmo/top/mereotopology#EMMO_9380ab64_0363_4804_b13f_3a8a94119a76" xlink:title="hasProperPart">
<polygon fill="#0079ba" stroke="#000000" points="337.5,-252 245.5,-252 245.5,-216 337.5,-216 337.5,-252"/>
<text text-anchor="middle" x="291.5" y="-230.3" font-family="Times,serif" font-size="14.00" fill="#ffffff">hasProperPart</text>
</a>
</g>
</g>
<!-- hasSpatialPart&#45;&gt;hasProperPart -->
<g id="edge6" class="edge">
<title>hasSpatialPart&#45;&gt;hasProperPart</title>
<path fill="none" stroke="#000000" d="M537.2302,-177.5128C534.2839,-178.3807 531.3562,-179.2172 528.5,-180 467.1354,-196.8188 395.8433,-212.5578 347.6038,-222.6548"/>
<polygon fill="none" stroke="#000000" points="346.7487,-219.2577 337.6718,-224.7221 348.1752,-226.1108 346.7487,-219.2577"/>
</g>
<!-- hasSpatioTemporalPart -->
<g id="node2" class="node">
<title>hasSpatioTemporalPart</title>
<g id="a_node2"><a xlink:href="http://emmo.info/emmo/top/physical#EMMO_6e046dd0_9634_4013_b2b1_9cc468087c83" xlink:title="hasSpatioTemporalPart">
<polygon fill="#0079ba" stroke="#000000" points="291.5,-180 147.5,-180 147.5,-144 291.5,-144 291.5,-180"/>
<text text-anchor="middle" x="219.5" y="-158.3" font-family="Times,serif" font-size="14.00" fill="#ffffff">hasSpatioTemporalPart</text>
</a>
</g>
</g>
<!-- hasSpatioTemporalPart&#45;&gt;hasProperPart -->
<g id="edge7" class="edge">
<title>hasSpatioTemporalPart&#45;&gt;hasProperPart</title>
<path fill="none" stroke="#000000" d="M237.6686,-180.1686C246.2152,-188.7152 256.5557,-199.0557 265.8802,-208.3802"/>
<polygon fill="none" stroke="#000000" points="263.5408,-210.9905 273.0867,-215.5867 268.4905,-206.0408 263.5408,-210.9905"/>
</g>
<!-- hasQuantityValue -->
<g id="node3" class="node">
<title>hasQuantityValue</title>
<g id="a_node3"><a xlink:href="http://emmo.info/emmo/middle/metrology#EMMO_8ef3cd6d_ae58_4a8d_9fc0_ad8f49015cd0" xlink:title="hasQuantityValue">
<polygon fill="#0079ba" stroke="#000000" points="575.5,-36 461.5,-36 461.5,0 575.5,0 575.5,-36"/>
<text text-anchor="middle" x="518.5" y="-14.3" font-family="Times,serif" font-size="14.00" fill="#ffffff">hasQuantityValue</text>
</a>
</g>
</g>
<!-- hasSpatialDirectPart -->
<g id="node4" class="node">
<title>hasSpatialDirectPart</title>
<g id="a_node4"><a xlink:href="http://emmo.info/emmo/middle/reductionistic#EMMO_b2282816_b7a3_44c6_b2cb_3feff1ceb7fe" xlink:title="hasSpatialDirectPart">
<polygon fill="#0079ba" stroke="#000000" points="648.5,-108 520.5,-108 520.5,-72 648.5,-72 648.5,-108"/>
<text text-anchor="middle" x="584.5" y="-86.3" font-family="Times,serif" font-size="14.00" fill="#ffffff">hasSpatialDirectPart</text>
</a>
</g>
</g>
<!-- hasQuantityValue&#45;&gt;hasSpatialDirectPart -->
<g id="edge9" class="edge">
<title>hasQuantityValue&#45;&gt;hasSpatialDirectPart</title>
<path fill="none" stroke="#000000" d="M535.1546,-36.1686C542.9114,-44.6306 552.2802,-54.8511 560.761,-64.1029"/>
<polygon fill="none" stroke="#000000" points="558.2838,-66.5802 567.6212,-71.5867 563.4439,-61.8501 558.2838,-66.5802"/>
</g>
<!-- hasSpatialDirectPart&#45;&gt;hasSpatialPart -->
<g id="edge5" class="edge">
<title>hasSpatialDirectPart&#45;&gt;hasSpatialPart</title>
<path fill="none" stroke="#000000" d="M584.5,-108.1686C584.5,-115.869 584.5,-125.0257 584.5,-133.5834"/>
<polygon fill="none" stroke="#000000" points="581.0001,-133.5867 584.5,-143.5867 588.0001,-133.5868 581.0001,-133.5867"/>
</g>
<!-- hasReferenceUnit -->
<g id="node5" class="node">
<title>hasReferenceUnit</title>
<g id="a_node5"><a xlink:href="http://emmo.info/emmo/middle/metrology#EMMO_67fc0a36_8dcb_4ffa_9a43_31074efa3296" xlink:title="hasReferenceUnit">
<polygon fill="#0079ba" stroke="#000000" points="707,-36 594,-36 594,0 707,0 707,-36"/>
<text text-anchor="middle" x="650.5" y="-14.3" font-family="Times,serif" font-size="14.00" fill="#ffffff">hasReferenceUnit</text>
</a>
</g>
</g>
<!-- hasReferenceUnit&#45;&gt;hasSpatialDirectPart -->
<g id="edge8" class="edge">
<title>hasReferenceUnit&#45;&gt;hasSpatialDirectPart</title>
<path fill="none" stroke="#000000" d="M633.8454,-36.1686C626.0886,-44.6306 616.7198,-54.8511 608.239,-64.1029"/>
<polygon fill="none" stroke="#000000" points="605.5561,-61.8501 601.3788,-71.5867 610.7162,-66.5802 605.5561,-61.8501"/>
</g>
<!-- hasParticipant -->
<g id="node6" class="node">
<title>hasParticipant</title>
<g id="a_node6"><a xlink:href="http://emmo.info/emmo/middle/holistic#EMMO_ae2d1a96_bfa1_409a_a7d2_03d69e8a125a" xlink:title="hasParticipant">
<polygon fill="#0079ba" stroke="#000000" points="205,-252 112,-252 112,-216 205,-216 205,-252"/>
<text text-anchor="middle" x="158.5" y="-230.3" font-family="Times,serif" font-size="14.00" fill="#ffffff">hasParticipant</text>
</a>
</g>
</g>
<!-- hasPart -->
<g id="node11" class="node">
<title>hasPart</title>
<g id="a_node11"><a xlink:href="http://emmo.info/emmo/top/mereotopology#EMMO_17e27c22_37e1_468c_9dd7_95e137f73e7f" xlink:title="hasPart">
<polygon fill="#0079ba" stroke="#000000" stroke-width="2" points="241.5,-324 185.5,-324 185.5,-288 241.5,-288 241.5,-324"/>
<text text-anchor="middle" x="213.5" y="-302.3" font-family="Times,serif" font-size="14.00" fill="#ffffff">hasPart</text>
</a>
</g>
</g>
<!-- hasParticipant&#45;&gt;hasPart -->
<g id="edge10" class="edge">
<title>hasParticipant&#45;&gt;hasPart</title>
<path fill="none" stroke="#000000" d="M172.3788,-252.1686C178.7136,-260.4614 186.3384,-270.443 193.2926,-279.5467"/>
<polygon fill="none" stroke="#000000" points="190.5825,-281.7647 199.4343,-287.5867 196.1452,-277.5153 190.5825,-281.7647"/>
</g>
<!-- hasSpatioTemporalDirectPart -->
<g id="node7" class="node">
<title>hasSpatioTemporalDirectPart</title>
<g id="a_node7"><a xlink:href="http://emmo.info/emmo/middle/reductionistic#EMMO_663859e5_add3_4c9e_96fb_c99399de278d" xlink:title="hasSpatioTemporalDirectPart">
<polygon fill="#0079ba" stroke="#000000" points="291.5,-108 113.5,-108 113.5,-72 291.5,-72 291.5,-108"/>
<text text-anchor="middle" x="202.5" y="-86.3" font-family="Times,serif" font-size="14.00" fill="#ffffff">hasSpatioTemporalDirectPart</text>
</a>
</g>
</g>
<!-- hasSpatioTemporalDirectPart&#45;&gt;hasSpatioTemporalPart -->
<g id="edge4" class="edge">
<title>hasSpatioTemporalDirectPart&#45;&gt;hasSpatioTemporalPart</title>
<path fill="none" stroke="#000000" d="M206.7898,-108.1686C208.608,-115.869 210.7699,-125.0257 212.7905,-133.5834"/>
<polygon fill="none" stroke="#000000" points="209.4481,-134.6586 215.1524,-143.5867 216.2608,-133.05 209.4481,-134.6586"/>
</g>
<!-- hasTemporalDirectPart -->
<g id="node8" class="node">
<title>hasTemporalDirectPart</title>
<g id="a_node8"><a xlink:href="http://emmo.info/emmo/middle/reductionistic#EMMO_65a2c5b8_e4d8_4a51_b2f8_e55effc0547d" xlink:title="hasTemporalDirectPart">
<polygon fill="#0079ba" stroke="#000000" points="453,-108 310,-108 310,-72 453,-72 453,-108"/>
<text text-anchor="middle" x="381.5" y="-86.3" font-family="Times,serif" font-size="14.00" fill="#ffffff">hasTemporalDirectPart</text>
</a>
</g>
</g>
<!-- hasTemporalPart -->
<g id="node9" class="node">
<title>hasTemporalPart</title>
<g id="a_node9"><a xlink:href="http://emmo.info/emmo/top/physical#EMMO_7afbed84_7593_4a23_bd88_9d9c6b04e8f6" xlink:title="hasTemporalPart">
<polygon fill="#0079ba" stroke="#000000" points="419.5,-180 309.5,-180 309.5,-144 419.5,-144 419.5,-180"/>
<text text-anchor="middle" x="364.5" y="-158.3" font-family="Times,serif" font-size="14.00" fill="#ffffff">hasTemporalPart</text>
</a>
</g>
</g>
<!-- hasTemporalDirectPart&#45;&gt;hasTemporalPart -->
<g id="edge13" class="edge">
<title>hasTemporalDirectPart&#45;&gt;hasTemporalPart</title>
<path fill="none" stroke="#000000" d="M377.2102,-108.1686C375.392,-115.869 373.2301,-125.0257 371.2095,-133.5834"/>
<polygon fill="none" stroke="#000000" points="367.7392,-133.05 368.8476,-143.5867 374.5519,-134.6586 367.7392,-133.05"/>
</g>
<!-- hasTemporalPart&#45;&gt;hasProperPart -->
<g id="edge11" class="edge">
<title>hasTemporalPart&#45;&gt;hasProperPart</title>
<path fill="none" stroke="#000000" d="M346.079,-180.1686C337.3471,-188.781 326.7683,-199.2149 317.2577,-208.5952"/>
<polygon fill="none" stroke="#000000" points="314.577,-206.3231 309.9151,-215.8372 319.4925,-211.3069 314.577,-206.3231"/>
</g>
<!-- hasProperParticipant -->
<g id="node10" class="node">
<title>hasProperParticipant</title>
<g id="a_node10"><a xlink:href="http://emmo.info/emmo/middle/holistic#EMMO_c5aae418_1622_4d02_93c5_21159e28e6c1" xlink:title="hasProperParticipant">
<polygon fill="#0079ba" stroke="#000000" points="129,-180 0,-180 0,-144 129,-144 129,-180"/>
<text text-anchor="middle" x="64.5" y="-158.3" font-family="Times,serif" font-size="14.00" fill="#ffffff">hasProperParticipant</text>
</a>
</g>
</g>
<!-- hasProperParticipant&#45;&gt;hasParticipant -->
<g id="edge2" class="edge">
<title>hasProperParticipant&#45;&gt;hasParticipant</title>
<path fill="none" stroke="#000000" d="M88.2202,-180.1686C99.9094,-189.1221 114.1688,-200.0442 126.7809,-209.7045"/>
<polygon fill="none" stroke="#000000" points="124.7203,-212.5349 134.7874,-215.8372 128.9769,-206.9778 124.7203,-212.5349"/>
</g>
<!-- hasProperParticipant&#45;&gt;hasProperPart -->
<g id="edge3" class="edge">
<title>hasProperParticipant&#45;&gt;hasProperPart</title>
<path fill="none" stroke="#000000" d="M121.4887,-180.0757C156.2726,-191.1085 200.5635,-205.1567 235.2176,-216.1483"/>
<polygon fill="none" stroke="#000000" points="234.5896,-219.6209 245.1798,-219.3081 236.706,-212.9485 234.5896,-219.6209"/>
</g>
<!-- hasMember -->
<g id="node12" class="node">
<title>hasMember</title>
<g id="a_node12"><a xlink:href="http://emmo.info/emmo/top/mereotopology#EMMO_6b7276a4_4b9d_440a_b577_0277539c0fc4" xlink:title="hasMember">
<polygon fill="#0079ba" stroke="#000000" points="519.5,-180 437.5,-180 437.5,-144 519.5,-144 519.5,-180"/>
<text text-anchor="middle" x="478.5" y="-158.3" font-family="Times,serif" font-size="14.00" fill="#ffffff">hasMember</text>
</a>
</g>
</g>
<!-- hasMember&#45;&gt;hasProperPart -->
<g id="edge12" class="edge">
<title>hasMember&#45;&gt;hasProperPart</title>
<path fill="none" stroke="#000000" d="M437.4621,-177.8007C410.9954,-187.9911 376.2369,-201.374 347.2784,-212.5238"/>
<polygon fill="none" stroke="#000000" points="345.7749,-209.3522 337.7004,-216.2116 348.2901,-215.8847 345.7749,-209.3522"/>
</g>
<!-- hasProperPart&#45;&gt;hasPart -->
<g id="edge1" class="edge">
<title>hasProperPart&#45;&gt;hasPart</title>
<path fill="none" stroke="#000000" d="M271.8173,-252.1686C262.3949,-260.8663 250.9599,-271.4217 240.7204,-280.8735"/>
<polygon fill="none" stroke="#000000" points="238.1505,-278.4825 233.1764,-287.8372 242.8984,-283.6262 238.1505,-278.4825"/>
</g>
<!-- key1 -->
<g id="node14" class="node">
<title>key1</title>
<text text-anchor="start" x="743.5" y="-13.8" font-family="Times,serif" font-size="14.00" fill="#000000">isA</text>
</g>
<!-- key2 -->
<g id="node15" class="node">
<title>key2</title>
<text text-anchor="start" x="822.5" y="-13.8" font-family="Times,serif" font-size="14.00" fill="#000000"> </text>
</g>
<!-- key1&#45;&gt;key2 -->
<g id="edge14" class="edge">
<title>key1:e&#45;&gt;key2:w</title>
<path fill="none" stroke="#000000" d="M764.5,-19C785.5,-19 793.2109,-19 810.0581,-19"/>
<polygon fill="none" stroke="#000000" points="810.5,-22.5001 820.5,-19 810.5,-15.5001 810.5,-22.5001"/>
</g>
</g>
</svg>
