<?xml version="1.0" encoding="UTF-8" standalone="no"?>
<!DOCTYPE svg PUBLIC "-//W3C//DTD SVG 1.1//EN"
 "http://www.w3.org/Graphics/SVG/1.1/DTD/svg11.dtd">
<!-- Generated by graphviz version 2.40.1 (20161225.0304)
 -->
<!-- Title: %3 Pages: 1 -->
<svg width="697pt" height="332pt"
 viewBox="0.00 0.00 696.50 332.00" xmlns="http://www.w3.org/2000/svg" xmlns:xlink="http://www.w3.org/1999/xlink">
<g id="graph0" class="graph" transform="scale(1 1) rotate(0) translate(4 328)">
<title>%3</title>
<polygon fill="#ffffff" stroke="transparent" points="-4,4 -4,-328 692.5,-328 692.5,4 -4,4"/>
<!-- hasTemporalDirectPart -->
<g id="node1" class="node">
<title>hasTemporalDirectPart</title>
<g id="a_node1"><a xlink:href="http://emmo.info/emmo/middle/reductionistic#EMMO_65a2c5b8_e4d8_4a51_b2f8_e55effc0547d" xlink:title="hasTemporalDirectPart">
<polygon fill="#0079ba" stroke="#000000" points="143,-108 0,-108 0,-72 143,-72 143,-108"/>
<text text-anchor="middle" x="71.5" y="-86.3" font-family="Times,serif" font-size="14.00" fill="#ffffff">hasTemporalDirectPart</text>
</a>
</g>
</g>
<!-- hasTemporalPart -->
<g id="node8" class="node">
<title>hasTemporalPart</title>
<g id="a_node8"><a xlink:href="http://emmo.info/emmo/top/physical#EMMO_7afbed84_7593_4a23_bd88_9d9c6b04e8f6" xlink:title="hasTemporalPart">
<polygon fill="#0079ba" stroke="#000000" points="143.5,-180 33.5,-180 33.5,-144 143.5,-144 143.5,-180"/>
<text text-anchor="middle" x="88.5" y="-158.3" font-family="Times,serif" font-size="14.00" fill="#ffffff">hasTemporalPart</text>
</a>
</g>
</g>
<!-- hasTemporalDirectPart&#45;&gt;hasTemporalPart -->
<g id="edge1" class="edge">
<title>hasTemporalDirectPart&#45;&gt;hasTemporalPart</title>
<path fill="none" stroke="#000000" d="M75.7898,-108.1686C77.608,-115.869 79.7699,-125.0257 81.7905,-133.5834"/>
<polygon fill="none" stroke="#000000" points="78.4481,-134.6586 84.1524,-143.5867 85.2608,-133.05 78.4481,-134.6586"/>
</g>
<!-- hasSpatioTemporalPart -->
<g id="node2" class="node">
<title>hasSpatioTemporalPart</title>
<g id="a_node2"><a xlink:href="http://emmo.info/emmo/top/physical#EMMO_6e046dd0_9634_4013_b2b1_9cc468087c83" xlink:title="hasSpatioTemporalPart">
<polygon fill="#0079ba" stroke="#000000" points="322.5,-180 178.5,-180 178.5,-144 322.5,-144 322.5,-180"/>
<text text-anchor="middle" x="250.5" y="-158.3" font-family="Times,serif" font-size="14.00" fill="#ffffff">hasSpatioTemporalPart</text>
</a>
</g>
</g>
<!-- hasProperPart -->
<g id="node3" class="node">
<title>hasProperPart</title>
<g id="a_node3"><a xlink:href="http://emmo.info/emmo/top/mereotopology#EMMO_9380ab64_0363_4804_b13f_3a8a94119a76" xlink:title="hasProperPart">
<polygon fill="#0079ba" stroke="#000000" points="486.5,-252 394.5,-252 394.5,-216 486.5,-216 486.5,-252"/>
<text text-anchor="middle" x="440.5" y="-230.3" font-family="Times,serif" font-size="14.00" fill="#ffffff">hasProperPart</text>
</a>
</g>
</g>
<!-- hasSpatioTemporalPart&#45;&gt;hasProperPart -->
<g id="edge2" class="edge">
<title>hasSpatioTemporalPart&#45;&gt;hasProperPart</title>
<path fill="none" stroke="#000000" d="M298.445,-180.1686C324.7015,-190.1185 357.3737,-202.4995 384.7624,-212.8784"/>
<polygon fill="none" stroke="#000000" points="383.6192,-216.188 394.2106,-216.4588 386.0998,-209.6422 383.6192,-216.188"/>
</g>
<!-- hasPart -->
<g id="node4" class="node">
<title>hasPart</title>
<g id="a_node4"><a xlink:href="http://emmo.info/emmo/top/mereotopology#EMMO_17e27c22_37e1_468c_9dd7_95e137f73e7f" xlink:title="hasPart">
<polygon fill="#0079ba" stroke="#000000" stroke-width="2" points="523.5,-324 467.5,-324 467.5,-288 523.5,-288 523.5,-324"/>
<text text-anchor="middle" x="495.5" y="-302.3" font-family="Times,serif" font-size="14.00" fill="#ffffff">hasPart</text>
</a>
</g>
</g>
<!-- hasProperPart&#45;&gt;hasPart -->
<g id="edge6" class="edge">
<title>hasProperPart&#45;&gt;hasPart</title>
<path fill="none" stroke="#000000" d="M454.3788,-252.1686C460.7136,-260.4614 468.3384,-270.443 475.2926,-279.5467"/>
<polygon fill="none" stroke="#000000" points="472.5825,-281.7647 481.4343,-287.5867 478.1452,-277.5153 472.5825,-281.7647"/>
</g>
<!-- hasParticipant -->
<g id="node5" class="node">
<title>hasParticipant</title>
<g id="a_node5"><a xlink:href="http://emmo.info/emmo/middle/holistic#EMMO_ae2d1a96_bfa1_409a_a7d2_03d69e8a125a" xlink:title="hasParticipant">
<polygon fill="#0079ba" stroke="#000000" points="631,-252 538,-252 538,-216 631,-216 631,-252"/>
<text text-anchor="middle" x="584.5" y="-230.3" font-family="Times,serif" font-size="14.00" fill="#ffffff">hasParticipant</text>
</a>
</g>
</g>
<!-- hasParticipant&#45;&gt;hasPart -->
<g id="edge3" class="edge">
<title>hasParticipant&#45;&gt;hasPart</title>
<path fill="none" stroke="#000000" d="M562.0415,-252.1686C551.0795,-261.0368 537.7301,-271.8363 525.8735,-281.4282"/>
<polygon fill="none" stroke="#000000" points="523.5245,-278.8266 517.9513,-287.8372 527.9271,-284.2687 523.5245,-278.8266"/>
</g>
<!-- hasSpatialDirectPart -->
<g id="node6" class="node">
<title>hasSpatialDirectPart</title>
<g id="a_node6"><a xlink:href="http://emmo.info/emmo/middle/reductionistic#EMMO_b2282816_b7a3_44c6_b2cb_3feff1ceb7fe" xlink:title="hasSpatialDirectPart">
<polygon fill="#0079ba" stroke="#000000" points="485.5,-108 357.5,-108 357.5,-72 485.5,-72 485.5,-108"/>
<text text-anchor="middle" x="421.5" y="-86.3" font-family="Times,serif" font-size="14.00" fill="#ffffff">hasSpatialDirectPart</text>
</a>
</g>
</g>
<!-- hasSpatialPart -->
<g id="node7" class="node">
<title>hasSpatialPart</title>
<g id="a_node7"><a xlink:href="http://emmo.info/emmo/top/physical#EMMO_f68030be_94b8_4c61_a161_886468558054" xlink:title="hasSpatialPart">
<polygon fill="#0079ba" stroke="#000000" points="434.5,-180 340.5,-180 340.5,-144 434.5,-144 434.5,-180"/>
<text text-anchor="middle" x="387.5" y="-158.3" font-family="Times,serif" font-size="14.00" fill="#ffffff">hasSpatialPart</text>
</a>
</g>
</g>
<!-- hasSpatialDirectPart&#45;&gt;hasSpatialPart -->
<g id="edge7" class="edge">
<title>hasSpatialDirectPart&#45;&gt;hasSpatialPart</title>
<path fill="none" stroke="#000000" d="M412.9204,-108.1686C409.1642,-116.1229 404.6743,-125.631 400.5202,-134.4277"/>
<polygon fill="none" stroke="#000000" points="397.3004,-133.0497 396.1952,-143.5867 403.6301,-136.0388 397.3004,-133.0497"/>
</g>
<!-- hasSpatialPart&#45;&gt;hasProperPart -->
<g id="edge13" class="edge">
<title>hasSpatialPart&#45;&gt;hasProperPart</title>
<path fill="none" stroke="#000000" d="M400.8741,-180.1686C406.9162,-188.3768 414.1763,-198.2394 420.8221,-207.2677"/>
<polygon fill="none" stroke="#000000" points="418.1989,-209.6082 426.9458,-215.5867 423.8363,-205.4585 418.1989,-209.6082"/>
</g>
<!-- hasTemporalPart&#45;&gt;hasProperPart -->
<g id="edge9" class="edge">
<title>hasTemporalPart&#45;&gt;hasProperPart</title>
<path fill="none" stroke="#000000" d="M143.8012,-174.4592C152.3978,-176.3468 161.1834,-178.2476 169.5,-180 243.7429,-195.6441 329.6853,-212.5688 384.5347,-223.2209"/>
<polygon fill="none" stroke="#000000" points="383.9212,-226.667 394.4047,-225.1352 385.254,-219.7951 383.9212,-226.667"/>
</g>
<!-- hasReferenceUnit -->
<g id="node9" class="node">
<title>hasReferenceUnit</title>
<g id="a_node9"><a xlink:href="http://emmo.info/emmo/middle/metrology#EMMO_67fc0a36_8dcb_4ffa_9a43_31074efa3296" xlink:title="hasReferenceUnit">
<polygon fill="#0079ba" stroke="#000000" points="412,-36 299,-36 299,0 412,0 412,-36"/>
<text text-anchor="middle" x="355.5" y="-14.3" font-family="Times,serif" font-size="14.00" fill="#ffffff">hasReferenceUnit</text>
</a>
</g>
</g>
<!-- hasReferenceUnit&#45;&gt;hasSpatialDirectPart -->
<g id="edge4" class="edge">
<title>hasReferenceUnit&#45;&gt;hasSpatialDirectPart</title>
<path fill="none" stroke="#000000" d="M372.1546,-36.1686C379.9114,-44.6306 389.2802,-54.8511 397.761,-64.1029"/>
<polygon fill="none" stroke="#000000" points="395.2838,-66.5802 404.6212,-71.5867 400.4439,-61.8501 395.2838,-66.5802"/>
</g>
<!-- hasMember -->
<g id="node10" class="node">
<title>hasMember</title>
<g id="a_node10"><a xlink:href="http://emmo.info/emmo/top/mereotopology#EMMO_6b7276a4_4b9d_440a_b577_0277539c0fc4" xlink:title="hasMember">
<polygon fill="#0079ba" stroke="#000000" points="534.5,-180 452.5,-180 452.5,-144 534.5,-144 534.5,-180"/>
<text text-anchor="middle" x="493.5" y="-158.3" font-family="Times,serif" font-size="14.00" fill="#ffffff">hasMember</text>
</a>
</g>
</g>
<!-- hasMember&#45;&gt;hasProperPart -->
<g id="edge8" class="edge">
<title>hasMember&#45;&gt;hasProperPart</title>
<path fill="none" stroke="#000000" d="M480.1259,-180.1686C474.0838,-188.3768 466.8237,-198.2394 460.1779,-207.2677"/>
<polygon fill="none" stroke="#000000" points="457.1637,-205.4585 454.0542,-215.5867 462.8011,-209.6082 457.1637,-205.4585"/>
</g>
<!-- hasQuantityValue -->
<g id="node11" class="node">
<title>hasQuantityValue</title>
<g id="a_node11"><a xlink:href="http://emmo.info/emmo/middle/metrology#EMMO_8ef3cd6d_ae58_4a8d_9fc0_ad8f49015cd0" xlink:title="hasQuantityValue">
<polygon fill="#0079ba" stroke="#000000" points="544.5,-36 430.5,-36 430.5,0 544.5,0 544.5,-36"/>
<text text-anchor="middle" x="487.5" y="-14.3" font-family="Times,serif" font-size="14.00" fill="#ffffff">hasQuantityValue</text>
</a>
</g>
</g>
<!-- hasQuantityValue&#45;&gt;hasSpatialDirectPart -->
<g id="edge10" class="edge">
<title>hasQuantityValue&#45;&gt;hasSpatialDirectPart</title>
<path fill="none" stroke="#000000" d="M470.8454,-36.1686C463.0886,-44.6306 453.7198,-54.8511 445.239,-64.1029"/>
<polygon fill="none" stroke="#000000" points="442.5561,-61.8501 438.3788,-71.5867 447.7162,-66.5802 442.5561,-61.8501"/>
</g>
<!-- hasSpatioTemporalDirectPart -->
<g id="node12" class="node">
<title>hasSpatioTemporalDirectPart</title>
<g id="a_node12"><a xlink:href="http://emmo.info/emmo/middle/reductionistic#EMMO_663859e5_add3_4c9e_96fb_c99399de278d" xlink:title="hasSpatioTemporalDirectPart">
<polygon fill="#0079ba" stroke="#000000" points="339.5,-108 161.5,-108 161.5,-72 339.5,-72 339.5,-108"/>
<text text-anchor="middle" x="250.5" y="-86.3" font-family="Times,serif" font-size="14.00" fill="#ffffff">hasSpatioTemporalDirectPart</text>
</a>
</g>
</g>
<!-- hasSpatioTemporalDirectPart&#45;&gt;hasSpatioTemporalPart -->
<g id="edge5" class="edge">
<title>hasSpatioTemporalDirectPart&#45;&gt;hasSpatioTemporalPart</title>
<path fill="none" stroke="#000000" d="M250.5,-108.1686C250.5,-115.869 250.5,-125.0257 250.5,-133.5834"/>
<polygon fill="none" stroke="#000000" points="247.0001,-133.5867 250.5,-143.5867 254.0001,-133.5868 247.0001,-133.5867"/>
</g>
<!-- hasProperParticipant -->
<g id="node13" class="node">
<title>hasProperParticipant</title>
<g id="a_node13"><a xlink:href="http://emmo.info/emmo/middle/holistic#EMMO_c5aae418_1622_4d02_93c5_21159e28e6c1" xlink:title="hasProperParticipant">
<polygon fill="#0079ba" stroke="#000000" points="682,-180 553,-180 553,-144 682,-144 682,-180"/>
<text text-anchor="middle" x="617.5" y="-158.3" font-family="Times,serif" font-size="14.00" fill="#ffffff">hasProperParticipant</text>
</a>
</g>
</g>
<!-- hasProperParticipant&#45;&gt;hasProperPart -->
<g id="edge12" class="edge">
<title>hasProperParticipant&#45;&gt;hasProperPart</title>
<path fill="none" stroke="#000000" d="M572.8354,-180.1686C548.9523,-189.8838 519.371,-201.9169 494.2372,-212.1408"/>
<polygon fill="none" stroke="#000000" points="492.7875,-208.9519 484.8434,-215.962 495.4252,-215.436 492.7875,-208.9519"/>
</g>
<!-- hasProperParticipant&#45;&gt;hasParticipant -->
<g id="edge11" class="edge">
<title>hasProperParticipant&#45;&gt;hasParticipant</title>
<path fill="none" stroke="#000000" d="M609.1727,-180.1686C605.527,-188.1229 601.1691,-197.631 597.1373,-206.4277"/>
<polygon fill="none" stroke="#000000" points="593.9243,-205.0378 592.9394,-215.5867 600.2877,-207.9544 593.9243,-205.0378"/>
</g>
<!-- key1 -->
<g id="node14" class="node">
<title>key1</title>
<text text-anchor="start" x="580.5" y="-13.8" font-family="Times,serif" font-size="14.00" fill="#000000">isA</text>
</g>
<!-- key2 -->
<g id="node15" class="node">
<title>key2</title>
<text text-anchor="start" x="659.5" y="-13.8" font-family="Times,serif" font-size="14.00" fill="#000000"> </text>
</g>
<!-- key1&#45;&gt;key2 -->
<g id="edge14" class="edge">
<title>key1:e&#45;&gt;key2:w</title>
<path fill="none" stroke="#000000" d="M601.5,-19C622.5,-19 630.2109,-19 647.0581,-19"/>
<polygon fill="none" stroke="#000000" points="647.5,-22.5001 657.5,-19 647.5,-15.5001 647.5,-22.5001"/>
</g>
</g>
</svg>
