<?xml version="1.0" encoding="UTF-8" standalone="no"?>
<!DOCTYPE svg PUBLIC "-//W3C//DTD SVG 1.1//EN"
 "http://www.w3.org/Graphics/SVG/1.1/DTD/svg11.dtd">
<!-- Generated by graphviz version 2.40.1 (20161225.0304)
 -->
<!-- Title: %3 Pages: 1 -->
<svg width="749pt" height="332pt"
 viewBox="0.00 0.00 749.00 332.00" xmlns="http://www.w3.org/2000/svg" xmlns:xlink="http://www.w3.org/1999/xlink">
<g id="graph0" class="graph" transform="scale(1 1) rotate(0) translate(4 328)">
<title>%3</title>
<polygon fill="#ffffff" stroke="transparent" points="-4,4 -4,-328 745,-328 745,4 -4,4"/>
<!-- hasReferenceUnit -->
<g id="node1" class="node">
<title>hasReferenceUnit</title>
<g id="a_node1"><a xlink:href="http://emmo.info/emmo/middle/metrology#EMMO_67fc0a36_8dcb_4ffa_9a43_31074efa3296" xlink:title="hasReferenceUnit">
<polygon fill="#0079ba" stroke="#000000" points="113,-36 0,-36 0,0 113,0 113,-36"/>
<text text-anchor="middle" x="56.5" y="-14.3" font-family="Times,serif" font-size="14.00" fill="#ffffff">hasReferenceUnit</text>
</a>
</g>
</g>
<!-- hasSpatialDirectPart -->
<g id="node9" class="node">
<title>hasSpatialDirectPart</title>
<g id="a_node9"><a xlink:href="http://emmo.info/emmo/middle/reductionistic#EMMO_b2282816_b7a3_44c6_b2cb_3feff1ceb7fe" xlink:title="hasSpatialDirectPart">
<polygon fill="#0079ba" stroke="#000000" points="186.5,-108 58.5,-108 58.5,-72 186.5,-72 186.5,-108"/>
<text text-anchor="middle" x="122.5" y="-86.3" font-family="Times,serif" font-size="14.00" fill="#ffffff">hasSpatialDirectPart</text>
</a>
</g>
</g>
<!-- hasReferenceUnit&#45;&gt;hasSpatialDirectPart -->
<g id="edge6" class="edge">
<title>hasReferenceUnit&#45;&gt;hasSpatialDirectPart</title>
<path fill="none" stroke="#000000" d="M73.1546,-36.1686C80.9114,-44.6306 90.2802,-54.8511 98.761,-64.1029"/>
<polygon fill="none" stroke="#000000" points="96.2838,-66.5802 105.6212,-71.5867 101.4439,-61.8501 96.2838,-66.5802"/>
</g>
<!-- hasSpatialPart -->
<g id="node2" class="node">
<title>hasSpatialPart</title>
<g id="a_node2"><a xlink:href="http://emmo.info/emmo/top/physical#EMMO_f68030be_94b8_4c61_a161_886468558054" xlink:title="hasSpatialPart">
<polygon fill="#0079ba" stroke="#000000" points="186.5,-180 92.5,-180 92.5,-144 186.5,-144 186.5,-180"/>
<text text-anchor="middle" x="139.5" y="-158.3" font-family="Times,serif" font-size="14.00" fill="#ffffff">hasSpatialPart</text>
</a>
</g>
</g>
<!-- hasProperPart -->
<g id="node3" class="node">
<title>hasProperPart</title>
<g id="a_node3"><a xlink:href="http://emmo.info/emmo/top/mereotopology#EMMO_9380ab64_0363_4804_b13f_3a8a94119a76" xlink:title="hasProperPart">
<polygon fill="#0079ba" stroke="#000000" points="532.5,-252 440.5,-252 440.5,-216 532.5,-216 532.5,-252"/>
<text text-anchor="middle" x="486.5" y="-230.3" font-family="Times,serif" font-size="14.00" fill="#ffffff">hasProperPart</text>
</a>
</g>
</g>
<!-- hasSpatialPart&#45;&gt;hasProperPart -->
<g id="edge9" class="edge">
<title>hasSpatialPart&#45;&gt;hasProperPart</title>
<path fill="none" stroke="#000000" d="M186.5463,-173.9462C195.163,-176.0357 204.0891,-178.1353 212.5,-180 287.5863,-196.6465 374.8223,-213.3967 430.3219,-223.7307"/>
<polygon fill="none" stroke="#000000" points="429.8346,-227.2 440.3055,-225.5841 431.1123,-220.3176 429.8346,-227.2"/>
</g>
<!-- hasPart -->
<g id="node13" class="node">
<title>hasPart</title>
<g id="a_node13"><a xlink:href="http://emmo.info/emmo/top/mereotopology#EMMO_17e27c22_37e1_468c_9dd7_95e137f73e7f" xlink:title="hasPart">
<polygon fill="#0079ba" stroke="#000000" stroke-width="2" points="569.5,-324 513.5,-324 513.5,-288 569.5,-288 569.5,-324"/>
<text text-anchor="middle" x="541.5" y="-302.3" font-family="Times,serif" font-size="14.00" fill="#ffffff">hasPart</text>
</a>
</g>
</g>
<!-- hasProperPart&#45;&gt;hasPart -->
<g id="edge7" class="edge">
<title>hasProperPart&#45;&gt;hasPart</title>
<path fill="none" stroke="#000000" d="M500.3788,-252.1686C506.7136,-260.4614 514.3384,-270.443 521.2926,-279.5467"/>
<polygon fill="none" stroke="#000000" points="518.5825,-281.7647 527.4343,-287.5867 524.1452,-277.5153 518.5825,-281.7647"/>
</g>
<!-- hasTemporalDirectPart -->
<g id="node4" class="node">
<title>hasTemporalDirectPart</title>
<g id="a_node4"><a xlink:href="http://emmo.info/emmo/middle/reductionistic#EMMO_65a2c5b8_e4d8_4a51_b2f8_e55effc0547d" xlink:title="hasTemporalDirectPart">
<polygon fill="#0079ba" stroke="#000000" points="348,-108 205,-108 205,-72 348,-72 348,-108"/>
<text text-anchor="middle" x="276.5" y="-86.3" font-family="Times,serif" font-size="14.00" fill="#ffffff">hasTemporalDirectPart</text>
</a>
</g>
</g>
<!-- hasTemporalPart -->
<g id="node5" class="node">
<title>hasTemporalPart</title>
<g id="a_node5"><a xlink:href="http://emmo.info/emmo/top/physical#EMMO_7afbed84_7593_4a23_bd88_9d9c6b04e8f6" xlink:title="hasTemporalPart">
<polygon fill="#0079ba" stroke="#000000" points="331.5,-180 221.5,-180 221.5,-144 331.5,-144 331.5,-180"/>
<text text-anchor="middle" x="276.5" y="-158.3" font-family="Times,serif" font-size="14.00" fill="#ffffff">hasTemporalPart</text>
</a>
</g>
</g>
<!-- hasTemporalDirectPart&#45;&gt;hasTemporalPart -->
<g id="edge8" class="edge">
<title>hasTemporalDirectPart&#45;&gt;hasTemporalPart</title>
<path fill="none" stroke="#000000" d="M276.5,-108.1686C276.5,-115.869 276.5,-125.0257 276.5,-133.5834"/>
<polygon fill="none" stroke="#000000" points="273.0001,-133.5867 276.5,-143.5867 280.0001,-133.5868 273.0001,-133.5867"/>
</g>
<!-- hasTemporalPart&#45;&gt;hasProperPart -->
<g id="edge5" class="edge">
<title>hasTemporalPart&#45;&gt;hasProperPart</title>
<path fill="none" stroke="#000000" d="M329.2208,-180.0757C360.1606,-190.6836 399.2311,-204.0792 430.6903,-214.8652"/>
<polygon fill="none" stroke="#000000" points="429.5971,-218.1904 440.1917,-218.1229 431.8674,-211.5688 429.5971,-218.1904"/>
</g>
<!-- hasSpatioTemporalPart -->
<g id="node6" class="node">
<title>hasSpatioTemporalPart</title>
<g id="a_node6"><a xlink:href="http://emmo.info/emmo/top/physical#EMMO_6e046dd0_9634_4013_b2b1_9cc468087c83" xlink:title="hasSpatioTemporalPart">
<polygon fill="#0079ba" stroke="#000000" points="493.5,-180 349.5,-180 349.5,-144 493.5,-144 493.5,-180"/>
<text text-anchor="middle" x="421.5" y="-158.3" font-family="Times,serif" font-size="14.00" fill="#ffffff">hasSpatioTemporalPart</text>
</a>
</g>
</g>
<!-- hasSpatioTemporalPart&#45;&gt;hasProperPart -->
<g id="edge4" class="edge">
<title>hasSpatioTemporalPart&#45;&gt;hasProperPart</title>
<path fill="none" stroke="#000000" d="M437.9022,-180.1686C445.5415,-188.6306 454.7683,-198.8511 463.1207,-208.1029"/>
<polygon fill="none" stroke="#000000" points="460.5779,-210.5094 469.8769,-215.5867 465.7738,-205.8187 460.5779,-210.5094"/>
</g>
<!-- hasQuantityValue -->
<g id="node7" class="node">
<title>hasQuantityValue</title>
<g id="a_node7"><a xlink:href="http://emmo.info/emmo/middle/metrology#EMMO_8ef3cd6d_ae58_4a8d_9fc0_ad8f49015cd0" xlink:title="hasQuantityValue">
<polygon fill="#0079ba" stroke="#000000" points="245.5,-36 131.5,-36 131.5,0 245.5,0 245.5,-36"/>
<text text-anchor="middle" x="188.5" y="-14.3" font-family="Times,serif" font-size="14.00" fill="#ffffff">hasQuantityValue</text>
</a>
</g>
</g>
<!-- hasQuantityValue&#45;&gt;hasSpatialDirectPart -->
<g id="edge10" class="edge">
<title>hasQuantityValue&#45;&gt;hasSpatialDirectPart</title>
<path fill="none" stroke="#000000" d="M171.8454,-36.1686C164.0886,-44.6306 154.7198,-54.8511 146.239,-64.1029"/>
<polygon fill="none" stroke="#000000" points="143.5561,-61.8501 139.3788,-71.5867 148.7162,-66.5802 143.5561,-61.8501"/>
</g>
<!-- hasSpatioTemporalDirectPart -->
<g id="node8" class="node">
<title>hasSpatioTemporalDirectPart</title>
<g id="a_node8"><a xlink:href="http://emmo.info/emmo/middle/reductionistic#EMMO_663859e5_add3_4c9e_96fb_c99399de278d" xlink:title="hasSpatioTemporalDirectPart">
<polygon fill="#0079ba" stroke="#000000" points="544.5,-108 366.5,-108 366.5,-72 544.5,-72 544.5,-108"/>
<text text-anchor="middle" x="455.5" y="-86.3" font-family="Times,serif" font-size="14.00" fill="#ffffff">hasSpatioTemporalDirectPart</text>
</a>
</g>
</g>
<!-- hasSpatioTemporalDirectPart&#45;&gt;hasSpatioTemporalPart -->
<g id="edge3" class="edge">
<title>hasSpatioTemporalDirectPart&#45;&gt;hasSpatioTemporalPart</title>
<path fill="none" stroke="#000000" d="M446.9204,-108.1686C443.1642,-116.1229 438.6743,-125.631 434.5202,-134.4277"/>
<polygon fill="none" stroke="#000000" points="431.3004,-133.0497 430.1952,-143.5867 437.6301,-136.0388 431.3004,-133.0497"/>
</g>
<!-- hasSpatialDirectPart&#45;&gt;hasSpatialPart -->
<g id="edge11" class="edge">
<title>hasSpatialDirectPart&#45;&gt;hasSpatialPart</title>
<path fill="none" stroke="#000000" d="M126.7898,-108.1686C128.608,-115.869 130.7699,-125.0257 132.7905,-133.5834"/>
<polygon fill="none" stroke="#000000" points="129.4481,-134.6586 135.1524,-143.5867 136.2608,-133.05 129.4481,-134.6586"/>
</g>
<!-- hasProperParticipant -->
<g id="node10" class="node">
<title>hasProperParticipant</title>
<g id="a_node10"><a xlink:href="http://emmo.info/emmo/middle/holistic#EMMO_c5aae418_1622_4d02_93c5_21159e28e6c1" xlink:title="hasProperParticipant">
<polygon fill="#0079ba" stroke="#000000" points="741,-180 612,-180 612,-144 741,-144 741,-180"/>
<text text-anchor="middle" x="676.5" y="-158.3" font-family="Times,serif" font-size="14.00" fill="#ffffff">hasProperParticipant</text>
</a>
</g>
</g>
<!-- hasProperParticipant&#45;&gt;hasProperPart -->
<g id="edge13" class="edge">
<title>hasProperParticipant&#45;&gt;hasProperPart</title>
<path fill="none" stroke="#000000" d="M628.555,-180.1686C602.2985,-190.1185 569.6263,-202.4995 542.2376,-212.8784"/>
<polygon fill="none" stroke="#000000" points="540.9002,-209.6422 532.7894,-216.4588 543.3808,-216.188 540.9002,-209.6422"/>
</g>
<!-- hasParticipant -->
<g id="node11" class="node">
<title>hasParticipant</title>
<g id="a_node11"><a xlink:href="http://emmo.info/emmo/middle/holistic#EMMO_ae2d1a96_bfa1_409a_a7d2_03d69e8a125a" xlink:title="hasParticipant">
<polygon fill="#0079ba" stroke="#000000" points="683,-252 590,-252 590,-216 683,-216 683,-252"/>
<text text-anchor="middle" x="636.5" y="-230.3" font-family="Times,serif" font-size="14.00" fill="#ffffff">hasParticipant</text>
</a>
</g>
</g>
<!-- hasProperParticipant&#45;&gt;hasParticipant -->
<g id="edge12" class="edge">
<title>hasProperParticipant&#45;&gt;hasParticipant</title>
<path fill="none" stroke="#000000" d="M666.4063,-180.1686C661.9403,-188.2075 656.5925,-197.8334 651.6621,-206.7082"/>
<polygon fill="none" stroke="#000000" points="648.5265,-205.1454 646.7296,-215.5867 654.6456,-208.5449 648.5265,-205.1454"/>
</g>
<!-- hasParticipant&#45;&gt;hasPart -->
<g id="edge2" class="edge">
<title>hasParticipant&#45;&gt;hasPart</title>
<path fill="none" stroke="#000000" d="M612.5275,-252.1686C600.7139,-261.1221 586.3028,-272.0442 573.5565,-281.7045"/>
<polygon fill="none" stroke="#000000" points="571.3205,-279.0075 565.4648,-287.8372 575.5486,-284.5863 571.3205,-279.0075"/>
</g>
<!-- hasMember -->
<g id="node12" class="node">
<title>hasMember</title>
<g id="a_node12"><a xlink:href="http://emmo.info/emmo/top/mereotopology#EMMO_6b7276a4_4b9d_440a_b577_0277539c0fc4" xlink:title="hasMember">
<polygon fill="#0079ba" stroke="#000000" points="593.5,-180 511.5,-180 511.5,-144 593.5,-144 593.5,-180"/>
<text text-anchor="middle" x="552.5" y="-158.3" font-family="Times,serif" font-size="14.00" fill="#ffffff">hasMember</text>
</a>
</g>
</g>
<!-- hasMember&#45;&gt;hasProperPart -->
<g id="edge1" class="edge">
<title>hasMember&#45;&gt;hasProperPart</title>
<path fill="none" stroke="#000000" d="M535.8454,-180.1686C528.0886,-188.6306 518.7198,-198.8511 510.239,-208.1029"/>
<polygon fill="none" stroke="#000000" points="507.5561,-205.8501 503.3788,-215.5867 512.7162,-210.5802 507.5561,-205.8501"/>
</g>
<!-- key1 -->
<g id="node14" class="node">
<title>key1</title>
<text text-anchor="start" x="281.5" y="-13.8" font-family="Times,serif" font-size="14.00" fill="#000000">isA</text>
</g>
<!-- key2 -->
<g id="node15" class="node">
<title>key2</title>
<text text-anchor="start" x="360.5" y="-13.8" font-family="Times,serif" font-size="14.00" fill="#000000"> </text>
</g>
<!-- key1&#45;&gt;key2 -->
<g id="edge14" class="edge">
<title>key1:e&#45;&gt;key2:w</title>
<path fill="none" stroke="#000000" d="M302.5,-19C323.5,-19 331.2109,-19 348.0581,-19"/>
<polygon fill="none" stroke="#000000" points="348.5,-22.5001 358.5,-19 348.5,-15.5001 348.5,-22.5001"/>
</g>
</g>
</svg>
