<?xml version="1.0" encoding="UTF-8" standalone="no"?>
<!DOCTYPE svg PUBLIC "-//W3C//DTD SVG 1.1//EN"
 "http://www.w3.org/Graphics/SVG/1.1/DTD/svg11.dtd">
<!-- Generated by graphviz version 2.40.1 (20161225.0304)
 -->
<!-- Title: %3 Pages: 1 -->
<svg width="691pt" height="392pt"
 viewBox="0.00 0.00 690.50 392.00" xmlns="http://www.w3.org/2000/svg" xmlns:xlink="http://www.w3.org/1999/xlink">
<g id="graph0" class="graph" transform="scale(1 1) rotate(0) translate(4 388)">
<title>%3</title>
<polygon fill="#ffffff" stroke="transparent" points="-4,4 -4,-388 686.5,-388 686.5,4 -4,4"/>
<!-- hasProperPart -->
<g id="node1" class="node">
<title>hasProperPart</title>
<g id="a_node1"><a xlink:href="http://emmo.info/emmo/top/mereotopology#EMMO_9380ab64_0363_4804_b13f_3a8a94119a76" xlink:title="hasProperPart">
<polygon fill="#0079ba" stroke="#000000" points="244.5,-297 152.5,-297 152.5,-261 244.5,-261 244.5,-297"/>
<text text-anchor="middle" x="198.5" y="-275.3" font-family="Times,serif" font-size="14.00" fill="#ffffff">hasProperPart</text>
</a>
</g>
</g>
<!-- hasPart -->
<g id="node6" class="node">
<title>hasPart</title>
<g id="a_node6"><a xlink:href="http://emmo.info/emmo/top/mereotopology#EMMO_17e27c22_37e1_468c_9dd7_95e137f73e7f" xlink:title="hasPart">
<polygon fill="#0079ba" stroke="#000000" stroke-width="2" points="166.5,-384 110.5,-384 110.5,-348 166.5,-348 166.5,-384"/>
<text text-anchor="middle" x="138.5" y="-362.3" font-family="Times,serif" font-size="14.00" fill="#ffffff">hasPart</text>
</a>
</g>
</g>
<!-- hasProperPart&#45;&gt;hasPart -->
<g id="edge3" class="edge">
<title>hasProperPart&#45;&gt;hasPart</title>
<path fill="none" stroke="#000000" d="M186.068,-297.0265C177.6208,-309.2748 166.3045,-325.6835 156.8287,-339.4234"/>
<polygon fill="none" stroke="#000000" points="153.7122,-337.7774 150.9161,-347.9966 159.4747,-341.7516 153.7122,-337.7774"/>
<text text-anchor="middle" x="182" y="-318.8" font-family="Times,serif" font-size="14.00" fill="#000000">isA</text>
</g>
<!-- hasMember -->
<g id="node2" class="node">
<title>hasMember</title>
<g id="a_node2"><a xlink:href="http://emmo.info/emmo/top/mereotopology#EMMO_6b7276a4_4b9d_440a_b577_0277539c0fc4" xlink:title="hasMember">
<polygon fill="#0079ba" stroke="#000000" points="229.5,-210 147.5,-210 147.5,-174 229.5,-174 229.5,-210"/>
<text text-anchor="middle" x="188.5" y="-188.3" font-family="Times,serif" font-size="14.00" fill="#ffffff">hasMember</text>
</a>
</g>
</g>
<!-- hasMember&#45;&gt;hasProperPart -->
<g id="edge1" class="edge">
<title>hasMember&#45;&gt;hasProperPart</title>
<path fill="none" stroke="#000000" d="M190.572,-210.0265C191.9262,-221.8082 193.7229,-237.4393 195.2634,-250.8419"/>
<polygon fill="none" stroke="#000000" points="191.8115,-251.4617 196.4306,-260.9966 198.7658,-250.6624 191.8115,-251.4617"/>
<text text-anchor="middle" x="204" y="-231.8" font-family="Times,serif" font-size="14.00" fill="#000000">isA</text>
</g>
<!-- hasReferenceUnit -->
<g id="node3" class="node">
<title>hasReferenceUnit</title>
<g id="a_node3"><a xlink:href="http://emmo.info/emmo/middle/units#EMMO_67fc0a36_8dcb_4ffa_9a43_31074efa3296" xlink:title="hasReferenceUnit">
<polygon fill="#0079ba" stroke="#000000" points="413,-36 300,-36 300,0 413,0 413,-36"/>
<text text-anchor="middle" x="356.5" y="-14.3" font-family="Times,serif" font-size="14.00" fill="#ffffff">hasReferenceUnit</text>
</a>
</g>
</g>
<!-- hasSpatialDirectPart -->
<g id="node5" class="node">
<title>hasSpatialDirectPart</title>
<g id="a_node5"><a xlink:href="http://emmo.info/emmo/middle/reductionistic#EMMO_b2282816_b7a3_44c6_b2cb_3feff1ceb7fe" xlink:title="hasSpatialDirectPart">
<polygon fill="#0079ba" stroke="#000000" points="486.5,-123 358.5,-123 358.5,-87 486.5,-87 486.5,-123"/>
<text text-anchor="middle" x="422.5" y="-101.3" font-family="Times,serif" font-size="14.00" fill="#ffffff">hasSpatialDirectPart</text>
</a>
</g>
</g>
<!-- hasReferenceUnit&#45;&gt;hasSpatialDirectPart -->
<g id="edge5" class="edge">
<title>hasReferenceUnit&#45;&gt;hasSpatialDirectPart</title>
<path fill="none" stroke="#000000" d="M370.1752,-36.0265C379.5556,-48.3915 392.1525,-64.9964 402.6357,-78.8153"/>
<polygon fill="none" stroke="#000000" points="400.0099,-81.1451 408.8423,-86.9966 405.5868,-76.9143 400.0099,-81.1451"/>
<text text-anchor="middle" x="403" y="-57.8" font-family="Times,serif" font-size="14.00" fill="#000000">isA</text>
</g>
<!-- hasQuantityValue -->
<g id="node4" class="node">
<title>hasQuantityValue</title>
<g id="a_node4"><a xlink:href="http://emmo.info/emmo/middle/units#EMMO_8ef3cd6d_ae58_4a8d_9fc0_ad8f49015cd0" xlink:title="hasQuantityValue">
<polygon fill="#0079ba" stroke="#000000" points="545.5,-36 431.5,-36 431.5,0 545.5,0 545.5,-36"/>
<text text-anchor="middle" x="488.5" y="-14.3" font-family="Times,serif" font-size="14.00" fill="#ffffff">hasQuantityValue</text>
</a>
</g>
</g>
<!-- hasQuantityValue&#45;&gt;hasSpatialDirectPart -->
<g id="edge12" class="edge">
<title>hasQuantityValue&#45;&gt;hasSpatialDirectPart</title>
<path fill="none" stroke="#000000" d="M474.8248,-36.0265C465.4444,-48.3915 452.8475,-64.9964 442.3643,-78.8153"/>
<polygon fill="none" stroke="#000000" points="439.4132,-76.9143 436.1577,-86.9966 444.9901,-81.1451 439.4132,-76.9143"/>
<text text-anchor="middle" x="469" y="-57.8" font-family="Times,serif" font-size="14.00" fill="#000000">isA</text>
</g>
<!-- hasSpatialPart -->
<g id="node8" class="node">
<title>hasSpatialPart</title>
<g id="a_node8"><a xlink:href="http://emmo.info/emmo/top/physical#EMMO_f68030be_94b8_4c61_a161_886468558054" xlink:title="hasSpatialPart">
<polygon fill="#0079ba" stroke="#000000" points="469.5,-210 375.5,-210 375.5,-174 469.5,-174 469.5,-210"/>
<text text-anchor="middle" x="422.5" y="-188.3" font-family="Times,serif" font-size="14.00" fill="#ffffff">hasSpatialPart</text>
</a>
</g>
</g>
<!-- hasSpatialDirectPart&#45;&gt;hasSpatialPart -->
<g id="edge7" class="edge">
<title>hasSpatialDirectPart&#45;&gt;hasSpatialPart</title>
<path fill="none" stroke="#000000" d="M422.5,-123.0265C422.5,-134.8082 422.5,-150.4393 422.5,-163.8419"/>
<polygon fill="none" stroke="#000000" points="419.0001,-163.9966 422.5,-173.9966 426.0001,-163.9967 419.0001,-163.9966"/>
<text text-anchor="middle" x="432" y="-144.8" font-family="Times,serif" font-size="14.00" fill="#000000">isA</text>
</g>
<!-- hasTemporalPart -->
<g id="node7" class="node">
<title>hasTemporalPart</title>
<g id="a_node7"><a xlink:href="http://emmo.info/emmo/top/physical#EMMO_7afbed84_7593_4a23_bd88_9d9c6b04e8f6" xlink:title="hasTemporalPart">
<polygon fill="#0079ba" stroke="#000000" points="357.5,-210 247.5,-210 247.5,-174 357.5,-174 357.5,-210"/>
<text text-anchor="middle" x="302.5" y="-188.3" font-family="Times,serif" font-size="14.00" fill="#ffffff">hasTemporalPart</text>
</a>
</g>
</g>
<!-- hasTemporalPart&#45;&gt;hasProperPart -->
<g id="edge13" class="edge">
<title>hasTemporalPart&#45;&gt;hasProperPart</title>
<path fill="none" stroke="#000000" d="M280.9511,-210.0265C265.6122,-222.8581 244.8151,-240.2557 227.9459,-254.3674"/>
<polygon fill="none" stroke="#000000" points="225.4457,-251.8957 220.0213,-260.9966 229.9371,-257.2648 225.4457,-251.8957"/>
<text text-anchor="middle" x="267" y="-231.8" font-family="Times,serif" font-size="14.00" fill="#000000">isA</text>
</g>
<!-- hasSpatialPart&#45;&gt;hasProperPart -->
<g id="edge4" class="edge">
<title>hasSpatialPart&#45;&gt;hasProperPart</title>
<path fill="none" stroke="#000000" d="M376.0871,-210.0265C340.7967,-223.733 292.0927,-242.6493 254.6144,-257.2056"/>
<polygon fill="none" stroke="#000000" points="252.9079,-254.1136 244.8535,-260.9966 255.4423,-260.6387 252.9079,-254.1136"/>
<text text-anchor="middle" x="334" y="-231.8" font-family="Times,serif" font-size="14.00" fill="#000000">isA</text>
</g>
<!-- hasTemporalDirectPart -->
<g id="node9" class="node">
<title>hasTemporalDirectPart</title>
<g id="a_node9"><a xlink:href="http://emmo.info/emmo/middle/reductionistic#EMMO_65a2c5b8_e4d8_4a51_b2f8_e55effc0547d" xlink:title="hasTemporalDirectPart">
<polygon fill="#0079ba" stroke="#000000" points="340,-123 197,-123 197,-87 340,-87 340,-123"/>
<text text-anchor="middle" x="268.5" y="-101.3" font-family="Times,serif" font-size="14.00" fill="#ffffff">hasTemporalDirectPart</text>
</a>
</g>
</g>
<!-- hasTemporalDirectPart&#45;&gt;hasTemporalPart -->
<g id="edge8" class="edge">
<title>hasTemporalDirectPart&#45;&gt;hasTemporalPart</title>
<path fill="none" stroke="#000000" d="M275.5448,-123.0265C280.2404,-135.0415 286.5004,-151.0599 291.8058,-164.6354"/>
<polygon fill="none" stroke="#000000" points="288.5643,-165.9566 295.4642,-173.9966 295.0841,-163.4086 288.5643,-165.9566"/>
<text text-anchor="middle" x="298" y="-144.8" font-family="Times,serif" font-size="14.00" fill="#000000">isA</text>
</g>
<!-- hasSpatioTemporalPart -->
<g id="node10" class="node">
<title>hasSpatioTemporalPart</title>
<g id="a_node10"><a xlink:href="http://emmo.info/emmo/top/physical#EMMO_6e046dd0_9634_4013_b2b1_9cc468087c83" xlink:title="hasSpatioTemporalPart">
<polygon fill="#0079ba" stroke="#000000" points="648.5,-210 504.5,-210 504.5,-174 648.5,-174 648.5,-210"/>
<text text-anchor="middle" x="576.5" y="-188.3" font-family="Times,serif" font-size="14.00" fill="#ffffff">hasSpatioTemporalPart</text>
</a>
</g>
</g>
<!-- hasSpatioTemporalPart&#45;&gt;hasProperPart -->
<g id="edge2" class="edge">
<title>hasSpatioTemporalPart&#45;&gt;hasProperPart</title>
<path fill="none" stroke="#000000" d="M504.0651,-208.6715C431.271,-225.4257 320.6279,-250.8912 254.3595,-266.1435"/>
<polygon fill="none" stroke="#000000" points="253.476,-262.7552 244.5158,-268.4091 255.0461,-269.5769 253.476,-262.7552"/>
<text text-anchor="middle" x="420" y="-231.8" font-family="Times,serif" font-size="14.00" fill="#000000">isA</text>
</g>
<!-- hasSpatioTemporalDirectPart -->
<g id="node11" class="node">
<title>hasSpatioTemporalDirectPart</title>
<g id="a_node11"><a xlink:href="http://emmo.info/emmo/middle/reductionistic#EMMO_663859e5_add3_4c9e_96fb_c99399de278d" xlink:title="hasSpatioTemporalDirectPart">
<polygon fill="#0079ba" stroke="#000000" points="682.5,-123 504.5,-123 504.5,-87 682.5,-87 682.5,-123"/>
<text text-anchor="middle" x="593.5" y="-101.3" font-family="Times,serif" font-size="14.00" fill="#ffffff">hasSpatioTemporalDirectPart</text>
</a>
</g>
</g>
<!-- hasSpatioTemporalDirectPart&#45;&gt;hasSpatioTemporalPart -->
<g id="edge6" class="edge">
<title>hasSpatioTemporalDirectPart&#45;&gt;hasSpatioTemporalPart</title>
<path fill="none" stroke="#000000" d="M589.9776,-123.0265C587.6754,-134.8082 584.621,-150.4393 582.0022,-163.8419"/>
<polygon fill="none" stroke="#000000" points="578.5007,-163.511 580.0179,-173.9966 585.3708,-164.8535 578.5007,-163.511"/>
<text text-anchor="middle" x="596" y="-144.8" font-family="Times,serif" font-size="14.00" fill="#000000">isA</text>
</g>
<!-- hasProperParticipant -->
<g id="node12" class="node">
<title>hasProperParticipant</title>
<g id="a_node12"><a xlink:href="http://emmo.info/emmo/middle/holistic#EMMO_c5aae418_1622_4d02_93c5_21159e28e6c1" xlink:title="hasProperParticipant">
<polygon fill="#0079ba" stroke="#000000" points="129,-210 0,-210 0,-174 129,-174 129,-210"/>
<text text-anchor="middle" x="64.5" y="-188.3" font-family="Times,serif" font-size="14.00" fill="#ffffff">hasProperParticipant</text>
</a>
</g>
</g>
<!-- hasProperParticipant&#45;&gt;hasProperPart -->
<g id="edge10" class="edge">
<title>hasProperParticipant&#45;&gt;hasProperPart</title>
<path fill="none" stroke="#000000" d="M92.2649,-210.0265C112.5676,-223.208 140.2916,-241.208 162.327,-255.5145"/>
<polygon fill="none" stroke="#000000" points="160.4774,-258.4867 170.7707,-260.9966 164.2893,-252.6156 160.4774,-258.4867"/>
<text text-anchor="middle" x="150" y="-231.8" font-family="Times,serif" font-size="14.00" fill="#000000">isA</text>
</g>
<!-- hasParticipant -->
<g id="node13" class="node">
<title>hasParticipant</title>
<g id="a_node13"><a xlink:href="http://emmo.info/emmo/middle/holistic#EMMO_ae2d1a96_bfa1_409a_a7d2_03d69e8a125a" xlink:title="hasParticipant">
<polygon fill="#0079ba" stroke="#000000" points="130,-297 37,-297 37,-261 130,-261 130,-297"/>
<text text-anchor="middle" x="83.5" y="-275.3" font-family="Times,serif" font-size="14.00" fill="#ffffff">hasParticipant</text>
</a>
</g>
</g>
<!-- hasProperParticipant&#45;&gt;hasParticipant -->
<g id="edge9" class="edge">
<title>hasProperParticipant&#45;&gt;hasParticipant</title>
<path fill="none" stroke="#000000" d="M68.4368,-210.0265C71.0098,-221.8082 74.4235,-237.4393 77.3505,-250.8419"/>
<polygon fill="none" stroke="#000000" points="74.0151,-251.9737 79.5682,-260.9966 80.8539,-250.4801 74.0151,-251.9737"/>
<text text-anchor="middle" x="85" y="-231.8" font-family="Times,serif" font-size="14.00" fill="#000000">isA</text>
</g>
<!-- hasParticipant&#45;&gt;hasPart -->
<g id="edge11" class="edge">
<title>hasParticipant&#45;&gt;hasPart</title>
<path fill="none" stroke="#000000" d="M94.896,-297.0265C102.6393,-309.2748 113.0126,-325.6835 121.6987,-339.4234"/>
<polygon fill="none" stroke="#000000" points="118.8165,-341.4143 127.1186,-347.9966 124.7333,-337.6738 118.8165,-341.4143"/>
<text text-anchor="middle" x="124" y="-318.8" font-family="Times,serif" font-size="14.00" fill="#000000">isA</text>
</g>
</g>
</svg>
