<?xml version="1.0" encoding="UTF-8" standalone="no"?>
<!DOCTYPE svg PUBLIC "-//W3C//DTD SVG 1.1//EN"
 "http://www.w3.org/Graphics/SVG/1.1/DTD/svg11.dtd">
<!-- Generated by graphviz version 2.40.1 (20161225.0304)
 -->
<!-- Title: %3 Pages: 1 -->
<svg width="740pt" height="332pt"
 viewBox="0.00 0.00 740.00 332.00" xmlns="http://www.w3.org/2000/svg" xmlns:xlink="http://www.w3.org/1999/xlink">
<g id="graph0" class="graph" transform="scale(1 1) rotate(0) translate(4 328)">
<title>%3</title>
<polygon fill="#ffffff" stroke="transparent" points="-4,4 -4,-328 736,-328 736,4 -4,4"/>
<!-- hasReferenceUnit -->
<g id="node1" class="node">
<title>hasReferenceUnit</title>
<g id="a_node1"><a xlink:href="http://emmo.info/emmo/middle/metrology#EMMO_67fc0a36_8dcb_4ffa_9a43_31074efa3296" xlink:title="hasReferenceUnit">
<polygon fill="#0079ba" stroke="#000000" points="113,-36 0,-36 0,0 113,0 113,-36"/>
<text text-anchor="middle" x="56.5" y="-14.3" font-family="Times,serif" font-size="14.00" fill="#ffffff">hasReferenceUnit</text>
</a>
</g>
</g>
<!-- hasSpatialDirectPart -->
<g id="node12" class="node">
<title>hasSpatialDirectPart</title>
<g id="a_node12"><a xlink:href="http://emmo.info/emmo/middle/reductionistic#EMMO_b2282816_b7a3_44c6_b2cb_3feff1ceb7fe" xlink:title="hasSpatialDirectPart">
<polygon fill="#0079ba" stroke="#000000" points="186.5,-108 58.5,-108 58.5,-72 186.5,-72 186.5,-108"/>
<text text-anchor="middle" x="122.5" y="-86.3" font-family="Times,serif" font-size="14.00" fill="#ffffff">hasSpatialDirectPart</text>
</a>
</g>
</g>
<!-- hasReferenceUnit&#45;&gt;hasSpatialDirectPart -->
<g id="edge12" class="edge">
<title>hasReferenceUnit&#45;&gt;hasSpatialDirectPart</title>
<path fill="none" stroke="#000000" d="M73.1546,-36.1686C80.9114,-44.6306 90.2802,-54.8511 98.761,-64.1029"/>
<polygon fill="none" stroke="#000000" points="96.2838,-66.5802 105.6212,-71.5867 101.4439,-61.8501 96.2838,-66.5802"/>
</g>
<!-- hasParticipant -->
<g id="node2" class="node">
<title>hasParticipant</title>
<g id="a_node2"><a xlink:href="http://emmo.info/emmo/middle/holistic#EMMO_ae2d1a96_bfa1_409a_a7d2_03d69e8a125a" xlink:title="hasParticipant">
<polygon fill="#0079ba" stroke="#000000" points="659,-252 566,-252 566,-216 659,-216 659,-252"/>
<text text-anchor="middle" x="612.5" y="-230.3" font-family="Times,serif" font-size="14.00" fill="#ffffff">hasParticipant</text>
</a>
</g>
</g>
<!-- hasPart -->
<g id="node8" class="node">
<title>hasPart</title>
<g id="a_node8"><a xlink:href="http://emmo.info/emmo/top/mereotopology#EMMO_17e27c22_37e1_468c_9dd7_95e137f73e7f" xlink:title="hasPart">
<polygon fill="#0079ba" stroke="#000000" stroke-width="2" points="529.5,-324 473.5,-324 473.5,-288 529.5,-288 529.5,-324"/>
<text text-anchor="middle" x="501.5" y="-302.3" font-family="Times,serif" font-size="14.00" fill="#ffffff">hasPart</text>
</a>
</g>
</g>
<!-- hasParticipant&#45;&gt;hasPart -->
<g id="edge11" class="edge">
<title>hasParticipant&#45;&gt;hasPart</title>
<path fill="none" stroke="#000000" d="M584.49,-252.1686C570.4239,-261.2926 553.206,-272.461 538.1067,-282.2551"/>
<polygon fill="none" stroke="#000000" points="535.986,-279.4588 529.501,-287.8372 539.7953,-285.3316 535.986,-279.4588"/>
</g>
<!-- hasTemporalDirectPart -->
<g id="node3" class="node">
<title>hasTemporalDirectPart</title>
<g id="a_node3"><a xlink:href="http://emmo.info/emmo/middle/reductionistic#EMMO_65a2c5b8_e4d8_4a51_b2f8_e55effc0547d" xlink:title="hasTemporalDirectPart">
<polygon fill="#0079ba" stroke="#000000" points="348,-108 205,-108 205,-72 348,-72 348,-108"/>
<text text-anchor="middle" x="276.5" y="-86.3" font-family="Times,serif" font-size="14.00" fill="#ffffff">hasTemporalDirectPart</text>
</a>
</g>
</g>
<!-- hasTemporalPart -->
<g id="node4" class="node">
<title>hasTemporalPart</title>
<g id="a_node4"><a xlink:href="http://emmo.info/emmo/top/physical#EMMO_7afbed84_7593_4a23_bd88_9d9c6b04e8f6" xlink:title="hasTemporalPart">
<polygon fill="#0079ba" stroke="#000000" points="322.5,-180 212.5,-180 212.5,-144 322.5,-144 322.5,-180"/>
<text text-anchor="middle" x="267.5" y="-158.3" font-family="Times,serif" font-size="14.00" fill="#ffffff">hasTemporalPart</text>
</a>
</g>
</g>
<!-- hasTemporalDirectPart&#45;&gt;hasTemporalPart -->
<g id="edge10" class="edge">
<title>hasTemporalDirectPart&#45;&gt;hasTemporalPart</title>
<path fill="none" stroke="#000000" d="M274.2289,-108.1686C273.2664,-115.869 272.1218,-125.0257 271.0521,-133.5834"/>
<polygon fill="none" stroke="#000000" points="267.5691,-133.2298 269.8017,-143.5867 274.5151,-134.0981 267.5691,-133.2298"/>
</g>
<!-- hasProperPart -->
<g id="node6" class="node">
<title>hasProperPart</title>
<g id="a_node6"><a xlink:href="http://emmo.info/emmo/top/mereotopology#EMMO_9380ab64_0363_4804_b13f_3a8a94119a76" xlink:title="hasProperPart">
<polygon fill="#0079ba" stroke="#000000" points="492.5,-252 400.5,-252 400.5,-216 492.5,-216 492.5,-252"/>
<text text-anchor="middle" x="446.5" y="-230.3" font-family="Times,serif" font-size="14.00" fill="#ffffff">hasProperPart</text>
</a>
</g>
</g>
<!-- hasTemporalPart&#45;&gt;hasProperPart -->
<g id="edge1" class="edge">
<title>hasTemporalPart&#45;&gt;hasProperPart</title>
<path fill="none" stroke="#000000" d="M312.6693,-180.1686C336.8223,-189.8838 366.7378,-201.9169 392.1556,-212.1408"/>
<polygon fill="none" stroke="#000000" points="391.0718,-215.4773 401.6556,-215.962 393.6841,-208.983 391.0718,-215.4773"/>
</g>
<!-- hasProperParticipant -->
<g id="node5" class="node">
<title>hasProperParticipant</title>
<g id="a_node5"><a xlink:href="http://emmo.info/emmo/middle/holistic#EMMO_c5aae418_1622_4d02_93c5_21159e28e6c1" xlink:title="hasProperParticipant">
<polygon fill="#0079ba" stroke="#000000" points="732,-180 603,-180 603,-144 732,-144 732,-180"/>
<text text-anchor="middle" x="667.5" y="-158.3" font-family="Times,serif" font-size="14.00" fill="#ffffff">hasProperParticipant</text>
</a>
</g>
</g>
<!-- hasProperParticipant&#45;&gt;hasParticipant -->
<g id="edge7" class="edge">
<title>hasProperParticipant&#45;&gt;hasParticipant</title>
<path fill="none" stroke="#000000" d="M653.6212,-180.1686C647.2864,-188.4614 639.6616,-198.443 632.7074,-207.5467"/>
<polygon fill="none" stroke="#000000" points="629.8548,-205.5153 626.5657,-215.5867 635.4175,-209.7647 629.8548,-205.5153"/>
</g>
<!-- hasProperParticipant&#45;&gt;hasProperPart -->
<g id="edge8" class="edge">
<title>hasProperParticipant&#45;&gt;hasProperPart</title>
<path fill="none" stroke="#000000" d="M612.0176,-180.0757C578.5022,-190.9947 535.921,-204.8674 502.3412,-215.8074"/>
<polygon fill="none" stroke="#000000" points="501.1014,-212.5302 492.6775,-218.9558 503.2698,-219.1859 501.1014,-212.5302"/>
</g>
<!-- hasProperPart&#45;&gt;hasPart -->
<g id="edge13" class="edge">
<title>hasProperPart&#45;&gt;hasPart</title>
<path fill="none" stroke="#000000" d="M460.3788,-252.1686C466.7136,-260.4614 474.3384,-270.443 481.2926,-279.5467"/>
<polygon fill="none" stroke="#000000" points="478.5825,-281.7647 487.4343,-287.5867 484.1452,-277.5153 478.5825,-281.7647"/>
</g>
<!-- hasSpatioTemporalDirectPart -->
<g id="node7" class="node">
<title>hasSpatioTemporalDirectPart</title>
<g id="a_node7"><a xlink:href="http://emmo.info/emmo/middle/reductionistic#EMMO_663859e5_add3_4c9e_96fb_c99399de278d" xlink:title="hasSpatioTemporalDirectPart">
<polygon fill="#0079ba" stroke="#000000" points="601.5,-108 423.5,-108 423.5,-72 601.5,-72 601.5,-108"/>
<text text-anchor="middle" x="512.5" y="-86.3" font-family="Times,serif" font-size="14.00" fill="#ffffff">hasSpatioTemporalDirectPart</text>
</a>
</g>
</g>
<!-- hasSpatioTemporalPart -->
<g id="node13" class="node">
<title>hasSpatioTemporalPart</title>
<g id="a_node13"><a xlink:href="http://emmo.info/emmo/top/physical#EMMO_6e046dd0_9634_4013_b2b1_9cc468087c83" xlink:title="hasSpatioTemporalPart">
<polygon fill="#0079ba" stroke="#000000" points="584.5,-180 440.5,-180 440.5,-144 584.5,-144 584.5,-180"/>
<text text-anchor="middle" x="512.5" y="-158.3" font-family="Times,serif" font-size="14.00" fill="#ffffff">hasSpatioTemporalPart</text>
</a>
</g>
</g>
<!-- hasSpatioTemporalDirectPart&#45;&gt;hasSpatioTemporalPart -->
<g id="edge4" class="edge">
<title>hasSpatioTemporalDirectPart&#45;&gt;hasSpatioTemporalPart</title>
<path fill="none" stroke="#000000" d="M512.5,-108.1686C512.5,-115.869 512.5,-125.0257 512.5,-133.5834"/>
<polygon fill="none" stroke="#000000" points="509.0001,-133.5867 512.5,-143.5867 516.0001,-133.5868 509.0001,-133.5867"/>
</g>
<!-- hasQuantityValue -->
<g id="node9" class="node">
<title>hasQuantityValue</title>
<g id="a_node9"><a xlink:href="http://emmo.info/emmo/middle/metrology#EMMO_8ef3cd6d_ae58_4a8d_9fc0_ad8f49015cd0" xlink:title="hasQuantityValue">
<polygon fill="#0079ba" stroke="#000000" points="245.5,-36 131.5,-36 131.5,0 245.5,0 245.5,-36"/>
<text text-anchor="middle" x="188.5" y="-14.3" font-family="Times,serif" font-size="14.00" fill="#ffffff">hasQuantityValue</text>
</a>
</g>
</g>
<!-- hasQuantityValue&#45;&gt;hasSpatialDirectPart -->
<g id="edge9" class="edge">
<title>hasQuantityValue&#45;&gt;hasSpatialDirectPart</title>
<path fill="none" stroke="#000000" d="M171.8454,-36.1686C164.0886,-44.6306 154.7198,-54.8511 146.239,-64.1029"/>
<polygon fill="none" stroke="#000000" points="143.5561,-61.8501 139.3788,-71.5867 148.7162,-66.5802 143.5561,-61.8501"/>
</g>
<!-- hasMember -->
<g id="node10" class="node">
<title>hasMember</title>
<g id="a_node10"><a xlink:href="http://emmo.info/emmo/top/mereotopology#EMMO_6b7276a4_4b9d_440a_b577_0277539c0fc4" xlink:title="hasMember">
<polygon fill="#0079ba" stroke="#000000" points="422.5,-180 340.5,-180 340.5,-144 422.5,-144 422.5,-180"/>
<text text-anchor="middle" x="381.5" y="-158.3" font-family="Times,serif" font-size="14.00" fill="#ffffff">hasMember</text>
</a>
</g>
</g>
<!-- hasMember&#45;&gt;hasProperPart -->
<g id="edge6" class="edge">
<title>hasMember&#45;&gt;hasProperPart</title>
<path fill="none" stroke="#000000" d="M397.9022,-180.1686C405.5415,-188.6306 414.7683,-198.8511 423.1207,-208.1029"/>
<polygon fill="none" stroke="#000000" points="420.5779,-210.5094 429.8769,-215.5867 425.7738,-205.8187 420.5779,-210.5094"/>
</g>
<!-- hasSpatialPart -->
<g id="node11" class="node">
<title>hasSpatialPart</title>
<g id="a_node11"><a xlink:href="http://emmo.info/emmo/top/physical#EMMO_f68030be_94b8_4c61_a161_886468558054" xlink:title="hasSpatialPart">
<polygon fill="#0079ba" stroke="#000000" points="186.5,-180 92.5,-180 92.5,-144 186.5,-144 186.5,-180"/>
<text text-anchor="middle" x="139.5" y="-158.3" font-family="Times,serif" font-size="14.00" fill="#ffffff">hasSpatialPart</text>
</a>
</g>
</g>
<!-- hasSpatialPart&#45;&gt;hasProperPart -->
<g id="edge5" class="edge">
<title>hasSpatialPart&#45;&gt;hasProperPart</title>
<path fill="none" stroke="#000000" d="M186.6051,-175.568C192.2853,-177.1095 198.0152,-178.6204 203.5,-180 267.216,-196.0265 340.9528,-212.0619 390.3385,-222.4438"/>
<polygon fill="none" stroke="#000000" points="389.6824,-225.8822 400.1876,-224.5071 391.1178,-219.031 389.6824,-225.8822"/>
</g>
<!-- hasSpatialDirectPart&#45;&gt;hasSpatialPart -->
<g id="edge3" class="edge">
<title>hasSpatialDirectPart&#45;&gt;hasSpatialPart</title>
<path fill="none" stroke="#000000" d="M126.7898,-108.1686C128.608,-115.869 130.7699,-125.0257 132.7905,-133.5834"/>
<polygon fill="none" stroke="#000000" points="129.4481,-134.6586 135.1524,-143.5867 136.2608,-133.05 129.4481,-134.6586"/>
</g>
<!-- hasSpatioTemporalPart&#45;&gt;hasProperPart -->
<g id="edge2" class="edge">
<title>hasSpatioTemporalPart&#45;&gt;hasProperPart</title>
<path fill="none" stroke="#000000" d="M495.8454,-180.1686C488.0886,-188.6306 478.7198,-198.8511 470.239,-208.1029"/>
<polygon fill="none" stroke="#000000" points="467.5561,-205.8501 463.3788,-215.5867 472.7162,-210.5802 467.5561,-205.8501"/>
</g>
<!-- key1 -->
<g id="node14" class="node">
<title>key1</title>
<text text-anchor="start" x="281.5" y="-13.8" font-family="Times,serif" font-size="14.00" fill="#000000">isA</text>
</g>
<!-- key2 -->
<g id="node15" class="node">
<title>key2</title>
<text text-anchor="start" x="360.5" y="-13.8" font-family="Times,serif" font-size="14.00" fill="#000000"> </text>
</g>
<!-- key1&#45;&gt;key2 -->
<g id="edge14" class="edge">
<title>key1:e&#45;&gt;key2:w</title>
<path fill="none" stroke="#000000" d="M302.5,-19C323.5,-19 331.2109,-19 348.0581,-19"/>
<polygon fill="none" stroke="#000000" points="348.5,-22.5001 358.5,-19 348.5,-15.5001 348.5,-22.5001"/>
</g>
</g>
</svg>
