<?xml version="1.0" encoding="UTF-8" standalone="no"?>
<!DOCTYPE svg PUBLIC "-//W3C//DTD SVG 1.1//EN"
 "http://www.w3.org/Graphics/SVG/1.1/DTD/svg11.dtd">
<!-- Generated by graphviz version 2.40.1 (20161225.0304)
 -->
<!-- Title: %3 Pages: 1 -->
<svg width="681pt" height="332pt"
 viewBox="0.00 0.00 681.00 332.00" xmlns="http://www.w3.org/2000/svg" xmlns:xlink="http://www.w3.org/1999/xlink">
<g id="graph0" class="graph" transform="scale(1 1) rotate(0) translate(4 328)">
<title>%3</title>
<polygon fill="#ffffff" stroke="transparent" points="-4,4 -4,-328 677,-328 677,4 -4,4"/>
<!-- hasSpatioTemporalPart -->
<g id="node1" class="node">
<title>hasSpatioTemporalPart</title>
<g id="a_node1"><a xlink:href="http://emmo.info/emmo/top/physical#EMMO_6e046dd0_9634_4013_b2b1_9cc468087c83" xlink:title="hasSpatioTemporalPart">
<polygon fill="#0079ba" stroke="#000000" points="525.5,-180 381.5,-180 381.5,-144 525.5,-144 525.5,-180"/>
<text text-anchor="middle" x="453.5" y="-158.3" font-family="Times,serif" font-size="14.00" fill="#ffffff">hasSpatioTemporalPart</text>
</a>
</g>
</g>
<!-- hasProperPart -->
<g id="node3" class="node">
<title>hasProperPart</title>
<g id="a_node3"><a xlink:href="http://emmo.info/emmo/top/mereotopology#EMMO_9380ab64_0363_4804_b13f_3a8a94119a76" xlink:title="hasProperPart">
<polygon fill="#0079ba" stroke="#000000" points="433.5,-252 341.5,-252 341.5,-216 433.5,-216 433.5,-252"/>
<text text-anchor="middle" x="387.5" y="-230.3" font-family="Times,serif" font-size="14.00" fill="#ffffff">hasProperPart</text>
</a>
</g>
</g>
<!-- hasSpatioTemporalPart&#45;&gt;hasProperPart -->
<g id="edge9" class="edge">
<title>hasSpatioTemporalPart&#45;&gt;hasProperPart</title>
<path fill="none" stroke="#000000" d="M436.8454,-180.1686C429.0886,-188.6306 419.7198,-198.8511 411.239,-208.1029"/>
<polygon fill="none" stroke="#000000" points="408.5561,-205.8501 404.3788,-215.5867 413.7162,-210.5802 408.5561,-205.8501"/>
</g>
<!-- hasProperParticipant -->
<g id="node2" class="node">
<title>hasProperParticipant</title>
<g id="a_node2"><a xlink:href="http://emmo.info/emmo/middle/holistic#EMMO_c5aae418_1622_4d02_93c5_21159e28e6c1" xlink:title="hasProperParticipant">
<polygon fill="#0079ba" stroke="#000000" points="673,-180 544,-180 544,-144 673,-144 673,-180"/>
<text text-anchor="middle" x="608.5" y="-158.3" font-family="Times,serif" font-size="14.00" fill="#ffffff">hasProperParticipant</text>
</a>
</g>
</g>
<!-- hasProperParticipant&#45;&gt;hasProperPart -->
<g id="edge13" class="edge">
<title>hasProperParticipant&#45;&gt;hasProperPart</title>
<path fill="none" stroke="#000000" d="M553.0176,-180.0757C519.5022,-190.9947 476.921,-204.8674 443.3412,-215.8074"/>
<polygon fill="none" stroke="#000000" points="442.1014,-212.5302 433.6775,-218.9558 444.2698,-219.1859 442.1014,-212.5302"/>
</g>
<!-- hasParticipant -->
<g id="node4" class="node">
<title>hasParticipant</title>
<g id="a_node4"><a xlink:href="http://emmo.info/emmo/middle/holistic#EMMO_ae2d1a96_bfa1_409a_a7d2_03d69e8a125a" xlink:title="hasParticipant">
<polygon fill="#0079ba" stroke="#000000" points="600,-252 507,-252 507,-216 600,-216 600,-252"/>
<text text-anchor="middle" x="553.5" y="-230.3" font-family="Times,serif" font-size="14.00" fill="#ffffff">hasParticipant</text>
</a>
</g>
</g>
<!-- hasProperParticipant&#45;&gt;hasParticipant -->
<g id="edge12" class="edge">
<title>hasProperParticipant&#45;&gt;hasParticipant</title>
<path fill="none" stroke="#000000" d="M594.6212,-180.1686C588.2864,-188.4614 580.6616,-198.443 573.7074,-207.5467"/>
<polygon fill="none" stroke="#000000" points="570.8548,-205.5153 567.5657,-215.5867 576.4175,-209.7647 570.8548,-205.5153"/>
</g>
<!-- hasPart -->
<g id="node10" class="node">
<title>hasPart</title>
<g id="a_node10"><a xlink:href="http://emmo.info/emmo/top/mereotopology#EMMO_17e27c22_37e1_468c_9dd7_95e137f73e7f" xlink:title="hasPart">
<polygon fill="#0079ba" stroke="#000000" stroke-width="2" points="470.5,-324 414.5,-324 414.5,-288 470.5,-288 470.5,-324"/>
<text text-anchor="middle" x="442.5" y="-302.3" font-family="Times,serif" font-size="14.00" fill="#ffffff">hasPart</text>
</a>
</g>
</g>
<!-- hasProperPart&#45;&gt;hasPart -->
<g id="edge11" class="edge">
<title>hasProperPart&#45;&gt;hasPart</title>
<path fill="none" stroke="#000000" d="M401.3788,-252.1686C407.7136,-260.4614 415.3384,-270.443 422.2926,-279.5467"/>
<polygon fill="none" stroke="#000000" points="419.5825,-281.7647 428.4343,-287.5867 425.1452,-277.5153 419.5825,-281.7647"/>
</g>
<!-- hasParticipant&#45;&gt;hasPart -->
<g id="edge8" class="edge">
<title>hasParticipant&#45;&gt;hasPart</title>
<path fill="none" stroke="#000000" d="M525.49,-252.1686C511.4239,-261.2926 494.206,-272.461 479.1067,-282.2551"/>
<polygon fill="none" stroke="#000000" points="476.986,-279.4588 470.501,-287.8372 480.7953,-285.3316 476.986,-279.4588"/>
</g>
<!-- hasQuantityValue -->
<g id="node5" class="node">
<title>hasQuantityValue</title>
<g id="a_node5"><a xlink:href="http://emmo.info/emmo/middle/metrology#EMMO_8ef3cd6d_ae58_4a8d_9fc0_ad8f49015cd0" xlink:title="hasQuantityValue">
<polygon fill="#0079ba" stroke="#000000" points="216.5,-36 102.5,-36 102.5,0 216.5,0 216.5,-36"/>
<text text-anchor="middle" x="159.5" y="-14.3" font-family="Times,serif" font-size="14.00" fill="#ffffff">hasQuantityValue</text>
</a>
</g>
</g>
<!-- hasSpatialDirectPart -->
<g id="node8" class="node">
<title>hasSpatialDirectPart</title>
<g id="a_node8"><a xlink:href="http://emmo.info/emmo/middle/reductionistic#EMMO_b2282816_b7a3_44c6_b2cb_3feff1ceb7fe" xlink:title="hasSpatialDirectPart">
<polygon fill="#0079ba" stroke="#000000" points="289.5,-108 161.5,-108 161.5,-72 289.5,-72 289.5,-108"/>
<text text-anchor="middle" x="225.5" y="-86.3" font-family="Times,serif" font-size="14.00" fill="#ffffff">hasSpatialDirectPart</text>
</a>
</g>
</g>
<!-- hasQuantityValue&#45;&gt;hasSpatialDirectPart -->
<g id="edge6" class="edge">
<title>hasQuantityValue&#45;&gt;hasSpatialDirectPart</title>
<path fill="none" stroke="#000000" d="M176.1546,-36.1686C183.9114,-44.6306 193.2802,-54.8511 201.761,-64.1029"/>
<polygon fill="none" stroke="#000000" points="199.2838,-66.5802 208.6212,-71.5867 204.4439,-61.8501 199.2838,-66.5802"/>
</g>
<!-- hasTemporalDirectPart -->
<g id="node6" class="node">
<title>hasTemporalDirectPart</title>
<g id="a_node6"><a xlink:href="http://emmo.info/emmo/middle/reductionistic#EMMO_65a2c5b8_e4d8_4a51_b2f8_e55effc0547d" xlink:title="hasTemporalDirectPart">
<polygon fill="#0079ba" stroke="#000000" points="143,-108 0,-108 0,-72 143,-72 143,-108"/>
<text text-anchor="middle" x="71.5" y="-86.3" font-family="Times,serif" font-size="14.00" fill="#ffffff">hasTemporalDirectPart</text>
</a>
</g>
</g>
<!-- hasTemporalPart -->
<g id="node9" class="node">
<title>hasTemporalPart</title>
<g id="a_node9"><a xlink:href="http://emmo.info/emmo/top/physical#EMMO_7afbed84_7593_4a23_bd88_9d9c6b04e8f6" xlink:title="hasTemporalPart">
<polygon fill="#0079ba" stroke="#000000" points="143.5,-180 33.5,-180 33.5,-144 143.5,-144 143.5,-180"/>
<text text-anchor="middle" x="88.5" y="-158.3" font-family="Times,serif" font-size="14.00" fill="#ffffff">hasTemporalPart</text>
</a>
</g>
</g>
<!-- hasTemporalDirectPart&#45;&gt;hasTemporalPart -->
<g id="edge4" class="edge">
<title>hasTemporalDirectPart&#45;&gt;hasTemporalPart</title>
<path fill="none" stroke="#000000" d="M75.7898,-108.1686C77.608,-115.869 79.7699,-125.0257 81.7905,-133.5834"/>
<polygon fill="none" stroke="#000000" points="78.4481,-134.6586 84.1524,-143.5867 85.2608,-133.05 78.4481,-134.6586"/>
</g>
<!-- hasSpatioTemporalDirectPart -->
<g id="node7" class="node">
<title>hasSpatioTemporalDirectPart</title>
<g id="a_node7"><a xlink:href="http://emmo.info/emmo/middle/reductionistic#EMMO_663859e5_add3_4c9e_96fb_c99399de278d" xlink:title="hasSpatioTemporalDirectPart">
<polygon fill="#0079ba" stroke="#000000" points="542.5,-108 364.5,-108 364.5,-72 542.5,-72 542.5,-108"/>
<text text-anchor="middle" x="453.5" y="-86.3" font-family="Times,serif" font-size="14.00" fill="#ffffff">hasSpatioTemporalDirectPart</text>
</a>
</g>
</g>
<!-- hasSpatioTemporalDirectPart&#45;&gt;hasSpatioTemporalPart -->
<g id="edge1" class="edge">
<title>hasSpatioTemporalDirectPart&#45;&gt;hasSpatioTemporalPart</title>
<path fill="none" stroke="#000000" d="M453.5,-108.1686C453.5,-115.869 453.5,-125.0257 453.5,-133.5834"/>
<polygon fill="none" stroke="#000000" points="450.0001,-133.5867 453.5,-143.5867 457.0001,-133.5868 450.0001,-133.5867"/>
</g>
<!-- hasSpatialPart -->
<g id="node11" class="node">
<title>hasSpatialPart</title>
<g id="a_node11"><a xlink:href="http://emmo.info/emmo/top/physical#EMMO_f68030be_94b8_4c61_a161_886468558054" xlink:title="hasSpatialPart">
<polygon fill="#0079ba" stroke="#000000" points="263.5,-180 169.5,-180 169.5,-144 263.5,-144 263.5,-180"/>
<text text-anchor="middle" x="216.5" y="-158.3" font-family="Times,serif" font-size="14.00" fill="#ffffff">hasSpatialPart</text>
</a>
</g>
</g>
<!-- hasSpatialDirectPart&#45;&gt;hasSpatialPart -->
<g id="edge10" class="edge">
<title>hasSpatialDirectPart&#45;&gt;hasSpatialPart</title>
<path fill="none" stroke="#000000" d="M223.2289,-108.1686C222.2664,-115.869 221.1218,-125.0257 220.0521,-133.5834"/>
<polygon fill="none" stroke="#000000" points="216.5691,-133.2298 218.8017,-143.5867 223.5151,-134.0981 216.5691,-133.2298"/>
</g>
<!-- hasTemporalPart&#45;&gt;hasProperPart -->
<g id="edge2" class="edge">
<title>hasTemporalPart&#45;&gt;hasProperPart</title>
<path fill="none" stroke="#000000" d="M143.5187,-175.8234C149.2508,-177.243 154.9922,-178.6565 160.5,-180 218.7976,-194.2208 285.6331,-210.0645 331.6066,-220.8916"/>
<polygon fill="none" stroke="#000000" points="330.8421,-224.3072 341.378,-223.1913 332.4458,-217.4934 330.8421,-224.3072"/>
</g>
<!-- hasSpatialPart&#45;&gt;hasProperPart -->
<g id="edge7" class="edge">
<title>hasSpatialPart&#45;&gt;hasProperPart</title>
<path fill="none" stroke="#000000" d="M259.6505,-180.1686C282.6224,-189.841 311.0509,-201.8109 335.2632,-212.0056"/>
<polygon fill="none" stroke="#000000" points="334.0852,-215.3071 344.6598,-215.962 336.8016,-208.8557 334.0852,-215.3071"/>
</g>
<!-- hasMember -->
<g id="node12" class="node">
<title>hasMember</title>
<g id="a_node12"><a xlink:href="http://emmo.info/emmo/top/mereotopology#EMMO_6b7276a4_4b9d_440a_b577_0277539c0fc4" xlink:title="hasMember">
<polygon fill="#0079ba" stroke="#000000" points="363.5,-180 281.5,-180 281.5,-144 363.5,-144 363.5,-180"/>
<text text-anchor="middle" x="322.5" y="-158.3" font-family="Times,serif" font-size="14.00" fill="#ffffff">hasMember</text>
</a>
</g>
</g>
<!-- hasMember&#45;&gt;hasProperPart -->
<g id="edge3" class="edge">
<title>hasMember&#45;&gt;hasProperPart</title>
<path fill="none" stroke="#000000" d="M338.9022,-180.1686C346.5415,-188.6306 355.7683,-198.8511 364.1207,-208.1029"/>
<polygon fill="none" stroke="#000000" points="361.5779,-210.5094 370.8769,-215.5867 366.7738,-205.8187 361.5779,-210.5094"/>
</g>
<!-- hasReferenceUnit -->
<g id="node13" class="node">
<title>hasReferenceUnit</title>
<g id="a_node13"><a xlink:href="http://emmo.info/emmo/middle/metrology#EMMO_67fc0a36_8dcb_4ffa_9a43_31074efa3296" xlink:title="hasReferenceUnit">
<polygon fill="#0079ba" stroke="#000000" points="348,-36 235,-36 235,0 348,0 348,-36"/>
<text text-anchor="middle" x="291.5" y="-14.3" font-family="Times,serif" font-size="14.00" fill="#ffffff">hasReferenceUnit</text>
</a>
</g>
</g>
<!-- hasReferenceUnit&#45;&gt;hasSpatialDirectPart -->
<g id="edge5" class="edge">
<title>hasReferenceUnit&#45;&gt;hasSpatialDirectPart</title>
<path fill="none" stroke="#000000" d="M274.8454,-36.1686C267.0886,-44.6306 257.7198,-54.8511 249.239,-64.1029"/>
<polygon fill="none" stroke="#000000" points="246.5561,-61.8501 242.3788,-71.5867 251.7162,-66.5802 246.5561,-61.8501"/>
</g>
<!-- key1 -->
<g id="node14" class="node">
<title>key1</title>
<text text-anchor="start" x="384.5" y="-13.8" font-family="Times,serif" font-size="14.00" fill="#000000">isA</text>
</g>
<!-- key2 -->
<g id="node15" class="node">
<title>key2</title>
<text text-anchor="start" x="463.5" y="-13.8" font-family="Times,serif" font-size="14.00" fill="#000000"> </text>
</g>
<!-- key1&#45;&gt;key2 -->
<g id="edge14" class="edge">
<title>key1:e&#45;&gt;key2:w</title>
<path fill="none" stroke="#000000" d="M405.5,-19C426.5,-19 434.2109,-19 451.0581,-19"/>
<polygon fill="none" stroke="#000000" points="451.5,-22.5001 461.5,-19 451.5,-15.5001 451.5,-22.5001"/>
</g>
</g>
</svg>
