<?xml version="1.0" encoding="UTF-8" standalone="no"?>
<!DOCTYPE svg PUBLIC "-//W3C//DTD SVG 1.1//EN"
 "http://www.w3.org/Graphics/SVG/1.1/DTD/svg11.dtd">
<!-- Generated by graphviz version 2.40.1 (20161225.0304)
 -->
<!-- Title: %3 Pages: 1 -->
<svg width="682pt" height="392pt"
 viewBox="0.00 0.00 681.50 392.00" xmlns="http://www.w3.org/2000/svg" xmlns:xlink="http://www.w3.org/1999/xlink">
<g id="graph0" class="graph" transform="scale(1 1) rotate(0) translate(4 388)">
<title>%3</title>
<polygon fill="#ffffff" stroke="transparent" points="-4,4 -4,-388 677.5,-388 677.5,4 -4,4"/>
<!-- hasSpatioTemporalPart -->
<g id="node1" class="node">
<title>hasSpatioTemporalPart</title>
<g id="a_node1"><a xlink:href="http://emmo.info/emmo/top/physical#EMMO_6e046dd0_9634_4013_b2b1_9cc468087c83" xlink:title="hasSpatioTemporalPart">
<polygon fill="#0079ba" stroke="#000000" points="648.5,-210 504.5,-210 504.5,-174 648.5,-174 648.5,-210"/>
<text text-anchor="middle" x="576.5" y="-188.3" font-family="Times,serif" font-size="14.00" fill="#ffffff">hasSpatioTemporalPart</text>
</a>
</g>
</g>
<!-- hasProperPart -->
<g id="node11" class="node">
<title>hasProperPart</title>
<g id="a_node11"><a xlink:href="http://emmo.info/emmo/top/mereotopology#EMMO_9380ab64_0363_4804_b13f_3a8a94119a76" xlink:title="hasProperPart">
<polygon fill="#0079ba" stroke="#000000" points="319.5,-297 227.5,-297 227.5,-261 319.5,-261 319.5,-297"/>
<text text-anchor="middle" x="273.5" y="-275.3" font-family="Times,serif" font-size="14.00" fill="#ffffff">hasProperPart</text>
</a>
</g>
</g>
<!-- hasSpatioTemporalPart&#45;&gt;hasProperPart -->
<g id="edge13" class="edge">
<title>hasSpatioTemporalPart&#45;&gt;hasProperPart</title>
<path fill="none" stroke="#000000" d="M513.7182,-210.0265C459.4906,-225.5968 381.8485,-247.89 329.65,-262.8777"/>
<polygon fill="none" stroke="#000000" points="328.5334,-259.5568 319.8877,-265.6808 330.4653,-266.285 328.5334,-259.5568"/>
<text text-anchor="middle" x="453" y="-231.8" font-family="Times,serif" font-size="14.00" fill="#000000">isA</text>
</g>
<!-- hasProperParticipant -->
<g id="node2" class="node">
<title>hasProperParticipant</title>
<g id="a_node2"><a xlink:href="http://emmo.info/emmo/middle/holistic#EMMO_c5aae418_1622_4d02_93c5_21159e28e6c1" xlink:title="hasProperParticipant">
<polygon fill="#0079ba" stroke="#000000" points="129,-210 0,-210 0,-174 129,-174 129,-210"/>
<text text-anchor="middle" x="64.5" y="-188.3" font-family="Times,serif" font-size="14.00" fill="#ffffff">hasProperParticipant</text>
</a>
</g>
</g>
<!-- hasParticipant -->
<g id="node10" class="node">
<title>hasParticipant</title>
<g id="a_node10"><a xlink:href="http://emmo.info/emmo/middle/holistic#EMMO_ae2d1a96_bfa1_409a_a7d2_03d69e8a125a" xlink:title="hasParticipant">
<polygon fill="#0079ba" stroke="#000000" points="189,-297 96,-297 96,-261 189,-261 189,-297"/>
<text text-anchor="middle" x="142.5" y="-275.3" font-family="Times,serif" font-size="14.00" fill="#ffffff">hasParticipant</text>
</a>
</g>
</g>
<!-- hasProperParticipant&#45;&gt;hasParticipant -->
<g id="edge4" class="edge">
<title>hasProperParticipant&#45;&gt;hasParticipant</title>
<path fill="none" stroke="#000000" d="M80.6617,-210.0265C91.8521,-222.5081 106.9159,-239.3101 119.374,-253.2056"/>
<polygon fill="none" stroke="#000000" points="117.0776,-255.8873 126.3591,-260.9966 122.2896,-251.2145 117.0776,-255.8873"/>
<text text-anchor="middle" x="118" y="-231.8" font-family="Times,serif" font-size="14.00" fill="#000000">isA</text>
</g>
<!-- hasProperParticipant&#45;&gt;hasProperPart -->
<g id="edge5" class="edge">
<title>hasProperParticipant&#45;&gt;hasProperPart</title>
<path fill="none" stroke="#000000" d="M107.8049,-210.0265C140.592,-223.6746 185.7882,-242.4884 220.6963,-257.0195"/>
<polygon fill="none" stroke="#000000" points="219.6734,-260.3848 230.2505,-260.9966 222.3635,-253.9223 219.6734,-260.3848"/>
<text text-anchor="middle" x="192" y="-231.8" font-family="Times,serif" font-size="14.00" fill="#000000">isA</text>
</g>
<!-- hasSpatialPart -->
<g id="node3" class="node">
<title>hasSpatialPart</title>
<g id="a_node3"><a xlink:href="http://emmo.info/emmo/top/physical#EMMO_f68030be_94b8_4c61_a161_886468558054" xlink:title="hasSpatialPart">
<polygon fill="#0079ba" stroke="#000000" points="241.5,-210 147.5,-210 147.5,-174 241.5,-174 241.5,-210"/>
<text text-anchor="middle" x="194.5" y="-188.3" font-family="Times,serif" font-size="14.00" fill="#ffffff">hasSpatialPart</text>
</a>
</g>
</g>
<!-- hasSpatialPart&#45;&gt;hasProperPart -->
<g id="edge11" class="edge">
<title>hasSpatialPart&#45;&gt;hasProperPart</title>
<path fill="none" stroke="#000000" d="M210.8689,-210.0265C222.2028,-222.5081 237.4597,-239.3101 250.0775,-253.2056"/>
<polygon fill="none" stroke="#000000" points="247.8385,-255.9462 257.1521,-260.9966 253.0207,-251.2405 247.8385,-255.9462"/>
<text text-anchor="middle" x="249" y="-231.8" font-family="Times,serif" font-size="14.00" fill="#000000">isA</text>
</g>
<!-- hasReferenceUnit -->
<g id="node4" class="node">
<title>hasReferenceUnit</title>
<g id="a_node4"><a xlink:href="http://emmo.info/emmo/middle/units#EMMO_67fc0a36_8dcb_4ffa_9a43_31074efa3296" xlink:title="hasReferenceUnit">
<polygon fill="#0079ba" stroke="#000000" points="185,-36 72,-36 72,0 185,0 185,-36"/>
<text text-anchor="middle" x="128.5" y="-14.3" font-family="Times,serif" font-size="14.00" fill="#ffffff">hasReferenceUnit</text>
</a>
</g>
</g>
<!-- hasSpatialDirectPart -->
<g id="node7" class="node">
<title>hasSpatialDirectPart</title>
<g id="a_node7"><a xlink:href="http://emmo.info/emmo/middle/reductionistic#EMMO_b2282816_b7a3_44c6_b2cb_3feff1ceb7fe" xlink:title="hasSpatialDirectPart">
<polygon fill="#0079ba" stroke="#000000" points="258.5,-123 130.5,-123 130.5,-87 258.5,-87 258.5,-123"/>
<text text-anchor="middle" x="194.5" y="-101.3" font-family="Times,serif" font-size="14.00" fill="#ffffff">hasSpatialDirectPart</text>
</a>
</g>
</g>
<!-- hasReferenceUnit&#45;&gt;hasSpatialDirectPart -->
<g id="edge12" class="edge">
<title>hasReferenceUnit&#45;&gt;hasSpatialDirectPart</title>
<path fill="none" stroke="#000000" d="M142.1752,-36.0265C151.5556,-48.3915 164.1525,-64.9964 174.6357,-78.8153"/>
<polygon fill="none" stroke="#000000" points="172.0099,-81.1451 180.8423,-86.9966 177.5868,-76.9143 172.0099,-81.1451"/>
<text text-anchor="middle" x="175" y="-57.8" font-family="Times,serif" font-size="14.00" fill="#000000">isA</text>
</g>
<!-- hasMember -->
<g id="node5" class="node">
<title>hasMember</title>
<g id="a_node5"><a xlink:href="http://emmo.info/emmo/top/mereotopology#EMMO_6b7276a4_4b9d_440a_b577_0277539c0fc4" xlink:title="hasMember">
<polygon fill="#0079ba" stroke="#000000" points="341.5,-210 259.5,-210 259.5,-174 341.5,-174 341.5,-210"/>
<text text-anchor="middle" x="300.5" y="-188.3" font-family="Times,serif" font-size="14.00" fill="#ffffff">hasMember</text>
</a>
</g>
</g>
<!-- hasMember&#45;&gt;hasProperPart -->
<g id="edge1" class="edge">
<title>hasMember&#45;&gt;hasProperPart</title>
<path fill="none" stroke="#000000" d="M294.9056,-210.0265C291.213,-221.9249 286.302,-237.7492 282.1154,-251.2394"/>
<polygon fill="none" stroke="#000000" points="278.7086,-250.4086 279.0873,-260.9966 285.394,-252.4834 278.7086,-250.4086"/>
<text text-anchor="middle" x="299" y="-231.8" font-family="Times,serif" font-size="14.00" fill="#000000">isA</text>
</g>
<!-- hasQuantityValue -->
<g id="node6" class="node">
<title>hasQuantityValue</title>
<g id="a_node6"><a xlink:href="http://emmo.info/emmo/middle/units#EMMO_8ef3cd6d_ae58_4a8d_9fc0_ad8f49015cd0" xlink:title="hasQuantityValue">
<polygon fill="#0079ba" stroke="#000000" points="317.5,-36 203.5,-36 203.5,0 317.5,0 317.5,-36"/>
<text text-anchor="middle" x="260.5" y="-14.3" font-family="Times,serif" font-size="14.00" fill="#ffffff">hasQuantityValue</text>
</a>
</g>
</g>
<!-- hasQuantityValue&#45;&gt;hasSpatialDirectPart -->
<g id="edge7" class="edge">
<title>hasQuantityValue&#45;&gt;hasSpatialDirectPart</title>
<path fill="none" stroke="#000000" d="M246.8248,-36.0265C237.4444,-48.3915 224.8475,-64.9964 214.3643,-78.8153"/>
<polygon fill="none" stroke="#000000" points="211.4132,-76.9143 208.1577,-86.9966 216.9901,-81.1451 211.4132,-76.9143"/>
<text text-anchor="middle" x="241" y="-57.8" font-family="Times,serif" font-size="14.00" fill="#000000">isA</text>
</g>
<!-- hasSpatialDirectPart&#45;&gt;hasSpatialPart -->
<g id="edge3" class="edge">
<title>hasSpatialDirectPart&#45;&gt;hasSpatialPart</title>
<path fill="none" stroke="#000000" d="M194.5,-123.0265C194.5,-134.8082 194.5,-150.4393 194.5,-163.8419"/>
<polygon fill="none" stroke="#000000" points="191.0001,-163.9966 194.5,-173.9966 198.0001,-163.9967 191.0001,-163.9966"/>
<text text-anchor="middle" x="204" y="-144.8" font-family="Times,serif" font-size="14.00" fill="#000000">isA</text>
</g>
<!-- hasTemporalPart -->
<g id="node8" class="node">
<title>hasTemporalPart</title>
<g id="a_node8"><a xlink:href="http://emmo.info/emmo/top/physical#EMMO_7afbed84_7593_4a23_bd88_9d9c6b04e8f6" xlink:title="hasTemporalPart">
<polygon fill="#0079ba" stroke="#000000" points="469.5,-210 359.5,-210 359.5,-174 469.5,-174 469.5,-210"/>
<text text-anchor="middle" x="414.5" y="-188.3" font-family="Times,serif" font-size="14.00" fill="#ffffff">hasTemporalPart</text>
</a>
</g>
</g>
<!-- hasTemporalPart&#45;&gt;hasProperPart -->
<g id="edge6" class="edge">
<title>hasTemporalPart&#45;&gt;hasProperPart</title>
<path fill="none" stroke="#000000" d="M385.2847,-210.0265C363.8269,-223.2664 334.4908,-241.3674 311.2553,-255.7042"/>
<polygon fill="none" stroke="#000000" points="309.3503,-252.7669 302.6779,-260.9966 313.0261,-258.7241 309.3503,-252.7669"/>
<text text-anchor="middle" x="362" y="-231.8" font-family="Times,serif" font-size="14.00" fill="#000000">isA</text>
</g>
<!-- hasSpatioTemporalDirectPart -->
<g id="node9" class="node">
<title>hasSpatioTemporalDirectPart</title>
<g id="a_node9"><a xlink:href="http://emmo.info/emmo/middle/reductionistic#EMMO_663859e5_add3_4c9e_96fb_c99399de278d" xlink:title="hasSpatioTemporalDirectPart">
<polygon fill="#0079ba" stroke="#000000" points="673.5,-123 495.5,-123 495.5,-87 673.5,-87 673.5,-123"/>
<text text-anchor="middle" x="584.5" y="-101.3" font-family="Times,serif" font-size="14.00" fill="#ffffff">hasSpatioTemporalDirectPart</text>
</a>
</g>
</g>
<!-- hasSpatioTemporalDirectPart&#45;&gt;hasSpatioTemporalPart -->
<g id="edge2" class="edge">
<title>hasSpatioTemporalDirectPart&#45;&gt;hasSpatioTemporalPart</title>
<path fill="none" stroke="#000000" d="M582.8424,-123.0265C581.759,-134.8082 580.3217,-150.4393 579.0892,-163.8419"/>
<polygon fill="none" stroke="#000000" points="575.586,-163.7181 578.1555,-173.9966 582.5565,-164.3592 575.586,-163.7181"/>
<text text-anchor="middle" x="591" y="-144.8" font-family="Times,serif" font-size="14.00" fill="#000000">isA</text>
</g>
<!-- hasPart -->
<g id="node13" class="node">
<title>hasPart</title>
<g id="a_node13"><a xlink:href="http://emmo.info/emmo/top/mereotopology#EMMO_17e27c22_37e1_468c_9dd7_95e137f73e7f" xlink:title="hasPart">
<polygon fill="#0079ba" stroke="#000000" stroke-width="2" points="225.5,-384 169.5,-384 169.5,-348 225.5,-348 225.5,-384"/>
<text text-anchor="middle" x="197.5" y="-362.3" font-family="Times,serif" font-size="14.00" fill="#ffffff">hasPart</text>
</a>
</g>
</g>
<!-- hasParticipant&#45;&gt;hasPart -->
<g id="edge8" class="edge">
<title>hasParticipant&#45;&gt;hasPart</title>
<path fill="none" stroke="#000000" d="M153.896,-297.0265C161.6393,-309.2748 172.0126,-325.6835 180.6987,-339.4234"/>
<polygon fill="none" stroke="#000000" points="177.8165,-341.4143 186.1186,-347.9966 183.7333,-337.6738 177.8165,-341.4143"/>
<text text-anchor="middle" x="183" y="-318.8" font-family="Times,serif" font-size="14.00" fill="#000000">isA</text>
</g>
<!-- hasProperPart&#45;&gt;hasPart -->
<g id="edge9" class="edge">
<title>hasProperPart&#45;&gt;hasPart</title>
<path fill="none" stroke="#000000" d="M257.7528,-297.0265C246.8492,-309.5081 232.1716,-326.3101 220.033,-340.2056"/>
<polygon fill="none" stroke="#000000" points="217.1701,-338.1629 213.2271,-347.9966 222.4419,-342.7681 217.1701,-338.1629"/>
<text text-anchor="middle" x="250" y="-318.8" font-family="Times,serif" font-size="14.00" fill="#000000">isA</text>
</g>
<!-- hasTemporalDirectPart -->
<g id="node12" class="node">
<title>hasTemporalDirectPart</title>
<g id="a_node12"><a xlink:href="http://emmo.info/emmo/middle/reductionistic#EMMO_65a2c5b8_e4d8_4a51_b2f8_e55effc0547d" xlink:title="hasTemporalDirectPart">
<polygon fill="#0079ba" stroke="#000000" points="477,-123 334,-123 334,-87 477,-87 477,-123"/>
<text text-anchor="middle" x="405.5" y="-101.3" font-family="Times,serif" font-size="14.00" fill="#ffffff">hasTemporalDirectPart</text>
</a>
</g>
</g>
<!-- hasTemporalDirectPart&#45;&gt;hasTemporalPart -->
<g id="edge10" class="edge">
<title>hasTemporalDirectPart&#45;&gt;hasTemporalPart</title>
<path fill="none" stroke="#000000" d="M407.3648,-123.0265C408.5836,-134.8082 410.2006,-150.4393 411.5871,-163.8419"/>
<polygon fill="none" stroke="#000000" points="408.1271,-164.4099 412.6376,-173.9966 415.0899,-163.6895 408.1271,-164.4099"/>
<text text-anchor="middle" x="421" y="-144.8" font-family="Times,serif" font-size="14.00" fill="#000000">isA</text>
</g>
</g>
</svg>
