<?xml version="1.0" encoding="UTF-8" standalone="no"?>
<!DOCTYPE svg PUBLIC "-//W3C//DTD SVG 1.1//EN"
 "http://www.w3.org/Graphics/SVG/1.1/DTD/svg11.dtd">
<!-- Generated by graphviz version 2.40.1 (20161225.0304)
 -->
<!-- Title: %3 Pages: 1 -->
<svg width="746pt" height="332pt"
 viewBox="0.00 0.00 745.50 332.00" xmlns="http://www.w3.org/2000/svg" xmlns:xlink="http://www.w3.org/1999/xlink">
<g id="graph0" class="graph" transform="scale(1 1) rotate(0) translate(4 328)">
<title>%3</title>
<polygon fill="#ffffff" stroke="transparent" points="-4,4 -4,-328 741.5,-328 741.5,4 -4,4"/>
<!-- hasTemporalDirectPart -->
<g id="node1" class="node">
<title>hasTemporalDirectPart</title>
<g id="a_node1"><a xlink:href="http://emmo.info/emmo/middle/reductionistic#EMMO_65a2c5b8_e4d8_4a51_b2f8_e55effc0547d" xlink:title="hasTemporalDirectPart">
<polygon fill="#0079ba" stroke="#000000" points="143,-108 0,-108 0,-72 143,-72 143,-108"/>
<text text-anchor="middle" x="71.5" y="-86.3" font-family="Times,serif" font-size="14.00" fill="#ffffff">hasTemporalDirectPart</text>
</a>
</g>
</g>
<!-- hasTemporalPart -->
<g id="node3" class="node">
<title>hasTemporalPart</title>
<g id="a_node3"><a xlink:href="http://emmo.info/emmo/top/physical#EMMO_7afbed84_7593_4a23_bd88_9d9c6b04e8f6" xlink:title="hasTemporalPart">
<polygon fill="#0079ba" stroke="#000000" points="126.5,-180 16.5,-180 16.5,-144 126.5,-144 126.5,-180"/>
<text text-anchor="middle" x="71.5" y="-158.3" font-family="Times,serif" font-size="14.00" fill="#ffffff">hasTemporalPart</text>
</a>
</g>
</g>
<!-- hasTemporalDirectPart&#45;&gt;hasTemporalPart -->
<g id="edge1" class="edge">
<title>hasTemporalDirectPart&#45;&gt;hasTemporalPart</title>
<path fill="none" stroke="#000000" d="M71.5,-108.1686C71.5,-115.869 71.5,-125.0257 71.5,-133.5834"/>
<polygon fill="none" stroke="#000000" points="68.0001,-133.5867 71.5,-143.5867 75.0001,-133.5868 68.0001,-133.5867"/>
</g>
<!-- hasQuantityValue -->
<g id="node2" class="node">
<title>hasQuantityValue</title>
<g id="a_node2"><a xlink:href="http://emmo.info/emmo/middle/metrology#EMMO_8ef3cd6d_ae58_4a8d_9fc0_ad8f49015cd0" xlink:title="hasQuantityValue">
<polygon fill="#0079ba" stroke="#000000" points="461.5,-36 347.5,-36 347.5,0 461.5,0 461.5,-36"/>
<text text-anchor="middle" x="404.5" y="-14.3" font-family="Times,serif" font-size="14.00" fill="#ffffff">hasQuantityValue</text>
</a>
</g>
</g>
<!-- hasSpatialDirectPart -->
<g id="node12" class="node">
<title>hasSpatialDirectPart</title>
<g id="a_node12"><a xlink:href="http://emmo.info/emmo/middle/reductionistic#EMMO_b2282816_b7a3_44c6_b2cb_3feff1ceb7fe" xlink:title="hasSpatialDirectPart">
<polygon fill="#0079ba" stroke="#000000" points="534.5,-108 406.5,-108 406.5,-72 534.5,-72 534.5,-108"/>
<text text-anchor="middle" x="470.5" y="-86.3" font-family="Times,serif" font-size="14.00" fill="#ffffff">hasSpatialDirectPart</text>
</a>
</g>
</g>
<!-- hasQuantityValue&#45;&gt;hasSpatialDirectPart -->
<g id="edge2" class="edge">
<title>hasQuantityValue&#45;&gt;hasSpatialDirectPart</title>
<path fill="none" stroke="#000000" d="M421.1546,-36.1686C428.9114,-44.6306 438.2802,-54.8511 446.761,-64.1029"/>
<polygon fill="none" stroke="#000000" points="444.2838,-66.5802 453.6212,-71.5867 449.4439,-61.8501 444.2838,-66.5802"/>
</g>
<!-- hasProperPart -->
<g id="node8" class="node">
<title>hasProperPart</title>
<g id="a_node8"><a xlink:href="http://emmo.info/emmo/top/mereotopology#EMMO_9380ab64_0363_4804_b13f_3a8a94119a76" xlink:title="hasProperPart">
<polygon fill="#0079ba" stroke="#000000" points="430.5,-252 338.5,-252 338.5,-216 430.5,-216 430.5,-252"/>
<text text-anchor="middle" x="384.5" y="-230.3" font-family="Times,serif" font-size="14.00" fill="#ffffff">hasProperPart</text>
</a>
</g>
</g>
<!-- hasTemporalPart&#45;&gt;hasProperPart -->
<g id="edge6" class="edge">
<title>hasTemporalPart&#45;&gt;hasProperPart</title>
<path fill="none" stroke="#000000" d="M126.6016,-177.726C129.607,-178.5123 132.5878,-179.2754 135.5,-180 201.3601,-196.387 277.717,-212.5284 328.3315,-222.8322"/>
<polygon fill="none" stroke="#000000" points="327.918,-226.3195 338.4141,-224.8769 329.3092,-219.4592 327.918,-226.3195"/>
</g>
<!-- hasProperParticipant -->
<g id="node4" class="node">
<title>hasProperParticipant</title>
<g id="a_node4"><a xlink:href="http://emmo.info/emmo/middle/holistic#EMMO_c5aae418_1622_4d02_93c5_21159e28e6c1" xlink:title="hasProperParticipant">
<polygon fill="#0079ba" stroke="#000000" points="648,-180 519,-180 519,-144 648,-144 648,-180"/>
<text text-anchor="middle" x="583.5" y="-158.3" font-family="Times,serif" font-size="14.00" fill="#ffffff">hasProperParticipant</text>
</a>
</g>
</g>
<!-- hasParticipant -->
<g id="node7" class="node">
<title>hasParticipant</title>
<g id="a_node7"><a xlink:href="http://emmo.info/emmo/middle/holistic#EMMO_ae2d1a96_bfa1_409a_a7d2_03d69e8a125a" xlink:title="hasParticipant">
<polygon fill="#0079ba" stroke="#000000" points="586,-252 493,-252 493,-216 586,-216 586,-252"/>
<text text-anchor="middle" x="539.5" y="-230.3" font-family="Times,serif" font-size="14.00" fill="#ffffff">hasParticipant</text>
</a>
</g>
</g>
<!-- hasProperParticipant&#45;&gt;hasParticipant -->
<g id="edge10" class="edge">
<title>hasProperParticipant&#45;&gt;hasParticipant</title>
<path fill="none" stroke="#000000" d="M572.3969,-180.1686C567.4326,-188.2921 561.4778,-198.0363 556.0072,-206.9882"/>
<polygon fill="none" stroke="#000000" points="552.9806,-205.2288 550.7526,-215.5867 558.9536,-208.879 552.9806,-205.2288"/>
</g>
<!-- hasProperParticipant&#45;&gt;hasProperPart -->
<g id="edge11" class="edge">
<title>hasProperParticipant&#45;&gt;hasProperPart</title>
<path fill="none" stroke="#000000" d="M533.5408,-180.0757C505.1985,-190.3302 469.6562,-203.1897 440.3895,-213.7787"/>
<polygon fill="none" stroke="#000000" points="438.9369,-210.5821 430.7243,-217.2756 441.3185,-217.1645 438.9369,-210.5821"/>
</g>
<!-- hasMember -->
<g id="node5" class="node">
<title>hasMember</title>
<g id="a_node5"><a xlink:href="http://emmo.info/emmo/top/mereotopology#EMMO_6b7276a4_4b9d_440a_b577_0277539c0fc4" xlink:title="hasMember">
<polygon fill="#0079ba" stroke="#000000" points="226.5,-180 144.5,-180 144.5,-144 226.5,-144 226.5,-180"/>
<text text-anchor="middle" x="185.5" y="-158.3" font-family="Times,serif" font-size="14.00" fill="#ffffff">hasMember</text>
</a>
</g>
</g>
<!-- hasMember&#45;&gt;hasProperPart -->
<g id="edge13" class="edge">
<title>hasMember&#45;&gt;hasProperPart</title>
<path fill="none" stroke="#000000" d="M226.7329,-176.9184C256.24,-187.5944 296.3026,-202.0894 328.6723,-213.801"/>
<polygon fill="none" stroke="#000000" points="327.8566,-217.2279 338.4509,-217.339 330.2382,-210.6455 327.8566,-217.2279"/>
</g>
<!-- hasPart -->
<g id="node6" class="node">
<title>hasPart</title>
<g id="a_node6"><a xlink:href="http://emmo.info/emmo/top/mereotopology#EMMO_17e27c22_37e1_468c_9dd7_95e137f73e7f" xlink:title="hasPart">
<polygon fill="#0079ba" stroke="#000000" stroke-width="2" points="467.5,-324 411.5,-324 411.5,-288 467.5,-288 467.5,-324"/>
<text text-anchor="middle" x="439.5" y="-302.3" font-family="Times,serif" font-size="14.00" fill="#ffffff">hasPart</text>
</a>
</g>
</g>
<!-- hasParticipant&#45;&gt;hasPart -->
<g id="edge4" class="edge">
<title>hasParticipant&#45;&gt;hasPart</title>
<path fill="none" stroke="#000000" d="M514.2658,-252.1686C501.712,-261.2073 486.3717,-272.2524 472.8609,-281.9802"/>
<polygon fill="none" stroke="#000000" points="470.7964,-279.1537 464.7261,-287.8372 474.8866,-284.8345 470.7964,-279.1537"/>
</g>
<!-- hasProperPart&#45;&gt;hasPart -->
<g id="edge12" class="edge">
<title>hasProperPart&#45;&gt;hasPart</title>
<path fill="none" stroke="#000000" d="M398.3788,-252.1686C404.7136,-260.4614 412.3384,-270.443 419.2926,-279.5467"/>
<polygon fill="none" stroke="#000000" points="416.5825,-281.7647 425.4343,-287.5867 422.1452,-277.5153 416.5825,-281.7647"/>
</g>
<!-- hasSpatioTemporalPart -->
<g id="node9" class="node">
<title>hasSpatioTemporalPart</title>
<g id="a_node9"><a xlink:href="http://emmo.info/emmo/top/physical#EMMO_6e046dd0_9634_4013_b2b1_9cc468087c83" xlink:title="hasSpatioTemporalPart">
<polygon fill="#0079ba" stroke="#000000" points="388.5,-180 244.5,-180 244.5,-144 388.5,-144 388.5,-180"/>
<text text-anchor="middle" x="316.5" y="-158.3" font-family="Times,serif" font-size="14.00" fill="#ffffff">hasSpatioTemporalPart</text>
</a>
</g>
</g>
<!-- hasSpatioTemporalPart&#45;&gt;hasProperPart -->
<g id="edge8" class="edge">
<title>hasSpatioTemporalPart&#45;&gt;hasProperPart</title>
<path fill="none" stroke="#000000" d="M333.6593,-180.1686C341.6511,-188.6306 351.3038,-198.8511 360.0416,-208.1029"/>
<polygon fill="none" stroke="#000000" points="357.6989,-210.7198 367.1097,-215.5867 362.788,-205.9134 357.6989,-210.7198"/>
</g>
<!-- hasSpatioTemporalDirectPart -->
<g id="node10" class="node">
<title>hasSpatioTemporalDirectPart</title>
<g id="a_node10"><a xlink:href="http://emmo.info/emmo/middle/reductionistic#EMMO_663859e5_add3_4c9e_96fb_c99399de278d" xlink:title="hasSpatioTemporalDirectPart">
<polygon fill="#0079ba" stroke="#000000" points="388.5,-108 210.5,-108 210.5,-72 388.5,-72 388.5,-108"/>
<text text-anchor="middle" x="299.5" y="-86.3" font-family="Times,serif" font-size="14.00" fill="#ffffff">hasSpatioTemporalDirectPart</text>
</a>
</g>
</g>
<!-- hasSpatioTemporalDirectPart&#45;&gt;hasSpatioTemporalPart -->
<g id="edge5" class="edge">
<title>hasSpatioTemporalDirectPart&#45;&gt;hasSpatioTemporalPart</title>
<path fill="none" stroke="#000000" d="M303.7898,-108.1686C305.608,-115.869 307.7699,-125.0257 309.7905,-133.5834"/>
<polygon fill="none" stroke="#000000" points="306.4481,-134.6586 312.1524,-143.5867 313.2608,-133.05 306.4481,-134.6586"/>
</g>
<!-- hasSpatialPart -->
<g id="node11" class="node">
<title>hasSpatialPart</title>
<g id="a_node11"><a xlink:href="http://emmo.info/emmo/top/physical#EMMO_f68030be_94b8_4c61_a161_886468558054" xlink:title="hasSpatialPart">
<polygon fill="#0079ba" stroke="#000000" points="500.5,-180 406.5,-180 406.5,-144 500.5,-144 500.5,-180"/>
<text text-anchor="middle" x="453.5" y="-158.3" font-family="Times,serif" font-size="14.00" fill="#ffffff">hasSpatialPart</text>
</a>
</g>
</g>
<!-- hasSpatialPart&#45;&gt;hasProperPart -->
<g id="edge9" class="edge">
<title>hasSpatialPart&#45;&gt;hasProperPart</title>
<path fill="none" stroke="#000000" d="M436.0884,-180.1686C427.979,-188.6306 418.1844,-198.8511 409.318,-208.1029"/>
<polygon fill="none" stroke="#000000" points="406.5382,-205.9451 402.146,-215.5867 411.5921,-210.7885 406.5382,-205.9451"/>
</g>
<!-- hasSpatialDirectPart&#45;&gt;hasSpatialPart -->
<g id="edge7" class="edge">
<title>hasSpatialDirectPart&#45;&gt;hasSpatialPart</title>
<path fill="none" stroke="#000000" d="M466.2102,-108.1686C464.392,-115.869 462.2301,-125.0257 460.2095,-133.5834"/>
<polygon fill="none" stroke="#000000" points="456.7392,-133.05 457.8476,-143.5867 463.5519,-134.6586 456.7392,-133.05"/>
</g>
<!-- hasReferenceUnit -->
<g id="node13" class="node">
<title>hasReferenceUnit</title>
<g id="a_node13"><a xlink:href="http://emmo.info/emmo/middle/metrology#EMMO_67fc0a36_8dcb_4ffa_9a43_31074efa3296" xlink:title="hasReferenceUnit">
<polygon fill="#0079ba" stroke="#000000" points="593,-36 480,-36 480,0 593,0 593,-36"/>
<text text-anchor="middle" x="536.5" y="-14.3" font-family="Times,serif" font-size="14.00" fill="#ffffff">hasReferenceUnit</text>
</a>
</g>
</g>
<!-- hasReferenceUnit&#45;&gt;hasSpatialDirectPart -->
<g id="edge3" class="edge">
<title>hasReferenceUnit&#45;&gt;hasSpatialDirectPart</title>
<path fill="none" stroke="#000000" d="M519.8454,-36.1686C512.0886,-44.6306 502.7198,-54.8511 494.239,-64.1029"/>
<polygon fill="none" stroke="#000000" points="491.5561,-61.8501 487.3788,-71.5867 496.7162,-66.5802 491.5561,-61.8501"/>
</g>
<!-- key1 -->
<g id="node14" class="node">
<title>key1</title>
<text text-anchor="start" x="629.5" y="-13.8" font-family="Times,serif" font-size="14.00" fill="#000000">isA</text>
</g>
<!-- key2 -->
<g id="node15" class="node">
<title>key2</title>
<text text-anchor="start" x="708.5" y="-13.8" font-family="Times,serif" font-size="14.00" fill="#000000"> </text>
</g>
<!-- key1&#45;&gt;key2 -->
<g id="edge14" class="edge">
<title>key1:e&#45;&gt;key2:w</title>
<path fill="none" stroke="#000000" d="M650.5,-19C671.5,-19 679.2109,-19 696.0581,-19"/>
<polygon fill="none" stroke="#000000" points="696.5,-22.5001 706.5,-19 696.5,-15.5001 696.5,-22.5001"/>
</g>
</g>
</svg>
