<?xml version="1.0" encoding="UTF-8" standalone="no"?>
<!DOCTYPE svg PUBLIC "-//W3C//DTD SVG 1.1//EN"
 "http://www.w3.org/Graphics/SVG/1.1/DTD/svg11.dtd">
<!-- Generated by graphviz version 2.40.1 (20161225.0304)
 -->
<!-- Title: %3 Pages: 1 -->
<svg width="424pt" height="305pt"
 viewBox="0.00 0.00 423.74 305.00" xmlns="http://www.w3.org/2000/svg" xmlns:xlink="http://www.w3.org/1999/xlink">
<g id="graph0" class="graph" transform="scale(1 1) rotate(0) translate(4 301)">
<title>%3</title>
<polygon fill="#ffffff" stroke="transparent" points="-4,4 -4,-301 419.7434,-301 419.7434,4 -4,4"/>
<!-- Engineered -->
<g id="node1" class="node">
<title>Engineered</title>
<g id="a_node1"><a xlink:href="http://emmo.info/emmo/middle/manufacturing#EMMO_86ca9b93_1183_4b65_81b8_c0fcd3bba5ad" xlink:title="Engineered">
<ellipse fill="#ffffcc" stroke="#000000" cx="324.6967" cy="-105" rx="50.8918" ry="18"/>
<text text-anchor="middle" x="324.6967" y="-101.3" font-family="Times,serif" font-size="14.00" fill="#000000">Engineered</text>
</a>
</g>
</g>
<!-- Participant -->
<g id="node4" class="node">
<title>Participant</title>
<g id="a_node4"><a xlink:href="http://emmo.info/emmo/middle/holistic#EMMO_49804605_c0fe_4538_abda_f70ba1dc8a5d" xlink:title="Participant">
<ellipse fill="#ffffcc" stroke="#000000" cx="251.6967" cy="-192" rx="48.9926" ry="18"/>
<text text-anchor="middle" x="251.6967" y="-188.3" font-family="Times,serif" font-size="14.00" fill="#000000">Participant</text>
</a>
</g>
</g>
<!-- Engineered&#45;&gt;Participant -->
<g id="edge3" class="edge">
<title>Engineered&#45;&gt;Participant</title>
<path fill="none" stroke="#000000" d="M309.924,-122.6057C299.2671,-135.3065 284.7249,-152.6376 272.8396,-166.8023"/>
<polygon fill="none" stroke="#000000" points="269.9448,-164.8071 266.1982,-174.7173 275.3072,-169.3065 269.9448,-164.8071"/>
<text text-anchor="middle" x="302.1967" y="-144.8" font-family="Times,serif" font-size="14.00" fill="#000000">isA</text>
</g>
<!-- Holistic -->
<g id="node2" class="node">
<title>Holistic</title>
<g id="a_node2"><a xlink:href="http://emmo.info/emmo/middle/holistic#EMMO_0277f24a_ea7f_4917_81b7_fb0406c8fc62" xlink:title="Holistic">
<ellipse fill="#ffc880" stroke="#000000" stroke-width="2" cx="144.6967" cy="-279" rx="38.1938" ry="18"/>
<text text-anchor="middle" x="144.6967" y="-275.3" font-family="Times,serif" font-size="14.00" fill="#000000">Holistic</text>
</a>
</g>
</g>
<!-- Component -->
<g id="node3" class="node">
<title>Component</title>
<g id="a_node3"><a xlink:href="http://emmo.info/emmo/middle/manufacturing#EMMO_494b372c_cfdf_47d3_a4de_5e037c540de8" xlink:title="Component">
<ellipse fill="#ffffcc" stroke="#000000" cx="271.6967" cy="-18" rx="51.9908" ry="18"/>
<text text-anchor="middle" x="271.6967" y="-14.3" font-family="Times,serif" font-size="14.00" fill="#000000">Component</text>
</a>
</g>
</g>
<!-- Component&#45;&gt;Engineered -->
<g id="edge7" class="edge">
<title>Component&#45;&gt;Engineered</title>
<path fill="none" stroke="#000000" d="M282.6783,-36.0265C290.1897,-48.3565 300.2694,-64.9025 308.6735,-78.6979"/>
<polygon fill="none" stroke="#000000" points="305.7188,-80.5751 313.9104,-87.2943 311.6968,-76.9333 305.7188,-80.5751"/>
<text text-anchor="middle" x="311.1967" y="-57.8" font-family="Times,serif" font-size="14.00" fill="#000000">isA</text>
</g>
<!-- Participant&#45;&gt;Holistic -->
<g id="edge5" class="edge">
<title>Participant&#45;&gt;Holistic</title>
<path fill="none" stroke="#000000" d="M231.3189,-208.5688C214.4169,-222.3115 190.2434,-241.9666 171.726,-257.0228"/>
<polygon fill="none" stroke="#000000" points="169.4697,-254.3465 163.9188,-263.3708 173.8858,-259.7777 169.4697,-254.3465"/>
<text text-anchor="middle" x="214.1967" y="-231.8" font-family="Times,serif" font-size="14.00" fill="#000000">isA</text>
</g>
<!-- Process -->
<g id="node7" class="node">
<title>Process</title>
<g id="a_node7"><a xlink:href="http://emmo.info/emmo/middle/holistic#EMMO_43e9a05d_98af_41b4_92f6_00f79a09bfce" xlink:title="Process">
<ellipse fill="#ffffcc" stroke="#000000" stroke-width="2" cx="37.6967" cy="-192" rx="37.8943" ry="18"/>
<text text-anchor="middle" x="37.6967" y="-188.3" font-family="Times,serif" font-size="14.00" fill="#000000">Process</text>
</a>
</g>
</g>
<!-- Participant&#45;&gt;Process -->
<g id="edge6" class="edge">
<title>Participant&#45;&gt;Process</title>
<path fill="none" stroke="#ff0000" d="M202.6353,-192C167.5973,-192 120.6917,-192 85.859,-192"/>
<polygon fill="#ff0000" stroke="#ff0000" points="75.463,-188.5 85.463,-192.0001 75.4629,-195.5 75.463,-188.5"/>
<text text-anchor="middle" x="139.1721" y="-177.8" font-family="Times,serif" font-size="14.00" fill="#000000">Inverse(hasParticipant) some</text>
</g>
<!-- Semiotic -->
<g id="node5" class="node">
<title>Semiotic</title>
<g id="a_node5"><a xlink:href="http://emmo.info/emmo/top/semiotics#EMMO_b803f122_4acb_4064_9d71_c1e5fd091fc9" xlink:title="Semiotic">
<ellipse fill="#ffc880" stroke="#000000" stroke-width="2" cx="213.6967" cy="-105" rx="42.4939" ry="18"/>
<text text-anchor="middle" x="213.6967" y="-101.3" font-family="Times,serif" font-size="14.00" fill="#000000">Semiotic</text>
</a>
</g>
</g>
<!-- Semiotic&#45;&gt;Participant -->
<g id="edge8" class="edge">
<title>Semiotic&#45;&gt;Participant</title>
<path fill="none" stroke="#000000" d="M221.5703,-123.0265C226.8182,-135.0415 233.8148,-151.0599 239.7443,-164.6354"/>
<polygon fill="none" stroke="#000000" points="236.623,-166.2336 243.8331,-173.9966 243.0378,-163.4317 236.623,-166.2336"/>
<text text-anchor="middle" x="245.1967" y="-144.8" font-family="Times,serif" font-size="14.00" fill="#000000">isA</text>
</g>
<!-- System -->
<g id="node6" class="node">
<title>System</title>
<g id="a_node6"><a xlink:href="http://emmo.info/emmo/middle/manufacturing#EMMO_e775e341_5687_4d45_b50c_379b098a8c26" xlink:title="System">
<ellipse fill="#ffc880" stroke="#000000" cx="378.6967" cy="-18" rx="37.0935" ry="18"/>
<text text-anchor="middle" x="378.6967" y="-14.3" font-family="Times,serif" font-size="14.00" fill="#000000">System</text>
</a>
</g>
</g>
<!-- System&#45;&gt;Engineered -->
<g id="edge4" class="edge">
<title>System&#45;&gt;Engineered</title>
<path fill="none" stroke="#000000" d="M367.7689,-35.6057C360.0836,-47.9876 349.6668,-64.7703 341.0024,-78.7296"/>
<polygon fill="none" stroke="#000000" points="337.908,-77.0782 335.6081,-87.4204 343.8555,-80.7698 337.908,-77.0782"/>
<text text-anchor="middle" x="364.1967" y="-57.8" font-family="Times,serif" font-size="14.00" fill="#000000">isA</text>
</g>
<!-- Process&#45;&gt;Holistic -->
<g id="edge1" class="edge">
<title>Process&#45;&gt;Holistic</title>
<path fill="none" stroke="#000000" d="M56.8261,-207.5539C73.6869,-221.2631 98.4459,-241.3942 117.3889,-256.7965"/>
<polygon fill="none" stroke="#000000" points="115.4051,-259.6944 125.372,-263.2875 119.8211,-254.2631 115.4051,-259.6944"/>
<text text-anchor="middle" x="107.1967" y="-231.8" font-family="Times,serif" font-size="14.00" fill="#000000">isA</text>
</g>
<!-- Process&#45;&gt;Participant -->
<g id="edge2" class="edge">
<title>Process&#45;&gt;Participant</title>
<path fill="none" stroke="#ff0000" d="M65.2235,-204.5739C71.3395,-206.8235 77.8781,-208.8237 84.1721,-210 108.2006,-214.4906 170.0082,-213.6923 194.1721,-210 198.3616,-209.3598 202.6652,-208.4717 206.942,-207.4301"/>
<polygon fill="#ff0000" stroke="#ff0000" points="208.065,-210.7523 216.8063,-204.7657 206.2395,-203.9945 208.065,-210.7523"/>
<text text-anchor="middle" x="139.1721" y="-198.8" font-family="Times,serif" font-size="14.00" fill="#000000">hasParticipant some</text>
</g>
</g>
</svg>
