<?xml version="1.0" encoding="UTF-8" standalone="no"?>
<!DOCTYPE svg PUBLIC "-//W3C//DTD SVG 1.1//EN"
 "http://www.w3.org/Graphics/SVG/1.1/DTD/svg11.dtd">
<!-- Generated by graphviz version 2.40.1 (20161225.0304)
 -->
<!-- Title: %3 Pages: 1 -->
<svg width="392pt" height="289pt"
 viewBox="0.00 0.00 392.00 289.00" xmlns="http://www.w3.org/2000/svg" xmlns:xlink="http://www.w3.org/1999/xlink">
<g id="graph0" class="graph" transform="scale(1 1) rotate(0) translate(4 285)">
<title>%3</title>
<polygon fill="#ffffff" stroke="transparent" points="-4,4 -4,-285 387.9954,-285 387.9954,4 -4,4"/>
<!-- Process -->
<g id="node1" class="node">
<title>Process</title>
<g id="a_node1"><a xlink:href="http://emmo.info/emmo/middle/holistic#EMMO_43e9a05d_98af_41b4_92f6_00f79a09bfce" xlink:title="Process">
<ellipse fill="#ffffcc" stroke="#000000" stroke-width="2" cx="56.9954" cy="-191" rx="37.8943" ry="18"/>
<text text-anchor="middle" x="56.9954" y="-187.3" font-family="Times,serif" font-size="14.00" fill="#000000">Process</text>
</a>
</g>
</g>
<!-- Participant -->
<g id="node2" class="node">
<title>Participant</title>
<g id="a_node2"><a xlink:href="http://emmo.info/emmo/middle/holistic#EMMO_49804605_c0fe_4538_abda_f70ba1dc8a5d" xlink:title="Participant">
<ellipse fill="#ffffcc" stroke="#000000" cx="160.9954" cy="-191" rx="48.9926" ry="18"/>
<text text-anchor="middle" x="160.9954" y="-187.3" font-family="Times,serif" font-size="14.00" fill="#000000">Participant</text>
</a>
</g>
</g>
<!-- Process&#45;&gt;Participant -->
<g id="edge8" class="edge">
<title>Process&#45;&gt;Participant</title>
<path fill="none" stroke="#ff0000" d="M87.0579,-179.9027C96.3196,-177.8739 105.5814,-177.1299 114.8431,-177.6707"/>
<polygon fill="#ff0000" stroke="#ff0000" points="114.5737,-181.162 124.8931,-178.7618 115.3293,-174.2029 114.5737,-181.162"/>
</g>
<!-- Holistic -->
<g id="node5" class="node">
<title>Holistic</title>
<g id="a_node5"><a xlink:href="http://emmo.info/emmo/middle/holistic#EMMO_0277f24a_ea7f_4917_81b7_fb0406c8fc62" xlink:title="Holistic">
<ellipse fill="#ffc880" stroke="#000000" stroke-width="2" cx="108.9954" cy="-263" rx="38.1938" ry="18"/>
<text text-anchor="middle" x="108.9954" y="-259.3" font-family="Times,serif" font-size="14.00" fill="#000000">Holistic</text>
</a>
</g>
</g>
<!-- Process&#45;&gt;Holistic -->
<g id="edge7" class="edge">
<title>Process&#45;&gt;Holistic</title>
<path fill="none" stroke="#000000" d="M69.3187,-208.063C75.6369,-216.8114 83.4616,-227.6455 90.488,-237.3744"/>
<polygon fill="none" stroke="#000000" points="87.707,-239.5017 96.3993,-245.5593 93.3818,-235.4033 87.707,-239.5017"/>
</g>
<!-- Participant&#45;&gt;Process -->
<g id="edge2" class="edge">
<title>Participant&#45;&gt;Process</title>
<path fill="none" stroke="#ff0000" d="M124.8931,-203.2382C115.6313,-204.7084 106.3696,-204.8938 97.1079,-203.7945"/>
<polygon fill="#ff0000" stroke="#ff0000" points="87.6407,-198.6462 96.9183,-203.7625 86.475,-205.5484 87.6407,-198.6462"/>
</g>
<!-- Participant&#45;&gt;Holistic -->
<g id="edge1" class="edge">
<title>Participant&#45;&gt;Holistic</title>
<path fill="none" stroke="#000000" d="M148.4076,-208.4292C142.0842,-217.1847 134.3033,-227.9582 127.3302,-237.6133"/>
<polygon fill="none" stroke="#000000" points="124.4848,-235.5753 121.4672,-245.7313 130.1595,-239.6737 124.4848,-235.5753"/>
</g>
<!-- Engineered -->
<g id="node3" class="node">
<title>Engineered</title>
<g id="a_node3"><a xlink:href="http://emmo.info/emmo/middle/manufacturing#EMMO_86ca9b93_1183_4b65_81b8_c0fcd3bba5ad" xlink:title="Engineered">
<ellipse fill="#ffffcc" stroke="#000000" cx="104.9954" cy="-119" rx="50.8918" ry="18"/>
<text text-anchor="middle" x="104.9954" y="-115.3" font-family="Times,serif" font-size="14.00" fill="#000000">Engineered</text>
</a>
</g>
</g>
<!-- Engineered&#45;&gt;Participant -->
<g id="edge3" class="edge">
<title>Engineered&#45;&gt;Participant</title>
<path fill="none" stroke="#000000" d="M118.5514,-136.4292C125.3112,-145.1203 133.6175,-155.7999 141.0844,-165.4002"/>
<polygon fill="none" stroke="#000000" points="138.4679,-167.737 147.3701,-173.4818 143.9934,-163.4394 138.4679,-167.737"/>
</g>
<!-- Component -->
<g id="node4" class="node">
<title>Component</title>
<g id="a_node4"><a xlink:href="http://emmo.info/emmo/middle/manufacturing#EMMO_494b372c_cfdf_47d3_a4de_5e037c540de8" xlink:title="Component">
<ellipse fill="#ffffcc" stroke="#000000" cx="51.9954" cy="-32.5" rx="51.9908" ry="18"/>
<text text-anchor="middle" x="51.9954" y="-28.8" font-family="Times,serif" font-size="14.00" fill="#000000">Component</text>
</a>
</g>
</g>
<!-- Component&#45;&gt;Engineered -->
<g id="edge5" class="edge">
<title>Component&#45;&gt;Engineered</title>
<path fill="none" stroke="#000000" d="M62.977,-50.4229C70.4884,-62.682 80.5681,-79.1329 88.9723,-92.849"/>
<polygon fill="none" stroke="#000000" points="86.0003,-94.6979 94.2092,-101.3961 91.969,-91.0407 86.0003,-94.6979"/>
</g>
<!-- Semiotic -->
<g id="node6" class="node">
<title>Semiotic</title>
<g id="a_node6"><a xlink:href="http://emmo.info/emmo/top/semiotics#EMMO_b803f122_4acb_4064_9d71_c1e5fd091fc9" xlink:title="Semiotic">
<ellipse fill="#ffc880" stroke="#000000" stroke-width="2" cx="215.9954" cy="-119" rx="42.4939" ry="18"/>
<text text-anchor="middle" x="215.9954" y="-115.3" font-family="Times,serif" font-size="14.00" fill="#000000">Semiotic</text>
</a>
</g>
</g>
<!-- Semiotic&#45;&gt;Participant -->
<g id="edge4" class="edge">
<title>Semiotic&#45;&gt;Participant</title>
<path fill="none" stroke="#000000" d="M202.6814,-136.4292C196.0424,-145.1203 187.8843,-155.7999 180.5508,-165.4002"/>
<polygon fill="none" stroke="#000000" points="177.6665,-163.4104 174.3774,-173.4818 183.2292,-167.6597 177.6665,-163.4104"/>
</g>
<!-- System -->
<g id="node7" class="node">
<title>System</title>
<g id="a_node7"><a xlink:href="http://emmo.info/emmo/middle/manufacturing#EMMO_e775e341_5687_4d45_b50c_379b098a8c26" xlink:title="System">
<ellipse fill="#ffc880" stroke="#000000" cx="158.9954" cy="-32.5" rx="37.0935" ry="18"/>
<text text-anchor="middle" x="158.9954" y="-28.8" font-family="Times,serif" font-size="14.00" fill="#000000">System</text>
</a>
</g>
</g>
<!-- System&#45;&gt;Engineered -->
<g id="edge6" class="edge">
<title>System&#45;&gt;Engineered</title>
<path fill="none" stroke="#000000" d="M148.0677,-50.0046C140.4329,-62.2343 130.1025,-78.7822 121.4724,-92.6063"/>
<polygon fill="none" stroke="#000000" points="118.4188,-90.8884 116.0922,-101.2246 124.3568,-94.5953 118.4188,-90.8884"/>
</g>
<!-- key1 -->
<g id="node8" class="node">
<title>key1</title>
<text text-anchor="start" x="282.9954" y="-47.3" font-family="Times,serif" font-size="14.00" fill="#000000">isA</text>
<text text-anchor="start" x="224.9954" y="-28.3" font-family="Times,serif" font-size="14.00" fill="#000000">hasParticipant</text>
<text text-anchor="start" x="261.9954" y="-9.3" font-family="Times,serif" font-size="14.00" fill="#000000">inverse</text>
</g>
<!-- key2 -->
<g id="node9" class="node">
<title>key2</title>
<text text-anchor="start" x="354.9954" y="-47.3" font-family="Times,serif" font-size="14.00" fill="#000000"> </text>
<text text-anchor="start" x="354.9954" y="-28.3" font-family="Times,serif" font-size="14.00" fill="#000000"> </text>
<text text-anchor="start" x="354.9954" y="-9.3" font-family="Times,serif" font-size="14.00" fill="#000000"> </text>
</g>
<!-- key1&#45;&gt;key2 -->
<g id="edge9" class="edge">
<title>key1:e&#45;&gt;key2:w</title>
<path fill="none" stroke="#000000" d="M303.9954,-13.5C321.86,-13.5 328.7336,-13.5 342.6484,-13.5"/>
<polygon fill="#000000" stroke="#000000" points="352.9954,-17 342.9954,-13.5001 352.9954,-10 352.9954,-17"/>
</g>
<!-- key1&#45;&gt;key2 -->
<g id="edge10" class="edge">
<title>key1:e&#45;&gt;key2:w</title>
<path fill="none" stroke="#ff0000" d="M303.9954,-33.5C321.86,-33.5 328.7336,-33.5 342.6484,-33.5"/>
<polygon fill="#ff0000" stroke="#ff0000" points="342.9954,-37.0001 352.9954,-33.5 342.9954,-30.0001 342.9954,-37.0001"/>
</g>
<!-- key1&#45;&gt;key2 -->
<g id="edge11" class="edge">
<title>key1:e&#45;&gt;key2:w</title>
<path fill="none" stroke="#000000" d="M303.9954,-52.5C321.86,-52.5 328.7336,-52.5 342.6484,-52.5"/>
<polygon fill="none" stroke="#000000" points="342.9954,-56.0001 352.9954,-52.5 342.9954,-49.0001 342.9954,-56.0001"/>
</g>
</g>
</svg>
