<?xml version="1.0" encoding="UTF-8" standalone="no"?>
<!DOCTYPE svg PUBLIC "-//W3C//DTD SVG 1.1//EN"
 "http://www.w3.org/Graphics/SVG/1.1/DTD/svg11.dtd">
<!-- Generated by graphviz version 2.40.1 (20161225.0304)
 -->
<!-- Title: %3 Pages: 1 -->
<svg width="484pt" height="289pt"
 viewBox="0.00 0.00 483.70 289.00" xmlns="http://www.w3.org/2000/svg" xmlns:xlink="http://www.w3.org/1999/xlink">
<g id="graph0" class="graph" transform="scale(1 1) rotate(0) translate(4 285)">
<title>%3</title>
<polygon fill="#ffffff" stroke="transparent" points="-4,4 -4,-285 479.6967,-285 479.6967,4 -4,4"/>
<!-- Engineered -->
<g id="node1" class="node">
<title>Engineered</title>
<g id="a_node1"><a xlink:href="http://emmo.info/emmo/middle/manufacturing#EMMO_86ca9b93_1183_4b65_81b8_c0fcd3bba5ad" xlink:title="Engineered">
<ellipse fill="#ffffcc" stroke="#000000" cx="197.6967" cy="-119" rx="50.8918" ry="18"/>
<text text-anchor="middle" x="197.6967" y="-115.3" font-family="Times,serif" font-size="14.00" fill="#000000">Engineered</text>
</a>
</g>
</g>
<!-- Participant -->
<g id="node6" class="node">
<title>Participant</title>
<g id="a_node6"><a xlink:href="http://emmo.info/emmo/middle/holistic#EMMO_49804605_c0fe_4538_abda_f70ba1dc8a5d" xlink:title="Participant">
<ellipse fill="#ffffcc" stroke="#000000" cx="141.6967" cy="-191" rx="48.9926" ry="18"/>
<text text-anchor="middle" x="141.6967" y="-187.3" font-family="Times,serif" font-size="14.00" fill="#000000">Participant</text>
</a>
</g>
</g>
<!-- Engineered&#45;&gt;Participant -->
<g id="edge4" class="edge">
<title>Engineered&#45;&gt;Participant</title>
<path fill="none" stroke="#000000" d="M184.1406,-136.4292C177.3809,-145.1203 169.0745,-155.7999 161.6076,-165.4002"/>
<polygon fill="none" stroke="#000000" points="158.6987,-163.4394 155.322,-173.4818 164.2241,-167.737 158.6987,-163.4394"/>
</g>
<!-- Holistic -->
<g id="node2" class="node">
<title>Holistic</title>
<g id="a_node2"><a xlink:href="http://emmo.info/emmo/middle/holistic#EMMO_0277f24a_ea7f_4917_81b7_fb0406c8fc62" xlink:title="Holistic">
<ellipse fill="#ffc880" stroke="#000000" stroke-width="2" cx="89.6967" cy="-263" rx="38.1938" ry="18"/>
<text text-anchor="middle" x="89.6967" y="-259.3" font-family="Times,serif" font-size="14.00" fill="#000000">Holistic</text>
</a>
</g>
</g>
<!-- Component -->
<g id="node3" class="node">
<title>Component</title>
<g id="a_node3"><a xlink:href="http://emmo.info/emmo/middle/manufacturing#EMMO_494b372c_cfdf_47d3_a4de_5e037c540de8" xlink:title="Component">
<ellipse fill="#ffffcc" stroke="#000000" cx="143.6967" cy="-32.5" rx="51.9908" ry="18"/>
<text text-anchor="middle" x="143.6967" y="-28.8" font-family="Times,serif" font-size="14.00" fill="#000000">Component</text>
</a>
</g>
</g>
<!-- Component&#45;&gt;Engineered -->
<g id="edge1" class="edge">
<title>Component&#45;&gt;Engineered</title>
<path fill="none" stroke="#000000" d="M154.8855,-50.4229C162.5386,-62.682 172.8085,-79.1329 181.3712,-92.849"/>
<polygon fill="none" stroke="#000000" points="178.4423,-94.7668 186.7069,-101.3961 184.3803,-91.0598 178.4423,-94.7668"/>
</g>
<!-- System -->
<g id="node4" class="node">
<title>System</title>
<g id="a_node4"><a xlink:href="http://emmo.info/emmo/middle/manufacturing#EMMO_e775e341_5687_4d45_b50c_379b098a8c26" xlink:title="System">
<ellipse fill="#ffc880" stroke="#000000" cx="250.6967" cy="-32.5" rx="37.0935" ry="18"/>
<text text-anchor="middle" x="250.6967" y="-28.8" font-family="Times,serif" font-size="14.00" fill="#000000">System</text>
</a>
</g>
</g>
<!-- System&#45;&gt;Engineered -->
<g id="edge2" class="edge">
<title>System&#45;&gt;Engineered</title>
<path fill="none" stroke="#000000" d="M239.9713,-50.0046C232.478,-62.2343 222.3388,-78.7822 213.8685,-92.6063"/>
<polygon fill="none" stroke="#000000" points="210.8281,-90.8693 208.588,-101.2246 216.7968,-94.5264 210.8281,-90.8693"/>
</g>
<!-- Semiotic -->
<g id="node5" class="node">
<title>Semiotic</title>
<g id="a_node5"><a xlink:href="http://emmo.info/emmo/top/semiotics#EMMO_b803f122_4acb_4064_9d71_c1e5fd091fc9" xlink:title="Semiotic">
<ellipse fill="#ffc880" stroke="#000000" stroke-width="2" cx="86.6967" cy="-119" rx="42.4939" ry="18"/>
<text text-anchor="middle" x="86.6967" y="-115.3" font-family="Times,serif" font-size="14.00" fill="#000000">Semiotic</text>
</a>
</g>
</g>
<!-- Semiotic&#45;&gt;Participant -->
<g id="edge3" class="edge">
<title>Semiotic&#45;&gt;Participant</title>
<path fill="none" stroke="#000000" d="M100.0106,-136.4292C106.6496,-145.1203 114.8077,-155.7999 122.1412,-165.4002"/>
<polygon fill="none" stroke="#000000" points="119.4629,-167.6597 128.3147,-173.4818 125.0256,-163.4104 119.4629,-167.6597"/>
</g>
<!-- Participant&#45;&gt;Holistic -->
<g id="edge5" class="edge">
<title>Participant&#45;&gt;Holistic</title>
<path fill="none" stroke="#000000" d="M129.1089,-208.4292C122.7855,-217.1847 115.0046,-227.9582 108.0315,-237.6133"/>
<polygon fill="none" stroke="#000000" points="105.186,-235.5753 102.1685,-245.7313 110.8608,-239.6737 105.186,-235.5753"/>
</g>
<!-- Process -->
<g id="node7" class="node">
<title>Process</title>
<g id="a_node7"><a xlink:href="http://emmo.info/emmo/middle/holistic#EMMO_43e9a05d_98af_41b4_92f6_00f79a09bfce" xlink:title="Process">
<ellipse fill="#ffffcc" stroke="#000000" stroke-width="2" cx="37.6967" cy="-191" rx="37.8943" ry="18"/>
<text text-anchor="middle" x="37.6967" y="-187.3" font-family="Times,serif" font-size="14.00" fill="#000000">Process</text>
</a>
</g>
</g>
<!-- Participant&#45;&gt;Process -->
<g id="edge6" class="edge">
<title>Participant&#45;&gt;Process</title>
<path fill="none" stroke="#ff0000" d="M105.5944,-203.2382C96.3326,-204.7084 87.0709,-204.8938 77.8091,-203.7945"/>
<polygon fill="#ff0000" stroke="#ff0000" points="68.342,-198.6462 77.6195,-203.7625 67.1763,-205.5484 68.342,-198.6462"/>
</g>
<!-- Process&#45;&gt;Holistic -->
<g id="edge7" class="edge">
<title>Process&#45;&gt;Holistic</title>
<path fill="none" stroke="#000000" d="M50.0199,-208.063C56.3382,-216.8114 64.1629,-227.6455 71.1893,-237.3744"/>
<polygon fill="none" stroke="#000000" points="68.4083,-239.5017 77.1006,-245.5593 74.0831,-235.4033 68.4083,-239.5017"/>
</g>
<!-- Process&#45;&gt;Participant -->
<g id="edge8" class="edge">
<title>Process&#45;&gt;Participant</title>
<path fill="none" stroke="#ff0000" d="M67.7592,-179.9027C77.0209,-177.8739 86.2826,-177.1299 95.5444,-177.6707"/>
<polygon fill="#ff0000" stroke="#ff0000" points="95.275,-181.162 105.5944,-178.7618 96.0306,-174.2029 95.275,-181.162"/>
</g>
<!-- key1 -->
<g id="node8" class="node">
<title>key1</title>
<text text-anchor="start" x="374.6967" y="-47.3" font-family="Times,serif" font-size="14.00" fill="#000000">isA</text>
<text text-anchor="start" x="316.6967" y="-28.3" font-family="Times,serif" font-size="14.00" fill="#000000">hasParticipant</text>
<text text-anchor="start" x="353.6967" y="-9.3" font-family="Times,serif" font-size="14.00" fill="#000000">inverse</text>
</g>
<!-- key2 -->
<g id="node9" class="node">
<title>key2</title>
<text text-anchor="start" x="446.6967" y="-47.3" font-family="Times,serif" font-size="14.00" fill="#000000"> </text>
<text text-anchor="start" x="446.6967" y="-28.3" font-family="Times,serif" font-size="14.00" fill="#000000"> </text>
<text text-anchor="start" x="446.6967" y="-9.3" font-family="Times,serif" font-size="14.00" fill="#000000"> </text>
</g>
<!-- key1&#45;&gt;key2 -->
<g id="edge9" class="edge">
<title>key1:e&#45;&gt;key2:w</title>
<path fill="none" stroke="#000000" d="M395.6967,-13.5C413.5612,-13.5 420.4349,-13.5 434.3496,-13.5"/>
<polygon fill="#000000" stroke="#000000" points="444.6967,-17 434.6967,-13.5001 444.6966,-10 444.6967,-17"/>
</g>
<!-- key1&#45;&gt;key2 -->
<g id="edge10" class="edge">
<title>key1:e&#45;&gt;key2:w</title>
<path fill="none" stroke="#ff0000" d="M395.6967,-33.5C413.5612,-33.5 420.4349,-33.5 434.3496,-33.5"/>
<polygon fill="#ff0000" stroke="#ff0000" points="434.6967,-37.0001 444.6967,-33.5 434.6966,-30.0001 434.6967,-37.0001"/>
</g>
<!-- key1&#45;&gt;key2 -->
<g id="edge11" class="edge">
<title>key1:e&#45;&gt;key2:w</title>
<path fill="none" stroke="#000000" d="M395.6967,-52.5C413.5612,-52.5 420.4349,-52.5 434.3496,-52.5"/>
<polygon fill="none" stroke="#000000" points="434.6967,-56.0001 444.6967,-52.5 434.6966,-49.0001 434.6967,-56.0001"/>
</g>
</g>
</svg>
