<?xml version="1.0" encoding="UTF-8" standalone="no"?>
<!DOCTYPE svg PUBLIC "-//W3C//DTD SVG 1.1//EN"
 "http://www.w3.org/Graphics/SVG/1.1/DTD/svg11.dtd">
<!-- Generated by graphviz version 2.40.1 (20161225.0304)
 -->
<!-- Title: %3 Pages: 1 -->
<svg width="391pt" height="289pt"
 viewBox="0.00 0.00 391.05 289.00" xmlns="http://www.w3.org/2000/svg" xmlns:xlink="http://www.w3.org/1999/xlink">
<g id="graph0" class="graph" transform="scale(1 1) rotate(0) translate(4 285)">
<title>%3</title>
<polygon fill="#ffffff" stroke="transparent" points="-4,4 -4,-285 387.0467,-285 387.0467,4 -4,4"/>
<!-- System -->
<g id="node1" class="node">
<title>System</title>
<g id="a_node1"><a xlink:href="http://emmo.info/emmo/middle/manufacturing#EMMO_e775e341_5687_4d45_b50c_379b098a8c26" xlink:title="System">
<ellipse fill="#ffc880" stroke="#000000" cx="37.0467" cy="-32.5" rx="37.0935" ry="18"/>
<text text-anchor="middle" x="37.0467" y="-28.8" font-family="Times,serif" font-size="14.00" fill="#000000">System</text>
</a>
</g>
</g>
<!-- Engineered -->
<g id="node6" class="node">
<title>Engineered</title>
<g id="a_node6"><a xlink:href="http://emmo.info/emmo/middle/manufacturing#EMMO_86ca9b93_1183_4b65_81b8_c0fcd3bba5ad" xlink:title="Engineered">
<ellipse fill="#ffffcc" stroke="#000000" cx="90.0467" cy="-119" rx="50.8918" ry="18"/>
<text text-anchor="middle" x="90.0467" y="-115.3" font-family="Times,serif" font-size="14.00" fill="#000000">Engineered</text>
</a>
</g>
</g>
<!-- System&#45;&gt;Engineered -->
<g id="edge2" class="edge">
<title>System&#45;&gt;Engineered</title>
<path fill="none" stroke="#000000" d="M47.7721,-50.0046C55.2654,-62.2343 65.4046,-78.7822 73.8748,-92.6063"/>
<polygon fill="none" stroke="#000000" points="70.9465,-94.5264 79.1554,-101.2246 76.9153,-90.8693 70.9465,-94.5264"/>
</g>
<!-- Holistic -->
<g id="node2" class="node">
<title>Holistic</title>
<g id="a_node2"><a xlink:href="http://emmo.info/emmo/middle/holistic#EMMO_0277f24a_ea7f_4917_81b7_fb0406c8fc62" xlink:title="Holistic">
<ellipse fill="#ffc880" stroke="#000000" stroke-width="2" cx="197.0467" cy="-263" rx="38.1938" ry="18"/>
<text text-anchor="middle" x="197.0467" y="-259.3" font-family="Times,serif" font-size="14.00" fill="#000000">Holistic</text>
</a>
</g>
</g>
<!-- Semiotic -->
<g id="node3" class="node">
<title>Semiotic</title>
<g id="a_node3"><a xlink:href="http://emmo.info/emmo/top/semiotics#EMMO_b803f122_4acb_4064_9d71_c1e5fd091fc9" xlink:title="Semiotic">
<ellipse fill="#ffc880" stroke="#000000" stroke-width="2" cx="201.0467" cy="-119" rx="42.4939" ry="18"/>
<text text-anchor="middle" x="201.0467" y="-115.3" font-family="Times,serif" font-size="14.00" fill="#000000">Semiotic</text>
</a>
</g>
</g>
<!-- Participant -->
<g id="node7" class="node">
<title>Participant</title>
<g id="a_node7"><a xlink:href="http://emmo.info/emmo/middle/holistic#EMMO_49804605_c0fe_4538_abda_f70ba1dc8a5d" xlink:title="Participant">
<ellipse fill="#ffffcc" stroke="#000000" cx="145.0467" cy="-191" rx="48.9926" ry="18"/>
<text text-anchor="middle" x="145.0467" y="-187.3" font-family="Times,serif" font-size="14.00" fill="#000000">Participant</text>
</a>
</g>
</g>
<!-- Semiotic&#45;&gt;Participant -->
<g id="edge1" class="edge">
<title>Semiotic&#45;&gt;Participant</title>
<path fill="none" stroke="#000000" d="M187.4907,-136.4292C180.7309,-145.1203 172.4246,-155.7999 164.9577,-165.4002"/>
<polygon fill="none" stroke="#000000" points="162.0487,-163.4394 158.672,-173.4818 167.5742,-167.737 162.0487,-163.4394"/>
</g>
<!-- Component -->
<g id="node4" class="node">
<title>Component</title>
<g id="a_node4"><a xlink:href="http://emmo.info/emmo/middle/manufacturing#EMMO_494b372c_cfdf_47d3_a4de_5e037c540de8" xlink:title="Component">
<ellipse fill="#ffffcc" stroke="#000000" cx="144.0467" cy="-32.5" rx="51.9908" ry="18"/>
<text text-anchor="middle" x="144.0467" y="-28.8" font-family="Times,serif" font-size="14.00" fill="#000000">Component</text>
</a>
</g>
</g>
<!-- Component&#45;&gt;Engineered -->
<g id="edge6" class="edge">
<title>Component&#45;&gt;Engineered</title>
<path fill="none" stroke="#000000" d="M132.8579,-50.4229C125.2048,-62.682 114.9348,-79.1329 106.3722,-92.849"/>
<polygon fill="none" stroke="#000000" points="103.3631,-91.0598 101.0365,-101.3961 109.301,-94.7668 103.3631,-91.0598"/>
</g>
<!-- Process -->
<g id="node5" class="node">
<title>Process</title>
<g id="a_node5"><a xlink:href="http://emmo.info/emmo/middle/holistic#EMMO_43e9a05d_98af_41b4_92f6_00f79a09bfce" xlink:title="Process">
<ellipse fill="#ffffcc" stroke="#000000" stroke-width="2" cx="249.0467" cy="-191" rx="37.8943" ry="18"/>
<text text-anchor="middle" x="249.0467" y="-187.3" font-family="Times,serif" font-size="14.00" fill="#000000">Process</text>
</a>
</g>
</g>
<!-- Process&#45;&gt;Holistic -->
<g id="edge7" class="edge">
<title>Process&#45;&gt;Holistic</title>
<path fill="none" stroke="#000000" d="M236.7234,-208.063C230.4052,-216.8114 222.5805,-227.6455 215.5541,-237.3744"/>
<polygon fill="none" stroke="#000000" points="212.6603,-235.4033 209.6428,-245.5593 218.3351,-239.5017 212.6603,-235.4033"/>
</g>
<!-- Process&#45;&gt;Participant -->
<g id="edge8" class="edge">
<title>Process&#45;&gt;Participant</title>
<path fill="none" stroke="#ff0000" d="M219.1001,-179.9282C209.8232,-177.8853 200.5463,-177.1315 191.2694,-177.6666"/>
<polygon fill="#ff0000" stroke="#ff0000" points="190.7695,-174.2002 181.203,-178.7533 191.5209,-181.1597 190.7695,-174.2002"/>
</g>
<!-- Engineered&#45;&gt;Participant -->
<g id="edge3" class="edge">
<title>Engineered&#45;&gt;Participant</title>
<path fill="none" stroke="#000000" d="M103.3607,-136.4292C109.9997,-145.1203 118.1578,-155.7999 125.4913,-165.4002"/>
<polygon fill="none" stroke="#000000" points="122.8129,-167.6597 131.6647,-173.4818 128.3756,-163.4104 122.8129,-167.6597"/>
</g>
<!-- Participant&#45;&gt;Holistic -->
<g id="edge4" class="edge">
<title>Participant&#45;&gt;Holistic</title>
<path fill="none" stroke="#000000" d="M157.6345,-208.4292C163.9579,-217.1847 171.7388,-227.9582 178.7119,-237.6133"/>
<polygon fill="none" stroke="#000000" points="175.8826,-239.6737 184.5749,-245.7313 181.5573,-235.5753 175.8826,-239.6737"/>
</g>
<!-- Participant&#45;&gt;Process -->
<g id="edge5" class="edge">
<title>Participant&#45;&gt;Process</title>
<path fill="none" stroke="#ff0000" d="M181.203,-203.2467C190.4799,-204.7144 199.7567,-204.893 209.0336,-203.7826"/>
<polygon fill="#ff0000" stroke="#ff0000" points="219.6865,-205.5224 209.2414,-203.7474 218.5136,-198.6213 219.6865,-205.5224"/>
</g>
<!-- key1 -->
<g id="node8" class="node">
<title>key1</title>
<text text-anchor="start" x="282.0467" y="-47.3" font-family="Times,serif" font-size="14.00" fill="#000000">isA</text>
<text text-anchor="start" x="224.0467" y="-28.3" font-family="Times,serif" font-size="14.00" fill="#000000">hasParticipant</text>
<text text-anchor="start" x="261.0467" y="-9.3" font-family="Times,serif" font-size="14.00" fill="#000000">inverse</text>
</g>
<!-- key2 -->
<g id="node9" class="node">
<title>key2</title>
<text text-anchor="start" x="354.0467" y="-47.3" font-family="Times,serif" font-size="14.00" fill="#000000"> </text>
<text text-anchor="start" x="354.0467" y="-28.3" font-family="Times,serif" font-size="14.00" fill="#000000"> </text>
<text text-anchor="start" x="354.0467" y="-9.3" font-family="Times,serif" font-size="14.00" fill="#000000"> </text>
</g>
<!-- key1&#45;&gt;key2 -->
<g id="edge9" class="edge">
<title>key1:e&#45;&gt;key2:w</title>
<path fill="none" stroke="#000000" d="M303.0467,-13.5C320.9113,-13.5 327.785,-13.5 341.6997,-13.5"/>
<polygon fill="#000000" stroke="#000000" points="352.0467,-17 342.0467,-13.5001 352.0467,-10 352.0467,-17"/>
</g>
<!-- key1&#45;&gt;key2 -->
<g id="edge10" class="edge">
<title>key1:e&#45;&gt;key2:w</title>
<path fill="none" stroke="#ff0000" d="M303.0467,-33.5C320.9113,-33.5 327.785,-33.5 341.6997,-33.5"/>
<polygon fill="#ff0000" stroke="#ff0000" points="342.0467,-37.0001 352.0467,-33.5 342.0467,-30.0001 342.0467,-37.0001"/>
</g>
<!-- key1&#45;&gt;key2 -->
<g id="edge11" class="edge">
<title>key1:e&#45;&gt;key2:w</title>
<path fill="none" stroke="#000000" d="M303.0467,-52.5C320.9113,-52.5 327.785,-52.5 341.6997,-52.5"/>
<polygon fill="none" stroke="#000000" points="342.0467,-56.0001 352.0467,-52.5 342.0467,-49.0001 342.0467,-56.0001"/>
</g>
</g>
</svg>
