<?xml version="1.0" encoding="UTF-8" standalone="no"?>
<!DOCTYPE svg PUBLIC "-//W3C//DTD SVG 1.1//EN"
 "http://www.w3.org/Graphics/SVG/1.1/DTD/svg11.dtd">
<!-- Generated by graphviz version 2.40.1 (20161225.0304)
 -->
<!-- Title: %3 Pages: 1 -->
<svg width="453pt" height="289pt"
 viewBox="0.00 0.00 453.25 289.00" xmlns="http://www.w3.org/2000/svg" xmlns:xlink="http://www.w3.org/1999/xlink">
<g id="graph0" class="graph" transform="scale(1 1) rotate(0) translate(4 285)">
<title>%3</title>
<polygon fill="#ffffff" stroke="transparent" points="-4,4 -4,-285 449.2463,-285 449.2463,4 -4,4"/>
<!-- Semiotic -->
<g id="node1" class="node">
<title>Semiotic</title>
<g id="a_node1"><a xlink:href="http://emmo.info/emmo/top/semiotics#EMMO_b803f122_4acb_4064_9d71_c1e5fd091fc9" xlink:title="Semiotic">
<ellipse fill="#ffc880" stroke="#000000" stroke-width="2" cx="42.2463" cy="-119" rx="42.4939" ry="18"/>
<text text-anchor="middle" x="42.2463" y="-115.3" font-family="Times,serif" font-size="14.00" fill="#000000">Semiotic</text>
</a>
</g>
</g>
<!-- Participant -->
<g id="node4" class="node">
<title>Participant</title>
<g id="a_node4"><a xlink:href="http://emmo.info/emmo/middle/holistic#EMMO_49804605_c0fe_4538_abda_f70ba1dc8a5d" xlink:title="Participant">
<ellipse fill="#ffffcc" stroke="#000000" cx="97.2463" cy="-191" rx="48.9926" ry="18"/>
<text text-anchor="middle" x="97.2463" y="-187.3" font-family="Times,serif" font-size="14.00" fill="#000000">Participant</text>
</a>
</g>
</g>
<!-- Semiotic&#45;&gt;Participant -->
<g id="edge3" class="edge">
<title>Semiotic&#45;&gt;Participant</title>
<path fill="none" stroke="#000000" d="M55.5602,-136.4292C62.1992,-145.1203 70.3573,-155.7999 77.6908,-165.4002"/>
<polygon fill="none" stroke="#000000" points="75.0125,-167.6597 83.8643,-173.4818 80.5752,-163.4104 75.0125,-167.6597"/>
</g>
<!-- System -->
<g id="node2" class="node">
<title>System</title>
<g id="a_node2"><a xlink:href="http://emmo.info/emmo/middle/manufacturing#EMMO_e775e341_5687_4d45_b50c_379b098a8c26" xlink:title="System">
<ellipse fill="#ffc880" stroke="#000000" cx="99.2463" cy="-32.5" rx="37.0935" ry="18"/>
<text text-anchor="middle" x="99.2463" y="-28.8" font-family="Times,serif" font-size="14.00" fill="#000000">System</text>
</a>
</g>
</g>
<!-- Engineered -->
<g id="node7" class="node">
<title>Engineered</title>
<g id="a_node7"><a xlink:href="http://emmo.info/emmo/middle/manufacturing#EMMO_86ca9b93_1183_4b65_81b8_c0fcd3bba5ad" xlink:title="Engineered">
<ellipse fill="#ffffcc" stroke="#000000" cx="153.2463" cy="-119" rx="50.8918" ry="18"/>
<text text-anchor="middle" x="153.2463" y="-115.3" font-family="Times,serif" font-size="14.00" fill="#000000">Engineered</text>
</a>
</g>
</g>
<!-- System&#45;&gt;Engineered -->
<g id="edge7" class="edge">
<title>System&#45;&gt;Engineered</title>
<path fill="none" stroke="#000000" d="M110.174,-50.0046C117.8087,-62.2343 128.1392,-78.7822 136.7692,-92.6063"/>
<polygon fill="none" stroke="#000000" points="133.8849,-94.5953 142.1495,-101.2246 139.8228,-90.8884 133.8849,-94.5953"/>
</g>
<!-- Process -->
<g id="node3" class="node">
<title>Process</title>
<g id="a_node3"><a xlink:href="http://emmo.info/emmo/middle/holistic#EMMO_43e9a05d_98af_41b4_92f6_00f79a09bfce" xlink:title="Process">
<ellipse fill="#ffffcc" stroke="#000000" stroke-width="2" cx="201.2463" cy="-191" rx="37.8943" ry="18"/>
<text text-anchor="middle" x="201.2463" y="-187.3" font-family="Times,serif" font-size="14.00" fill="#000000">Process</text>
</a>
</g>
</g>
<!-- Process&#45;&gt;Participant -->
<g id="edge2" class="edge">
<title>Process&#45;&gt;Participant</title>
<path fill="none" stroke="#ff0000" d="M171.2996,-202.0718C162.0227,-204.1147 152.7458,-204.8685 143.4689,-204.3334"/>
<polygon fill="#ff0000" stroke="#ff0000" points="143.7204,-200.8403 133.4025,-203.2467 142.9691,-207.7998 143.7204,-200.8403"/>
</g>
<!-- Holistic -->
<g id="node5" class="node">
<title>Holistic</title>
<g id="a_node5"><a xlink:href="http://emmo.info/emmo/middle/holistic#EMMO_0277f24a_ea7f_4917_81b7_fb0406c8fc62" xlink:title="Holistic">
<ellipse fill="#ffc880" stroke="#000000" stroke-width="2" cx="149.2463" cy="-263" rx="38.1938" ry="18"/>
<text text-anchor="middle" x="149.2463" y="-259.3" font-family="Times,serif" font-size="14.00" fill="#000000">Holistic</text>
</a>
</g>
</g>
<!-- Process&#45;&gt;Holistic -->
<g id="edge1" class="edge">
<title>Process&#45;&gt;Holistic</title>
<path fill="none" stroke="#000000" d="M188.923,-208.063C182.6047,-216.8114 174.78,-227.6455 167.7536,-237.3744"/>
<polygon fill="none" stroke="#000000" points="164.8599,-235.4033 161.8423,-245.5593 170.5346,-239.5017 164.8599,-235.4033"/>
</g>
<!-- Participant&#45;&gt;Process -->
<g id="edge5" class="edge">
<title>Participant&#45;&gt;Process</title>
<path fill="none" stroke="#ff0000" d="M133.4025,-178.7533C142.6794,-177.2856 151.9563,-177.107 161.2332,-178.2174"/>
<polygon fill="#ff0000" stroke="#ff0000" points="170.7132,-183.3787 161.441,-178.2526 171.886,-176.4776 170.7132,-183.3787"/>
</g>
<!-- Participant&#45;&gt;Holistic -->
<g id="edge4" class="edge">
<title>Participant&#45;&gt;Holistic</title>
<path fill="none" stroke="#000000" d="M109.834,-208.4292C116.1574,-217.1847 123.9383,-227.9582 130.9114,-237.6133"/>
<polygon fill="none" stroke="#000000" points="128.0821,-239.6737 136.7744,-245.7313 133.7569,-235.5753 128.0821,-239.6737"/>
</g>
<!-- Component -->
<g id="node6" class="node">
<title>Component</title>
<g id="a_node6"><a xlink:href="http://emmo.info/emmo/middle/manufacturing#EMMO_494b372c_cfdf_47d3_a4de_5e037c540de8" xlink:title="Component">
<ellipse fill="#ffffcc" stroke="#000000" cx="206.2463" cy="-32.5" rx="51.9908" ry="18"/>
<text text-anchor="middle" x="206.2463" y="-28.8" font-family="Times,serif" font-size="14.00" fill="#000000">Component</text>
</a>
</g>
</g>
<!-- Component&#45;&gt;Engineered -->
<g id="edge6" class="edge">
<title>Component&#45;&gt;Engineered</title>
<path fill="none" stroke="#000000" d="M195.2646,-50.4229C187.7532,-62.682 177.6735,-79.1329 169.2694,-92.849"/>
<polygon fill="none" stroke="#000000" points="166.2726,-91.0407 164.0325,-101.3961 172.2413,-94.6979 166.2726,-91.0407"/>
</g>
<!-- Engineered&#45;&gt;Participant -->
<g id="edge8" class="edge">
<title>Engineered&#45;&gt;Participant</title>
<path fill="none" stroke="#000000" d="M139.6902,-136.4292C132.9305,-145.1203 124.6241,-155.7999 117.1572,-165.4002"/>
<polygon fill="none" stroke="#000000" points="114.2483,-163.4394 110.8715,-173.4818 119.7737,-167.737 114.2483,-163.4394"/>
</g>
<!-- key1 -->
<g id="node8" class="node">
<title>key1</title>
<text text-anchor="start" x="344.2463" y="-47.3" font-family="Times,serif" font-size="14.00" fill="#000000">isA</text>
<text text-anchor="start" x="286.2463" y="-28.3" font-family="Times,serif" font-size="14.00" fill="#000000">hasParticipant</text>
<text text-anchor="start" x="323.2463" y="-9.3" font-family="Times,serif" font-size="14.00" fill="#000000">inverse</text>
</g>
<!-- key2 -->
<g id="node9" class="node">
<title>key2</title>
<text text-anchor="start" x="416.2463" y="-47.3" font-family="Times,serif" font-size="14.00" fill="#000000"> </text>
<text text-anchor="start" x="416.2463" y="-28.3" font-family="Times,serif" font-size="14.00" fill="#000000"> </text>
<text text-anchor="start" x="416.2463" y="-9.3" font-family="Times,serif" font-size="14.00" fill="#000000"> </text>
</g>
<!-- key1&#45;&gt;key2 -->
<g id="edge9" class="edge">
<title>key1:e&#45;&gt;key2:w</title>
<path fill="none" stroke="#000000" d="M365.2463,-13.5C383.1108,-13.5 389.9845,-13.5 403.8992,-13.5"/>
<polygon fill="#000000" stroke="#000000" points="414.2463,-17 404.2463,-13.5001 414.2462,-10 414.2463,-17"/>
</g>
<!-- key1&#45;&gt;key2 -->
<g id="edge10" class="edge">
<title>key1:e&#45;&gt;key2:w</title>
<path fill="none" stroke="#ff0000" d="M365.2463,-33.5C383.1108,-33.5 389.9845,-33.5 403.8992,-33.5"/>
<polygon fill="#ff0000" stroke="#ff0000" points="404.2463,-37.0001 414.2463,-33.5 404.2462,-30.0001 404.2463,-37.0001"/>
</g>
<!-- key1&#45;&gt;key2 -->
<g id="edge11" class="edge">
<title>key1:e&#45;&gt;key2:w</title>
<path fill="none" stroke="#000000" d="M365.2463,-52.5C383.1108,-52.5 389.9845,-52.5 403.8992,-52.5"/>
<polygon fill="none" stroke="#000000" points="404.2463,-56.0001 414.2463,-52.5 404.2462,-49.0001 404.2463,-56.0001"/>
</g>
</g>
</svg>
