<?xml version="1.0" encoding="UTF-8" standalone="no"?>
<!DOCTYPE svg PUBLIC "-//W3C//DTD SVG 1.1//EN"
 "http://www.w3.org/Graphics/SVG/1.1/DTD/svg11.dtd">
<!-- Generated by graphviz version 2.40.1 (20161225.0304)
 -->
<!-- Title: %3 Pages: 1 -->
<svg width="391pt" height="289pt"
 viewBox="0.00 0.00 391.05 289.00" xmlns="http://www.w3.org/2000/svg" xmlns:xlink="http://www.w3.org/1999/xlink">
<g id="graph0" class="graph" transform="scale(1 1) rotate(0) translate(4 285)">
<title>%3</title>
<polygon fill="#ffffff" stroke="transparent" points="-4,4 -4,-285 387.0467,-285 387.0467,4 -4,4"/>
<!-- Participant -->
<g id="node1" class="node">
<title>Participant</title>
<g id="a_node1"><a xlink:href="http://emmo.info/emmo/middle/holistic#EMMO_49804605_c0fe_4538_abda_f70ba1dc8a5d" xlink:title="Participant">
<ellipse fill="#ffffcc" stroke="#000000" cx="146.0467" cy="-191" rx="48.9926" ry="18"/>
<text text-anchor="middle" x="146.0467" y="-187.3" font-family="Times,serif" font-size="14.00" fill="#000000">Participant</text>
</a>
</g>
</g>
<!-- Process -->
<g id="node3" class="node">
<title>Process</title>
<g id="a_node3"><a xlink:href="http://emmo.info/emmo/middle/holistic#EMMO_43e9a05d_98af_41b4_92f6_00f79a09bfce" xlink:title="Process">
<ellipse fill="#ffffcc" stroke="#000000" stroke-width="2" cx="42.0467" cy="-191" rx="37.8943" ry="18"/>
<text text-anchor="middle" x="42.0467" y="-187.3" font-family="Times,serif" font-size="14.00" fill="#000000">Process</text>
</a>
</g>
</g>
<!-- Participant&#45;&gt;Process -->
<g id="edge6" class="edge">
<title>Participant&#45;&gt;Process</title>
<path fill="none" stroke="#ff0000" d="M109.9444,-178.7618C100.6827,-177.2916 91.4209,-177.1062 82.1592,-178.2055"/>
<polygon fill="#ff0000" stroke="#ff0000" points="71.5264,-176.4516 81.9696,-178.2375 72.6921,-183.3538 71.5264,-176.4516"/>
</g>
<!-- Holistic -->
<g id="node4" class="node">
<title>Holistic</title>
<g id="a_node4"><a xlink:href="http://emmo.info/emmo/middle/holistic#EMMO_0277f24a_ea7f_4917_81b7_fb0406c8fc62" xlink:title="Holistic">
<ellipse fill="#ffc880" stroke="#000000" stroke-width="2" cx="94.0467" cy="-263" rx="38.1938" ry="18"/>
<text text-anchor="middle" x="94.0467" y="-259.3" font-family="Times,serif" font-size="14.00" fill="#000000">Holistic</text>
</a>
</g>
</g>
<!-- Participant&#45;&gt;Holistic -->
<g id="edge5" class="edge">
<title>Participant&#45;&gt;Holistic</title>
<path fill="none" stroke="#000000" d="M133.459,-208.4292C127.1356,-217.1847 119.3547,-227.9582 112.3815,-237.6133"/>
<polygon fill="none" stroke="#000000" points="109.5361,-235.5753 106.5185,-245.7313 115.2109,-239.6737 109.5361,-235.5753"/>
</g>
<!-- System -->
<g id="node2" class="node">
<title>System</title>
<g id="a_node2"><a xlink:href="http://emmo.info/emmo/middle/manufacturing#EMMO_e775e341_5687_4d45_b50c_379b098a8c26" xlink:title="System">
<ellipse fill="#ffc880" stroke="#000000" cx="37.0467" cy="-32.5" rx="37.0935" ry="18"/>
<text text-anchor="middle" x="37.0467" y="-28.8" font-family="Times,serif" font-size="14.00" fill="#000000">System</text>
</a>
</g>
</g>
<!-- Engineered -->
<g id="node6" class="node">
<title>Engineered</title>
<g id="a_node6"><a xlink:href="http://emmo.info/emmo/middle/manufacturing#EMMO_86ca9b93_1183_4b65_81b8_c0fcd3bba5ad" xlink:title="Engineered">
<ellipse fill="#ffffcc" stroke="#000000" cx="90.0467" cy="-119" rx="50.8918" ry="18"/>
<text text-anchor="middle" x="90.0467" y="-115.3" font-family="Times,serif" font-size="14.00" fill="#000000">Engineered</text>
</a>
</g>
</g>
<!-- System&#45;&gt;Engineered -->
<g id="edge8" class="edge">
<title>System&#45;&gt;Engineered</title>
<path fill="none" stroke="#000000" d="M47.7721,-50.0046C55.2654,-62.2343 65.4046,-78.7822 73.8748,-92.6063"/>
<polygon fill="none" stroke="#000000" points="70.9465,-94.5264 79.1554,-101.2246 76.9153,-90.8693 70.9465,-94.5264"/>
</g>
<!-- Process&#45;&gt;Participant -->
<g id="edge3" class="edge">
<title>Process&#45;&gt;Participant</title>
<path fill="none" stroke="#ff0000" d="M72.1092,-202.0973C81.371,-204.1261 90.6327,-204.8701 99.8944,-204.3293"/>
<polygon fill="#ff0000" stroke="#ff0000" points="100.3806,-207.7971 109.9444,-203.2382 99.625,-200.838 100.3806,-207.7971"/>
</g>
<!-- Process&#45;&gt;Holistic -->
<g id="edge2" class="edge">
<title>Process&#45;&gt;Holistic</title>
<path fill="none" stroke="#000000" d="M54.37,-208.063C60.6883,-216.8114 68.5129,-227.6455 75.5393,-237.3744"/>
<polygon fill="none" stroke="#000000" points="72.7583,-239.5017 81.4507,-245.5593 78.4331,-235.4033 72.7583,-239.5017"/>
</g>
<!-- Component -->
<g id="node5" class="node">
<title>Component</title>
<g id="a_node5"><a xlink:href="http://emmo.info/emmo/middle/manufacturing#EMMO_494b372c_cfdf_47d3_a4de_5e037c540de8" xlink:title="Component">
<ellipse fill="#ffffcc" stroke="#000000" cx="144.0467" cy="-32.5" rx="51.9908" ry="18"/>
<text text-anchor="middle" x="144.0467" y="-28.8" font-family="Times,serif" font-size="14.00" fill="#000000">Component</text>
</a>
</g>
</g>
<!-- Component&#45;&gt;Engineered -->
<g id="edge1" class="edge">
<title>Component&#45;&gt;Engineered</title>
<path fill="none" stroke="#000000" d="M132.8579,-50.4229C125.2048,-62.682 114.9348,-79.1329 106.3722,-92.849"/>
<polygon fill="none" stroke="#000000" points="103.3631,-91.0598 101.0365,-101.3961 109.301,-94.7668 103.3631,-91.0598"/>
</g>
<!-- Engineered&#45;&gt;Participant -->
<g id="edge7" class="edge">
<title>Engineered&#45;&gt;Participant</title>
<path fill="none" stroke="#000000" d="M103.6028,-136.4292C110.3625,-145.1203 118.6689,-155.7999 126.1357,-165.4002"/>
<polygon fill="none" stroke="#000000" points="123.5192,-167.737 132.4214,-173.4818 129.0447,-163.4394 123.5192,-167.737"/>
</g>
<!-- Semiotic -->
<g id="node7" class="node">
<title>Semiotic</title>
<g id="a_node7"><a xlink:href="http://emmo.info/emmo/top/semiotics#EMMO_b803f122_4acb_4064_9d71_c1e5fd091fc9" xlink:title="Semiotic">
<ellipse fill="#ffc880" stroke="#000000" stroke-width="2" cx="201.0467" cy="-119" rx="42.4939" ry="18"/>
<text text-anchor="middle" x="201.0467" y="-115.3" font-family="Times,serif" font-size="14.00" fill="#000000">Semiotic</text>
</a>
</g>
</g>
<!-- Semiotic&#45;&gt;Participant -->
<g id="edge4" class="edge">
<title>Semiotic&#45;&gt;Participant</title>
<path fill="none" stroke="#000000" d="M187.7327,-136.4292C181.0937,-145.1203 172.9357,-155.7999 165.6021,-165.4002"/>
<polygon fill="none" stroke="#000000" points="162.7178,-163.4104 159.4287,-173.4818 168.2805,-167.6597 162.7178,-163.4104"/>
</g>
<!-- key1 -->
<g id="node8" class="node">
<title>key1</title>
<text text-anchor="start" x="282.0467" y="-47.3" font-family="Times,serif" font-size="14.00" fill="#000000">isA</text>
<text text-anchor="start" x="224.0467" y="-28.3" font-family="Times,serif" font-size="14.00" fill="#000000">hasParticipant</text>
<text text-anchor="start" x="261.0467" y="-9.3" font-family="Times,serif" font-size="14.00" fill="#000000">inverse</text>
</g>
<!-- key2 -->
<g id="node9" class="node">
<title>key2</title>
<text text-anchor="start" x="354.0467" y="-47.3" font-family="Times,serif" font-size="14.00" fill="#000000"> </text>
<text text-anchor="start" x="354.0467" y="-28.3" font-family="Times,serif" font-size="14.00" fill="#000000"> </text>
<text text-anchor="start" x="354.0467" y="-9.3" font-family="Times,serif" font-size="14.00" fill="#000000"> </text>
</g>
<!-- key1&#45;&gt;key2 -->
<g id="edge9" class="edge">
<title>key1:e&#45;&gt;key2:w</title>
<path fill="none" stroke="#000000" d="M303.0467,-13.5C320.9113,-13.5 327.785,-13.5 341.6997,-13.5"/>
<polygon fill="#000000" stroke="#000000" points="352.0467,-17 342.0467,-13.5001 352.0467,-10 352.0467,-17"/>
</g>
<!-- key1&#45;&gt;key2 -->
<g id="edge10" class="edge">
<title>key1:e&#45;&gt;key2:w</title>
<path fill="none" stroke="#ff0000" d="M303.0467,-33.5C320.9113,-33.5 327.785,-33.5 341.6997,-33.5"/>
<polygon fill="#ff0000" stroke="#ff0000" points="342.0467,-37.0001 352.0467,-33.5 342.0467,-30.0001 342.0467,-37.0001"/>
</g>
<!-- key1&#45;&gt;key2 -->
<g id="edge11" class="edge">
<title>key1:e&#45;&gt;key2:w</title>
<path fill="none" stroke="#000000" d="M303.0467,-52.5C320.9113,-52.5 327.785,-52.5 341.6997,-52.5"/>
<polygon fill="none" stroke="#000000" points="342.0467,-56.0001 352.0467,-52.5 342.0467,-49.0001 342.0467,-56.0001"/>
</g>
</g>
</svg>
