<?xml version="1.0" encoding="UTF-8" standalone="no"?>
<!DOCTYPE svg PUBLIC "-//W3C//DTD SVG 1.1//EN"
 "http://www.w3.org/Graphics/SVG/1.1/DTD/svg11.dtd">
<!-- Generated by graphviz version 2.40.1 (20161225.0304)
 -->
<!-- Title: %3 Pages: 1 -->
<svg width="348pt" height="188pt"
 viewBox="0.00 0.00 348.14 188.00" xmlns="http://www.w3.org/2000/svg" xmlns:xlink="http://www.w3.org/1999/xlink">
<g id="graph0" class="graph" transform="scale(1 1) rotate(0) translate(4 184)">
<title>%3</title>
<polygon fill="#ffffff" stroke="transparent" points="-4,4 -4,-184 344.1413,-184 344.1413,4 -4,4"/>
<!-- MeasurementInstrument -->
<g id="node1" class="node">
<title>MeasurementInstrument</title>
<g id="a_node1"><a xlink:href="http://emmo.info/emmo/middle/properties#EMMO_f2d5d3ad_2e00_417f_8849_686f3988d929" xlink:title="MeasurementInstrument">
<ellipse fill="#ffffcc" stroke="#000000" cx="98.1413" cy="-18" rx="98.2828" ry="18"/>
<text text-anchor="middle" x="98.1413" y="-14.3" font-family="Times,serif" font-size="14.00" fill="#000000">MeasurementInstrument</text>
</a>
</g>
</g>
<!-- Observer -->
<g id="node2" class="node">
<title>Observer</title>
<g id="a_node2"><a xlink:href="http://emmo.info/emmo/middle/properties#EMMO_1b52ee70_121e_4d8d_8419_3f97cd0bd89c" xlink:title="Observer">
<ellipse fill="#ffffcc" stroke="#000000" cx="98.1413" cy="-90" rx="42.7926" ry="18"/>
<text text-anchor="middle" x="98.1413" y="-86.3" font-family="Times,serif" font-size="14.00" fill="#000000">Observer</text>
</a>
</g>
</g>
<!-- MeasurementInstrument&#45;&gt;Observer -->
<g id="edge1" class="edge">
<title>MeasurementInstrument&#45;&gt;Observer</title>
<path fill="none" stroke="#000000" d="M98.1413,-36.1686C98.1413,-43.869 98.1413,-53.0257 98.1413,-61.5834"/>
<polygon fill="none" stroke="#000000" points="94.6414,-61.5867 98.1413,-71.5867 101.6414,-61.5868 94.6414,-61.5867"/>
</g>
<!-- Interpreter -->
<g id="node3" class="node">
<title>Interpreter</title>
<g id="a_node3"><a xlink:href="http://emmo.info/emmo/top/semiotics#EMMO_0527413c_b286_4e9c_b2d0_03fb2a038dee" xlink:title="Interpreter">
<ellipse fill="#ffffcc" stroke="#000000" stroke-width="2" cx="98.1413" cy="-162" rx="48.1917" ry="18"/>
<text text-anchor="middle" x="98.1413" y="-158.3" font-family="Times,serif" font-size="14.00" fill="#000000">Interpreter</text>
</a>
</g>
</g>
<!-- Observer&#45;&gt;Interpreter -->
<g id="edge2" class="edge">
<title>Observer&#45;&gt;Interpreter</title>
<path fill="none" stroke="#000000" d="M98.1413,-108.1686C98.1413,-115.869 98.1413,-125.0257 98.1413,-133.5834"/>
<polygon fill="none" stroke="#000000" points="94.6414,-133.5867 98.1413,-143.5867 101.6414,-133.5868 94.6414,-133.5867"/>
</g>
<!-- key1 -->
<g id="node4" class="node">
<title>key1</title>
<text text-anchor="start" x="232.1413" y="-13.8" font-family="Times,serif" font-size="14.00" fill="#000000">isA</text>
</g>
<!-- key2 -->
<g id="node5" class="node">
<title>key2</title>
<text text-anchor="start" x="311.1413" y="-13.8" font-family="Times,serif" font-size="14.00" fill="#000000"> </text>
</g>
<!-- key1&#45;&gt;key2 -->
<g id="edge3" class="edge">
<title>key1:e&#45;&gt;key2:w</title>
<path fill="none" stroke="#000000" d="M253.1413,-19C274.1413,-19 281.8522,-19 298.6994,-19"/>
<polygon fill="none" stroke="#000000" points="299.1413,-22.5001 309.1413,-19 299.1413,-15.5001 299.1413,-22.5001"/>
</g>
</g>
</svg>
