<?xml version="1.0" encoding="UTF-8" standalone="no"?>
<!DOCTYPE svg PUBLIC "-//W3C//DTD SVG 1.1//EN"
 "http://www.w3.org/Graphics/SVG/1.1/DTD/svg11.dtd">
<!-- Generated by graphviz version 2.40.1 (20161225.0304)
 -->
<!-- Title: %3 Pages: 1 -->
<svg width="533pt" height="305pt"
 viewBox="0.00 0.00 533.09 305.00" xmlns="http://www.w3.org/2000/svg" xmlns:xlink="http://www.w3.org/1999/xlink">
<g id="graph0" class="graph" transform="scale(1 1) rotate(0) translate(4 301)">
<title>%3</title>
<polygon fill="#ffffff" stroke="transparent" points="-4,4 -4,-301 529.0923,-301 529.0923,4 -4,4"/>
<!-- NeutralAtom -->
<g id="node1" class="node">
<title>NeutralAtom</title>
<g id="a_node1"><a xlink:href="http://emmo.info/emmo/middle/materials#EMMO_4588526f_8553_4f4d_aa73_a483e88d599b" xlink:title="NeutralAtom">
<ellipse fill="#ffffcc" stroke="#000000" cx="57.8449" cy="-18" rx="57.6901" ry="18"/>
<text text-anchor="middle" x="57.8449" y="-14.3" font-family="Times,serif" font-size="14.00" fill="#000000">NeutralAtom</text>
</a>
</g>
</g>
<!-- StandaloneAtom -->
<g id="node3" class="node">
<title>StandaloneAtom</title>
<g id="a_node3"><a xlink:href="http://emmo.info/emmo/middle/materials#EMMO_2fd3f574_5e93_47fe_afca_ed80b0a21ab4" xlink:title="StandaloneAtom">
<ellipse fill="#ffffcc" stroke="#000000" cx="116.8449" cy="-105" rx="70.3881" ry="18"/>
<text text-anchor="middle" x="116.8449" y="-101.3" font-family="Times,serif" font-size="14.00" fill="#000000">StandaloneAtom</text>
</a>
</g>
</g>
<!-- NeutralAtom&#45;&gt;StandaloneAtom -->
<g id="edge8" class="edge">
<title>NeutralAtom&#45;&gt;StandaloneAtom</title>
<path fill="none" stroke="#000000" d="M70.0697,-36.0265C78.3761,-48.2748 89.5038,-64.6835 98.8217,-78.4234"/>
<polygon fill="none" stroke="#000000" points="96.1262,-80.6847 104.6357,-86.9966 101.9197,-76.7558 96.1262,-80.6847"/>
<text text-anchor="middle" x="101.3449" y="-57.8" font-family="Times,serif" font-size="14.00" fill="#000000">isA</text>
</g>
<!-- BondedAtom -->
<g id="node2" class="node">
<title>BondedAtom</title>
<g id="a_node2"><a xlink:href="http://emmo.info/emmo/middle/materials#EMMO_8303a247_f9d9_4616_bdcd_f5cbd7b298e3" xlink:title="BondedAtom">
<ellipse fill="#ffffcc" stroke="#000000" cx="263.8449" cy="-105" rx="58.4896" ry="18"/>
<text text-anchor="middle" x="263.8449" y="-101.3" font-family="Times,serif" font-size="14.00" fill="#000000">BondedAtom</text>
</a>
</g>
</g>
<!-- Atom -->
<g id="node4" class="node">
<title>Atom</title>
<g id="a_node4"><a xlink:href="http://emmo.info/emmo/middle/materials#EMMO_eb77076b_a104_42ac_a065_798b2d2809ad" xlink:title="Atom">
<ellipse fill="#ffffcc" stroke="#000000" cx="147.8449" cy="-192" rx="31.3957" ry="18"/>
<text text-anchor="middle" x="147.8449" y="-188.3" font-family="Times,serif" font-size="14.00" fill="#000000">Atom</text>
</a>
</g>
</g>
<!-- BondedAtom&#45;&gt;Atom -->
<g id="edge6" class="edge">
<title>BondedAtom&#45;&gt;Atom</title>
<path fill="none" stroke="#000000" d="M241.4789,-121.7745C222.5838,-135.9458 195.4509,-156.2955 175.2526,-171.4442"/>
<polygon fill="none" stroke="#000000" points="172.965,-168.7849 167.065,-177.5849 177.165,-174.3849 172.965,-168.7849"/>
<text text-anchor="middle" x="221.3449" y="-144.8" font-family="Times,serif" font-size="14.00" fill="#000000">isA</text>
</g>
<!-- StandaloneAtom&#45;&gt;Atom -->
<g id="edge3" class="edge">
<title>StandaloneAtom&#45;&gt;Atom</title>
<path fill="none" stroke="#000000" d="M123.2681,-123.0265C127.536,-135.0042 133.2216,-150.9604 138.0492,-164.5088"/>
<polygon fill="none" stroke="#000000" points="134.8824,-166.0492 141.5359,-174.2943 141.4763,-163.6996 134.8824,-166.0492"/>
<text text-anchor="middle" x="143.3449" y="-144.8" font-family="Times,serif" font-size="14.00" fill="#000000">isA</text>
</g>
<!-- MaterialState -->
<g id="node11" class="node">
<title>MaterialState</title>
<g id="a_node11"><a xlink:href="http://emmo.info/emmo/middle/materials#EMMO_20fff605_465f_4034_8696_e53e90ec83f4" xlink:title="MaterialState">
<ellipse fill="#ffc880" stroke="#000000" stroke-width="2" cx="295.8449" cy="-279" rx="58.4896" ry="18"/>
<text text-anchor="middle" x="295.8449" y="-275.3" font-family="Times,serif" font-size="14.00" fill="#000000">MaterialState</text>
</a>
</g>
</g>
<!-- Atom&#45;&gt;MaterialState -->
<g id="edge2" class="edge">
<title>Atom&#45;&gt;MaterialState</title>
<path fill="none" stroke="#000000" d="M170.002,-205.0248C193.723,-218.9689 231.7268,-241.309 259.7712,-257.7946"/>
<polygon fill="none" stroke="#000000" points="258.1013,-260.8728 268.4959,-262.9232 261.6487,-254.8382 258.1013,-260.8728"/>
<text text-anchor="middle" x="239.3449" y="-231.8" font-family="Times,serif" font-size="14.00" fill="#000000">isA</text>
</g>
<!-- Solid -->
<g id="node5" class="node">
<title>Solid</title>
<g id="a_node5"><a xlink:href="http://emmo.info/emmo/middle/materials#EMMO_a2b006f2_bbfd_4dba_bcaa_3fca20cd6be1" xlink:title="Solid">
<ellipse fill="#ffffcc" stroke="#000000" cx="419.8449" cy="-105" rx="29.4969" ry="18"/>
<text text-anchor="middle" x="419.8449" y="-101.3" font-family="Times,serif" font-size="14.00" fill="#000000">Solid</text>
</a>
</g>
</g>
<!-- Continuum -->
<g id="node10" class="node">
<title>Continuum</title>
<g id="a_node10"><a xlink:href="http://emmo.info/emmo/middle/materials#EMMO_8b0923ab_b500_477b_9ce9_8b3a3e4dc4f2" xlink:title="Continuum">
<ellipse fill="#ffffcc" stroke="#000000" cx="468.8449" cy="-192" rx="50.8918" ry="18"/>
<text text-anchor="middle" x="468.8449" y="-188.3" font-family="Times,serif" font-size="14.00" fill="#000000">Continuum</text>
</a>
</g>
</g>
<!-- Solid&#45;&gt;Continuum -->
<g id="edge10" class="edge">
<title>Solid&#45;&gt;Continuum</title>
<path fill="none" stroke="#000000" d="M429.5257,-122.1884C436.481,-134.5376 445.9886,-151.4184 453.9122,-165.487"/>
<polygon fill="none" stroke="#000000" points="450.8907,-167.2545 458.8477,-174.25 456.9899,-163.8193 450.8907,-167.2545"/>
<text text-anchor="middle" x="456.3449" y="-144.8" font-family="Times,serif" font-size="14.00" fill="#000000">isA</text>
</g>
<!-- Molecule -->
<g id="node6" class="node">
<title>Molecule</title>
<g id="a_node6"><a xlink:href="http://emmo.info/emmo/middle/materials#EMMO_3397f270_dfc1_4500_8f6f_4d0d85ac5f71" xlink:title="Molecule">
<ellipse fill="#ffffcc" stroke="#000000" cx="240.8449" cy="-192" rx="44.393" ry="18"/>
<text text-anchor="middle" x="240.8449" y="-188.3" font-family="Times,serif" font-size="14.00" fill="#000000">Molecule</text>
</a>
</g>
</g>
<!-- Molecule&#45;&gt;MaterialState -->
<g id="edge7" class="edge">
<title>Molecule&#45;&gt;MaterialState</title>
<path fill="none" stroke="#000000" d="M251.9749,-209.6057C259.7511,-221.9062 270.2728,-238.5497 279.0627,-252.4537"/>
<polygon fill="none" stroke="#000000" points="276.2405,-254.5395 284.5426,-261.1218 282.1574,-250.799 276.2405,-254.5395"/>
<text text-anchor="middle" x="280.3449" y="-231.8" font-family="Times,serif" font-size="14.00" fill="#000000">isA</text>
</g>
<!-- Fluid -->
<g id="node7" class="node">
<title>Fluid</title>
<g id="a_node7"><a xlink:href="http://emmo.info/emmo/middle/materials#EMMO_87ac88ff_8379_4f5a_8c7b_424a8fff1ee8" xlink:title="Fluid">
<ellipse fill="#ffffcc" stroke="#000000" cx="495.8449" cy="-105" rx="29.4969" ry="18"/>
<text text-anchor="middle" x="495.8449" y="-101.3" font-family="Times,serif" font-size="14.00" fill="#000000">Fluid</text>
</a>
</g>
</g>
<!-- Fluid&#45;&gt;Continuum -->
<g id="edge1" class="edge">
<title>Fluid&#45;&gt;Continuum</title>
<path fill="none" stroke="#000000" d="M490.2504,-123.0265C486.5578,-134.9249 481.6468,-150.7492 477.4602,-164.2394"/>
<polygon fill="none" stroke="#000000" points="474.0535,-163.4086 474.4321,-173.9966 480.7389,-165.4834 474.0535,-163.4086"/>
<text text-anchor="middle" x="493.3449" y="-144.8" font-family="Times,serif" font-size="14.00" fill="#000000">isA</text>
</g>
<!-- Subatomic -->
<g id="node8" class="node">
<title>Subatomic</title>
<g id="a_node8"><a xlink:href="http://emmo.info/emmo/middle/materials#EMMO_7d66bde4_b68d_41cc_b5fc_6fd98c5e2ff0" xlink:title="Subatomic">
<ellipse fill="#ffffcc" stroke="#000000" stroke-width="2" cx="351.8449" cy="-192" rx="48.9926" ry="18"/>
<text text-anchor="middle" x="351.8449" y="-188.3" font-family="Times,serif" font-size="14.00" fill="#000000">Subatomic</text>
</a>
</g>
</g>
<!-- Subatomic&#45;&gt;MaterialState -->
<g id="edge4" class="edge">
<title>Subatomic&#45;&gt;MaterialState</title>
<path fill="none" stroke="#000000" d="M340.5124,-209.6057C332.5949,-221.9062 321.8819,-238.5497 312.9321,-252.4537"/>
<polygon fill="none" stroke="#000000" points="309.8221,-250.8188 307.3527,-261.1218 315.7082,-254.6075 309.8221,-250.8188"/>
<text text-anchor="middle" x="336.3449" y="-231.8" font-family="Times,serif" font-size="14.00" fill="#000000">isA</text>
</g>
<!-- IonAtom -->
<g id="node9" class="node">
<title>IonAtom</title>
<g id="a_node9"><a xlink:href="http://emmo.info/emmo/middle/materials#EMMO_db03061b_db31_4132_a47a_6a634846578b" xlink:title="IonAtom">
<ellipse fill="#ffffcc" stroke="#000000" cx="176.8449" cy="-18" rx="42.7926" ry="18"/>
<text text-anchor="middle" x="176.8449" y="-14.3" font-family="Times,serif" font-size="14.00" fill="#000000">IonAtom</text>
</a>
</g>
</g>
<!-- IonAtom&#45;&gt;StandaloneAtom -->
<g id="edge9" class="edge">
<title>IonAtom&#45;&gt;StandaloneAtom</title>
<path fill="none" stroke="#000000" d="M164.703,-35.6057C156.1391,-48.0233 144.5227,-64.8671 134.8792,-78.8502"/>
<polygon fill="none" stroke="#000000" points="131.9708,-76.9026 129.1746,-87.1218 137.7333,-80.8768 131.9708,-76.9026"/>
<text text-anchor="middle" x="159.3449" y="-57.8" font-family="Times,serif" font-size="14.00" fill="#000000">isA</text>
</g>
<!-- Continuum&#45;&gt;MaterialState -->
<g id="edge5" class="edge">
<title>Continuum&#45;&gt;MaterialState</title>
<path fill="none" stroke="#000000" d="M439.4978,-206.7584C410.8943,-221.1428 367.1992,-243.1166 335.5102,-259.0527"/>
<polygon fill="none" stroke="#000000" points="333.8644,-255.9627 326.5029,-263.5824 337.0093,-262.2164 333.8644,-255.9627"/>
<text text-anchor="middle" x="401.3449" y="-231.8" font-family="Times,serif" font-size="14.00" fill="#000000">isA</text>
</g>
</g>
</svg>
