<?xml version="1.0" encoding="UTF-8" standalone="no"?>
<!DOCTYPE svg PUBLIC "-//W3C//DTD SVG 1.1//EN"
 "http://www.w3.org/Graphics/SVG/1.1/DTD/svg11.dtd">
<!-- Generated by graphviz version 2.40.1 (20161225.0304)
 -->
<!-- Title: %3 Pages: 1 -->
<svg width="795pt" height="260pt"
 viewBox="0.00 0.00 794.75 260.00" xmlns="http://www.w3.org/2000/svg" xmlns:xlink="http://www.w3.org/1999/xlink">
<g id="graph0" class="graph" transform="scale(1 1) rotate(0) translate(4 256)">
<title>%3</title>
<polygon fill="#ffffff" stroke="transparent" points="-4,4 -4,-256 790.7457,-256 790.7457,4 -4,4"/>
<!-- StandaloneAtom -->
<g id="node1" class="node">
<title>StandaloneAtom</title>
<g id="a_node1"><a xlink:href="http://emmo.info/emmo/middle/materials#EMMO_2fd3f574_5e93_47fe_afca_ed80b0a21ab4" xlink:title="StandaloneAtom">
<ellipse fill="#ffffcc" stroke="#000000" cx="525.7457" cy="-90" rx="70.3881" ry="18"/>
<text text-anchor="middle" x="525.7457" y="-86.3" font-family="Times,serif" font-size="14.00" fill="#000000">StandaloneAtom</text>
</a>
</g>
</g>
<!-- Atom -->
<g id="node3" class="node">
<title>Atom</title>
<g id="a_node3"><a xlink:href="http://emmo.info/emmo/middle/materials#EMMO_eb77076b_a104_42ac_a065_798b2d2809ad" xlink:title="Atom">
<ellipse fill="#ffffcc" stroke="#000000" cx="378.7457" cy="-162" rx="31.3957" ry="18"/>
<text text-anchor="middle" x="378.7457" y="-158.3" font-family="Times,serif" font-size="14.00" fill="#000000">Atom</text>
</a>
</g>
</g>
<!-- StandaloneAtom&#45;&gt;Atom -->
<g id="edge6" class="edge">
<title>StandaloneAtom&#45;&gt;Atom</title>
<path fill="none" stroke="#000000" d="M493.1216,-105.9791C468.9277,-117.8292 436.0697,-133.9229 411.7789,-145.8205"/>
<polygon fill="none" stroke="#000000" points="410.0398,-142.7749 402.5987,-150.3169 413.1189,-149.0614 410.0398,-142.7749"/>
</g>
<!-- BondedAtom -->
<g id="node2" class="node">
<title>BondedAtom</title>
<g id="a_node2"><a xlink:href="http://emmo.info/emmo/middle/materials#EMMO_8303a247_f9d9_4616_bdcd_f5cbd7b298e3" xlink:title="BondedAtom">
<ellipse fill="#ffffcc" stroke="#000000" cx="378.7457" cy="-90" rx="58.4896" ry="18"/>
<text text-anchor="middle" x="378.7457" y="-86.3" font-family="Times,serif" font-size="14.00" fill="#000000">BondedAtom</text>
</a>
</g>
</g>
<!-- BondedAtom&#45;&gt;Atom -->
<g id="edge8" class="edge">
<title>BondedAtom&#45;&gt;Atom</title>
<path fill="none" stroke="#000000" d="M378.7457,-108.1686C378.7457,-115.869 378.7457,-125.0257 378.7457,-133.5834"/>
<polygon fill="none" stroke="#000000" points="375.2458,-133.5867 378.7457,-143.5867 382.2458,-133.5868 375.2458,-133.5867"/>
</g>
<!-- MaterialState -->
<g id="node7" class="node">
<title>MaterialState</title>
<g id="a_node7"><a xlink:href="http://emmo.info/emmo/middle/materials#EMMO_20fff605_465f_4034_8696_e53e90ec83f4" xlink:title="MaterialState">
<ellipse fill="#ffc880" stroke="#000000" stroke-width="2" cx="215.7457" cy="-234" rx="58.4896" ry="18"/>
<text text-anchor="middle" x="215.7457" y="-230.3" font-family="Times,serif" font-size="14.00" fill="#000000">MaterialState</text>
</a>
</g>
</g>
<!-- Atom&#45;&gt;MaterialState -->
<g id="edge4" class="edge">
<title>Atom&#45;&gt;MaterialState</title>
<path fill="none" stroke="#000000" d="M353.6341,-173.0922C328.4122,-184.2332 289.0579,-201.6167 258.8378,-214.9654"/>
<polygon fill="none" stroke="#000000" points="257.1097,-211.9025 249.3765,-219.1447 259.9381,-218.3056 257.1097,-211.9025"/>
</g>
<!-- Subatomic -->
<g id="node4" class="node">
<title>Subatomic</title>
<g id="a_node4"><a xlink:href="http://emmo.info/emmo/middle/materials#EMMO_7d66bde4_b68d_41cc_b5fc_6fd98c5e2ff0" xlink:title="Subatomic">
<ellipse fill="#ffffcc" stroke="#000000" stroke-width="2" cx="48.7457" cy="-162" rx="48.9926" ry="18"/>
<text text-anchor="middle" x="48.7457" y="-158.3" font-family="Times,serif" font-size="14.00" fill="#000000">Subatomic</text>
</a>
</g>
</g>
<!-- Subatomic&#45;&gt;MaterialState -->
<g id="edge10" class="edge">
<title>Subatomic&#45;&gt;MaterialState</title>
<path fill="none" stroke="#000000" d="M80.5502,-175.7121C106.4826,-186.8926 143.3824,-202.8015 172.082,-215.1749"/>
<polygon fill="none" stroke="#000000" points="170.9042,-218.4785 181.4728,-219.2237 173.6756,-212.0505 170.9042,-218.4785"/>
</g>
<!-- Molecule -->
<g id="node5" class="node">
<title>Molecule</title>
<g id="a_node5"><a xlink:href="http://emmo.info/emmo/middle/materials#EMMO_3397f270_dfc1_4500_8f6f_4d0d85ac5f71" xlink:title="Molecule">
<ellipse fill="#ffffcc" stroke="#000000" cx="159.7457" cy="-162" rx="44.393" ry="18"/>
<text text-anchor="middle" x="159.7457" y="-158.3" font-family="Times,serif" font-size="14.00" fill="#000000">Molecule</text>
</a>
</g>
</g>
<!-- Molecule&#45;&gt;MaterialState -->
<g id="edge9" class="edge">
<title>Molecule&#45;&gt;MaterialState</title>
<path fill="none" stroke="#000000" d="M173.3017,-179.4292C180.0614,-188.1203 188.3678,-198.7999 195.8347,-208.4002"/>
<polygon fill="none" stroke="#000000" points="193.2182,-210.737 202.1204,-216.4818 198.7437,-206.4394 193.2182,-210.737"/>
</g>
<!-- Solid -->
<g id="node6" class="node">
<title>Solid</title>
<g id="a_node6"><a xlink:href="http://emmo.info/emmo/middle/materials#EMMO_a2b006f2_bbfd_4dba_bcaa_3fca20cd6be1" xlink:title="Solid">
<ellipse fill="#ffffcc" stroke="#000000" cx="196.7457" cy="-90" rx="29.4969" ry="18"/>
<text text-anchor="middle" x="196.7457" y="-86.3" font-family="Times,serif" font-size="14.00" fill="#000000">Solid</text>
</a>
</g>
</g>
<!-- Continuum -->
<g id="node11" class="node">
<title>Continuum</title>
<g id="a_node11"><a xlink:href="http://emmo.info/emmo/middle/materials#EMMO_8b0923ab_b500_477b_9ce9_8b3a3e4dc4f2" xlink:title="Continuum">
<ellipse fill="#ffffcc" stroke="#000000" cx="272.7457" cy="-162" rx="50.8918" ry="18"/>
<text text-anchor="middle" x="272.7457" y="-158.3" font-family="Times,serif" font-size="14.00" fill="#000000">Continuum</text>
</a>
</g>
</g>
<!-- Solid&#45;&gt;Continuum -->
<g id="edge1" class="edge">
<title>Solid&#45;&gt;Continuum</title>
<path fill="none" stroke="#000000" d="M212.8633,-105.2693C222.8469,-114.7274 235.8873,-127.0815 247.2493,-137.8455"/>
<polygon fill="none" stroke="#000000" points="245.1222,-140.6517 254.7889,-144.9883 249.9365,-135.57 245.1222,-140.6517"/>
</g>
<!-- IonAtom -->
<g id="node8" class="node">
<title>IonAtom</title>
<g id="a_node8"><a xlink:href="http://emmo.info/emmo/middle/materials#EMMO_db03061b_db31_4132_a47a_6a634846578b" xlink:title="IonAtom">
<ellipse fill="#ffffcc" stroke="#000000" cx="465.7457" cy="-18" rx="42.7926" ry="18"/>
<text text-anchor="middle" x="465.7457" y="-14.3" font-family="Times,serif" font-size="14.00" fill="#000000">IonAtom</text>
</a>
</g>
</g>
<!-- IonAtom&#45;&gt;StandaloneAtom -->
<g id="edge2" class="edge">
<title>IonAtom&#45;&gt;StandaloneAtom</title>
<path fill="none" stroke="#000000" d="M479.9648,-35.063C487.2747,-43.8348 496.3319,-54.7035 504.456,-64.4524"/>
<polygon fill="none" stroke="#000000" points="501.9113,-66.866 511.002,-72.3076 507.2889,-62.3847 501.9113,-66.866"/>
</g>
<!-- Fluid -->
<g id="node9" class="node">
<title>Fluid</title>
<g id="a_node9"><a xlink:href="http://emmo.info/emmo/middle/materials#EMMO_87ac88ff_8379_4f5a_8c7b_424a8fff1ee8" xlink:title="Fluid">
<ellipse fill="#ffffcc" stroke="#000000" cx="272.7457" cy="-90" rx="29.4969" ry="18"/>
<text text-anchor="middle" x="272.7457" y="-86.3" font-family="Times,serif" font-size="14.00" fill="#000000">Fluid</text>
</a>
</g>
</g>
<!-- Fluid&#45;&gt;Continuum -->
<g id="edge3" class="edge">
<title>Fluid&#45;&gt;Continuum</title>
<path fill="none" stroke="#000000" d="M272.7457,-108.1686C272.7457,-115.869 272.7457,-125.0257 272.7457,-133.5834"/>
<polygon fill="none" stroke="#000000" points="269.2458,-133.5867 272.7457,-143.5867 276.2458,-133.5868 269.2458,-133.5867"/>
</g>
<!-- NeutralAtom -->
<g id="node10" class="node">
<title>NeutralAtom</title>
<g id="a_node10"><a xlink:href="http://emmo.info/emmo/middle/materials#EMMO_4588526f_8553_4f4d_aa73_a483e88d599b" xlink:title="NeutralAtom">
<ellipse fill="#ffffcc" stroke="#000000" cx="584.7457" cy="-18" rx="57.6901" ry="18"/>
<text text-anchor="middle" x="584.7457" y="-14.3" font-family="Times,serif" font-size="14.00" fill="#000000">NeutralAtom</text>
</a>
</g>
</g>
<!-- NeutralAtom&#45;&gt;StandaloneAtom -->
<g id="edge7" class="edge">
<title>NeutralAtom&#45;&gt;StandaloneAtom</title>
<path fill="none" stroke="#000000" d="M570.1614,-35.7978C563.1409,-44.3652 554.5909,-54.7991 546.8741,-64.2161"/>
<polygon fill="none" stroke="#000000" points="543.9977,-62.2043 540.3667,-72.1575 549.4121,-66.641 543.9977,-62.2043"/>
</g>
<!-- Continuum&#45;&gt;MaterialState -->
<g id="edge5" class="edge">
<title>Continuum&#45;&gt;MaterialState</title>
<path fill="none" stroke="#000000" d="M258.9476,-179.4292C252.0671,-188.1203 243.6124,-198.7999 236.0122,-208.4002"/>
<polygon fill="none" stroke="#000000" points="233.0772,-206.4688 229.6143,-216.4818 238.5655,-210.8138 233.0772,-206.4688"/>
</g>
<!-- key1 -->
<g id="node12" class="node">
<title>key1</title>
<text text-anchor="start" x="678.7457" y="-13.8" font-family="Times,serif" font-size="14.00" fill="#000000">isA</text>
</g>
<!-- key2 -->
<g id="node13" class="node">
<title>key2</title>
<text text-anchor="start" x="757.7457" y="-13.8" font-family="Times,serif" font-size="14.00" fill="#000000"> </text>
</g>
<!-- key1&#45;&gt;key2 -->
<g id="edge11" class="edge">
<title>key1:e&#45;&gt;key2:w</title>
<path fill="none" stroke="#000000" d="M699.7457,-19C720.7457,-19 728.4566,-19 745.3038,-19"/>
<polygon fill="none" stroke="#000000" points="745.7457,-22.5001 755.7457,-19 745.7456,-15.5001 745.7457,-22.5001"/>
</g>
</g>
</svg>
