<?xml version="1.0" encoding="UTF-8" standalone="no"?>
<!DOCTYPE svg PUBLIC "-//W3C//DTD SVG 1.1//EN"
 "http://www.w3.org/Graphics/SVG/1.1/DTD/svg11.dtd">
<!-- Generated by graphviz version 2.40.1 (20161225.0304)
 -->
<!-- Title: %3 Pages: 1 -->
<svg width="492pt" height="260pt"
 viewBox="0.00 0.00 492.25 260.00" xmlns="http://www.w3.org/2000/svg" xmlns:xlink="http://www.w3.org/1999/xlink">
<g id="graph0" class="graph" transform="scale(1 1) rotate(0) translate(4 256)">
<title>%3</title>
<polygon fill="#ffffff" stroke="transparent" points="-4,4 -4,-256 488.2474,-256 488.2474,4 -4,4"/>
<!-- Solid -->
<g id="node1" class="node">
<title>Solid</title>
<g id="a_node1"><a xlink:href="http://emmo.info/emmo/middle/materials#EMMO_a2b006f2_bbfd_4dba_bcaa_3fca20cd6be1" xlink:title="Solid">
<ellipse fill="#ffffcc" stroke="#000000" cx="29.2474" cy="-90" rx="29.4969" ry="18"/>
<text text-anchor="middle" x="29.2474" y="-86.3" font-family="Times,serif" font-size="14.00" fill="#000000">Solid</text>
</a>
</g>
</g>
<!-- Continuum -->
<g id="node6" class="node">
<title>Continuum</title>
<g id="a_node6"><a xlink:href="http://emmo.info/emmo/middle/materials#EMMO_8b0923ab_b500_477b_9ce9_8b3a3e4dc4f2" xlink:title="Continuum">
<ellipse fill="#ffffcc" stroke="#000000" cx="105.2474" cy="-162" rx="50.8918" ry="18"/>
<text text-anchor="middle" x="105.2474" y="-158.3" font-family="Times,serif" font-size="14.00" fill="#000000">Continuum</text>
</a>
</g>
</g>
<!-- Solid&#45;&gt;Continuum -->
<g id="edge10" class="edge">
<title>Solid&#45;&gt;Continuum</title>
<path fill="none" stroke="#000000" d="M45.3651,-105.2693C55.3486,-114.7274 68.389,-127.0815 79.751,-137.8455"/>
<polygon fill="none" stroke="#000000" points="77.6239,-140.6517 87.2906,-144.9883 82.4382,-135.57 77.6239,-140.6517"/>
</g>
<!-- MaterialState -->
<g id="node2" class="node">
<title>MaterialState</title>
<g id="a_node2"><a xlink:href="http://emmo.info/emmo/middle/materials#EMMO_20fff605_465f_4034_8696_e53e90ec83f4" xlink:title="MaterialState">
<ellipse fill="#ffc880" stroke="#000000" stroke-width="2" cx="271.2474" cy="-234" rx="58.4896" ry="18"/>
<text text-anchor="middle" x="271.2474" y="-230.3" font-family="Times,serif" font-size="14.00" fill="#000000">MaterialState</text>
</a>
</g>
</g>
<!-- IonAtom -->
<g id="node3" class="node">
<title>IonAtom</title>
<g id="a_node3"><a xlink:href="http://emmo.info/emmo/middle/materials#EMMO_db03061b_db31_4132_a47a_6a634846578b" xlink:title="IonAtom">
<ellipse fill="#ffffcc" stroke="#000000" cx="163.2474" cy="-18" rx="42.7926" ry="18"/>
<text text-anchor="middle" x="163.2474" y="-14.3" font-family="Times,serif" font-size="14.00" fill="#000000">IonAtom</text>
</a>
</g>
</g>
<!-- StandaloneAtom -->
<g id="node7" class="node">
<title>StandaloneAtom</title>
<g id="a_node7"><a xlink:href="http://emmo.info/emmo/middle/materials#EMMO_2fd3f574_5e93_47fe_afca_ed80b0a21ab4" xlink:title="StandaloneAtom">
<ellipse fill="#ffffcc" stroke="#000000" cx="222.2474" cy="-90" rx="70.3881" ry="18"/>
<text text-anchor="middle" x="222.2474" y="-86.3" font-family="Times,serif" font-size="14.00" fill="#000000">StandaloneAtom</text>
</a>
</g>
</g>
<!-- IonAtom&#45;&gt;StandaloneAtom -->
<g id="edge4" class="edge">
<title>IonAtom&#45;&gt;StandaloneAtom</title>
<path fill="none" stroke="#000000" d="M177.2296,-35.063C184.4176,-43.8348 193.3239,-54.7035 201.3126,-64.4524"/>
<polygon fill="none" stroke="#000000" points="198.704,-66.7912 207.7494,-72.3076 204.1184,-62.3544 198.704,-66.7912"/>
</g>
<!-- Fluid -->
<g id="node4" class="node">
<title>Fluid</title>
<g id="a_node4"><a xlink:href="http://emmo.info/emmo/middle/materials#EMMO_87ac88ff_8379_4f5a_8c7b_424a8fff1ee8" xlink:title="Fluid">
<ellipse fill="#ffffcc" stroke="#000000" cx="105.2474" cy="-90" rx="29.4969" ry="18"/>
<text text-anchor="middle" x="105.2474" y="-86.3" font-family="Times,serif" font-size="14.00" fill="#000000">Fluid</text>
</a>
</g>
</g>
<!-- Fluid&#45;&gt;Continuum -->
<g id="edge5" class="edge">
<title>Fluid&#45;&gt;Continuum</title>
<path fill="none" stroke="#000000" d="M105.2474,-108.1686C105.2474,-115.869 105.2474,-125.0257 105.2474,-133.5834"/>
<polygon fill="none" stroke="#000000" points="101.7475,-133.5867 105.2474,-143.5867 108.7475,-133.5868 101.7475,-133.5867"/>
</g>
<!-- NeutralAtom -->
<g id="node5" class="node">
<title>NeutralAtom</title>
<g id="a_node5"><a xlink:href="http://emmo.info/emmo/middle/materials#EMMO_4588526f_8553_4f4d_aa73_a483e88d599b" xlink:title="NeutralAtom">
<ellipse fill="#ffffcc" stroke="#000000" cx="282.2474" cy="-18" rx="57.6901" ry="18"/>
<text text-anchor="middle" x="282.2474" y="-14.3" font-family="Times,serif" font-size="14.00" fill="#000000">NeutralAtom</text>
</a>
</g>
</g>
<!-- NeutralAtom&#45;&gt;StandaloneAtom -->
<g id="edge9" class="edge">
<title>NeutralAtom&#45;&gt;StandaloneAtom</title>
<path fill="none" stroke="#000000" d="M267.7231,-35.4292C260.4615,-44.143 251.5342,-54.8559 243.5178,-64.4756"/>
<polygon fill="none" stroke="#000000" points="240.7679,-62.3082 237.0548,-72.2311 246.1455,-66.7895 240.7679,-62.3082"/>
</g>
<!-- Continuum&#45;&gt;MaterialState -->
<g id="edge6" class="edge">
<title>Continuum&#45;&gt;MaterialState</title>
<path fill="none" stroke="#000000" d="M137.6479,-176.0532C163.4183,-187.2307 199.7122,-202.9727 227.9689,-215.2286"/>
<polygon fill="none" stroke="#000000" points="226.6497,-218.4714 237.2166,-219.2397 229.4351,-212.0494 226.6497,-218.4714"/>
</g>
<!-- Atom -->
<g id="node9" class="node">
<title>Atom</title>
<g id="a_node9"><a xlink:href="http://emmo.info/emmo/middle/materials#EMMO_eb77076b_a104_42ac_a065_798b2d2809ad" xlink:title="Atom">
<ellipse fill="#ffffcc" stroke="#000000" cx="222.2474" cy="-162" rx="31.3957" ry="18"/>
<text text-anchor="middle" x="222.2474" y="-158.3" font-family="Times,serif" font-size="14.00" fill="#000000">Atom</text>
</a>
</g>
</g>
<!-- StandaloneAtom&#45;&gt;Atom -->
<g id="edge7" class="edge">
<title>StandaloneAtom&#45;&gt;Atom</title>
<path fill="none" stroke="#000000" d="M222.2474,-108.1686C222.2474,-115.869 222.2474,-125.0257 222.2474,-133.5834"/>
<polygon fill="none" stroke="#000000" points="218.7475,-133.5867 222.2474,-143.5867 225.7475,-133.5868 218.7475,-133.5867"/>
</g>
<!-- BondedAtom -->
<g id="node8" class="node">
<title>BondedAtom</title>
<g id="a_node8"><a xlink:href="http://emmo.info/emmo/middle/materials#EMMO_8303a247_f9d9_4616_bdcd_f5cbd7b298e3" xlink:title="BondedAtom">
<ellipse fill="#ffffcc" stroke="#000000" cx="369.2474" cy="-90" rx="58.4896" ry="18"/>
<text text-anchor="middle" x="369.2474" y="-86.3" font-family="Times,serif" font-size="14.00" fill="#000000">BondedAtom</text>
</a>
</g>
</g>
<!-- BondedAtom&#45;&gt;Atom -->
<g id="edge1" class="edge">
<title>BondedAtom&#45;&gt;Atom</title>
<path fill="none" stroke="#000000" d="M338.0725,-105.2693C313.7101,-117.2019 279.9366,-133.7441 255.1446,-145.8871"/>
<polygon fill="none" stroke="#000000" points="253.562,-142.7649 246.121,-150.3068 256.6411,-149.0513 253.562,-142.7649"/>
</g>
<!-- Atom&#45;&gt;MaterialState -->
<g id="edge8" class="edge">
<title>Atom&#45;&gt;MaterialState</title>
<path fill="none" stroke="#000000" d="M233.8597,-179.063C239.71,-187.6593 246.9309,-198.2696 253.4619,-207.8662"/>
<polygon fill="none" stroke="#000000" points="250.6869,-210.0096 259.2067,-216.3076 256.4739,-206.0712 250.6869,-210.0096"/>
</g>
<!-- Subatomic -->
<g id="node10" class="node">
<title>Subatomic</title>
<g id="a_node10"><a xlink:href="http://emmo.info/emmo/middle/materials#EMMO_7d66bde4_b68d_41cc_b5fc_6fd98c5e2ff0" xlink:title="Subatomic">
<ellipse fill="#ffffcc" stroke="#000000" stroke-width="2" cx="320.2474" cy="-162" rx="48.9926" ry="18"/>
<text text-anchor="middle" x="320.2474" y="-158.3" font-family="Times,serif" font-size="14.00" fill="#000000">Subatomic</text>
</a>
</g>
</g>
<!-- Subatomic&#45;&gt;MaterialState -->
<g id="edge3" class="edge">
<title>Subatomic&#45;&gt;MaterialState</title>
<path fill="none" stroke="#000000" d="M308.135,-179.7978C302.4222,-188.1921 295.49,-198.3782 289.184,-207.6442"/>
<polygon fill="none" stroke="#000000" points="286.123,-205.9211 283.3902,-216.1575 291.91,-209.8595 286.123,-205.9211"/>
</g>
<!-- Molecule -->
<g id="node11" class="node">
<title>Molecule</title>
<g id="a_node11"><a xlink:href="http://emmo.info/emmo/middle/materials#EMMO_3397f270_dfc1_4500_8f6f_4d0d85ac5f71" xlink:title="Molecule">
<ellipse fill="#ffffcc" stroke="#000000" cx="431.2474" cy="-162" rx="44.393" ry="18"/>
<text text-anchor="middle" x="431.2474" y="-158.3" font-family="Times,serif" font-size="14.00" fill="#000000">Molecule</text>
</a>
</g>
</g>
<!-- Molecule&#45;&gt;MaterialState -->
<g id="edge2" class="edge">
<title>Molecule&#45;&gt;MaterialState</title>
<path fill="none" stroke="#000000" d="M401.5276,-175.3739C376.871,-186.4694 341.4984,-202.3871 313.8317,-214.8371"/>
<polygon fill="none" stroke="#000000" points="312.0802,-211.7871 304.3972,-219.0826 314.9528,-218.1706 312.0802,-211.7871"/>
</g>
<!-- key1 -->
<g id="node12" class="node">
<title>key1</title>
<text text-anchor="start" x="376.2474" y="-13.8" font-family="Times,serif" font-size="14.00" fill="#000000">isA</text>
</g>
<!-- key2 -->
<g id="node13" class="node">
<title>key2</title>
<text text-anchor="start" x="455.2474" y="-13.8" font-family="Times,serif" font-size="14.00" fill="#000000"> </text>
</g>
<!-- key1&#45;&gt;key2 -->
<g id="edge11" class="edge">
<title>key1:e&#45;&gt;key2:w</title>
<path fill="none" stroke="#000000" d="M397.2474,-19C418.2474,-19 425.9583,-19 442.8055,-19"/>
<polygon fill="none" stroke="#000000" points="443.2474,-22.5001 453.2474,-19 443.2474,-15.5001 443.2474,-22.5001"/>
</g>
</g>
</svg>
