<?xml version="1.0" encoding="UTF-8" standalone="no"?>
<!DOCTYPE svg PUBLIC "-//W3C//DTD SVG 1.1//EN"
 "http://www.w3.org/Graphics/SVG/1.1/DTD/svg11.dtd">
<!-- Generated by graphviz version 2.40.1 (20161225.0304)
 -->
<!-- Title: %3 Pages: 1 -->
<svg width="504pt" height="260pt"
 viewBox="0.00 0.00 504.14 260.00" xmlns="http://www.w3.org/2000/svg" xmlns:xlink="http://www.w3.org/1999/xlink">
<g id="graph0" class="graph" transform="scale(1 1) rotate(0) translate(4 256)">
<title>%3</title>
<polygon fill="#ffffff" stroke="transparent" points="-4,4 -4,-256 500.1436,-256 500.1436,4 -4,4"/>
<!-- Continuum -->
<g id="node1" class="node">
<title>Continuum</title>
<g id="a_node1"><a xlink:href="http://emmo.info/emmo/middle/materials#EMMO_8b0923ab_b500_477b_9ce9_8b3a3e4dc4f2" xlink:title="Continuum">
<ellipse fill="#ffffcc" stroke="#000000" cx="426.8962" cy="-162" rx="50.8918" ry="18"/>
<text text-anchor="middle" x="426.8962" y="-158.3" font-family="Times,serif" font-size="14.00" fill="#000000">Continuum</text>
</a>
</g>
</g>
<!-- MaterialState -->
<g id="node8" class="node">
<title>MaterialState</title>
<g id="a_node8"><a xlink:href="http://emmo.info/emmo/middle/materials#EMMO_20fff605_465f_4034_8696_e53e90ec83f4" xlink:title="MaterialState">
<ellipse fill="#ffc880" stroke="#000000" stroke-width="2" cx="257.8962" cy="-234" rx="58.4896" ry="18"/>
<text text-anchor="middle" x="257.8962" y="-230.3" font-family="Times,serif" font-size="14.00" fill="#000000">MaterialState</text>
</a>
</g>
</g>
<!-- Continuum&#45;&gt;MaterialState -->
<g id="edge9" class="edge">
<title>Continuum&#45;&gt;MaterialState</title>
<path fill="none" stroke="#000000" d="M394.3113,-175.8823C368.0278,-187.08 330.8034,-202.9389 301.8779,-215.2622"/>
<polygon fill="none" stroke="#000000" points="300.2424,-212.1546 292.4143,-219.294 302.986,-218.5945 300.2424,-212.1546"/>
</g>
<!-- StandaloneAtom -->
<g id="node2" class="node">
<title>StandaloneAtom</title>
<g id="a_node2"><a xlink:href="http://emmo.info/emmo/middle/materials#EMMO_2fd3f574_5e93_47fe_afca_ed80b0a21ab4" xlink:title="StandaloneAtom">
<ellipse fill="#ffffcc" stroke="#000000" cx="101.8962" cy="-90" rx="70.3881" ry="18"/>
<text text-anchor="middle" x="101.8962" y="-86.3" font-family="Times,serif" font-size="14.00" fill="#000000">StandaloneAtom</text>
</a>
</g>
</g>
<!-- Atom -->
<g id="node4" class="node">
<title>Atom</title>
<g id="a_node4"><a xlink:href="http://emmo.info/emmo/middle/materials#EMMO_eb77076b_a104_42ac_a065_798b2d2809ad" xlink:title="Atom">
<ellipse fill="#ffffcc" stroke="#000000" cx="104.8962" cy="-162" rx="31.3957" ry="18"/>
<text text-anchor="middle" x="104.8962" y="-158.3" font-family="Times,serif" font-size="14.00" fill="#000000">Atom</text>
</a>
</g>
</g>
<!-- StandaloneAtom&#45;&gt;Atom -->
<g id="edge10" class="edge">
<title>StandaloneAtom&#45;&gt;Atom</title>
<path fill="none" stroke="#000000" d="M102.6532,-108.1686C102.9741,-115.869 103.3556,-125.0257 103.7122,-133.5834"/>
<polygon fill="none" stroke="#000000" points="100.2156,-133.7411 104.129,-143.5867 107.2095,-133.4497 100.2156,-133.7411"/>
</g>
<!-- BondedAtom -->
<g id="node3" class="node">
<title>BondedAtom</title>
<g id="a_node3"><a xlink:href="http://emmo.info/emmo/middle/materials#EMMO_8303a247_f9d9_4616_bdcd_f5cbd7b298e3" xlink:title="BondedAtom">
<ellipse fill="#ffffcc" stroke="#000000" cx="248.8962" cy="-90" rx="58.4896" ry="18"/>
<text text-anchor="middle" x="248.8962" y="-86.3" font-family="Times,serif" font-size="14.00" fill="#000000">BondedAtom</text>
</a>
</g>
</g>
<!-- BondedAtom&#45;&gt;Atom -->
<g id="edge2" class="edge">
<title>BondedAtom&#45;&gt;Atom</title>
<path fill="none" stroke="#000000" d="M218.0046,-105.4458C194.3668,-117.2647 161.8392,-133.5285 137.7316,-145.5823"/>
<polygon fill="none" stroke="#000000" points="135.9959,-142.537 128.6169,-150.1397 139.1264,-148.798 135.9959,-142.537"/>
</g>
<!-- Atom&#45;&gt;MaterialState -->
<g id="edge7" class="edge">
<title>Atom&#45;&gt;MaterialState</title>
<path fill="none" stroke="#000000" d="M129.1395,-173.4086C152.6076,-184.4524 188.6439,-201.4107 216.6304,-214.5808"/>
<polygon fill="none" stroke="#000000" points="215.2445,-217.7968 225.783,-218.8879 218.2252,-211.463 215.2445,-217.7968"/>
</g>
<!-- Subatomic -->
<g id="node5" class="node">
<title>Subatomic</title>
<g id="a_node5"><a xlink:href="http://emmo.info/emmo/middle/materials#EMMO_7d66bde4_b68d_41cc_b5fc_6fd98c5e2ff0" xlink:title="Subatomic">
<ellipse fill="#ffffcc" stroke="#000000" stroke-width="2" cx="202.8962" cy="-162" rx="48.9926" ry="18"/>
<text text-anchor="middle" x="202.8962" y="-158.3" font-family="Times,serif" font-size="14.00" fill="#000000">Subatomic</text>
</a>
</g>
</g>
<!-- Subatomic&#45;&gt;MaterialState -->
<g id="edge5" class="edge">
<title>Subatomic&#45;&gt;MaterialState</title>
<path fill="none" stroke="#000000" d="M216.2102,-179.4292C222.8,-188.0559 230.8865,-198.6418 238.1777,-208.1866"/>
<polygon fill="none" stroke="#000000" points="235.4709,-210.409 244.3227,-216.2311 241.0337,-206.1597 235.4709,-210.409"/>
</g>
<!-- Molecule -->
<g id="node6" class="node">
<title>Molecule</title>
<g id="a_node6"><a xlink:href="http://emmo.info/emmo/middle/materials#EMMO_3397f270_dfc1_4500_8f6f_4d0d85ac5f71" xlink:title="Molecule">
<ellipse fill="#ffffcc" stroke="#000000" cx="313.8962" cy="-162" rx="44.393" ry="18"/>
<text text-anchor="middle" x="313.8962" y="-158.3" font-family="Times,serif" font-size="14.00" fill="#000000">Molecule</text>
</a>
</g>
</g>
<!-- Molecule&#45;&gt;MaterialState -->
<g id="edge6" class="edge">
<title>Molecule&#45;&gt;MaterialState</title>
<path fill="none" stroke="#000000" d="M300.3402,-179.4292C293.5804,-188.1203 285.274,-198.7999 277.8072,-208.4002"/>
<polygon fill="none" stroke="#000000" points="274.8982,-206.4394 271.5215,-216.4818 280.4237,-210.737 274.8982,-206.4394"/>
</g>
<!-- Solid -->
<g id="node7" class="node">
<title>Solid</title>
<g id="a_node7"><a xlink:href="http://emmo.info/emmo/middle/materials#EMMO_a2b006f2_bbfd_4dba_bcaa_3fca20cd6be1" xlink:title="Solid">
<ellipse fill="#ffffcc" stroke="#000000" cx="390.8962" cy="-90" rx="29.4969" ry="18"/>
<text text-anchor="middle" x="390.8962" y="-86.3" font-family="Times,serif" font-size="14.00" fill="#000000">Solid</text>
</a>
</g>
</g>
<!-- Solid&#45;&gt;Continuum -->
<g id="edge8" class="edge">
<title>Solid&#45;&gt;Continuum</title>
<path fill="none" stroke="#000000" d="M399.6108,-107.4292C403.7499,-115.7073 408.791,-125.7896 413.4086,-135.0248"/>
<polygon fill="none" stroke="#000000" points="410.4091,-136.8521 418.0118,-144.2311 416.6701,-133.7216 410.4091,-136.8521"/>
</g>
<!-- IonAtom -->
<g id="node9" class="node">
<title>IonAtom</title>
<g id="a_node9"><a xlink:href="http://emmo.info/emmo/middle/materials#EMMO_db03061b_db31_4132_a47a_6a634846578b" xlink:title="IonAtom">
<ellipse fill="#ffffcc" stroke="#000000" cx="42.8962" cy="-18" rx="42.7926" ry="18"/>
<text text-anchor="middle" x="42.8962" y="-14.3" font-family="Times,serif" font-size="14.00" fill="#000000">IonAtom</text>
</a>
</g>
</g>
<!-- IonAtom&#45;&gt;StandaloneAtom -->
<g id="edge1" class="edge">
<title>IonAtom&#45;&gt;StandaloneAtom</title>
<path fill="none" stroke="#000000" d="M56.8784,-35.063C64.0664,-43.8348 72.9727,-54.7035 80.9614,-64.4524"/>
<polygon fill="none" stroke="#000000" points="78.3528,-66.7912 87.3982,-72.3076 83.7672,-62.3544 78.3528,-66.7912"/>
</g>
<!-- Fluid -->
<g id="node10" class="node">
<title>Fluid</title>
<g id="a_node10"><a xlink:href="http://emmo.info/emmo/middle/materials#EMMO_87ac88ff_8379_4f5a_8c7b_424a8fff1ee8" xlink:title="Fluid">
<ellipse fill="#ffffcc" stroke="#000000" cx="466.8962" cy="-90" rx="29.4969" ry="18"/>
<text text-anchor="middle" x="466.8962" y="-86.3" font-family="Times,serif" font-size="14.00" fill="#000000">Fluid</text>
</a>
</g>
</g>
<!-- Fluid&#45;&gt;Continuum -->
<g id="edge4" class="edge">
<title>Fluid&#45;&gt;Continuum</title>
<path fill="none" stroke="#000000" d="M457.4168,-107.063C452.7385,-115.4839 446.9866,-125.8373 441.7421,-135.2774"/>
<polygon fill="none" stroke="#000000" points="438.5222,-133.8662 436.7253,-144.3076 444.6413,-137.2658 438.5222,-133.8662"/>
</g>
<!-- NeutralAtom -->
<g id="node11" class="node">
<title>NeutralAtom</title>
<g id="a_node11"><a xlink:href="http://emmo.info/emmo/middle/materials#EMMO_4588526f_8553_4f4d_aa73_a483e88d599b" xlink:title="NeutralAtom">
<ellipse fill="#ffffcc" stroke="#000000" cx="161.8962" cy="-18" rx="57.6901" ry="18"/>
<text text-anchor="middle" x="161.8962" y="-14.3" font-family="Times,serif" font-size="14.00" fill="#000000">NeutralAtom</text>
</a>
</g>
</g>
<!-- NeutralAtom&#45;&gt;StandaloneAtom -->
<g id="edge3" class="edge">
<title>NeutralAtom&#45;&gt;StandaloneAtom</title>
<path fill="none" stroke="#000000" d="M147.3719,-35.4292C140.1103,-44.143 131.183,-54.8559 123.1666,-64.4756"/>
<polygon fill="none" stroke="#000000" points="120.4167,-62.3082 116.7036,-72.2311 125.7943,-66.7895 120.4167,-62.3082"/>
</g>
<!-- key1 -->
<g id="node12" class="node">
<title>key1</title>
<text text-anchor="start" x="255.8962" y="-13.8" font-family="Times,serif" font-size="14.00" fill="#000000">isA</text>
</g>
<!-- key2 -->
<g id="node13" class="node">
<title>key2</title>
<text text-anchor="start" x="334.8962" y="-13.8" font-family="Times,serif" font-size="14.00" fill="#000000"> </text>
</g>
<!-- key1&#45;&gt;key2 -->
<g id="edge11" class="edge">
<title>key1:e&#45;&gt;key2:w</title>
<path fill="none" stroke="#000000" d="M276.8962,-19C297.8962,-19 305.6071,-19 322.4543,-19"/>
<polygon fill="none" stroke="#000000" points="322.8962,-22.5001 332.8962,-19 322.8962,-15.5001 322.8962,-22.5001"/>
</g>
</g>
</svg>
