<?xml version="1.0" encoding="UTF-8" standalone="no"?>
<!DOCTYPE svg PUBLIC "-//W3C//DTD SVG 1.1//EN"
 "http://www.w3.org/Graphics/SVG/1.1/DTD/svg11.dtd">
<!-- Generated by graphviz version 2.40.1 (20161225.0304)
 -->
<!-- Title: %3 Pages: 1 -->
<svg width="635pt" height="260pt"
 viewBox="0.00 0.00 635.09 260.00" xmlns="http://www.w3.org/2000/svg" xmlns:xlink="http://www.w3.org/1999/xlink">
<g id="graph0" class="graph" transform="scale(1 1) rotate(0) translate(4 256)">
<title>%3</title>
<polygon fill="#ffffff" stroke="transparent" points="-4,4 -4,-256 631.0923,-256 631.0923,4 -4,4"/>
<!-- IonAtom -->
<g id="node1" class="node">
<title>IonAtom</title>
<g id="a_node1"><a xlink:href="http://emmo.info/emmo/middle/materials#EMMO_db03061b_db31_4132_a47a_6a634846578b" xlink:title="IonAtom">
<ellipse fill="#ffffcc" stroke="#000000" cx="42.8962" cy="-18" rx="42.7926" ry="18"/>
<text text-anchor="middle" x="42.8962" y="-14.3" font-family="Times,serif" font-size="14.00" fill="#000000">IonAtom</text>
</a>
</g>
</g>
<!-- StandaloneAtom -->
<g id="node5" class="node">
<title>StandaloneAtom</title>
<g id="a_node5"><a xlink:href="http://emmo.info/emmo/middle/materials#EMMO_2fd3f574_5e93_47fe_afca_ed80b0a21ab4" xlink:title="StandaloneAtom">
<ellipse fill="#ffffcc" stroke="#000000" cx="101.8962" cy="-90" rx="70.3881" ry="18"/>
<text text-anchor="middle" x="101.8962" y="-86.3" font-family="Times,serif" font-size="14.00" fill="#000000">StandaloneAtom</text>
</a>
</g>
</g>
<!-- IonAtom&#45;&gt;StandaloneAtom -->
<g id="edge4" class="edge">
<title>IonAtom&#45;&gt;StandaloneAtom</title>
<path fill="none" stroke="#000000" d="M56.8784,-35.063C64.0664,-43.8348 72.9727,-54.7035 80.9614,-64.4524"/>
<polygon fill="none" stroke="#000000" points="78.3528,-66.7912 87.3982,-72.3076 83.7672,-62.3544 78.3528,-66.7912"/>
</g>
<!-- Fluid -->
<g id="node2" class="node">
<title>Fluid</title>
<g id="a_node2"><a xlink:href="http://emmo.info/emmo/middle/materials#EMMO_87ac88ff_8379_4f5a_8c7b_424a8fff1ee8" xlink:title="Fluid">
<ellipse fill="#ffffcc" stroke="#000000" cx="354.8962" cy="-90" rx="29.4969" ry="18"/>
<text text-anchor="middle" x="354.8962" y="-86.3" font-family="Times,serif" font-size="14.00" fill="#000000">Fluid</text>
</a>
</g>
</g>
<!-- Continuum -->
<g id="node4" class="node">
<title>Continuum</title>
<g id="a_node4"><a xlink:href="http://emmo.info/emmo/middle/materials#EMMO_8b0923ab_b500_477b_9ce9_8b3a3e4dc4f2" xlink:title="Continuum">
<ellipse fill="#ffffcc" stroke="#000000" cx="354.8962" cy="-162" rx="50.8918" ry="18"/>
<text text-anchor="middle" x="354.8962" y="-158.3" font-family="Times,serif" font-size="14.00" fill="#000000">Continuum</text>
</a>
</g>
</g>
<!-- Fluid&#45;&gt;Continuum -->
<g id="edge5" class="edge">
<title>Fluid&#45;&gt;Continuum</title>
<path fill="none" stroke="#000000" d="M354.8962,-108.1686C354.8962,-115.869 354.8962,-125.0257 354.8962,-133.5834"/>
<polygon fill="none" stroke="#000000" points="351.3963,-133.5867 354.8962,-143.5867 358.3963,-133.5868 351.3963,-133.5867"/>
</g>
<!-- NeutralAtom -->
<g id="node3" class="node">
<title>NeutralAtom</title>
<g id="a_node3"><a xlink:href="http://emmo.info/emmo/middle/materials#EMMO_4588526f_8553_4f4d_aa73_a483e88d599b" xlink:title="NeutralAtom">
<ellipse fill="#ffffcc" stroke="#000000" cx="161.8962" cy="-18" rx="57.6901" ry="18"/>
<text text-anchor="middle" x="161.8962" y="-14.3" font-family="Times,serif" font-size="14.00" fill="#000000">NeutralAtom</text>
</a>
</g>
</g>
<!-- NeutralAtom&#45;&gt;StandaloneAtom -->
<g id="edge10" class="edge">
<title>NeutralAtom&#45;&gt;StandaloneAtom</title>
<path fill="none" stroke="#000000" d="M147.3719,-35.4292C140.1103,-44.143 131.183,-54.8559 123.1666,-64.4756"/>
<polygon fill="none" stroke="#000000" points="120.4167,-62.3082 116.7036,-72.2311 125.7943,-66.7895 120.4167,-62.3082"/>
</g>
<!-- MaterialState -->
<g id="node11" class="node">
<title>MaterialState</title>
<g id="a_node11"><a xlink:href="http://emmo.info/emmo/middle/materials#EMMO_20fff605_465f_4034_8696_e53e90ec83f4" xlink:title="MaterialState">
<ellipse fill="#ffc880" stroke="#000000" stroke-width="2" cx="412.8962" cy="-234" rx="58.4896" ry="18"/>
<text text-anchor="middle" x="412.8962" y="-230.3" font-family="Times,serif" font-size="14.00" fill="#000000">MaterialState</text>
</a>
</g>
</g>
<!-- Continuum&#45;&gt;MaterialState -->
<g id="edge9" class="edge">
<title>Continuum&#45;&gt;MaterialState</title>
<path fill="none" stroke="#000000" d="M368.9364,-179.4292C376.0082,-188.2081 384.7145,-199.0159 392.5082,-208.6907"/>
<polygon fill="none" stroke="#000000" points="389.7853,-210.8899 398.7843,-216.4818 395.2366,-206.4985 389.7853,-210.8899"/>
</g>
<!-- Atom -->
<g id="node7" class="node">
<title>Atom</title>
<g id="a_node7"><a xlink:href="http://emmo.info/emmo/middle/materials#EMMO_eb77076b_a104_42ac_a065_798b2d2809ad" xlink:title="Atom">
<ellipse fill="#ffffcc" stroke="#000000" cx="248.8962" cy="-162" rx="31.3957" ry="18"/>
<text text-anchor="middle" x="248.8962" y="-158.3" font-family="Times,serif" font-size="14.00" fill="#000000">Atom</text>
</a>
</g>
</g>
<!-- StandaloneAtom&#45;&gt;Atom -->
<g id="edge2" class="edge">
<title>StandaloneAtom&#45;&gt;Atom</title>
<path fill="none" stroke="#000000" d="M134.5203,-105.9791C158.7141,-117.8292 191.5721,-133.9229 215.863,-145.8205"/>
<polygon fill="none" stroke="#000000" points="214.5229,-149.0614 225.0431,-150.3169 217.602,-142.7749 214.5229,-149.0614"/>
</g>
<!-- BondedAtom -->
<g id="node6" class="node">
<title>BondedAtom</title>
<g id="a_node6"><a xlink:href="http://emmo.info/emmo/middle/materials#EMMO_8303a247_f9d9_4616_bdcd_f5cbd7b298e3" xlink:title="BondedAtom">
<ellipse fill="#ffffcc" stroke="#000000" cx="248.8962" cy="-90" rx="58.4896" ry="18"/>
<text text-anchor="middle" x="248.8962" y="-86.3" font-family="Times,serif" font-size="14.00" fill="#000000">BondedAtom</text>
</a>
</g>
</g>
<!-- BondedAtom&#45;&gt;Atom -->
<g id="edge6" class="edge">
<title>BondedAtom&#45;&gt;Atom</title>
<path fill="none" stroke="#000000" d="M248.8962,-108.1686C248.8962,-115.869 248.8962,-125.0257 248.8962,-133.5834"/>
<polygon fill="none" stroke="#000000" points="245.3963,-133.5867 248.8962,-143.5867 252.3963,-133.5868 245.3963,-133.5867"/>
</g>
<!-- Atom&#45;&gt;MaterialState -->
<g id="edge3" class="edge">
<title>Atom&#45;&gt;MaterialState</title>
<path fill="none" stroke="#000000" d="M273.8043,-172.9353C299.3029,-184.1298 339.4232,-201.7436 370.0357,-215.1832"/>
<polygon fill="none" stroke="#000000" points="368.6407,-218.3932 379.2041,-219.2084 371.4547,-211.9836 368.6407,-218.3932"/>
</g>
<!-- Subatomic -->
<g id="node8" class="node">
<title>Subatomic</title>
<g id="a_node8"><a xlink:href="http://emmo.info/emmo/middle/materials#EMMO_7d66bde4_b68d_41cc_b5fc_6fd98c5e2ff0" xlink:title="Subatomic">
<ellipse fill="#ffffcc" stroke="#000000" stroke-width="2" cx="471.8962" cy="-162" rx="48.9926" ry="18"/>
<text text-anchor="middle" x="471.8962" y="-158.3" font-family="Times,serif" font-size="14.00" fill="#000000">Subatomic</text>
</a>
</g>
</g>
<!-- Subatomic&#45;&gt;MaterialState -->
<g id="edge7" class="edge">
<title>Subatomic&#45;&gt;MaterialState</title>
<path fill="none" stroke="#000000" d="M457.6139,-179.4292C450.4201,-188.2081 441.5637,-199.0159 433.6357,-208.6907"/>
<polygon fill="none" stroke="#000000" points="430.8825,-206.5286 427.2514,-216.4818 436.2969,-210.9653 430.8825,-206.5286"/>
</g>
<!-- Molecule -->
<g id="node9" class="node">
<title>Molecule</title>
<g id="a_node9"><a xlink:href="http://emmo.info/emmo/middle/materials#EMMO_3397f270_dfc1_4500_8f6f_4d0d85ac5f71" xlink:title="Molecule">
<ellipse fill="#ffffcc" stroke="#000000" cx="582.8962" cy="-162" rx="44.393" ry="18"/>
<text text-anchor="middle" x="582.8962" y="-158.3" font-family="Times,serif" font-size="14.00" fill="#000000">Molecule</text>
</a>
</g>
</g>
<!-- Molecule&#45;&gt;MaterialState -->
<g id="edge1" class="edge">
<title>Molecule&#45;&gt;MaterialState</title>
<path fill="none" stroke="#000000" d="M552.1105,-175.0387C525.5183,-186.3012 486.776,-202.7097 456.9096,-215.359"/>
<polygon fill="none" stroke="#000000" points="455.3944,-212.1997 447.5512,-219.3226 458.1244,-218.6454 455.3944,-212.1997"/>
</g>
<!-- Solid -->
<g id="node10" class="node">
<title>Solid</title>
<g id="a_node10"><a xlink:href="http://emmo.info/emmo/middle/materials#EMMO_a2b006f2_bbfd_4dba_bcaa_3fca20cd6be1" xlink:title="Solid">
<ellipse fill="#ffffcc" stroke="#000000" cx="430.8962" cy="-90" rx="29.4969" ry="18"/>
<text text-anchor="middle" x="430.8962" y="-86.3" font-family="Times,serif" font-size="14.00" fill="#000000">Solid</text>
</a>
</g>
</g>
<!-- Solid&#45;&gt;Continuum -->
<g id="edge8" class="edge">
<title>Solid&#45;&gt;Continuum</title>
<path fill="none" stroke="#000000" d="M414.7785,-105.2693C404.795,-114.7274 391.7546,-127.0815 380.3926,-137.8455"/>
<polygon fill="none" stroke="#000000" points="377.7054,-135.57 372.853,-144.9883 382.5196,-140.6517 377.7054,-135.57"/>
</g>
<!-- key1 -->
<g id="node12" class="node">
<title>key1</title>
<text text-anchor="start" x="255.8962" y="-13.8" font-family="Times,serif" font-size="14.00" fill="#000000">isA</text>
</g>
<!-- key2 -->
<g id="node13" class="node">
<title>key2</title>
<text text-anchor="start" x="334.8962" y="-13.8" font-family="Times,serif" font-size="14.00" fill="#000000"> </text>
</g>
<!-- key1&#45;&gt;key2 -->
<g id="edge11" class="edge">
<title>key1:e&#45;&gt;key2:w</title>
<path fill="none" stroke="#000000" d="M276.8962,-19C297.8962,-19 305.6071,-19 322.4543,-19"/>
<polygon fill="none" stroke="#000000" points="322.8962,-22.5001 332.8962,-19 322.8962,-15.5001 322.8962,-22.5001"/>
</g>
</g>
</svg>
