<?xml version="1.0" encoding="UTF-8" standalone="no"?>
<!DOCTYPE svg PUBLIC "-//W3C//DTD SVG 1.1//EN"
 "http://www.w3.org/Graphics/SVG/1.1/DTD/svg11.dtd">
<!-- Generated by graphviz version 2.40.1 (20161225.0304)
 -->
<!-- Title: %3 Pages: 1 -->
<svg width="660pt" height="260pt"
 viewBox="0.00 0.00 659.75 260.00" xmlns="http://www.w3.org/2000/svg" xmlns:xlink="http://www.w3.org/1999/xlink">
<g id="graph0" class="graph" transform="scale(1 1) rotate(0) translate(4 256)">
<title>%3</title>
<polygon fill="#ffffff" stroke="transparent" points="-4,4 -4,-256 655.7457,-256 655.7457,4 -4,4"/>
<!-- Atom -->
<g id="node1" class="node">
<title>Atom</title>
<g id="a_node1"><a xlink:href="http://emmo.info/emmo/middle/materials#EMMO_eb77076b_a104_42ac_a065_798b2d2809ad" xlink:title="Atom">
<ellipse fill="#ffffcc" stroke="#000000" cx="389.7457" cy="-162" rx="31.3957" ry="18"/>
<text text-anchor="middle" x="389.7457" y="-158.3" font-family="Times,serif" font-size="14.00" fill="#000000">Atom</text>
</a>
</g>
</g>
<!-- MaterialState -->
<g id="node5" class="node">
<title>MaterialState</title>
<g id="a_node5"><a xlink:href="http://emmo.info/emmo/middle/materials#EMMO_20fff605_465f_4034_8696_e53e90ec83f4" xlink:title="MaterialState">
<ellipse fill="#ffc880" stroke="#000000" stroke-width="2" cx="215.7457" cy="-234" rx="58.4896" ry="18"/>
<text text-anchor="middle" x="215.7457" y="-230.3" font-family="Times,serif" font-size="14.00" fill="#000000">MaterialState</text>
</a>
</g>
</g>
<!-- Atom&#45;&gt;MaterialState -->
<g id="edge9" class="edge">
<title>Atom&#45;&gt;MaterialState</title>
<path fill="none" stroke="#000000" d="M364.0714,-172.6238C336.7967,-183.9099 293.1607,-201.9662 260.2642,-215.5786"/>
<polygon fill="none" stroke="#000000" points="258.7642,-212.4114 250.8623,-219.469 261.4407,-218.8795 258.7642,-212.4114"/>
</g>
<!-- Subatomic -->
<g id="node2" class="node">
<title>Subatomic</title>
<g id="a_node2"><a xlink:href="http://emmo.info/emmo/middle/materials#EMMO_7d66bde4_b68d_41cc_b5fc_6fd98c5e2ff0" xlink:title="Subatomic">
<ellipse fill="#ffffcc" stroke="#000000" stroke-width="2" cx="48.7457" cy="-162" rx="48.9926" ry="18"/>
<text text-anchor="middle" x="48.7457" y="-158.3" font-family="Times,serif" font-size="14.00" fill="#000000">Subatomic</text>
</a>
</g>
</g>
<!-- Subatomic&#45;&gt;MaterialState -->
<g id="edge8" class="edge">
<title>Subatomic&#45;&gt;MaterialState</title>
<path fill="none" stroke="#000000" d="M80.5502,-175.7121C106.4826,-186.8926 143.3824,-202.8015 172.082,-215.1749"/>
<polygon fill="none" stroke="#000000" points="170.9042,-218.4785 181.4728,-219.2237 173.6756,-212.0505 170.9042,-218.4785"/>
</g>
<!-- Molecule -->
<g id="node3" class="node">
<title>Molecule</title>
<g id="a_node3"><a xlink:href="http://emmo.info/emmo/middle/materials#EMMO_3397f270_dfc1_4500_8f6f_4d0d85ac5f71" xlink:title="Molecule">
<ellipse fill="#ffffcc" stroke="#000000" cx="159.7457" cy="-162" rx="44.393" ry="18"/>
<text text-anchor="middle" x="159.7457" y="-158.3" font-family="Times,serif" font-size="14.00" fill="#000000">Molecule</text>
</a>
</g>
</g>
<!-- Molecule&#45;&gt;MaterialState -->
<g id="edge4" class="edge">
<title>Molecule&#45;&gt;MaterialState</title>
<path fill="none" stroke="#000000" d="M173.3017,-179.4292C180.0614,-188.1203 188.3678,-198.7999 195.8347,-208.4002"/>
<polygon fill="none" stroke="#000000" points="193.2182,-210.737 202.1204,-216.4818 198.7437,-206.4394 193.2182,-210.737"/>
</g>
<!-- Solid -->
<g id="node4" class="node">
<title>Solid</title>
<g id="a_node4"><a xlink:href="http://emmo.info/emmo/middle/materials#EMMO_a2b006f2_bbfd_4dba_bcaa_3fca20cd6be1" xlink:title="Solid">
<ellipse fill="#ffffcc" stroke="#000000" cx="196.7457" cy="-90" rx="29.4969" ry="18"/>
<text text-anchor="middle" x="196.7457" y="-86.3" font-family="Times,serif" font-size="14.00" fill="#000000">Solid</text>
</a>
</g>
</g>
<!-- Continuum -->
<g id="node9" class="node">
<title>Continuum</title>
<g id="a_node9"><a xlink:href="http://emmo.info/emmo/middle/materials#EMMO_8b0923ab_b500_477b_9ce9_8b3a3e4dc4f2" xlink:title="Continuum">
<ellipse fill="#ffffcc" stroke="#000000" cx="272.7457" cy="-162" rx="50.8918" ry="18"/>
<text text-anchor="middle" x="272.7457" y="-158.3" font-family="Times,serif" font-size="14.00" fill="#000000">Continuum</text>
</a>
</g>
</g>
<!-- Solid&#45;&gt;Continuum -->
<g id="edge1" class="edge">
<title>Solid&#45;&gt;Continuum</title>
<path fill="none" stroke="#000000" d="M212.8633,-105.2693C222.8469,-114.7274 235.8873,-127.0815 247.2493,-137.8455"/>
<polygon fill="none" stroke="#000000" points="245.1222,-140.6517 254.7889,-144.9883 249.9365,-135.57 245.1222,-140.6517"/>
</g>
<!-- IonAtom -->
<g id="node6" class="node">
<title>IonAtom</title>
<g id="a_node6"><a xlink:href="http://emmo.info/emmo/middle/materials#EMMO_db03061b_db31_4132_a47a_6a634846578b" xlink:title="IonAtom">
<ellipse fill="#ffffcc" stroke="#000000" cx="330.7457" cy="-18" rx="42.7926" ry="18"/>
<text text-anchor="middle" x="330.7457" y="-14.3" font-family="Times,serif" font-size="14.00" fill="#000000">IonAtom</text>
</a>
</g>
</g>
<!-- StandaloneAtom -->
<g id="node10" class="node">
<title>StandaloneAtom</title>
<g id="a_node10"><a xlink:href="http://emmo.info/emmo/middle/materials#EMMO_2fd3f574_5e93_47fe_afca_ed80b0a21ab4" xlink:title="StandaloneAtom">
<ellipse fill="#ffffcc" stroke="#000000" cx="389.7457" cy="-90" rx="70.3881" ry="18"/>
<text text-anchor="middle" x="389.7457" y="-86.3" font-family="Times,serif" font-size="14.00" fill="#000000">StandaloneAtom</text>
</a>
</g>
</g>
<!-- IonAtom&#45;&gt;StandaloneAtom -->
<g id="edge10" class="edge">
<title>IonAtom&#45;&gt;StandaloneAtom</title>
<path fill="none" stroke="#000000" d="M344.7279,-35.063C351.9158,-43.8348 360.8221,-54.7035 368.8109,-64.4524"/>
<polygon fill="none" stroke="#000000" points="366.2023,-66.7912 375.2477,-72.3076 371.6166,-62.3544 366.2023,-66.7912"/>
</g>
<!-- Fluid -->
<g id="node7" class="node">
<title>Fluid</title>
<g id="a_node7"><a xlink:href="http://emmo.info/emmo/middle/materials#EMMO_87ac88ff_8379_4f5a_8c7b_424a8fff1ee8" xlink:title="Fluid">
<ellipse fill="#ffffcc" stroke="#000000" cx="272.7457" cy="-90" rx="29.4969" ry="18"/>
<text text-anchor="middle" x="272.7457" y="-86.3" font-family="Times,serif" font-size="14.00" fill="#000000">Fluid</text>
</a>
</g>
</g>
<!-- Fluid&#45;&gt;Continuum -->
<g id="edge7" class="edge">
<title>Fluid&#45;&gt;Continuum</title>
<path fill="none" stroke="#000000" d="M272.7457,-108.1686C272.7457,-115.869 272.7457,-125.0257 272.7457,-133.5834"/>
<polygon fill="none" stroke="#000000" points="269.2458,-133.5867 272.7457,-143.5867 276.2458,-133.5868 269.2458,-133.5867"/>
</g>
<!-- NeutralAtom -->
<g id="node8" class="node">
<title>NeutralAtom</title>
<g id="a_node8"><a xlink:href="http://emmo.info/emmo/middle/materials#EMMO_4588526f_8553_4f4d_aa73_a483e88d599b" xlink:title="NeutralAtom">
<ellipse fill="#ffffcc" stroke="#000000" cx="449.7457" cy="-18" rx="57.6901" ry="18"/>
<text text-anchor="middle" x="449.7457" y="-14.3" font-family="Times,serif" font-size="14.00" fill="#000000">NeutralAtom</text>
</a>
</g>
</g>
<!-- NeutralAtom&#45;&gt;StandaloneAtom -->
<g id="edge2" class="edge">
<title>NeutralAtom&#45;&gt;StandaloneAtom</title>
<path fill="none" stroke="#000000" d="M435.2213,-35.4292C427.9598,-44.143 419.0325,-54.8559 411.016,-64.4756"/>
<polygon fill="none" stroke="#000000" points="408.2662,-62.3082 404.5531,-72.2311 413.6437,-66.7895 408.2662,-62.3082"/>
</g>
<!-- Continuum&#45;&gt;MaterialState -->
<g id="edge6" class="edge">
<title>Continuum&#45;&gt;MaterialState</title>
<path fill="none" stroke="#000000" d="M258.9476,-179.4292C252.0671,-188.1203 243.6124,-198.7999 236.0122,-208.4002"/>
<polygon fill="none" stroke="#000000" points="233.0772,-206.4688 229.6143,-216.4818 238.5655,-210.8138 233.0772,-206.4688"/>
</g>
<!-- StandaloneAtom&#45;&gt;Atom -->
<g id="edge5" class="edge">
<title>StandaloneAtom&#45;&gt;Atom</title>
<path fill="none" stroke="#000000" d="M389.7457,-108.1686C389.7457,-115.869 389.7457,-125.0257 389.7457,-133.5834"/>
<polygon fill="none" stroke="#000000" points="386.2458,-133.5867 389.7457,-143.5867 393.2458,-133.5868 386.2458,-133.5867"/>
</g>
<!-- BondedAtom -->
<g id="node11" class="node">
<title>BondedAtom</title>
<g id="a_node11"><a xlink:href="http://emmo.info/emmo/middle/materials#EMMO_8303a247_f9d9_4616_bdcd_f5cbd7b298e3" xlink:title="BondedAtom">
<ellipse fill="#ffffcc" stroke="#000000" cx="536.7457" cy="-90" rx="58.4896" ry="18"/>
<text text-anchor="middle" x="536.7457" y="-86.3" font-family="Times,serif" font-size="14.00" fill="#000000">BondedAtom</text>
</a>
</g>
</g>
<!-- BondedAtom&#45;&gt;Atom -->
<g id="edge3" class="edge">
<title>BondedAtom&#45;&gt;Atom</title>
<path fill="none" stroke="#000000" d="M505.5708,-105.2693C481.2084,-117.2019 447.4349,-133.7441 422.6429,-145.8871"/>
<polygon fill="none" stroke="#000000" points="421.0603,-142.7649 413.6192,-150.3068 424.1394,-149.0513 421.0603,-142.7649"/>
</g>
<!-- key1 -->
<g id="node12" class="node">
<title>key1</title>
<text text-anchor="start" x="543.7457" y="-13.8" font-family="Times,serif" font-size="14.00" fill="#000000">isA</text>
</g>
<!-- key2 -->
<g id="node13" class="node">
<title>key2</title>
<text text-anchor="start" x="622.7457" y="-13.8" font-family="Times,serif" font-size="14.00" fill="#000000"> </text>
</g>
<!-- key1&#45;&gt;key2 -->
<g id="edge11" class="edge">
<title>key1:e&#45;&gt;key2:w</title>
<path fill="none" stroke="#000000" d="M564.7457,-19C585.7457,-19 593.4566,-19 610.3038,-19"/>
<polygon fill="none" stroke="#000000" points="610.7457,-22.5001 620.7457,-19 610.7456,-15.5001 610.7457,-22.5001"/>
</g>
</g>
</svg>
