<?xml version="1.0" encoding="UTF-8" standalone="no"?>
<!DOCTYPE svg PUBLIC "-//W3C//DTD SVG 1.1//EN"
 "http://www.w3.org/Graphics/SVG/1.1/DTD/svg11.dtd">
<!-- Generated by graphviz version 2.40.1 (20161225.0304)
 -->
<!-- Title: %3 Pages: 1 -->
<svg width="614pt" height="305pt"
 viewBox="0.00 0.00 614.09 305.00" xmlns="http://www.w3.org/2000/svg" xmlns:xlink="http://www.w3.org/1999/xlink">
<g id="graph0" class="graph" transform="scale(1 1) rotate(0) translate(4 301)">
<title>%3</title>
<polygon fill="#ffffff" stroke="transparent" points="-4,4 -4,-301 610.0923,-301 610.0923,4 -4,4"/>
<!-- Solid -->
<g id="node1" class="node">
<title>Solid</title>
<g id="a_node1"><a xlink:href="http://emmo.info/emmo/middle/materials#EMMO_a2b006f2_bbfd_4dba_bcaa_3fca20cd6be1" xlink:title="Solid">
<ellipse fill="#ffffcc" stroke="#000000" cx="29.2474" cy="-105" rx="29.4969" ry="18"/>
<text text-anchor="middle" x="29.2474" y="-101.3" font-family="Times,serif" font-size="14.00" fill="#000000">Solid</text>
</a>
</g>
</g>
<!-- Continuum -->
<g id="node6" class="node">
<title>Continuum</title>
<g id="a_node6"><a xlink:href="http://emmo.info/emmo/middle/materials#EMMO_8b0923ab_b500_477b_9ce9_8b3a3e4dc4f2" xlink:title="Continuum">
<ellipse fill="#ffffcc" stroke="#000000" cx="67.2474" cy="-192" rx="50.8918" ry="18"/>
<text text-anchor="middle" x="67.2474" y="-188.3" font-family="Times,serif" font-size="14.00" fill="#000000">Continuum</text>
</a>
</g>
</g>
<!-- Solid&#45;&gt;Continuum -->
<g id="edge5" class="edge">
<title>Solid&#45;&gt;Continuum</title>
<path fill="none" stroke="#000000" d="M36.9373,-122.6057C42.2075,-134.6719 49.3032,-150.9172 55.3042,-164.6562"/>
<polygon fill="none" stroke="#000000" points="52.2284,-166.3588 59.4385,-174.1218 58.6432,-163.5569 52.2284,-166.3588"/>
<text text-anchor="middle" x="60.7474" y="-144.8" font-family="Times,serif" font-size="14.00" fill="#000000">isA</text>
</g>
<!-- Molecule -->
<g id="node2" class="node">
<title>Molecule</title>
<g id="a_node2"><a xlink:href="http://emmo.info/emmo/middle/materials#EMMO_3397f270_dfc1_4500_8f6f_4d0d85ac5f71" xlink:title="Molecule">
<ellipse fill="#ffffcc" stroke="#000000" cx="180.2474" cy="-192" rx="44.393" ry="18"/>
<text text-anchor="middle" x="180.2474" y="-188.3" font-family="Times,serif" font-size="14.00" fill="#000000">Molecule</text>
</a>
</g>
</g>
<!-- MaterialState -->
<g id="node7" class="node">
<title>MaterialState</title>
<g id="a_node7"><a xlink:href="http://emmo.info/emmo/middle/materials#EMMO_20fff605_465f_4034_8696_e53e90ec83f4" xlink:title="MaterialState">
<ellipse fill="#ffc880" stroke="#000000" stroke-width="2" cx="235.2474" cy="-279" rx="58.4896" ry="18"/>
<text text-anchor="middle" x="235.2474" y="-275.3" font-family="Times,serif" font-size="14.00" fill="#000000">MaterialState</text>
</a>
</g>
</g>
<!-- Molecule&#45;&gt;MaterialState -->
<g id="edge6" class="edge">
<title>Molecule&#45;&gt;MaterialState</title>
<path fill="none" stroke="#000000" d="M191.3775,-209.6057C199.1536,-221.9062 209.6754,-238.5497 218.4653,-252.4537"/>
<polygon fill="none" stroke="#000000" points="215.6431,-254.5395 223.9451,-261.1218 221.5599,-250.799 215.6431,-254.5395"/>
<text text-anchor="middle" x="219.7474" y="-231.8" font-family="Times,serif" font-size="14.00" fill="#000000">isA</text>
</g>
<!-- Fluid -->
<g id="node3" class="node">
<title>Fluid</title>
<g id="a_node3"><a xlink:href="http://emmo.info/emmo/middle/materials#EMMO_87ac88ff_8379_4f5a_8c7b_424a8fff1ee8" xlink:title="Fluid">
<ellipse fill="#ffffcc" stroke="#000000" cx="105.2474" cy="-105" rx="29.4969" ry="18"/>
<text text-anchor="middle" x="105.2474" y="-101.3" font-family="Times,serif" font-size="14.00" fill="#000000">Fluid</text>
</a>
</g>
</g>
<!-- Fluid&#45;&gt;Continuum -->
<g id="edge1" class="edge">
<title>Fluid&#45;&gt;Continuum</title>
<path fill="none" stroke="#000000" d="M97.5575,-122.6057C92.2873,-134.6719 85.1916,-150.9172 79.1907,-164.6562"/>
<polygon fill="none" stroke="#000000" points="75.8516,-163.5569 75.0563,-174.1218 82.2664,-166.3588 75.8516,-163.5569"/>
<text text-anchor="middle" x="97.7474" y="-144.8" font-family="Times,serif" font-size="14.00" fill="#000000">isA</text>
</g>
<!-- Subatomic -->
<g id="node4" class="node">
<title>Subatomic</title>
<g id="a_node4"><a xlink:href="http://emmo.info/emmo/middle/materials#EMMO_7d66bde4_b68d_41cc_b5fc_6fd98c5e2ff0" xlink:title="Subatomic">
<ellipse fill="#ffffcc" stroke="#000000" stroke-width="2" cx="291.2474" cy="-192" rx="48.9926" ry="18"/>
<text text-anchor="middle" x="291.2474" y="-188.3" font-family="Times,serif" font-size="14.00" fill="#000000">Subatomic</text>
</a>
</g>
</g>
<!-- Subatomic&#45;&gt;MaterialState -->
<g id="edge10" class="edge">
<title>Subatomic&#45;&gt;MaterialState</title>
<path fill="none" stroke="#000000" d="M279.915,-209.6057C271.9975,-221.9062 261.2844,-238.5497 252.3347,-252.4537"/>
<polygon fill="none" stroke="#000000" points="249.2247,-250.8188 246.7552,-261.1218 255.1107,-254.6075 249.2247,-250.8188"/>
<text text-anchor="middle" x="275.7474" y="-231.8" font-family="Times,serif" font-size="14.00" fill="#000000">isA</text>
</g>
<!-- IonAtom -->
<g id="node5" class="node">
<title>IonAtom</title>
<g id="a_node5"><a xlink:href="http://emmo.info/emmo/middle/materials#EMMO_db03061b_db31_4132_a47a_6a634846578b" xlink:title="IonAtom">
<ellipse fill="#ffffcc" stroke="#000000" cx="429.2474" cy="-18" rx="42.7926" ry="18"/>
<text text-anchor="middle" x="429.2474" y="-14.3" font-family="Times,serif" font-size="14.00" fill="#000000">IonAtom</text>
</a>
</g>
</g>
<!-- StandaloneAtom -->
<g id="node10" class="node">
<title>StandaloneAtom</title>
<g id="a_node10"><a xlink:href="http://emmo.info/emmo/middle/materials#EMMO_2fd3f574_5e93_47fe_afca_ed80b0a21ab4" xlink:title="StandaloneAtom">
<ellipse fill="#ffffcc" stroke="#000000" cx="489.2474" cy="-105" rx="70.3881" ry="18"/>
<text text-anchor="middle" x="489.2474" y="-101.3" font-family="Times,serif" font-size="14.00" fill="#000000">StandaloneAtom</text>
</a>
</g>
</g>
<!-- IonAtom&#45;&gt;StandaloneAtom -->
<g id="edge3" class="edge">
<title>IonAtom&#45;&gt;StandaloneAtom</title>
<path fill="none" stroke="#000000" d="M441.3893,-35.6057C449.9531,-48.0233 461.5695,-64.8671 471.2131,-78.8502"/>
<polygon fill="none" stroke="#000000" points="468.359,-80.8768 476.9176,-87.1218 474.1215,-76.9026 468.359,-80.8768"/>
<text text-anchor="middle" x="471.7474" y="-57.8" font-family="Times,serif" font-size="14.00" fill="#000000">isA</text>
</g>
<!-- Continuum&#45;&gt;MaterialState -->
<g id="edge8" class="edge">
<title>Continuum&#45;&gt;MaterialState</title>
<path fill="none" stroke="#000000" d="M96.1276,-206.9558C123.7593,-221.2651 165.6379,-242.9522 196.2283,-258.7937"/>
<polygon fill="none" stroke="#000000" points="194.8417,-262.017 205.3311,-263.5077 198.0607,-255.8011 194.8417,-262.017"/>
<text text-anchor="middle" x="170.7474" y="-231.8" font-family="Times,serif" font-size="14.00" fill="#000000">isA</text>
</g>
<!-- NeutralAtom -->
<g id="node8" class="node">
<title>NeutralAtom</title>
<g id="a_node8"><a xlink:href="http://emmo.info/emmo/middle/materials#EMMO_4588526f_8553_4f4d_aa73_a483e88d599b" xlink:title="NeutralAtom">
<ellipse fill="#ffffcc" stroke="#000000" cx="548.2474" cy="-18" rx="57.6901" ry="18"/>
<text text-anchor="middle" x="548.2474" y="-14.3" font-family="Times,serif" font-size="14.00" fill="#000000">NeutralAtom</text>
</a>
</g>
</g>
<!-- NeutralAtom&#45;&gt;StandaloneAtom -->
<g id="edge2" class="edge">
<title>NeutralAtom&#45;&gt;StandaloneAtom</title>
<path fill="none" stroke="#000000" d="M536.0226,-36.0265C527.7162,-48.2748 516.5885,-64.6835 507.2706,-78.4234"/>
<polygon fill="none" stroke="#000000" points="504.1726,-76.7558 501.4566,-86.9966 509.966,-80.6847 504.1726,-76.7558"/>
<text text-anchor="middle" x="531.7474" y="-57.8" font-family="Times,serif" font-size="14.00" fill="#000000">isA</text>
</g>
<!-- BondedAtom -->
<g id="node9" class="node">
<title>BondedAtom</title>
<g id="a_node9"><a xlink:href="http://emmo.info/emmo/middle/materials#EMMO_8303a247_f9d9_4616_bdcd_f5cbd7b298e3" xlink:title="BondedAtom">
<ellipse fill="#ffffcc" stroke="#000000" cx="342.2474" cy="-105" rx="58.4896" ry="18"/>
<text text-anchor="middle" x="342.2474" y="-101.3" font-family="Times,serif" font-size="14.00" fill="#000000">BondedAtom</text>
</a>
</g>
</g>
<!-- Atom -->
<g id="node11" class="node">
<title>Atom</title>
<g id="a_node11"><a xlink:href="http://emmo.info/emmo/middle/materials#EMMO_eb77076b_a104_42ac_a065_798b2d2809ad" xlink:title="Atom">
<ellipse fill="#ffffcc" stroke="#000000" cx="389.2474" cy="-192" rx="31.3957" ry="18"/>
<text text-anchor="middle" x="389.2474" y="-188.3" font-family="Times,serif" font-size="14.00" fill="#000000">Atom</text>
</a>
</g>
</g>
<!-- BondedAtom&#45;&gt;Atom -->
<g id="edge9" class="edge">
<title>BondedAtom&#45;&gt;Atom</title>
<path fill="none" stroke="#000000" d="M351.9858,-123.0265C358.6271,-135.3199 367.5325,-151.8044 374.9719,-165.5751"/>
<polygon fill="none" stroke="#000000" points="372.0097,-167.4557 379.8422,-174.5903 378.1684,-164.1285 372.0097,-167.4557"/>
<text text-anchor="middle" x="377.7474" y="-144.8" font-family="Times,serif" font-size="14.00" fill="#000000">isA</text>
</g>
<!-- StandaloneAtom&#45;&gt;Atom -->
<g id="edge4" class="edge">
<title>StandaloneAtom&#45;&gt;Atom</title>
<path fill="none" stroke="#000000" d="M469.0109,-122.6057C453.3164,-136.26 431.4706,-155.2659 414.6089,-169.9355"/>
<polygon fill="none" stroke="#000000" points="412.0277,-167.542 406.7805,-176.7462 416.6223,-172.8231 412.0277,-167.542"/>
<text text-anchor="middle" x="453.7474" y="-144.8" font-family="Times,serif" font-size="14.00" fill="#000000">isA</text>
</g>
<!-- Atom&#45;&gt;MaterialState -->
<g id="edge7" class="edge">
<title>Atom&#45;&gt;MaterialState</title>
<path fill="none" stroke="#000000" d="M366.8545,-204.6505C342.0576,-218.6592 301.6941,-241.462 272.1968,-258.126"/>
<polygon fill="none" stroke="#000000" points="270.4057,-255.1179 263.4206,-263.084 273.8488,-261.2126 270.4057,-255.1179"/>
<text text-anchor="middle" x="330.7474" y="-231.8" font-family="Times,serif" font-size="14.00" fill="#000000">isA</text>
</g>
</g>
</svg>
