<?xml version="1.0" encoding="UTF-8" standalone="no"?>
<!DOCTYPE svg PUBLIC "-//W3C//DTD SVG 1.1//EN"
 "http://www.w3.org/Graphics/SVG/1.1/DTD/svg11.dtd">
<!-- Generated by graphviz version 2.40.1 (20161225.0304)
 -->
<!-- Title: %3 Pages: 1 -->
<svg width="1115pt" height="217pt"
 viewBox="0.00 0.00 1115.05 217.00" xmlns="http://www.w3.org/2000/svg" xmlns:xlink="http://www.w3.org/1999/xlink">
<g id="graph0" class="graph" transform="scale(1 1) rotate(0) translate(4 213)">
<title>%3</title>
<polygon fill="#ffffff" stroke="transparent" points="-4,4 -4,-213 1111.0456,-213 1111.0456,4 -4,4"/>
<!-- Numerical -->
<g id="node1" class="node">
<title>Numerical</title>
<g id="a_node1"><a xlink:href="http://emmo.info/emmo/middle/math#EMMO_4ce76d7f_03f8_45b6_9003_90052a79bfaa" xlink:title="Numerical">
<ellipse fill="#ffffcc" stroke="#000000" cx="460.0456" cy="-119" rx="48.1917" ry="18"/>
<text text-anchor="middle" x="460.0456" y="-115.3" font-family="Times,serif" font-size="14.00" fill="#000000">Numerical</text>
</a>
</g>
</g>
<!-- Mathematical -->
<g id="node3" class="node">
<title>Mathematical</title>
<g id="a_node3"><a xlink:href="http://emmo.info/emmo/middle/math#EMMO_54ee6b5e_5261_44a8_86eb_5717e7fdb9d0" xlink:title="Mathematical">
<ellipse fill="#ffffcc" stroke="#000000" stroke-width="2" cx="513.0456" cy="-191" rx="59.5901" ry="18"/>
<text text-anchor="middle" x="513.0456" y="-187.3" font-family="Times,serif" font-size="14.00" fill="#000000">Mathematical</text>
</a>
</g>
</g>
<!-- Numerical&#45;&gt;Mathematical -->
<g id="edge3" class="edge">
<title>Numerical&#45;&gt;Mathematical</title>
<path fill="none" stroke="#000000" d="M472.8754,-136.4292C479.1615,-144.9688 486.8607,-155.4281 493.8309,-164.8971"/>
<polygon fill="none" stroke="#000000" points="491.2188,-167.2526 499.9657,-173.2311 496.8562,-163.1029 491.2188,-167.2526"/>
</g>
<!-- Constant -->
<g id="node2" class="node">
<title>Constant</title>
<g id="a_node2"><a xlink:href="http://emmo.info/emmo/middle/math#EMMO_ae15fb4f_8e4d_41de_a0f9_3997f89ba6a2" xlink:title="Constant">
<ellipse fill="#ffffcc" stroke="#000000" cx="461.0456" cy="-32.5" rx="42.4939" ry="18"/>
<text text-anchor="middle" x="461.0456" y="-28.8" font-family="Times,serif" font-size="14.00" fill="#000000">Constant</text>
</a>
</g>
</g>
<!-- Constant&#45;&gt;Numerical -->
<g id="edge8" class="edge">
<title>Constant&#45;&gt;Numerical</title>
<path fill="none" stroke="#ffa500" stroke-dasharray="5,2" d="M460.8335,-50.8444C460.7,-62.3901 460.525,-77.528 460.3738,-90.6039"/>
<polygon fill="#ffa500" stroke="#ffa500" points="456.7541,-100.9381 460.3696,-90.9793 463.7537,-101.0191 456.7541,-100.9381"/>
</g>
<!-- Variable -->
<g id="node7" class="node">
<title>Variable</title>
<g id="a_node7"><a xlink:href="http://emmo.info/emmo/middle/math#EMMO_1eed0732_e3f1_4b2c_a9c4_b4e75eeb5895" xlink:title="Variable">
<ellipse fill="#ffffcc" stroke="#000000" cx="567.0456" cy="-119" rx="40.8928" ry="18"/>
<text text-anchor="middle" x="567.0456" y="-115.3" font-family="Times,serif" font-size="14.00" fill="#000000">Variable</text>
</a>
</g>
</g>
<!-- Constant&#45;&gt;Variable -->
<g id="edge7" class="edge">
<title>Constant&#45;&gt;Variable</title>
<path fill="none" stroke="#000000" d="M480.9833,-48.77C497.5215,-62.2658 521.2109,-81.5972 539.5504,-96.5629"/>
<polygon fill="none" stroke="#000000" points="537.5947,-99.4845 547.5553,-103.0952 542.0204,-94.0611 537.5947,-99.4845"/>
</g>
<!-- Expression -->
<g id="node4" class="node">
<title>Expression</title>
<g id="a_node4"><a xlink:href="http://emmo.info/emmo/middle/math#EMMO_f9bc8b52_85e9_4b53_b969_dd7724d5b8e4" xlink:title="Expression">
<ellipse fill="#ffffcc" stroke="#000000" stroke-width="2" cx="50.0456" cy="-119" rx="50.0912" ry="18"/>
<text text-anchor="middle" x="50.0456" y="-115.3" font-family="Times,serif" font-size="14.00" fill="#000000">Expression</text>
</a>
</g>
</g>
<!-- Expression&#45;&gt;Mathematical -->
<g id="edge2" class="edge">
<title>Expression&#45;&gt;Mathematical</title>
<path fill="none" stroke="#000000" d="M86.9401,-131.2642C94.2114,-133.3945 101.8256,-135.4272 109.0456,-137 225.9085,-162.4582 364.5661,-177.8388 445.2968,-185.3515"/>
<polygon fill="none" stroke="#000000" points="445.0532,-188.8437 455.3312,-186.2724 445.693,-181.873 445.0532,-188.8437"/>
</g>
<!-- MathematicalSymbol -->
<g id="node5" class="node">
<title>MathematicalSymbol</title>
<g id="a_node5"><a xlink:href="http://emmo.info/emmo/middle/math#EMMO_5be83f9c_a4ba_4b9a_be1a_5bfc6e891231" xlink:title="MathematicalSymbol">
<ellipse fill="#ffc880" stroke="#000000" stroke-width="2" cx="206.0456" cy="-119" rx="87.9851" ry="18"/>
<text text-anchor="middle" x="206.0456" y="-115.3" font-family="Times,serif" font-size="14.00" fill="#000000">MathematicalSymbol</text>
</a>
</g>
</g>
<!-- MathematicalSymbol&#45;&gt;Mathematical -->
<g id="edge5" class="edge">
<title>MathematicalSymbol&#45;&gt;Mathematical</title>
<path fill="none" stroke="#000000" d="M264.1508,-132.6273C319.1364,-145.5229 401.1787,-164.7641 455.86,-177.5884"/>
<polygon fill="none" stroke="#000000" points="455.2041,-181.0295 465.7391,-179.9053 456.8025,-174.2144 455.2041,-181.0295"/>
</g>
<!-- Formula -->
<g id="node6" class="node">
<title>Formula</title>
<g id="a_node6"><a xlink:href="http://emmo.info/emmo/middle/math#EMMO_88470739_03d3_4c47_a03e_b30a1288d50c" xlink:title="Formula">
<ellipse fill="#ffffcc" stroke="#000000" stroke-width="2" cx="353.0456" cy="-119" rx="40.8928" ry="18"/>
<text text-anchor="middle" x="353.0456" y="-115.3" font-family="Times,serif" font-size="14.00" fill="#000000">Formula</text>
</a>
</g>
</g>
<!-- Formula&#45;&gt;Mathematical -->
<g id="edge13" class="edge">
<title>Formula&#45;&gt;Mathematical</title>
<path fill="none" stroke="#000000" d="M382.0204,-132.0387C406.6972,-143.1433 442.4909,-159.2504 470.4334,-171.8245"/>
<polygon fill="none" stroke="#000000" points="469.0257,-175.0291 479.5812,-175.941 471.8983,-168.6456 469.0257,-175.0291"/>
</g>
<!-- Variable&#45;&gt;Mathematical -->
<g id="edge10" class="edge">
<title>Variable&#45;&gt;Mathematical</title>
<path fill="none" stroke="#000000" d="M549.0313,-135.3379C541.5615,-144.0022 533.1634,-154.8585 526.2592,-164.6773"/>
<polygon fill="none" stroke="#000000" points="523.3588,-162.7183 520.6373,-172.9577 529.1501,-166.6503 523.3588,-162.7183"/>
</g>
<!-- Variable&#45;&gt;Mathematical -->
<g id="edge11" class="edge">
<title>Variable&#45;&gt;Mathematical</title>
<path fill="none" stroke="#ffa500" stroke-dasharray="5,2" d="M559.613,-136.7978C553.9058,-145.5818 546.0295,-156.328 538.3147,-165.9286"/>
<polygon fill="#ffa500" stroke="#ffa500" points="529.2265,-171.4246 538.2972,-165.9498 534.6204,-175.8862 529.2265,-171.4246"/>
</g>
<!-- Vector -->
<g id="node8" class="node">
<title>Vector</title>
<g id="a_node8"><a xlink:href="http://emmo.info/emmo/middle/math#EMMO_06658d8d_dcde_4fc9_aae1_17f71c0bcdec" xlink:title="Vector">
<ellipse fill="#ffffcc" stroke="#000000" cx="808.0456" cy="-32.5" rx="34.394" ry="18"/>
<text text-anchor="middle" x="808.0456" y="-28.8" font-family="Times,serif" font-size="14.00" fill="#000000">Vector</text>
</a>
</g>
</g>
<!-- Array -->
<g id="node12" class="node">
<title>Array</title>
<g id="a_node12"><a xlink:href="http://emmo.info/emmo/top/math#EMMO_28fbea28_2204_4613_87ff_6d877b855fcd" xlink:title="Array">
<ellipse fill="#ffffcc" stroke="#000000" cx="841.0456" cy="-119" rx="31.3957" ry="18"/>
<text text-anchor="middle" x="841.0456" y="-115.3" font-family="Times,serif" font-size="14.00" fill="#000000">Array</text>
</a>
</g>
</g>
<!-- Vector&#45;&gt;Array -->
<g id="edge15" class="edge">
<title>Vector&#45;&gt;Array</title>
<path fill="none" stroke="#000000" d="M814.8832,-50.4229C819.4265,-62.3318 825.4788,-78.1963 830.6179,-91.6668"/>
<polygon fill="none" stroke="#000000" points="827.495,-93.3005 834.3296,-101.3961 834.0352,-90.8053 827.495,-93.3005"/>
</g>
<!-- Unknown -->
<g id="node9" class="node">
<title>Unknown</title>
<g id="a_node9"><a xlink:href="http://emmo.info/emmo/middle/math#EMMO_fe7e56ce_118b_4243_9aad_20eb9f4f31f6" xlink:title="Unknown">
<ellipse fill="#ffffcc" stroke="#000000" cx="567.0456" cy="-32.5" rx="45.4919" ry="18"/>
<text text-anchor="middle" x="567.0456" y="-28.8" font-family="Times,serif" font-size="14.00" fill="#000000">Unknown</text>
</a>
</g>
</g>
<!-- Unknown&#45;&gt;Variable -->
<g id="edge6" class="edge">
<title>Unknown&#45;&gt;Variable</title>
<path fill="none" stroke="#000000" d="M567.0456,-50.8444C567.0456,-62.3901 567.0456,-77.528 567.0456,-90.6039"/>
<polygon fill="none" stroke="#000000" points="563.5457,-90.9786 567.0456,-100.9786 570.5457,-90.9787 563.5457,-90.9786"/>
</g>
<!-- Matrix -->
<g id="node10" class="node">
<title>Matrix</title>
<g id="a_node10"><a xlink:href="http://emmo.info/emmo/top/math#EMMO_1cba0b27_15d0_4326_933f_379d0b3565b6" xlink:title="Matrix">
<ellipse fill="#ffffcc" stroke="#000000" cx="896.0456" cy="-32.5" rx="35.194" ry="18"/>
<text text-anchor="middle" x="896.0456" y="-28.8" font-family="Times,serif" font-size="14.00" fill="#000000">Matrix</text>
</a>
</g>
</g>
<!-- Matrix&#45;&gt;Array -->
<g id="edge9" class="edge">
<title>Matrix&#45;&gt;Array</title>
<path fill="none" stroke="#000000" d="M884.9155,-50.0046C877.0364,-62.3963 866.3384,-79.2213 857.4794,-93.1541"/>
<polygon fill="none" stroke="#000000" points="854.3835,-91.5001 851.9714,-101.8167 860.2905,-95.256 854.3835,-91.5001"/>
</g>
<!-- MathematicalModel -->
<g id="node11" class="node">
<title>MathematicalModel</title>
<g id="a_node11"><a xlink:href="http://emmo.info/emmo/middle/models#EMMO_f7ed665b_c2e1_42bc_889b_6b42ed3a36f0" xlink:title="MathematicalModel">
<ellipse fill="#ffc880" stroke="#000000" stroke-width="2" cx="709.0456" cy="-119" rx="83.3857" ry="18"/>
<text text-anchor="middle" x="709.0456" y="-115.3" font-family="Times,serif" font-size="14.00" fill="#000000">MathematicalModel</text>
</a>
</g>
</g>
<!-- MathematicalModel&#45;&gt;Mathematical -->
<g id="edge4" class="edge">
<title>MathematicalModel&#45;&gt;Mathematical</title>
<path fill="none" stroke="#000000" d="M666.5165,-134.6229C635.3964,-146.0548 593.1488,-161.5743 560.8579,-173.4363"/>
<polygon fill="none" stroke="#000000" points="559.3595,-170.258 551.1797,-176.9916 561.7732,-176.8287 559.3595,-170.258"/>
</g>
<!-- Array&#45;&gt;Mathematical -->
<g id="edge1" class="edge">
<title>Array&#45;&gt;Mathematical</title>
<path fill="none" stroke="#000000" d="M817.2928,-130.7989C812.0328,-133.0967 806.4222,-135.3126 801.0456,-137 726.6007,-160.3634 637.9809,-175.115 578.8937,-183.1876"/>
<polygon fill="none" stroke="#000000" points="578.3899,-179.7237 568.9438,-184.5219 579.3204,-186.6616 578.3899,-179.7237"/>
</g>
<!-- Parameter -->
<g id="node13" class="node">
<title>Parameter</title>
<g id="a_node13"><a xlink:href="http://emmo.info/emmo/middle/math#EMMO_d1d436e7_72fc_49cd_863b_7bfb4ba5276a" xlink:title="Parameter">
<ellipse fill="#ffffcc" stroke="#000000" cx="677.0456" cy="-32.5" rx="46.5926" ry="18"/>
<text text-anchor="middle" x="677.0456" y="-28.8" font-family="Times,serif" font-size="14.00" fill="#000000">Parameter</text>
</a>
</g>
</g>
<!-- Parameter&#45;&gt;Variable -->
<g id="edge14" class="edge">
<title>Parameter&#45;&gt;Variable</title>
<path fill="none" stroke="#000000" d="M656.3554,-48.77C639.1158,-62.3266 614.3883,-81.7714 595.3214,-96.7649"/>
<polygon fill="none" stroke="#000000" points="592.9685,-94.1626 587.2713,-103.0952 597.2955,-99.6651 592.9685,-94.1626"/>
</g>
<!-- PhysicalQuantity -->
<g id="node14" class="node">
<title>PhysicalQuantity</title>
<g id="a_node14"><a xlink:href="http://emmo.info/emmo/middle/metrology#EMMO_02c0621e_a527_4790_8a0f_2bb51973c819" xlink:title="PhysicalQuantity">
<ellipse fill="#ffffcc" stroke="#000000" stroke-width="2" cx="962.0456" cy="-119" rx="71.4873" ry="18"/>
<text text-anchor="middle" x="962.0456" y="-115.3" font-family="Times,serif" font-size="14.00" fill="#000000">PhysicalQuantity</text>
</a>
</g>
</g>
<!-- PhysicalQuantity&#45;&gt;Mathematical -->
<g id="edge12" class="edge">
<title>PhysicalQuantity&#45;&gt;Mathematical</title>
<path fill="none" stroke="#000000" d="M909.4377,-131.2749C900.0085,-133.3081 890.2542,-135.3035 881.0456,-137 775.6633,-156.4142 652.2727,-173.3494 578.5013,-182.8617"/>
<polygon fill="none" stroke="#000000" points="577.9014,-179.4099 568.4282,-184.1542 578.7923,-186.353 577.9014,-179.4099"/>
</g>
<!-- key1 -->
<g id="node15" class="node">
<title>key1</title>
<text text-anchor="start" x="1006.0456" y="-47.3" font-family="Times,serif" font-size="14.00" fill="#000000">isA</text>
<text text-anchor="start" x="960.0456" y="-28.3" font-family="Times,serif" font-size="14.00" fill="#000000">hasVariable</text>
<text text-anchor="start" x="985.0456" y="-9.3" font-family="Times,serif" font-size="14.00" fill="#000000">inverse</text>
</g>
<!-- key2 -->
<g id="node16" class="node">
<title>key2</title>
<text text-anchor="start" x="1078.0456" y="-47.3" font-family="Times,serif" font-size="14.00" fill="#000000"> </text>
<text text-anchor="start" x="1078.0456" y="-28.3" font-family="Times,serif" font-size="14.00" fill="#000000"> </text>
<text text-anchor="start" x="1078.0456" y="-9.3" font-family="Times,serif" font-size="14.00" fill="#000000"> </text>
</g>
<!-- key1&#45;&gt;key2 -->
<g id="edge16" class="edge">
<title>key1:e&#45;&gt;key2:w</title>
<path fill="none" stroke="#000000" d="M1027.0456,-13.5C1044.9101,-13.5 1051.7838,-13.5 1065.6985,-13.5"/>
<polygon fill="#000000" stroke="#000000" points="1076.0456,-17 1066.0456,-13.5001 1076.0455,-10 1076.0456,-17"/>
</g>
<!-- key1&#45;&gt;key2 -->
<g id="edge17" class="edge">
<title>key1:e&#45;&gt;key2:w</title>
<path fill="none" stroke="#ffa500" stroke-dasharray="5,2" d="M1027.0456,-33.5C1044.9101,-33.5 1051.7838,-33.5 1065.6985,-33.5"/>
<polygon fill="#ffa500" stroke="#ffa500" points="1066.0456,-37.0001 1076.0456,-33.5 1066.0455,-30.0001 1066.0456,-37.0001"/>
</g>
<!-- key1&#45;&gt;key2 -->
<g id="edge18" class="edge">
<title>key1:e&#45;&gt;key2:w</title>
<path fill="none" stroke="#000000" d="M1027.0456,-52.5C1044.9101,-52.5 1051.7838,-52.5 1065.6985,-52.5"/>
<polygon fill="none" stroke="#000000" points="1066.0456,-56.0001 1076.0456,-52.5 1066.0455,-49.0001 1066.0456,-56.0001"/>
</g>
</g>
</svg>
