<?xml version="1.0" encoding="UTF-8" standalone="no"?>
<!DOCTYPE svg PUBLIC "-//W3C//DTD SVG 1.1//EN"
 "http://www.w3.org/Graphics/SVG/1.1/DTD/svg11.dtd">
<!-- Generated by graphviz version 2.40.1 (20161225.0304)
 -->
<!-- Title: %3 Pages: 1 -->
<svg width="633pt" height="305pt"
 viewBox="0.00 0.00 633.34 305.00" xmlns="http://www.w3.org/2000/svg" xmlns:xlink="http://www.w3.org/1999/xlink">
<g id="graph0" class="graph" transform="scale(1 1) rotate(0) translate(4 301)">
<title>%3</title>
<polygon fill="#ffffff" stroke="transparent" points="-4,4 -4,-301 629.3408,-301 629.3408,4 -4,4"/>
<!-- ArithmeticOperator -->
<g id="node1" class="node">
<title>ArithmeticOperator</title>
<g id="a_node1"><a xlink:href="http://emmo.info/emmo/middle/math#EMMO_707f0cd1_941c_4b57_9f20_d0ba30cd6ff3" xlink:title="ArithmeticOperator">
<ellipse fill="#ffffcc" stroke="#000000" cx="409.5963" cy="-105" rx="80.6858" ry="18"/>
<text text-anchor="middle" x="409.5963" y="-101.3" font-family="Times,serif" font-size="14.00" fill="#000000">ArithmeticOperator</text>
</a>
</g>
</g>
<!-- AlgebricOperator -->
<g id="node4" class="node">
<title>AlgebricOperator</title>
<g id="a_node4"><a xlink:href="http://emmo.info/emmo/top/math#EMMO_3c424d37_cf62_41b1_ac9d_a316f8d113d6" xlink:title="AlgebricOperator">
<ellipse fill="#ffffcc" stroke="#000000" cx="290.5963" cy="-192" rx="72.5877" ry="18"/>
<text text-anchor="middle" x="290.5963" y="-188.3" font-family="Times,serif" font-size="14.00" fill="#000000">AlgebricOperator</text>
</a>
</g>
</g>
<!-- ArithmeticOperator&#45;&gt;AlgebricOperator -->
<g id="edge5" class="edge">
<title>ArithmeticOperator&#45;&gt;AlgebricOperator</title>
<path fill="none" stroke="#000000" d="M385.8009,-122.3967C367.5216,-135.7605 342.108,-154.3402 322.135,-168.9423"/>
<polygon fill="none" stroke="#000000" points="319.952,-166.2026 313.945,-174.93 324.0833,-171.8535 319.952,-166.2026"/>
<text text-anchor="middle" x="367.0963" y="-144.8" font-family="Times,serif" font-size="14.00" fill="#000000">isA</text>
</g>
<!-- Exponent -->
<g id="node2" class="node">
<title>Exponent</title>
<g id="a_node2"><a xlink:href="http://emmo.info/emmo/top/math#EMMO_223d9523_4169_4ecd_b8af_acad1215e1ff" xlink:title="Exponent">
<ellipse fill="#ffffcc" stroke="#000000" cx="266.5963" cy="-105" rx="44.393" ry="18"/>
<text text-anchor="middle" x="266.5963" y="-101.3" font-family="Times,serif" font-size="14.00" fill="#000000">Exponent</text>
</a>
</g>
</g>
<!-- Exponent&#45;&gt;AlgebricOperator -->
<g id="edge3" class="edge">
<title>Exponent&#45;&gt;AlgebricOperator</title>
<path fill="none" stroke="#000000" d="M267.743,-123.2218C268.6992,-133.0793 270.4402,-145.3768 273.5963,-156 274.4735,-158.9525 275.5604,-161.968 276.7575,-164.935"/>
<polygon fill="none" stroke="#000000" points="273.5757,-166.3939 280.8346,-174.1113 279.9727,-163.5516 273.5757,-166.3939"/>
<text text-anchor="middle" x="283.0963" y="-144.8" font-family="Times,serif" font-size="14.00" fill="#000000">isA</text>
</g>
<!-- Gradient -->
<g id="node3" class="node">
<title>Gradient</title>
<g id="a_node3"><a xlink:href="http://emmo.info/emmo/top/math#EMMO_b5c58790_fb2d_42eb_b184_2a3f6ca60acb" xlink:title="Gradient">
<ellipse fill="#ffffcc" stroke="#000000" cx="41.5963" cy="-105" rx="41.6928" ry="18"/>
<text text-anchor="middle" x="41.5963" y="-101.3" font-family="Times,serif" font-size="14.00" fill="#000000">Gradient</text>
</a>
</g>
</g>
<!-- DifferentialOperator -->
<g id="node8" class="node">
<title>DifferentialOperator</title>
<g id="a_node8"><a xlink:href="http://emmo.info/emmo/top/math#EMMO_f8a2fe9f_458b_4771_9aba_a50e76afc52d" xlink:title="DifferentialOperator">
<ellipse fill="#ffffcc" stroke="#000000" cx="116.5963" cy="-192" rx="83.3857" ry="18"/>
<text text-anchor="middle" x="116.5963" y="-188.3" font-family="Times,serif" font-size="14.00" fill="#000000">DifferentialOperator</text>
</a>
</g>
</g>
<!-- Gradient&#45;&gt;DifferentialOperator -->
<g id="edge4" class="edge">
<title>Gradient&#45;&gt;DifferentialOperator</title>
<path fill="none" stroke="#000000" d="M56.4139,-122.1884C67.2625,-134.7728 82.168,-152.0631 94.4306,-166.2878"/>
<polygon fill="none" stroke="#000000" points="92.1142,-168.9612 101.2946,-174.25 97.4161,-164.3906 92.1142,-168.9612"/>
<text text-anchor="middle" x="93.0963" y="-144.8" font-family="Times,serif" font-size="14.00" fill="#000000">isA</text>
</g>
<!-- MathematicalOperator -->
<g id="node7" class="node">
<title>MathematicalOperator</title>
<g id="a_node7"><a xlink:href="http://emmo.info/emmo/top/math#EMMO_f6d0c26a_98b6_4cf8_8632_aa259131faaa" xlink:title="MathematicalOperator">
<ellipse fill="#ffffcc" stroke="#000000" stroke-width="2" cx="203.5963" cy="-279" rx="90.9839" ry="18"/>
<text text-anchor="middle" x="203.5963" y="-275.3" font-family="Times,serif" font-size="14.00" fill="#000000">MathematicalOperator</text>
</a>
</g>
</g>
<!-- AlgebricOperator&#45;&gt;MathematicalOperator -->
<g id="edge10" class="edge">
<title>AlgebricOperator&#45;&gt;MathematicalOperator</title>
<path fill="none" stroke="#000000" d="M272.9906,-209.6057C260.2215,-222.3748 242.7722,-239.8241 228.5659,-254.0304"/>
<polygon fill="none" stroke="#000000" points="226.0707,-251.5758 221.4745,-261.1218 231.0205,-256.5256 226.0707,-251.5758"/>
<text text-anchor="middle" x="262.0963" y="-231.8" font-family="Times,serif" font-size="14.00" fill="#000000">isA</text>
</g>
<!-- Laplacian -->
<g id="node5" class="node">
<title>Laplacian</title>
<g id="a_node5"><a xlink:href="http://emmo.info/emmo/top/math#EMMO_048a14e3_65fb_457d_8695_948965c89492" xlink:title="Laplacian">
<ellipse fill="#ffffcc" stroke="#000000" cx="146.5963" cy="-105" rx="45.4919" ry="18"/>
<text text-anchor="middle" x="146.5963" y="-101.3" font-family="Times,serif" font-size="14.00" fill="#000000">Laplacian</text>
</a>
</g>
</g>
<!-- Laplacian&#45;&gt;DifferentialOperator -->
<g id="edge8" class="edge">
<title>Laplacian&#45;&gt;DifferentialOperator</title>
<path fill="none" stroke="#000000" d="M140.3803,-123.0265C136.2774,-134.9249 130.8207,-150.7492 126.1689,-164.2394"/>
<polygon fill="none" stroke="#000000" points="122.7555,-163.4019 122.8044,-173.9966 129.3731,-165.6839 122.7555,-163.4019"/>
<text text-anchor="middle" x="143.0963" y="-144.8" font-family="Times,serif" font-size="14.00" fill="#000000">isA</text>
</g>
<!-- Division -->
<g id="node6" class="node">
<title>Division</title>
<g id="a_node6"><a xlink:href="http://emmo.info/emmo/top/math#EMMO_a365b3c1_7bde_41d7_a15b_2820762e85f4" xlink:title="Division">
<ellipse fill="#ffffcc" stroke="#000000" cx="284.5963" cy="-18" rx="40.8928" ry="18"/>
<text text-anchor="middle" x="284.5963" y="-14.3" font-family="Times,serif" font-size="14.00" fill="#000000">Division</text>
</a>
</g>
</g>
<!-- Division&#45;&gt;ArithmeticOperator -->
<g id="edge6" class="edge">
<title>Division&#45;&gt;ArithmeticOperator</title>
<path fill="none" stroke="#000000" d="M306.6561,-33.3536C325.9609,-46.7898 354.2866,-66.5044 376.3404,-81.8539"/>
<polygon fill="none" stroke="#000000" points="374.5484,-84.8709 384.7556,-87.7108 378.5472,-79.1255 374.5484,-84.8709"/>
<text text-anchor="middle" x="364.0963" y="-57.8" font-family="Times,serif" font-size="14.00" fill="#000000">isA</text>
</g>
<!-- DifferentialOperator&#45;&gt;MathematicalOperator -->
<g id="edge2" class="edge">
<title>DifferentialOperator&#45;&gt;MathematicalOperator</title>
<path fill="none" stroke="#000000" d="M134.2021,-209.6057C146.9711,-222.3748 164.4204,-239.8241 178.6267,-254.0304"/>
<polygon fill="none" stroke="#000000" points="176.1722,-256.5256 185.7181,-261.1218 181.1219,-251.5758 176.1722,-256.5256"/>
<text text-anchor="middle" x="175.0963" y="-231.8" font-family="Times,serif" font-size="14.00" fill="#000000">isA</text>
</g>
<!-- Plus -->
<g id="node9" class="node">
<title>Plus</title>
<g id="a_node9"><a xlink:href="http://emmo.info/emmo/top/math#EMMO_8de14a59_660b_454f_aff8_76a07ce185f4" xlink:title="Plus">
<ellipse fill="#ffffcc" stroke="#000000" cx="370.5963" cy="-18" rx="27" ry="18"/>
<text text-anchor="middle" x="370.5963" y="-14.3" font-family="Times,serif" font-size="14.00" fill="#000000">Plus</text>
</a>
</g>
</g>
<!-- Plus&#45;&gt;ArithmeticOperator -->
<g id="edge1" class="edge">
<title>Plus&#45;&gt;ArithmeticOperator</title>
<path fill="none" stroke="#000000" d="M378.4885,-35.6057C383.8617,-47.592 391.0835,-63.7022 397.2163,-77.383"/>
<polygon fill="none" stroke="#000000" points="394.1629,-79.1282 401.4473,-86.8215 400.5505,-76.2647 394.1629,-79.1282"/>
<text text-anchor="middle" x="402.0963" y="-57.8" font-family="Times,serif" font-size="14.00" fill="#000000">isA</text>
</g>
<!-- Minus -->
<g id="node10" class="node">
<title>Minus</title>
<g id="a_node10"><a xlink:href="http://emmo.info/emmo/top/math#EMMO_46d5643b_9706_4b67_8bea_ed77d6026539" xlink:title="Minus">
<ellipse fill="#ffffcc" stroke="#000000" cx="449.5963" cy="-18" rx="33.5952" ry="18"/>
<text text-anchor="middle" x="449.5963" y="-14.3" font-family="Times,serif" font-size="14.00" fill="#000000">Minus</text>
</a>
</g>
</g>
<!-- Minus&#45;&gt;ArithmeticOperator -->
<g id="edge7" class="edge">
<title>Minus&#45;&gt;ArithmeticOperator</title>
<path fill="none" stroke="#000000" d="M441.5017,-35.6057C435.9908,-47.592 428.5838,-63.7022 422.2938,-77.383"/>
<polygon fill="none" stroke="#000000" points="418.9516,-76.2738 417.9542,-86.8215 425.3116,-79.1979 418.9516,-76.2738"/>
<text text-anchor="middle" x="442.0963" y="-57.8" font-family="Times,serif" font-size="14.00" fill="#000000">isA</text>
</g>
<!-- Multiplication -->
<g id="node11" class="node">
<title>Multiplication</title>
<g id="a_node11"><a xlink:href="http://emmo.info/emmo/top/math#EMMO_2b1303e8_d4c3_453b_9918_76f1d009543f" xlink:title="Multiplication">
<ellipse fill="#ffffcc" stroke="#000000" cx="563.5963" cy="-18" rx="61.99" ry="18"/>
<text text-anchor="middle" x="563.5963" y="-14.3" font-family="Times,serif" font-size="14.00" fill="#000000">Multiplication</text>
</a>
</g>
</g>
<!-- Multiplication&#45;&gt;ArithmeticOperator -->
<g id="edge9" class="edge">
<title>Multiplication&#45;&gt;ArithmeticOperator</title>
<path fill="none" stroke="#000000" d="M534.991,-34.1601C510.5302,-47.9789 475.112,-67.9879 448.1518,-83.2187"/>
<polygon fill="none" stroke="#000000" points="446.3462,-80.2187 439.3611,-88.1849 449.7893,-86.3134 446.3462,-80.2187"/>
<text text-anchor="middle" x="505.0963" y="-57.8" font-family="Times,serif" font-size="14.00" fill="#000000">isA</text>
</g>
</g>
</svg>
