<?xml version="1.0" encoding="UTF-8" standalone="no"?>
<!DOCTYPE svg PUBLIC "-//W3C//DTD SVG 1.1//EN"
 "http://www.w3.org/Graphics/SVG/1.1/DTD/svg11.dtd">
<!-- Generated by graphviz version 2.40.1 (20161225.0304)
 -->
<!-- Title: %3 Pages: 1 -->
<svg width="1041pt" height="217pt"
 viewBox="0.00 0.00 1040.69 217.00" xmlns="http://www.w3.org/2000/svg" xmlns:xlink="http://www.w3.org/1999/xlink">
<g id="graph0" class="graph" transform="scale(1 1) rotate(0) translate(4 213)">
<title>%3</title>
<polygon fill="#ffffff" stroke="transparent" points="-4,4 -4,-213 1036.6863,-213 1036.6863,4 -4,4"/>
<!-- Mathematical -->
<g id="node1" class="node">
<title>Mathematical</title>
<g id="a_node1"><a xlink:href="http://emmo.info/emmo/middle/math#EMMO_54ee6b5e_5261_44a8_86eb_5717e7fdb9d0" xlink:title="Mathematical">
<ellipse fill="#ffffcc" stroke="#000000" stroke-width="2" cx="502.1926" cy="-191" rx="59.5901" ry="18"/>
<text text-anchor="middle" x="502.1926" y="-187.3" font-family="Times,serif" font-size="14.00" fill="#000000">Mathematical</text>
</a>
</g>
</g>
<!-- MathematicalModel -->
<g id="node2" class="node">
<title>MathematicalModel</title>
<g id="a_node2"><a xlink:href="http://emmo.info/emmo/middle/models#EMMO_f7ed665b_c2e1_42bc_889b_6b42ed3a36f0" xlink:title="MathematicalModel">
<ellipse fill="#ffc880" stroke="#000000" stroke-width="2" cx="83.1926" cy="-119" rx="83.3857" ry="18"/>
<text text-anchor="middle" x="83.1926" y="-115.3" font-family="Times,serif" font-size="14.00" fill="#000000">MathematicalModel</text>
</a>
</g>
</g>
<!-- MathematicalModel&#45;&gt;Mathematical -->
<g id="edge4" class="edge">
<title>MathematicalModel&#45;&gt;Mathematical</title>
<path fill="none" stroke="#000000" d="M144.5093,-131.2585C154.7457,-133.2298 165.2623,-135.209 175.1926,-137 266.5686,-153.48 372.6753,-170.6398 438.6356,-181.0743"/>
<polygon fill="none" stroke="#000000" points="438.4452,-184.5876 448.8687,-182.6901 439.537,-177.6732 438.4452,-184.5876"/>
</g>
<!-- Matrix -->
<g id="node3" class="node">
<title>Matrix</title>
<g id="a_node3"><a xlink:href="http://emmo.info/emmo/top/math#EMMO_1cba0b27_15d0_4326_933f_379d0b3565b6" xlink:title="Matrix">
<ellipse fill="#ffffcc" stroke="#000000" cx="603.1926" cy="-32.5" rx="35.194" ry="18"/>
<text text-anchor="middle" x="603.1926" y="-28.8" font-family="Times,serif" font-size="14.00" fill="#000000">Matrix</text>
</a>
</g>
</g>
<!-- Array -->
<g id="node11" class="node">
<title>Array</title>
<g id="a_node11"><a xlink:href="http://emmo.info/emmo/top/math#EMMO_28fbea28_2204_4613_87ff_6d877b855fcd" xlink:title="Array">
<ellipse fill="#ffffcc" stroke="#000000" cx="647.1926" cy="-119" rx="31.3957" ry="18"/>
<text text-anchor="middle" x="647.1926" y="-115.3" font-family="Times,serif" font-size="14.00" fill="#000000">Array</text>
</a>
</g>
</g>
<!-- Matrix&#45;&gt;Array -->
<g id="edge2" class="edge">
<title>Matrix&#45;&gt;Array</title>
<path fill="none" stroke="#000000" d="M612.0967,-50.0046C618.2991,-62.198 626.6851,-78.6841 633.7043,-92.4832"/>
<polygon fill="none" stroke="#000000" points="630.6483,-94.1952 638.3018,-101.5215 636.8875,-91.0214 630.6483,-94.1952"/>
</g>
<!-- Numerical -->
<g id="node4" class="node">
<title>Numerical</title>
<g id="a_node4"><a xlink:href="http://emmo.info/emmo/middle/math#EMMO_4ce76d7f_03f8_45b6_9003_90052a79bfaa" xlink:title="Numerical">
<ellipse fill="#ffffcc" stroke="#000000" cx="232.1926" cy="-119" rx="48.1917" ry="18"/>
<text text-anchor="middle" x="232.1926" y="-115.3" font-family="Times,serif" font-size="14.00" fill="#000000">Numerical</text>
</a>
</g>
</g>
<!-- Numerical&#45;&gt;Mathematical -->
<g id="edge15" class="edge">
<title>Numerical&#45;&gt;Mathematical</title>
<path fill="none" stroke="#000000" d="M268.5877,-130.8364C275.4134,-132.9586 282.5049,-135.098 289.1926,-137 341.7878,-151.9581 402.2602,-167.0945 445.3007,-177.5204"/>
<polygon fill="none" stroke="#000000" points="444.4872,-180.9245 455.0293,-179.8687 446.1298,-174.1199 444.4872,-180.9245"/>
</g>
<!-- Variable -->
<g id="node5" class="node">
<title>Variable</title>
<g id="a_node5"><a xlink:href="http://emmo.info/emmo/middle/math#EMMO_1eed0732_e3f1_4b2c_a9c4_b4e75eeb5895" xlink:title="Variable">
<ellipse fill="#ffffcc" stroke="#000000" cx="339.1926" cy="-119" rx="40.8928" ry="18"/>
<text text-anchor="middle" x="339.1926" y="-115.3" font-family="Times,serif" font-size="14.00" fill="#000000">Variable</text>
</a>
</g>
</g>
<!-- Variable&#45;&gt;Mathematical -->
<g id="edge13" class="edge">
<title>Variable&#45;&gt;Mathematical</title>
<path fill="none" stroke="#000000" d="M365.5266,-133.0532C389.7307,-144.4146 425.9705,-160.4918 455.1063,-172.8305"/>
<polygon fill="none" stroke="#000000" points="454.1123,-176.2093 464.6871,-176.8593 456.8258,-169.7566 454.1123,-176.2093"/>
</g>
<!-- Variable&#45;&gt;Mathematical -->
<g id="edge14" class="edge">
<title>Variable&#45;&gt;Mathematical</title>
<path fill="none" stroke="#ffa500" stroke-dasharray="5,2" d="M370.8848,-130.7283C397.3549,-141.6475 435.0217,-158.1431 463.2913,-171.1183"/>
<polygon fill="#ffa500" stroke="#ffa500" points="471.0195,-178.5474 463.4115,-171.1738 473.9572,-172.1936 471.0195,-178.5474"/>
</g>
<!-- Expression -->
<g id="node6" class="node">
<title>Expression</title>
<g id="a_node6"><a xlink:href="http://emmo.info/emmo/middle/math#EMMO_f9bc8b52_85e9_4b53_b969_dd7724d5b8e4" xlink:title="Expression">
<ellipse fill="#ffffcc" stroke="#000000" stroke-width="2" cx="448.1926" cy="-119" rx="50.0912" ry="18"/>
<text text-anchor="middle" x="448.1926" y="-115.3" font-family="Times,serif" font-size="14.00" fill="#000000">Expression</text>
</a>
</g>
</g>
<!-- Expression&#45;&gt;Mathematical -->
<g id="edge9" class="edge">
<title>Expression&#45;&gt;Mathematical</title>
<path fill="none" stroke="#000000" d="M461.2645,-136.4292C467.7345,-145.0559 475.674,-155.6418 482.8326,-165.1866"/>
<polygon fill="none" stroke="#000000" points="480.0659,-167.3311 488.866,-173.2311 485.6659,-163.1311 480.0659,-167.3311"/>
</g>
<!-- Constant -->
<g id="node7" class="node">
<title>Constant</title>
<g id="a_node7"><a xlink:href="http://emmo.info/emmo/middle/math#EMMO_ae15fb4f_8e4d_41de_a0f9_3997f89ba6a2" xlink:title="Constant">
<ellipse fill="#ffffcc" stroke="#000000" cx="233.1926" cy="-32.5" rx="42.4939" ry="18"/>
<text text-anchor="middle" x="233.1926" y="-28.8" font-family="Times,serif" font-size="14.00" fill="#000000">Constant</text>
</a>
</g>
</g>
<!-- Constant&#45;&gt;Numerical -->
<g id="edge11" class="edge">
<title>Constant&#45;&gt;Numerical</title>
<path fill="none" stroke="#ffa500" stroke-dasharray="5,2" d="M232.9805,-50.8444C232.8471,-62.3901 232.6721,-77.528 232.5209,-90.6039"/>
<polygon fill="#ffa500" stroke="#ffa500" points="228.9012,-100.9381 232.5167,-90.9793 235.9007,-101.0191 228.9012,-100.9381"/>
</g>
<!-- Constant&#45;&gt;Variable -->
<g id="edge10" class="edge">
<title>Constant&#45;&gt;Variable</title>
<path fill="none" stroke="#000000" d="M253.1304,-48.77C269.6686,-62.2658 293.3579,-81.5972 311.6974,-96.5629"/>
<polygon fill="none" stroke="#000000" points="309.7418,-99.4845 319.7024,-103.0952 314.1675,-94.0611 309.7418,-99.4845"/>
</g>
<!-- Formula -->
<g id="node8" class="node">
<title>Formula</title>
<g id="a_node8"><a xlink:href="http://emmo.info/emmo/middle/math#EMMO_88470739_03d3_4c47_a03e_b30a1288d50c" xlink:title="Formula">
<ellipse fill="#ffffcc" stroke="#000000" stroke-width="2" cx="557.1926" cy="-119" rx="40.8928" ry="18"/>
<text text-anchor="middle" x="557.1926" y="-115.3" font-family="Times,serif" font-size="14.00" fill="#000000">Formula</text>
</a>
</g>
</g>
<!-- Formula&#45;&gt;Mathematical -->
<g id="edge5" class="edge">
<title>Formula&#45;&gt;Mathematical</title>
<path fill="none" stroke="#000000" d="M543.8787,-136.4292C537.2888,-145.0559 529.2024,-155.6418 521.9112,-165.1866"/>
<polygon fill="none" stroke="#000000" points="519.0552,-163.1597 515.7661,-173.2311 524.6179,-167.409 519.0552,-163.1597"/>
</g>
<!-- Vector -->
<g id="node9" class="node">
<title>Vector</title>
<g id="a_node9"><a xlink:href="http://emmo.info/emmo/middle/math#EMMO_06658d8d_dcde_4fc9_aae1_17f71c0bcdec" xlink:title="Vector">
<ellipse fill="#ffffcc" stroke="#000000" cx="691.1926" cy="-32.5" rx="34.394" ry="18"/>
<text text-anchor="middle" x="691.1926" y="-28.8" font-family="Times,serif" font-size="14.00" fill="#000000">Vector</text>
</a>
</g>
</g>
<!-- Vector&#45;&gt;Array -->
<g id="edge8" class="edge">
<title>Vector&#45;&gt;Array</title>
<path fill="none" stroke="#000000" d="M682.2886,-50.0046C676.0861,-62.198 667.7001,-78.6841 660.6809,-92.4832"/>
<polygon fill="none" stroke="#000000" points="657.4977,-91.0214 656.0834,-101.5215 663.7369,-94.1952 657.4977,-91.0214"/>
</g>
<!-- Unknown -->
<g id="node10" class="node">
<title>Unknown</title>
<g id="a_node10"><a xlink:href="http://emmo.info/emmo/middle/math#EMMO_fe7e56ce_118b_4243_9aad_20eb9f4f31f6" xlink:title="Unknown">
<ellipse fill="#ffffcc" stroke="#000000" cx="339.1926" cy="-32.5" rx="45.4919" ry="18"/>
<text text-anchor="middle" x="339.1926" y="-28.8" font-family="Times,serif" font-size="14.00" fill="#000000">Unknown</text>
</a>
</g>
</g>
<!-- Unknown&#45;&gt;Variable -->
<g id="edge3" class="edge">
<title>Unknown&#45;&gt;Variable</title>
<path fill="none" stroke="#000000" d="M339.1926,-50.8444C339.1926,-62.3901 339.1926,-77.528 339.1926,-90.6039"/>
<polygon fill="none" stroke="#000000" points="335.6927,-90.9786 339.1926,-100.9786 342.6927,-90.9787 335.6927,-90.9786"/>
</g>
<!-- Array&#45;&gt;Mathematical -->
<g id="edge1" class="edge">
<title>Array&#45;&gt;Mathematical</title>
<path fill="none" stroke="#000000" d="M623.2488,-130.8893C601.327,-141.7746 568.4438,-158.1029 542.4795,-170.9955"/>
<polygon fill="none" stroke="#000000" points="540.6598,-167.9913 533.2598,-175.5735 543.773,-174.2609 540.6598,-167.9913"/>
</g>
<!-- Parameter -->
<g id="node12" class="node">
<title>Parameter</title>
<g id="a_node12"><a xlink:href="http://emmo.info/emmo/middle/math#EMMO_d1d436e7_72fc_49cd_863b_7bfb4ba5276a" xlink:title="Parameter">
<ellipse fill="#ffffcc" stroke="#000000" cx="449.1926" cy="-32.5" rx="46.5926" ry="18"/>
<text text-anchor="middle" x="449.1926" y="-28.8" font-family="Times,serif" font-size="14.00" fill="#000000">Parameter</text>
</a>
</g>
</g>
<!-- Parameter&#45;&gt;Variable -->
<g id="edge6" class="edge">
<title>Parameter&#45;&gt;Variable</title>
<path fill="none" stroke="#000000" d="M428.5025,-48.77C411.2629,-62.3266 386.5353,-81.7714 367.4685,-96.7649"/>
<polygon fill="none" stroke="#000000" points="365.1156,-94.1626 359.4184,-103.0952 369.4426,-99.6651 365.1156,-94.1626"/>
</g>
<!-- MathematicalSymbol -->
<g id="node13" class="node">
<title>MathematicalSymbol</title>
<g id="a_node13"><a xlink:href="http://emmo.info/emmo/middle/math#EMMO_5be83f9c_a4ba_4b9a_be1a_5bfc6e891231" xlink:title="MathematicalSymbol">
<ellipse fill="#ffc880" stroke="#000000" stroke-width="2" cx="784.1926" cy="-119" rx="87.9851" ry="18"/>
<text text-anchor="middle" x="784.1926" y="-115.3" font-family="Times,serif" font-size="14.00" fill="#000000">MathematicalSymbol</text>
</a>
</g>
</g>
<!-- MathematicalSymbol&#45;&gt;Mathematical -->
<g id="edge12" class="edge">
<title>MathematicalSymbol&#45;&gt;Mathematical</title>
<path fill="none" stroke="#000000" d="M729.1507,-133.0532C679.8151,-145.6496 607.7752,-164.0427 558.1586,-176.7108"/>
<polygon fill="none" stroke="#000000" points="557.0611,-173.3787 548.2378,-179.2438 558.7929,-180.1611 557.0611,-173.3787"/>
</g>
<!-- PhysicalQuantity -->
<g id="node14" class="node">
<title>PhysicalQuantity</title>
<g id="a_node14"><a xlink:href="http://emmo.info/emmo/middle/metrology#EMMO_02c0621e_a527_4790_8a0f_2bb51973c819" xlink:title="PhysicalQuantity">
<ellipse fill="#ffffcc" stroke="#000000" stroke-width="2" cx="961.1926" cy="-119" rx="71.4873" ry="18"/>
<text text-anchor="middle" x="961.1926" y="-115.3" font-family="Times,serif" font-size="14.00" fill="#000000">PhysicalQuantity</text>
</a>
</g>
</g>
<!-- PhysicalQuantity&#45;&gt;Mathematical -->
<g id="edge7" class="edge">
<title>PhysicalQuantity&#45;&gt;Mathematical</title>
<path fill="none" stroke="#000000" d="M908.8153,-131.4134C899.635,-133.4092 890.1542,-135.3561 881.1926,-137 772.0862,-157.0143 644.1532,-173.8841 568.3165,-183.2026"/>
<polygon fill="none" stroke="#000000" points="567.4704,-179.7799 557.9688,-184.467 568.3195,-186.7282 567.4704,-179.7799"/>
</g>
<!-- key1 -->
<g id="node15" class="node">
<title>key1</title>
<text text-anchor="start" x="800.1926" y="-47.3" font-family="Times,serif" font-size="14.00" fill="#000000">isA</text>
<text text-anchor="start" x="754.1926" y="-28.3" font-family="Times,serif" font-size="14.00" fill="#000000">hasVariable</text>
<text text-anchor="start" x="779.1926" y="-9.3" font-family="Times,serif" font-size="14.00" fill="#000000">inverse</text>
</g>
<!-- key2 -->
<g id="node16" class="node">
<title>key2</title>
<text text-anchor="start" x="872.1926" y="-47.3" font-family="Times,serif" font-size="14.00" fill="#000000"> </text>
<text text-anchor="start" x="872.1926" y="-28.3" font-family="Times,serif" font-size="14.00" fill="#000000"> </text>
<text text-anchor="start" x="872.1926" y="-9.3" font-family="Times,serif" font-size="14.00" fill="#000000"> </text>
</g>
<!-- key1&#45;&gt;key2 -->
<g id="edge16" class="edge">
<title>key1:e&#45;&gt;key2:w</title>
<path fill="none" stroke="#000000" d="M821.1926,-13.5C839.0572,-13.5 845.9309,-13.5 859.8456,-13.5"/>
<polygon fill="#000000" stroke="#000000" points="870.1927,-17 860.1926,-13.5001 870.1926,-10 870.1927,-17"/>
</g>
<!-- key1&#45;&gt;key2 -->
<g id="edge17" class="edge">
<title>key1:e&#45;&gt;key2:w</title>
<path fill="none" stroke="#ffa500" stroke-dasharray="5,2" d="M821.1926,-33.5C839.0572,-33.5 845.9309,-33.5 859.8456,-33.5"/>
<polygon fill="#ffa500" stroke="#ffa500" points="860.1927,-37.0001 870.1926,-33.5 860.1926,-30.0001 860.1927,-37.0001"/>
</g>
<!-- key1&#45;&gt;key2 -->
<g id="edge18" class="edge">
<title>key1:e&#45;&gt;key2:w</title>
<path fill="none" stroke="#000000" d="M821.1926,-52.5C839.0572,-52.5 845.9309,-52.5 859.8456,-52.5"/>
<polygon fill="none" stroke="#000000" points="860.1927,-56.0001 870.1926,-52.5 860.1926,-49.0001 860.1927,-56.0001"/>
</g>
</g>
</svg>
