<?xml version="1.0" encoding="UTF-8" standalone="no"?>
<!DOCTYPE svg PUBLIC "-//W3C//DTD SVG 1.1//EN"
 "http://www.w3.org/Graphics/SVG/1.1/DTD/svg11.dtd">
<!-- Generated by graphviz version 2.40.1 (20161225.0304)
 -->
<!-- Title: %3 Pages: 1 -->
<svg width="1104pt" height="217pt"
 viewBox="0.00 0.00 1104.05 217.00" xmlns="http://www.w3.org/2000/svg" xmlns:xlink="http://www.w3.org/1999/xlink">
<g id="graph0" class="graph" transform="scale(1 1) rotate(0) translate(4 213)">
<title>%3</title>
<polygon fill="#ffffff" stroke="transparent" points="-4,4 -4,-213 1100.0456,-213 1100.0456,4 -4,4"/>
<!-- Expression -->
<g id="node1" class="node">
<title>Expression</title>
<g id="a_node1"><a xlink:href="http://emmo.info/emmo/middle/math#EMMO_f9bc8b52_85e9_4b53_b969_dd7724d5b8e4" xlink:title="Expression">
<ellipse fill="#ffffcc" stroke="#000000" stroke-width="2" cx="50.0456" cy="-119" rx="50.0912" ry="18"/>
<text text-anchor="middle" x="50.0456" y="-115.3" font-family="Times,serif" font-size="14.00" fill="#000000">Expression</text>
</a>
</g>
</g>
<!-- Mathematical -->
<g id="node14" class="node">
<title>Mathematical</title>
<g id="a_node14"><a xlink:href="http://emmo.info/emmo/middle/math#EMMO_54ee6b5e_5261_44a8_86eb_5717e7fdb9d0" xlink:title="Mathematical">
<ellipse fill="#ffffcc" stroke="#000000" stroke-width="2" cx="506.0456" cy="-191" rx="59.5901" ry="18"/>
<text text-anchor="middle" x="506.0456" y="-187.3" font-family="Times,serif" font-size="14.00" fill="#000000">Mathematical</text>
</a>
</g>
</g>
<!-- Expression&#45;&gt;Mathematical -->
<g id="edge1" class="edge">
<title>Expression&#45;&gt;Mathematical</title>
<path fill="none" stroke="#000000" d="M86.9431,-131.2508C94.2141,-133.3823 101.8274,-135.4188 109.0456,-137 223.1688,-161.9998 358.432,-177.4398 437.971,-185.103"/>
<polygon fill="none" stroke="#000000" points="438.0542,-188.6266 448.3404,-186.0883 438.7164,-181.658 438.0542,-188.6266"/>
</g>
<!-- Constant -->
<g id="node2" class="node">
<title>Constant</title>
<g id="a_node2"><a xlink:href="http://emmo.info/emmo/middle/math#EMMO_ae15fb4f_8e4d_41de_a0f9_3997f89ba6a2" xlink:title="Constant">
<ellipse fill="#ffffcc" stroke="#000000" cx="347.0456" cy="-32.5" rx="42.4939" ry="18"/>
<text text-anchor="middle" x="347.0456" y="-28.8" font-family="Times,serif" font-size="14.00" fill="#000000">Constant</text>
</a>
</g>
</g>
<!-- Variable -->
<g id="node5" class="node">
<title>Variable</title>
<g id="a_node5"><a xlink:href="http://emmo.info/emmo/middle/math#EMMO_1eed0732_e3f1_4b2c_a9c4_b4e75eeb5895" xlink:title="Variable">
<ellipse fill="#ffffcc" stroke="#000000" cx="453.0456" cy="-119" rx="40.8928" ry="18"/>
<text text-anchor="middle" x="453.0456" y="-115.3" font-family="Times,serif" font-size="14.00" fill="#000000">Variable</text>
</a>
</g>
</g>
<!-- Constant&#45;&gt;Variable -->
<g id="edge13" class="edge">
<title>Constant&#45;&gt;Variable</title>
<path fill="none" stroke="#000000" d="M366.9833,-48.77C383.5215,-62.2658 407.2109,-81.5972 425.5504,-96.5629"/>
<polygon fill="none" stroke="#000000" points="423.5947,-99.4845 433.5553,-103.0952 428.0204,-94.0611 423.5947,-99.4845"/>
</g>
<!-- Numerical -->
<g id="node13" class="node">
<title>Numerical</title>
<g id="a_node13"><a xlink:href="http://emmo.info/emmo/middle/math#EMMO_4ce76d7f_03f8_45b6_9003_90052a79bfaa" xlink:title="Numerical">
<ellipse fill="#ffffcc" stroke="#000000" cx="560.0456" cy="-119" rx="48.1917" ry="18"/>
<text text-anchor="middle" x="560.0456" y="-115.3" font-family="Times,serif" font-size="14.00" fill="#000000">Numerical</text>
</a>
</g>
</g>
<!-- Constant&#45;&gt;Numerical -->
<g id="edge14" class="edge">
<title>Constant&#45;&gt;Numerical</title>
<path fill="none" stroke="#ffa500" stroke-dasharray="5,2" d="M369.1723,-47.9359C378.1718,-53.782 388.841,-60.1821 399.0456,-65 409.7342,-70.0464 470.2137,-89.9619 513.9066,-104.1366"/>
<polygon fill="#ffa500" stroke="#ffa500" points="522.4246,-110.5749 513.9899,-104.1635 524.5818,-103.9156 522.4246,-110.5749"/>
</g>
<!-- Formula -->
<g id="node3" class="node">
<title>Formula</title>
<g id="a_node3"><a xlink:href="http://emmo.info/emmo/middle/math#EMMO_88470739_03d3_4c47_a03e_b30a1288d50c" xlink:title="Formula">
<ellipse fill="#ffffcc" stroke="#000000" stroke-width="2" cx="159.0456" cy="-119" rx="40.8928" ry="18"/>
<text text-anchor="middle" x="159.0456" y="-115.3" font-family="Times,serif" font-size="14.00" fill="#000000">Formula</text>
</a>
</g>
</g>
<!-- Formula&#45;&gt;Mathematical -->
<g id="edge9" class="edge">
<title>Formula&#45;&gt;Mathematical</title>
<path fill="none" stroke="#000000" d="M189.7305,-130.9492C196.057,-133.1568 202.7199,-135.2989 209.0456,-137 287.6262,-158.1319 380.1405,-173.4946 440.7799,-182.3127"/>
<polygon fill="none" stroke="#000000" points="440.5791,-185.8197 450.9752,-183.7773 441.5745,-178.8909 440.5791,-185.8197"/>
</g>
<!-- MathematicalSymbol -->
<g id="node4" class="node">
<title>MathematicalSymbol</title>
<g id="a_node4"><a xlink:href="http://emmo.info/emmo/middle/math#EMMO_5be83f9c_a4ba_4b9a_be1a_5bfc6e891231" xlink:title="MathematicalSymbol">
<ellipse fill="#ffc880" stroke="#000000" stroke-width="2" cx="306.0456" cy="-119" rx="87.9851" ry="18"/>
<text text-anchor="middle" x="306.0456" y="-115.3" font-family="Times,serif" font-size="14.00" fill="#000000">MathematicalSymbol</text>
</a>
</g>
</g>
<!-- MathematicalSymbol&#45;&gt;Mathematical -->
<g id="edge2" class="edge">
<title>MathematicalSymbol&#45;&gt;Mathematical</title>
<path fill="none" stroke="#000000" d="M349.9364,-134.8007C381.9612,-146.3296 425.3371,-161.945 458.2392,-173.7897"/>
<polygon fill="none" stroke="#000000" points="457.0611,-177.0854 467.6555,-177.1796 459.4322,-170.4992 457.0611,-177.0854"/>
</g>
<!-- Variable&#45;&gt;Mathematical -->
<g id="edge7" class="edge">
<title>Variable&#45;&gt;Mathematical</title>
<path fill="none" stroke="#000000" d="M460.231,-136.7978C465.7603,-145.494 473.3889,-156.1133 480.8971,-165.6402"/>
<polygon fill="none" stroke="#000000" points="478.3866,-168.1007 487.4085,-173.6554 483.8197,-163.6869 478.3866,-168.1007"/>
</g>
<!-- Variable&#45;&gt;Mathematical -->
<g id="edge8" class="edge">
<title>Variable&#45;&gt;Mathematical</title>
<path fill="none" stroke="#ffa500" stroke-dasharray="5,2" d="M470.8329,-135.3379C478.1082,-143.9147 486.2631,-154.6394 492.992,-164.3794"/>
<polygon fill="#ffa500" stroke="#ffa500" points="495.7912,-174.8976 493.1617,-164.6343 501.6176,-171.0177 495.7912,-174.8976"/>
</g>
<!-- Vector -->
<g id="node6" class="node">
<title>Vector</title>
<g id="a_node6"><a xlink:href="http://emmo.info/emmo/middle/math#EMMO_06658d8d_dcde_4fc9_aae1_17f71c0bcdec" xlink:title="Vector">
<ellipse fill="#ffffcc" stroke="#000000" cx="797.0456" cy="-32.5" rx="34.394" ry="18"/>
<text text-anchor="middle" x="797.0456" y="-28.8" font-family="Times,serif" font-size="14.00" fill="#000000">Vector</text>
</a>
</g>
</g>
<!-- Array -->
<g id="node9" class="node">
<title>Array</title>
<g id="a_node9"><a xlink:href="http://emmo.info/emmo/top/math#EMMO_28fbea28_2204_4613_87ff_6d877b855fcd" xlink:title="Array">
<ellipse fill="#ffffcc" stroke="#000000" cx="841.0456" cy="-119" rx="31.3957" ry="18"/>
<text text-anchor="middle" x="841.0456" y="-115.3" font-family="Times,serif" font-size="14.00" fill="#000000">Array</text>
</a>
</g>
</g>
<!-- Vector&#45;&gt;Array -->
<g id="edge3" class="edge">
<title>Vector&#45;&gt;Array</title>
<path fill="none" stroke="#000000" d="M805.9496,-50.0046C812.1521,-62.198 820.538,-78.6841 827.5573,-92.4832"/>
<polygon fill="none" stroke="#000000" points="824.5012,-94.1952 832.1547,-101.5215 830.7404,-91.0214 824.5012,-94.1952"/>
</g>
<!-- Unknown -->
<g id="node7" class="node">
<title>Unknown</title>
<g id="a_node7"><a xlink:href="http://emmo.info/emmo/middle/math#EMMO_fe7e56ce_118b_4243_9aad_20eb9f4f31f6" xlink:title="Unknown">
<ellipse fill="#ffffcc" stroke="#000000" cx="453.0456" cy="-32.5" rx="45.4919" ry="18"/>
<text text-anchor="middle" x="453.0456" y="-28.8" font-family="Times,serif" font-size="14.00" fill="#000000">Unknown</text>
</a>
</g>
</g>
<!-- Unknown&#45;&gt;Variable -->
<g id="edge10" class="edge">
<title>Unknown&#45;&gt;Variable</title>
<path fill="none" stroke="#000000" d="M453.0456,-50.8444C453.0456,-62.3901 453.0456,-77.528 453.0456,-90.6039"/>
<polygon fill="none" stroke="#000000" points="449.5457,-90.9786 453.0456,-100.9786 456.5457,-90.9787 449.5457,-90.9786"/>
</g>
<!-- MathematicalModel -->
<g id="node8" class="node">
<title>MathematicalModel</title>
<g id="a_node8"><a xlink:href="http://emmo.info/emmo/middle/models#EMMO_f7ed665b_c2e1_42bc_889b_6b42ed3a36f0" xlink:title="MathematicalModel">
<ellipse fill="#ffc880" stroke="#000000" stroke-width="2" cx="709.0456" cy="-119" rx="83.3857" ry="18"/>
<text text-anchor="middle" x="709.0456" y="-115.3" font-family="Times,serif" font-size="14.00" fill="#000000">MathematicalModel</text>
</a>
</g>
</g>
<!-- MathematicalModel&#45;&gt;Mathematical -->
<g id="edge11" class="edge">
<title>MathematicalModel&#45;&gt;Mathematical</title>
<path fill="none" stroke="#000000" d="M665.497,-134.4458C632.9447,-145.9914 588.433,-161.7788 554.7104,-173.7396"/>
<polygon fill="none" stroke="#000000" points="553.3159,-170.5205 545.0612,-177.162 555.6559,-177.1178 553.3159,-170.5205"/>
</g>
<!-- Array&#45;&gt;Mathematical -->
<g id="edge4" class="edge">
<title>Array&#45;&gt;Mathematical</title>
<path fill="none" stroke="#000000" d="M817.2983,-130.8164C812.0379,-133.1132 806.4258,-135.3242 801.0456,-137 724.4484,-160.8581 633.1856,-175.5591 572.6613,-183.4829"/>
<polygon fill="none" stroke="#000000" points="571.9475,-180.0457 562.4745,-184.7906 572.8388,-186.9888 571.9475,-180.0457"/>
</g>
<!-- Parameter -->
<g id="node10" class="node">
<title>Parameter</title>
<g id="a_node10"><a xlink:href="http://emmo.info/emmo/middle/math#EMMO_d1d436e7_72fc_49cd_863b_7bfb4ba5276a" xlink:title="Parameter">
<ellipse fill="#ffffcc" stroke="#000000" cx="563.0456" cy="-32.5" rx="46.5926" ry="18"/>
<text text-anchor="middle" x="563.0456" y="-28.8" font-family="Times,serif" font-size="14.00" fill="#000000">Parameter</text>
</a>
</g>
</g>
<!-- Parameter&#45;&gt;Variable -->
<g id="edge15" class="edge">
<title>Parameter&#45;&gt;Variable</title>
<path fill="none" stroke="#000000" d="M542.3554,-48.77C525.1158,-62.3266 500.3883,-81.7714 481.3214,-96.7649"/>
<polygon fill="none" stroke="#000000" points="478.9685,-94.1626 473.2713,-103.0952 483.2955,-99.6651 478.9685,-94.1626"/>
</g>
<!-- Matrix -->
<g id="node11" class="node">
<title>Matrix</title>
<g id="a_node11"><a xlink:href="http://emmo.info/emmo/top/math#EMMO_1cba0b27_15d0_4326_933f_379d0b3565b6" xlink:title="Matrix">
<ellipse fill="#ffffcc" stroke="#000000" cx="885.0456" cy="-32.5" rx="35.194" ry="18"/>
<text text-anchor="middle" x="885.0456" y="-28.8" font-family="Times,serif" font-size="14.00" fill="#000000">Matrix</text>
</a>
</g>
</g>
<!-- Matrix&#45;&gt;Array -->
<g id="edge5" class="edge">
<title>Matrix&#45;&gt;Array</title>
<path fill="none" stroke="#000000" d="M876.1415,-50.0046C869.939,-62.198 861.5531,-78.6841 854.5339,-92.4832"/>
<polygon fill="none" stroke="#000000" points="851.3507,-91.0214 849.9364,-101.5215 857.5899,-94.1952 851.3507,-91.0214"/>
</g>
<!-- PhysicalQuantity -->
<g id="node12" class="node">
<title>PhysicalQuantity</title>
<g id="a_node12"><a xlink:href="http://emmo.info/emmo/middle/metrology#EMMO_02c0621e_a527_4790_8a0f_2bb51973c819" xlink:title="PhysicalQuantity">
<ellipse fill="#ffffcc" stroke="#000000" stroke-width="2" cx="962.0456" cy="-119" rx="71.4873" ry="18"/>
<text text-anchor="middle" x="962.0456" y="-115.3" font-family="Times,serif" font-size="14.00" fill="#000000">PhysicalQuantity</text>
</a>
</g>
</g>
<!-- PhysicalQuantity&#45;&gt;Mathematical -->
<g id="edge12" class="edge">
<title>PhysicalQuantity&#45;&gt;Mathematical</title>
<path fill="none" stroke="#000000" d="M909.4415,-131.2956C900.0119,-133.3265 890.2565,-135.3159 881.0456,-137 773.3652,-156.6883 647.208,-173.5995 572.1043,-183.0238"/>
<polygon fill="none" stroke="#000000" points="571.3424,-179.5916 561.8529,-184.3034 572.2095,-186.5377 571.3424,-179.5916"/>
</g>
<!-- Numerical&#45;&gt;Mathematical -->
<g id="edge6" class="edge">
<title>Numerical&#45;&gt;Mathematical</title>
<path fill="none" stroke="#000000" d="M546.9737,-136.4292C540.5036,-145.0559 532.5642,-155.6418 525.4056,-165.1866"/>
<polygon fill="none" stroke="#000000" points="522.5723,-163.1311 519.3722,-173.2311 528.1723,-167.3311 522.5723,-163.1311"/>
</g>
<!-- key1 -->
<g id="node15" class="node">
<title>key1</title>
<text text-anchor="start" x="995.0456" y="-47.3" font-family="Times,serif" font-size="14.00" fill="#000000">isA</text>
<text text-anchor="start" x="949.0456" y="-28.3" font-family="Times,serif" font-size="14.00" fill="#000000">hasVariable</text>
<text text-anchor="start" x="974.0456" y="-9.3" font-family="Times,serif" font-size="14.00" fill="#000000">inverse</text>
</g>
<!-- key2 -->
<g id="node16" class="node">
<title>key2</title>
<text text-anchor="start" x="1067.0456" y="-47.3" font-family="Times,serif" font-size="14.00" fill="#000000"> </text>
<text text-anchor="start" x="1067.0456" y="-28.3" font-family="Times,serif" font-size="14.00" fill="#000000"> </text>
<text text-anchor="start" x="1067.0456" y="-9.3" font-family="Times,serif" font-size="14.00" fill="#000000"> </text>
</g>
<!-- key1&#45;&gt;key2 -->
<g id="edge16" class="edge">
<title>key1:e&#45;&gt;key2:w</title>
<path fill="none" stroke="#000000" d="M1016.0456,-13.5C1033.9101,-13.5 1040.7838,-13.5 1054.6985,-13.5"/>
<polygon fill="#000000" stroke="#000000" points="1065.0456,-17 1055.0456,-13.5001 1065.0455,-10 1065.0456,-17"/>
</g>
<!-- key1&#45;&gt;key2 -->
<g id="edge17" class="edge">
<title>key1:e&#45;&gt;key2:w</title>
<path fill="none" stroke="#ffa500" stroke-dasharray="5,2" d="M1016.0456,-33.5C1033.9101,-33.5 1040.7838,-33.5 1054.6985,-33.5"/>
<polygon fill="#ffa500" stroke="#ffa500" points="1055.0456,-37.0001 1065.0456,-33.5 1055.0455,-30.0001 1055.0456,-37.0001"/>
</g>
<!-- key1&#45;&gt;key2 -->
<g id="edge18" class="edge">
<title>key1:e&#45;&gt;key2:w</title>
<path fill="none" stroke="#000000" d="M1016.0456,-52.5C1033.9101,-52.5 1040.7838,-52.5 1054.6985,-52.5"/>
<polygon fill="none" stroke="#000000" points="1055.0456,-56.0001 1065.0456,-52.5 1055.0455,-49.0001 1055.0456,-56.0001"/>
</g>
</g>
</svg>
