<?xml version="1.0" encoding="UTF-8" standalone="no"?>
<!DOCTYPE svg PUBLIC "-//W3C//DTD SVG 1.1//EN"
 "http://www.w3.org/Graphics/SVG/1.1/DTD/svg11.dtd">
<!-- Generated by graphviz version 2.40.1 (20161225.0304)
 -->
<!-- Title: %3 Pages: 1 -->
<svg width="914pt" height="198pt"
 viewBox="0.00 0.00 914.14 198.00" xmlns="http://www.w3.org/2000/svg" xmlns:xlink="http://www.w3.org/1999/xlink">
<g id="graph0" class="graph" transform="scale(1 1) rotate(0) translate(4 194)">
<title>%3</title>
<polygon fill="#ffffff" stroke="transparent" points="-4,4 -4,-194 910.1436,-194 910.1436,4 -4,4"/>
<!-- PhysicsBasedModel -->
<g id="node1" class="node">
<title>PhysicsBasedModel</title>
<g id="a_node1"><a xlink:href="http://emmo.info/emmo/middle/models#EMMO_b29fd350_39aa_4af7_9459_3faa0544cba6" xlink:title="PhysicsBasedModel">
<ellipse fill="#ffffcc" stroke="#000000" cx="402.1436" cy="-100" rx="82.5854" ry="18"/>
<text text-anchor="middle" x="402.1436" y="-96.3" font-family="Times,serif" font-size="14.00" fill="#000000">PhysicsBasedModel</text>
</a>
</g>
</g>
<!-- PhysicsEquation -->
<g id="node4" class="node">
<title>PhysicsEquation</title>
<g id="a_node4"><a xlink:href="http://emmo.info/emmo/middle/models#EMMO_27c5d8c6_8af7_4d63_beb1_ec37cd8b3fa3" xlink:title="PhysicsEquation">
<ellipse fill="#ffffcc" stroke="#000000" cx="232.1436" cy="-100" rx="69.5877" ry="18"/>
<text text-anchor="middle" x="232.1436" y="-96.3" font-family="Times,serif" font-size="14.00" fill="#000000">PhysicsEquation</text>
</a>
</g>
</g>
<!-- PhysicsBasedModel&#45;&gt;PhysicsEquation -->
<g id="edge3" class="edge">
<title>PhysicsBasedModel&#45;&gt;PhysicsEquation</title>
<path fill="none" stroke="#0000ff" stroke-dasharray="5,2" d="M319.4964,-100C317.0177,-100 314.539,-100 312.0603,-100"/>
<polygon fill="#0000ff" stroke="#0000ff" points="311.8702,-96.5001 301.8702,-100 311.8701,-103.5001 311.8702,-96.5001"/>
</g>
<!-- MathematicalModel -->
<g id="node6" class="node">
<title>MathematicalModel</title>
<g id="a_node6"><a xlink:href="http://emmo.info/emmo/middle/models#EMMO_f7ed665b_c2e1_42bc_889b_6b42ed3a36f0" xlink:title="MathematicalModel">
<ellipse fill="#ffc880" stroke="#000000" stroke-width="2" cx="232.1436" cy="-172" rx="83.3857" ry="18"/>
<text text-anchor="middle" x="232.1436" y="-168.3" font-family="Times,serif" font-size="14.00" fill="#000000">MathematicalModel</text>
</a>
</g>
</g>
<!-- PhysicsBasedModel&#45;&gt;MathematicalModel -->
<g id="edge2" class="edge">
<title>PhysicsBasedModel&#45;&gt;MathematicalModel</title>
<path fill="none" stroke="#000000" d="M363.9923,-116.1582C339.0569,-126.7191 306.299,-140.593 279.6736,-151.8696"/>
<polygon fill="none" stroke="#000000" points="278.0108,-148.7729 270.1676,-155.8957 280.7408,-155.2186 278.0108,-148.7729"/>
</g>
<!-- ElectronicModel -->
<g id="node2" class="node">
<title>ElectronicModel</title>
<g id="a_node2"><a xlink:href="http://emmo.info/emmo/middle/models#EMMO_6eca09be_17e9_445e_abc9_000aa61b7a11" xlink:title="ElectronicModel">
<ellipse fill="#ffffcc" stroke="#000000" cx="152.1436" cy="-23" rx="70.3881" ry="18"/>
<text text-anchor="middle" x="152.1436" y="-19.3" font-family="Times,serif" font-size="14.00" fill="#000000">ElectronicModel</text>
</a>
</g>
</g>
<!-- ElectronicModel&#45;&gt;PhysicsBasedModel -->
<g id="edge5" class="edge">
<title>ElectronicModel&#45;&gt;PhysicsBasedModel</title>
<path fill="none" stroke="#000000" d="M197.1273,-36.855C238.3827,-49.5616 299.6992,-68.4471 344.526,-82.2538"/>
<polygon fill="none" stroke="#000000" points="343.5255,-85.6078 354.1127,-85.2065 345.586,-78.9179 343.5255,-85.6078"/>
</g>
<!-- DataBasedModel -->
<g id="node3" class="node">
<title>DataBasedModel</title>
<g id="a_node3"><a xlink:href="http://emmo.info/emmo/middle/models#EMMO_a4b14b83_9392_4a5f_a2e8_b2b58793f59b" xlink:title="DataBasedModel">
<ellipse fill="#ffffcc" stroke="#000000" cx="72.1436" cy="-100" rx="72.2875" ry="18"/>
<text text-anchor="middle" x="72.1436" y="-96.3" font-family="Times,serif" font-size="14.00" fill="#000000">DataBasedModel</text>
</a>
</g>
</g>
<!-- DataBasedModel&#45;&gt;MathematicalModel -->
<g id="edge8" class="edge">
<title>DataBasedModel&#45;&gt;MathematicalModel</title>
<path fill="none" stroke="#000000" d="M107.2563,-115.8007C130.585,-126.2986 161.4431,-140.1848 186.6483,-151.5271"/>
<polygon fill="none" stroke="#000000" points="185.4487,-154.8253 196.0042,-155.7373 188.3213,-148.4418 185.4487,-154.8253"/>
</g>
<!-- PhysicsEquation&#45;&gt;MathematicalModel -->
<g id="edge6" class="edge">
<title>PhysicsEquation&#45;&gt;MathematicalModel</title>
<path fill="none" stroke="#000000" d="M232.1436,-118.1686C232.1436,-125.869 232.1436,-135.0257 232.1436,-143.5834"/>
<polygon fill="none" stroke="#000000" points="228.6437,-143.5867 232.1436,-153.5867 235.6437,-143.5868 228.6437,-143.5867"/>
</g>
<!-- MesoscopicModel -->
<g id="node5" class="node">
<title>MesoscopicModel</title>
<g id="a_node5"><a xlink:href="http://emmo.info/emmo/middle/models#EMMO_53935db0_af45_4426_b9e9_244a0d77db00" xlink:title="MesoscopicModel">
<ellipse fill="#ffffcc" stroke="#000000" cx="317.1436" cy="-23" rx="76.8869" ry="18"/>
<text text-anchor="middle" x="317.1436" y="-19.3" font-family="Times,serif" font-size="14.00" fill="#000000">MesoscopicModel</text>
</a>
</g>
</g>
<!-- MesoscopicModel&#45;&gt;PhysicsBasedModel -->
<g id="edge4" class="edge">
<title>MesoscopicModel&#45;&gt;PhysicsBasedModel</title>
<path fill="none" stroke="#000000" d="M336.4314,-40.4725C347.8701,-50.8346 362.545,-64.1283 375.1241,-75.5235"/>
<polygon fill="none" stroke="#000000" points="372.8768,-78.2103 382.6379,-82.3301 377.5764,-73.0224 372.8768,-78.2103"/>
</g>
<!-- ContinuumModel -->
<g id="node7" class="node">
<title>ContinuumModel</title>
<g id="a_node7"><a xlink:href="http://emmo.info/emmo/middle/models#EMMO_4456a5d2_16a6_4ee1_9a8e_5c75956b28ea" xlink:title="ContinuumModel">
<ellipse fill="#ffffcc" stroke="#000000" cx="486.1436" cy="-23" rx="74.187" ry="18"/>
<text text-anchor="middle" x="486.1436" y="-19.3" font-family="Times,serif" font-size="14.00" fill="#000000">ContinuumModel</text>
</a>
</g>
</g>
<!-- ContinuumModel&#45;&gt;PhysicsBasedModel -->
<g id="edge7" class="edge">
<title>ContinuumModel&#45;&gt;PhysicsBasedModel</title>
<path fill="none" stroke="#000000" d="M467.0827,-40.4725C455.7785,-50.8346 441.2764,-64.1283 428.8452,-75.5235"/>
<polygon fill="none" stroke="#000000" points="426.4264,-72.9928 421.4198,-82.3301 431.1565,-78.1529 426.4264,-72.9928"/>
</g>
<!-- AtomisticModel -->
<g id="node8" class="node">
<title>AtomisticModel</title>
<g id="a_node8"><a xlink:href="http://emmo.info/emmo/middle/models#EMMO_84cadc45_6758_46f2_ba2a_5ead65c70213" xlink:title="AtomisticModel">
<ellipse fill="#ffffcc" stroke="#000000" cx="648.1436" cy="-23" rx="69.5877" ry="18"/>
<text text-anchor="middle" x="648.1436" y="-19.3" font-family="Times,serif" font-size="14.00" fill="#000000">AtomisticModel</text>
</a>
</g>
</g>
<!-- AtomisticModel&#45;&gt;PhysicsBasedModel -->
<g id="edge1" class="edge">
<title>AtomisticModel&#45;&gt;PhysicsBasedModel</title>
<path fill="none" stroke="#000000" d="M603.5949,-36.9441C563.176,-49.5956 503.3593,-68.3187 459.404,-82.077"/>
<polygon fill="none" stroke="#000000" points="458.2163,-78.7813 449.7184,-85.1087 460.3073,-85.4617 458.2163,-78.7813"/>
</g>
<!-- key1 -->
<g id="node9" class="node">
<title>key1</title>
<text text-anchor="start" x="805.1436" y="-28.8" font-family="Times,serif" font-size="14.00" fill="#000000">isA</text>
<text text-anchor="start" x="746.1436" y="-9.8" font-family="Times,serif" font-size="14.00" fill="#000000">hasSpatialPart</text>
</g>
<!-- key2 -->
<g id="node10" class="node">
<title>key2</title>
<text text-anchor="start" x="877.1436" y="-28.8" font-family="Times,serif" font-size="14.00" fill="#000000"> </text>
<text text-anchor="start" x="877.1436" y="-9.8" font-family="Times,serif" font-size="14.00" fill="#000000"> </text>
</g>
<!-- key1&#45;&gt;key2 -->
<g id="edge9" class="edge">
<title>key1:e&#45;&gt;key2:w</title>
<path fill="none" stroke="#0000ff" stroke-dasharray="5,2" d="M826.1436,-13C844.0082,-13 850.8819,-13 864.7966,-13"/>
<polygon fill="#0000ff" stroke="#0000ff" points="865.1436,-16.5001 875.1436,-13 865.1436,-9.5001 865.1436,-16.5001"/>
</g>
<!-- key1&#45;&gt;key2 -->
<g id="edge10" class="edge">
<title>key1:e&#45;&gt;key2:w</title>
<path fill="none" stroke="#000000" d="M826.1436,-33C844.0082,-33 850.8819,-33 864.7966,-33"/>
<polygon fill="none" stroke="#000000" points="865.1436,-36.5001 875.1436,-33 865.1436,-29.5001 865.1436,-36.5001"/>
</g>
</g>
</svg>
