<?xml version="1.0" encoding="UTF-8" standalone="no"?>
<!DOCTYPE svg PUBLIC "-//W3C//DTD SVG 1.1//EN"
 "http://www.w3.org/Graphics/SVG/1.1/DTD/svg11.dtd">
<!-- Generated by graphviz version 2.40.1 (20161225.0304)
 -->
<!-- Title: %3 Pages: 1 -->
<svg width="908pt" height="198pt"
 viewBox="0.00 0.00 907.54 198.00" xmlns="http://www.w3.org/2000/svg" xmlns:xlink="http://www.w3.org/1999/xlink">
<g id="graph0" class="graph" transform="scale(1 1) rotate(0) translate(4 194)">
<title>%3</title>
<polygon fill="#ffffff" stroke="transparent" points="-4,4 -4,-194 903.5438,-194 903.5438,4 -4,4"/>
<!-- PhysicsEquation -->
<g id="node1" class="node">
<title>PhysicsEquation</title>
<g id="a_node1"><a xlink:href="http://emmo.info/emmo/middle/models#EMMO_27c5d8c6_8af7_4d63_beb1_ec37cd8b3fa3" xlink:title="PhysicsEquation">
<ellipse fill="#ffffcc" stroke="#000000" cx="69.5438" cy="-100" rx="69.5877" ry="18"/>
<text text-anchor="middle" x="69.5438" y="-96.3" font-family="Times,serif" font-size="14.00" fill="#000000">PhysicsEquation</text>
</a>
</g>
</g>
<!-- MathematicalModel -->
<g id="node3" class="node">
<title>MathematicalModel</title>
<g id="a_node3"><a xlink:href="http://emmo.info/emmo/middle/models#EMMO_f7ed665b_c2e1_42bc_889b_6b42ed3a36f0" xlink:title="MathematicalModel">
<ellipse fill="#ffc880" stroke="#000000" stroke-width="2" cx="229.5438" cy="-172" rx="83.3857" ry="18"/>
<text text-anchor="middle" x="229.5438" y="-168.3" font-family="Times,serif" font-size="14.00" fill="#000000">MathematicalModel</text>
</a>
</g>
</g>
<!-- PhysicsEquation&#45;&gt;MathematicalModel -->
<g id="edge5" class="edge">
<title>PhysicsEquation&#45;&gt;MathematicalModel</title>
<path fill="none" stroke="#000000" d="M104.2614,-115.6229C127.5697,-126.1116 158.5245,-140.0413 183.8326,-151.4299"/>
<polygon fill="none" stroke="#000000" points="182.6725,-154.7459 193.228,-155.6579 185.545,-148.3624 182.6725,-154.7459"/>
</g>
<!-- MesoscopicModel -->
<g id="node2" class="node">
<title>MesoscopicModel</title>
<g id="a_node2"><a xlink:href="http://emmo.info/emmo/middle/models#EMMO_53935db0_af45_4426_b9e9_244a0d77db00" xlink:title="MesoscopicModel">
<ellipse fill="#ffffcc" stroke="#000000" cx="152.5438" cy="-23" rx="76.8869" ry="18"/>
<text text-anchor="middle" x="152.5438" y="-19.3" font-family="Times,serif" font-size="14.00" fill="#000000">MesoscopicModel</text>
</a>
</g>
</g>
<!-- PhysicsBasedModel -->
<g id="node7" class="node">
<title>PhysicsBasedModel</title>
<g id="a_node7"><a xlink:href="http://emmo.info/emmo/middle/models#EMMO_b29fd350_39aa_4af7_9459_3faa0544cba6" xlink:title="PhysicsBasedModel">
<ellipse fill="#ffffcc" stroke="#000000" cx="402.5438" cy="-100" rx="82.5854" ry="18"/>
<text text-anchor="middle" x="402.5438" y="-96.3" font-family="Times,serif" font-size="14.00" fill="#000000">PhysicsBasedModel</text>
</a>
</g>
</g>
<!-- MesoscopicModel&#45;&gt;PhysicsBasedModel -->
<g id="edge4" class="edge">
<title>MesoscopicModel&#45;&gt;PhysicsBasedModel</title>
<path fill="none" stroke="#000000" d="M199.2736,-37.3928C240.5299,-50.0997 300.8204,-68.6692 345.0283,-82.2852"/>
<polygon fill="none" stroke="#000000" points="344.1803,-85.6862 354.7675,-85.2849 346.2408,-78.9963 344.1803,-85.6862"/>
</g>
<!-- ContinuumModel -->
<g id="node4" class="node">
<title>ContinuumModel</title>
<g id="a_node4"><a xlink:href="http://emmo.info/emmo/middle/models#EMMO_4456a5d2_16a6_4ee1_9a8e_5c75956b28ea" xlink:title="ContinuumModel">
<ellipse fill="#ffffcc" stroke="#000000" cx="321.5438" cy="-23" rx="74.187" ry="18"/>
<text text-anchor="middle" x="321.5438" y="-19.3" font-family="Times,serif" font-size="14.00" fill="#000000">ContinuumModel</text>
</a>
</g>
</g>
<!-- ContinuumModel&#45;&gt;PhysicsBasedModel -->
<g id="edge1" class="edge">
<title>ContinuumModel&#45;&gt;PhysicsBasedModel</title>
<path fill="none" stroke="#000000" d="M339.924,-40.4725C350.7216,-50.7369 364.5451,-63.8777 376.456,-75.2005"/>
<polygon fill="none" stroke="#000000" points="374.2968,-77.977 383.956,-82.3301 379.1197,-72.9035 374.2968,-77.977"/>
</g>
<!-- AtomisticModel -->
<g id="node5" class="node">
<title>AtomisticModel</title>
<g id="a_node5"><a xlink:href="http://emmo.info/emmo/middle/models#EMMO_84cadc45_6758_46f2_ba2a_5ead65c70213" xlink:title="AtomisticModel">
<ellipse fill="#ffffcc" stroke="#000000" cx="483.5438" cy="-23" rx="69.5877" ry="18"/>
<text text-anchor="middle" x="483.5438" y="-19.3" font-family="Times,serif" font-size="14.00" fill="#000000">AtomisticModel</text>
</a>
</g>
</g>
<!-- AtomisticModel&#45;&gt;PhysicsBasedModel -->
<g id="edge3" class="edge">
<title>AtomisticModel&#45;&gt;PhysicsBasedModel</title>
<path fill="none" stroke="#000000" d="M465.1637,-40.4725C454.3661,-50.7369 440.5426,-63.8777 428.6316,-75.2005"/>
<polygon fill="none" stroke="#000000" points="425.968,-72.9035 421.1316,-82.3301 430.7909,-77.977 425.968,-72.9035"/>
</g>
<!-- DataBasedModel -->
<g id="node6" class="node">
<title>DataBasedModel</title>
<g id="a_node6"><a xlink:href="http://emmo.info/emmo/middle/models#EMMO_a4b14b83_9392_4a5f_a2e8_b2b58793f59b" xlink:title="DataBasedModel">
<ellipse fill="#ffffcc" stroke="#000000" cx="229.5438" cy="-100" rx="72.2875" ry="18"/>
<text text-anchor="middle" x="229.5438" y="-96.3" font-family="Times,serif" font-size="14.00" fill="#000000">DataBasedModel</text>
</a>
</g>
</g>
<!-- DataBasedModel&#45;&gt;MathematicalModel -->
<g id="edge6" class="edge">
<title>DataBasedModel&#45;&gt;MathematicalModel</title>
<path fill="none" stroke="#000000" d="M229.5438,-118.1686C229.5438,-125.869 229.5438,-135.0257 229.5438,-143.5834"/>
<polygon fill="none" stroke="#000000" points="226.0439,-143.5867 229.5438,-153.5867 233.0439,-143.5868 226.0439,-143.5867"/>
</g>
<!-- PhysicsBasedModel&#45;&gt;PhysicsEquation -->
<g id="edge8" class="edge">
<title>PhysicsBasedModel&#45;&gt;PhysicsEquation</title>
<path fill="none" stroke="#0000ff" stroke-dasharray="5,2" d="M366.4223,-83.7263C347.5166,-76.0897 323.7391,-67.8373 301.5438,-64 238.4794,-53.0968 220.3413,-51.6517 157.5438,-64 141.4674,-67.1612 124.6284,-73.283 110.0348,-79.5943"/>
<polygon fill="#0000ff" stroke="#0000ff" points="108.4892,-76.4516 100.7996,-83.7399 111.356,-82.8377 108.4892,-76.4516"/>
</g>
<!-- PhysicsBasedModel&#45;&gt;MathematicalModel -->
<g id="edge7" class="edge">
<title>PhysicsBasedModel&#45;&gt;MathematicalModel</title>
<path fill="none" stroke="#000000" d="M364.1495,-115.9791C338.5932,-126.6153 304.8224,-140.6702 277.5006,-152.0411"/>
<polygon fill="none" stroke="#000000" points="276.0171,-148.8675 268.1296,-155.9412 278.7068,-155.3301 276.0171,-148.8675"/>
</g>
<!-- ElectronicModel -->
<g id="node8" class="node">
<title>ElectronicModel</title>
<g id="a_node8"><a xlink:href="http://emmo.info/emmo/middle/models#EMMO_6eca09be_17e9_445e_abc9_000aa61b7a11" xlink:title="ElectronicModel">
<ellipse fill="#ffffcc" stroke="#000000" cx="641.5438" cy="-23" rx="70.3881" ry="18"/>
<text text-anchor="middle" x="641.5438" y="-19.3" font-family="Times,serif" font-size="14.00" fill="#000000">ElectronicModel</text>
</a>
</g>
</g>
<!-- ElectronicModel&#45;&gt;PhysicsBasedModel -->
<g id="edge2" class="edge">
<title>ElectronicModel&#45;&gt;PhysicsBasedModel</title>
<path fill="none" stroke="#000000" d="M597.7075,-37.123C558.5757,-49.7303 501.0549,-68.2621 458.5909,-81.943"/>
<polygon fill="none" stroke="#000000" points="457.4025,-78.6486 448.9576,-85.0466 459.5491,-85.3114 457.4025,-78.6486"/>
</g>
<!-- key1 -->
<g id="node9" class="node">
<title>key1</title>
<text text-anchor="start" x="798.5438" y="-28.8" font-family="Times,serif" font-size="14.00" fill="#000000">isA</text>
<text text-anchor="start" x="739.5438" y="-9.8" font-family="Times,serif" font-size="14.00" fill="#000000">hasSpatialPart</text>
</g>
<!-- key2 -->
<g id="node10" class="node">
<title>key2</title>
<text text-anchor="start" x="870.5438" y="-28.8" font-family="Times,serif" font-size="14.00" fill="#000000"> </text>
<text text-anchor="start" x="870.5438" y="-9.8" font-family="Times,serif" font-size="14.00" fill="#000000"> </text>
</g>
<!-- key1&#45;&gt;key2 -->
<g id="edge9" class="edge">
<title>key1:e&#45;&gt;key2:w</title>
<path fill="none" stroke="#0000ff" stroke-dasharray="5,2" d="M819.5438,-13C837.4084,-13 844.2821,-13 858.1968,-13"/>
<polygon fill="#0000ff" stroke="#0000ff" points="858.5439,-16.5001 868.5438,-13 858.5438,-9.5001 858.5439,-16.5001"/>
</g>
<!-- key1&#45;&gt;key2 -->
<g id="edge10" class="edge">
<title>key1:e&#45;&gt;key2:w</title>
<path fill="none" stroke="#000000" d="M819.5438,-33C837.4084,-33 844.2821,-33 858.1968,-33"/>
<polygon fill="none" stroke="#000000" points="858.5439,-36.5001 868.5438,-33 858.5438,-29.5001 858.5439,-36.5001"/>
</g>
</g>
</svg>
