<?xml version="1.0" encoding="UTF-8" standalone="no"?>
<!DOCTYPE svg PUBLIC "-//W3C//DTD SVG 1.1//EN"
 "http://www.w3.org/Graphics/SVG/1.1/DTD/svg11.dtd">
<!-- Generated by graphviz version 2.40.1 (20161225.0304)
 -->
<!-- Title: %3 Pages: 1 -->
<svg width="845pt" height="218pt"
 viewBox="0.00 0.00 844.74 218.00" xmlns="http://www.w3.org/2000/svg" xmlns:xlink="http://www.w3.org/1999/xlink">
<g id="graph0" class="graph" transform="scale(1 1) rotate(0) translate(4 214)">
<title>%3</title>
<polygon fill="#ffffff" stroke="transparent" points="-4,4 -4,-214 840.7376,-214 840.7376,4 -4,4"/>
<!-- PhysicsEquation -->
<g id="node1" class="node">
<title>PhysicsEquation</title>
<g id="a_node1"><a xlink:href="http://emmo.info/emmo/middle/models#EMMO_27c5d8c6_8af7_4d63_beb1_ec37cd8b3fa3" xlink:title="PhysicsEquation">
<ellipse fill="#ffffcc" stroke="#000000" cx="69.5438" cy="-105" rx="69.5877" ry="18"/>
<text text-anchor="middle" x="69.5438" y="-101.3" font-family="Times,serif" font-size="14.00" fill="#000000">PhysicsEquation</text>
</a>
</g>
</g>
<!-- MathematicalModel -->
<g id="node3" class="node">
<title>MathematicalModel</title>
<g id="a_node3"><a xlink:href="http://emmo.info/emmo/middle/models#EMMO_f7ed665b_c2e1_42bc_889b_6b42ed3a36f0" xlink:title="MathematicalModel">
<ellipse fill="#ffc880" stroke="#000000" stroke-width="2" cx="258.5438" cy="-192" rx="83.3857" ry="18"/>
<text text-anchor="middle" x="258.5438" y="-188.3" font-family="Times,serif" font-size="14.00" fill="#000000">MathematicalModel</text>
</a>
</g>
</g>
<!-- PhysicsEquation&#45;&gt;MathematicalModel -->
<g id="edge8" class="edge">
<title>PhysicsEquation&#45;&gt;MathematicalModel</title>
<path fill="none" stroke="#000000" d="M103.7703,-120.755C134.5936,-134.9436 180.1,-155.8909 213.7981,-171.4027"/>
<polygon fill="none" stroke="#000000" points="212.4202,-174.6214 222.9675,-175.6236 215.3472,-168.2628 212.4202,-174.6214"/>
<text text-anchor="middle" x="185.0438" y="-144.8" font-family="Times,serif" font-size="14.00" fill="#000000">isA</text>
</g>
<!-- MesoscopicModel -->
<g id="node2" class="node">
<title>MesoscopicModel</title>
<g id="a_node2"><a xlink:href="http://emmo.info/emmo/middle/models#EMMO_53935db0_af45_4426_b9e9_244a0d77db00" xlink:title="MesoscopicModel">
<ellipse fill="#ffffcc" stroke="#000000" cx="277.5438" cy="-18" rx="76.8869" ry="18"/>
<text text-anchor="middle" x="277.5438" y="-14.3" font-family="Times,serif" font-size="14.00" fill="#000000">MesoscopicModel</text>
</a>
</g>
</g>
<!-- PhysicsBasedModel -->
<g id="node7" class="node">
<title>PhysicsBasedModel</title>
<g id="a_node7"><a xlink:href="http://emmo.info/emmo/middle/models#EMMO_b29fd350_39aa_4af7_9459_3faa0544cba6" xlink:title="PhysicsBasedModel">
<ellipse fill="#ffffcc" stroke="#000000" cx="446.5438" cy="-105" rx="82.5854" ry="18"/>
<text text-anchor="middle" x="446.5438" y="-101.3" font-family="Times,serif" font-size="14.00" fill="#000000">PhysicsBasedModel</text>
</a>
</g>
</g>
<!-- MesoscopicModel&#45;&gt;PhysicsBasedModel -->
<g id="edge7" class="edge">
<title>MesoscopicModel&#45;&gt;PhysicsBasedModel</title>
<path fill="none" stroke="#000000" d="M309.7292,-34.5688C336.7777,-48.4932 375.6165,-68.4871 405.0073,-83.6173"/>
<polygon fill="none" stroke="#000000" points="403.6978,-86.8797 414.1909,-88.3449 406.9018,-80.656 403.6978,-86.8797"/>
<text text-anchor="middle" x="382.0438" y="-57.8" font-family="Times,serif" font-size="14.00" fill="#000000">isA</text>
</g>
<!-- ContinuumModel -->
<g id="node4" class="node">
<title>ContinuumModel</title>
<g id="a_node4"><a xlink:href="http://emmo.info/emmo/middle/models#EMMO_4456a5d2_16a6_4ee1_9a8e_5c75956b28ea" xlink:title="ContinuumModel">
<ellipse fill="#ffffcc" stroke="#000000" cx="446.5438" cy="-18" rx="74.187" ry="18"/>
<text text-anchor="middle" x="446.5438" y="-14.3" font-family="Times,serif" font-size="14.00" fill="#000000">ContinuumModel</text>
</a>
</g>
</g>
<!-- ContinuumModel&#45;&gt;PhysicsBasedModel -->
<g id="edge6" class="edge">
<title>ContinuumModel&#45;&gt;PhysicsBasedModel</title>
<path fill="none" stroke="#000000" d="M446.5438,-36.0265C446.5438,-47.8082 446.5438,-63.4393 446.5438,-76.8419"/>
<polygon fill="none" stroke="#000000" points="443.0439,-76.9966 446.5438,-86.9966 450.0439,-76.9967 443.0439,-76.9966"/>
<text text-anchor="middle" x="456.0438" y="-57.8" font-family="Times,serif" font-size="14.00" fill="#000000">isA</text>
</g>
<!-- AtomisticModel -->
<g id="node5" class="node">
<title>AtomisticModel</title>
<g id="a_node5"><a xlink:href="http://emmo.info/emmo/middle/models#EMMO_84cadc45_6758_46f2_ba2a_5ead65c70213" xlink:title="AtomisticModel">
<ellipse fill="#ffffcc" stroke="#000000" cx="608.5438" cy="-18" rx="69.5877" ry="18"/>
<text text-anchor="middle" x="608.5438" y="-14.3" font-family="Times,serif" font-size="14.00" fill="#000000">AtomisticModel</text>
</a>
</g>
</g>
<!-- AtomisticModel&#45;&gt;PhysicsBasedModel -->
<g id="edge1" class="edge">
<title>AtomisticModel&#45;&gt;PhysicsBasedModel</title>
<path fill="none" stroke="#000000" d="M578.0729,-34.364C552.1864,-48.266 514.8359,-68.3246 486.5462,-83.5172"/>
<polygon fill="none" stroke="#000000" points="484.8596,-80.4502 477.7056,-88.265 488.1716,-86.6171 484.8596,-80.4502"/>
<text text-anchor="middle" x="547.0438" y="-57.8" font-family="Times,serif" font-size="14.00" fill="#000000">isA</text>
</g>
<!-- DataBasedModel -->
<g id="node6" class="node">
<title>DataBasedModel</title>
<g id="a_node6"><a xlink:href="http://emmo.info/emmo/middle/models#EMMO_a4b14b83_9392_4a5f_a2e8_b2b58793f59b" xlink:title="DataBasedModel">
<ellipse fill="#ffffcc" stroke="#000000" cx="258.5438" cy="-105" rx="72.2875" ry="18"/>
<text text-anchor="middle" x="258.5438" y="-101.3" font-family="Times,serif" font-size="14.00" fill="#000000">DataBasedModel</text>
</a>
</g>
</g>
<!-- DataBasedModel&#45;&gt;MathematicalModel -->
<g id="edge3" class="edge">
<title>DataBasedModel&#45;&gt;MathematicalModel</title>
<path fill="none" stroke="#000000" d="M258.5438,-123.0265C258.5438,-134.8082 258.5438,-150.4393 258.5438,-163.8419"/>
<polygon fill="none" stroke="#000000" points="255.0439,-163.9966 258.5438,-173.9966 262.0439,-163.9967 255.0439,-163.9966"/>
<text text-anchor="middle" x="268.0438" y="-144.8" font-family="Times,serif" font-size="14.00" fill="#000000">isA</text>
</g>
<!-- PhysicsBasedModel&#45;&gt;PhysicsEquation -->
<g id="edge5" class="edge">
<title>PhysicsBasedModel&#45;&gt;PhysicsEquation</title>
<path fill="none" stroke="#0000ff" stroke-dasharray="5,2" d="M399.3943,-90.0655C363.7398,-79.5864 313.3526,-66.5019 268.0438,-61 219.0702,-55.053 205.0445,-49.6107 157.0438,-61 138.5118,-65.3972 119.4448,-74.3705 103.8592,-83.0734"/>
<polygon fill="#0000ff" stroke="#0000ff" points="102.0201,-80.0938 95.1153,-88.1297 105.5242,-86.1536 102.0201,-80.0938"/>
<text text-anchor="middle" x="212.5438" y="-57.8" font-family="Times,serif" font-size="14.00" fill="#000000">hasSpatialPart some</text>
</g>
<!-- PhysicsBasedModel&#45;&gt;MathematicalModel -->
<g id="edge4" class="edge">
<title>PhysicsBasedModel&#45;&gt;MathematicalModel</title>
<path fill="none" stroke="#000000" d="M411.1825,-121.364C380.6876,-135.476 336.484,-155.9319 303.4861,-171.2022"/>
<polygon fill="none" stroke="#000000" points="301.6712,-168.1855 294.0657,-175.5617 304.611,-174.5382 301.6712,-168.1855"/>
<text text-anchor="middle" x="374.0438" y="-144.8" font-family="Times,serif" font-size="14.00" fill="#000000">isA</text>
</g>
<!-- ElectronicModel -->
<g id="node8" class="node">
<title>ElectronicModel</title>
<g id="a_node8"><a xlink:href="http://emmo.info/emmo/middle/models#EMMO_6eca09be_17e9_445e_abc9_000aa61b7a11" xlink:title="ElectronicModel">
<ellipse fill="#ffffcc" stroke="#000000" cx="766.5438" cy="-18" rx="70.3881" ry="18"/>
<text text-anchor="middle" x="766.5438" y="-14.3" font-family="Times,serif" font-size="14.00" fill="#000000">ElectronicModel</text>
</a>
</g>
</g>
<!-- ElectronicModel&#45;&gt;PhysicsBasedModel -->
<g id="edge2" class="edge">
<title>ElectronicModel&#45;&gt;PhysicsBasedModel</title>
<path fill="none" stroke="#000000" d="M718.2901,-31.119C662.2222,-46.3624 569.5879,-71.5474 508.3111,-88.207"/>
<polygon fill="none" stroke="#000000" points="507.112,-84.9059 498.3805,-90.9069 508.9485,-91.6607 507.112,-84.9059"/>
<text text-anchor="middle" x="636.0438" y="-57.8" font-family="Times,serif" font-size="14.00" fill="#000000">isA</text>
</g>
</g>
</svg>
