<?xml version="1.0" encoding="UTF-8" standalone="no"?>
<!DOCTYPE svg PUBLIC "-//W3C//DTD SVG 1.1//EN"
 "http://www.w3.org/Graphics/SVG/1.1/DTD/svg11.dtd">
<!-- Generated by graphviz version 2.40.1 (20161225.0304)
 -->
<!-- Title: %3 Pages: 1 -->
<svg width="1269pt" height="217pt"
 viewBox="0.00 0.00 1269.44 217.00" xmlns="http://www.w3.org/2000/svg" xmlns:xlink="http://www.w3.org/1999/xlink">
<g id="graph0" class="graph" transform="scale(1 1) rotate(0) translate(4 213)">
<title>%3</title>
<polygon fill="#ffffff" stroke="transparent" points="-4,4 -4,-213 1265.4423,-213 1265.4423,4 -4,4"/>
<!-- Unknown -->
<g id="node1" class="node">
<title>Unknown</title>
<g id="a_node1"><a xlink:href="http://emmo.info/emmo/middle/math#EMMO_fe7e56ce_118b_4243_9aad_20eb9f4f31f6" xlink:title="Unknown">
<ellipse fill="#ffffcc" stroke="#000000" cx="45.496" cy="-32.5" rx="45.4919" ry="18"/>
<text text-anchor="middle" x="45.496" y="-28.8" font-family="Times,serif" font-size="14.00" fill="#000000">Unknown</text>
</a>
</g>
</g>
<!-- Variable -->
<g id="node10" class="node">
<title>Variable</title>
<g id="a_node10"><a xlink:href="http://emmo.info/emmo/middle/math#EMMO_1eed0732_e3f1_4b2c_a9c4_b4e75eeb5895" xlink:title="Variable">
<ellipse fill="#ffffcc" stroke="#000000" cx="205.496" cy="-119" rx="40.8928" ry="18"/>
<text text-anchor="middle" x="205.496" y="-115.3" font-family="Times,serif" font-size="14.00" fill="#000000">Variable</text>
</a>
</g>
</g>
<!-- Unknown&#45;&gt;Variable -->
<g id="edge8" class="edge">
<title>Unknown&#45;&gt;Variable</title>
<path fill="none" stroke="#000000" d="M70.5072,-47.698C79.8485,-53.2631 90.5917,-59.5331 100.496,-65 123.0619,-77.4559 148.7921,-90.7035 169.1338,-100.9601"/>
<polygon fill="none" stroke="#000000" points="167.563,-104.0878 178.0701,-105.4485 170.7049,-97.8324 167.563,-104.0878"/>
</g>
<!-- Matrix -->
<g id="node2" class="node">
<title>Matrix</title>
<g id="a_node2"><a xlink:href="http://emmo.info/emmo/top/math#EMMO_1cba0b27_15d0_4326_933f_379d0b3565b6" xlink:title="Matrix">
<ellipse fill="#ffffcc" stroke="#000000" cx="358.496" cy="-32.5" rx="35.194" ry="18"/>
<text text-anchor="middle" x="358.496" y="-28.8" font-family="Times,serif" font-size="14.00" fill="#000000">Matrix</text>
</a>
</g>
</g>
<!-- Array -->
<g id="node3" class="node">
<title>Array</title>
<g id="a_node3"><a xlink:href="http://emmo.info/emmo/top/math#EMMO_28fbea28_2204_4613_87ff_6d877b855fcd" xlink:title="Array">
<ellipse fill="#ffffcc" stroke="#000000" cx="358.496" cy="-119" rx="31.3957" ry="18"/>
<text text-anchor="middle" x="358.496" y="-115.3" font-family="Times,serif" font-size="14.00" fill="#000000">Array</text>
</a>
</g>
</g>
<!-- Matrix&#45;&gt;Array -->
<g id="edge3" class="edge">
<title>Matrix&#45;&gt;Array</title>
<path fill="none" stroke="#000000" d="M358.496,-50.8444C358.496,-62.3901 358.496,-77.528 358.496,-90.6039"/>
<polygon fill="none" stroke="#000000" points="354.9961,-90.9786 358.496,-100.9786 361.9961,-90.9787 354.9961,-90.9786"/>
</g>
<!-- Mathematical -->
<g id="node7" class="node">
<title>Mathematical</title>
<g id="a_node7"><a xlink:href="http://emmo.info/emmo/middle/math#EMMO_54ee6b5e_5261_44a8_86eb_5717e7fdb9d0" xlink:title="Mathematical">
<ellipse fill="#ffffcc" stroke="#000000" stroke-width="2" cx="708.496" cy="-191" rx="59.5901" ry="18"/>
<text text-anchor="middle" x="708.496" y="-187.3" font-family="Times,serif" font-size="14.00" fill="#000000">Mathematical</text>
</a>
</g>
</g>
<!-- Array&#45;&gt;Mathematical -->
<g id="edge14" class="edge">
<title>Array&#45;&gt;Mathematical</title>
<path fill="none" stroke="#000000" d="M382.2324,-130.8514C387.4934,-133.146 393.1085,-135.3473 398.496,-137 480.127,-162.0422 577.6359,-176.6349 641.2054,-184.203"/>
<polygon fill="none" stroke="#000000" points="641.1601,-187.7214 651.498,-185.4023 641.9703,-180.7684 641.1601,-187.7214"/>
</g>
<!-- MathematicalModel -->
<g id="node4" class="node">
<title>MathematicalModel</title>
<g id="a_node4"><a xlink:href="http://emmo.info/emmo/middle/models#EMMO_f7ed665b_c2e1_42bc_889b_6b42ed3a36f0" xlink:title="MathematicalModel">
<ellipse fill="#ffc880" stroke="#000000" stroke-width="2" cx="490.496" cy="-119" rx="83.3857" ry="18"/>
<text text-anchor="middle" x="490.496" y="-115.3" font-family="Times,serif" font-size="14.00" fill="#000000">MathematicalModel</text>
</a>
</g>
</g>
<!-- MathematicalModel&#45;&gt;Mathematical -->
<g id="edge2" class="edge">
<title>MathematicalModel&#45;&gt;Mathematical</title>
<path fill="none" stroke="#000000" d="M536.1959,-134.0936C571.9545,-145.9037 621.6224,-162.3078 658.4489,-174.4707"/>
<polygon fill="none" stroke="#000000" points="657.4016,-177.8107 667.9948,-177.6235 659.5969,-171.1638 657.4016,-177.8107"/>
</g>
<!-- Parameter -->
<g id="node5" class="node">
<title>Parameter</title>
<g id="a_node5"><a xlink:href="http://emmo.info/emmo/middle/math#EMMO_d1d436e7_72fc_49cd_863b_7bfb4ba5276a" xlink:title="Parameter">
<ellipse fill="#ffffcc" stroke="#000000" cx="258.496" cy="-32.5" rx="46.5926" ry="18"/>
<text text-anchor="middle" x="258.496" y="-28.8" font-family="Times,serif" font-size="14.00" fill="#000000">Parameter</text>
</a>
</g>
</g>
<!-- Parameter&#45;&gt;Variable -->
<g id="edge1" class="edge">
<title>Parameter&#45;&gt;Variable</title>
<path fill="none" stroke="#000000" d="M247.5143,-50.4229C240.0029,-62.682 229.9232,-79.1329 221.5191,-92.849"/>
<polygon fill="none" stroke="#000000" points="218.5223,-91.0407 216.2822,-101.3961 224.4911,-94.6979 218.5223,-91.0407"/>
</g>
<!-- Numerical -->
<g id="node6" class="node">
<title>Numerical</title>
<g id="a_node6"><a xlink:href="http://emmo.info/emmo/middle/math#EMMO_4ce76d7f_03f8_45b6_9003_90052a79bfaa" xlink:title="Numerical">
<ellipse fill="#ffffcc" stroke="#000000" cx="639.496" cy="-119" rx="48.1917" ry="18"/>
<text text-anchor="middle" x="639.496" y="-115.3" font-family="Times,serif" font-size="14.00" fill="#000000">Numerical</text>
</a>
</g>
</g>
<!-- Numerical&#45;&gt;Mathematical -->
<g id="edge4" class="edge">
<title>Numerical&#45;&gt;Mathematical</title>
<path fill="none" stroke="#000000" d="M655.848,-136.063C664.4859,-145.0765 675.2457,-156.3041 684.7827,-166.2557"/>
<polygon fill="none" stroke="#000000" points="682.3359,-168.7611 691.782,-173.5593 687.3899,-163.9177 682.3359,-168.7611"/>
</g>
<!-- PhysicalQuantity -->
<g id="node8" class="node">
<title>PhysicalQuantity</title>
<g id="a_node8"><a xlink:href="http://emmo.info/emmo/middle/metrology#EMMO_02c0621e_a527_4790_8a0f_2bb51973c819" xlink:title="PhysicalQuantity">
<ellipse fill="#ffffcc" stroke="#000000" stroke-width="2" cx="777.496" cy="-119" rx="71.4873" ry="18"/>
<text text-anchor="middle" x="777.496" y="-115.3" font-family="Times,serif" font-size="14.00" fill="#000000">PhysicalQuantity</text>
</a>
</g>
</g>
<!-- PhysicalQuantity&#45;&gt;Mathematical -->
<g id="edge15" class="edge">
<title>PhysicalQuantity&#45;&gt;Mathematical</title>
<path fill="none" stroke="#000000" d="M760.4398,-136.7978C751.9375,-145.6697 741.5171,-156.5431 732.247,-166.2163"/>
<polygon fill="none" stroke="#000000" points="729.51,-164.0138 725.1179,-173.6554 734.5639,-168.8572 729.51,-164.0138"/>
</g>
<!-- Constant -->
<g id="node9" class="node">
<title>Constant</title>
<g id="a_node9"><a xlink:href="http://emmo.info/emmo/middle/math#EMMO_ae15fb4f_8e4d_41de_a0f9_3997f89ba6a2" xlink:title="Constant">
<ellipse fill="#ffffcc" stroke="#000000" cx="151.496" cy="-32.5" rx="42.4939" ry="18"/>
<text text-anchor="middle" x="151.496" y="-28.8" font-family="Times,serif" font-size="14.00" fill="#000000">Constant</text>
</a>
</g>
</g>
<!-- Constant&#45;&gt;Numerical -->
<g id="edge7" class="edge">
<title>Constant&#45;&gt;Numerical</title>
<path fill="none" stroke="#ffa500" stroke-dasharray="5,2" d="M171.6816,-48.4937C180.6213,-54.7195 191.5734,-61.2477 202.496,-65 362.9374,-120.1182 416.2381,-67.269 582.496,-101 586.3893,-101.7899 590.3928,-102.7461 594.3865,-103.8011"/>
<polygon fill="#ffa500" stroke="#ffa500" points="603.271,-109.9563 594.604,-103.8626 605.1794,-103.2215 603.271,-109.9563"/>
</g>
<!-- Constant&#45;&gt;Variable -->
<g id="edge6" class="edge">
<title>Constant&#45;&gt;Variable</title>
<path fill="none" stroke="#000000" d="M162.4237,-50.0046C170.109,-62.3153 180.5258,-79.0015 189.1902,-92.8805"/>
<polygon fill="none" stroke="#000000" points="186.3199,-94.8922 194.5845,-101.5215 192.2578,-91.1852 186.3199,-94.8922"/>
</g>
<!-- Variable&#45;&gt;Mathematical -->
<g id="edge12" class="edge">
<title>Variable&#45;&gt;Mathematical</title>
<path fill="none" stroke="#000000" d="M242.8721,-126.4809C262.6739,-129.8004 287.2927,-133.6948 309.496,-137 426.2871,-154.3856 563.04,-172.8961 642.4017,-183.0971"/>
<polygon fill="none" stroke="#000000" points="642.3737,-186.622 652.7372,-184.4201 643.2625,-179.6787 642.3737,-186.622"/>
</g>
<!-- Variable&#45;&gt;Mathematical -->
<g id="edge13" class="edge">
<title>Variable&#45;&gt;Mathematical</title>
<path fill="none" stroke="#ffa500" stroke-dasharray="5,2" d="M244.9163,-124.2553C268.9942,-127.9414 300.0858,-132.9197 327.496,-137 438.8829,-153.5812 568.4272,-171.1855 644.2264,-181.6287"/>
<polygon fill="#ffa500" stroke="#ffa500" points="654.0795,-186.521 644.6517,-181.6872 655.0362,-179.5867 654.0795,-186.521"/>
</g>
<!-- Expression -->
<g id="node11" class="node">
<title>Expression</title>
<g id="a_node11"><a xlink:href="http://emmo.info/emmo/middle/math#EMMO_f9bc8b52_85e9_4b53_b969_dd7724d5b8e4" xlink:title="Expression">
<ellipse fill="#ffffcc" stroke="#000000" stroke-width="2" cx="917.496" cy="-119" rx="50.0912" ry="18"/>
<text text-anchor="middle" x="917.496" y="-115.3" font-family="Times,serif" font-size="14.00" fill="#000000">Expression</text>
</a>
</g>
</g>
<!-- Expression&#45;&gt;Mathematical -->
<g id="edge9" class="edge">
<title>Expression&#45;&gt;Mathematical</title>
<path fill="none" stroke="#000000" d="M881.0909,-131.5414C846.9507,-143.3027 795.6357,-160.9806 757.8278,-174.0053"/>
<polygon fill="none" stroke="#000000" points="756.3523,-170.8117 748.0376,-177.378 758.6323,-177.43 756.3523,-170.8117"/>
</g>
<!-- MathematicalSymbol -->
<g id="node12" class="node">
<title>MathematicalSymbol</title>
<g id="a_node12"><a xlink:href="http://emmo.info/emmo/middle/math#EMMO_5be83f9c_a4ba_4b9a_be1a_5bfc6e891231" xlink:title="MathematicalSymbol">
<ellipse fill="#ffc880" stroke="#000000" stroke-width="2" cx="1073.496" cy="-119" rx="87.9851" ry="18"/>
<text text-anchor="middle" x="1073.496" y="-115.3" font-family="Times,serif" font-size="14.00" fill="#000000">MathematicalSymbol</text>
</a>
</g>
</g>
<!-- MathematicalSymbol&#45;&gt;Mathematical -->
<g id="edge5" class="edge">
<title>MathematicalSymbol&#45;&gt;Mathematical</title>
<path fill="none" stroke="#000000" d="M1009.9178,-131.5414C942.0188,-144.9352 835.2203,-166.0023 768.6606,-179.1319"/>
<polygon fill="none" stroke="#000000" points="767.8725,-175.7198 758.7389,-181.0891 769.2273,-182.5875 767.8725,-175.7198"/>
</g>
<!-- Formula -->
<g id="node13" class="node">
<title>Formula</title>
<g id="a_node13"><a xlink:href="http://emmo.info/emmo/middle/math#EMMO_88470739_03d3_4c47_a03e_b30a1288d50c" xlink:title="Formula">
<ellipse fill="#ffffcc" stroke="#000000" stroke-width="2" cx="1220.496" cy="-119" rx="40.8928" ry="18"/>
<text text-anchor="middle" x="1220.496" y="-115.3" font-family="Times,serif" font-size="14.00" fill="#000000">Formula</text>
</a>
</g>
</g>
<!-- Formula&#45;&gt;Mathematical -->
<g id="edge10" class="edge">
<title>Formula&#45;&gt;Mathematical</title>
<path fill="none" stroke="#000000" d="M1190.158,-131.1729C1183.7463,-133.3904 1176.9623,-135.4794 1170.496,-137 1033.6808,-169.1723 869.3575,-182.5585 778.165,-187.8322"/>
<polygon fill="none" stroke="#000000" points="777.7408,-184.3504 767.9531,-188.4064 778.1339,-191.3394 777.7408,-184.3504"/>
</g>
<!-- Vector -->
<g id="node14" class="node">
<title>Vector</title>
<g id="a_node14"><a xlink:href="http://emmo.info/emmo/middle/math#EMMO_06658d8d_dcde_4fc9_aae1_17f71c0bcdec" xlink:title="Vector">
<ellipse fill="#ffffcc" stroke="#000000" cx="446.496" cy="-32.5" rx="34.394" ry="18"/>
<text text-anchor="middle" x="446.496" y="-28.8" font-family="Times,serif" font-size="14.00" fill="#000000">Vector</text>
</a>
</g>
</g>
<!-- Vector&#45;&gt;Array -->
<g id="edge11" class="edge">
<title>Vector&#45;&gt;Array</title>
<path fill="none" stroke="#000000" d="M429.9438,-48.77C416.3766,-62.106 397.0124,-81.1401 381.8649,-96.0294"/>
<polygon fill="none" stroke="#000000" points="379.0592,-93.8795 374.3811,-103.3856 383.9663,-98.8716 379.0592,-93.8795"/>
</g>
<!-- key1 -->
<g id="node15" class="node">
<title>key1</title>
<text text-anchor="start" x="555.496" y="-47.3" font-family="Times,serif" font-size="14.00" fill="#000000">isA</text>
<text text-anchor="start" x="509.496" y="-28.3" font-family="Times,serif" font-size="14.00" fill="#000000">hasVariable</text>
<text text-anchor="start" x="534.496" y="-9.3" font-family="Times,serif" font-size="14.00" fill="#000000">inverse</text>
</g>
<!-- key2 -->
<g id="node16" class="node">
<title>key2</title>
<text text-anchor="start" x="627.496" y="-47.3" font-family="Times,serif" font-size="14.00" fill="#000000"> </text>
<text text-anchor="start" x="627.496" y="-28.3" font-family="Times,serif" font-size="14.00" fill="#000000"> </text>
<text text-anchor="start" x="627.496" y="-9.3" font-family="Times,serif" font-size="14.00" fill="#000000"> </text>
</g>
<!-- key1&#45;&gt;key2 -->
<g id="edge16" class="edge">
<title>key1:e&#45;&gt;key2:w</title>
<path fill="none" stroke="#000000" d="M576.496,-13.5C594.3605,-13.5 601.2342,-13.5 615.149,-13.5"/>
<polygon fill="#000000" stroke="#000000" points="625.496,-17 615.496,-13.5001 625.4959,-10 625.496,-17"/>
</g>
<!-- key1&#45;&gt;key2 -->
<g id="edge17" class="edge">
<title>key1:e&#45;&gt;key2:w</title>
<path fill="none" stroke="#ffa500" stroke-dasharray="5,2" d="M576.496,-33.5C594.3605,-33.5 601.2342,-33.5 615.149,-33.5"/>
<polygon fill="#ffa500" stroke="#ffa500" points="615.496,-37.0001 625.496,-33.5 615.4959,-30.0001 615.496,-37.0001"/>
</g>
<!-- key1&#45;&gt;key2 -->
<g id="edge18" class="edge">
<title>key1:e&#45;&gt;key2:w</title>
<path fill="none" stroke="#000000" d="M576.496,-52.5C594.3605,-52.5 601.2342,-52.5 615.149,-52.5"/>
<polygon fill="none" stroke="#000000" points="615.496,-56.0001 625.496,-52.5 615.4959,-49.0001 615.496,-56.0001"/>
</g>
</g>
</svg>
