<?xml version="1.0" encoding="UTF-8" standalone="no"?>
<!DOCTYPE svg PUBLIC "-//W3C//DTD SVG 1.1//EN"
 "http://www.w3.org/Graphics/SVG/1.1/DTD/svg11.dtd">
<!-- Generated by graphviz version 2.40.1 (20161225.0304)
 -->
<!-- Title: %3 Pages: 1 -->
<svg width="649pt" height="116pt"
 viewBox="0.00 0.00 648.90 116.00" xmlns="http://www.w3.org/2000/svg" xmlns:xlink="http://www.w3.org/1999/xlink">
<g id="graph0" class="graph" transform="scale(1 1) rotate(0) translate(4 112)">
<title>%3</title>
<polygon fill="#ffffff" stroke="transparent" points="-4,4 -4,-112 644.895,-112 644.895,4 -4,4"/>
<!-- MetricPrefix -->
<g id="node1" class="node">
<title>MetricPrefix</title>
<g id="a_node1"><a xlink:href="http://emmo.info/emmo/middle/metrology#EMMO_7d2afa66_ae9e_4095_a9bf_421d0be401b6" xlink:title="MetricPrefix">
<ellipse fill="#ffffcc" stroke="#000000" stroke-width="2" cx="55.895" cy="-18" rx="55.7903" ry="18"/>
<text text-anchor="middle" x="55.895" y="-14.3" font-family="Times,serif" font-size="14.00" fill="#000000">MetricPrefix</text>
</a>
</g>
</g>
<!-- MathematicalSymbol -->
<g id="node4" class="node">
<title>MathematicalSymbol</title>
<g id="a_node4"><a xlink:href="http://emmo.info/emmo/middle/math#EMMO_5be83f9c_a4ba_4b9a_be1a_5bfc6e891231" xlink:title="MathematicalSymbol">
<ellipse fill="#ffc880" stroke="#000000" stroke-width="2" cx="294.895" cy="-90" rx="87.9851" ry="18"/>
<text text-anchor="middle" x="294.895" y="-86.3" font-family="Times,serif" font-size="14.00" fill="#000000">MathematicalSymbol</text>
</a>
</g>
</g>
<!-- MetricPrefix&#45;&gt;MathematicalSymbol -->
<g id="edge4" class="edge">
<title>MetricPrefix&#45;&gt;MathematicalSymbol</title>
<path fill="none" stroke="#000000" d="M96.9806,-30.3772C135.1169,-41.866 192.3296,-59.1016 235.4478,-72.0912"/>
<polygon fill="none" stroke="#000000" points="234.6671,-75.5113 245.2517,-75.0447 236.6863,-68.8089 234.6671,-75.5113"/>
</g>
<!-- MathematicalOperator -->
<g id="node2" class="node">
<title>MathematicalOperator</title>
<g id="a_node2"><a xlink:href="http://emmo.info/emmo/top/math#EMMO_f6d0c26a_98b6_4cf8_8632_aa259131faaa" xlink:title="MathematicalOperator">
<ellipse fill="#ffffcc" stroke="#000000" stroke-width="2" cx="220.895" cy="-18" rx="90.9839" ry="18"/>
<text text-anchor="middle" x="220.895" y="-14.3" font-family="Times,serif" font-size="14.00" fill="#000000">MathematicalOperator</text>
</a>
</g>
</g>
<!-- MathematicalOperator&#45;&gt;MathematicalSymbol -->
<g id="edge1" class="edge">
<title>MathematicalOperator&#45;&gt;MathematicalSymbol</title>
<path fill="none" stroke="#000000" d="M239.1872,-35.7978C248.2594,-44.6248 259.368,-55.4331 269.2718,-65.0693"/>
<polygon fill="none" stroke="#000000" points="266.9488,-67.6924 276.5569,-72.1575 271.8303,-62.6753 266.9488,-67.6924"/>
</g>
<!-- Number -->
<g id="node3" class="node">
<title>Number</title>
<g id="a_node3"><a xlink:href="http://emmo.info/emmo/middle/math#EMMO_21f56795_ee72_4858_b571_11cfaa59c1a8" xlink:title="Number">
<ellipse fill="#ffffcc" stroke="#000000" stroke-width="2" cx="369.895" cy="-18" rx="40.0939" ry="18"/>
<text text-anchor="middle" x="369.895" y="-14.3" font-family="Times,serif" font-size="14.00" fill="#000000">Number</text>
</a>
</g>
</g>
<!-- Number&#45;&gt;MathematicalSymbol -->
<g id="edge3" class="edge">
<title>Number&#45;&gt;MathematicalSymbol</title>
<path fill="none" stroke="#000000" d="M352.8764,-34.3379C343.4168,-43.4191 331.449,-54.9082 320.8462,-65.0869"/>
<polygon fill="none" stroke="#000000" points="318.2124,-62.7636 313.4223,-72.2138 323.0601,-67.8133 318.2124,-62.7636"/>
</g>
<!-- Equals -->
<g id="node5" class="node">
<title>Equals</title>
<g id="a_node5"><a xlink:href="http://emmo.info/emmo/top/math#EMMO_535d75a4_1972_40bc_88c6_ca566386934f" xlink:title="Equals">
<ellipse fill="#ffc880" stroke="#000000" cx="462.895" cy="-18" rx="34.394" ry="18"/>
<text text-anchor="middle" x="462.895" y="-14.3" font-family="Times,serif" font-size="14.00" fill="#000000">Equals</text>
</a>
</g>
</g>
<!-- Equals&#45;&gt;MathematicalSymbol -->
<g id="edge2" class="edge">
<title>Equals&#45;&gt;MathematicalSymbol</title>
<path fill="none" stroke="#000000" d="M435.9029,-29.568C410.7943,-40.3289 372.8188,-56.6041 342.6012,-69.5545"/>
<polygon fill="none" stroke="#000000" points="340.9018,-66.4749 333.0891,-73.6311 343.6593,-72.9089 340.9018,-66.4749"/>
</g>
<!-- key1 -->
<g id="node6" class="node">
<title>key1</title>
<text text-anchor="start" x="532.895" y="-13.8" font-family="Times,serif" font-size="14.00" fill="#000000">isA</text>
</g>
<!-- key2 -->
<g id="node7" class="node">
<title>key2</title>
<text text-anchor="start" x="611.895" y="-13.8" font-family="Times,serif" font-size="14.00" fill="#000000"> </text>
</g>
<!-- key1&#45;&gt;key2 -->
<g id="edge5" class="edge">
<title>key1:e&#45;&gt;key2:w</title>
<path fill="none" stroke="#000000" d="M553.895,-19C574.895,-19 582.606,-19 599.4531,-19"/>
<polygon fill="none" stroke="#000000" points="599.8951,-22.5001 609.895,-19 599.895,-15.5001 599.8951,-22.5001"/>
</g>
</g>
</svg>
