<?xml version="1.0" encoding="UTF-8" standalone="no"?>
<!DOCTYPE svg PUBLIC "-//W3C//DTD SVG 1.1//EN"
 "http://www.w3.org/Graphics/SVG/1.1/DTD/svg11.dtd">
<!-- Generated by graphviz version 2.40.1 (20161225.0304)
 -->
<!-- Title: %3 Pages: 1 -->
<svg width="1040pt" height="218pt"
 viewBox="0.00 0.00 1039.99 218.00" xmlns="http://www.w3.org/2000/svg" xmlns:xlink="http://www.w3.org/1999/xlink">
<g id="graph0" class="graph" transform="scale(1 1) rotate(0) translate(4 214)">
<title>%3</title>
<polygon fill="#ffffff" stroke="transparent" points="-4,4 -4,-214 1035.9919,-214 1035.9919,4 -4,4"/>
<!-- Expression -->
<g id="node1" class="node">
<title>Expression</title>
<g id="a_node1"><a xlink:href="http://emmo.info/emmo/middle/math#EMMO_f9bc8b52_85e9_4b53_b969_dd7724d5b8e4" xlink:title="Expression">
<ellipse fill="#ffffcc" stroke="#000000" stroke-width="2" cx="50.0456" cy="-105" rx="50.0912" ry="18"/>
<text text-anchor="middle" x="50.0456" y="-101.3" font-family="Times,serif" font-size="14.00" fill="#000000">Expression</text>
</a>
</g>
</g>
<!-- Mathematical -->
<g id="node7" class="node">
<title>Mathematical</title>
<g id="a_node7"><a xlink:href="http://emmo.info/emmo/middle/math#EMMO_54ee6b5e_5261_44a8_86eb_5717e7fdb9d0" xlink:title="Mathematical">
<ellipse fill="#ffffcc" stroke="#000000" stroke-width="2" cx="451.0456" cy="-192" rx="59.5901" ry="18"/>
<text text-anchor="middle" x="451.0456" y="-188.3" font-family="Times,serif" font-size="14.00" fill="#000000">Mathematical</text>
</a>
</g>
</g>
<!-- Expression&#45;&gt;Mathematical -->
<g id="edge1" class="edge">
<title>Expression&#45;&gt;Mathematical</title>
<path fill="none" stroke="#000000" d="M87.6622,-117.0712C94.7328,-119.1706 102.0892,-121.2415 109.0456,-123 205.8174,-147.4625 319.716,-169.0226 388.5929,-181.2805"/>
<polygon fill="none" stroke="#000000" points="388.3788,-184.797 398.8359,-183.0939 389.5992,-177.9042 388.3788,-184.797"/>
<text text-anchor="middle" x="259.5456" y="-144.8" font-family="Times,serif" font-size="14.00" fill="#000000">isA</text>
</g>
<!-- Vector -->
<g id="node2" class="node">
<title>Vector</title>
<g id="a_node2"><a xlink:href="http://emmo.info/emmo/middle/math#EMMO_06658d8d_dcde_4fc9_aae1_17f71c0bcdec" xlink:title="Vector">
<ellipse fill="#ffffcc" stroke="#000000" cx="242.0456" cy="-18" rx="34.394" ry="18"/>
<text text-anchor="middle" x="242.0456" y="-14.3" font-family="Times,serif" font-size="14.00" fill="#000000">Vector</text>
</a>
</g>
</g>
<!-- Array -->
<g id="node4" class="node">
<title>Array</title>
<g id="a_node4"><a xlink:href="http://emmo.info/emmo/top/math#EMMO_28fbea28_2204_4613_87ff_6d877b855fcd" xlink:title="Array">
<ellipse fill="#ffffcc" stroke="#000000" cx="333.0456" cy="-105" rx="31.3957" ry="18"/>
<text text-anchor="middle" x="333.0456" y="-101.3" font-family="Times,serif" font-size="14.00" fill="#000000">Array</text>
</a>
</g>
</g>
<!-- Vector&#45;&gt;Array -->
<g id="edge6" class="edge">
<title>Vector&#45;&gt;Array</title>
<path fill="none" stroke="#000000" d="M258.7364,-33.9571C272.9349,-47.5316 293.4918,-67.1849 309.3866,-82.381"/>
<polygon fill="none" stroke="#000000" points="307.1199,-85.0561 316.7667,-89.4367 311.9572,-79.9964 307.1199,-85.0561"/>
<text text-anchor="middle" x="302.5456" y="-57.8" font-family="Times,serif" font-size="14.00" fill="#000000">isA</text>
</g>
<!-- MathematicalModel -->
<g id="node3" class="node">
<title>MathematicalModel</title>
<g id="a_node3"><a xlink:href="http://emmo.info/emmo/middle/models#EMMO_f7ed665b_c2e1_42bc_889b_6b42ed3a36f0" xlink:title="MathematicalModel">
<ellipse fill="#ffc880" stroke="#000000" stroke-width="2" cx="201.0456" cy="-105" rx="83.3857" ry="18"/>
<text text-anchor="middle" x="201.0456" y="-101.3" font-family="Times,serif" font-size="14.00" fill="#000000">MathematicalModel</text>
</a>
</g>
</g>
<!-- MathematicalModel&#45;&gt;Mathematical -->
<g id="edge8" class="edge">
<title>MathematicalModel&#45;&gt;Mathematical</title>
<path fill="none" stroke="#000000" d="M245.1651,-120.3536C289.1751,-135.6691 356.6267,-159.1422 402.2218,-175.0093"/>
<polygon fill="none" stroke="#000000" points="401.2927,-178.3918 411.8875,-178.373 403.5934,-171.7807 401.2927,-178.3918"/>
<text text-anchor="middle" x="350.5456" y="-144.8" font-family="Times,serif" font-size="14.00" fill="#000000">isA</text>
</g>
<!-- Array&#45;&gt;Mathematical -->
<g id="edge7" class="edge">
<title>Array&#45;&gt;Mathematical</title>
<path fill="none" stroke="#000000" d="M352.5309,-119.3663C370.9076,-132.9152 398.7498,-153.443 420.1527,-169.2231"/>
<polygon fill="none" stroke="#000000" points="418.1725,-172.1115 428.2983,-175.2287 422.3265,-166.4773 418.1725,-172.1115"/>
<text text-anchor="middle" x="409.5456" y="-144.8" font-family="Times,serif" font-size="14.00" fill="#000000">isA</text>
</g>
<!-- Numerical -->
<g id="node5" class="node">
<title>Numerical</title>
<g id="a_node5"><a xlink:href="http://emmo.info/emmo/middle/math#EMMO_4ce76d7f_03f8_45b6_9003_90052a79bfaa" xlink:title="Numerical">
<ellipse fill="#ffffcc" stroke="#000000" cx="430.0456" cy="-105" rx="48.1917" ry="18"/>
<text text-anchor="middle" x="430.0456" y="-101.3" font-family="Times,serif" font-size="14.00" fill="#000000">Numerical</text>
</a>
</g>
</g>
<!-- Numerical&#45;&gt;Mathematical -->
<g id="edge11" class="edge">
<title>Numerical&#45;&gt;Mathematical</title>
<path fill="none" stroke="#000000" d="M428.2889,-123.2382C427.863,-133.1004 428.1869,-145.3973 431.0456,-156 431.8569,-159.0094 432.9719,-162.0378 434.2636,-164.9914"/>
<polygon fill="none" stroke="#000000" points="431.2077,-166.7047 438.8362,-174.0569 437.4576,-163.5521 431.2077,-166.7047"/>
<text text-anchor="middle" x="440.5456" y="-144.8" font-family="Times,serif" font-size="14.00" fill="#000000">isA</text>
</g>
<!-- Matrix -->
<g id="node6" class="node">
<title>Matrix</title>
<g id="a_node6"><a xlink:href="http://emmo.info/emmo/top/math#EMMO_1cba0b27_15d0_4326_933f_379d0b3565b6" xlink:title="Matrix">
<ellipse fill="#ffffcc" stroke="#000000" cx="330.0456" cy="-18" rx="35.194" ry="18"/>
<text text-anchor="middle" x="330.0456" y="-14.3" font-family="Times,serif" font-size="14.00" fill="#000000">Matrix</text>
</a>
</g>
</g>
<!-- Matrix&#45;&gt;Array -->
<g id="edge2" class="edge">
<title>Matrix&#45;&gt;Array</title>
<path fill="none" stroke="#000000" d="M330.2473,-36.4173C330.3938,-46.1147 330.6399,-58.2035 331.0456,-69 331.1368,-71.4278 331.2463,-73.9469 331.3665,-76.4739"/>
<polygon fill="none" stroke="#000000" points="327.8833,-76.8883 331.901,-86.6918 334.8737,-76.5226 327.8833,-76.8883"/>
<text text-anchor="middle" x="340.5456" y="-57.8" font-family="Times,serif" font-size="14.00" fill="#000000">isA</text>
</g>
<!-- Unknown -->
<g id="node8" class="node">
<title>Unknown</title>
<g id="a_node8"><a xlink:href="http://emmo.info/emmo/middle/math#EMMO_fe7e56ce_118b_4243_9aad_20eb9f4f31f6" xlink:title="Unknown">
<ellipse fill="#ffffcc" stroke="#000000" cx="579.0456" cy="-18" rx="45.4919" ry="18"/>
<text text-anchor="middle" x="579.0456" y="-14.3" font-family="Times,serif" font-size="14.00" fill="#000000">Unknown</text>
</a>
</g>
</g>
<!-- Variable -->
<g id="node13" class="node">
<title>Variable</title>
<g id="a_node13"><a xlink:href="http://emmo.info/emmo/middle/math#EMMO_1eed0732_e3f1_4b2c_a9c4_b4e75eeb5895" xlink:title="Variable">
<ellipse fill="#ffffcc" stroke="#000000" cx="537.0456" cy="-105" rx="40.8928" ry="18"/>
<text text-anchor="middle" x="537.0456" y="-101.3" font-family="Times,serif" font-size="14.00" fill="#000000">Variable</text>
</a>
</g>
</g>
<!-- Unknown&#45;&gt;Variable -->
<g id="edge10" class="edge">
<title>Unknown&#45;&gt;Variable</title>
<path fill="none" stroke="#000000" d="M571.7399,-36.1373C567.6502,-45.97 562.3236,-58.2708 557.0456,-69 555.5622,-72.0153 553.9494,-75.1368 552.3047,-78.224"/>
<polygon fill="none" stroke="#000000" points="549.1004,-76.7887 547.3722,-87.2416 555.2418,-80.1479 549.1004,-76.7887"/>
<text text-anchor="middle" x="572.5456" y="-57.8" font-family="Times,serif" font-size="14.00" fill="#000000">isA</text>
</g>
<!-- MathematicalSymbol -->
<g id="node9" class="node">
<title>MathematicalSymbol</title>
<g id="a_node9"><a xlink:href="http://emmo.info/emmo/middle/math#EMMO_5be83f9c_a4ba_4b9a_be1a_5bfc6e891231" xlink:title="MathematicalSymbol">
<ellipse fill="#ffc880" stroke="#000000" stroke-width="2" cx="684.0456" cy="-105" rx="87.9851" ry="18"/>
<text text-anchor="middle" x="684.0456" y="-101.3" font-family="Times,serif" font-size="14.00" fill="#000000">MathematicalSymbol</text>
</a>
</g>
</g>
<!-- MathematicalSymbol&#45;&gt;Mathematical -->
<g id="edge9" class="edge">
<title>MathematicalSymbol&#45;&gt;Mathematical</title>
<path fill="none" stroke="#000000" d="M679.3461,-123.0708C675.481,-134.2862 668.841,-148.0332 658.0456,-156 636.377,-171.991 570.8402,-181.5117 519.2487,-186.7062"/>
<polygon fill="none" stroke="#000000" points="518.7485,-183.2382 509.1335,-187.6881 519.4249,-190.2055 518.7485,-183.2382"/>
<text text-anchor="middle" x="679.5456" y="-144.8" font-family="Times,serif" font-size="14.00" fill="#000000">isA</text>
</g>
<!-- PhysicalQuantity -->
<g id="node10" class="node">
<title>PhysicalQuantity</title>
<g id="a_node10"><a xlink:href="http://emmo.info/emmo/middle/units#EMMO_02c0621e_a527_4790_8a0f_2bb51973c819" xlink:title="PhysicalQuantity">
<ellipse fill="#ffffcc" stroke="#000000" stroke-width="2" cx="861.0456" cy="-105" rx="71.4873" ry="18"/>
<text text-anchor="middle" x="861.0456" y="-101.3" font-family="Times,serif" font-size="14.00" fill="#000000">PhysicalQuantity</text>
</a>
</g>
</g>
<!-- PhysicalQuantity&#45;&gt;Mathematical -->
<g id="edge12" class="edge">
<title>PhysicalQuantity&#45;&gt;Mathematical</title>
<path fill="none" stroke="#000000" d="M819.0421,-119.6327C785.3334,-130.9167 736.6122,-146.2026 693.0456,-156 634.4313,-169.1814 566.7141,-178.7865 517.8449,-184.7435"/>
<polygon fill="none" stroke="#000000" points="517.2247,-181.2927 507.7129,-185.9593 518.0587,-188.2429 517.2247,-181.2927"/>
<text text-anchor="middle" x="758.5456" y="-144.8" font-family="Times,serif" font-size="14.00" fill="#000000">isA</text>
</g>
<!-- Constant -->
<g id="node11" class="node">
<title>Constant</title>
<g id="a_node11"><a xlink:href="http://emmo.info/emmo/middle/math#EMMO_ae15fb4f_8e4d_41de_a0f9_3997f89ba6a2" xlink:title="Constant">
<ellipse fill="#ffffcc" stroke="#000000" cx="473.0456" cy="-18" rx="42.4939" ry="18"/>
<text text-anchor="middle" x="473.0456" y="-14.3" font-family="Times,serif" font-size="14.00" fill="#000000">Constant</text>
</a>
</g>
</g>
<!-- Constant&#45;&gt;Numerical -->
<g id="edge15" class="edge">
<title>Constant&#45;&gt;Numerical</title>
<path fill="none" stroke="#ffa500" stroke-dasharray="5,2" d="M435.6975,-26.6822C410.5226,-33.3776 380.5787,-43.2816 373.0456,-54 364.4462,-66.2355 374.4455,-77.5761 388.3432,-86.4411"/>
<polygon fill="#ffa500" stroke="#ffa500" points="395.6253,-94.6616 388.6981,-86.645 399.1125,-88.592 395.6253,-94.6616"/>
<text text-anchor="middle" x="444.0456" y="-57.8" font-family="Times,serif" font-size="14.00" fill="#000000">Inverse(hasVariable) only</text>
</g>
<!-- Constant&#45;&gt;Variable -->
<g id="edge14" class="edge">
<title>Constant&#45;&gt;Variable</title>
<path fill="none" stroke="#000000" d="M494.9159,-33.5517C502.0021,-39.3695 509.465,-46.4214 515.0456,-54 520.2487,-61.066 524.5326,-69.5528 527.8933,-77.5574"/>
<polygon fill="none" stroke="#000000" points="524.6577,-78.8944 531.5345,-86.9542 531.1848,-76.3652 524.6577,-78.8944"/>
<text text-anchor="middle" x="533.5456" y="-57.8" font-family="Times,serif" font-size="14.00" fill="#000000">isA</text>
</g>
<!-- Parameter -->
<g id="node12" class="node">
<title>Parameter</title>
<g id="a_node12"><a xlink:href="http://emmo.info/emmo/middle/math#EMMO_d1d436e7_72fc_49cd_863b_7bfb4ba5276a" xlink:title="Parameter">
<ellipse fill="#ffffcc" stroke="#000000" cx="689.0456" cy="-18" rx="46.5926" ry="18"/>
<text text-anchor="middle" x="689.0456" y="-14.3" font-family="Times,serif" font-size="14.00" fill="#000000">Parameter</text>
</a>
</g>
</g>
<!-- Parameter&#45;&gt;Variable -->
<g id="edge5" class="edge">
<title>Parameter&#45;&gt;Variable</title>
<path fill="none" stroke="#000000" d="M662.9158,-32.9558C637.5212,-47.4909 598.8264,-69.6386 571.0459,-85.5393"/>
<polygon fill="none" stroke="#000000" points="569.0183,-82.667 562.0781,-90.6722 572.4956,-88.7422 569.0183,-82.667"/>
<text text-anchor="middle" x="631.5456" y="-57.8" font-family="Times,serif" font-size="14.00" fill="#000000">isA</text>
</g>
<!-- Variable&#45;&gt;Mathematical -->
<g id="edge3" class="edge">
<title>Variable&#45;&gt;Mathematical</title>
<path fill="none" stroke="#000000" d="M506.5151,-117.086C494.8486,-122.9086 482.1709,-130.8611 473.0456,-141 467.0836,-147.6242 462.559,-156.1127 459.211,-164.2559"/>
<polygon fill="none" stroke="#000000" points="455.8429,-163.2753 455.6932,-173.8691 462.4166,-165.6809 455.8429,-163.2753"/>
<text text-anchor="middle" x="482.5456" y="-144.8" font-family="Times,serif" font-size="14.00" fill="#000000">isA</text>
</g>
<!-- Variable&#45;&gt;Mathematical -->
<g id="edge4" class="edge">
<title>Variable&#45;&gt;Mathematical</title>
<path fill="none" stroke="#ffa500" stroke-dasharray="5,2" d="M522.9709,-122.0235C514.3477,-132.1765 502.9132,-145.1587 492.0456,-156 488.0218,-160.014 483.632,-164.124 479.2688,-168.0644"/>
<polygon fill="#ffa500" stroke="#ffa500" points="469.2084,-172.2962 479.0159,-168.2883 473.8484,-177.5375 469.2084,-172.2962"/>
<text text-anchor="middle" x="580.5456" y="-144.8" font-family="Times,serif" font-size="14.00" fill="#000000">Inverse(hasVariable) some</text>
</g>
<!-- Formula -->
<g id="node14" class="node">
<title>Formula</title>
<g id="a_node14"><a xlink:href="http://emmo.info/emmo/middle/math#EMMO_88470739_03d3_4c47_a03e_b30a1288d50c" xlink:title="Formula">
<ellipse fill="#ffffcc" stroke="#000000" stroke-width="2" cx="991.0456" cy="-105" rx="40.8928" ry="18"/>
<text text-anchor="middle" x="991.0456" y="-101.3" font-family="Times,serif" font-size="14.00" fill="#000000">Formula</text>
</a>
</g>
</g>
<!-- Formula&#45;&gt;Mathematical -->
<g id="edge13" class="edge">
<title>Formula&#45;&gt;Mathematical</title>
<path fill="none" stroke="#000000" d="M960.0756,-116.9784C953.8305,-119.1583 947.2711,-121.2824 941.0456,-123 794.4231,-163.4523 616.2378,-180.9544 520.2777,-187.9022"/>
<polygon fill="none" stroke="#000000" points="519.8494,-184.4237 510.1211,-188.6203 520.3431,-191.4063 519.8494,-184.4237"/>
<text text-anchor="middle" x="871.5456" y="-144.8" font-family="Times,serif" font-size="14.00" fill="#000000">isA</text>
</g>
</g>
</svg>
