<?xml version="1.0" encoding="UTF-8" standalone="no"?>
<!DOCTYPE svg PUBLIC "-//W3C//DTD SVG 1.1//EN"
 "http://www.w3.org/Graphics/SVG/1.1/DTD/svg11.dtd">
<!-- Generated by graphviz version 2.40.1 (20161225.0304)
 -->
<!-- Title: %3 Pages: 1 -->
<svg width="648pt" height="116pt"
 viewBox="0.00 0.00 648.45 116.00" xmlns="http://www.w3.org/2000/svg" xmlns:xlink="http://www.w3.org/1999/xlink">
<g id="graph0" class="graph" transform="scale(1 1) rotate(0) translate(4 112)">
<title>%3</title>
<polygon fill="#ffffff" stroke="transparent" points="-4,4 -4,-112 644.4469,-112 644.4469,4 -4,4"/>
<!-- Equals -->
<g id="node1" class="node">
<title>Equals</title>
<g id="a_node1"><a xlink:href="http://emmo.info/emmo/top/math#EMMO_535d75a4_1972_40bc_88c6_ca566386934f" xlink:title="Equals">
<ellipse fill="#ffc880" stroke="#000000" cx="34.4469" cy="-18" rx="34.394" ry="18"/>
<text text-anchor="middle" x="34.4469" y="-14.3" font-family="Times,serif" font-size="14.00" fill="#000000">Equals</text>
</a>
</g>
</g>
<!-- MathematicalSymbol -->
<g id="node3" class="node">
<title>MathematicalSymbol</title>
<g id="a_node3"><a xlink:href="http://emmo.info/emmo/middle/math#EMMO_5be83f9c_a4ba_4b9a_be1a_5bfc6e891231" xlink:title="MathematicalSymbol">
<ellipse fill="#ffc880" stroke="#000000" stroke-width="2" cx="224.4469" cy="-90" rx="87.9851" ry="18"/>
<text text-anchor="middle" x="224.4469" y="-86.3" font-family="Times,serif" font-size="14.00" fill="#000000">MathematicalSymbol</text>
</a>
</g>
</g>
<!-- Equals&#45;&gt;MathematicalSymbol -->
<g id="edge4" class="edge">
<title>Equals&#45;&gt;MathematicalSymbol</title>
<path fill="none" stroke="#000000" d="M61.2094,-29.4188C66.5696,-31.6448 72.174,-33.929 77.4469,-36 108.1206,-48.0472 142.7019,-60.7918 170.6142,-70.8728"/>
<polygon fill="none" stroke="#000000" points="169.5973,-74.2266 180.1917,-74.322 171.9692,-67.6407 169.5973,-74.2266"/>
</g>
<!-- MetricPrefix -->
<g id="node2" class="node">
<title>MetricPrefix</title>
<g id="a_node2"><a xlink:href="http://emmo.info/emmo/middle/metrology#EMMO_7d2afa66_ae9e_4095_a9bf_421d0be401b6" xlink:title="MetricPrefix">
<ellipse fill="#ffffcc" stroke="#000000" stroke-width="2" cx="142.4469" cy="-18" rx="55.7903" ry="18"/>
<text text-anchor="middle" x="142.4469" y="-14.3" font-family="Times,serif" font-size="14.00" fill="#000000">MetricPrefix</text>
</a>
</g>
</g>
<!-- MetricPrefix&#45;&gt;MathematicalSymbol -->
<g id="edge1" class="edge">
<title>MetricPrefix&#45;&gt;MathematicalSymbol</title>
<path fill="none" stroke="#000000" d="M161.8798,-35.063C172.2695,-44.1856 185.2422,-55.5763 196.6771,-65.6167"/>
<polygon fill="none" stroke="#000000" points="194.4735,-68.3396 204.2972,-72.3076 199.0921,-63.0795 194.4735,-68.3396"/>
</g>
<!-- MathematicalOperator -->
<g id="node4" class="node">
<title>MathematicalOperator</title>
<g id="a_node4"><a xlink:href="http://emmo.info/emmo/top/math#EMMO_f6d0c26a_98b6_4cf8_8632_aa259131faaa" xlink:title="MathematicalOperator">
<ellipse fill="#ffffcc" stroke="#000000" stroke-width="2" cx="307.4469" cy="-18" rx="90.9839" ry="18"/>
<text text-anchor="middle" x="307.4469" y="-14.3" font-family="Times,serif" font-size="14.00" fill="#000000">MathematicalOperator</text>
</a>
</g>
</g>
<!-- MathematicalOperator&#45;&gt;MathematicalSymbol -->
<g id="edge3" class="edge">
<title>MathematicalOperator&#45;&gt;MathematicalSymbol</title>
<path fill="none" stroke="#000000" d="M286.9301,-35.7978C276.5775,-44.7783 263.8607,-55.8098 252.608,-65.5711"/>
<polygon fill="none" stroke="#000000" points="249.9882,-63.2103 244.7278,-72.407 254.5752,-68.498 249.9882,-63.2103"/>
</g>
<!-- Number -->
<g id="node5" class="node">
<title>Number</title>
<g id="a_node5"><a xlink:href="http://emmo.info/emmo/middle/math#EMMO_21f56795_ee72_4858_b571_11cfaa59c1a8" xlink:title="Number">
<ellipse fill="#ffffcc" stroke="#000000" stroke-width="2" cx="456.4469" cy="-18" rx="40.0939" ry="18"/>
<text text-anchor="middle" x="456.4469" y="-14.3" font-family="Times,serif" font-size="14.00" fill="#000000">Number</text>
</a>
</g>
</g>
<!-- Number&#45;&gt;MathematicalSymbol -->
<g id="edge2" class="edge">
<title>Number&#45;&gt;MathematicalSymbol</title>
<path fill="none" stroke="#000000" d="M425.4483,-29.733C419.4976,-31.8871 413.2978,-34.0644 407.4469,-36 367.4897,-49.2189 322.1178,-62.6178 286.5483,-72.762"/>
<polygon fill="none" stroke="#000000" points="285.4517,-69.435 276.7885,-75.5341 287.3643,-76.1687 285.4517,-69.435"/>
</g>
<!-- key1 -->
<g id="node6" class="node">
<title>key1</title>
<text text-anchor="start" x="532.4469" y="-13.8" font-family="Times,serif" font-size="14.00" fill="#000000">isA</text>
</g>
<!-- key2 -->
<g id="node7" class="node">
<title>key2</title>
<text text-anchor="start" x="611.4469" y="-13.8" font-family="Times,serif" font-size="14.00" fill="#000000"> </text>
</g>
<!-- key1&#45;&gt;key2 -->
<g id="edge5" class="edge">
<title>key1:e&#45;&gt;key2:w</title>
<path fill="none" stroke="#000000" d="M553.4469,-19C574.4469,-19 582.1579,-19 599.005,-19"/>
<polygon fill="none" stroke="#000000" points="599.447,-22.5001 609.4469,-19 599.4469,-15.5001 599.447,-22.5001"/>
</g>
</g>
</svg>
