<?xml version="1.0" encoding="UTF-8" standalone="no"?>
<!DOCTYPE svg PUBLIC "-//W3C//DTD SVG 1.1//EN"
 "http://www.w3.org/Graphics/SVG/1.1/DTD/svg11.dtd">
<!-- Generated by graphviz version 2.40.1 (20161225.0304)
 -->
<!-- Title: %3 Pages: 1 -->
<svg width="832pt" height="198pt"
 viewBox="0.00 0.00 832.19 198.00" xmlns="http://www.w3.org/2000/svg" xmlns:xlink="http://www.w3.org/1999/xlink">
<g id="graph0" class="graph" transform="scale(1 1) rotate(0) translate(4 194)">
<title>%3</title>
<polygon fill="#ffffff" stroke="transparent" points="-4,4 -4,-194 828.1938,-194 828.1938,4 -4,4"/>
<!-- DataBasedModel -->
<g id="node1" class="node">
<title>DataBasedModel</title>
<g id="a_node1"><a xlink:href="http://emmo.info/emmo/middle/models#EMMO_a4b14b83_9392_4a5f_a2e8_b2b58793f59b" xlink:title="DataBasedModel">
<ellipse fill="#ffffcc" stroke="#000000" cx="146.1938" cy="-100" rx="72.2875" ry="18"/>
<text text-anchor="middle" x="146.1938" y="-96.3" font-family="Times,serif" font-size="14.00" fill="#000000">DataBasedModel</text>
</a>
</g>
</g>
<!-- MathematicalModel -->
<g id="node6" class="node">
<title>MathematicalModel</title>
<g id="a_node6"><a xlink:href="http://emmo.info/emmo/middle/models#EMMO_f7ed665b_c2e1_42bc_889b_6b42ed3a36f0" xlink:title="MathematicalModel">
<ellipse fill="#ffc880" stroke="#000000" stroke-width="2" cx="319.1938" cy="-172" rx="83.3857" ry="18"/>
<text text-anchor="middle" x="319.1938" y="-168.3" font-family="Times,serif" font-size="14.00" fill="#000000">MathematicalModel</text>
</a>
</g>
</g>
<!-- DataBasedModel&#45;&gt;MathematicalModel -->
<g id="edge8" class="edge">
<title>DataBasedModel&#45;&gt;MathematicalModel</title>
<path fill="none" stroke="#000000" d="M183.3066,-115.4458C208.9733,-126.1279 243.3645,-140.441 271.1262,-151.995"/>
<polygon fill="none" stroke="#000000" points="270.067,-155.3451 280.6442,-155.9562 272.7567,-148.8825 270.067,-155.3451"/>
</g>
<!-- PhysicsBasedModel -->
<g id="node2" class="node">
<title>PhysicsBasedModel</title>
<g id="a_node2"><a xlink:href="http://emmo.info/emmo/middle/models#EMMO_b29fd350_39aa_4af7_9459_3faa0544cba6" xlink:title="PhysicsBasedModel">
<ellipse fill="#ffffcc" stroke="#000000" cx="319.1938" cy="-100" rx="82.5854" ry="18"/>
<text text-anchor="middle" x="319.1938" y="-96.3" font-family="Times,serif" font-size="14.00" fill="#000000">PhysicsBasedModel</text>
</a>
</g>
</g>
<!-- PhysicsEquation -->
<g id="node4" class="node">
<title>PhysicsEquation</title>
<g id="a_node4"><a xlink:href="http://emmo.info/emmo/middle/models#EMMO_27c5d8c6_8af7_4d63_beb1_ec37cd8b3fa3" xlink:title="PhysicsEquation">
<ellipse fill="#ffffcc" stroke="#000000" cx="489.1938" cy="-100" rx="69.5877" ry="18"/>
<text text-anchor="middle" x="489.1938" y="-96.3" font-family="Times,serif" font-size="14.00" fill="#000000">PhysicsEquation</text>
</a>
</g>
</g>
<!-- PhysicsBasedModel&#45;&gt;PhysicsEquation -->
<g id="edge7" class="edge">
<title>PhysicsBasedModel&#45;&gt;PhysicsEquation</title>
<path fill="none" stroke="#0000ff" stroke-dasharray="5,2" d="M401.8696,-100C404.3639,-100 406.8583,-100 409.3527,-100"/>
<polygon fill="#0000ff" stroke="#0000ff" points="409.6073,-103.5001 419.6073,-100 409.6073,-96.5001 409.6073,-103.5001"/>
</g>
<!-- PhysicsBasedModel&#45;&gt;MathematicalModel -->
<g id="edge6" class="edge">
<title>PhysicsBasedModel&#45;&gt;MathematicalModel</title>
<path fill="none" stroke="#000000" d="M319.1938,-118.1686C319.1938,-125.869 319.1938,-135.0257 319.1938,-143.5834"/>
<polygon fill="none" stroke="#000000" points="315.6939,-143.5867 319.1938,-153.5867 322.6939,-143.5868 315.6939,-143.5867"/>
</g>
<!-- ElectronicModel -->
<g id="node3" class="node">
<title>ElectronicModel</title>
<g id="a_node3"><a xlink:href="http://emmo.info/emmo/middle/models#EMMO_6eca09be_17e9_445e_abc9_000aa61b7a11" xlink:title="ElectronicModel">
<ellipse fill="#ffffcc" stroke="#000000" cx="70.1938" cy="-23" rx="70.3881" ry="18"/>
<text text-anchor="middle" x="70.1938" y="-19.3" font-family="Times,serif" font-size="14.00" fill="#000000">ElectronicModel</text>
</a>
</g>
</g>
<!-- ElectronicModel&#45;&gt;PhysicsBasedModel -->
<g id="edge1" class="edge">
<title>ElectronicModel&#45;&gt;PhysicsBasedModel</title>
<path fill="none" stroke="#000000" d="M115.2858,-36.9441C156.3279,-49.6359 217.1296,-68.438 261.6597,-82.2083"/>
<polygon fill="none" stroke="#000000" points="260.8807,-85.6309 271.4683,-85.2415 262.9487,-78.9434 260.8807,-85.6309"/>
</g>
<!-- PhysicsEquation&#45;&gt;MathematicalModel -->
<g id="edge5" class="edge">
<title>PhysicsEquation&#45;&gt;MathematicalModel</title>
<path fill="none" stroke="#000000" d="M452.7245,-115.4458C427.5029,-126.1279 393.7081,-140.441 366.4278,-151.995"/>
<polygon fill="none" stroke="#000000" points="364.9181,-148.8334 357.0749,-155.9562 367.6481,-155.2791 364.9181,-148.8334"/>
</g>
<!-- MesoscopicModel -->
<g id="node5" class="node">
<title>MesoscopicModel</title>
<g id="a_node5"><a xlink:href="http://emmo.info/emmo/middle/models#EMMO_53935db0_af45_4426_b9e9_244a0d77db00" xlink:title="MesoscopicModel">
<ellipse fill="#ffffcc" stroke="#000000" cx="235.1938" cy="-23" rx="76.8869" ry="18"/>
<text text-anchor="middle" x="235.1938" y="-19.3" font-family="Times,serif" font-size="14.00" fill="#000000">MesoscopicModel</text>
</a>
</g>
</g>
<!-- MesoscopicModel&#45;&gt;PhysicsBasedModel -->
<g id="edge2" class="edge">
<title>MesoscopicModel&#45;&gt;PhysicsBasedModel</title>
<path fill="none" stroke="#000000" d="M254.2547,-40.4725C265.5588,-50.8346 280.061,-64.1283 292.4921,-75.5235"/>
<polygon fill="none" stroke="#000000" points="290.1809,-78.1529 299.9175,-82.3301 294.911,-72.9928 290.1809,-78.1529"/>
</g>
<!-- ContinuumModel -->
<g id="node7" class="node">
<title>ContinuumModel</title>
<g id="a_node7"><a xlink:href="http://emmo.info/emmo/middle/models#EMMO_4456a5d2_16a6_4ee1_9a8e_5c75956b28ea" xlink:title="ContinuumModel">
<ellipse fill="#ffffcc" stroke="#000000" cx="404.1938" cy="-23" rx="74.187" ry="18"/>
<text text-anchor="middle" x="404.1938" y="-19.3" font-family="Times,serif" font-size="14.00" fill="#000000">ContinuumModel</text>
</a>
</g>
</g>
<!-- ContinuumModel&#45;&gt;PhysicsBasedModel -->
<g id="edge3" class="edge">
<title>ContinuumModel&#45;&gt;PhysicsBasedModel</title>
<path fill="none" stroke="#000000" d="M384.906,-40.4725C373.4672,-50.8346 358.7924,-64.1283 346.2133,-75.5235"/>
<polygon fill="none" stroke="#000000" points="343.7609,-73.0224 338.6995,-82.3301 348.4605,-78.2103 343.7609,-73.0224"/>
</g>
<!-- AtomisticModel -->
<g id="node8" class="node">
<title>AtomisticModel</title>
<g id="a_node8"><a xlink:href="http://emmo.info/emmo/middle/models#EMMO_84cadc45_6758_46f2_ba2a_5ead65c70213" xlink:title="AtomisticModel">
<ellipse fill="#ffffcc" stroke="#000000" cx="566.1938" cy="-23" rx="69.5877" ry="18"/>
<text text-anchor="middle" x="566.1938" y="-19.3" font-family="Times,serif" font-size="14.00" fill="#000000">AtomisticModel</text>
</a>
</g>
</g>
<!-- AtomisticModel&#45;&gt;PhysicsBasedModel -->
<g id="edge4" class="edge">
<title>AtomisticModel&#45;&gt;PhysicsBasedModel</title>
<path fill="none" stroke="#000000" d="M521.7499,-36.855C481.075,-49.535 420.6628,-68.368 376.3987,-82.1669"/>
<polygon fill="none" stroke="#000000" points="375.1534,-78.8889 366.6483,-85.2065 377.2368,-85.5717 375.1534,-78.8889"/>
</g>
<!-- key1 -->
<g id="node9" class="node">
<title>key1</title>
<text text-anchor="start" x="723.1938" y="-28.8" font-family="Times,serif" font-size="14.00" fill="#000000">isA</text>
<text text-anchor="start" x="664.1938" y="-9.8" font-family="Times,serif" font-size="14.00" fill="#000000">hasSpatialPart</text>
</g>
<!-- key2 -->
<g id="node10" class="node">
<title>key2</title>
<text text-anchor="start" x="795.1938" y="-28.8" font-family="Times,serif" font-size="14.00" fill="#000000"> </text>
<text text-anchor="start" x="795.1938" y="-9.8" font-family="Times,serif" font-size="14.00" fill="#000000"> </text>
</g>
<!-- key1&#45;&gt;key2 -->
<g id="edge9" class="edge">
<title>key1:e&#45;&gt;key2:w</title>
<path fill="none" stroke="#0000ff" stroke-dasharray="5,2" d="M744.1938,-13C762.0584,-13 768.932,-13 782.8468,-13"/>
<polygon fill="#0000ff" stroke="#0000ff" points="783.1938,-16.5001 793.1938,-13 783.1937,-9.5001 783.1938,-16.5001"/>
</g>
<!-- key1&#45;&gt;key2 -->
<g id="edge10" class="edge">
<title>key1:e&#45;&gt;key2:w</title>
<path fill="none" stroke="#000000" d="M744.1938,-33C762.0584,-33 768.932,-33 782.8468,-33"/>
<polygon fill="none" stroke="#000000" points="783.1938,-36.5001 793.1938,-33 783.1937,-29.5001 783.1938,-36.5001"/>
</g>
</g>
</svg>
