<?xml version="1.0" encoding="UTF-8" standalone="no"?>
<!DOCTYPE svg PUBLIC "-//W3C//DTD SVG 1.1//EN"
 "http://www.w3.org/Graphics/SVG/1.1/DTD/svg11.dtd">
<!-- Generated by graphviz version 2.40.1 (20161225.0304)
 -->
<!-- Title: %3 Pages: 1 -->
<svg width="1088pt" height="217pt"
 viewBox="0.00 0.00 1088.19 217.00" xmlns="http://www.w3.org/2000/svg" xmlns:xlink="http://www.w3.org/1999/xlink">
<g id="graph0" class="graph" transform="scale(1 1) rotate(0) translate(4 213)">
<title>%3</title>
<polygon fill="#ffffff" stroke="transparent" points="-4,4 -4,-213 1084.1892,-213 1084.1892,4 -4,4"/>
<!-- Vector -->
<g id="node1" class="node">
<title>Vector</title>
<g id="a_node1"><a xlink:href="http://emmo.info/emmo/middle/math#EMMO_06658d8d_dcde_4fc9_aae1_17f71c0bcdec" xlink:title="Vector">
<ellipse fill="#ffffcc" stroke="#000000" cx="34.4469" cy="-32.5" rx="34.394" ry="18"/>
<text text-anchor="middle" x="34.4469" y="-28.8" font-family="Times,serif" font-size="14.00" fill="#000000">Vector</text>
</a>
</g>
</g>
<!-- Array -->
<g id="node4" class="node">
<title>Array</title>
<g id="a_node4"><a xlink:href="http://emmo.info/emmo/top/math#EMMO_28fbea28_2204_4613_87ff_6d877b855fcd" xlink:title="Array">
<ellipse fill="#ffffcc" stroke="#000000" cx="78.4469" cy="-119" rx="31.3957" ry="18"/>
<text text-anchor="middle" x="78.4469" y="-115.3" font-family="Times,serif" font-size="14.00" fill="#000000">Array</text>
</a>
</g>
</g>
<!-- Vector&#45;&gt;Array -->
<g id="edge4" class="edge">
<title>Vector&#45;&gt;Array</title>
<path fill="none" stroke="#000000" d="M43.351,-50.0046C49.5535,-62.198 57.9394,-78.6841 64.9587,-92.4832"/>
<polygon fill="none" stroke="#000000" points="61.9026,-94.1952 69.5561,-101.5215 68.1418,-91.0214 61.9026,-94.1952"/>
</g>
<!-- MathematicalModel -->
<g id="node2" class="node">
<title>MathematicalModel</title>
<g id="a_node2"><a xlink:href="http://emmo.info/emmo/middle/models#EMMO_f7ed665b_c2e1_42bc_889b_6b42ed3a36f0" xlink:title="MathematicalModel">
<ellipse fill="#ffc880" stroke="#000000" stroke-width="2" cx="210.4469" cy="-119" rx="83.3857" ry="18"/>
<text text-anchor="middle" x="210.4469" y="-115.3" font-family="Times,serif" font-size="14.00" fill="#000000">MathematicalModel</text>
</a>
</g>
</g>
<!-- Mathematical -->
<g id="node14" class="node">
<title>Mathematical</title>
<g id="a_node14"><a xlink:href="http://emmo.info/emmo/middle/math#EMMO_54ee6b5e_5261_44a8_86eb_5717e7fdb9d0" xlink:title="Mathematical">
<ellipse fill="#ffffcc" stroke="#000000" stroke-width="2" cx="531.4469" cy="-191" rx="59.5901" ry="18"/>
<text text-anchor="middle" x="531.4469" y="-187.3" font-family="Times,serif" font-size="14.00" fill="#000000">Mathematical</text>
</a>
</g>
</g>
<!-- MathematicalModel&#45;&gt;Mathematical -->
<g id="edge1" class="edge">
<title>MathematicalModel&#45;&gt;Mathematical</title>
<path fill="none" stroke="#000000" d="M268.206,-131.9553C326.3064,-144.9872 415.3944,-164.9695 473.5454,-178.0127"/>
<polygon fill="none" stroke="#000000" points="472.7915,-181.4305 483.3151,-180.2041 474.3235,-174.6002 472.7915,-181.4305"/>
</g>
<!-- Unknown -->
<g id="node3" class="node">
<title>Unknown</title>
<g id="a_node3"><a xlink:href="http://emmo.info/emmo/middle/math#EMMO_fe7e56ce_118b_4243_9aad_20eb9f4f31f6" xlink:title="Unknown">
<ellipse fill="#ffffcc" stroke="#000000" cx="466.4469" cy="-32.5" rx="45.4919" ry="18"/>
<text text-anchor="middle" x="466.4469" y="-28.8" font-family="Times,serif" font-size="14.00" fill="#000000">Unknown</text>
</a>
</g>
</g>
<!-- Variable -->
<g id="node9" class="node">
<title>Variable</title>
<g id="a_node9"><a xlink:href="http://emmo.info/emmo/middle/math#EMMO_1eed0732_e3f1_4b2c_a9c4_b4e75eeb5895" xlink:title="Variable">
<ellipse fill="#ffffcc" stroke="#000000" cx="466.4469" cy="-119" rx="40.8928" ry="18"/>
<text text-anchor="middle" x="466.4469" y="-115.3" font-family="Times,serif" font-size="14.00" fill="#000000">Variable</text>
</a>
</g>
</g>
<!-- Unknown&#45;&gt;Variable -->
<g id="edge14" class="edge">
<title>Unknown&#45;&gt;Variable</title>
<path fill="none" stroke="#000000" d="M466.4469,-50.8444C466.4469,-62.3901 466.4469,-77.528 466.4469,-90.6039"/>
<polygon fill="none" stroke="#000000" points="462.947,-90.9786 466.4469,-100.9786 469.947,-90.9787 462.947,-90.9786"/>
</g>
<!-- Array&#45;&gt;Mathematical -->
<g id="edge13" class="edge">
<title>Array&#45;&gt;Mathematical</title>
<path fill="none" stroke="#000000" d="M102.1321,-131.0254C107.3963,-133.3091 113.0257,-135.462 118.4469,-137 236.1484,-170.3915 378.6692,-183.2328 461.7902,-188.102"/>
<polygon fill="none" stroke="#000000" points="461.6936,-191.6021 471.8748,-188.6706 462.0877,-184.6132 461.6936,-191.6021"/>
</g>
<!-- Numerical -->
<g id="node5" class="node">
<title>Numerical</title>
<g id="a_node5"><a xlink:href="http://emmo.info/emmo/middle/math#EMMO_4ce76d7f_03f8_45b6_9003_90052a79bfaa" xlink:title="Numerical">
<ellipse fill="#ffffcc" stroke="#000000" cx="359.4469" cy="-119" rx="48.1917" ry="18"/>
<text text-anchor="middle" x="359.4469" y="-115.3" font-family="Times,serif" font-size="14.00" fill="#000000">Numerical</text>
</a>
</g>
</g>
<!-- Numerical&#45;&gt;Mathematical -->
<g id="edge2" class="edge">
<title>Numerical&#45;&gt;Mathematical</title>
<path fill="none" stroke="#000000" d="M391.7988,-132.5426C418.6686,-143.7905 457.1717,-159.908 486.9459,-172.3717"/>
<polygon fill="none" stroke="#000000" points="485.7044,-175.6462 496.2803,-176.2791 488.4074,-169.1891 485.7044,-175.6462"/>
</g>
<!-- Parameter -->
<g id="node6" class="node">
<title>Parameter</title>
<g id="a_node6"><a xlink:href="http://emmo.info/emmo/middle/math#EMMO_d1d436e7_72fc_49cd_863b_7bfb4ba5276a" xlink:title="Parameter">
<ellipse fill="#ffffcc" stroke="#000000" cx="576.4469" cy="-32.5" rx="46.5926" ry="18"/>
<text text-anchor="middle" x="576.4469" y="-28.8" font-family="Times,serif" font-size="14.00" fill="#000000">Parameter</text>
</a>
</g>
</g>
<!-- Parameter&#45;&gt;Variable -->
<g id="edge10" class="edge">
<title>Parameter&#45;&gt;Variable</title>
<path fill="none" stroke="#000000" d="M555.7568,-48.77C538.5172,-62.3266 513.7896,-81.7714 494.7228,-96.7649"/>
<polygon fill="none" stroke="#000000" points="492.3699,-94.1626 486.6727,-103.0952 496.6969,-99.6651 492.3699,-94.1626"/>
</g>
<!-- PhysicalQuantity -->
<g id="node7" class="node">
<title>PhysicalQuantity</title>
<g id="a_node7"><a xlink:href="http://emmo.info/emmo/middle/metrology#EMMO_02c0621e_a527_4790_8a0f_2bb51973c819" xlink:title="PhysicalQuantity">
<ellipse fill="#ffffcc" stroke="#000000" stroke-width="2" cx="596.4469" cy="-119" rx="71.4873" ry="18"/>
<text text-anchor="middle" x="596.4469" y="-115.3" font-family="Times,serif" font-size="14.00" fill="#000000">PhysicalQuantity</text>
</a>
</g>
</g>
<!-- PhysicalQuantity&#45;&gt;Mathematical -->
<g id="edge3" class="edge">
<title>PhysicalQuantity&#45;&gt;Mathematical</title>
<path fill="none" stroke="#000000" d="M580.3795,-136.7978C572.5082,-145.5168 562.8917,-156.1689 554.2736,-165.7151"/>
<polygon fill="none" stroke="#000000" points="551.4327,-163.6389 547.3295,-173.407 556.6285,-168.3296 551.4327,-163.6389"/>
</g>
<!-- Matrix -->
<g id="node8" class="node">
<title>Matrix</title>
<g id="a_node8"><a xlink:href="http://emmo.info/emmo/top/math#EMMO_1cba0b27_15d0_4326_933f_379d0b3565b6" xlink:title="Matrix">
<ellipse fill="#ffffcc" stroke="#000000" cx="122.4469" cy="-32.5" rx="35.194" ry="18"/>
<text text-anchor="middle" x="122.4469" y="-28.8" font-family="Times,serif" font-size="14.00" fill="#000000">Matrix</text>
</a>
</g>
</g>
<!-- Matrix&#45;&gt;Array -->
<g id="edge5" class="edge">
<title>Matrix&#45;&gt;Array</title>
<path fill="none" stroke="#000000" d="M113.5429,-50.0046C107.3404,-62.198 98.9545,-78.6841 91.9352,-92.4832"/>
<polygon fill="none" stroke="#000000" points="88.7521,-91.0214 87.3378,-101.5215 94.9913,-94.1952 88.7521,-91.0214"/>
</g>
<!-- Variable&#45;&gt;Mathematical -->
<g id="edge11" class="edge">
<title>Variable&#45;&gt;Mathematical</title>
<path fill="none" stroke="#000000" d="M476.5986,-136.7978C483.842,-145.8239 493.6923,-156.9217 503.1056,-166.7196"/>
<polygon fill="none" stroke="#000000" points="500.6616,-169.226 510.1684,-173.9028 505.653,-164.3183 500.6616,-169.226"/>
</g>
<!-- Variable&#45;&gt;Mathematical -->
<g id="edge12" class="edge">
<title>Variable&#45;&gt;Mathematical</title>
<path fill="none" stroke="#ffa500" stroke-dasharray="5,2" d="M486.5926,-134.9791C495.6446,-143.8709 506.089,-155.152 514.7069,-165.2567"/>
<polygon fill="#ffa500" stroke="#ffa500" points="518.4716,-175.2752 514.7796,-165.3444 523.8587,-170.8053 518.4716,-175.2752"/>
</g>
<!-- Expression -->
<g id="node10" class="node">
<title>Expression</title>
<g id="a_node10"><a xlink:href="http://emmo.info/emmo/middle/math#EMMO_f9bc8b52_85e9_4b53_b969_dd7724d5b8e4" xlink:title="Expression">
<ellipse fill="#ffffcc" stroke="#000000" stroke-width="2" cx="736.4469" cy="-119" rx="50.0912" ry="18"/>
<text text-anchor="middle" x="736.4469" y="-115.3" font-family="Times,serif" font-size="14.00" fill="#000000">Expression</text>
</a>
</g>
</g>
<!-- Expression&#45;&gt;Mathematical -->
<g id="edge9" class="edge">
<title>Expression&#45;&gt;Mathematical</title>
<path fill="none" stroke="#000000" d="M700.269,-131.7064C666.8206,-143.4541 616.8596,-161.0014 579.9606,-173.9611"/>
<polygon fill="none" stroke="#000000" points="578.6777,-170.702 570.4025,-177.3181 580.9973,-177.3065 578.6777,-170.702"/>
</g>
<!-- Constant -->
<g id="node11" class="node">
<title>Constant</title>
<g id="a_node11"><a xlink:href="http://emmo.info/emmo/middle/math#EMMO_ae15fb4f_8e4d_41de_a0f9_3997f89ba6a2" xlink:title="Constant">
<ellipse fill="#ffffcc" stroke="#000000" cx="360.4469" cy="-32.5" rx="42.4939" ry="18"/>
<text text-anchor="middle" x="360.4469" y="-28.8" font-family="Times,serif" font-size="14.00" fill="#000000">Constant</text>
</a>
</g>
</g>
<!-- Constant&#45;&gt;Numerical -->
<g id="edge8" class="edge">
<title>Constant&#45;&gt;Numerical</title>
<path fill="none" stroke="#ffa500" stroke-dasharray="5,2" d="M360.2349,-50.8444C360.1014,-62.3901 359.9264,-77.528 359.7752,-90.6039"/>
<polygon fill="#ffa500" stroke="#ffa500" points="356.1555,-100.9381 359.771,-90.9793 363.155,-101.0191 356.1555,-100.9381"/>
</g>
<!-- Constant&#45;&gt;Variable -->
<g id="edge7" class="edge">
<title>Constant&#45;&gt;Variable</title>
<path fill="none" stroke="#000000" d="M380.3847,-48.77C396.9229,-62.2658 420.6122,-81.5972 438.9518,-96.5629"/>
<polygon fill="none" stroke="#000000" points="436.9961,-99.4845 446.9567,-103.0952 441.4218,-94.0611 436.9961,-99.4845"/>
</g>
<!-- Formula -->
<g id="node12" class="node">
<title>Formula</title>
<g id="a_node12"><a xlink:href="http://emmo.info/emmo/middle/math#EMMO_88470739_03d3_4c47_a03e_b30a1288d50c" xlink:title="Formula">
<ellipse fill="#ffffcc" stroke="#000000" stroke-width="2" cx="845.4469" cy="-119" rx="40.8928" ry="18"/>
<text text-anchor="middle" x="845.4469" y="-115.3" font-family="Times,serif" font-size="14.00" fill="#000000">Formula</text>
</a>
</g>
</g>
<!-- Formula&#45;&gt;Mathematical -->
<g id="edge6" class="edge">
<title>Formula&#45;&gt;Mathematical</title>
<path fill="none" stroke="#000000" d="M814.4648,-130.9344C808.2206,-133.118 801.6648,-135.2546 795.4469,-137 727.6382,-156.034 648.2829,-171.3561 594.412,-180.7495"/>
<polygon fill="none" stroke="#000000" points="593.5825,-177.3409 584.3237,-182.4912 594.7734,-184.2388 593.5825,-177.3409"/>
</g>
<!-- MathematicalSymbol -->
<g id="node13" class="node">
<title>MathematicalSymbol</title>
<g id="a_node13"><a xlink:href="http://emmo.info/emmo/middle/math#EMMO_5be83f9c_a4ba_4b9a_be1a_5bfc6e891231" xlink:title="MathematicalSymbol">
<ellipse fill="#ffc880" stroke="#000000" stroke-width="2" cx="992.4469" cy="-119" rx="87.9851" ry="18"/>
<text text-anchor="middle" x="992.4469" y="-115.3" font-family="Times,serif" font-size="14.00" fill="#000000">MathematicalSymbol</text>
</a>
</g>
</g>
<!-- MathematicalSymbol&#45;&gt;Mathematical -->
<g id="edge15" class="edge">
<title>MathematicalSymbol&#45;&gt;Mathematical</title>
<path fill="none" stroke="#000000" d="M928.0663,-131.2847C917.1905,-133.263 906.0057,-135.2377 895.4469,-137 790.8778,-154.4529 668.9269,-171.9695 596.0678,-182.1336"/>
<polygon fill="none" stroke="#000000" points="595.5418,-178.673 586.1198,-183.5182 596.5069,-185.6061 595.5418,-178.673"/>
</g>
<!-- key1 -->
<g id="node15" class="node">
<title>key1</title>
<text text-anchor="start" x="697.4469" y="-47.3" font-family="Times,serif" font-size="14.00" fill="#000000">isA</text>
<text text-anchor="start" x="651.4469" y="-28.3" font-family="Times,serif" font-size="14.00" fill="#000000">hasVariable</text>
<text text-anchor="start" x="676.4469" y="-9.3" font-family="Times,serif" font-size="14.00" fill="#000000">inverse</text>
</g>
<!-- key2 -->
<g id="node16" class="node">
<title>key2</title>
<text text-anchor="start" x="769.4469" y="-47.3" font-family="Times,serif" font-size="14.00" fill="#000000"> </text>
<text text-anchor="start" x="769.4469" y="-28.3" font-family="Times,serif" font-size="14.00" fill="#000000"> </text>
<text text-anchor="start" x="769.4469" y="-9.3" font-family="Times,serif" font-size="14.00" fill="#000000"> </text>
</g>
<!-- key1&#45;&gt;key2 -->
<g id="edge16" class="edge">
<title>key1:e&#45;&gt;key2:w</title>
<path fill="none" stroke="#000000" d="M718.4469,-13.5C736.3115,-13.5 743.1852,-13.5 757.0999,-13.5"/>
<polygon fill="#000000" stroke="#000000" points="767.447,-17 757.4469,-13.5001 767.4469,-10 767.447,-17"/>
</g>
<!-- key1&#45;&gt;key2 -->
<g id="edge17" class="edge">
<title>key1:e&#45;&gt;key2:w</title>
<path fill="none" stroke="#ffa500" stroke-dasharray="5,2" d="M718.4469,-33.5C736.3115,-33.5 743.1852,-33.5 757.0999,-33.5"/>
<polygon fill="#ffa500" stroke="#ffa500" points="757.447,-37.0001 767.4469,-33.5 757.4469,-30.0001 757.447,-37.0001"/>
</g>
<!-- key1&#45;&gt;key2 -->
<g id="edge18" class="edge">
<title>key1:e&#45;&gt;key2:w</title>
<path fill="none" stroke="#000000" d="M718.4469,-52.5C736.3115,-52.5 743.1852,-52.5 757.0999,-52.5"/>
<polygon fill="none" stroke="#000000" points="757.447,-56.0001 767.4469,-52.5 757.4469,-49.0001 757.447,-56.0001"/>
</g>
</g>
</svg>
