<?xml version="1.0" encoding="UTF-8" standalone="no"?>
<!DOCTYPE svg PUBLIC "-//W3C//DTD SVG 1.1//EN"
 "http://www.w3.org/Graphics/SVG/1.1/DTD/svg11.dtd">
<!-- Generated by graphviz version 2.40.1 (20161225.0304)
 -->
<!-- Title: %3 Pages: 1 -->
<svg width="1132pt" height="217pt"
 viewBox="0.00 0.00 1132.04 217.00" xmlns="http://www.w3.org/2000/svg" xmlns:xlink="http://www.w3.org/1999/xlink">
<g id="graph0" class="graph" transform="scale(1 1) rotate(0) translate(4 213)">
<title>%3</title>
<polygon fill="#ffffff" stroke="transparent" points="-4,4 -4,-213 1128.0433,-213 1128.0433,4 -4,4"/>
<!-- Matrix -->
<g id="node1" class="node">
<title>Matrix</title>
<g id="a_node1"><a xlink:href="http://emmo.info/emmo/top/math#EMMO_1cba0b27_15d0_4326_933f_379d0b3565b6" xlink:title="Matrix">
<ellipse fill="#ffffcc" stroke="#000000" cx="35.0969" cy="-32.5" rx="35.194" ry="18"/>
<text text-anchor="middle" x="35.0969" y="-28.8" font-family="Times,serif" font-size="14.00" fill="#000000">Matrix</text>
</a>
</g>
</g>
<!-- Array -->
<g id="node14" class="node">
<title>Array</title>
<g id="a_node14"><a xlink:href="http://emmo.info/emmo/top/math#EMMO_28fbea28_2204_4613_87ff_6d877b855fcd" xlink:title="Array">
<ellipse fill="#ffffcc" stroke="#000000" cx="122.0969" cy="-119" rx="31.3957" ry="18"/>
<text text-anchor="middle" x="122.0969" y="-115.3" font-family="Times,serif" font-size="14.00" fill="#000000">Array</text>
</a>
</g>
</g>
<!-- Matrix&#45;&gt;Array -->
<g id="edge1" class="edge">
<title>Matrix&#45;&gt;Array</title>
<path fill="none" stroke="#000000" d="M51.4609,-48.77C64.874,-62.106 84.0182,-81.1401 98.9935,-96.0294"/>
<polygon fill="none" stroke="#000000" points="96.833,-98.8169 106.3922,-103.3856 101.7685,-93.8529 96.833,-98.8169"/>
</g>
<!-- Parameter -->
<g id="node2" class="node">
<title>Parameter</title>
<g id="a_node2"><a xlink:href="http://emmo.info/emmo/middle/math#EMMO_d1d436e7_72fc_49cd_863b_7bfb4ba5276a" xlink:title="Parameter">
<ellipse fill="#ffffcc" stroke="#000000" cx="326.0969" cy="-32.5" rx="46.5926" ry="18"/>
<text text-anchor="middle" x="326.0969" y="-28.8" font-family="Times,serif" font-size="14.00" fill="#000000">Parameter</text>
</a>
</g>
</g>
<!-- Variable -->
<g id="node7" class="node">
<title>Variable</title>
<g id="a_node7"><a xlink:href="http://emmo.info/emmo/middle/math#EMMO_1eed0732_e3f1_4b2c_a9c4_b4e75eeb5895" xlink:title="Variable">
<ellipse fill="#ffffcc" stroke="#000000" cx="326.0969" cy="-119" rx="40.8928" ry="18"/>
<text text-anchor="middle" x="326.0969" y="-115.3" font-family="Times,serif" font-size="14.00" fill="#000000">Variable</text>
</a>
</g>
</g>
<!-- Parameter&#45;&gt;Variable -->
<g id="edge13" class="edge">
<title>Parameter&#45;&gt;Variable</title>
<path fill="none" stroke="#000000" d="M326.0969,-50.8444C326.0969,-62.3901 326.0969,-77.528 326.0969,-90.6039"/>
<polygon fill="none" stroke="#000000" points="322.597,-90.9786 326.0969,-100.9786 329.597,-90.9787 322.597,-90.9786"/>
</g>
<!-- Numerical -->
<g id="node3" class="node">
<title>Numerical</title>
<g id="a_node3"><a xlink:href="http://emmo.info/emmo/middle/math#EMMO_4ce76d7f_03f8_45b6_9003_90052a79bfaa" xlink:title="Numerical">
<ellipse fill="#ffffcc" stroke="#000000" cx="219.0969" cy="-119" rx="48.1917" ry="18"/>
<text text-anchor="middle" x="219.0969" y="-115.3" font-family="Times,serif" font-size="14.00" fill="#000000">Numerical</text>
</a>
</g>
</g>
<!-- Mathematical -->
<g id="node6" class="node">
<title>Mathematical</title>
<g id="a_node6"><a xlink:href="http://emmo.info/emmo/middle/math#EMMO_54ee6b5e_5261_44a8_86eb_5717e7fdb9d0" xlink:title="Mathematical">
<ellipse fill="#ffffcc" stroke="#000000" stroke-width="2" cx="526.0969" cy="-191" rx="59.5901" ry="18"/>
<text text-anchor="middle" x="526.0969" y="-187.3" font-family="Times,serif" font-size="14.00" fill="#000000">Mathematical</text>
</a>
</g>
</g>
<!-- Numerical&#45;&gt;Mathematical -->
<g id="edge8" class="edge">
<title>Numerical&#45;&gt;Mathematical</title>
<path fill="none" stroke="#000000" d="M255.1327,-130.9372C262.0571,-133.0724 269.2761,-135.1906 276.0969,-137 340.0734,-153.9715 414.3072,-169.4873 465.1622,-179.4884"/>
<polygon fill="none" stroke="#000000" points="464.5258,-182.9302 475.0115,-181.414 465.8689,-176.0603 464.5258,-182.9302"/>
</g>
<!-- PhysicalQuantity -->
<g id="node4" class="node">
<title>PhysicalQuantity</title>
<g id="a_node4"><a xlink:href="http://emmo.info/emmo/middle/metrology#EMMO_02c0621e_a527_4790_8a0f_2bb51973c819" xlink:title="PhysicalQuantity">
<ellipse fill="#ffffcc" stroke="#000000" stroke-width="2" cx="456.0969" cy="-119" rx="71.4873" ry="18"/>
<text text-anchor="middle" x="456.0969" y="-115.3" font-family="Times,serif" font-size="14.00" fill="#000000">PhysicalQuantity</text>
</a>
</g>
</g>
<!-- PhysicalQuantity&#45;&gt;Mathematical -->
<g id="edge10" class="edge">
<title>PhysicalQuantity&#45;&gt;Mathematical</title>
<path fill="none" stroke="#000000" d="M473.4003,-136.7978C482.0257,-145.6697 492.5971,-156.5431 502.0016,-166.2163"/>
<polygon fill="none" stroke="#000000" points="499.7538,-168.9252 509.2341,-173.6554 504.7728,-164.0457 499.7538,-168.9252"/>
</g>
<!-- Constant -->
<g id="node5" class="node">
<title>Constant</title>
<g id="a_node5"><a xlink:href="http://emmo.info/emmo/middle/math#EMMO_ae15fb4f_8e4d_41de_a0f9_3997f89ba6a2" xlink:title="Constant">
<ellipse fill="#ffffcc" stroke="#000000" cx="219.0969" cy="-32.5" rx="42.4939" ry="18"/>
<text text-anchor="middle" x="219.0969" y="-28.8" font-family="Times,serif" font-size="14.00" fill="#000000">Constant</text>
</a>
</g>
</g>
<!-- Constant&#45;&gt;Numerical -->
<g id="edge15" class="edge">
<title>Constant&#45;&gt;Numerical</title>
<path fill="none" stroke="#ffa500" stroke-dasharray="5,2" d="M219.0969,-50.8444C219.0969,-62.3901 219.0969,-77.528 219.0969,-90.6039"/>
<polygon fill="#ffa500" stroke="#ffa500" points="215.5969,-100.9786 219.097,-90.9786 222.5969,-100.9787 215.5969,-100.9786"/>
</g>
<!-- Constant&#45;&gt;Variable -->
<g id="edge14" class="edge">
<title>Constant&#45;&gt;Variable</title>
<path fill="none" stroke="#000000" d="M238.972,-48.5673C255.7134,-62.1012 279.8423,-81.6073 298.4645,-96.6617"/>
<polygon fill="none" stroke="#000000" points="296.3511,-99.4538 306.3282,-103.0188 300.7519,-94.0101 296.3511,-99.4538"/>
</g>
<!-- Variable&#45;&gt;Mathematical -->
<g id="edge6" class="edge">
<title>Variable&#45;&gt;Mathematical</title>
<path fill="none" stroke="#000000" d="M355.6674,-131.5414C387.0569,-143.4876 437.0305,-161.538 474.8203,-174.6162"/>
<polygon fill="none" stroke="#000000" points="474.0426,-178.05 484.6373,-177.9952 476.3209,-171.4311 474.0426,-178.05"/>
</g>
<!-- Variable&#45;&gt;Mathematical -->
<g id="edge7" class="edge">
<title>Variable&#45;&gt;Mathematical</title>
<path fill="none" stroke="#ffa500" stroke-dasharray="5,2" d="M359.6526,-129.3158C393.1229,-140.631 444.5274,-159.0096 481.4098,-172.7676"/>
<polygon fill="#ffa500" stroke="#ffa500" points="489.6973,-179.6139 481.5633,-172.8251 492.1555,-173.0597 489.6973,-179.6139"/>
</g>
<!-- Expression -->
<g id="node8" class="node">
<title>Expression</title>
<g id="a_node8"><a xlink:href="http://emmo.info/emmo/middle/math#EMMO_f9bc8b52_85e9_4b53_b969_dd7724d5b8e4" xlink:title="Expression">
<ellipse fill="#ffffcc" stroke="#000000" stroke-width="2" cx="596.0969" cy="-119" rx="50.0912" ry="18"/>
<text text-anchor="middle" x="596.0969" y="-115.3" font-family="Times,serif" font-size="14.00" fill="#000000">Expression</text>
</a>
</g>
</g>
<!-- Expression&#45;&gt;Mathematical -->
<g id="edge12" class="edge">
<title>Expression&#45;&gt;Mathematical</title>
<path fill="none" stroke="#000000" d="M579.5079,-136.063C570.7448,-145.0765 559.8291,-156.3041 550.1538,-166.2557"/>
<polygon fill="none" stroke="#000000" points="547.5144,-163.9496 543.0531,-173.5593 552.5334,-168.8291 547.5144,-163.9496"/>
</g>
<!-- MathematicalSymbol -->
<g id="node9" class="node">
<title>MathematicalSymbol</title>
<g id="a_node9"><a xlink:href="http://emmo.info/emmo/middle/math#EMMO_5be83f9c_a4ba_4b9a_be1a_5bfc6e891231" xlink:title="MathematicalSymbol">
<ellipse fill="#ffc880" stroke="#000000" stroke-width="2" cx="752.0969" cy="-119" rx="87.9851" ry="18"/>
<text text-anchor="middle" x="752.0969" y="-115.3" font-family="Times,serif" font-size="14.00" fill="#000000">MathematicalSymbol</text>
</a>
</g>
</g>
<!-- MathematicalSymbol&#45;&gt;Mathematical -->
<g id="edge11" class="edge">
<title>MathematicalSymbol&#45;&gt;Mathematical</title>
<path fill="none" stroke="#000000" d="M704.4443,-134.1814C667.1159,-146.0736 615.2921,-162.5838 577.1247,-174.7434"/>
<polygon fill="none" stroke="#000000" points="575.7055,-171.5221 567.2398,-177.8925 577.8305,-178.1918 575.7055,-171.5221"/>
</g>
<!-- MathematicalModel -->
<g id="node10" class="node">
<title>MathematicalModel</title>
<g id="a_node10"><a xlink:href="http://emmo.info/emmo/middle/models#EMMO_f7ed665b_c2e1_42bc_889b_6b42ed3a36f0" xlink:title="MathematicalModel">
<ellipse fill="#ffc880" stroke="#000000" stroke-width="2" cx="941.0969" cy="-119" rx="83.3857" ry="18"/>
<text text-anchor="middle" x="941.0969" y="-115.3" font-family="Times,serif" font-size="14.00" fill="#000000">MathematicalModel</text>
</a>
</g>
</g>
<!-- MathematicalModel&#45;&gt;Mathematical -->
<g id="edge4" class="edge">
<title>MathematicalModel&#45;&gt;Mathematical</title>
<path fill="none" stroke="#000000" d="M879.7771,-131.2415C869.5411,-133.2148 859.0254,-135.1991 849.0969,-137 758.9578,-153.3496 654.3281,-170.5106 589.1586,-180.9845"/>
<polygon fill="none" stroke="#000000" points="588.3656,-177.5669 579.0463,-182.6069 589.4746,-184.4785 588.3656,-177.5669"/>
</g>
<!-- Formula -->
<g id="node11" class="node">
<title>Formula</title>
<g id="a_node11"><a xlink:href="http://emmo.info/emmo/middle/math#EMMO_88470739_03d3_4c47_a03e_b30a1288d50c" xlink:title="Formula">
<ellipse fill="#ffffcc" stroke="#000000" stroke-width="2" cx="1083.0969" cy="-119" rx="40.8928" ry="18"/>
<text text-anchor="middle" x="1083.0969" y="-115.3" font-family="Times,serif" font-size="14.00" fill="#000000">Formula</text>
</a>
</g>
</g>
<!-- Formula&#45;&gt;Mathematical -->
<g id="edge5" class="edge">
<title>Formula&#45;&gt;Mathematical</title>
<path fill="none" stroke="#000000" d="M1052.7708,-131.2242C1046.3583,-133.438 1039.5709,-135.5126 1033.0969,-137 879.5755,-172.2717 694.5049,-184.5997 595.9281,-188.8382"/>
<polygon fill="none" stroke="#000000" points="595.639,-185.3471 585.7926,-189.2584 595.929,-192.3411 595.639,-185.3471"/>
</g>
<!-- Vector -->
<g id="node12" class="node">
<title>Vector</title>
<g id="a_node12"><a xlink:href="http://emmo.info/emmo/middle/math#EMMO_06658d8d_dcde_4fc9_aae1_17f71c0bcdec" xlink:title="Vector">
<ellipse fill="#ffffcc" stroke="#000000" cx="123.0969" cy="-32.5" rx="34.394" ry="18"/>
<text text-anchor="middle" x="123.0969" y="-28.8" font-family="Times,serif" font-size="14.00" fill="#000000">Vector</text>
</a>
</g>
</g>
<!-- Vector&#45;&gt;Array -->
<g id="edge2" class="edge">
<title>Vector&#45;&gt;Array</title>
<path fill="none" stroke="#000000" d="M122.8848,-50.8444C122.7513,-62.3901 122.5763,-77.528 122.4252,-90.6039"/>
<polygon fill="none" stroke="#000000" points="118.9212,-90.9388 122.3052,-100.9786 125.9207,-91.0198 118.9212,-90.9388"/>
</g>
<!-- Unknown -->
<g id="node13" class="node">
<title>Unknown</title>
<g id="a_node13"><a xlink:href="http://emmo.info/emmo/middle/math#EMMO_fe7e56ce_118b_4243_9aad_20eb9f4f31f6" xlink:title="Unknown">
<ellipse fill="#ffffcc" stroke="#000000" cx="436.0969" cy="-32.5" rx="45.4919" ry="18"/>
<text text-anchor="middle" x="436.0969" y="-28.8" font-family="Times,serif" font-size="14.00" fill="#000000">Unknown</text>
</a>
</g>
</g>
<!-- Unknown&#45;&gt;Variable -->
<g id="edge9" class="edge">
<title>Unknown&#45;&gt;Variable</title>
<path fill="none" stroke="#000000" d="M415.4067,-48.77C398.1671,-62.3266 373.4396,-81.7714 354.3728,-96.7649"/>
<polygon fill="none" stroke="#000000" points="352.0199,-94.1626 346.3226,-103.0952 356.3468,-99.6651 352.0199,-94.1626"/>
</g>
<!-- Array&#45;&gt;Mathematical -->
<g id="edge3" class="edge">
<title>Array&#45;&gt;Mathematical</title>
<path fill="none" stroke="#000000" d="M145.8024,-130.9545C151.0654,-133.2427 156.6891,-135.4153 162.0969,-137 262.3702,-166.3848 383.0953,-180.2641 457.2088,-186.4562"/>
<polygon fill="none" stroke="#000000" points="457.0997,-189.9587 467.3502,-187.2797 457.6664,-182.9817 457.0997,-189.9587"/>
</g>
<!-- key1 -->
<g id="node15" class="node">
<title>key1</title>
<text text-anchor="start" x="556.0969" y="-47.3" font-family="Times,serif" font-size="14.00" fill="#000000">isA</text>
<text text-anchor="start" x="510.0969" y="-28.3" font-family="Times,serif" font-size="14.00" fill="#000000">hasVariable</text>
<text text-anchor="start" x="535.0969" y="-9.3" font-family="Times,serif" font-size="14.00" fill="#000000">inverse</text>
</g>
<!-- key2 -->
<g id="node16" class="node">
<title>key2</title>
<text text-anchor="start" x="628.0969" y="-47.3" font-family="Times,serif" font-size="14.00" fill="#000000"> </text>
<text text-anchor="start" x="628.0969" y="-28.3" font-family="Times,serif" font-size="14.00" fill="#000000"> </text>
<text text-anchor="start" x="628.0969" y="-9.3" font-family="Times,serif" font-size="14.00" fill="#000000"> </text>
</g>
<!-- key1&#45;&gt;key2 -->
<g id="edge16" class="edge">
<title>key1:e&#45;&gt;key2:w</title>
<path fill="none" stroke="#000000" d="M577.0969,-13.5C594.9615,-13.5 601.8351,-13.5 615.7499,-13.5"/>
<polygon fill="#000000" stroke="#000000" points="626.0969,-17 616.0969,-13.5001 626.0969,-10 626.0969,-17"/>
</g>
<!-- key1&#45;&gt;key2 -->
<g id="edge17" class="edge">
<title>key1:e&#45;&gt;key2:w</title>
<path fill="none" stroke="#ffa500" stroke-dasharray="5,2" d="M577.0969,-33.5C594.9615,-33.5 601.8351,-33.5 615.7499,-33.5"/>
<polygon fill="#ffa500" stroke="#ffa500" points="616.0969,-37.0001 626.0969,-33.5 616.0969,-30.0001 616.0969,-37.0001"/>
</g>
<!-- key1&#45;&gt;key2 -->
<g id="edge18" class="edge">
<title>key1:e&#45;&gt;key2:w</title>
<path fill="none" stroke="#000000" d="M577.0969,-52.5C594.9615,-52.5 601.8351,-52.5 615.7499,-52.5"/>
<polygon fill="none" stroke="#000000" points="616.0969,-56.0001 626.0969,-52.5 616.0969,-49.0001 616.0969,-56.0001"/>
</g>
</g>
</svg>
