<?xml version="1.0" encoding="UTF-8" standalone="no"?>
<!DOCTYPE svg PUBLIC "-//W3C//DTD SVG 1.1//EN"
 "http://www.w3.org/Graphics/SVG/1.1/DTD/svg11.dtd">
<!-- Generated by graphviz version 2.40.1 (20161225.0304)
 -->
<!-- Title: %3 Pages: 1 -->
<svg width="606pt" height="260pt"
 viewBox="0.00 0.00 606.44 260.00" xmlns="http://www.w3.org/2000/svg" xmlns:xlink="http://www.w3.org/1999/xlink">
<g id="graph0" class="graph" transform="scale(1 1) rotate(0) translate(4 256)">
<title>%3</title>
<polygon fill="#ffffff" stroke="transparent" points="-4,4 -4,-256 602.4423,-256 602.4423,4 -4,4"/>
<!-- Division -->
<g id="node1" class="node">
<title>Division</title>
<g id="a_node1"><a xlink:href="http://emmo.info/emmo/top/math#EMMO_a365b3c1_7bde_41d7_a15b_2820762e85f4" xlink:title="Division">
<ellipse fill="#ffc880" stroke="#000000" cx="40.9464" cy="-18" rx="40.8928" ry="18"/>
<text text-anchor="middle" x="40.9464" y="-14.3" font-family="Times,serif" font-size="14.00" fill="#000000">Division</text>
</a>
</g>
</g>
<!-- ArithmeticOperator -->
<g id="node3" class="node">
<title>ArithmeticOperator</title>
<g id="a_node3"><a xlink:href="http://emmo.info/emmo/middle/math#EMMO_707f0cd1_941c_4b57_9f20_d0ba30cd6ff3" xlink:title="ArithmeticOperator">
<ellipse fill="#ffffcc" stroke="#000000" cx="165.9464" cy="-90" rx="80.6858" ry="18"/>
<text text-anchor="middle" x="165.9464" y="-86.3" font-family="Times,serif" font-size="14.00" fill="#000000">ArithmeticOperator</text>
</a>
</g>
</g>
<!-- Division&#45;&gt;ArithmeticOperator -->
<g id="edge2" class="edge">
<title>Division&#45;&gt;ArithmeticOperator</title>
<path fill="none" stroke="#000000" d="M65.9416,-32.3972C83.6118,-42.5753 107.6289,-56.4091 127.6977,-67.9688"/>
<polygon fill="none" stroke="#000000" points="126.1914,-71.1402 136.6036,-73.0986 129.6853,-65.0745 126.1914,-71.1402"/>
</g>
<!-- Gradient -->
<g id="node2" class="node">
<title>Gradient</title>
<g id="a_node2"><a xlink:href="http://emmo.info/emmo/top/math#EMMO_b5c58790_fb2d_42eb_b184_2a3f6ca60acb" xlink:title="Gradient">
<ellipse fill="#ffc880" stroke="#000000" cx="447.9464" cy="-90" rx="41.6928" ry="18"/>
<text text-anchor="middle" x="447.9464" y="-86.3" font-family="Times,serif" font-size="14.00" fill="#000000">Gradient</text>
</a>
</g>
</g>
<!-- DifferentialOperator -->
<g id="node11" class="node">
<title>DifferentialOperator</title>
<g id="a_node11"><a xlink:href="http://emmo.info/emmo/top/math#EMMO_f8a2fe9f_458b_4771_9aba_a50e76afc52d" xlink:title="DifferentialOperator">
<ellipse fill="#ffffcc" stroke="#000000" cx="464.9464" cy="-162" rx="83.3857" ry="18"/>
<text text-anchor="middle" x="464.9464" y="-158.3" font-family="Times,serif" font-size="14.00" fill="#000000">DifferentialOperator</text>
</a>
</g>
</g>
<!-- Gradient&#45;&gt;DifferentialOperator -->
<g id="edge6" class="edge">
<title>Gradient&#45;&gt;DifferentialOperator</title>
<path fill="none" stroke="#000000" d="M452.2362,-108.1686C454.0543,-115.869 456.2163,-125.0257 458.2369,-133.5834"/>
<polygon fill="none" stroke="#000000" points="454.8944,-134.6586 460.5988,-143.5867 461.7071,-133.05 454.8944,-134.6586"/>
</g>
<!-- AlgebricOperator -->
<g id="node4" class="node">
<title>AlgebricOperator</title>
<g id="a_node4"><a xlink:href="http://emmo.info/emmo/top/math#EMMO_3c424d37_cf62_41b1_ac9d_a316f8d113d6" xlink:title="AlgebricOperator">
<ellipse fill="#ffffcc" stroke="#000000" cx="290.9464" cy="-162" rx="72.5877" ry="18"/>
<text text-anchor="middle" x="290.9464" y="-158.3" font-family="Times,serif" font-size="14.00" fill="#000000">AlgebricOperator</text>
</a>
</g>
</g>
<!-- ArithmeticOperator&#45;&gt;AlgebricOperator -->
<g id="edge9" class="edge">
<title>ArithmeticOperator&#45;&gt;AlgebricOperator</title>
<path fill="none" stroke="#000000" d="M195.2533,-106.8808C212.4929,-116.8108 234.4792,-129.4749 253.0288,-140.1595"/>
<polygon fill="none" stroke="#000000" points="251.4108,-143.2666 261.823,-145.225 254.9046,-137.2008 251.4108,-143.2666"/>
</g>
<!-- MathematicalOperator -->
<g id="node9" class="node">
<title>MathematicalOperator</title>
<g id="a_node9"><a xlink:href="http://emmo.info/emmo/top/math#EMMO_f6d0c26a_98b6_4cf8_8632_aa259131faaa" xlink:title="MathematicalOperator">
<ellipse fill="#ffffcc" stroke="#000000" stroke-width="2" cx="377.9464" cy="-234" rx="90.9839" ry="18"/>
<text text-anchor="middle" x="377.9464" y="-230.3" font-family="Times,serif" font-size="14.00" fill="#000000">MathematicalOperator</text>
</a>
</g>
</g>
<!-- AlgebricOperator&#45;&gt;MathematicalOperator -->
<g id="edge8" class="edge">
<title>AlgebricOperator&#45;&gt;MathematicalOperator</title>
<path fill="none" stroke="#000000" d="M312.0066,-179.4292C323.0388,-188.5592 336.7225,-199.8837 348.7604,-209.8461"/>
<polygon fill="none" stroke="#000000" points="346.843,-212.8024 356.7785,-216.4818 351.306,-207.4097 346.843,-212.8024"/>
</g>
<!-- Plus -->
<g id="node5" class="node">
<title>Plus</title>
<g id="a_node5"><a xlink:href="http://emmo.info/emmo/top/math#EMMO_8de14a59_660b_454f_aff8_76a07ce185f4" xlink:title="Plus">
<ellipse fill="#ffc880" stroke="#000000" cx="126.9464" cy="-18" rx="27" ry="18"/>
<text text-anchor="middle" x="126.9464" y="-14.3" font-family="Times,serif" font-size="14.00" fill="#000000">Plus</text>
</a>
</g>
</g>
<!-- Plus&#45;&gt;ArithmeticOperator -->
<g id="edge7" class="edge">
<title>Plus&#45;&gt;ArithmeticOperator</title>
<path fill="none" stroke="#000000" d="M136.1888,-35.063C140.7164,-43.4215 146.2752,-53.6841 151.3579,-63.0675"/>
<polygon fill="none" stroke="#000000" points="148.3856,-64.9288 156.226,-72.0547 154.5407,-61.5948 148.3856,-64.9288"/>
</g>
<!-- Laplacian -->
<g id="node6" class="node">
<title>Laplacian</title>
<g id="a_node6"><a xlink:href="http://emmo.info/emmo/top/math#EMMO_048a14e3_65fb_457d_8695_948965c89492" xlink:title="Laplacian">
<ellipse fill="#ffc880" stroke="#000000" cx="552.9464" cy="-90" rx="45.4919" ry="18"/>
<text text-anchor="middle" x="552.9464" y="-86.3" font-family="Times,serif" font-size="14.00" fill="#000000">Laplacian</text>
</a>
</g>
</g>
<!-- Laplacian&#45;&gt;DifferentialOperator -->
<g id="edge10" class="edge">
<title>Laplacian&#45;&gt;DifferentialOperator</title>
<path fill="none" stroke="#000000" d="M532.9778,-106.3379C521.5799,-115.6635 507.0784,-127.5283 494.3949,-137.9058"/>
<polygon fill="none" stroke="#000000" points="491.8966,-135.4276 486.3734,-144.4688 496.3293,-140.8453 491.8966,-135.4276"/>
</g>
<!-- Exponent -->
<g id="node7" class="node">
<title>Exponent</title>
<g id="a_node7"><a xlink:href="http://emmo.info/emmo/top/math#EMMO_223d9523_4169_4ecd_b8af_acad1215e1ff" xlink:title="Exponent">
<ellipse fill="#ffffcc" stroke="#000000" cx="308.9464" cy="-90" rx="44.393" ry="18"/>
<text text-anchor="middle" x="308.9464" y="-86.3" font-family="Times,serif" font-size="14.00" fill="#000000">Exponent</text>
</a>
</g>
</g>
<!-- Exponent&#45;&gt;AlgebricOperator -->
<g id="edge3" class="edge">
<title>Exponent&#45;&gt;AlgebricOperator</title>
<path fill="none" stroke="#000000" d="M304.4042,-108.1686C302.458,-115.9537 300.1396,-125.2271 297.98,-133.8653"/>
<polygon fill="none" stroke="#000000" points="294.5796,-133.0364 295.5497,-143.5867 301.3706,-134.7342 294.5796,-133.0364"/>
</g>
<!-- Minus -->
<g id="node8" class="node">
<title>Minus</title>
<g id="a_node8"><a xlink:href="http://emmo.info/emmo/top/math#EMMO_46d5643b_9706_4b67_8bea_ed77d6026539" xlink:title="Minus">
<ellipse fill="#ffc880" stroke="#000000" cx="205.9464" cy="-18" rx="33.5952" ry="18"/>
<text text-anchor="middle" x="205.9464" y="-14.3" font-family="Times,serif" font-size="14.00" fill="#000000">Minus</text>
</a>
</g>
</g>
<!-- Minus&#45;&gt;ArithmeticOperator -->
<g id="edge5" class="edge">
<title>Minus&#45;&gt;ArithmeticOperator</title>
<path fill="none" stroke="#000000" d="M196.2635,-35.4292C191.6508,-43.7321 186.0298,-53.8498 180.8867,-63.1075"/>
<polygon fill="none" stroke="#000000" points="177.7547,-61.5381 175.9578,-71.9794 183.8738,-64.9376 177.7547,-61.5381"/>
</g>
<!-- Multiplication -->
<g id="node10" class="node">
<title>Multiplication</title>
<g id="a_node10"><a xlink:href="http://emmo.info/emmo/top/math#EMMO_2b1303e8_d4c3_453b_9918_76f1d009543f" xlink:title="Multiplication">
<ellipse fill="#ffc880" stroke="#000000" cx="319.9464" cy="-18" rx="61.99" ry="18"/>
<text text-anchor="middle" x="319.9464" y="-14.3" font-family="Times,serif" font-size="14.00" fill="#000000">Multiplication</text>
</a>
</g>
</g>
<!-- Multiplication&#45;&gt;ArithmeticOperator -->
<g id="edge4" class="edge">
<title>Multiplication&#45;&gt;ArithmeticOperator</title>
<path fill="none" stroke="#000000" d="M286.9095,-33.4458C264.418,-43.9613 234.4005,-57.9955 209.8952,-69.4525"/>
<polygon fill="none" stroke="#000000" points="208.3768,-66.2987 200.8004,-73.7046 211.3416,-72.6399 208.3768,-66.2987"/>
</g>
<!-- DifferentialOperator&#45;&gt;MathematicalOperator -->
<g id="edge1" class="edge">
<title>DifferentialOperator&#45;&gt;MathematicalOperator</title>
<path fill="none" stroke="#000000" d="M443.8861,-179.4292C432.854,-188.5592 419.1702,-199.8837 407.1323,-209.8461"/>
<polygon fill="none" stroke="#000000" points="404.5867,-207.4097 399.1142,-216.4818 409.0497,-212.8024 404.5867,-207.4097"/>
</g>
<!-- key1 -->
<g id="node12" class="node">
<title>key1</title>
<text text-anchor="start" x="417.9464" y="-13.8" font-family="Times,serif" font-size="14.00" fill="#000000">isA</text>
</g>
<!-- key2 -->
<g id="node13" class="node">
<title>key2</title>
<text text-anchor="start" x="496.9464" y="-13.8" font-family="Times,serif" font-size="14.00" fill="#000000"> </text>
</g>
<!-- key1&#45;&gt;key2 -->
<g id="edge11" class="edge">
<title>key1:e&#45;&gt;key2:w</title>
<path fill="none" stroke="#000000" d="M438.9464,-19C459.9464,-19 467.6573,-19 484.5045,-19"/>
<polygon fill="none" stroke="#000000" points="484.9464,-22.5001 494.9464,-19 484.9463,-15.5001 484.9464,-22.5001"/>
</g>
</g>
</svg>
