<?xml version="1.0" encoding="UTF-8" standalone="no"?>
<!DOCTYPE svg PUBLIC "-//W3C//DTD SVG 1.1//EN"
 "http://www.w3.org/Graphics/SVG/1.1/DTD/svg11.dtd">
<!-- Generated by graphviz version 2.40.1 (20161225.0304)
 -->
<!-- Title: %3 Pages: 1 -->
<svg width="1041pt" height="217pt"
 viewBox="0.00 0.00 1040.93 217.00" xmlns="http://www.w3.org/2000/svg" xmlns:xlink="http://www.w3.org/1999/xlink">
<g id="graph0" class="graph" transform="scale(1 1) rotate(0) translate(4 213)">
<title>%3</title>
<polygon fill="#ffffff" stroke="transparent" points="-4,4 -4,-213 1036.9348,-213 1036.9348,4 -4,4"/>
<!-- Variable -->
<g id="node1" class="node">
<title>Variable</title>
<g id="a_node1"><a xlink:href="http://emmo.info/emmo/middle/math#EMMO_1eed0732_e3f1_4b2c_a9c4_b4e75eeb5895" xlink:title="Variable">
<ellipse fill="#ffffcc" stroke="#000000" cx="466.1926" cy="-119" rx="40.8928" ry="18"/>
<text text-anchor="middle" x="466.1926" y="-115.3" font-family="Times,serif" font-size="14.00" fill="#000000">Variable</text>
</a>
</g>
</g>
<!-- Mathematical -->
<g id="node10" class="node">
<title>Mathematical</title>
<g id="a_node10"><a xlink:href="http://emmo.info/emmo/middle/math#EMMO_54ee6b5e_5261_44a8_86eb_5717e7fdb9d0" xlink:title="Mathematical">
<ellipse fill="#ffffcc" stroke="#000000" stroke-width="2" cx="519.1926" cy="-191" rx="59.5901" ry="18"/>
<text text-anchor="middle" x="519.1926" y="-187.3" font-family="Times,serif" font-size="14.00" fill="#000000">Mathematical</text>
</a>
</g>
</g>
<!-- Variable&#45;&gt;Mathematical -->
<g id="edge1" class="edge">
<title>Variable&#45;&gt;Mathematical</title>
<path fill="none" stroke="#000000" d="M473.378,-136.7978C478.9073,-145.494 486.5359,-156.1133 494.0442,-165.6402"/>
<polygon fill="none" stroke="#000000" points="491.5336,-168.1007 500.5556,-173.6554 496.9667,-163.6869 491.5336,-168.1007"/>
</g>
<!-- Variable&#45;&gt;Mathematical -->
<g id="edge2" class="edge">
<title>Variable&#45;&gt;Mathematical</title>
<path fill="none" stroke="#ffa500" stroke-dasharray="5,2" d="M483.98,-135.3379C491.2552,-143.9147 499.4102,-154.6394 506.139,-164.3794"/>
<polygon fill="#ffa500" stroke="#ffa500" points="508.9383,-174.8976 506.3087,-164.6343 514.7647,-171.0177 508.9383,-174.8976"/>
</g>
<!-- Vector -->
<g id="node2" class="node">
<title>Vector</title>
<g id="a_node2"><a xlink:href="http://emmo.info/emmo/middle/math#EMMO_06658d8d_dcde_4fc9_aae1_17f71c0bcdec" xlink:title="Vector">
<ellipse fill="#ffffcc" stroke="#000000" cx="152.1926" cy="-32.5" rx="34.394" ry="18"/>
<text text-anchor="middle" x="152.1926" y="-28.8" font-family="Times,serif" font-size="14.00" fill="#000000">Vector</text>
</a>
</g>
</g>
<!-- Array -->
<g id="node5" class="node">
<title>Array</title>
<g id="a_node5"><a xlink:href="http://emmo.info/emmo/top/math#EMMO_28fbea28_2204_4613_87ff_6d877b855fcd" xlink:title="Array">
<ellipse fill="#ffffcc" stroke="#000000" cx="215.1926" cy="-119" rx="31.3957" ry="18"/>
<text text-anchor="middle" x="215.1926" y="-115.3" font-family="Times,serif" font-size="14.00" fill="#000000">Array</text>
</a>
</g>
</g>
<!-- Vector&#45;&gt;Array -->
<g id="edge6" class="edge">
<title>Vector&#45;&gt;Array</title>
<path fill="none" stroke="#000000" d="M164.6394,-49.5896C173.8452,-62.2294 186.5288,-79.6441 196.8881,-93.8676"/>
<polygon fill="none" stroke="#000000" points="194.2696,-96.2174 202.9861,-102.2402 199.9279,-92.0963 194.2696,-96.2174"/>
</g>
<!-- Unknown -->
<g id="node3" class="node">
<title>Unknown</title>
<g id="a_node3"><a xlink:href="http://emmo.info/emmo/middle/math#EMMO_fe7e56ce_118b_4243_9aad_20eb9f4f31f6" xlink:title="Unknown">
<ellipse fill="#ffffcc" stroke="#000000" cx="466.1926" cy="-32.5" rx="45.4919" ry="18"/>
<text text-anchor="middle" x="466.1926" y="-28.8" font-family="Times,serif" font-size="14.00" fill="#000000">Unknown</text>
</a>
</g>
</g>
<!-- Unknown&#45;&gt;Variable -->
<g id="edge12" class="edge">
<title>Unknown&#45;&gt;Variable</title>
<path fill="none" stroke="#000000" d="M466.1926,-50.8444C466.1926,-62.3901 466.1926,-77.528 466.1926,-90.6039"/>
<polygon fill="none" stroke="#000000" points="462.6927,-90.9786 466.1926,-100.9786 469.6927,-90.9787 462.6927,-90.9786"/>
</g>
<!-- MathematicalModel -->
<g id="node4" class="node">
<title>MathematicalModel</title>
<g id="a_node4"><a xlink:href="http://emmo.info/emmo/middle/models#EMMO_f7ed665b_c2e1_42bc_889b_6b42ed3a36f0" xlink:title="MathematicalModel">
<ellipse fill="#ffc880" stroke="#000000" stroke-width="2" cx="83.1926" cy="-119" rx="83.3857" ry="18"/>
<text text-anchor="middle" x="83.1926" y="-115.3" font-family="Times,serif" font-size="14.00" fill="#000000">MathematicalModel</text>
</a>
</g>
</g>
<!-- MathematicalModel&#45;&gt;Mathematical -->
<g id="edge3" class="edge">
<title>MathematicalModel&#45;&gt;Mathematical</title>
<path fill="none" stroke="#000000" d="M144.4972,-131.3265C154.7351,-133.2896 165.2553,-135.2485 175.1926,-137 272.4527,-154.1422 385.6662,-171.3961 454.8657,-181.6385"/>
<polygon fill="none" stroke="#000000" points="454.7626,-185.1612 465.1666,-183.1595 455.7851,-178.2363 454.7626,-185.1612"/>
</g>
<!-- Array&#45;&gt;Mathematical -->
<g id="edge8" class="edge">
<title>Array&#45;&gt;Mathematical</title>
<path fill="none" stroke="#000000" d="M239.5837,-130.7123C244.9724,-133.0156 250.7109,-135.2555 256.1926,-137 322.5402,-158.114 401.0023,-172.9732 454.853,-181.6884"/>
<polygon fill="none" stroke="#000000" points="454.5222,-185.1797 464.9484,-183.2969 455.6237,-178.2669 454.5222,-185.1797"/>
</g>
<!-- Parameter -->
<g id="node6" class="node">
<title>Parameter</title>
<g id="a_node6"><a xlink:href="http://emmo.info/emmo/middle/math#EMMO_d1d436e7_72fc_49cd_863b_7bfb4ba5276a" xlink:title="Parameter">
<ellipse fill="#ffffcc" stroke="#000000" cx="576.1926" cy="-32.5" rx="46.5926" ry="18"/>
<text text-anchor="middle" x="576.1926" y="-28.8" font-family="Times,serif" font-size="14.00" fill="#000000">Parameter</text>
</a>
</g>
</g>
<!-- Parameter&#45;&gt;Variable -->
<g id="edge14" class="edge">
<title>Parameter&#45;&gt;Variable</title>
<path fill="none" stroke="#000000" d="M555.5025,-48.77C538.2629,-62.3266 513.5353,-81.7714 494.4685,-96.7649"/>
<polygon fill="none" stroke="#000000" points="492.1156,-94.1626 486.4184,-103.0952 496.4426,-99.6651 492.1156,-94.1626"/>
</g>
<!-- PhysicalQuantity -->
<g id="node7" class="node">
<title>PhysicalQuantity</title>
<g id="a_node7"><a xlink:href="http://emmo.info/emmo/middle/metrology#EMMO_02c0621e_a527_4790_8a0f_2bb51973c819" xlink:title="PhysicalQuantity">
<ellipse fill="#ffffcc" stroke="#000000" stroke-width="2" cx="336.1926" cy="-119" rx="71.4873" ry="18"/>
<text text-anchor="middle" x="336.1926" y="-115.3" font-family="Times,serif" font-size="14.00" fill="#000000">PhysicalQuantity</text>
</a>
</g>
</g>
<!-- PhysicalQuantity&#45;&gt;Mathematical -->
<g id="edge15" class="edge">
<title>PhysicalQuantity&#45;&gt;Mathematical</title>
<path fill="none" stroke="#000000" d="M375.0022,-134.2693C403.6878,-145.5555 442.8544,-160.9653 473.1281,-172.8763"/>
<polygon fill="none" stroke="#000000" points="472.0331,-176.2065 482.6202,-176.6109 474.596,-169.6926 472.0331,-176.2065"/>
</g>
<!-- Matrix -->
<g id="node8" class="node">
<title>Matrix</title>
<g id="a_node8"><a xlink:href="http://emmo.info/emmo/top/math#EMMO_1cba0b27_15d0_4326_933f_379d0b3565b6" xlink:title="Matrix">
<ellipse fill="#ffffcc" stroke="#000000" cx="240.1926" cy="-32.5" rx="35.194" ry="18"/>
<text text-anchor="middle" x="240.1926" y="-28.8" font-family="Times,serif" font-size="14.00" fill="#000000">Matrix</text>
</a>
</g>
</g>
<!-- Matrix&#45;&gt;Array -->
<g id="edge7" class="edge">
<title>Matrix&#45;&gt;Array</title>
<path fill="none" stroke="#000000" d="M235.0126,-50.4229C231.5935,-62.2529 227.0463,-77.9863 223.1698,-91.3989"/>
<polygon fill="none" stroke="#000000" points="219.7802,-90.5215 220.366,-101.1001 226.505,-92.4651 219.7802,-90.5215"/>
</g>
<!-- Numerical -->
<g id="node9" class="node">
<title>Numerical</title>
<g id="a_node9"><a xlink:href="http://emmo.info/emmo/middle/math#EMMO_4ce76d7f_03f8_45b6_9003_90052a79bfaa" xlink:title="Numerical">
<ellipse fill="#ffffcc" stroke="#000000" cx="573.1926" cy="-119" rx="48.1917" ry="18"/>
<text text-anchor="middle" x="573.1926" y="-115.3" font-family="Times,serif" font-size="14.00" fill="#000000">Numerical</text>
</a>
</g>
</g>
<!-- Numerical&#45;&gt;Mathematical -->
<g id="edge5" class="edge">
<title>Numerical&#45;&gt;Mathematical</title>
<path fill="none" stroke="#000000" d="M560.1207,-136.4292C553.6507,-145.0559 545.7113,-155.6418 538.5526,-165.1866"/>
<polygon fill="none" stroke="#000000" points="535.7193,-163.1311 532.5193,-173.2311 541.3193,-167.3311 535.7193,-163.1311"/>
</g>
<!-- Expression -->
<g id="node11" class="node">
<title>Expression</title>
<g id="a_node11"><a xlink:href="http://emmo.info/emmo/middle/math#EMMO_f9bc8b52_85e9_4b53_b969_dd7724d5b8e4" xlink:title="Expression">
<ellipse fill="#ffffcc" stroke="#000000" stroke-width="2" cx="689.1926" cy="-119" rx="50.0912" ry="18"/>
<text text-anchor="middle" x="689.1926" y="-115.3" font-family="Times,serif" font-size="14.00" fill="#000000">Expression</text>
</a>
</g>
</g>
<!-- Expression&#45;&gt;Mathematical -->
<g id="edge4" class="edge">
<title>Expression&#45;&gt;Mathematical</title>
<path fill="none" stroke="#000000" d="M656.4149,-132.8823C629.9759,-144.08 592.5312,-159.9389 563.4346,-172.2622"/>
<polygon fill="none" stroke="#000000" points="561.7582,-169.1712 553.915,-176.294 564.4882,-175.6169 561.7582,-169.1712"/>
</g>
<!-- Constant -->
<g id="node12" class="node">
<title>Constant</title>
<g id="a_node12"><a xlink:href="http://emmo.info/emmo/middle/math#EMMO_ae15fb4f_8e4d_41de_a0f9_3997f89ba6a2" xlink:title="Constant">
<ellipse fill="#ffffcc" stroke="#000000" cx="360.1926" cy="-32.5" rx="42.4939" ry="18"/>
<text text-anchor="middle" x="360.1926" y="-28.8" font-family="Times,serif" font-size="14.00" fill="#000000">Constant</text>
</a>
</g>
</g>
<!-- Constant&#45;&gt;Variable -->
<g id="edge10" class="edge">
<title>Constant&#45;&gt;Variable</title>
<path fill="none" stroke="#000000" d="M380.1304,-48.77C396.6686,-62.2658 420.3579,-81.5972 438.6974,-96.5629"/>
<polygon fill="none" stroke="#000000" points="436.7418,-99.4845 446.7024,-103.0952 441.1675,-94.0611 436.7418,-99.4845"/>
</g>
<!-- Constant&#45;&gt;Numerical -->
<g id="edge11" class="edge">
<title>Constant&#45;&gt;Numerical</title>
<path fill="none" stroke="#ffa500" stroke-dasharray="5,2" d="M382.3194,-47.9359C391.3189,-53.782 401.988,-60.1821 412.1926,-65 422.8812,-70.0464 483.3608,-89.9619 527.0536,-104.1366"/>
<polygon fill="#ffa500" stroke="#ffa500" points="535.5716,-110.5749 527.1369,-104.1635 537.7289,-103.9156 535.5716,-110.5749"/>
</g>
<!-- Formula -->
<g id="node13" class="node">
<title>Formula</title>
<g id="a_node13"><a xlink:href="http://emmo.info/emmo/middle/math#EMMO_88470739_03d3_4c47_a03e_b30a1288d50c" xlink:title="Formula">
<ellipse fill="#ffffcc" stroke="#000000" stroke-width="2" cx="798.1926" cy="-119" rx="40.8928" ry="18"/>
<text text-anchor="middle" x="798.1926" y="-115.3" font-family="Times,serif" font-size="14.00" fill="#000000">Formula</text>
</a>
</g>
</g>
<!-- Formula&#45;&gt;Mathematical -->
<g id="edge9" class="edge">
<title>Formula&#45;&gt;Mathematical</title>
<path fill="none" stroke="#000000" d="M767.1681,-130.788C760.9275,-132.9836 754.3837,-135.1622 748.1926,-137 691.4638,-153.8401 625.6052,-168.9136 579.1168,-178.8271"/>
<polygon fill="none" stroke="#000000" points="578.2661,-175.4296 569.2077,-180.9247 579.7157,-182.2778 578.2661,-175.4296"/>
</g>
<!-- MathematicalSymbol -->
<g id="node14" class="node">
<title>MathematicalSymbol</title>
<g id="a_node14"><a xlink:href="http://emmo.info/emmo/middle/math#EMMO_5be83f9c_a4ba_4b9a_be1a_5bfc6e891231" xlink:title="MathematicalSymbol">
<ellipse fill="#ffc880" stroke="#000000" stroke-width="2" cx="945.1926" cy="-119" rx="87.9851" ry="18"/>
<text text-anchor="middle" x="945.1926" y="-115.3" font-family="Times,serif" font-size="14.00" fill="#000000">MathematicalSymbol</text>
</a>
</g>
</g>
<!-- MathematicalSymbol&#45;&gt;Mathematical -->
<g id="edge13" class="edge">
<title>MathematicalSymbol&#45;&gt;Mathematical</title>
<path fill="none" stroke="#000000" d="M880.5272,-131.1933C869.7364,-133.1724 858.6532,-135.1712 848.1926,-137 755.9145,-153.1331 648.8204,-170.4498 582.5243,-181.0057"/>
<polygon fill="none" stroke="#000000" points="581.5692,-177.6136 572.243,-182.6406 582.6686,-184.5267 581.5692,-177.6136"/>
</g>
<!-- key1 -->
<g id="node15" class="node">
<title>key1</title>
<text text-anchor="start" x="697.1926" y="-47.3" font-family="Times,serif" font-size="14.00" fill="#000000">isA</text>
<text text-anchor="start" x="651.1926" y="-28.3" font-family="Times,serif" font-size="14.00" fill="#000000">hasVariable</text>
<text text-anchor="start" x="676.1926" y="-9.3" font-family="Times,serif" font-size="14.00" fill="#000000">inverse</text>
</g>
<!-- key2 -->
<g id="node16" class="node">
<title>key2</title>
<text text-anchor="start" x="769.1926" y="-47.3" font-family="Times,serif" font-size="14.00" fill="#000000"> </text>
<text text-anchor="start" x="769.1926" y="-28.3" font-family="Times,serif" font-size="14.00" fill="#000000"> </text>
<text text-anchor="start" x="769.1926" y="-9.3" font-family="Times,serif" font-size="14.00" fill="#000000"> </text>
</g>
<!-- key1&#45;&gt;key2 -->
<g id="edge16" class="edge">
<title>key1:e&#45;&gt;key2:w</title>
<path fill="none" stroke="#000000" d="M718.1926,-13.5C736.0572,-13.5 742.9309,-13.5 756.8456,-13.5"/>
<polygon fill="#000000" stroke="#000000" points="767.1927,-17 757.1926,-13.5001 767.1926,-10 767.1927,-17"/>
</g>
<!-- key1&#45;&gt;key2 -->
<g id="edge17" class="edge">
<title>key1:e&#45;&gt;key2:w</title>
<path fill="none" stroke="#ffa500" stroke-dasharray="5,2" d="M718.1926,-33.5C736.0572,-33.5 742.9309,-33.5 756.8456,-33.5"/>
<polygon fill="#ffa500" stroke="#ffa500" points="757.1927,-37.0001 767.1926,-33.5 757.1926,-30.0001 757.1927,-37.0001"/>
</g>
<!-- key1&#45;&gt;key2 -->
<g id="edge18" class="edge">
<title>key1:e&#45;&gt;key2:w</title>
<path fill="none" stroke="#000000" d="M718.1926,-52.5C736.0572,-52.5 742.9309,-52.5 756.8456,-52.5"/>
<polygon fill="none" stroke="#000000" points="757.1927,-56.0001 767.1926,-52.5 757.1926,-49.0001 757.1927,-56.0001"/>
</g>
</g>
</svg>
