<?xml version="1.0" encoding="UTF-8" standalone="no"?>
<!DOCTYPE svg PUBLIC "-//W3C//DTD SVG 1.1//EN"
 "http://www.w3.org/Graphics/SVG/1.1/DTD/svg11.dtd">
<!-- Generated by graphviz version 2.40.1 (20161225.0304)
 -->
<!-- Title: %3 Pages: 1 -->
<svg width="648pt" height="116pt"
 viewBox="0.00 0.00 648.30 116.00" xmlns="http://www.w3.org/2000/svg" xmlns:xlink="http://www.w3.org/1999/xlink">
<g id="graph0" class="graph" transform="scale(1 1) rotate(0) translate(4 112)">
<title>%3</title>
<polygon fill="#ffffff" stroke="transparent" points="-4,4 -4,-112 644.2964,-112 644.2964,4 -4,4"/>
<!-- Number -->
<g id="node1" class="node">
<title>Number</title>
<g id="a_node1"><a xlink:href="http://emmo.info/emmo/middle/math#EMMO_21f56795_ee72_4858_b571_11cfaa59c1a8" xlink:title="Number">
<ellipse fill="#ffffcc" stroke="#000000" stroke-width="2" cx="40.2964" cy="-18" rx="40.0939" ry="18"/>
<text text-anchor="middle" x="40.2964" y="-14.3" font-family="Times,serif" font-size="14.00" fill="#000000">Number</text>
</a>
</g>
</g>
<!-- MathematicalSymbol -->
<g id="node2" class="node">
<title>MathematicalSymbol</title>
<g id="a_node2"><a xlink:href="http://emmo.info/emmo/middle/math#EMMO_5be83f9c_a4ba_4b9a_be1a_5bfc6e891231" xlink:title="MathematicalSymbol">
<ellipse fill="#ffc880" stroke="#000000" stroke-width="2" cx="260.2964" cy="-90" rx="87.9851" ry="18"/>
<text text-anchor="middle" x="260.2964" y="-86.3" font-family="Times,serif" font-size="14.00" fill="#000000">MathematicalSymbol</text>
</a>
</g>
</g>
<!-- Number&#45;&gt;MathematicalSymbol -->
<g id="edge3" class="edge">
<title>Number&#45;&gt;MathematicalSymbol</title>
<path fill="none" stroke="#000000" d="M71.3252,-29.6435C77.2731,-31.8058 83.4642,-34.0091 89.2964,-36 126.1439,-48.5784 167.7998,-61.7546 200.7723,-71.9425"/>
<polygon fill="none" stroke="#000000" points="200.1241,-75.4051 210.7114,-75.0044 202.185,-68.7153 200.1241,-75.4051"/>
</g>
<!-- MathematicalOperator -->
<g id="node3" class="node">
<title>MathematicalOperator</title>
<g id="a_node3"><a xlink:href="http://emmo.info/emmo/top/math#EMMO_f6d0c26a_98b6_4cf8_8632_aa259131faaa" xlink:title="MathematicalOperator">
<ellipse fill="#ffffcc" stroke="#000000" stroke-width="2" cx="189.2964" cy="-18" rx="90.9839" ry="18"/>
<text text-anchor="middle" x="189.2964" y="-14.3" font-family="Times,serif" font-size="14.00" fill="#000000">MathematicalOperator</text>
</a>
</g>
</g>
<!-- MathematicalOperator&#45;&gt;MathematicalSymbol -->
<g id="edge1" class="edge">
<title>MathematicalOperator&#45;&gt;MathematicalSymbol</title>
<path fill="none" stroke="#000000" d="M206.847,-35.7978C215.4661,-44.5383 226.0009,-55.2214 235.4322,-64.7856"/>
<polygon fill="none" stroke="#000000" points="233.1881,-67.4946 242.7017,-72.1575 238.1723,-62.5796 233.1881,-67.4946"/>
</g>
<!-- Equals -->
<g id="node4" class="node">
<title>Equals</title>
<g id="a_node4"><a xlink:href="http://emmo.info/emmo/top/math#EMMO_535d75a4_1972_40bc_88c6_ca566386934f" xlink:title="Equals">
<ellipse fill="#ffc880" stroke="#000000" cx="332.2964" cy="-18" rx="34.394" ry="18"/>
<text text-anchor="middle" x="332.2964" y="-14.3" font-family="Times,serif" font-size="14.00" fill="#000000">Equals</text>
</a>
</g>
</g>
<!-- Equals&#45;&gt;MathematicalSymbol -->
<g id="edge2" class="edge">
<title>Equals&#45;&gt;MathematicalSymbol</title>
<path fill="none" stroke="#000000" d="M316.3173,-33.9791C307.1828,-43.1136 295.5267,-54.7697 285.2148,-65.0816"/>
<polygon fill="none" stroke="#000000" points="282.5951,-62.7515 277.9989,-72.2975 287.5449,-67.7013 282.5951,-62.7515"/>
</g>
<!-- MetricPrefix -->
<g id="node5" class="node">
<title>MetricPrefix</title>
<g id="a_node5"><a xlink:href="http://emmo.info/emmo/middle/metrology#EMMO_7d2afa66_ae9e_4095_a9bf_421d0be401b6" xlink:title="MetricPrefix">
<ellipse fill="#ffffcc" stroke="#000000" stroke-width="2" cx="440.2964" cy="-18" rx="55.7903" ry="18"/>
<text text-anchor="middle" x="440.2964" y="-14.3" font-family="Times,serif" font-size="14.00" fill="#000000">MetricPrefix</text>
</a>
</g>
</g>
<!-- MetricPrefix&#45;&gt;MathematicalSymbol -->
<g id="edge4" class="edge">
<title>MetricPrefix&#45;&gt;MathematicalSymbol</title>
<path fill="none" stroke="#000000" d="M405.1633,-32.0532C378.0213,-42.9101 340.1135,-58.0732 309.8832,-70.1653"/>
<polygon fill="none" stroke="#000000" points="308.3462,-67.0104 300.3613,-73.9741 310.9459,-73.5098 308.3462,-67.0104"/>
</g>
<!-- key1 -->
<g id="node6" class="node">
<title>key1</title>
<text text-anchor="start" x="532.2964" y="-13.8" font-family="Times,serif" font-size="14.00" fill="#000000">isA</text>
</g>
<!-- key2 -->
<g id="node7" class="node">
<title>key2</title>
<text text-anchor="start" x="611.2964" y="-13.8" font-family="Times,serif" font-size="14.00" fill="#000000"> </text>
</g>
<!-- key1&#45;&gt;key2 -->
<g id="edge5" class="edge">
<title>key1:e&#45;&gt;key2:w</title>
<path fill="none" stroke="#000000" d="M553.2964,-19C574.2964,-19 582.0074,-19 598.8545,-19"/>
<polygon fill="none" stroke="#000000" points="599.2965,-22.5001 609.2964,-19 599.2964,-15.5001 599.2965,-22.5001"/>
</g>
</g>
</svg>
