<?xml version="1.0" encoding="UTF-8" standalone="no"?>
<!DOCTYPE svg PUBLIC "-//W3C//DTD SVG 1.1//EN"
 "http://www.w3.org/Graphics/SVG/1.1/DTD/svg11.dtd">
<!-- Generated by graphviz version 2.40.1 (20161225.0304)
 -->
<!-- Title: %3 Pages: 1 -->
<svg width="846pt" height="218pt"
 viewBox="0.00 0.00 845.64 218.00" xmlns="http://www.w3.org/2000/svg" xmlns:xlink="http://www.w3.org/1999/xlink">
<g id="graph0" class="graph" transform="scale(1 1) rotate(0) translate(4 214)">
<title>%3</title>
<polygon fill="#ffffff" stroke="transparent" points="-4,4 -4,-214 841.6373,-214 841.6373,4 -4,4"/>
<!-- ContinuumModel -->
<g id="node1" class="node">
<title>ContinuumModel</title>
<g id="a_node1"><a xlink:href="http://emmo.info/emmo/middle/models#EMMO_4456a5d2_16a6_4ee1_9a8e_5c75956b28ea" xlink:title="ContinuumModel">
<ellipse fill="#ffffcc" stroke="#000000" cx="74.0934" cy="-18" rx="74.187" ry="18"/>
<text text-anchor="middle" x="74.0934" y="-14.3" font-family="Times,serif" font-size="14.00" fill="#000000">ContinuumModel</text>
</a>
</g>
</g>
<!-- PhysicsBasedModel -->
<g id="node3" class="node">
<title>PhysicsBasedModel</title>
<g id="a_node3"><a xlink:href="http://emmo.info/emmo/middle/models#EMMO_b29fd350_39aa_4af7_9459_3faa0544cba6" xlink:title="PhysicsBasedModel">
<ellipse fill="#ffffcc" stroke="#000000" cx="394.0934" cy="-105" rx="82.5854" ry="18"/>
<text text-anchor="middle" x="394.0934" y="-101.3" font-family="Times,serif" font-size="14.00" fill="#000000">PhysicsBasedModel</text>
</a>
</g>
</g>
<!-- ContinuumModel&#45;&gt;PhysicsBasedModel -->
<g id="edge2" class="edge">
<title>ContinuumModel&#45;&gt;PhysicsBasedModel</title>
<path fill="none" stroke="#000000" d="M123.7423,-31.4983C179.9495,-46.7796 271.581,-71.6919 332.3521,-88.2141"/>
<polygon fill="none" stroke="#000000" points="331.6352,-91.6462 342.2032,-90.8923 333.4717,-84.8913 331.6352,-91.6462"/>
<text text-anchor="middle" x="263.5934" y="-57.8" font-family="Times,serif" font-size="14.00" fill="#000000">isA</text>
</g>
<!-- AtomisticModel -->
<g id="node2" class="node">
<title>AtomisticModel</title>
<g id="a_node2"><a xlink:href="http://emmo.info/emmo/middle/models#EMMO_84cadc45_6758_46f2_ba2a_5ead65c70213" xlink:title="AtomisticModel">
<ellipse fill="#ffffcc" stroke="#000000" cx="236.0934" cy="-18" rx="69.5877" ry="18"/>
<text text-anchor="middle" x="236.0934" y="-14.3" font-family="Times,serif" font-size="14.00" fill="#000000">AtomisticModel</text>
</a>
</g>
</g>
<!-- AtomisticModel&#45;&gt;PhysicsBasedModel -->
<g id="edge8" class="edge">
<title>AtomisticModel&#45;&gt;PhysicsBasedModel</title>
<path fill="none" stroke="#000000" d="M265.812,-34.364C290.8697,-48.1616 326.9411,-68.0237 354.4557,-83.1741"/>
<polygon fill="none" stroke="#000000" points="352.9823,-86.3584 363.4304,-88.1159 356.3588,-80.2265 352.9823,-86.3584"/>
<text text-anchor="middle" x="334.5934" y="-57.8" font-family="Times,serif" font-size="14.00" fill="#000000">isA</text>
</g>
<!-- PhysicsEquation -->
<g id="node6" class="node">
<title>PhysicsEquation</title>
<g id="a_node6"><a xlink:href="http://emmo.info/emmo/middle/models#EMMO_27c5d8c6_8af7_4d63_beb1_ec37cd8b3fa3" xlink:title="PhysicsEquation">
<ellipse fill="#ffffcc" stroke="#000000" cx="768.0934" cy="-105" rx="69.5877" ry="18"/>
<text text-anchor="middle" x="768.0934" y="-101.3" font-family="Times,serif" font-size="14.00" fill="#000000">PhysicsEquation</text>
</a>
</g>
</g>
<!-- PhysicsBasedModel&#45;&gt;PhysicsEquation -->
<g id="edge4" class="edge">
<title>PhysicsBasedModel&#45;&gt;PhysicsEquation</title>
<path fill="none" stroke="#0000ff" stroke-dasharray="5,2" d="M440.4312,-90.0662C475.4766,-79.5875 525.013,-66.5033 569.5934,-61 618.5551,-54.9559 632.5928,-49.6107 680.5934,-61 699.1255,-65.3972 718.1924,-74.3705 733.778,-83.0734"/>
<polygon fill="#0000ff" stroke="#0000ff" points="732.113,-86.1536 742.522,-88.1297 735.6172,-80.0938 732.113,-86.1536"/>
<text text-anchor="middle" x="625.0934" y="-57.8" font-family="Times,serif" font-size="14.00" fill="#000000">hasSpatialPart some</text>
</g>
<!-- MathematicalModel -->
<g id="node8" class="node">
<title>MathematicalModel</title>
<g id="a_node8"><a xlink:href="http://emmo.info/emmo/middle/models#EMMO_f7ed665b_c2e1_42bc_889b_6b42ed3a36f0" xlink:title="MathematicalModel">
<ellipse fill="#ffc880" stroke="#000000" stroke-width="2" cx="581.0934" cy="-192" rx="83.3857" ry="18"/>
<text text-anchor="middle" x="581.0934" y="-188.3" font-family="Times,serif" font-size="14.00" fill="#000000">MathematicalModel</text>
</a>
</g>
</g>
<!-- PhysicsBasedModel&#45;&gt;MathematicalModel -->
<g id="edge3" class="edge">
<title>PhysicsBasedModel&#45;&gt;MathematicalModel</title>
<path fill="none" stroke="#000000" d="M429.2667,-121.364C459.5993,-135.476 503.5678,-155.9319 536.3902,-171.2022"/>
<polygon fill="none" stroke="#000000" points="535.2173,-174.5168 545.7605,-175.5617 538.1701,-168.17 535.2173,-174.5168"/>
<text text-anchor="middle" x="507.5934" y="-144.8" font-family="Times,serif" font-size="14.00" fill="#000000">isA</text>
</g>
<!-- ElectronicModel -->
<g id="node4" class="node">
<title>ElectronicModel</title>
<g id="a_node4"><a xlink:href="http://emmo.info/emmo/middle/models#EMMO_6eca09be_17e9_445e_abc9_000aa61b7a11" xlink:title="ElectronicModel">
<ellipse fill="#ffffcc" stroke="#000000" cx="394.0934" cy="-18" rx="70.3881" ry="18"/>
<text text-anchor="middle" x="394.0934" y="-14.3" font-family="Times,serif" font-size="14.00" fill="#000000">ElectronicModel</text>
</a>
</g>
</g>
<!-- ElectronicModel&#45;&gt;PhysicsBasedModel -->
<g id="edge6" class="edge">
<title>ElectronicModel&#45;&gt;PhysicsBasedModel</title>
<path fill="none" stroke="#000000" d="M394.0934,-36.0265C394.0934,-47.8082 394.0934,-63.4393 394.0934,-76.8419"/>
<polygon fill="none" stroke="#000000" points="390.5935,-76.9966 394.0934,-86.9966 397.5935,-76.9967 390.5935,-76.9966"/>
<text text-anchor="middle" x="403.5934" y="-57.8" font-family="Times,serif" font-size="14.00" fill="#000000">isA</text>
</g>
<!-- DataBasedModel -->
<g id="node5" class="node">
<title>DataBasedModel</title>
<g id="a_node5"><a xlink:href="http://emmo.info/emmo/middle/models#EMMO_a4b14b83_9392_4a5f_a2e8_b2b58793f59b" xlink:title="DataBasedModel">
<ellipse fill="#ffffcc" stroke="#000000" cx="581.0934" cy="-105" rx="72.2875" ry="18"/>
<text text-anchor="middle" x="581.0934" y="-101.3" font-family="Times,serif" font-size="14.00" fill="#000000">DataBasedModel</text>
</a>
</g>
</g>
<!-- DataBasedModel&#45;&gt;MathematicalModel -->
<g id="edge5" class="edge">
<title>DataBasedModel&#45;&gt;MathematicalModel</title>
<path fill="none" stroke="#000000" d="M581.0934,-123.0265C581.0934,-134.8082 581.0934,-150.4393 581.0934,-163.8419"/>
<polygon fill="none" stroke="#000000" points="577.5935,-163.9966 581.0934,-173.9966 584.5935,-163.9967 577.5935,-163.9966"/>
<text text-anchor="middle" x="590.5934" y="-144.8" font-family="Times,serif" font-size="14.00" fill="#000000">isA</text>
</g>
<!-- PhysicsEquation&#45;&gt;MathematicalModel -->
<g id="edge1" class="edge">
<title>PhysicsEquation&#45;&gt;MathematicalModel</title>
<path fill="none" stroke="#000000" d="M734.2291,-120.755C703.732,-134.9436 658.7072,-155.8909 625.3657,-171.4027"/>
<polygon fill="none" stroke="#000000" points="623.8837,-168.2319 616.2933,-175.6236 626.8365,-174.5787 623.8837,-168.2319"/>
<text text-anchor="middle" x="694.5934" y="-144.8" font-family="Times,serif" font-size="14.00" fill="#000000">isA</text>
</g>
<!-- MesoscopicModel -->
<g id="node7" class="node">
<title>MesoscopicModel</title>
<g id="a_node7"><a xlink:href="http://emmo.info/emmo/middle/models#EMMO_53935db0_af45_4426_b9e9_244a0d77db00" xlink:title="MesoscopicModel">
<ellipse fill="#ffffcc" stroke="#000000" cx="559.0934" cy="-18" rx="76.8869" ry="18"/>
<text text-anchor="middle" x="559.0934" y="-14.3" font-family="Times,serif" font-size="14.00" fill="#000000">MesoscopicModel</text>
</a>
</g>
</g>
<!-- MesoscopicModel&#45;&gt;PhysicsBasedModel -->
<g id="edge7" class="edge">
<title>MesoscopicModel&#45;&gt;PhysicsBasedModel</title>
<path fill="none" stroke="#000000" d="M527.6698,-34.5688C501.2616,-48.4932 463.342,-68.4871 434.6468,-83.6173"/>
<polygon fill="none" stroke="#000000" points="432.8939,-80.5848 425.6806,-88.3449 436.1588,-86.7768 432.8939,-80.5848"/>
<text text-anchor="middle" x="495.5934" y="-57.8" font-family="Times,serif" font-size="14.00" fill="#000000">isA</text>
</g>
</g>
</svg>
