<?xml version="1.0" encoding="UTF-8" standalone="no"?>
<!DOCTYPE svg PUBLIC "-//W3C//DTD SVG 1.1//EN"
 "http://www.w3.org/Graphics/SVG/1.1/DTD/svg11.dtd">
<!-- Generated by graphviz version 2.40.1 (20161225.0304)
 -->
<!-- Title: %3 Pages: 1 -->
<svg width="1276pt" height="217pt"
 viewBox="0.00 0.00 1276.49 217.00" xmlns="http://www.w3.org/2000/svg" xmlns:xlink="http://www.w3.org/1999/xlink">
<g id="graph0" class="graph" transform="scale(1 1) rotate(0) translate(4 213)">
<title>%3</title>
<polygon fill="#ffffff" stroke="transparent" points="-4,4 -4,-213 1272.4937,-213 1272.4937,4 -4,4"/>
<!-- PhysicalQuantity -->
<g id="node1" class="node">
<title>PhysicalQuantity</title>
<g id="a_node1"><a xlink:href="http://emmo.info/emmo/middle/metrology#EMMO_02c0621e_a527_4790_8a0f_2bb51973c819" xlink:title="PhysicalQuantity">
<ellipse fill="#ffffcc" stroke="#000000" stroke-width="2" cx="71.4937" cy="-119" rx="71.4873" ry="18"/>
<text text-anchor="middle" x="71.4937" y="-115.3" font-family="Times,serif" font-size="14.00" fill="#000000">PhysicalQuantity</text>
</a>
</g>
</g>
<!-- Mathematical -->
<g id="node2" class="node">
<title>Mathematical</title>
<g id="a_node2"><a xlink:href="http://emmo.info/emmo/middle/math#EMMO_54ee6b5e_5261_44a8_86eb_5717e7fdb9d0" xlink:title="Mathematical">
<ellipse fill="#ffffcc" stroke="#000000" stroke-width="2" cx="544.4937" cy="-191" rx="59.5901" ry="18"/>
<text text-anchor="middle" x="544.4937" y="-187.3" font-family="Times,serif" font-size="14.00" fill="#000000">Mathematical</text>
</a>
</g>
</g>
<!-- PhysicalQuantity&#45;&gt;Mathematical -->
<g id="edge14" class="edge">
<title>PhysicalQuantity&#45;&gt;Mathematical</title>
<path fill="none" stroke="#000000" d="M124.0892,-131.3427C133.5197,-133.3686 143.2776,-135.3441 152.4937,-137 266.2217,-157.4344 399.7245,-174.3278 477.9228,-183.5121"/>
<polygon fill="none" stroke="#000000" points="477.7759,-187.0186 488.1144,-184.7022 478.5879,-180.0659 477.7759,-187.0186"/>
</g>
<!-- Constant -->
<g id="node3" class="node">
<title>Constant</title>
<g id="a_node3"><a xlink:href="http://emmo.info/emmo/middle/math#EMMO_ae15fb4f_8e4d_41de_a0f9_3997f89ba6a2" xlink:title="Constant">
<ellipse fill="#ffffcc" stroke="#000000" cx="622.4937" cy="-32.5" rx="42.4939" ry="18"/>
<text text-anchor="middle" x="622.4937" y="-28.8" font-family="Times,serif" font-size="14.00" fill="#000000">Constant</text>
</a>
</g>
</g>
<!-- Numerical -->
<g id="node7" class="node">
<title>Numerical</title>
<g id="a_node7"><a xlink:href="http://emmo.info/emmo/middle/math#EMMO_4ce76d7f_03f8_45b6_9003_90052a79bfaa" xlink:title="Numerical">
<ellipse fill="#ffffcc" stroke="#000000" cx="621.4937" cy="-119" rx="48.1917" ry="18"/>
<text text-anchor="middle" x="621.4937" y="-115.3" font-family="Times,serif" font-size="14.00" fill="#000000">Numerical</text>
</a>
</g>
</g>
<!-- Constant&#45;&gt;Numerical -->
<g id="edge10" class="edge">
<title>Constant&#45;&gt;Numerical</title>
<path fill="none" stroke="#ffa500" stroke-dasharray="5,2" d="M622.2816,-50.8444C622.1481,-62.3901 621.9731,-77.528 621.8219,-90.6039"/>
<polygon fill="#ffa500" stroke="#ffa500" points="618.2022,-100.9381 621.8177,-90.9793 625.2018,-101.0191 618.2022,-100.9381"/>
</g>
<!-- Variable -->
<g id="node11" class="node">
<title>Variable</title>
<g id="a_node11"><a xlink:href="http://emmo.info/emmo/middle/math#EMMO_1eed0732_e3f1_4b2c_a9c4_b4e75eeb5895" xlink:title="Variable">
<ellipse fill="#ffffcc" stroke="#000000" cx="728.4937" cy="-119" rx="40.8928" ry="18"/>
<text text-anchor="middle" x="728.4937" y="-115.3" font-family="Times,serif" font-size="14.00" fill="#000000">Variable</text>
</a>
</g>
</g>
<!-- Constant&#45;&gt;Variable -->
<g id="edge9" class="edge">
<title>Constant&#45;&gt;Variable</title>
<path fill="none" stroke="#000000" d="M642.4314,-48.77C658.9696,-62.2658 682.659,-81.5972 700.9985,-96.5629"/>
<polygon fill="none" stroke="#000000" points="699.0428,-99.4845 709.0034,-103.0952 703.4685,-94.0611 699.0428,-99.4845"/>
</g>
<!-- Expression -->
<g id="node4" class="node">
<title>Expression</title>
<g id="a_node4"><a xlink:href="http://emmo.info/emmo/middle/math#EMMO_f9bc8b52_85e9_4b53_b969_dd7724d5b8e4" xlink:title="Expression">
<ellipse fill="#ffffcc" stroke="#000000" stroke-width="2" cx="211.4937" cy="-119" rx="50.0912" ry="18"/>
<text text-anchor="middle" x="211.4937" y="-115.3" font-family="Times,serif" font-size="14.00" fill="#000000">Expression</text>
</a>
</g>
</g>
<!-- Expression&#45;&gt;Mathematical -->
<g id="edge12" class="edge">
<title>Expression&#45;&gt;Mathematical</title>
<path fill="none" stroke="#000000" d="M249.1039,-131.0967C256.1751,-133.1937 263.5334,-135.2572 270.4937,-137 342.4432,-155.0158 426.246,-170.7832 482.0431,-180.5559"/>
<polygon fill="none" stroke="#000000" points="481.6746,-184.0443 492.1265,-182.3101 482.8744,-177.1479 481.6746,-184.0443"/>
</g>
<!-- Formula -->
<g id="node5" class="node">
<title>Formula</title>
<g id="a_node5"><a xlink:href="http://emmo.info/emmo/middle/math#EMMO_88470739_03d3_4c47_a03e_b30a1288d50c" xlink:title="Formula">
<ellipse fill="#ffffcc" stroke="#000000" stroke-width="2" cx="320.4937" cy="-119" rx="40.8928" ry="18"/>
<text text-anchor="middle" x="320.4937" y="-115.3" font-family="Times,serif" font-size="14.00" fill="#000000">Formula</text>
</a>
</g>
</g>
<!-- Formula&#45;&gt;Mathematical -->
<g id="edge1" class="edge">
<title>Formula&#45;&gt;Mathematical</title>
<path fill="none" stroke="#000000" d="M352.1598,-130.6405C358.2286,-132.8031 364.5449,-135.0073 370.4937,-137 411.0298,-150.5791 457.2642,-164.8718 491.8808,-175.3396"/>
<polygon fill="none" stroke="#000000" points="491.1912,-178.7872 501.7758,-178.3233 493.2121,-172.0853 491.1912,-178.7872"/>
</g>
<!-- MathematicalSymbol -->
<g id="node6" class="node">
<title>MathematicalSymbol</title>
<g id="a_node6"><a xlink:href="http://emmo.info/emmo/middle/math#EMMO_5be83f9c_a4ba_4b9a_be1a_5bfc6e891231" xlink:title="MathematicalSymbol">
<ellipse fill="#ffc880" stroke="#000000" stroke-width="2" cx="467.4937" cy="-119" rx="87.9851" ry="18"/>
<text text-anchor="middle" x="467.4937" y="-115.3" font-family="Times,serif" font-size="14.00" fill="#000000">MathematicalSymbol</text>
</a>
</g>
</g>
<!-- MathematicalSymbol&#45;&gt;Mathematical -->
<g id="edge5" class="edge">
<title>MathematicalSymbol&#45;&gt;Mathematical</title>
<path fill="none" stroke="#000000" d="M486.5274,-136.7978C496.2033,-145.8454 508.1053,-156.9745 518.6018,-166.7895"/>
<polygon fill="none" stroke="#000000" points="516.2498,-169.3819 525.9446,-173.6554 521.0308,-164.269 516.2498,-169.3819"/>
</g>
<!-- Numerical&#45;&gt;Mathematical -->
<g id="edge2" class="edge">
<title>Numerical&#45;&gt;Mathematical</title>
<path fill="none" stroke="#000000" d="M603.2457,-136.063C593.4402,-145.2318 581.1846,-156.6916 570.4074,-166.7689"/>
<polygon fill="none" stroke="#000000" points="567.7912,-164.4235 562.8774,-173.81 572.5722,-169.5365 567.7912,-164.4235"/>
</g>
<!-- Vector -->
<g id="node8" class="node">
<title>Vector</title>
<g id="a_node8"><a xlink:href="http://emmo.info/emmo/middle/math#EMMO_06658d8d_dcde_4fc9_aae1_17f71c0bcdec" xlink:title="Vector">
<ellipse fill="#ffffcc" stroke="#000000" cx="969.4937" cy="-32.5" rx="34.394" ry="18"/>
<text text-anchor="middle" x="969.4937" y="-28.8" font-family="Times,serif" font-size="14.00" fill="#000000">Vector</text>
</a>
</g>
</g>
<!-- Array -->
<g id="node12" class="node">
<title>Array</title>
<g id="a_node12"><a xlink:href="http://emmo.info/emmo/top/math#EMMO_28fbea28_2204_4613_87ff_6d877b855fcd" xlink:title="Array">
<ellipse fill="#ffffcc" stroke="#000000" cx="1002.4937" cy="-119" rx="31.3957" ry="18"/>
<text text-anchor="middle" x="1002.4937" y="-115.3" font-family="Times,serif" font-size="14.00" fill="#000000">Array</text>
</a>
</g>
</g>
<!-- Vector&#45;&gt;Array -->
<g id="edge13" class="edge">
<title>Vector&#45;&gt;Array</title>
<path fill="none" stroke="#000000" d="M976.3313,-50.4229C980.8746,-62.3318 986.9269,-78.1963 992.066,-91.6668"/>
<polygon fill="none" stroke="#000000" points="988.9431,-93.3005 995.7777,-101.3961 995.4833,-90.8053 988.9431,-93.3005"/>
</g>
<!-- MathematicalModel -->
<g id="node9" class="node">
<title>MathematicalModel</title>
<g id="a_node9"><a xlink:href="http://emmo.info/emmo/middle/models#EMMO_f7ed665b_c2e1_42bc_889b_6b42ed3a36f0" xlink:title="MathematicalModel">
<ellipse fill="#ffc880" stroke="#000000" stroke-width="2" cx="870.4937" cy="-119" rx="83.3857" ry="18"/>
<text text-anchor="middle" x="870.4937" y="-115.3" font-family="Times,serif" font-size="14.00" fill="#000000">MathematicalModel</text>
</a>
</g>
</g>
<!-- MathematicalModel&#45;&gt;Mathematical -->
<g id="edge8" class="edge">
<title>MathematicalModel&#45;&gt;Mathematical</title>
<path fill="none" stroke="#000000" d="M812.2114,-131.8722C753.0019,-144.9491 661.8236,-165.0866 602.6569,-178.1541"/>
<polygon fill="none" stroke="#000000" points="601.732,-174.774 592.7221,-180.3483 603.2417,-181.6093 601.732,-174.774"/>
</g>
<!-- Unknown -->
<g id="node10" class="node">
<title>Unknown</title>
<g id="a_node10"><a xlink:href="http://emmo.info/emmo/middle/math#EMMO_fe7e56ce_118b_4243_9aad_20eb9f4f31f6" xlink:title="Unknown">
<ellipse fill="#ffffcc" stroke="#000000" cx="728.4937" cy="-32.5" rx="45.4919" ry="18"/>
<text text-anchor="middle" x="728.4937" y="-28.8" font-family="Times,serif" font-size="14.00" fill="#000000">Unknown</text>
</a>
</g>
</g>
<!-- Unknown&#45;&gt;Variable -->
<g id="edge15" class="edge">
<title>Unknown&#45;&gt;Variable</title>
<path fill="none" stroke="#000000" d="M728.4937,-50.8444C728.4937,-62.3901 728.4937,-77.528 728.4937,-90.6039"/>
<polygon fill="none" stroke="#000000" points="724.9938,-90.9786 728.4937,-100.9786 731.9938,-90.9787 724.9938,-90.9786"/>
</g>
<!-- Variable&#45;&gt;Mathematical -->
<g id="edge3" class="edge">
<title>Variable&#45;&gt;Mathematical</title>
<path fill="none" stroke="#000000" d="M695.5387,-129.9353C665.0791,-141.1064 619.8567,-158.6701 586.7744,-172.099"/>
<polygon fill="none" stroke="#000000" points="585.2926,-168.9235 577.3583,-175.9448 587.9393,-175.4038 585.2926,-168.9235"/>
</g>
<!-- Variable&#45;&gt;Mathematical -->
<g id="edge4" class="edge">
<title>Variable&#45;&gt;Mathematical</title>
<path fill="none" stroke="#ffa500" stroke-dasharray="5,2" d="M700.1093,-132.2059C671.8455,-143.919 628.0968,-161.1011 594.1201,-173.869"/>
<polygon fill="#ffa500" stroke="#ffa500" points="583.1435,-174.2327 593.7361,-174.0123 585.5929,-180.7902 583.1435,-174.2327"/>
</g>
<!-- Array&#45;&gt;Mathematical -->
<g id="edge6" class="edge">
<title>Array&#45;&gt;Mathematical</title>
<path fill="none" stroke="#000000" d="M978.8103,-131.0317C973.546,-133.3151 967.9161,-135.4662 962.4937,-137 843.0271,-170.793 698.301,-183.5124 614.2784,-188.2479"/>
<polygon fill="none" stroke="#000000" points="613.8841,-184.7641 604.088,-188.7998 614.2626,-191.7538 613.8841,-184.7641"/>
</g>
<!-- Parameter -->
<g id="node13" class="node">
<title>Parameter</title>
<g id="a_node13"><a xlink:href="http://emmo.info/emmo/middle/math#EMMO_d1d436e7_72fc_49cd_863b_7bfb4ba5276a" xlink:title="Parameter">
<ellipse fill="#ffffcc" stroke="#000000" cx="838.4937" cy="-32.5" rx="46.5926" ry="18"/>
<text text-anchor="middle" x="838.4937" y="-28.8" font-family="Times,serif" font-size="14.00" fill="#000000">Parameter</text>
</a>
</g>
</g>
<!-- Parameter&#45;&gt;Variable -->
<g id="edge7" class="edge">
<title>Parameter&#45;&gt;Variable</title>
<path fill="none" stroke="#000000" d="M817.8035,-48.77C800.5639,-62.3266 775.8364,-81.7714 756.7695,-96.7649"/>
<polygon fill="none" stroke="#000000" points="754.4166,-94.1626 748.7194,-103.0952 758.7436,-99.6651 754.4166,-94.1626"/>
</g>
<!-- Matrix -->
<g id="node14" class="node">
<title>Matrix</title>
<g id="a_node14"><a xlink:href="http://emmo.info/emmo/top/math#EMMO_1cba0b27_15d0_4326_933f_379d0b3565b6" xlink:title="Matrix">
<ellipse fill="#ffffcc" stroke="#000000" cx="1057.4937" cy="-32.5" rx="35.194" ry="18"/>
<text text-anchor="middle" x="1057.4937" y="-28.8" font-family="Times,serif" font-size="14.00" fill="#000000">Matrix</text>
</a>
</g>
</g>
<!-- Matrix&#45;&gt;Array -->
<g id="edge11" class="edge">
<title>Matrix&#45;&gt;Array</title>
<path fill="none" stroke="#000000" d="M1046.3636,-50.0046C1038.4845,-62.3963 1027.7865,-79.2213 1018.9275,-93.1541"/>
<polygon fill="none" stroke="#000000" points="1015.8316,-91.5001 1013.4195,-101.8167 1021.7386,-95.256 1015.8316,-91.5001"/>
</g>
<!-- key1 -->
<g id="node15" class="node">
<title>key1</title>
<text text-anchor="start" x="1167.4937" y="-47.3" font-family="Times,serif" font-size="14.00" fill="#000000">isA</text>
<text text-anchor="start" x="1121.4937" y="-28.3" font-family="Times,serif" font-size="14.00" fill="#000000">hasVariable</text>
<text text-anchor="start" x="1146.4937" y="-9.3" font-family="Times,serif" font-size="14.00" fill="#000000">inverse</text>
</g>
<!-- key2 -->
<g id="node16" class="node">
<title>key2</title>
<text text-anchor="start" x="1239.4937" y="-47.3" font-family="Times,serif" font-size="14.00" fill="#000000"> </text>
<text text-anchor="start" x="1239.4937" y="-28.3" font-family="Times,serif" font-size="14.00" fill="#000000"> </text>
<text text-anchor="start" x="1239.4937" y="-9.3" font-family="Times,serif" font-size="14.00" fill="#000000"> </text>
</g>
<!-- key1&#45;&gt;key2 -->
<g id="edge16" class="edge">
<title>key1:e&#45;&gt;key2:w</title>
<path fill="none" stroke="#000000" d="M1188.4937,-13.5C1206.3582,-13.5 1213.2319,-13.5 1227.1466,-13.5"/>
<polygon fill="#000000" stroke="#000000" points="1237.4937,-17 1227.4937,-13.5001 1237.4936,-10 1237.4937,-17"/>
</g>
<!-- key1&#45;&gt;key2 -->
<g id="edge17" class="edge">
<title>key1:e&#45;&gt;key2:w</title>
<path fill="none" stroke="#ffa500" stroke-dasharray="5,2" d="M1188.4937,-33.5C1206.3582,-33.5 1213.2319,-33.5 1227.1466,-33.5"/>
<polygon fill="#ffa500" stroke="#ffa500" points="1227.4937,-37.0001 1237.4937,-33.5 1227.4936,-30.0001 1227.4937,-37.0001"/>
</g>
<!-- key1&#45;&gt;key2 -->
<g id="edge18" class="edge">
<title>key1:e&#45;&gt;key2:w</title>
<path fill="none" stroke="#000000" d="M1188.4937,-52.5C1206.3582,-52.5 1213.2319,-52.5 1227.1466,-52.5"/>
<polygon fill="none" stroke="#000000" points="1227.4937,-56.0001 1237.4937,-52.5 1227.4936,-49.0001 1227.4937,-56.0001"/>
</g>
</g>
</svg>
