<?xml version="1.0" encoding="UTF-8" standalone="no"?>
<!DOCTYPE svg PUBLIC "-//W3C//DTD SVG 1.1//EN"
 "http://www.w3.org/Graphics/SVG/1.1/DTD/svg11.dtd">
<!-- Generated by graphviz version 2.40.1 (20161225.0304)
 -->
<!-- Title: %3 Pages: 1 -->
<svg width="1041pt" height="217pt"
 viewBox="0.00 0.00 1040.69 217.00" xmlns="http://www.w3.org/2000/svg" xmlns:xlink="http://www.w3.org/1999/xlink">
<g id="graph0" class="graph" transform="scale(1 1) rotate(0) translate(4 213)">
<title>%3</title>
<polygon fill="#ffffff" stroke="transparent" points="-4,4 -4,-213 1036.6886,-213 1036.6886,4 -4,4"/>
<!-- MathematicalSymbol -->
<g id="node1" class="node">
<title>MathematicalSymbol</title>
<g id="a_node1"><a xlink:href="http://emmo.info/emmo/middle/math#EMMO_5be83f9c_a4ba_4b9a_be1a_5bfc6e891231" xlink:title="MathematicalSymbol">
<ellipse fill="#ffc880" stroke="#000000" stroke-width="2" cx="87.7422" cy="-119" rx="87.9851" ry="18"/>
<text text-anchor="middle" x="87.7422" y="-115.3" font-family="Times,serif" font-size="14.00" fill="#000000">MathematicalSymbol</text>
</a>
</g>
</g>
<!-- Mathematical -->
<g id="node11" class="node">
<title>Mathematical</title>
<g id="a_node11"><a xlink:href="http://emmo.info/emmo/middle/math#EMMO_54ee6b5e_5261_44a8_86eb_5717e7fdb9d0" xlink:title="Mathematical">
<ellipse fill="#ffffcc" stroke="#000000" stroke-width="2" cx="558.7422" cy="-191" rx="59.5901" ry="18"/>
<text text-anchor="middle" x="558.7422" y="-187.3" font-family="Times,serif" font-size="14.00" fill="#000000">Mathematical</text>
</a>
</g>
</g>
<!-- MathematicalSymbol&#45;&gt;Mathematical -->
<g id="edge10" class="edge">
<title>MathematicalSymbol&#45;&gt;Mathematical</title>
<path fill="none" stroke="#000000" d="M152.117,-131.3198C162.9935,-133.294 174.18,-135.2582 184.7422,-137 292.7759,-154.8156 418.9097,-172.3536 493.6239,-182.4036"/>
<polygon fill="none" stroke="#000000" points="493.4413,-185.9104 503.8179,-183.7713 494.3721,-178.9726 493.4413,-185.9104"/>
</g>
<!-- Vector -->
<g id="node2" class="node">
<title>Vector</title>
<g id="a_node2"><a xlink:href="http://emmo.info/emmo/middle/math#EMMO_06658d8d_dcde_4fc9_aae1_17f71c0bcdec" xlink:title="Vector">
<ellipse fill="#ffffcc" stroke="#000000" cx="322.7422" cy="-32.5" rx="34.394" ry="18"/>
<text text-anchor="middle" x="322.7422" y="-28.8" font-family="Times,serif" font-size="14.00" fill="#000000">Vector</text>
</a>
</g>
</g>
<!-- Array -->
<g id="node5" class="node">
<title>Array</title>
<g id="a_node5"><a xlink:href="http://emmo.info/emmo/top/math#EMMO_28fbea28_2204_4613_87ff_6d877b855fcd" xlink:title="Array">
<ellipse fill="#ffffcc" stroke="#000000" cx="408.7422" cy="-119" rx="31.3957" ry="18"/>
<text text-anchor="middle" x="408.7422" y="-115.3" font-family="Times,serif" font-size="14.00" fill="#000000">Array</text>
</a>
</g>
</g>
<!-- Vector&#45;&gt;Array -->
<g id="edge1" class="edge">
<title>Vector&#45;&gt;Array</title>
<path fill="none" stroke="#000000" d="M338.9182,-48.77C352.177,-62.106 371.1012,-81.1401 385.9044,-96.0294"/>
<polygon fill="none" stroke="#000000" points="383.6854,-98.7617 393.2181,-103.3856 388.6495,-93.8263 383.6854,-98.7617"/>
</g>
<!-- MathematicalModel -->
<g id="node3" class="node">
<title>MathematicalModel</title>
<g id="a_node3"><a xlink:href="http://emmo.info/emmo/middle/models#EMMO_f7ed665b_c2e1_42bc_889b_6b42ed3a36f0" xlink:title="MathematicalModel">
<ellipse fill="#ffc880" stroke="#000000" stroke-width="2" cx="276.7422" cy="-119" rx="83.3857" ry="18"/>
<text text-anchor="middle" x="276.7422" y="-115.3" font-family="Times,serif" font-size="14.00" fill="#000000">MathematicalModel</text>
</a>
</g>
</g>
<!-- MathematicalModel&#45;&gt;Mathematical -->
<g id="edge8" class="edge">
<title>MathematicalModel&#45;&gt;Mathematical</title>
<path fill="none" stroke="#000000" d="M330.781,-132.7971C380.1558,-145.4035 452.8715,-163.9692 502.8269,-176.7237"/>
<polygon fill="none" stroke="#000000" points="502.2575,-180.1906 512.8126,-179.2733 503.9892,-173.4082 502.2575,-180.1906"/>
</g>
<!-- Unknown -->
<g id="node4" class="node">
<title>Unknown</title>
<g id="a_node4"><a xlink:href="http://emmo.info/emmo/middle/math#EMMO_fe7e56ce_118b_4243_9aad_20eb9f4f31f6" xlink:title="Unknown">
<ellipse fill="#ffffcc" stroke="#000000" cx="612.7422" cy="-32.5" rx="45.4919" ry="18"/>
<text text-anchor="middle" x="612.7422" y="-28.8" font-family="Times,serif" font-size="14.00" fill="#000000">Unknown</text>
</a>
</g>
</g>
<!-- Variable -->
<g id="node14" class="node">
<title>Variable</title>
<g id="a_node14"><a xlink:href="http://emmo.info/emmo/middle/math#EMMO_1eed0732_e3f1_4b2c_a9c4_b4e75eeb5895" xlink:title="Variable">
<ellipse fill="#ffffcc" stroke="#000000" cx="612.7422" cy="-119" rx="40.8928" ry="18"/>
<text text-anchor="middle" x="612.7422" y="-115.3" font-family="Times,serif" font-size="14.00" fill="#000000">Variable</text>
</a>
</g>
</g>
<!-- Unknown&#45;&gt;Variable -->
<g id="edge7" class="edge">
<title>Unknown&#45;&gt;Variable</title>
<path fill="none" stroke="#000000" d="M612.7422,-50.8444C612.7422,-62.3901 612.7422,-77.528 612.7422,-90.6039"/>
<polygon fill="none" stroke="#000000" points="609.2423,-90.9786 612.7422,-100.9786 616.2423,-90.9787 609.2423,-90.9786"/>
</g>
<!-- Array&#45;&gt;Mathematical -->
<g id="edge15" class="edge">
<title>Array&#45;&gt;Mathematical</title>
<path fill="none" stroke="#000000" d="M432.8423,-130.568C455.6593,-141.5202 490.3766,-158.1845 517.5797,-171.242"/>
<polygon fill="none" stroke="#000000" points="516.3267,-174.5228 526.8565,-175.6949 519.3558,-168.2122 516.3267,-174.5228"/>
</g>
<!-- Parameter -->
<g id="node6" class="node">
<title>Parameter</title>
<g id="a_node6"><a xlink:href="http://emmo.info/emmo/middle/math#EMMO_d1d436e7_72fc_49cd_863b_7bfb4ba5276a" xlink:title="Parameter">
<ellipse fill="#ffffcc" stroke="#000000" cx="722.7422" cy="-32.5" rx="46.5926" ry="18"/>
<text text-anchor="middle" x="722.7422" y="-28.8" font-family="Times,serif" font-size="14.00" fill="#000000">Parameter</text>
</a>
</g>
</g>
<!-- Parameter&#45;&gt;Variable -->
<g id="edge9" class="edge">
<title>Parameter&#45;&gt;Variable</title>
<path fill="none" stroke="#000000" d="M702.0521,-48.77C684.8125,-62.3266 660.0849,-81.7714 641.0181,-96.7649"/>
<polygon fill="none" stroke="#000000" points="638.6652,-94.1626 632.968,-103.0952 642.9922,-99.6651 638.6652,-94.1626"/>
</g>
<!-- Numerical -->
<g id="node7" class="node">
<title>Numerical</title>
<g id="a_node7"><a xlink:href="http://emmo.info/emmo/middle/math#EMMO_4ce76d7f_03f8_45b6_9003_90052a79bfaa" xlink:title="Numerical">
<ellipse fill="#ffffcc" stroke="#000000" cx="505.7422" cy="-119" rx="48.1917" ry="18"/>
<text text-anchor="middle" x="505.7422" y="-115.3" font-family="Times,serif" font-size="14.00" fill="#000000">Numerical</text>
</a>
</g>
</g>
<!-- Numerical&#45;&gt;Mathematical -->
<g id="edge5" class="edge">
<title>Numerical&#45;&gt;Mathematical</title>
<path fill="none" stroke="#000000" d="M518.572,-136.4292C524.8581,-144.9688 532.5574,-155.4281 539.5276,-164.8971"/>
<polygon fill="none" stroke="#000000" points="536.9154,-167.2526 545.6623,-173.2311 542.5528,-163.1029 536.9154,-167.2526"/>
</g>
<!-- PhysicalQuantity -->
<g id="node8" class="node">
<title>PhysicalQuantity</title>
<g id="a_node8"><a xlink:href="http://emmo.info/emmo/middle/metrology#EMMO_02c0621e_a527_4790_8a0f_2bb51973c819" xlink:title="PhysicalQuantity">
<ellipse fill="#ffffcc" stroke="#000000" stroke-width="2" cx="742.7422" cy="-119" rx="71.4873" ry="18"/>
<text text-anchor="middle" x="742.7422" y="-115.3" font-family="Times,serif" font-size="14.00" fill="#000000">PhysicalQuantity</text>
</a>
</g>
</g>
<!-- PhysicalQuantity&#45;&gt;Mathematical -->
<g id="edge11" class="edge">
<title>PhysicalQuantity&#45;&gt;Mathematical</title>
<path fill="none" stroke="#000000" d="M703.7205,-134.2693C674.783,-145.5927 635.2375,-161.067 604.7573,-172.9941"/>
<polygon fill="none" stroke="#000000" points="603.2416,-169.8287 595.2046,-176.7321 605.7925,-176.3474 603.2416,-169.8287"/>
</g>
<!-- Matrix -->
<g id="node9" class="node">
<title>Matrix</title>
<g id="a_node9"><a xlink:href="http://emmo.info/emmo/top/math#EMMO_1cba0b27_15d0_4326_933f_379d0b3565b6" xlink:title="Matrix">
<ellipse fill="#ffffcc" stroke="#000000" cx="410.7422" cy="-32.5" rx="35.194" ry="18"/>
<text text-anchor="middle" x="410.7422" y="-28.8" font-family="Times,serif" font-size="14.00" fill="#000000">Matrix</text>
</a>
</g>
</g>
<!-- Matrix&#45;&gt;Array -->
<g id="edge12" class="edge">
<title>Matrix&#45;&gt;Array</title>
<path fill="none" stroke="#000000" d="M410.3181,-50.8444C410.0511,-62.3901 409.7011,-77.528 409.3988,-90.6039"/>
<polygon fill="none" stroke="#000000" points="405.8911,-90.9004 409.1589,-100.9786 412.8892,-91.0622 405.8911,-90.9004"/>
</g>
<!-- Expression -->
<g id="node10" class="node">
<title>Expression</title>
<g id="a_node10"><a xlink:href="http://emmo.info/emmo/middle/math#EMMO_f9bc8b52_85e9_4b53_b969_dd7724d5b8e4" xlink:title="Expression">
<ellipse fill="#ffffcc" stroke="#000000" stroke-width="2" cx="882.7422" cy="-119" rx="50.0912" ry="18"/>
<text text-anchor="middle" x="882.7422" y="-115.3" font-family="Times,serif" font-size="14.00" fill="#000000">Expression</text>
</a>
</g>
</g>
<!-- Expression&#45;&gt;Mathematical -->
<g id="edge4" class="edge">
<title>Expression&#45;&gt;Mathematical</title>
<path fill="none" stroke="#000000" d="M844.7963,-130.9438C837.5087,-133.0784 829.9137,-135.1947 822.7422,-137 754.1238,-154.2736 674.4323,-169.9859 620.7053,-179.952"/>
<polygon fill="none" stroke="#000000" points="619.8503,-176.5506 610.6509,-181.8062 621.1198,-183.4346 619.8503,-176.5506"/>
</g>
<!-- Constant -->
<g id="node12" class="node">
<title>Constant</title>
<g id="a_node12"><a xlink:href="http://emmo.info/emmo/middle/math#EMMO_ae15fb4f_8e4d_41de_a0f9_3997f89ba6a2" xlink:title="Constant">
<ellipse fill="#ffffcc" stroke="#000000" cx="506.7422" cy="-32.5" rx="42.4939" ry="18"/>
<text text-anchor="middle" x="506.7422" y="-28.8" font-family="Times,serif" font-size="14.00" fill="#000000">Constant</text>
</a>
</g>
</g>
<!-- Constant&#45;&gt;Numerical -->
<g id="edge14" class="edge">
<title>Constant&#45;&gt;Numerical</title>
<path fill="none" stroke="#ffa500" stroke-dasharray="5,2" d="M506.5301,-50.8444C506.3967,-62.3901 506.2217,-77.528 506.0705,-90.6039"/>
<polygon fill="#ffa500" stroke="#ffa500" points="502.4508,-100.9381 506.0662,-90.9793 509.4503,-101.0191 502.4508,-100.9381"/>
</g>
<!-- Constant&#45;&gt;Variable -->
<g id="edge13" class="edge">
<title>Constant&#45;&gt;Variable</title>
<path fill="none" stroke="#000000" d="M526.68,-48.77C543.2182,-62.2658 566.9075,-81.5972 585.247,-96.5629"/>
<polygon fill="none" stroke="#000000" points="583.2914,-99.4845 593.252,-103.0952 587.7171,-94.0611 583.2914,-99.4845"/>
</g>
<!-- Formula -->
<g id="node13" class="node">
<title>Formula</title>
<g id="a_node13"><a xlink:href="http://emmo.info/emmo/middle/math#EMMO_88470739_03d3_4c47_a03e_b30a1288d50c" xlink:title="Formula">
<ellipse fill="#ffffcc" stroke="#000000" stroke-width="2" cx="991.7422" cy="-119" rx="40.8928" ry="18"/>
<text text-anchor="middle" x="991.7422" y="-115.3" font-family="Times,serif" font-size="14.00" fill="#000000">Formula</text>
</a>
</g>
</g>
<!-- Formula&#45;&gt;Mathematical -->
<g id="edge6" class="edge">
<title>Formula&#45;&gt;Mathematical</title>
<path fill="none" stroke="#000000" d="M961.1083,-131.1469C954.7779,-133.3392 948.1005,-135.4251 941.7422,-137 833.3567,-163.847 704.182,-178.6005 626.9543,-185.6439"/>
<polygon fill="none" stroke="#000000" points="626.5211,-182.1686 616.873,-186.5464 627.1453,-189.1408 626.5211,-182.1686"/>
</g>
<!-- Variable&#45;&gt;Mathematical -->
<g id="edge2" class="edge">
<title>Variable&#45;&gt;Mathematical</title>
<path fill="none" stroke="#000000" d="M594.728,-135.3379C587.2581,-144.0022 578.8601,-154.8585 571.9559,-164.6773"/>
<polygon fill="none" stroke="#000000" points="569.0554,-162.7183 566.3339,-172.9577 574.8468,-166.6503 569.0554,-162.7183"/>
</g>
<!-- Variable&#45;&gt;Mathematical -->
<g id="edge3" class="edge">
<title>Variable&#45;&gt;Mathematical</title>
<path fill="none" stroke="#ffa500" stroke-dasharray="5,2" d="M605.3096,-136.7978C599.6025,-145.5818 591.7261,-156.328 584.0114,-165.9286"/>
<polygon fill="#ffa500" stroke="#ffa500" points="574.9232,-171.4246 583.9938,-165.9498 580.3171,-175.8862 574.9232,-171.4246"/>
</g>
<!-- key1 -->
<g id="node15" class="node">
<title>key1</title>
<text text-anchor="start" x="843.7422" y="-47.3" font-family="Times,serif" font-size="14.00" fill="#000000">isA</text>
<text text-anchor="start" x="797.7422" y="-28.3" font-family="Times,serif" font-size="14.00" fill="#000000">hasVariable</text>
<text text-anchor="start" x="822.7422" y="-9.3" font-family="Times,serif" font-size="14.00" fill="#000000">inverse</text>
</g>
<!-- key2 -->
<g id="node16" class="node">
<title>key2</title>
<text text-anchor="start" x="915.7422" y="-47.3" font-family="Times,serif" font-size="14.00" fill="#000000"> </text>
<text text-anchor="start" x="915.7422" y="-28.3" font-family="Times,serif" font-size="14.00" fill="#000000"> </text>
<text text-anchor="start" x="915.7422" y="-9.3" font-family="Times,serif" font-size="14.00" fill="#000000"> </text>
</g>
<!-- key1&#45;&gt;key2 -->
<g id="edge16" class="edge">
<title>key1:e&#45;&gt;key2:w</title>
<path fill="none" stroke="#000000" d="M864.7422,-13.5C882.6068,-13.5 889.4805,-13.5 903.3952,-13.5"/>
<polygon fill="#000000" stroke="#000000" points="913.7422,-17 903.7422,-13.5001 913.7422,-10 913.7422,-17"/>
</g>
<!-- key1&#45;&gt;key2 -->
<g id="edge17" class="edge">
<title>key1:e&#45;&gt;key2:w</title>
<path fill="none" stroke="#ffa500" stroke-dasharray="5,2" d="M864.7422,-33.5C882.6068,-33.5 889.4805,-33.5 903.3952,-33.5"/>
<polygon fill="#ffa500" stroke="#ffa500" points="903.7422,-37.0001 913.7422,-33.5 903.7422,-30.0001 903.7422,-37.0001"/>
</g>
<!-- key1&#45;&gt;key2 -->
<g id="edge18" class="edge">
<title>key1:e&#45;&gt;key2:w</title>
<path fill="none" stroke="#000000" d="M864.7422,-52.5C882.6068,-52.5 889.4805,-52.5 903.3952,-52.5"/>
<polygon fill="none" stroke="#000000" points="903.7422,-56.0001 913.7422,-52.5 903.7422,-49.0001 903.7422,-56.0001"/>
</g>
</g>
</svg>
