<?xml version="1.0" encoding="UTF-8" standalone="no"?>
<!DOCTYPE svg PUBLIC "-//W3C//DTD SVG 1.1//EN"
 "http://www.w3.org/Graphics/SVG/1.1/DTD/svg11.dtd">
<!-- Generated by graphviz version 2.40.1 (20161225.0304)
 -->
<!-- Title: %3 Pages: 1 -->
<svg width="534pt" height="260pt"
 viewBox="0.00 0.00 533.80 260.00" xmlns="http://www.w3.org/2000/svg" xmlns:xlink="http://www.w3.org/1999/xlink">
<g id="graph0" class="graph" transform="scale(1 1) rotate(0) translate(4 256)">
<title>%3</title>
<polygon fill="#ffffff" stroke="transparent" points="-4,4 -4,-256 529.797,-256 529.797,4 -4,4"/>
<!-- Exponent -->
<g id="node1" class="node">
<title>Exponent</title>
<g id="a_node1"><a xlink:href="http://emmo.info/emmo/top/math#EMMO_223d9523_4169_4ecd_b8af_acad1215e1ff" xlink:title="Exponent">
<ellipse fill="#ffffcc" stroke="#000000" cx="64.797" cy="-90" rx="44.393" ry="18"/>
<text text-anchor="middle" x="64.797" y="-86.3" font-family="Times,serif" font-size="14.00" fill="#000000">Exponent</text>
</a>
</g>
</g>
<!-- AlgebricOperator -->
<g id="node9" class="node">
<title>AlgebricOperator</title>
<g id="a_node9"><a xlink:href="http://emmo.info/emmo/top/math#EMMO_3c424d37_cf62_41b1_ac9d_a316f8d113d6" xlink:title="AlgebricOperator">
<ellipse fill="#ffffcc" stroke="#000000" cx="198.797" cy="-162" rx="72.5877" ry="18"/>
<text text-anchor="middle" x="198.797" y="-158.3" font-family="Times,serif" font-size="14.00" fill="#000000">AlgebricOperator</text>
</a>
</g>
</g>
<!-- Exponent&#45;&gt;AlgebricOperator -->
<g id="edge1" class="edge">
<title>Exponent&#45;&gt;AlgebricOperator</title>
<path fill="none" stroke="#000000" d="M91.5918,-104.3972C110.9723,-114.8106 137.4749,-129.0508 159.2797,-140.7668"/>
<polygon fill="none" stroke="#000000" points="157.837,-143.9649 168.3026,-145.6149 161.1503,-137.7986 157.837,-143.9649"/>
</g>
<!-- DifferentialOperator -->
<g id="node2" class="node">
<title>DifferentialOperator</title>
<g id="a_node2"><a xlink:href="http://emmo.info/emmo/top/math#EMMO_f8a2fe9f_458b_4771_9aba_a50e76afc52d" xlink:title="DifferentialOperator">
<ellipse fill="#ffffcc" stroke="#000000" cx="372.797" cy="-162" rx="83.3857" ry="18"/>
<text text-anchor="middle" x="372.797" y="-158.3" font-family="Times,serif" font-size="14.00" fill="#000000">DifferentialOperator</text>
</a>
</g>
</g>
<!-- MathematicalOperator -->
<g id="node4" class="node">
<title>MathematicalOperator</title>
<g id="a_node4"><a xlink:href="http://emmo.info/emmo/top/math#EMMO_f6d0c26a_98b6_4cf8_8632_aa259131faaa" xlink:title="MathematicalOperator">
<ellipse fill="#ffffcc" stroke="#000000" stroke-width="2" cx="285.797" cy="-234" rx="90.9839" ry="18"/>
<text text-anchor="middle" x="285.797" y="-230.3" font-family="Times,serif" font-size="14.00" fill="#000000">MathematicalOperator</text>
</a>
</g>
</g>
<!-- DifferentialOperator&#45;&gt;MathematicalOperator -->
<g id="edge3" class="edge">
<title>DifferentialOperator&#45;&gt;MathematicalOperator</title>
<path fill="none" stroke="#000000" d="M351.7367,-179.4292C340.7046,-188.5592 327.0208,-199.8837 314.983,-209.8461"/>
<polygon fill="none" stroke="#000000" points="312.4373,-207.4097 306.9649,-216.4818 316.9003,-212.8024 312.4373,-207.4097"/>
</g>
<!-- Minus -->
<g id="node3" class="node">
<title>Minus</title>
<g id="a_node3"><a xlink:href="http://emmo.info/emmo/top/math#EMMO_46d5643b_9706_4b67_8bea_ed77d6026539" xlink:title="Minus">
<ellipse fill="#ffc880" stroke="#000000" cx="33.797" cy="-18" rx="33.5952" ry="18"/>
<text text-anchor="middle" x="33.797" y="-14.3" font-family="Times,serif" font-size="14.00" fill="#000000">Minus</text>
</a>
</g>
</g>
<!-- ArithmeticOperator -->
<g id="node8" class="node">
<title>ArithmeticOperator</title>
<g id="a_node8"><a xlink:href="http://emmo.info/emmo/middle/math#EMMO_707f0cd1_941c_4b57_9f20_d0ba30cd6ff3" xlink:title="ArithmeticOperator">
<ellipse fill="#ffffcc" stroke="#000000" cx="207.797" cy="-90" rx="80.6858" ry="18"/>
<text text-anchor="middle" x="207.797" y="-86.3" font-family="Times,serif" font-size="14.00" fill="#000000">ArithmeticOperator</text>
</a>
</g>
</g>
<!-- Minus&#45;&gt;ArithmeticOperator -->
<g id="edge6" class="edge">
<title>Minus&#45;&gt;ArithmeticOperator</title>
<path fill="none" stroke="#000000" d="M60.6249,-29.2568C65.9798,-31.4962 71.5654,-33.8267 76.797,-36 104.1724,-47.3719 134.802,-60.003 159.5565,-70.188"/>
<polygon fill="none" stroke="#000000" points="158.5029,-73.5391 169.0825,-74.1061 161.1656,-67.0653 158.5029,-73.5391"/>
</g>
<!-- Multiplication -->
<g id="node5" class="node">
<title>Multiplication</title>
<g id="a_node5"><a xlink:href="http://emmo.info/emmo/top/math#EMMO_2b1303e8_d4c3_453b_9918_76f1d009543f" xlink:title="Multiplication">
<ellipse fill="#ffc880" stroke="#000000" cx="147.797" cy="-18" rx="61.99" ry="18"/>
<text text-anchor="middle" x="147.797" y="-14.3" font-family="Times,serif" font-size="14.00" fill="#000000">Multiplication</text>
</a>
</g>
</g>
<!-- Multiplication&#45;&gt;ArithmeticOperator -->
<g id="edge8" class="edge">
<title>Multiplication&#45;&gt;ArithmeticOperator</title>
<path fill="none" stroke="#000000" d="M162.6285,-35.7978C169.768,-44.3652 178.4629,-54.7991 186.3104,-64.2161"/>
<polygon fill="none" stroke="#000000" points="183.8376,-66.7159 192.9282,-72.1575 189.2151,-62.2346 183.8376,-66.7159"/>
</g>
<!-- Division -->
<g id="node6" class="node">
<title>Division</title>
<g id="a_node6"><a xlink:href="http://emmo.info/emmo/top/math#EMMO_a365b3c1_7bde_41d7_a15b_2820762e85f4" xlink:title="Division">
<ellipse fill="#ffc880" stroke="#000000" cx="268.797" cy="-18" rx="40.8928" ry="18"/>
<text text-anchor="middle" x="268.797" y="-14.3" font-family="Times,serif" font-size="14.00" fill="#000000">Division</text>
</a>
</g>
</g>
<!-- Division&#45;&gt;ArithmeticOperator -->
<g id="edge9" class="edge">
<title>Division&#45;&gt;ArithmeticOperator</title>
<path fill="none" stroke="#000000" d="M254.3409,-35.063C246.9092,-43.8348 237.701,-54.7035 229.4415,-64.4524"/>
<polygon fill="none" stroke="#000000" points="226.5802,-62.4152 222.7864,-72.3076 231.9211,-66.9402 226.5802,-62.4152"/>
</g>
<!-- Gradient -->
<g id="node7" class="node">
<title>Gradient</title>
<g id="a_node7"><a xlink:href="http://emmo.info/emmo/top/math#EMMO_b5c58790_fb2d_42eb_b184_2a3f6ca60acb" xlink:title="Gradient">
<ellipse fill="#ffc880" stroke="#000000" cx="364.797" cy="-90" rx="41.6928" ry="18"/>
<text text-anchor="middle" x="364.797" y="-86.3" font-family="Times,serif" font-size="14.00" fill="#000000">Gradient</text>
</a>
</g>
</g>
<!-- Gradient&#45;&gt;DifferentialOperator -->
<g id="edge4" class="edge">
<title>Gradient&#45;&gt;DifferentialOperator</title>
<path fill="none" stroke="#000000" d="M366.8157,-108.1686C367.6713,-115.869 368.6887,-125.0257 369.6396,-133.5834"/>
<polygon fill="none" stroke="#000000" points="366.1681,-134.0344 370.7511,-143.5867 373.1253,-133.2614 366.1681,-134.0344"/>
</g>
<!-- ArithmeticOperator&#45;&gt;AlgebricOperator -->
<g id="edge5" class="edge">
<title>ArithmeticOperator&#45;&gt;AlgebricOperator</title>
<path fill="none" stroke="#000000" d="M205.5259,-108.1686C204.5634,-115.869 203.4188,-125.0257 202.3491,-133.5834"/>
<polygon fill="none" stroke="#000000" points="198.8661,-133.2298 201.0987,-143.5867 205.8121,-134.0981 198.8661,-133.2298"/>
</g>
<!-- AlgebricOperator&#45;&gt;MathematicalOperator -->
<g id="edge10" class="edge">
<title>AlgebricOperator&#45;&gt;MathematicalOperator</title>
<path fill="none" stroke="#000000" d="M219.8573,-179.4292C230.8894,-188.5592 244.5732,-199.8837 256.611,-209.8461"/>
<polygon fill="none" stroke="#000000" points="254.6937,-212.8024 264.6291,-216.4818 259.1567,-207.4097 254.6937,-212.8024"/>
</g>
<!-- Plus -->
<g id="node10" class="node">
<title>Plus</title>
<g id="a_node10"><a xlink:href="http://emmo.info/emmo/top/math#EMMO_8de14a59_660b_454f_aff8_76a07ce185f4" xlink:title="Plus">
<ellipse fill="#ffc880" stroke="#000000" cx="354.797" cy="-18" rx="27" ry="18"/>
<text text-anchor="middle" x="354.797" y="-14.3" font-family="Times,serif" font-size="14.00" fill="#000000">Plus</text>
</a>
</g>
</g>
<!-- Plus&#45;&gt;ArithmeticOperator -->
<g id="edge2" class="edge">
<title>Plus&#45;&gt;ArithmeticOperator</title>
<path fill="none" stroke="#000000" d="M333.114,-28.8892C328.399,-31.2437 323.4345,-33.7127 318.797,-36 296.4632,-47.0156 271.5342,-59.1571 250.9677,-69.1327"/>
<polygon fill="none" stroke="#000000" points="249.3224,-66.0406 241.8502,-73.5518 252.3755,-72.3397 249.3224,-66.0406"/>
</g>
<!-- Laplacian -->
<g id="node11" class="node">
<title>Laplacian</title>
<g id="a_node11"><a xlink:href="http://emmo.info/emmo/top/math#EMMO_048a14e3_65fb_457d_8695_948965c89492" xlink:title="Laplacian">
<ellipse fill="#ffc880" stroke="#000000" cx="469.797" cy="-90" rx="45.4919" ry="18"/>
<text text-anchor="middle" x="469.797" y="-86.3" font-family="Times,serif" font-size="14.00" fill="#000000">Laplacian</text>
</a>
</g>
</g>
<!-- Laplacian&#45;&gt;DifferentialOperator -->
<g id="edge7" class="edge">
<title>Laplacian&#45;&gt;DifferentialOperator</title>
<path fill="none" stroke="#000000" d="M448.2696,-105.9791C435.3921,-115.5376 418.7949,-127.8572 404.4452,-138.5085"/>
<polygon fill="none" stroke="#000000" points="402.2448,-135.783 396.3012,-144.5536 406.417,-141.4038 402.2448,-135.783"/>
</g>
<!-- key1 -->
<g id="node12" class="node">
<title>key1</title>
<text text-anchor="start" x="417.797" y="-13.8" font-family="Times,serif" font-size="14.00" fill="#000000">isA</text>
</g>
<!-- key2 -->
<g id="node13" class="node">
<title>key2</title>
<text text-anchor="start" x="496.797" y="-13.8" font-family="Times,serif" font-size="14.00" fill="#000000"> </text>
</g>
<!-- key1&#45;&gt;key2 -->
<g id="edge11" class="edge">
<title>key1:e&#45;&gt;key2:w</title>
<path fill="none" stroke="#000000" d="M438.797,-19C459.797,-19 467.5079,-19 484.3551,-19"/>
<polygon fill="none" stroke="#000000" points="484.797,-22.5001 494.797,-19 484.797,-15.5001 484.797,-22.5001"/>
</g>
</g>
</svg>
