<?xml version="1.0" encoding="UTF-8" standalone="no"?>
<!DOCTYPE svg PUBLIC "-//W3C//DTD SVG 1.1//EN"
 "http://www.w3.org/Graphics/SVG/1.1/DTD/svg11.dtd">
<!-- Generated by graphviz version 2.40.1 (20161225.0304)
 -->
<!-- Title: %3 Pages: 1 -->
<svg width="1264pt" height="217pt"
 viewBox="0.00 0.00 1264.10 217.00" xmlns="http://www.w3.org/2000/svg" xmlns:xlink="http://www.w3.org/1999/xlink">
<g id="graph0" class="graph" transform="scale(1 1) rotate(0) translate(4 213)">
<title>%3</title>
<polygon fill="#ffffff" stroke="transparent" points="-4,4 -4,-213 1260.0957,-213 1260.0957,4 -4,4"/>
<!-- Array -->
<g id="node1" class="node">
<title>Array</title>
<g id="a_node1"><a xlink:href="http://emmo.info/emmo/top/math#EMMO_28fbea28_2204_4613_87ff_6d877b855fcd" xlink:title="Array">
<ellipse fill="#ffffcc" stroke="#000000" cx="1002.0957" cy="-119" rx="31.3957" ry="18"/>
<text text-anchor="middle" x="1002.0957" y="-115.3" font-family="Times,serif" font-size="14.00" fill="#000000">Array</text>
</a>
</g>
</g>
<!-- Mathematical -->
<g id="node4" class="node">
<title>Mathematical</title>
<g id="a_node4"><a xlink:href="http://emmo.info/emmo/middle/math#EMMO_54ee6b5e_5261_44a8_86eb_5717e7fdb9d0" xlink:title="Mathematical">
<ellipse fill="#ffffcc" stroke="#000000" stroke-width="2" cx="533.0957" cy="-191" rx="59.5901" ry="18"/>
<text text-anchor="middle" x="533.0957" y="-187.3" font-family="Times,serif" font-size="14.00" fill="#000000">Mathematical</text>
</a>
</g>
</g>
<!-- Array&#45;&gt;Mathematical -->
<g id="edge2" class="edge">
<title>Array&#45;&gt;Mathematical</title>
<path fill="none" stroke="#000000" d="M978.4162,-131.0451C973.1516,-133.3276 967.5207,-135.475 962.0957,-137 838.6608,-171.6984 688.9612,-184.1337 602.9952,-188.5676"/>
<polygon fill="none" stroke="#000000" points="602.6486,-185.0803 592.8336,-189.0696 602.9941,-192.0718 602.6486,-185.0803"/>
</g>
<!-- Parameter -->
<g id="node2" class="node">
<title>Parameter</title>
<g id="a_node2"><a xlink:href="http://emmo.info/emmo/middle/math#EMMO_d1d436e7_72fc_49cd_863b_7bfb4ba5276a" xlink:title="Parameter">
<ellipse fill="#ffffcc" stroke="#000000" cx="155.0957" cy="-32.5" rx="46.5926" ry="18"/>
<text text-anchor="middle" x="155.0957" y="-28.8" font-family="Times,serif" font-size="14.00" fill="#000000">Parameter</text>
</a>
</g>
</g>
<!-- Variable -->
<g id="node8" class="node">
<title>Variable</title>
<g id="a_node8"><a xlink:href="http://emmo.info/emmo/middle/math#EMMO_1eed0732_e3f1_4b2c_a9c4_b4e75eeb5895" xlink:title="Variable">
<ellipse fill="#ffffcc" stroke="#000000" cx="155.0957" cy="-119" rx="40.8928" ry="18"/>
<text text-anchor="middle" x="155.0957" y="-115.3" font-family="Times,serif" font-size="14.00" fill="#000000">Variable</text>
</a>
</g>
</g>
<!-- Parameter&#45;&gt;Variable -->
<g id="edge5" class="edge">
<title>Parameter&#45;&gt;Variable</title>
<path fill="none" stroke="#000000" d="M155.0957,-50.8444C155.0957,-62.3901 155.0957,-77.528 155.0957,-90.6039"/>
<polygon fill="none" stroke="#000000" points="151.5958,-90.9786 155.0957,-100.9786 158.5958,-90.9787 151.5958,-90.9786"/>
</g>
<!-- Numerical -->
<g id="node3" class="node">
<title>Numerical</title>
<g id="a_node3"><a xlink:href="http://emmo.info/emmo/middle/math#EMMO_4ce76d7f_03f8_45b6_9003_90052a79bfaa" xlink:title="Numerical">
<ellipse fill="#ffffcc" stroke="#000000" cx="48.0957" cy="-119" rx="48.1917" ry="18"/>
<text text-anchor="middle" x="48.0957" y="-115.3" font-family="Times,serif" font-size="14.00" fill="#000000">Numerical</text>
</a>
</g>
</g>
<!-- Numerical&#45;&gt;Mathematical -->
<g id="edge3" class="edge">
<title>Numerical&#45;&gt;Mathematical</title>
<path fill="none" stroke="#000000" d="M83.4033,-131.2363C90.5227,-133.395 97.9998,-135.4453 105.0957,-137 230.408,-164.456 379.6377,-179.3457 464.6789,-186.1936"/>
<polygon fill="none" stroke="#000000" points="464.4805,-189.6887 474.7256,-186.9891 465.0331,-182.7106 464.4805,-189.6887"/>
</g>
<!-- PhysicalQuantity -->
<g id="node5" class="node">
<title>PhysicalQuantity</title>
<g id="a_node5"><a xlink:href="http://emmo.info/emmo/middle/metrology#EMMO_02c0621e_a527_4790_8a0f_2bb51973c819" xlink:title="PhysicalQuantity">
<ellipse fill="#ffffcc" stroke="#000000" stroke-width="2" cx="285.0957" cy="-119" rx="71.4873" ry="18"/>
<text text-anchor="middle" x="285.0957" y="-115.3" font-family="Times,serif" font-size="14.00" fill="#000000">PhysicalQuantity</text>
</a>
</g>
</g>
<!-- PhysicalQuantity&#45;&gt;Mathematical -->
<g id="edge6" class="edge">
<title>PhysicalQuantity&#45;&gt;Mathematical</title>
<path fill="none" stroke="#000000" d="M332.0342,-132.6273C374.2024,-144.8697 436.0692,-162.831 480.0229,-175.5917"/>
<polygon fill="none" stroke="#000000" points="479.0926,-178.9661 489.6719,-178.3931 481.0443,-172.2437 479.0926,-178.9661"/>
</g>
<!-- Matrix -->
<g id="node6" class="node">
<title>Matrix</title>
<g id="a_node6"><a xlink:href="http://emmo.info/emmo/top/math#EMMO_1cba0b27_15d0_4326_933f_379d0b3565b6" xlink:title="Matrix">
<ellipse fill="#ffffcc" stroke="#000000" cx="958.0957" cy="-32.5" rx="35.194" ry="18"/>
<text text-anchor="middle" x="958.0957" y="-28.8" font-family="Times,serif" font-size="14.00" fill="#000000">Matrix</text>
</a>
</g>
</g>
<!-- Matrix&#45;&gt;Array -->
<g id="edge7" class="edge">
<title>Matrix&#45;&gt;Array</title>
<path fill="none" stroke="#000000" d="M966.9998,-50.0046C973.2023,-62.198 981.5882,-78.6841 988.6074,-92.4832"/>
<polygon fill="none" stroke="#000000" points="985.5514,-94.1952 993.2049,-101.5215 991.7906,-91.0214 985.5514,-94.1952"/>
</g>
<!-- MathematicalModel -->
<g id="node7" class="node">
<title>MathematicalModel</title>
<g id="a_node7"><a xlink:href="http://emmo.info/emmo/middle/models#EMMO_f7ed665b_c2e1_42bc_889b_6b42ed3a36f0" xlink:title="MathematicalModel">
<ellipse fill="#ffc880" stroke="#000000" stroke-width="2" cx="458.0957" cy="-119" rx="83.3857" ry="18"/>
<text text-anchor="middle" x="458.0957" y="-115.3" font-family="Times,serif" font-size="14.00" fill="#000000">MathematicalModel</text>
</a>
</g>
</g>
<!-- MathematicalModel&#45;&gt;Mathematical -->
<g id="edge4" class="edge">
<title>MathematicalModel&#45;&gt;Mathematical</title>
<path fill="none" stroke="#000000" d="M476.6351,-136.7978C485.9682,-145.7575 497.4276,-156.7586 507.5783,-166.5032"/>
<polygon fill="none" stroke="#000000" points="505.3907,-169.2549 515.0285,-173.6554 510.2384,-164.2052 505.3907,-169.2549"/>
</g>
<!-- Variable&#45;&gt;Mathematical -->
<g id="edge14" class="edge">
<title>Variable&#45;&gt;Mathematical</title>
<path fill="none" stroke="#000000" d="M181.7065,-132.6839C186.4473,-134.2771 191.3633,-135.7696 196.0957,-137 287.8723,-160.8614 396.9632,-176.3385 465.7117,-184.3639"/>
<polygon fill="none" stroke="#000000" points="465.6388,-187.8784 475.9725,-185.5411 466.4367,-180.9241 465.6388,-187.8784"/>
</g>
<!-- Variable&#45;&gt;Mathematical -->
<g id="edge15" class="edge">
<title>Variable&#45;&gt;Mathematical</title>
<path fill="none" stroke="#ffa500" stroke-dasharray="5,2" d="M189.103,-129.1608C197.3036,-132.0023 205.9703,-134.8874 214.0957,-137 300.6472,-159.5029 402.5975,-174.549 467.5956,-182.9206"/>
<polygon fill="#ffa500" stroke="#ffa500" points="477.2602,-187.6789 467.7822,-182.9442 478.1441,-180.735 477.2602,-187.6789"/>
</g>
<!-- Expression -->
<g id="node9" class="node">
<title>Expression</title>
<g id="a_node9"><a xlink:href="http://emmo.info/emmo/middle/math#EMMO_f9bc8b52_85e9_4b53_b969_dd7724d5b8e4" xlink:title="Expression">
<ellipse fill="#ffffcc" stroke="#000000" stroke-width="2" cx="609.0957" cy="-119" rx="50.0912" ry="18"/>
<text text-anchor="middle" x="609.0957" y="-115.3" font-family="Times,serif" font-size="14.00" fill="#000000">Expression</text>
</a>
</g>
</g>
<!-- Expression&#45;&gt;Mathematical -->
<g id="edge10" class="edge">
<title>Expression&#45;&gt;Mathematical</title>
<path fill="none" stroke="#000000" d="M591.0848,-136.063C581.4066,-145.2318 569.3102,-156.6916 558.673,-166.7689"/>
<polygon fill="none" stroke="#000000" points="556.0932,-164.3916 551.2408,-173.81 560.9074,-169.4733 556.0932,-164.3916"/>
</g>
<!-- Constant -->
<g id="node10" class="node">
<title>Constant</title>
<g id="a_node10"><a xlink:href="http://emmo.info/emmo/middle/math#EMMO_ae15fb4f_8e4d_41de_a0f9_3997f89ba6a2" xlink:title="Constant">
<ellipse fill="#ffffcc" stroke="#000000" cx="48.0957" cy="-32.5" rx="42.4939" ry="18"/>
<text text-anchor="middle" x="48.0957" y="-28.8" font-family="Times,serif" font-size="14.00" fill="#000000">Constant</text>
</a>
</g>
</g>
<!-- Constant&#45;&gt;Numerical -->
<g id="edge9" class="edge">
<title>Constant&#45;&gt;Numerical</title>
<path fill="none" stroke="#ffa500" stroke-dasharray="5,2" d="M48.0957,-50.8444C48.0957,-62.3901 48.0957,-77.528 48.0957,-90.6039"/>
<polygon fill="#ffa500" stroke="#ffa500" points="44.5957,-100.9786 48.0958,-90.9786 51.5957,-100.9787 44.5957,-100.9786"/>
</g>
<!-- Constant&#45;&gt;Variable -->
<g id="edge8" class="edge">
<title>Constant&#45;&gt;Variable</title>
<path fill="none" stroke="#000000" d="M67.9708,-48.5673C84.7123,-62.1012 108.8412,-81.6073 127.4634,-96.6617"/>
<polygon fill="none" stroke="#000000" points="125.35,-99.4538 135.3271,-103.0188 129.7507,-94.0101 125.35,-99.4538"/>
</g>
<!-- Formula -->
<g id="node11" class="node">
<title>Formula</title>
<g id="a_node11"><a xlink:href="http://emmo.info/emmo/middle/math#EMMO_88470739_03d3_4c47_a03e_b30a1288d50c" xlink:title="Formula">
<ellipse fill="#ffffcc" stroke="#000000" stroke-width="2" cx="718.0957" cy="-119" rx="40.8928" ry="18"/>
<text text-anchor="middle" x="718.0957" y="-115.3" font-family="Times,serif" font-size="14.00" fill="#000000">Formula</text>
</a>
</g>
</g>
<!-- Formula&#45;&gt;Mathematical -->
<g id="edge13" class="edge">
<title>Formula&#45;&gt;Mathematical</title>
<path fill="none" stroke="#000000" d="M687.1309,-131.0512C657.7343,-142.492 613.1627,-159.8388 579.516,-172.9337"/>
<polygon fill="none" stroke="#000000" points="577.9461,-169.7889 569.8964,-176.6776 580.4849,-176.3123 577.9461,-169.7889"/>
</g>
<!-- MathematicalSymbol -->
<g id="node12" class="node">
<title>MathematicalSymbol</title>
<g id="a_node12"><a xlink:href="http://emmo.info/emmo/middle/math#EMMO_5be83f9c_a4ba_4b9a_be1a_5bfc6e891231" xlink:title="MathematicalSymbol">
<ellipse fill="#ffc880" stroke="#000000" stroke-width="2" cx="865.0957" cy="-119" rx="87.9851" ry="18"/>
<text text-anchor="middle" x="865.0957" y="-115.3" font-family="Times,serif" font-size="14.00" fill="#000000">MathematicalSymbol</text>
</a>
</g>
</g>
<!-- MathematicalSymbol&#45;&gt;Mathematical -->
<g id="edge12" class="edge">
<title>MathematicalSymbol&#45;&gt;Mathematical</title>
<path fill="none" stroke="#000000" d="M804.5879,-132.1222C744.1211,-145.2355 651.7684,-165.2638 591.9069,-178.2458"/>
<polygon fill="none" stroke="#000000" points="590.8874,-174.8854 581.8563,-180.4254 592.371,-181.7264 590.8874,-174.8854"/>
</g>
<!-- Vector -->
<g id="node13" class="node">
<title>Vector</title>
<g id="a_node13"><a xlink:href="http://emmo.info/emmo/middle/math#EMMO_06658d8d_dcde_4fc9_aae1_17f71c0bcdec" xlink:title="Vector">
<ellipse fill="#ffffcc" stroke="#000000" cx="1046.0957" cy="-32.5" rx="34.394" ry="18"/>
<text text-anchor="middle" x="1046.0957" y="-28.8" font-family="Times,serif" font-size="14.00" fill="#000000">Vector</text>
</a>
</g>
</g>
<!-- Vector&#45;&gt;Array -->
<g id="edge1" class="edge">
<title>Vector&#45;&gt;Array</title>
<path fill="none" stroke="#000000" d="M1037.1917,-50.0046C1030.9892,-62.198 1022.6032,-78.6841 1015.584,-92.4832"/>
<polygon fill="none" stroke="#000000" points="1012.4009,-91.0214 1010.9865,-101.5215 1018.6401,-94.1952 1012.4009,-91.0214"/>
</g>
<!-- Unknown -->
<g id="node14" class="node">
<title>Unknown</title>
<g id="a_node14"><a xlink:href="http://emmo.info/emmo/middle/math#EMMO_fe7e56ce_118b_4243_9aad_20eb9f4f31f6" xlink:title="Unknown">
<ellipse fill="#ffffcc" stroke="#000000" cx="265.0957" cy="-32.5" rx="45.4919" ry="18"/>
<text text-anchor="middle" x="265.0957" y="-28.8" font-family="Times,serif" font-size="14.00" fill="#000000">Unknown</text>
</a>
</g>
</g>
<!-- Unknown&#45;&gt;Variable -->
<g id="edge11" class="edge">
<title>Unknown&#45;&gt;Variable</title>
<path fill="none" stroke="#000000" d="M244.4056,-48.77C227.166,-62.3266 202.4384,-81.7714 183.3716,-96.7649"/>
<polygon fill="none" stroke="#000000" points="181.0187,-94.1626 175.3215,-103.0952 185.3457,-99.6651 181.0187,-94.1626"/>
</g>
<!-- key1 -->
<g id="node15" class="node">
<title>key1</title>
<text text-anchor="start" x="1155.0957" y="-47.3" font-family="Times,serif" font-size="14.00" fill="#000000">isA</text>
<text text-anchor="start" x="1109.0957" y="-28.3" font-family="Times,serif" font-size="14.00" fill="#000000">hasVariable</text>
<text text-anchor="start" x="1134.0957" y="-9.3" font-family="Times,serif" font-size="14.00" fill="#000000">inverse</text>
</g>
<!-- key2 -->
<g id="node16" class="node">
<title>key2</title>
<text text-anchor="start" x="1227.0957" y="-47.3" font-family="Times,serif" font-size="14.00" fill="#000000"> </text>
<text text-anchor="start" x="1227.0957" y="-28.3" font-family="Times,serif" font-size="14.00" fill="#000000"> </text>
<text text-anchor="start" x="1227.0957" y="-9.3" font-family="Times,serif" font-size="14.00" fill="#000000"> </text>
</g>
<!-- key1&#45;&gt;key2 -->
<g id="edge16" class="edge">
<title>key1:e&#45;&gt;key2:w</title>
<path fill="none" stroke="#000000" d="M1176.0957,-13.5C1193.9603,-13.5 1200.834,-13.5 1214.7487,-13.5"/>
<polygon fill="#000000" stroke="#000000" points="1225.0958,-17 1215.0957,-13.5001 1225.0957,-10 1225.0958,-17"/>
</g>
<!-- key1&#45;&gt;key2 -->
<g id="edge17" class="edge">
<title>key1:e&#45;&gt;key2:w</title>
<path fill="none" stroke="#ffa500" stroke-dasharray="5,2" d="M1176.0957,-33.5C1193.9603,-33.5 1200.834,-33.5 1214.7487,-33.5"/>
<polygon fill="#ffa500" stroke="#ffa500" points="1215.0958,-37.0001 1225.0957,-33.5 1215.0957,-30.0001 1215.0958,-37.0001"/>
</g>
<!-- key1&#45;&gt;key2 -->
<g id="edge18" class="edge">
<title>key1:e&#45;&gt;key2:w</title>
<path fill="none" stroke="#000000" d="M1176.0957,-52.5C1193.9603,-52.5 1200.834,-52.5 1214.7487,-52.5"/>
<polygon fill="none" stroke="#000000" points="1215.0958,-56.0001 1225.0957,-52.5 1215.0957,-49.0001 1215.0958,-56.0001"/>
</g>
</g>
</svg>
