<?xml version="1.0" encoding="UTF-8" standalone="no"?>
<!DOCTYPE svg PUBLIC "-//W3C//DTD SVG 1.1//EN"
 "http://www.w3.org/Graphics/SVG/1.1/DTD/svg11.dtd">
<!-- Generated by graphviz version 2.40.1 (20161225.0304)
 -->
<!-- Title: %3 Pages: 1 -->
<svg width="585pt" height="305pt"
 viewBox="0.00 0.00 584.60 305.00" xmlns="http://www.w3.org/2000/svg" xmlns:xlink="http://www.w3.org/1999/xlink">
<g id="graph0" class="graph" transform="scale(1 1) rotate(0) translate(4 301)">
<title>%3</title>
<polygon fill="#ffffff" stroke="transparent" points="-4,4 -4,-301 580.5963,-301 580.5963,4 -4,4"/>
<!-- Plus -->
<g id="node1" class="node">
<title>Plus</title>
<g id="a_node1"><a xlink:href="http://emmo.info/emmo/top/math#EMMO_8de14a59_660b_454f_aff8_76a07ce185f4" xlink:title="Plus">
<ellipse fill="#ffffcc" stroke="#000000" cx="27" cy="-18" rx="27" ry="18"/>
<text text-anchor="middle" x="27" y="-14.3" font-family="Times,serif" font-size="14.00" fill="#000000">Plus</text>
</a>
</g>
</g>
<!-- ArithmeticOperator -->
<g id="node5" class="node">
<title>ArithmeticOperator</title>
<g id="a_node5"><a xlink:href="http://emmo.info/emmo/middle/math#EMMO_707f0cd1_941c_4b57_9f20_d0ba30cd6ff3" xlink:title="ArithmeticOperator">
<ellipse fill="#ffffcc" stroke="#000000" cx="163" cy="-105" rx="80.6858" ry="18"/>
<text text-anchor="middle" x="163" y="-101.3" font-family="Times,serif" font-size="14.00" fill="#000000">ArithmeticOperator</text>
</a>
</g>
</g>
<!-- Plus&#45;&gt;ArithmeticOperator -->
<g id="edge7" class="edge">
<title>Plus&#45;&gt;ArithmeticOperator</title>
<path fill="none" stroke="#000000" d="M46.4855,-30.465C67.6017,-43.9731 101.7414,-65.8125 127.6206,-82.3676"/>
<polygon fill="none" stroke="#000000" points="125.7396,-85.3191 136.0495,-87.7596 129.5118,-79.4224 125.7396,-85.3191"/>
<text text-anchor="middle" x="113.5" y="-57.8" font-family="Times,serif" font-size="14.00" fill="#000000">isA</text>
</g>
<!-- Minus -->
<g id="node2" class="node">
<title>Minus</title>
<g id="a_node2"><a xlink:href="http://emmo.info/emmo/top/math#EMMO_46d5643b_9706_4b67_8bea_ed77d6026539" xlink:title="Minus">
<ellipse fill="#ffffcc" stroke="#000000" cx="106" cy="-18" rx="33.5952" ry="18"/>
<text text-anchor="middle" x="106" y="-14.3" font-family="Times,serif" font-size="14.00" fill="#000000">Minus</text>
</a>
</g>
</g>
<!-- Minus&#45;&gt;ArithmeticOperator -->
<g id="edge1" class="edge">
<title>Minus&#45;&gt;ArithmeticOperator</title>
<path fill="none" stroke="#000000" d="M117.2614,-35.1884C125.299,-47.4563 136.2667,-64.1965 145.4472,-78.2089"/>
<polygon fill="none" stroke="#000000" points="142.7654,-80.5023 151.1733,-86.9488 148.6207,-76.6661 142.7654,-80.5023"/>
<text text-anchor="middle" x="147.5" y="-57.8" font-family="Times,serif" font-size="14.00" fill="#000000">isA</text>
</g>
<!-- DifferentialOperator -->
<g id="node3" class="node">
<title>DifferentialOperator</title>
<g id="a_node3"><a xlink:href="http://emmo.info/emmo/top/math#EMMO_f8a2fe9f_458b_4771_9aba_a50e76afc52d" xlink:title="DifferentialOperator">
<ellipse fill="#ffffcc" stroke="#000000" cx="447" cy="-192" rx="83.3857" ry="18"/>
<text text-anchor="middle" x="447" y="-188.3" font-family="Times,serif" font-size="14.00" fill="#000000">DifferentialOperator</text>
</a>
</g>
</g>
<!-- MathematicalOperator -->
<g id="node11" class="node">
<title>MathematicalOperator</title>
<g id="a_node11"><a xlink:href="http://emmo.info/emmo/top/math#EMMO_f6d0c26a_98b6_4cf8_8632_aa259131faaa" xlink:title="MathematicalOperator">
<ellipse fill="#ffffcc" stroke="#000000" stroke-width="2" cx="360" cy="-279" rx="90.9839" ry="18"/>
<text text-anchor="middle" x="360" y="-275.3" font-family="Times,serif" font-size="14.00" fill="#000000">MathematicalOperator</text>
</a>
</g>
</g>
<!-- DifferentialOperator&#45;&gt;MathematicalOperator -->
<g id="edge5" class="edge">
<title>DifferentialOperator&#45;&gt;MathematicalOperator</title>
<path fill="none" stroke="#000000" d="M429.3943,-209.6057C416.6252,-222.3748 399.1759,-239.8241 384.9696,-254.0304"/>
<polygon fill="none" stroke="#000000" points="382.4744,-251.5758 377.8782,-261.1218 387.4242,-256.5256 382.4744,-251.5758"/>
<text text-anchor="middle" x="417.5" y="-231.8" font-family="Times,serif" font-size="14.00" fill="#000000">isA</text>
</g>
<!-- Multiplication -->
<g id="node4" class="node">
<title>Multiplication</title>
<g id="a_node4"><a xlink:href="http://emmo.info/emmo/top/math#EMMO_2b1303e8_d4c3_453b_9918_76f1d009543f" xlink:title="Multiplication">
<ellipse fill="#ffffcc" stroke="#000000" cx="220" cy="-18" rx="61.99" ry="18"/>
<text text-anchor="middle" x="220" y="-14.3" font-family="Times,serif" font-size="14.00" fill="#000000">Multiplication</text>
</a>
</g>
</g>
<!-- Multiplication&#45;&gt;ArithmeticOperator -->
<g id="edge8" class="edge">
<title>Multiplication&#45;&gt;ArithmeticOperator</title>
<path fill="none" stroke="#000000" d="M208.1896,-36.0265C200.1648,-48.2748 189.4143,-64.6835 180.4122,-78.4234"/>
<polygon fill="none" stroke="#000000" points="177.348,-76.7139 174.7953,-86.9966 183.2032,-80.5501 177.348,-76.7139"/>
<text text-anchor="middle" x="204.5" y="-57.8" font-family="Times,serif" font-size="14.00" fill="#000000">isA</text>
</g>
<!-- AlgebricOperator -->
<g id="node9" class="node">
<title>AlgebricOperator</title>
<g id="a_node9"><a xlink:href="http://emmo.info/emmo/top/math#EMMO_3c424d37_cf62_41b1_ac9d_a316f8d113d6" xlink:title="AlgebricOperator">
<ellipse fill="#ffffcc" stroke="#000000" cx="273" cy="-192" rx="72.5877" ry="18"/>
<text text-anchor="middle" x="273" y="-188.3" font-family="Times,serif" font-size="14.00" fill="#000000">AlgebricOperator</text>
</a>
</g>
</g>
<!-- ArithmeticOperator&#45;&gt;AlgebricOperator -->
<g id="edge3" class="edge">
<title>ArithmeticOperator&#45;&gt;AlgebricOperator</title>
<path fill="none" stroke="#000000" d="M184.9958,-122.3967C201.633,-135.5552 224.6639,-153.7705 242.9921,-168.2665"/>
<polygon fill="none" stroke="#000000" points="241.0278,-171.1753 251.0424,-174.6335 245.3702,-165.6849 241.0278,-171.1753"/>
<text text-anchor="middle" x="233.5" y="-144.8" font-family="Times,serif" font-size="14.00" fill="#000000">isA</text>
</g>
<!-- Exponent -->
<g id="node6" class="node">
<title>Exponent</title>
<g id="a_node6"><a xlink:href="http://emmo.info/emmo/top/math#EMMO_223d9523_4169_4ecd_b8af_acad1215e1ff" xlink:title="Exponent">
<ellipse fill="#ffffcc" stroke="#000000" cx="306" cy="-105" rx="44.393" ry="18"/>
<text text-anchor="middle" x="306" y="-101.3" font-family="Times,serif" font-size="14.00" fill="#000000">Exponent</text>
</a>
</g>
</g>
<!-- Exponent&#45;&gt;AlgebricOperator -->
<g id="edge4" class="edge">
<title>Exponent&#45;&gt;AlgebricOperator</title>
<path fill="none" stroke="#000000" d="M299.1624,-123.0265C294.6049,-135.0415 288.529,-151.0599 283.3797,-164.6354"/>
<polygon fill="none" stroke="#000000" points="280.103,-163.4053 279.8289,-173.9966 286.648,-165.888 280.103,-163.4053"/>
<text text-anchor="middle" x="300.5" y="-144.8" font-family="Times,serif" font-size="14.00" fill="#000000">isA</text>
</g>
<!-- Laplacian -->
<g id="node7" class="node">
<title>Laplacian</title>
<g id="a_node7"><a xlink:href="http://emmo.info/emmo/top/math#EMMO_048a14e3_65fb_457d_8695_948965c89492" xlink:title="Laplacian">
<ellipse fill="#ffffcc" stroke="#000000" cx="430" cy="-105" rx="45.4919" ry="18"/>
<text text-anchor="middle" x="430" y="-101.3" font-family="Times,serif" font-size="14.00" fill="#000000">Laplacian</text>
</a>
</g>
</g>
<!-- Laplacian&#45;&gt;DifferentialOperator -->
<g id="edge9" class="edge">
<title>Laplacian&#45;&gt;DifferentialOperator</title>
<path fill="none" stroke="#000000" d="M433.5224,-123.0265C435.8246,-134.8082 438.879,-150.4393 441.4978,-163.8419"/>
<polygon fill="none" stroke="#000000" points="438.1292,-164.8535 443.4821,-173.9966 444.9993,-163.511 438.1292,-164.8535"/>
<text text-anchor="middle" x="448.5" y="-144.8" font-family="Times,serif" font-size="14.00" fill="#000000">isA</text>
</g>
<!-- Gradient -->
<g id="node8" class="node">
<title>Gradient</title>
<g id="a_node8"><a xlink:href="http://emmo.info/emmo/top/math#EMMO_b5c58790_fb2d_42eb_b184_2a3f6ca60acb" xlink:title="Gradient">
<ellipse fill="#ffffcc" stroke="#000000" cx="535" cy="-105" rx="41.6928" ry="18"/>
<text text-anchor="middle" x="535" y="-101.3" font-family="Times,serif" font-size="14.00" fill="#000000">Gradient</text>
</a>
</g>
</g>
<!-- Gradient&#45;&gt;DifferentialOperator -->
<g id="edge6" class="edge">
<title>Gradient&#45;&gt;DifferentialOperator</title>
<path fill="none" stroke="#000000" d="M518.0327,-121.7745C505.0182,-134.6411 486.8519,-152.601 472.1488,-167.137"/>
<polygon fill="none" stroke="#000000" points="469.472,-164.8616 464.8214,-174.3812 474.3934,-169.8396 469.472,-164.8616"/>
<text text-anchor="middle" x="505.5" y="-144.8" font-family="Times,serif" font-size="14.00" fill="#000000">isA</text>
</g>
<!-- AlgebricOperator&#45;&gt;MathematicalOperator -->
<g id="edge2" class="edge">
<title>AlgebricOperator&#45;&gt;MathematicalOperator</title>
<path fill="none" stroke="#000000" d="M290.6057,-209.6057C303.3748,-222.3748 320.8241,-239.8241 335.0304,-254.0304"/>
<polygon fill="none" stroke="#000000" points="332.5758,-256.5256 342.1218,-261.1218 337.5256,-251.5758 332.5758,-256.5256"/>
<text text-anchor="middle" x="330.5" y="-231.8" font-family="Times,serif" font-size="14.00" fill="#000000">isA</text>
</g>
<!-- Division -->
<g id="node10" class="node">
<title>Division</title>
<g id="a_node10"><a xlink:href="http://emmo.info/emmo/top/math#EMMO_a365b3c1_7bde_41d7_a15b_2820762e85f4" xlink:title="Division">
<ellipse fill="#ffffcc" stroke="#000000" cx="341" cy="-18" rx="40.8928" ry="18"/>
<text text-anchor="middle" x="341" y="-14.3" font-family="Times,serif" font-size="14.00" fill="#000000">Division</text>
</a>
</g>
</g>
<!-- Division&#45;&gt;ArithmeticOperator -->
<g id="edge10" class="edge">
<title>Division&#45;&gt;ArithmeticOperator</title>
<path fill="none" stroke="#000000" d="M313.5776,-31.4031C284.7855,-45.4756 239.129,-67.7909 205.6317,-84.1632"/>
<polygon fill="none" stroke="#000000" points="203.9776,-81.0759 196.5303,-88.6116 207.0515,-87.3649 203.9776,-81.0759"/>
<text text-anchor="middle" x="271.5" y="-57.8" font-family="Times,serif" font-size="14.00" fill="#000000">isA</text>
</g>
</g>
</svg>
