<?xml version="1.0" encoding="UTF-8" standalone="no"?>
<!DOCTYPE svg PUBLIC "-//W3C//DTD SVG 1.1//EN"
 "http://www.w3.org/Graphics/SVG/1.1/DTD/svg11.dtd">
<!-- Generated by graphviz version 2.40.1 (20161225.0304)
 -->
<!-- Title: %3 Pages: 1 -->
<svg width="832pt" height="198pt"
 viewBox="0.00 0.00 832.09 198.00" xmlns="http://www.w3.org/2000/svg" xmlns:xlink="http://www.w3.org/1999/xlink">
<g id="graph0" class="graph" transform="scale(1 1) rotate(0) translate(4 194)">
<title>%3</title>
<polygon fill="#ffffff" stroke="transparent" points="-4,4 -4,-194 828.0934,-194 828.0934,4 -4,4"/>
<!-- ContinuumModel -->
<g id="node1" class="node">
<title>ContinuumModel</title>
<g id="a_node1"><a xlink:href="http://emmo.info/emmo/middle/models#EMMO_4456a5d2_16a6_4ee1_9a8e_5c75956b28ea" xlink:title="ContinuumModel">
<ellipse fill="#ffffcc" stroke="#000000" cx="74.0934" cy="-23" rx="74.187" ry="18"/>
<text text-anchor="middle" x="74.0934" y="-19.3" font-family="Times,serif" font-size="14.00" fill="#000000">ContinuumModel</text>
</a>
</g>
</g>
<!-- PhysicsBasedModel -->
<g id="node4" class="node">
<title>PhysicsBasedModel</title>
<g id="a_node4"><a xlink:href="http://emmo.info/emmo/middle/models#EMMO_b29fd350_39aa_4af7_9459_3faa0544cba6" xlink:title="PhysicsBasedModel">
<ellipse fill="#ffffcc" stroke="#000000" cx="315.0934" cy="-100" rx="82.5854" ry="18"/>
<text text-anchor="middle" x="315.0934" y="-96.3" font-family="Times,serif" font-size="14.00" fill="#000000">PhysicsBasedModel</text>
</a>
</g>
</g>
<!-- ContinuumModel&#45;&gt;PhysicsBasedModel -->
<g id="edge3" class="edge">
<title>ContinuumModel&#45;&gt;PhysicsBasedModel</title>
<path fill="none" stroke="#000000" d="M119.141,-37.3928C158.5756,-49.9922 216.0503,-68.3555 258.5639,-81.9387"/>
<polygon fill="none" stroke="#000000" points="257.6199,-85.3113 268.2108,-85.0209 259.7504,-78.6434 257.6199,-85.3113"/>
</g>
<!-- AtomisticModel -->
<g id="node2" class="node">
<title>AtomisticModel</title>
<g id="a_node2"><a xlink:href="http://emmo.info/emmo/middle/models#EMMO_84cadc45_6758_46f2_ba2a_5ead65c70213" xlink:title="AtomisticModel">
<ellipse fill="#ffffcc" stroke="#000000" cx="236.0934" cy="-23" rx="69.5877" ry="18"/>
<text text-anchor="middle" x="236.0934" y="-19.3" font-family="Times,serif" font-size="14.00" fill="#000000">AtomisticModel</text>
</a>
</g>
</g>
<!-- AtomisticModel&#45;&gt;PhysicsBasedModel -->
<g id="edge7" class="edge">
<title>AtomisticModel&#45;&gt;PhysicsBasedModel</title>
<path fill="none" stroke="#000000" d="M254.0197,-40.4725C264.5507,-50.7369 278.0329,-63.8777 289.6498,-75.2005"/>
<polygon fill="none" stroke="#000000" points="287.3605,-77.8567 296.9646,-82.3301 292.2464,-72.8438 287.3605,-77.8567"/>
</g>
<!-- DataBasedModel -->
<g id="node3" class="node">
<title>DataBasedModel</title>
<g id="a_node3"><a xlink:href="http://emmo.info/emmo/middle/models#EMMO_a4b14b83_9392_4a5f_a2e8_b2b58793f59b" xlink:title="DataBasedModel">
<ellipse fill="#ffffcc" stroke="#000000" cx="488.0934" cy="-100" rx="72.2875" ry="18"/>
<text text-anchor="middle" x="488.0934" y="-96.3" font-family="Times,serif" font-size="14.00" fill="#000000">DataBasedModel</text>
</a>
</g>
</g>
<!-- MathematicalModel -->
<g id="node8" class="node">
<title>MathematicalModel</title>
<g id="a_node8"><a xlink:href="http://emmo.info/emmo/middle/models#EMMO_f7ed665b_c2e1_42bc_889b_6b42ed3a36f0" xlink:title="MathematicalModel">
<ellipse fill="#ffc880" stroke="#000000" stroke-width="2" cx="488.0934" cy="-172" rx="83.3857" ry="18"/>
<text text-anchor="middle" x="488.0934" y="-168.3" font-family="Times,serif" font-size="14.00" fill="#000000">MathematicalModel</text>
</a>
</g>
</g>
<!-- DataBasedModel&#45;&gt;MathematicalModel -->
<g id="edge6" class="edge">
<title>DataBasedModel&#45;&gt;MathematicalModel</title>
<path fill="none" stroke="#000000" d="M488.0934,-118.1686C488.0934,-125.869 488.0934,-135.0257 488.0934,-143.5834"/>
<polygon fill="none" stroke="#000000" points="484.5935,-143.5867 488.0934,-153.5867 491.5935,-143.5868 484.5935,-143.5867"/>
</g>
<!-- PhysicsEquation -->
<g id="node6" class="node">
<title>PhysicsEquation</title>
<g id="a_node6"><a xlink:href="http://emmo.info/emmo/middle/models#EMMO_27c5d8c6_8af7_4d63_beb1_ec37cd8b3fa3" xlink:title="PhysicsEquation">
<ellipse fill="#ffffcc" stroke="#000000" cx="648.0934" cy="-100" rx="69.5877" ry="18"/>
<text text-anchor="middle" x="648.0934" y="-96.3" font-family="Times,serif" font-size="14.00" fill="#000000">PhysicsEquation</text>
</a>
</g>
</g>
<!-- PhysicsBasedModel&#45;&gt;PhysicsEquation -->
<g id="edge5" class="edge">
<title>PhysicsBasedModel&#45;&gt;PhysicsEquation</title>
<path fill="none" stroke="#0000ff" stroke-dasharray="5,2" d="M351.215,-83.7263C370.1206,-76.0897 393.8982,-67.8373 416.0934,-64 479.1578,-53.0968 497.296,-51.6517 560.0934,-64 576.1698,-67.1612 593.0089,-73.283 607.6025,-79.5943"/>
<polygon fill="#0000ff" stroke="#0000ff" points="606.2813,-82.8377 616.8377,-83.7399 609.148,-76.4516 606.2813,-82.8377"/>
</g>
<!-- PhysicsBasedModel&#45;&gt;MathematicalModel -->
<g id="edge4" class="edge">
<title>PhysicsBasedModel&#45;&gt;MathematicalModel</title>
<path fill="none" stroke="#000000" d="M353.4877,-115.9791C379.044,-126.6153 412.8149,-140.6702 440.1367,-152.0411"/>
<polygon fill="none" stroke="#000000" points="438.9305,-155.3301 449.5077,-155.9412 441.6202,-148.8675 438.9305,-155.3301"/>
</g>
<!-- ElectronicModel -->
<g id="node5" class="node">
<title>ElectronicModel</title>
<g id="a_node5"><a xlink:href="http://emmo.info/emmo/middle/models#EMMO_6eca09be_17e9_445e_abc9_000aa61b7a11" xlink:title="ElectronicModel">
<ellipse fill="#ffffcc" stroke="#000000" cx="394.0934" cy="-23" rx="70.3881" ry="18"/>
<text text-anchor="middle" x="394.0934" y="-19.3" font-family="Times,serif" font-size="14.00" fill="#000000">ElectronicModel</text>
</a>
</g>
</g>
<!-- ElectronicModel&#45;&gt;PhysicsBasedModel -->
<g id="edge1" class="edge">
<title>ElectronicModel&#45;&gt;PhysicsBasedModel</title>
<path fill="none" stroke="#000000" d="M376.1671,-40.4725C365.6361,-50.7369 352.1539,-63.8777 340.5371,-75.2005"/>
<polygon fill="none" stroke="#000000" points="337.9405,-72.8438 333.2223,-82.3301 342.8264,-77.8567 337.9405,-72.8438"/>
</g>
<!-- PhysicsEquation&#45;&gt;MathematicalModel -->
<g id="edge2" class="edge">
<title>PhysicsEquation&#45;&gt;MathematicalModel</title>
<path fill="none" stroke="#000000" d="M613.3758,-115.6229C590.0676,-126.1116 559.1128,-140.0413 533.8047,-151.4299"/>
<polygon fill="none" stroke="#000000" points="532.0922,-148.3624 524.4093,-155.6579 534.9648,-154.7459 532.0922,-148.3624"/>
</g>
<!-- MesoscopicModel -->
<g id="node7" class="node">
<title>MesoscopicModel</title>
<g id="a_node7"><a xlink:href="http://emmo.info/emmo/middle/models#EMMO_53935db0_af45_4426_b9e9_244a0d77db00" xlink:title="MesoscopicModel">
<ellipse fill="#ffffcc" stroke="#000000" cx="559.0934" cy="-23" rx="76.8869" ry="18"/>
<text text-anchor="middle" x="559.0934" y="-19.3" font-family="Times,serif" font-size="14.00" fill="#000000">MesoscopicModel</text>
</a>
</g>
</g>
<!-- MesoscopicModel&#45;&gt;PhysicsBasedModel -->
<g id="edge8" class="edge">
<title>MesoscopicModel&#45;&gt;PhysicsBasedModel</title>
<path fill="none" stroke="#000000" d="M513.1989,-37.4831C473.1122,-50.1334 414.7734,-68.5436 371.7801,-82.1112"/>
<polygon fill="none" stroke="#000000" points="370.5116,-78.8413 362.0285,-85.1885 372.6182,-85.5168 370.5116,-78.8413"/>
</g>
<!-- key1 -->
<g id="node9" class="node">
<title>key1</title>
<text text-anchor="start" x="723.0934" y="-28.8" font-family="Times,serif" font-size="14.00" fill="#000000">isA</text>
<text text-anchor="start" x="664.0934" y="-9.8" font-family="Times,serif" font-size="14.00" fill="#000000">hasSpatialPart</text>
</g>
<!-- key2 -->
<g id="node10" class="node">
<title>key2</title>
<text text-anchor="start" x="795.0934" y="-28.8" font-family="Times,serif" font-size="14.00" fill="#000000"> </text>
<text text-anchor="start" x="795.0934" y="-9.8" font-family="Times,serif" font-size="14.00" fill="#000000"> </text>
</g>
<!-- key1&#45;&gt;key2 -->
<g id="edge9" class="edge">
<title>key1:e&#45;&gt;key2:w</title>
<path fill="none" stroke="#0000ff" stroke-dasharray="5,2" d="M744.0934,-13C761.958,-13 768.8317,-13 782.7464,-13"/>
<polygon fill="#0000ff" stroke="#0000ff" points="783.0935,-16.5001 793.0934,-13 783.0934,-9.5001 783.0935,-16.5001"/>
</g>
<!-- key1&#45;&gt;key2 -->
<g id="edge10" class="edge">
<title>key1:e&#45;&gt;key2:w</title>
<path fill="none" stroke="#000000" d="M744.0934,-33C761.958,-33 768.8317,-33 782.7464,-33"/>
<polygon fill="none" stroke="#000000" points="783.0935,-36.5001 793.0934,-33 783.0934,-29.5001 783.0935,-36.5001"/>
</g>
</g>
</svg>
