<?xml version="1.0" encoding="UTF-8" standalone="no"?>
<!DOCTYPE svg PUBLIC "-//W3C//DTD SVG 1.1//EN"
 "http://www.w3.org/Graphics/SVG/1.1/DTD/svg11.dtd">
<!-- Generated by graphviz version 2.40.1 (20161225.0304)
 -->
<!-- Title: %3 Pages: 1 -->
<svg width="832pt" height="198pt"
 viewBox="0.00 0.00 831.69 198.00" xmlns="http://www.w3.org/2000/svg" xmlns:xlink="http://www.w3.org/1999/xlink">
<g id="graph0" class="graph" transform="scale(1 1) rotate(0) translate(4 194)">
<title>%3</title>
<polygon fill="#ffffff" stroke="transparent" points="-4,4 -4,-194 827.6932,-194 827.6932,4 -4,4"/>
<!-- MesoscopicModel -->
<g id="node1" class="node">
<title>MesoscopicModel</title>
<g id="a_node1"><a xlink:href="http://emmo.info/emmo/middle/models#EMMO_53935db0_af45_4426_b9e9_244a0d77db00" xlink:title="MesoscopicModel">
<ellipse fill="#ffffcc" stroke="#000000" cx="76.6932" cy="-23" rx="76.8869" ry="18"/>
<text text-anchor="middle" x="76.6932" y="-19.3" font-family="Times,serif" font-size="14.00" fill="#000000">MesoscopicModel</text>
</a>
</g>
</g>
<!-- PhysicsBasedModel -->
<g id="node5" class="node">
<title>PhysicsBasedModel</title>
<g id="a_node5"><a xlink:href="http://emmo.info/emmo/middle/models#EMMO_b29fd350_39aa_4af7_9459_3faa0544cba6" xlink:title="PhysicsBasedModel">
<ellipse fill="#ffffcc" stroke="#000000" cx="326.6932" cy="-100" rx="82.5854" ry="18"/>
<text text-anchor="middle" x="326.6932" y="-96.3" font-family="Times,serif" font-size="14.00" fill="#000000">PhysicsBasedModel</text>
</a>
</g>
</g>
<!-- MesoscopicModel&#45;&gt;PhysicsBasedModel -->
<g id="edge5" class="edge">
<title>MesoscopicModel&#45;&gt;PhysicsBasedModel</title>
<path fill="none" stroke="#000000" d="M123.423,-37.3928C164.6793,-50.0997 224.9697,-68.6692 269.1776,-82.2852"/>
<polygon fill="none" stroke="#000000" points="268.3296,-85.6862 278.9169,-85.2849 270.3901,-78.9963 268.3296,-85.6862"/>
</g>
<!-- MathematicalModel -->
<g id="node2" class="node">
<title>MathematicalModel</title>
<g id="a_node2"><a xlink:href="http://emmo.info/emmo/middle/models#EMMO_f7ed665b_c2e1_42bc_889b_6b42ed3a36f0" xlink:title="MathematicalModel">
<ellipse fill="#ffc880" stroke="#000000" stroke-width="2" cx="499.6932" cy="-172" rx="83.3857" ry="18"/>
<text text-anchor="middle" x="499.6932" y="-168.3" font-family="Times,serif" font-size="14.00" fill="#000000">MathematicalModel</text>
</a>
</g>
</g>
<!-- ContinuumModel -->
<g id="node3" class="node">
<title>ContinuumModel</title>
<g id="a_node3"><a xlink:href="http://emmo.info/emmo/middle/models#EMMO_4456a5d2_16a6_4ee1_9a8e_5c75956b28ea" xlink:title="ContinuumModel">
<ellipse fill="#ffffcc" stroke="#000000" cx="245.6932" cy="-23" rx="74.187" ry="18"/>
<text text-anchor="middle" x="245.6932" y="-19.3" font-family="Times,serif" font-size="14.00" fill="#000000">ContinuumModel</text>
</a>
</g>
</g>
<!-- ContinuumModel&#45;&gt;PhysicsBasedModel -->
<g id="edge6" class="edge">
<title>ContinuumModel&#45;&gt;PhysicsBasedModel</title>
<path fill="none" stroke="#000000" d="M264.0733,-40.4725C274.8709,-50.7369 288.6944,-63.8777 300.6054,-75.2005"/>
<polygon fill="none" stroke="#000000" points="298.4462,-77.977 308.1054,-82.3301 303.2691,-72.9035 298.4462,-77.977"/>
</g>
<!-- AtomisticModel -->
<g id="node4" class="node">
<title>AtomisticModel</title>
<g id="a_node4"><a xlink:href="http://emmo.info/emmo/middle/models#EMMO_84cadc45_6758_46f2_ba2a_5ead65c70213" xlink:title="AtomisticModel">
<ellipse fill="#ffffcc" stroke="#000000" cx="407.6932" cy="-23" rx="69.5877" ry="18"/>
<text text-anchor="middle" x="407.6932" y="-19.3" font-family="Times,serif" font-size="14.00" fill="#000000">AtomisticModel</text>
</a>
</g>
</g>
<!-- AtomisticModel&#45;&gt;PhysicsBasedModel -->
<g id="edge3" class="edge">
<title>AtomisticModel&#45;&gt;PhysicsBasedModel</title>
<path fill="none" stroke="#000000" d="M389.313,-40.4725C378.5154,-50.7369 364.6919,-63.8777 352.781,-75.2005"/>
<polygon fill="none" stroke="#000000" points="350.1173,-72.9035 345.281,-82.3301 354.9402,-77.977 350.1173,-72.9035"/>
</g>
<!-- PhysicsBasedModel&#45;&gt;MathematicalModel -->
<g id="edge7" class="edge">
<title>PhysicsBasedModel&#45;&gt;MathematicalModel</title>
<path fill="none" stroke="#000000" d="M365.0875,-115.9791C390.6438,-126.6153 424.4146,-140.6702 451.7364,-152.0411"/>
<polygon fill="none" stroke="#000000" points="450.5303,-155.3301 461.1075,-155.9412 453.22,-148.8675 450.5303,-155.3301"/>
</g>
<!-- PhysicsEquation -->
<g id="node8" class="node">
<title>PhysicsEquation</title>
<g id="a_node8"><a xlink:href="http://emmo.info/emmo/middle/models#EMMO_27c5d8c6_8af7_4d63_beb1_ec37cd8b3fa3" xlink:title="PhysicsEquation">
<ellipse fill="#ffffcc" stroke="#000000" cx="659.6932" cy="-100" rx="69.5877" ry="18"/>
<text text-anchor="middle" x="659.6932" y="-96.3" font-family="Times,serif" font-size="14.00" fill="#000000">PhysicsEquation</text>
</a>
</g>
</g>
<!-- PhysicsBasedModel&#45;&gt;PhysicsEquation -->
<g id="edge8" class="edge">
<title>PhysicsBasedModel&#45;&gt;PhysicsEquation</title>
<path fill="none" stroke="#0000ff" stroke-dasharray="5,2" d="M362.8147,-83.7263C381.7204,-76.0897 405.498,-67.8373 427.6932,-64 490.7576,-53.0968 508.8957,-51.6517 571.6932,-64 587.7696,-67.1612 604.6087,-73.283 619.2022,-79.5943"/>
<polygon fill="#0000ff" stroke="#0000ff" points="617.8811,-82.8377 628.4374,-83.7399 620.7478,-76.4516 617.8811,-82.8377"/>
</g>
<!-- ElectronicModel -->
<g id="node6" class="node">
<title>ElectronicModel</title>
<g id="a_node6"><a xlink:href="http://emmo.info/emmo/middle/models#EMMO_6eca09be_17e9_445e_abc9_000aa61b7a11" xlink:title="ElectronicModel">
<ellipse fill="#ffffcc" stroke="#000000" cx="565.6932" cy="-23" rx="70.3881" ry="18"/>
<text text-anchor="middle" x="565.6932" y="-19.3" font-family="Times,serif" font-size="14.00" fill="#000000">ElectronicModel</text>
</a>
</g>
</g>
<!-- ElectronicModel&#45;&gt;PhysicsBasedModel -->
<g id="edge1" class="edge">
<title>ElectronicModel&#45;&gt;PhysicsBasedModel</title>
<path fill="none" stroke="#000000" d="M521.8569,-37.123C482.7251,-49.7303 425.2043,-68.2621 382.7402,-81.943"/>
<polygon fill="none" stroke="#000000" points="381.5519,-78.6486 373.107,-85.0466 383.6985,-85.3114 381.5519,-78.6486"/>
</g>
<!-- DataBasedModel -->
<g id="node7" class="node">
<title>DataBasedModel</title>
<g id="a_node7"><a xlink:href="http://emmo.info/emmo/middle/models#EMMO_a4b14b83_9392_4a5f_a2e8_b2b58793f59b" xlink:title="DataBasedModel">
<ellipse fill="#ffffcc" stroke="#000000" cx="499.6932" cy="-100" rx="72.2875" ry="18"/>
<text text-anchor="middle" x="499.6932" y="-96.3" font-family="Times,serif" font-size="14.00" fill="#000000">DataBasedModel</text>
</a>
</g>
</g>
<!-- DataBasedModel&#45;&gt;MathematicalModel -->
<g id="edge2" class="edge">
<title>DataBasedModel&#45;&gt;MathematicalModel</title>
<path fill="none" stroke="#000000" d="M499.6932,-118.1686C499.6932,-125.869 499.6932,-135.0257 499.6932,-143.5834"/>
<polygon fill="none" stroke="#000000" points="496.1933,-143.5867 499.6932,-153.5867 503.1933,-143.5868 496.1933,-143.5867"/>
</g>
<!-- PhysicsEquation&#45;&gt;MathematicalModel -->
<g id="edge4" class="edge">
<title>PhysicsEquation&#45;&gt;MathematicalModel</title>
<path fill="none" stroke="#000000" d="M624.9756,-115.6229C601.6674,-126.1116 570.7125,-140.0413 545.4044,-151.4299"/>
<polygon fill="none" stroke="#000000" points="543.692,-148.3624 536.009,-155.6579 546.5646,-154.7459 543.692,-148.3624"/>
</g>
<!-- key1 -->
<g id="node9" class="node">
<title>key1</title>
<text text-anchor="start" x="722.6932" y="-28.8" font-family="Times,serif" font-size="14.00" fill="#000000">isA</text>
<text text-anchor="start" x="663.6932" y="-9.8" font-family="Times,serif" font-size="14.00" fill="#000000">hasSpatialPart</text>
</g>
<!-- key2 -->
<g id="node10" class="node">
<title>key2</title>
<text text-anchor="start" x="794.6932" y="-28.8" font-family="Times,serif" font-size="14.00" fill="#000000"> </text>
<text text-anchor="start" x="794.6932" y="-9.8" font-family="Times,serif" font-size="14.00" fill="#000000"> </text>
</g>
<!-- key1&#45;&gt;key2 -->
<g id="edge9" class="edge">
<title>key1:e&#45;&gt;key2:w</title>
<path fill="none" stroke="#0000ff" stroke-dasharray="5,2" d="M743.6932,-13C761.5578,-13 768.4315,-13 782.3462,-13"/>
<polygon fill="#0000ff" stroke="#0000ff" points="782.6932,-16.5001 792.6932,-13 782.6932,-9.5001 782.6932,-16.5001"/>
</g>
<!-- key1&#45;&gt;key2 -->
<g id="edge10" class="edge">
<title>key1:e&#45;&gt;key2:w</title>
<path fill="none" stroke="#000000" d="M743.6932,-33C761.5578,-33 768.4315,-33 782.3462,-33"/>
<polygon fill="none" stroke="#000000" points="782.6932,-36.5001 792.6932,-33 782.6932,-29.5001 782.6932,-36.5001"/>
</g>
</g>
</svg>
