<?xml version="1.0" encoding="UTF-8" standalone="no"?>
<!DOCTYPE svg PUBLIC "-//W3C//DTD SVG 1.1//EN"
 "http://www.w3.org/Graphics/SVG/1.1/DTD/svg11.dtd">
<!-- Generated by graphviz version 2.40.1 (20161225.0304)
 -->
<!-- Title: %3 Pages: 1 -->
<svg width="1087pt" height="218pt"
 viewBox="0.00 0.00 1087.19 218.00" xmlns="http://www.w3.org/2000/svg" xmlns:xlink="http://www.w3.org/1999/xlink">
<g id="graph0" class="graph" transform="scale(1 1) rotate(0) translate(4 214)">
<title>%3</title>
<polygon fill="#ffffff" stroke="transparent" points="-4,4 -4,-214 1083.1892,-214 1083.1892,4 -4,4"/>
<!-- MathematicalSymbol -->
<g id="node1" class="node">
<title>MathematicalSymbol</title>
<g id="a_node1"><a xlink:href="http://emmo.info/emmo/middle/math#EMMO_5be83f9c_a4ba_4b9a_be1a_5bfc6e891231" xlink:title="MathematicalSymbol">
<ellipse fill="#ffc880" stroke="#000000" stroke-width="2" cx="87.7422" cy="-105" rx="87.9851" ry="18"/>
<text text-anchor="middle" x="87.7422" y="-101.3" font-family="Times,serif" font-size="14.00" fill="#000000">MathematicalSymbol</text>
</a>
</g>
</g>
<!-- Mathematical -->
<g id="node13" class="node">
<title>Mathematical</title>
<g id="a_node13"><a xlink:href="http://emmo.info/emmo/middle/math#EMMO_54ee6b5e_5261_44a8_86eb_5717e7fdb9d0" xlink:title="Mathematical">
<ellipse fill="#ffffcc" stroke="#000000" stroke-width="2" cx="587.7422" cy="-192" rx="59.5901" ry="18"/>
<text text-anchor="middle" x="587.7422" y="-188.3" font-family="Times,serif" font-size="14.00" fill="#000000">Mathematical</text>
</a>
</g>
</g>
<!-- MathematicalSymbol&#45;&gt;Mathematical -->
<g id="edge1" class="edge">
<title>MathematicalSymbol&#45;&gt;Mathematical</title>
<path fill="none" stroke="#000000" d="M137.1461,-120.0353C176.0946,-131.3892 231.9561,-146.5753 281.7422,-156 362.7695,-171.3387 457.1803,-181.2589 519.4693,-186.724"/>
<polygon fill="none" stroke="#000000" points="519.3017,-190.2225 529.5657,-187.5955 519.9038,-183.2484 519.3017,-190.2225"/>
<text text-anchor="middle" x="291.2422" y="-144.8" font-family="Times,serif" font-size="14.00" fill="#000000">isA</text>
</g>
<!-- PhysicalQuantity -->
<g id="node2" class="node">
<title>PhysicalQuantity</title>
<g id="a_node2"><a xlink:href="http://emmo.info/emmo/middle/units#EMMO_02c0621e_a527_4790_8a0f_2bb51973c819" xlink:title="PhysicalQuantity">
<ellipse fill="#ffffcc" stroke="#000000" stroke-width="2" cx="264.7422" cy="-105" rx="71.4873" ry="18"/>
<text text-anchor="middle" x="264.7422" y="-101.3" font-family="Times,serif" font-size="14.00" fill="#000000">PhysicalQuantity</text>
</a>
</g>
</g>
<!-- PhysicalQuantity&#45;&gt;Mathematical -->
<g id="edge15" class="edge">
<title>PhysicalQuantity&#45;&gt;Mathematical</title>
<path fill="none" stroke="#000000" d="M281.8303,-122.5818C294.0606,-134.0409 311.5257,-148.2559 329.7422,-156 362.9284,-170.1078 454.8827,-180.6087 519.5114,-186.522"/>
<polygon fill="none" stroke="#000000" points="519.3631,-190.0227 529.6362,-187.4315 519.9895,-183.0507 519.3631,-190.0227"/>
<text text-anchor="middle" x="339.2422" y="-144.8" font-family="Times,serif" font-size="14.00" fill="#000000">isA</text>
</g>
<!-- Constant -->
<g id="node3" class="node">
<title>Constant</title>
<g id="a_node3"><a xlink:href="http://emmo.info/emmo/middle/math#EMMO_ae15fb4f_8e4d_41de_a0f9_3997f89ba6a2" xlink:title="Constant">
<ellipse fill="#ffffcc" stroke="#000000" cx="187.7422" cy="-18" rx="42.4939" ry="18"/>
<text text-anchor="middle" x="187.7422" y="-14.3" font-family="Times,serif" font-size="14.00" fill="#000000">Constant</text>
</a>
</g>
</g>
<!-- Variable -->
<g id="node5" class="node">
<title>Variable</title>
<g id="a_node5"><a xlink:href="http://emmo.info/emmo/middle/math#EMMO_1eed0732_e3f1_4b2c_a9c4_b4e75eeb5895" xlink:title="Variable">
<ellipse fill="#ffffcc" stroke="#000000" cx="394.7422" cy="-105" rx="40.8928" ry="18"/>
<text text-anchor="middle" x="394.7422" y="-101.3" font-family="Times,serif" font-size="14.00" fill="#000000">Variable</text>
</a>
</g>
</g>
<!-- Constant&#45;&gt;Variable -->
<g id="edge13" class="edge">
<title>Constant&#45;&gt;Variable</title>
<path fill="none" stroke="#000000" d="M182.6844,-36.2166C180.8591,-47.0609 180.8793,-60.3499 188.7422,-69 212.2149,-94.8227 310.7662,-79.037 344.7422,-87 347.9759,-87.7579 351.2889,-88.6586 354.595,-89.6469"/>
<polygon fill="none" stroke="#000000" points="353.8141,-93.0728 364.4059,-92.8197 355.9681,-86.4124 353.8141,-93.0728"/>
<text text-anchor="middle" x="198.2422" y="-57.8" font-family="Times,serif" font-size="14.00" fill="#000000">isA</text>
</g>
<!-- Numerical -->
<g id="node12" class="node">
<title>Numerical</title>
<g id="a_node12"><a xlink:href="http://emmo.info/emmo/middle/math#EMMO_4ce76d7f_03f8_45b6_9003_90052a79bfaa" xlink:title="Numerical">
<ellipse fill="#ffffcc" stroke="#000000" cx="501.7422" cy="-105" rx="48.1917" ry="18"/>
<text text-anchor="middle" x="501.7422" y="-101.3" font-family="Times,serif" font-size="14.00" fill="#000000">Numerical</text>
</a>
</g>
</g>
<!-- Constant&#45;&gt;Numerical -->
<g id="edge14" class="edge">
<title>Constant&#45;&gt;Numerical</title>
<path fill="none" stroke="#ffa500" stroke-dasharray="5,2" d="M202.9737,-35.3552C214.3266,-47.0246 230.8971,-61.5818 248.7422,-69 329.5186,-102.5785 358.9862,-69.7298 444.7422,-87 448.6367,-87.7843 452.641,-88.7365 456.6352,-89.7889"/>
<polygon fill="#ffa500" stroke="#ffa500" points="465.5219,-95.9405 456.8524,-89.8503 467.4276,-89.2049 465.5219,-95.9405"/>
<text text-anchor="middle" x="319.7422" y="-57.8" font-family="Times,serif" font-size="14.00" fill="#000000">Inverse(hasVariable) only</text>
</g>
<!-- Parameter -->
<g id="node4" class="node">
<title>Parameter</title>
<g id="a_node4"><a xlink:href="http://emmo.info/emmo/middle/math#EMMO_d1d436e7_72fc_49cd_863b_7bfb4ba5276a" xlink:title="Parameter">
<ellipse fill="#ffffcc" stroke="#000000" cx="394.7422" cy="-18" rx="46.5926" ry="18"/>
<text text-anchor="middle" x="394.7422" y="-14.3" font-family="Times,serif" font-size="14.00" fill="#000000">Parameter</text>
</a>
</g>
</g>
<!-- Parameter&#45;&gt;Variable -->
<g id="edge6" class="edge">
<title>Parameter&#45;&gt;Variable</title>
<path fill="none" stroke="#000000" d="M394.7422,-36.0265C394.7422,-47.8082 394.7422,-63.4393 394.7422,-76.8419"/>
<polygon fill="none" stroke="#000000" points="391.2423,-76.9966 394.7422,-86.9966 398.2423,-76.9967 391.2423,-76.9966"/>
<text text-anchor="middle" x="404.2422" y="-57.8" font-family="Times,serif" font-size="14.00" fill="#000000">isA</text>
</g>
<!-- Variable&#45;&gt;Mathematical -->
<g id="edge3" class="edge">
<title>Variable&#45;&gt;Mathematical</title>
<path fill="none" stroke="#000000" d="M371.4329,-119.8484C358.0257,-130.2101 345.6616,-144.2345 355.7422,-156 366.4251,-168.4684 455.5695,-179.5031 520.1739,-185.9693"/>
<polygon fill="none" stroke="#000000" points="520.0212,-189.4711 530.316,-186.9674 520.7069,-182.5048 520.0212,-189.4711"/>
<text text-anchor="middle" x="365.2422" y="-144.8" font-family="Times,serif" font-size="14.00" fill="#000000">isA</text>
</g>
<!-- Variable&#45;&gt;Mathematical -->
<g id="edge4" class="edge">
<title>Variable&#45;&gt;Mathematical</title>
<path fill="none" stroke="#ffa500" stroke-dasharray="5,2" d="M389.0051,-122.9785C386.7678,-133.7332 386.2683,-147.0116 393.7422,-156 409.5706,-175.0358 469.3708,-184.0523 518.4423,-188.2951"/>
<polygon fill="#ffa500" stroke="#ffa500" points="528.1302,-192.5942 518.4467,-188.2954 528.6974,-185.6173 528.1302,-192.5942"/>
<text text-anchor="middle" x="467.2422" y="-144.8" font-family="Times,serif" font-size="14.00" fill="#000000">Inverse(hasVariable) some</text>
</g>
<!-- Formula -->
<g id="node6" class="node">
<title>Formula</title>
<g id="a_node6"><a xlink:href="http://emmo.info/emmo/middle/math#EMMO_88470739_03d3_4c47_a03e_b30a1288d50c" xlink:title="Formula">
<ellipse fill="#ffffcc" stroke="#000000" stroke-width="2" cx="608.7422" cy="-105" rx="40.8928" ry="18"/>
<text text-anchor="middle" x="608.7422" y="-101.3" font-family="Times,serif" font-size="14.00" fill="#000000">Formula</text>
</a>
</g>
</g>
<!-- Formula&#45;&gt;Mathematical -->
<g id="edge9" class="edge">
<title>Formula&#45;&gt;Mathematical</title>
<path fill="none" stroke="#000000" d="M604.391,-123.0265C601.519,-134.9249 597.6993,-150.7492 594.4431,-164.2394"/>
<polygon fill="none" stroke="#000000" points="591.032,-163.4545 592.0879,-173.9966 597.8366,-165.0971 591.032,-163.4545"/>
<text text-anchor="middle" x="609.2422" y="-144.8" font-family="Times,serif" font-size="14.00" fill="#000000">isA</text>
</g>
<!-- Expression -->
<g id="node7" class="node">
<title>Expression</title>
<g id="a_node7"><a xlink:href="http://emmo.info/emmo/middle/math#EMMO_f9bc8b52_85e9_4b53_b969_dd7724d5b8e4" xlink:title="Expression">
<ellipse fill="#ffffcc" stroke="#000000" stroke-width="2" cx="717.7422" cy="-105" rx="50.0912" ry="18"/>
<text text-anchor="middle" x="717.7422" y="-101.3" font-family="Times,serif" font-size="14.00" fill="#000000">Expression</text>
</a>
</g>
</g>
<!-- Expression&#45;&gt;Mathematical -->
<g id="edge10" class="edge">
<title>Expression&#45;&gt;Mathematical</title>
<path fill="none" stroke="#000000" d="M693.8982,-120.9571C673.3592,-134.7025 643.5066,-154.6808 620.6861,-169.9529"/>
<polygon fill="none" stroke="#000000" points="618.6824,-167.0824 612.3184,-175.5529 622.5757,-172.8998 618.6824,-167.0824"/>
<text text-anchor="middle" x="670.2422" y="-144.8" font-family="Times,serif" font-size="14.00" fill="#000000">isA</text>
</g>
<!-- Matrix -->
<g id="node8" class="node">
<title>Matrix</title>
<g id="a_node8"><a xlink:href="http://emmo.info/emmo/top/math#EMMO_1cba0b27_15d0_4326_933f_379d0b3565b6" xlink:title="Matrix">
<ellipse fill="#ffffcc" stroke="#000000" cx="956.7422" cy="-18" rx="35.194" ry="18"/>
<text text-anchor="middle" x="956.7422" y="-14.3" font-family="Times,serif" font-size="14.00" fill="#000000">Matrix</text>
</a>
</g>
</g>
<!-- Array -->
<g id="node11" class="node">
<title>Array</title>
<g id="a_node11"><a xlink:href="http://emmo.info/emmo/top/math#EMMO_28fbea28_2204_4613_87ff_6d877b855fcd" xlink:title="Array">
<ellipse fill="#ffffcc" stroke="#000000" cx="1000.7422" cy="-105" rx="31.3957" ry="18"/>
<text text-anchor="middle" x="1000.7422" y="-101.3" font-family="Times,serif" font-size="14.00" fill="#000000">Array</text>
</a>
</g>
</g>
<!-- Matrix&#45;&gt;Array -->
<g id="edge7" class="edge">
<title>Matrix&#45;&gt;Array</title>
<path fill="none" stroke="#000000" d="M965.6463,-35.6057C971.8895,-47.9504 980.3451,-64.6694 987.3923,-78.6035"/>
<polygon fill="none" stroke="#000000" points="984.3651,-80.3733 992.0016,-87.7173 990.6117,-77.2141 984.3651,-80.3733"/>
<text text-anchor="middle" x="991.2422" y="-57.8" font-family="Times,serif" font-size="14.00" fill="#000000">isA</text>
</g>
<!-- Vector -->
<g id="node9" class="node">
<title>Vector</title>
<g id="a_node9"><a xlink:href="http://emmo.info/emmo/middle/math#EMMO_06658d8d_dcde_4fc9_aae1_17f71c0bcdec" xlink:title="Vector">
<ellipse fill="#ffffcc" stroke="#000000" cx="1044.7422" cy="-18" rx="34.394" ry="18"/>
<text text-anchor="middle" x="1044.7422" y="-14.3" font-family="Times,serif" font-size="14.00" fill="#000000">Vector</text>
</a>
</g>
</g>
<!-- Vector&#45;&gt;Array -->
<g id="edge5" class="edge">
<title>Vector&#45;&gt;Array</title>
<path fill="none" stroke="#000000" d="M1035.8382,-35.6057C1029.5949,-47.9504 1021.1393,-64.6694 1014.0921,-78.6035"/>
<polygon fill="none" stroke="#000000" points="1010.8728,-77.2141 1009.4829,-87.7173 1017.1193,-80.3733 1010.8728,-77.2141"/>
<text text-anchor="middle" x="1035.2422" y="-57.8" font-family="Times,serif" font-size="14.00" fill="#000000">isA</text>
</g>
<!-- MathematicalModel -->
<g id="node10" class="node">
<title>MathematicalModel</title>
<g id="a_node10"><a xlink:href="http://emmo.info/emmo/middle/models#EMMO_f7ed665b_c2e1_42bc_889b_6b42ed3a36f0" xlink:title="MathematicalModel">
<ellipse fill="#ffc880" stroke="#000000" stroke-width="2" cx="868.7422" cy="-105" rx="83.3857" ry="18"/>
<text text-anchor="middle" x="868.7422" y="-101.3" font-family="Times,serif" font-size="14.00" fill="#000000">MathematicalModel</text>
</a>
</g>
</g>
<!-- MathematicalModel&#45;&gt;Mathematical -->
<g id="edge11" class="edge">
<title>MathematicalModel&#45;&gt;Mathematical</title>
<path fill="none" stroke="#000000" d="M821.0744,-119.7584C770.6182,-135.38 691.2507,-159.9529 639.3486,-176.0222"/>
<polygon fill="none" stroke="#000000" points="638.1883,-172.7175 629.6708,-179.0186 640.2586,-179.4043 638.1883,-172.7175"/>
<text text-anchor="middle" x="755.2422" y="-144.8" font-family="Times,serif" font-size="14.00" fill="#000000">isA</text>
</g>
<!-- Array&#45;&gt;Mathematical -->
<g id="edge2" class="edge">
<title>Array&#45;&gt;Mathematical</title>
<path fill="none" stroke="#000000" d="M976.9925,-116.8088C971.7324,-119.106 966.1209,-121.3191 960.7422,-123 856.1327,-155.6906 729.899,-175.0381 654.3657,-184.5753"/>
<polygon fill="none" stroke="#000000" points="653.544,-181.1504 644.0516,-185.8563 654.4068,-188.097 653.544,-181.1504"/>
<text text-anchor="middle" x="901.2422" y="-144.8" font-family="Times,serif" font-size="14.00" fill="#000000">isA</text>
</g>
<!-- Numerical&#45;&gt;Mathematical -->
<g id="edge12" class="edge">
<title>Numerical&#45;&gt;Mathematical</title>
<path fill="none" stroke="#000000" d="M522.939,-121.5157C530.0982,-127.4107 537.9837,-134.2649 544.7422,-141 552.6995,-148.9297 560.8002,-158.1723 567.7932,-166.5943"/>
<polygon fill="none" stroke="#000000" points="565.0846,-168.811 574.1175,-174.348 570.509,-164.3866 565.0846,-168.811"/>
<text text-anchor="middle" x="568.2422" y="-144.8" font-family="Times,serif" font-size="14.00" fill="#000000">isA</text>
</g>
<!-- Unknown -->
<g id="node14" class="node">
<title>Unknown</title>
<g id="a_node14"><a xlink:href="http://emmo.info/emmo/middle/math#EMMO_fe7e56ce_118b_4243_9aad_20eb9f4f31f6" xlink:title="Unknown">
<ellipse fill="#ffffcc" stroke="#000000" cx="504.7422" cy="-18" rx="45.4919" ry="18"/>
<text text-anchor="middle" x="504.7422" y="-14.3" font-family="Times,serif" font-size="14.00" fill="#000000">Unknown</text>
</a>
</g>
</g>
<!-- Unknown&#45;&gt;Variable -->
<g id="edge8" class="edge">
<title>Unknown&#45;&gt;Variable</title>
<path fill="none" stroke="#000000" d="M484.3099,-34.1601C466.9908,-47.858 441.9813,-67.6382 422.7888,-82.8177"/>
<polygon fill="none" stroke="#000000" points="420.3664,-80.2712 414.6943,-89.2197 424.7088,-85.7615 420.3664,-80.2712"/>
<text text-anchor="middle" x="466.2422" y="-57.8" font-family="Times,serif" font-size="14.00" fill="#000000">isA</text>
</g>
</g>
</svg>
