<?xml version="1.0" encoding="UTF-8" standalone="no"?>
<!DOCTYPE svg PUBLIC "-//W3C//DTD SVG 1.1//EN"
 "http://www.w3.org/Graphics/SVG/1.1/DTD/svg11.dtd">
<!-- Generated by graphviz version 2.40.1 (20161225.0304)
 -->
<!-- Title: %3 Pages: 1 -->
<svg width="1378pt" height="217pt"
 viewBox="0.00 0.00 1377.80 217.00" xmlns="http://www.w3.org/2000/svg" xmlns:xlink="http://www.w3.org/1999/xlink">
<g id="graph0" class="graph" transform="scale(1 1) rotate(0) translate(4 213)">
<title>%3</title>
<polygon fill="#ffffff" stroke="transparent" points="-4,4 -4,-213 1373.7958,-213 1373.7958,4 -4,4"/>
<!-- Parameter -->
<g id="node1" class="node">
<title>Parameter</title>
<g id="a_node1"><a xlink:href="http://emmo.info/emmo/middle/math#EMMO_d1d436e7_72fc_49cd_863b_7bfb4ba5276a" xlink:title="Parameter">
<ellipse fill="#ffffcc" stroke="#000000" cx="46.7958" cy="-32.5" rx="46.5926" ry="18"/>
<text text-anchor="middle" x="46.7958" y="-28.8" font-family="Times,serif" font-size="14.00" fill="#000000">Parameter</text>
</a>
</g>
</g>
<!-- Variable -->
<g id="node6" class="node">
<title>Variable</title>
<g id="a_node6"><a xlink:href="http://emmo.info/emmo/middle/math#EMMO_1eed0732_e3f1_4b2c_a9c4_b4e75eeb5895" xlink:title="Variable">
<ellipse fill="#ffffcc" stroke="#000000" cx="153.7958" cy="-119" rx="40.8928" ry="18"/>
<text text-anchor="middle" x="153.7958" y="-115.3" font-family="Times,serif" font-size="14.00" fill="#000000">Variable</text>
</a>
</g>
</g>
<!-- Parameter&#45;&gt;Variable -->
<g id="edge9" class="edge">
<title>Parameter&#45;&gt;Variable</title>
<path fill="none" stroke="#000000" d="M66.9217,-48.77C83.6911,-62.3266 107.7443,-81.7714 126.2911,-96.7649"/>
<polygon fill="none" stroke="#000000" points="124.1446,-99.5303 134.1217,-103.0952 128.5454,-94.0866 124.1446,-99.5303"/>
</g>
<!-- Numerical -->
<g id="node2" class="node">
<title>Numerical</title>
<g id="a_node2"><a xlink:href="http://emmo.info/emmo/middle/math#EMMO_4ce76d7f_03f8_45b6_9003_90052a79bfaa" xlink:title="Numerical">
<ellipse fill="#ffffcc" stroke="#000000" cx="260.7958" cy="-119" rx="48.1917" ry="18"/>
<text text-anchor="middle" x="260.7958" y="-115.3" font-family="Times,serif" font-size="14.00" fill="#000000">Numerical</text>
</a>
</g>
</g>
<!-- Mathematical -->
<g id="node7" class="node">
<title>Mathematical</title>
<g id="a_node7"><a xlink:href="http://emmo.info/emmo/middle/math#EMMO_54ee6b5e_5261_44a8_86eb_5717e7fdb9d0" xlink:title="Mathematical">
<ellipse fill="#ffffcc" stroke="#000000" stroke-width="2" cx="646.7958" cy="-191" rx="59.5901" ry="18"/>
<text text-anchor="middle" x="646.7958" y="-187.3" font-family="Times,serif" font-size="14.00" fill="#000000">Mathematical</text>
</a>
</g>
</g>
<!-- Numerical&#45;&gt;Mathematical -->
<g id="edge1" class="edge">
<title>Numerical&#45;&gt;Mathematical</title>
<path fill="none" stroke="#000000" d="M296.7831,-131.0107C304.0223,-133.1879 311.6134,-135.3028 318.7958,-137 408.8117,-158.2709 514.6778,-174.0736 581.2654,-182.9176"/>
<polygon fill="none" stroke="#000000" points="580.8311,-186.3906 591.2022,-184.2244 581.7439,-179.4503 580.8311,-186.3906"/>
</g>
<!-- PhysicalQuantity -->
<g id="node3" class="node">
<title>PhysicalQuantity</title>
<g id="a_node3"><a xlink:href="http://emmo.info/emmo/middle/metrology#EMMO_02c0621e_a527_4790_8a0f_2bb51973c819" xlink:title="PhysicalQuantity">
<ellipse fill="#ffffcc" stroke="#000000" stroke-width="2" cx="398.7958" cy="-119" rx="71.4873" ry="18"/>
<text text-anchor="middle" x="398.7958" y="-115.3" font-family="Times,serif" font-size="14.00" fill="#000000">PhysicalQuantity</text>
</a>
</g>
</g>
<!-- PhysicalQuantity&#45;&gt;Mathematical -->
<g id="edge3" class="edge">
<title>PhysicalQuantity&#45;&gt;Mathematical</title>
<path fill="none" stroke="#000000" d="M445.7343,-132.6273C487.9025,-144.8697 549.7693,-162.831 593.723,-175.5917"/>
<polygon fill="none" stroke="#000000" points="592.7927,-178.9661 603.372,-178.3931 594.7444,-172.2437 592.7927,-178.9661"/>
</g>
<!-- Matrix -->
<g id="node4" class="node">
<title>Matrix</title>
<g id="a_node4"><a xlink:href="http://emmo.info/emmo/top/math#EMMO_1cba0b27_15d0_4326_933f_379d0b3565b6" xlink:title="Matrix">
<ellipse fill="#ffffcc" stroke="#000000" cx="1071.7958" cy="-32.5" rx="35.194" ry="18"/>
<text text-anchor="middle" x="1071.7958" y="-28.8" font-family="Times,serif" font-size="14.00" fill="#000000">Matrix</text>
</a>
</g>
</g>
<!-- Array -->
<g id="node14" class="node">
<title>Array</title>
<g id="a_node14"><a xlink:href="http://emmo.info/emmo/top/math#EMMO_28fbea28_2204_4613_87ff_6d877b855fcd" xlink:title="Array">
<ellipse fill="#ffffcc" stroke="#000000" cx="1115.7958" cy="-119" rx="31.3957" ry="18"/>
<text text-anchor="middle" x="1115.7958" y="-115.3" font-family="Times,serif" font-size="14.00" fill="#000000">Array</text>
</a>
</g>
</g>
<!-- Matrix&#45;&gt;Array -->
<g id="edge8" class="edge">
<title>Matrix&#45;&gt;Array</title>
<path fill="none" stroke="#000000" d="M1080.6999,-50.0046C1086.9024,-62.198 1095.2883,-78.6841 1102.3076,-92.4832"/>
<polygon fill="none" stroke="#000000" points="1099.2515,-94.1952 1106.905,-101.5215 1105.4907,-91.0214 1099.2515,-94.1952"/>
</g>
<!-- MathematicalModel -->
<g id="node5" class="node">
<title>MathematicalModel</title>
<g id="a_node5"><a xlink:href="http://emmo.info/emmo/middle/models#EMMO_f7ed665b_c2e1_42bc_889b_6b42ed3a36f0" xlink:title="MathematicalModel">
<ellipse fill="#ffc880" stroke="#000000" stroke-width="2" cx="571.7958" cy="-119" rx="83.3857" ry="18"/>
<text text-anchor="middle" x="571.7958" y="-115.3" font-family="Times,serif" font-size="14.00" fill="#000000">MathematicalModel</text>
</a>
</g>
</g>
<!-- MathematicalModel&#45;&gt;Mathematical -->
<g id="edge14" class="edge">
<title>MathematicalModel&#45;&gt;Mathematical</title>
<path fill="none" stroke="#000000" d="M590.3352,-136.7978C599.6683,-145.7575 611.1278,-156.7586 621.2784,-166.5032"/>
<polygon fill="none" stroke="#000000" points="619.0908,-169.2549 628.7286,-173.6554 623.9385,-164.2052 619.0908,-169.2549"/>
</g>
<!-- Variable&#45;&gt;Mathematical -->
<g id="edge12" class="edge">
<title>Variable&#45;&gt;Mathematical</title>
<path fill="none" stroke="#000000" d="M180.36,-132.8713C185.1082,-134.4347 190.0387,-135.8689 194.7958,-137 327.7996,-168.6231 487.914,-182.3074 577.527,-187.7584"/>
<polygon fill="none" stroke="#000000" points="577.3789,-191.2557 587.5682,-188.3525 577.7924,-184.2679 577.3789,-191.2557"/>
</g>
<!-- Variable&#45;&gt;Mathematical -->
<g id="edge13" class="edge">
<title>Variable&#45;&gt;Mathematical</title>
<path fill="none" stroke="#ffa500" stroke-dasharray="5,2" d="M187.4801,-129.2795C195.7582,-132.1598 204.5382,-135.0367 212.7958,-137 339.7352,-167.1812 491.3692,-181.0222 577.7145,-186.9605"/>
<polygon fill="#ffa500" stroke="#ffa500" points="587.68,-191.1382 577.9372,-186.9754 588.1495,-184.1539 587.68,-191.1382"/>
</g>
<!-- Expression -->
<g id="node8" class="node">
<title>Expression</title>
<g id="a_node8"><a xlink:href="http://emmo.info/emmo/middle/math#EMMO_f9bc8b52_85e9_4b53_b969_dd7724d5b8e4" xlink:title="Expression">
<ellipse fill="#ffffcc" stroke="#000000" stroke-width="2" cx="722.7958" cy="-119" rx="50.0912" ry="18"/>
<text text-anchor="middle" x="722.7958" y="-115.3" font-family="Times,serif" font-size="14.00" fill="#000000">Expression</text>
</a>
</g>
</g>
<!-- Expression&#45;&gt;Mathematical -->
<g id="edge15" class="edge">
<title>Expression&#45;&gt;Mathematical</title>
<path fill="none" stroke="#000000" d="M704.7849,-136.063C695.1068,-145.2318 683.0103,-156.6916 672.3731,-166.7689"/>
<polygon fill="none" stroke="#000000" points="669.7933,-164.3916 664.9409,-173.81 674.6076,-169.4733 669.7933,-164.3916"/>
</g>
<!-- Constant -->
<g id="node9" class="node">
<title>Constant</title>
<g id="a_node9"><a xlink:href="http://emmo.info/emmo/middle/math#EMMO_ae15fb4f_8e4d_41de_a0f9_3997f89ba6a2" xlink:title="Constant">
<ellipse fill="#ffffcc" stroke="#000000" cx="153.7958" cy="-32.5" rx="42.4939" ry="18"/>
<text text-anchor="middle" x="153.7958" y="-28.8" font-family="Times,serif" font-size="14.00" fill="#000000">Constant</text>
</a>
</g>
</g>
<!-- Constant&#45;&gt;Numerical -->
<g id="edge5" class="edge">
<title>Constant&#45;&gt;Numerical</title>
<path fill="none" stroke="#ffa500" stroke-dasharray="5,2" d="M173.671,-48.5673C190.2018,-61.931 213.9354,-81.1175 232.4582,-96.0915"/>
<polygon fill="#ffa500" stroke="#ffa500" points="238.0983,-105.1517 232.522,-96.1431 242.4991,-99.708 238.0983,-105.1517"/>
</g>
<!-- Constant&#45;&gt;Variable -->
<g id="edge4" class="edge">
<title>Constant&#45;&gt;Variable</title>
<path fill="none" stroke="#000000" d="M153.7958,-50.8444C153.7958,-62.3901 153.7958,-77.528 153.7958,-90.6039"/>
<polygon fill="none" stroke="#000000" points="150.2959,-90.9786 153.7958,-100.9786 157.2959,-90.9787 150.2959,-90.9786"/>
</g>
<!-- Formula -->
<g id="node10" class="node">
<title>Formula</title>
<g id="a_node10"><a xlink:href="http://emmo.info/emmo/middle/math#EMMO_88470739_03d3_4c47_a03e_b30a1288d50c" xlink:title="Formula">
<ellipse fill="#ffffcc" stroke="#000000" stroke-width="2" cx="831.7958" cy="-119" rx="40.8928" ry="18"/>
<text text-anchor="middle" x="831.7958" y="-115.3" font-family="Times,serif" font-size="14.00" fill="#000000">Formula</text>
</a>
</g>
</g>
<!-- Formula&#45;&gt;Mathematical -->
<g id="edge11" class="edge">
<title>Formula&#45;&gt;Mathematical</title>
<path fill="none" stroke="#000000" d="M800.831,-131.0512C771.4344,-142.492 726.8628,-159.8388 693.2161,-172.9337"/>
<polygon fill="none" stroke="#000000" points="691.6462,-169.7889 683.5965,-176.6776 694.185,-176.3123 691.6462,-169.7889"/>
</g>
<!-- MathematicalSymbol -->
<g id="node11" class="node">
<title>MathematicalSymbol</title>
<g id="a_node11"><a xlink:href="http://emmo.info/emmo/middle/math#EMMO_5be83f9c_a4ba_4b9a_be1a_5bfc6e891231" xlink:title="MathematicalSymbol">
<ellipse fill="#ffc880" stroke="#000000" stroke-width="2" cx="978.7958" cy="-119" rx="87.9851" ry="18"/>
<text text-anchor="middle" x="978.7958" y="-115.3" font-family="Times,serif" font-size="14.00" fill="#000000">MathematicalSymbol</text>
</a>
</g>
</g>
<!-- MathematicalSymbol&#45;&gt;Mathematical -->
<g id="edge2" class="edge">
<title>MathematicalSymbol&#45;&gt;Mathematical</title>
<path fill="none" stroke="#000000" d="M918.288,-132.1222C857.8212,-145.2355 765.4685,-165.2638 705.607,-178.2458"/>
<polygon fill="none" stroke="#000000" points="704.5875,-174.8854 695.5565,-180.4254 706.0711,-181.7264 704.5875,-174.8854"/>
</g>
<!-- Vector -->
<g id="node12" class="node">
<title>Vector</title>
<g id="a_node12"><a xlink:href="http://emmo.info/emmo/middle/math#EMMO_06658d8d_dcde_4fc9_aae1_17f71c0bcdec" xlink:title="Vector">
<ellipse fill="#ffffcc" stroke="#000000" cx="1159.7958" cy="-32.5" rx="34.394" ry="18"/>
<text text-anchor="middle" x="1159.7958" y="-28.8" font-family="Times,serif" font-size="14.00" fill="#000000">Vector</text>
</a>
</g>
</g>
<!-- Vector&#45;&gt;Array -->
<g id="edge7" class="edge">
<title>Vector&#45;&gt;Array</title>
<path fill="none" stroke="#000000" d="M1150.8918,-50.0046C1144.6893,-62.198 1136.3034,-78.6841 1129.2841,-92.4832"/>
<polygon fill="none" stroke="#000000" points="1126.101,-91.0214 1124.6867,-101.5215 1132.3402,-94.1952 1126.101,-91.0214"/>
</g>
<!-- Unknown -->
<g id="node13" class="node">
<title>Unknown</title>
<g id="a_node13"><a xlink:href="http://emmo.info/emmo/middle/math#EMMO_fe7e56ce_118b_4243_9aad_20eb9f4f31f6" xlink:title="Unknown">
<ellipse fill="#ffffcc" stroke="#000000" cx="259.7958" cy="-32.5" rx="45.4919" ry="18"/>
<text text-anchor="middle" x="259.7958" y="-28.8" font-family="Times,serif" font-size="14.00" fill="#000000">Unknown</text>
</a>
</g>
</g>
<!-- Unknown&#45;&gt;Variable -->
<g id="edge6" class="edge">
<title>Unknown&#45;&gt;Variable</title>
<path fill="none" stroke="#000000" d="M239.8581,-48.77C223.3199,-62.2658 199.6306,-81.5972 181.291,-96.5629"/>
<polygon fill="none" stroke="#000000" points="178.821,-94.0611 173.2861,-103.0952 183.2467,-99.4845 178.821,-94.0611"/>
</g>
<!-- Array&#45;&gt;Mathematical -->
<g id="edge10" class="edge">
<title>Array&#45;&gt;Mathematical</title>
<path fill="none" stroke="#000000" d="M1092.1163,-131.0451C1086.8518,-133.3276 1081.2208,-135.475 1075.7958,-137 952.3609,-171.6984 802.6613,-184.1337 716.6953,-188.5676"/>
<polygon fill="none" stroke="#000000" points="716.3488,-185.0803 706.5337,-189.0696 716.6942,-192.0718 716.3488,-185.0803"/>
</g>
<!-- key1 -->
<g id="node15" class="node">
<title>key1</title>
<text text-anchor="start" x="1268.7958" y="-47.3" font-family="Times,serif" font-size="14.00" fill="#000000">isA</text>
<text text-anchor="start" x="1222.7958" y="-28.3" font-family="Times,serif" font-size="14.00" fill="#000000">hasVariable</text>
<text text-anchor="start" x="1247.7958" y="-9.3" font-family="Times,serif" font-size="14.00" fill="#000000">inverse</text>
</g>
<!-- key2 -->
<g id="node16" class="node">
<title>key2</title>
<text text-anchor="start" x="1340.7958" y="-47.3" font-family="Times,serif" font-size="14.00" fill="#000000"> </text>
<text text-anchor="start" x="1340.7958" y="-28.3" font-family="Times,serif" font-size="14.00" fill="#000000"> </text>
<text text-anchor="start" x="1340.7958" y="-9.3" font-family="Times,serif" font-size="14.00" fill="#000000"> </text>
</g>
<!-- key1&#45;&gt;key2 -->
<g id="edge16" class="edge">
<title>key1:e&#45;&gt;key2:w</title>
<path fill="none" stroke="#000000" d="M1289.7958,-13.5C1307.6604,-13.5 1314.5341,-13.5 1328.4488,-13.5"/>
<polygon fill="#000000" stroke="#000000" points="1338.7959,-17 1328.7958,-13.5001 1338.7958,-10 1338.7959,-17"/>
</g>
<!-- key1&#45;&gt;key2 -->
<g id="edge17" class="edge">
<title>key1:e&#45;&gt;key2:w</title>
<path fill="none" stroke="#ffa500" stroke-dasharray="5,2" d="M1289.7958,-33.5C1307.6604,-33.5 1314.5341,-33.5 1328.4488,-33.5"/>
<polygon fill="#ffa500" stroke="#ffa500" points="1328.7959,-37.0001 1338.7958,-33.5 1328.7958,-30.0001 1328.7959,-37.0001"/>
</g>
<!-- key1&#45;&gt;key2 -->
<g id="edge18" class="edge">
<title>key1:e&#45;&gt;key2:w</title>
<path fill="none" stroke="#000000" d="M1289.7958,-52.5C1307.6604,-52.5 1314.5341,-52.5 1328.4488,-52.5"/>
<polygon fill="none" stroke="#000000" points="1328.7959,-56.0001 1338.7958,-52.5 1328.7958,-49.0001 1328.7959,-56.0001"/>
</g>
</g>
</svg>
