<?xml version="1.0" encoding="UTF-8" standalone="no"?>
<!DOCTYPE svg PUBLIC "-//W3C//DTD SVG 1.1//EN"
 "http://www.w3.org/Graphics/SVG/1.1/DTD/svg11.dtd">
<!-- Generated by graphviz version 2.40.1 (20161225.0304)
 -->
<!-- Title: %3 Pages: 1 -->
<svg width="803pt" height="260pt"
 viewBox="0.00 0.00 803.50 260.00" xmlns="http://www.w3.org/2000/svg" xmlns:xlink="http://www.w3.org/1999/xlink">
<g id="graph0" class="graph" transform="scale(1 1) rotate(0) translate(4 256)">
<title>%3</title>
<polygon fill="#ffffff" stroke="transparent" points="-4,4 -4,-256 799.496,-256 799.496,4 -4,4"/>
<!-- AlgebricOperator -->
<g id="node1" class="node">
<title>AlgebricOperator</title>
<g id="a_node1"><a xlink:href="http://emmo.info/emmo/top/math#EMMO_3c424d37_cf62_41b1_ac9d_a316f8d113d6" xlink:title="AlgebricOperator">
<ellipse fill="#ffffcc" stroke="#000000" cx="306.496" cy="-162" rx="72.5877" ry="18"/>
<text text-anchor="middle" x="306.496" y="-158.3" font-family="Times,serif" font-size="14.00" fill="#000000">AlgebricOperator</text>
</a>
</g>
</g>
<!-- MathematicalOperator -->
<g id="node7" class="node">
<title>MathematicalOperator</title>
<g id="a_node7"><a xlink:href="http://emmo.info/emmo/top/math#EMMO_f6d0c26a_98b6_4cf8_8632_aa259131faaa" xlink:title="MathematicalOperator">
<ellipse fill="#ffffcc" stroke="#000000" stroke-width="2" cx="219.496" cy="-234" rx="90.9839" ry="18"/>
<text text-anchor="middle" x="219.496" y="-230.3" font-family="Times,serif" font-size="14.00" fill="#000000">MathematicalOperator</text>
</a>
</g>
</g>
<!-- AlgebricOperator&#45;&gt;MathematicalOperator -->
<g id="edge1" class="edge">
<title>AlgebricOperator&#45;&gt;MathematicalOperator</title>
<path fill="none" stroke="#000000" d="M285.4357,-179.4292C274.4036,-188.5592 260.7198,-199.8837 248.6819,-209.8461"/>
<polygon fill="none" stroke="#000000" points="246.1363,-207.4097 240.6638,-216.4818 250.5993,-212.8024 246.1363,-207.4097"/>
</g>
<!-- Plus -->
<g id="node2" class="node">
<title>Plus</title>
<g id="a_node2"><a xlink:href="http://emmo.info/emmo/top/math#EMMO_8de14a59_660b_454f_aff8_76a07ce185f4" xlink:title="Plus">
<ellipse fill="#ffc880" stroke="#000000" cx="296.496" cy="-18" rx="27" ry="18"/>
<text text-anchor="middle" x="296.496" y="-14.3" font-family="Times,serif" font-size="14.00" fill="#000000">Plus</text>
</a>
</g>
</g>
<!-- ArithmeticOperator -->
<g id="node11" class="node">
<title>ArithmeticOperator</title>
<g id="a_node11"><a xlink:href="http://emmo.info/emmo/middle/math#EMMO_707f0cd1_941c_4b57_9f20_d0ba30cd6ff3" xlink:title="ArithmeticOperator">
<ellipse fill="#ffffcc" stroke="#000000" cx="432.496" cy="-90" rx="80.6858" ry="18"/>
<text text-anchor="middle" x="432.496" y="-86.3" font-family="Times,serif" font-size="14.00" fill="#000000">ArithmeticOperator</text>
</a>
</g>
</g>
<!-- Plus&#45;&gt;ArithmeticOperator -->
<g id="edge3" class="edge">
<title>Plus&#45;&gt;ArithmeticOperator</title>
<path fill="none" stroke="#000000" d="M317.746,-29.25C337.553,-39.7361 367.6166,-55.6521 392.0033,-68.5627"/>
<polygon fill="none" stroke="#000000" points="390.563,-71.7604 401.0386,-73.3461 393.8383,-65.5739 390.563,-71.7604"/>
</g>
<!-- Laplacian -->
<g id="node3" class="node">
<title>Laplacian</title>
<g id="a_node3"><a xlink:href="http://emmo.info/emmo/top/math#EMMO_048a14e3_65fb_457d_8695_948965c89492" xlink:title="Laplacian">
<ellipse fill="#ffc880" stroke="#000000" cx="45.496" cy="-90" rx="45.4919" ry="18"/>
<text text-anchor="middle" x="45.496" y="-86.3" font-family="Times,serif" font-size="14.00" fill="#000000">Laplacian</text>
</a>
</g>
</g>
<!-- DifferentialOperator -->
<g id="node5" class="node">
<title>DifferentialOperator</title>
<g id="a_node5"><a xlink:href="http://emmo.info/emmo/top/math#EMMO_f8a2fe9f_458b_4771_9aba_a50e76afc52d" xlink:title="DifferentialOperator">
<ellipse fill="#ffffcc" stroke="#000000" cx="132.496" cy="-162" rx="83.3857" ry="18"/>
<text text-anchor="middle" x="132.496" y="-158.3" font-family="Times,serif" font-size="14.00" fill="#000000">DifferentialOperator</text>
</a>
</g>
</g>
<!-- Laplacian&#45;&gt;DifferentialOperator -->
<g id="edge8" class="edge">
<title>Laplacian&#45;&gt;DifferentialOperator</title>
<path fill="none" stroke="#000000" d="M65.2376,-106.3379C76.506,-115.6635 90.8427,-127.5283 103.3821,-137.9058"/>
<polygon fill="none" stroke="#000000" points="101.377,-140.7895 111.3125,-144.4688 105.84,-135.3967 101.377,-140.7895"/>
</g>
<!-- Exponent -->
<g id="node4" class="node">
<title>Exponent</title>
<g id="a_node4"><a xlink:href="http://emmo.info/emmo/top/math#EMMO_223d9523_4169_4ecd_b8af_acad1215e1ff" xlink:title="Exponent">
<ellipse fill="#ffffcc" stroke="#000000" cx="289.496" cy="-90" rx="44.393" ry="18"/>
<text text-anchor="middle" x="289.496" y="-86.3" font-family="Times,serif" font-size="14.00" fill="#000000">Exponent</text>
</a>
</g>
</g>
<!-- Exponent&#45;&gt;AlgebricOperator -->
<g id="edge10" class="edge">
<title>Exponent&#45;&gt;AlgebricOperator</title>
<path fill="none" stroke="#000000" d="M293.7858,-108.1686C295.6039,-115.869 297.7659,-125.0257 299.7865,-133.5834"/>
<polygon fill="none" stroke="#000000" points="296.444,-134.6586 302.1484,-143.5867 303.2567,-133.05 296.444,-134.6586"/>
</g>
<!-- DifferentialOperator&#45;&gt;MathematicalOperator -->
<g id="edge6" class="edge">
<title>DifferentialOperator&#45;&gt;MathematicalOperator</title>
<path fill="none" stroke="#000000" d="M153.5562,-179.4292C164.5884,-188.5592 178.2721,-199.8837 190.31,-209.8461"/>
<polygon fill="none" stroke="#000000" points="188.3926,-212.8024 198.3281,-216.4818 192.8556,-207.4097 188.3926,-212.8024"/>
</g>
<!-- Minus -->
<g id="node6" class="node">
<title>Minus</title>
<g id="a_node6"><a xlink:href="http://emmo.info/emmo/top/math#EMMO_46d5643b_9706_4b67_8bea_ed77d6026539" xlink:title="Minus">
<ellipse fill="#ffc880" stroke="#000000" cx="375.496" cy="-18" rx="33.5952" ry="18"/>
<text text-anchor="middle" x="375.496" y="-14.3" font-family="Times,serif" font-size="14.00" fill="#000000">Minus</text>
</a>
</g>
</g>
<!-- Minus&#45;&gt;ArithmeticOperator -->
<g id="edge7" class="edge">
<title>Minus&#45;&gt;ArithmeticOperator</title>
<path fill="none" stroke="#000000" d="M388.7162,-34.6992C395.6534,-43.462 404.3054,-54.3909 412.0818,-64.2137"/>
<polygon fill="none" stroke="#000000" points="409.3999,-66.4649 418.3512,-72.1329 414.8883,-62.1199 409.3999,-66.4649"/>
</g>
<!-- Multiplication -->
<g id="node8" class="node">
<title>Multiplication</title>
<g id="a_node8"><a xlink:href="http://emmo.info/emmo/top/math#EMMO_2b1303e8_d4c3_453b_9918_76f1d009543f" xlink:title="Multiplication">
<ellipse fill="#ffc880" stroke="#000000" cx="489.496" cy="-18" rx="61.99" ry="18"/>
<text text-anchor="middle" x="489.496" y="-14.3" font-family="Times,serif" font-size="14.00" fill="#000000">Multiplication</text>
</a>
</g>
</g>
<!-- Multiplication&#45;&gt;ArithmeticOperator -->
<g id="edge4" class="edge">
<title>Multiplication&#45;&gt;ArithmeticOperator</title>
<path fill="none" stroke="#000000" d="M475.4061,-35.7978C468.6235,-44.3652 460.3634,-54.7991 452.9082,-64.2161"/>
<polygon fill="none" stroke="#000000" points="450.0842,-62.1445 446.6213,-72.1575 455.5725,-66.4894 450.0842,-62.1445"/>
</g>
<!-- Division -->
<g id="node9" class="node">
<title>Division</title>
<g id="a_node9"><a xlink:href="http://emmo.info/emmo/top/math#EMMO_a365b3c1_7bde_41d7_a15b_2820762e85f4" xlink:title="Division">
<ellipse fill="#ffc880" stroke="#000000" cx="610.496" cy="-18" rx="40.8928" ry="18"/>
<text text-anchor="middle" x="610.496" y="-14.3" font-family="Times,serif" font-size="14.00" fill="#000000">Division</text>
</a>
</g>
</g>
<!-- Division&#45;&gt;ArithmeticOperator -->
<g id="edge5" class="edge">
<title>Division&#45;&gt;ArithmeticOperator</title>
<path fill="none" stroke="#000000" d="M580.3007,-30.2138C553.1542,-41.1944 512.7962,-57.519 481.1078,-70.3368"/>
<polygon fill="none" stroke="#000000" points="479.5339,-67.1979 471.576,-74.1923 482.1588,-73.6871 479.5339,-67.1979"/>
</g>
<!-- Gradient -->
<g id="node10" class="node">
<title>Gradient</title>
<g id="a_node10"><a xlink:href="http://emmo.info/emmo/top/math#EMMO_b5c58790_fb2d_42eb_b184_2a3f6ca60acb" xlink:title="Gradient">
<ellipse fill="#ffc880" stroke="#000000" cx="150.496" cy="-90" rx="41.6928" ry="18"/>
<text text-anchor="middle" x="150.496" y="-86.3" font-family="Times,serif" font-size="14.00" fill="#000000">Gradient</text>
</a>
</g>
</g>
<!-- Gradient&#45;&gt;DifferentialOperator -->
<g id="edge2" class="edge">
<title>Gradient&#45;&gt;DifferentialOperator</title>
<path fill="none" stroke="#000000" d="M145.9538,-108.1686C144.0075,-115.9537 141.6892,-125.2271 139.5296,-133.8653"/>
<polygon fill="none" stroke="#000000" points="136.1292,-133.0364 137.0993,-143.5867 142.9202,-134.7342 136.1292,-133.0364"/>
</g>
<!-- ArithmeticOperator&#45;&gt;AlgebricOperator -->
<g id="edge9" class="edge">
<title>ArithmeticOperator&#45;&gt;AlgebricOperator</title>
<path fill="none" stroke="#000000" d="M402.9546,-106.8808C385.452,-116.8823 363.0958,-129.6573 344.3139,-140.3898"/>
<polygon fill="none" stroke="#000000" points="342.3637,-137.473 335.4177,-145.4733 345.8367,-143.5507 342.3637,-137.473"/>
</g>
<!-- key1 -->
<g id="node12" class="node">
<title>key1</title>
<text text-anchor="start" x="687.496" y="-13.8" font-family="Times,serif" font-size="14.00" fill="#000000">isA</text>
</g>
<!-- key2 -->
<g id="node13" class="node">
<title>key2</title>
<text text-anchor="start" x="766.496" y="-13.8" font-family="Times,serif" font-size="14.00" fill="#000000"> </text>
</g>
<!-- key1&#45;&gt;key2 -->
<g id="edge11" class="edge">
<title>key1:e&#45;&gt;key2:w</title>
<path fill="none" stroke="#000000" d="M708.496,-19C729.496,-19 737.2069,-19 754.0541,-19"/>
<polygon fill="none" stroke="#000000" points="754.496,-22.5001 764.496,-19 754.4959,-15.5001 754.496,-22.5001"/>
</g>
</g>
</svg>
