<?xml version="1.0" encoding="UTF-8" standalone="no"?>
<!DOCTYPE svg PUBLIC "-//W3C//DTD SVG 1.1//EN"
 "http://www.w3.org/Graphics/SVG/1.1/DTD/svg11.dtd">
<!-- Generated by graphviz version 2.40.1 (20161225.0304)
 -->
<!-- Title: %3 Pages: 1 -->
<svg width="666pt" height="260pt"
 viewBox="0.00 0.00 666.24 260.00" xmlns="http://www.w3.org/2000/svg" xmlns:xlink="http://www.w3.org/1999/xlink">
<g id="graph0" class="graph" transform="scale(1 1) rotate(0) translate(4 256)">
<title>%3</title>
<polygon fill="#ffffff" stroke="transparent" points="-4,4 -4,-256 662.2405,-256 662.2405,4 -4,4"/>
<!-- MathematicalOperator -->
<g id="node1" class="node">
<title>MathematicalOperator</title>
<g id="a_node1"><a xlink:href="http://emmo.info/emmo/top/math#EMMO_f6d0c26a_98b6_4cf8_8632_aa259131faaa" xlink:title="MathematicalOperator">
<ellipse fill="#ffffcc" stroke="#000000" stroke-width="2" cx="437.7445" cy="-234" rx="90.9839" ry="18"/>
<text text-anchor="middle" x="437.7445" y="-230.3" font-family="Times,serif" font-size="14.00" fill="#000000">MathematicalOperator</text>
</a>
</g>
</g>
<!-- Multiplication -->
<g id="node2" class="node">
<title>Multiplication</title>
<g id="a_node2"><a xlink:href="http://emmo.info/emmo/top/math#EMMO_2b1303e8_d4c3_453b_9918_76f1d009543f" xlink:title="Multiplication">
<ellipse fill="#ffc880" stroke="#000000" cx="61.7445" cy="-18" rx="61.99" ry="18"/>
<text text-anchor="middle" x="61.7445" y="-14.3" font-family="Times,serif" font-size="14.00" fill="#000000">Multiplication</text>
</a>
</g>
</g>
<!-- ArithmeticOperator -->
<g id="node5" class="node">
<title>ArithmeticOperator</title>
<g id="a_node5"><a xlink:href="http://emmo.info/emmo/middle/math#EMMO_707f0cd1_941c_4b57_9f20_d0ba30cd6ff3" xlink:title="ArithmeticOperator">
<ellipse fill="#ffffcc" stroke="#000000" cx="225.7445" cy="-90" rx="80.6858" ry="18"/>
<text text-anchor="middle" x="225.7445" y="-86.3" font-family="Times,serif" font-size="14.00" fill="#000000">ArithmeticOperator</text>
</a>
</g>
</g>
<!-- Multiplication&#45;&gt;ArithmeticOperator -->
<g id="edge1" class="edge">
<title>Multiplication&#45;&gt;ArithmeticOperator</title>
<path fill="none" stroke="#000000" d="M96.1243,-33.0936C120.3836,-43.744 153.1526,-58.1304 179.6723,-69.7732"/>
<polygon fill="none" stroke="#000000" points="178.5693,-73.1113 189.1327,-73.9265 181.3832,-66.7018 178.5693,-73.1113"/>
</g>
<!-- Division -->
<g id="node3" class="node">
<title>Division</title>
<g id="a_node3"><a xlink:href="http://emmo.info/emmo/top/math#EMMO_a365b3c1_7bde_41d7_a15b_2820762e85f4" xlink:title="Division">
<ellipse fill="#ffc880" stroke="#000000" cx="182.7445" cy="-18" rx="40.8928" ry="18"/>
<text text-anchor="middle" x="182.7445" y="-14.3" font-family="Times,serif" font-size="14.00" fill="#000000">Division</text>
</a>
</g>
</g>
<!-- Division&#45;&gt;ArithmeticOperator -->
<g id="edge7" class="edge">
<title>Division&#45;&gt;ArithmeticOperator</title>
<path fill="none" stroke="#000000" d="M193.1536,-35.4292C198.1123,-43.7321 204.1548,-53.8498 209.6837,-63.1075"/>
<polygon fill="none" stroke="#000000" points="206.8499,-65.1886 214.9822,-71.9794 212.8597,-61.5994 206.8499,-65.1886"/>
</g>
<!-- Gradient -->
<g id="node4" class="node">
<title>Gradient</title>
<g id="a_node4"><a xlink:href="http://emmo.info/emmo/top/math#EMMO_b5c58790_fb2d_42eb_b184_2a3f6ca60acb" xlink:title="Gradient">
<ellipse fill="#ffc880" stroke="#000000" cx="507.7445" cy="-90" rx="41.6928" ry="18"/>
<text text-anchor="middle" x="507.7445" y="-86.3" font-family="Times,serif" font-size="14.00" fill="#000000">Gradient</text>
</a>
</g>
</g>
<!-- DifferentialOperator -->
<g id="node9" class="node">
<title>DifferentialOperator</title>
<g id="a_node9"><a xlink:href="http://emmo.info/emmo/top/math#EMMO_f8a2fe9f_458b_4771_9aba_a50e76afc52d" xlink:title="DifferentialOperator">
<ellipse fill="#ffffcc" stroke="#000000" cx="524.7445" cy="-162" rx="83.3857" ry="18"/>
<text text-anchor="middle" x="524.7445" y="-158.3" font-family="Times,serif" font-size="14.00" fill="#000000">DifferentialOperator</text>
</a>
</g>
</g>
<!-- Gradient&#45;&gt;DifferentialOperator -->
<g id="edge9" class="edge">
<title>Gradient&#45;&gt;DifferentialOperator</title>
<path fill="none" stroke="#000000" d="M512.0343,-108.1686C513.8525,-115.869 516.0145,-125.0257 518.035,-133.5834"/>
<polygon fill="none" stroke="#000000" points="514.6926,-134.6586 520.3969,-143.5867 521.5053,-133.05 514.6926,-134.6586"/>
</g>
<!-- AlgebricOperator -->
<g id="node6" class="node">
<title>AlgebricOperator</title>
<g id="a_node6"><a xlink:href="http://emmo.info/emmo/top/math#EMMO_3c424d37_cf62_41b1_ac9d_a316f8d113d6" xlink:title="AlgebricOperator">
<ellipse fill="#ffffcc" stroke="#000000" cx="350.7445" cy="-162" rx="72.5877" ry="18"/>
<text text-anchor="middle" x="350.7445" y="-158.3" font-family="Times,serif" font-size="14.00" fill="#000000">AlgebricOperator</text>
</a>
</g>
</g>
<!-- ArithmeticOperator&#45;&gt;AlgebricOperator -->
<g id="edge8" class="edge">
<title>ArithmeticOperator&#45;&gt;AlgebricOperator</title>
<path fill="none" stroke="#000000" d="M255.0515,-106.8808C272.2911,-116.8108 294.2773,-129.4749 312.8269,-140.1595"/>
<polygon fill="none" stroke="#000000" points="311.2089,-143.2666 321.6212,-145.225 314.7028,-137.2008 311.2089,-143.2666"/>
</g>
<!-- AlgebricOperator&#45;&gt;MathematicalOperator -->
<g id="edge10" class="edge">
<title>AlgebricOperator&#45;&gt;MathematicalOperator</title>
<path fill="none" stroke="#000000" d="M371.8048,-179.4292C382.8369,-188.5592 396.5207,-199.8837 408.5585,-209.8461"/>
<polygon fill="none" stroke="#000000" points="406.6412,-212.8024 416.5767,-216.4818 411.1042,-207.4097 406.6412,-212.8024"/>
</g>
<!-- Plus -->
<g id="node7" class="node">
<title>Plus</title>
<g id="a_node7"><a xlink:href="http://emmo.info/emmo/top/math#EMMO_8de14a59_660b_454f_aff8_76a07ce185f4" xlink:title="Plus">
<ellipse fill="#ffc880" stroke="#000000" cx="268.7445" cy="-18" rx="27" ry="18"/>
<text text-anchor="middle" x="268.7445" y="-14.3" font-family="Times,serif" font-size="14.00" fill="#000000">Plus</text>
</a>
</g>
</g>
<!-- Plus&#45;&gt;ArithmeticOperator -->
<g id="edge6" class="edge">
<title>Plus&#45;&gt;ArithmeticOperator</title>
<path fill="none" stroke="#000000" d="M258.5541,-35.063C253.5102,-43.5086 247.3054,-53.8981 241.6543,-63.3604"/>
<polygon fill="none" stroke="#000000" points="238.5844,-61.6747 236.4618,-72.0547 244.5942,-65.2639 238.5844,-61.6747"/>
</g>
<!-- Laplacian -->
<g id="node8" class="node">
<title>Laplacian</title>
<g id="a_node8"><a xlink:href="http://emmo.info/emmo/top/math#EMMO_048a14e3_65fb_457d_8695_948965c89492" xlink:title="Laplacian">
<ellipse fill="#ffc880" stroke="#000000" cx="612.7445" cy="-90" rx="45.4919" ry="18"/>
<text text-anchor="middle" x="612.7445" y="-86.3" font-family="Times,serif" font-size="14.00" fill="#000000">Laplacian</text>
</a>
</g>
</g>
<!-- Laplacian&#45;&gt;DifferentialOperator -->
<g id="edge4" class="edge">
<title>Laplacian&#45;&gt;DifferentialOperator</title>
<path fill="none" stroke="#000000" d="M592.776,-106.3379C581.378,-115.6635 566.8766,-127.5283 554.193,-137.9058"/>
<polygon fill="none" stroke="#000000" points="551.6948,-135.4276 546.1715,-144.4688 556.1275,-140.8453 551.6948,-135.4276"/>
</g>
<!-- DifferentialOperator&#45;&gt;MathematicalOperator -->
<g id="edge5" class="edge">
<title>DifferentialOperator&#45;&gt;MathematicalOperator</title>
<path fill="none" stroke="#000000" d="M503.6842,-179.4292C492.6521,-188.5592 478.9683,-199.8837 466.9305,-209.8461"/>
<polygon fill="none" stroke="#000000" points="464.3849,-207.4097 458.9124,-216.4818 468.8479,-212.8024 464.3849,-207.4097"/>
</g>
<!-- Exponent -->
<g id="node10" class="node">
<title>Exponent</title>
<g id="a_node10"><a xlink:href="http://emmo.info/emmo/top/math#EMMO_223d9523_4169_4ecd_b8af_acad1215e1ff" xlink:title="Exponent">
<ellipse fill="#ffffcc" stroke="#000000" cx="368.7445" cy="-90" rx="44.393" ry="18"/>
<text text-anchor="middle" x="368.7445" y="-86.3" font-family="Times,serif" font-size="14.00" fill="#000000">Exponent</text>
</a>
</g>
</g>
<!-- Exponent&#45;&gt;AlgebricOperator -->
<g id="edge3" class="edge">
<title>Exponent&#45;&gt;AlgebricOperator</title>
<path fill="none" stroke="#000000" d="M364.2024,-108.1686C362.2561,-115.9537 359.9378,-125.2271 357.7782,-133.8653"/>
<polygon fill="none" stroke="#000000" points="354.3778,-133.0364 355.3478,-143.5867 361.1688,-134.7342 354.3778,-133.0364"/>
</g>
<!-- Minus -->
<g id="node11" class="node">
<title>Minus</title>
<g id="a_node11"><a xlink:href="http://emmo.info/emmo/top/math#EMMO_46d5643b_9706_4b67_8bea_ed77d6026539" xlink:title="Minus">
<ellipse fill="#ffc880" stroke="#000000" cx="347.7445" cy="-18" rx="33.5952" ry="18"/>
<text text-anchor="middle" x="347.7445" y="-14.3" font-family="Times,serif" font-size="14.00" fill="#000000">Minus</text>
</a>
</g>
</g>
<!-- Minus&#45;&gt;ArithmeticOperator -->
<g id="edge2" class="edge">
<title>Minus&#45;&gt;ArithmeticOperator</title>
<path fill="none" stroke="#000000" d="M325.0832,-31.3739C307.6755,-41.6473 283.2628,-56.0548 262.9952,-68.016"/>
<polygon fill="none" stroke="#000000" points="261.1392,-65.0472 254.306,-73.1441 264.697,-71.0757 261.1392,-65.0472"/>
</g>
<!-- key1 -->
<g id="node12" class="node">
<title>key1</title>
<text text-anchor="start" x="417.7445" y="-13.8" font-family="Times,serif" font-size="14.00" fill="#000000">isA</text>
</g>
<!-- key2 -->
<g id="node13" class="node">
<title>key2</title>
<text text-anchor="start" x="496.7445" y="-13.8" font-family="Times,serif" font-size="14.00" fill="#000000"> </text>
</g>
<!-- key1&#45;&gt;key2 -->
<g id="edge11" class="edge">
<title>key1:e&#45;&gt;key2:w</title>
<path fill="none" stroke="#000000" d="M438.7445,-19C459.7445,-19 467.4555,-19 484.3026,-19"/>
<polygon fill="none" stroke="#000000" points="484.7446,-22.5001 494.7445,-19 484.7445,-15.5001 484.7446,-22.5001"/>
</g>
</g>
</svg>
