<?xml version="1.0" encoding="UTF-8" standalone="no"?>
<!DOCTYPE svg PUBLIC "-//W3C//DTD SVG 1.1//EN"
 "http://www.w3.org/Graphics/SVG/1.1/DTD/svg11.dtd">
<!-- Generated by graphviz version 2.40.1 (20161225.0304)
 -->
<!-- Title: %3 Pages: 1 -->
<svg width="1103pt" height="217pt"
 viewBox="0.00 0.00 1103.10 217.00" xmlns="http://www.w3.org/2000/svg" xmlns:xlink="http://www.w3.org/1999/xlink">
<g id="graph0" class="graph" transform="scale(1 1) rotate(0) translate(4 213)">
<title>%3</title>
<polygon fill="#ffffff" stroke="transparent" points="-4,4 -4,-213 1099.0957,-213 1099.0957,4 -4,4"/>
<!-- Mathematical -->
<g id="node1" class="node">
<title>Mathematical</title>
<g id="a_node1"><a xlink:href="http://emmo.info/emmo/middle/math#EMMO_54ee6b5e_5261_44a8_86eb_5717e7fdb9d0" xlink:title="Mathematical">
<ellipse fill="#ffffcc" stroke="#000000" stroke-width="2" cx="514.0957" cy="-191" rx="59.5901" ry="18"/>
<text text-anchor="middle" x="514.0957" y="-187.3" font-family="Times,serif" font-size="14.00" fill="#000000">Mathematical</text>
</a>
</g>
</g>
<!-- Matrix -->
<g id="node2" class="node">
<title>Matrix</title>
<g id="a_node2"><a xlink:href="http://emmo.info/emmo/top/math#EMMO_1cba0b27_15d0_4326_933f_379d0b3565b6" xlink:title="Matrix">
<ellipse fill="#ffffcc" stroke="#000000" cx="797.0957" cy="-32.5" rx="35.194" ry="18"/>
<text text-anchor="middle" x="797.0957" y="-28.8" font-family="Times,serif" font-size="14.00" fill="#000000">Matrix</text>
</a>
</g>
</g>
<!-- Array -->
<g id="node12" class="node">
<title>Array</title>
<g id="a_node12"><a xlink:href="http://emmo.info/emmo/top/math#EMMO_28fbea28_2204_4613_87ff_6d877b855fcd" xlink:title="Array">
<ellipse fill="#ffffcc" stroke="#000000" cx="841.0957" cy="-119" rx="31.3957" ry="18"/>
<text text-anchor="middle" x="841.0957" y="-115.3" font-family="Times,serif" font-size="14.00" fill="#000000">Array</text>
</a>
</g>
</g>
<!-- Matrix&#45;&gt;Array -->
<g id="edge4" class="edge">
<title>Matrix&#45;&gt;Array</title>
<path fill="none" stroke="#000000" d="M805.9998,-50.0046C812.2023,-62.198 820.5882,-78.6841 827.6074,-92.4832"/>
<polygon fill="none" stroke="#000000" points="824.5514,-94.1952 832.2049,-101.5215 830.7906,-91.0214 824.5514,-94.1952"/>
</g>
<!-- Numerical -->
<g id="node3" class="node">
<title>Numerical</title>
<g id="a_node3"><a xlink:href="http://emmo.info/emmo/middle/math#EMMO_4ce76d7f_03f8_45b6_9003_90052a79bfaa" xlink:title="Numerical">
<ellipse fill="#ffffcc" stroke="#000000" cx="48.0957" cy="-119" rx="48.1917" ry="18"/>
<text text-anchor="middle" x="48.0957" y="-115.3" font-family="Times,serif" font-size="14.00" fill="#000000">Numerical</text>
</a>
</g>
</g>
<!-- Numerical&#45;&gt;Mathematical -->
<g id="edge6" class="edge">
<title>Numerical&#45;&gt;Mathematical</title>
<path fill="none" stroke="#000000" d="M83.7158,-131.2965C90.7427,-133.424 98.1056,-135.4473 105.0957,-137 223.4413,-163.2873 364.0878,-178.4198 445.8107,-185.6565"/>
<polygon fill="none" stroke="#000000" points="445.7006,-189.1601 455.9668,-186.542 446.3086,-182.1866 445.7006,-189.1601"/>
</g>
<!-- Variable -->
<g id="node4" class="node">
<title>Variable</title>
<g id="a_node4"><a xlink:href="http://emmo.info/emmo/middle/math#EMMO_1eed0732_e3f1_4b2c_a9c4_b4e75eeb5895" xlink:title="Variable">
<ellipse fill="#ffffcc" stroke="#000000" cx="155.0957" cy="-119" rx="40.8928" ry="18"/>
<text text-anchor="middle" x="155.0957" y="-115.3" font-family="Times,serif" font-size="14.00" fill="#000000">Variable</text>
</a>
</g>
</g>
<!-- Variable&#45;&gt;Mathematical -->
<g id="edge9" class="edge">
<title>Variable&#45;&gt;Mathematical</title>
<path fill="none" stroke="#000000" d="M181.9864,-132.7305C186.6423,-134.297 191.4586,-135.77 196.0957,-137 281.4118,-159.6304 382.5574,-175.2507 447.5742,-183.6662"/>
<polygon fill="none" stroke="#000000" points="447.3287,-187.1631 457.6909,-184.9549 448.2134,-180.2192 447.3287,-187.1631"/>
</g>
<!-- Variable&#45;&gt;Mathematical -->
<g id="edge10" class="edge">
<title>Variable&#45;&gt;Mathematical</title>
<path fill="none" stroke="#ffa500" stroke-dasharray="5,2" d="M189.1161,-129.111C197.3171,-131.9508 205.9808,-134.8475 214.0957,-137 294.2499,-158.2612 388.3763,-173.3349 449.5999,-182.0597"/>
<polygon fill="#ffa500" stroke="#ffa500" points="459.022,-186.9234 449.6089,-182.0608 459.9998,-179.992 459.022,-186.9234"/>
</g>
<!-- Expression -->
<g id="node5" class="node">
<title>Expression</title>
<g id="a_node5"><a xlink:href="http://emmo.info/emmo/middle/math#EMMO_f9bc8b52_85e9_4b53_b969_dd7724d5b8e4" xlink:title="Expression">
<ellipse fill="#ffffcc" stroke="#000000" stroke-width="2" cx="264.0957" cy="-119" rx="50.0912" ry="18"/>
<text text-anchor="middle" x="264.0957" y="-115.3" font-family="Times,serif" font-size="14.00" fill="#000000">Expression</text>
</a>
</g>
</g>
<!-- Expression&#45;&gt;Mathematical -->
<g id="edge12" class="edge">
<title>Expression&#45;&gt;Mathematical</title>
<path fill="none" stroke="#000000" d="M302.1468,-130.7345C309.1082,-132.8455 316.3144,-135.0072 323.0957,-137 369.2268,-150.5565 421.8119,-165.3772 460.1112,-176.0567"/>
<polygon fill="none" stroke="#000000" points="459.4493,-179.5055 470.0217,-178.8166 461.3273,-172.7621 459.4493,-179.5055"/>
</g>
<!-- MathematicalSymbol -->
<g id="node6" class="node">
<title>MathematicalSymbol</title>
<g id="a_node6"><a xlink:href="http://emmo.info/emmo/middle/math#EMMO_5be83f9c_a4ba_4b9a_be1a_5bfc6e891231" xlink:title="MathematicalSymbol">
<ellipse fill="#ffc880" stroke="#000000" stroke-width="2" cx="420.0957" cy="-119" rx="87.9851" ry="18"/>
<text text-anchor="middle" x="420.0957" y="-115.3" font-family="Times,serif" font-size="14.00" fill="#000000">MathematicalSymbol</text>
</a>
</g>
</g>
<!-- MathematicalSymbol&#45;&gt;Mathematical -->
<g id="edge7" class="edge">
<title>MathematicalSymbol&#45;&gt;Mathematical</title>
<path fill="none" stroke="#000000" d="M442.8505,-136.4292C455.2695,-145.9416 470.7985,-157.8361 484.1859,-168.0903"/>
<polygon fill="none" stroke="#000000" points="482.1307,-170.9249 492.1978,-174.2271 486.3872,-165.3677 482.1307,-170.9249"/>
</g>
<!-- MathematicalModel -->
<g id="node7" class="node">
<title>MathematicalModel</title>
<g id="a_node7"><a xlink:href="http://emmo.info/emmo/middle/models#EMMO_f7ed665b_c2e1_42bc_889b_6b42ed3a36f0" xlink:title="MathematicalModel">
<ellipse fill="#ffc880" stroke="#000000" stroke-width="2" cx="609.0957" cy="-119" rx="83.3857" ry="18"/>
<text text-anchor="middle" x="609.0957" y="-115.3" font-family="Times,serif" font-size="14.00" fill="#000000">MathematicalModel</text>
</a>
</g>
</g>
<!-- MathematicalModel&#45;&gt;Mathematical -->
<g id="edge13" class="edge">
<title>MathematicalModel&#45;&gt;Mathematical</title>
<path fill="none" stroke="#000000" d="M586.0989,-136.4292C573.5478,-145.9416 557.8536,-157.8361 544.3238,-168.0903"/>
<polygon fill="none" stroke="#000000" points="542.0823,-165.3975 536.2267,-174.2271 546.3105,-170.9763 542.0823,-165.3975"/>
</g>
<!-- Constant -->
<g id="node8" class="node">
<title>Constant</title>
<g id="a_node8"><a xlink:href="http://emmo.info/emmo/middle/math#EMMO_ae15fb4f_8e4d_41de_a0f9_3997f89ba6a2" xlink:title="Constant">
<ellipse fill="#ffffcc" stroke="#000000" cx="49.0957" cy="-32.5" rx="42.4939" ry="18"/>
<text text-anchor="middle" x="49.0957" y="-28.8" font-family="Times,serif" font-size="14.00" fill="#000000">Constant</text>
</a>
</g>
</g>
<!-- Constant&#45;&gt;Numerical -->
<g id="edge3" class="edge">
<title>Constant&#45;&gt;Numerical</title>
<path fill="none" stroke="#ffa500" stroke-dasharray="5,2" d="M48.8837,-50.8444C48.7502,-62.3901 48.5752,-77.528 48.424,-90.6039"/>
<polygon fill="#ffa500" stroke="#ffa500" points="44.8043,-100.9381 48.4198,-90.9793 51.8038,-101.0191 44.8043,-100.9381"/>
</g>
<!-- Constant&#45;&gt;Variable -->
<g id="edge2" class="edge">
<title>Constant&#45;&gt;Variable</title>
<path fill="none" stroke="#000000" d="M69.0335,-48.77C85.5717,-62.2658 109.261,-81.5972 127.6006,-96.5629"/>
<polygon fill="none" stroke="#000000" points="125.6449,-99.4845 135.6055,-103.0952 130.0706,-94.0611 125.6449,-99.4845"/>
</g>
<!-- Formula -->
<g id="node9" class="node">
<title>Formula</title>
<g id="a_node9"><a xlink:href="http://emmo.info/emmo/middle/math#EMMO_88470739_03d3_4c47_a03e_b30a1288d50c" xlink:title="Formula">
<ellipse fill="#ffffcc" stroke="#000000" stroke-width="2" cx="751.0957" cy="-119" rx="40.8928" ry="18"/>
<text text-anchor="middle" x="751.0957" y="-115.3" font-family="Times,serif" font-size="14.00" fill="#000000">Formula</text>
</a>
</g>
</g>
<!-- Formula&#45;&gt;Mathematical -->
<g id="edge14" class="edge">
<title>Formula&#45;&gt;Mathematical</title>
<path fill="none" stroke="#000000" d="M719.7288,-130.641C713.5754,-132.8257 707.1517,-135.0378 701.0957,-137 656.8316,-151.3422 606.084,-165.8784 568.6334,-176.2506"/>
<polygon fill="none" stroke="#000000" points="567.6354,-172.8951 558.9262,-178.9284 569.4969,-179.6431 567.6354,-172.8951"/>
</g>
<!-- Vector -->
<g id="node10" class="node">
<title>Vector</title>
<g id="a_node10"><a xlink:href="http://emmo.info/emmo/middle/math#EMMO_06658d8d_dcde_4fc9_aae1_17f71c0bcdec" xlink:title="Vector">
<ellipse fill="#ffffcc" stroke="#000000" cx="885.0957" cy="-32.5" rx="34.394" ry="18"/>
<text text-anchor="middle" x="885.0957" y="-28.8" font-family="Times,serif" font-size="14.00" fill="#000000">Vector</text>
</a>
</g>
</g>
<!-- Vector&#45;&gt;Array -->
<g id="edge1" class="edge">
<title>Vector&#45;&gt;Array</title>
<path fill="none" stroke="#000000" d="M876.1917,-50.0046C869.9892,-62.198 861.6032,-78.6841 854.584,-92.4832"/>
<polygon fill="none" stroke="#000000" points="851.4009,-91.0214 849.9865,-101.5215 857.6401,-94.1952 851.4009,-91.0214"/>
</g>
<!-- Unknown -->
<g id="node11" class="node">
<title>Unknown</title>
<g id="a_node11"><a xlink:href="http://emmo.info/emmo/middle/math#EMMO_fe7e56ce_118b_4243_9aad_20eb9f4f31f6" xlink:title="Unknown">
<ellipse fill="#ffffcc" stroke="#000000" cx="155.0957" cy="-32.5" rx="45.4919" ry="18"/>
<text text-anchor="middle" x="155.0957" y="-28.8" font-family="Times,serif" font-size="14.00" fill="#000000">Unknown</text>
</a>
</g>
</g>
<!-- Unknown&#45;&gt;Variable -->
<g id="edge11" class="edge">
<title>Unknown&#45;&gt;Variable</title>
<path fill="none" stroke="#000000" d="M155.0957,-50.8444C155.0957,-62.3901 155.0957,-77.528 155.0957,-90.6039"/>
<polygon fill="none" stroke="#000000" points="151.5958,-90.9786 155.0957,-100.9786 158.5958,-90.9787 151.5958,-90.9786"/>
</g>
<!-- Array&#45;&gt;Mathematical -->
<g id="edge8" class="edge">
<title>Array&#45;&gt;Mathematical</title>
<path fill="none" stroke="#000000" d="M817.3421,-130.7963C812.0822,-133.0943 806.4719,-135.3109 801.0957,-137 727.0223,-160.2725 638.8682,-175.0255 579.9869,-183.1236"/>
<polygon fill="none" stroke="#000000" points="579.5118,-179.6559 570.0701,-184.4627 580.4486,-186.593 579.5118,-179.6559"/>
</g>
<!-- Parameter -->
<g id="node13" class="node">
<title>Parameter</title>
<g id="a_node13"><a xlink:href="http://emmo.info/emmo/middle/math#EMMO_d1d436e7_72fc_49cd_863b_7bfb4ba5276a" xlink:title="Parameter">
<ellipse fill="#ffffcc" stroke="#000000" cx="265.0957" cy="-32.5" rx="46.5926" ry="18"/>
<text text-anchor="middle" x="265.0957" y="-28.8" font-family="Times,serif" font-size="14.00" fill="#000000">Parameter</text>
</a>
</g>
</g>
<!-- Parameter&#45;&gt;Variable -->
<g id="edge15" class="edge">
<title>Parameter&#45;&gt;Variable</title>
<path fill="none" stroke="#000000" d="M244.4056,-48.77C227.166,-62.3266 202.4384,-81.7714 183.3716,-96.7649"/>
<polygon fill="none" stroke="#000000" points="181.0187,-94.1626 175.3215,-103.0952 185.3457,-99.6651 181.0187,-94.1626"/>
</g>
<!-- PhysicalQuantity -->
<g id="node14" class="node">
<title>PhysicalQuantity</title>
<g id="a_node14"><a xlink:href="http://emmo.info/emmo/middle/metrology#EMMO_02c0621e_a527_4790_8a0f_2bb51973c819" xlink:title="PhysicalQuantity">
<ellipse fill="#ffffcc" stroke="#000000" stroke-width="2" cx="962.0957" cy="-119" rx="71.4873" ry="18"/>
<text text-anchor="middle" x="962.0957" y="-115.3" font-family="Times,serif" font-size="14.00" fill="#000000">PhysicalQuantity</text>
</a>
</g>
</g>
<!-- PhysicalQuantity&#45;&gt;Mathematical -->
<g id="edge5" class="edge">
<title>PhysicalQuantity&#45;&gt;Mathematical</title>
<path fill="none" stroke="#000000" d="M909.4874,-131.2719C900.0582,-133.3054 890.304,-135.3017 881.0957,-137 776.1488,-156.3553 653.297,-173.2787 579.6906,-182.809"/>
<polygon fill="none" stroke="#000000" points="579.109,-179.3549 569.6383,-184.1042 580.0036,-186.2975 579.109,-179.3549"/>
</g>
<!-- key1 -->
<g id="node15" class="node">
<title>key1</title>
<text text-anchor="start" x="994.0957" y="-47.3" font-family="Times,serif" font-size="14.00" fill="#000000">isA</text>
<text text-anchor="start" x="948.0957" y="-28.3" font-family="Times,serif" font-size="14.00" fill="#000000">hasVariable</text>
<text text-anchor="start" x="973.0957" y="-9.3" font-family="Times,serif" font-size="14.00" fill="#000000">inverse</text>
</g>
<!-- key2 -->
<g id="node16" class="node">
<title>key2</title>
<text text-anchor="start" x="1066.0957" y="-47.3" font-family="Times,serif" font-size="14.00" fill="#000000"> </text>
<text text-anchor="start" x="1066.0957" y="-28.3" font-family="Times,serif" font-size="14.00" fill="#000000"> </text>
<text text-anchor="start" x="1066.0957" y="-9.3" font-family="Times,serif" font-size="14.00" fill="#000000"> </text>
</g>
<!-- key1&#45;&gt;key2 -->
<g id="edge16" class="edge">
<title>key1:e&#45;&gt;key2:w</title>
<path fill="none" stroke="#000000" d="M1015.0957,-13.5C1032.9603,-13.5 1039.834,-13.5 1053.7487,-13.5"/>
<polygon fill="#000000" stroke="#000000" points="1064.0958,-17 1054.0957,-13.5001 1064.0957,-10 1064.0958,-17"/>
</g>
<!-- key1&#45;&gt;key2 -->
<g id="edge17" class="edge">
<title>key1:e&#45;&gt;key2:w</title>
<path fill="none" stroke="#ffa500" stroke-dasharray="5,2" d="M1015.0957,-33.5C1032.9603,-33.5 1039.834,-33.5 1053.7487,-33.5"/>
<polygon fill="#ffa500" stroke="#ffa500" points="1054.0958,-37.0001 1064.0957,-33.5 1054.0957,-30.0001 1054.0958,-37.0001"/>
</g>
<!-- key1&#45;&gt;key2 -->
<g id="edge18" class="edge">
<title>key1:e&#45;&gt;key2:w</title>
<path fill="none" stroke="#000000" d="M1015.0957,-52.5C1032.9603,-52.5 1039.834,-52.5 1053.7487,-52.5"/>
<polygon fill="none" stroke="#000000" points="1054.0958,-56.0001 1064.0957,-52.5 1054.0957,-49.0001 1054.0958,-56.0001"/>
</g>
</g>
</svg>
