<?xml version="1.0" encoding="UTF-8" standalone="no"?>
<!DOCTYPE svg PUBLIC "-//W3C//DTD SVG 1.1//EN"
 "http://www.w3.org/Graphics/SVG/1.1/DTD/svg11.dtd">
<!-- Generated by graphviz version 2.40.1 (20161225.0304)
 -->
<!-- Title: %3 Pages: 1 -->
<svg width="1265pt" height="217pt"
 viewBox="0.00 0.00 1265.49 217.00" xmlns="http://www.w3.org/2000/svg" xmlns:xlink="http://www.w3.org/1999/xlink">
<g id="graph0" class="graph" transform="scale(1 1) rotate(0) translate(4 213)">
<title>%3</title>
<polygon fill="#ffffff" stroke="transparent" points="-4,4 -4,-213 1261.4937,-213 1261.4937,4 -4,4"/>
<!-- PhysicalQuantity -->
<g id="node1" class="node">
<title>PhysicalQuantity</title>
<g id="a_node1"><a xlink:href="http://emmo.info/emmo/middle/metrology#EMMO_02c0621e_a527_4790_8a0f_2bb51973c819" xlink:title="PhysicalQuantity">
<ellipse fill="#ffffcc" stroke="#000000" stroke-width="2" cx="71.4937" cy="-119" rx="71.4873" ry="18"/>
<text text-anchor="middle" x="71.4937" y="-115.3" font-family="Times,serif" font-size="14.00" fill="#000000">PhysicalQuantity</text>
</a>
</g>
</g>
<!-- Mathematical -->
<g id="node14" class="node">
<title>Mathematical</title>
<g id="a_node14"><a xlink:href="http://emmo.info/emmo/middle/math#EMMO_54ee6b5e_5261_44a8_86eb_5717e7fdb9d0" xlink:title="Mathematical">
<ellipse fill="#ffffcc" stroke="#000000" stroke-width="2" cx="480.4937" cy="-191" rx="59.5901" ry="18"/>
<text text-anchor="middle" x="480.4937" y="-187.3" font-family="Times,serif" font-size="14.00" fill="#000000">Mathematical</text>
</a>
</g>
</g>
<!-- PhysicalQuantity&#45;&gt;Mathematical -->
<g id="edge5" class="edge">
<title>PhysicalQuantity&#45;&gt;Mathematical</title>
<path fill="none" stroke="#000000" d="M124.5621,-131.2352C133.8531,-133.2507 143.4416,-135.2505 152.4937,-137 243.7937,-154.6459 350.1037,-171.4714 416.3592,-181.5186"/>
<polygon fill="none" stroke="#000000" points="416.2298,-185.0387 426.6405,-183.072 417.2756,-178.1172 416.2298,-185.0387"/>
</g>
<!-- Expression -->
<g id="node2" class="node">
<title>Expression</title>
<g id="a_node2"><a xlink:href="http://emmo.info/emmo/middle/math#EMMO_f9bc8b52_85e9_4b53_b969_dd7724d5b8e4" xlink:title="Expression">
<ellipse fill="#ffffcc" stroke="#000000" stroke-width="2" cx="211.4937" cy="-119" rx="50.0912" ry="18"/>
<text text-anchor="middle" x="211.4937" y="-115.3" font-family="Times,serif" font-size="14.00" fill="#000000">Expression</text>
</a>
</g>
</g>
<!-- Expression&#45;&gt;Mathematical -->
<g id="edge8" class="edge">
<title>Expression&#45;&gt;Mathematical</title>
<path fill="none" stroke="#000000" d="M249.5063,-130.8683C256.4716,-132.9657 263.6891,-135.0882 270.4937,-137 322.1627,-151.5172 381.4137,-166.613 423.7762,-177.1404"/>
<polygon fill="none" stroke="#000000" points="423.0781,-180.5732 433.6264,-179.5816 424.762,-173.7788 423.0781,-180.5732"/>
</g>
<!-- Constant -->
<g id="node3" class="node">
<title>Constant</title>
<g id="a_node3"><a xlink:href="http://emmo.info/emmo/middle/math#EMMO_ae15fb4f_8e4d_41de_a0f9_3997f89ba6a2" xlink:title="Constant">
<ellipse fill="#ffffcc" stroke="#000000" cx="214.4937" cy="-32.5" rx="42.4939" ry="18"/>
<text text-anchor="middle" x="214.4937" y="-28.8" font-family="Times,serif" font-size="14.00" fill="#000000">Constant</text>
</a>
</g>
</g>
<!-- Variable -->
<g id="node4" class="node">
<title>Variable</title>
<g id="a_node4"><a xlink:href="http://emmo.info/emmo/middle/math#EMMO_1eed0732_e3f1_4b2c_a9c4_b4e75eeb5895" xlink:title="Variable">
<ellipse fill="#ffffcc" stroke="#000000" cx="320.4937" cy="-119" rx="40.8928" ry="18"/>
<text text-anchor="middle" x="320.4937" y="-115.3" font-family="Times,serif" font-size="14.00" fill="#000000">Variable</text>
</a>
</g>
</g>
<!-- Constant&#45;&gt;Variable -->
<g id="edge13" class="edge">
<title>Constant&#45;&gt;Variable</title>
<path fill="none" stroke="#000000" d="M234.4314,-48.77C250.9696,-62.2658 274.659,-81.5972 292.9985,-96.5629"/>
<polygon fill="none" stroke="#000000" points="291.0428,-99.4845 301.0034,-103.0952 295.4685,-94.0611 291.0428,-99.4845"/>
</g>
<!-- Numerical -->
<g id="node7" class="node">
<title>Numerical</title>
<g id="a_node7"><a xlink:href="http://emmo.info/emmo/middle/math#EMMO_4ce76d7f_03f8_45b6_9003_90052a79bfaa" xlink:title="Numerical">
<ellipse fill="#ffffcc" stroke="#000000" cx="427.4937" cy="-119" rx="48.1917" ry="18"/>
<text text-anchor="middle" x="427.4937" y="-115.3" font-family="Times,serif" font-size="14.00" fill="#000000">Numerical</text>
</a>
</g>
</g>
<!-- Constant&#45;&gt;Numerical -->
<g id="edge14" class="edge">
<title>Constant&#45;&gt;Numerical</title>
<path fill="none" stroke="#ffa500" stroke-dasharray="5,2" d="M236.6204,-47.9359C245.6199,-53.782 256.2891,-60.1821 266.4937,-65 277.1823,-70.0464 337.6618,-89.9619 381.3547,-104.1366"/>
<polygon fill="#ffa500" stroke="#ffa500" points="389.8727,-110.5749 381.438,-104.1635 392.0299,-103.9156 389.8727,-110.5749"/>
</g>
<!-- Variable&#45;&gt;Mathematical -->
<g id="edge3" class="edge">
<title>Variable&#45;&gt;Mathematical</title>
<path fill="none" stroke="#000000" d="M346.2421,-133.0532C369.896,-144.3778 405.3126,-160.3877 433.8863,-172.7105"/>
<polygon fill="none" stroke="#000000" points="432.7169,-176.0171 443.2873,-176.7361 435.4724,-169.5823 432.7169,-176.0171"/>
</g>
<!-- Variable&#45;&gt;Mathematical -->
<g id="edge4" class="edge">
<title>Variable&#45;&gt;Mathematical</title>
<path fill="none" stroke="#ffa500" stroke-dasharray="5,2" d="M351.6972,-130.7283C377.5143,-141.5644 414.1294,-157.8922 441.7859,-170.8214"/>
<polygon fill="#ffa500" stroke="#ffa500" points="449.6708,-178.4045 442.1157,-170.9767 452.6538,-172.0719 449.6708,-178.4045"/>
</g>
<!-- Formula -->
<g id="node5" class="node">
<title>Formula</title>
<g id="a_node5"><a xlink:href="http://emmo.info/emmo/middle/math#EMMO_88470739_03d3_4c47_a03e_b30a1288d50c" xlink:title="Formula">
<ellipse fill="#ffffcc" stroke="#000000" stroke-width="2" cx="534.4937" cy="-119" rx="40.8928" ry="18"/>
<text text-anchor="middle" x="534.4937" y="-115.3" font-family="Times,serif" font-size="14.00" fill="#000000">Formula</text>
</a>
</g>
</g>
<!-- Formula&#45;&gt;Mathematical -->
<g id="edge2" class="edge">
<title>Formula&#45;&gt;Mathematical</title>
<path fill="none" stroke="#000000" d="M521.4218,-136.4292C514.9517,-145.0559 507.0123,-155.6418 499.8537,-165.1866"/>
<polygon fill="none" stroke="#000000" points="497.0203,-163.1311 493.8203,-173.2311 502.6204,-167.3311 497.0203,-163.1311"/>
</g>
<!-- MathematicalSymbol -->
<g id="node6" class="node">
<title>MathematicalSymbol</title>
<g id="a_node6"><a xlink:href="http://emmo.info/emmo/middle/math#EMMO_5be83f9c_a4ba_4b9a_be1a_5bfc6e891231" xlink:title="MathematicalSymbol">
<ellipse fill="#ffc880" stroke="#000000" stroke-width="2" cx="681.4937" cy="-119" rx="87.9851" ry="18"/>
<text text-anchor="middle" x="681.4937" y="-115.3" font-family="Times,serif" font-size="14.00" fill="#000000">MathematicalSymbol</text>
</a>
</g>
</g>
<!-- MathematicalSymbol&#45;&gt;Mathematical -->
<g id="edge9" class="edge">
<title>MathematicalSymbol&#45;&gt;Mathematical</title>
<path fill="none" stroke="#000000" d="M637.8796,-134.6229C605.723,-146.1417 561.9808,-161.8106 528.7722,-173.7062"/>
<polygon fill="none" stroke="#000000" points="527.501,-170.4437 519.2671,-177.111 529.8616,-177.0337 527.501,-170.4437"/>
</g>
<!-- Numerical&#45;&gt;Mathematical -->
<g id="edge10" class="edge">
<title>Numerical&#45;&gt;Mathematical</title>
<path fill="none" stroke="#000000" d="M440.3235,-136.4292C446.6095,-144.9688 454.3088,-155.4281 461.279,-164.8971"/>
<polygon fill="none" stroke="#000000" points="458.6669,-167.2526 467.4138,-173.2311 464.3043,-163.1029 458.6669,-167.2526"/>
</g>
<!-- Vector -->
<g id="node8" class="node">
<title>Vector</title>
<g id="a_node8"><a xlink:href="http://emmo.info/emmo/middle/math#EMMO_06658d8d_dcde_4fc9_aae1_17f71c0bcdec" xlink:title="Vector">
<ellipse fill="#ffffcc" stroke="#000000" cx="958.4937" cy="-32.5" rx="34.394" ry="18"/>
<text text-anchor="middle" x="958.4937" y="-28.8" font-family="Times,serif" font-size="14.00" fill="#000000">Vector</text>
</a>
</g>
</g>
<!-- Array -->
<g id="node11" class="node">
<title>Array</title>
<g id="a_node11"><a xlink:href="http://emmo.info/emmo/top/math#EMMO_28fbea28_2204_4613_87ff_6d877b855fcd" xlink:title="Array">
<ellipse fill="#ffffcc" stroke="#000000" cx="1002.4937" cy="-119" rx="31.3957" ry="18"/>
<text text-anchor="middle" x="1002.4937" y="-115.3" font-family="Times,serif" font-size="14.00" fill="#000000">Array</text>
</a>
</g>
</g>
<!-- Vector&#45;&gt;Array -->
<g id="edge6" class="edge">
<title>Vector&#45;&gt;Array</title>
<path fill="none" stroke="#000000" d="M967.3977,-50.0046C973.6002,-62.198 981.9861,-78.6841 989.0054,-92.4832"/>
<polygon fill="none" stroke="#000000" points="985.9493,-94.1952 993.6028,-101.5215 992.1885,-91.0214 985.9493,-94.1952"/>
</g>
<!-- MathematicalModel -->
<g id="node9" class="node">
<title>MathematicalModel</title>
<g id="a_node9"><a xlink:href="http://emmo.info/emmo/middle/models#EMMO_f7ed665b_c2e1_42bc_889b_6b42ed3a36f0" xlink:title="MathematicalModel">
<ellipse fill="#ffc880" stroke="#000000" stroke-width="2" cx="870.4937" cy="-119" rx="83.3857" ry="18"/>
<text text-anchor="middle" x="870.4937" y="-115.3" font-family="Times,serif" font-size="14.00" fill="#000000">MathematicalModel</text>
</a>
</g>
</g>
<!-- MathematicalModel&#45;&gt;Mathematical -->
<g id="edge1" class="edge">
<title>MathematicalModel&#45;&gt;Mathematical</title>
<path fill="none" stroke="#000000" d="M808.657,-131.2213C798.5801,-133.1775 788.2498,-135.1617 778.4937,-137 696.9245,-152.3693 602.6341,-169.3182 542.3312,-180.0539"/>
<polygon fill="none" stroke="#000000" points="541.4482,-176.6559 532.2157,-181.8532 542.6741,-183.5478 541.4482,-176.6559"/>
</g>
<!-- Unknown -->
<g id="node10" class="node">
<title>Unknown</title>
<g id="a_node10"><a xlink:href="http://emmo.info/emmo/middle/math#EMMO_fe7e56ce_118b_4243_9aad_20eb9f4f31f6" xlink:title="Unknown">
<ellipse fill="#ffffcc" stroke="#000000" cx="320.4937" cy="-32.5" rx="45.4919" ry="18"/>
<text text-anchor="middle" x="320.4937" y="-28.8" font-family="Times,serif" font-size="14.00" fill="#000000">Unknown</text>
</a>
</g>
</g>
<!-- Unknown&#45;&gt;Variable -->
<g id="edge11" class="edge">
<title>Unknown&#45;&gt;Variable</title>
<path fill="none" stroke="#000000" d="M320.4937,-50.8444C320.4937,-62.3901 320.4937,-77.528 320.4937,-90.6039"/>
<polygon fill="none" stroke="#000000" points="316.9938,-90.9786 320.4937,-100.9786 323.9938,-90.9787 316.9938,-90.9786"/>
</g>
<!-- Array&#45;&gt;Mathematical -->
<g id="edge12" class="edge">
<title>Array&#45;&gt;Mathematical</title>
<path fill="none" stroke="#000000" d="M978.8297,-131.1013C973.5642,-133.3803 967.9289,-135.5121 962.4937,-137 886.318,-157.8537 662.9716,-177.1408 549.0406,-185.9598"/>
<polygon fill="none" stroke="#000000" points="548.7332,-182.473 539.0309,-186.7295 549.2699,-189.4524 548.7332,-182.473"/>
</g>
<!-- Parameter -->
<g id="node12" class="node">
<title>Parameter</title>
<g id="a_node12"><a xlink:href="http://emmo.info/emmo/middle/math#EMMO_d1d436e7_72fc_49cd_863b_7bfb4ba5276a" xlink:title="Parameter">
<ellipse fill="#ffffcc" stroke="#000000" cx="430.4937" cy="-32.5" rx="46.5926" ry="18"/>
<text text-anchor="middle" x="430.4937" y="-28.8" font-family="Times,serif" font-size="14.00" fill="#000000">Parameter</text>
</a>
</g>
</g>
<!-- Parameter&#45;&gt;Variable -->
<g id="edge7" class="edge">
<title>Parameter&#45;&gt;Variable</title>
<path fill="none" stroke="#000000" d="M409.8035,-48.77C392.5639,-62.3266 367.8364,-81.7714 348.7695,-96.7649"/>
<polygon fill="none" stroke="#000000" points="346.4166,-94.1626 340.7194,-103.0952 350.7436,-99.6651 346.4166,-94.1626"/>
</g>
<!-- Matrix -->
<g id="node13" class="node">
<title>Matrix</title>
<g id="a_node13"><a xlink:href="http://emmo.info/emmo/top/math#EMMO_1cba0b27_15d0_4326_933f_379d0b3565b6" xlink:title="Matrix">
<ellipse fill="#ffffcc" stroke="#000000" cx="1046.4937" cy="-32.5" rx="35.194" ry="18"/>
<text text-anchor="middle" x="1046.4937" y="-28.8" font-family="Times,serif" font-size="14.00" fill="#000000">Matrix</text>
</a>
</g>
</g>
<!-- Matrix&#45;&gt;Array -->
<g id="edge15" class="edge">
<title>Matrix&#45;&gt;Array</title>
<path fill="none" stroke="#000000" d="M1037.5896,-50.0046C1031.3871,-62.198 1023.0012,-78.6841 1015.9819,-92.4832"/>
<polygon fill="none" stroke="#000000" points="1012.7988,-91.0214 1011.3845,-101.5215 1019.038,-94.1952 1012.7988,-91.0214"/>
</g>
<!-- key1 -->
<g id="node15" class="node">
<title>key1</title>
<text text-anchor="start" x="1156.4937" y="-47.3" font-family="Times,serif" font-size="14.00" fill="#000000">isA</text>
<text text-anchor="start" x="1110.4937" y="-28.3" font-family="Times,serif" font-size="14.00" fill="#000000">hasVariable</text>
<text text-anchor="start" x="1135.4937" y="-9.3" font-family="Times,serif" font-size="14.00" fill="#000000">inverse</text>
</g>
<!-- key2 -->
<g id="node16" class="node">
<title>key2</title>
<text text-anchor="start" x="1228.4937" y="-47.3" font-family="Times,serif" font-size="14.00" fill="#000000"> </text>
<text text-anchor="start" x="1228.4937" y="-28.3" font-family="Times,serif" font-size="14.00" fill="#000000"> </text>
<text text-anchor="start" x="1228.4937" y="-9.3" font-family="Times,serif" font-size="14.00" fill="#000000"> </text>
</g>
<!-- key1&#45;&gt;key2 -->
<g id="edge16" class="edge">
<title>key1:e&#45;&gt;key2:w</title>
<path fill="none" stroke="#000000" d="M1177.4937,-13.5C1195.3582,-13.5 1202.2319,-13.5 1216.1466,-13.5"/>
<polygon fill="#000000" stroke="#000000" points="1226.4937,-17 1216.4937,-13.5001 1226.4936,-10 1226.4937,-17"/>
</g>
<!-- key1&#45;&gt;key2 -->
<g id="edge17" class="edge">
<title>key1:e&#45;&gt;key2:w</title>
<path fill="none" stroke="#ffa500" stroke-dasharray="5,2" d="M1177.4937,-33.5C1195.3582,-33.5 1202.2319,-33.5 1216.1466,-33.5"/>
<polygon fill="#ffa500" stroke="#ffa500" points="1216.4937,-37.0001 1226.4937,-33.5 1216.4936,-30.0001 1216.4937,-37.0001"/>
</g>
<!-- key1&#45;&gt;key2 -->
<g id="edge18" class="edge">
<title>key1:e&#45;&gt;key2:w</title>
<path fill="none" stroke="#000000" d="M1177.4937,-52.5C1195.3582,-52.5 1202.2319,-52.5 1216.1466,-52.5"/>
<polygon fill="none" stroke="#000000" points="1216.4937,-56.0001 1226.4937,-52.5 1216.4936,-49.0001 1216.4937,-56.0001"/>
</g>
</g>
</svg>
