<?xml version="1.0" encoding="UTF-8" standalone="no"?>
<!DOCTYPE svg PUBLIC "-//W3C//DTD SVG 1.1//EN"
 "http://www.w3.org/Graphics/SVG/1.1/DTD/svg11.dtd">
<!-- Generated by graphviz version 2.40.1 (20161225.0304)
 -->
<!-- Title: %3 Pages: 1 -->
<svg width="1210pt" height="217pt"
 viewBox="0.00 0.00 1210.25 217.00" xmlns="http://www.w3.org/2000/svg" xmlns:xlink="http://www.w3.org/1999/xlink">
<g id="graph0" class="graph" transform="scale(1 1) rotate(0) translate(4 213)">
<title>%3</title>
<polygon fill="#ffffff" stroke="transparent" points="-4,4 -4,-213 1206.2463,-213 1206.2463,4 -4,4"/>
<!-- Variable -->
<g id="node1" class="node">
<title>Variable</title>
<g id="a_node1"><a xlink:href="http://emmo.info/emmo/middle/math#EMMO_1eed0732_e3f1_4b2c_a9c4_b4e75eeb5895" xlink:title="Variable">
<ellipse fill="#ffffcc" stroke="#000000" cx="148.2463" cy="-119" rx="40.8928" ry="18"/>
<text text-anchor="middle" x="148.2463" y="-115.3" font-family="Times,serif" font-size="14.00" fill="#000000">Variable</text>
</a>
</g>
</g>
<!-- Mathematical -->
<g id="node7" class="node">
<title>Mathematical</title>
<g id="a_node7"><a xlink:href="http://emmo.info/emmo/middle/math#EMMO_54ee6b5e_5261_44a8_86eb_5717e7fdb9d0" xlink:title="Mathematical">
<ellipse fill="#ffffcc" stroke="#000000" stroke-width="2" cx="553.2463" cy="-191" rx="59.5901" ry="18"/>
<text text-anchor="middle" x="553.2463" y="-187.3" font-family="Times,serif" font-size="14.00" fill="#000000">Mathematical</text>
</a>
</g>
</g>
<!-- Variable&#45;&gt;Mathematical -->
<g id="edge7" class="edge">
<title>Variable&#45;&gt;Mathematical</title>
<path fill="none" stroke="#000000" d="M174.843,-132.7385C179.5861,-134.323 184.5064,-135.7985 189.2463,-137 290.5362,-162.6754 411.3748,-177.8786 485.2664,-185.3159"/>
<polygon fill="none" stroke="#000000" points="485.0788,-188.8143 495.3744,-186.3141 485.7668,-181.8482 485.0788,-188.8143"/>
</g>
<!-- Variable&#45;&gt;Mathematical -->
<g id="edge8" class="edge">
<title>Variable&#45;&gt;Mathematical</title>
<path fill="none" stroke="#ffa500" stroke-dasharray="5,2" d="M182.2376,-129.2227C190.4377,-132.0663 199.108,-134.9371 207.2463,-137 303.0013,-161.2724 416.227,-176.1858 486.475,-184.0267"/>
<polygon fill="#ffa500" stroke="#ffa500" points="496.1374,-188.6115 486.5804,-184.0382 496.9034,-181.6535 496.1374,-188.6115"/>
</g>
<!-- Numerical -->
<g id="node2" class="node">
<title>Numerical</title>
<g id="a_node2"><a xlink:href="http://emmo.info/emmo/middle/math#EMMO_4ce76d7f_03f8_45b6_9003_90052a79bfaa" xlink:title="Numerical">
<ellipse fill="#ffffcc" stroke="#000000" cx="255.2463" cy="-119" rx="48.1917" ry="18"/>
<text text-anchor="middle" x="255.2463" y="-115.3" font-family="Times,serif" font-size="14.00" fill="#000000">Numerical</text>
</a>
</g>
</g>
<!-- Numerical&#45;&gt;Mathematical -->
<g id="edge2" class="edge">
<title>Numerical&#45;&gt;Mathematical</title>
<path fill="none" stroke="#000000" d="M291.5991,-130.9891C298.4289,-133.0965 305.5327,-135.1914 312.2463,-137 373.4447,-153.4868 444.3196,-168.938 493.2928,-179.0528"/>
<polygon fill="none" stroke="#000000" points="492.5927,-182.482 503.0925,-181.0659 494.0013,-175.6252 492.5927,-182.482"/>
</g>
<!-- Expression -->
<g id="node3" class="node">
<title>Expression</title>
<g id="a_node3"><a xlink:href="http://emmo.info/emmo/middle/math#EMMO_f9bc8b52_85e9_4b53_b969_dd7724d5b8e4" xlink:title="Expression">
<ellipse fill="#ffffcc" stroke="#000000" stroke-width="2" cx="371.2463" cy="-119" rx="50.0912" ry="18"/>
<text text-anchor="middle" x="371.2463" y="-115.3" font-family="Times,serif" font-size="14.00" fill="#000000">Expression</text>
</a>
</g>
</g>
<!-- Expression&#45;&gt;Mathematical -->
<g id="edge4" class="edge">
<title>Expression&#45;&gt;Mathematical</title>
<path fill="none" stroke="#000000" d="M405.0525,-132.3739C433.8394,-143.7621 475.4677,-160.2305 507.2792,-172.8152"/>
<polygon fill="none" stroke="#000000" points="506.2251,-176.1621 516.8115,-176.5862 508.8002,-169.653 506.2251,-176.1621"/>
</g>
<!-- Constant -->
<g id="node4" class="node">
<title>Constant</title>
<g id="a_node4"><a xlink:href="http://emmo.info/emmo/middle/math#EMMO_ae15fb4f_8e4d_41de_a0f9_3997f89ba6a2" xlink:title="Constant">
<ellipse fill="#ffffcc" stroke="#000000" cx="42.2463" cy="-32.5" rx="42.4939" ry="18"/>
<text text-anchor="middle" x="42.2463" y="-28.8" font-family="Times,serif" font-size="14.00" fill="#000000">Constant</text>
</a>
</g>
</g>
<!-- Constant&#45;&gt;Variable -->
<g id="edge13" class="edge">
<title>Constant&#45;&gt;Variable</title>
<path fill="none" stroke="#000000" d="M62.184,-48.77C78.7222,-62.2658 102.4115,-81.5972 120.7511,-96.5629"/>
<polygon fill="none" stroke="#000000" points="118.7954,-99.4845 128.756,-103.0952 123.2211,-94.0611 118.7954,-99.4845"/>
</g>
<!-- Constant&#45;&gt;Numerical -->
<g id="edge14" class="edge">
<title>Constant&#45;&gt;Numerical</title>
<path fill="none" stroke="#ffa500" stroke-dasharray="5,2" d="M64.373,-47.9359C73.3725,-53.782 84.0417,-60.1821 94.2463,-65 104.9349,-70.0464 165.4144,-89.9619 209.1073,-104.1366"/>
<polygon fill="#ffa500" stroke="#ffa500" points="217.6253,-110.5749 209.1906,-104.1635 219.7825,-103.9156 217.6253,-110.5749"/>
</g>
<!-- Formula -->
<g id="node5" class="node">
<title>Formula</title>
<g id="a_node5"><a xlink:href="http://emmo.info/emmo/middle/math#EMMO_88470739_03d3_4c47_a03e_b30a1288d50c" xlink:title="Formula">
<ellipse fill="#ffffcc" stroke="#000000" stroke-width="2" cx="480.2463" cy="-119" rx="40.8928" ry="18"/>
<text text-anchor="middle" x="480.2463" y="-115.3" font-family="Times,serif" font-size="14.00" fill="#000000">Formula</text>
</a>
</g>
</g>
<!-- Formula&#45;&gt;Mathematical -->
<g id="edge15" class="edge">
<title>Formula&#45;&gt;Mathematical</title>
<path fill="none" stroke="#000000" d="M497.1774,-135.6992C506.464,-144.8586 518.15,-156.3846 528.4468,-166.5403"/>
<polygon fill="none" stroke="#000000" points="526.0673,-169.1094 535.6448,-173.6397 530.9829,-164.1256 526.0673,-169.1094"/>
</g>
<!-- MathematicalSymbol -->
<g id="node6" class="node">
<title>MathematicalSymbol</title>
<g id="a_node6"><a xlink:href="http://emmo.info/emmo/middle/math#EMMO_5be83f9c_a4ba_4b9a_be1a_5bfc6e891231" xlink:title="MathematicalSymbol">
<ellipse fill="#ffc880" stroke="#000000" stroke-width="2" cx="627.2463" cy="-119" rx="87.9851" ry="18"/>
<text text-anchor="middle" x="627.2463" y="-115.3" font-family="Times,serif" font-size="14.00" fill="#000000">MathematicalSymbol</text>
</a>
</g>
</g>
<!-- MathematicalSymbol&#45;&gt;Mathematical -->
<g id="edge5" class="edge">
<title>MathematicalSymbol&#45;&gt;Mathematical</title>
<path fill="none" stroke="#000000" d="M608.9541,-136.7978C599.7455,-145.7575 588.4388,-156.7586 578.4235,-166.5032"/>
<polygon fill="none" stroke="#000000" points="575.7992,-164.1733 571.0726,-173.6554 580.6807,-169.1904 575.7992,-164.1733"/>
</g>
<!-- Matrix -->
<g id="node8" class="node">
<title>Matrix</title>
<g id="a_node8"><a xlink:href="http://emmo.info/emmo/top/math#EMMO_1cba0b27_15d0_4326_933f_379d0b3565b6" xlink:title="Matrix">
<ellipse fill="#ffffcc" stroke="#000000" cx="904.2463" cy="-32.5" rx="35.194" ry="18"/>
<text text-anchor="middle" x="904.2463" y="-28.8" font-family="Times,serif" font-size="14.00" fill="#000000">Matrix</text>
</a>
</g>
</g>
<!-- Array -->
<g id="node12" class="node">
<title>Array</title>
<g id="a_node12"><a xlink:href="http://emmo.info/emmo/top/math#EMMO_28fbea28_2204_4613_87ff_6d877b855fcd" xlink:title="Array">
<ellipse fill="#ffffcc" stroke="#000000" cx="948.2463" cy="-119" rx="31.3957" ry="18"/>
<text text-anchor="middle" x="948.2463" y="-115.3" font-family="Times,serif" font-size="14.00" fill="#000000">Array</text>
</a>
</g>
</g>
<!-- Matrix&#45;&gt;Array -->
<g id="edge12" class="edge">
<title>Matrix&#45;&gt;Array</title>
<path fill="none" stroke="#000000" d="M913.1503,-50.0046C919.3528,-62.198 927.7387,-78.6841 934.758,-92.4832"/>
<polygon fill="none" stroke="#000000" points="931.7019,-94.1952 939.3554,-101.5215 937.9411,-91.0214 931.7019,-94.1952"/>
</g>
<!-- Unknown -->
<g id="node9" class="node">
<title>Unknown</title>
<g id="a_node9"><a xlink:href="http://emmo.info/emmo/middle/math#EMMO_fe7e56ce_118b_4243_9aad_20eb9f4f31f6" xlink:title="Unknown">
<ellipse fill="#ffffcc" stroke="#000000" cx="148.2463" cy="-32.5" rx="45.4919" ry="18"/>
<text text-anchor="middle" x="148.2463" y="-28.8" font-family="Times,serif" font-size="14.00" fill="#000000">Unknown</text>
</a>
</g>
</g>
<!-- Unknown&#45;&gt;Variable -->
<g id="edge1" class="edge">
<title>Unknown&#45;&gt;Variable</title>
<path fill="none" stroke="#000000" d="M148.2463,-50.8444C148.2463,-62.3901 148.2463,-77.528 148.2463,-90.6039"/>
<polygon fill="none" stroke="#000000" points="144.7463,-90.9786 148.2463,-100.9786 151.7463,-90.9787 144.7463,-90.9786"/>
</g>
<!-- Vector -->
<g id="node10" class="node">
<title>Vector</title>
<g id="a_node10"><a xlink:href="http://emmo.info/emmo/middle/math#EMMO_06658d8d_dcde_4fc9_aae1_17f71c0bcdec" xlink:title="Vector">
<ellipse fill="#ffffcc" stroke="#000000" cx="992.2463" cy="-32.5" rx="34.394" ry="18"/>
<text text-anchor="middle" x="992.2463" y="-28.8" font-family="Times,serif" font-size="14.00" fill="#000000">Vector</text>
</a>
</g>
</g>
<!-- Vector&#45;&gt;Array -->
<g id="edge6" class="edge">
<title>Vector&#45;&gt;Array</title>
<path fill="none" stroke="#000000" d="M983.3422,-50.0046C977.1397,-62.198 968.7538,-78.6841 961.7345,-92.4832"/>
<polygon fill="none" stroke="#000000" points="958.5514,-91.0214 957.1371,-101.5215 964.7906,-94.1952 958.5514,-91.0214"/>
</g>
<!-- MathematicalModel -->
<g id="node11" class="node">
<title>MathematicalModel</title>
<g id="a_node11"><a xlink:href="http://emmo.info/emmo/middle/models#EMMO_f7ed665b_c2e1_42bc_889b_6b42ed3a36f0" xlink:title="MathematicalModel">
<ellipse fill="#ffc880" stroke="#000000" stroke-width="2" cx="816.2463" cy="-119" rx="83.3857" ry="18"/>
<text text-anchor="middle" x="816.2463" y="-115.3" font-family="Times,serif" font-size="14.00" fill="#000000">MathematicalModel</text>
</a>
</g>
</g>
<!-- MathematicalModel&#45;&gt;Mathematical -->
<g id="edge11" class="edge">
<title>MathematicalModel&#45;&gt;Mathematical</title>
<path fill="none" stroke="#000000" d="M764.5997,-133.139C719.3049,-145.5391 653.6673,-163.5083 607.5879,-176.1232"/>
<polygon fill="none" stroke="#000000" points="606.4972,-172.7929 597.7763,-178.8093 608.3456,-179.5445 606.4972,-172.7929"/>
</g>
<!-- Array&#45;&gt;Mathematical -->
<g id="edge9" class="edge">
<title>Array&#45;&gt;Mathematical</title>
<path fill="none" stroke="#000000" d="M924.5363,-130.9394C919.2736,-133.2285 913.6511,-135.4053 908.2463,-137 811.221,-165.6268 694.5638,-179.6589 622.1461,-186.0967"/>
<polygon fill="none" stroke="#000000" points="621.4513,-182.6436 611.7901,-186.9922 622.0545,-189.6176 621.4513,-182.6436"/>
</g>
<!-- Parameter -->
<g id="node13" class="node">
<title>Parameter</title>
<g id="a_node13"><a xlink:href="http://emmo.info/emmo/middle/math#EMMO_d1d436e7_72fc_49cd_863b_7bfb4ba5276a" xlink:title="Parameter">
<ellipse fill="#ffffcc" stroke="#000000" cx="258.2463" cy="-32.5" rx="46.5926" ry="18"/>
<text text-anchor="middle" x="258.2463" y="-28.8" font-family="Times,serif" font-size="14.00" fill="#000000">Parameter</text>
</a>
</g>
</g>
<!-- Parameter&#45;&gt;Variable -->
<g id="edge3" class="edge">
<title>Parameter&#45;&gt;Variable</title>
<path fill="none" stroke="#000000" d="M237.5561,-48.77C220.3165,-62.3266 195.5889,-81.7714 176.5221,-96.7649"/>
<polygon fill="none" stroke="#000000" points="174.1692,-94.1626 168.472,-103.0952 178.4962,-99.6651 174.1692,-94.1626"/>
</g>
<!-- PhysicalQuantity -->
<g id="node14" class="node">
<title>PhysicalQuantity</title>
<g id="a_node14"><a xlink:href="http://emmo.info/emmo/middle/metrology#EMMO_02c0621e_a527_4790_8a0f_2bb51973c819" xlink:title="PhysicalQuantity">
<ellipse fill="#ffffcc" stroke="#000000" stroke-width="2" cx="1069.2463" cy="-119" rx="71.4873" ry="18"/>
<text text-anchor="middle" x="1069.2463" y="-115.3" font-family="Times,serif" font-size="14.00" fill="#000000">PhysicalQuantity</text>
</a>
</g>
</g>
<!-- PhysicalQuantity&#45;&gt;Mathematical -->
<g id="edge10" class="edge">
<title>PhysicalQuantity&#45;&gt;Mathematical</title>
<path fill="none" stroke="#000000" d="M1017.104,-131.3527C1007.537,-133.4008 997.6151,-135.3813 988.2463,-137 858.8982,-159.3483 706.3726,-176.0959 620.6244,-184.6443"/>
<polygon fill="none" stroke="#000000" points="620.111,-181.178 610.5044,-185.646 620.8006,-188.1439 620.111,-181.178"/>
</g>
<!-- key1 -->
<g id="node15" class="node">
<title>key1</title>
<text text-anchor="start" x="1101.2463" y="-47.3" font-family="Times,serif" font-size="14.00" fill="#000000">isA</text>
<text text-anchor="start" x="1055.2463" y="-28.3" font-family="Times,serif" font-size="14.00" fill="#000000">hasVariable</text>
<text text-anchor="start" x="1080.2463" y="-9.3" font-family="Times,serif" font-size="14.00" fill="#000000">inverse</text>
</g>
<!-- key2 -->
<g id="node16" class="node">
<title>key2</title>
<text text-anchor="start" x="1173.2463" y="-47.3" font-family="Times,serif" font-size="14.00" fill="#000000"> </text>
<text text-anchor="start" x="1173.2463" y="-28.3" font-family="Times,serif" font-size="14.00" fill="#000000"> </text>
<text text-anchor="start" x="1173.2463" y="-9.3" font-family="Times,serif" font-size="14.00" fill="#000000"> </text>
</g>
<!-- key1&#45;&gt;key2 -->
<g id="edge16" class="edge">
<title>key1:e&#45;&gt;key2:w</title>
<path fill="none" stroke="#000000" d="M1122.2463,-13.5C1140.1108,-13.5 1146.9845,-13.5 1160.8992,-13.5"/>
<polygon fill="#000000" stroke="#000000" points="1171.2463,-17 1161.2463,-13.5001 1171.2462,-10 1171.2463,-17"/>
</g>
<!-- key1&#45;&gt;key2 -->
<g id="edge17" class="edge">
<title>key1:e&#45;&gt;key2:w</title>
<path fill="none" stroke="#ffa500" stroke-dasharray="5,2" d="M1122.2463,-33.5C1140.1108,-33.5 1146.9845,-33.5 1160.8992,-33.5"/>
<polygon fill="#ffa500" stroke="#ffa500" points="1161.2463,-37.0001 1171.2463,-33.5 1161.2462,-30.0001 1161.2463,-37.0001"/>
</g>
<!-- key1&#45;&gt;key2 -->
<g id="edge18" class="edge">
<title>key1:e&#45;&gt;key2:w</title>
<path fill="none" stroke="#000000" d="M1122.2463,-52.5C1140.1108,-52.5 1146.9845,-52.5 1160.8992,-52.5"/>
<polygon fill="none" stroke="#000000" points="1161.2463,-56.0001 1171.2463,-52.5 1161.2462,-49.0001 1161.2463,-56.0001"/>
</g>
</g>
</svg>
