<?xml version="1.0" encoding="UTF-8" standalone="no"?>
<!DOCTYPE svg PUBLIC "-//W3C//DTD SVG 1.1//EN"
 "http://www.w3.org/Graphics/SVG/1.1/DTD/svg11.dtd">
<!-- Generated by graphviz version 2.40.1 (20161225.0304)
 -->
<!-- Title: %3 Pages: 1 -->
<svg width="891pt" height="392pt"
 viewBox="0.00 0.00 891.39 392.00" xmlns="http://www.w3.org/2000/svg" xmlns:xlink="http://www.w3.org/1999/xlink">
<g id="graph0" class="graph" transform="scale(1 1) rotate(0) translate(4 388)">
<title>%3</title>
<polygon fill="#ffffff" stroke="transparent" points="-4,4 -4,-388 887.3864,-388 887.3864,4 -4,4"/>
<!-- UnitOne -->
<g id="node1" class="node">
<title>UnitOne</title>
<g id="a_node1"><a xlink:href="http://emmo.info/emmo/middle/units#EMMO_5ebd5e01_0ed3_49a2_a30d_cd05cbe72978" xlink:title="UnitOne">
<ellipse fill="#ffffcc" stroke="#000000" cx="43.5461" cy="-18" rx="40.8928" ry="18"/>
<text text-anchor="middle" x="43.5461" y="-14.3" font-family="Times,serif" font-size="14.00" fill="#000000">UnitOne</text>
</a>
</g>
</g>
<!-- BaseUnit -->
<g id="node11" class="node">
<title>BaseUnit</title>
<g id="a_node11"><a xlink:href="http://emmo.info/emmo/middle/units#EMMO_db716151_6b73_45ff_910c_d182fdcbb4f5" xlink:title="BaseUnit">
<ellipse fill="#ffffcc" stroke="#000000" cx="43.5461" cy="-105" rx="43.5923" ry="18"/>
<text text-anchor="middle" x="43.5461" y="-101.3" font-family="Times,serif" font-size="14.00" fill="#000000">BaseUnit</text>
</a>
</g>
</g>
<!-- UnitOne&#45;&gt;BaseUnit -->
<g id="edge4" class="edge">
<title>UnitOne&#45;&gt;BaseUnit</title>
<path fill="none" stroke="#000000" d="M43.5461,-36.0265C43.5461,-47.8082 43.5461,-63.4393 43.5461,-76.8419"/>
<polygon fill="none" stroke="#000000" points="40.0462,-76.9966 43.5461,-86.9966 47.0462,-76.9967 40.0462,-76.9966"/>
<text text-anchor="middle" x="53.0461" y="-57.8" font-family="Times,serif" font-size="14.00" fill="#000000">isA</text>
</g>
<!-- DerivedUnit -->
<g id="node2" class="node">
<title>DerivedUnit</title>
<g id="a_node2"><a xlink:href="http://emmo.info/emmo/middle/units#EMMO_08b308d4_31cd_4779_a784_aa92fc730f39" xlink:title="DerivedUnit">
<ellipse fill="#ffffcc" stroke="#000000" cx="416.5461" cy="-192" rx="54.6905" ry="18"/>
<text text-anchor="middle" x="416.5461" y="-188.3" font-family="Times,serif" font-size="14.00" fill="#000000">DerivedUnit</text>
</a>
</g>
</g>
<!-- NonPrefixedUnit -->
<g id="node8" class="node">
<title>NonPrefixedUnit</title>
<g id="a_node8"><a xlink:href="http://emmo.info/emmo/middle/units#EMMO_868ae137_4d25_493e_b270_21ea3d94849e" xlink:title="NonPrefixedUnit">
<ellipse fill="#ffffcc" stroke="#000000" cx="395.5461" cy="-279" rx="71.4873" ry="18"/>
<text text-anchor="middle" x="395.5461" y="-275.3" font-family="Times,serif" font-size="14.00" fill="#000000">NonPrefixedUnit</text>
</a>
</g>
</g>
<!-- DerivedUnit&#45;&gt;NonPrefixedUnit -->
<g id="edge2" class="edge">
<title>DerivedUnit&#45;&gt;NonPrefixedUnit</title>
<path fill="none" stroke="#000000" d="M412.1949,-210.0265C409.3229,-221.9249 405.5032,-237.7492 402.247,-251.2394"/>
<polygon fill="none" stroke="#000000" points="398.836,-250.4545 399.8918,-260.9966 405.6405,-252.0971 398.836,-250.4545"/>
<text text-anchor="middle" x="416.0461" y="-231.8" font-family="Times,serif" font-size="14.00" fill="#000000">isA</text>
</g>
<!-- SISpecialUnit -->
<g id="node3" class="node">
<title>SISpecialUnit</title>
<g id="a_node3"><a xlink:href="http://emmo.info/emmo/middle/siunits#EMMO_e9ffc696_5228_4ff9_8a60_0f5e05e9931b" xlink:title="SISpecialUnit">
<ellipse fill="#ffffcc" stroke="#000000" stroke-width="2" cx="299.5461" cy="-18" rx="59.5901" ry="18"/>
<text text-anchor="middle" x="299.5461" y="-14.3" font-family="Times,serif" font-size="14.00" fill="#000000">SISpecialUnit</text>
</a>
</g>
</g>
<!-- SpecialUnit -->
<g id="node4" class="node">
<title>SpecialUnit</title>
<g id="a_node4"><a xlink:href="http://emmo.info/emmo/middle/units#EMMO_3ee80521_3c23_4dd1_935d_9d522614a3e2" xlink:title="SpecialUnit">
<ellipse fill="#ffffcc" stroke="#000000" cx="233.5461" cy="-105" rx="51.9908" ry="18"/>
<text text-anchor="middle" x="233.5461" y="-101.3" font-family="Times,serif" font-size="14.00" fill="#000000">SpecialUnit</text>
</a>
</g>
</g>
<!-- SISpecialUnit&#45;&gt;SpecialUnit -->
<g id="edge17" class="edge">
<title>SISpecialUnit&#45;&gt;SpecialUnit</title>
<path fill="none" stroke="#000000" d="M286.1901,-35.6057C276.7074,-48.1056 263.8224,-65.0904 253.1735,-79.1276"/>
<polygon fill="none" stroke="#000000" points="250.1378,-77.3381 246.8824,-87.4204 255.7147,-81.5689 250.1378,-77.3381"/>
<text text-anchor="middle" x="279.0461" y="-57.8" font-family="Times,serif" font-size="14.00" fill="#000000">isA</text>
</g>
<!-- SIUnitSymbol -->
<g id="node5" class="node">
<title>SIUnitSymbol</title>
<g id="a_node5"><a xlink:href="http://emmo.info/emmo/middle/siunits#EMMO_32129fb5_df25_48fd_a29c_18a2f22a2dd5" xlink:title="SIUnitSymbol">
<ellipse fill="#ffffcc" stroke="#000000" cx="365.5461" cy="-105" rx="61.99" ry="18"/>
<text text-anchor="middle" x="365.5461" y="-101.3" font-family="Times,serif" font-size="14.00" fill="#000000">SIUnitSymbol</text>
</a>
</g>
</g>
<!-- SISpecialUnit&#45;&gt;SIUnitSymbol -->
<g id="edge16" class="edge">
<title>SISpecialUnit&#45;&gt;SIUnitSymbol</title>
<path fill="none" stroke="#000000" d="M312.9022,-35.6057C322.3848,-48.1056 335.2699,-65.0904 345.9188,-79.1276"/>
<polygon fill="none" stroke="#000000" points="343.3776,-81.5689 352.2099,-87.4204 348.9544,-77.3381 343.3776,-81.5689"/>
<text text-anchor="middle" x="345.0461" y="-57.8" font-family="Times,serif" font-size="14.00" fill="#000000">isA</text>
</g>
<!-- SpecialUnit&#45;&gt;DerivedUnit -->
<g id="edge6" class="edge">
<title>SpecialUnit&#45;&gt;DerivedUnit</title>
<path fill="none" stroke="#ffa500" d="M181.7231,-107.8053C130.9236,-112.4043 64.9673,-124.4722 93.5461,-156 107.268,-171.1378 256.2449,-171.697 276.5461,-174 302.6552,-176.9618 331.4539,-180.6004 356.1086,-183.8292"/>
<polygon fill="#ffa500" stroke="#ffa500" points="365.5884,-188.6076 356.1309,-183.832 366.5022,-181.6675 365.5884,-188.6076"/>
<text text-anchor="middle" x="156.0461" y="-144.8" font-family="Times,serif" font-size="14.00" fill="#000000">Inverse(hasSign) some</text>
</g>
<!-- UnitSymbol -->
<g id="node7" class="node">
<title>UnitSymbol</title>
<g id="a_node7"><a xlink:href="http://emmo.info/emmo/middle/units#EMMO_216f448e_cdbc_4aeb_a529_7a5fe7fc38bb" xlink:title="UnitSymbol">
<ellipse fill="#ffc880" stroke="#000000" cx="213.5461" cy="-192" rx="53.8905" ry="18"/>
<text text-anchor="middle" x="213.5461" y="-188.3" font-family="Times,serif" font-size="14.00" fill="#000000">UnitSymbol</text>
</a>
</g>
</g>
<!-- SpecialUnit&#45;&gt;UnitSymbol -->
<g id="edge5" class="edge">
<title>SpecialUnit&#45;&gt;UnitSymbol</title>
<path fill="none" stroke="#000000" d="M229.4021,-123.0265C226.6669,-134.9249 223.0291,-150.7492 219.9279,-164.2394"/>
<polygon fill="none" stroke="#000000" points="216.5143,-163.4667 217.6848,-173.9966 223.3364,-165.035 216.5143,-163.4667"/>
<text text-anchor="middle" x="235.0461" y="-144.8" font-family="Times,serif" font-size="14.00" fill="#000000">isA</text>
</g>
<!-- SIUnitSymbol&#45;&gt;UnitSymbol -->
<g id="edge12" class="edge">
<title>SIUnitSymbol&#45;&gt;UnitSymbol</title>
<path fill="none" stroke="#000000" d="M337.3123,-121.1601C312.5522,-135.3321 276.4169,-156.0148 249.5772,-171.377"/>
<polygon fill="none" stroke="#000000" points="247.8015,-168.3605 240.8612,-176.3657 251.2788,-174.4357 247.8015,-168.3605"/>
<text text-anchor="middle" x="308.0461" y="-144.8" font-family="Times,serif" font-size="14.00" fill="#000000">isA</text>
</g>
<!-- SICoherentUnit -->
<g id="node9" class="node">
<title>SICoherentUnit</title>
<g id="a_node9"><a xlink:href="http://emmo.info/emmo/middle/siunits#EMMO_707c6032_e272_4a20_98b5_d35c4f67be68" xlink:title="SICoherentUnit">
<ellipse fill="#ffffcc" stroke="#000000" cx="555.5461" cy="-192" rx="66.0889" ry="18"/>
<text text-anchor="middle" x="555.5461" y="-188.3" font-family="Times,serif" font-size="14.00" fill="#000000">SICoherentUnit</text>
</a>
</g>
</g>
<!-- SIUnitSymbol&#45;&gt;SICoherentUnit -->
<g id="edge11" class="edge">
<title>SIUnitSymbol&#45;&gt;SICoherentUnit</title>
<path fill="none" stroke="#000000" d="M399.077,-120.3536C430.6276,-134.8004 478.0302,-156.5059 512.3901,-172.2391"/>
<polygon fill="none" stroke="#000000" points="511.1621,-175.5262 521.7114,-176.5073 514.0764,-169.1617 511.1621,-175.5262"/>
<text text-anchor="middle" x="481.0461" y="-144.8" font-family="Times,serif" font-size="14.00" fill="#000000">isA</text>
</g>
<!-- MeasurementUnit -->
<g id="node6" class="node">
<title>MeasurementUnit</title>
<g id="a_node6"><a xlink:href="http://emmo.info/emmo/middle/units#EMMO_b081b346_7279_46ef_9a3d_2c088fcd79f4" xlink:title="MeasurementUnit">
<ellipse fill="#ffffcc" stroke="#000000" stroke-width="2" cx="607.5461" cy="-366" rx="75.2868" ry="18"/>
<text text-anchor="middle" x="607.5461" y="-362.3" font-family="Times,serif" font-size="14.00" fill="#000000">MeasurementUnit</text>
</a>
</g>
</g>
<!-- UnitSymbol&#45;&gt;NonPrefixedUnit -->
<g id="edge8" class="edge">
<title>UnitSymbol&#45;&gt;NonPrefixedUnit</title>
<path fill="none" stroke="#000000" d="M198.3411,-209.5309C191.0546,-220.1171 185.4854,-233.3756 193.5461,-243 209.1668,-261.6507 265.6239,-270.6475 314.8936,-274.9828"/>
<polygon fill="none" stroke="#000000" points="314.7045,-278.479 324.9587,-275.8141 315.2807,-271.5027 314.7045,-278.479"/>
<text text-anchor="middle" x="203.0461" y="-231.8" font-family="Times,serif" font-size="14.00" fill="#000000">isA</text>
</g>
<!-- NonPrefixedUnit&#45;&gt;MeasurementUnit -->
<g id="edge13" class="edge">
<title>NonPrefixedUnit&#45;&gt;MeasurementUnit</title>
<path fill="none" stroke="#000000" d="M432.9595,-294.3536C468.3546,-308.879 521.6301,-330.742 560.0168,-346.495"/>
<polygon fill="none" stroke="#000000" points="558.8553,-349.8016 569.4354,-350.3602 561.5129,-343.3257 558.8553,-349.8016"/>
<text text-anchor="middle" x="523.0461" y="-318.8" font-family="Times,serif" font-size="14.00" fill="#000000">isA</text>
</g>
<!-- SIUnit -->
<g id="node10" class="node">
<title>SIUnit</title>
<g id="a_node10"><a xlink:href="http://emmo.info/emmo/middle/siunits#EMMO_feb03a8a_bbb6_4918_a891_46713ef557f4" xlink:title="SIUnit">
<ellipse fill="#ffffcc" stroke="#000000" cx="648.5461" cy="-279" rx="34.394" ry="18"/>
<text text-anchor="middle" x="648.5461" y="-275.3" font-family="Times,serif" font-size="14.00" fill="#000000">SIUnit</text>
</a>
</g>
</g>
<!-- SICoherentUnit&#45;&gt;SIUnit -->
<g id="edge3" class="edge">
<title>SICoherentUnit&#45;&gt;SIUnit</title>
<path fill="none" stroke="#000000" d="M574.3661,-209.6057C588.6485,-222.9667 608.4086,-241.4519 623.9433,-255.9844"/>
<polygon fill="none" stroke="#000000" points="621.9366,-258.8999 631.6304,-263.1756 626.7187,-253.788 621.9366,-258.8999"/>
<text text-anchor="middle" x="617.0461" y="-231.8" font-family="Times,serif" font-size="14.00" fill="#000000">isA</text>
</g>
<!-- SIUnit&#45;&gt;MeasurementUnit -->
<g id="edge19" class="edge">
<title>SIUnit&#45;&gt;MeasurementUnit</title>
<path fill="none" stroke="#000000" d="M640.2492,-296.6057C634.6005,-308.592 627.0083,-324.7022 620.5611,-338.383"/>
<polygon fill="none" stroke="#000000" points="617.21,-337.2836 616.113,-347.8215 623.5421,-340.2678 617.21,-337.2836"/>
<text text-anchor="middle" x="639.0461" y="-318.8" font-family="Times,serif" font-size="14.00" fill="#000000">isA</text>
</g>
<!-- BaseUnit&#45;&gt;UnitSymbol -->
<g id="edge18" class="edge">
<title>BaseUnit&#45;&gt;UnitSymbol</title>
<path fill="none" stroke="#000000" d="M38.7837,-122.9607C37.0696,-133.7086 37.1028,-146.9863 44.5461,-156 58.1183,-172.4357 108.6987,-181.7174 151.0182,-186.723"/>
<polygon fill="none" stroke="#000000" points="150.6854,-190.2076 161.0137,-187.846 151.467,-183.2514 150.6854,-190.2076"/>
<text text-anchor="middle" x="54.0461" y="-144.8" font-family="Times,serif" font-size="14.00" fill="#000000">isA</text>
</g>
<!-- KindOfUnit -->
<g id="node12" class="node">
<title>KindOfUnit</title>
<g id="a_node12"><a xlink:href="http://emmo.info/emmo/middle/units#EMMO_ba827fd2_91cc_4085_947a_0f47559b4441" xlink:title="KindOfUnit">
<ellipse fill="#ffffcc" stroke="#000000" stroke-width="2" cx="754.5461" cy="-279" rx="53.0913" ry="18"/>
<text text-anchor="middle" x="754.5461" y="-275.3" font-family="Times,serif" font-size="14.00" fill="#000000">KindOfUnit</text>
</a>
</g>
</g>
<!-- KindOfUnit&#45;&gt;MeasurementUnit -->
<g id="edge14" class="edge">
<title>KindOfUnit&#45;&gt;MeasurementUnit</title>
<path fill="none" stroke="#000000" d="M727.9255,-294.755C704.6861,-308.509 670.7154,-328.6141 644.782,-343.9625"/>
<polygon fill="none" stroke="#000000" points="642.7981,-341.0695 635.975,-349.1748 646.3634,-347.0935 642.7981,-341.0695"/>
<text text-anchor="middle" x="699.0461" y="-318.8" font-family="Times,serif" font-size="14.00" fill="#000000">isA</text>
</g>
<!-- SINonCoherentDerivedUnit -->
<g id="node13" class="node">
<title>SINonCoherentDerivedUnit</title>
<g id="a_node13"><a xlink:href="http://emmo.info/emmo/middle/siunits#EMMO_60b78cc3_6011_4134_95ab_956f56d4bdc1" xlink:title="SINonCoherentDerivedUnit">
<ellipse fill="#ffffcc" stroke="#000000" cx="773.5461" cy="-105" rx="109.6807" ry="18"/>
<text text-anchor="middle" x="773.5461" y="-101.3" font-family="Times,serif" font-size="14.00" fill="#000000">SINonCoherentDerivedUnit</text>
</a>
</g>
</g>
<!-- SINonCoherentUnit -->
<g id="node16" class="node">
<title>SINonCoherentUnit</title>
<g id="a_node16"><a xlink:href="http://emmo.info/emmo/middle/siunits#EMMO_8246541a_f1f6_4d03_8bd7_fc6b76d17375" xlink:title="SINonCoherentUnit">
<ellipse fill="#ffffcc" stroke="#000000" cx="747.5461" cy="-192" rx="81.4863" ry="18"/>
<text text-anchor="middle" x="747.5461" y="-188.3" font-family="Times,serif" font-size="14.00" fill="#000000">SINonCoherentUnit</text>
</a>
</g>
</g>
<!-- SINonCoherentDerivedUnit&#45;&gt;SINonCoherentUnit -->
<g id="edge15" class="edge">
<title>SINonCoherentDerivedUnit&#45;&gt;SINonCoherentUnit</title>
<path fill="none" stroke="#000000" d="M768.1589,-123.0265C764.6031,-134.9249 759.8739,-150.7492 755.8424,-164.2394"/>
<polygon fill="none" stroke="#000000" points="752.4364,-163.4131 752.9265,-173.9966 759.1433,-165.4175 752.4364,-163.4131"/>
<text text-anchor="middle" x="771.0461" y="-144.8" font-family="Times,serif" font-size="14.00" fill="#000000">isA</text>
</g>
<!-- PrefixedUnit -->
<g id="node14" class="node">
<title>PrefixedUnit</title>
<g id="a_node14"><a xlink:href="http://emmo.info/emmo/middle/units#EMMO_c6d4a5e0_7e95_44df_a6db_84ee0a8bbc8e" xlink:title="PrefixedUnit">
<ellipse fill="#ffffcc" stroke="#000000" stroke-width="2" cx="540.5461" cy="-279" rx="55.7903" ry="18"/>
<text text-anchor="middle" x="540.5461" y="-275.3" font-family="Times,serif" font-size="14.00" fill="#000000">PrefixedUnit</text>
</a>
</g>
</g>
<!-- PrefixedUnit&#45;&gt;MeasurementUnit -->
<g id="edge9" class="edge">
<title>PrefixedUnit&#45;&gt;MeasurementUnit</title>
<path fill="none" stroke="#000000" d="M554.1046,-296.6057C563.6675,-309.0233 576.6392,-325.8671 587.4078,-339.8502"/>
<polygon fill="none" stroke="#000000" points="584.9033,-342.3345 593.7779,-348.1218 590.4493,-338.0634 584.9033,-342.3345"/>
<text text-anchor="middle" x="587.0461" y="-318.8" font-family="Times,serif" font-size="14.00" fill="#000000">isA</text>
</g>
<!-- PrefixedUnit&#45;&gt;UnitSymbol -->
<g id="edge10" class="edge">
<title>PrefixedUnit&#45;&gt;UnitSymbol</title>
<path fill="none" stroke="#006400" d="M499.9082,-266.4381C491.8966,-264.3338 483.5057,-262.3869 475.5461,-261 422.8568,-251.8195 279.0997,-274.0407 235.5461,-243 227.7868,-237.4699 222.7398,-228.6106 219.4673,-219.8161"/>
<polygon fill="#006400" stroke="#006400" points="222.7625,-218.6239 216.4765,-210.0953 216.0719,-220.6824 222.7625,-218.6239"/>
<text text-anchor="middle" x="318.0461" y="-231.8" font-family="Times,serif" font-size="14.00" fill="#000000">hasSpatialDirectPart exactly 1</text>
</g>
<!-- SICoherentDerivedUnit -->
<g id="node15" class="node">
<title>SICoherentDerivedUnit</title>
<g id="a_node15"><a xlink:href="http://emmo.info/emmo/middle/siunits#EMMO_1273eb34_de48_43a9_925f_104110469dd2" xlink:title="SICoherentDerivedUnit">
<ellipse fill="#ffffcc" stroke="#000000" cx="550.5461" cy="-105" rx="94.7833" ry="18"/>
<text text-anchor="middle" x="550.5461" y="-101.3" font-family="Times,serif" font-size="14.00" fill="#000000">SICoherentDerivedUnit</text>
</a>
</g>
</g>
<!-- SICoherentDerivedUnit&#45;&gt;SICoherentUnit -->
<g id="edge1" class="edge">
<title>SICoherentDerivedUnit&#45;&gt;SICoherentUnit</title>
<path fill="none" stroke="#000000" d="M551.5821,-123.0265C552.2593,-134.8082 553.1576,-150.4393 553.9279,-163.8419"/>
<polygon fill="none" stroke="#000000" points="550.4434,-164.214 554.5115,-173.9966 557.4318,-163.8123 550.4434,-164.214"/>
<text text-anchor="middle" x="562.0461" y="-144.8" font-family="Times,serif" font-size="14.00" fill="#000000">isA</text>
</g>
<!-- SINonCoherentUnit&#45;&gt;SIUnit -->
<g id="edge7" class="edge">
<title>SINonCoherentUnit&#45;&gt;SIUnit</title>
<path fill="none" stroke="#000000" d="M727.512,-209.6057C712.0716,-223.1746 690.6172,-242.0285 673.9676,-256.66"/>
<polygon fill="none" stroke="#000000" points="671.4288,-254.2316 666.2275,-263.4618 676.0496,-259.4897 671.4288,-254.2316"/>
<text text-anchor="middle" x="713.0461" y="-231.8" font-family="Times,serif" font-size="14.00" fill="#000000">isA</text>
</g>
</g>
</svg>
