<?xml version="1.0" encoding="UTF-8" standalone="no"?>
<!DOCTYPE svg PUBLIC "-//W3C//DTD SVG 1.1//EN"
 "http://www.w3.org/Graphics/SVG/1.1/DTD/svg11.dtd">
<!-- Generated by graphviz version 2.40.1 (20161225.0304)
 -->
<!-- Title: %3 Pages: 1 -->
<svg width="805pt" height="392pt"
 viewBox="0.00 0.00 805.39 392.00" xmlns="http://www.w3.org/2000/svg" xmlns:xlink="http://www.w3.org/1999/xlink">
<g id="graph0" class="graph" transform="scale(1 1) rotate(0) translate(4 388)">
<title>%3</title>
<polygon fill="#ffffff" stroke="transparent" points="-4,4 -4,-388 801.3864,-388 801.3864,4 -4,4"/>
<!-- UnitOne -->
<g id="node1" class="node">
<title>UnitOne</title>
<g id="a_node1"><a xlink:href="http://emmo.info/emmo/middle/units#EMMO_5ebd5e01_0ed3_49a2_a30d_cd05cbe72978" xlink:title="UnitOne">
<ellipse fill="#ffffcc" stroke="#000000" cx="43.5461" cy="-18" rx="40.8928" ry="18"/>
<text text-anchor="middle" x="43.5461" y="-14.3" font-family="Times,serif" font-size="14.00" fill="#000000">UnitOne</text>
</a>
</g>
</g>
<!-- BaseUnit -->
<g id="node8" class="node">
<title>BaseUnit</title>
<g id="a_node8"><a xlink:href="http://emmo.info/emmo/middle/units#EMMO_db716151_6b73_45ff_910c_d182fdcbb4f5" xlink:title="BaseUnit">
<ellipse fill="#ffffcc" stroke="#000000" cx="43.5461" cy="-105" rx="43.5923" ry="18"/>
<text text-anchor="middle" x="43.5461" y="-101.3" font-family="Times,serif" font-size="14.00" fill="#000000">BaseUnit</text>
</a>
</g>
</g>
<!-- UnitOne&#45;&gt;BaseUnit -->
<g id="edge4" class="edge">
<title>UnitOne&#45;&gt;BaseUnit</title>
<path fill="none" stroke="#000000" d="M43.5461,-36.0265C43.5461,-47.8082 43.5461,-63.4393 43.5461,-76.8419"/>
<polygon fill="none" stroke="#000000" points="40.0462,-76.9966 43.5461,-86.9966 47.0462,-76.9967 40.0462,-76.9966"/>
<text text-anchor="middle" x="53.0461" y="-57.8" font-family="Times,serif" font-size="14.00" fill="#000000">isA</text>
</g>
<!-- SpecialUnit -->
<g id="node2" class="node">
<title>SpecialUnit</title>
<g id="a_node2"><a xlink:href="http://emmo.info/emmo/middle/units#EMMO_3ee80521_3c23_4dd1_935d_9d522614a3e2" xlink:title="SpecialUnit">
<ellipse fill="#ffffcc" stroke="#000000" cx="157.5461" cy="-105" rx="51.9908" ry="18"/>
<text text-anchor="middle" x="157.5461" y="-101.3" font-family="Times,serif" font-size="14.00" fill="#000000">SpecialUnit</text>
</a>
</g>
</g>
<!-- UnitSymbol -->
<g id="node4" class="node">
<title>UnitSymbol</title>
<g id="a_node4"><a xlink:href="http://emmo.info/emmo/middle/units#EMMO_216f448e_cdbc_4aeb_a529_7a5fe7fc38bb" xlink:title="UnitSymbol">
<ellipse fill="#ffc880" stroke="#000000" cx="98.5461" cy="-192" rx="53.8905" ry="18"/>
<text text-anchor="middle" x="98.5461" y="-188.3" font-family="Times,serif" font-size="14.00" fill="#000000">UnitSymbol</text>
</a>
</g>
</g>
<!-- SpecialUnit&#45;&gt;UnitSymbol -->
<g id="edge9" class="edge">
<title>SpecialUnit&#45;&gt;UnitSymbol</title>
<path fill="none" stroke="#000000" d="M123.2749,-118.7268C113.9473,-124.2096 104.9397,-131.5241 99.5461,-141 95.6911,-147.7729 94.3682,-155.9158 94.2922,-163.6865"/>
<polygon fill="none" stroke="#000000" points="90.8088,-164.0909 94.8406,-173.8886 97.7987,-163.7151 90.8088,-164.0909"/>
<text text-anchor="middle" x="109.0461" y="-144.8" font-family="Times,serif" font-size="14.00" fill="#000000">isA</text>
</g>
<!-- DerivedUnit -->
<g id="node15" class="node">
<title>DerivedUnit</title>
<g id="a_node15"><a xlink:href="http://emmo.info/emmo/middle/units#EMMO_08b308d4_31cd_4779_a784_aa92fc730f39" xlink:title="DerivedUnit">
<ellipse fill="#ffffcc" stroke="#000000" cx="325.5461" cy="-192" rx="54.6905" ry="18"/>
<text text-anchor="middle" x="325.5461" y="-188.3" font-family="Times,serif" font-size="14.00" fill="#000000">DerivedUnit</text>
</a>
</g>
</g>
<!-- SpecialUnit&#45;&gt;DerivedUnit -->
<g id="edge10" class="edge">
<title>SpecialUnit&#45;&gt;DerivedUnit</title>
<path fill="none" stroke="#ffa500" d="M144.441,-122.649C138.2577,-133.2797 133.7605,-146.5435 141.5461,-156 156.6768,-174.3779 214.5842,-183.5073 261.4472,-187.9571"/>
<polygon fill="#ffa500" stroke="#ffa500" points="271.2512,-192.3489 261.6032,-187.971 271.8755,-185.3768 271.2512,-192.3489"/>
<text text-anchor="middle" x="204.0461" y="-144.8" font-family="Times,serif" font-size="14.00" fill="#000000">Inverse(hasSign) some</text>
</g>
<!-- SIUnitSymbol -->
<g id="node3" class="node">
<title>SIUnitSymbol</title>
<g id="a_node3"><a xlink:href="http://emmo.info/emmo/middle/siunits#EMMO_32129fb5_df25_48fd_a29c_18a2f22a2dd5" xlink:title="SIUnitSymbol">
<ellipse fill="#ffffcc" stroke="#000000" cx="289.5461" cy="-105" rx="61.99" ry="18"/>
<text text-anchor="middle" x="289.5461" y="-101.3" font-family="Times,serif" font-size="14.00" fill="#000000">SIUnitSymbol</text>
</a>
</g>
</g>
<!-- SIUnitSymbol&#45;&gt;UnitSymbol -->
<g id="edge3" class="edge">
<title>SIUnitSymbol&#45;&gt;UnitSymbol</title>
<path fill="none" stroke="#000000" d="M285.7544,-123.1385C282.5007,-134.2349 276.6738,-147.8251 266.5461,-156 250.1424,-169.2409 200.6381,-178.8349 159.5855,-184.7727"/>
<polygon fill="none" stroke="#000000" points="159.0447,-181.3142 149.6265,-186.1669 160.0152,-188.2466 159.0447,-181.3142"/>
<text text-anchor="middle" x="287.0461" y="-144.8" font-family="Times,serif" font-size="14.00" fill="#000000">isA</text>
</g>
<!-- SICoherentUnit -->
<g id="node6" class="node">
<title>SICoherentUnit</title>
<g id="a_node6"><a xlink:href="http://emmo.info/emmo/middle/siunits#EMMO_707c6032_e272_4a20_98b5_d35c4f67be68" xlink:title="SICoherentUnit">
<ellipse fill="#ffffcc" stroke="#000000" cx="464.5461" cy="-192" rx="66.0889" ry="18"/>
<text text-anchor="middle" x="464.5461" y="-188.3" font-family="Times,serif" font-size="14.00" fill="#000000">SICoherentUnit</text>
</a>
</g>
</g>
<!-- SIUnitSymbol&#45;&gt;SICoherentUnit -->
<g id="edge2" class="edge">
<title>SIUnitSymbol&#45;&gt;SICoherentUnit</title>
<path fill="none" stroke="#000000" d="M320.8326,-120.5539C349.4325,-134.7721 391.927,-155.8979 423.2943,-171.4919"/>
<polygon fill="none" stroke="#000000" points="422.1314,-174.8224 432.644,-176.1401 425.2476,-168.5543 422.1314,-174.8224"/>
<text text-anchor="middle" x="396.0461" y="-144.8" font-family="Times,serif" font-size="14.00" fill="#000000">isA</text>
</g>
<!-- NonPrefixedUnit -->
<g id="node5" class="node">
<title>NonPrefixedUnit</title>
<g id="a_node5"><a xlink:href="http://emmo.info/emmo/middle/units#EMMO_868ae137_4d25_493e_b270_21ea3d94849e" xlink:title="NonPrefixedUnit">
<ellipse fill="#ffffcc" stroke="#000000" cx="297.5461" cy="-279" rx="71.4873" ry="18"/>
<text text-anchor="middle" x="297.5461" y="-275.3" font-family="Times,serif" font-size="14.00" fill="#000000">NonPrefixedUnit</text>
</a>
</g>
</g>
<!-- UnitSymbol&#45;&gt;NonPrefixedUnit -->
<g id="edge11" class="edge">
<title>UnitSymbol&#45;&gt;NonPrefixedUnit</title>
<path fill="none" stroke="#000000" d="M92.792,-209.9927C90.5482,-220.7527 90.0481,-234.0318 97.5461,-243 112.9159,-261.3833 168.2856,-270.3936 216.8785,-274.8019"/>
<polygon fill="none" stroke="#000000" points="216.8671,-278.3135 227.128,-275.6745 217.461,-271.3387 216.8671,-278.3135"/>
<text text-anchor="middle" x="107.0461" y="-231.8" font-family="Times,serif" font-size="14.00" fill="#000000">isA</text>
</g>
<!-- MeasurementUnit -->
<g id="node12" class="node">
<title>MeasurementUnit</title>
<g id="a_node12"><a xlink:href="http://emmo.info/emmo/middle/units#EMMO_b081b346_7279_46ef_9a3d_2c088fcd79f4" xlink:title="MeasurementUnit">
<ellipse fill="#ffffcc" stroke="#000000" stroke-width="2" cx="509.5461" cy="-366" rx="75.2868" ry="18"/>
<text text-anchor="middle" x="509.5461" y="-362.3" font-family="Times,serif" font-size="14.00" fill="#000000">MeasurementUnit</text>
</a>
</g>
</g>
<!-- NonPrefixedUnit&#45;&gt;MeasurementUnit -->
<g id="edge19" class="edge">
<title>NonPrefixedUnit&#45;&gt;MeasurementUnit</title>
<path fill="none" stroke="#000000" d="M334.9595,-294.3536C370.3546,-308.879 423.6301,-330.742 462.0168,-346.495"/>
<polygon fill="none" stroke="#000000" points="460.8553,-349.8016 471.4354,-350.3602 463.5129,-343.3257 460.8553,-349.8016"/>
<text text-anchor="middle" x="425.0461" y="-318.8" font-family="Times,serif" font-size="14.00" fill="#000000">isA</text>
</g>
<!-- SIUnit -->
<g id="node7" class="node">
<title>SIUnit</title>
<g id="a_node7"><a xlink:href="http://emmo.info/emmo/middle/siunits#EMMO_feb03a8a_bbb6_4918_a891_46713ef557f4" xlink:title="SIUnit">
<ellipse fill="#ffffcc" stroke="#000000" cx="550.5461" cy="-279" rx="34.394" ry="18"/>
<text text-anchor="middle" x="550.5461" y="-275.3" font-family="Times,serif" font-size="14.00" fill="#000000">SIUnit</text>
</a>
</g>
</g>
<!-- SICoherentUnit&#45;&gt;SIUnit -->
<g id="edge15" class="edge">
<title>SICoherentUnit&#45;&gt;SIUnit</title>
<path fill="none" stroke="#000000" d="M481.9495,-209.6057C495.0733,-222.8821 513.1986,-241.2182 527.5219,-255.708"/>
<polygon fill="none" stroke="#000000" points="525.0996,-258.2362 534.6189,-262.8875 530.0779,-253.3151 525.0996,-258.2362"/>
<text text-anchor="middle" x="522.0461" y="-231.8" font-family="Times,serif" font-size="14.00" fill="#000000">isA</text>
</g>
<!-- SIUnit&#45;&gt;MeasurementUnit -->
<g id="edge6" class="edge">
<title>SIUnit&#45;&gt;MeasurementUnit</title>
<path fill="none" stroke="#000000" d="M542.2492,-296.6057C536.6005,-308.592 529.0083,-324.7022 522.5611,-338.383"/>
<polygon fill="none" stroke="#000000" points="519.21,-337.2836 518.113,-347.8215 525.5421,-340.2678 519.21,-337.2836"/>
<text text-anchor="middle" x="541.0461" y="-318.8" font-family="Times,serif" font-size="14.00" fill="#000000">isA</text>
</g>
<!-- BaseUnit&#45;&gt;UnitSymbol -->
<g id="edge14" class="edge">
<title>BaseUnit&#45;&gt;UnitSymbol</title>
<path fill="none" stroke="#000000" d="M45.8709,-123.0276C47.8125,-133.2868 51.3125,-146.0368 57.5461,-156 60.3629,-160.502 63.9122,-164.7587 67.7382,-168.6616"/>
<polygon fill="none" stroke="#000000" points="65.6083,-171.4602 75.3168,-175.7025 70.3728,-166.3318 65.6083,-171.4602"/>
<text text-anchor="middle" x="67.0461" y="-144.8" font-family="Times,serif" font-size="14.00" fill="#000000">isA</text>
</g>
<!-- KindOfUnit -->
<g id="node9" class="node">
<title>KindOfUnit</title>
<g id="a_node9"><a xlink:href="http://emmo.info/emmo/middle/units#EMMO_ba827fd2_91cc_4085_947a_0f47559b4441" xlink:title="KindOfUnit">
<ellipse fill="#ffffcc" stroke="#000000" stroke-width="2" cx="656.5461" cy="-279" rx="53.0913" ry="18"/>
<text text-anchor="middle" x="656.5461" y="-275.3" font-family="Times,serif" font-size="14.00" fill="#000000">KindOfUnit</text>
</a>
</g>
</g>
<!-- KindOfUnit&#45;&gt;MeasurementUnit -->
<g id="edge18" class="edge">
<title>KindOfUnit&#45;&gt;MeasurementUnit</title>
<path fill="none" stroke="#000000" d="M629.9255,-294.755C606.6861,-308.509 572.7154,-328.6141 546.782,-343.9625"/>
<polygon fill="none" stroke="#000000" points="544.7981,-341.0695 537.975,-349.1748 548.3634,-347.0935 544.7981,-341.0695"/>
<text text-anchor="middle" x="601.0461" y="-318.8" font-family="Times,serif" font-size="14.00" fill="#000000">isA</text>
</g>
<!-- SINonCoherentDerivedUnit -->
<g id="node10" class="node">
<title>SINonCoherentDerivedUnit</title>
<g id="a_node10"><a xlink:href="http://emmo.info/emmo/middle/siunits#EMMO_60b78cc3_6011_4134_95ab_956f56d4bdc1" xlink:title="SINonCoherentDerivedUnit">
<ellipse fill="#ffffcc" stroke="#000000" cx="687.5461" cy="-105" rx="109.6807" ry="18"/>
<text text-anchor="middle" x="687.5461" y="-101.3" font-family="Times,serif" font-size="14.00" fill="#000000">SINonCoherentDerivedUnit</text>
</a>
</g>
</g>
<!-- SINonCoherentUnit -->
<g id="node14" class="node">
<title>SINonCoherentUnit</title>
<g id="a_node14"><a xlink:href="http://emmo.info/emmo/middle/siunits#EMMO_8246541a_f1f6_4d03_8bd7_fc6b76d17375" xlink:title="SINonCoherentUnit">
<ellipse fill="#ffffcc" stroke="#000000" cx="659.5461" cy="-192" rx="81.4863" ry="18"/>
<text text-anchor="middle" x="659.5461" y="-188.3" font-family="Times,serif" font-size="14.00" fill="#000000">SINonCoherentUnit</text>
</a>
</g>
</g>
<!-- SINonCoherentDerivedUnit&#45;&gt;SINonCoherentUnit -->
<g id="edge17" class="edge">
<title>SINonCoherentDerivedUnit&#45;&gt;SINonCoherentUnit</title>
<path fill="none" stroke="#000000" d="M681.7445,-123.0265C677.9151,-134.9249 672.8222,-150.7492 668.4806,-164.2394"/>
<polygon fill="none" stroke="#000000" points="665.0723,-163.4052 665.3403,-173.9966 671.7357,-165.5498 665.0723,-163.4052"/>
<text text-anchor="middle" x="684.0461" y="-144.8" font-family="Times,serif" font-size="14.00" fill="#000000">isA</text>
</g>
<!-- PrefixedUnit -->
<g id="node11" class="node">
<title>PrefixedUnit</title>
<g id="a_node11"><a xlink:href="http://emmo.info/emmo/middle/units#EMMO_c6d4a5e0_7e95_44df_a6db_84ee0a8bbc8e" xlink:title="PrefixedUnit">
<ellipse fill="#ffffcc" stroke="#000000" stroke-width="2" cx="442.5461" cy="-279" rx="55.7903" ry="18"/>
<text text-anchor="middle" x="442.5461" y="-275.3" font-family="Times,serif" font-size="14.00" fill="#000000">PrefixedUnit</text>
</a>
</g>
</g>
<!-- PrefixedUnit&#45;&gt;UnitSymbol -->
<g id="edge13" class="edge">
<title>PrefixedUnit&#45;&gt;UnitSymbol</title>
<path fill="none" stroke="#006400" d="M401.9071,-266.4441C393.8957,-264.3393 385.5051,-262.3906 377.5461,-261 325.516,-251.9091 187.4241,-267.336 140.5461,-243 129.7902,-237.4162 120.7585,-227.7543 113.8598,-218.3316"/>
<polygon fill="#006400" stroke="#006400" points="116.6377,-216.1913 108.1358,-209.8692 110.8395,-220.1133 116.6377,-216.1913"/>
<text text-anchor="middle" x="223.0461" y="-231.8" font-family="Times,serif" font-size="14.00" fill="#000000">hasSpatialDirectPart exactly 1</text>
</g>
<!-- PrefixedUnit&#45;&gt;MeasurementUnit -->
<g id="edge12" class="edge">
<title>PrefixedUnit&#45;&gt;MeasurementUnit</title>
<path fill="none" stroke="#000000" d="M456.1046,-296.6057C465.6675,-309.0233 478.6392,-325.8671 489.4078,-339.8502"/>
<polygon fill="none" stroke="#000000" points="486.9033,-342.3345 495.7779,-348.1218 492.4493,-338.0634 486.9033,-342.3345"/>
<text text-anchor="middle" x="489.0461" y="-318.8" font-family="Times,serif" font-size="14.00" fill="#000000">isA</text>
</g>
<!-- SICoherentDerivedUnit -->
<g id="node13" class="node">
<title>SICoherentDerivedUnit</title>
<g id="a_node13"><a xlink:href="http://emmo.info/emmo/middle/siunits#EMMO_1273eb34_de48_43a9_925f_104110469dd2" xlink:title="SICoherentDerivedUnit">
<ellipse fill="#ffffcc" stroke="#000000" cx="464.5461" cy="-105" rx="94.7833" ry="18"/>
<text text-anchor="middle" x="464.5461" y="-101.3" font-family="Times,serif" font-size="14.00" fill="#000000">SICoherentDerivedUnit</text>
</a>
</g>
</g>
<!-- SICoherentDerivedUnit&#45;&gt;SICoherentUnit -->
<g id="edge5" class="edge">
<title>SICoherentDerivedUnit&#45;&gt;SICoherentUnit</title>
<path fill="none" stroke="#000000" d="M464.5461,-123.0265C464.5461,-134.8082 464.5461,-150.4393 464.5461,-163.8419"/>
<polygon fill="none" stroke="#000000" points="461.0462,-163.9966 464.5461,-173.9966 468.0462,-163.9967 461.0462,-163.9966"/>
<text text-anchor="middle" x="474.0461" y="-144.8" font-family="Times,serif" font-size="14.00" fill="#000000">isA</text>
</g>
<!-- SINonCoherentUnit&#45;&gt;SIUnit -->
<g id="edge16" class="edge">
<title>SINonCoherentUnit&#45;&gt;SIUnit</title>
<path fill="none" stroke="#000000" d="M637.7503,-209.3967C620.4325,-223.2192 596.1234,-242.6218 577.5688,-257.4314"/>
<polygon fill="none" stroke="#000000" points="575.3833,-254.6976 569.751,-263.6714 579.75,-260.1686 575.3833,-254.6976"/>
<text text-anchor="middle" x="621.0461" y="-231.8" font-family="Times,serif" font-size="14.00" fill="#000000">isA</text>
</g>
<!-- DerivedUnit&#45;&gt;NonPrefixedUnit -->
<g id="edge1" class="edge">
<title>DerivedUnit&#45;&gt;NonPrefixedUnit</title>
<path fill="none" stroke="#000000" d="M319.7445,-210.0265C315.9151,-221.9249 310.8222,-237.7492 306.4806,-251.2394"/>
<polygon fill="none" stroke="#000000" points="303.0723,-250.4052 303.3403,-260.9966 309.7357,-252.5498 303.0723,-250.4052"/>
<text text-anchor="middle" x="322.0461" y="-231.8" font-family="Times,serif" font-size="14.00" fill="#000000">isA</text>
</g>
<!-- SISpecialUnit -->
<g id="node16" class="node">
<title>SISpecialUnit</title>
<g id="a_node16"><a xlink:href="http://emmo.info/emmo/middle/siunits#EMMO_e9ffc696_5228_4ff9_8a60_0f5e05e9931b" xlink:title="SISpecialUnit">
<ellipse fill="#ffffcc" stroke="#000000" stroke-width="2" cx="225.5461" cy="-18" rx="59.5901" ry="18"/>
<text text-anchor="middle" x="225.5461" y="-14.3" font-family="Times,serif" font-size="14.00" fill="#000000">SISpecialUnit</text>
</a>
</g>
</g>
<!-- SISpecialUnit&#45;&gt;SpecialUnit -->
<g id="edge8" class="edge">
<title>SISpecialUnit&#45;&gt;SpecialUnit</title>
<path fill="none" stroke="#000000" d="M211.7853,-35.6057C201.9232,-48.2235 188.4891,-65.4113 177.4583,-79.5241"/>
<polygon fill="none" stroke="#000000" points="174.6871,-77.3862 171.2865,-87.4204 180.2023,-81.6969 174.6871,-77.3862"/>
<text text-anchor="middle" x="205.0461" y="-57.8" font-family="Times,serif" font-size="14.00" fill="#000000">isA</text>
</g>
<!-- SISpecialUnit&#45;&gt;SIUnitSymbol -->
<g id="edge7" class="edge">
<title>SISpecialUnit&#45;&gt;SIUnitSymbol</title>
<path fill="none" stroke="#000000" d="M238.4975,-35.6057C247.6323,-48.0233 260.0231,-64.8671 270.3095,-78.8502"/>
<polygon fill="none" stroke="#000000" points="267.6493,-81.1406 276.3944,-87.1218 273.288,-76.9926 267.6493,-81.1406"/>
<text text-anchor="middle" x="270.0461" y="-57.8" font-family="Times,serif" font-size="14.00" fill="#000000">isA</text>
</g>
</g>
</svg>
