<?xml version="1.0" encoding="UTF-8" standalone="no"?>
<!DOCTYPE svg PUBLIC "-//W3C//DTD SVG 1.1//EN"
 "http://www.w3.org/Graphics/SVG/1.1/DTD/svg11.dtd">
<!-- Generated by graphviz version 2.40.1 (20161225.0304)
 -->
<!-- Title: %3 Pages: 1 -->
<svg width="1029pt" height="380pt"
 viewBox="0.00 0.00 1028.84 380.00" xmlns="http://www.w3.org/2000/svg" xmlns:xlink="http://www.w3.org/1999/xlink">
<g id="graph0" class="graph" transform="scale(1 1) rotate(0) translate(4 376)">
<title>%3</title>
<polygon fill="#ffffff" stroke="transparent" points="-4,4 -4,-376 1024.8403,-376 1024.8403,4 -4,4"/>
<!-- BaseUnit -->
<g id="node1" class="node">
<title>BaseUnit</title>
<g id="a_node1"><a xlink:href="http://emmo.info/emmo/middle/metrology#EMMO_db716151_6b73_45ff_910c_d182fdcbb4f5" xlink:title="BaseUnit">
<ellipse fill="#ffffcc" stroke="#000000" cx="488.8403" cy="-138" rx="43.5923" ry="18"/>
<text text-anchor="middle" x="488.8403" y="-134.3" font-family="Times,serif" font-size="14.00" fill="#000000">BaseUnit</text>
</a>
</g>
</g>
<!-- UnitSymbol -->
<g id="node14" class="node">
<title>UnitSymbol</title>
<g id="a_node14"><a xlink:href="http://emmo.info/emmo/middle/metrology#EMMO_216f448e_cdbc_4aeb_a529_7a5fe7fc38bb" xlink:title="UnitSymbol">
<ellipse fill="#ffc880" stroke="#000000" cx="611.8403" cy="-210" rx="53.8905" ry="18"/>
<text text-anchor="middle" x="611.8403" y="-206.3" font-family="Times,serif" font-size="14.00" fill="#000000">UnitSymbol</text>
</a>
</g>
</g>
<!-- BaseUnit&#45;&gt;UnitSymbol -->
<g id="edge20" class="edge">
<title>BaseUnit&#45;&gt;UnitSymbol</title>
<path fill="none" stroke="#000000" d="M514.0279,-152.744C531.947,-163.2332 556.2738,-177.4733 576.1835,-189.1278"/>
<polygon fill="none" stroke="#000000" points="574.5833,-192.2466 584.9816,-194.2778 578.1196,-186.2055 574.5833,-192.2466"/>
</g>
<!-- SINonCoherentUnit -->
<g id="node2" class="node">
<title>SINonCoherentUnit</title>
<g id="a_node2"><a xlink:href="http://emmo.info/emmo/middle/siunits#EMMO_8246541a_f1f6_4d03_8bd7_fc6b76d17375" xlink:title="SINonCoherentUnit">
<ellipse fill="#ffffcc" stroke="#000000" cx="151.8403" cy="-210" rx="81.4863" ry="18"/>
<text text-anchor="middle" x="151.8403" y="-206.3" font-family="Times,serif" font-size="14.00" fill="#000000">SINonCoherentUnit</text>
</a>
</g>
</g>
<!-- SIUnit -->
<g id="node9" class="node">
<title>SIUnit</title>
<g id="a_node9"><a xlink:href="http://emmo.info/emmo/middle/siunits#EMMO_feb03a8a_bbb6_4918_a891_46713ef557f4" xlink:title="SIUnit">
<ellipse fill="#ffffcc" stroke="#000000" cx="345.8403" cy="-282" rx="34.394" ry="18"/>
<text text-anchor="middle" x="345.8403" y="-278.3" font-family="Times,serif" font-size="14.00" fill="#000000">SIUnit</text>
</a>
</g>
</g>
<!-- SINonCoherentUnit&#45;&gt;SIUnit -->
<g id="edge19" class="edge">
<title>SINonCoherentUnit&#45;&gt;SIUnit</title>
<path fill="none" stroke="#000000" d="M196.3378,-225.2173C226.5335,-235.7137 267.2782,-250.2092 302.8403,-264 305.0685,-264.8641 307.3549,-265.7684 309.6563,-266.6921"/>
<polygon fill="none" stroke="#000000" points="308.5108,-270.0048 319.0918,-270.5453 311.1573,-263.5243 308.5108,-270.0048"/>
</g>
<!-- SISpecialUnit -->
<g id="node3" class="node">
<title>SISpecialUnit</title>
<g id="a_node3"><a xlink:href="http://emmo.info/emmo/middle/siunits#EMMO_e9ffc696_5228_4ff9_8a60_0f5e05e9931b" xlink:title="SISpecialUnit">
<ellipse fill="#ffffcc" stroke="#000000" stroke-width="2" cx="738.8403" cy="-42" rx="59.5901" ry="18"/>
<text text-anchor="middle" x="738.8403" y="-38.3" font-family="Times,serif" font-size="14.00" fill="#000000">SISpecialUnit</text>
</a>
</g>
</g>
<!-- SIUnitSymbol -->
<g id="node6" class="node">
<title>SIUnitSymbol</title>
<g id="a_node6"><a xlink:href="http://emmo.info/emmo/middle/siunits#EMMO_32129fb5_df25_48fd_a29c_18a2f22a2dd5" xlink:title="SIUnitSymbol">
<ellipse fill="#ffffcc" stroke="#000000" cx="611.8403" cy="-138" rx="61.99" ry="18"/>
<text text-anchor="middle" x="611.8403" y="-134.3" font-family="Times,serif" font-size="14.00" fill="#000000">SIUnitSymbol</text>
</a>
</g>
</g>
<!-- SISpecialUnit&#45;&gt;SIUnitSymbol -->
<g id="edge3" class="edge">
<title>SISpecialUnit&#45;&gt;SIUnitSymbol</title>
<path fill="none" stroke="#000000" d="M716.4275,-58.9419C695.8792,-74.4745 665.2714,-97.6111 642.4702,-114.8466"/>
<polygon fill="none" stroke="#000000" points="640.3229,-112.0823 634.4561,-120.9046 644.544,-117.6665 640.3229,-112.0823"/>
</g>
<!-- SpecialUnit -->
<g id="node12" class="node">
<title>SpecialUnit</title>
<g id="a_node12"><a xlink:href="http://emmo.info/emmo/middle/metrology#EMMO_3ee80521_3c23_4dd1_935d_9d522614a3e2" xlink:title="SpecialUnit">
<ellipse fill="#ffffcc" stroke="#000000" cx="743.8403" cy="-138" rx="51.9908" ry="18"/>
<text text-anchor="middle" x="743.8403" y="-134.3" font-family="Times,serif" font-size="14.00" fill="#000000">SpecialUnit</text>
</a>
</g>
</g>
<!-- SISpecialUnit&#45;&gt;SpecialUnit -->
<g id="edge2" class="edge">
<title>SISpecialUnit&#45;&gt;SpecialUnit</title>
<path fill="none" stroke="#000000" d="M739.7807,-60.0569C740.5024,-73.9138 741.5129,-93.3139 742.3451,-109.2925"/>
<polygon fill="none" stroke="#000000" points="738.8715,-109.8933 742.887,-119.6977 745.8621,-109.5292 738.8715,-109.8933"/>
</g>
<!-- OffSystemUnit -->
<g id="node4" class="node">
<title>OffSystemUnit</title>
<g id="a_node4"><a xlink:href="http://emmo.info/emmo/middle/metrology#EMMO_591e02fd_8d37_45a6_9d11_bb21cef391a0" xlink:title="OffSystemUnit">
<ellipse fill="#ffffcc" stroke="#000000" cx="228.8403" cy="-282" rx="64.9885" ry="18"/>
<text text-anchor="middle" x="228.8403" y="-278.3" font-family="Times,serif" font-size="14.00" fill="#000000">OffSystemUnit</text>
</a>
</g>
</g>
<!-- MeasurementUnit -->
<g id="node13" class="node">
<title>MeasurementUnit</title>
<g id="a_node13"><a xlink:href="http://emmo.info/emmo/middle/metrology#EMMO_b081b346_7279_46ef_9a3d_2c088fcd79f4" xlink:title="MeasurementUnit">
<ellipse fill="#ffffcc" stroke="#000000" stroke-width="2" cx="399.8403" cy="-354" rx="75.2868" ry="18"/>
<text text-anchor="middle" x="399.8403" y="-350.3" font-family="Times,serif" font-size="14.00" fill="#000000">MeasurementUnit</text>
</a>
</g>
</g>
<!-- OffSystemUnit&#45;&gt;MeasurementUnit -->
<g id="edge15" class="edge">
<title>OffSystemUnit&#45;&gt;MeasurementUnit</title>
<path fill="none" stroke="#000000" d="M264.6875,-297.0936C290.356,-307.9014 325.1615,-322.5563 353.023,-334.2875"/>
<polygon fill="none" stroke="#000000" points="351.9874,-337.649 362.562,-338.3039 354.7038,-331.1975 351.9874,-337.649"/>
</g>
<!-- SINonCoherentDerivedUnit -->
<g id="node5" class="node">
<title>SINonCoherentDerivedUnit</title>
<g id="a_node5"><a xlink:href="http://emmo.info/emmo/middle/siunits#EMMO_60b78cc3_6011_4134_95ab_956f56d4bdc1" xlink:title="SINonCoherentDerivedUnit">
<ellipse fill="#ffffcc" stroke="#000000" cx="109.8403" cy="-138" rx="109.6807" ry="18"/>
<text text-anchor="middle" x="109.8403" y="-134.3" font-family="Times,serif" font-size="14.00" fill="#000000">SINonCoherentDerivedUnit</text>
</a>
</g>
</g>
<!-- SINonCoherentDerivedUnit&#45;&gt;SINonCoherentUnit -->
<g id="edge4" class="edge">
<title>SINonCoherentDerivedUnit&#45;&gt;SINonCoherentUnit</title>
<path fill="none" stroke="#000000" d="M120.4386,-156.1686C125.2502,-164.4171 131.0365,-174.3365 136.3241,-183.4008"/>
<polygon fill="none" stroke="#000000" points="133.3288,-185.2124 141.3908,-192.0866 139.3752,-181.6852 133.3288,-185.2124"/>
</g>
<!-- SICoherentUnit -->
<g id="node7" class="node">
<title>SICoherentUnit</title>
<g id="a_node7"><a xlink:href="http://emmo.info/emmo/middle/siunits#EMMO_707c6032_e272_4a20_98b5_d35c4f67be68" xlink:title="SICoherentUnit">
<ellipse fill="#ffffcc" stroke="#000000" cx="345.8403" cy="-210" rx="66.0889" ry="18"/>
<text text-anchor="middle" x="345.8403" y="-206.3" font-family="Times,serif" font-size="14.00" fill="#000000">SICoherentUnit</text>
</a>
</g>
</g>
<!-- SIUnitSymbol&#45;&gt;SICoherentUnit -->
<g id="edge22" class="edge">
<title>SIUnitSymbol&#45;&gt;SICoherentUnit</title>
<path fill="none" stroke="#000000" d="M566.4155,-150.2954C521.16,-162.545 451.5523,-181.3862 402.6629,-194.6194"/>
<polygon fill="none" stroke="#000000" points="401.6063,-191.2794 392.8681,-197.2706 403.4353,-198.0363 401.6063,-191.2794"/>
</g>
<!-- SIUnitSymbol&#45;&gt;UnitSymbol -->
<g id="edge21" class="edge">
<title>SIUnitSymbol&#45;&gt;UnitSymbol</title>
<path fill="none" stroke="#000000" d="M611.8403,-156.1686C611.8403,-163.869 611.8403,-173.0257 611.8403,-181.5834"/>
<polygon fill="none" stroke="#000000" points="608.3404,-181.5867 611.8403,-191.5867 615.3404,-181.5868 608.3404,-181.5867"/>
</g>
<!-- SICoherentUnit&#45;&gt;SIUnit -->
<g id="edge9" class="edge">
<title>SICoherentUnit&#45;&gt;SIUnit</title>
<path fill="none" stroke="#000000" d="M345.8403,-228.1686C345.8403,-235.869 345.8403,-245.0257 345.8403,-253.5834"/>
<polygon fill="none" stroke="#000000" points="342.3404,-253.5867 345.8403,-263.5867 349.3404,-253.5868 342.3404,-253.5867"/>
</g>
<!-- UnitOne -->
<g id="node8" class="node">
<title>UnitOne</title>
<g id="a_node8"><a xlink:href="http://emmo.info/emmo/middle/metrology#EMMO_5ebd5e01_0ed3_49a2_a30d_cd05cbe72978" xlink:title="UnitOne">
<ellipse fill="#ffffcc" stroke="#000000" cx="488.8403" cy="-42" rx="40.8928" ry="18"/>
<text text-anchor="middle" x="488.8403" y="-38.3" font-family="Times,serif" font-size="14.00" fill="#000000">UnitOne</text>
</a>
</g>
</g>
<!-- UnitOne&#45;&gt;BaseUnit -->
<g id="edge5" class="edge">
<title>UnitOne&#45;&gt;BaseUnit</title>
<path fill="none" stroke="#000000" d="M488.8403,-60.0569C488.8403,-73.9138 488.8403,-93.3139 488.8403,-109.2925"/>
<polygon fill="none" stroke="#000000" points="485.3403,-109.6977 488.8403,-119.6977 492.3403,-109.6977 485.3403,-109.6977"/>
</g>
<!-- SIUnit&#45;&gt;MeasurementUnit -->
<g id="edge1" class="edge">
<title>SIUnit&#45;&gt;MeasurementUnit</title>
<path fill="none" stroke="#000000" d="M358.6375,-299.063C365.1023,-307.6827 373.0857,-318.3273 380.2986,-327.9445"/>
<polygon fill="none" stroke="#000000" points="377.5813,-330.1547 386.3813,-336.0547 383.1813,-325.9547 377.5813,-330.1547"/>
</g>
<!-- PrefixedUnit -->
<g id="node10" class="node">
<title>PrefixedUnit</title>
<g id="a_node10"><a xlink:href="http://emmo.info/emmo/middle/metrology#EMMO_c6d4a5e0_7e95_44df_a6db_84ee0a8bbc8e" xlink:title="PrefixedUnit">
<ellipse fill="#ffffcc" stroke="#000000" stroke-width="2" cx="453.8403" cy="-282" rx="55.7903" ry="18"/>
<text text-anchor="middle" x="453.8403" y="-278.3" font-family="Times,serif" font-size="14.00" fill="#000000">PrefixedUnit</text>
</a>
</g>
</g>
<!-- PrefixedUnit&#45;&gt;MeasurementUnit -->
<g id="edge10" class="edge">
<title>PrefixedUnit&#45;&gt;MeasurementUnit</title>
<path fill="none" stroke="#000000" d="M440.4919,-299.7978C434.1313,-308.2786 426.3989,-318.5885 419.3924,-327.9304"/>
<polygon fill="none" stroke="#000000" points="416.4222,-326.0574 413.2222,-336.1575 422.0222,-330.2574 416.4222,-326.0574"/>
</g>
<!-- PrefixedUnit&#45;&gt;UnitSymbol -->
<g id="edge11" class="edge">
<title>PrefixedUnit&#45;&gt;UnitSymbol</title>
<path fill="none" stroke="#006400" d="M486.3087,-267.2043C510.6875,-256.0949 544.2522,-240.7996 570.5409,-228.8199"/>
<polygon fill="#006400" stroke="#006400" points="572.2182,-231.9019 579.8666,-224.5703 569.3155,-225.5321 572.2182,-231.9019"/>
</g>
<!-- SICoherentDerivedUnit -->
<g id="node11" class="node">
<title>SICoherentDerivedUnit</title>
<g id="a_node11"><a xlink:href="http://emmo.info/emmo/middle/siunits#EMMO_1273eb34_de48_43a9_925f_104110469dd2" xlink:title="SICoherentDerivedUnit">
<ellipse fill="#ffffcc" stroke="#000000" cx="332.8403" cy="-138" rx="94.7833" ry="18"/>
<text text-anchor="middle" x="332.8403" y="-134.3" font-family="Times,serif" font-size="14.00" fill="#000000">SICoherentDerivedUnit</text>
</a>
</g>
</g>
<!-- SICoherentDerivedUnit&#45;&gt;SICoherentUnit -->
<g id="edge18" class="edge">
<title>SICoherentDerivedUnit&#45;&gt;SICoherentUnit</title>
<path fill="none" stroke="#000000" d="M336.1207,-156.1686C337.5111,-163.869 339.1643,-173.0257 340.7095,-181.5834"/>
<polygon fill="none" stroke="#000000" points="337.2944,-182.3678 342.5156,-191.5867 344.183,-181.1239 337.2944,-182.3678"/>
</g>
<!-- SpecialUnit&#45;&gt;UnitSymbol -->
<g id="edge13" class="edge">
<title>SpecialUnit&#45;&gt;UnitSymbol</title>
<path fill="none" stroke="#000000" d="M715.8464,-153.2693C696.4651,-163.841 670.4506,-178.0307 649.2879,-189.574"/>
<polygon fill="none" stroke="#000000" points="647.3517,-186.6432 640.2488,-194.5044 650.7037,-192.7885 647.3517,-186.6432"/>
</g>
<!-- DerivedUnit -->
<g id="node15" class="node">
<title>DerivedUnit</title>
<g id="a_node15"><a xlink:href="http://emmo.info/emmo/middle/metrology#EMMO_08b308d4_31cd_4779_a784_aa92fc730f39" xlink:title="DerivedUnit">
<ellipse fill="#ffffcc" stroke="#000000" cx="740.8403" cy="-210" rx="54.6905" ry="18"/>
<text text-anchor="middle" x="740.8403" y="-206.3" font-family="Times,serif" font-size="14.00" fill="#000000">DerivedUnit</text>
</a>
</g>
</g>
<!-- SpecialUnit&#45;&gt;DerivedUnit -->
<g id="edge12" class="edge">
<title>SpecialUnit&#45;&gt;DerivedUnit</title>
<path fill="none" stroke="#000000" d="M737.1308,-156.1686C736.0596,-163.869 735.4571,-173.0257 735.4092,-181.5834"/>
<polygon fill="none" stroke="#000000" points="731.9101,-181.667 735.6315,-191.5867 738.9084,-181.5114 731.9101,-181.667"/>
</g>
<!-- SpecialUnit&#45;&gt;DerivedUnit -->
<g id="edge14" class="edge">
<title>SpecialUnit&#45;&gt;DerivedUnit</title>
<path fill="none" stroke="#ffa500" d="M749.0356,-156.1686C749.4718,-163.9875 749.2995,-173.3077 748.6083,-181.9779"/>
<polygon fill="#ffa500" stroke="#ffa500" points="744.0343,-191.7098 748.5903,-182.1447 750.9936,-192.4633 744.0343,-191.7098"/>
</g>
<!-- NonPrefixedUnit -->
<g id="node17" class="node">
<title>NonPrefixedUnit</title>
<g id="a_node17"><a xlink:href="http://emmo.info/emmo/middle/metrology#EMMO_868ae137_4d25_493e_b270_21ea3d94849e" xlink:title="NonPrefixedUnit">
<ellipse fill="#ffc880" stroke="#000000" cx="611.8403" cy="-282" rx="71.4873" ry="18"/>
<text text-anchor="middle" x="611.8403" y="-278.3" font-family="Times,serif" font-size="14.00" fill="#000000">NonPrefixedUnit</text>
</a>
</g>
</g>
<!-- UnitSymbol&#45;&gt;NonPrefixedUnit -->
<g id="edge8" class="edge">
<title>UnitSymbol&#45;&gt;NonPrefixedUnit</title>
<path fill="none" stroke="#000000" d="M611.8403,-228.1686C611.8403,-235.869 611.8403,-245.0257 611.8403,-253.5834"/>
<polygon fill="none" stroke="#000000" points="608.3404,-253.5867 611.8403,-263.5867 615.3404,-253.5868 608.3404,-253.5867"/>
</g>
<!-- DerivedUnit&#45;&gt;NonPrefixedUnit -->
<g id="edge7" class="edge">
<title>DerivedUnit&#45;&gt;NonPrefixedUnit</title>
<path fill="none" stroke="#000000" d="M712.8492,-225.6229C694.5994,-235.8089 670.5353,-249.24 650.473,-260.4375"/>
<polygon fill="none" stroke="#000000" points="648.5983,-257.4756 641.5721,-265.4055 652.0099,-263.588 648.5983,-257.4756"/>
</g>
<!-- SIBaseUnit -->
<g id="node16" class="node">
<title>SIBaseUnit</title>
<g id="a_node16"><a xlink:href="http://emmo.info/emmo/middle/siunits#EMMO_3a185e6c_9e19_4776_b583_19c978156aa0" xlink:title="SIBaseUnit">
<ellipse fill="#ffffcc" stroke="#000000" stroke-width="2" cx="604.8403" cy="-42" rx="51.1914" ry="18"/>
<text text-anchor="middle" x="604.8403" y="-38.3" font-family="Times,serif" font-size="14.00" fill="#000000">SIBaseUnit</text>
</a>
</g>
</g>
<!-- SIBaseUnit&#45;&gt;BaseUnit -->
<g id="edge16" class="edge">
<title>SIBaseUnit&#45;&gt;BaseUnit</title>
<path fill="none" stroke="#000000" d="M584.6346,-58.7219C565.724,-74.3721 537.3192,-97.8795 516.3471,-115.2357"/>
<polygon fill="none" stroke="#000000" points="513.9003,-112.7175 508.4279,-121.7896 518.3633,-118.1102 513.9003,-112.7175"/>
</g>
<!-- SIBaseUnit&#45;&gt;SIUnitSymbol -->
<g id="edge17" class="edge">
<title>SIBaseUnit&#45;&gt;SIUnitSymbol</title>
<path fill="none" stroke="#000000" d="M606.1569,-60.0569C607.1673,-73.9138 608.5819,-93.3139 609.747,-109.2925"/>
<polygon fill="none" stroke="#000000" points="606.2877,-109.9787 610.5057,-119.6977 613.2691,-109.4696 606.2877,-109.9787"/>
</g>
<!-- NonPrefixedUnit&#45;&gt;MeasurementUnit -->
<g id="edge6" class="edge">
<title>NonPrefixedUnit&#45;&gt;MeasurementUnit</title>
<path fill="none" stroke="#000000" d="M569.1939,-296.4837C535.8162,-307.8195 489.2011,-323.651 453.3249,-335.8354"/>
<polygon fill="none" stroke="#000000" points="451.854,-332.6385 443.5107,-339.1685 454.1051,-339.2667 451.854,-332.6385"/>
</g>
<!-- key1 -->
<g id="node18" class="node">
<title>key1</title>
<text text-anchor="start" x="919.8403" y="-66.8" font-family="Times,serif" font-size="14.00" fill="#000000">isA</text>
<text text-anchor="start" x="895.8403" y="-47.8" font-family="Times,serif" font-size="14.00" fill="#000000">hasSign</text>
<text text-anchor="start" x="826.8403" y="-28.8" font-family="Times,serif" font-size="14.00" fill="#000000">hasSpatialDirectPart</text>
<text text-anchor="start" x="898.8403" y="-9.8" font-family="Times,serif" font-size="14.00" fill="#000000">inverse</text>
</g>
<!-- key2 -->
<g id="node19" class="node">
<title>key2</title>
<text text-anchor="start" x="991.8403" y="-66.8" font-family="Times,serif" font-size="14.00" fill="#000000"> </text>
<text text-anchor="start" x="991.8403" y="-47.8" font-family="Times,serif" font-size="14.00" fill="#000000"> </text>
<text text-anchor="start" x="991.8403" y="-28.8" font-family="Times,serif" font-size="14.00" fill="#000000"> </text>
<text text-anchor="start" x="991.8403" y="-9.8" font-family="Times,serif" font-size="14.00" fill="#000000"> </text>
</g>
<!-- key1&#45;&gt;key2 -->
<g id="edge23" class="edge">
<title>key1:e&#45;&gt;key2:w</title>
<path fill="none" stroke="#000000" d="M940.8403,-13C958.7048,-13 965.5785,-13 979.4932,-13"/>
<polygon fill="#000000" stroke="#000000" points="989.8403,-16.5 979.8403,-13.0001 989.8402,-9.5 989.8403,-16.5"/>
</g>
<!-- key1&#45;&gt;key2 -->
<g id="edge24" class="edge">
<title>key1:e&#45;&gt;key2:w</title>
<path fill="none" stroke="#006400" d="M940.8403,-32C958.7048,-32 965.5785,-32 979.4932,-32"/>
<polygon fill="#006400" stroke="#006400" points="979.8403,-35.5001 989.8403,-32 979.8402,-28.5001 979.8403,-35.5001"/>
</g>
<!-- key1&#45;&gt;key2 -->
<g id="edge25" class="edge">
<title>key1:e&#45;&gt;key2:w</title>
<path fill="none" stroke="#ffa500" d="M940.8403,-52C958.7048,-52 965.5785,-52 979.4932,-52"/>
<polygon fill="#ffa500" stroke="#ffa500" points="979.8403,-55.5001 989.8403,-52 979.8402,-48.5001 979.8403,-55.5001"/>
</g>
<!-- key1&#45;&gt;key2 -->
<g id="edge26" class="edge">
<title>key1:e&#45;&gt;key2:w</title>
<path fill="none" stroke="#000000" d="M940.8403,-71C958.7048,-71 965.5785,-71 979.4932,-71"/>
<polygon fill="none" stroke="#000000" points="979.8403,-74.5001 989.8403,-71 979.8402,-67.5001 979.8403,-74.5001"/>
</g>
</g>
</svg>
