<?xml version="1.0" encoding="UTF-8" standalone="no"?>
<!DOCTYPE svg PUBLIC "-//W3C//DTD SVG 1.1//EN"
 "http://www.w3.org/Graphics/SVG/1.1/DTD/svg11.dtd">
<!-- Generated by graphviz version 2.40.1 (20161225.0304)
 -->
<!-- Title: %3 Pages: 1 -->
<svg width="804pt" height="380pt"
 viewBox="0.00 0.00 803.84 380.00" xmlns="http://www.w3.org/2000/svg" xmlns:xlink="http://www.w3.org/1999/xlink">
<g id="graph0" class="graph" transform="scale(1 1) rotate(0) translate(4 376)">
<title>%3</title>
<polygon fill="#ffffff" stroke="transparent" points="-4,4 -4,-376 799.8356,-376 799.8356,4 -4,4"/>
<!-- MeasurementUnit -->
<g id="node1" class="node">
<title>MeasurementUnit</title>
<g id="a_node1"><a xlink:href="http://emmo.info/emmo/middle/metrology#EMMO_b081b346_7279_46ef_9a3d_2c088fcd79f4" xlink:title="MeasurementUnit">
<ellipse fill="#ffffcc" stroke="#000000" stroke-width="2" cx="399.9954" cy="-354" rx="75.2868" ry="18"/>
<text text-anchor="middle" x="399.9954" y="-350.3" font-family="Times,serif" font-size="14.00" fill="#000000">MeasurementUnit</text>
</a>
</g>
</g>
<!-- UnitSymbol -->
<g id="node2" class="node">
<title>UnitSymbol</title>
<g id="a_node2"><a xlink:href="http://emmo.info/emmo/middle/metrology#EMMO_216f448e_cdbc_4aeb_a529_7a5fe7fc38bb" xlink:title="UnitSymbol">
<ellipse fill="#ffc880" stroke="#000000" cx="183.9954" cy="-210" rx="53.8905" ry="18"/>
<text text-anchor="middle" x="183.9954" y="-206.3" font-family="Times,serif" font-size="14.00" fill="#000000">UnitSymbol</text>
</a>
</g>
</g>
<!-- NonPrefixedUnit -->
<g id="node6" class="node">
<title>NonPrefixedUnit</title>
<g id="a_node6"><a xlink:href="http://emmo.info/emmo/middle/metrology#EMMO_868ae137_4d25_493e_b270_21ea3d94849e" xlink:title="NonPrefixedUnit">
<ellipse fill="#ffc880" stroke="#000000" cx="183.9954" cy="-282" rx="71.4873" ry="18"/>
<text text-anchor="middle" x="183.9954" y="-278.3" font-family="Times,serif" font-size="14.00" fill="#000000">NonPrefixedUnit</text>
</a>
</g>
</g>
<!-- UnitSymbol&#45;&gt;NonPrefixedUnit -->
<g id="edge19" class="edge">
<title>UnitSymbol&#45;&gt;NonPrefixedUnit</title>
<path fill="none" stroke="#000000" d="M183.9954,-228.1686C183.9954,-235.869 183.9954,-245.0257 183.9954,-253.5834"/>
<polygon fill="none" stroke="#000000" points="180.4955,-253.5867 183.9954,-263.5867 187.4955,-253.5868 180.4955,-253.5867"/>
</g>
<!-- DerivedUnit -->
<g id="node3" class="node">
<title>DerivedUnit</title>
<g id="a_node3"><a xlink:href="http://emmo.info/emmo/middle/metrology#EMMO_08b308d4_31cd_4779_a784_aa92fc730f39" xlink:title="DerivedUnit">
<ellipse fill="#ffffcc" stroke="#000000" cx="54.9954" cy="-210" rx="54.6905" ry="18"/>
<text text-anchor="middle" x="54.9954" y="-206.3" font-family="Times,serif" font-size="14.00" fill="#000000">DerivedUnit</text>
</a>
</g>
</g>
<!-- DerivedUnit&#45;&gt;NonPrefixedUnit -->
<g id="edge1" class="edge">
<title>DerivedUnit&#45;&gt;NonPrefixedUnit</title>
<path fill="none" stroke="#000000" d="M82.9865,-225.6229C101.2363,-235.8089 125.3004,-249.24 145.3626,-260.4375"/>
<polygon fill="none" stroke="#000000" points="143.8257,-263.588 154.2635,-265.4055 147.2373,-257.4756 143.8257,-263.588"/>
</g>
<!-- SINonCoherentDerivedUnit -->
<g id="node4" class="node">
<title>SINonCoherentDerivedUnit</title>
<g id="a_node4"><a xlink:href="http://emmo.info/emmo/middle/siunits#EMMO_60b78cc3_6011_4134_95ab_956f56d4bdc1" xlink:title="SINonCoherentDerivedUnit">
<ellipse fill="#ffffcc" stroke="#000000" cx="685.9954" cy="-138" rx="109.6807" ry="18"/>
<text text-anchor="middle" x="685.9954" y="-134.3" font-family="Times,serif" font-size="14.00" fill="#000000">SINonCoherentDerivedUnit</text>
</a>
</g>
</g>
<!-- SINonCoherentUnit -->
<g id="node9" class="node">
<title>SINonCoherentUnit</title>
<g id="a_node9"><a xlink:href="http://emmo.info/emmo/middle/siunits#EMMO_8246541a_f1f6_4d03_8bd7_fc6b76d17375" xlink:title="SINonCoherentUnit">
<ellipse fill="#ffffcc" stroke="#000000" cx="656.9954" cy="-210" rx="81.4863" ry="18"/>
<text text-anchor="middle" x="656.9954" y="-206.3" font-family="Times,serif" font-size="14.00" fill="#000000">SINonCoherentUnit</text>
</a>
</g>
</g>
<!-- SINonCoherentDerivedUnit&#45;&gt;SINonCoherentUnit -->
<g id="edge2" class="edge">
<title>SINonCoherentDerivedUnit&#45;&gt;SINonCoherentUnit</title>
<path fill="none" stroke="#000000" d="M678.6775,-156.1686C675.5077,-164.0383 671.7254,-173.4288 668.2141,-182.1467"/>
<polygon fill="none" stroke="#000000" points="664.9015,-181.0032 664.4118,-191.5867 671.3946,-183.6185 664.9015,-181.0032"/>
</g>
<!-- SIBaseUnit -->
<g id="node5" class="node">
<title>SIBaseUnit</title>
<g id="a_node5"><a xlink:href="http://emmo.info/emmo/middle/siunits#EMMO_3a185e6c_9e19_4776_b583_19c978156aa0" xlink:title="SIBaseUnit">
<ellipse fill="#ffffcc" stroke="#000000" stroke-width="2" cx="189.9954" cy="-42" rx="51.1914" ry="18"/>
<text text-anchor="middle" x="189.9954" y="-38.3" font-family="Times,serif" font-size="14.00" fill="#000000">SIBaseUnit</text>
</a>
</g>
</g>
<!-- BaseUnit -->
<g id="node7" class="node">
<title>BaseUnit</title>
<g id="a_node7"><a xlink:href="http://emmo.info/emmo/middle/metrology#EMMO_db716151_6b73_45ff_910c_d182fdcbb4f5" xlink:title="BaseUnit">
<ellipse fill="#ffffcc" stroke="#000000" cx="306.9954" cy="-138" rx="43.5923" ry="18"/>
<text text-anchor="middle" x="306.9954" y="-134.3" font-family="Times,serif" font-size="14.00" fill="#000000">BaseUnit</text>
</a>
</g>
</g>
<!-- SIBaseUnit&#45;&gt;BaseUnit -->
<g id="edge10" class="edge">
<title>SIBaseUnit&#45;&gt;BaseUnit</title>
<path fill="none" stroke="#000000" d="M210.3752,-58.7219C229.4488,-74.3721 258.0985,-97.8795 279.2514,-115.2357"/>
<polygon fill="none" stroke="#000000" points="277.288,-118.1521 287.2389,-121.7896 281.7283,-112.7406 277.288,-118.1521"/>
</g>
<!-- SIUnitSymbol -->
<g id="node13" class="node">
<title>SIUnitSymbol</title>
<g id="a_node13"><a xlink:href="http://emmo.info/emmo/middle/siunits#EMMO_32129fb5_df25_48fd_a29c_18a2f22a2dd5" xlink:title="SIUnitSymbol">
<ellipse fill="#ffffcc" stroke="#000000" cx="183.9954" cy="-138" rx="61.99" ry="18"/>
<text text-anchor="middle" x="183.9954" y="-134.3" font-family="Times,serif" font-size="14.00" fill="#000000">SIUnitSymbol</text>
</a>
</g>
</g>
<!-- SIBaseUnit&#45;&gt;SIUnitSymbol -->
<g id="edge11" class="edge">
<title>SIBaseUnit&#45;&gt;SIUnitSymbol</title>
<path fill="none" stroke="#000000" d="M188.8668,-60.0569C188.0008,-73.9138 186.7883,-93.3139 185.7896,-109.2925"/>
<polygon fill="none" stroke="#000000" points="182.27,-109.4988 185.1393,-119.6977 189.2563,-109.9355 182.27,-109.4988"/>
</g>
<!-- NonPrefixedUnit&#45;&gt;MeasurementUnit -->
<g id="edge21" class="edge">
<title>NonPrefixedUnit&#45;&gt;MeasurementUnit</title>
<path fill="none" stroke="#000000" d="M227.1871,-296.3972C261.4305,-307.8117 309.4679,-323.8242 346.206,-336.0702"/>
<polygon fill="none" stroke="#000000" points="345.1727,-339.4151 355.7664,-339.257 347.3864,-332.7743 345.1727,-339.4151"/>
</g>
<!-- BaseUnit&#45;&gt;UnitSymbol -->
<g id="edge14" class="edge">
<title>BaseUnit&#45;&gt;UnitSymbol</title>
<path fill="none" stroke="#000000" d="M281.8077,-152.744C263.8886,-163.2332 239.5619,-177.4733 219.6521,-189.1278"/>
<polygon fill="none" stroke="#000000" points="217.7161,-186.2055 210.8541,-194.2778 221.2524,-192.2466 217.7161,-186.2055"/>
</g>
<!-- UnitOne -->
<g id="node8" class="node">
<title>UnitOne</title>
<g id="a_node8"><a xlink:href="http://emmo.info/emmo/middle/metrology#EMMO_5ebd5e01_0ed3_49a2_a30d_cd05cbe72978" xlink:title="UnitOne">
<ellipse fill="#ffffcc" stroke="#000000" cx="306.9954" cy="-42" rx="40.8928" ry="18"/>
<text text-anchor="middle" x="306.9954" y="-38.3" font-family="Times,serif" font-size="14.00" fill="#000000">UnitOne</text>
</a>
</g>
</g>
<!-- UnitOne&#45;&gt;BaseUnit -->
<g id="edge13" class="edge">
<title>UnitOne&#45;&gt;BaseUnit</title>
<path fill="none" stroke="#000000" d="M306.9954,-60.0569C306.9954,-73.9138 306.9954,-93.3139 306.9954,-109.2925"/>
<polygon fill="none" stroke="#000000" points="303.4955,-109.6977 306.9954,-119.6977 310.4955,-109.6977 303.4955,-109.6977"/>
</g>
<!-- SIUnit -->
<g id="node15" class="node">
<title>SIUnit</title>
<g id="a_node15"><a xlink:href="http://emmo.info/emmo/middle/siunits#EMMO_feb03a8a_bbb6_4918_a891_46713ef557f4" xlink:title="SIUnit">
<ellipse fill="#ffffcc" stroke="#000000" cx="458.9954" cy="-282" rx="34.394" ry="18"/>
<text text-anchor="middle" x="458.9954" y="-278.3" font-family="Times,serif" font-size="14.00" fill="#000000">SIUnit</text>
</a>
</g>
</g>
<!-- SINonCoherentUnit&#45;&gt;SIUnit -->
<g id="edge12" class="edge">
<title>SINonCoherentUnit&#45;&gt;SIUnit</title>
<path fill="none" stroke="#000000" d="M611.6271,-224.9897C580.5843,-235.4453 538.5845,-249.9833 501.9954,-264 499.7636,-264.855 497.4745,-265.7522 495.171,-266.6706"/>
<polygon fill="none" stroke="#000000" points="493.6746,-263.5007 485.7306,-270.5109 496.3123,-269.9848 493.6746,-263.5007"/>
</g>
<!-- SICoherentDerivedUnit -->
<g id="node10" class="node">
<title>SICoherentDerivedUnit</title>
<g id="a_node10"><a xlink:href="http://emmo.info/emmo/middle/siunits#EMMO_1273eb34_de48_43a9_925f_104110469dd2" xlink:title="SICoherentDerivedUnit">
<ellipse fill="#ffffcc" stroke="#000000" cx="462.9954" cy="-138" rx="94.7833" ry="18"/>
<text text-anchor="middle" x="462.9954" y="-134.3" font-family="Times,serif" font-size="14.00" fill="#000000">SICoherentDerivedUnit</text>
</a>
</g>
</g>
<!-- SICoherentUnit -->
<g id="node14" class="node">
<title>SICoherentUnit</title>
<g id="a_node14"><a xlink:href="http://emmo.info/emmo/middle/siunits#EMMO_707c6032_e272_4a20_98b5_d35c4f67be68" xlink:title="SICoherentUnit">
<ellipse fill="#ffffcc" stroke="#000000" cx="458.9954" cy="-210" rx="66.0889" ry="18"/>
<text text-anchor="middle" x="458.9954" y="-206.3" font-family="Times,serif" font-size="14.00" fill="#000000">SICoherentUnit</text>
</a>
</g>
</g>
<!-- SICoherentDerivedUnit&#45;&gt;SICoherentUnit -->
<g id="edge20" class="edge">
<title>SICoherentDerivedUnit&#45;&gt;SICoherentUnit</title>
<path fill="none" stroke="#000000" d="M461.986,-156.1686C461.5582,-163.869 461.0495,-173.0257 460.5741,-181.5834"/>
<polygon fill="none" stroke="#000000" points="457.0785,-181.408 460.0183,-191.5867 464.0678,-181.7963 457.0785,-181.408"/>
</g>
<!-- SISpecialUnit -->
<g id="node11" class="node">
<title>SISpecialUnit</title>
<g id="a_node11"><a xlink:href="http://emmo.info/emmo/middle/siunits#EMMO_e9ffc696_5228_4ff9_8a60_0f5e05e9931b" xlink:title="SISpecialUnit">
<ellipse fill="#ffffcc" stroke="#000000" stroke-width="2" cx="59.9954" cy="-42" rx="59.5901" ry="18"/>
<text text-anchor="middle" x="59.9954" y="-38.3" font-family="Times,serif" font-size="14.00" fill="#000000">SISpecialUnit</text>
</a>
</g>
</g>
<!-- SISpecialUnit&#45;&gt;SIUnitSymbol -->
<g id="edge16" class="edge">
<title>SISpecialUnit&#45;&gt;SIUnitSymbol</title>
<path fill="none" stroke="#000000" d="M81.8787,-58.9419C101.8536,-74.4064 131.5644,-97.4083 153.7956,-114.6195"/>
<polygon fill="none" stroke="#000000" points="151.8639,-117.5503 161.9138,-120.9046 156.1491,-112.0153 151.8639,-117.5503"/>
</g>
<!-- SpecialUnit -->
<g id="node17" class="node">
<title>SpecialUnit</title>
<g id="a_node17"><a xlink:href="http://emmo.info/emmo/middle/metrology#EMMO_3ee80521_3c23_4dd1_935d_9d522614a3e2" xlink:title="SpecialUnit">
<ellipse fill="#ffffcc" stroke="#000000" cx="51.9954" cy="-138" rx="51.9908" ry="18"/>
<text text-anchor="middle" x="51.9954" y="-134.3" font-family="Times,serif" font-size="14.00" fill="#000000">SpecialUnit</text>
</a>
</g>
</g>
<!-- SISpecialUnit&#45;&gt;SpecialUnit -->
<g id="edge15" class="edge">
<title>SISpecialUnit&#45;&gt;SpecialUnit</title>
<path fill="none" stroke="#000000" d="M58.4906,-60.0569C57.3359,-73.9138 55.7192,-93.3139 54.3877,-109.2925"/>
<polygon fill="none" stroke="#000000" points="50.8632,-109.4416 53.5206,-119.6977 57.839,-110.0229 50.8632,-109.4416"/>
</g>
<!-- OffSystemUnit -->
<g id="node12" class="node">
<title>OffSystemUnit</title>
<g id="a_node12"><a xlink:href="http://emmo.info/emmo/middle/metrology#EMMO_591e02fd_8d37_45a6_9d11_bb21cef391a0" xlink:title="OffSystemUnit">
<ellipse fill="#ffffcc" stroke="#000000" cx="341.9954" cy="-282" rx="64.9885" ry="18"/>
<text text-anchor="middle" x="341.9954" y="-278.3" font-family="Times,serif" font-size="14.00" fill="#000000">OffSystemUnit</text>
</a>
</g>
</g>
<!-- OffSystemUnit&#45;&gt;MeasurementUnit -->
<g id="edge22" class="edge">
<title>OffSystemUnit&#45;&gt;MeasurementUnit</title>
<path fill="none" stroke="#000000" d="M356.3325,-299.7978C363.234,-308.3652 371.6391,-318.7991 379.225,-328.2161"/>
<polygon fill="none" stroke="#000000" points="376.6232,-330.5656 385.6222,-336.1575 382.0745,-326.1742 376.6232,-330.5656"/>
</g>
<!-- SIUnitSymbol&#45;&gt;UnitSymbol -->
<g id="edge17" class="edge">
<title>SIUnitSymbol&#45;&gt;UnitSymbol</title>
<path fill="none" stroke="#000000" d="M183.9954,-156.1686C183.9954,-163.869 183.9954,-173.0257 183.9954,-181.5834"/>
<polygon fill="none" stroke="#000000" points="180.4955,-181.5867 183.9954,-191.5867 187.4955,-181.5868 180.4955,-181.5867"/>
</g>
<!-- SIUnitSymbol&#45;&gt;SICoherentUnit -->
<g id="edge18" class="edge">
<title>SIUnitSymbol&#45;&gt;SICoherentUnit</title>
<path fill="none" stroke="#000000" d="M230.0242,-150.0512C277.0415,-162.3612 350.1737,-181.5085 401.0929,-194.8401"/>
<polygon fill="none" stroke="#000000" points="400.4058,-198.2781 410.9663,-197.4251 402.1789,-191.5064 400.4058,-198.2781"/>
</g>
<!-- SICoherentUnit&#45;&gt;SIUnit -->
<g id="edge3" class="edge">
<title>SICoherentUnit&#45;&gt;SIUnit</title>
<path fill="none" stroke="#000000" d="M458.9954,-228.1686C458.9954,-235.869 458.9954,-245.0257 458.9954,-253.5834"/>
<polygon fill="none" stroke="#000000" points="455.4955,-253.5867 458.9954,-263.5867 462.4955,-253.5868 455.4955,-253.5867"/>
</g>
<!-- SIUnit&#45;&gt;MeasurementUnit -->
<g id="edge7" class="edge">
<title>SIUnit&#45;&gt;MeasurementUnit</title>
<path fill="none" stroke="#000000" d="M445.3113,-298.6992C438.1307,-307.462 429.1751,-318.3909 421.1258,-328.2137"/>
<polygon fill="none" stroke="#000000" points="418.2676,-326.1797 414.6365,-336.1329 423.6819,-330.6165 418.2676,-326.1797"/>
</g>
<!-- PrefixedUnit -->
<g id="node16" class="node">
<title>PrefixedUnit</title>
<g id="a_node16"><a xlink:href="http://emmo.info/emmo/middle/metrology#EMMO_c6d4a5e0_7e95_44df_a6db_84ee0a8bbc8e" xlink:title="PrefixedUnit">
<ellipse fill="#ffffcc" stroke="#000000" stroke-width="2" cx="566.9954" cy="-282" rx="55.7903" ry="18"/>
<text text-anchor="middle" x="566.9954" y="-278.3" font-family="Times,serif" font-size="14.00" fill="#000000">PrefixedUnit</text>
</a>
</g>
</g>
<!-- PrefixedUnit&#45;&gt;MeasurementUnit -->
<g id="edge8" class="edge">
<title>PrefixedUnit&#45;&gt;MeasurementUnit</title>
<path fill="none" stroke="#000000" d="M533.2004,-296.5703C508.1351,-307.3769 473.6745,-322.2342 446.0838,-334.1296"/>
<polygon fill="none" stroke="#000000" points="444.435,-331.0289 436.6378,-338.2021 447.2064,-337.4569 444.435,-331.0289"/>
</g>
<!-- PrefixedUnit&#45;&gt;UnitSymbol -->
<g id="edge9" class="edge">
<title>PrefixedUnit&#45;&gt;UnitSymbol</title>
<path fill="none" stroke="#006400" d="M525.5433,-269.8427C517.7546,-267.7517 509.653,-265.7058 501.9954,-264 412.7561,-244.1212 308.0015,-227.6345 243.8182,-218.2985"/>
<polygon fill="#006400" stroke="#006400" points="244.2717,-214.8278 233.8741,-216.8622 243.271,-221.7559 244.2717,-214.8278"/>
</g>
<!-- SpecialUnit&#45;&gt;UnitSymbol -->
<g id="edge5" class="edge">
<title>SpecialUnit&#45;&gt;UnitSymbol</title>
<path fill="none" stroke="#000000" d="M79.9892,-153.2693C99.3706,-163.841 125.3851,-178.0307 146.5477,-189.574"/>
<polygon fill="none" stroke="#000000" points="145.1319,-192.7885 155.5869,-194.5044 148.4839,-186.6432 145.1319,-192.7885"/>
</g>
<!-- SpecialUnit&#45;&gt;DerivedUnit -->
<g id="edge4" class="edge">
<title>SpecialUnit&#45;&gt;DerivedUnit</title>
<path fill="none" stroke="#000000" d="M46.8,-156.1686C46.3638,-163.9875 46.5362,-173.3077 47.2273,-181.9779"/>
<polygon fill="none" stroke="#000000" points="43.7656,-182.5214 48.3217,-192.0866 50.725,-181.7679 43.7656,-182.5214"/>
</g>
<!-- SpecialUnit&#45;&gt;DerivedUnit -->
<g id="edge6" class="edge">
<title>SpecialUnit&#45;&gt;DerivedUnit</title>
<path fill="none" stroke="#ffa500" d="M58.7048,-156.1686C59.7761,-163.869 60.3785,-173.0257 60.4264,-181.5834"/>
<polygon fill="#ffa500" stroke="#ffa500" points="56.705,-191.5089 60.4264,-181.5892 63.7033,-191.6645 56.705,-191.5089"/>
</g>
<!-- key1 -->
<g id="node18" class="node">
<title>key1</title>
<text text-anchor="start" x="468.9954" y="-66.8" font-family="Times,serif" font-size="14.00" fill="#000000">isA</text>
<text text-anchor="start" x="444.9954" y="-47.8" font-family="Times,serif" font-size="14.00" fill="#000000">hasSign</text>
<text text-anchor="start" x="375.9954" y="-28.8" font-family="Times,serif" font-size="14.00" fill="#000000">hasSpatialDirectPart</text>
<text text-anchor="start" x="447.9954" y="-9.8" font-family="Times,serif" font-size="14.00" fill="#000000">inverse</text>
</g>
<!-- key2 -->
<g id="node19" class="node">
<title>key2</title>
<text text-anchor="start" x="540.9954" y="-66.8" font-family="Times,serif" font-size="14.00" fill="#000000"> </text>
<text text-anchor="start" x="540.9954" y="-47.8" font-family="Times,serif" font-size="14.00" fill="#000000"> </text>
<text text-anchor="start" x="540.9954" y="-28.8" font-family="Times,serif" font-size="14.00" fill="#000000"> </text>
<text text-anchor="start" x="540.9954" y="-9.8" font-family="Times,serif" font-size="14.00" fill="#000000"> </text>
</g>
<!-- key1&#45;&gt;key2 -->
<g id="edge23" class="edge">
<title>key1:e&#45;&gt;key2:w</title>
<path fill="none" stroke="#000000" d="M489.9954,-13C507.86,-13 514.7336,-13 528.6484,-13"/>
<polygon fill="#000000" stroke="#000000" points="538.9954,-16.5 528.9954,-13.0001 538.9954,-9.5 538.9954,-16.5"/>
</g>
<!-- key1&#45;&gt;key2 -->
<g id="edge24" class="edge">
<title>key1:e&#45;&gt;key2:w</title>
<path fill="none" stroke="#006400" d="M489.9954,-32C507.86,-32 514.7336,-32 528.6484,-32"/>
<polygon fill="#006400" stroke="#006400" points="528.9954,-35.5001 538.9954,-32 528.9954,-28.5001 528.9954,-35.5001"/>
</g>
<!-- key1&#45;&gt;key2 -->
<g id="edge25" class="edge">
<title>key1:e&#45;&gt;key2:w</title>
<path fill="none" stroke="#ffa500" d="M489.9954,-52C507.86,-52 514.7336,-52 528.6484,-52"/>
<polygon fill="#ffa500" stroke="#ffa500" points="528.9954,-55.5001 538.9954,-52 528.9954,-48.5001 528.9954,-55.5001"/>
</g>
<!-- key1&#45;&gt;key2 -->
<g id="edge26" class="edge">
<title>key1:e&#45;&gt;key2:w</title>
<path fill="none" stroke="#000000" d="M489.9954,-71C507.86,-71 514.7336,-71 528.6484,-71"/>
<polygon fill="none" stroke="#000000" points="528.9954,-74.5001 538.9954,-71 528.9954,-67.5001 528.9954,-74.5001"/>
</g>
</g>
</svg>
