<?xml version="1.0" encoding="UTF-8" standalone="no"?>
<!DOCTYPE svg PUBLIC "-//W3C//DTD SVG 1.1//EN"
 "http://www.w3.org/Graphics/SVG/1.1/DTD/svg11.dtd">
<!-- Generated by graphviz version 2.40.1 (20161225.0304)
 -->
<!-- Title: %3 Pages: 1 -->
<svg width="817pt" height="380pt"
 viewBox="0.00 0.00 816.74 380.00" xmlns="http://www.w3.org/2000/svg" xmlns:xlink="http://www.w3.org/1999/xlink">
<g id="graph0" class="graph" transform="scale(1 1) rotate(0) translate(4 376)">
<title>%3</title>
<polygon fill="#ffffff" stroke="transparent" points="-4,4 -4,-376 812.7353,-376 812.7353,4 -4,4"/>
<!-- SICoherentUnit -->
<g id="node1" class="node">
<title>SICoherentUnit</title>
<g id="a_node1"><a xlink:href="http://emmo.info/emmo/middle/siunits#EMMO_707c6032_e272_4a20_98b5_d35c4f67be68" xlink:title="SICoherentUnit">
<ellipse fill="#ffffcc" stroke="#000000" cx="334.895" cy="-210" rx="66.0889" ry="18"/>
<text text-anchor="middle" x="334.895" y="-206.3" font-family="Times,serif" font-size="14.00" fill="#000000">SICoherentUnit</text>
</a>
</g>
</g>
<!-- SIUnit -->
<g id="node3" class="node">
<title>SIUnit</title>
<g id="a_node3"><a xlink:href="http://emmo.info/emmo/middle/siunits#EMMO_feb03a8a_bbb6_4918_a891_46713ef557f4" xlink:title="SIUnit">
<ellipse fill="#ffffcc" stroke="#000000" cx="331.895" cy="-282" rx="34.394" ry="18"/>
<text text-anchor="middle" x="331.895" y="-278.3" font-family="Times,serif" font-size="14.00" fill="#000000">SIUnit</text>
</a>
</g>
</g>
<!-- SICoherentUnit&#45;&gt;SIUnit -->
<g id="edge8" class="edge">
<title>SICoherentUnit&#45;&gt;SIUnit</title>
<path fill="none" stroke="#000000" d="M334.138,-228.1686C333.8172,-235.869 333.4356,-245.0257 333.0791,-253.5834"/>
<polygon fill="none" stroke="#000000" points="329.5817,-253.4497 332.6623,-263.5867 336.5756,-253.7411 329.5817,-253.4497"/>
</g>
<!-- UnitOne -->
<g id="node2" class="node">
<title>UnitOne</title>
<g id="a_node2"><a xlink:href="http://emmo.info/emmo/middle/metrology#EMMO_5ebd5e01_0ed3_49a2_a30d_cd05cbe72978" xlink:title="UnitOne">
<ellipse fill="#ffffcc" stroke="#000000" cx="319.895" cy="-42" rx="40.8928" ry="18"/>
<text text-anchor="middle" x="319.895" y="-38.3" font-family="Times,serif" font-size="14.00" fill="#000000">UnitOne</text>
</a>
</g>
</g>
<!-- BaseUnit -->
<g id="node12" class="node">
<title>BaseUnit</title>
<g id="a_node12"><a xlink:href="http://emmo.info/emmo/middle/metrology#EMMO_db716151_6b73_45ff_910c_d182fdcbb4f5" xlink:title="BaseUnit">
<ellipse fill="#ffffcc" stroke="#000000" cx="319.895" cy="-138" rx="43.5923" ry="18"/>
<text text-anchor="middle" x="319.895" y="-134.3" font-family="Times,serif" font-size="14.00" fill="#000000">BaseUnit</text>
</a>
</g>
</g>
<!-- UnitOne&#45;&gt;BaseUnit -->
<g id="edge18" class="edge">
<title>UnitOne&#45;&gt;BaseUnit</title>
<path fill="none" stroke="#000000" d="M319.895,-60.0569C319.895,-73.9138 319.895,-93.3139 319.895,-109.2925"/>
<polygon fill="none" stroke="#000000" points="316.3951,-109.6977 319.895,-119.6977 323.3951,-109.6977 316.3951,-109.6977"/>
</g>
<!-- MeasurementUnit -->
<g id="node7" class="node">
<title>MeasurementUnit</title>
<g id="a_node7"><a xlink:href="http://emmo.info/emmo/middle/metrology#EMMO_b081b346_7279_46ef_9a3d_2c088fcd79f4" xlink:title="MeasurementUnit">
<ellipse fill="#ffffcc" stroke="#000000" stroke-width="2" cx="265.895" cy="-354" rx="75.2868" ry="18"/>
<text text-anchor="middle" x="265.895" y="-350.3" font-family="Times,serif" font-size="14.00" fill="#000000">MeasurementUnit</text>
</a>
</g>
</g>
<!-- SIUnit&#45;&gt;MeasurementUnit -->
<g id="edge22" class="edge">
<title>SIUnit&#45;&gt;MeasurementUnit</title>
<path fill="none" stroke="#000000" d="M316.9186,-298.3379C308.675,-307.3309 298.2668,-318.6853 289.0042,-328.79"/>
<polygon fill="none" stroke="#000000" points="286.3763,-326.4772 282.1991,-336.2138 291.5364,-331.2073 286.3763,-326.4772"/>
</g>
<!-- PrefixedUnit -->
<g id="node4" class="node">
<title>PrefixedUnit</title>
<g id="a_node4"><a xlink:href="http://emmo.info/emmo/middle/metrology#EMMO_c6d4a5e0_7e95_44df_a6db_84ee0a8bbc8e" xlink:title="PrefixedUnit">
<ellipse fill="#ffffcc" stroke="#000000" stroke-width="2" cx="55.895" cy="-282" rx="55.7903" ry="18"/>
<text text-anchor="middle" x="55.895" y="-278.3" font-family="Times,serif" font-size="14.00" fill="#000000">PrefixedUnit</text>
</a>
</g>
</g>
<!-- PrefixedUnit&#45;&gt;MeasurementUnit -->
<g id="edge13" class="edge">
<title>PrefixedUnit&#45;&gt;MeasurementUnit</title>
<path fill="none" stroke="#000000" d="M94.4123,-295.2059C127.6731,-306.6096 176.0535,-323.1972 212.9521,-335.8481"/>
<polygon fill="none" stroke="#000000" points="211.9554,-339.2064 222.5501,-339.1389 214.2258,-332.5847 211.9554,-339.2064"/>
</g>
<!-- UnitSymbol -->
<g id="node8" class="node">
<title>UnitSymbol</title>
<g id="a_node8"><a xlink:href="http://emmo.info/emmo/middle/metrology#EMMO_216f448e_cdbc_4aeb_a529_7a5fe7fc38bb" xlink:title="UnitSymbol">
<ellipse fill="#ffc880" stroke="#000000" cx="196.895" cy="-210" rx="53.8905" ry="18"/>
<text text-anchor="middle" x="196.895" y="-206.3" font-family="Times,serif" font-size="14.00" fill="#000000">UnitSymbol</text>
</a>
</g>
</g>
<!-- PrefixedUnit&#45;&gt;UnitSymbol -->
<g id="edge14" class="edge">
<title>PrefixedUnit&#45;&gt;UnitSymbol</title>
<path fill="none" stroke="#006400" d="M85.9,-266.6783C107.0128,-255.8973 135.4568,-241.3727 158.2645,-229.7262"/>
<polygon fill="#006400" stroke="#006400" points="160.0225,-232.7585 167.3368,-225.0936 156.839,-226.5243 160.0225,-232.7585"/>
</g>
<!-- SICoherentDerivedUnit -->
<g id="node5" class="node">
<title>SICoherentDerivedUnit</title>
<g id="a_node5"><a xlink:href="http://emmo.info/emmo/middle/siunits#EMMO_1273eb34_de48_43a9_925f_104110469dd2" xlink:title="SICoherentDerivedUnit">
<ellipse fill="#ffffcc" stroke="#000000" cx="475.895" cy="-138" rx="94.7833" ry="18"/>
<text text-anchor="middle" x="475.895" y="-134.3" font-family="Times,serif" font-size="14.00" fill="#000000">SICoherentDerivedUnit</text>
</a>
</g>
</g>
<!-- SICoherentDerivedUnit&#45;&gt;SICoherentUnit -->
<g id="edge21" class="edge">
<title>SICoherentDerivedUnit&#45;&gt;SICoherentUnit</title>
<path fill="none" stroke="#000000" d="M442.8368,-154.8808C422.6999,-165.1635 396.8218,-178.3778 375.4519,-189.2901"/>
<polygon fill="none" stroke="#000000" points="373.6086,-186.3014 366.2942,-193.9664 376.792,-192.5357 373.6086,-186.3014"/>
</g>
<!-- SpecialUnit -->
<g id="node6" class="node">
<title>SpecialUnit</title>
<g id="a_node6"><a xlink:href="http://emmo.info/emmo/middle/metrology#EMMO_3ee80521_3c23_4dd1_935d_9d522614a3e2" xlink:title="SpecialUnit">
<ellipse fill="#ffffcc" stroke="#000000" cx="64.895" cy="-138" rx="51.9908" ry="18"/>
<text text-anchor="middle" x="64.895" y="-134.3" font-family="Times,serif" font-size="14.00" fill="#000000">SpecialUnit</text>
</a>
</g>
</g>
<!-- SpecialUnit&#45;&gt;UnitSymbol -->
<g id="edge16" class="edge">
<title>SpecialUnit&#45;&gt;UnitSymbol</title>
<path fill="none" stroke="#000000" d="M92.8888,-153.2693C112.2702,-163.841 138.2847,-178.0307 159.4474,-189.574"/>
<polygon fill="none" stroke="#000000" points="158.0316,-192.7885 168.4865,-194.5044 161.3836,-186.6432 158.0316,-192.7885"/>
</g>
<!-- DerivedUnit -->
<g id="node9" class="node">
<title>DerivedUnit</title>
<g id="a_node9"><a xlink:href="http://emmo.info/emmo/middle/metrology#EMMO_08b308d4_31cd_4779_a784_aa92fc730f39" xlink:title="DerivedUnit">
<ellipse fill="#ffffcc" stroke="#000000" cx="67.895" cy="-210" rx="54.6905" ry="18"/>
<text text-anchor="middle" x="67.895" y="-206.3" font-family="Times,serif" font-size="14.00" fill="#000000">DerivedUnit</text>
</a>
</g>
</g>
<!-- SpecialUnit&#45;&gt;DerivedUnit -->
<g id="edge15" class="edge">
<title>SpecialUnit&#45;&gt;DerivedUnit</title>
<path fill="none" stroke="#000000" d="M59.6997,-156.1686C59.2635,-163.9875 59.4358,-173.3077 60.127,-181.9779"/>
<polygon fill="none" stroke="#000000" points="56.6653,-182.5214 61.2214,-192.0866 63.6246,-181.7679 56.6653,-182.5214"/>
</g>
<!-- SpecialUnit&#45;&gt;DerivedUnit -->
<g id="edge17" class="edge">
<title>SpecialUnit&#45;&gt;DerivedUnit</title>
<path fill="none" stroke="#ffa500" d="M71.6045,-156.1686C72.6757,-163.869 73.2782,-173.0257 73.3261,-181.5834"/>
<polygon fill="#ffa500" stroke="#ffa500" points="69.6047,-191.5089 73.3261,-181.5892 76.603,-191.6645 69.6047,-191.5089"/>
</g>
<!-- NonPrefixedUnit -->
<g id="node11" class="node">
<title>NonPrefixedUnit</title>
<g id="a_node11"><a xlink:href="http://emmo.info/emmo/middle/metrology#EMMO_868ae137_4d25_493e_b270_21ea3d94849e" xlink:title="NonPrefixedUnit">
<ellipse fill="#ffc880" stroke="#000000" cx="200.895" cy="-282" rx="71.4873" ry="18"/>
<text text-anchor="middle" x="200.895" y="-278.3" font-family="Times,serif" font-size="14.00" fill="#000000">NonPrefixedUnit</text>
</a>
</g>
</g>
<!-- UnitSymbol&#45;&gt;NonPrefixedUnit -->
<g id="edge5" class="edge">
<title>UnitSymbol&#45;&gt;NonPrefixedUnit</title>
<path fill="none" stroke="#000000" d="M197.9044,-228.1686C198.3322,-235.869 198.8409,-245.0257 199.3163,-253.5834"/>
<polygon fill="none" stroke="#000000" points="195.8227,-253.7963 199.8721,-263.5867 202.8119,-253.408 195.8227,-253.7963"/>
</g>
<!-- DerivedUnit&#45;&gt;NonPrefixedUnit -->
<g id="edge3" class="edge">
<title>DerivedUnit&#45;&gt;NonPrefixedUnit</title>
<path fill="none" stroke="#000000" d="M96.4269,-225.4458C115.4426,-235.74 140.6874,-249.4064 161.5969,-260.7258"/>
<polygon fill="none" stroke="#000000" points="160.1002,-263.8955 170.5606,-265.5783 163.4328,-257.7397 160.1002,-263.8955"/>
</g>
<!-- SIBaseUnit -->
<g id="node10" class="node">
<title>SIBaseUnit</title>
<g id="a_node10"><a xlink:href="http://emmo.info/emmo/middle/siunits#EMMO_3a185e6c_9e19_4776_b583_19c978156aa0" xlink:title="SIBaseUnit">
<ellipse fill="#ffffcc" stroke="#000000" stroke-width="2" cx="202.895" cy="-42" rx="51.1914" ry="18"/>
<text text-anchor="middle" x="202.895" y="-38.3" font-family="Times,serif" font-size="14.00" fill="#000000">SIBaseUnit</text>
</a>
</g>
</g>
<!-- SIBaseUnit&#45;&gt;BaseUnit -->
<g id="edge9" class="edge">
<title>SIBaseUnit&#45;&gt;BaseUnit</title>
<path fill="none" stroke="#000000" d="M223.2749,-58.7219C242.3485,-74.3721 270.9982,-97.8795 292.1511,-115.2357"/>
<polygon fill="none" stroke="#000000" points="290.1877,-118.1521 300.1386,-121.7896 294.6279,-112.7406 290.1877,-118.1521"/>
</g>
<!-- SIUnitSymbol -->
<g id="node17" class="node">
<title>SIUnitSymbol</title>
<g id="a_node17"><a xlink:href="http://emmo.info/emmo/middle/siunits#EMMO_32129fb5_df25_48fd_a29c_18a2f22a2dd5" xlink:title="SIUnitSymbol">
<ellipse fill="#ffffcc" stroke="#000000" cx="196.895" cy="-138" rx="61.99" ry="18"/>
<text text-anchor="middle" x="196.895" y="-134.3" font-family="Times,serif" font-size="14.00" fill="#000000">SIUnitSymbol</text>
</a>
</g>
</g>
<!-- SIBaseUnit&#45;&gt;SIUnitSymbol -->
<g id="edge10" class="edge">
<title>SIBaseUnit&#45;&gt;SIUnitSymbol</title>
<path fill="none" stroke="#000000" d="M201.7665,-60.0569C200.9004,-73.9138 199.6879,-93.3139 198.6893,-109.2925"/>
<polygon fill="none" stroke="#000000" points="195.1696,-109.4988 198.0389,-119.6977 202.156,-109.9355 195.1696,-109.4988"/>
</g>
<!-- NonPrefixedUnit&#45;&gt;MeasurementUnit -->
<g id="edge19" class="edge">
<title>NonPrefixedUnit&#45;&gt;MeasurementUnit</title>
<path fill="none" stroke="#000000" d="M216.9625,-299.7978C224.7751,-308.4517 234.3069,-319.01 242.8752,-328.5012"/>
<polygon fill="none" stroke="#000000" points="240.4882,-331.0801 249.7872,-336.1575 245.6841,-326.3894 240.4882,-331.0801"/>
</g>
<!-- BaseUnit&#45;&gt;UnitSymbol -->
<g id="edge6" class="edge">
<title>BaseUnit&#45;&gt;UnitSymbol</title>
<path fill="none" stroke="#000000" d="M294.7073,-152.744C276.7883,-163.2332 252.4615,-177.4733 232.5518,-189.1278"/>
<polygon fill="none" stroke="#000000" points="230.6157,-186.2055 223.7537,-194.2778 234.152,-192.2466 230.6157,-186.2055"/>
</g>
<!-- SINonCoherentUnit -->
<g id="node13" class="node">
<title>SINonCoherentUnit</title>
<g id="a_node13"><a xlink:href="http://emmo.info/emmo/middle/siunits#EMMO_8246541a_f1f6_4d03_8bd7_fc6b76d17375" xlink:title="SINonCoherentUnit">
<ellipse fill="#ffffcc" stroke="#000000" cx="599.895" cy="-210" rx="81.4863" ry="18"/>
<text text-anchor="middle" x="599.895" y="-206.3" font-family="Times,serif" font-size="14.00" fill="#000000">SINonCoherentUnit</text>
</a>
</g>
</g>
<!-- SINonCoherentUnit&#45;&gt;SIUnit -->
<g id="edge20" class="edge">
<title>SINonCoherentUnit&#45;&gt;SIUnit</title>
<path fill="none" stroke="#000000" d="M538.5155,-221.9413C492.8578,-231.494 429.3055,-246.2106 374.895,-264 372.6234,-264.7427 370.3037,-265.5536 367.9772,-266.407"/>
<polygon fill="none" stroke="#000000" points="366.5389,-263.2108 358.4807,-270.0895 369.0697,-269.7373 366.5389,-263.2108"/>
</g>
<!-- SISpecialUnit -->
<g id="node14" class="node">
<title>SISpecialUnit</title>
<g id="a_node14"><a xlink:href="http://emmo.info/emmo/middle/siunits#EMMO_e9ffc696_5228_4ff9_8a60_0f5e05e9931b" xlink:title="SISpecialUnit">
<ellipse fill="#ffffcc" stroke="#000000" stroke-width="2" cx="72.895" cy="-42" rx="59.5901" ry="18"/>
<text text-anchor="middle" x="72.895" y="-38.3" font-family="Times,serif" font-size="14.00" fill="#000000">SISpecialUnit</text>
</a>
</g>
</g>
<!-- SISpecialUnit&#45;&gt;SpecialUnit -->
<g id="edge1" class="edge">
<title>SISpecialUnit&#45;&gt;SpecialUnit</title>
<path fill="none" stroke="#000000" d="M71.3903,-60.0569C70.2356,-73.9138 68.6189,-93.3139 67.2873,-109.2925"/>
<polygon fill="none" stroke="#000000" points="63.7629,-109.4416 66.4202,-119.6977 70.7387,-110.0229 63.7629,-109.4416"/>
</g>
<!-- SISpecialUnit&#45;&gt;SIUnitSymbol -->
<g id="edge2" class="edge">
<title>SISpecialUnit&#45;&gt;SIUnitSymbol</title>
<path fill="none" stroke="#000000" d="M94.7783,-58.9419C114.7533,-74.4064 144.4641,-97.4083 166.6952,-114.6195"/>
<polygon fill="none" stroke="#000000" points="164.7636,-117.5503 174.8134,-120.9046 169.0488,-112.0153 164.7636,-117.5503"/>
</g>
<!-- OffSystemUnit -->
<g id="node15" class="node">
<title>OffSystemUnit</title>
<g id="a_node15"><a xlink:href="http://emmo.info/emmo/middle/metrology#EMMO_591e02fd_8d37_45a6_9d11_bb21cef391a0" xlink:title="OffSystemUnit">
<ellipse fill="#ffffcc" stroke="#000000" cx="448.895" cy="-282" rx="64.9885" ry="18"/>
<text text-anchor="middle" x="448.895" y="-278.3" font-family="Times,serif" font-size="14.00" fill="#000000">OffSystemUnit</text>
</a>
</g>
</g>
<!-- OffSystemUnit&#45;&gt;MeasurementUnit -->
<g id="edge4" class="edge">
<title>OffSystemUnit&#45;&gt;MeasurementUnit</title>
<path fill="none" stroke="#000000" d="M411.4207,-296.744C383.4911,-307.7327 345.0985,-322.838 314.76,-334.7744"/>
<polygon fill="none" stroke="#000000" points="313.2405,-331.611 305.2163,-338.5293 315.8035,-338.125 313.2405,-331.611"/>
</g>
<!-- SINonCoherentDerivedUnit -->
<g id="node16" class="node">
<title>SINonCoherentDerivedUnit</title>
<g id="a_node16"><a xlink:href="http://emmo.info/emmo/middle/siunits#EMMO_60b78cc3_6011_4134_95ab_956f56d4bdc1" xlink:title="SINonCoherentDerivedUnit">
<ellipse fill="#ffffcc" stroke="#000000" cx="698.895" cy="-138" rx="109.6807" ry="18"/>
<text text-anchor="middle" x="698.895" y="-134.3" font-family="Times,serif" font-size="14.00" fill="#000000">SINonCoherentDerivedUnit</text>
</a>
</g>
</g>
<!-- SINonCoherentDerivedUnit&#45;&gt;SINonCoherentUnit -->
<g id="edge7" class="edge">
<title>SINonCoherentDerivedUnit&#45;&gt;SINonCoherentUnit</title>
<path fill="none" stroke="#000000" d="M674.6769,-155.6132C661.8776,-164.9218 645.9955,-176.4724 632.1642,-186.5315"/>
<polygon fill="none" stroke="#000000" points="629.8919,-183.8563 623.8631,-192.5687 634.0091,-189.5175 629.8919,-183.8563"/>
</g>
<!-- SIUnitSymbol&#45;&gt;SICoherentUnit -->
<g id="edge12" class="edge">
<title>SIUnitSymbol&#45;&gt;SICoherentUnit</title>
<path fill="none" stroke="#000000" d="M227.1797,-153.8007C247.1736,-164.2323 273.5799,-178.0095 295.2429,-189.3119"/>
<polygon fill="none" stroke="#000000" points="293.7192,-192.4647 304.2041,-193.9873 296.9572,-186.2586 293.7192,-192.4647"/>
</g>
<!-- SIUnitSymbol&#45;&gt;UnitSymbol -->
<g id="edge11" class="edge">
<title>SIUnitSymbol&#45;&gt;UnitSymbol</title>
<path fill="none" stroke="#000000" d="M196.895,-156.1686C196.895,-163.869 196.895,-173.0257 196.895,-181.5834"/>
<polygon fill="none" stroke="#000000" points="193.3951,-181.5867 196.895,-191.5867 200.3951,-181.5868 193.3951,-181.5867"/>
</g>
<!-- key1 -->
<g id="node18" class="node">
<title>key1</title>
<text text-anchor="start" x="481.895" y="-66.8" font-family="Times,serif" font-size="14.00" fill="#000000">isA</text>
<text text-anchor="start" x="457.895" y="-47.8" font-family="Times,serif" font-size="14.00" fill="#000000">hasSign</text>
<text text-anchor="start" x="388.895" y="-28.8" font-family="Times,serif" font-size="14.00" fill="#000000">hasSpatialDirectPart</text>
<text text-anchor="start" x="460.895" y="-9.8" font-family="Times,serif" font-size="14.00" fill="#000000">inverse</text>
</g>
<!-- key2 -->
<g id="node19" class="node">
<title>key2</title>
<text text-anchor="start" x="553.895" y="-66.8" font-family="Times,serif" font-size="14.00" fill="#000000"> </text>
<text text-anchor="start" x="553.895" y="-47.8" font-family="Times,serif" font-size="14.00" fill="#000000"> </text>
<text text-anchor="start" x="553.895" y="-28.8" font-family="Times,serif" font-size="14.00" fill="#000000"> </text>
<text text-anchor="start" x="553.895" y="-9.8" font-family="Times,serif" font-size="14.00" fill="#000000"> </text>
</g>
<!-- key1&#45;&gt;key2 -->
<g id="edge23" class="edge">
<title>key1:e&#45;&gt;key2:w</title>
<path fill="none" stroke="#000000" d="M502.895,-13C520.7596,-13 527.6333,-13 541.548,-13"/>
<polygon fill="#000000" stroke="#000000" points="551.8951,-16.5 541.895,-13.0001 551.895,-9.5 551.8951,-16.5"/>
</g>
<!-- key1&#45;&gt;key2 -->
<g id="edge24" class="edge">
<title>key1:e&#45;&gt;key2:w</title>
<path fill="none" stroke="#006400" d="M502.895,-32C520.7596,-32 527.6333,-32 541.548,-32"/>
<polygon fill="#006400" stroke="#006400" points="541.8951,-35.5001 551.895,-32 541.895,-28.5001 541.8951,-35.5001"/>
</g>
<!-- key1&#45;&gt;key2 -->
<g id="edge25" class="edge">
<title>key1:e&#45;&gt;key2:w</title>
<path fill="none" stroke="#ffa500" d="M502.895,-52C520.7596,-52 527.6333,-52 541.548,-52"/>
<polygon fill="#ffa500" stroke="#ffa500" points="541.8951,-55.5001 551.895,-52 541.895,-48.5001 541.8951,-55.5001"/>
</g>
<!-- key1&#45;&gt;key2 -->
<g id="edge26" class="edge">
<title>key1:e&#45;&gt;key2:w</title>
<path fill="none" stroke="#000000" d="M502.895,-71C520.7596,-71 527.6333,-71 541.548,-71"/>
<polygon fill="none" stroke="#000000" points="541.8951,-74.5001 551.895,-71 541.895,-67.5001 541.8951,-74.5001"/>
</g>
</g>
</svg>
