<?xml version="1.0" encoding="UTF-8" standalone="no"?>
<!DOCTYPE svg PUBLIC "-//W3C//DTD SVG 1.1//EN"
 "http://www.w3.org/Graphics/SVG/1.1/DTD/svg11.dtd">
<!-- Generated by graphviz version 2.40.1 (20161225.0304)
 -->
<!-- Title: %3 Pages: 1 -->
<svg width="784pt" height="218pt"
 viewBox="0.00 0.00 784.44 218.00" xmlns="http://www.w3.org/2000/svg" xmlns:xlink="http://www.w3.org/1999/xlink">
<g id="graph0" class="graph" transform="scale(1 1) rotate(0) translate(4 214)">
<title>%3</title>
<polygon fill="#ffffff" stroke="transparent" points="-4,4 -4,-214 780.4412,-214 780.4412,4 -4,4"/>
<!-- PhysicsDimension -->
<g id="node1" class="node">
<title>PhysicsDimension</title>
<g id="a_node1"><a xlink:href="http://emmo.info/emmo/middle/units#EMMO_9895a1b4_f0a5_4167_ac5e_97db40b8bfcc" xlink:title="PhysicsDimension">
<ellipse fill="#ffffcc" stroke="#000000" cx="698.8449" cy="-18" rx="76.8869" ry="18"/>
<text text-anchor="middle" x="698.8449" y="-14.3" font-family="Times,serif" font-size="14.00" fill="#000000">PhysicsDimension</text>
</a>
</g>
</g>
<!-- MetrologicalSymbol -->
<g id="node2" class="node">
<title>MetrologicalSymbol</title>
<g id="a_node2"><a xlink:href="http://emmo.info/emmo/middle/units#EMMO_50a3552e_859a_4ff7_946d_76d537cabce6" xlink:title="MetrologicalSymbol">
<ellipse fill="#ffc880" stroke="#000000" cx="513.8449" cy="-105" rx="84.485" ry="18"/>
<text text-anchor="middle" x="513.8449" y="-101.3" font-family="Times,serif" font-size="14.00" fill="#000000">MetrologicalSymbol</text>
</a>
</g>
</g>
<!-- PhysicsDimension&#45;&gt;MetrologicalSymbol -->
<g id="edge6" class="edge">
<title>PhysicsDimension&#45;&gt;MetrologicalSymbol</title>
<path fill="none" stroke="#000000" d="M695.4051,-36.1013C692.3675,-47.1829 686.8067,-60.7705 676.8449,-69 664.0336,-79.5834 629.9903,-87.9091 596.3085,-93.876"/>
<polygon fill="none" stroke="#000000" points="595.6335,-90.4405 586.3654,-95.5739 596.8119,-97.3406 595.6335,-90.4405"/>
<text text-anchor="middle" x="697.3449" y="-57.8" font-family="Times,serif" font-size="14.00" fill="#000000">isA</text>
</g>
<!-- Metrological -->
<g id="node8" class="node">
<title>Metrological</title>
<g id="a_node8"><a xlink:href="http://emmo.info/emmo/middle/units#EMMO_985bec21_989f_4b9e_a4b3_735d88099c3c" xlink:title="Metrological">
<ellipse fill="#ffffcc" stroke="#000000" stroke-width="2" cx="513.8449" cy="-192" rx="56.59" ry="18"/>
<text text-anchor="middle" x="513.8449" y="-188.3" font-family="Times,serif" font-size="14.00" fill="#000000">Metrological</text>
</a>
</g>
</g>
<!-- MetrologicalSymbol&#45;&gt;Metrological -->
<g id="edge5" class="edge">
<title>MetrologicalSymbol&#45;&gt;Metrological</title>
<path fill="none" stroke="#000000" d="M513.8449,-123.0265C513.8449,-134.8082 513.8449,-150.4393 513.8449,-163.8419"/>
<polygon fill="none" stroke="#000000" points="510.345,-163.9966 513.8449,-173.9966 517.345,-163.9967 510.345,-163.9966"/>
<text text-anchor="middle" x="523.3449" y="-144.8" font-family="Times,serif" font-size="14.00" fill="#000000">isA</text>
</g>
<!-- ReferenceUnit -->
<g id="node3" class="node">
<title>ReferenceUnit</title>
<g id="a_node3"><a xlink:href="http://emmo.info/emmo/middle/units#EMMO_18ce5200_00f5_45bb_8c6f_6fb128cd41ae" xlink:title="ReferenceUnit">
<ellipse fill="#ffffcc" stroke="#000000" cx="279.8449" cy="-105" rx="61.99" ry="18"/>
<text text-anchor="middle" x="279.8449" y="-101.3" font-family="Times,serif" font-size="14.00" fill="#000000">ReferenceUnit</text>
</a>
</g>
</g>
<!-- ReferenceUnit&#45;&gt;Metrological -->
<g id="edge1" class="edge">
<title>ReferenceUnit&#45;&gt;Metrological</title>
<path fill="none" stroke="#000000" d="M317.9618,-119.1717C358.7772,-134.3466 423.566,-158.4348 467.349,-174.7131"/>
<polygon fill="none" stroke="#000000" points="466.3102,-178.0609 476.9031,-178.2652 468.7496,-171.4997 466.3102,-178.0609"/>
<text text-anchor="middle" x="421.3449" y="-144.8" font-family="Times,serif" font-size="14.00" fill="#000000">isA</text>
</g>
<!-- ProcedureUnit -->
<g id="node4" class="node">
<title>ProcedureUnit</title>
<g id="a_node4"><a xlink:href="http://emmo.info/emmo/middle/units#EMMO_c9c8f824_9127_4f93_bc21_69fe78a7f6f2" xlink:title="ProcedureUnit">
<ellipse fill="#ffffcc" stroke="#000000" cx="363.8449" cy="-18" rx="61.99" ry="18"/>
<text text-anchor="middle" x="363.8449" y="-14.3" font-family="Times,serif" font-size="14.00" fill="#000000">ProcedureUnit</text>
</a>
</g>
</g>
<!-- ProcedureUnit&#45;&gt;ReferenceUnit -->
<g id="edge7" class="edge">
<title>ProcedureUnit&#45;&gt;ReferenceUnit</title>
<path fill="none" stroke="#000000" d="M346.8462,-35.6057C334.5497,-48.3414 317.7579,-65.7329 304.061,-79.919"/>
<polygon fill="none" stroke="#000000" points="301.2463,-77.7953 296.8182,-87.4204 306.2821,-82.6575 301.2463,-77.7953"/>
<text text-anchor="middle" x="337.3449" y="-57.8" font-family="Times,serif" font-size="14.00" fill="#000000">isA</text>
</g>
<!-- Quantity -->
<g id="node5" class="node">
<title>Quantity</title>
<g id="a_node5"><a xlink:href="http://emmo.info/emmo/middle/units#EMMO_f658c301_ce93_46cf_9639_4eace2c5d1d5" xlink:title="Quantity">
<ellipse fill="#ffffcc" stroke="#000000" stroke-width="2" cx="734.8449" cy="-105" rx="41.6928" ry="18"/>
<text text-anchor="middle" x="734.8449" y="-101.3" font-family="Times,serif" font-size="14.00" fill="#000000">Quantity</text>
</a>
</g>
</g>
<!-- Quantity&#45;&gt;ReferenceUnit -->
<g id="edge9" class="edge">
<title>Quantity&#45;&gt;ReferenceUnit</title>
<path fill="none" stroke="#006400" stroke-dasharray="5,2" d="M718.3253,-88.2174C707.2312,-78.1917 691.6954,-66.3889 675.3449,-61 643.4756,-50.4964 557.7675,-58.0166 524.3449,-61 460.0406,-66.74 387.3429,-80.8107 338.0526,-91.5075"/>
<polygon fill="#006400" stroke="#006400" points="337.2269,-88.1054 328.2089,-93.6665 338.7266,-94.9428 337.2269,-88.1054"/>
<text text-anchor="middle" x="599.8449" y="-57.8" font-family="Times,serif" font-size="14.00" fill="#000000">hasReferenceUnit exactly 1</text>
</g>
<!-- Quantity&#45;&gt;Metrological -->
<g id="edge8" class="edge">
<title>Quantity&#45;&gt;Metrological</title>
<path fill="none" stroke="#000000" d="M703.6497,-117.2805C665.9296,-132.1295 602.1514,-157.2368 559.0464,-174.2057"/>
<polygon fill="none" stroke="#000000" points="557.6641,-170.9884 549.6412,-177.9082 560.2282,-177.5019 557.6641,-170.9884"/>
<text text-anchor="middle" x="646.3449" y="-144.8" font-family="Times,serif" font-size="14.00" fill="#000000">isA</text>
</g>
<!-- StandardUnit -->
<g id="node6" class="node">
<title>StandardUnit</title>
<g id="a_node6"><a xlink:href="http://emmo.info/emmo/middle/units#EMMO_acd1a504_ca32_4f30_86ad_0b62cea5bc02" xlink:title="StandardUnit">
<ellipse fill="#ffffcc" stroke="#000000" cx="57.8449" cy="-18" rx="57.6901" ry="18"/>
<text text-anchor="middle" x="57.8449" y="-14.3" font-family="Times,serif" font-size="14.00" fill="#000000">StandardUnit</text>
</a>
</g>
</g>
<!-- StandardUnit&#45;&gt;ReferenceUnit -->
<g id="edge4" class="edge">
<title>StandardUnit&#45;&gt;ReferenceUnit</title>
<path fill="none" stroke="#000000" d="M94.0071,-32.1717C132.0781,-47.0914 192.1345,-70.627 233.6208,-86.8852"/>
<polygon fill="none" stroke="#000000" points="232.3707,-90.1544 242.9583,-90.5445 234.9248,-83.637 232.3707,-90.1544"/>
<text text-anchor="middle" x="192.3449" y="-57.8" font-family="Times,serif" font-size="14.00" fill="#000000">isA</text>
</g>
<!-- MeasurementUnit -->
<g id="node7" class="node">
<title>MeasurementUnit</title>
<g id="a_node7"><a xlink:href="http://emmo.info/emmo/middle/units#EMMO_b081b346_7279_46ef_9a3d_2c088fcd79f4" xlink:title="MeasurementUnit">
<ellipse fill="#ffffcc" stroke="#000000" stroke-width="2" cx="208.8449" cy="-18" rx="75.2868" ry="18"/>
<text text-anchor="middle" x="208.8449" y="-14.3" font-family="Times,serif" font-size="14.00" fill="#000000">MeasurementUnit</text>
</a>
</g>
</g>
<!-- MeasurementUnit&#45;&gt;ReferenceUnit -->
<g id="edge3" class="edge">
<title>MeasurementUnit&#45;&gt;ReferenceUnit</title>
<path fill="none" stroke="#000000" d="M223.5561,-36.0265C233.8102,-48.5913 247.6372,-65.5343 259.0208,-79.4832"/>
<polygon fill="none" stroke="#000000" points="256.361,-81.7597 265.3954,-87.2943 261.7843,-77.3338 256.361,-81.7597"/>
<text text-anchor="middle" x="258.3449" y="-57.8" font-family="Times,serif" font-size="14.00" fill="#000000">isA</text>
</g>
<!-- MetricPrefix -->
<g id="node9" class="node">
<title>MetricPrefix</title>
<g id="a_node9"><a xlink:href="http://emmo.info/emmo/middle/units#EMMO_7d2afa66_ae9e_4095_a9bf_421d0be401b6" xlink:title="MetricPrefix">
<ellipse fill="#ffffcc" stroke="#000000" stroke-width="2" cx="499.8449" cy="-18" rx="55.7903" ry="18"/>
<text text-anchor="middle" x="499.8449" y="-14.3" font-family="Times,serif" font-size="14.00" fill="#000000">MetricPrefix</text>
</a>
</g>
</g>
<!-- MetricPrefix&#45;&gt;MetrologicalSymbol -->
<g id="edge2" class="edge">
<title>MetricPrefix&#45;&gt;MetrologicalSymbol</title>
<path fill="none" stroke="#000000" d="M499.3187,-36.0735C499.3418,-45.8875 499.8726,-58.1908 501.8449,-69 502.3378,-71.7018 502.9885,-74.4783 503.7323,-77.2335"/>
<polygon fill="none" stroke="#000000" points="500.4348,-78.4183 506.7198,-86.9476 507.1256,-76.3606 500.4348,-78.4183"/>
<text text-anchor="middle" x="511.3449" y="-57.8" font-family="Times,serif" font-size="14.00" fill="#000000">isA</text>
</g>
</g>
</svg>
