<?xml version="1.0" encoding="UTF-8" standalone="no"?>
<!DOCTYPE svg PUBLIC "-//W3C//DTD SVG 1.1//EN"
 "http://www.w3.org/Graphics/SVG/1.1/DTD/svg11.dtd">
<!-- Generated by graphviz version 2.40.1 (20161225.0304)
 -->
<!-- Title: %3 Pages: 1 -->
<svg width="943pt" height="198pt"
 viewBox="0.00 0.00 943.39 198.00" xmlns="http://www.w3.org/2000/svg" xmlns:xlink="http://www.w3.org/1999/xlink">
<g id="graph0" class="graph" transform="scale(1 1) rotate(0) translate(4 194)">
<title>%3</title>
<polygon fill="#ffffff" stroke="transparent" points="-4,4 -4,-194 939.3933,-194 939.3933,4 -4,4"/>
<!-- MeasurementUnit -->
<g id="node1" class="node">
<title>MeasurementUnit</title>
<g id="a_node1"><a xlink:href="http://emmo.info/emmo/middle/metrology#EMMO_b081b346_7279_46ef_9a3d_2c088fcd79f4" xlink:title="MeasurementUnit">
<ellipse fill="#ffffcc" stroke="#000000" stroke-width="2" cx="75.3933" cy="-23" rx="75.2868" ry="18"/>
<text text-anchor="middle" x="75.3933" y="-19.3" font-family="Times,serif" font-size="14.00" fill="#000000">MeasurementUnit</text>
</a>
</g>
</g>
<!-- ReferenceUnit -->
<g id="node9" class="node">
<title>ReferenceUnit</title>
<g id="a_node9"><a xlink:href="http://emmo.info/emmo/middle/metrology#EMMO_18ce5200_00f5_45bb_8c6f_6fb128cd41ae" xlink:title="ReferenceUnit">
<ellipse fill="#ffffcc" stroke="#000000" cx="294.3933" cy="-100" rx="61.99" ry="18"/>
<text text-anchor="middle" x="294.3933" y="-96.3" font-family="Times,serif" font-size="14.00" fill="#000000">ReferenceUnit</text>
</a>
</g>
</g>
<!-- MeasurementUnit&#45;&gt;ReferenceUnit -->
<g id="edge7" class="edge">
<title>MeasurementUnit&#45;&gt;ReferenceUnit</title>
<path fill="none" stroke="#000000" d="M117.8784,-37.9377C154.303,-50.7445 206.8027,-69.2033 245.0746,-82.6596"/>
<polygon fill="none" stroke="#000000" points="244.3774,-86.1245 254.9722,-86.1396 246.6993,-79.5208 244.3774,-86.1245"/>
</g>
<!-- ProcedureUnit -->
<g id="node2" class="node">
<title>ProcedureUnit</title>
<g id="a_node2"><a xlink:href="http://emmo.info/emmo/middle/metrology#EMMO_c9c8f824_9127_4f93_bc21_69fe78a7f6f2" xlink:title="ProcedureUnit">
<ellipse fill="#ffffcc" stroke="#000000" cx="230.3933" cy="-23" rx="61.99" ry="18"/>
<text text-anchor="middle" x="230.3933" y="-19.3" font-family="Times,serif" font-size="14.00" fill="#000000">ProcedureUnit</text>
</a>
</g>
</g>
<!-- ProcedureUnit&#45;&gt;ReferenceUnit -->
<g id="edge4" class="edge">
<title>ProcedureUnit&#45;&gt;ReferenceUnit</title>
<path fill="none" stroke="#000000" d="M245.2371,-40.8589C253.6164,-50.9403 264.2241,-63.7027 273.4389,-74.7892"/>
<polygon fill="none" stroke="#000000" points="270.767,-77.0502 279.8507,-82.5034 276.1503,-72.5758 270.767,-77.0502"/>
</g>
<!-- StandardUnit -->
<g id="node3" class="node">
<title>StandardUnit</title>
<g id="a_node3"><a xlink:href="http://emmo.info/emmo/middle/metrology#EMMO_acd1a504_ca32_4f30_86ad_0b62cea5bc02" xlink:title="StandardUnit">
<ellipse fill="#ffffcc" stroke="#000000" cx="368.3933" cy="-23" rx="57.6901" ry="18"/>
<text text-anchor="middle" x="368.3933" y="-19.3" font-family="Times,serif" font-size="14.00" fill="#000000">StandardUnit</text>
</a>
</g>
</g>
<!-- StandardUnit&#45;&gt;ReferenceUnit -->
<g id="edge9" class="edge">
<title>StandardUnit&#45;&gt;ReferenceUnit</title>
<path fill="none" stroke="#000000" d="M351.6016,-40.4725C341.7617,-50.7112 329.1713,-63.8121 318.3082,-75.1156"/>
<polygon fill="none" stroke="#000000" points="315.5243,-72.9613 311.1186,-82.5967 320.5714,-77.8117 315.5243,-72.9613"/>
</g>
<!-- PhysicsDimension -->
<g id="node4" class="node">
<title>PhysicsDimension</title>
<g id="a_node4"><a xlink:href="http://emmo.info/emmo/middle/metrology#EMMO_9895a1b4_f0a5_4167_ac5e_97db40b8bfcc" xlink:title="PhysicsDimension">
<ellipse fill="#ffffcc" stroke="#000000" stroke-width="2" cx="521.3933" cy="-23" rx="76.8869" ry="18"/>
<text text-anchor="middle" x="521.3933" y="-19.3" font-family="Times,serif" font-size="14.00" fill="#000000">PhysicsDimension</text>
</a>
</g>
</g>
<!-- MetrologicalSymbol -->
<g id="node7" class="node">
<title>MetrologicalSymbol</title>
<g id="a_node7"><a xlink:href="http://emmo.info/emmo/middle/metrology#EMMO_50a3552e_859a_4ff7_946d_76d537cabce6" xlink:title="MetrologicalSymbol">
<ellipse fill="#ffc880" stroke="#000000" cx="521.3933" cy="-100" rx="84.485" ry="18"/>
<text text-anchor="middle" x="521.3933" y="-96.3" font-family="Times,serif" font-size="14.00" fill="#000000">MetrologicalSymbol</text>
</a>
</g>
</g>
<!-- PhysicsDimension&#45;&gt;MetrologicalSymbol -->
<g id="edge2" class="edge">
<title>PhysicsDimension&#45;&gt;MetrologicalSymbol</title>
<path fill="none" stroke="#000000" d="M521.3933,-41.2479C521.3933,-50.3578 521.3933,-61.5826 521.3933,-71.7718"/>
<polygon fill="none" stroke="#000000" points="517.8934,-71.883 521.3933,-81.8831 524.8934,-71.8831 517.8934,-71.883"/>
</g>
<!-- MetricPrefix -->
<g id="node5" class="node">
<title>MetricPrefix</title>
<g id="a_node5"><a xlink:href="http://emmo.info/emmo/middle/metrology#EMMO_7d2afa66_ae9e_4095_a9bf_421d0be401b6" xlink:title="MetricPrefix">
<ellipse fill="#ffffcc" stroke="#000000" stroke-width="2" cx="672.3933" cy="-23" rx="55.7903" ry="18"/>
<text text-anchor="middle" x="672.3933" y="-19.3" font-family="Times,serif" font-size="14.00" fill="#000000">MetricPrefix</text>
</a>
</g>
</g>
<!-- MetricPrefix&#45;&gt;MetrologicalSymbol -->
<g id="edge3" class="edge">
<title>MetricPrefix&#45;&gt;MetrologicalSymbol</title>
<path fill="none" stroke="#000000" d="M642.1991,-38.397C619.5101,-49.967 588.1585,-65.9542 563.0801,-78.7425"/>
<polygon fill="none" stroke="#000000" points="561.4709,-75.6343 554.1522,-83.2951 564.6508,-81.8703 561.4709,-75.6343"/>
</g>
<!-- Metrological -->
<g id="node6" class="node">
<title>Metrological</title>
<g id="a_node6"><a xlink:href="http://emmo.info/emmo/middle/metrology#EMMO_985bec21_989f_4b9e_a4b3_735d88099c3c" xlink:title="Metrological">
<ellipse fill="#ffffcc" stroke="#000000" stroke-width="2" cx="521.3933" cy="-172" rx="56.59" ry="18"/>
<text text-anchor="middle" x="521.3933" y="-168.3" font-family="Times,serif" font-size="14.00" fill="#000000">Metrological</text>
</a>
</g>
</g>
<!-- MetrologicalSymbol&#45;&gt;Metrological -->
<g id="edge8" class="edge">
<title>MetrologicalSymbol&#45;&gt;Metrological</title>
<path fill="none" stroke="#000000" d="M521.3933,-118.1686C521.3933,-125.869 521.3933,-135.0257 521.3933,-143.5834"/>
<polygon fill="none" stroke="#000000" points="517.8934,-143.5867 521.3933,-153.5867 524.8934,-143.5868 517.8934,-143.5867"/>
</g>
<!-- Quantity -->
<g id="node8" class="node">
<title>Quantity</title>
<g id="a_node8"><a xlink:href="http://emmo.info/emmo/middle/metrology#EMMO_f658c301_ce93_46cf_9639_4eace2c5d1d5" xlink:title="Quantity">
<ellipse fill="#ffffcc" stroke="#000000" stroke-width="2" cx="665.3933" cy="-100" rx="41.6928" ry="18"/>
<text text-anchor="middle" x="665.3933" y="-96.3" font-family="Times,serif" font-size="14.00" fill="#000000">Quantity</text>
</a>
</g>
</g>
<!-- Quantity&#45;&gt;Metrological -->
<g id="edge5" class="edge">
<title>Quantity&#45;&gt;Metrological</title>
<path fill="none" stroke="#000000" d="M637.9691,-113.7121C616.1893,-124.602 585.4377,-139.9778 560.9868,-152.2033"/>
<polygon fill="none" stroke="#000000" points="559.3351,-149.1159 551.9561,-156.7186 562.4656,-155.3769 559.3351,-149.1159"/>
</g>
<!-- Quantity&#45;&gt;ReferenceUnit -->
<g id="edge6" class="edge">
<title>Quantity&#45;&gt;ReferenceUnit</title>
<path fill="none" stroke="#006400" stroke-dasharray="5,2" d="M645.2963,-84.1755C634.2065,-76.4549 619.793,-67.9885 605.3933,-64 515.3347,-39.0552 405.9682,-63.8536 343.8482,-82.8316"/>
<polygon fill="#006400" stroke="#006400" points="342.4224,-79.6104 333.9243,-85.9374 344.5132,-86.2908 342.4224,-79.6104"/>
</g>
<!-- ReferenceUnit&#45;&gt;Metrological -->
<g id="edge1" class="edge">
<title>ReferenceUnit&#45;&gt;Metrological</title>
<path fill="none" stroke="#000000" d="M336.2931,-113.2898C374.5196,-125.4145 431.0604,-143.3482 471.5841,-156.2015"/>
<polygon fill="none" stroke="#000000" points="470.6718,-159.5839 481.262,-159.2711 472.7882,-152.9115 470.6718,-159.5839"/>
</g>
<!-- key1 -->
<g id="node10" class="node">
<title>key1</title>
<text text-anchor="start" x="834.3933" y="-28.8" font-family="Times,serif" font-size="14.00" fill="#000000">isA</text>
<text text-anchor="start" x="756.3933" y="-9.8" font-family="Times,serif" font-size="14.00" fill="#000000">hasReferenceUnit</text>
</g>
<!-- key2 -->
<g id="node11" class="node">
<title>key2</title>
<text text-anchor="start" x="906.3933" y="-28.8" font-family="Times,serif" font-size="14.00" fill="#000000"> </text>
<text text-anchor="start" x="906.3933" y="-9.8" font-family="Times,serif" font-size="14.00" fill="#000000"> </text>
</g>
<!-- key1&#45;&gt;key2 -->
<g id="edge10" class="edge">
<title>key1:e&#45;&gt;key2:w</title>
<path fill="none" stroke="#006400" stroke-dasharray="5,2" d="M855.3933,-13C873.2579,-13 880.1316,-13 894.0463,-13"/>
<polygon fill="#006400" stroke="#006400" points="894.3933,-16.5001 904.3933,-13 894.3933,-9.5001 894.3933,-16.5001"/>
</g>
<!-- key1&#45;&gt;key2 -->
<g id="edge11" class="edge">
<title>key1:e&#45;&gt;key2:w</title>
<path fill="none" stroke="#000000" d="M855.3933,-33C873.2579,-33 880.1316,-33 894.0463,-33"/>
<polygon fill="none" stroke="#000000" points="894.3933,-36.5001 904.3933,-33 894.3933,-29.5001 894.3933,-36.5001"/>
</g>
</g>
</svg>
