<?xml version="1.0" encoding="UTF-8" standalone="no"?>
<!DOCTYPE svg PUBLIC "-//W3C//DTD SVG 1.1//EN"
 "http://www.w3.org/Graphics/SVG/1.1/DTD/svg11.dtd">
<!-- Generated by graphviz version 2.40.1 (20161225.0304)
 -->
<!-- Title: %3 Pages: 1 -->
<svg width="944pt" height="198pt"
 viewBox="0.00 0.00 943.69 198.00" xmlns="http://www.w3.org/2000/svg" xmlns:xlink="http://www.w3.org/1999/xlink">
<g id="graph0" class="graph" transform="scale(1 1) rotate(0) translate(4 194)">
<title>%3</title>
<polygon fill="#ffffff" stroke="transparent" points="-4,4 -4,-194 939.6932,-194 939.6932,4 -4,4"/>
<!-- PhysicsDimension -->
<g id="node1" class="node">
<title>PhysicsDimension</title>
<g id="a_node1"><a xlink:href="http://emmo.info/emmo/middle/metrology#EMMO_9895a1b4_f0a5_4167_ac5e_97db40b8bfcc" xlink:title="PhysicsDimension">
<ellipse fill="#ffffcc" stroke="#000000" stroke-width="2" cx="76.6932" cy="-23" rx="76.8869" ry="18"/>
<text text-anchor="middle" x="76.6932" y="-19.3" font-family="Times,serif" font-size="14.00" fill="#000000">PhysicsDimension</text>
</a>
</g>
</g>
<!-- MetrologicalSymbol -->
<g id="node2" class="node">
<title>MetrologicalSymbol</title>
<g id="a_node2"><a xlink:href="http://emmo.info/emmo/middle/metrology#EMMO_50a3552e_859a_4ff7_946d_76d537cabce6" xlink:title="MetrologicalSymbol">
<ellipse fill="#ffc880" stroke="#000000" cx="227.6932" cy="-100" rx="84.485" ry="18"/>
<text text-anchor="middle" x="227.6932" y="-96.3" font-family="Times,serif" font-size="14.00" fill="#000000">MetrologicalSymbol</text>
</a>
</g>
</g>
<!-- PhysicsDimension&#45;&gt;MetrologicalSymbol -->
<g id="edge3" class="edge">
<title>PhysicsDimension&#45;&gt;MetrologicalSymbol</title>
<path fill="none" stroke="#000000" d="M109.0865,-39.5184C131.6009,-50.9993 161.8065,-66.4021 186.1003,-78.7904"/>
<polygon fill="none" stroke="#000000" points="184.5947,-81.9514 195.0933,-83.3762 187.7747,-75.7154 184.5947,-81.9514"/>
</g>
<!-- Metrological -->
<g id="node4" class="node">
<title>Metrological</title>
<g id="a_node4"><a xlink:href="http://emmo.info/emmo/middle/metrology#EMMO_985bec21_989f_4b9e_a4b3_735d88099c3c" xlink:title="Metrological">
<ellipse fill="#ffffcc" stroke="#000000" stroke-width="2" cx="375.6932" cy="-172" rx="56.59" ry="18"/>
<text text-anchor="middle" x="375.6932" y="-168.3" font-family="Times,serif" font-size="14.00" fill="#000000">Metrological</text>
</a>
</g>
</g>
<!-- MetrologicalSymbol&#45;&gt;Metrological -->
<g id="edge1" class="edge">
<title>MetrologicalSymbol&#45;&gt;Metrological</title>
<path fill="none" stroke="#000000" d="M261.6474,-116.5183C283.5494,-127.1733 312.1489,-141.0866 335.2287,-152.3146"/>
<polygon fill="none" stroke="#000000" points="333.8986,-155.5596 344.4221,-156.787 336.9609,-149.265 333.8986,-155.5596"/>
</g>
<!-- ProcedureUnit -->
<g id="node3" class="node">
<title>ProcedureUnit</title>
<g id="a_node3"><a xlink:href="http://emmo.info/emmo/middle/metrology#EMMO_c9c8f824_9127_4f93_bc21_69fe78a7f6f2" xlink:title="ProcedureUnit">
<ellipse fill="#ffffcc" stroke="#000000" cx="363.6932" cy="-23" rx="61.99" ry="18"/>
<text text-anchor="middle" x="363.6932" y="-19.3" font-family="Times,serif" font-size="14.00" fill="#000000">ProcedureUnit</text>
</a>
</g>
</g>
<!-- ReferenceUnit -->
<g id="node8" class="node">
<title>ReferenceUnit</title>
<g id="a_node8"><a xlink:href="http://emmo.info/emmo/middle/metrology#EMMO_18ce5200_00f5_45bb_8c6f_6fb128cd41ae" xlink:title="ReferenceUnit">
<ellipse fill="#ffffcc" stroke="#000000" cx="498.6932" cy="-100" rx="61.99" ry="18"/>
<text text-anchor="middle" x="498.6932" y="-96.3" font-family="Times,serif" font-size="14.00" fill="#000000">ReferenceUnit</text>
</a>
</g>
</g>
<!-- ProcedureUnit&#45;&gt;ReferenceUnit -->
<g id="edge6" class="edge">
<title>ProcedureUnit&#45;&gt;ReferenceUnit</title>
<path fill="none" stroke="#000000" d="M391.9936,-39.1417C412.244,-50.692 439.6978,-66.3508 461.686,-78.8922"/>
<polygon fill="none" stroke="#000000" points="460.0096,-81.9653 470.43,-83.8795 463.4777,-75.8848 460.0096,-81.9653"/>
</g>
<!-- StandardUnit -->
<g id="node5" class="node">
<title>StandardUnit</title>
<g id="a_node5"><a xlink:href="http://emmo.info/emmo/middle/metrology#EMMO_acd1a504_ca32_4f30_86ad_0b62cea5bc02" xlink:title="StandardUnit">
<ellipse fill="#ffffcc" stroke="#000000" cx="501.6932" cy="-23" rx="57.6901" ry="18"/>
<text text-anchor="middle" x="501.6932" y="-19.3" font-family="Times,serif" font-size="14.00" fill="#000000">StandardUnit</text>
</a>
</g>
</g>
<!-- StandardUnit&#45;&gt;ReferenceUnit -->
<g id="edge2" class="edge">
<title>StandardUnit&#45;&gt;ReferenceUnit</title>
<path fill="none" stroke="#000000" d="M500.9822,-41.2479C500.6273,-50.3578 500.19,-61.5826 499.793,-71.7718"/>
<polygon fill="none" stroke="#000000" points="496.2911,-71.7543 499.399,-81.8831 503.2858,-72.0269 496.2911,-71.7543"/>
</g>
<!-- MeasurementUnit -->
<g id="node6" class="node">
<title>MeasurementUnit</title>
<g id="a_node6"><a xlink:href="http://emmo.info/emmo/middle/metrology#EMMO_b081b346_7279_46ef_9a3d_2c088fcd79f4" xlink:title="MeasurementUnit">
<ellipse fill="#ffffcc" stroke="#000000" stroke-width="2" cx="652.6932" cy="-23" rx="75.2868" ry="18"/>
<text text-anchor="middle" x="652.6932" y="-19.3" font-family="Times,serif" font-size="14.00" fill="#000000">MeasurementUnit</text>
</a>
</g>
</g>
<!-- MeasurementUnit&#45;&gt;ReferenceUnit -->
<g id="edge9" class="edge">
<title>MeasurementUnit&#45;&gt;ReferenceUnit</title>
<path fill="none" stroke="#000000" d="M620.0338,-39.3297C596.3647,-51.1642 564.2163,-67.2384 538.9568,-79.8682"/>
<polygon fill="none" stroke="#000000" points="537.3698,-76.7485 529.9908,-84.3512 540.5003,-83.0095 537.3698,-76.7485"/>
</g>
<!-- Quantity -->
<g id="node7" class="node">
<title>Quantity</title>
<g id="a_node7"><a xlink:href="http://emmo.info/emmo/middle/metrology#EMMO_f658c301_ce93_46cf_9639_4eace2c5d1d5" xlink:title="Quantity">
<ellipse fill="#ffffcc" stroke="#000000" stroke-width="2" cx="375.6932" cy="-100" rx="41.6928" ry="18"/>
<text text-anchor="middle" x="375.6932" y="-96.3" font-family="Times,serif" font-size="14.00" fill="#000000">Quantity</text>
</a>
</g>
</g>
<!-- Quantity&#45;&gt;Metrological -->
<g id="edge7" class="edge">
<title>Quantity&#45;&gt;Metrological</title>
<path fill="none" stroke="#000000" d="M375.6932,-118.1686C375.6932,-125.869 375.6932,-135.0257 375.6932,-143.5834"/>
<polygon fill="none" stroke="#000000" points="372.1933,-143.5867 375.6932,-153.5867 379.1933,-143.5868 372.1933,-143.5867"/>
</g>
<!-- Quantity&#45;&gt;ReferenceUnit -->
<g id="edge8" class="edge">
<title>Quantity&#45;&gt;ReferenceUnit</title>
<path fill="none" stroke="#006400" stroke-dasharray="5,2" d="M417.494,-100C420.5171,-100 423.5403,-100 426.5635,-100"/>
<polygon fill="#006400" stroke="#006400" points="426.8423,-103.5001 436.8422,-100 426.8422,-96.5001 426.8423,-103.5001"/>
</g>
<!-- ReferenceUnit&#45;&gt;Metrological -->
<g id="edge4" class="edge">
<title>ReferenceUnit&#45;&gt;Metrological</title>
<path fill="none" stroke="#000000" d="M471.0896,-116.1582C453.4797,-126.4664 430.4776,-139.9311 411.4727,-151.0559"/>
<polygon fill="none" stroke="#000000" points="409.6432,-148.0712 402.7812,-156.1436 413.1795,-154.1123 409.6432,-148.0712"/>
</g>
<!-- MetricPrefix -->
<g id="node9" class="node">
<title>MetricPrefix</title>
<g id="a_node9"><a xlink:href="http://emmo.info/emmo/middle/metrology#EMMO_7d2afa66_ae9e_4095_a9bf_421d0be401b6" xlink:title="MetricPrefix">
<ellipse fill="#ffffcc" stroke="#000000" stroke-width="2" cx="227.6932" cy="-23" rx="55.7903" ry="18"/>
<text text-anchor="middle" x="227.6932" y="-19.3" font-family="Times,serif" font-size="14.00" fill="#000000">MetricPrefix</text>
</a>
</g>
</g>
<!-- MetricPrefix&#45;&gt;MetrologicalSymbol -->
<g id="edge5" class="edge">
<title>MetricPrefix&#45;&gt;MetrologicalSymbol</title>
<path fill="none" stroke="#000000" d="M227.6932,-41.2479C227.6932,-50.3578 227.6932,-61.5826 227.6932,-71.7718"/>
<polygon fill="none" stroke="#000000" points="224.1933,-71.883 227.6932,-81.8831 231.1933,-71.8831 224.1933,-71.883"/>
</g>
<!-- key1 -->
<g id="node10" class="node">
<title>key1</title>
<text text-anchor="start" x="834.6932" y="-28.8" font-family="Times,serif" font-size="14.00" fill="#000000">isA</text>
<text text-anchor="start" x="756.6932" y="-9.8" font-family="Times,serif" font-size="14.00" fill="#000000">hasReferenceUnit</text>
</g>
<!-- key2 -->
<g id="node11" class="node">
<title>key2</title>
<text text-anchor="start" x="906.6932" y="-28.8" font-family="Times,serif" font-size="14.00" fill="#000000"> </text>
<text text-anchor="start" x="906.6932" y="-9.8" font-family="Times,serif" font-size="14.00" fill="#000000"> </text>
</g>
<!-- key1&#45;&gt;key2 -->
<g id="edge10" class="edge">
<title>key1:e&#45;&gt;key2:w</title>
<path fill="none" stroke="#006400" stroke-dasharray="5,2" d="M855.6932,-13C873.5578,-13 880.4315,-13 894.3462,-13"/>
<polygon fill="#006400" stroke="#006400" points="894.6932,-16.5001 904.6932,-13 894.6932,-9.5001 894.6932,-16.5001"/>
</g>
<!-- key1&#45;&gt;key2 -->
<g id="edge11" class="edge">
<title>key1:e&#45;&gt;key2:w</title>
<path fill="none" stroke="#000000" d="M855.6932,-33C873.5578,-33 880.4315,-33 894.3462,-33"/>
<polygon fill="none" stroke="#000000" points="894.6932,-36.5001 904.6932,-33 894.6932,-29.5001 894.6932,-36.5001"/>
</g>
</g>
</svg>
