<?xml version="1.0" encoding="UTF-8" standalone="no"?>
<!DOCTYPE svg PUBLIC "-//W3C//DTD SVG 1.1//EN"
 "http://www.w3.org/Graphics/SVG/1.1/DTD/svg11.dtd">
<!-- Generated by graphviz version 2.40.1 (20161225.0304)
 -->
<!-- Title: %3 Pages: 1 -->
<svg width="943pt" height="198pt"
 viewBox="0.00 0.00 942.69 198.00" xmlns="http://www.w3.org/2000/svg" xmlns:xlink="http://www.w3.org/1999/xlink">
<g id="graph0" class="graph" transform="scale(1 1) rotate(0) translate(4 194)">
<title>%3</title>
<polygon fill="#ffffff" stroke="transparent" points="-4,4 -4,-194 938.6932,-194 938.6932,4 -4,4"/>
<!-- Metrological -->
<g id="node1" class="node">
<title>Metrological</title>
<g id="a_node1"><a xlink:href="http://emmo.info/emmo/middle/metrology#EMMO_985bec21_989f_4b9e_a4b3_735d88099c3c" xlink:title="Metrological">
<ellipse fill="#ffffcc" stroke="#000000" stroke-width="2" cx="390.6932" cy="-172" rx="56.59" ry="18"/>
<text text-anchor="middle" x="390.6932" y="-168.3" font-family="Times,serif" font-size="14.00" fill="#000000">Metrological</text>
</a>
</g>
</g>
<!-- PhysicsDimension -->
<g id="node2" class="node">
<title>PhysicsDimension</title>
<g id="a_node2"><a xlink:href="http://emmo.info/emmo/middle/metrology#EMMO_9895a1b4_f0a5_4167_ac5e_97db40b8bfcc" xlink:title="PhysicsDimension">
<ellipse fill="#ffffcc" stroke="#000000" stroke-width="2" cx="76.6932" cy="-23" rx="76.8869" ry="18"/>
<text text-anchor="middle" x="76.6932" y="-19.3" font-family="Times,serif" font-size="14.00" fill="#000000">PhysicsDimension</text>
</a>
</g>
</g>
<!-- MetrologicalSymbol -->
<g id="node3" class="node">
<title>MetrologicalSymbol</title>
<g id="a_node3"><a xlink:href="http://emmo.info/emmo/middle/metrology#EMMO_50a3552e_859a_4ff7_946d_76d537cabce6" xlink:title="MetrologicalSymbol">
<ellipse fill="#ffc880" stroke="#000000" cx="227.6932" cy="-100" rx="84.485" ry="18"/>
<text text-anchor="middle" x="227.6932" y="-96.3" font-family="Times,serif" font-size="14.00" fill="#000000">MetrologicalSymbol</text>
</a>
</g>
</g>
<!-- PhysicsDimension&#45;&gt;MetrologicalSymbol -->
<g id="edge8" class="edge">
<title>PhysicsDimension&#45;&gt;MetrologicalSymbol</title>
<path fill="none" stroke="#000000" d="M109.0865,-39.5184C131.6009,-50.9993 161.8065,-66.4021 186.1003,-78.7904"/>
<polygon fill="none" stroke="#000000" points="184.5947,-81.9514 195.0933,-83.3762 187.7747,-75.7154 184.5947,-81.9514"/>
</g>
<!-- MetrologicalSymbol&#45;&gt;Metrological -->
<g id="edge5" class="edge">
<title>MetrologicalSymbol&#45;&gt;Metrological</title>
<path fill="none" stroke="#000000" d="M264.6804,-116.3379C289.5262,-127.3127 322.3336,-141.8044 348.2447,-153.2497"/>
<polygon fill="none" stroke="#000000" points="346.8897,-156.4774 357.4513,-157.3165 349.7182,-150.0743 346.8897,-156.4774"/>
</g>
<!-- MeasurementUnit -->
<g id="node4" class="node">
<title>MeasurementUnit</title>
<g id="a_node4"><a xlink:href="http://emmo.info/emmo/middle/metrology#EMMO_b081b346_7279_46ef_9a3d_2c088fcd79f4" xlink:title="MeasurementUnit">
<ellipse fill="#ffffcc" stroke="#000000" stroke-width="2" cx="376.6932" cy="-23" rx="75.2868" ry="18"/>
<text text-anchor="middle" x="376.6932" y="-19.3" font-family="Times,serif" font-size="14.00" fill="#000000">MeasurementUnit</text>
</a>
</g>
</g>
<!-- ReferenceUnit -->
<g id="node7" class="node">
<title>ReferenceUnit</title>
<g id="a_node7"><a xlink:href="http://emmo.info/emmo/middle/metrology#EMMO_18ce5200_00f5_45bb_8c6f_6fb128cd41ae" xlink:title="ReferenceUnit">
<ellipse fill="#ffffcc" stroke="#000000" cx="521.6932" cy="-100" rx="61.99" ry="18"/>
<text text-anchor="middle" x="521.6932" y="-96.3" font-family="Times,serif" font-size="14.00" fill="#000000">ReferenceUnit</text>
</a>
</g>
</g>
<!-- MeasurementUnit&#45;&gt;ReferenceUnit -->
<g id="edge7" class="edge">
<title>MeasurementUnit&#45;&gt;ReferenceUnit</title>
<path fill="none" stroke="#000000" d="M407.7993,-39.5184C429.6912,-51.1438 459.1557,-66.7904 482.631,-79.2566"/>
<polygon fill="none" stroke="#000000" points="481.1577,-82.4371 491.6312,-84.0361 484.4408,-76.2548 481.1577,-82.4371"/>
</g>
<!-- ProcedureUnit -->
<g id="node5" class="node">
<title>ProcedureUnit</title>
<g id="a_node5"><a xlink:href="http://emmo.info/emmo/middle/metrology#EMMO_c9c8f824_9127_4f93_bc21_69fe78a7f6f2" xlink:title="ProcedureUnit">
<ellipse fill="#ffffcc" stroke="#000000" cx="531.6932" cy="-23" rx="61.99" ry="18"/>
<text text-anchor="middle" x="531.6932" y="-19.3" font-family="Times,serif" font-size="14.00" fill="#000000">ProcedureUnit</text>
</a>
</g>
</g>
<!-- ProcedureUnit&#45;&gt;ReferenceUnit -->
<g id="edge4" class="edge">
<title>ProcedureUnit&#45;&gt;ReferenceUnit</title>
<path fill="none" stroke="#000000" d="M529.3233,-41.2479C528.1402,-50.3578 526.6825,-61.5826 525.3592,-71.7718"/>
<polygon fill="none" stroke="#000000" points="521.8632,-71.5155 524.046,-81.8831 528.8049,-72.4171 521.8632,-71.5155"/>
</g>
<!-- Quantity -->
<g id="node6" class="node">
<title>Quantity</title>
<g id="a_node6"><a xlink:href="http://emmo.info/emmo/middle/metrology#EMMO_f658c301_ce93_46cf_9639_4eace2c5d1d5" xlink:title="Quantity">
<ellipse fill="#ffffcc" stroke="#000000" stroke-width="2" cx="390.6932" cy="-100" rx="41.6928" ry="18"/>
<text text-anchor="middle" x="390.6932" y="-96.3" font-family="Times,serif" font-size="14.00" fill="#000000">Quantity</text>
</a>
</g>
</g>
<!-- Quantity&#45;&gt;Metrological -->
<g id="edge2" class="edge">
<title>Quantity&#45;&gt;Metrological</title>
<path fill="none" stroke="#000000" d="M390.6932,-118.1686C390.6932,-125.869 390.6932,-135.0257 390.6932,-143.5834"/>
<polygon fill="none" stroke="#000000" points="387.1933,-143.5867 390.6932,-153.5867 394.1933,-143.5868 387.1933,-143.5867"/>
</g>
<!-- Quantity&#45;&gt;ReferenceUnit -->
<g id="edge3" class="edge">
<title>Quantity&#45;&gt;ReferenceUnit</title>
<path fill="none" stroke="#006400" stroke-dasharray="5,2" d="M432.3983,-100C438.0664,-100 443.7345,-100 449.4027,-100"/>
<polygon fill="#006400" stroke="#006400" points="449.6054,-103.5001 459.6053,-100 449.6053,-96.5001 449.6054,-103.5001"/>
</g>
<!-- ReferenceUnit&#45;&gt;Metrological -->
<g id="edge1" class="edge">
<title>ReferenceUnit&#45;&gt;Metrological</title>
<path fill="none" stroke="#000000" d="M492.62,-115.9791C473.5782,-126.4449 448.5139,-140.2207 428.0054,-151.4925"/>
<polygon fill="none" stroke="#000000" points="426.3121,-148.4293 419.2343,-156.3133 429.6838,-154.5638 426.3121,-148.4293"/>
</g>
<!-- StandardUnit -->
<g id="node8" class="node">
<title>StandardUnit</title>
<g id="a_node8"><a xlink:href="http://emmo.info/emmo/middle/metrology#EMMO_acd1a504_ca32_4f30_86ad_0b62cea5bc02" xlink:title="StandardUnit">
<ellipse fill="#ffffcc" stroke="#000000" cx="669.6932" cy="-23" rx="57.6901" ry="18"/>
<text text-anchor="middle" x="669.6932" y="-19.3" font-family="Times,serif" font-size="14.00" fill="#000000">StandardUnit</text>
</a>
</g>
</g>
<!-- StandardUnit&#45;&gt;ReferenceUnit -->
<g id="edge6" class="edge">
<title>StandardUnit&#45;&gt;ReferenceUnit</title>
<path fill="none" stroke="#000000" d="M639.7432,-38.5821C617.1244,-50.35 585.8728,-66.6093 561.2062,-79.4426"/>
<polygon fill="none" stroke="#000000" points="559.3624,-76.4564 552.1066,-84.1768 562.5932,-82.6662 559.3624,-76.4564"/>
</g>
<!-- MetricPrefix -->
<g id="node9" class="node">
<title>MetricPrefix</title>
<g id="a_node9"><a xlink:href="http://emmo.info/emmo/middle/metrology#EMMO_7d2afa66_ae9e_4095_a9bf_421d0be401b6" xlink:title="MetricPrefix">
<ellipse fill="#ffffcc" stroke="#000000" stroke-width="2" cx="227.6932" cy="-23" rx="55.7903" ry="18"/>
<text text-anchor="middle" x="227.6932" y="-19.3" font-family="Times,serif" font-size="14.00" fill="#000000">MetricPrefix</text>
</a>
</g>
</g>
<!-- MetricPrefix&#45;&gt;MetrologicalSymbol -->
<g id="edge9" class="edge">
<title>MetricPrefix&#45;&gt;MetrologicalSymbol</title>
<path fill="none" stroke="#000000" d="M227.6932,-41.2479C227.6932,-50.3578 227.6932,-61.5826 227.6932,-71.7718"/>
<polygon fill="none" stroke="#000000" points="224.1933,-71.883 227.6932,-81.8831 231.1933,-71.8831 224.1933,-71.883"/>
</g>
<!-- key1 -->
<g id="node10" class="node">
<title>key1</title>
<text text-anchor="start" x="833.6932" y="-28.8" font-family="Times,serif" font-size="14.00" fill="#000000">isA</text>
<text text-anchor="start" x="755.6932" y="-9.8" font-family="Times,serif" font-size="14.00" fill="#000000">hasReferenceUnit</text>
</g>
<!-- key2 -->
<g id="node11" class="node">
<title>key2</title>
<text text-anchor="start" x="905.6932" y="-28.8" font-family="Times,serif" font-size="14.00" fill="#000000"> </text>
<text text-anchor="start" x="905.6932" y="-9.8" font-family="Times,serif" font-size="14.00" fill="#000000"> </text>
</g>
<!-- key1&#45;&gt;key2 -->
<g id="edge10" class="edge">
<title>key1:e&#45;&gt;key2:w</title>
<path fill="none" stroke="#006400" stroke-dasharray="5,2" d="M854.6932,-13C872.5578,-13 879.4315,-13 893.3462,-13"/>
<polygon fill="#006400" stroke="#006400" points="893.6932,-16.5001 903.6932,-13 893.6932,-9.5001 893.6932,-16.5001"/>
</g>
<!-- key1&#45;&gt;key2 -->
<g id="edge11" class="edge">
<title>key1:e&#45;&gt;key2:w</title>
<path fill="none" stroke="#000000" d="M854.6932,-33C872.5578,-33 879.4315,-33 893.3462,-33"/>
<polygon fill="none" stroke="#000000" points="893.6932,-36.5001 903.6932,-33 893.6932,-29.5001 893.6932,-36.5001"/>
</g>
</g>
</svg>
