<?xml version="1.0" encoding="UTF-8" standalone="no"?>
<!DOCTYPE svg PUBLIC "-//W3C//DTD SVG 1.1//EN"
 "http://www.w3.org/Graphics/SVG/1.1/DTD/svg11.dtd">
<!-- Generated by graphviz version 2.40.1 (20161225.0304)
 -->
<!-- Title: %3 Pages: 1 -->
<svg width="943pt" height="198pt"
 viewBox="0.00 0.00 942.90 198.00" xmlns="http://www.w3.org/2000/svg" xmlns:xlink="http://www.w3.org/1999/xlink">
<g id="graph0" class="graph" transform="scale(1 1) rotate(0) translate(4 194)">
<title>%3</title>
<polygon fill="#ffffff" stroke="transparent" points="-4,4 -4,-194 938.895,-194 938.895,4 -4,4"/>
<!-- MetricPrefix -->
<g id="node1" class="node">
<title>MetricPrefix</title>
<g id="a_node1"><a xlink:href="http://emmo.info/emmo/middle/metrology#EMMO_7d2afa66_ae9e_4095_a9bf_421d0be401b6" xlink:title="MetricPrefix">
<ellipse fill="#ffffcc" stroke="#000000" stroke-width="2" cx="55.895" cy="-23" rx="55.7903" ry="18"/>
<text text-anchor="middle" x="55.895" y="-19.3" font-family="Times,serif" font-size="14.00" fill="#000000">MetricPrefix</text>
</a>
</g>
</g>
<!-- MetrologicalSymbol -->
<g id="node6" class="node">
<title>MetrologicalSymbol</title>
<g id="a_node6"><a xlink:href="http://emmo.info/emmo/middle/metrology#EMMO_50a3552e_859a_4ff7_946d_76d537cabce6" xlink:title="MetrologicalSymbol">
<ellipse fill="#ffc880" stroke="#000000" cx="206.895" cy="-100" rx="84.485" ry="18"/>
<text text-anchor="middle" x="206.895" y="-96.3" font-family="Times,serif" font-size="14.00" fill="#000000">MetrologicalSymbol</text>
</a>
</g>
</g>
<!-- MetricPrefix&#45;&gt;MetrologicalSymbol -->
<g id="edge4" class="edge">
<title>MetricPrefix&#45;&gt;MetrologicalSymbol</title>
<path fill="none" stroke="#000000" d="M86.0892,-38.397C108.7783,-49.967 140.1299,-65.9542 165.2082,-78.7425"/>
<polygon fill="none" stroke="#000000" points="163.6375,-81.8703 174.1361,-83.2951 166.8175,-75.6343 163.6375,-81.8703"/>
</g>
<!-- ProcedureUnit -->
<g id="node2" class="node">
<title>ProcedureUnit</title>
<g id="a_node2"><a xlink:href="http://emmo.info/emmo/middle/metrology#EMMO_c9c8f824_9127_4f93_bc21_69fe78a7f6f2" xlink:title="ProcedureUnit">
<ellipse fill="#ffffcc" stroke="#000000" cx="362.895" cy="-23" rx="61.99" ry="18"/>
<text text-anchor="middle" x="362.895" y="-19.3" font-family="Times,serif" font-size="14.00" fill="#000000">ProcedureUnit</text>
</a>
</g>
</g>
<!-- ReferenceUnit -->
<g id="node9" class="node">
<title>ReferenceUnit</title>
<g id="a_node9"><a xlink:href="http://emmo.info/emmo/middle/metrology#EMMO_18ce5200_00f5_45bb_8c6f_6fb128cd41ae" xlink:title="ReferenceUnit">
<ellipse fill="#ffffcc" stroke="#000000" cx="492.895" cy="-100" rx="61.99" ry="18"/>
<text text-anchor="middle" x="492.895" y="-96.3" font-family="Times,serif" font-size="14.00" fill="#000000">ReferenceUnit</text>
</a>
</g>
</g>
<!-- ProcedureUnit&#45;&gt;ReferenceUnit -->
<g id="edge1" class="edge">
<title>ProcedureUnit&#45;&gt;ReferenceUnit</title>
<path fill="none" stroke="#000000" d="M390.4647,-39.3297C409.7685,-50.7635 435.7535,-66.1546 456.7206,-78.5736"/>
<polygon fill="none" stroke="#000000" points="454.9774,-81.609 465.3651,-83.6938 458.5448,-75.5862 454.9774,-81.609"/>
</g>
<!-- Metrological -->
<g id="node3" class="node">
<title>Metrological</title>
<g id="a_node3"><a xlink:href="http://emmo.info/emmo/middle/metrology#EMMO_985bec21_989f_4b9e_a4b3_735d88099c3c" xlink:title="Metrological">
<ellipse fill="#ffffcc" stroke="#000000" stroke-width="2" cx="364.895" cy="-172" rx="56.59" ry="18"/>
<text text-anchor="middle" x="364.895" y="-168.3" font-family="Times,serif" font-size="14.00" fill="#000000">Metrological</text>
</a>
</g>
</g>
<!-- StandardUnit -->
<g id="node4" class="node">
<title>StandardUnit</title>
<g id="a_node4"><a xlink:href="http://emmo.info/emmo/middle/metrology#EMMO_acd1a504_ca32_4f30_86ad_0b62cea5bc02" xlink:title="StandardUnit">
<ellipse fill="#ffffcc" stroke="#000000" cx="500.895" cy="-23" rx="57.6901" ry="18"/>
<text text-anchor="middle" x="500.895" y="-19.3" font-family="Times,serif" font-size="14.00" fill="#000000">StandardUnit</text>
</a>
</g>
</g>
<!-- StandardUnit&#45;&gt;ReferenceUnit -->
<g id="edge3" class="edge">
<title>StandardUnit&#45;&gt;ReferenceUnit</title>
<path fill="none" stroke="#000000" d="M498.9992,-41.2479C498.0527,-50.3578 496.8865,-61.5826 495.8278,-71.7718"/>
<polygon fill="none" stroke="#000000" points="492.3295,-71.5749 494.7773,-81.8831 499.2921,-72.2983 492.3295,-71.5749"/>
</g>
<!-- PhysicsDimension -->
<g id="node5" class="node">
<title>PhysicsDimension</title>
<g id="a_node5"><a xlink:href="http://emmo.info/emmo/middle/metrology#EMMO_9895a1b4_f0a5_4167_ac5e_97db40b8bfcc" xlink:title="PhysicsDimension">
<ellipse fill="#ffffcc" stroke="#000000" stroke-width="2" cx="206.895" cy="-23" rx="76.8869" ry="18"/>
<text text-anchor="middle" x="206.895" y="-19.3" font-family="Times,serif" font-size="14.00" fill="#000000">PhysicsDimension</text>
</a>
</g>
</g>
<!-- PhysicsDimension&#45;&gt;MetrologicalSymbol -->
<g id="edge7" class="edge">
<title>PhysicsDimension&#45;&gt;MetrologicalSymbol</title>
<path fill="none" stroke="#000000" d="M206.895,-41.2479C206.895,-50.3578 206.895,-61.5826 206.895,-71.7718"/>
<polygon fill="none" stroke="#000000" points="203.3951,-71.883 206.895,-81.8831 210.3951,-71.8831 203.3951,-71.883"/>
</g>
<!-- MetrologicalSymbol&#45;&gt;Metrological -->
<g id="edge6" class="edge">
<title>MetrologicalSymbol&#45;&gt;Metrological</title>
<path fill="none" stroke="#000000" d="M242.7477,-116.3379C266.645,-127.2278 298.1407,-141.5803 323.1644,-152.9835"/>
<polygon fill="none" stroke="#000000" points="321.8576,-156.2342 332.4087,-157.1961 324.7603,-149.8644 321.8576,-156.2342"/>
</g>
<!-- MeasurementUnit -->
<g id="node7" class="node">
<title>MeasurementUnit</title>
<g id="a_node7"><a xlink:href="http://emmo.info/emmo/middle/metrology#EMMO_b081b346_7279_46ef_9a3d_2c088fcd79f4" xlink:title="MeasurementUnit">
<ellipse fill="#ffffcc" stroke="#000000" stroke-width="2" cx="651.895" cy="-23" rx="75.2868" ry="18"/>
<text text-anchor="middle" x="651.895" y="-19.3" font-family="Times,serif" font-size="14.00" fill="#000000">MeasurementUnit</text>
</a>
</g>
</g>
<!-- MeasurementUnit&#45;&gt;ReferenceUnit -->
<g id="edge2" class="edge">
<title>MeasurementUnit&#45;&gt;ReferenceUnit</title>
<path fill="none" stroke="#000000" d="M618.1752,-39.3297C593.6565,-51.2036 560.3249,-67.3453 534.2062,-79.994"/>
<polygon fill="none" stroke="#000000" points="532.4142,-76.9729 524.9395,-84.4816 535.4652,-83.273 532.4142,-76.9729"/>
</g>
<!-- Quantity -->
<g id="node8" class="node">
<title>Quantity</title>
<g id="a_node8"><a xlink:href="http://emmo.info/emmo/middle/metrology#EMMO_f658c301_ce93_46cf_9639_4eace2c5d1d5" xlink:title="Quantity">
<ellipse fill="#ffffcc" stroke="#000000" stroke-width="2" cx="364.895" cy="-100" rx="41.6928" ry="18"/>
<text text-anchor="middle" x="364.895" y="-96.3" font-family="Times,serif" font-size="14.00" fill="#000000">Quantity</text>
</a>
</g>
</g>
<!-- Quantity&#45;&gt;Metrological -->
<g id="edge8" class="edge">
<title>Quantity&#45;&gt;Metrological</title>
<path fill="none" stroke="#000000" d="M364.895,-118.1686C364.895,-125.869 364.895,-135.0257 364.895,-143.5834"/>
<polygon fill="none" stroke="#000000" points="361.3951,-143.5867 364.895,-153.5867 368.3951,-143.5868 361.3951,-143.5867"/>
</g>
<!-- Quantity&#45;&gt;ReferenceUnit -->
<g id="edge9" class="edge">
<title>Quantity&#45;&gt;ReferenceUnit</title>
<path fill="none" stroke="#006400" stroke-dasharray="5,2" d="M406.645,-100C411.3197,-100 415.9944,-100 420.6691,-100"/>
<polygon fill="#006400" stroke="#006400" points="420.9029,-103.5001 430.9029,-100 420.9028,-96.5001 420.9029,-103.5001"/>
</g>
<!-- ReferenceUnit&#45;&gt;Metrological -->
<g id="edge5" class="edge">
<title>ReferenceUnit&#45;&gt;Metrological</title>
<path fill="none" stroke="#000000" d="M464.1693,-116.1582C445.7607,-126.5131 421.6897,-140.053 401.8607,-151.2068"/>
<polygon fill="none" stroke="#000000" points="400.084,-148.1904 393.0842,-156.1436 403.5159,-154.2915 400.084,-148.1904"/>
</g>
<!-- key1 -->
<g id="node10" class="node">
<title>key1</title>
<text text-anchor="start" x="833.895" y="-28.8" font-family="Times,serif" font-size="14.00" fill="#000000">isA</text>
<text text-anchor="start" x="755.895" y="-9.8" font-family="Times,serif" font-size="14.00" fill="#000000">hasReferenceUnit</text>
</g>
<!-- key2 -->
<g id="node11" class="node">
<title>key2</title>
<text text-anchor="start" x="905.895" y="-28.8" font-family="Times,serif" font-size="14.00" fill="#000000"> </text>
<text text-anchor="start" x="905.895" y="-9.8" font-family="Times,serif" font-size="14.00" fill="#000000"> </text>
</g>
<!-- key1&#45;&gt;key2 -->
<g id="edge10" class="edge">
<title>key1:e&#45;&gt;key2:w</title>
<path fill="none" stroke="#006400" stroke-dasharray="5,2" d="M854.895,-13C872.7596,-13 879.6333,-13 893.548,-13"/>
<polygon fill="#006400" stroke="#006400" points="893.8951,-16.5001 903.895,-13 893.895,-9.5001 893.8951,-16.5001"/>
</g>
<!-- key1&#45;&gt;key2 -->
<g id="edge11" class="edge">
<title>key1:e&#45;&gt;key2:w</title>
<path fill="none" stroke="#000000" d="M854.895,-33C872.7596,-33 879.6333,-33 893.548,-33"/>
<polygon fill="none" stroke="#000000" points="893.8951,-36.5001 903.895,-33 893.895,-29.5001 893.8951,-36.5001"/>
</g>
</g>
</svg>
