<?xml version="1.0" encoding="UTF-8" standalone="no"?>
<!DOCTYPE svg PUBLIC "-//W3C//DTD SVG 1.1//EN"
 "http://www.w3.org/Graphics/SVG/1.1/DTD/svg11.dtd">
<!-- Generated by graphviz version 2.40.1 (20161225.0304)
 -->
<!-- Title: %3 Pages: 1 -->
<svg width="943pt" height="198pt"
 viewBox="0.00 0.00 942.74 198.00" xmlns="http://www.w3.org/2000/svg" xmlns:xlink="http://www.w3.org/1999/xlink">
<g id="graph0" class="graph" transform="scale(1 1) rotate(0) translate(4 194)">
<title>%3</title>
<polygon fill="#ffffff" stroke="transparent" points="-4,4 -4,-194 938.7445,-194 938.7445,4 -4,4"/>
<!-- ProcedureUnit -->
<g id="node1" class="node">
<title>ProcedureUnit</title>
<g id="a_node1"><a xlink:href="http://emmo.info/emmo/middle/metrology#EMMO_c9c8f824_9127_4f93_bc21_69fe78a7f6f2" xlink:title="ProcedureUnit">
<ellipse fill="#ffffcc" stroke="#000000" cx="61.7445" cy="-23" rx="61.99" ry="18"/>
<text text-anchor="middle" x="61.7445" y="-19.3" font-family="Times,serif" font-size="14.00" fill="#000000">ProcedureUnit</text>
</a>
</g>
</g>
<!-- ReferenceUnit -->
<g id="node4" class="node">
<title>ReferenceUnit</title>
<g id="a_node4"><a xlink:href="http://emmo.info/emmo/middle/metrology#EMMO_18ce5200_00f5_45bb_8c6f_6fb128cd41ae" xlink:title="ReferenceUnit">
<ellipse fill="#ffffcc" stroke="#000000" cx="208.7445" cy="-100" rx="61.99" ry="18"/>
<text text-anchor="middle" x="208.7445" y="-96.3" font-family="Times,serif" font-size="14.00" fill="#000000">ReferenceUnit</text>
</a>
</g>
</g>
<!-- ProcedureUnit&#45;&gt;ReferenceUnit -->
<g id="edge8" class="edge">
<title>ProcedureUnit&#45;&gt;ReferenceUnit</title>
<path fill="none" stroke="#000000" d="M91.8469,-38.7679C114.3405,-50.5503 145.2827,-66.7581 169.6825,-79.539"/>
<polygon fill="none" stroke="#000000" points="168.2,-82.7135 178.6824,-84.2532 171.4481,-76.5126 168.2,-82.7135"/>
</g>
<!-- StandardUnit -->
<g id="node2" class="node">
<title>StandardUnit</title>
<g id="a_node2"><a xlink:href="http://emmo.info/emmo/middle/metrology#EMMO_acd1a504_ca32_4f30_86ad_0b62cea5bc02" xlink:title="StandardUnit">
<ellipse fill="#ffffcc" stroke="#000000" cx="199.7445" cy="-23" rx="57.6901" ry="18"/>
<text text-anchor="middle" x="199.7445" y="-19.3" font-family="Times,serif" font-size="14.00" fill="#000000">StandardUnit</text>
</a>
</g>
</g>
<!-- StandardUnit&#45;&gt;ReferenceUnit -->
<g id="edge6" class="edge">
<title>StandardUnit&#45;&gt;ReferenceUnit</title>
<path fill="none" stroke="#000000" d="M201.8774,-41.2479C202.9422,-50.3578 204.2542,-61.5826 205.4451,-71.7718"/>
<polygon fill="none" stroke="#000000" points="201.9896,-72.357 206.627,-81.8831 208.9423,-71.5443 201.9896,-72.357"/>
</g>
<!-- Quantity -->
<g id="node3" class="node">
<title>Quantity</title>
<g id="a_node3"><a xlink:href="http://emmo.info/emmo/middle/metrology#EMMO_f658c301_ce93_46cf_9639_4eace2c5d1d5" xlink:title="Quantity">
<ellipse fill="#ffffcc" stroke="#000000" stroke-width="2" cx="346.7445" cy="-100" rx="41.6928" ry="18"/>
<text text-anchor="middle" x="346.7445" y="-96.3" font-family="Times,serif" font-size="14.00" fill="#000000">Quantity</text>
</a>
</g>
</g>
<!-- Quantity&#45;&gt;ReferenceUnit -->
<g id="edge5" class="edge">
<title>Quantity&#45;&gt;ReferenceUnit</title>
<path fill="none" stroke="#006400" stroke-dasharray="5,2" d="M304.8808,-100C296.8783,-100 288.8758,-100 280.8732,-100"/>
<polygon fill="#006400" stroke="#006400" points="280.7367,-96.5001 270.7367,-100 280.7367,-103.5001 280.7367,-96.5001"/>
</g>
<!-- Metrological -->
<g id="node7" class="node">
<title>Metrological</title>
<g id="a_node7"><a xlink:href="http://emmo.info/emmo/middle/metrology#EMMO_985bec21_989f_4b9e_a4b3_735d88099c3c" xlink:title="Metrological">
<ellipse fill="#ffffcc" stroke="#000000" stroke-width="2" cx="346.7445" cy="-172" rx="56.59" ry="18"/>
<text text-anchor="middle" x="346.7445" y="-168.3" font-family="Times,serif" font-size="14.00" fill="#000000">Metrological</text>
</a>
</g>
</g>
<!-- Quantity&#45;&gt;Metrological -->
<g id="edge4" class="edge">
<title>Quantity&#45;&gt;Metrological</title>
<path fill="none" stroke="#000000" d="M346.7445,-118.1686C346.7445,-125.869 346.7445,-135.0257 346.7445,-143.5834"/>
<polygon fill="none" stroke="#000000" points="343.2446,-143.5867 346.7445,-153.5867 350.2446,-143.5868 343.2446,-143.5867"/>
</g>
<!-- ReferenceUnit&#45;&gt;Metrological -->
<g id="edge1" class="edge">
<title>ReferenceUnit&#45;&gt;Metrological</title>
<path fill="none" stroke="#000000" d="M239.0292,-115.8007C259.3008,-126.3772 286.1642,-140.3929 307.9922,-151.7814"/>
<polygon fill="none" stroke="#000000" points="306.5201,-154.961 317.0049,-156.4837 309.7581,-148.7549 306.5201,-154.961"/>
</g>
<!-- MeasurementUnit -->
<g id="node5" class="node">
<title>MeasurementUnit</title>
<g id="a_node5"><a xlink:href="http://emmo.info/emmo/middle/metrology#EMMO_b081b346_7279_46ef_9a3d_2c088fcd79f4" xlink:title="MeasurementUnit">
<ellipse fill="#ffffcc" stroke="#000000" stroke-width="2" cx="350.7445" cy="-23" rx="75.2868" ry="18"/>
<text text-anchor="middle" x="350.7445" y="-19.3" font-family="Times,serif" font-size="14.00" fill="#000000">MeasurementUnit</text>
</a>
</g>
</g>
<!-- MeasurementUnit&#45;&gt;ReferenceUnit -->
<g id="edge3" class="edge">
<title>MeasurementUnit&#45;&gt;ReferenceUnit</title>
<path fill="none" stroke="#000000" d="M320.282,-39.5184C298.843,-51.1438 269.9881,-66.7904 246.9986,-79.2566"/>
<polygon fill="none" stroke="#000000" points="245.3069,-76.1924 238.1845,-84.0361 248.6437,-82.346 245.3069,-76.1924"/>
</g>
<!-- MetricPrefix -->
<g id="node6" class="node">
<title>MetricPrefix</title>
<g id="a_node6"><a xlink:href="http://emmo.info/emmo/middle/metrology#EMMO_7d2afa66_ae9e_4095_a9bf_421d0be401b6" xlink:title="MetricPrefix">
<ellipse fill="#ffffcc" stroke="#000000" stroke-width="2" cx="499.7445" cy="-23" rx="55.7903" ry="18"/>
<text text-anchor="middle" x="499.7445" y="-19.3" font-family="Times,serif" font-size="14.00" fill="#000000">MetricPrefix</text>
</a>
</g>
</g>
<!-- MetrologicalSymbol -->
<g id="node9" class="node">
<title>MetrologicalSymbol</title>
<g id="a_node9"><a xlink:href="http://emmo.info/emmo/middle/metrology#EMMO_50a3552e_859a_4ff7_946d_76d537cabce6" xlink:title="MetrologicalSymbol">
<ellipse fill="#ffc880" stroke="#000000" cx="499.7445" cy="-100" rx="84.485" ry="18"/>
<text text-anchor="middle" x="499.7445" y="-96.3" font-family="Times,serif" font-size="14.00" fill="#000000">MetrologicalSymbol</text>
</a>
</g>
</g>
<!-- MetricPrefix&#45;&gt;MetrologicalSymbol -->
<g id="edge2" class="edge">
<title>MetricPrefix&#45;&gt;MetrologicalSymbol</title>
<path fill="none" stroke="#000000" d="M499.7445,-41.2479C499.7445,-50.3578 499.7445,-61.5826 499.7445,-71.7718"/>
<polygon fill="none" stroke="#000000" points="496.2446,-71.883 499.7445,-81.8831 503.2446,-71.8831 496.2446,-71.883"/>
</g>
<!-- PhysicsDimension -->
<g id="node8" class="node">
<title>PhysicsDimension</title>
<g id="a_node8"><a xlink:href="http://emmo.info/emmo/middle/metrology#EMMO_9895a1b4_f0a5_4167_ac5e_97db40b8bfcc" xlink:title="PhysicsDimension">
<ellipse fill="#ffffcc" stroke="#000000" stroke-width="2" cx="650.7445" cy="-23" rx="76.8869" ry="18"/>
<text text-anchor="middle" x="650.7445" y="-19.3" font-family="Times,serif" font-size="14.00" fill="#000000">PhysicsDimension</text>
</a>
</g>
</g>
<!-- PhysicsDimension&#45;&gt;MetrologicalSymbol -->
<g id="edge9" class="edge">
<title>PhysicsDimension&#45;&gt;MetrologicalSymbol</title>
<path fill="none" stroke="#000000" d="M618.3512,-39.5184C595.8368,-50.9993 565.6312,-66.4021 541.3374,-78.7904"/>
<polygon fill="none" stroke="#000000" points="539.663,-75.7154 532.3444,-83.3762 542.843,-81.9514 539.663,-75.7154"/>
</g>
<!-- MetrologicalSymbol&#45;&gt;Metrological -->
<g id="edge7" class="edge">
<title>MetrologicalSymbol&#45;&gt;Metrological</title>
<path fill="none" stroke="#000000" d="M464.6432,-116.5183C441.7449,-127.2939 411.7651,-141.4021 387.7677,-152.695"/>
<polygon fill="none" stroke="#000000" points="386.1159,-149.6041 378.558,-157.029 389.0965,-155.9378 386.1159,-149.6041"/>
</g>
<!-- key1 -->
<g id="node10" class="node">
<title>key1</title>
<text text-anchor="start" x="833.7445" y="-28.8" font-family="Times,serif" font-size="14.00" fill="#000000">isA</text>
<text text-anchor="start" x="755.7445" y="-9.8" font-family="Times,serif" font-size="14.00" fill="#000000">hasReferenceUnit</text>
</g>
<!-- key2 -->
<g id="node11" class="node">
<title>key2</title>
<text text-anchor="start" x="905.7445" y="-28.8" font-family="Times,serif" font-size="14.00" fill="#000000"> </text>
<text text-anchor="start" x="905.7445" y="-9.8" font-family="Times,serif" font-size="14.00" fill="#000000"> </text>
</g>
<!-- key1&#45;&gt;key2 -->
<g id="edge10" class="edge">
<title>key1:e&#45;&gt;key2:w</title>
<path fill="none" stroke="#006400" stroke-dasharray="5,2" d="M854.7445,-13C872.6091,-13 879.4828,-13 893.3975,-13"/>
<polygon fill="#006400" stroke="#006400" points="893.7446,-16.5001 903.7445,-13 893.7445,-9.5001 893.7446,-16.5001"/>
</g>
<!-- key1&#45;&gt;key2 -->
<g id="edge11" class="edge">
<title>key1:e&#45;&gt;key2:w</title>
<path fill="none" stroke="#000000" d="M854.7445,-33C872.6091,-33 879.4828,-33 893.3975,-33"/>
<polygon fill="none" stroke="#000000" points="893.7446,-36.5001 903.7445,-33 893.7445,-29.5001 893.7446,-36.5001"/>
</g>
</g>
</svg>
