<?xml version="1.0" encoding="UTF-8" standalone="no"?>
<!DOCTYPE svg PUBLIC "-//W3C//DTD SVG 1.1//EN"
 "http://www.w3.org/Graphics/SVG/1.1/DTD/svg11.dtd">
<!-- Generated by graphviz version 2.40.1 (20161225.0304)
 -->
<!-- Title: %3 Pages: 1 -->
<svg width="943pt" height="198pt"
 viewBox="0.00 0.00 942.90 198.00" xmlns="http://www.w3.org/2000/svg" xmlns:xlink="http://www.w3.org/1999/xlink">
<g id="graph0" class="graph" transform="scale(1 1) rotate(0) translate(4 194)">
<title>%3</title>
<polygon fill="#ffffff" stroke="transparent" points="-4,4 -4,-194 938.895,-194 938.895,4 -4,4"/>
<!-- MetricPrefix -->
<g id="node1" class="node">
<title>MetricPrefix</title>
<g id="a_node1"><a xlink:href="http://emmo.info/emmo/middle/metrology#EMMO_7d2afa66_ae9e_4095_a9bf_421d0be401b6" xlink:title="MetricPrefix">
<ellipse fill="#ffffcc" stroke="#000000" stroke-width="2" cx="55.895" cy="-23" rx="55.7903" ry="18"/>
<text text-anchor="middle" x="55.895" y="-19.3" font-family="Times,serif" font-size="14.00" fill="#000000">MetricPrefix</text>
</a>
</g>
</g>
<!-- MetrologicalSymbol -->
<g id="node4" class="node">
<title>MetrologicalSymbol</title>
<g id="a_node4"><a xlink:href="http://emmo.info/emmo/middle/metrology#EMMO_50a3552e_859a_4ff7_946d_76d537cabce6" xlink:title="MetrologicalSymbol">
<ellipse fill="#ffc880" stroke="#000000" cx="206.895" cy="-100" rx="84.485" ry="18"/>
<text text-anchor="middle" x="206.895" y="-96.3" font-family="Times,serif" font-size="14.00" fill="#000000">MetrologicalSymbol</text>
</a>
</g>
</g>
<!-- MetricPrefix&#45;&gt;MetrologicalSymbol -->
<g id="edge3" class="edge">
<title>MetricPrefix&#45;&gt;MetrologicalSymbol</title>
<path fill="none" stroke="#000000" d="M86.0892,-38.397C108.7783,-49.967 140.1299,-65.9542 165.2082,-78.7425"/>
<polygon fill="none" stroke="#000000" points="163.6375,-81.8703 174.1361,-83.2951 166.8175,-75.6343 163.6375,-81.8703"/>
</g>
<!-- Metrological -->
<g id="node2" class="node">
<title>Metrological</title>
<g id="a_node2"><a xlink:href="http://emmo.info/emmo/middle/metrology#EMMO_985bec21_989f_4b9e_a4b3_735d88099c3c" xlink:title="Metrological">
<ellipse fill="#ffffcc" stroke="#000000" stroke-width="2" cx="380.895" cy="-172" rx="56.59" ry="18"/>
<text text-anchor="middle" x="380.895" y="-168.3" font-family="Times,serif" font-size="14.00" fill="#000000">Metrological</text>
</a>
</g>
</g>
<!-- PhysicsDimension -->
<g id="node3" class="node">
<title>PhysicsDimension</title>
<g id="a_node3"><a xlink:href="http://emmo.info/emmo/middle/metrology#EMMO_9895a1b4_f0a5_4167_ac5e_97db40b8bfcc" xlink:title="PhysicsDimension">
<ellipse fill="#ffffcc" stroke="#000000" stroke-width="2" cx="206.895" cy="-23" rx="76.8869" ry="18"/>
<text text-anchor="middle" x="206.895" y="-19.3" font-family="Times,serif" font-size="14.00" fill="#000000">PhysicsDimension</text>
</a>
</g>
</g>
<!-- PhysicsDimension&#45;&gt;MetrologicalSymbol -->
<g id="edge4" class="edge">
<title>PhysicsDimension&#45;&gt;MetrologicalSymbol</title>
<path fill="none" stroke="#000000" d="M206.895,-41.2479C206.895,-50.3578 206.895,-61.5826 206.895,-71.7718"/>
<polygon fill="none" stroke="#000000" points="203.3951,-71.883 206.895,-81.8831 210.3951,-71.8831 203.3951,-71.883"/>
</g>
<!-- MetrologicalSymbol&#45;&gt;Metrological -->
<g id="edge7" class="edge">
<title>MetrologicalSymbol&#45;&gt;Metrological</title>
<path fill="none" stroke="#000000" d="M245.944,-116.1582C272.9225,-127.3217 308.8474,-142.1872 336.8479,-153.7736"/>
<polygon fill="none" stroke="#000000" points="335.8155,-157.1342 346.394,-157.7237 338.492,-150.6661 335.8155,-157.1342"/>
</g>
<!-- MeasurementUnit -->
<g id="node5" class="node">
<title>MeasurementUnit</title>
<g id="a_node5"><a xlink:href="http://emmo.info/emmo/middle/metrology#EMMO_b081b346_7279_46ef_9a3d_2c088fcd79f4" xlink:title="MeasurementUnit">
<ellipse fill="#ffffcc" stroke="#000000" stroke-width="2" cx="376.895" cy="-23" rx="75.2868" ry="18"/>
<text text-anchor="middle" x="376.895" y="-19.3" font-family="Times,serif" font-size="14.00" fill="#000000">MeasurementUnit</text>
</a>
</g>
</g>
<!-- ReferenceUnit -->
<g id="node8" class="node">
<title>ReferenceUnit</title>
<g id="a_node8"><a xlink:href="http://emmo.info/emmo/middle/metrology#EMMO_18ce5200_00f5_45bb_8c6f_6fb128cd41ae" xlink:title="ReferenceUnit">
<ellipse fill="#ffffcc" stroke="#000000" cx="516.895" cy="-100" rx="61.99" ry="18"/>
<text text-anchor="middle" x="516.895" y="-96.3" font-family="Times,serif" font-size="14.00" fill="#000000">ReferenceUnit</text>
</a>
</g>
</g>
<!-- MeasurementUnit&#45;&gt;ReferenceUnit -->
<g id="edge5" class="edge">
<title>MeasurementUnit&#45;&gt;ReferenceUnit</title>
<path fill="none" stroke="#000000" d="M406.9286,-39.5184C427.972,-51.0923 456.2624,-66.652 478.8786,-79.091"/>
<polygon fill="none" stroke="#000000" points="477.4208,-82.2836 487.8697,-84.0361 480.7943,-76.1501 477.4208,-82.2836"/>
</g>
<!-- ProcedureUnit -->
<g id="node6" class="node">
<title>ProcedureUnit</title>
<g id="a_node6"><a xlink:href="http://emmo.info/emmo/middle/metrology#EMMO_c9c8f824_9127_4f93_bc21_69fe78a7f6f2" xlink:title="ProcedureUnit">
<ellipse fill="#ffffcc" stroke="#000000" cx="531.895" cy="-23" rx="61.99" ry="18"/>
<text text-anchor="middle" x="531.895" y="-19.3" font-family="Times,serif" font-size="14.00" fill="#000000">ProcedureUnit</text>
</a>
</g>
</g>
<!-- ProcedureUnit&#45;&gt;ReferenceUnit -->
<g id="edge8" class="edge">
<title>ProcedureUnit&#45;&gt;ReferenceUnit</title>
<path fill="none" stroke="#000000" d="M528.3402,-41.2479C526.5656,-50.3578 524.3789,-61.5826 522.394,-71.7718"/>
<polygon fill="none" stroke="#000000" points="518.9011,-71.3983 520.4243,-81.8831 525.7719,-72.7368 518.9011,-71.3983"/>
</g>
<!-- Quantity -->
<g id="node7" class="node">
<title>Quantity</title>
<g id="a_node7"><a xlink:href="http://emmo.info/emmo/middle/metrology#EMMO_f658c301_ce93_46cf_9639_4eace2c5d1d5" xlink:title="Quantity">
<ellipse fill="#ffffcc" stroke="#000000" stroke-width="2" cx="380.895" cy="-100" rx="41.6928" ry="18"/>
<text text-anchor="middle" x="380.895" y="-96.3" font-family="Times,serif" font-size="14.00" fill="#000000">Quantity</text>
</a>
</g>
</g>
<!-- Quantity&#45;&gt;Metrological -->
<g id="edge1" class="edge">
<title>Quantity&#45;&gt;Metrological</title>
<path fill="none" stroke="#000000" d="M380.895,-118.1686C380.895,-125.869 380.895,-135.0257 380.895,-143.5834"/>
<polygon fill="none" stroke="#000000" points="377.3951,-143.5867 380.895,-153.5867 384.3951,-143.5868 377.3951,-143.5867"/>
</g>
<!-- Quantity&#45;&gt;ReferenceUnit -->
<g id="edge2" class="edge">
<title>Quantity&#45;&gt;ReferenceUnit</title>
<path fill="none" stroke="#006400" stroke-dasharray="5,2" d="M422.5982,-100C430.0265,-100 437.4548,-100 444.8832,-100"/>
<polygon fill="#006400" stroke="#006400" points="445.0128,-103.5001 455.0127,-100 445.0127,-96.5001 445.0128,-103.5001"/>
</g>
<!-- ReferenceUnit&#45;&gt;Metrological -->
<g id="edge9" class="edge">
<title>ReferenceUnit&#45;&gt;Metrological</title>
<path fill="none" stroke="#000000" d="M487.0493,-115.8007C467.0714,-126.3772 440.5974,-140.3929 419.0857,-151.7814"/>
<polygon fill="none" stroke="#000000" points="417.4039,-148.7115 410.2036,-156.4837 420.6791,-154.898 417.4039,-148.7115"/>
</g>
<!-- StandardUnit -->
<g id="node9" class="node">
<title>StandardUnit</title>
<g id="a_node9"><a xlink:href="http://emmo.info/emmo/middle/metrology#EMMO_acd1a504_ca32_4f30_86ad_0b62cea5bc02" xlink:title="StandardUnit">
<ellipse fill="#ffffcc" stroke="#000000" cx="669.895" cy="-23" rx="57.6901" ry="18"/>
<text text-anchor="middle" x="669.895" y="-19.3" font-family="Times,serif" font-size="14.00" fill="#000000">StandardUnit</text>
</a>
</g>
</g>
<!-- StandardUnit&#45;&gt;ReferenceUnit -->
<g id="edge6" class="edge">
<title>StandardUnit&#45;&gt;ReferenceUnit</title>
<path fill="none" stroke="#000000" d="M639.3009,-38.397C615.69,-50.2797 582.821,-66.8216 557.0879,-79.7722"/>
<polygon fill="none" stroke="#000000" points="555.3197,-76.7438 547.9606,-84.3657 558.4666,-82.9966 555.3197,-76.7438"/>
</g>
<!-- key1 -->
<g id="node10" class="node">
<title>key1</title>
<text text-anchor="start" x="833.895" y="-28.8" font-family="Times,serif" font-size="14.00" fill="#000000">isA</text>
<text text-anchor="start" x="755.895" y="-9.8" font-family="Times,serif" font-size="14.00" fill="#000000">hasReferenceUnit</text>
</g>
<!-- key2 -->
<g id="node11" class="node">
<title>key2</title>
<text text-anchor="start" x="905.895" y="-28.8" font-family="Times,serif" font-size="14.00" fill="#000000"> </text>
<text text-anchor="start" x="905.895" y="-9.8" font-family="Times,serif" font-size="14.00" fill="#000000"> </text>
</g>
<!-- key1&#45;&gt;key2 -->
<g id="edge10" class="edge">
<title>key1:e&#45;&gt;key2:w</title>
<path fill="none" stroke="#006400" stroke-dasharray="5,2" d="M854.895,-13C872.7596,-13 879.6333,-13 893.548,-13"/>
<polygon fill="#006400" stroke="#006400" points="893.8951,-16.5001 903.895,-13 893.895,-9.5001 893.8951,-16.5001"/>
</g>
<!-- key1&#45;&gt;key2 -->
<g id="edge11" class="edge">
<title>key1:e&#45;&gt;key2:w</title>
<path fill="none" stroke="#000000" d="M854.895,-33C872.7596,-33 879.6333,-33 893.548,-33"/>
<polygon fill="none" stroke="#000000" points="893.8951,-36.5001 903.895,-33 893.895,-29.5001 893.8951,-36.5001"/>
</g>
</g>
</svg>
