<?xml version="1.0" encoding="UTF-8" standalone="no"?>
<!DOCTYPE svg PUBLIC "-//W3C//DTD SVG 1.1//EN"
 "http://www.w3.org/Graphics/SVG/1.1/DTD/svg11.dtd">
<!-- Generated by graphviz version 2.40.1 (20161225.0304)
 -->
<!-- Title: %3 Pages: 1 -->
<svg width="783pt" height="218pt"
 viewBox="0.00 0.00 783.29 218.00" xmlns="http://www.w3.org/2000/svg" xmlns:xlink="http://www.w3.org/1999/xlink">
<g id="graph0" class="graph" transform="scale(1 1) rotate(0) translate(4 214)">
<title>%3</title>
<polygon fill="#ffffff" stroke="transparent" points="-4,4 -4,-214 779.2895,-214 779.2895,4 -4,4"/>
<!-- ProcedureUnit -->
<g id="node1" class="node">
<title>ProcedureUnit</title>
<g id="a_node1"><a xlink:href="http://emmo.info/emmo/middle/units#EMMO_c9c8f824_9127_4f93_bc21_69fe78a7f6f2" xlink:title="ProcedureUnit">
<ellipse fill="#ffffcc" stroke="#000000" cx="531.6932" cy="-18" rx="61.99" ry="18"/>
<text text-anchor="middle" x="531.6932" y="-14.3" font-family="Times,serif" font-size="14.00" fill="#000000">ProcedureUnit</text>
</a>
</g>
</g>
<!-- ReferenceUnit -->
<g id="node5" class="node">
<title>ReferenceUnit</title>
<g id="a_node5"><a xlink:href="http://emmo.info/emmo/middle/units#EMMO_18ce5200_00f5_45bb_8c6f_6fb128cd41ae" xlink:title="ReferenceUnit">
<ellipse fill="#ffffcc" stroke="#000000" cx="461.6932" cy="-105" rx="61.99" ry="18"/>
<text text-anchor="middle" x="461.6932" y="-101.3" font-family="Times,serif" font-size="14.00" fill="#000000">ReferenceUnit</text>
</a>
</g>
</g>
<!-- ProcedureUnit&#45;&gt;ReferenceUnit -->
<g id="edge8" class="edge">
<title>ProcedureUnit&#45;&gt;ReferenceUnit</title>
<path fill="none" stroke="#000000" d="M517.5277,-35.6057C507.3755,-48.2235 493.5462,-65.4113 482.191,-79.5241"/>
<polygon fill="none" stroke="#000000" points="479.3796,-77.4351 475.8377,-87.4204 484.8334,-81.8233 479.3796,-77.4351"/>
<text text-anchor="middle" x="510.1932" y="-57.8" font-family="Times,serif" font-size="14.00" fill="#000000">isA</text>
</g>
<!-- StandardUnit -->
<g id="node2" class="node">
<title>StandardUnit</title>
<g id="a_node2"><a xlink:href="http://emmo.info/emmo/middle/units#EMMO_acd1a504_ca32_4f30_86ad_0b62cea5bc02" xlink:title="StandardUnit">
<ellipse fill="#ffffcc" stroke="#000000" cx="669.6932" cy="-18" rx="57.6901" ry="18"/>
<text text-anchor="middle" x="669.6932" y="-14.3" font-family="Times,serif" font-size="14.00" fill="#000000">StandardUnit</text>
</a>
</g>
</g>
<!-- StandardUnit&#45;&gt;ReferenceUnit -->
<g id="edge9" class="edge">
<title>StandardUnit&#45;&gt;ReferenceUnit</title>
<path fill="none" stroke="#000000" d="M634.8787,-32.5618C599.6959,-47.2777 545.1802,-70.0799 506.7271,-86.1637"/>
<polygon fill="none" stroke="#000000" points="505.1934,-83.0113 497.3185,-90.099 507.8946,-89.4692 505.1934,-83.0113"/>
<text text-anchor="middle" x="587.1932" y="-57.8" font-family="Times,serif" font-size="14.00" fill="#000000">isA</text>
</g>
<!-- PhysicsDimension -->
<g id="node3" class="node">
<title>PhysicsDimension</title>
<g id="a_node3"><a xlink:href="http://emmo.info/emmo/middle/units#EMMO_9895a1b4_f0a5_4167_ac5e_97db40b8bfcc" xlink:title="PhysicsDimension">
<ellipse fill="#ffffcc" stroke="#000000" cx="76.6932" cy="-18" rx="76.8869" ry="18"/>
<text text-anchor="middle" x="76.6932" y="-14.3" font-family="Times,serif" font-size="14.00" fill="#000000">PhysicsDimension</text>
</a>
</g>
</g>
<!-- MetrologicalSymbol -->
<g id="node4" class="node">
<title>MetrologicalSymbol</title>
<g id="a_node4"><a xlink:href="http://emmo.info/emmo/middle/units#EMMO_50a3552e_859a_4ff7_946d_76d537cabce6" xlink:title="MetrologicalSymbol">
<ellipse fill="#ffc880" stroke="#000000" cx="227.6932" cy="-105" rx="84.485" ry="18"/>
<text text-anchor="middle" x="227.6932" y="-101.3" font-family="Times,serif" font-size="14.00" fill="#000000">MetrologicalSymbol</text>
</a>
</g>
</g>
<!-- PhysicsDimension&#45;&gt;MetrologicalSymbol -->
<g id="edge1" class="edge">
<title>PhysicsDimension&#45;&gt;MetrologicalSymbol</title>
<path fill="none" stroke="#000000" d="M105.8075,-34.7745C129.5728,-48.467 163.3492,-67.9276 189.3211,-82.8916"/>
<polygon fill="none" stroke="#000000" points="187.741,-86.0205 198.153,-87.9802 191.2356,-79.9552 187.741,-86.0205"/>
<text text-anchor="middle" x="171.1932" y="-57.8" font-family="Times,serif" font-size="14.00" fill="#000000">isA</text>
</g>
<!-- Metrological -->
<g id="node8" class="node">
<title>Metrological</title>
<g id="a_node8"><a xlink:href="http://emmo.info/emmo/middle/units#EMMO_985bec21_989f_4b9e_a4b3_735d88099c3c" xlink:title="Metrological">
<ellipse fill="#ffffcc" stroke="#000000" stroke-width="2" cx="461.6932" cy="-192" rx="56.59" ry="18"/>
<text text-anchor="middle" x="461.6932" y="-188.3" font-family="Times,serif" font-size="14.00" fill="#000000">Metrological</text>
</a>
</g>
</g>
<!-- MetrologicalSymbol&#45;&gt;Metrological -->
<g id="edge5" class="edge">
<title>MetrologicalSymbol&#45;&gt;Metrological</title>
<path fill="none" stroke="#000000" d="M269.798,-120.6543C310.6925,-135.8587 372.6468,-158.893 415.0254,-174.6492"/>
<polygon fill="none" stroke="#000000" points="413.9602,-177.9872 424.5531,-178.1915 416.3997,-171.426 413.9602,-177.9872"/>
<text text-anchor="middle" x="369.1932" y="-144.8" font-family="Times,serif" font-size="14.00" fill="#000000">isA</text>
</g>
<!-- ReferenceUnit&#45;&gt;Metrological -->
<g id="edge4" class="edge">
<title>ReferenceUnit&#45;&gt;Metrological</title>
<path fill="none" stroke="#000000" d="M461.6932,-123.0265C461.6932,-134.8082 461.6932,-150.4393 461.6932,-163.8419"/>
<polygon fill="none" stroke="#000000" points="458.1933,-163.9966 461.6932,-173.9966 465.1933,-163.9967 458.1933,-163.9966"/>
<text text-anchor="middle" x="471.1932" y="-144.8" font-family="Times,serif" font-size="14.00" fill="#000000">isA</text>
</g>
<!-- Quantity -->
<g id="node6" class="node">
<title>Quantity</title>
<g id="a_node6"><a xlink:href="http://emmo.info/emmo/middle/units#EMMO_f658c301_ce93_46cf_9639_4eace2c5d1d5" xlink:title="Quantity">
<ellipse fill="#ffffcc" stroke="#000000" stroke-width="2" cx="733.6932" cy="-105" rx="41.6928" ry="18"/>
<text text-anchor="middle" x="733.6932" y="-101.3" font-family="Times,serif" font-size="14.00" fill="#000000">Quantity</text>
</a>
</g>
</g>
<!-- Quantity&#45;&gt;ReferenceUnit -->
<g id="edge7" class="edge">
<title>Quantity&#45;&gt;ReferenceUnit</title>
<path fill="none" stroke="#006400" stroke-dasharray="5,2" d="M691.7661,-105C649.7707,-105 584.3133,-105 533.9386,-105"/>
<polygon fill="#006400" stroke="#006400" points="533.7546,-101.5001 523.7546,-105 533.7545,-108.5001 533.7546,-101.5001"/>
<text text-anchor="middle" x="607.7673" y="-90.8" font-family="Times,serif" font-size="14.00" fill="#000000">hasReferenceUnit exactly 1</text>
</g>
<!-- Quantity&#45;&gt;Metrological -->
<g id="edge6" class="edge">
<title>Quantity&#45;&gt;Metrological</title>
<path fill="none" stroke="#000000" d="M700.0678,-115.7552C652.8336,-130.8632 566.4938,-158.4792 511.7104,-176.0019"/>
<polygon fill="none" stroke="#000000" points="510.3232,-172.7708 501.8649,-179.151 512.4558,-179.438 510.3232,-172.7708"/>
<text text-anchor="middle" x="623.1932" y="-144.8" font-family="Times,serif" font-size="14.00" fill="#000000">isA</text>
</g>
<!-- MeasurementUnit -->
<g id="node7" class="node">
<title>MeasurementUnit</title>
<g id="a_node7"><a xlink:href="http://emmo.info/emmo/middle/units#EMMO_b081b346_7279_46ef_9a3d_2c088fcd79f4" xlink:title="MeasurementUnit">
<ellipse fill="#ffffcc" stroke="#000000" stroke-width="2" cx="376.6932" cy="-18" rx="75.2868" ry="18"/>
<text text-anchor="middle" x="376.6932" y="-14.3" font-family="Times,serif" font-size="14.00" fill="#000000">MeasurementUnit</text>
</a>
</g>
</g>
<!-- MeasurementUnit&#45;&gt;ReferenceUnit -->
<g id="edge2" class="edge">
<title>MeasurementUnit&#45;&gt;ReferenceUnit</title>
<path fill="none" stroke="#000000" d="M393.8942,-35.6057C406.3371,-48.3414 423.3288,-65.7329 437.1888,-79.919"/>
<polygon fill="none" stroke="#000000" points="435.0259,-82.7135 444.5178,-87.4204 440.0328,-77.8217 435.0259,-82.7135"/>
<text text-anchor="middle" x="433.1932" y="-57.8" font-family="Times,serif" font-size="14.00" fill="#000000">isA</text>
</g>
<!-- MetricPrefix -->
<g id="node9" class="node">
<title>MetricPrefix</title>
<g id="a_node9"><a xlink:href="http://emmo.info/emmo/middle/units#EMMO_7d2afa66_ae9e_4095_a9bf_421d0be401b6" xlink:title="MetricPrefix">
<ellipse fill="#ffffcc" stroke="#000000" stroke-width="2" cx="227.6932" cy="-18" rx="55.7903" ry="18"/>
<text text-anchor="middle" x="227.6932" y="-14.3" font-family="Times,serif" font-size="14.00" fill="#000000">MetricPrefix</text>
</a>
</g>
</g>
<!-- MetricPrefix&#45;&gt;MetrologicalSymbol -->
<g id="edge3" class="edge">
<title>MetricPrefix&#45;&gt;MetrologicalSymbol</title>
<path fill="none" stroke="#000000" d="M227.6932,-36.0265C227.6932,-47.8082 227.6932,-63.4393 227.6932,-76.8419"/>
<polygon fill="none" stroke="#000000" points="224.1933,-76.9966 227.6932,-86.9966 231.1933,-76.9967 224.1933,-76.9966"/>
<text text-anchor="middle" x="237.1932" y="-57.8" font-family="Times,serif" font-size="14.00" fill="#000000">isA</text>
</g>
</g>
</svg>
