<?xml version="1.0" encoding="UTF-8" standalone="no"?>
<!DOCTYPE svg PUBLIC "-//W3C//DTD SVG 1.1//EN"
 "http://www.w3.org/Graphics/SVG/1.1/DTD/svg11.dtd">
<!-- Generated by graphviz version 2.40.1 (20161225.0304)
 -->
<!-- Title: %3 Pages: 1 -->
<svg width="250pt" height="131pt"
 viewBox="0.00 0.00 250.30 131.00" xmlns="http://www.w3.org/2000/svg" xmlns:xlink="http://www.w3.org/1999/xlink">
<g id="graph0" class="graph" transform="scale(1 1) rotate(0) translate(4 127)">
<title>%3</title>
<polygon fill="#ffffff" stroke="transparent" points="-4,4 -4,-127 246.2964,-127 246.2964,4 -4,4"/>
<!-- Boolean -->
<g id="node1" class="node">
<title>Boolean</title>
<g id="a_node1"><a xlink:href="http://emmo.info/emmo/middle/math#EMMO_54dc83cb_06e1_4739_9e45_bc09cead7f48" xlink:title="Boolean">
<ellipse fill="#ffc880" stroke="#000000" cx="40.2964" cy="-18" rx="40.0939" ry="18"/>
<text text-anchor="middle" x="40.2964" y="-14.3" font-family="Times,serif" font-size="14.00" fill="#000000">Boolean</text>
</a>
</g>
</g>
<!-- Number -->
<g id="node2" class="node">
<title>Number</title>
<g id="a_node2"><a xlink:href="http://emmo.info/emmo/middle/math#EMMO_21f56795_ee72_4858_b571_11cfaa59c1a8" xlink:title="Number">
<ellipse fill="#ffffcc" stroke="#000000" stroke-width="2" cx="134.2964" cy="-105" rx="40.0939" ry="18"/>
<text text-anchor="middle" x="134.2964" y="-101.3" font-family="Times,serif" font-size="14.00" fill="#000000">Number</text>
</a>
</g>
</g>
<!-- Boolean&#45;&gt;Number -->
<g id="edge1" class="edge">
<title>Boolean&#45;&gt;Number</title>
<path fill="none" stroke="#000000" d="M57.9771,-34.364C72.4195,-47.7309 93.0116,-66.7896 109.167,-81.7419"/>
<polygon fill="none" stroke="#000000" points="106.9786,-84.4855 116.695,-88.7093 111.7333,-79.3481 106.9786,-84.4855"/>
<text text-anchor="middle" x="102.7964" y="-57.8" font-family="Times,serif" font-size="14.00" fill="#000000">isA</text>
</g>
<!-- Integer -->
<g id="node3" class="node">
<title>Integer</title>
<g id="a_node3"><a xlink:href="http://emmo.info/emmo/middle/math#EMMO_f8bd64d5_5d3e_4ad4_a46e_c30714fecb7f" xlink:title="Integer">
<ellipse fill="#ffc880" stroke="#000000" cx="134.2964" cy="-18" rx="35.9954" ry="18"/>
<text text-anchor="middle" x="134.2964" y="-14.3" font-family="Times,serif" font-size="14.00" fill="#000000">Integer</text>
</a>
</g>
</g>
<!-- Integer&#45;&gt;Number -->
<g id="edge3" class="edge">
<title>Integer&#45;&gt;Number</title>
<path fill="none" stroke="#000000" d="M134.2964,-36.0265C134.2964,-47.8082 134.2964,-63.4393 134.2964,-76.8419"/>
<polygon fill="none" stroke="#000000" points="130.7965,-76.9966 134.2964,-86.9966 137.7965,-76.9967 130.7965,-76.9966"/>
<text text-anchor="middle" x="143.7964" y="-57.8" font-family="Times,serif" font-size="14.00" fill="#000000">isA</text>
</g>
<!-- Real -->
<g id="node4" class="node">
<title>Real</title>
<g id="a_node4"><a xlink:href="http://emmo.info/emmo/middle/math#EMMO_18d180e4_5e3e_42f7_820c_e08951223486" xlink:title="Real">
<ellipse fill="#ffc880" stroke="#000000" cx="215.2964" cy="-18" rx="27" ry="18"/>
<text text-anchor="middle" x="215.2964" y="-14.3" font-family="Times,serif" font-size="14.00" fill="#000000">Real</text>
</a>
</g>
</g>
<!-- Real&#45;&gt;Number -->
<g id="edge2" class="edge">
<title>Real&#45;&gt;Number</title>
<path fill="none" stroke="#000000" d="M200.8152,-33.5539C188.6477,-46.6227 171.0466,-65.5276 157.0059,-80.6084"/>
<polygon fill="none" stroke="#000000" points="154.2882,-78.391 150.0356,-88.0949 159.4115,-83.1609 154.2882,-78.391"/>
<text text-anchor="middle" x="188.7964" y="-57.8" font-family="Times,serif" font-size="14.00" fill="#000000">isA</text>
</g>
</g>
</svg>
