<?xml version="1.0" encoding="UTF-8" standalone="no"?>
<!DOCTYPE svg PUBLIC "-//W3C//DTD SVG 1.1//EN"
 "http://www.w3.org/Graphics/SVG/1.1/DTD/svg11.dtd">
<!-- Generated by graphviz version 2.40.1 (20161225.0304)
 -->
<!-- Title: %3 Pages: 1 -->
<svg width="394pt" height="116pt"
 viewBox="0.00 0.00 393.75 116.00" xmlns="http://www.w3.org/2000/svg" xmlns:xlink="http://www.w3.org/1999/xlink">
<g id="graph0" class="graph" transform="scale(1 1) rotate(0) translate(4 112)">
<title>%3</title>
<polygon fill="#ffffff" stroke="transparent" points="-4,4 -4,-112 389.7468,-112 389.7468,4 -4,4"/>
<!-- Integer -->
<g id="node1" class="node">
<title>Integer</title>
<g id="a_node1"><a xlink:href="http://emmo.info/emmo/middle/math#EMMO_f8bd64d5_5d3e_4ad4_a46e_c30714fecb7f" xlink:title="Integer">
<ellipse fill="#ffc880" stroke="#000000" cx="35.7468" cy="-18" rx="35.9954" ry="18"/>
<text text-anchor="middle" x="35.7468" y="-14.3" font-family="Times,serif" font-size="14.00" fill="#000000">Integer</text>
</a>
</g>
</g>
<!-- Number -->
<g id="node2" class="node">
<title>Number</title>
<g id="a_node2"><a xlink:href="http://emmo.info/emmo/middle/math#EMMO_21f56795_ee72_4858_b571_11cfaa59c1a8" xlink:title="Number">
<ellipse fill="#ffffcc" stroke="#000000" stroke-width="2" cx="116.7468" cy="-90" rx="40.0939" ry="18"/>
<text text-anchor="middle" x="116.7468" y="-86.3" font-family="Times,serif" font-size="14.00" fill="#000000">Number</text>
</a>
</g>
</g>
<!-- Integer&#45;&gt;Number -->
<g id="edge3" class="edge">
<title>Integer&#45;&gt;Number</title>
<path fill="none" stroke="#000000" d="M53.7234,-33.9791C64.658,-43.6988 78.8045,-56.2735 90.9235,-67.0459"/>
<polygon fill="none" stroke="#000000" points="88.7411,-69.7888 98.5405,-73.8166 93.3916,-64.5569 88.7411,-69.7888"/>
</g>
<!-- Real -->
<g id="node3" class="node">
<title>Real</title>
<g id="a_node3"><a xlink:href="http://emmo.info/emmo/middle/math#EMMO_18d180e4_5e3e_42f7_820c_e08951223486" xlink:title="Real">
<ellipse fill="#ffc880" stroke="#000000" cx="116.7468" cy="-18" rx="27" ry="18"/>
<text text-anchor="middle" x="116.7468" y="-14.3" font-family="Times,serif" font-size="14.00" fill="#000000">Real</text>
</a>
</g>
</g>
<!-- Real&#45;&gt;Number -->
<g id="edge2" class="edge">
<title>Real&#45;&gt;Number</title>
<path fill="none" stroke="#000000" d="M116.7468,-36.1686C116.7468,-43.869 116.7468,-53.0257 116.7468,-61.5834"/>
<polygon fill="none" stroke="#000000" points="113.2469,-61.5867 116.7468,-71.5867 120.2469,-61.5868 113.2469,-61.5867"/>
</g>
<!-- Boolean -->
<g id="node4" class="node">
<title>Boolean</title>
<g id="a_node4"><a xlink:href="http://emmo.info/emmo/middle/math#EMMO_54dc83cb_06e1_4739_9e45_bc09cead7f48" xlink:title="Boolean">
<ellipse fill="#ffc880" stroke="#000000" cx="201.7468" cy="-18" rx="40.0939" ry="18"/>
<text text-anchor="middle" x="201.7468" y="-14.3" font-family="Times,serif" font-size="14.00" fill="#000000">Boolean</text>
</a>
</g>
</g>
<!-- Boolean&#45;&gt;Number -->
<g id="edge1" class="edge">
<title>Boolean&#45;&gt;Number</title>
<path fill="none" stroke="#000000" d="M182.8826,-33.9791C171.2176,-43.86 156.0695,-56.6914 143.2145,-67.5803"/>
<polygon fill="none" stroke="#000000" points="140.9266,-64.9314 135.5584,-74.0655 145.451,-70.2727 140.9266,-64.9314"/>
</g>
<!-- key1 -->
<g id="node5" class="node">
<title>key1</title>
<text text-anchor="start" x="277.7468" y="-13.8" font-family="Times,serif" font-size="14.00" fill="#000000">isA</text>
</g>
<!-- key2 -->
<g id="node6" class="node">
<title>key2</title>
<text text-anchor="start" x="356.7468" y="-13.8" font-family="Times,serif" font-size="14.00" fill="#000000"> </text>
</g>
<!-- key1&#45;&gt;key2 -->
<g id="edge4" class="edge">
<title>key1:e&#45;&gt;key2:w</title>
<path fill="none" stroke="#000000" d="M298.7468,-19C319.7468,-19 327.4578,-19 344.3049,-19"/>
<polygon fill="none" stroke="#000000" points="344.7469,-22.5001 354.7468,-19 344.7468,-15.5001 344.7469,-22.5001"/>
</g>
</g>
</svg>
