<?xml version="1.0" encoding="UTF-8" standalone="no"?>
<!DOCTYPE svg PUBLIC "-//W3C//DTD SVG 1.1//EN"
 "http://www.w3.org/Graphics/SVG/1.1/DTD/svg11.dtd">
<!-- Generated by graphviz version 2.40.1 (20161225.0304)
 -->
<!-- Title: %3 Pages: 1 -->
<svg width="1331pt" height="131pt"
 viewBox="0.00 0.00 1330.69 131.00" xmlns="http://www.w3.org/2000/svg" xmlns:xlink="http://www.w3.org/1999/xlink">
<g id="graph0" class="graph" transform="scale(1 1) rotate(0) translate(4 127)">
<title>%3</title>
<polygon fill="#ffffff" stroke="transparent" points="-4,4 -4,-127 1326.6909,-127 1326.6909,4 -4,4"/>
<!-- LengthUnit -->
<g id="node1" class="node">
<title>LengthUnit</title>
<g id="a_node1"><a xlink:href="http://emmo.info/emmo/middle/isq#EMMO_0fa49646_0fe0_4253_999c_bb834019844f" xlink:title="LengthUnit">
<ellipse fill="#ffc880" stroke="#000000" cx="51.3454" cy="-18" rx="51.1914" ry="18"/>
<text text-anchor="middle" x="51.3454" y="-14.3" font-family="Times,serif" font-size="14.00" fill="#000000">LengthUnit</text>
</a>
</g>
</g>
<!-- Object -->
<g id="node7" class="node">
<title>Object</title>
<g id="a_node7"><a xlink:href="http://emmo.info/emmo/top/semiotics#EMMO_6f5af708_f825_4feb_a0d1_a8d813d3022b" xlink:title="Object">
<ellipse fill="#ffffcc" stroke="#000000" stroke-width="2" cx="718.3454" cy="-105" rx="34.394" ry="18"/>
<text text-anchor="middle" x="718.3454" y="-101.3" font-family="Times,serif" font-size="14.00" fill="#000000">Object</text>
</a>
</g>
</g>
<!-- LengthUnit&#45;&gt;Object -->
<g id="edge2" class="edge">
<title>LengthUnit&#45;&gt;Object</title>
<path fill="none" stroke="#000000" d="M88.8517,-30.3682C96.2474,-32.4894 103.9945,-34.4921 111.3454,-36 319.0618,-78.6086 572.5482,-96.7489 673.6312,-102.6516"/>
<polygon fill="none" stroke="#000000" points="673.5978,-106.1553 683.7816,-103.2328 673.9981,-99.1667 673.5978,-106.1553"/>
<text text-anchor="middle" x="319.8454" y="-57.8" font-family="Times,serif" font-size="14.00" fill="#000000">isA</text>
</g>
<!-- AmountOfSubstanceUnit -->
<g id="node2" class="node">
<title>AmountOfSubstanceUnit</title>
<g id="a_node2"><a xlink:href="http://emmo.info/emmo/middle/isq#EMMO_32fb2db4_94f4_49b8_a374_ee5aa28a113e" xlink:title="AmountOfSubstanceUnit">
<ellipse fill="#ffc880" stroke="#000000" cx="221.3454" cy="-18" rx="100.9827" ry="18"/>
<text text-anchor="middle" x="221.3454" y="-14.3" font-family="Times,serif" font-size="14.00" fill="#000000">AmountOfSubstanceUnit</text>
</a>
</g>
</g>
<!-- AmountOfSubstanceUnit&#45;&gt;Object -->
<g id="edge6" class="edge">
<title>AmountOfSubstanceUnit&#45;&gt;Object</title>
<path fill="none" stroke="#000000" d="M293.3479,-30.6041C398.3262,-48.9805 590.1584,-82.5608 675.4718,-97.495"/>
<polygon fill="none" stroke="#000000" points="675.1232,-100.9871 685.5769,-99.2639 676.3302,-94.0919 675.1232,-100.9871"/>
<text text-anchor="middle" x="509.8454" y="-57.8" font-family="Times,serif" font-size="14.00" fill="#000000">isA</text>
</g>
<!-- ThermodynamicTemperatureUnit -->
<g id="node3" class="node">
<title>ThermodynamicTemperatureUnit</title>
<g id="a_node3"><a xlink:href="http://emmo.info/emmo/middle/isq#EMMO_f460af7c_9134_4b2f_8450_d54918a08f34" xlink:title="ThermodynamicTemperatureUnit">
<ellipse fill="#ffc880" stroke="#000000" cx="470.3454" cy="-18" rx="130.777" ry="18"/>
<text text-anchor="middle" x="470.3454" y="-14.3" font-family="Times,serif" font-size="14.00" fill="#000000">ThermodynamicTemperatureUnit</text>
</a>
</g>
</g>
<!-- ThermodynamicTemperatureUnit&#45;&gt;Object -->
<g id="edge8" class="edge">
<title>ThermodynamicTemperatureUnit&#45;&gt;Object</title>
<path fill="none" stroke="#000000" d="M518.1623,-34.7745C565.3025,-51.3115 636.4258,-76.2621 679.986,-91.5433"/>
<polygon fill="none" stroke="#000000" points="679.0444,-94.922 689.6392,-94.9297 681.3617,-88.3167 679.0444,-94.922"/>
<text text-anchor="middle" x="618.8454" y="-57.8" font-family="Times,serif" font-size="14.00" fill="#000000">isA</text>
</g>
<!-- MassUnit -->
<g id="node4" class="node">
<title>MassUnit</title>
<g id="a_node4"><a xlink:href="http://emmo.info/emmo/middle/isq#EMMO_8d9caab6_452d_420a_9d21_11baae773bf9" xlink:title="MassUnit">
<ellipse fill="#ffc880" stroke="#000000" cx="664.3454" cy="-18" rx="45.4919" ry="18"/>
<text text-anchor="middle" x="664.3454" y="-14.3" font-family="Times,serif" font-size="14.00" fill="#000000">MassUnit</text>
</a>
</g>
</g>
<!-- MassUnit&#45;&gt;Object -->
<g id="edge4" class="edge">
<title>MassUnit&#45;&gt;Object</title>
<path fill="none" stroke="#000000" d="M675.2731,-35.6057C683.009,-48.0691 693.5125,-64.9913 702.2104,-79.0047"/>
<polygon fill="none" stroke="#000000" points="699.3709,-81.0667 707.6183,-87.7173 705.3183,-77.3751 699.3709,-81.0667"/>
<text text-anchor="middle" x="704.8454" y="-57.8" font-family="Times,serif" font-size="14.00" fill="#000000">isA</text>
</g>
<!-- TimeUnit -->
<g id="node5" class="node">
<title>TimeUnit</title>
<g id="a_node5"><a xlink:href="http://emmo.info/emmo/middle/isq#EMMO_d69cb991_73c2_4381_bb92_982d702f624e" xlink:title="TimeUnit">
<ellipse fill="#ffc880" stroke="#000000" cx="773.3454" cy="-18" rx="45.4919" ry="18"/>
<text text-anchor="middle" x="773.3454" y="-14.3" font-family="Times,serif" font-size="14.00" fill="#000000">TimeUnit</text>
</a>
</g>
</g>
<!-- TimeUnit&#45;&gt;Object -->
<g id="edge1" class="edge">
<title>TimeUnit&#45;&gt;Object</title>
<path fill="none" stroke="#000000" d="M762.2154,-35.6057C754.3362,-48.0691 743.6383,-64.9913 734.7792,-79.0047"/>
<polygon fill="none" stroke="#000000" points="731.6565,-77.3945 729.2713,-87.7173 737.5733,-81.135 731.6565,-77.3945"/>
<text text-anchor="middle" x="758.8454" y="-57.8" font-family="Times,serif" font-size="14.00" fill="#000000">isA</text>
</g>
<!-- LuminousIntensityUnit -->
<g id="node6" class="node">
<title>LuminousIntensityUnit</title>
<g id="a_node6"><a xlink:href="http://emmo.info/emmo/middle/isq#EMMO_b120c538_6320_470c_b9bd_c8d088694973" xlink:title="LuminousIntensityUnit">
<ellipse fill="#ffc880" stroke="#000000" cx="929.3454" cy="-18" rx="92.8835" ry="18"/>
<text text-anchor="middle" x="929.3454" y="-14.3" font-family="Times,serif" font-size="14.00" fill="#000000">LuminousIntensityUnit</text>
</a>
</g>
</g>
<!-- LuminousIntensityUnit&#45;&gt;Object -->
<g id="edge3" class="edge">
<title>LuminousIntensityUnit&#45;&gt;Object</title>
<path fill="none" stroke="#000000" d="M889.658,-34.364C850.9743,-50.3141 792.6356,-74.3685 755.0161,-89.8799"/>
<polygon fill="none" stroke="#000000" points="753.3668,-86.774 745.456,-93.8217 756.0352,-93.2455 753.3668,-86.774"/>
<text text-anchor="middle" x="846.8454" y="-57.8" font-family="Times,serif" font-size="14.00" fill="#000000">isA</text>
</g>
<!-- ElectricCurrentUnit -->
<g id="node8" class="node">
<title>ElectricCurrentUnit</title>
<g id="a_node8"><a xlink:href="http://emmo.info/emmo/middle/isq#EMMO_24e3e31f_f233_4685_a19c_6f3ce0a3c477" xlink:title="ElectricCurrentUnit">
<ellipse fill="#ffc880" stroke="#000000" cx="1121.3454" cy="-18" rx="80.6858" ry="18"/>
<text text-anchor="middle" x="1121.3454" y="-14.3" font-family="Times,serif" font-size="14.00" fill="#000000">ElectricCurrentUnit</text>
</a>
</g>
</g>
<!-- ElectricCurrentUnit&#45;&gt;Object -->
<g id="edge5" class="edge">
<title>ElectricCurrentUnit&#45;&gt;Object</title>
<path fill="none" stroke="#000000" d="M1063.1762,-30.5576C981.0082,-48.2961 832.9116,-80.2674 760.507,-95.8981"/>
<polygon fill="none" stroke="#000000" points="759.4267,-92.5506 750.3905,-98.0821 760.9039,-99.393 759.4267,-92.5506"/>
<text text-anchor="middle" x="953.8454" y="-57.8" font-family="Times,serif" font-size="14.00" fill="#000000">isA</text>
</g>
<!-- SIBaseUnit -->
<g id="node9" class="node">
<title>SIBaseUnit</title>
<g id="a_node9"><a xlink:href="http://emmo.info/emmo/middle/siunits#EMMO_3a185e6c_9e19_4776_b583_19c978156aa0" xlink:title="SIBaseUnit">
<ellipse fill="#ffffcc" stroke="#000000" stroke-width="2" cx="1271.3454" cy="-18" rx="51.1914" ry="18"/>
<text text-anchor="middle" x="1271.3454" y="-14.3" font-family="Times,serif" font-size="14.00" fill="#000000">SIBaseUnit</text>
</a>
</g>
</g>
<!-- SIBaseUnit&#45;&gt;Object -->
<g id="edge7" class="edge">
<title>SIBaseUnit&#45;&gt;Object</title>
<path fill="none" stroke="#000000" d="M1233.4854,-30.309C1226.1899,-32.4099 1218.57,-34.4204 1211.3454,-36 1047.6618,-71.7884 849.1557,-92.9435 762.4428,-101.104"/>
<polygon fill="none" stroke="#000000" points="762.065,-97.624 752.4321,-102.0349 762.7132,-104.5939 762.065,-97.624"/>
<text text-anchor="middle" x="1126.8454" y="-57.8" font-family="Times,serif" font-size="14.00" fill="#000000">isA</text>
</g>
</g>
</svg>
