<?xml version="1.0" encoding="UTF-8" standalone="no"?>
<!DOCTYPE svg PUBLIC "-//W3C//DTD SVG 1.1//EN"
 "http://www.w3.org/Graphics/SVG/1.1/DTD/svg11.dtd">
<!-- Generated by graphviz version 2.40.1 (20161225.0304)
 -->
<!-- Title: %3 Pages: 1 -->
<svg width="426pt" height="188pt"
 viewBox="0.00 0.00 426.50 188.00" xmlns="http://www.w3.org/2000/svg" xmlns:xlink="http://www.w3.org/1999/xlink">
<g id="graph0" class="graph" transform="scale(1 1) rotate(0) translate(4 184)">
<title>%3</title>
<polygon fill="#ffffff" stroke="transparent" points="-4,4 -4,-184 422.496,-184 422.496,4 -4,4"/>
<!-- Acoustical -->
<g id="node1" class="node">
<title>Acoustical</title>
<g id="a_node1"><a xlink:href="http://emmo.info/emmo/middle/perceptual#EMMO_4b3afb22_27cf_4ce3_88bc_492bfccb546b" xlink:title="Acoustical">
<ellipse fill="#ffffcc" stroke="#000000" cx="157.496" cy="-90" rx="48.1917" ry="18"/>
<text text-anchor="middle" x="157.496" y="-86.3" font-family="Times,serif" font-size="14.00" fill="#000000">Acoustical</text>
</a>
</g>
</g>
<!-- Perceptual -->
<g id="node5" class="node">
<title>Perceptual</title>
<g id="a_node5"><a xlink:href="http://emmo.info/emmo/middle/perceptual#EMMO_649bf97b_4397_4005_90d9_219755d92e34" xlink:title="Perceptual">
<ellipse fill="#ffffcc" stroke="#000000" stroke-width="2" cx="101.496" cy="-162" rx="48.1917" ry="18"/>
<text text-anchor="middle" x="101.496" y="-158.3" font-family="Times,serif" font-size="14.00" fill="#000000">Perceptual</text>
</a>
</g>
</g>
<!-- Acoustical&#45;&gt;Perceptual -->
<g id="edge4" class="edge">
<title>Acoustical&#45;&gt;Perceptual</title>
<path fill="none" stroke="#000000" d="M143.9399,-107.4292C137.1802,-116.1203 128.8738,-126.7999 121.407,-136.4002"/>
<polygon fill="none" stroke="#000000" points="118.498,-134.4394 115.1213,-144.4818 124.0234,-138.737 118.498,-134.4394"/>
</g>
<!-- Music -->
<g id="node2" class="node">
<title>Music</title>
<g id="a_node2"><a xlink:href="http://emmo.info/emmo/middle/perceptual#EMMO_0d69f94a_f4fa_49d9_bf90_ace770eeab02" xlink:title="Music">
<ellipse fill="#ffffcc" stroke="#000000" cx="69.496" cy="-18" rx="33.2948" ry="18"/>
<text text-anchor="middle" x="69.496" y="-14.3" font-family="Times,serif" font-size="14.00" fill="#000000">Music</text>
</a>
</g>
</g>
<!-- Music&#45;&gt;Acoustical -->
<g id="edge5" class="edge">
<title>Music&#45;&gt;Acoustical</title>
<path fill="none" stroke="#000000" d="M88.1585,-33.2693C100.1078,-43.0461 115.8392,-55.9172 129.2966,-66.9278"/>
<polygon fill="none" stroke="#000000" points="127.3717,-69.8751 137.3277,-73.4987 131.8044,-64.4574 127.3717,-69.8751"/>
</g>
<!-- Graphical -->
<g id="node3" class="node">
<title>Graphical</title>
<g id="a_node3"><a xlink:href="http://emmo.info/emmo/middle/perceptual#EMMO_c74da218_9147_4f03_92d1_8894abca55f3" xlink:title="Graphical">
<ellipse fill="#ffffcc" stroke="#000000" stroke-width="2" cx="45.496" cy="-90" rx="45.4919" ry="18"/>
<text text-anchor="middle" x="45.496" y="-86.3" font-family="Times,serif" font-size="14.00" fill="#000000">Graphical</text>
</a>
</g>
</g>
<!-- Graphical&#45;&gt;Perceptual -->
<g id="edge2" class="edge">
<title>Graphical&#45;&gt;Perceptual</title>
<path fill="none" stroke="#000000" d="M59.052,-107.4292C65.8117,-116.1203 74.1181,-126.7999 81.585,-136.4002"/>
<polygon fill="none" stroke="#000000" points="78.9685,-138.737 87.8707,-144.4818 84.494,-134.4394 78.9685,-138.737"/>
</g>
<!-- Speech -->
<g id="node4" class="node">
<title>Speech</title>
<g id="a_node4"><a xlink:href="http://emmo.info/emmo/middle/perceptual#EMMO_660ef3b0_6692_4c51_8f69_763c7817b2e1" xlink:title="Speech">
<ellipse fill="#ffffcc" stroke="#000000" cx="157.496" cy="-18" rx="36.2938" ry="18"/>
<text text-anchor="middle" x="157.496" y="-14.3" font-family="Times,serif" font-size="14.00" fill="#000000">Speech</text>
</a>
</g>
</g>
<!-- Speech&#45;&gt;Acoustical -->
<g id="edge3" class="edge">
<title>Speech&#45;&gt;Acoustical</title>
<path fill="none" stroke="#000000" d="M157.496,-36.1686C157.496,-43.869 157.496,-53.0257 157.496,-61.5834"/>
<polygon fill="none" stroke="#000000" points="153.9961,-61.5867 157.496,-71.5867 160.9961,-61.5868 153.9961,-61.5867"/>
</g>
<!-- Noise -->
<g id="node6" class="node">
<title>Noise</title>
<g id="a_node6"><a xlink:href="http://emmo.info/emmo/middle/perceptual#EMMO_91756568_8655_4060_8937_a1a906dad8c1" xlink:title="Noise">
<ellipse fill="#ffffcc" stroke="#000000" cx="243.496" cy="-18" rx="31.3957" ry="18"/>
<text text-anchor="middle" x="243.496" y="-14.3" font-family="Times,serif" font-size="14.00" fill="#000000">Noise</text>
</a>
</g>
</g>
<!-- Noise&#45;&gt;Acoustical -->
<g id="edge1" class="edge">
<title>Noise&#45;&gt;Acoustical</title>
<path fill="none" stroke="#000000" d="M225.6767,-32.9184C214.0242,-42.674 198.5626,-55.6186 185.3094,-66.7143"/>
<polygon fill="none" stroke="#000000" points="182.8174,-64.2359 177.3966,-73.339 187.311,-69.6033 182.8174,-64.2359"/>
</g>
<!-- key1 -->
<g id="node7" class="node">
<title>key1</title>
<text text-anchor="start" x="310.496" y="-13.8" font-family="Times,serif" font-size="14.00" fill="#000000">isA</text>
</g>
<!-- key2 -->
<g id="node8" class="node">
<title>key2</title>
<text text-anchor="start" x="389.496" y="-13.8" font-family="Times,serif" font-size="14.00" fill="#000000"> </text>
</g>
<!-- key1&#45;&gt;key2 -->
<g id="edge6" class="edge">
<title>key1:e&#45;&gt;key2:w</title>
<path fill="none" stroke="#000000" d="M331.496,-19C352.496,-19 360.2069,-19 377.0541,-19"/>
<polygon fill="none" stroke="#000000" points="377.496,-22.5001 387.496,-19 377.4959,-15.5001 377.496,-22.5001"/>
</g>
</g>
</svg>
