<?xml version="1.0" encoding="UTF-8" standalone="no"?>
<!DOCTYPE svg PUBLIC "-//W3C//DTD SVG 1.1//EN"
 "http://www.w3.org/Graphics/SVG/1.1/DTD/svg11.dtd">
<!-- Generated by graphviz version 2.40.1 (20161225.0304)
 -->
<!-- Title: %3 Pages: 1 -->
<svg width="390pt" height="188pt"
 viewBox="0.00 0.00 390.15 188.00" xmlns="http://www.w3.org/2000/svg" xmlns:xlink="http://www.w3.org/1999/xlink">
<g id="graph0" class="graph" transform="scale(1 1) rotate(0) translate(4 184)">
<title>%3</title>
<polygon fill="#ffffff" stroke="transparent" points="-4,4 -4,-184 386.1471,-184 386.1471,4 -4,4"/>
<!-- Music -->
<g id="node1" class="node">
<title>Music</title>
<g id="a_node1"><a xlink:href="http://emmo.info/emmo/middle/perceptual#EMMO_0d69f94a_f4fa_49d9_bf90_ace770eeab02" xlink:title="Music">
<ellipse fill="#ffffcc" stroke="#000000" cx="33.1471" cy="-18" rx="33.2948" ry="18"/>
<text text-anchor="middle" x="33.1471" y="-14.3" font-family="Times,serif" font-size="14.00" fill="#000000">Music</text>
</a>
</g>
</g>
<!-- Acoustical -->
<g id="node6" class="node">
<title>Acoustical</title>
<g id="a_node6"><a xlink:href="http://emmo.info/emmo/middle/perceptual#EMMO_4b3afb22_27cf_4ce3_88bc_492bfccb546b" xlink:title="Acoustical">
<ellipse fill="#ffffcc" stroke="#000000" cx="121.1471" cy="-90" rx="48.1917" ry="18"/>
<text text-anchor="middle" x="121.1471" y="-86.3" font-family="Times,serif" font-size="14.00" fill="#000000">Acoustical</text>
</a>
</g>
</g>
<!-- Music&#45;&gt;Acoustical -->
<g id="edge5" class="edge">
<title>Music&#45;&gt;Acoustical</title>
<path fill="none" stroke="#000000" d="M51.8096,-33.2693C63.7589,-43.0461 79.4903,-55.9172 92.9477,-66.9278"/>
<polygon fill="none" stroke="#000000" points="91.0228,-69.8751 100.9788,-73.4987 95.4555,-64.4574 91.0228,-69.8751"/>
</g>
<!-- Speech -->
<g id="node2" class="node">
<title>Speech</title>
<g id="a_node2"><a xlink:href="http://emmo.info/emmo/middle/perceptual#EMMO_660ef3b0_6692_4c51_8f69_763c7817b2e1" xlink:title="Speech">
<ellipse fill="#ffffcc" stroke="#000000" cx="121.1471" cy="-18" rx="36.2938" ry="18"/>
<text text-anchor="middle" x="121.1471" y="-14.3" font-family="Times,serif" font-size="14.00" fill="#000000">Speech</text>
</a>
</g>
</g>
<!-- Speech&#45;&gt;Acoustical -->
<g id="edge2" class="edge">
<title>Speech&#45;&gt;Acoustical</title>
<path fill="none" stroke="#000000" d="M121.1471,-36.1686C121.1471,-43.869 121.1471,-53.0257 121.1471,-61.5834"/>
<polygon fill="none" stroke="#000000" points="117.6472,-61.5867 121.1471,-71.5867 124.6472,-61.5868 117.6472,-61.5867"/>
</g>
<!-- Graphical -->
<g id="node3" class="node">
<title>Graphical</title>
<g id="a_node3"><a xlink:href="http://emmo.info/emmo/middle/perceptual#EMMO_c74da218_9147_4f03_92d1_8894abca55f3" xlink:title="Graphical">
<ellipse fill="#ffffcc" stroke="#000000" stroke-width="2" cx="233.1471" cy="-90" rx="45.4919" ry="18"/>
<text text-anchor="middle" x="233.1471" y="-86.3" font-family="Times,serif" font-size="14.00" fill="#000000">Graphical</text>
</a>
</g>
</g>
<!-- Perceptual -->
<g id="node4" class="node">
<title>Perceptual</title>
<g id="a_node4"><a xlink:href="http://emmo.info/emmo/middle/perceptual#EMMO_649bf97b_4397_4005_90d9_219755d92e34" xlink:title="Perceptual">
<ellipse fill="#ffffcc" stroke="#000000" stroke-width="2" cx="177.1471" cy="-162" rx="48.1917" ry="18"/>
<text text-anchor="middle" x="177.1471" y="-158.3" font-family="Times,serif" font-size="14.00" fill="#000000">Perceptual</text>
</a>
</g>
</g>
<!-- Graphical&#45;&gt;Perceptual -->
<g id="edge4" class="edge">
<title>Graphical&#45;&gt;Perceptual</title>
<path fill="none" stroke="#000000" d="M219.591,-107.4292C212.8313,-116.1203 204.5249,-126.7999 197.058,-136.4002"/>
<polygon fill="none" stroke="#000000" points="194.1491,-134.4394 190.7724,-144.4818 199.6745,-138.737 194.1491,-134.4394"/>
</g>
<!-- Noise -->
<g id="node5" class="node">
<title>Noise</title>
<g id="a_node5"><a xlink:href="http://emmo.info/emmo/middle/perceptual#EMMO_91756568_8655_4060_8937_a1a906dad8c1" xlink:title="Noise">
<ellipse fill="#ffffcc" stroke="#000000" cx="207.1471" cy="-18" rx="31.3957" ry="18"/>
<text text-anchor="middle" x="207.1471" y="-14.3" font-family="Times,serif" font-size="14.00" fill="#000000">Noise</text>
</a>
</g>
</g>
<!-- Noise&#45;&gt;Acoustical -->
<g id="edge3" class="edge">
<title>Noise&#45;&gt;Acoustical</title>
<path fill="none" stroke="#000000" d="M189.3278,-32.9184C177.6753,-42.674 162.2137,-55.6186 148.9605,-66.7143"/>
<polygon fill="none" stroke="#000000" points="146.4685,-64.2359 141.0477,-73.339 150.9621,-69.6033 146.4685,-64.2359"/>
</g>
<!-- Acoustical&#45;&gt;Perceptual -->
<g id="edge1" class="edge">
<title>Acoustical&#45;&gt;Perceptual</title>
<path fill="none" stroke="#000000" d="M134.7031,-107.4292C141.4628,-116.1203 149.7692,-126.7999 157.2361,-136.4002"/>
<polygon fill="none" stroke="#000000" points="154.6196,-138.737 163.5218,-144.4818 160.1451,-134.4394 154.6196,-138.737"/>
</g>
<!-- key1 -->
<g id="node7" class="node">
<title>key1</title>
<text text-anchor="start" x="274.1471" y="-13.8" font-family="Times,serif" font-size="14.00" fill="#000000">isA</text>
</g>
<!-- key2 -->
<g id="node8" class="node">
<title>key2</title>
<text text-anchor="start" x="353.1471" y="-13.8" font-family="Times,serif" font-size="14.00" fill="#000000"> </text>
</g>
<!-- key1&#45;&gt;key2 -->
<g id="edge6" class="edge">
<title>key1:e&#45;&gt;key2:w</title>
<path fill="none" stroke="#000000" d="M295.1471,-19C316.1471,-19 323.858,-19 340.7052,-19"/>
<polygon fill="none" stroke="#000000" points="341.1471,-22.5001 351.1471,-19 341.147,-15.5001 341.1471,-22.5001"/>
</g>
</g>
</svg>
