<?xml version="1.0" encoding="UTF-8" standalone="no"?>
<!DOCTYPE svg PUBLIC "-//W3C//DTD SVG 1.1//EN"
 "http://www.w3.org/Graphics/SVG/1.1/DTD/svg11.dtd">
<!-- Generated by graphviz version 2.40.1 (20161225.0304)
 -->
<!-- Title: %3 Pages: 1 -->
<svg width="389pt" height="218pt"
 viewBox="0.00 0.00 389.34 218.00" xmlns="http://www.w3.org/2000/svg" xmlns:xlink="http://www.w3.org/1999/xlink">
<g id="graph0" class="graph" transform="scale(1 1) rotate(0) translate(4 214)">
<title>%3</title>
<polygon fill="#ffffff" stroke="transparent" points="-4,4 -4,-214 385.3431,-214 385.3431,4 -4,4"/>
<!-- Property -->
<g id="node1" class="node">
<title>Property</title>
<g id="a_node1"><a xlink:href="http://emmo.info/emmo/middle/properties#EMMO_b7bcff25_ffc3_474e_9ab5_01b1664bd4ba" xlink:title="Property">
<ellipse fill="#ffffcc" stroke="#000000" stroke-width="2" cx="40.9464" cy="-105" rx="40.8928" ry="18"/>
<text text-anchor="middle" x="40.9464" y="-101.3" font-family="Times,serif" font-size="14.00" fill="#000000">Property</text>
</a>
</g>
</g>
<!-- Perceptual -->
<g id="node2" class="node">
<title>Perceptual</title>
<g id="a_node2"><a xlink:href="http://emmo.info/emmo/middle/perceptual#EMMO_649bf97b_4397_4005_90d9_219755d92e34" xlink:title="Perceptual">
<ellipse fill="#ffffcc" stroke="#000000" stroke-width="2" cx="144.9464" cy="-192" rx="48.1917" ry="18"/>
<text text-anchor="middle" x="144.9464" y="-188.3" font-family="Times,serif" font-size="14.00" fill="#000000">Perceptual</text>
</a>
</g>
</g>
<!-- Property&#45;&gt;Perceptual -->
<g id="edge5" class="edge">
<title>Property&#45;&gt;Perceptual</title>
<path fill="none" stroke="#000000" d="M60.0216,-120.9571C76.0909,-134.3997 99.2864,-153.8037 117.3768,-168.937"/>
<polygon fill="none" stroke="#000000" points="115.3696,-171.8211 125.2854,-175.5529 119.861,-166.452 115.3696,-171.8211"/>
<text text-anchor="middle" x="109.4464" y="-144.8" font-family="Times,serif" font-size="14.00" fill="#000000">isA</text>
</g>
<!-- Noise -->
<g id="node3" class="node">
<title>Noise</title>
<g id="a_node3"><a xlink:href="http://emmo.info/emmo/middle/perceptual#EMMO_91756568_8655_4060_8937_a1a906dad8c1" xlink:title="Noise">
<ellipse fill="#ffffcc" stroke="#000000" cx="174.9464" cy="-18" rx="31.3957" ry="18"/>
<text text-anchor="middle" x="174.9464" y="-14.3" font-family="Times,serif" font-size="14.00" fill="#000000">Noise</text>
</a>
</g>
</g>
<!-- Acoustical -->
<g id="node7" class="node">
<title>Acoustical</title>
<g id="a_node7"><a xlink:href="http://emmo.info/emmo/middle/perceptual#EMMO_4b3afb22_27cf_4ce3_88bc_492bfccb546b" xlink:title="Acoustical">
<ellipse fill="#ffffcc" stroke="#000000" cx="256.9464" cy="-105" rx="48.1917" ry="18"/>
<text text-anchor="middle" x="256.9464" y="-101.3" font-family="Times,serif" font-size="14.00" fill="#000000">Acoustical</text>
</a>
</g>
</g>
<!-- Noise&#45;&gt;Acoustical -->
<g id="edge2" class="edge">
<title>Noise&#45;&gt;Acoustical</title>
<path fill="none" stroke="#000000" d="M189.9864,-33.9571C202.2707,-46.9904 219.8367,-65.6276 233.895,-80.5431"/>
<polygon fill="none" stroke="#000000" points="231.4744,-83.0778 240.8803,-87.9543 236.5684,-78.2765 231.4744,-83.0778"/>
<text text-anchor="middle" x="230.4464" y="-57.8" font-family="Times,serif" font-size="14.00" fill="#000000">isA</text>
</g>
<!-- Music -->
<g id="node4" class="node">
<title>Music</title>
<g id="a_node4"><a xlink:href="http://emmo.info/emmo/middle/perceptual#EMMO_0d69f94a_f4fa_49d9_bf90_ace770eeab02" xlink:title="Music">
<ellipse fill="#ffffcc" stroke="#000000" cx="256.9464" cy="-18" rx="33.2948" ry="18"/>
<text text-anchor="middle" x="256.9464" y="-14.3" font-family="Times,serif" font-size="14.00" fill="#000000">Music</text>
</a>
</g>
</g>
<!-- Music&#45;&gt;Acoustical -->
<g id="edge3" class="edge">
<title>Music&#45;&gt;Acoustical</title>
<path fill="none" stroke="#000000" d="M256.9464,-36.0265C256.9464,-47.8082 256.9464,-63.4393 256.9464,-76.8419"/>
<polygon fill="none" stroke="#000000" points="253.4465,-76.9966 256.9464,-86.9966 260.4465,-76.9967 253.4465,-76.9966"/>
<text text-anchor="middle" x="266.4464" y="-57.8" font-family="Times,serif" font-size="14.00" fill="#000000">isA</text>
</g>
<!-- Speech -->
<g id="node5" class="node">
<title>Speech</title>
<g id="a_node5"><a xlink:href="http://emmo.info/emmo/middle/perceptual#EMMO_660ef3b0_6692_4c51_8f69_763c7817b2e1" xlink:title="Speech">
<ellipse fill="#ffffcc" stroke="#000000" cx="344.9464" cy="-18" rx="36.2938" ry="18"/>
<text text-anchor="middle" x="344.9464" y="-14.3" font-family="Times,serif" font-size="14.00" fill="#000000">Speech</text>
</a>
</g>
</g>
<!-- Speech&#45;&gt;Acoustical -->
<g id="edge4" class="edge">
<title>Speech&#45;&gt;Acoustical</title>
<path fill="none" stroke="#000000" d="M328.3942,-34.364C315.1662,-47.4418 296.4274,-65.9677 281.4591,-80.7658"/>
<polygon fill="none" stroke="#000000" points="278.6752,-78.5964 274.0245,-88.1159 283.5966,-83.5743 278.6752,-78.5964"/>
<text text-anchor="middle" x="315.4464" y="-57.8" font-family="Times,serif" font-size="14.00" fill="#000000">isA</text>
</g>
<!-- Graphical -->
<g id="node6" class="node">
<title>Graphical</title>
<g id="a_node6"><a xlink:href="http://emmo.info/emmo/middle/perceptual#EMMO_c74da218_9147_4f03_92d1_8894abca55f3" xlink:title="Graphical">
<ellipse fill="#ffffcc" stroke="#000000" stroke-width="2" cx="144.9464" cy="-105" rx="45.4919" ry="18"/>
<text text-anchor="middle" x="144.9464" y="-101.3" font-family="Times,serif" font-size="14.00" fill="#000000">Graphical</text>
</a>
</g>
</g>
<!-- Graphical&#45;&gt;Perceptual -->
<g id="edge1" class="edge">
<title>Graphical&#45;&gt;Perceptual</title>
<path fill="none" stroke="#000000" d="M144.9464,-123.0265C144.9464,-134.8082 144.9464,-150.4393 144.9464,-163.8419"/>
<polygon fill="none" stroke="#000000" points="141.4465,-163.9966 144.9464,-173.9966 148.4465,-163.9967 141.4465,-163.9966"/>
<text text-anchor="middle" x="154.4464" y="-144.8" font-family="Times,serif" font-size="14.00" fill="#000000">isA</text>
</g>
<!-- Acoustical&#45;&gt;Perceptual -->
<g id="edge6" class="edge">
<title>Acoustical&#45;&gt;Perceptual</title>
<path fill="none" stroke="#000000" d="M235.88,-121.364C218.3592,-134.974 193.2421,-154.4845 173.8432,-169.5534"/>
<polygon fill="none" stroke="#000000" points="171.6685,-166.8107 165.9182,-175.7093 175.9627,-172.3388 171.6685,-166.8107"/>
<text text-anchor="middle" x="217.4464" y="-144.8" font-family="Times,serif" font-size="14.00" fill="#000000">isA</text>
</g>
</g>
</svg>
