<?xml version="1.0" encoding="UTF-8" standalone="no"?>
<!DOCTYPE svg PUBLIC "-//W3C//DTD SVG 1.1//EN"
 "http://www.w3.org/Graphics/SVG/1.1/DTD/svg11.dtd">
<!-- Generated by graphviz version 2.40.1 (20161225.0304)
 -->
<!-- Title: %3 Pages: 1 -->
<svg width="389pt" height="188pt"
 viewBox="0.00 0.00 389.40 188.00" xmlns="http://www.w3.org/2000/svg" xmlns:xlink="http://www.w3.org/1999/xlink">
<g id="graph0" class="graph" transform="scale(1 1) rotate(0) translate(4 184)">
<title>%3</title>
<polygon fill="#ffffff" stroke="transparent" points="-4,4 -4,-184 385.3968,-184 385.3968,4 -4,4"/>
<!-- Speech -->
<g id="node1" class="node">
<title>Speech</title>
<g id="a_node1"><a xlink:href="http://emmo.info/emmo/middle/perceptual#EMMO_660ef3b0_6692_4c51_8f69_763c7817b2e1" xlink:title="Speech">
<ellipse fill="#ffffcc" stroke="#000000" cx="36.3968" cy="-18" rx="36.2938" ry="18"/>
<text text-anchor="middle" x="36.3968" y="-14.3" font-family="Times,serif" font-size="14.00" fill="#000000">Speech</text>
</a>
</g>
</g>
<!-- Acoustical -->
<g id="node6" class="node">
<title>Acoustical</title>
<g id="a_node6"><a xlink:href="http://emmo.info/emmo/middle/perceptual#EMMO_4b3afb22_27cf_4ce3_88bc_492bfccb546b" xlink:title="Acoustical">
<ellipse fill="#ffffcc" stroke="#000000" cx="122.3968" cy="-90" rx="48.1917" ry="18"/>
<text text-anchor="middle" x="122.3968" y="-86.3" font-family="Times,serif" font-size="14.00" fill="#000000">Acoustical</text>
</a>
</g>
</g>
<!-- Speech&#45;&gt;Acoustical -->
<g id="edge5" class="edge">
<title>Speech&#45;&gt;Acoustical</title>
<path fill="none" stroke="#000000" d="M55.0575,-33.6229C66.676,-43.35 81.8293,-56.0366 94.8185,-66.9112"/>
<polygon fill="none" stroke="#000000" points="92.6611,-69.6697 102.5755,-73.4055 97.1547,-64.3024 92.6611,-69.6697"/>
</g>
<!-- Graphical -->
<g id="node2" class="node">
<title>Graphical</title>
<g id="a_node2"><a xlink:href="http://emmo.info/emmo/middle/perceptual#EMMO_c74da218_9147_4f03_92d1_8894abca55f3" xlink:title="Graphical">
<ellipse fill="#ffffcc" stroke="#000000" stroke-width="2" cx="234.3968" cy="-90" rx="45.4919" ry="18"/>
<text text-anchor="middle" x="234.3968" y="-86.3" font-family="Times,serif" font-size="14.00" fill="#000000">Graphical</text>
</a>
</g>
</g>
<!-- Perceptual -->
<g id="node5" class="node">
<title>Perceptual</title>
<g id="a_node5"><a xlink:href="http://emmo.info/emmo/middle/perceptual#EMMO_649bf97b_4397_4005_90d9_219755d92e34" xlink:title="Perceptual">
<ellipse fill="#ffffcc" stroke="#000000" stroke-width="2" cx="178.3968" cy="-162" rx="48.1917" ry="18"/>
<text text-anchor="middle" x="178.3968" y="-158.3" font-family="Times,serif" font-size="14.00" fill="#000000">Perceptual</text>
</a>
</g>
</g>
<!-- Graphical&#45;&gt;Perceptual -->
<g id="edge3" class="edge">
<title>Graphical&#45;&gt;Perceptual</title>
<path fill="none" stroke="#000000" d="M220.8407,-107.4292C214.081,-116.1203 205.7746,-126.7999 198.3078,-136.4002"/>
<polygon fill="none" stroke="#000000" points="195.3988,-134.4394 192.0221,-144.4818 200.9243,-138.737 195.3988,-134.4394"/>
</g>
<!-- Noise -->
<g id="node3" class="node">
<title>Noise</title>
<g id="a_node3"><a xlink:href="http://emmo.info/emmo/middle/perceptual#EMMO_91756568_8655_4060_8937_a1a906dad8c1" xlink:title="Noise">
<ellipse fill="#ffffcc" stroke="#000000" cx="122.3968" cy="-18" rx="31.3957" ry="18"/>
<text text-anchor="middle" x="122.3968" y="-14.3" font-family="Times,serif" font-size="14.00" fill="#000000">Noise</text>
</a>
</g>
</g>
<!-- Noise&#45;&gt;Acoustical -->
<g id="edge1" class="edge">
<title>Noise&#45;&gt;Acoustical</title>
<path fill="none" stroke="#000000" d="M122.3968,-36.1686C122.3968,-43.869 122.3968,-53.0257 122.3968,-61.5834"/>
<polygon fill="none" stroke="#000000" points="118.8969,-61.5867 122.3968,-71.5867 125.8969,-61.5868 118.8969,-61.5867"/>
</g>
<!-- Music -->
<g id="node4" class="node">
<title>Music</title>
<g id="a_node4"><a xlink:href="http://emmo.info/emmo/middle/perceptual#EMMO_0d69f94a_f4fa_49d9_bf90_ace770eeab02" xlink:title="Music">
<ellipse fill="#ffffcc" stroke="#000000" cx="204.3968" cy="-18" rx="33.2948" ry="18"/>
<text text-anchor="middle" x="204.3968" y="-14.3" font-family="Times,serif" font-size="14.00" fill="#000000">Music</text>
</a>
</g>
</g>
<!-- Music&#45;&gt;Acoustical -->
<g id="edge4" class="edge">
<title>Music&#45;&gt;Acoustical</title>
<path fill="none" stroke="#000000" d="M186.604,-33.6229C175.6304,-43.2583 161.3497,-55.7975 149.0434,-66.603"/>
<polygon fill="none" stroke="#000000" points="146.5012,-64.1774 141.2961,-73.4055 151.1198,-69.4375 146.5012,-64.1774"/>
</g>
<!-- Acoustical&#45;&gt;Perceptual -->
<g id="edge2" class="edge">
<title>Acoustical&#45;&gt;Perceptual</title>
<path fill="none" stroke="#000000" d="M135.9528,-107.4292C142.7125,-116.1203 151.0189,-126.7999 158.4858,-136.4002"/>
<polygon fill="none" stroke="#000000" points="155.8693,-138.737 164.7715,-144.4818 161.3948,-134.4394 155.8693,-138.737"/>
</g>
<!-- key1 -->
<g id="node7" class="node">
<title>key1</title>
<text text-anchor="start" x="273.3968" y="-13.8" font-family="Times,serif" font-size="14.00" fill="#000000">isA</text>
</g>
<!-- key2 -->
<g id="node8" class="node">
<title>key2</title>
<text text-anchor="start" x="352.3968" y="-13.8" font-family="Times,serif" font-size="14.00" fill="#000000"> </text>
</g>
<!-- key1&#45;&gt;key2 -->
<g id="edge6" class="edge">
<title>key1:e&#45;&gt;key2:w</title>
<path fill="none" stroke="#000000" d="M294.3968,-19C315.3968,-19 323.1077,-19 339.9549,-19"/>
<polygon fill="none" stroke="#000000" points="340.3968,-22.5001 350.3968,-19 340.3967,-15.5001 340.3968,-22.5001"/>
</g>
</g>
</svg>
