<?xml version="1.0" encoding="UTF-8" standalone="no"?>
<!DOCTYPE svg PUBLIC "-//W3C//DTD SVG 1.1//EN"
 "http://www.w3.org/Graphics/SVG/1.1/DTD/svg11.dtd">
<!-- Generated by graphviz version 2.40.1 (20161225.0304)
 -->
<!-- Title: %3 Pages: 1 -->
<svg width="386pt" height="218pt"
 viewBox="0.00 0.00 386.09 218.00" xmlns="http://www.w3.org/2000/svg" xmlns:xlink="http://www.w3.org/1999/xlink">
<g id="graph0" class="graph" transform="scale(1 1) rotate(0) translate(4 214)">
<title>%3</title>
<polygon fill="#ffffff" stroke="transparent" points="-4,4 -4,-214 382.0934,-214 382.0934,4 -4,4"/>
<!-- Music -->
<g id="node1" class="node">
<title>Music</title>
<g id="a_node1"><a xlink:href="http://emmo.info/emmo/middle/perceptual#EMMO_0d69f94a_f4fa_49d9_bf90_ace770eeab02" xlink:title="Music">
<ellipse fill="#ffffcc" stroke="#000000" cx="33.1471" cy="-18" rx="33.2948" ry="18"/>
<text text-anchor="middle" x="33.1471" y="-14.3" font-family="Times,serif" font-size="14.00" fill="#000000">Music</text>
</a>
</g>
</g>
<!-- Acoustical -->
<g id="node4" class="node">
<title>Acoustical</title>
<g id="a_node4"><a xlink:href="http://emmo.info/emmo/middle/perceptual#EMMO_4b3afb22_27cf_4ce3_88bc_492bfccb546b" xlink:title="Acoustical">
<ellipse fill="#ffffcc" stroke="#000000" cx="121.1471" cy="-105" rx="48.1917" ry="18"/>
<text text-anchor="middle" x="121.1471" y="-101.3" font-family="Times,serif" font-size="14.00" fill="#000000">Acoustical</text>
</a>
</g>
</g>
<!-- Music&#45;&gt;Acoustical -->
<g id="edge3" class="edge">
<title>Music&#45;&gt;Acoustical</title>
<path fill="none" stroke="#000000" d="M49.2876,-33.9571C62.4707,-46.9904 81.3221,-65.6276 96.409,-80.5431"/>
<polygon fill="none" stroke="#000000" points="94.3333,-83.4127 103.9054,-87.9543 99.2547,-78.4347 94.3333,-83.4127"/>
<text text-anchor="middle" x="92.6471" y="-57.8" font-family="Times,serif" font-size="14.00" fill="#000000">isA</text>
</g>
<!-- Speech -->
<g id="node2" class="node">
<title>Speech</title>
<g id="a_node2"><a xlink:href="http://emmo.info/emmo/middle/perceptual#EMMO_660ef3b0_6692_4c51_8f69_763c7817b2e1" xlink:title="Speech">
<ellipse fill="#ffffcc" stroke="#000000" cx="121.1471" cy="-18" rx="36.2938" ry="18"/>
<text text-anchor="middle" x="121.1471" y="-14.3" font-family="Times,serif" font-size="14.00" fill="#000000">Speech</text>
</a>
</g>
</g>
<!-- Speech&#45;&gt;Acoustical -->
<g id="edge5" class="edge">
<title>Speech&#45;&gt;Acoustical</title>
<path fill="none" stroke="#000000" d="M121.1471,-36.0265C121.1471,-47.8082 121.1471,-63.4393 121.1471,-76.8419"/>
<polygon fill="none" stroke="#000000" points="117.6472,-76.9966 121.1471,-86.9966 124.6472,-76.9967 117.6472,-76.9966"/>
<text text-anchor="middle" x="130.6471" y="-57.8" font-family="Times,serif" font-size="14.00" fill="#000000">isA</text>
</g>
<!-- Graphical -->
<g id="node3" class="node">
<title>Graphical</title>
<g id="a_node3"><a xlink:href="http://emmo.info/emmo/middle/perceptual#EMMO_c74da218_9147_4f03_92d1_8894abca55f3" xlink:title="Graphical">
<ellipse fill="#ffffcc" stroke="#000000" stroke-width="2" cx="233.1471" cy="-105" rx="45.4919" ry="18"/>
<text text-anchor="middle" x="233.1471" y="-101.3" font-family="Times,serif" font-size="14.00" fill="#000000">Graphical</text>
</a>
</g>
</g>
<!-- Perceptual -->
<g id="node6" class="node">
<title>Perceptual</title>
<g id="a_node6"><a xlink:href="http://emmo.info/emmo/middle/perceptual#EMMO_649bf97b_4397_4005_90d9_219755d92e34" xlink:title="Perceptual">
<ellipse fill="#ffffcc" stroke="#000000" stroke-width="2" cx="233.1471" cy="-192" rx="48.1917" ry="18"/>
<text text-anchor="middle" x="233.1471" y="-188.3" font-family="Times,serif" font-size="14.00" fill="#000000">Perceptual</text>
</a>
</g>
</g>
<!-- Graphical&#45;&gt;Perceptual -->
<g id="edge2" class="edge">
<title>Graphical&#45;&gt;Perceptual</title>
<path fill="none" stroke="#000000" d="M233.1471,-123.0265C233.1471,-134.8082 233.1471,-150.4393 233.1471,-163.8419"/>
<polygon fill="none" stroke="#000000" points="229.6472,-163.9966 233.1471,-173.9966 236.6472,-163.9967 229.6472,-163.9966"/>
<text text-anchor="middle" x="242.6471" y="-144.8" font-family="Times,serif" font-size="14.00" fill="#000000">isA</text>
</g>
<!-- Acoustical&#45;&gt;Perceptual -->
<g id="edge6" class="edge">
<title>Acoustical&#45;&gt;Perceptual</title>
<path fill="none" stroke="#000000" d="M142.2134,-121.364C159.7342,-134.974 184.8513,-154.4845 204.2502,-169.5534"/>
<polygon fill="none" stroke="#000000" points="202.1307,-172.3388 212.1752,-175.7093 206.4249,-166.8107 202.1307,-172.3388"/>
<text text-anchor="middle" x="192.6471" y="-144.8" font-family="Times,serif" font-size="14.00" fill="#000000">isA</text>
</g>
<!-- Property -->
<g id="node5" class="node">
<title>Property</title>
<g id="a_node5"><a xlink:href="http://emmo.info/emmo/middle/properties#EMMO_b7bcff25_ffc3_474e_9ab5_01b1664bd4ba" xlink:title="Property">
<ellipse fill="#ffffcc" stroke="#000000" stroke-width="2" cx="337.1471" cy="-105" rx="40.8928" ry="18"/>
<text text-anchor="middle" x="337.1471" y="-101.3" font-family="Times,serif" font-size="14.00" fill="#000000">Property</text>
</a>
</g>
</g>
<!-- Property&#45;&gt;Perceptual -->
<g id="edge1" class="edge">
<title>Property&#45;&gt;Perceptual</title>
<path fill="none" stroke="#000000" d="M318.0719,-120.9571C302.0025,-134.3997 278.807,-153.8037 260.7166,-168.937"/>
<polygon fill="none" stroke="#000000" points="258.2324,-166.452 252.808,-175.5529 262.7238,-171.8211 258.2324,-166.452"/>
<text text-anchor="middle" x="300.6471" y="-144.8" font-family="Times,serif" font-size="14.00" fill="#000000">isA</text>
</g>
<!-- Noise -->
<g id="node7" class="node">
<title>Noise</title>
<g id="a_node7"><a xlink:href="http://emmo.info/emmo/middle/perceptual#EMMO_91756568_8655_4060_8937_a1a906dad8c1" xlink:title="Noise">
<ellipse fill="#ffffcc" stroke="#000000" cx="207.1471" cy="-18" rx="31.3957" ry="18"/>
<text text-anchor="middle" x="207.1471" y="-14.3" font-family="Times,serif" font-size="14.00" fill="#000000">Noise</text>
</a>
</g>
</g>
<!-- Noise&#45;&gt;Acoustical -->
<g id="edge4" class="edge">
<title>Noise&#45;&gt;Acoustical</title>
<path fill="none" stroke="#000000" d="M191.3733,-33.9571C178.4898,-46.9904 160.0669,-65.6276 145.3229,-80.5431"/>
<polygon fill="none" stroke="#000000" points="142.5378,-78.3819 137.9969,-87.9543 147.5161,-83.303 142.5378,-78.3819"/>
<text text-anchor="middle" x="178.6471" y="-57.8" font-family="Times,serif" font-size="14.00" fill="#000000">isA</text>
</g>
</g>
</svg>
