<?xml version="1.0" encoding="UTF-8" standalone="no"?>
<!DOCTYPE svg PUBLIC "-//W3C//DTD SVG 1.1//EN"
 "http://www.w3.org/Graphics/SVG/1.1/DTD/svg11.dtd">
<!-- Generated by graphviz version 2.40.1 (20161225.0304)
 -->
<!-- Title: %3 Pages: 1 -->
<svg width="313pt" height="218pt"
 viewBox="0.00 0.00 313.44 218.00" xmlns="http://www.w3.org/2000/svg" xmlns:xlink="http://www.w3.org/1999/xlink">
<g id="graph0" class="graph" transform="scale(1 1) rotate(0) translate(4 214)">
<title>%3</title>
<polygon fill="#ffffff" stroke="transparent" points="-4,4 -4,-214 309.4423,-214 309.4423,4 -4,4"/>
<!-- Perceptual -->
<g id="node1" class="node">
<title>Perceptual</title>
<g id="a_node1"><a xlink:href="http://emmo.info/emmo/middle/perceptual#EMMO_649bf97b_4397_4005_90d9_219755d92e34" xlink:title="Perceptual">
<ellipse fill="#ffffcc" stroke="#000000" stroke-width="2" cx="157.496" cy="-192" rx="48.1917" ry="18"/>
<text text-anchor="middle" x="157.496" y="-188.3" font-family="Times,serif" font-size="14.00" fill="#000000">Perceptual</text>
</a>
</g>
</g>
<!-- Noise -->
<g id="node2" class="node">
<title>Noise</title>
<g id="a_node2"><a xlink:href="http://emmo.info/emmo/middle/perceptual#EMMO_91756568_8655_4060_8937_a1a906dad8c1" xlink:title="Noise">
<ellipse fill="#ffffcc" stroke="#000000" cx="75.496" cy="-18" rx="31.3957" ry="18"/>
<text text-anchor="middle" x="75.496" y="-14.3" font-family="Times,serif" font-size="14.00" fill="#000000">Noise</text>
</a>
</g>
</g>
<!-- Acoustical -->
<g id="node6" class="node">
<title>Acoustical</title>
<g id="a_node6"><a xlink:href="http://emmo.info/emmo/middle/perceptual#EMMO_4b3afb22_27cf_4ce3_88bc_492bfccb546b" xlink:title="Acoustical">
<ellipse fill="#ffffcc" stroke="#000000" cx="157.496" cy="-105" rx="48.1917" ry="18"/>
<text text-anchor="middle" x="157.496" y="-101.3" font-family="Times,serif" font-size="14.00" fill="#000000">Acoustical</text>
</a>
</g>
</g>
<!-- Noise&#45;&gt;Acoustical -->
<g id="edge5" class="edge">
<title>Noise&#45;&gt;Acoustical</title>
<path fill="none" stroke="#000000" d="M90.536,-33.9571C102.8203,-46.9904 120.3863,-65.6276 134.4446,-80.5431"/>
<polygon fill="none" stroke="#000000" points="132.024,-83.0778 141.4299,-87.9543 137.118,-78.2765 132.024,-83.0778"/>
<text text-anchor="middle" x="130.996" y="-57.8" font-family="Times,serif" font-size="14.00" fill="#000000">isA</text>
</g>
<!-- Music -->
<g id="node3" class="node">
<title>Music</title>
<g id="a_node3"><a xlink:href="http://emmo.info/emmo/middle/perceptual#EMMO_0d69f94a_f4fa_49d9_bf90_ace770eeab02" xlink:title="Music">
<ellipse fill="#ffffcc" stroke="#000000" cx="157.496" cy="-18" rx="33.2948" ry="18"/>
<text text-anchor="middle" x="157.496" y="-14.3" font-family="Times,serif" font-size="14.00" fill="#000000">Music</text>
</a>
</g>
</g>
<!-- Music&#45;&gt;Acoustical -->
<g id="edge1" class="edge">
<title>Music&#45;&gt;Acoustical</title>
<path fill="none" stroke="#000000" d="M157.496,-36.0265C157.496,-47.8082 157.496,-63.4393 157.496,-76.8419"/>
<polygon fill="none" stroke="#000000" points="153.9961,-76.9966 157.496,-86.9966 160.9961,-76.9967 153.9961,-76.9966"/>
<text text-anchor="middle" x="166.996" y="-57.8" font-family="Times,serif" font-size="14.00" fill="#000000">isA</text>
</g>
<!-- Speech -->
<g id="node4" class="node">
<title>Speech</title>
<g id="a_node4"><a xlink:href="http://emmo.info/emmo/middle/perceptual#EMMO_660ef3b0_6692_4c51_8f69_763c7817b2e1" xlink:title="Speech">
<ellipse fill="#ffffcc" stroke="#000000" cx="245.496" cy="-18" rx="36.2938" ry="18"/>
<text text-anchor="middle" x="245.496" y="-14.3" font-family="Times,serif" font-size="14.00" fill="#000000">Speech</text>
</a>
</g>
</g>
<!-- Speech&#45;&gt;Acoustical -->
<g id="edge6" class="edge">
<title>Speech&#45;&gt;Acoustical</title>
<path fill="none" stroke="#000000" d="M228.9438,-34.364C215.7158,-47.4418 196.977,-65.9677 182.0087,-80.7658"/>
<polygon fill="none" stroke="#000000" points="179.2248,-78.5964 174.5741,-88.1159 184.1462,-83.5743 179.2248,-78.5964"/>
<text text-anchor="middle" x="215.996" y="-57.8" font-family="Times,serif" font-size="14.00" fill="#000000">isA</text>
</g>
<!-- Graphical -->
<g id="node5" class="node">
<title>Graphical</title>
<g id="a_node5"><a xlink:href="http://emmo.info/emmo/middle/perceptual#EMMO_c74da218_9147_4f03_92d1_8894abca55f3" xlink:title="Graphical">
<ellipse fill="#ffffcc" stroke="#000000" stroke-width="2" cx="45.496" cy="-105" rx="45.4919" ry="18"/>
<text text-anchor="middle" x="45.496" y="-101.3" font-family="Times,serif" font-size="14.00" fill="#000000">Graphical</text>
</a>
</g>
</g>
<!-- Graphical&#45;&gt;Perceptual -->
<g id="edge2" class="edge">
<title>Graphical&#45;&gt;Perceptual</title>
<path fill="none" stroke="#000000" d="M66.2998,-121.1601C83.7915,-134.7474 108.9874,-154.3192 128.4651,-169.4492"/>
<polygon fill="none" stroke="#000000" points="126.379,-172.2607 136.4235,-175.6312 130.6732,-166.7325 126.379,-172.2607"/>
<text text-anchor="middle" x="117.996" y="-144.8" font-family="Times,serif" font-size="14.00" fill="#000000">isA</text>
</g>
<!-- Acoustical&#45;&gt;Perceptual -->
<g id="edge4" class="edge">
<title>Acoustical&#45;&gt;Perceptual</title>
<path fill="none" stroke="#000000" d="M157.496,-123.0265C157.496,-134.8082 157.496,-150.4393 157.496,-163.8419"/>
<polygon fill="none" stroke="#000000" points="153.9961,-163.9966 157.496,-173.9966 160.9961,-163.9967 153.9961,-163.9966"/>
<text text-anchor="middle" x="166.996" y="-144.8" font-family="Times,serif" font-size="14.00" fill="#000000">isA</text>
</g>
<!-- Property -->
<g id="node7" class="node">
<title>Property</title>
<g id="a_node7"><a xlink:href="http://emmo.info/emmo/middle/properties#EMMO_b7bcff25_ffc3_474e_9ab5_01b1664bd4ba" xlink:title="Property">
<ellipse fill="#ffffcc" stroke="#000000" stroke-width="2" cx="264.496" cy="-105" rx="40.8928" ry="18"/>
<text text-anchor="middle" x="264.496" y="-101.3" font-family="Times,serif" font-size="14.00" fill="#000000">Property</text>
</a>
</g>
</g>
<!-- Property&#45;&gt;Perceptual -->
<g id="edge3" class="edge">
<title>Property&#45;&gt;Perceptual</title>
<path fill="none" stroke="#000000" d="M244.8705,-120.9571C228.2632,-134.4603 204.2579,-153.9786 185.6096,-169.1412"/>
<polygon fill="none" stroke="#000000" points="183.2749,-166.5286 177.724,-175.5529 187.691,-171.9598 183.2749,-166.5286"/>
<text text-anchor="middle" x="225.996" y="-144.8" font-family="Times,serif" font-size="14.00" fill="#000000">isA</text>
</g>
</g>
</svg>
