<?xml version="1.0" encoding="UTF-8" standalone="no"?>
<!DOCTYPE svg PUBLIC "-//W3C//DTD SVG 1.1//EN"
 "http://www.w3.org/Graphics/SVG/1.1/DTD/svg11.dtd">
<!-- Generated by graphviz version 2.40.1 (20161225.0304)
 -->
<!-- Title: %3 Pages: 1 -->
<svg width="613pt" height="116pt"
 viewBox="0.00 0.00 613.35 116.00" xmlns="http://www.w3.org/2000/svg" xmlns:xlink="http://www.w3.org/1999/xlink">
<g id="graph0" class="graph" transform="scale(1 1) rotate(0) translate(4 112)">
<title>%3</title>
<polygon fill="#ffffff" stroke="transparent" points="-4,4 -4,-112 609.3466,-112 609.3466,4 -4,4"/>
<!-- Holistic -->
<g id="node1" class="node">
<title>Holistic</title>
<g id="a_node1"><a xlink:href="http://emmo.info/emmo/middle/holistic#EMMO_0277f24a_ea7f_4917_81b7_fb0406c8fc62" xlink:title="Holistic">
<ellipse fill="#ffc880" stroke="#000000" stroke-width="2" cx="38.3466" cy="-18" rx="38.1938" ry="18"/>
<text text-anchor="middle" x="38.3466" y="-14.3" font-family="Times,serif" font-size="14.00" fill="#000000">Holistic</text>
</a>
</g>
</g>
<!-- Perspective -->
<g id="node4" class="node">
<title>Perspective</title>
<g id="a_node4"><a xlink:href="http://emmo.info/emmo/top#EMMO_49267eba_5548_4163_8f36_518d65b583f9" xlink:title="Perspective">
<ellipse fill="#ffffcc" stroke="#000000" stroke-width="2" cx="217.3466" cy="-90" rx="51.1914" ry="18"/>
<text text-anchor="middle" x="217.3466" y="-86.3" font-family="Times,serif" font-size="14.00" fill="#000000">Perspective</text>
</a>
</g>
</g>
<!-- Holistic&#45;&gt;Perspective -->
<g id="edge4" class="edge">
<title>Holistic&#45;&gt;Perspective</title>
<path fill="none" stroke="#000000" d="M67.5044,-29.7283C96.3574,-41.3339 140.8715,-59.2391 173.8928,-72.5214"/>
<polygon fill="none" stroke="#000000" points="172.7258,-75.8244 183.3095,-76.3091 175.338,-69.3301 172.7258,-75.8244"/>
</g>
<!-- Physicalistic -->
<g id="node2" class="node">
<title>Physicalistic</title>
<g id="a_node2"><a xlink:href="http://emmo.info/emmo/middle/physicalistic#EMMO_98ada9d8_f1c8_4f13_99b5_d890f5354152" xlink:title="Physicalistic">
<ellipse fill="#ffc880" stroke="#000000" stroke-width="2" cx="150.3466" cy="-18" rx="55.4913" ry="18"/>
<text text-anchor="middle" x="150.3466" y="-14.3" font-family="Times,serif" font-size="14.00" fill="#000000">Physicalistic</text>
</a>
</g>
</g>
<!-- Physicalistic&#45;&gt;Perspective -->
<g id="edge2" class="edge">
<title>Physicalistic&#45;&gt;Perspective</title>
<path fill="none" stroke="#000000" d="M166.5654,-35.4292C174.8775,-44.3615 185.1441,-55.3944 194.2661,-65.1971"/>
<polygon fill="none" stroke="#000000" points="191.9025,-67.7949 201.2771,-72.7313 197.027,-63.0263 191.9025,-67.7949"/>
</g>
<!-- Reductionistic -->
<g id="node3" class="node">
<title>Reductionistic</title>
<g id="a_node3"><a xlink:href="http://emmo.info/emmo/middle/reductionistic#EMMO_15db234d_ecaf_4715_9838_4b4ec424fb13" xlink:title="Reductionistic">
<ellipse fill="#ffc880" stroke="#000000" stroke-width="2" cx="285.3466" cy="-18" rx="61.99" ry="18"/>
<text text-anchor="middle" x="285.3466" y="-14.3" font-family="Times,serif" font-size="14.00" fill="#000000">Reductionistic</text>
</a>
</g>
</g>
<!-- Reductionistic&#45;&gt;Perspective -->
<g id="edge1" class="edge">
<title>Reductionistic&#45;&gt;Perspective</title>
<path fill="none" stroke="#000000" d="M268.8857,-35.4292C260.4496,-44.3615 250.0297,-55.3944 240.7716,-65.1971"/>
<polygon fill="none" stroke="#000000" points="237.9776,-63.058 233.6559,-72.7313 243.0667,-67.8643 237.9776,-63.058"/>
</g>
<!-- Perceptual -->
<g id="node5" class="node">
<title>Perceptual</title>
<g id="a_node5"><a xlink:href="http://emmo.info/emmo/middle/perceptual#EMMO_649bf97b_4397_4005_90d9_219755d92e34" xlink:title="Perceptual">
<ellipse fill="#ffffcc" stroke="#000000" stroke-width="2" cx="413.3466" cy="-18" rx="48.1917" ry="18"/>
<text text-anchor="middle" x="413.3466" y="-14.3" font-family="Times,serif" font-size="14.00" fill="#000000">Perceptual</text>
</a>
</g>
</g>
<!-- Perceptual&#45;&gt;Perspective -->
<g id="edge3" class="edge">
<title>Perceptual&#45;&gt;Perspective</title>
<path fill="none" stroke="#000000" d="M378.7569,-30.7064C346.4109,-42.5886 297.9135,-60.404 262.5234,-73.4044"/>
<polygon fill="none" stroke="#000000" points="261.0933,-70.201 252.9135,-76.9346 263.5071,-76.7717 261.0933,-70.201"/>
</g>
<!-- key1 -->
<g id="node6" class="node">
<title>key1</title>
<text text-anchor="start" x="497.3466" y="-13.8" font-family="Times,serif" font-size="14.00" fill="#000000">isA</text>
</g>
<!-- key2 -->
<g id="node7" class="node">
<title>key2</title>
<text text-anchor="start" x="576.3466" y="-13.8" font-family="Times,serif" font-size="14.00" fill="#000000"> </text>
</g>
<!-- key1&#45;&gt;key2 -->
<g id="edge5" class="edge">
<title>key1:e&#45;&gt;key2:w</title>
<path fill="none" stroke="#000000" d="M518.3466,-19C539.3466,-19 547.0575,-19 563.9047,-19"/>
<polygon fill="none" stroke="#000000" points="564.3466,-22.5001 574.3466,-19 564.3466,-15.5001 564.3466,-22.5001"/>
</g>
</g>
</svg>
