<?xml version="1.0" encoding="UTF-8" standalone="no"?>
<!DOCTYPE svg PUBLIC "-//W3C//DTD SVG 1.1//EN"
 "http://www.w3.org/Graphics/SVG/1.1/DTD/svg11.dtd">
<!-- Generated by graphviz version 2.40.1 (20161225.0304)
 -->
<!-- Title: %3 Pages: 1 -->
<svg width="612pt" height="116pt"
 viewBox="0.00 0.00 612.35 116.00" xmlns="http://www.w3.org/2000/svg" xmlns:xlink="http://www.w3.org/1999/xlink">
<g id="graph0" class="graph" transform="scale(1 1) rotate(0) translate(4 112)">
<title>%3</title>
<polygon fill="#ffffff" stroke="transparent" points="-4,4 -4,-112 608.3466,-112 608.3466,4 -4,4"/>
<!-- Holistic -->
<g id="node1" class="node">
<title>Holistic</title>
<g id="a_node1"><a xlink:href="http://emmo.info/emmo/middle/holistic#EMMO_0277f24a_ea7f_4917_81b7_fb0406c8fc62" xlink:title="Holistic">
<ellipse fill="#ffc880" stroke="#000000" stroke-width="2" cx="38.3466" cy="-18" rx="38.1938" ry="18"/>
<text text-anchor="middle" x="38.3466" y="-14.3" font-family="Times,serif" font-size="14.00" fill="#000000">Holistic</text>
</a>
</g>
</g>
<!-- Perspective -->
<g id="node5" class="node">
<title>Perspective</title>
<g id="a_node5"><a xlink:href="http://emmo.info/emmo/top#EMMO_49267eba_5548_4163_8f36_518d65b583f9" xlink:title="Perspective">
<ellipse fill="#ffffcc" stroke="#000000" stroke-width="2" cx="220.3466" cy="-90" rx="51.1914" ry="18"/>
<text text-anchor="middle" x="220.3466" y="-86.3" font-family="Times,serif" font-size="14.00" fill="#000000">Perspective</text>
</a>
</g>
</g>
<!-- Holistic&#45;&gt;Perspective -->
<g id="edge2" class="edge">
<title>Holistic&#45;&gt;Perspective</title>
<path fill="none" stroke="#000000" d="M67.9931,-29.7283C97.4213,-41.3702 142.8729,-59.3511 176.4789,-72.6458"/>
<polygon fill="none" stroke="#000000" points="175.4715,-76.0111 186.0578,-76.4352 178.0466,-69.5019 175.4715,-76.0111"/>
</g>
<!-- Reductionistic -->
<g id="node2" class="node">
<title>Reductionistic</title>
<g id="a_node2"><a xlink:href="http://emmo.info/emmo/middle/reductionistic#EMMO_15db234d_ecaf_4715_9838_4b4ec424fb13" xlink:title="Reductionistic">
<ellipse fill="#ffc880" stroke="#000000" stroke-width="2" cx="156.3466" cy="-18" rx="61.99" ry="18"/>
<text text-anchor="middle" x="156.3466" y="-14.3" font-family="Times,serif" font-size="14.00" fill="#000000">Reductionistic</text>
</a>
</g>
</g>
<!-- Reductionistic&#45;&gt;Perspective -->
<g id="edge1" class="edge">
<title>Reductionistic&#45;&gt;Perspective</title>
<path fill="none" stroke="#000000" d="M171.8392,-35.4292C179.7791,-44.3615 189.586,-55.3944 198.2996,-65.1971"/>
<polygon fill="none" stroke="#000000" points="195.737,-67.5825 204.9967,-72.7313 200.9689,-62.9319 195.737,-67.5825"/>
</g>
<!-- Perceptual -->
<g id="node3" class="node">
<title>Perceptual</title>
<g id="a_node3"><a xlink:href="http://emmo.info/emmo/middle/perceptual#EMMO_649bf97b_4397_4005_90d9_219755d92e34" xlink:title="Perceptual">
<ellipse fill="#ffffcc" stroke="#000000" stroke-width="2" cx="284.3466" cy="-18" rx="48.1917" ry="18"/>
<text text-anchor="middle" x="284.3466" y="-14.3" font-family="Times,serif" font-size="14.00" fill="#000000">Perceptual</text>
</a>
</g>
</g>
<!-- Perceptual&#45;&gt;Perspective -->
<g id="edge4" class="edge">
<title>Perceptual&#45;&gt;Perspective</title>
<path fill="none" stroke="#000000" d="M268.854,-35.4292C260.9141,-44.3615 251.1072,-55.3944 242.3936,-65.1971"/>
<polygon fill="none" stroke="#000000" points="239.7243,-62.9319 235.6965,-72.7313 244.9562,-67.5825 239.7243,-62.9319"/>
</g>
<!-- Physicalistic -->
<g id="node4" class="node">
<title>Physicalistic</title>
<g id="a_node4"><a xlink:href="http://emmo.info/emmo/middle/physicalistic#EMMO_98ada9d8_f1c8_4f13_99b5_d890f5354152" xlink:title="Physicalistic">
<ellipse fill="#ffc880" stroke="#000000" stroke-width="2" cx="405.3466" cy="-18" rx="55.4913" ry="18"/>
<text text-anchor="middle" x="405.3466" y="-14.3" font-family="Times,serif" font-size="14.00" fill="#000000">Physicalistic</text>
</a>
</g>
</g>
<!-- Physicalistic&#45;&gt;Perspective -->
<g id="edge3" class="edge">
<title>Physicalistic&#45;&gt;Perspective</title>
<path fill="none" stroke="#000000" d="M369.6767,-31.8823C339.7032,-43.5477 296.7314,-60.2719 264.5737,-72.7873"/>
<polygon fill="none" stroke="#000000" points="263.017,-69.6373 254.9673,-76.526 265.5559,-76.1607 263.017,-69.6373"/>
</g>
<!-- key1 -->
<g id="node6" class="node">
<title>key1</title>
<text text-anchor="start" x="496.3466" y="-13.8" font-family="Times,serif" font-size="14.00" fill="#000000">isA</text>
</g>
<!-- key2 -->
<g id="node7" class="node">
<title>key2</title>
<text text-anchor="start" x="575.3466" y="-13.8" font-family="Times,serif" font-size="14.00" fill="#000000"> </text>
</g>
<!-- key1&#45;&gt;key2 -->
<g id="edge5" class="edge">
<title>key1:e&#45;&gt;key2:w</title>
<path fill="none" stroke="#000000" d="M517.3466,-19C538.3466,-19 546.0575,-19 562.9047,-19"/>
<polygon fill="none" stroke="#000000" points="563.3466,-22.5001 573.3466,-19 563.3466,-15.5001 563.3466,-22.5001"/>
</g>
</g>
</svg>
