<?xml version="1.0" encoding="UTF-8" standalone="no"?>
<!DOCTYPE svg PUBLIC "-//W3C//DTD SVG 1.1//EN"
 "http://www.w3.org/Graphics/SVG/1.1/DTD/svg11.dtd">
<!-- Generated by graphviz version 2.40.1 (20161225.0304)
 -->
<!-- Title: %3 Pages: 1 -->
<svg width="612pt" height="116pt"
 viewBox="0.00 0.00 612.25 116.00" xmlns="http://www.w3.org/2000/svg" xmlns:xlink="http://www.w3.org/1999/xlink">
<g id="graph0" class="graph" transform="scale(1 1) rotate(0) translate(4 112)">
<title>%3</title>
<polygon fill="#ffffff" stroke="transparent" points="-4,4 -4,-112 608.2451,-112 608.2451,4 -4,4"/>
<!-- Perspective -->
<g id="node1" class="node">
<title>Perspective</title>
<g id="a_node1"><a xlink:href="http://emmo.info/emmo/top#EMMO_49267eba_5548_4163_8f36_518d65b583f9" xlink:title="Perspective">
<ellipse fill="#ffffcc" stroke="#000000" stroke-width="2" cx="254.2451" cy="-90" rx="51.1914" ry="18"/>
<text text-anchor="middle" x="254.2451" y="-86.3" font-family="Times,serif" font-size="14.00" fill="#000000">Perspective</text>
</a>
</g>
</g>
<!-- Physicalistic -->
<g id="node2" class="node">
<title>Physicalistic</title>
<g id="a_node2"><a xlink:href="http://emmo.info/emmo/middle/physicalistic#EMMO_98ada9d8_f1c8_4f13_99b5_d890f5354152" xlink:title="Physicalistic">
<ellipse fill="#ffc880" stroke="#000000" stroke-width="2" cx="55.2451" cy="-18" rx="55.4913" ry="18"/>
<text text-anchor="middle" x="55.2451" y="-14.3" font-family="Times,serif" font-size="14.00" fill="#000000">Physicalistic</text>
</a>
</g>
</g>
<!-- Physicalistic&#45;&gt;Perspective -->
<g id="edge2" class="edge">
<title>Physicalistic&#45;&gt;Perspective</title>
<path fill="none" stroke="#000000" d="M92.6755,-31.5426C125.6077,-43.4578 173.6439,-60.8378 208.7786,-73.5498"/>
<polygon fill="none" stroke="#000000" points="207.7287,-76.8919 218.3229,-77.003 210.1103,-70.3095 207.7287,-76.8919"/>
</g>
<!-- Reductionistic -->
<g id="node3" class="node">
<title>Reductionistic</title>
<g id="a_node3"><a xlink:href="http://emmo.info/emmo/middle/reductionistic#EMMO_15db234d_ecaf_4715_9838_4b4ec424fb13" xlink:title="Reductionistic">
<ellipse fill="#ffc880" stroke="#000000" stroke-width="2" cx="190.2451" cy="-18" rx="61.99" ry="18"/>
<text text-anchor="middle" x="190.2451" y="-14.3" font-family="Times,serif" font-size="14.00" fill="#000000">Reductionistic</text>
</a>
</g>
</g>
<!-- Reductionistic&#45;&gt;Perspective -->
<g id="edge1" class="edge">
<title>Reductionistic&#45;&gt;Perspective</title>
<path fill="none" stroke="#000000" d="M205.7377,-35.4292C213.6776,-44.3615 223.4845,-55.3944 232.1981,-65.1971"/>
<polygon fill="none" stroke="#000000" points="229.6355,-67.5825 238.8952,-72.7313 234.8674,-62.9319 229.6355,-67.5825"/>
</g>
<!-- Perceptual -->
<g id="node4" class="node">
<title>Perceptual</title>
<g id="a_node4"><a xlink:href="http://emmo.info/emmo/middle/perceptual#EMMO_649bf97b_4397_4005_90d9_219755d92e34" xlink:title="Perceptual">
<ellipse fill="#ffffcc" stroke="#000000" stroke-width="2" cx="318.2451" cy="-18" rx="48.1917" ry="18"/>
<text text-anchor="middle" x="318.2451" y="-14.3" font-family="Times,serif" font-size="14.00" fill="#000000">Perceptual</text>
</a>
</g>
</g>
<!-- Perceptual&#45;&gt;Perspective -->
<g id="edge4" class="edge">
<title>Perceptual&#45;&gt;Perspective</title>
<path fill="none" stroke="#000000" d="M302.7525,-35.4292C294.8126,-44.3615 285.0057,-55.3944 276.2921,-65.1971"/>
<polygon fill="none" stroke="#000000" points="273.6228,-62.9319 269.595,-72.7313 278.8547,-67.5825 273.6228,-62.9319"/>
</g>
<!-- Holistic -->
<g id="node5" class="node">
<title>Holistic</title>
<g id="a_node5"><a xlink:href="http://emmo.info/emmo/middle/holistic#EMMO_0277f24a_ea7f_4917_81b7_fb0406c8fc62" xlink:title="Holistic">
<ellipse fill="#ffc880" stroke="#000000" stroke-width="2" cx="422.2451" cy="-18" rx="38.1938" ry="18"/>
<text text-anchor="middle" x="422.2451" y="-14.3" font-family="Times,serif" font-size="14.00" fill="#000000">Holistic</text>
</a>
</g>
</g>
<!-- Holistic&#45;&gt;Perspective -->
<g id="edge3" class="edge">
<title>Holistic&#45;&gt;Perspective</title>
<path fill="none" stroke="#000000" d="M393.7462,-30.2138C367.0526,-41.6539 326.8242,-58.8947 296.4157,-71.9269"/>
<polygon fill="none" stroke="#000000" points="294.7302,-68.8413 286.9174,-75.9976 297.4876,-75.2753 294.7302,-68.8413"/>
</g>
<!-- key1 -->
<g id="node6" class="node">
<title>key1</title>
<text text-anchor="start" x="496.2451" y="-13.8" font-family="Times,serif" font-size="14.00" fill="#000000">isA</text>
</g>
<!-- key2 -->
<g id="node7" class="node">
<title>key2</title>
<text text-anchor="start" x="575.2451" y="-13.8" font-family="Times,serif" font-size="14.00" fill="#000000"> </text>
</g>
<!-- key1&#45;&gt;key2 -->
<g id="edge5" class="edge">
<title>key1:e&#45;&gt;key2:w</title>
<path fill="none" stroke="#000000" d="M517.2451,-19C538.2451,-19 545.956,-19 562.8032,-19"/>
<polygon fill="none" stroke="#000000" points="563.2451,-22.5001 573.2451,-19 563.2451,-15.5001 563.2451,-22.5001"/>
</g>
</g>
</svg>
