<?xml version="1.0" encoding="UTF-8" standalone="no"?>
<!DOCTYPE svg PUBLIC "-//W3C//DTD SVG 1.1//EN"
 "http://www.w3.org/Graphics/SVG/1.1/DTD/svg11.dtd">
<!-- Generated by graphviz version 2.40.1 (20161225.0304)
 -->
<!-- Title: %3 Pages: 1 -->
<svg width="612pt" height="116pt"
 viewBox="0.00 0.00 612.10 116.00" xmlns="http://www.w3.org/2000/svg" xmlns:xlink="http://www.w3.org/1999/xlink">
<g id="graph0" class="graph" transform="scale(1 1) rotate(0) translate(4 112)">
<title>%3</title>
<polygon fill="#ffffff" stroke="transparent" points="-4,4 -4,-112 608.0957,-112 608.0957,4 -4,4"/>
<!-- Perceptual -->
<g id="node1" class="node">
<title>Perceptual</title>
<g id="a_node1"><a xlink:href="http://emmo.info/emmo/middle/perceptual#EMMO_649bf97b_4397_4005_90d9_219755d92e34" xlink:title="Perceptual">
<ellipse fill="#ffffcc" stroke="#000000" stroke-width="2" cx="48.0957" cy="-18" rx="48.1917" ry="18"/>
<text text-anchor="middle" x="48.0957" y="-14.3" font-family="Times,serif" font-size="14.00" fill="#000000">Perceptual</text>
</a>
</g>
</g>
<!-- Perspective -->
<g id="node3" class="node">
<title>Perspective</title>
<g id="a_node3"><a xlink:href="http://emmo.info/emmo/top#EMMO_49267eba_5548_4163_8f36_518d65b583f9" xlink:title="Perspective">
<ellipse fill="#ffffcc" stroke="#000000" stroke-width="2" cx="211.0957" cy="-90" rx="51.1914" ry="18"/>
<text text-anchor="middle" x="211.0957" y="-86.3" font-family="Times,serif" font-size="14.00" fill="#000000">Perspective</text>
</a>
</g>
</g>
<!-- Perceptual&#45;&gt;Perspective -->
<g id="edge3" class="edge">
<title>Perceptual&#45;&gt;Perspective</title>
<path fill="none" stroke="#000000" d="M79.5238,-31.8823C105.2066,-43.2269 141.7205,-59.3557 169.769,-71.7452"/>
<polygon fill="none" stroke="#000000" points="168.3671,-74.9522 178.9287,-75.7912 171.1955,-68.5491 168.3671,-74.9522"/>
</g>
<!-- Holistic -->
<g id="node2" class="node">
<title>Holistic</title>
<g id="a_node2"><a xlink:href="http://emmo.info/emmo/middle/holistic#EMMO_0277f24a_ea7f_4917_81b7_fb0406c8fc62" xlink:title="Holistic">
<ellipse fill="#ffc880" stroke="#000000" stroke-width="2" cx="152.0957" cy="-18" rx="38.1938" ry="18"/>
<text text-anchor="middle" x="152.0957" y="-14.3" font-family="Times,serif" font-size="14.00" fill="#000000">Holistic</text>
</a>
</g>
</g>
<!-- Holistic&#45;&gt;Perspective -->
<g id="edge1" class="edge">
<title>Holistic&#45;&gt;Perspective</title>
<path fill="none" stroke="#000000" d="M166.0779,-35.063C173.3191,-43.8997 182.3042,-54.8646 190.3383,-64.6689"/>
<polygon fill="none" stroke="#000000" points="187.7586,-67.0429 196.8041,-72.5593 193.173,-62.6061 187.7586,-67.0429"/>
</g>
<!-- Reductionistic -->
<g id="node4" class="node">
<title>Reductionistic</title>
<g id="a_node4"><a xlink:href="http://emmo.info/emmo/middle/reductionistic#EMMO_15db234d_ecaf_4715_9838_4b4ec424fb13" xlink:title="Reductionistic">
<ellipse fill="#ffc880" stroke="#000000" stroke-width="2" cx="270.0957" cy="-18" rx="61.99" ry="18"/>
<text text-anchor="middle" x="270.0957" y="-14.3" font-family="Times,serif" font-size="14.00" fill="#000000">Reductionistic</text>
</a>
</g>
</g>
<!-- Reductionistic&#45;&gt;Perspective -->
<g id="edge4" class="edge">
<title>Reductionistic&#45;&gt;Perspective</title>
<path fill="none" stroke="#000000" d="M255.5115,-35.7978C248.3854,-44.494 239.6835,-55.1133 231.8767,-64.6402"/>
<polygon fill="none" stroke="#000000" points="228.9397,-62.7022 225.3087,-72.6554 234.3541,-67.139 228.9397,-62.7022"/>
</g>
<!-- Physicalistic -->
<g id="node5" class="node">
<title>Physicalistic</title>
<g id="a_node5"><a xlink:href="http://emmo.info/emmo/middle/physicalistic#EMMO_98ada9d8_f1c8_4f13_99b5_d890f5354152" xlink:title="Physicalistic">
<ellipse fill="#ffc880" stroke="#000000" stroke-width="2" cx="405.0957" cy="-18" rx="55.4913" ry="18"/>
<text text-anchor="middle" x="405.0957" y="-14.3" font-family="Times,serif" font-size="14.00" fill="#000000">Physicalistic</text>
</a>
</g>
</g>
<!-- Physicalistic&#45;&gt;Perspective -->
<g id="edge2" class="edge">
<title>Physicalistic&#45;&gt;Perspective</title>
<path fill="none" stroke="#000000" d="M368.6058,-31.5426C336.7381,-43.3698 290.3626,-60.5814 256.1808,-73.2674"/>
<polygon fill="none" stroke="#000000" points="254.5978,-70.1216 246.4404,-76.8824 257.0334,-76.6842 254.5978,-70.1216"/>
</g>
<!-- key1 -->
<g id="node6" class="node">
<title>key1</title>
<text text-anchor="start" x="496.0957" y="-13.8" font-family="Times,serif" font-size="14.00" fill="#000000">isA</text>
</g>
<!-- key2 -->
<g id="node7" class="node">
<title>key2</title>
<text text-anchor="start" x="575.0957" y="-13.8" font-family="Times,serif" font-size="14.00" fill="#000000"> </text>
</g>
<!-- key1&#45;&gt;key2 -->
<g id="edge5" class="edge">
<title>key1:e&#45;&gt;key2:w</title>
<path fill="none" stroke="#000000" d="M517.0957,-19C538.0957,-19 545.8067,-19 562.6538,-19"/>
<polygon fill="none" stroke="#000000" points="563.0958,-22.5001 573.0957,-19 563.0957,-15.5001 563.0958,-22.5001"/>
</g>
</g>
</svg>
