<?xml version="1.0" encoding="UTF-8" standalone="no"?>
<!DOCTYPE svg PUBLIC "-//W3C//DTD SVG 1.1//EN"
 "http://www.w3.org/Graphics/SVG/1.1/DTD/svg11.dtd">
<!-- Generated by graphviz version 2.40.1 (20161225.0304)
 -->
<!-- Title: %3 Pages: 1 -->
<svg width="612pt" height="116pt"
 viewBox="0.00 0.00 611.74 116.00" xmlns="http://www.w3.org/2000/svg" xmlns:xlink="http://www.w3.org/1999/xlink">
<g id="graph0" class="graph" transform="scale(1 1) rotate(0) translate(4 112)">
<title>%3</title>
<polygon fill="#ffffff" stroke="transparent" points="-4,4 -4,-112 607.7445,-112 607.7445,4 -4,4"/>
<!-- Perspective -->
<g id="node1" class="node">
<title>Perspective</title>
<g id="a_node1"><a xlink:href="http://emmo.info/emmo/top#EMMO_49267eba_5548_4163_8f36_518d65b583f9" xlink:title="Perspective">
<ellipse fill="#ffffcc" stroke="#000000" stroke-width="2" cx="256.7445" cy="-90" rx="51.1914" ry="18"/>
<text text-anchor="middle" x="256.7445" y="-86.3" font-family="Times,serif" font-size="14.00" fill="#000000">Perspective</text>
</a>
</g>
</g>
<!-- Reductionistic -->
<g id="node2" class="node">
<title>Reductionistic</title>
<g id="a_node2"><a xlink:href="http://emmo.info/emmo/middle/reductionistic#EMMO_15db234d_ecaf_4715_9838_4b4ec424fb13" xlink:title="Reductionistic">
<ellipse fill="#ffc880" stroke="#000000" stroke-width="2" cx="61.7445" cy="-18" rx="61.99" ry="18"/>
<text text-anchor="middle" x="61.7445" y="-14.3" font-family="Times,serif" font-size="14.00" fill="#000000">Reductionistic</text>
</a>
</g>
</g>
<!-- Reductionistic&#45;&gt;Perspective -->
<g id="edge3" class="edge">
<title>Reductionistic&#45;&gt;Perspective</title>
<path fill="none" stroke="#000000" d="M100.2702,-32.2249C132.2942,-44.0491 177.9144,-60.8935 211.6384,-73.3454"/>
<polygon fill="none" stroke="#000000" points="210.6597,-76.715 221.253,-76.8954 213.0844,-70.1483 210.6597,-76.715"/>
</g>
<!-- Physicalistic -->
<g id="node3" class="node">
<title>Physicalistic</title>
<g id="a_node3"><a xlink:href="http://emmo.info/emmo/middle/physicalistic#EMMO_98ada9d8_f1c8_4f13_99b5_d890f5354152" xlink:title="Physicalistic">
<ellipse fill="#ffc880" stroke="#000000" stroke-width="2" cx="196.7445" cy="-18" rx="55.4913" ry="18"/>
<text text-anchor="middle" x="196.7445" y="-14.3" font-family="Times,serif" font-size="14.00" fill="#000000">Physicalistic</text>
</a>
</g>
</g>
<!-- Physicalistic&#45;&gt;Perspective -->
<g id="edge4" class="edge">
<title>Physicalistic&#45;&gt;Perspective</title>
<path fill="none" stroke="#000000" d="M211.2688,-35.4292C218.5846,-44.2081 227.5911,-55.0159 235.6535,-64.6907"/>
<polygon fill="none" stroke="#000000" points="233.0553,-67.0402 242.146,-72.4818 238.4329,-62.5589 233.0553,-67.0402"/>
</g>
<!-- Perceptual -->
<g id="node4" class="node">
<title>Perceptual</title>
<g id="a_node4"><a xlink:href="http://emmo.info/emmo/middle/perceptual#EMMO_649bf97b_4397_4005_90d9_219755d92e34" xlink:title="Perceptual">
<ellipse fill="#ffffcc" stroke="#000000" stroke-width="2" cx="317.7445" cy="-18" rx="48.1917" ry="18"/>
<text text-anchor="middle" x="317.7445" y="-14.3" font-family="Times,serif" font-size="14.00" fill="#000000">Perceptual</text>
</a>
</g>
</g>
<!-- Perceptual&#45;&gt;Perspective -->
<g id="edge2" class="edge">
<title>Perceptual&#45;&gt;Perspective</title>
<path fill="none" stroke="#000000" d="M302.9781,-35.4292C295.4854,-44.2731 286.2481,-55.1761 278.0051,-64.9055"/>
<polygon fill="none" stroke="#000000" points="275.1687,-62.839 271.3749,-72.7313 280.5096,-67.3639 275.1687,-62.839"/>
</g>
<!-- Holistic -->
<g id="node5" class="node">
<title>Holistic</title>
<g id="a_node5"><a xlink:href="http://emmo.info/emmo/middle/holistic#EMMO_0277f24a_ea7f_4917_81b7_fb0406c8fc62" xlink:title="Holistic">
<ellipse fill="#ffc880" stroke="#000000" stroke-width="2" cx="421.7445" cy="-18" rx="38.1938" ry="18"/>
<text text-anchor="middle" x="421.7445" y="-14.3" font-family="Times,serif" font-size="14.00" fill="#000000">Holistic</text>
</a>
</g>
</g>
<!-- Holistic&#45;&gt;Perspective -->
<g id="edge1" class="edge">
<title>Holistic&#45;&gt;Perspective</title>
<path fill="none" stroke="#000000" d="M393.38,-30.3772C367.1902,-41.8055 327.9687,-58.9204 298.2563,-71.8858"/>
<polygon fill="none" stroke="#000000" points="296.7377,-68.7297 288.9721,-75.9371 299.5373,-75.1454 296.7377,-68.7297"/>
</g>
<!-- key1 -->
<g id="node6" class="node">
<title>key1</title>
<text text-anchor="start" x="495.7445" y="-13.8" font-family="Times,serif" font-size="14.00" fill="#000000">isA</text>
</g>
<!-- key2 -->
<g id="node7" class="node">
<title>key2</title>
<text text-anchor="start" x="574.7445" y="-13.8" font-family="Times,serif" font-size="14.00" fill="#000000"> </text>
</g>
<!-- key1&#45;&gt;key2 -->
<g id="edge5" class="edge">
<title>key1:e&#45;&gt;key2:w</title>
<path fill="none" stroke="#000000" d="M516.7445,-19C537.7445,-19 545.4555,-19 562.3026,-19"/>
<polygon fill="none" stroke="#000000" points="562.7446,-22.5001 572.7445,-19 562.7445,-15.5001 562.7446,-22.5001"/>
</g>
</g>
</svg>
