<?xml version="1.0" encoding="UTF-8" standalone="no"?>
<!DOCTYPE svg PUBLIC "-//W3C//DTD SVG 1.1//EN"
 "http://www.w3.org/Graphics/SVG/1.1/DTD/svg11.dtd">
<!-- Generated by graphviz version 2.40.1 (20161225.0304)
 -->
<!-- Title: %3 Pages: 1 -->
<svg width="613pt" height="116pt"
 viewBox="0.00 0.00 612.74 116.00" xmlns="http://www.w3.org/2000/svg" xmlns:xlink="http://www.w3.org/1999/xlink">
<g id="graph0" class="graph" transform="scale(1 1) rotate(0) translate(4 112)">
<title>%3</title>
<polygon fill="#ffffff" stroke="transparent" points="-4,4 -4,-112 608.7445,-112 608.7445,4 -4,4"/>
<!-- Perspective -->
<g id="node1" class="node">
<title>Perspective</title>
<g id="a_node1"><a xlink:href="http://emmo.info/emmo/top#EMMO_49267eba_5548_4163_8f36_518d65b583f9" xlink:title="Perspective">
<ellipse fill="#ffffcc" stroke="#000000" stroke-width="2" cx="249.7445" cy="-90" rx="51.1914" ry="18"/>
<text text-anchor="middle" x="249.7445" y="-86.3" font-family="Times,serif" font-size="14.00" fill="#000000">Perspective</text>
</a>
</g>
</g>
<!-- Reductionistic -->
<g id="node2" class="node">
<title>Reductionistic</title>
<g id="a_node2"><a xlink:href="http://emmo.info/emmo/middle/reductionistic#EMMO_15db234d_ecaf_4715_9838_4b4ec424fb13" xlink:title="Reductionistic">
<ellipse fill="#ffc880" stroke="#000000" stroke-width="2" cx="61.7445" cy="-18" rx="61.99" ry="18"/>
<text text-anchor="middle" x="61.7445" y="-14.3" font-family="Times,serif" font-size="14.00" fill="#000000">Reductionistic</text>
</a>
</g>
</g>
<!-- Reductionistic&#45;&gt;Perspective -->
<g id="edge3" class="edge">
<title>Reductionistic&#45;&gt;Perspective</title>
<path fill="none" stroke="#000000" d="M99.3373,-32.3972C129.9266,-44.1123 173.1623,-60.6706 205.433,-73.0296"/>
<polygon fill="none" stroke="#000000" points="204.4795,-76.4123 215.0699,-76.7204 206.9831,-69.8753 204.4795,-76.4123"/>
</g>
<!-- Perceptual -->
<g id="node3" class="node">
<title>Perceptual</title>
<g id="a_node3"><a xlink:href="http://emmo.info/emmo/middle/perceptual#EMMO_649bf97b_4397_4005_90d9_219755d92e34" xlink:title="Perceptual">
<ellipse fill="#ffffcc" stroke="#000000" stroke-width="2" cx="189.7445" cy="-18" rx="48.1917" ry="18"/>
<text text-anchor="middle" x="189.7445" y="-14.3" font-family="Times,serif" font-size="14.00" fill="#000000">Perceptual</text>
</a>
</g>
</g>
<!-- Perceptual&#45;&gt;Perspective -->
<g id="edge4" class="edge">
<title>Perceptual&#45;&gt;Perspective</title>
<path fill="none" stroke="#000000" d="M204.2688,-35.4292C211.5846,-44.2081 220.5911,-55.0159 228.6535,-64.6907"/>
<polygon fill="none" stroke="#000000" points="226.0553,-67.0402 235.146,-72.4818 231.4329,-62.5589 226.0553,-67.0402"/>
</g>
<!-- Physicalistic -->
<g id="node4" class="node">
<title>Physicalistic</title>
<g id="a_node4"><a xlink:href="http://emmo.info/emmo/middle/physicalistic#EMMO_98ada9d8_f1c8_4f13_99b5_d890f5354152" xlink:title="Physicalistic">
<ellipse fill="#ffc880" stroke="#000000" stroke-width="2" cx="310.7445" cy="-18" rx="55.4913" ry="18"/>
<text text-anchor="middle" x="310.7445" y="-14.3" font-family="Times,serif" font-size="14.00" fill="#000000">Physicalistic</text>
</a>
</g>
</g>
<!-- Physicalistic&#45;&gt;Perspective -->
<g id="edge2" class="edge">
<title>Physicalistic&#45;&gt;Perspective</title>
<path fill="none" stroke="#000000" d="M295.9781,-35.4292C288.4854,-44.2731 279.2481,-55.1761 271.0051,-64.9055"/>
<polygon fill="none" stroke="#000000" points="268.1687,-62.839 264.3749,-72.7313 273.5096,-67.3639 268.1687,-62.839"/>
</g>
<!-- Holistic -->
<g id="node5" class="node">
<title>Holistic</title>
<g id="a_node5"><a xlink:href="http://emmo.info/emmo/middle/holistic#EMMO_0277f24a_ea7f_4917_81b7_fb0406c8fc62" xlink:title="Holistic">
<ellipse fill="#ffc880" stroke="#000000" stroke-width="2" cx="422.7445" cy="-18" rx="38.1938" ry="18"/>
<text text-anchor="middle" x="422.7445" y="-14.3" font-family="Times,serif" font-size="14.00" fill="#000000">Holistic</text>
</a>
</g>
</g>
<!-- Holistic&#45;&gt;Perspective -->
<g id="edge1" class="edge">
<title>Holistic&#45;&gt;Perspective</title>
<path fill="none" stroke="#000000" d="M393.7882,-30.0512C366.0677,-41.588 323.9174,-59.1304 292.3637,-72.2625"/>
<polygon fill="none" stroke="#000000" points="290.8266,-69.1112 282.9391,-76.1849 293.5163,-75.5738 290.8266,-69.1112"/>
</g>
<!-- key1 -->
<g id="node6" class="node">
<title>key1</title>
<text text-anchor="start" x="496.7445" y="-13.8" font-family="Times,serif" font-size="14.00" fill="#000000">isA</text>
</g>
<!-- key2 -->
<g id="node7" class="node">
<title>key2</title>
<text text-anchor="start" x="575.7445" y="-13.8" font-family="Times,serif" font-size="14.00" fill="#000000"> </text>
</g>
<!-- key1&#45;&gt;key2 -->
<g id="edge5" class="edge">
<title>key1:e&#45;&gt;key2:w</title>
<path fill="none" stroke="#000000" d="M517.7445,-19C538.7445,-19 546.4555,-19 563.3026,-19"/>
<polygon fill="none" stroke="#000000" points="563.7446,-22.5001 573.7445,-19 563.7445,-15.5001 563.7446,-22.5001"/>
</g>
</g>
</svg>
