<?xml version="1.0" encoding="UTF-8" standalone="no"?>
<!DOCTYPE svg PUBLIC "-//W3C//DTD SVG 1.1//EN"
 "http://www.w3.org/Graphics/SVG/1.1/DTD/svg11.dtd">
<!-- Generated by graphviz version 2.40.1 (20161225.0304)
 -->
<!-- Title: %3 Pages: 1 -->
<svg width="613pt" height="116pt"
 viewBox="0.00 0.00 613.25 116.00" xmlns="http://www.w3.org/2000/svg" xmlns:xlink="http://www.w3.org/1999/xlink">
<g id="graph0" class="graph" transform="scale(1 1) rotate(0) translate(4 112)">
<title>%3</title>
<polygon fill="#ffffff" stroke="transparent" points="-4,4 -4,-112 609.2451,-112 609.2451,4 -4,4"/>
<!-- Physicalistic -->
<g id="node1" class="node">
<title>Physicalistic</title>
<g id="a_node1"><a xlink:href="http://emmo.info/emmo/middle/physicalistic#EMMO_98ada9d8_f1c8_4f13_99b5_d890f5354152" xlink:title="Physicalistic">
<ellipse fill="#ffc880" stroke="#000000" stroke-width="2" cx="55.2451" cy="-18" rx="55.4913" ry="18"/>
<text text-anchor="middle" x="55.2451" y="-14.3" font-family="Times,serif" font-size="14.00" fill="#000000">Physicalistic</text>
</a>
</g>
</g>
<!-- Perspective -->
<g id="node4" class="node">
<title>Perspective</title>
<g id="a_node4"><a xlink:href="http://emmo.info/emmo/top#EMMO_49267eba_5548_4163_8f36_518d65b583f9" xlink:title="Perspective">
<ellipse fill="#ffffcc" stroke="#000000" stroke-width="2" cx="219.2451" cy="-90" rx="51.1914" ry="18"/>
<text text-anchor="middle" x="219.2451" y="-86.3" font-family="Times,serif" font-size="14.00" fill="#000000">Perspective</text>
</a>
</g>
</g>
<!-- Physicalistic&#45;&gt;Perspective -->
<g id="edge4" class="edge">
<title>Physicalistic&#45;&gt;Perspective</title>
<path fill="none" stroke="#000000" d="M88.4329,-32.5703C114.1365,-43.8547 149.9004,-59.556 177.5379,-71.6895"/>
<polygon fill="none" stroke="#000000" points="176.3815,-75.0042 186.9449,-75.8194 179.1955,-68.5947 176.3815,-75.0042"/>
</g>
<!-- Holistic -->
<g id="node2" class="node">
<title>Holistic</title>
<g id="a_node2"><a xlink:href="http://emmo.info/emmo/middle/holistic#EMMO_0277f24a_ea7f_4917_81b7_fb0406c8fc62" xlink:title="Holistic">
<ellipse fill="#ffc880" stroke="#000000" stroke-width="2" cx="167.2451" cy="-18" rx="38.1938" ry="18"/>
<text text-anchor="middle" x="167.2451" y="-14.3" font-family="Times,serif" font-size="14.00" fill="#000000">Holistic</text>
</a>
</g>
</g>
<!-- Holistic&#45;&gt;Perspective -->
<g id="edge1" class="edge">
<title>Holistic&#45;&gt;Perspective</title>
<path fill="none" stroke="#000000" d="M179.5684,-35.063C185.8402,-43.7471 193.5963,-54.4863 200.5826,-64.1596"/>
<polygon fill="none" stroke="#000000" points="197.7749,-66.25 206.4672,-72.3076 203.4497,-62.1515 197.7749,-66.25"/>
</g>
<!-- Perceptual -->
<g id="node3" class="node">
<title>Perceptual</title>
<g id="a_node3"><a xlink:href="http://emmo.info/emmo/middle/perceptual#EMMO_649bf97b_4397_4005_90d9_219755d92e34" xlink:title="Perceptual">
<ellipse fill="#ffffcc" stroke="#000000" stroke-width="2" cx="271.2451" cy="-18" rx="48.1917" ry="18"/>
<text text-anchor="middle" x="271.2451" y="-14.3" font-family="Times,serif" font-size="14.00" fill="#000000">Perceptual</text>
</a>
</g>
</g>
<!-- Perceptual&#45;&gt;Perspective -->
<g id="edge3" class="edge">
<title>Perceptual&#45;&gt;Perspective</title>
<path fill="none" stroke="#000000" d="M258.6573,-35.4292C252.4439,-44.0325 244.8231,-54.5844 237.9442,-64.1089"/>
<polygon fill="none" stroke="#000000" points="234.9147,-62.3257 231.8972,-72.4818 240.5895,-66.4242 234.9147,-62.3257"/>
</g>
<!-- Reductionistic -->
<g id="node5" class="node">
<title>Reductionistic</title>
<g id="a_node5"><a xlink:href="http://emmo.info/emmo/middle/reductionistic#EMMO_15db234d_ecaf_4715_9838_4b4ec424fb13" xlink:title="Reductionistic">
<ellipse fill="#ffc880" stroke="#000000" stroke-width="2" cx="399.2451" cy="-18" rx="61.99" ry="18"/>
<text text-anchor="middle" x="399.2451" y="-14.3" font-family="Times,serif" font-size="14.00" fill="#000000">Reductionistic</text>
</a>
</g>
</g>
<!-- Reductionistic&#45;&gt;Perspective -->
<g id="edge2" class="edge">
<title>Reductionistic&#45;&gt;Perspective</title>
<path fill="none" stroke="#000000" d="M362.8194,-32.5703C333.8984,-44.1387 293.3727,-60.349 262.7487,-72.5986"/>
<polygon fill="none" stroke="#000000" points="261.1659,-69.462 253.181,-76.4256 263.7657,-75.9613 261.1659,-69.462"/>
</g>
<!-- key1 -->
<g id="node6" class="node">
<title>key1</title>
<text text-anchor="start" x="497.2451" y="-13.8" font-family="Times,serif" font-size="14.00" fill="#000000">isA</text>
</g>
<!-- key2 -->
<g id="node7" class="node">
<title>key2</title>
<text text-anchor="start" x="576.2451" y="-13.8" font-family="Times,serif" font-size="14.00" fill="#000000"> </text>
</g>
<!-- key1&#45;&gt;key2 -->
<g id="edge5" class="edge">
<title>key1:e&#45;&gt;key2:w</title>
<path fill="none" stroke="#000000" d="M518.2451,-19C539.2451,-19 546.956,-19 563.8032,-19"/>
<polygon fill="none" stroke="#000000" points="564.2451,-22.5001 574.2451,-19 564.2451,-15.5001 564.2451,-22.5001"/>
</g>
</g>
</svg>
