<?xml version="1.0" encoding="UTF-8" standalone="no"?>
<!DOCTYPE svg PUBLIC "-//W3C//DTD SVG 1.1//EN"
 "http://www.w3.org/Graphics/SVG/1.1/DTD/svg11.dtd">
<!-- Generated by graphviz version 2.40.1 (20161225.0304)
 -->
<!-- Title: %3 Pages: 1 -->
<svg width="1488pt" height="260pt"
 viewBox="0.00 0.00 1487.69 260.00" xmlns="http://www.w3.org/2000/svg" xmlns:xlink="http://www.w3.org/1999/xlink">
<g id="graph0" class="graph" transform="scale(1 1) rotate(0) translate(4 256)">
<title>%3</title>
<polygon fill="#ffffff" stroke="transparent" points="-4,4 -4,-256 1483.6932,-256 1483.6932,4 -4,4"/>
<!-- LuminousEfficacy -->
<g id="node1" class="node">
<title>LuminousEfficacy</title>
<g id="a_node1"><a xlink:href="http://emmo.info/emmo/middle/siunits#EMMO_506f7823_52bc_40cb_be07_b3b1e10cce13" xlink:title="LuminousEfficacy">
<ellipse fill="#ffffcc" stroke="#000000" cx="76.6932" cy="-18" rx="76.8869" ry="18"/>
<text text-anchor="middle" x="76.6932" y="-14.3" font-family="Times,serif" font-size="14.00" fill="#000000">LuminousEfficacy</text>
</a>
</g>
</g>
<!-- SIExactConstant -->
<g id="node2" class="node">
<title>SIExactConstant</title>
<g id="a_node2"><a xlink:href="http://emmo.info/emmo/middle/siunits#EMMO_f2ca6dd0_0e5f_4392_a92d_cafdae6cfc95" xlink:title="SIExactConstant">
<ellipse fill="#ffffcc" stroke="#000000" cx="743.6932" cy="-90" rx="69.5877" ry="18"/>
<text text-anchor="middle" x="743.6932" y="-86.3" font-family="Times,serif" font-size="14.00" fill="#000000">SIExactConstant</text>
</a>
</g>
</g>
<!-- LuminousEfficacy&#45;&gt;SIExactConstant -->
<g id="edge4" class="edge">
<title>LuminousEfficacy&#45;&gt;SIExactConstant</title>
<path fill="none" stroke="#000000" d="M132.0405,-30.5497C142.1995,-32.5777 152.7378,-34.5005 162.6932,-36 341.4312,-62.9223 553.2594,-78.5484 665.2203,-85.5462"/>
<polygon fill="none" stroke="#000000" points="665.213,-89.0524 675.4101,-86.1765 665.6452,-82.0657 665.213,-89.0524"/>
</g>
<!-- ExactConstant -->
<g id="node4" class="node">
<title>ExactConstant</title>
<g id="a_node4"><a xlink:href="http://emmo.info/emmo/middle/metrology#EMMO_89762966_8076_4f7c_b745_f718d653e8e2" xlink:title="ExactConstant">
<ellipse fill="#ffffcc" stroke="#000000" cx="743.6932" cy="-162" rx="61.99" ry="18"/>
<text text-anchor="middle" x="743.6932" y="-158.3" font-family="Times,serif" font-size="14.00" fill="#000000">ExactConstant</text>
</a>
</g>
</g>
<!-- SIExactConstant&#45;&gt;ExactConstant -->
<g id="edge1" class="edge">
<title>SIExactConstant&#45;&gt;ExactConstant</title>
<path fill="none" stroke="#000000" d="M743.6932,-108.1686C743.6932,-115.869 743.6932,-125.0257 743.6932,-133.5834"/>
<polygon fill="none" stroke="#000000" points="740.1933,-133.5867 743.6932,-143.5867 747.1933,-133.5868 740.1933,-133.5867"/>
</g>
<!-- BoltzmannConstant -->
<g id="node3" class="node">
<title>BoltzmannConstant</title>
<g id="a_node3"><a xlink:href="http://emmo.info/emmo/middle/siunits#EMMO_ffc7735f_c177_46a4_98e9_a54440d29209" xlink:title="BoltzmannConstant">
<ellipse fill="#ffffcc" stroke="#000000" cx="252.6932" cy="-18" rx="81.4863" ry="18"/>
<text text-anchor="middle" x="252.6932" y="-14.3" font-family="Times,serif" font-size="14.00" fill="#000000">BoltzmannConstant</text>
</a>
</g>
</g>
<!-- BoltzmannConstant&#45;&gt;SIExactConstant -->
<g id="edge7" class="edge">
<title>BoltzmannConstant&#45;&gt;SIExactConstant</title>
<path fill="none" stroke="#000000" d="M312.1412,-30.4441C322.3133,-32.4143 332.7919,-34.3449 342.6932,-36 456.4775,-55.02 589.2993,-71.8598 669.9072,-81.4893"/>
<polygon fill="none" stroke="#000000" points="669.6144,-84.979 679.9578,-82.6849 670.4413,-78.028 669.6144,-84.979"/>
</g>
<!-- PhysicalConstant -->
<g id="node9" class="node">
<title>PhysicalConstant</title>
<g id="a_node9"><a xlink:href="http://emmo.info/emmo/middle/metrology#EMMO_b953f2b1_c8d1_4dd9_b630_d3ef6580c2bb" xlink:title="PhysicalConstant">
<ellipse fill="#ffffcc" stroke="#000000" stroke-width="2" cx="821.6932" cy="-234" rx="71.4873" ry="18"/>
<text text-anchor="middle" x="821.6932" y="-230.3" font-family="Times,serif" font-size="14.00" fill="#000000">PhysicalConstant</text>
</a>
</g>
</g>
<!-- ExactConstant&#45;&gt;PhysicalConstant -->
<g id="edge3" class="edge">
<title>ExactConstant&#45;&gt;PhysicalConstant</title>
<path fill="none" stroke="#000000" d="M762.5748,-179.4292C772.3706,-188.4714 784.4982,-199.6662 795.2147,-209.5583"/>
<polygon fill="none" stroke="#000000" points="792.9931,-212.2708 802.7151,-216.4818 797.741,-207.1271 792.9931,-212.2708"/>
</g>
<!-- HyperfineTransitionFrequencyOfCs -->
<g id="node5" class="node">
<title>HyperfineTransitionFrequencyOfCs</title>
<g id="a_node5"><a xlink:href="http://emmo.info/emmo/middle/siunits#EMMO_f96feb3f_4438_4e43_aa44_7458c4d87fc2" xlink:title="HyperfineTransitionFrequencyOfCs">
<ellipse fill="#ffffcc" stroke="#000000" cx="489.6932" cy="-18" rx="137.5759" ry="18"/>
<text text-anchor="middle" x="489.6932" y="-14.3" font-family="Times,serif" font-size="14.00" fill="#000000">HyperfineTransitionFrequencyOfCs</text>
</a>
</g>
</g>
<!-- HyperfineTransitionFrequencyOfCs&#45;&gt;SIExactConstant -->
<g id="edge8" class="edge">
<title>HyperfineTransitionFrequencyOfCs&#45;&gt;SIExactConstant</title>
<path fill="none" stroke="#000000" d="M547.6475,-34.428C589.397,-46.2625 645.4491,-62.1513 686.9244,-73.908"/>
<polygon fill="none" stroke="#000000" points="686.028,-77.2918 696.6035,-76.6517 687.9371,-70.5571 686.028,-77.2918"/>
</g>
<!-- SpeedOfLightInVacuum -->
<g id="node6" class="node">
<title>SpeedOfLightInVacuum</title>
<g id="a_node6"><a xlink:href="http://emmo.info/emmo/middle/siunits#EMMO_99296e55_53f7_4333_9e06_760ad175a1b9" xlink:title="SpeedOfLightInVacuum">
<ellipse fill="#ffffcc" stroke="#000000" cx="743.6932" cy="-18" rx="98.2828" ry="18"/>
<text text-anchor="middle" x="743.6932" y="-14.3" font-family="Times,serif" font-size="14.00" fill="#000000">SpeedOfLightInVacuum</text>
</a>
</g>
</g>
<!-- SpeedOfLightInVacuum&#45;&gt;SIExactConstant -->
<g id="edge10" class="edge">
<title>SpeedOfLightInVacuum&#45;&gt;SIExactConstant</title>
<path fill="none" stroke="#000000" d="M743.6932,-36.1686C743.6932,-43.869 743.6932,-53.0257 743.6932,-61.5834"/>
<polygon fill="none" stroke="#000000" points="740.1933,-61.5867 743.6932,-71.5867 747.1933,-61.5868 740.1933,-61.5867"/>
</g>
<!-- MeasuredConstant -->
<g id="node7" class="node">
<title>MeasuredConstant</title>
<g id="a_node7"><a xlink:href="http://emmo.info/emmo/middle/metrology#EMMO_3f15d200_c97b_42c8_8ac0_d81d150361e2" xlink:title="MeasuredConstant">
<ellipse fill="#ffffcc" stroke="#000000" cx="900.6932" cy="-162" rx="77.1866" ry="18"/>
<text text-anchor="middle" x="900.6932" y="-158.3" font-family="Times,serif" font-size="14.00" fill="#000000">MeasuredConstant</text>
</a>
</g>
</g>
<!-- MeasuredConstant&#45;&gt;PhysicalConstant -->
<g id="edge2" class="edge">
<title>MeasuredConstant&#45;&gt;PhysicalConstant</title>
<path fill="none" stroke="#000000" d="M881.1651,-179.7978C871.3114,-188.7783 859.2075,-199.8098 848.4971,-209.5711"/>
<polygon fill="none" stroke="#000000" points="846.03,-207.0841 840.9967,-216.407 850.7452,-212.2577 846.03,-207.0841"/>
</g>
<!-- ElementaryCharge -->
<g id="node8" class="node">
<title>ElementaryCharge</title>
<g id="a_node8"><a xlink:href="http://emmo.info/emmo/middle/siunits#EMMO_58a650f0_a638_4743_8439_535a325e5c4c" xlink:title="ElementaryCharge">
<ellipse fill="#ffffcc" stroke="#000000" cx="936.6932" cy="-18" rx="77.1866" ry="18"/>
<text text-anchor="middle" x="936.6932" y="-14.3" font-family="Times,serif" font-size="14.00" fill="#000000">ElementaryCharge</text>
</a>
</g>
</g>
<!-- ElementaryCharge&#45;&gt;SIExactConstant -->
<g id="edge6" class="edge">
<title>ElementaryCharge&#45;&gt;SIExactConstant</title>
<path fill="none" stroke="#000000" d="M895.2899,-33.4458C865.277,-44.6423 824.5711,-59.8279 792.8968,-71.6443"/>
<polygon fill="none" stroke="#000000" points="791.5245,-68.4205 783.3786,-75.1951 793.9712,-74.979 791.5245,-68.4205"/>
</g>
<!-- PlanckConstant -->
<g id="node10" class="node">
<title>PlanckConstant</title>
<g id="a_node10"><a xlink:href="http://emmo.info/emmo/middle/siunits#EMMO_76cc4efc_231e_42b4_be83_2547681caed6" xlink:title="PlanckConstant">
<ellipse fill="#ffffcc" stroke="#000000" cx="1097.6932" cy="-18" rx="65.7887" ry="18"/>
<text text-anchor="middle" x="1097.6932" y="-14.3" font-family="Times,serif" font-size="14.00" fill="#000000">PlanckConstant</text>
</a>
</g>
</g>
<!-- PlanckConstant&#45;&gt;SIExactConstant -->
<g id="edge9" class="edge">
<title>PlanckConstant&#45;&gt;SIExactConstant</title>
<path fill="none" stroke="#000000" d="M1048.5458,-30.1252C1039.9442,-32.153 1031.0688,-34.1853 1022.6932,-36 950.597,-51.6206 867.5414,-67.4156 810.9235,-77.8525"/>
<polygon fill="none" stroke="#000000" points="810.2216,-74.4228 801.0193,-79.6733 811.4873,-81.3075 810.2216,-74.4228"/>
</g>
<!-- AvogadroConstant -->
<g id="node11" class="node">
<title>AvogadroConstant</title>
<g id="a_node11"><a xlink:href="http://emmo.info/emmo/middle/siunits#EMMO_176cae33_b83e_4cd2_a6bc_281f42f0ccc8" xlink:title="AvogadroConstant">
<ellipse fill="#ffffcc" stroke="#000000" cx="1258.6932" cy="-18" rx="77.1866" ry="18"/>
<text text-anchor="middle" x="1258.6932" y="-14.3" font-family="Times,serif" font-size="14.00" fill="#000000">AvogadroConstant</text>
</a>
</g>
</g>
<!-- AvogadroConstant&#45;&gt;SIExactConstant -->
<g id="edge5" class="edge">
<title>AvogadroConstant&#45;&gt;SIExactConstant</title>
<path fill="none" stroke="#000000" d="M1202.3793,-30.469C1192.5114,-32.4586 1182.322,-34.3891 1172.6932,-36 1049.2553,-56.6518 904.6418,-73.3077 818.7892,-82.4133"/>
<polygon fill="none" stroke="#000000" points="818.1939,-78.9566 808.6161,-83.4861 818.928,-85.918 818.1939,-78.9566"/>
</g>
<!-- key1 -->
<g id="node12" class="node">
<title>key1</title>
<text text-anchor="start" x="1371.6932" y="-13.8" font-family="Times,serif" font-size="14.00" fill="#000000">isA</text>
</g>
<!-- key2 -->
<g id="node13" class="node">
<title>key2</title>
<text text-anchor="start" x="1450.6932" y="-13.8" font-family="Times,serif" font-size="14.00" fill="#000000"> </text>
</g>
<!-- key1&#45;&gt;key2 -->
<g id="edge11" class="edge">
<title>key1:e&#45;&gt;key2:w</title>
<path fill="none" stroke="#000000" d="M1392.6932,-19C1413.6932,-19 1421.4041,-19 1438.2513,-19"/>
<polygon fill="none" stroke="#000000" points="1438.6932,-22.5001 1448.6932,-19 1438.6932,-15.5001 1438.6932,-22.5001"/>
</g>
</g>
</svg>
