<?xml version="1.0" encoding="UTF-8" standalone="no"?>
<!DOCTYPE svg PUBLIC "-//W3C//DTD SVG 1.1//EN"
 "http://www.w3.org/Graphics/SVG/1.1/DTD/svg11.dtd">
<!-- Generated by graphviz version 2.40.1 (20161225.0304)
 -->
<!-- Title: %3 Pages: 1 -->
<svg width="605pt" height="305pt"
 viewBox="0.00 0.00 605.24 305.00" xmlns="http://www.w3.org/2000/svg" xmlns:xlink="http://www.w3.org/1999/xlink">
<g id="graph0" class="graph" transform="scale(1 1) rotate(0) translate(4 301)">
<title>%3</title>
<polygon fill="#ffffff" stroke="transparent" points="-4,4 -4,-301 601.2405,-301 601.2405,4 -4,4"/>
<!-- Physicalistic -->
<g id="node1" class="node">
<title>Physicalistic</title>
<g id="a_node1"><a xlink:href="http://emmo.info/emmo/middle/physicalistic#EMMO_98ada9d8_f1c8_4f13_99b5_d890f5354152" xlink:title="Physicalistic">
<ellipse fill="#ffc880" stroke="#000000" stroke-width="2" cx="209.643" cy="-279" rx="55.4913" ry="18"/>
<text text-anchor="middle" x="209.643" y="-275.3" font-family="Times,serif" font-size="14.00" fill="#000000">Physicalistic</text>
</a>
</g>
</g>
<!-- ElementaryParticle -->
<g id="node2" class="node">
<title>ElementaryParticle</title>
<g id="a_node2"><a xlink:href="http://emmo.info/emmo/middle/physicalistic#EMMO_c26a0340_d619_4928_b1a1_1a04e88bb89d" xlink:title="ElementaryParticle">
<ellipse fill="#ffffcc" stroke="#000000" stroke-width="2" cx="78.643" cy="-192" rx="78.7863" ry="18"/>
<text text-anchor="middle" x="78.643" y="-188.3" font-family="Times,serif" font-size="14.00" fill="#000000">ElementaryParticle</text>
</a>
</g>
</g>
<!-- ElementaryParticle&#45;&gt;Physicalistic -->
<g id="edge4" class="edge">
<title>ElementaryParticle&#45;&gt;Physicalistic</title>
<path fill="none" stroke="#000000" d="M104.5244,-209.1884C125.1941,-222.9156 154.2953,-242.2424 176.6393,-257.0815"/>
<polygon fill="none" stroke="#000000" points="174.878,-260.1133 185.1446,-262.7301 178.7506,-254.2821 174.878,-260.1133"/>
<text text-anchor="middle" x="162.143" y="-231.8" font-family="Times,serif" font-size="14.00" fill="#000000">isA</text>
</g>
<!-- Vacuum -->
<g id="node3" class="node">
<title>Vacuum</title>
<g id="a_node3"><a xlink:href="http://emmo.info/emmo/middle/physicalistic#EMMO_3c218fbe_60c9_4597_8bcf_41eb1773af1f" xlink:title="Vacuum">
<ellipse fill="#ffc880" stroke="#000000" cx="429.643" cy="-105" rx="40.8928" ry="18"/>
<text text-anchor="middle" x="429.643" y="-101.3" font-family="Times,serif" font-size="14.00" fill="#000000">Vacuum</text>
</a>
</g>
</g>
<!-- Field -->
<g id="node6" class="node">
<title>Field</title>
<g id="a_node6"><a xlink:href="http://emmo.info/emmo/middle/physicalistic#EMMO_70dac51e_bddd_48c2_8a98_7d8395e91fc2" xlink:title="Field">
<ellipse fill="#ffffcc" stroke="#000000" cx="429.643" cy="-192" rx="28.6953" ry="18"/>
<text text-anchor="middle" x="429.643" y="-188.3" font-family="Times,serif" font-size="14.00" fill="#000000">Field</text>
</a>
</g>
</g>
<!-- Vacuum&#45;&gt;Field -->
<g id="edge3" class="edge">
<title>Vacuum&#45;&gt;Field</title>
<path fill="none" stroke="#000000" d="M429.643,-123.0265C429.643,-134.8082 429.643,-150.4393 429.643,-163.8419"/>
<polygon fill="none" stroke="#000000" points="426.1431,-163.9966 429.643,-173.9966 433.1431,-163.9967 426.1431,-163.9966"/>
<text text-anchor="middle" x="439.143" y="-144.8" font-family="Times,serif" font-size="14.00" fill="#000000">isA</text>
</g>
<!-- Material -->
<g id="node4" class="node">
<title>Material</title>
<g id="a_node4"><a xlink:href="http://emmo.info/emmo/middle/physicalistic#EMMO_4207e895_8b83_4318_996a_72cfb32acd94" xlink:title="Material">
<ellipse fill="#ffffcc" stroke="#000000" cx="209.643" cy="-105" rx="40.8928" ry="18"/>
<text text-anchor="middle" x="209.643" y="-101.3" font-family="Times,serif" font-size="14.00" fill="#000000">Material</text>
</a>
</g>
</g>
<!-- Matter -->
<g id="node5" class="node">
<title>Matter</title>
<g id="a_node5"><a xlink:href="http://emmo.info/emmo/middle/physicalistic#EMMO_5b2222df_4da6_442f_8244_96e9e45887d1" xlink:title="Matter">
<ellipse fill="#ffffcc" stroke="#000000" cx="209.643" cy="-192" rx="34.394" ry="18"/>
<text text-anchor="middle" x="209.643" y="-188.3" font-family="Times,serif" font-size="14.00" fill="#000000">Matter</text>
</a>
</g>
</g>
<!-- Material&#45;&gt;Matter -->
<g id="edge5" class="edge">
<title>Material&#45;&gt;Matter</title>
<path fill="none" stroke="#000000" d="M209.643,-123.0265C209.643,-134.8082 209.643,-150.4393 209.643,-163.8419"/>
<polygon fill="none" stroke="#000000" points="206.1431,-163.9966 209.643,-173.9966 213.1431,-163.9967 206.1431,-163.9966"/>
<text text-anchor="middle" x="219.143" y="-144.8" font-family="Times,serif" font-size="14.00" fill="#000000">isA</text>
</g>
<!-- Matter&#45;&gt;Physicalistic -->
<g id="edge7" class="edge">
<title>Matter&#45;&gt;Physicalistic</title>
<path fill="none" stroke="#000000" d="M209.643,-210.0265C209.643,-221.8082 209.643,-237.4393 209.643,-250.8419"/>
<polygon fill="none" stroke="#000000" points="206.1431,-250.9966 209.643,-260.9966 213.1431,-250.9967 206.1431,-250.9966"/>
<text text-anchor="middle" x="219.143" y="-231.8" font-family="Times,serif" font-size="14.00" fill="#000000">isA</text>
</g>
<!-- Matter&#45;&gt;Matter -->
<g id="edge8" class="edge">
<title>Matter&#45;&gt;Matter</title>
<path fill="none" stroke="#ff00ff" d="M240.8721,-184.1423C252.5101,-183.8847 262.09,-186.5039 262.09,-192 262.09,-195.7786 257.562,-198.1974 250.9502,-199.2564"/>
<polygon fill="#ff00ff" stroke="#ff00ff" points="250.6459,-195.7682 240.8721,-199.8577 251.0628,-202.7558 250.6459,-195.7682"/>
<text text-anchor="middle" x="322.59" y="-188.3" font-family="Times,serif" font-size="14.00" fill="#000000">hasTemporalPart only</text>
</g>
<!-- Field&#45;&gt;Physicalistic -->
<g id="edge1" class="edge">
<title>Field&#45;&gt;Physicalistic</title>
<path fill="none" stroke="#000000" d="M406.8697,-203.1498C401.8856,-205.4881 396.6135,-207.8846 391.643,-210 346.4034,-229.2539 293.7975,-248.9104 256.8121,-262.2925"/>
<polygon fill="none" stroke="#000000" points="255.5086,-259.0418 247.2874,-265.7249 257.8818,-265.6273 255.5086,-259.0418"/>
<text text-anchor="middle" x="357.143" y="-231.8" font-family="Times,serif" font-size="14.00" fill="#000000">isA</text>
</g>
<!-- Field&#45;&gt;Field -->
<g id="edge2" class="edge">
<title>Field&#45;&gt;Field</title>
<path fill="none" stroke="#ff00ff" d="M455.519,-184.2192C466.6825,-183.5822 476.2405,-186.1758 476.2405,-192 476.2405,-195.9131 471.9258,-198.3679 465.7085,-199.3644"/>
<polygon fill="#ff00ff" stroke="#ff00ff" points="465.3677,-195.8753 455.519,-199.7808 465.6536,-202.8695 465.3677,-195.8753"/>
<text text-anchor="middle" x="536.7405" y="-188.3" font-family="Times,serif" font-size="14.00" fill="#000000">hasTemporalPart only</text>
</g>
<!-- MaterialState -->
<g id="node7" class="node">
<title>MaterialState</title>
<g id="a_node7"><a xlink:href="http://emmo.info/emmo/middle/materials#EMMO_20fff605_465f_4034_8696_e53e90ec83f4" xlink:title="MaterialState">
<ellipse fill="#ffc880" stroke="#000000" stroke-width="2" cx="209.643" cy="-18" rx="58.4896" ry="18"/>
<text text-anchor="middle" x="209.643" y="-14.3" font-family="Times,serif" font-size="14.00" fill="#000000">MaterialState</text>
</a>
</g>
</g>
<!-- MaterialState&#45;&gt;Material -->
<g id="edge6" class="edge">
<title>MaterialState&#45;&gt;Material</title>
<path fill="none" stroke="#000000" d="M209.643,-36.0265C209.643,-47.8082 209.643,-63.4393 209.643,-76.8419"/>
<polygon fill="none" stroke="#000000" points="206.1431,-76.9966 209.643,-86.9966 213.1431,-76.9967 206.1431,-76.9966"/>
<text text-anchor="middle" x="219.143" y="-57.8" font-family="Times,serif" font-size="14.00" fill="#000000">isA</text>
</g>
</g>
</svg>
