<?xml version="1.0" encoding="UTF-8" standalone="no"?>
<!DOCTYPE svg PUBLIC "-//W3C//DTD SVG 1.1//EN"
 "http://www.w3.org/Graphics/SVG/1.1/DTD/svg11.dtd">
<!-- Generated by graphviz version 2.40.1 (20161225.0304)
 -->
<!-- Title: %3 Pages: 1 -->
<svg width="1488pt" height="260pt"
 viewBox="0.00 0.00 1487.79 260.00" xmlns="http://www.w3.org/2000/svg" xmlns:xlink="http://www.w3.org/1999/xlink">
<g id="graph0" class="graph" transform="scale(1 1) rotate(0) translate(4 256)">
<title>%3</title>
<polygon fill="#ffffff" stroke="transparent" points="-4,4 -4,-256 1483.7878,-256 1483.7878,4 -4,4"/>
<!-- HyperfineTransitionFrequencyOfCs -->
<g id="node1" class="node">
<title>HyperfineTransitionFrequencyOfCs</title>
<g id="a_node1"><a xlink:href="http://emmo.info/emmo/middle/siunits#EMMO_f96feb3f_4438_4e43_aa44_7458c4d87fc2" xlink:title="HyperfineTransitionFrequencyOfCs">
<ellipse fill="#ffffcc" stroke="#000000" cx="137.7878" cy="-18" rx="137.5759" ry="18"/>
<text text-anchor="middle" x="137.7878" y="-14.3" font-family="Times,serif" font-size="14.00" fill="#000000">HyperfineTransitionFrequencyOfCs</text>
</a>
</g>
</g>
<!-- SIExactConstant -->
<g id="node10" class="node">
<title>SIExactConstant</title>
<g id="a_node10"><a xlink:href="http://emmo.info/emmo/middle/siunits#EMMO_f2ca6dd0_0e5f_4392_a92d_cafdae6cfc95" xlink:title="SIExactConstant">
<ellipse fill="#ffffcc" stroke="#000000" cx="764.7878" cy="-90" rx="69.5877" ry="18"/>
<text text-anchor="middle" x="764.7878" y="-86.3" font-family="Times,serif" font-size="14.00" fill="#000000">SIExactConstant</text>
</a>
</g>
</g>
<!-- HyperfineTransitionFrequencyOfCs&#45;&gt;SIExactConstant -->
<g id="edge6" class="edge">
<title>HyperfineTransitionFrequencyOfCs&#45;&gt;SIExactConstant</title>
<path fill="none" stroke="#000000" d="M238.1971,-30.4282C253.792,-32.32 269.7216,-34.2302 284.7878,-36 428.4282,-52.8737 596.384,-71.5206 690.6996,-81.8932"/>
<polygon fill="none" stroke="#000000" points="690.3888,-85.38 700.7114,-82.9936 691.1536,-78.4219 690.3888,-85.38"/>
</g>
<!-- BoltzmannConstant -->
<g id="node2" class="node">
<title>BoltzmannConstant</title>
<g id="a_node2"><a xlink:href="http://emmo.info/emmo/middle/siunits#EMMO_ffc7735f_c177_46a4_98e9_a54440d29209" xlink:title="BoltzmannConstant">
<ellipse fill="#ffffcc" stroke="#000000" cx="374.7878" cy="-18" rx="81.4863" ry="18"/>
<text text-anchor="middle" x="374.7878" y="-14.3" font-family="Times,serif" font-size="14.00" fill="#000000">BoltzmannConstant</text>
</a>
</g>
</g>
<!-- BoltzmannConstant&#45;&gt;SIExactConstant -->
<g id="edge9" class="edge">
<title>BoltzmannConstant&#45;&gt;SIExactConstant</title>
<path fill="none" stroke="#000000" d="M434.7865,-30.1673C444.7986,-32.1495 455.082,-34.1561 464.7878,-36 544.4476,-51.1339 636.2186,-67.496 697.0674,-78.1948"/>
<polygon fill="none" stroke="#000000" points="696.4801,-81.6452 706.9348,-79.9278 697.691,-74.7507 696.4801,-81.6452"/>
</g>
<!-- SpeedOfLightInVacuum -->
<g id="node3" class="node">
<title>SpeedOfLightInVacuum</title>
<g id="a_node3"><a xlink:href="http://emmo.info/emmo/middle/siunits#EMMO_99296e55_53f7_4333_9e06_760ad175a1b9" xlink:title="SpeedOfLightInVacuum">
<ellipse fill="#ffffcc" stroke="#000000" cx="571.7878" cy="-18" rx="98.2828" ry="18"/>
<text text-anchor="middle" x="571.7878" y="-14.3" font-family="Times,serif" font-size="14.00" fill="#000000">SpeedOfLightInVacuum</text>
</a>
</g>
</g>
<!-- SpeedOfLightInVacuum&#45;&gt;SIExactConstant -->
<g id="edge10" class="edge">
<title>SpeedOfLightInVacuum&#45;&gt;SIExactConstant</title>
<path fill="none" stroke="#000000" d="M615.1007,-34.1582C644.7851,-45.2322 684.2341,-59.9489 715.1817,-71.4941"/>
<polygon fill="none" stroke="#000000" points="714.3152,-74.9064 724.9078,-75.1225 716.7619,-68.3479 714.3152,-74.9064"/>
</g>
<!-- MeasuredConstant -->
<g id="node4" class="node">
<title>MeasuredConstant</title>
<g id="a_node4"><a xlink:href="http://emmo.info/emmo/middle/metrology#EMMO_3f15d200_c97b_42c8_8ac0_d81d150361e2" xlink:title="MeasuredConstant">
<ellipse fill="#ffffcc" stroke="#000000" cx="921.7878" cy="-162" rx="77.1866" ry="18"/>
<text text-anchor="middle" x="921.7878" y="-158.3" font-family="Times,serif" font-size="14.00" fill="#000000">MeasuredConstant</text>
</a>
</g>
</g>
<!-- PhysicalConstant -->
<g id="node7" class="node">
<title>PhysicalConstant</title>
<g id="a_node7"><a xlink:href="http://emmo.info/emmo/middle/metrology#EMMO_b953f2b1_c8d1_4dd9_b630_d3ef6580c2bb" xlink:title="PhysicalConstant">
<ellipse fill="#ffffcc" stroke="#000000" stroke-width="2" cx="842.7878" cy="-234" rx="71.4873" ry="18"/>
<text text-anchor="middle" x="842.7878" y="-230.3" font-family="Times,serif" font-size="14.00" fill="#000000">PhysicalConstant</text>
</a>
</g>
</g>
<!-- MeasuredConstant&#45;&gt;PhysicalConstant -->
<g id="edge2" class="edge">
<title>MeasuredConstant&#45;&gt;PhysicalConstant</title>
<path fill="none" stroke="#000000" d="M902.2597,-179.7978C892.406,-188.7783 880.302,-199.8098 869.5917,-209.5711"/>
<polygon fill="none" stroke="#000000" points="867.1246,-207.0841 862.0912,-216.407 871.8398,-212.2577 867.1246,-207.0841"/>
</g>
<!-- AvogadroConstant -->
<g id="node5" class="node">
<title>AvogadroConstant</title>
<g id="a_node5"><a xlink:href="http://emmo.info/emmo/middle/siunits#EMMO_176cae33_b83e_4cd2_a6bc_281f42f0ccc8" xlink:title="AvogadroConstant">
<ellipse fill="#ffffcc" stroke="#000000" cx="764.7878" cy="-18" rx="77.1866" ry="18"/>
<text text-anchor="middle" x="764.7878" y="-14.3" font-family="Times,serif" font-size="14.00" fill="#000000">AvogadroConstant</text>
</a>
</g>
</g>
<!-- AvogadroConstant&#45;&gt;SIExactConstant -->
<g id="edge1" class="edge">
<title>AvogadroConstant&#45;&gt;SIExactConstant</title>
<path fill="none" stroke="#000000" d="M764.7878,-36.1686C764.7878,-43.869 764.7878,-53.0257 764.7878,-61.5834"/>
<polygon fill="none" stroke="#000000" points="761.2879,-61.5867 764.7878,-71.5867 768.2879,-61.5868 761.2879,-61.5867"/>
</g>
<!-- ElementaryCharge -->
<g id="node6" class="node">
<title>ElementaryCharge</title>
<g id="a_node6"><a xlink:href="http://emmo.info/emmo/middle/siunits#EMMO_58a650f0_a638_4743_8439_535a325e5c4c" xlink:title="ElementaryCharge">
<ellipse fill="#ffffcc" stroke="#000000" cx="937.7878" cy="-18" rx="77.1866" ry="18"/>
<text text-anchor="middle" x="937.7878" y="-14.3" font-family="Times,serif" font-size="14.00" fill="#000000">ElementaryCharge</text>
</a>
</g>
</g>
<!-- ElementaryCharge&#45;&gt;SIExactConstant -->
<g id="edge8" class="edge">
<title>ElementaryCharge&#45;&gt;SIExactConstant</title>
<path fill="none" stroke="#000000" d="M899.8222,-33.8007C873.753,-44.6503 838.988,-59.119 811.2616,-70.6583"/>
<polygon fill="none" stroke="#000000" points="809.6613,-67.5332 801.7737,-74.607 812.3509,-73.9959 809.6613,-67.5332"/>
</g>
<!-- PlanckConstant -->
<g id="node8" class="node">
<title>PlanckConstant</title>
<g id="a_node8"><a xlink:href="http://emmo.info/emmo/middle/siunits#EMMO_76cc4efc_231e_42b4_be83_2547681caed6" xlink:title="PlanckConstant">
<ellipse fill="#ffffcc" stroke="#000000" cx="1098.7878" cy="-18" rx="65.7887" ry="18"/>
<text text-anchor="middle" x="1098.7878" y="-14.3" font-family="Times,serif" font-size="14.00" fill="#000000">PlanckConstant</text>
</a>
</g>
</g>
<!-- PlanckConstant&#45;&gt;SIExactConstant -->
<g id="edge3" class="edge">
<title>PlanckConstant&#45;&gt;SIExactConstant</title>
<path fill="none" stroke="#000000" d="M1049.6181,-30.0238C1041.0189,-32.0628 1032.1502,-34.1252 1023.7878,-36 957.892,-50.7734 882.2583,-66.3889 829.8067,-77.0063"/>
<polygon fill="none" stroke="#000000" points="829.0717,-73.584 819.963,-78.9954 830.4582,-80.4454 829.0717,-73.584"/>
</g>
<!-- LuminousEfficacy -->
<g id="node9" class="node">
<title>LuminousEfficacy</title>
<g id="a_node9"><a xlink:href="http://emmo.info/emmo/middle/siunits#EMMO_506f7823_52bc_40cb_be07_b3b1e10cce13" xlink:title="LuminousEfficacy">
<ellipse fill="#ffffcc" stroke="#000000" cx="1258.7878" cy="-18" rx="76.8869" ry="18"/>
<text text-anchor="middle" x="1258.7878" y="-14.3" font-family="Times,serif" font-size="14.00" fill="#000000">LuminousEfficacy</text>
</a>
</g>
</g>
<!-- LuminousEfficacy&#45;&gt;SIExactConstant -->
<g id="edge7" class="edge">
<title>LuminousEfficacy&#45;&gt;SIExactConstant</title>
<path fill="none" stroke="#000000" d="M1203.1252,-30.4317C1193.3724,-32.4254 1183.3025,-34.367 1173.7878,-36 1057.4021,-55.9755 921.2835,-72.6194 839.1241,-81.9375"/>
<polygon fill="none" stroke="#000000" points="838.6753,-78.4659 829.1307,-83.0649 839.4601,-85.4217 838.6753,-78.4659"/>
</g>
<!-- ExactConstant -->
<g id="node11" class="node">
<title>ExactConstant</title>
<g id="a_node11"><a xlink:href="http://emmo.info/emmo/middle/metrology#EMMO_89762966_8076_4f7c_b745_f718d653e8e2" xlink:title="ExactConstant">
<ellipse fill="#ffffcc" stroke="#000000" cx="764.7878" cy="-162" rx="61.99" ry="18"/>
<text text-anchor="middle" x="764.7878" y="-158.3" font-family="Times,serif" font-size="14.00" fill="#000000">ExactConstant</text>
</a>
</g>
</g>
<!-- SIExactConstant&#45;&gt;ExactConstant -->
<g id="edge4" class="edge">
<title>SIExactConstant&#45;&gt;ExactConstant</title>
<path fill="none" stroke="#000000" d="M764.7878,-108.1686C764.7878,-115.869 764.7878,-125.0257 764.7878,-133.5834"/>
<polygon fill="none" stroke="#000000" points="761.2879,-133.5867 764.7878,-143.5867 768.2879,-133.5868 761.2879,-133.5867"/>
</g>
<!-- ExactConstant&#45;&gt;PhysicalConstant -->
<g id="edge5" class="edge">
<title>ExactConstant&#45;&gt;PhysicalConstant</title>
<path fill="none" stroke="#000000" d="M783.6694,-179.4292C793.4652,-188.4714 805.5928,-199.6662 816.3093,-209.5583"/>
<polygon fill="none" stroke="#000000" points="814.0876,-212.2708 823.8097,-216.4818 818.8356,-207.1271 814.0876,-212.2708"/>
</g>
<!-- key1 -->
<g id="node12" class="node">
<title>key1</title>
<text text-anchor="start" x="1371.7878" y="-13.8" font-family="Times,serif" font-size="14.00" fill="#000000">isA</text>
</g>
<!-- key2 -->
<g id="node13" class="node">
<title>key2</title>
<text text-anchor="start" x="1450.7878" y="-13.8" font-family="Times,serif" font-size="14.00" fill="#000000"> </text>
</g>
<!-- key1&#45;&gt;key2 -->
<g id="edge11" class="edge">
<title>key1:e&#45;&gt;key2:w</title>
<path fill="none" stroke="#000000" d="M1392.7878,-19C1413.7878,-19 1421.4987,-19 1438.3459,-19"/>
<polygon fill="none" stroke="#000000" points="1438.7878,-22.5001 1448.7878,-19 1438.7877,-15.5001 1438.7878,-22.5001"/>
</g>
</g>
</svg>
