<?xml version="1.0" encoding="UTF-8" standalone="no"?>
<!DOCTYPE svg PUBLIC "-//W3C//DTD SVG 1.1//EN"
 "http://www.w3.org/Graphics/SVG/1.1/DTD/svg11.dtd">
<!-- Generated by graphviz version 2.40.1 (20161225.0304)
 -->
<!-- Title: %3 Pages: 1 -->
<svg width="387pt" height="270pt"
 viewBox="0.00 0.00 387.09 270.00" xmlns="http://www.w3.org/2000/svg" xmlns:xlink="http://www.w3.org/1999/xlink">
<g id="graph0" class="graph" transform="scale(1 1) rotate(0) translate(4 266)">
<title>%3</title>
<polygon fill="#ffffff" stroke="transparent" points="-4,4 -4,-266 383.0923,-266 383.0923,4 -4,4"/>
<!-- Field -->
<g id="node1" class="node">
<title>Field</title>
<g id="a_node1"><a xlink:href="http://emmo.info/emmo/middle/physicalistic#EMMO_70dac51e_bddd_48c2_8a98_7d8395e91fc2" xlink:title="Field">
<ellipse fill="#ffffcc" stroke="#000000" cx="332.4948" cy="-172" rx="28.6953" ry="18"/>
<text text-anchor="middle" x="332.4948" y="-168.3" font-family="Times,serif" font-size="14.00" fill="#000000">Field</text>
</a>
</g>
</g>
<!-- Field&#45;&gt;Field -->
<g id="edge3" class="edge">
<title>Field&#45;&gt;Field</title>
<path fill="none" stroke="#ff00ff" d="M353.5805,-159.4525C366.6523,-156.4269 379.0923,-160.6094 379.0923,-172 379.0923,-180.365 372.3833,-184.8426 363.642,-185.4328"/>
<polygon fill="#ff00ff" stroke="#ff00ff" points="363.8488,-181.9376 353.5805,-184.5475 363.2352,-188.9106 363.8488,-181.9376"/>
</g>
<!-- Physicalistic -->
<g id="node3" class="node">
<title>Physicalistic</title>
<g id="a_node3"><a xlink:href="http://emmo.info/emmo/middle/physicalistic#EMMO_98ada9d8_f1c8_4f13_99b5_d890f5354152" xlink:title="Physicalistic">
<ellipse fill="#ffc880" stroke="#000000" stroke-width="2" cx="207.4948" cy="-244" rx="55.4913" ry="18"/>
<text text-anchor="middle" x="207.4948" y="-240.3" font-family="Times,serif" font-size="14.00" fill="#000000">Physicalistic</text>
</a>
</g>
</g>
<!-- Field&#45;&gt;Physicalistic -->
<g id="edge2" class="edge">
<title>Field&#45;&gt;Physicalistic</title>
<path fill="none" stroke="#000000" d="M311.2903,-184.2138C292.8019,-194.8631 265.5872,-210.5388 243.6628,-223.1672"/>
<polygon fill="none" stroke="#000000" points="241.8571,-220.1682 234.9387,-228.1923 245.3509,-226.2339 241.8571,-220.1682"/>
</g>
<!-- MaterialState -->
<g id="node2" class="node">
<title>MaterialState</title>
<g id="a_node2"><a xlink:href="http://emmo.info/emmo/middle/materials#EMMO_20fff605_465f_4034_8696_e53e90ec83f4" xlink:title="MaterialState">
<ellipse fill="#ffc880" stroke="#000000" stroke-width="2" cx="58.4948" cy="-23" rx="58.4896" ry="18"/>
<text text-anchor="middle" x="58.4948" y="-19.3" font-family="Times,serif" font-size="14.00" fill="#000000">MaterialState</text>
</a>
</g>
</g>
<!-- Material -->
<g id="node5" class="node">
<title>Material</title>
<g id="a_node5"><a xlink:href="http://emmo.info/emmo/middle/physicalistic#EMMO_4207e895_8b83_4318_996a_72cfb32acd94" xlink:title="Material">
<ellipse fill="#ffffcc" stroke="#000000" cx="58.4948" cy="-100" rx="40.8928" ry="18"/>
<text text-anchor="middle" x="58.4948" y="-96.3" font-family="Times,serif" font-size="14.00" fill="#000000">Material</text>
</a>
</g>
</g>
<!-- MaterialState&#45;&gt;Material -->
<g id="edge8" class="edge">
<title>MaterialState&#45;&gt;Material</title>
<path fill="none" stroke="#000000" d="M58.4948,-41.2479C58.4948,-50.3578 58.4948,-61.5826 58.4948,-71.7718"/>
<polygon fill="none" stroke="#000000" points="54.9949,-71.883 58.4948,-81.8831 61.9949,-71.8831 54.9949,-71.883"/>
</g>
<!-- Matter -->
<g id="node4" class="node">
<title>Matter</title>
<g id="a_node4"><a xlink:href="http://emmo.info/emmo/middle/physicalistic#EMMO_5b2222df_4da6_442f_8244_96e9e45887d1" xlink:title="Matter">
<ellipse fill="#ffffcc" stroke="#000000" cx="58.4948" cy="-172" rx="34.394" ry="18"/>
<text text-anchor="middle" x="58.4948" y="-168.3" font-family="Times,serif" font-size="14.00" fill="#000000">Matter</text>
</a>
</g>
</g>
<!-- Matter&#45;&gt;Physicalistic -->
<g id="edge5" class="edge">
<title>Matter&#45;&gt;Physicalistic</title>
<path fill="none" stroke="#000000" d="M84.1088,-184.3772C107.0333,-195.4548 141.0145,-211.8753 167.5146,-224.6807"/>
<polygon fill="none" stroke="#000000" points="166.0189,-227.8451 176.5456,-229.0447 169.0645,-221.5424 166.0189,-227.8451"/>
</g>
<!-- Matter&#45;&gt;Matter -->
<g id="edge6" class="edge">
<title>Matter&#45;&gt;Matter</title>
<path fill="none" stroke="#ff00ff" d="M83.044,-159.2918C97.4539,-156.5843 110.9418,-160.8203 110.9418,-172 110.9418,-180.4721 103.1959,-184.9566 93.1729,-185.4536"/>
<polygon fill="#ff00ff" stroke="#ff00ff" points="93.2739,-181.9516 83.044,-184.7082 92.7601,-188.9327 93.2739,-181.9516"/>
</g>
<!-- Material&#45;&gt;Matter -->
<g id="edge4" class="edge">
<title>Material&#45;&gt;Matter</title>
<path fill="none" stroke="#000000" d="M58.4948,-118.1686C58.4948,-125.869 58.4948,-135.0257 58.4948,-143.5834"/>
<polygon fill="none" stroke="#000000" points="54.9949,-143.5867 58.4948,-153.5867 61.9949,-143.5868 54.9949,-143.5867"/>
</g>
<!-- Vacuum -->
<g id="node6" class="node">
<title>Vacuum</title>
<g id="a_node6"><a xlink:href="http://emmo.info/emmo/middle/physicalistic#EMMO_3c218fbe_60c9_4597_8bcf_41eb1773af1f" xlink:title="Vacuum">
<ellipse fill="#ffc880" stroke="#000000" cx="332.4948" cy="-100" rx="40.8928" ry="18"/>
<text text-anchor="middle" x="332.4948" y="-96.3" font-family="Times,serif" font-size="14.00" fill="#000000">Vacuum</text>
</a>
</g>
</g>
<!-- Vacuum&#45;&gt;Field -->
<g id="edge7" class="edge">
<title>Vacuum&#45;&gt;Field</title>
<path fill="none" stroke="#000000" d="M332.4948,-118.1686C332.4948,-125.869 332.4948,-135.0257 332.4948,-143.5834"/>
<polygon fill="none" stroke="#000000" points="328.9949,-143.5867 332.4948,-153.5867 335.9949,-143.5868 328.9949,-143.5867"/>
</g>
<!-- ElementaryParticle -->
<g id="node7" class="node">
<title>ElementaryParticle</title>
<g id="a_node7"><a xlink:href="http://emmo.info/emmo/middle/physicalistic#EMMO_c26a0340_d619_4928_b1a1_1a04e88bb89d" xlink:title="ElementaryParticle">
<ellipse fill="#ffffcc" stroke="#000000" stroke-width="2" cx="207.4948" cy="-172" rx="78.7863" ry="18"/>
<text text-anchor="middle" x="207.4948" y="-168.3" font-family="Times,serif" font-size="14.00" fill="#000000">ElementaryParticle</text>
</a>
</g>
</g>
<!-- ElementaryParticle&#45;&gt;Physicalistic -->
<g id="edge1" class="edge">
<title>ElementaryParticle&#45;&gt;Physicalistic</title>
<path fill="none" stroke="#000000" d="M207.4948,-190.1686C207.4948,-197.869 207.4948,-207.0257 207.4948,-215.5834"/>
<polygon fill="none" stroke="#000000" points="203.9949,-215.5867 207.4948,-225.5867 210.9949,-215.5868 203.9949,-215.5867"/>
</g>
<!-- key1 -->
<g id="node8" class="node">
<title>key1</title>
<text text-anchor="start" x="219.4948" y="-28.8" font-family="Times,serif" font-size="14.00" fill="#000000">isA</text>
<text text-anchor="start" x="144.4948" y="-9.8" font-family="Times,serif" font-size="14.00" fill="#000000">hasTemporalPart</text>
</g>
<!-- key2 -->
<g id="node9" class="node">
<title>key2</title>
<text text-anchor="start" x="291.4948" y="-28.8" font-family="Times,serif" font-size="14.00" fill="#000000"> </text>
<text text-anchor="start" x="291.4948" y="-9.8" font-family="Times,serif" font-size="14.00" fill="#000000"> </text>
</g>
<!-- key1&#45;&gt;key2 -->
<g id="edge9" class="edge">
<title>key1:e&#45;&gt;key2:w</title>
<path fill="none" stroke="#ff00ff" d="M240.4948,-13C258.3594,-13 265.2331,-13 279.1478,-13"/>
<polygon fill="#ff00ff" stroke="#ff00ff" points="279.4948,-16.5001 289.4948,-13 279.4948,-9.5001 279.4948,-16.5001"/>
</g>
<!-- key1&#45;&gt;key2 -->
<g id="edge10" class="edge">
<title>key1:e&#45;&gt;key2:w</title>
<path fill="none" stroke="#000000" d="M240.4948,-33C258.3594,-33 265.2331,-33 279.1478,-33"/>
<polygon fill="none" stroke="#000000" points="279.4948,-36.5001 289.4948,-33 279.4948,-29.5001 279.4948,-36.5001"/>
</g>
</g>
</svg>
