<?xml version="1.0" encoding="UTF-8" standalone="no"?>
<!DOCTYPE svg PUBLIC "-//W3C//DTD SVG 1.1//EN"
 "http://www.w3.org/Graphics/SVG/1.1/DTD/svg11.dtd">
<!-- Generated by graphviz version 2.40.1 (20161225.0304)
 -->
<!-- Title: %3 Pages: 1 -->
<svg width="1488pt" height="260pt"
 viewBox="0.00 0.00 1488.34 260.00" xmlns="http://www.w3.org/2000/svg" xmlns:xlink="http://www.w3.org/1999/xlink">
<g id="graph0" class="graph" transform="scale(1 1) rotate(0) translate(4 256)">
<title>%3</title>
<polygon fill="#ffffff" stroke="transparent" points="-4,4 -4,-256 1484.3431,-256 1484.3431,4 -4,4"/>
<!-- ElementaryCharge -->
<g id="node1" class="node">
<title>ElementaryCharge</title>
<g id="a_node1"><a xlink:href="http://emmo.info/emmo/middle/siunits#EMMO_58a650f0_a638_4743_8439_535a325e5c4c" xlink:title="ElementaryCharge">
<ellipse fill="#ffffcc" stroke="#000000" cx="77.3431" cy="-18" rx="77.1866" ry="18"/>
<text text-anchor="middle" x="77.3431" y="-14.3" font-family="Times,serif" font-size="14.00" fill="#000000">ElementaryCharge</text>
</a>
</g>
</g>
<!-- SIExactConstant -->
<g id="node6" class="node">
<title>SIExactConstant</title>
<g id="a_node6"><a xlink:href="http://emmo.info/emmo/middle/siunits#EMMO_f2ca6dd0_0e5f_4392_a92d_cafdae6cfc95" xlink:title="SIExactConstant">
<ellipse fill="#ffffcc" stroke="#000000" cx="571.3431" cy="-90" rx="69.5877" ry="18"/>
<text text-anchor="middle" x="571.3431" y="-86.3" font-family="Times,serif" font-size="14.00" fill="#000000">SIExactConstant</text>
</a>
</g>
</g>
<!-- ElementaryCharge&#45;&gt;SIExactConstant -->
<g id="edge10" class="edge">
<title>ElementaryCharge&#45;&gt;SIExactConstant</title>
<path fill="none" stroke="#000000" d="M133.8582,-30.3091C143.9848,-32.3386 154.4586,-34.324 164.3431,-36 280.2093,-55.6463 415.648,-72.385 497.3891,-81.8124"/>
<polygon fill="none" stroke="#000000" points="496.9977,-85.2903 507.3316,-82.9535 497.7959,-78.336 496.9977,-85.2903"/>
</g>
<!-- AvogadroConstant -->
<g id="node2" class="node">
<title>AvogadroConstant</title>
<g id="a_node2"><a xlink:href="http://emmo.info/emmo/middle/siunits#EMMO_176cae33_b83e_4cd2_a6bc_281f42f0ccc8" xlink:title="AvogadroConstant">
<ellipse fill="#ffffcc" stroke="#000000" cx="250.3431" cy="-18" rx="77.1866" ry="18"/>
<text text-anchor="middle" x="250.3431" y="-14.3" font-family="Times,serif" font-size="14.00" fill="#000000">AvogadroConstant</text>
</a>
</g>
</g>
<!-- AvogadroConstant&#45;&gt;SIExactConstant -->
<g id="edge9" class="edge">
<title>AvogadroConstant&#45;&gt;SIExactConstant</title>
<path fill="none" stroke="#000000" d="M306.2571,-30.5414C362.8014,-43.2243 450.0206,-62.7875 508.8213,-75.9764"/>
<polygon fill="none" stroke="#000000" points="508.206,-79.4253 518.7296,-78.1988 509.7381,-72.595 508.206,-79.4253"/>
</g>
<!-- PlanckConstant -->
<g id="node3" class="node">
<title>PlanckConstant</title>
<g id="a_node3"><a xlink:href="http://emmo.info/emmo/middle/siunits#EMMO_76cc4efc_231e_42b4_be83_2547681caed6" xlink:title="PlanckConstant">
<ellipse fill="#ffffcc" stroke="#000000" cx="411.3431" cy="-18" rx="65.7887" ry="18"/>
<text text-anchor="middle" x="411.3431" y="-14.3" font-family="Times,serif" font-size="14.00" fill="#000000">PlanckConstant</text>
</a>
</g>
</g>
<!-- PlanckConstant&#45;&gt;SIExactConstant -->
<g id="edge8" class="edge">
<title>PlanckConstant&#45;&gt;SIExactConstant</title>
<path fill="none" stroke="#000000" d="M445.6672,-33.4458C469.5468,-44.1917 501.592,-58.612 527.3466,-70.2016"/>
<polygon fill="none" stroke="#000000" points="525.9683,-73.4193 536.5238,-74.3313 528.8409,-67.0359 525.9683,-73.4193"/>
</g>
<!-- LuminousEfficacy -->
<g id="node4" class="node">
<title>LuminousEfficacy</title>
<g id="a_node4"><a xlink:href="http://emmo.info/emmo/middle/siunits#EMMO_506f7823_52bc_40cb_be07_b3b1e10cce13" xlink:title="LuminousEfficacy">
<ellipse fill="#ffffcc" stroke="#000000" cx="571.3431" cy="-18" rx="76.8869" ry="18"/>
<text text-anchor="middle" x="571.3431" y="-14.3" font-family="Times,serif" font-size="14.00" fill="#000000">LuminousEfficacy</text>
</a>
</g>
</g>
<!-- LuminousEfficacy&#45;&gt;SIExactConstant -->
<g id="edge3" class="edge">
<title>LuminousEfficacy&#45;&gt;SIExactConstant</title>
<path fill="none" stroke="#000000" d="M571.3431,-36.1686C571.3431,-43.869 571.3431,-53.0257 571.3431,-61.5834"/>
<polygon fill="none" stroke="#000000" points="567.8432,-61.5867 571.3431,-71.5867 574.8432,-61.5868 567.8432,-61.5867"/>
</g>
<!-- MeasuredConstant -->
<g id="node5" class="node">
<title>MeasuredConstant</title>
<g id="a_node5"><a xlink:href="http://emmo.info/emmo/middle/metrology#EMMO_3f15d200_c97b_42c8_8ac0_d81d150361e2" xlink:title="MeasuredConstant">
<ellipse fill="#ffffcc" stroke="#000000" cx="728.3431" cy="-162" rx="77.1866" ry="18"/>
<text text-anchor="middle" x="728.3431" y="-158.3" font-family="Times,serif" font-size="14.00" fill="#000000">MeasuredConstant</text>
</a>
</g>
</g>
<!-- PhysicalConstant -->
<g id="node9" class="node">
<title>PhysicalConstant</title>
<g id="a_node9"><a xlink:href="http://emmo.info/emmo/middle/metrology#EMMO_b953f2b1_c8d1_4dd9_b630_d3ef6580c2bb" xlink:title="PhysicalConstant">
<ellipse fill="#ffffcc" stroke="#000000" stroke-width="2" cx="649.3431" cy="-234" rx="71.4873" ry="18"/>
<text text-anchor="middle" x="649.3431" y="-230.3" font-family="Times,serif" font-size="14.00" fill="#000000">PhysicalConstant</text>
</a>
</g>
</g>
<!-- MeasuredConstant&#45;&gt;PhysicalConstant -->
<g id="edge5" class="edge">
<title>MeasuredConstant&#45;&gt;PhysicalConstant</title>
<path fill="none" stroke="#000000" d="M708.815,-179.7978C698.9613,-188.7783 686.8574,-199.8098 676.147,-209.5711"/>
<polygon fill="none" stroke="#000000" points="673.6799,-207.0841 668.6466,-216.407 678.3952,-212.2577 673.6799,-207.0841"/>
</g>
<!-- ExactConstant -->
<g id="node11" class="node">
<title>ExactConstant</title>
<g id="a_node11"><a xlink:href="http://emmo.info/emmo/middle/metrology#EMMO_89762966_8076_4f7c_b745_f718d653e8e2" xlink:title="ExactConstant">
<ellipse fill="#ffffcc" stroke="#000000" cx="571.3431" cy="-162" rx="61.99" ry="18"/>
<text text-anchor="middle" x="571.3431" y="-158.3" font-family="Times,serif" font-size="14.00" fill="#000000">ExactConstant</text>
</a>
</g>
</g>
<!-- SIExactConstant&#45;&gt;ExactConstant -->
<g id="edge2" class="edge">
<title>SIExactConstant&#45;&gt;ExactConstant</title>
<path fill="none" stroke="#000000" d="M571.3431,-108.1686C571.3431,-115.869 571.3431,-125.0257 571.3431,-133.5834"/>
<polygon fill="none" stroke="#000000" points="567.8432,-133.5867 571.3431,-143.5867 574.8432,-133.5868 567.8432,-133.5867"/>
</g>
<!-- BoltzmannConstant -->
<g id="node7" class="node">
<title>BoltzmannConstant</title>
<g id="a_node7"><a xlink:href="http://emmo.info/emmo/middle/siunits#EMMO_ffc7735f_c177_46a4_98e9_a54440d29209" xlink:title="BoltzmannConstant">
<ellipse fill="#ffffcc" stroke="#000000" cx="747.3431" cy="-18" rx="81.4863" ry="18"/>
<text text-anchor="middle" x="747.3431" y="-14.3" font-family="Times,serif" font-size="14.00" fill="#000000">BoltzmannConstant</text>
</a>
</g>
</g>
<!-- BoltzmannConstant&#45;&gt;SIExactConstant -->
<g id="edge4" class="edge">
<title>BoltzmannConstant&#45;&gt;SIExactConstant</title>
<path fill="none" stroke="#000000" d="M708.283,-33.9791C681.74,-44.8376 646.4869,-59.2594 618.397,-70.7507"/>
<polygon fill="none" stroke="#000000" points="616.7162,-67.6567 608.786,-74.6825 619.3667,-74.1355 616.7162,-67.6567"/>
</g>
<!-- HyperfineTransitionFrequencyOfCs -->
<g id="node8" class="node">
<title>HyperfineTransitionFrequencyOfCs</title>
<g id="a_node8"><a xlink:href="http://emmo.info/emmo/middle/siunits#EMMO_f96feb3f_4438_4e43_aa44_7458c4d87fc2" xlink:title="HyperfineTransitionFrequencyOfCs">
<ellipse fill="#ffffcc" stroke="#000000" cx="984.3431" cy="-18" rx="137.5759" ry="18"/>
<text text-anchor="middle" x="984.3431" y="-14.3" font-family="Times,serif" font-size="14.00" fill="#000000">HyperfineTransitionFrequencyOfCs</text>
</a>
</g>
</g>
<!-- HyperfineTransitionFrequencyOfCs&#45;&gt;SIExactConstant -->
<g id="edge7" class="edge">
<title>HyperfineTransitionFrequencyOfCs&#45;&gt;SIExactConstant</title>
<path fill="none" stroke="#000000" d="M901.2632,-32.4837C824.256,-45.9086 711.0793,-65.6392 639.3193,-78.1494"/>
<polygon fill="none" stroke="#000000" points="638.2918,-74.7757 629.0415,-79.9412 639.4941,-81.6717 638.2918,-74.7757"/>
</g>
<!-- SpeedOfLightInVacuum -->
<g id="node10" class="node">
<title>SpeedOfLightInVacuum</title>
<g id="a_node10"><a xlink:href="http://emmo.info/emmo/middle/siunits#EMMO_99296e55_53f7_4333_9e06_760ad175a1b9" xlink:title="SpeedOfLightInVacuum">
<ellipse fill="#ffffcc" stroke="#000000" cx="1238.3431" cy="-18" rx="98.2828" ry="18"/>
<text text-anchor="middle" x="1238.3431" y="-14.3" font-family="Times,serif" font-size="14.00" fill="#000000">SpeedOfLightInVacuum</text>
</a>
</g>
</g>
<!-- SpeedOfLightInVacuum&#45;&gt;SIExactConstant -->
<g id="edge6" class="edge">
<title>SpeedOfLightInVacuum&#45;&gt;SIExactConstant</title>
<path fill="none" stroke="#000000" d="M1167.9432,-30.5685C1155.7608,-32.5355 1143.2018,-34.4328 1131.3431,-36 959.445,-58.7179 756.6632,-75.8955 648.4917,-84.2922"/>
<polygon fill="none" stroke="#000000" points="648.0239,-80.8178 638.323,-85.0773 648.5628,-87.797 648.0239,-80.8178"/>
</g>
<!-- ExactConstant&#45;&gt;PhysicalConstant -->
<g id="edge1" class="edge">
<title>ExactConstant&#45;&gt;PhysicalConstant</title>
<path fill="none" stroke="#000000" d="M590.2248,-179.4292C600.0205,-188.4714 612.1481,-199.6662 622.8647,-209.5583"/>
<polygon fill="none" stroke="#000000" points="620.643,-212.2708 630.365,-216.4818 625.391,-207.1271 620.643,-212.2708"/>
</g>
<!-- key1 -->
<g id="node12" class="node">
<title>key1</title>
<text text-anchor="start" x="1372.3431" y="-13.8" font-family="Times,serif" font-size="14.00" fill="#000000">isA</text>
</g>
<!-- key2 -->
<g id="node13" class="node">
<title>key2</title>
<text text-anchor="start" x="1451.3431" y="-13.8" font-family="Times,serif" font-size="14.00" fill="#000000"> </text>
</g>
<!-- key1&#45;&gt;key2 -->
<g id="edge11" class="edge">
<title>key1:e&#45;&gt;key2:w</title>
<path fill="none" stroke="#000000" d="M1393.3431,-19C1414.3431,-19 1422.0541,-19 1438.9012,-19"/>
<polygon fill="none" stroke="#000000" points="1439.3432,-22.5001 1449.3431,-19 1439.3431,-15.5001 1439.3432,-22.5001"/>
</g>
</g>
</svg>
