<?xml version="1.0" encoding="UTF-8" standalone="no"?>
<!DOCTYPE svg PUBLIC "-//W3C//DTD SVG 1.1//EN"
 "http://www.w3.org/Graphics/SVG/1.1/DTD/svg11.dtd">
<!-- Generated by graphviz version 2.40.1 (20161225.0304)
 -->
<!-- Title: %3 Pages: 1 -->
<svg width="1488pt" height="260pt"
 viewBox="0.00 0.00 1487.79 260.00" xmlns="http://www.w3.org/2000/svg" xmlns:xlink="http://www.w3.org/1999/xlink">
<g id="graph0" class="graph" transform="scale(1 1) rotate(0) translate(4 256)">
<title>%3</title>
<polygon fill="#ffffff" stroke="transparent" points="-4,4 -4,-256 1483.7878,-256 1483.7878,4 -4,4"/>
<!-- HyperfineTransitionFrequencyOfCs -->
<g id="node1" class="node">
<title>HyperfineTransitionFrequencyOfCs</title>
<g id="a_node1"><a xlink:href="http://emmo.info/emmo/middle/siunits#EMMO_f96feb3f_4438_4e43_aa44_7458c4d87fc2" xlink:title="HyperfineTransitionFrequencyOfCs">
<ellipse fill="#ffffcc" stroke="#000000" cx="137.7878" cy="-18" rx="137.5759" ry="18"/>
<text text-anchor="middle" x="137.7878" y="-14.3" font-family="Times,serif" font-size="14.00" fill="#000000">HyperfineTransitionFrequencyOfCs</text>
</a>
</g>
</g>
<!-- SIExactConstant -->
<g id="node9" class="node">
<title>SIExactConstant</title>
<g id="a_node9"><a xlink:href="http://emmo.info/emmo/middle/siunits#EMMO_f2ca6dd0_0e5f_4392_a92d_cafdae6cfc95" xlink:title="SIExactConstant">
<ellipse fill="#ffffcc" stroke="#000000" cx="757.7878" cy="-90" rx="69.5877" ry="18"/>
<text text-anchor="middle" x="757.7878" y="-86.3" font-family="Times,serif" font-size="14.00" fill="#000000">SIExactConstant</text>
</a>
</g>
</g>
<!-- HyperfineTransitionFrequencyOfCs&#45;&gt;SIExactConstant -->
<g id="edge3" class="edge">
<title>HyperfineTransitionFrequencyOfCs&#45;&gt;SIExactConstant</title>
<path fill="none" stroke="#000000" d="M238.1997,-30.4062C253.7942,-32.301 269.7231,-34.2178 284.7878,-36 425.8073,-52.6833 590.5885,-71.2957 683.7197,-81.7335"/>
<polygon fill="none" stroke="#000000" points="683.5588,-85.2372 693.8863,-82.8723 684.3381,-78.2807 683.5588,-85.2372"/>
</g>
<!-- SpeedOfLightInVacuum -->
<g id="node2" class="node">
<title>SpeedOfLightInVacuum</title>
<g id="a_node2"><a xlink:href="http://emmo.info/emmo/middle/siunits#EMMO_99296e55_53f7_4333_9e06_760ad175a1b9" xlink:title="SpeedOfLightInVacuum">
<ellipse fill="#ffffcc" stroke="#000000" cx="391.7878" cy="-18" rx="98.2828" ry="18"/>
<text text-anchor="middle" x="391.7878" y="-14.3" font-family="Times,serif" font-size="14.00" fill="#000000">SpeedOfLightInVacuum</text>
</a>
</g>
</g>
<!-- SpeedOfLightInVacuum&#45;&gt;SIExactConstant -->
<g id="edge2" class="edge">
<title>SpeedOfLightInVacuum&#45;&gt;SIExactConstant</title>
<path fill="none" stroke="#000000" d="M458.9178,-31.2059C525.3629,-44.2771 626.429,-64.1589 692.2973,-77.1166"/>
<polygon fill="none" stroke="#000000" points="691.6661,-80.5595 702.1536,-79.0556 693.0173,-73.6911 691.6661,-80.5595"/>
</g>
<!-- AvogadroConstant -->
<g id="node3" class="node">
<title>AvogadroConstant</title>
<g id="a_node3"><a xlink:href="http://emmo.info/emmo/middle/siunits#EMMO_176cae33_b83e_4cd2_a6bc_281f42f0ccc8" xlink:title="AvogadroConstant">
<ellipse fill="#ffffcc" stroke="#000000" cx="584.7878" cy="-18" rx="77.1866" ry="18"/>
<text text-anchor="middle" x="584.7878" y="-14.3" font-family="Times,serif" font-size="14.00" fill="#000000">AvogadroConstant</text>
</a>
</g>
</g>
<!-- AvogadroConstant&#45;&gt;SIExactConstant -->
<g id="edge7" class="edge">
<title>AvogadroConstant&#45;&gt;SIExactConstant</title>
<path fill="none" stroke="#000000" d="M622.7534,-33.8007C648.8225,-44.6503 683.5876,-59.119 711.314,-70.6583"/>
<polygon fill="none" stroke="#000000" points="710.2246,-73.9959 720.8018,-74.607 712.9143,-67.5332 710.2246,-73.9959"/>
</g>
<!-- MeasuredConstant -->
<g id="node4" class="node">
<title>MeasuredConstant</title>
<g id="a_node4"><a xlink:href="http://emmo.info/emmo/middle/metrology#EMMO_3f15d200_c97b_42c8_8ac0_d81d150361e2" xlink:title="MeasuredConstant">
<ellipse fill="#ffffcc" stroke="#000000" cx="914.7878" cy="-162" rx="77.1866" ry="18"/>
<text text-anchor="middle" x="914.7878" y="-158.3" font-family="Times,serif" font-size="14.00" fill="#000000">MeasuredConstant</text>
</a>
</g>
</g>
<!-- PhysicalConstant -->
<g id="node6" class="node">
<title>PhysicalConstant</title>
<g id="a_node6"><a xlink:href="http://emmo.info/emmo/middle/metrology#EMMO_b953f2b1_c8d1_4dd9_b630_d3ef6580c2bb" xlink:title="PhysicalConstant">
<ellipse fill="#ffffcc" stroke="#000000" stroke-width="2" cx="835.7878" cy="-234" rx="71.4873" ry="18"/>
<text text-anchor="middle" x="835.7878" y="-230.3" font-family="Times,serif" font-size="14.00" fill="#000000">PhysicalConstant</text>
</a>
</g>
</g>
<!-- MeasuredConstant&#45;&gt;PhysicalConstant -->
<g id="edge1" class="edge">
<title>MeasuredConstant&#45;&gt;PhysicalConstant</title>
<path fill="none" stroke="#000000" d="M895.2597,-179.7978C885.406,-188.7783 873.302,-199.8098 862.5917,-209.5711"/>
<polygon fill="none" stroke="#000000" points="860.1246,-207.0841 855.0912,-216.407 864.8398,-212.2577 860.1246,-207.0841"/>
</g>
<!-- ElementaryCharge -->
<g id="node5" class="node">
<title>ElementaryCharge</title>
<g id="a_node5"><a xlink:href="http://emmo.info/emmo/middle/siunits#EMMO_58a650f0_a638_4743_8439_535a325e5c4c" xlink:title="ElementaryCharge">
<ellipse fill="#ffffcc" stroke="#000000" cx="757.7878" cy="-18" rx="77.1866" ry="18"/>
<text text-anchor="middle" x="757.7878" y="-14.3" font-family="Times,serif" font-size="14.00" fill="#000000">ElementaryCharge</text>
</a>
</g>
</g>
<!-- ElementaryCharge&#45;&gt;SIExactConstant -->
<g id="edge9" class="edge">
<title>ElementaryCharge&#45;&gt;SIExactConstant</title>
<path fill="none" stroke="#000000" d="M757.7878,-36.1686C757.7878,-43.869 757.7878,-53.0257 757.7878,-61.5834"/>
<polygon fill="none" stroke="#000000" points="754.2879,-61.5867 757.7878,-71.5867 761.2879,-61.5868 754.2879,-61.5867"/>
</g>
<!-- PlanckConstant -->
<g id="node7" class="node">
<title>PlanckConstant</title>
<g id="a_node7"><a xlink:href="http://emmo.info/emmo/middle/siunits#EMMO_76cc4efc_231e_42b4_be83_2547681caed6" xlink:title="PlanckConstant">
<ellipse fill="#ffffcc" stroke="#000000" cx="918.7878" cy="-18" rx="65.7887" ry="18"/>
<text text-anchor="middle" x="918.7878" y="-14.3" font-family="Times,serif" font-size="14.00" fill="#000000">PlanckConstant</text>
</a>
</g>
</g>
<!-- PlanckConstant&#45;&gt;SIExactConstant -->
<g id="edge10" class="edge">
<title>PlanckConstant&#45;&gt;SIExactConstant</title>
<path fill="none" stroke="#000000" d="M884.2492,-33.4458C860.2203,-44.1917 827.9749,-58.612 802.0593,-70.2016"/>
<polygon fill="none" stroke="#000000" points="800.5246,-67.0538 792.8247,-74.3313 803.3823,-73.4439 800.5246,-67.0538"/>
</g>
<!-- LuminousEfficacy -->
<g id="node8" class="node">
<title>LuminousEfficacy</title>
<g id="a_node8"><a xlink:href="http://emmo.info/emmo/middle/siunits#EMMO_506f7823_52bc_40cb_be07_b3b1e10cce13" xlink:title="LuminousEfficacy">
<ellipse fill="#ffffcc" stroke="#000000" cx="1078.7878" cy="-18" rx="76.8869" ry="18"/>
<text text-anchor="middle" x="1078.7878" y="-14.3" font-family="Times,serif" font-size="14.00" fill="#000000">LuminousEfficacy</text>
</a>
</g>
</g>
<!-- LuminousEfficacy&#45;&gt;SIExactConstant -->
<g id="edge4" class="edge">
<title>LuminousEfficacy&#45;&gt;SIExactConstant</title>
<path fill="none" stroke="#000000" d="M1023.2403,-30.4592C966.7539,-43.1291 879.3829,-62.7263 820.4566,-75.9434"/>
<polygon fill="none" stroke="#000000" points="819.5184,-72.5668 810.5268,-78.1707 821.0504,-79.3971 819.5184,-72.5668"/>
</g>
<!-- ExactConstant -->
<g id="node11" class="node">
<title>ExactConstant</title>
<g id="a_node11"><a xlink:href="http://emmo.info/emmo/middle/metrology#EMMO_89762966_8076_4f7c_b745_f718d653e8e2" xlink:title="ExactConstant">
<ellipse fill="#ffffcc" stroke="#000000" cx="757.7878" cy="-162" rx="61.99" ry="18"/>
<text text-anchor="middle" x="757.7878" y="-158.3" font-family="Times,serif" font-size="14.00" fill="#000000">ExactConstant</text>
</a>
</g>
</g>
<!-- SIExactConstant&#45;&gt;ExactConstant -->
<g id="edge5" class="edge">
<title>SIExactConstant&#45;&gt;ExactConstant</title>
<path fill="none" stroke="#000000" d="M757.7878,-108.1686C757.7878,-115.869 757.7878,-125.0257 757.7878,-133.5834"/>
<polygon fill="none" stroke="#000000" points="754.2879,-133.5867 757.7878,-143.5867 761.2879,-133.5868 754.2879,-133.5867"/>
</g>
<!-- BoltzmannConstant -->
<g id="node10" class="node">
<title>BoltzmannConstant</title>
<g id="a_node10"><a xlink:href="http://emmo.info/emmo/middle/siunits#EMMO_ffc7735f_c177_46a4_98e9_a54440d29209" xlink:title="BoltzmannConstant">
<ellipse fill="#ffffcc" stroke="#000000" cx="1254.7878" cy="-18" rx="81.4863" ry="18"/>
<text text-anchor="middle" x="1254.7878" y="-14.3" font-family="Times,serif" font-size="14.00" fill="#000000">BoltzmannConstant</text>
</a>
</g>
</g>
<!-- BoltzmannConstant&#45;&gt;SIExactConstant -->
<g id="edge8" class="edge">
<title>BoltzmannConstant&#45;&gt;SIExactConstant</title>
<path fill="none" stroke="#000000" d="M1195.3426,-30.4605C1185.1701,-32.4289 1174.6907,-34.3546 1164.7878,-36 1048.8572,-55.2625 913.4371,-72.1118 831.7173,-81.6665"/>
<polygon fill="none" stroke="#000000" points="831.3057,-78.1907 821.7775,-82.8236 832.1152,-85.1437 831.3057,-78.1907"/>
</g>
<!-- ExactConstant&#45;&gt;PhysicalConstant -->
<g id="edge6" class="edge">
<title>ExactConstant&#45;&gt;PhysicalConstant</title>
<path fill="none" stroke="#000000" d="M776.6694,-179.4292C786.4652,-188.4714 798.5928,-199.6662 809.3093,-209.5583"/>
<polygon fill="none" stroke="#000000" points="807.0876,-212.2708 816.8097,-216.4818 811.8356,-207.1271 807.0876,-212.2708"/>
</g>
<!-- key1 -->
<g id="node12" class="node">
<title>key1</title>
<text text-anchor="start" x="1371.7878" y="-13.8" font-family="Times,serif" font-size="14.00" fill="#000000">isA</text>
</g>
<!-- key2 -->
<g id="node13" class="node">
<title>key2</title>
<text text-anchor="start" x="1450.7878" y="-13.8" font-family="Times,serif" font-size="14.00" fill="#000000"> </text>
</g>
<!-- key1&#45;&gt;key2 -->
<g id="edge11" class="edge">
<title>key1:e&#45;&gt;key2:w</title>
<path fill="none" stroke="#000000" d="M1392.7878,-19C1413.7878,-19 1421.4987,-19 1438.3459,-19"/>
<polygon fill="none" stroke="#000000" points="1438.7878,-22.5001 1448.7878,-19 1438.7877,-15.5001 1438.7878,-22.5001"/>
</g>
</g>
</svg>
