<?xml version="1.0" encoding="UTF-8" standalone="no"?>
<!DOCTYPE svg PUBLIC "-//W3C//DTD SVG 1.1//EN"
 "http://www.w3.org/Graphics/SVG/1.1/DTD/svg11.dtd">
<!-- Generated by graphviz version 2.40.1 (20161225.0304)
 -->
<!-- Title: %3 Pages: 1 -->
<svg width="849pt" height="116pt"
 viewBox="0.00 0.00 849.49 116.00" xmlns="http://www.w3.org/2000/svg" xmlns:xlink="http://www.w3.org/1999/xlink">
<g id="graph0" class="graph" transform="scale(1 1) rotate(0) translate(4 112)">
<title>%3</title>
<polygon fill="#ffffff" stroke="transparent" points="-4,4 -4,-112 845.4948,-112 845.4948,4 -4,4"/>
<!-- BaseQuantity -->
<g id="node1" class="node">
<title>BaseQuantity</title>
<g id="a_node1"><a xlink:href="http://emmo.info/emmo/middle/metrology#EMMO_acaaa124_3dde_48b6_86e6_6ec6f364f408" xlink:title="BaseQuantity">
<ellipse fill="#ffffcc" stroke="#000000" stroke-width="2" cx="58.4948" cy="-18" rx="58.4896" ry="18"/>
<text text-anchor="middle" x="58.4948" y="-14.3" font-family="Times,serif" font-size="14.00" fill="#000000">BaseQuantity</text>
</a>
</g>
</g>
<!-- PhysicalQuantity -->
<g id="node2" class="node">
<title>PhysicalQuantity</title>
<g id="a_node2"><a xlink:href="http://emmo.info/emmo/middle/metrology#EMMO_02c0621e_a527_4790_8a0f_2bb51973c819" xlink:title="PhysicalQuantity">
<ellipse fill="#ffffcc" stroke="#000000" stroke-width="2" cx="285.4948" cy="-90" rx="71.4873" ry="18"/>
<text text-anchor="middle" x="285.4948" y="-86.3" font-family="Times,serif" font-size="14.00" fill="#000000">PhysicalQuantity</text>
</a>
</g>
</g>
<!-- BaseQuantity&#45;&gt;PhysicalQuantity -->
<g id="edge2" class="edge">
<title>BaseQuantity&#45;&gt;PhysicalQuantity</title>
<path fill="none" stroke="#000000" d="M99.34,-30.9553C136.132,-42.625 190.4957,-59.8681 230.9868,-72.7111"/>
<polygon fill="none" stroke="#000000" points="230.1118,-76.1053 240.702,-75.7926 232.2282,-69.4329 230.1118,-76.1053"/>
</g>
<!-- PhysicalConstant -->
<g id="node3" class="node">
<title>PhysicalConstant</title>
<g id="a_node3"><a xlink:href="http://emmo.info/emmo/middle/metrology#EMMO_b953f2b1_c8d1_4dd9_b630_d3ef6580c2bb" xlink:title="PhysicalConstant">
<ellipse fill="#ffffcc" stroke="#000000" stroke-width="2" cx="206.4948" cy="-18" rx="71.4873" ry="18"/>
<text text-anchor="middle" x="206.4948" y="-14.3" font-family="Times,serif" font-size="14.00" fill="#000000">PhysicalConstant</text>
</a>
</g>
</g>
<!-- PhysicalConstant&#45;&gt;PhysicalQuantity -->
<g id="edge3" class="edge">
<title>PhysicalConstant&#45;&gt;PhysicalQuantity</title>
<path fill="none" stroke="#000000" d="M225.6185,-35.4292C235.5399,-44.4714 247.823,-55.6662 258.6769,-65.5583"/>
<polygon fill="none" stroke="#000000" points="256.5248,-68.3325 266.2734,-72.4818 261.2401,-63.1589 256.5248,-68.3325"/>
</g>
<!-- DerivedQuantity -->
<g id="node4" class="node">
<title>DerivedQuantity</title>
<g id="a_node4"><a xlink:href="http://emmo.info/emmo/middle/metrology#EMMO_71f6ab56_342c_484b_bbe0_de86b7367cb3" xlink:title="DerivedQuantity">
<ellipse fill="#ffffcc" stroke="#000000" stroke-width="2" cx="365.4948" cy="-18" rx="69.5877" ry="18"/>
<text text-anchor="middle" x="365.4948" y="-14.3" font-family="Times,serif" font-size="14.00" fill="#000000">DerivedQuantity</text>
</a>
</g>
</g>
<!-- DerivedQuantity&#45;&gt;PhysicalQuantity -->
<g id="edge1" class="edge">
<title>DerivedQuantity&#45;&gt;PhysicalQuantity</title>
<path fill="none" stroke="#000000" d="M346.129,-35.4292C336.0821,-44.4714 323.6435,-55.6662 312.6522,-65.5583"/>
<polygon fill="none" stroke="#000000" points="310.0511,-63.1905 304.9595,-72.4818 314.7339,-68.3936 310.0511,-63.1905"/>
</g>
<!-- InternationalSystemOfQuantity -->
<g id="node5" class="node">
<title>InternationalSystemOfQuantity</title>
<g id="a_node5"><a xlink:href="http://emmo.info/emmo/middle/isq#EMMO_f35cff4d_dc09_44cf_a729_22fb79e3bfb2" xlink:title="InternationalSystemOfQuantity">
<ellipse fill="#ffffcc" stroke="#000000" cx="575.4948" cy="-18" rx="122.3786" ry="18"/>
<text text-anchor="middle" x="575.4948" y="-14.3" font-family="Times,serif" font-size="14.00" fill="#000000">InternationalSystemOfQuantity</text>
</a>
</g>
</g>
<!-- InternationalSystemOfQuantity&#45;&gt;PhysicalQuantity -->
<g id="edge4" class="edge">
<title>InternationalSystemOfQuantity&#45;&gt;PhysicalQuantity</title>
<path fill="none" stroke="#000000" d="M512.9262,-33.5343C463.701,-45.7557 395.4962,-62.6893 346.6415,-74.8188"/>
<polygon fill="none" stroke="#000000" points="345.6942,-71.4476 336.8322,-77.2542 347.381,-78.2414 345.6942,-71.4476"/>
</g>
<!-- key1 -->
<g id="node6" class="node">
<title>key1</title>
<text text-anchor="start" x="733.4948" y="-13.8" font-family="Times,serif" font-size="14.00" fill="#000000">isA</text>
</g>
<!-- key2 -->
<g id="node7" class="node">
<title>key2</title>
<text text-anchor="start" x="812.4948" y="-13.8" font-family="Times,serif" font-size="14.00" fill="#000000"> </text>
</g>
<!-- key1&#45;&gt;key2 -->
<g id="edge5" class="edge">
<title>key1:e&#45;&gt;key2:w</title>
<path fill="none" stroke="#000000" d="M754.4948,-19C775.4948,-19 783.2057,-19 800.0529,-19"/>
<polygon fill="none" stroke="#000000" points="800.4948,-22.5001 810.4948,-19 800.4948,-15.5001 800.4948,-22.5001"/>
</g>
</g>
</svg>
