<?xml version="1.0" encoding="UTF-8" standalone="no"?>
<!DOCTYPE svg PUBLIC "-//W3C//DTD SVG 1.1//EN"
 "http://www.w3.org/Graphics/SVG/1.1/DTD/svg11.dtd">
<!-- Generated by graphviz version 2.40.1 (20161225.0304)
 -->
<!-- Title: %3 Pages: 1 -->
<svg width="1488pt" height="260pt"
 viewBox="0.00 0.00 1487.69 260.00" xmlns="http://www.w3.org/2000/svg" xmlns:xlink="http://www.w3.org/1999/xlink">
<g id="graph0" class="graph" transform="scale(1 1) rotate(0) translate(4 256)">
<title>%3</title>
<polygon fill="#ffffff" stroke="transparent" points="-4,4 -4,-256 1483.6932,-256 1483.6932,4 -4,4"/>
<!-- LuminousEfficacy -->
<g id="node1" class="node">
<title>LuminousEfficacy</title>
<g id="a_node1"><a xlink:href="http://emmo.info/emmo/middle/siunits#EMMO_506f7823_52bc_40cb_be07_b3b1e10cce13" xlink:title="LuminousEfficacy">
<ellipse fill="#ffffcc" stroke="#000000" cx="76.6932" cy="-18" rx="76.8869" ry="18"/>
<text text-anchor="middle" x="76.6932" y="-14.3" font-family="Times,serif" font-size="14.00" fill="#000000">LuminousEfficacy</text>
</a>
</g>
</g>
<!-- SIExactConstant -->
<g id="node2" class="node">
<title>SIExactConstant</title>
<g id="a_node2"><a xlink:href="http://emmo.info/emmo/middle/siunits#EMMO_f2ca6dd0_0e5f_4392_a92d_cafdae6cfc95" xlink:title="SIExactConstant">
<ellipse fill="#ffffcc" stroke="#000000" cx="662.6932" cy="-90" rx="69.5877" ry="18"/>
<text text-anchor="middle" x="662.6932" y="-86.3" font-family="Times,serif" font-size="14.00" fill="#000000">SIExactConstant</text>
</a>
</g>
</g>
<!-- LuminousEfficacy&#45;&gt;SIExactConstant -->
<g id="edge2" class="edge">
<title>LuminousEfficacy&#45;&gt;SIExactConstant</title>
<path fill="none" stroke="#000000" d="M132.5213,-30.5198C142.5355,-32.5269 152.8999,-34.4502 162.6932,-36 311.5733,-59.561 487.0427,-75.9024 585.5308,-84.0464"/>
<polygon fill="none" stroke="#000000" points="585.4405,-87.5507 595.6933,-84.8802 586.013,-80.5741 585.4405,-87.5507"/>
</g>
<!-- ExactConstant -->
<g id="node3" class="node">
<title>ExactConstant</title>
<g id="a_node3"><a xlink:href="http://emmo.info/emmo/middle/metrology#EMMO_89762966_8076_4f7c_b745_f718d653e8e2" xlink:title="ExactConstant">
<ellipse fill="#ffffcc" stroke="#000000" cx="662.6932" cy="-162" rx="61.99" ry="18"/>
<text text-anchor="middle" x="662.6932" y="-158.3" font-family="Times,serif" font-size="14.00" fill="#000000">ExactConstant</text>
</a>
</g>
</g>
<!-- SIExactConstant&#45;&gt;ExactConstant -->
<g id="edge7" class="edge">
<title>SIExactConstant&#45;&gt;ExactConstant</title>
<path fill="none" stroke="#000000" d="M662.6932,-108.1686C662.6932,-115.869 662.6932,-125.0257 662.6932,-133.5834"/>
<polygon fill="none" stroke="#000000" points="659.1933,-133.5867 662.6932,-143.5867 666.1933,-133.5868 659.1933,-133.5867"/>
</g>
<!-- PhysicalConstant -->
<g id="node11" class="node">
<title>PhysicalConstant</title>
<g id="a_node11"><a xlink:href="http://emmo.info/emmo/middle/metrology#EMMO_b953f2b1_c8d1_4dd9_b630_d3ef6580c2bb" xlink:title="PhysicalConstant">
<ellipse fill="#ffffcc" stroke="#000000" stroke-width="2" cx="740.6932" cy="-234" rx="71.4873" ry="18"/>
<text text-anchor="middle" x="740.6932" y="-230.3" font-family="Times,serif" font-size="14.00" fill="#000000">PhysicalConstant</text>
</a>
</g>
</g>
<!-- ExactConstant&#45;&gt;PhysicalConstant -->
<g id="edge5" class="edge">
<title>ExactConstant&#45;&gt;PhysicalConstant</title>
<path fill="none" stroke="#000000" d="M681.5748,-179.4292C691.3706,-188.4714 703.4982,-199.6662 714.2147,-209.5583"/>
<polygon fill="none" stroke="#000000" points="711.9931,-212.2708 721.7151,-216.4818 716.741,-207.1271 711.9931,-212.2708"/>
</g>
<!-- BoltzmannConstant -->
<g id="node4" class="node">
<title>BoltzmannConstant</title>
<g id="a_node4"><a xlink:href="http://emmo.info/emmo/middle/siunits#EMMO_ffc7735f_c177_46a4_98e9_a54440d29209" xlink:title="BoltzmannConstant">
<ellipse fill="#ffffcc" stroke="#000000" cx="252.6932" cy="-18" rx="81.4863" ry="18"/>
<text text-anchor="middle" x="252.6932" y="-14.3" font-family="Times,serif" font-size="14.00" fill="#000000">BoltzmannConstant</text>
</a>
</g>
</g>
<!-- BoltzmannConstant&#45;&gt;SIExactConstant -->
<g id="edge10" class="edge">
<title>BoltzmannConstant&#45;&gt;SIExactConstant</title>
<path fill="none" stroke="#000000" d="M312.8562,-30.1437C323.1351,-32.1487 333.7139,-34.1687 343.6932,-36 429.5667,-51.7582 528.7608,-68.2878 593.4426,-78.8429"/>
<polygon fill="none" stroke="#000000" points="593.0873,-82.331 603.52,-80.4846 594.2129,-75.4221 593.0873,-82.331"/>
</g>
<!-- AvogadroConstant -->
<g id="node5" class="node">
<title>AvogadroConstant</title>
<g id="a_node5"><a xlink:href="http://emmo.info/emmo/middle/siunits#EMMO_176cae33_b83e_4cd2_a6bc_281f42f0ccc8" xlink:title="AvogadroConstant">
<ellipse fill="#ffffcc" stroke="#000000" cx="429.6932" cy="-18" rx="77.1866" ry="18"/>
<text text-anchor="middle" x="429.6932" y="-14.3" font-family="Times,serif" font-size="14.00" fill="#000000">AvogadroConstant</text>
</a>
</g>
</g>
<!-- AvogadroConstant&#45;&gt;SIExactConstant -->
<g id="edge1" class="edge">
<title>AvogadroConstant&#45;&gt;SIExactConstant</title>
<path fill="none" stroke="#000000" d="M476.2842,-32.3972C514.3173,-44.15 568.1249,-60.7772 608.1606,-73.1487"/>
<polygon fill="none" stroke="#000000" points="607.1787,-76.5085 617.7663,-76.117 609.2454,-69.8206 607.1787,-76.5085"/>
</g>
<!-- HyperfineTransitionFrequencyOfCs -->
<g id="node6" class="node">
<title>HyperfineTransitionFrequencyOfCs</title>
<g id="a_node6"><a xlink:href="http://emmo.info/emmo/middle/siunits#EMMO_f96feb3f_4438_4e43_aa44_7458c4d87fc2" xlink:title="HyperfineTransitionFrequencyOfCs">
<ellipse fill="#ffffcc" stroke="#000000" cx="662.6932" cy="-18" rx="137.5759" ry="18"/>
<text text-anchor="middle" x="662.6932" y="-14.3" font-family="Times,serif" font-size="14.00" fill="#000000">HyperfineTransitionFrequencyOfCs</text>
</a>
</g>
</g>
<!-- HyperfineTransitionFrequencyOfCs&#45;&gt;SIExactConstant -->
<g id="edge8" class="edge">
<title>HyperfineTransitionFrequencyOfCs&#45;&gt;SIExactConstant</title>
<path fill="none" stroke="#000000" d="M662.6932,-36.1686C662.6932,-43.869 662.6932,-53.0257 662.6932,-61.5834"/>
<polygon fill="none" stroke="#000000" points="659.1933,-61.5867 662.6932,-71.5867 666.1933,-61.5868 659.1933,-61.5867"/>
</g>
<!-- PlanckConstant -->
<g id="node7" class="node">
<title>PlanckConstant</title>
<g id="a_node7"><a xlink:href="http://emmo.info/emmo/middle/siunits#EMMO_76cc4efc_231e_42b4_be83_2547681caed6" xlink:title="PlanckConstant">
<ellipse fill="#ffffcc" stroke="#000000" cx="883.6932" cy="-18" rx="65.7887" ry="18"/>
<text text-anchor="middle" x="883.6932" y="-14.3" font-family="Times,serif" font-size="14.00" fill="#000000">PlanckConstant</text>
</a>
</g>
</g>
<!-- PlanckConstant&#45;&gt;SIExactConstant -->
<g id="edge4" class="edge">
<title>PlanckConstant&#45;&gt;SIExactConstant</title>
<path fill="none" stroke="#000000" d="M841.3437,-31.7971C805.6773,-43.4169 754.4699,-60.0999 716.0148,-72.6282"/>
<polygon fill="none" stroke="#000000" points="714.4552,-69.4552 706.0313,-75.8808 716.6236,-76.1109 714.4552,-69.4552"/>
</g>
<!-- SpeedOfLightInVacuum -->
<g id="node8" class="node">
<title>SpeedOfLightInVacuum</title>
<g id="a_node8"><a xlink:href="http://emmo.info/emmo/middle/siunits#EMMO_99296e55_53f7_4333_9e06_760ad175a1b9" xlink:title="SpeedOfLightInVacuum">
<ellipse fill="#ffffcc" stroke="#000000" cx="1065.6932" cy="-18" rx="98.2828" ry="18"/>
<text text-anchor="middle" x="1065.6932" y="-14.3" font-family="Times,serif" font-size="14.00" fill="#000000">SpeedOfLightInVacuum</text>
</a>
</g>
</g>
<!-- SpeedOfLightInVacuum&#45;&gt;SIExactConstant -->
<g id="edge6" class="edge">
<title>SpeedOfLightInVacuum&#45;&gt;SIExactConstant</title>
<path fill="none" stroke="#000000" d="M995.0348,-30.6238C920.4376,-43.9514 803.6898,-64.8095 730.2765,-77.9256"/>
<polygon fill="none" stroke="#000000" points="729.4426,-74.519 720.2141,-79.7233 730.6738,-81.4099 729.4426,-74.519"/>
</g>
<!-- MeasuredConstant -->
<g id="node9" class="node">
<title>MeasuredConstant</title>
<g id="a_node9"><a xlink:href="http://emmo.info/emmo/middle/metrology#EMMO_3f15d200_c97b_42c8_8ac0_d81d150361e2" xlink:title="MeasuredConstant">
<ellipse fill="#ffffcc" stroke="#000000" cx="819.6932" cy="-162" rx="77.1866" ry="18"/>
<text text-anchor="middle" x="819.6932" y="-158.3" font-family="Times,serif" font-size="14.00" fill="#000000">MeasuredConstant</text>
</a>
</g>
</g>
<!-- MeasuredConstant&#45;&gt;PhysicalConstant -->
<g id="edge3" class="edge">
<title>MeasuredConstant&#45;&gt;PhysicalConstant</title>
<path fill="none" stroke="#000000" d="M800.1651,-179.7978C790.3114,-188.7783 778.2075,-199.8098 767.4971,-209.5711"/>
<polygon fill="none" stroke="#000000" points="765.03,-207.0841 759.9967,-216.407 769.7452,-212.2577 765.03,-207.0841"/>
</g>
<!-- ElementaryCharge -->
<g id="node10" class="node">
<title>ElementaryCharge</title>
<g id="a_node10"><a xlink:href="http://emmo.info/emmo/middle/siunits#EMMO_58a650f0_a638_4743_8439_535a325e5c4c" xlink:title="ElementaryCharge">
<ellipse fill="#ffffcc" stroke="#000000" cx="1258.6932" cy="-18" rx="77.1866" ry="18"/>
<text text-anchor="middle" x="1258.6932" y="-14.3" font-family="Times,serif" font-size="14.00" fill="#000000">ElementaryCharge</text>
</a>
</g>
</g>
<!-- ElementaryCharge&#45;&gt;SIExactConstant -->
<g id="edge9" class="edge">
<title>ElementaryCharge&#45;&gt;SIExactConstant</title>
<path fill="none" stroke="#000000" d="M1202.8677,-30.5369C1192.8533,-32.5422 1182.4881,-34.4604 1172.6932,-36 1020.0531,-59.9923 839.9963,-76.2712 739.8375,-84.2691"/>
<polygon fill="none" stroke="#000000" points="739.4975,-80.785 729.8052,-85.0638 740.0503,-87.7631 739.4975,-80.785"/>
</g>
<!-- key1 -->
<g id="node12" class="node">
<title>key1</title>
<text text-anchor="start" x="1371.6932" y="-13.8" font-family="Times,serif" font-size="14.00" fill="#000000">isA</text>
</g>
<!-- key2 -->
<g id="node13" class="node">
<title>key2</title>
<text text-anchor="start" x="1450.6932" y="-13.8" font-family="Times,serif" font-size="14.00" fill="#000000"> </text>
</g>
<!-- key1&#45;&gt;key2 -->
<g id="edge11" class="edge">
<title>key1:e&#45;&gt;key2:w</title>
<path fill="none" stroke="#000000" d="M1392.6932,-19C1413.6932,-19 1421.4041,-19 1438.2513,-19"/>
<polygon fill="none" stroke="#000000" points="1438.6932,-22.5001 1448.6932,-19 1438.6932,-15.5001 1438.6932,-22.5001"/>
</g>
</g>
</svg>
