<?xml version="1.0" encoding="UTF-8" standalone="no"?>
<!DOCTYPE svg PUBLIC "-//W3C//DTD SVG 1.1//EN"
 "http://www.w3.org/Graphics/SVG/1.1/DTD/svg11.dtd">
<!-- Generated by graphviz version 2.40.1 (20161225.0304)
 -->
<!-- Title: %3 Pages: 1 -->
<svg width="585pt" height="270pt"
 viewBox="0.00 0.00 584.95 270.00" xmlns="http://www.w3.org/2000/svg" xmlns:xlink="http://www.w3.org/1999/xlink">
<g id="graph0" class="graph" transform="scale(1 1) rotate(0) translate(4 266)">
<title>%3</title>
<polygon fill="#ffffff" stroke="transparent" points="-4,4 -4,-266 580.9464,-266 580.9464,4 -4,4"/>
<!-- Vacuum -->
<g id="node1" class="node">
<title>Vacuum</title>
<g id="a_node1"><a xlink:href="http://emmo.info/emmo/middle/physicalistic#EMMO_3c218fbe_60c9_4597_8bcf_41eb1773af1f" xlink:title="Vacuum">
<ellipse fill="#ffc880" stroke="#000000" cx="40.9464" cy="-100" rx="40.8928" ry="18"/>
<text text-anchor="middle" x="40.9464" y="-96.3" font-family="Times,serif" font-size="14.00" fill="#000000">Vacuum</text>
</a>
</g>
</g>
<!-- Field -->
<g id="node2" class="node">
<title>Field</title>
<g id="a_node2"><a xlink:href="http://emmo.info/emmo/middle/physicalistic#EMMO_70dac51e_bddd_48c2_8a98_7d8395e91fc2" xlink:title="Field">
<ellipse fill="#ffffcc" stroke="#000000" cx="40.9464" cy="-172" rx="28.6953" ry="18"/>
<text text-anchor="middle" x="40.9464" y="-168.3" font-family="Times,serif" font-size="14.00" fill="#000000">Field</text>
</a>
</g>
</g>
<!-- Vacuum&#45;&gt;Field -->
<g id="edge2" class="edge">
<title>Vacuum&#45;&gt;Field</title>
<path fill="none" stroke="#000000" d="M40.9464,-118.1686C40.9464,-125.869 40.9464,-135.0257 40.9464,-143.5834"/>
<polygon fill="none" stroke="#000000" points="37.4465,-143.5867 40.9464,-153.5867 44.4465,-143.5868 37.4465,-143.5867"/>
</g>
<!-- Field&#45;&gt;Field -->
<g id="edge4" class="edge">
<title>Field&#45;&gt;Field</title>
<path fill="none" stroke="#ff00ff" d="M62.0321,-159.4525C75.1038,-156.4269 87.5438,-160.6094 87.5438,-172 87.5438,-180.365 80.8348,-184.8426 72.0936,-185.4328"/>
<polygon fill="#ff00ff" stroke="#ff00ff" points="72.3004,-181.9376 62.0321,-184.5475 71.6868,-188.9106 72.3004,-181.9376"/>
</g>
<!-- Physicalistic -->
<g id="node7" class="node">
<title>Physicalistic</title>
<g id="a_node7"><a xlink:href="http://emmo.info/emmo/middle/physicalistic#EMMO_98ada9d8_f1c8_4f13_99b5_d890f5354152" xlink:title="Physicalistic">
<ellipse fill="#ffc880" stroke="#000000" stroke-width="2" cx="183.9464" cy="-244" rx="55.4913" ry="18"/>
<text text-anchor="middle" x="183.9464" y="-240.3" font-family="Times,serif" font-size="14.00" fill="#000000">Physicalistic</text>
</a>
</g>
</g>
<!-- Field&#45;&gt;Physicalistic -->
<g id="edge3" class="edge">
<title>Field&#45;&gt;Physicalistic</title>
<path fill="none" stroke="#000000" d="M63.2901,-183.25C84.9779,-194.1697 118.3607,-210.9779 144.5191,-224.1485"/>
<polygon fill="none" stroke="#000000" points="143.2887,-227.4476 153.7945,-228.8186 146.4367,-221.1954 143.2887,-227.4476"/>
</g>
<!-- MaterialState -->
<g id="node3" class="node">
<title>MaterialState</title>
<g id="a_node3"><a xlink:href="http://emmo.info/emmo/middle/materials#EMMO_20fff605_465f_4034_8696_e53e90ec83f4" xlink:title="MaterialState">
<ellipse fill="#ffc880" stroke="#000000" stroke-width="2" cx="314.9464" cy="-23" rx="58.4896" ry="18"/>
<text text-anchor="middle" x="314.9464" y="-19.3" font-family="Times,serif" font-size="14.00" fill="#000000">MaterialState</text>
</a>
</g>
</g>
<!-- Material -->
<g id="node6" class="node">
<title>Material</title>
<g id="a_node6"><a xlink:href="http://emmo.info/emmo/middle/physicalistic#EMMO_4207e895_8b83_4318_996a_72cfb32acd94" xlink:title="Material">
<ellipse fill="#ffffcc" stroke="#000000" cx="314.9464" cy="-100" rx="40.8928" ry="18"/>
<text text-anchor="middle" x="314.9464" y="-96.3" font-family="Times,serif" font-size="14.00" fill="#000000">Material</text>
</a>
</g>
</g>
<!-- MaterialState&#45;&gt;Material -->
<g id="edge8" class="edge">
<title>MaterialState&#45;&gt;Material</title>
<path fill="none" stroke="#000000" d="M314.9464,-41.2479C314.9464,-50.3578 314.9464,-61.5826 314.9464,-71.7718"/>
<polygon fill="none" stroke="#000000" points="311.4465,-71.883 314.9464,-81.8831 318.4465,-71.8831 311.4465,-71.883"/>
</g>
<!-- ElementaryParticle -->
<g id="node4" class="node">
<title>ElementaryParticle</title>
<g id="a_node4"><a xlink:href="http://emmo.info/emmo/middle/physicalistic#EMMO_c26a0340_d619_4928_b1a1_1a04e88bb89d" xlink:title="ElementaryParticle">
<ellipse fill="#ffffcc" stroke="#000000" stroke-width="2" cx="183.9464" cy="-172" rx="78.7863" ry="18"/>
<text text-anchor="middle" x="183.9464" y="-168.3" font-family="Times,serif" font-size="14.00" fill="#000000">ElementaryParticle</text>
</a>
</g>
</g>
<!-- ElementaryParticle&#45;&gt;Physicalistic -->
<g id="edge1" class="edge">
<title>ElementaryParticle&#45;&gt;Physicalistic</title>
<path fill="none" stroke="#000000" d="M183.9464,-190.1686C183.9464,-197.869 183.9464,-207.0257 183.9464,-215.5834"/>
<polygon fill="none" stroke="#000000" points="180.4465,-215.5867 183.9464,-225.5867 187.4465,-215.5868 180.4465,-215.5867"/>
</g>
<!-- Matter -->
<g id="node5" class="node">
<title>Matter</title>
<g id="a_node5"><a xlink:href="http://emmo.info/emmo/middle/physicalistic#EMMO_5b2222df_4da6_442f_8244_96e9e45887d1" xlink:title="Matter">
<ellipse fill="#ffffcc" stroke="#000000" cx="314.9464" cy="-172" rx="34.394" ry="18"/>
<text text-anchor="middle" x="314.9464" y="-168.3" font-family="Times,serif" font-size="14.00" fill="#000000">Matter</text>
</a>
</g>
</g>
<!-- Matter&#45;&gt;Matter -->
<g id="edge6" class="edge">
<title>Matter&#45;&gt;Matter</title>
<path fill="none" stroke="#ff00ff" d="M339.4956,-159.2918C353.9054,-156.5843 367.3933,-160.8203 367.3933,-172 367.3933,-180.4721 359.6475,-184.9566 349.6245,-185.4536"/>
<polygon fill="#ff00ff" stroke="#ff00ff" points="349.7255,-181.9516 339.4956,-184.7082 349.2117,-188.9327 349.7255,-181.9516"/>
</g>
<!-- Matter&#45;&gt;Physicalistic -->
<g id="edge5" class="edge">
<title>Matter&#45;&gt;Physicalistic</title>
<path fill="none" stroke="#000000" d="M290.9189,-185.2059C271.443,-195.9103 243.6566,-211.1822 221.2844,-223.4783"/>
<polygon fill="none" stroke="#000000" points="219.4593,-220.4876 212.3815,-228.3715 222.8309,-226.6221 219.4593,-220.4876"/>
</g>
<!-- Material&#45;&gt;Matter -->
<g id="edge7" class="edge">
<title>Material&#45;&gt;Matter</title>
<path fill="none" stroke="#000000" d="M314.9464,-118.1686C314.9464,-125.869 314.9464,-135.0257 314.9464,-143.5834"/>
<polygon fill="none" stroke="#000000" points="311.4465,-143.5867 314.9464,-153.5867 318.4465,-143.5868 311.4465,-143.5867"/>
</g>
<!-- key1 -->
<g id="node8" class="node">
<title>key1</title>
<text text-anchor="start" x="475.9464" y="-28.8" font-family="Times,serif" font-size="14.00" fill="#000000">isA</text>
<text text-anchor="start" x="400.9464" y="-9.8" font-family="Times,serif" font-size="14.00" fill="#000000">hasTemporalPart</text>
</g>
<!-- key2 -->
<g id="node9" class="node">
<title>key2</title>
<text text-anchor="start" x="547.9464" y="-28.8" font-family="Times,serif" font-size="14.00" fill="#000000"> </text>
<text text-anchor="start" x="547.9464" y="-9.8" font-family="Times,serif" font-size="14.00" fill="#000000"> </text>
</g>
<!-- key1&#45;&gt;key2 -->
<g id="edge9" class="edge">
<title>key1:e&#45;&gt;key2:w</title>
<path fill="none" stroke="#ff00ff" d="M496.9464,-13C514.811,-13 521.6846,-13 535.5994,-13"/>
<polygon fill="#ff00ff" stroke="#ff00ff" points="535.9464,-16.5001 545.9464,-13 535.9463,-9.5001 535.9464,-16.5001"/>
</g>
<!-- key1&#45;&gt;key2 -->
<g id="edge10" class="edge">
<title>key1:e&#45;&gt;key2:w</title>
<path fill="none" stroke="#000000" d="M496.9464,-33C514.811,-33 521.6846,-33 535.5994,-33"/>
<polygon fill="none" stroke="#000000" points="535.9464,-36.5001 545.9464,-33 535.9463,-29.5001 535.9464,-36.5001"/>
</g>
</g>
</svg>
