<?xml version="1.0" encoding="UTF-8" standalone="no"?>
<!DOCTYPE svg PUBLIC "-//W3C//DTD SVG 1.1//EN"
 "http://www.w3.org/Graphics/SVG/1.1/DTD/svg11.dtd">
<!-- Generated by graphviz version 2.40.1 (20161225.0304)
 -->
<!-- Title: %3 Pages: 1 -->
<svg width="1488pt" height="260pt"
 viewBox="0.00 0.00 1488.14 260.00" xmlns="http://www.w3.org/2000/svg" xmlns:xlink="http://www.w3.org/1999/xlink">
<g id="graph0" class="graph" transform="scale(1 1) rotate(0) translate(4 256)">
<title>%3</title>
<polygon fill="#ffffff" stroke="transparent" points="-4,4 -4,-256 1484.1413,-256 1484.1413,4 -4,4"/>
<!-- SpeedOfLightInVacuum -->
<g id="node1" class="node">
<title>SpeedOfLightInVacuum</title>
<g id="a_node1"><a xlink:href="http://emmo.info/emmo/middle/siunits#EMMO_99296e55_53f7_4333_9e06_760ad175a1b9" xlink:title="SpeedOfLightInVacuum">
<ellipse fill="#ffffcc" stroke="#000000" cx="98.1413" cy="-18" rx="98.2828" ry="18"/>
<text text-anchor="middle" x="98.1413" y="-14.3" font-family="Times,serif" font-size="14.00" fill="#000000">SpeedOfLightInVacuum</text>
</a>
</g>
</g>
<!-- SIExactConstant -->
<g id="node7" class="node">
<title>SIExactConstant</title>
<g id="a_node7"><a xlink:href="http://emmo.info/emmo/middle/siunits#EMMO_f2ca6dd0_0e5f_4392_a92d_cafdae6cfc95" xlink:title="SIExactConstant">
<ellipse fill="#ffffcc" stroke="#000000" cx="636.1413" cy="-90" rx="69.5877" ry="18"/>
<text text-anchor="middle" x="636.1413" y="-86.3" font-family="Times,serif" font-size="14.00" fill="#000000">SIExactConstant</text>
</a>
</g>
</g>
<!-- SpeedOfLightInVacuum&#45;&gt;SIExactConstant -->
<g id="edge10" class="edge">
<title>SpeedOfLightInVacuum&#45;&gt;SIExactConstant</title>
<path fill="none" stroke="#000000" d="M169.4448,-30.4237C181.3514,-32.3751 193.5858,-34.3049 205.1413,-36 330.0756,-54.3267 475.9652,-71.7813 561.9486,-81.6642"/>
<polygon fill="none" stroke="#000000" points="561.7984,-85.1699 572.132,-82.8315 562.5956,-78.2154 561.7984,-85.1699"/>
</g>
<!-- ExactConstant -->
<g id="node2" class="node">
<title>ExactConstant</title>
<g id="a_node2"><a xlink:href="http://emmo.info/emmo/middle/metrology#EMMO_89762966_8076_4f7c_b745_f718d653e8e2" xlink:title="ExactConstant">
<ellipse fill="#ffffcc" stroke="#000000" cx="636.1413" cy="-162" rx="61.99" ry="18"/>
<text text-anchor="middle" x="636.1413" y="-158.3" font-family="Times,serif" font-size="14.00" fill="#000000">ExactConstant</text>
</a>
</g>
</g>
<!-- PhysicalConstant -->
<g id="node9" class="node">
<title>PhysicalConstant</title>
<g id="a_node9"><a xlink:href="http://emmo.info/emmo/middle/metrology#EMMO_b953f2b1_c8d1_4dd9_b630_d3ef6580c2bb" xlink:title="PhysicalConstant">
<ellipse fill="#ffffcc" stroke="#000000" stroke-width="2" cx="714.1413" cy="-234" rx="71.4873" ry="18"/>
<text text-anchor="middle" x="714.1413" y="-230.3" font-family="Times,serif" font-size="14.00" fill="#000000">PhysicalConstant</text>
</a>
</g>
</g>
<!-- ExactConstant&#45;&gt;PhysicalConstant -->
<g id="edge5" class="edge">
<title>ExactConstant&#45;&gt;PhysicalConstant</title>
<path fill="none" stroke="#000000" d="M655.0229,-179.4292C664.8187,-188.4714 676.9463,-199.6662 687.6628,-209.5583"/>
<polygon fill="none" stroke="#000000" points="685.4411,-212.2708 695.1632,-216.4818 690.1891,-207.1271 685.4411,-212.2708"/>
</g>
<!-- ElementaryCharge -->
<g id="node3" class="node">
<title>ElementaryCharge</title>
<g id="a_node3"><a xlink:href="http://emmo.info/emmo/middle/siunits#EMMO_58a650f0_a638_4743_8439_535a325e5c4c" xlink:title="ElementaryCharge">
<ellipse fill="#ffffcc" stroke="#000000" cx="291.1413" cy="-18" rx="77.1866" ry="18"/>
<text text-anchor="middle" x="291.1413" y="-14.3" font-family="Times,serif" font-size="14.00" fill="#000000">ElementaryCharge</text>
</a>
</g>
</g>
<!-- ElementaryCharge&#45;&gt;SIExactConstant -->
<g id="edge2" class="edge">
<title>ElementaryCharge&#45;&gt;SIExactConstant</title>
<path fill="none" stroke="#000000" d="M348.8865,-30.0512C410.5211,-42.914 507.9268,-63.2422 571.933,-76.6"/>
<polygon fill="none" stroke="#000000" points="571.4041,-80.065 581.9082,-78.6818 572.8342,-73.2126 571.4041,-80.065"/>
</g>
<!-- AvogadroConstant -->
<g id="node4" class="node">
<title>AvogadroConstant</title>
<g id="a_node4"><a xlink:href="http://emmo.info/emmo/middle/siunits#EMMO_176cae33_b83e_4cd2_a6bc_281f42f0ccc8" xlink:title="AvogadroConstant">
<ellipse fill="#ffffcc" stroke="#000000" cx="464.1413" cy="-18" rx="77.1866" ry="18"/>
<text text-anchor="middle" x="464.1413" y="-14.3" font-family="Times,serif" font-size="14.00" fill="#000000">AvogadroConstant</text>
</a>
</g>
</g>
<!-- AvogadroConstant&#45;&gt;SIExactConstant -->
<g id="edge6" class="edge">
<title>AvogadroConstant&#45;&gt;SIExactConstant</title>
<path fill="none" stroke="#000000" d="M501.8874,-33.8007C527.8059,-44.6503 562.37,-59.119 589.9361,-70.6583"/>
<polygon fill="none" stroke="#000000" points="588.7932,-73.9741 599.3691,-74.607 591.4962,-67.517 588.7932,-73.9741"/>
</g>
<!-- LuminousEfficacy -->
<g id="node5" class="node">
<title>LuminousEfficacy</title>
<g id="a_node5"><a xlink:href="http://emmo.info/emmo/middle/siunits#EMMO_506f7823_52bc_40cb_be07_b3b1e10cce13" xlink:title="LuminousEfficacy">
<ellipse fill="#ffffcc" stroke="#000000" cx="636.1413" cy="-18" rx="76.8869" ry="18"/>
<text text-anchor="middle" x="636.1413" y="-14.3" font-family="Times,serif" font-size="14.00" fill="#000000">LuminousEfficacy</text>
</a>
</g>
</g>
<!-- LuminousEfficacy&#45;&gt;SIExactConstant -->
<g id="edge9" class="edge">
<title>LuminousEfficacy&#45;&gt;SIExactConstant</title>
<path fill="none" stroke="#000000" d="M636.1413,-36.1686C636.1413,-43.869 636.1413,-53.0257 636.1413,-61.5834"/>
<polygon fill="none" stroke="#000000" points="632.6414,-61.5867 636.1413,-71.5867 639.6414,-61.5868 632.6414,-61.5867"/>
</g>
<!-- MeasuredConstant -->
<g id="node6" class="node">
<title>MeasuredConstant</title>
<g id="a_node6"><a xlink:href="http://emmo.info/emmo/middle/metrology#EMMO_3f15d200_c97b_42c8_8ac0_d81d150361e2" xlink:title="MeasuredConstant">
<ellipse fill="#ffffcc" stroke="#000000" cx="793.1413" cy="-162" rx="77.1866" ry="18"/>
<text text-anchor="middle" x="793.1413" y="-158.3" font-family="Times,serif" font-size="14.00" fill="#000000">MeasuredConstant</text>
</a>
</g>
</g>
<!-- MeasuredConstant&#45;&gt;PhysicalConstant -->
<g id="edge1" class="edge">
<title>MeasuredConstant&#45;&gt;PhysicalConstant</title>
<path fill="none" stroke="#000000" d="M773.6132,-179.7978C763.7595,-188.7783 751.6556,-199.8098 740.9452,-209.5711"/>
<polygon fill="none" stroke="#000000" points="738.4781,-207.0841 733.4448,-216.407 743.1933,-212.2577 738.4781,-207.0841"/>
</g>
<!-- SIExactConstant&#45;&gt;ExactConstant -->
<g id="edge8" class="edge">
<title>SIExactConstant&#45;&gt;ExactConstant</title>
<path fill="none" stroke="#000000" d="M636.1413,-108.1686C636.1413,-115.869 636.1413,-125.0257 636.1413,-133.5834"/>
<polygon fill="none" stroke="#000000" points="632.6414,-133.5867 636.1413,-143.5867 639.6414,-133.5868 632.6414,-133.5867"/>
</g>
<!-- BoltzmannConstant -->
<g id="node8" class="node">
<title>BoltzmannConstant</title>
<g id="a_node8"><a xlink:href="http://emmo.info/emmo/middle/siunits#EMMO_ffc7735f_c177_46a4_98e9_a54440d29209" xlink:title="BoltzmannConstant">
<ellipse fill="#ffffcc" stroke="#000000" cx="812.1413" cy="-18" rx="81.4863" ry="18"/>
<text text-anchor="middle" x="812.1413" y="-14.3" font-family="Times,serif" font-size="14.00" fill="#000000">BoltzmannConstant</text>
</a>
</g>
</g>
<!-- BoltzmannConstant&#45;&gt;SIExactConstant -->
<g id="edge7" class="edge">
<title>BoltzmannConstant&#45;&gt;SIExactConstant</title>
<path fill="none" stroke="#000000" d="M773.0812,-33.9791C746.5382,-44.8376 711.2851,-59.2594 683.1951,-70.7507"/>
<polygon fill="none" stroke="#000000" points="681.5144,-67.6567 673.5841,-74.6825 684.1649,-74.1355 681.5144,-67.6567"/>
</g>
<!-- HyperfineTransitionFrequencyOfCs -->
<g id="node10" class="node">
<title>HyperfineTransitionFrequencyOfCs</title>
<g id="a_node10"><a xlink:href="http://emmo.info/emmo/middle/siunits#EMMO_f96feb3f_4438_4e43_aa44_7458c4d87fc2" xlink:title="HyperfineTransitionFrequencyOfCs">
<ellipse fill="#ffffcc" stroke="#000000" cx="1049.1413" cy="-18" rx="137.5759" ry="18"/>
<text text-anchor="middle" x="1049.1413" y="-14.3" font-family="Times,serif" font-size="14.00" fill="#000000">HyperfineTransitionFrequencyOfCs</text>
</a>
</g>
</g>
<!-- HyperfineTransitionFrequencyOfCs&#45;&gt;SIExactConstant -->
<g id="edge4" class="edge">
<title>HyperfineTransitionFrequencyOfCs&#45;&gt;SIExactConstant</title>
<path fill="none" stroke="#000000" d="M966.0614,-32.4837C889.0542,-45.9086 775.8775,-65.6392 704.1175,-78.1494"/>
<polygon fill="none" stroke="#000000" points="703.09,-74.7757 693.8397,-79.9412 704.2922,-81.6717 703.09,-74.7757"/>
</g>
<!-- PlanckConstant -->
<g id="node11" class="node">
<title>PlanckConstant</title>
<g id="a_node11"><a xlink:href="http://emmo.info/emmo/middle/siunits#EMMO_76cc4efc_231e_42b4_be83_2547681caed6" xlink:title="PlanckConstant">
<ellipse fill="#ffffcc" stroke="#000000" cx="1270.1413" cy="-18" rx="65.7887" ry="18"/>
<text text-anchor="middle" x="1270.1413" y="-14.3" font-family="Times,serif" font-size="14.00" fill="#000000">PlanckConstant</text>
</a>
</g>
</g>
<!-- PlanckConstant&#45;&gt;SIExactConstant -->
<g id="edge3" class="edge">
<title>PlanckConstant&#45;&gt;SIExactConstant</title>
<path fill="none" stroke="#000000" d="M1222.9774,-30.5334C1214.1076,-32.588 1204.8761,-34.5242 1196.1413,-36 1025.8712,-64.7673 823.6927,-79.5555 714.8882,-85.9525"/>
<polygon fill="none" stroke="#000000" points="714.4352,-82.4728 704.6544,-86.5456 714.8402,-89.4611 714.4352,-82.4728"/>
</g>
<!-- key1 -->
<g id="node12" class="node">
<title>key1</title>
<text text-anchor="start" x="1372.1413" y="-13.8" font-family="Times,serif" font-size="14.00" fill="#000000">isA</text>
</g>
<!-- key2 -->
<g id="node13" class="node">
<title>key2</title>
<text text-anchor="start" x="1451.1413" y="-13.8" font-family="Times,serif" font-size="14.00" fill="#000000"> </text>
</g>
<!-- key1&#45;&gt;key2 -->
<g id="edge11" class="edge">
<title>key1:e&#45;&gt;key2:w</title>
<path fill="none" stroke="#000000" d="M1393.1413,-19C1414.1413,-19 1421.8522,-19 1438.6994,-19"/>
<polygon fill="none" stroke="#000000" points="1439.1413,-22.5001 1449.1413,-19 1439.1413,-15.5001 1439.1413,-22.5001"/>
</g>
</g>
</svg>
