<?xml version="1.0" encoding="UTF-8" standalone="no"?>
<!DOCTYPE svg PUBLIC "-//W3C//DTD SVG 1.1//EN"
 "http://www.w3.org/Graphics/SVG/1.1/DTD/svg11.dtd">
<!-- Generated by graphviz version 2.40.1 (20161225.0304)
 -->
<!-- Title: %3 Pages: 1 -->
<svg width="1487pt" height="260pt"
 viewBox="0.00 0.00 1487.34 260.00" xmlns="http://www.w3.org/2000/svg" xmlns:xlink="http://www.w3.org/1999/xlink">
<g id="graph0" class="graph" transform="scale(1 1) rotate(0) translate(4 256)">
<title>%3</title>
<polygon fill="#ffffff" stroke="transparent" points="-4,4 -4,-256 1483.3431,-256 1483.3431,4 -4,4"/>
<!-- PhysicalConstant -->
<g id="node1" class="node">
<title>PhysicalConstant</title>
<g id="a_node1"><a xlink:href="http://emmo.info/emmo/middle/metrology#EMMO_b953f2b1_c8d1_4dd9_b630_d3ef6580c2bb" xlink:title="PhysicalConstant">
<ellipse fill="#ffffcc" stroke="#000000" stroke-width="2" cx="652.3431" cy="-234" rx="71.4873" ry="18"/>
<text text-anchor="middle" x="652.3431" y="-230.3" font-family="Times,serif" font-size="14.00" fill="#000000">PhysicalConstant</text>
</a>
</g>
</g>
<!-- AvogadroConstant -->
<g id="node2" class="node">
<title>AvogadroConstant</title>
<g id="a_node2"><a xlink:href="http://emmo.info/emmo/middle/siunits#EMMO_176cae33_b83e_4cd2_a6bc_281f42f0ccc8" xlink:title="AvogadroConstant">
<ellipse fill="#ffffcc" stroke="#000000" cx="77.3431" cy="-18" rx="77.1866" ry="18"/>
<text text-anchor="middle" x="77.3431" y="-14.3" font-family="Times,serif" font-size="14.00" fill="#000000">AvogadroConstant</text>
</a>
</g>
</g>
<!-- SIExactConstant -->
<g id="node5" class="node">
<title>SIExactConstant</title>
<g id="a_node5"><a xlink:href="http://emmo.info/emmo/middle/siunits#EMMO_f2ca6dd0_0e5f_4392_a92d_cafdae6cfc95" xlink:title="SIExactConstant">
<ellipse fill="#ffffcc" stroke="#000000" cx="574.3431" cy="-90" rx="69.5877" ry="18"/>
<text text-anchor="middle" x="574.3431" y="-86.3" font-family="Times,serif" font-size="14.00" fill="#000000">SIExactConstant</text>
</a>
</g>
</g>
<!-- AvogadroConstant&#45;&gt;SIExactConstant -->
<g id="edge8" class="edge">
<title>AvogadroConstant&#45;&gt;SIExactConstant</title>
<path fill="none" stroke="#000000" d="M133.6645,-30.425C143.5316,-32.4194 153.7188,-34.363 163.3431,-36 280.4884,-55.9257 417.4947,-72.6118 500.0111,-81.9483"/>
<polygon fill="none" stroke="#000000" points="499.7176,-85.4373 510.0463,-83.0779 500.5006,-78.4812 499.7176,-85.4373"/>
</g>
<!-- PlanckConstant -->
<g id="node3" class="node">
<title>PlanckConstant</title>
<g id="a_node3"><a xlink:href="http://emmo.info/emmo/middle/siunits#EMMO_76cc4efc_231e_42b4_be83_2547681caed6" xlink:title="PlanckConstant">
<ellipse fill="#ffffcc" stroke="#000000" cx="238.3431" cy="-18" rx="65.7887" ry="18"/>
<text text-anchor="middle" x="238.3431" y="-14.3" font-family="Times,serif" font-size="14.00" fill="#000000">PlanckConstant</text>
</a>
</g>
</g>
<!-- PlanckConstant&#45;&gt;SIExactConstant -->
<g id="edge2" class="edge">
<title>PlanckConstant&#45;&gt;SIExactConstant</title>
<path fill="none" stroke="#000000" d="M287.2461,-30.1537C295.6071,-32.1575 304.2159,-34.1746 312.3431,-36 379.0712,-50.9872 455.7246,-66.6003 508.8049,-77.1601"/>
<polygon fill="none" stroke="#000000" points="508.275,-80.6231 518.7651,-79.1373 509.638,-73.7571 508.275,-80.6231"/>
</g>
<!-- LuminousEfficacy -->
<g id="node4" class="node">
<title>LuminousEfficacy</title>
<g id="a_node4"><a xlink:href="http://emmo.info/emmo/middle/siunits#EMMO_506f7823_52bc_40cb_be07_b3b1e10cce13" xlink:title="LuminousEfficacy">
<ellipse fill="#ffffcc" stroke="#000000" cx="398.3431" cy="-18" rx="76.8869" ry="18"/>
<text text-anchor="middle" x="398.3431" y="-14.3" font-family="Times,serif" font-size="14.00" fill="#000000">LuminousEfficacy</text>
</a>
</g>
</g>
<!-- LuminousEfficacy&#45;&gt;SIExactConstant -->
<g id="edge1" class="edge">
<title>LuminousEfficacy&#45;&gt;SIExactConstant</title>
<path fill="none" stroke="#000000" d="M436.5325,-33.6229C463.3279,-44.5847 499.3103,-59.3048 527.7882,-70.9548"/>
<polygon fill="none" stroke="#000000" points="526.5533,-74.2311 537.134,-74.7781 529.2038,-67.7523 526.5533,-74.2311"/>
</g>
<!-- ExactConstant -->
<g id="node7" class="node">
<title>ExactConstant</title>
<g id="a_node7"><a xlink:href="http://emmo.info/emmo/middle/metrology#EMMO_89762966_8076_4f7c_b745_f718d653e8e2" xlink:title="ExactConstant">
<ellipse fill="#ffffcc" stroke="#000000" cx="574.3431" cy="-162" rx="61.99" ry="18"/>
<text text-anchor="middle" x="574.3431" y="-158.3" font-family="Times,serif" font-size="14.00" fill="#000000">ExactConstant</text>
</a>
</g>
</g>
<!-- SIExactConstant&#45;&gt;ExactConstant -->
<g id="edge9" class="edge">
<title>SIExactConstant&#45;&gt;ExactConstant</title>
<path fill="none" stroke="#000000" d="M574.3431,-108.1686C574.3431,-115.869 574.3431,-125.0257 574.3431,-133.5834"/>
<polygon fill="none" stroke="#000000" points="570.8432,-133.5867 574.3431,-143.5867 577.8432,-133.5868 570.8432,-133.5867"/>
</g>
<!-- BoltzmannConstant -->
<g id="node6" class="node">
<title>BoltzmannConstant</title>
<g id="a_node6"><a xlink:href="http://emmo.info/emmo/middle/siunits#EMMO_ffc7735f_c177_46a4_98e9_a54440d29209" xlink:title="BoltzmannConstant">
<ellipse fill="#ffffcc" stroke="#000000" cx="574.3431" cy="-18" rx="81.4863" ry="18"/>
<text text-anchor="middle" x="574.3431" y="-14.3" font-family="Times,serif" font-size="14.00" fill="#000000">BoltzmannConstant</text>
</a>
</g>
</g>
<!-- BoltzmannConstant&#45;&gt;SIExactConstant -->
<g id="edge3" class="edge">
<title>BoltzmannConstant&#45;&gt;SIExactConstant</title>
<path fill="none" stroke="#000000" d="M574.3431,-36.1686C574.3431,-43.869 574.3431,-53.0257 574.3431,-61.5834"/>
<polygon fill="none" stroke="#000000" points="570.8432,-61.5867 574.3431,-71.5867 577.8432,-61.5868 570.8432,-61.5867"/>
</g>
<!-- ExactConstant&#45;&gt;PhysicalConstant -->
<g id="edge10" class="edge">
<title>ExactConstant&#45;&gt;PhysicalConstant</title>
<path fill="none" stroke="#000000" d="M593.2248,-179.4292C603.0205,-188.4714 615.1481,-199.6662 625.8647,-209.5583"/>
<polygon fill="none" stroke="#000000" points="623.643,-212.2708 633.365,-216.4818 628.391,-207.1271 623.643,-212.2708"/>
</g>
<!-- HyperfineTransitionFrequencyOfCs -->
<g id="node8" class="node">
<title>HyperfineTransitionFrequencyOfCs</title>
<g id="a_node8"><a xlink:href="http://emmo.info/emmo/middle/siunits#EMMO_f96feb3f_4438_4e43_aa44_7458c4d87fc2" xlink:title="HyperfineTransitionFrequencyOfCs">
<ellipse fill="#ffffcc" stroke="#000000" cx="811.3431" cy="-18" rx="137.5759" ry="18"/>
<text text-anchor="middle" x="811.3431" y="-14.3" font-family="Times,serif" font-size="14.00" fill="#000000">HyperfineTransitionFrequencyOfCs</text>
</a>
</g>
</g>
<!-- HyperfineTransitionFrequencyOfCs&#45;&gt;SIExactConstant -->
<g id="edge4" class="edge">
<title>HyperfineTransitionFrequencyOfCs&#45;&gt;SIExactConstant</title>
<path fill="none" stroke="#000000" d="M756.673,-34.6087C718.5243,-46.1981 667.7958,-61.6093 629.5335,-73.2333"/>
<polygon fill="none" stroke="#000000" points="628.1433,-69.9976 619.5925,-76.2534 630.1781,-76.6954 628.1433,-69.9976"/>
</g>
<!-- SpeedOfLightInVacuum -->
<g id="node9" class="node">
<title>SpeedOfLightInVacuum</title>
<g id="a_node9"><a xlink:href="http://emmo.info/emmo/middle/siunits#EMMO_99296e55_53f7_4333_9e06_760ad175a1b9" xlink:title="SpeedOfLightInVacuum">
<ellipse fill="#ffffcc" stroke="#000000" cx="1065.3431" cy="-18" rx="98.2828" ry="18"/>
<text text-anchor="middle" x="1065.3431" y="-14.3" font-family="Times,serif" font-size="14.00" fill="#000000">SpeedOfLightInVacuum</text>
</a>
</g>
</g>
<!-- SpeedOfLightInVacuum&#45;&gt;SIExactConstant -->
<g id="edge5" class="edge">
<title>SpeedOfLightInVacuum&#45;&gt;SIExactConstant</title>
<path fill="none" stroke="#000000" d="M993.729,-30.3214C981.916,-32.2751 969.7925,-34.2323 958.3431,-36 849.9358,-52.7376 723.9703,-70.0441 646.711,-80.4152"/>
<polygon fill="none" stroke="#000000" points="646.0517,-76.9721 636.6052,-81.7695 646.9815,-83.9101 646.0517,-76.9721"/>
</g>
<!-- MeasuredConstant -->
<g id="node10" class="node">
<title>MeasuredConstant</title>
<g id="a_node10"><a xlink:href="http://emmo.info/emmo/middle/metrology#EMMO_3f15d200_c97b_42c8_8ac0_d81d150361e2" xlink:title="MeasuredConstant">
<ellipse fill="#ffffcc" stroke="#000000" cx="731.3431" cy="-162" rx="77.1866" ry="18"/>
<text text-anchor="middle" x="731.3431" y="-158.3" font-family="Times,serif" font-size="14.00" fill="#000000">MeasuredConstant</text>
</a>
</g>
</g>
<!-- MeasuredConstant&#45;&gt;PhysicalConstant -->
<g id="edge7" class="edge">
<title>MeasuredConstant&#45;&gt;PhysicalConstant</title>
<path fill="none" stroke="#000000" d="M711.815,-179.7978C701.9613,-188.7783 689.8574,-199.8098 679.147,-209.5711"/>
<polygon fill="none" stroke="#000000" points="676.6799,-207.0841 671.6466,-216.407 681.3952,-212.2577 676.6799,-207.0841"/>
</g>
<!-- ElementaryCharge -->
<g id="node11" class="node">
<title>ElementaryCharge</title>
<g id="a_node11"><a xlink:href="http://emmo.info/emmo/middle/siunits#EMMO_58a650f0_a638_4743_8439_535a325e5c4c" xlink:title="ElementaryCharge">
<ellipse fill="#ffffcc" stroke="#000000" cx="1258.3431" cy="-18" rx="77.1866" ry="18"/>
<text text-anchor="middle" x="1258.3431" y="-14.3" font-family="Times,serif" font-size="14.00" fill="#000000">ElementaryCharge</text>
</a>
</g>
</g>
<!-- ElementaryCharge&#45;&gt;SIExactConstant -->
<g id="edge6" class="edge">
<title>ElementaryCharge&#45;&gt;SIExactConstant</title>
<path fill="none" stroke="#000000" d="M1202.537,-30.6632C1192.5205,-32.6551 1182.1496,-34.536 1172.3431,-36 987.1972,-63.6395 767.5411,-79.074 652.8982,-85.8258"/>
<polygon fill="none" stroke="#000000" points="652.5884,-82.3379 642.8089,-86.4136 652.9955,-89.326 652.5884,-82.3379"/>
</g>
<!-- key1 -->
<g id="node12" class="node">
<title>key1</title>
<text text-anchor="start" x="1371.3431" y="-13.8" font-family="Times,serif" font-size="14.00" fill="#000000">isA</text>
</g>
<!-- key2 -->
<g id="node13" class="node">
<title>key2</title>
<text text-anchor="start" x="1450.3431" y="-13.8" font-family="Times,serif" font-size="14.00" fill="#000000"> </text>
</g>
<!-- key1&#45;&gt;key2 -->
<g id="edge11" class="edge">
<title>key1:e&#45;&gt;key2:w</title>
<path fill="none" stroke="#000000" d="M1392.3431,-19C1413.3431,-19 1421.0541,-19 1437.9012,-19"/>
<polygon fill="none" stroke="#000000" points="1438.3432,-22.5001 1448.3431,-19 1438.3431,-15.5001 1438.3432,-22.5001"/>
</g>
</g>
</svg>
