<?xml version="1.0" encoding="UTF-8" standalone="no"?>
<!DOCTYPE svg PUBLIC "-//W3C//DTD SVG 1.1//EN"
 "http://www.w3.org/Graphics/SVG/1.1/DTD/svg11.dtd">
<!-- Generated by graphviz version 2.40.1 (20161225.0304)
 -->
<!-- Title: %3 Pages: 1 -->
<svg width="573pt" height="270pt"
 viewBox="0.00 0.00 572.64 270.00" xmlns="http://www.w3.org/2000/svg" xmlns:xlink="http://www.w3.org/1999/xlink">
<g id="graph0" class="graph" transform="scale(1 1) rotate(0) translate(4 266)">
<title>%3</title>
<polygon fill="#ffffff" stroke="transparent" points="-4,4 -4,-266 568.643,-266 568.643,4 -4,4"/>
<!-- Physicalistic -->
<g id="node1" class="node">
<title>Physicalistic</title>
<g id="a_node1"><a xlink:href="http://emmo.info/emmo/middle/physicalistic#EMMO_98ada9d8_f1c8_4f13_99b5_d890f5354152" xlink:title="Physicalistic">
<ellipse fill="#ffc880" stroke="#000000" stroke-width="2" cx="203.643" cy="-244" rx="55.4913" ry="18"/>
<text text-anchor="middle" x="203.643" y="-240.3" font-family="Times,serif" font-size="14.00" fill="#000000">Physicalistic</text>
</a>
</g>
</g>
<!-- ElementaryParticle -->
<g id="node2" class="node">
<title>ElementaryParticle</title>
<g id="a_node2"><a xlink:href="http://emmo.info/emmo/middle/physicalistic#EMMO_c26a0340_d619_4928_b1a1_1a04e88bb89d" xlink:title="ElementaryParticle">
<ellipse fill="#ffffcc" stroke="#000000" stroke-width="2" cx="78.643" cy="-172" rx="78.7863" ry="18"/>
<text text-anchor="middle" x="78.643" y="-168.3" font-family="Times,serif" font-size="14.00" fill="#000000">ElementaryParticle</text>
</a>
</g>
</g>
<!-- ElementaryParticle&#45;&gt;Physicalistic -->
<g id="edge4" class="edge">
<title>ElementaryParticle&#45;&gt;Physicalistic</title>
<path fill="none" stroke="#000000" d="M107.95,-188.8808C125.6857,-199.0966 148.4451,-212.206 167.3181,-223.0768"/>
<polygon fill="none" stroke="#000000" points="165.8195,-226.2527 176.2318,-228.2111 169.3134,-220.187 165.8195,-226.2527"/>
</g>
<!-- Field -->
<g id="node3" class="node">
<title>Field</title>
<g id="a_node3"><a xlink:href="http://emmo.info/emmo/middle/physicalistic#EMMO_70dac51e_bddd_48c2_8a98_7d8395e91fc2" xlink:title="Field">
<ellipse fill="#ffffcc" stroke="#000000" cx="203.643" cy="-172" rx="28.6953" ry="18"/>
<text text-anchor="middle" x="203.643" y="-168.3" font-family="Times,serif" font-size="14.00" fill="#000000">Field</text>
</a>
</g>
</g>
<!-- Field&#45;&gt;Physicalistic -->
<g id="edge7" class="edge">
<title>Field&#45;&gt;Physicalistic</title>
<path fill="none" stroke="#000000" d="M203.643,-190.1686C203.643,-197.869 203.643,-207.0257 203.643,-215.5834"/>
<polygon fill="none" stroke="#000000" points="200.1431,-215.5867 203.643,-225.5867 207.1431,-215.5868 200.1431,-215.5867"/>
</g>
<!-- Field&#45;&gt;Field -->
<g id="edge8" class="edge">
<title>Field&#45;&gt;Field</title>
<path fill="none" stroke="#ff00ff" d="M224.7287,-159.4525C237.8005,-156.4269 250.2405,-160.6094 250.2405,-172 250.2405,-180.365 243.5315,-184.8426 234.7902,-185.4328"/>
<polygon fill="#ff00ff" stroke="#ff00ff" points="234.997,-181.9376 224.7287,-184.5475 234.3834,-188.9106 234.997,-181.9376"/>
</g>
<!-- MaterialState -->
<g id="node4" class="node">
<title>MaterialState</title>
<g id="a_node4"><a xlink:href="http://emmo.info/emmo/middle/materials#EMMO_20fff605_465f_4034_8696_e53e90ec83f4" xlink:title="MaterialState">
<ellipse fill="#ffc880" stroke="#000000" stroke-width="2" cx="302.643" cy="-23" rx="58.4896" ry="18"/>
<text text-anchor="middle" x="302.643" y="-19.3" font-family="Times,serif" font-size="14.00" fill="#000000">MaterialState</text>
</a>
</g>
</g>
<!-- Material -->
<g id="node6" class="node">
<title>Material</title>
<g id="a_node6"><a xlink:href="http://emmo.info/emmo/middle/physicalistic#EMMO_4207e895_8b83_4318_996a_72cfb32acd94" xlink:title="Material">
<ellipse fill="#ffffcc" stroke="#000000" cx="302.643" cy="-100" rx="40.8928" ry="18"/>
<text text-anchor="middle" x="302.643" y="-96.3" font-family="Times,serif" font-size="14.00" fill="#000000">Material</text>
</a>
</g>
</g>
<!-- MaterialState&#45;&gt;Material -->
<g id="edge2" class="edge">
<title>MaterialState&#45;&gt;Material</title>
<path fill="none" stroke="#000000" d="M302.643,-41.2479C302.643,-50.3578 302.643,-61.5826 302.643,-71.7718"/>
<polygon fill="none" stroke="#000000" points="299.1431,-71.883 302.643,-81.8831 306.1431,-71.8831 299.1431,-71.883"/>
</g>
<!-- Matter -->
<g id="node5" class="node">
<title>Matter</title>
<g id="a_node5"><a xlink:href="http://emmo.info/emmo/middle/physicalistic#EMMO_5b2222df_4da6_442f_8244_96e9e45887d1" xlink:title="Matter">
<ellipse fill="#ffffcc" stroke="#000000" cx="302.643" cy="-172" rx="34.394" ry="18"/>
<text text-anchor="middle" x="302.643" y="-168.3" font-family="Times,serif" font-size="14.00" fill="#000000">Matter</text>
</a>
</g>
</g>
<!-- Matter&#45;&gt;Physicalistic -->
<g id="edge5" class="edge">
<title>Matter&#45;&gt;Physicalistic</title>
<path fill="none" stroke="#000000" d="M282.1302,-186.9184C268.4631,-196.8581 250.2442,-210.1082 234.8,-221.3404"/>
<polygon fill="none" stroke="#000000" points="232.5807,-218.6267 226.5519,-227.339 236.6979,-224.2878 232.5807,-218.6267"/>
</g>
<!-- Matter&#45;&gt;Matter -->
<g id="edge6" class="edge">
<title>Matter&#45;&gt;Matter</title>
<path fill="none" stroke="#ff00ff" d="M327.1922,-159.2918C341.6021,-156.5843 355.09,-160.8203 355.09,-172 355.09,-180.4721 347.3442,-184.9566 337.3211,-185.4536"/>
<polygon fill="#ff00ff" stroke="#ff00ff" points="337.4221,-181.9516 327.1922,-184.7082 336.9083,-188.9327 337.4221,-181.9516"/>
</g>
<!-- Material&#45;&gt;Matter -->
<g id="edge1" class="edge">
<title>Material&#45;&gt;Matter</title>
<path fill="none" stroke="#000000" d="M302.643,-118.1686C302.643,-125.869 302.643,-135.0257 302.643,-143.5834"/>
<polygon fill="none" stroke="#000000" points="299.1431,-143.5867 302.643,-153.5867 306.1431,-143.5868 299.1431,-143.5867"/>
</g>
<!-- Vacuum -->
<g id="node7" class="node">
<title>Vacuum</title>
<g id="a_node7"><a xlink:href="http://emmo.info/emmo/middle/physicalistic#EMMO_3c218fbe_60c9_4597_8bcf_41eb1773af1f" xlink:title="Vacuum">
<ellipse fill="#ffc880" stroke="#000000" cx="202.643" cy="-100" rx="40.8928" ry="18"/>
<text text-anchor="middle" x="202.643" y="-96.3" font-family="Times,serif" font-size="14.00" fill="#000000">Vacuum</text>
</a>
</g>
</g>
<!-- Vacuum&#45;&gt;Field -->
<g id="edge3" class="edge">
<title>Vacuum&#45;&gt;Field</title>
<path fill="none" stroke="#000000" d="M202.8954,-118.1686C203.0023,-125.869 203.1295,-135.0257 203.2483,-143.5834"/>
<polygon fill="none" stroke="#000000" points="199.7486,-143.6363 203.3873,-153.5867 206.748,-143.5391 199.7486,-143.6363"/>
</g>
<!-- key1 -->
<g id="node8" class="node">
<title>key1</title>
<text text-anchor="start" x="463.643" y="-28.8" font-family="Times,serif" font-size="14.00" fill="#000000">isA</text>
<text text-anchor="start" x="388.643" y="-9.8" font-family="Times,serif" font-size="14.00" fill="#000000">hasTemporalPart</text>
</g>
<!-- key2 -->
<g id="node9" class="node">
<title>key2</title>
<text text-anchor="start" x="535.643" y="-28.8" font-family="Times,serif" font-size="14.00" fill="#000000"> </text>
<text text-anchor="start" x="535.643" y="-9.8" font-family="Times,serif" font-size="14.00" fill="#000000"> </text>
</g>
<!-- key1&#45;&gt;key2 -->
<g id="edge9" class="edge">
<title>key1:e&#45;&gt;key2:w</title>
<path fill="none" stroke="#ff00ff" d="M484.643,-13C502.5076,-13 509.3813,-13 523.296,-13"/>
<polygon fill="#ff00ff" stroke="#ff00ff" points="523.6431,-16.5001 533.643,-13 523.643,-9.5001 523.6431,-16.5001"/>
</g>
<!-- key1&#45;&gt;key2 -->
<g id="edge10" class="edge">
<title>key1:e&#45;&gt;key2:w</title>
<path fill="none" stroke="#000000" d="M484.643,-33C502.5076,-33 509.3813,-33 523.296,-33"/>
<polygon fill="none" stroke="#000000" points="523.6431,-36.5001 533.643,-33 523.643,-29.5001 523.6431,-36.5001"/>
</g>
</g>
</svg>
