<?xml version="1.0" encoding="UTF-8" standalone="no"?>
<!DOCTYPE svg PUBLIC "-//W3C//DTD SVG 1.1//EN"
 "http://www.w3.org/Graphics/SVG/1.1/DTD/svg11.dtd">
<!-- Generated by graphviz version 2.40.1 (20161225.0304)
 -->
<!-- Title: %3 Pages: 1 -->
<svg width="629pt" height="305pt"
 viewBox="0.00 0.00 629.14 305.00" xmlns="http://www.w3.org/2000/svg" xmlns:xlink="http://www.w3.org/1999/xlink">
<g id="graph0" class="graph" transform="scale(1 1) rotate(0) translate(4 301)">
<title>%3</title>
<polygon fill="#ffffff" stroke="transparent" points="-4,4 -4,-301 625.1378,-301 625.1378,4 -4,4"/>
<!-- Physicalistic -->
<g id="node1" class="node">
<title>Physicalistic</title>
<g id="a_node1"><a xlink:href="http://emmo.info/emmo/middle/physicalistic#EMMO_98ada9d8_f1c8_4f13_99b5_d890f5354152" xlink:title="Physicalistic">
<ellipse fill="#ffc880" stroke="#000000" stroke-width="2" cx="278.4948" cy="-279" rx="55.4913" ry="18"/>
<text text-anchor="middle" x="278.4948" y="-275.3" font-family="Times,serif" font-size="14.00" fill="#000000">Physicalistic</text>
</a>
</g>
</g>
<!-- Material -->
<g id="node2" class="node">
<title>Material</title>
<g id="a_node2"><a xlink:href="http://emmo.info/emmo/middle/physicalistic#EMMO_4207e895_8b83_4318_996a_72cfb32acd94" xlink:title="Material">
<ellipse fill="#ffffcc" stroke="#000000" cx="58.4948" cy="-105" rx="40.8928" ry="18"/>
<text text-anchor="middle" x="58.4948" y="-101.3" font-family="Times,serif" font-size="14.00" fill="#000000">Material</text>
</a>
</g>
</g>
<!-- Matter -->
<g id="node3" class="node">
<title>Matter</title>
<g id="a_node3"><a xlink:href="http://emmo.info/emmo/middle/physicalistic#EMMO_5b2222df_4da6_442f_8244_96e9e45887d1" xlink:title="Matter">
<ellipse fill="#ffffcc" stroke="#000000" cx="58.4948" cy="-192" rx="34.394" ry="18"/>
<text text-anchor="middle" x="58.4948" y="-188.3" font-family="Times,serif" font-size="14.00" fill="#000000">Matter</text>
</a>
</g>
</g>
<!-- Material&#45;&gt;Matter -->
<g id="edge1" class="edge">
<title>Material&#45;&gt;Matter</title>
<path fill="none" stroke="#000000" d="M58.4948,-123.0265C58.4948,-134.8082 58.4948,-150.4393 58.4948,-163.8419"/>
<polygon fill="none" stroke="#000000" points="54.9949,-163.9966 58.4948,-173.9966 61.9949,-163.9967 54.9949,-163.9966"/>
<text text-anchor="middle" x="67.9948" y="-144.8" font-family="Times,serif" font-size="14.00" fill="#000000">isA</text>
</g>
<!-- Matter&#45;&gt;Physicalistic -->
<g id="edge7" class="edge">
<title>Matter&#45;&gt;Physicalistic</title>
<path fill="none" stroke="#000000" d="M86.358,-203.0186C123.521,-217.7149 189.7438,-243.903 233.8954,-261.363"/>
<polygon fill="none" stroke="#000000" points="232.6512,-264.6346 243.2376,-265.0574 235.2255,-258.1251 232.6512,-264.6346"/>
<text text-anchor="middle" x="191.9948" y="-231.8" font-family="Times,serif" font-size="14.00" fill="#000000">isA</text>
</g>
<!-- Matter&#45;&gt;Matter -->
<g id="edge8" class="edge">
<title>Matter&#45;&gt;Matter</title>
<path fill="none" stroke="#ff00ff" d="M89.7239,-184.1423C101.3619,-183.8847 110.9418,-186.5039 110.9418,-192 110.9418,-195.7786 106.4138,-198.1974 99.802,-199.2564"/>
<polygon fill="#ff00ff" stroke="#ff00ff" points="99.4976,-195.7682 89.7239,-199.8577 99.9146,-202.7558 99.4976,-195.7682"/>
<text text-anchor="middle" x="171.4418" y="-188.3" font-family="Times,serif" font-size="14.00" fill="#000000">hasTemporalPart only</text>
</g>
<!-- Field -->
<g id="node4" class="node">
<title>Field</title>
<g id="a_node4"><a xlink:href="http://emmo.info/emmo/middle/physicalistic#EMMO_70dac51e_bddd_48c2_8a98_7d8395e91fc2" xlink:title="Field">
<ellipse fill="#ffffcc" stroke="#000000" cx="278.4948" cy="-192" rx="28.6953" ry="18"/>
<text text-anchor="middle" x="278.4948" y="-188.3" font-family="Times,serif" font-size="14.00" fill="#000000">Field</text>
</a>
</g>
</g>
<!-- Field&#45;&gt;Physicalistic -->
<g id="edge5" class="edge">
<title>Field&#45;&gt;Physicalistic</title>
<path fill="none" stroke="#000000" d="M278.4948,-210.0265C278.4948,-221.8082 278.4948,-237.4393 278.4948,-250.8419"/>
<polygon fill="none" stroke="#000000" points="274.9949,-250.9966 278.4948,-260.9966 281.9949,-250.9967 274.9949,-250.9966"/>
<text text-anchor="middle" x="287.9948" y="-231.8" font-family="Times,serif" font-size="14.00" fill="#000000">isA</text>
</g>
<!-- Field&#45;&gt;Field -->
<g id="edge6" class="edge">
<title>Field&#45;&gt;Field</title>
<path fill="none" stroke="#ff00ff" d="M304.3708,-184.2192C315.5343,-183.5822 325.0923,-186.1758 325.0923,-192 325.0923,-195.9131 320.7776,-198.3679 314.5603,-199.3644"/>
<polygon fill="#ff00ff" stroke="#ff00ff" points="314.2195,-195.8753 304.3708,-199.7808 314.5054,-202.8695 314.2195,-195.8753"/>
<text text-anchor="middle" x="385.5923" y="-188.3" font-family="Times,serif" font-size="14.00" fill="#000000">hasTemporalPart only</text>
</g>
<!-- Vacuum -->
<g id="node5" class="node">
<title>Vacuum</title>
<g id="a_node5"><a xlink:href="http://emmo.info/emmo/middle/physicalistic#EMMO_3c218fbe_60c9_4597_8bcf_41eb1773af1f" xlink:title="Vacuum">
<ellipse fill="#ffc880" stroke="#000000" cx="278.4948" cy="-105" rx="40.8928" ry="18"/>
<text text-anchor="middle" x="278.4948" y="-101.3" font-family="Times,serif" font-size="14.00" fill="#000000">Vacuum</text>
</a>
</g>
</g>
<!-- Vacuum&#45;&gt;Field -->
<g id="edge3" class="edge">
<title>Vacuum&#45;&gt;Field</title>
<path fill="none" stroke="#000000" d="M278.4948,-123.0265C278.4948,-134.8082 278.4948,-150.4393 278.4948,-163.8419"/>
<polygon fill="none" stroke="#000000" points="274.9949,-163.9966 278.4948,-173.9966 281.9949,-163.9967 274.9949,-163.9966"/>
<text text-anchor="middle" x="287.9948" y="-144.8" font-family="Times,serif" font-size="14.00" fill="#000000">isA</text>
</g>
<!-- MaterialState -->
<g id="node6" class="node">
<title>MaterialState</title>
<g id="a_node6"><a xlink:href="http://emmo.info/emmo/middle/materials#EMMO_20fff605_465f_4034_8696_e53e90ec83f4" xlink:title="MaterialState">
<ellipse fill="#ffc880" stroke="#000000" stroke-width="2" cx="58.4948" cy="-18" rx="58.4896" ry="18"/>
<text text-anchor="middle" x="58.4948" y="-14.3" font-family="Times,serif" font-size="14.00" fill="#000000">MaterialState</text>
</a>
</g>
</g>
<!-- MaterialState&#45;&gt;Material -->
<g id="edge2" class="edge">
<title>MaterialState&#45;&gt;Material</title>
<path fill="none" stroke="#000000" d="M58.4948,-36.0265C58.4948,-47.8082 58.4948,-63.4393 58.4948,-76.8419"/>
<polygon fill="none" stroke="#000000" points="54.9949,-76.9966 58.4948,-86.9966 61.9949,-76.9967 54.9949,-76.9966"/>
<text text-anchor="middle" x="67.9948" y="-57.8" font-family="Times,serif" font-size="14.00" fill="#000000">isA</text>
</g>
<!-- ElementaryParticle -->
<g id="node7" class="node">
<title>ElementaryParticle</title>
<g id="a_node7"><a xlink:href="http://emmo.info/emmo/middle/physicalistic#EMMO_c26a0340_d619_4928_b1a1_1a04e88bb89d" xlink:title="ElementaryParticle">
<ellipse fill="#ffffcc" stroke="#000000" stroke-width="2" cx="542.4948" cy="-192" rx="78.7863" ry="18"/>
<text text-anchor="middle" x="542.4948" y="-188.3" font-family="Times,serif" font-size="14.00" fill="#000000">ElementaryParticle</text>
</a>
</g>
</g>
<!-- ElementaryParticle&#45;&gt;Physicalistic -->
<g id="edge4" class="edge">
<title>ElementaryParticle&#45;&gt;Physicalistic</title>
<path fill="none" stroke="#000000" d="M497.4116,-206.857C450.0164,-222.4758 375.7094,-246.9634 327.0485,-262.9994"/>
<polygon fill="none" stroke="#000000" points="325.7756,-259.7336 317.3735,-266.1877 327.9666,-266.3819 325.7756,-259.7336"/>
<text text-anchor="middle" x="435.9948" y="-231.8" font-family="Times,serif" font-size="14.00" fill="#000000">isA</text>
</g>
</g>
</svg>
