<?xml version="1.0" encoding="UTF-8" standalone="no"?>
<!DOCTYPE svg PUBLIC "-//W3C//DTD SVG 1.1//EN"
 "http://www.w3.org/Graphics/SVG/1.1/DTD/svg11.dtd">
<!-- Generated by graphviz version 2.40.1 (20161225.0304)
 -->
<!-- Title: %3 Pages: 1 -->
<svg width="1488pt" height="260pt"
 viewBox="0.00 0.00 1488.14 260.00" xmlns="http://www.w3.org/2000/svg" xmlns:xlink="http://www.w3.org/1999/xlink">
<g id="graph0" class="graph" transform="scale(1 1) rotate(0) translate(4 256)">
<title>%3</title>
<polygon fill="#ffffff" stroke="transparent" points="-4,4 -4,-256 1484.1413,-256 1484.1413,4 -4,4"/>
<!-- PhysicalConstant -->
<g id="node1" class="node">
<title>PhysicalConstant</title>
<g id="a_node1"><a xlink:href="http://emmo.info/emmo/middle/metrology#EMMO_b953f2b1_c8d1_4dd9_b630_d3ef6580c2bb" xlink:title="PhysicalConstant">
<ellipse fill="#ffffcc" stroke="#000000" stroke-width="2" cx="703.1413" cy="-234" rx="71.4873" ry="18"/>
<text text-anchor="middle" x="703.1413" y="-230.3" font-family="Times,serif" font-size="14.00" fill="#000000">PhysicalConstant</text>
</a>
</g>
</g>
<!-- SpeedOfLightInVacuum -->
<g id="node2" class="node">
<title>SpeedOfLightInVacuum</title>
<g id="a_node2"><a xlink:href="http://emmo.info/emmo/middle/siunits#EMMO_99296e55_53f7_4333_9e06_760ad175a1b9" xlink:title="SpeedOfLightInVacuum">
<ellipse fill="#ffffcc" stroke="#000000" cx="98.1413" cy="-18" rx="98.2828" ry="18"/>
<text text-anchor="middle" x="98.1413" y="-14.3" font-family="Times,serif" font-size="14.00" fill="#000000">SpeedOfLightInVacuum</text>
</a>
</g>
</g>
<!-- SIExactConstant -->
<g id="node4" class="node">
<title>SIExactConstant</title>
<g id="a_node4"><a xlink:href="http://emmo.info/emmo/middle/siunits#EMMO_f2ca6dd0_0e5f_4392_a92d_cafdae6cfc95" xlink:title="SIExactConstant">
<ellipse fill="#ffffcc" stroke="#000000" cx="625.1413" cy="-90" rx="69.5877" ry="18"/>
<text text-anchor="middle" x="625.1413" y="-86.3" font-family="Times,serif" font-size="14.00" fill="#000000">SIExactConstant</text>
</a>
</g>
</g>
<!-- SpeedOfLightInVacuum&#45;&gt;SIExactConstant -->
<g id="edge2" class="edge">
<title>SpeedOfLightInVacuum&#45;&gt;SIExactConstant</title>
<path fill="none" stroke="#000000" d="M169.4495,-30.3915C181.3556,-32.3468 193.5885,-34.2863 205.1413,-36 326.3839,-53.9852 467.8443,-71.4479 551.7646,-81.4404"/>
<polygon fill="none" stroke="#000000" points="551.3652,-84.9175 561.7083,-82.6215 552.1909,-77.9663 551.3652,-84.9175"/>
</g>
<!-- ExactConstant -->
<g id="node3" class="node">
<title>ExactConstant</title>
<g id="a_node3"><a xlink:href="http://emmo.info/emmo/middle/metrology#EMMO_89762966_8076_4f7c_b745_f718d653e8e2" xlink:title="ExactConstant">
<ellipse fill="#ffffcc" stroke="#000000" cx="625.1413" cy="-162" rx="61.99" ry="18"/>
<text text-anchor="middle" x="625.1413" y="-158.3" font-family="Times,serif" font-size="14.00" fill="#000000">ExactConstant</text>
</a>
</g>
</g>
<!-- ExactConstant&#45;&gt;PhysicalConstant -->
<g id="edge6" class="edge">
<title>ExactConstant&#45;&gt;PhysicalConstant</title>
<path fill="none" stroke="#000000" d="M644.0229,-179.4292C653.8187,-188.4714 665.9463,-199.6662 676.6628,-209.5583"/>
<polygon fill="none" stroke="#000000" points="674.4411,-212.2708 684.1632,-216.4818 679.1891,-207.1271 674.4411,-212.2708"/>
</g>
<!-- SIExactConstant&#45;&gt;ExactConstant -->
<g id="edge5" class="edge">
<title>SIExactConstant&#45;&gt;ExactConstant</title>
<path fill="none" stroke="#000000" d="M625.1413,-108.1686C625.1413,-115.869 625.1413,-125.0257 625.1413,-133.5834"/>
<polygon fill="none" stroke="#000000" points="621.6414,-133.5867 625.1413,-143.5867 628.6414,-133.5868 621.6414,-133.5867"/>
</g>
<!-- ElementaryCharge -->
<g id="node5" class="node">
<title>ElementaryCharge</title>
<g id="a_node5"><a xlink:href="http://emmo.info/emmo/middle/siunits#EMMO_58a650f0_a638_4743_8439_535a325e5c4c" xlink:title="ElementaryCharge">
<ellipse fill="#ffffcc" stroke="#000000" cx="291.1413" cy="-18" rx="77.1866" ry="18"/>
<text text-anchor="middle" x="291.1413" y="-14.3" font-family="Times,serif" font-size="14.00" fill="#000000">ElementaryCharge</text>
</a>
</g>
</g>
<!-- ElementaryCharge&#45;&gt;SIExactConstant -->
<g id="edge3" class="edge">
<title>ElementaryCharge&#45;&gt;SIExactConstant</title>
<path fill="none" stroke="#000000" d="M348.1784,-30.2954C407.4797,-43.0789 500.0821,-63.0411 561.6664,-76.3168"/>
<polygon fill="none" stroke="#000000" points="561.1391,-79.7834 571.6521,-78.4694 562.6142,-72.9406 561.1391,-79.7834"/>
</g>
<!-- AvogadroConstant -->
<g id="node6" class="node">
<title>AvogadroConstant</title>
<g id="a_node6"><a xlink:href="http://emmo.info/emmo/middle/siunits#EMMO_176cae33_b83e_4cd2_a6bc_281f42f0ccc8" xlink:title="AvogadroConstant">
<ellipse fill="#ffffcc" stroke="#000000" cx="464.1413" cy="-18" rx="77.1866" ry="18"/>
<text text-anchor="middle" x="464.1413" y="-14.3" font-family="Times,serif" font-size="14.00" fill="#000000">AvogadroConstant</text>
</a>
</g>
</g>
<!-- AvogadroConstant&#45;&gt;SIExactConstant -->
<g id="edge4" class="edge">
<title>AvogadroConstant&#45;&gt;SIExactConstant</title>
<path fill="none" stroke="#000000" d="M499.8724,-33.9791C523.6948,-44.6326 555.1867,-58.716 580.6351,-70.0966"/>
<polygon fill="none" stroke="#000000" points="579.5064,-73.4258 590.064,-74.3133 582.3641,-67.0357 579.5064,-73.4258"/>
</g>
<!-- PlanckConstant -->
<g id="node7" class="node">
<title>PlanckConstant</title>
<g id="a_node7"><a xlink:href="http://emmo.info/emmo/middle/siunits#EMMO_76cc4efc_231e_42b4_be83_2547681caed6" xlink:title="PlanckConstant">
<ellipse fill="#ffffcc" stroke="#000000" cx="625.1413" cy="-18" rx="65.7887" ry="18"/>
<text text-anchor="middle" x="625.1413" y="-14.3" font-family="Times,serif" font-size="14.00" fill="#000000">PlanckConstant</text>
</a>
</g>
</g>
<!-- PlanckConstant&#45;&gt;SIExactConstant -->
<g id="edge10" class="edge">
<title>PlanckConstant&#45;&gt;SIExactConstant</title>
<path fill="none" stroke="#000000" d="M625.1413,-36.1686C625.1413,-43.869 625.1413,-53.0257 625.1413,-61.5834"/>
<polygon fill="none" stroke="#000000" points="621.6414,-61.5867 625.1413,-71.5867 628.6414,-61.5868 621.6414,-61.5867"/>
</g>
<!-- LuminousEfficacy -->
<g id="node8" class="node">
<title>LuminousEfficacy</title>
<g id="a_node8"><a xlink:href="http://emmo.info/emmo/middle/siunits#EMMO_506f7823_52bc_40cb_be07_b3b1e10cce13" xlink:title="LuminousEfficacy">
<ellipse fill="#ffffcc" stroke="#000000" cx="785.1413" cy="-18" rx="76.8869" ry="18"/>
<text text-anchor="middle" x="785.1413" y="-14.3" font-family="Times,serif" font-size="14.00" fill="#000000">LuminousEfficacy</text>
</a>
</g>
</g>
<!-- LuminousEfficacy&#45;&gt;SIExactConstant -->
<g id="edge1" class="edge">
<title>LuminousEfficacy&#45;&gt;SIExactConstant</title>
<path fill="none" stroke="#000000" d="M749.6321,-33.9791C725.9577,-44.6326 694.6614,-58.716 669.371,-70.0966"/>
<polygon fill="none" stroke="#000000" points="667.6836,-67.0178 660.0007,-74.3133 670.5562,-73.4013 667.6836,-67.0178"/>
</g>
<!-- MeasuredConstant -->
<g id="node9" class="node">
<title>MeasuredConstant</title>
<g id="a_node9"><a xlink:href="http://emmo.info/emmo/middle/metrology#EMMO_3f15d200_c97b_42c8_8ac0_d81d150361e2" xlink:title="MeasuredConstant">
<ellipse fill="#ffffcc" stroke="#000000" cx="782.1413" cy="-162" rx="77.1866" ry="18"/>
<text text-anchor="middle" x="782.1413" y="-158.3" font-family="Times,serif" font-size="14.00" fill="#000000">MeasuredConstant</text>
</a>
</g>
</g>
<!-- MeasuredConstant&#45;&gt;PhysicalConstant -->
<g id="edge9" class="edge">
<title>MeasuredConstant&#45;&gt;PhysicalConstant</title>
<path fill="none" stroke="#000000" d="M762.6132,-179.7978C752.7595,-188.7783 740.6556,-199.8098 729.9452,-209.5711"/>
<polygon fill="none" stroke="#000000" points="727.4781,-207.0841 722.4448,-216.407 732.1933,-212.2577 727.4781,-207.0841"/>
</g>
<!-- BoltzmannConstant -->
<g id="node10" class="node">
<title>BoltzmannConstant</title>
<g id="a_node10"><a xlink:href="http://emmo.info/emmo/middle/siunits#EMMO_ffc7735f_c177_46a4_98e9_a54440d29209" xlink:title="BoltzmannConstant">
<ellipse fill="#ffffcc" stroke="#000000" cx="961.1413" cy="-18" rx="81.4863" ry="18"/>
<text text-anchor="middle" x="961.1413" y="-14.3" font-family="Times,serif" font-size="14.00" fill="#000000">BoltzmannConstant</text>
</a>
</g>
</g>
<!-- BoltzmannConstant&#45;&gt;SIExactConstant -->
<g id="edge7" class="edge">
<title>BoltzmannConstant&#45;&gt;SIExactConstant</title>
<path fill="none" stroke="#000000" d="M902.6146,-30.5414C842.8604,-43.3459 750.3793,-63.1633 688.8224,-76.3541"/>
<polygon fill="none" stroke="#000000" points="687.8849,-72.9754 678.8402,-78.4931 689.3516,-79.82 687.8849,-72.9754"/>
</g>
<!-- HyperfineTransitionFrequencyOfCs -->
<g id="node11" class="node">
<title>HyperfineTransitionFrequencyOfCs</title>
<g id="a_node11"><a xlink:href="http://emmo.info/emmo/middle/siunits#EMMO_f96feb3f_4438_4e43_aa44_7458c4d87fc2" xlink:title="HyperfineTransitionFrequencyOfCs">
<ellipse fill="#ffffcc" stroke="#000000" cx="1198.1413" cy="-18" rx="137.5759" ry="18"/>
<text text-anchor="middle" x="1198.1413" y="-14.3" font-family="Times,serif" font-size="14.00" fill="#000000">HyperfineTransitionFrequencyOfCs</text>
</a>
</g>
</g>
<!-- HyperfineTransitionFrequencyOfCs&#45;&gt;SIExactConstant -->
<g id="edge8" class="edge">
<title>HyperfineTransitionFrequencyOfCs&#45;&gt;SIExactConstant</title>
<path fill="none" stroke="#000000" d="M1098.6596,-30.5003C984.4848,-44.8469 799.9349,-68.0364 698.2291,-80.8162"/>
<polygon fill="none" stroke="#000000" points="697.5352,-77.3758 688.0497,-82.0953 698.408,-84.3212 697.5352,-77.3758"/>
</g>
<!-- key1 -->
<g id="node12" class="node">
<title>key1</title>
<text text-anchor="start" x="1372.1413" y="-13.8" font-family="Times,serif" font-size="14.00" fill="#000000">isA</text>
</g>
<!-- key2 -->
<g id="node13" class="node">
<title>key2</title>
<text text-anchor="start" x="1451.1413" y="-13.8" font-family="Times,serif" font-size="14.00" fill="#000000"> </text>
</g>
<!-- key1&#45;&gt;key2 -->
<g id="edge11" class="edge">
<title>key1:e&#45;&gt;key2:w</title>
<path fill="none" stroke="#000000" d="M1393.1413,-19C1414.1413,-19 1421.8522,-19 1438.6994,-19"/>
<polygon fill="none" stroke="#000000" points="1439.1413,-22.5001 1449.1413,-19 1439.1413,-15.5001 1439.1413,-22.5001"/>
</g>
</g>
</svg>
