<?xml version="1.0" encoding="UTF-8" standalone="no"?>
<!DOCTYPE svg PUBLIC "-//W3C//DTD SVG 1.1//EN"
 "http://www.w3.org/Graphics/SVG/1.1/DTD/svg11.dtd">
<!-- Generated by graphviz version 2.40.1 (20161225.0304)
 -->
<!-- Title: %3 Pages: 1 -->
<svg width="849pt" height="116pt"
 viewBox="0.00 0.00 849.49 116.00" xmlns="http://www.w3.org/2000/svg" xmlns:xlink="http://www.w3.org/1999/xlink">
<g id="graph0" class="graph" transform="scale(1 1) rotate(0) translate(4 112)">
<title>%3</title>
<polygon fill="#ffffff" stroke="transparent" points="-4,4 -4,-112 845.4937,-112 845.4937,4 -4,4"/>
<!-- PhysicalConstant -->
<g id="node1" class="node">
<title>PhysicalConstant</title>
<g id="a_node1"><a xlink:href="http://emmo.info/emmo/middle/metrology#EMMO_b953f2b1_c8d1_4dd9_b630_d3ef6580c2bb" xlink:title="PhysicalConstant">
<ellipse fill="#ffffcc" stroke="#000000" stroke-width="2" cx="71.4937" cy="-18" rx="71.4873" ry="18"/>
<text text-anchor="middle" x="71.4937" y="-14.3" font-family="Times,serif" font-size="14.00" fill="#000000">PhysicalConstant</text>
</a>
</g>
</g>
<!-- PhysicalQuantity -->
<g id="node5" class="node">
<title>PhysicalQuantity</title>
<g id="a_node5"><a xlink:href="http://emmo.info/emmo/middle/metrology#EMMO_02c0621e_a527_4790_8a0f_2bb51973c819" xlink:title="PhysicalQuantity">
<ellipse fill="#ffffcc" stroke="#000000" stroke-width="2" cx="335.4937" cy="-90" rx="71.4873" ry="18"/>
<text text-anchor="middle" x="335.4937" y="-86.3" font-family="Times,serif" font-size="14.00" fill="#000000">PhysicalQuantity</text>
</a>
</g>
</g>
<!-- PhysicalConstant&#45;&gt;PhysicalQuantity -->
<g id="edge2" class="edge">
<title>PhysicalConstant&#45;&gt;PhysicalQuantity</title>
<path fill="none" stroke="#000000" d="M120.223,-31.2898C164.4546,-43.353 229.7703,-61.1664 276.8471,-74.0055"/>
<polygon fill="none" stroke="#000000" points="276.0332,-77.4113 286.6018,-76.6659 277.8751,-70.6579 276.0332,-77.4113"/>
</g>
<!-- DerivedQuantity -->
<g id="node2" class="node">
<title>DerivedQuantity</title>
<g id="a_node2"><a xlink:href="http://emmo.info/emmo/middle/metrology#EMMO_71f6ab56_342c_484b_bbe0_de86b7367cb3" xlink:title="DerivedQuantity">
<ellipse fill="#ffffcc" stroke="#000000" stroke-width="2" cx="230.4937" cy="-18" rx="69.5877" ry="18"/>
<text text-anchor="middle" x="230.4937" y="-14.3" font-family="Times,serif" font-size="14.00" fill="#000000">DerivedQuantity</text>
</a>
</g>
</g>
<!-- DerivedQuantity&#45;&gt;PhysicalQuantity -->
<g id="edge4" class="edge">
<title>DerivedQuantity&#45;&gt;PhysicalQuantity</title>
<path fill="none" stroke="#000000" d="M255.1115,-34.8808C269.0965,-44.4705 286.8,-56.6101 302.031,-67.0542"/>
<polygon fill="none" stroke="#000000" points="300.4396,-70.2067 310.6662,-72.9755 304.3983,-64.4336 300.4396,-70.2067"/>
</g>
<!-- InternationalSystemOfQuantity -->
<g id="node3" class="node">
<title>InternationalSystemOfQuantity</title>
<g id="a_node3"><a xlink:href="http://emmo.info/emmo/middle/isq#EMMO_f35cff4d_dc09_44cf_a729_22fb79e3bfb2" xlink:title="InternationalSystemOfQuantity">
<ellipse fill="#ffffcc" stroke="#000000" cx="440.4937" cy="-18" rx="122.3786" ry="18"/>
<text text-anchor="middle" x="440.4937" y="-14.3" font-family="Times,serif" font-size="14.00" fill="#000000">InternationalSystemOfQuantity</text>
</a>
</g>
</g>
<!-- InternationalSystemOfQuantity&#45;&gt;PhysicalQuantity -->
<g id="edge1" class="edge">
<title>InternationalSystemOfQuantity&#45;&gt;PhysicalQuantity</title>
<path fill="none" stroke="#000000" d="M414.8078,-35.6132C400.9016,-45.1488 383.5645,-57.0371 368.6492,-67.2648"/>
<polygon fill="none" stroke="#000000" points="366.4593,-64.5226 360.1913,-73.0645 370.418,-70.2957 366.4593,-64.5226"/>
</g>
<!-- BaseQuantity -->
<g id="node4" class="node">
<title>BaseQuantity</title>
<g id="a_node4"><a xlink:href="http://emmo.info/emmo/middle/metrology#EMMO_acaaa124_3dde_48b6_86e6_6ec6f364f408" xlink:title="BaseQuantity">
<ellipse fill="#ffffcc" stroke="#000000" stroke-width="2" cx="639.4937" cy="-18" rx="58.4896" ry="18"/>
<text text-anchor="middle" x="639.4937" y="-14.3" font-family="Times,serif" font-size="14.00" fill="#000000">BaseQuantity</text>
</a>
</g>
</g>
<!-- BaseQuantity&#45;&gt;PhysicalQuantity -->
<g id="edge3" class="edge">
<title>BaseQuantity&#45;&gt;PhysicalQuantity</title>
<path fill="none" stroke="#000000" d="M595.2893,-29.9331C587.3776,-32.0027 579.2005,-34.0988 571.4937,-36 513.3944,-50.3322 446.9242,-65.4249 399.364,-75.9993"/>
<polygon fill="none" stroke="#000000" points="398.5164,-72.6021 389.512,-78.1852 400.0327,-79.4359 398.5164,-72.6021"/>
</g>
<!-- key1 -->
<g id="node6" class="node">
<title>key1</title>
<text text-anchor="start" x="733.4937" y="-13.8" font-family="Times,serif" font-size="14.00" fill="#000000">isA</text>
</g>
<!-- key2 -->
<g id="node7" class="node">
<title>key2</title>
<text text-anchor="start" x="812.4937" y="-13.8" font-family="Times,serif" font-size="14.00" fill="#000000"> </text>
</g>
<!-- key1&#45;&gt;key2 -->
<g id="edge5" class="edge">
<title>key1:e&#45;&gt;key2:w</title>
<path fill="none" stroke="#000000" d="M754.4937,-19C775.4937,-19 783.2046,-19 800.0518,-19"/>
<polygon fill="none" stroke="#000000" points="800.4937,-22.5001 810.4937,-19 800.4936,-15.5001 800.4937,-22.5001"/>
</g>
</g>
</svg>
