<?xml version="1.0" encoding="UTF-8" standalone="no"?>
<!DOCTYPE svg PUBLIC "-//W3C//DTD SVG 1.1//EN"
 "http://www.w3.org/Graphics/SVG/1.1/DTD/svg11.dtd">
<!-- Generated by graphviz version 2.40.1 (20161225.0304)
 -->
<!-- Title: %3 Pages: 1 -->
<svg width="1344pt" height="305pt"
 viewBox="0.00 0.00 1343.94 305.00" xmlns="http://www.w3.org/2000/svg" xmlns:xlink="http://www.w3.org/1999/xlink">
<g id="graph0" class="graph" transform="scale(1 1) rotate(0) translate(4 301)">
<title>%3</title>
<polygon fill="#ffffff" stroke="transparent" points="-4,4 -4,-301 1339.936,-301 1339.936,4 -4,4"/>
<!-- ExactConstant -->
<g id="node1" class="node">
<title>ExactConstant</title>
<g id="a_node1"><a xlink:href="http://emmo.info/emmo/middle/units#EMMO_89762966_8076_4f7c_b745_f718d653e8e2" xlink:title="ExactConstant">
<ellipse fill="#ffffcc" stroke="#000000" cx="623.6932" cy="-192" rx="61.99" ry="18"/>
<text text-anchor="middle" x="623.6932" y="-188.3" font-family="Times,serif" font-size="14.00" fill="#000000">ExactConstant</text>
</a>
</g>
</g>
<!-- PhysicalConstant -->
<g id="node5" class="node">
<title>PhysicalConstant</title>
<g id="a_node5"><a xlink:href="http://emmo.info/emmo/middle/units#EMMO_b953f2b1_c8d1_4dd9_b630_d3ef6580c2bb" xlink:title="PhysicalConstant">
<ellipse fill="#ffffcc" stroke="#000000" stroke-width="2" cx="487.6932" cy="-279" rx="71.4873" ry="18"/>
<text text-anchor="middle" x="487.6932" y="-275.3" font-family="Times,serif" font-size="14.00" fill="#000000">PhysicalConstant</text>
</a>
</g>
</g>
<!-- ExactConstant&#45;&gt;PhysicalConstant -->
<g id="edge4" class="edge">
<title>ExactConstant&#45;&gt;PhysicalConstant</title>
<path fill="none" stroke="#000000" d="M597.7925,-208.5688C576.471,-222.2083 546.0455,-241.6717 522.5799,-256.6828"/>
<polygon fill="none" stroke="#000000" points="520.4984,-253.8594 513.9607,-262.1965 524.2706,-259.7561 520.4984,-253.8594"/>
<text text-anchor="middle" x="574.1932" y="-231.8" font-family="Times,serif" font-size="14.00" fill="#000000">isA</text>
</g>
<!-- MeasuredConstant -->
<g id="node2" class="node">
<title>MeasuredConstant</title>
<g id="a_node2"><a xlink:href="http://emmo.info/emmo/middle/units#EMMO_3f15d200_c97b_42c8_8ac0_d81d150361e2" xlink:title="MeasuredConstant">
<ellipse fill="#ffffcc" stroke="#000000" cx="466.6932" cy="-192" rx="77.1866" ry="18"/>
<text text-anchor="middle" x="466.6932" y="-188.3" font-family="Times,serif" font-size="14.00" fill="#000000">MeasuredConstant</text>
</a>
</g>
</g>
<!-- MeasuredConstant&#45;&gt;PhysicalConstant -->
<g id="edge3" class="edge">
<title>MeasuredConstant&#45;&gt;PhysicalConstant</title>
<path fill="none" stroke="#000000" d="M471.0444,-210.0265C473.9164,-221.9249 477.7361,-237.7492 480.9924,-251.2394"/>
<polygon fill="none" stroke="#000000" points="477.5988,-252.0971 483.3476,-260.9966 484.4034,-250.4545 477.5988,-252.0971"/>
<text text-anchor="middle" x="488.1932" y="-231.8" font-family="Times,serif" font-size="14.00" fill="#000000">isA</text>
</g>
<!-- LuminousEfficacy -->
<g id="node3" class="node">
<title>LuminousEfficacy</title>
<g id="a_node3"><a xlink:href="http://emmo.info/emmo/middle/siunits#EMMO_506f7823_52bc_40cb_be07_b3b1e10cce13" xlink:title="LuminousEfficacy">
<ellipse fill="#ffffcc" stroke="#000000" cx="76.6932" cy="-18" rx="76.8869" ry="18"/>
<text text-anchor="middle" x="76.6932" y="-14.3" font-family="Times,serif" font-size="14.00" fill="#000000">LuminousEfficacy</text>
</a>
</g>
</g>
<!-- SIExactConstant -->
<g id="node10" class="node">
<title>SIExactConstant</title>
<g id="a_node10"><a xlink:href="http://emmo.info/emmo/middle/siunits#EMMO_f2ca6dd0_0e5f_4392_a92d_cafdae6cfc95" xlink:title="SIExactConstant">
<ellipse fill="#ffffcc" stroke="#000000" cx="623.6932" cy="-105" rx="69.5877" ry="18"/>
<text text-anchor="middle" x="623.6932" y="-101.3" font-family="Times,serif" font-size="14.00" fill="#000000">SIExactConstant</text>
</a>
</g>
</g>
<!-- LuminousEfficacy&#45;&gt;SIExactConstant -->
<g id="edge6" class="edge">
<title>LuminousEfficacy&#45;&gt;SIExactConstant</title>
<path fill="none" stroke="#000000" d="M133.04,-30.2795C142.9042,-32.2901 153.0839,-34.2767 162.6932,-36 299.7407,-60.5773 460.8013,-83.2851 551.6963,-95.5352"/>
<polygon fill="none" stroke="#000000" points="551.2407,-99.0054 561.6178,-96.8684 552.173,-92.0677 551.2407,-99.0054"/>
<text text-anchor="middle" x="374.1932" y="-57.8" font-family="Times,serif" font-size="14.00" fill="#000000">isA</text>
</g>
<!-- SpeedOfLightInVacuum -->
<g id="node4" class="node">
<title>SpeedOfLightInVacuum</title>
<g id="a_node4"><a xlink:href="http://emmo.info/emmo/middle/siunits#EMMO_99296e55_53f7_4333_9e06_760ad175a1b9" xlink:title="SpeedOfLightInVacuum">
<ellipse fill="#ffffcc" stroke="#000000" cx="269.6932" cy="-18" rx="98.2828" ry="18"/>
<text text-anchor="middle" x="269.6932" y="-14.3" font-family="Times,serif" font-size="14.00" fill="#000000">SpeedOfLightInVacuum</text>
</a>
</g>
</g>
<!-- SpeedOfLightInVacuum&#45;&gt;SIExactConstant -->
<g id="edge10" class="edge">
<title>SpeedOfLightInVacuum&#45;&gt;SIExactConstant</title>
<path fill="none" stroke="#000000" d="M328.5465,-32.4639C393.5305,-48.4346 497.6168,-74.0151 563.2359,-90.1419"/>
<polygon fill="none" stroke="#000000" points="562.4806,-93.5603 573.0269,-92.5481 564.1512,-86.7626 562.4806,-93.5603"/>
<text text-anchor="middle" x="478.1932" y="-57.8" font-family="Times,serif" font-size="14.00" fill="#000000">isA</text>
</g>
<!-- AvogadroConstant -->
<g id="node6" class="node">
<title>AvogadroConstant</title>
<g id="a_node6"><a xlink:href="http://emmo.info/emmo/middle/siunits#EMMO_176cae33_b83e_4cd2_a6bc_281f42f0ccc8" xlink:title="AvogadroConstant">
<ellipse fill="#ffffcc" stroke="#000000" cx="462.6932" cy="-18" rx="77.1866" ry="18"/>
<text text-anchor="middle" x="462.6932" y="-14.3" font-family="Times,serif" font-size="14.00" fill="#000000">AvogadroConstant</text>
</a>
</g>
</g>
<!-- AvogadroConstant&#45;&gt;SIExactConstant -->
<g id="edge7" class="edge">
<title>AvogadroConstant&#45;&gt;SIExactConstant</title>
<path fill="none" stroke="#000000" d="M493.355,-34.5688C519.1754,-48.5215 556.2739,-68.5685 584.2936,-83.7095"/>
<polygon fill="none" stroke="#000000" points="582.9568,-86.9655 593.4185,-88.6404 586.2847,-80.8071 582.9568,-86.9655"/>
<text text-anchor="middle" x="563.1932" y="-57.8" font-family="Times,serif" font-size="14.00" fill="#000000">isA</text>
</g>
<!-- PlanckConstant -->
<g id="node7" class="node">
<title>PlanckConstant</title>
<g id="a_node7"><a xlink:href="http://emmo.info/emmo/middle/siunits#EMMO_76cc4efc_231e_42b4_be83_2547681caed6" xlink:title="PlanckConstant">
<ellipse fill="#ffffcc" stroke="#000000" cx="623.6932" cy="-18" rx="65.7887" ry="18"/>
<text text-anchor="middle" x="623.6932" y="-14.3" font-family="Times,serif" font-size="14.00" fill="#000000">PlanckConstant</text>
</a>
</g>
</g>
<!-- PlanckConstant&#45;&gt;SIExactConstant -->
<g id="edge1" class="edge">
<title>PlanckConstant&#45;&gt;SIExactConstant</title>
<path fill="none" stroke="#000000" d="M623.6932,-36.0265C623.6932,-47.8082 623.6932,-63.4393 623.6932,-76.8419"/>
<polygon fill="none" stroke="#000000" points="620.1933,-76.9966 623.6932,-86.9966 627.1933,-76.9967 620.1933,-76.9966"/>
<text text-anchor="middle" x="633.1932" y="-57.8" font-family="Times,serif" font-size="14.00" fill="#000000">isA</text>
</g>
<!-- HyperfineTransitionFrequencyOfCs -->
<g id="node8" class="node">
<title>HyperfineTransitionFrequencyOfCs</title>
<g id="a_node8"><a xlink:href="http://emmo.info/emmo/middle/siunits#EMMO_f96feb3f_4438_4e43_aa44_7458c4d87fc2" xlink:title="HyperfineTransitionFrequencyOfCs">
<ellipse fill="#ffffcc" stroke="#000000" cx="844.6932" cy="-18" rx="137.5759" ry="18"/>
<text text-anchor="middle" x="844.6932" y="-14.3" font-family="Times,serif" font-size="14.00" fill="#000000">HyperfineTransitionFrequencyOfCs</text>
</a>
</g>
</g>
<!-- HyperfineTransitionFrequencyOfCs&#45;&gt;SIExactConstant -->
<g id="edge9" class="edge">
<title>HyperfineTransitionFrequencyOfCs&#45;&gt;SIExactConstant</title>
<path fill="none" stroke="#000000" d="M801.2944,-35.0846C763.9796,-49.7741 710.2347,-70.9316 671.6541,-86.1195"/>
<polygon fill="none" stroke="#000000" points="670.2143,-82.9248 662.1914,-89.8446 672.7785,-89.4382 670.2143,-82.9248"/>
<text text-anchor="middle" x="757.1932" y="-57.8" font-family="Times,serif" font-size="14.00" fill="#000000">isA</text>
</g>
<!-- ElementaryCharge -->
<g id="node9" class="node">
<title>ElementaryCharge</title>
<g id="a_node9"><a xlink:href="http://emmo.info/emmo/middle/siunits#EMMO_58a650f0_a638_4743_8439_535a325e5c4c" xlink:title="ElementaryCharge">
<ellipse fill="#ffffcc" stroke="#000000" cx="1077.6932" cy="-18" rx="77.1866" ry="18"/>
<text text-anchor="middle" x="1077.6932" y="-14.3" font-family="Times,serif" font-size="14.00" fill="#000000">ElementaryCharge</text>
</a>
</g>
</g>
<!-- ElementaryCharge&#45;&gt;SIExactConstant -->
<g id="edge5" class="edge">
<title>ElementaryCharge&#45;&gt;SIExactConstant</title>
<path fill="none" stroke="#000000" d="M1020.3652,-30.1735C1010.7976,-32.155 1000.97,-34.1597 991.6932,-36 886.8006,-56.8084 764.7492,-79.3676 690.9096,-92.8341"/>
<polygon fill="none" stroke="#000000" points="690.028,-89.437 680.8173,-94.6728 691.2828,-96.3237 690.028,-89.437"/>
<text text-anchor="middle" x="901.1932" y="-57.8" font-family="Times,serif" font-size="14.00" fill="#000000">isA</text>
</g>
<!-- SIExactConstant&#45;&gt;ExactConstant -->
<g id="edge8" class="edge">
<title>SIExactConstant&#45;&gt;ExactConstant</title>
<path fill="none" stroke="#000000" d="M623.6932,-123.0265C623.6932,-134.8082 623.6932,-150.4393 623.6932,-163.8419"/>
<polygon fill="none" stroke="#000000" points="620.1933,-163.9966 623.6932,-173.9966 627.1933,-163.9967 620.1933,-163.9966"/>
<text text-anchor="middle" x="633.1932" y="-144.8" font-family="Times,serif" font-size="14.00" fill="#000000">isA</text>
</g>
<!-- BoltzmannConstant -->
<g id="node11" class="node">
<title>BoltzmannConstant</title>
<g id="a_node11"><a xlink:href="http://emmo.info/emmo/middle/siunits#EMMO_ffc7735f_c177_46a4_98e9_a54440d29209" xlink:title="BoltzmannConstant">
<ellipse fill="#ffffcc" stroke="#000000" cx="1254.6932" cy="-18" rx="81.4863" ry="18"/>
<text text-anchor="middle" x="1254.6932" y="-14.3" font-family="Times,serif" font-size="14.00" fill="#000000">BoltzmannConstant</text>
</a>
</g>
</g>
<!-- BoltzmannConstant&#45;&gt;SIExactConstant -->
<g id="edge2" class="edge">
<title>BoltzmannConstant&#45;&gt;SIExactConstant</title>
<path fill="none" stroke="#000000" d="M1195.073,-30.356C1184.635,-32.3581 1173.8627,-34.3221 1163.6932,-36 998.3169,-63.2863 802.9213,-85.8808 698.4632,-97.1891"/>
<polygon fill="none" stroke="#000000" points="697.9021,-93.7293 688.3349,-98.281 698.6525,-100.6889 697.9021,-93.7293"/>
<text text-anchor="middle" x="1055.1932" y="-57.8" font-family="Times,serif" font-size="14.00" fill="#000000">isA</text>
</g>
</g>
</svg>
