<?xml version="1.0" encoding="UTF-8" standalone="no"?>
<!DOCTYPE svg PUBLIC "-//W3C//DTD SVG 1.1//EN"
 "http://www.w3.org/Graphics/SVG/1.1/DTD/svg11.dtd">
<!-- Generated by graphviz version 2.40.1 (20161225.0304)
 -->
<!-- Title: %3 Pages: 1 -->
<svg width="850pt" height="116pt"
 viewBox="0.00 0.00 850.49 116.00" xmlns="http://www.w3.org/2000/svg" xmlns:xlink="http://www.w3.org/1999/xlink">
<g id="graph0" class="graph" transform="scale(1 1) rotate(0) translate(4 112)">
<title>%3</title>
<polygon fill="#ffffff" stroke="transparent" points="-4,4 -4,-112 846.4937,-112 846.4937,4 -4,4"/>
<!-- PhysicalConstant -->
<g id="node1" class="node">
<title>PhysicalConstant</title>
<g id="a_node1"><a xlink:href="http://emmo.info/emmo/middle/metrology#EMMO_b953f2b1_c8d1_4dd9_b630_d3ef6580c2bb" xlink:title="PhysicalConstant">
<ellipse fill="#ffffcc" stroke="#000000" stroke-width="2" cx="71.4937" cy="-18" rx="71.4873" ry="18"/>
<text text-anchor="middle" x="71.4937" y="-14.3" font-family="Times,serif" font-size="14.00" fill="#000000">PhysicalConstant</text>
</a>
</g>
</g>
<!-- PhysicalQuantity -->
<g id="node4" class="node">
<title>PhysicalQuantity</title>
<g id="a_node4"><a xlink:href="http://emmo.info/emmo/middle/metrology#EMMO_02c0621e_a527_4790_8a0f_2bb51973c819" xlink:title="PhysicalQuantity">
<ellipse fill="#ffffcc" stroke="#000000" stroke-width="2" cx="382.4937" cy="-90" rx="71.4873" ry="18"/>
<text text-anchor="middle" x="382.4937" y="-86.3" font-family="Times,serif" font-size="14.00" fill="#000000">PhysicalQuantity</text>
</a>
</g>
</g>
<!-- PhysicalConstant&#45;&gt;PhysicalQuantity -->
<g id="edge1" class="edge">
<title>PhysicalConstant&#45;&gt;PhysicalQuantity</title>
<path fill="none" stroke="#000000" d="M124.2506,-30.2138C178.2821,-42.7227 262.2695,-62.1668 319.6941,-75.4612"/>
<polygon fill="none" stroke="#000000" points="319.2064,-78.9408 329.7381,-77.7865 320.7852,-72.1212 319.2064,-78.9408"/>
</g>
<!-- InternationalSystemOfQuantity -->
<g id="node2" class="node">
<title>InternationalSystemOfQuantity</title>
<g id="a_node2"><a xlink:href="http://emmo.info/emmo/middle/isq#EMMO_f35cff4d_dc09_44cf_a729_22fb79e3bfb2" xlink:title="InternationalSystemOfQuantity">
<ellipse fill="#ffffcc" stroke="#000000" cx="283.4937" cy="-18" rx="122.3786" ry="18"/>
<text text-anchor="middle" x="283.4937" y="-14.3" font-family="Times,serif" font-size="14.00" fill="#000000">InternationalSystemOfQuantity</text>
</a>
</g>
</g>
<!-- InternationalSystemOfQuantity&#45;&gt;PhysicalQuantity -->
<g id="edge4" class="edge">
<title>InternationalSystemOfQuantity&#45;&gt;PhysicalQuantity</title>
<path fill="none" stroke="#000000" d="M307.9656,-35.7978C320.8632,-45.1779 336.8372,-56.7953 350.6845,-66.866"/>
<polygon fill="none" stroke="#000000" points="348.839,-69.8516 358.985,-72.9028 352.9562,-64.1904 348.839,-69.8516"/>
</g>
<!-- BaseQuantity -->
<g id="node3" class="node">
<title>BaseQuantity</title>
<g id="a_node3"><a xlink:href="http://emmo.info/emmo/middle/metrology#EMMO_acaaa124_3dde_48b6_86e6_6ec6f364f408" xlink:title="BaseQuantity">
<ellipse fill="#ffffcc" stroke="#000000" stroke-width="2" cx="482.4937" cy="-18" rx="58.4896" ry="18"/>
<text text-anchor="middle" x="482.4937" y="-14.3" font-family="Times,serif" font-size="14.00" fill="#000000">BaseQuantity</text>
</a>
</g>
</g>
<!-- BaseQuantity&#45;&gt;PhysicalQuantity -->
<g id="edge2" class="edge">
<title>BaseQuantity&#45;&gt;PhysicalQuantity</title>
<path fill="none" stroke="#000000" d="M459.3003,-34.6992C445.9884,-44.2837 429.0774,-56.4597 414.5141,-66.9453"/>
<polygon fill="none" stroke="#000000" points="412.3259,-64.2079 406.2557,-72.8914 416.4161,-69.8887 412.3259,-64.2079"/>
</g>
<!-- DerivedQuantity -->
<g id="node5" class="node">
<title>DerivedQuantity</title>
<g id="a_node5"><a xlink:href="http://emmo.info/emmo/middle/metrology#EMMO_71f6ab56_342c_484b_bbe0_de86b7367cb3" xlink:title="DerivedQuantity">
<ellipse fill="#ffffcc" stroke="#000000" stroke-width="2" cx="628.4937" cy="-18" rx="69.5877" ry="18"/>
<text text-anchor="middle" x="628.4937" y="-14.3" font-family="Times,serif" font-size="14.00" fill="#000000">DerivedQuantity</text>
</a>
</g>
</g>
<!-- DerivedQuantity&#45;&gt;PhysicalQuantity -->
<g id="edge3" class="edge">
<title>DerivedQuantity&#45;&gt;PhysicalQuantity</title>
<path fill="none" stroke="#000000" d="M582.2229,-31.5426C541.6786,-43.4093 482.6147,-60.6963 439.23,-73.3942"/>
<polygon fill="none" stroke="#000000" points="438.0075,-70.1051 429.3933,-76.2733 439.9738,-76.8233 438.0075,-70.1051"/>
</g>
<!-- key1 -->
<g id="node6" class="node">
<title>key1</title>
<text text-anchor="start" x="734.4937" y="-13.8" font-family="Times,serif" font-size="14.00" fill="#000000">isA</text>
</g>
<!-- key2 -->
<g id="node7" class="node">
<title>key2</title>
<text text-anchor="start" x="813.4937" y="-13.8" font-family="Times,serif" font-size="14.00" fill="#000000"> </text>
</g>
<!-- key1&#45;&gt;key2 -->
<g id="edge5" class="edge">
<title>key1:e&#45;&gt;key2:w</title>
<path fill="none" stroke="#000000" d="M755.4937,-19C776.4937,-19 784.2046,-19 801.0518,-19"/>
<polygon fill="none" stroke="#000000" points="801.4937,-22.5001 811.4937,-19 801.4936,-15.5001 801.4937,-22.5001"/>
</g>
</g>
</svg>
