<?xml version="1.0" encoding="UTF-8" standalone="no"?>
<!DOCTYPE svg PUBLIC "-//W3C//DTD SVG 1.1//EN"
 "http://www.w3.org/Graphics/SVG/1.1/DTD/svg11.dtd">
<!-- Generated by graphviz version 2.40.1 (20161225.0304)
 -->
<!-- Title: %3 Pages: 1 -->
<svg width="572pt" height="116pt"
 viewBox="0.00 0.00 572.19 116.00" xmlns="http://www.w3.org/2000/svg" xmlns:xlink="http://www.w3.org/1999/xlink">
<g id="graph0" class="graph" transform="scale(1 1) rotate(0) translate(4 112)">
<title>%3</title>
<polygon fill="#ffffff" stroke="transparent" points="-4,4 -4,-112 568.1949,-112 568.1949,4 -4,4"/>
<!-- MultipleUnit -->
<g id="node1" class="node">
<title>MultipleUnit</title>
<g id="a_node1"><a xlink:href="http://emmo.info/emmo/middle/metrology#EMMO_62f0d847_3603_45b4_bfc4_dd4511355ff2" xlink:title="MultipleUnit">
<ellipse fill="#ffffcc" stroke="#000000" cx="57.1949" cy="-18" rx="57.3905" ry="18"/>
<text text-anchor="middle" x="57.1949" y="-14.3" font-family="Times,serif" font-size="14.00" fill="#000000">MultipleUnit</text>
</a>
</g>
</g>
<!-- PrefixedUnit -->
<g id="node2" class="node">
<title>PrefixedUnit</title>
<g id="a_node2"><a xlink:href="http://emmo.info/emmo/middle/metrology#EMMO_c6d4a5e0_7e95_44df_a6db_84ee0a8bbc8e" xlink:title="PrefixedUnit">
<ellipse fill="#ffffcc" stroke="#000000" stroke-width="2" cx="203.1949" cy="-90" rx="55.7903" ry="18"/>
<text text-anchor="middle" x="203.1949" y="-86.3" font-family="Times,serif" font-size="14.00" fill="#000000">PrefixedUnit</text>
</a>
</g>
</g>
<!-- MultipleUnit&#45;&gt;PrefixedUnit -->
<g id="edge3" class="edge">
<title>MultipleUnit&#45;&gt;PrefixedUnit</title>
<path fill="none" stroke="#000000" d="M88.1578,-33.2693C110.0309,-44.0561 139.5423,-58.6097 163.1976,-70.2753"/>
<polygon fill="none" stroke="#000000" points="161.76,-73.4687 172.2767,-74.7527 164.856,-67.1906 161.76,-73.4687"/>
</g>
<!-- SubMultipleUnit -->
<g id="node3" class="node">
<title>SubMultipleUnit</title>
<g id="a_node3"><a xlink:href="http://emmo.info/emmo/middle/metrology#EMMO_a2f94f33_71fa_443c_a1fb_d1685fc537ec" xlink:title="SubMultipleUnit">
<ellipse fill="#ffffcc" stroke="#000000" cx="203.1949" cy="-18" rx="70.6878" ry="18"/>
<text text-anchor="middle" x="203.1949" y="-14.3" font-family="Times,serif" font-size="14.00" fill="#000000">SubMultipleUnit</text>
</a>
</g>
</g>
<!-- SubMultipleUnit&#45;&gt;PrefixedUnit -->
<g id="edge1" class="edge">
<title>SubMultipleUnit&#45;&gt;PrefixedUnit</title>
<path fill="none" stroke="#000000" d="M203.1949,-36.1686C203.1949,-43.869 203.1949,-53.0257 203.1949,-61.5834"/>
<polygon fill="none" stroke="#000000" points="199.695,-61.5867 203.1949,-71.5867 206.695,-61.5868 199.695,-61.5867"/>
</g>
<!-- SIPrefixedUnit -->
<g id="node4" class="node">
<title>SIPrefixedUnit</title>
<g id="a_node4"><a xlink:href="http://emmo.info/emmo/middle/siunits#EMMO_d41ce84b_4317_41fb_a5d1_6cd281fca106" xlink:title="SIPrefixedUnit">
<ellipse fill="#ffffcc" stroke="#000000" cx="356.1949" cy="-18" rx="63.8893" ry="18"/>
<text text-anchor="middle" x="356.1949" y="-14.3" font-family="Times,serif" font-size="14.00" fill="#000000">SIPrefixedUnit</text>
</a>
</g>
</g>
<!-- SIPrefixedUnit&#45;&gt;PrefixedUnit -->
<g id="edge2" class="edge">
<title>SIPrefixedUnit&#45;&gt;PrefixedUnit</title>
<path fill="none" stroke="#000000" d="M323.3726,-33.4458C300.1707,-44.3644 268.9075,-59.0764 244.0839,-70.7582"/>
<polygon fill="none" stroke="#000000" points="242.4734,-67.6478 234.9155,-75.0727 245.454,-73.9815 242.4734,-67.6478"/>
</g>
<!-- key1 -->
<g id="node5" class="node">
<title>key1</title>
<text text-anchor="start" x="456.1949" y="-13.8" font-family="Times,serif" font-size="14.00" fill="#000000">isA</text>
</g>
<!-- key2 -->
<g id="node6" class="node">
<title>key2</title>
<text text-anchor="start" x="535.1949" y="-13.8" font-family="Times,serif" font-size="14.00" fill="#000000"> </text>
</g>
<!-- key1&#45;&gt;key2 -->
<g id="edge4" class="edge">
<title>key1:e&#45;&gt;key2:w</title>
<path fill="none" stroke="#000000" d="M477.1949,-19C498.1949,-19 505.9059,-19 522.753,-19"/>
<polygon fill="none" stroke="#000000" points="523.195,-22.5001 533.1949,-19 523.1949,-15.5001 523.195,-22.5001"/>
</g>
</g>
</svg>
