<?xml version="1.0" encoding="UTF-8" standalone="no"?>
<!DOCTYPE svg PUBLIC "-//W3C//DTD SVG 1.1//EN"
 "http://www.w3.org/Graphics/SVG/1.1/DTD/svg11.dtd">
<!-- Generated by graphviz version 2.40.1 (20161225.0304)
 -->
<!-- Title: %3 Pages: 1 -->
<svg width="766pt" height="270pt"
 viewBox="0.00 0.00 765.69 270.00" xmlns="http://www.w3.org/2000/svg" xmlns:xlink="http://www.w3.org/1999/xlink">
<g id="graph0" class="graph" transform="scale(1 1) rotate(0) translate(4 266)">
<title>%3</title>
<polygon fill="#ffffff" stroke="transparent" points="-4,4 -4,-266 761.6943,-266 761.6943,4 -4,4"/>
<!-- Manufacturing -->
<g id="node1" class="node">
<title>Manufacturing</title>
<g id="a_node1"><a xlink:href="http://emmo.info/emmo/middle/manufacturing#EMMO_a4d66059_5dd3_4b90_b4cb_10960559441b" xlink:title="Manufacturing">
<ellipse fill="#ffffcc" stroke="#000000" cx="63.6943" cy="-172" rx="63.8893" ry="18"/>
<text text-anchor="middle" x="63.6943" y="-168.3" font-family="Times,serif" font-size="14.00" fill="#000000">Manufacturing</text>
</a>
</g>
</g>
<!-- Process -->
<g id="node2" class="node">
<title>Process</title>
<g id="a_node2"><a xlink:href="http://emmo.info/emmo/middle/holistic#EMMO_43e9a05d_98af_41b4_92f6_00f79a09bfce" xlink:title="Process">
<ellipse fill="#ffffcc" stroke="#000000" stroke-width="2" cx="232.6943" cy="-244" rx="37.8943" ry="18"/>
<text text-anchor="middle" x="232.6943" y="-240.3" font-family="Times,serif" font-size="14.00" fill="#000000">Process</text>
</a>
</g>
</g>
<!-- Manufacturing&#45;&gt;Process -->
<g id="edge3" class="edge">
<title>Manufacturing&#45;&gt;Process</title>
<path fill="none" stroke="#000000" d="M99.1223,-187.0936C127.2101,-199.06 166.3681,-215.7427 195.0242,-227.9512"/>
<polygon fill="none" stroke="#000000" points="193.7368,-231.2071 204.3086,-231.9066 196.4805,-224.7672 193.7368,-231.2071"/>
</g>
<!-- Measurement -->
<g id="node3" class="node">
<title>Measurement</title>
<g id="a_node3"><a xlink:href="http://emmo.info/emmo/middle/properties#EMMO_463bcfda_867b_41d9_a967_211d4d437cfb" xlink:title="Measurement">
<ellipse fill="#ffffcc" stroke="#000000" cx="380.6943" cy="-23" rx="59.5901" ry="18"/>
<text text-anchor="middle" x="380.6943" y="-19.3" font-family="Times,serif" font-size="14.00" fill="#000000">Measurement</text>
</a>
</g>
</g>
<!-- Observation -->
<g id="node7" class="node">
<title>Observation</title>
<g id="a_node7"><a xlink:href="http://emmo.info/emmo/middle/properties#EMMO_10a5fd39_06aa_4648_9e70_f962a9cb2069" xlink:title="Observation">
<ellipse fill="#ffffcc" stroke="#000000" cx="380.6943" cy="-100" rx="53.8905" ry="18"/>
<text text-anchor="middle" x="380.6943" y="-96.3" font-family="Times,serif" font-size="14.00" fill="#000000">Observation</text>
</a>
</g>
</g>
<!-- Measurement&#45;&gt;Observation -->
<g id="edge2" class="edge">
<title>Measurement&#45;&gt;Observation</title>
<path fill="none" stroke="#000000" d="M380.6943,-41.2479C380.6943,-50.3578 380.6943,-61.5826 380.6943,-71.7718"/>
<polygon fill="none" stroke="#000000" points="377.1944,-71.883 380.6943,-81.8831 384.1944,-71.8831 377.1944,-71.883"/>
</g>
<!-- Theorization -->
<g id="node4" class="node">
<title>Theorization</title>
<g id="a_node4"><a xlink:href="http://emmo.info/emmo/middle/models#EMMO_6c739b1a_a774_4416_bb31_1961486fa9ed" xlink:title="Theorization">
<ellipse fill="#ffffcc" stroke="#000000" cx="514.6943" cy="-23" rx="55.7903" ry="18"/>
<text text-anchor="middle" x="514.6943" y="-19.3" font-family="Times,serif" font-size="14.00" fill="#000000">Theorization</text>
</a>
</g>
</g>
<!-- Theorization&#45;&gt;Observation -->
<g id="edge7" class="edge">
<title>Theorization&#45;&gt;Observation</title>
<path fill="none" stroke="#000000" d="M487.2541,-38.7679C466.9303,-50.4465 439.0403,-66.4728 416.8912,-79.2003"/>
<polygon fill="none" stroke="#000000" points="415.0246,-76.2362 408.0979,-84.2532 418.5122,-82.3055 415.0246,-76.2362"/>
</g>
<!-- PhysicalPhenomenon -->
<g id="node5" class="node">
<title>PhysicalPhenomenon</title>
<g id="a_node5"><a xlink:href="http://emmo.info/emmo/middle/models#EMMO_314d0bd5_67ed_437e_a609_36d46147cea7" xlink:title="PhysicalPhenomenon">
<ellipse fill="#ffffcc" stroke="#000000" cx="232.6943" cy="-172" rx="87.1846" ry="18"/>
<text text-anchor="middle" x="232.6943" y="-168.3" font-family="Times,serif" font-size="14.00" fill="#000000">PhysicalPhenomenon</text>
</a>
</g>
</g>
<!-- PhysicalPhenomenon&#45;&gt;Process -->
<g id="edge8" class="edge">
<title>PhysicalPhenomenon&#45;&gt;Process</title>
<path fill="none" stroke="#000000" d="M232.6943,-190.1686C232.6943,-197.869 232.6943,-207.0257 232.6943,-215.5834"/>
<polygon fill="none" stroke="#000000" points="229.1944,-215.5867 232.6943,-225.5867 236.1944,-215.5868 229.1944,-215.5867"/>
</g>
<!-- Experiment -->
<g id="node6" class="node">
<title>Experiment</title>
<g id="a_node6"><a xlink:href="http://emmo.info/emmo/middle/models#EMMO_22522299_4091_4d1f_82a2_3890492df6db" xlink:title="Experiment">
<ellipse fill="#ffffcc" stroke="#000000" cx="250.6943" cy="-23" rx="51.9908" ry="18"/>
<text text-anchor="middle" x="250.6943" y="-19.3" font-family="Times,serif" font-size="14.00" fill="#000000">Experiment</text>
</a>
</g>
</g>
<!-- Experiment&#45;&gt;PhysicalPhenomenon -->
<g id="edge5" class="edge">
<title>Experiment&#45;&gt;PhysicalPhenomenon</title>
<path fill="none" stroke="#ff0000" d="M248.4872,-41.2703C245.4104,-66.7396 239.8012,-113.171 236.1626,-143.2906"/>
<polygon fill="#ff0000" stroke="#ff0000" points="232.6442,-143.2326 234.9196,-153.5802 239.5937,-144.0722 232.6442,-143.2326"/>
</g>
<!-- Experiment&#45;&gt;Observation -->
<g id="edge4" class="edge">
<title>Experiment&#45;&gt;Observation</title>
<path fill="none" stroke="#000000" d="M277.0018,-38.5821C296.6071,-50.1945 323.5961,-66.1803 345.125,-78.932"/>
<polygon fill="none" stroke="#000000" points="343.5921,-82.0919 353.9798,-84.1768 347.1595,-76.0691 343.5921,-82.0919"/>
</g>
<!-- Semiosis -->
<g id="node8" class="node">
<title>Semiosis</title>
<g id="a_node8"><a xlink:href="http://emmo.info/emmo/top/semiotics#EMMO_008fd3b2_4013_451f_8827_52bceab11841" xlink:title="Semiosis">
<ellipse fill="#ffffcc" stroke="#000000" cx="380.6943" cy="-172" rx="42.7926" ry="18"/>
<text text-anchor="middle" x="380.6943" y="-168.3" font-family="Times,serif" font-size="14.00" fill="#000000">Semiosis</text>
</a>
</g>
</g>
<!-- Observation&#45;&gt;Semiosis -->
<g id="edge1" class="edge">
<title>Observation&#45;&gt;Semiosis</title>
<path fill="none" stroke="#000000" d="M380.6943,-118.1686C380.6943,-125.869 380.6943,-135.0257 380.6943,-143.5834"/>
<polygon fill="none" stroke="#000000" points="377.1944,-143.5867 380.6943,-153.5867 384.1944,-143.5868 377.1944,-143.5867"/>
</g>
<!-- Semiosis&#45;&gt;Process -->
<g id="edge6" class="edge">
<title>Semiosis&#45;&gt;Process</title>
<path fill="none" stroke="#000000" d="M352.5083,-185.7121C328.6057,-197.3404 294.1892,-214.0836 268.3699,-226.6443"/>
<polygon fill="none" stroke="#000000" points="266.7432,-223.5435 259.2819,-231.0655 269.8055,-229.8381 266.7432,-223.5435"/>
</g>
<!-- key1 -->
<g id="node9" class="node">
<title>key1</title>
<text text-anchor="start" x="656.6943" y="-28.8" font-family="Times,serif" font-size="14.00" fill="#000000">isA</text>
<text text-anchor="start" x="598.6943" y="-9.8" font-family="Times,serif" font-size="14.00" fill="#000000">hasParticipant</text>
</g>
<!-- key2 -->
<g id="node10" class="node">
<title>key2</title>
<text text-anchor="start" x="728.6943" y="-28.8" font-family="Times,serif" font-size="14.00" fill="#000000"> </text>
<text text-anchor="start" x="728.6943" y="-9.8" font-family="Times,serif" font-size="14.00" fill="#000000"> </text>
</g>
<!-- key1&#45;&gt;key2 -->
<g id="edge9" class="edge">
<title>key1:e&#45;&gt;key2:w</title>
<path fill="none" stroke="#ff0000" d="M677.6943,-13C695.5589,-13 702.4326,-13 716.3473,-13"/>
<polygon fill="#ff0000" stroke="#ff0000" points="716.6944,-16.5001 726.6943,-13 716.6943,-9.5001 716.6944,-16.5001"/>
</g>
<!-- key1&#45;&gt;key2 -->
<g id="edge10" class="edge">
<title>key1:e&#45;&gt;key2:w</title>
<path fill="none" stroke="#000000" d="M677.6943,-33C695.5589,-33 702.4326,-33 716.3473,-33"/>
<polygon fill="none" stroke="#000000" points="716.6944,-36.5001 726.6943,-33 716.6943,-29.5001 716.6944,-36.5001"/>
</g>
</g>
</svg>
