<?xml version="1.0" encoding="UTF-8" standalone="no"?>
<!DOCTYPE svg PUBLIC "-//W3C//DTD SVG 1.1//EN"
 "http://www.w3.org/Graphics/SVG/1.1/DTD/svg11.dtd">
<!-- Generated by graphviz version 2.40.1 (20161225.0304)
 -->
<!-- Title: %3 Pages: 1 -->
<svg width="574pt" height="270pt"
 viewBox="0.00 0.00 573.69 270.00" xmlns="http://www.w3.org/2000/svg" xmlns:xlink="http://www.w3.org/1999/xlink">
<g id="graph0" class="graph" transform="scale(1 1) rotate(0) translate(4 266)">
<title>%3</title>
<polygon fill="#ffffff" stroke="transparent" points="-4,4 -4,-266 569.6943,-266 569.6943,4 -4,4"/>
<!-- Observation -->
<g id="node1" class="node">
<title>Observation</title>
<g id="a_node1"><a xlink:href="http://emmo.info/emmo/middle/properties#EMMO_10a5fd39_06aa_4648_9e70_f962a9cb2069" xlink:title="Observation">
<ellipse fill="#ffffcc" stroke="#000000" cx="188.6943" cy="-100" rx="53.8905" ry="18"/>
<text text-anchor="middle" x="188.6943" y="-96.3" font-family="Times,serif" font-size="14.00" fill="#000000">Observation</text>
</a>
</g>
</g>
<!-- Semiosis -->
<g id="node2" class="node">
<title>Semiosis</title>
<g id="a_node2"><a xlink:href="http://emmo.info/emmo/top/semiotics#EMMO_008fd3b2_4013_451f_8827_52bceab11841" xlink:title="Semiosis">
<ellipse fill="#ffffcc" stroke="#000000" cx="188.6943" cy="-172" rx="42.7926" ry="18"/>
<text text-anchor="middle" x="188.6943" y="-168.3" font-family="Times,serif" font-size="14.00" fill="#000000">Semiosis</text>
</a>
</g>
</g>
<!-- Observation&#45;&gt;Semiosis -->
<g id="edge7" class="edge">
<title>Observation&#45;&gt;Semiosis</title>
<path fill="none" stroke="#000000" d="M188.6943,-118.1686C188.6943,-125.869 188.6943,-135.0257 188.6943,-143.5834"/>
<polygon fill="none" stroke="#000000" points="185.1944,-143.5867 188.6943,-153.5867 192.1944,-143.5868 185.1944,-143.5867"/>
</g>
<!-- Process -->
<g id="node6" class="node">
<title>Process</title>
<g id="a_node6"><a xlink:href="http://emmo.info/emmo/middle/holistic#EMMO_43e9a05d_98af_41b4_92f6_00f79a09bfce" xlink:title="Process">
<ellipse fill="#ffffcc" stroke="#000000" stroke-width="2" cx="188.6943" cy="-244" rx="37.8943" ry="18"/>
<text text-anchor="middle" x="188.6943" y="-240.3" font-family="Times,serif" font-size="14.00" fill="#000000">Process</text>
</a>
</g>
</g>
<!-- Semiosis&#45;&gt;Process -->
<g id="edge1" class="edge">
<title>Semiosis&#45;&gt;Process</title>
<path fill="none" stroke="#000000" d="M188.6943,-190.1686C188.6943,-197.869 188.6943,-207.0257 188.6943,-215.5834"/>
<polygon fill="none" stroke="#000000" points="185.1944,-215.5867 188.6943,-225.5867 192.1944,-215.5868 185.1944,-215.5867"/>
</g>
<!-- Manufacturing -->
<g id="node3" class="node">
<title>Manufacturing</title>
<g id="a_node3"><a xlink:href="http://emmo.info/emmo/middle/manufacturing#EMMO_a4d66059_5dd3_4b90_b4cb_10960559441b" xlink:title="Manufacturing">
<ellipse fill="#ffffcc" stroke="#000000" cx="63.6943" cy="-172" rx="63.8893" ry="18"/>
<text text-anchor="middle" x="63.6943" y="-168.3" font-family="Times,serif" font-size="14.00" fill="#000000">Manufacturing</text>
</a>
</g>
</g>
<!-- Manufacturing&#45;&gt;Process -->
<g id="edge8" class="edge">
<title>Manufacturing&#45;&gt;Process</title>
<path fill="none" stroke="#000000" d="M92.0588,-188.3379C110.9232,-199.2038 135.7726,-213.5171 155.5487,-224.9081"/>
<polygon fill="none" stroke="#000000" points="153.826,-227.9549 164.2382,-229.9133 157.3199,-221.8891 153.826,-227.9549"/>
</g>
<!-- Measurement -->
<g id="node4" class="node">
<title>Measurement</title>
<g id="a_node4"><a xlink:href="http://emmo.info/emmo/middle/properties#EMMO_463bcfda_867b_41d9_a967_211d4d437cfb" xlink:title="Measurement">
<ellipse fill="#ffffcc" stroke="#000000" cx="188.6943" cy="-23" rx="59.5901" ry="18"/>
<text text-anchor="middle" x="188.6943" y="-19.3" font-family="Times,serif" font-size="14.00" fill="#000000">Measurement</text>
</a>
</g>
</g>
<!-- Measurement&#45;&gt;Observation -->
<g id="edge2" class="edge">
<title>Measurement&#45;&gt;Observation</title>
<path fill="none" stroke="#000000" d="M188.6943,-41.2479C188.6943,-50.3578 188.6943,-61.5826 188.6943,-71.7718"/>
<polygon fill="none" stroke="#000000" points="185.1944,-71.883 188.6943,-81.8831 192.1944,-71.8831 185.1944,-71.883"/>
</g>
<!-- Theorization -->
<g id="node5" class="node">
<title>Theorization</title>
<g id="a_node5"><a xlink:href="http://emmo.info/emmo/middle/models#EMMO_6c739b1a_a774_4416_bb31_1961486fa9ed" xlink:title="Theorization">
<ellipse fill="#ffffcc" stroke="#000000" cx="322.6943" cy="-23" rx="55.7903" ry="18"/>
<text text-anchor="middle" x="322.6943" y="-19.3" font-family="Times,serif" font-size="14.00" fill="#000000">Theorization</text>
</a>
</g>
</g>
<!-- Theorization&#45;&gt;Observation -->
<g id="edge4" class="edge">
<title>Theorization&#45;&gt;Observation</title>
<path fill="none" stroke="#000000" d="M295.2541,-38.7679C274.9303,-50.4465 247.0403,-66.4728 224.8912,-79.2003"/>
<polygon fill="none" stroke="#000000" points="223.0246,-76.2362 216.0979,-84.2532 226.5122,-82.3055 223.0246,-76.2362"/>
</g>
<!-- PhysicalPhenomenon -->
<g id="node7" class="node">
<title>PhysicalPhenomenon</title>
<g id="a_node7"><a xlink:href="http://emmo.info/emmo/middle/models#EMMO_314d0bd5_67ed_437e_a609_36d46147cea7" xlink:title="PhysicalPhenomenon">
<ellipse fill="#ffffcc" stroke="#000000" cx="336.6943" cy="-172" rx="87.1846" ry="18"/>
<text text-anchor="middle" x="336.6943" y="-168.3" font-family="Times,serif" font-size="14.00" fill="#000000">PhysicalPhenomenon</text>
</a>
</g>
</g>
<!-- PhysicalPhenomenon&#45;&gt;Process -->
<g id="edge3" class="edge">
<title>PhysicalPhenomenon&#45;&gt;Process</title>
<path fill="none" stroke="#000000" d="M302.3682,-188.6992C278.9988,-200.0681 248.1346,-215.0831 224.4646,-226.5982"/>
<polygon fill="none" stroke="#000000" points="222.9144,-223.4602 215.4532,-230.9822 225.9767,-229.7548 222.9144,-223.4602"/>
</g>
<!-- Experiment -->
<g id="node8" class="node">
<title>Experiment</title>
<g id="a_node8"><a xlink:href="http://emmo.info/emmo/middle/models#EMMO_22522299_4091_4d1f_82a2_3890492df6db" xlink:title="Experiment">
<ellipse fill="#ffffcc" stroke="#000000" cx="58.6943" cy="-23" rx="51.9908" ry="18"/>
<text text-anchor="middle" x="58.6943" y="-19.3" font-family="Times,serif" font-size="14.00" fill="#000000">Experiment</text>
</a>
</g>
</g>
<!-- Experiment&#45;&gt;Observation -->
<g id="edge5" class="edge">
<title>Experiment&#45;&gt;Observation</title>
<path fill="none" stroke="#000000" d="M85.0018,-38.5821C104.6071,-50.1945 131.5961,-66.1803 153.125,-78.932"/>
<polygon fill="none" stroke="#000000" points="151.5921,-82.0919 161.9798,-84.1768 155.1595,-76.0691 151.5921,-82.0919"/>
</g>
<!-- Experiment&#45;&gt;PhysicalPhenomenon -->
<g id="edge6" class="edge">
<title>Experiment&#45;&gt;PhysicalPhenomenon</title>
<path fill="none" stroke="#ff0000" d="M93.0121,-36.587C101.6641,-39.8332 110.9733,-43.1736 119.6943,-46 177.5416,-64.7477 199.541,-50.7301 251.6943,-82 278.7905,-98.2462 302.7952,-125.5101 318.3245,-145.7817"/>
<polygon fill="#ff0000" stroke="#ff0000" points="315.6612,-148.0652 324.4453,-153.989 321.2726,-143.8803 315.6612,-148.0652"/>
</g>
<!-- key1 -->
<g id="node9" class="node">
<title>key1</title>
<text text-anchor="start" x="464.6943" y="-28.8" font-family="Times,serif" font-size="14.00" fill="#000000">isA</text>
<text text-anchor="start" x="406.6943" y="-9.8" font-family="Times,serif" font-size="14.00" fill="#000000">hasParticipant</text>
</g>
<!-- key2 -->
<g id="node10" class="node">
<title>key2</title>
<text text-anchor="start" x="536.6943" y="-28.8" font-family="Times,serif" font-size="14.00" fill="#000000"> </text>
<text text-anchor="start" x="536.6943" y="-9.8" font-family="Times,serif" font-size="14.00" fill="#000000"> </text>
</g>
<!-- key1&#45;&gt;key2 -->
<g id="edge9" class="edge">
<title>key1:e&#45;&gt;key2:w</title>
<path fill="none" stroke="#ff0000" d="M485.6943,-13C503.5589,-13 510.4326,-13 524.3473,-13"/>
<polygon fill="#ff0000" stroke="#ff0000" points="524.6944,-16.5001 534.6943,-13 524.6943,-9.5001 524.6944,-16.5001"/>
</g>
<!-- key1&#45;&gt;key2 -->
<g id="edge10" class="edge">
<title>key1:e&#45;&gt;key2:w</title>
<path fill="none" stroke="#000000" d="M485.6943,-33C503.5589,-33 510.4326,-33 524.3473,-33"/>
<polygon fill="none" stroke="#000000" points="524.6944,-36.5001 534.6943,-33 524.6943,-29.5001 524.6944,-36.5001"/>
</g>
</g>
</svg>
