<?xml version="1.0" encoding="UTF-8" standalone="no"?>
<!DOCTYPE svg PUBLIC "-//W3C//DTD SVG 1.1//EN"
 "http://www.w3.org/Graphics/SVG/1.1/DTD/svg11.dtd">
<!-- Generated by graphviz version 2.40.1 (20161225.0304)
 -->
<!-- Title: %3 Pages: 1 -->
<svg width="571pt" height="305pt"
 viewBox="0.00 0.00 570.69 305.00" xmlns="http://www.w3.org/2000/svg" xmlns:xlink="http://www.w3.org/1999/xlink">
<g id="graph0" class="graph" transform="scale(1 1) rotate(0) translate(4 301)">
<title>%3</title>
<polygon fill="#ffffff" stroke="transparent" points="-4,4 -4,-301 566.6897,-301 566.6897,4 -4,4"/>
<!-- Experiment -->
<g id="node1" class="node">
<title>Experiment</title>
<g id="a_node1"><a xlink:href="http://emmo.info/emmo/middle/models#EMMO_22522299_4091_4d1f_82a2_3890492df6db" xlink:title="Experiment">
<ellipse fill="#ffffcc" stroke="#000000" cx="51.9954" cy="-18" rx="51.9908" ry="18"/>
<text text-anchor="middle" x="51.9954" y="-14.3" font-family="Times,serif" font-size="14.00" fill="#000000">Experiment</text>
</a>
</g>
</g>
<!-- Observation -->
<g id="node3" class="node">
<title>Observation</title>
<g id="a_node3"><a xlink:href="http://emmo.info/emmo/middle/properties#EMMO_10a5fd39_06aa_4648_9e70_f962a9cb2069" xlink:title="Observation">
<ellipse fill="#ffffcc" stroke="#000000" cx="181.9954" cy="-105" rx="53.8905" ry="18"/>
<text text-anchor="middle" x="181.9954" y="-101.3" font-family="Times,serif" font-size="14.00" fill="#000000">Observation</text>
</a>
</g>
</g>
<!-- Experiment&#45;&gt;Observation -->
<g id="edge1" class="edge">
<title>Experiment&#45;&gt;Observation</title>
<path fill="none" stroke="#000000" d="M65.6418,-35.7901C74.5315,-46.4739 86.8834,-59.744 99.9954,-69 110.5189,-76.4288 122.8197,-82.8198 134.645,-88.0667"/>
<polygon fill="none" stroke="#000000" points="133.4109,-91.345 143.9837,-92.0273 136.144,-84.9006 133.4109,-91.345"/>
<text text-anchor="middle" x="109.4954" y="-57.8" font-family="Times,serif" font-size="14.00" fill="#000000">isA</text>
</g>
<!-- PhysicalPhenomenon -->
<g id="node7" class="node">
<title>PhysicalPhenomenon</title>
<g id="a_node7"><a xlink:href="http://emmo.info/emmo/middle/models#EMMO_314d0bd5_67ed_437e_a609_36d46147cea7" xlink:title="PhysicalPhenomenon">
<ellipse fill="#ffffcc" stroke="#000000" cx="329.9954" cy="-192" rx="87.1846" ry="18"/>
<text text-anchor="middle" x="329.9954" y="-188.3" font-family="Times,serif" font-size="14.00" fill="#000000">PhysicalPhenomenon</text>
</a>
</g>
</g>
<!-- Experiment&#45;&gt;PhysicalPhenomenon -->
<g id="edge2" class="edge">
<title>Experiment&#45;&gt;PhysicalPhenomenon</title>
<path fill="none" stroke="#ff0000" d="M83.9596,-32.2016C109.1891,-43.1016 145.4403,-58.0838 177.9954,-69 207.2294,-78.8026 219.1429,-70.1962 244.9954,-87 275.5101,-106.8342 300.2626,-141.2027 315.0266,-165.1979"/>
<polygon fill="#ff0000" stroke="#ff0000" points="312.0532,-167.0455 320.1871,-173.8345 318.0623,-163.4549 312.0532,-167.0455"/>
<text text-anchor="middle" x="338.9954" y="-101.3" font-family="Times,serif" font-size="14.00" fill="#000000">hasParticipant some</text>
</g>
<!-- Measurement -->
<g id="node2" class="node">
<title>Measurement</title>
<g id="a_node2"><a xlink:href="http://emmo.info/emmo/middle/properties#EMMO_463bcfda_867b_41d9_a967_211d4d437cfb" xlink:title="Measurement">
<ellipse fill="#ffffcc" stroke="#000000" cx="181.9954" cy="-18" rx="59.5901" ry="18"/>
<text text-anchor="middle" x="181.9954" y="-14.3" font-family="Times,serif" font-size="14.00" fill="#000000">Measurement</text>
</a>
</g>
</g>
<!-- Measurement&#45;&gt;Observation -->
<g id="edge5" class="edge">
<title>Measurement&#45;&gt;Observation</title>
<path fill="none" stroke="#000000" d="M181.9954,-36.0265C181.9954,-47.8082 181.9954,-63.4393 181.9954,-76.8419"/>
<polygon fill="none" stroke="#000000" points="178.4955,-76.9966 181.9954,-86.9966 185.4955,-76.9967 178.4955,-76.9966"/>
<text text-anchor="middle" x="191.4954" y="-57.8" font-family="Times,serif" font-size="14.00" fill="#000000">isA</text>
</g>
<!-- Semiosis -->
<g id="node4" class="node">
<title>Semiosis</title>
<g id="a_node4"><a xlink:href="http://emmo.info/emmo/top/semiotics#EMMO_008fd3b2_4013_451f_8827_52bceab11841" xlink:title="Semiosis">
<ellipse fill="#ffffcc" stroke="#000000" cx="181.9954" cy="-192" rx="42.7926" ry="18"/>
<text text-anchor="middle" x="181.9954" y="-188.3" font-family="Times,serif" font-size="14.00" fill="#000000">Semiosis</text>
</a>
</g>
</g>
<!-- Observation&#45;&gt;Semiosis -->
<g id="edge8" class="edge">
<title>Observation&#45;&gt;Semiosis</title>
<path fill="none" stroke="#000000" d="M181.9954,-123.0265C181.9954,-134.8082 181.9954,-150.4393 181.9954,-163.8419"/>
<polygon fill="none" stroke="#000000" points="178.4955,-163.9966 181.9954,-173.9966 185.4955,-163.9967 178.4955,-163.9966"/>
<text text-anchor="middle" x="191.4954" y="-144.8" font-family="Times,serif" font-size="14.00" fill="#000000">isA</text>
</g>
<!-- Process -->
<g id="node8" class="node">
<title>Process</title>
<g id="a_node8"><a xlink:href="http://emmo.info/emmo/middle/holistic#EMMO_43e9a05d_98af_41b4_92f6_00f79a09bfce" xlink:title="Process">
<ellipse fill="#ffffcc" stroke="#000000" stroke-width="2" cx="329.9954" cy="-279" rx="37.8943" ry="18"/>
<text text-anchor="middle" x="329.9954" y="-275.3" font-family="Times,serif" font-size="14.00" fill="#000000">Process</text>
</a>
</g>
</g>
<!-- Semiosis&#45;&gt;Process -->
<g id="edge3" class="edge">
<title>Semiosis&#45;&gt;Process</title>
<path fill="none" stroke="#000000" d="M207.1016,-206.7584C231.8493,-221.306 269.8024,-243.6163 296.981,-259.5929"/>
<polygon fill="none" stroke="#000000" points="295.3558,-262.6975 305.7504,-264.7479 298.9032,-256.6629 295.3558,-262.6975"/>
<text text-anchor="middle" x="273.4954" y="-231.8" font-family="Times,serif" font-size="14.00" fill="#000000">isA</text>
</g>
<!-- Manufacturing -->
<g id="node5" class="node">
<title>Manufacturing</title>
<g id="a_node5"><a xlink:href="http://emmo.info/emmo/middle/manufacturing#EMMO_a4d66059_5dd3_4b90_b4cb_10960559441b" xlink:title="Manufacturing">
<ellipse fill="#ffffcc" stroke="#000000" cx="498.9954" cy="-192" rx="63.8893" ry="18"/>
<text text-anchor="middle" x="498.9954" y="-188.3" font-family="Times,serif" font-size="14.00" fill="#000000">Manufacturing</text>
</a>
</g>
</g>
<!-- Manufacturing&#45;&gt;Process -->
<g id="edge4" class="edge">
<title>Manufacturing&#45;&gt;Process</title>
<path fill="none" stroke="#000000" d="M467.9982,-207.9571C438.8094,-222.9833 395.1516,-245.458 364.7848,-261.0907"/>
<polygon fill="none" stroke="#000000" points="363.1071,-258.0177 355.818,-265.7067 366.3111,-264.2415 363.1071,-258.0177"/>
<text text-anchor="middle" x="433.4954" y="-231.8" font-family="Times,serif" font-size="14.00" fill="#000000">isA</text>
</g>
<!-- Theorization -->
<g id="node6" class="node">
<title>Theorization</title>
<g id="a_node6"><a xlink:href="http://emmo.info/emmo/middle/models#EMMO_6c739b1a_a774_4416_bb31_1961486fa9ed" xlink:title="Theorization">
<ellipse fill="#ffffcc" stroke="#000000" cx="315.9954" cy="-18" rx="55.7903" ry="18"/>
<text text-anchor="middle" x="315.9954" y="-14.3" font-family="Times,serif" font-size="14.00" fill="#000000">Theorization</text>
</a>
</g>
</g>
<!-- Theorization&#45;&gt;Observation -->
<g id="edge6" class="edge">
<title>Theorization&#45;&gt;Observation</title>
<path fill="none" stroke="#000000" d="M291.1051,-34.1601C269.7631,-48.0165 238.8347,-68.0969 215.3522,-83.343"/>
<polygon fill="none" stroke="#000000" points="213.2338,-80.5453 206.7524,-88.9264 217.0457,-86.4164 213.2338,-80.5453"/>
<text text-anchor="middle" x="266.4954" y="-57.8" font-family="Times,serif" font-size="14.00" fill="#000000">isA</text>
</g>
<!-- PhysicalPhenomenon&#45;&gt;Process -->
<g id="edge7" class="edge">
<title>PhysicalPhenomenon&#45;&gt;Process</title>
<path fill="none" stroke="#000000" d="M329.9954,-210.0265C329.9954,-221.8082 329.9954,-237.4393 329.9954,-250.8419"/>
<polygon fill="none" stroke="#000000" points="326.4955,-250.9966 329.9954,-260.9966 333.4955,-250.9967 326.4955,-250.9966"/>
<text text-anchor="middle" x="339.4954" y="-231.8" font-family="Times,serif" font-size="14.00" fill="#000000">isA</text>
</g>
</g>
</svg>
