<?xml version="1.0" encoding="UTF-8" standalone="no"?>
<!DOCTYPE svg PUBLIC "-//W3C//DTD SVG 1.1//EN"
 "http://www.w3.org/Graphics/SVG/1.1/DTD/svg11.dtd">
<!-- Generated by graphviz version 2.40.1 (20161225.0304)
 -->
<!-- Title: %3 Pages: 1 -->
<svg width="651pt" height="270pt"
 viewBox="0.00 0.00 650.54 270.00" xmlns="http://www.w3.org/2000/svg" xmlns:xlink="http://www.w3.org/1999/xlink">
<g id="graph0" class="graph" transform="scale(1 1) rotate(0) translate(4 266)">
<title>%3</title>
<polygon fill="#ffffff" stroke="transparent" points="-4,4 -4,-266 646.5427,-266 646.5427,4 -4,4"/>
<!-- Reductionistic -->
<g id="node1" class="node">
<title>Reductionistic</title>
<g id="a_node1"><a xlink:href="http://emmo.info/emmo/middle/reductionistic#EMMO_15db234d_ecaf_4715_9838_4b4ec424fb13" xlink:title="Reductionistic">
<ellipse fill="#ffc880" stroke="#000000" stroke-width="2" cx="432.0456" cy="-244" rx="61.99" ry="18"/>
<text text-anchor="middle" x="432.0456" y="-240.3" font-family="Times,serif" font-size="14.00" fill="#000000">Reductionistic</text>
</a>
</g>
</g>
<!-- SymbolicComposition -->
<g id="node2" class="node">
<title>SymbolicComposition</title>
<g id="a_node2"><a xlink:href="http://emmo.info/emmo/middle/perceptual#EMMO_89a0c87c_0804_4013_937a_6fe234d9499c" xlink:title="SymbolicComposition">
<ellipse fill="#ffffcc" stroke="#000000" cx="104.0456" cy="-100" rx="90.9839" ry="18"/>
<text text-anchor="middle" x="104.0456" y="-96.3" font-family="Times,serif" font-size="14.00" fill="#000000">SymbolicComposition</text>
</a>
</g>
</g>
<!-- State -->
<g id="node5" class="node">
<title>State</title>
<g id="a_node5"><a xlink:href="http://emmo.info/emmo/middle/reductionistic#EMMO_36c79456_e29c_400d_8bd3_0eedddb82652" xlink:title="State">
<ellipse fill="#ffffcc" stroke="#000000" cx="389.0456" cy="-172" rx="28.6953" ry="18"/>
<text text-anchor="middle" x="389.0456" y="-168.3" font-family="Times,serif" font-size="14.00" fill="#000000">State</text>
</a>
</g>
</g>
<!-- SymbolicComposition&#45;&gt;State -->
<g id="edge8" class="edge">
<title>SymbolicComposition&#45;&gt;State</title>
<path fill="none" stroke="#000000" d="M160.3524,-114.2249C217.4489,-128.6493 304.1172,-150.5444 352.7185,-162.8226"/>
<polygon fill="none" stroke="#000000" points="351.9347,-166.2345 362.4874,-165.2906 353.6493,-159.4477 351.9347,-166.2345"/>
</g>
<!-- MaterialState -->
<g id="node3" class="node">
<title>MaterialState</title>
<g id="a_node3"><a xlink:href="http://emmo.info/emmo/middle/materials#EMMO_20fff605_465f_4034_8696_e53e90ec83f4" xlink:title="MaterialState">
<ellipse fill="#ffc880" stroke="#000000" stroke-width="2" cx="271.0456" cy="-100" rx="58.4896" ry="18"/>
<text text-anchor="middle" x="271.0456" y="-96.3" font-family="Times,serif" font-size="14.00" fill="#000000">MaterialState</text>
</a>
</g>
</g>
<!-- MaterialState&#45;&gt;State -->
<g id="edge7" class="edge">
<title>MaterialState&#45;&gt;State</title>
<path fill="none" stroke="#000000" d="M297.5271,-116.1582C315.9463,-127.397 340.5146,-142.3879 359.5581,-154.0077"/>
<polygon fill="none" stroke="#000000" points="357.7844,-157.0254 368.1438,-159.2464 361.4305,-151.05 357.7844,-157.0254"/>
</g>
<!-- Quantity -->
<g id="node4" class="node">
<title>Quantity</title>
<g id="a_node4"><a xlink:href="http://emmo.info/emmo/middle/metrology#EMMO_f658c301_ce93_46cf_9639_4eace2c5d1d5" xlink:title="Quantity">
<ellipse fill="#ffffcc" stroke="#000000" stroke-width="2" cx="389.0456" cy="-100" rx="41.6928" ry="18"/>
<text text-anchor="middle" x="389.0456" y="-96.3" font-family="Times,serif" font-size="14.00" fill="#000000">Quantity</text>
</a>
</g>
</g>
<!-- Quantity&#45;&gt;State -->
<g id="edge2" class="edge">
<title>Quantity&#45;&gt;State</title>
<path fill="none" stroke="#000000" d="M389.0456,-118.1686C389.0456,-125.869 389.0456,-135.0257 389.0456,-143.5834"/>
<polygon fill="none" stroke="#000000" points="385.5457,-143.5867 389.0456,-153.5867 392.5457,-143.5868 385.5457,-143.5867"/>
</g>
<!-- State&#45;&gt;Reductionistic -->
<g id="edge9" class="edge">
<title>State&#45;&gt;Reductionistic</title>
<path fill="none" stroke="#000000" d="M399.236,-189.063C404.2799,-197.5086 410.4847,-207.8981 416.1358,-217.3604"/>
<polygon fill="none" stroke="#000000" points="413.1959,-219.2639 421.3283,-226.0547 419.2057,-215.6747 413.1959,-219.2639"/>
</g>
<!-- PrefixedUnit -->
<g id="node6" class="node">
<title>PrefixedUnit</title>
<g id="a_node6"><a xlink:href="http://emmo.info/emmo/middle/metrology#EMMO_c6d4a5e0_7e95_44df_a6db_84ee0a8bbc8e" xlink:title="PrefixedUnit">
<ellipse fill="#ffffcc" stroke="#000000" stroke-width="2" cx="504.0456" cy="-100" rx="55.7903" ry="18"/>
<text text-anchor="middle" x="504.0456" y="-96.3" font-family="Times,serif" font-size="14.00" fill="#000000">PrefixedUnit</text>
</a>
</g>
</g>
<!-- PrefixedUnit&#45;&gt;State -->
<g id="edge1" class="edge">
<title>PrefixedUnit&#45;&gt;State</title>
<path fill="none" stroke="#000000" d="M478.2373,-116.1582C460.3676,-127.3462 436.5592,-142.2523 418.0356,-153.8497"/>
<polygon fill="none" stroke="#000000" points="416.0344,-150.9732 409.4159,-159.2464 419.7491,-156.9063 416.0344,-150.9732"/>
</g>
<!-- Expression -->
<g id="node7" class="node">
<title>Expression</title>
<g id="a_node7"><a xlink:href="http://emmo.info/emmo/middle/math#EMMO_f9bc8b52_85e9_4b53_b969_dd7724d5b8e4" xlink:title="Expression">
<ellipse fill="#ffffcc" stroke="#000000" stroke-width="2" cx="50.0456" cy="-23" rx="50.0912" ry="18"/>
<text text-anchor="middle" x="50.0456" y="-19.3" font-family="Times,serif" font-size="14.00" fill="#000000">Expression</text>
</a>
</g>
</g>
<!-- Expression&#45;&gt;SymbolicComposition -->
<g id="edge11" class="edge">
<title>Expression&#45;&gt;SymbolicComposition</title>
<path fill="none" stroke="#000000" d="M62.299,-40.4725C69.1741,-50.2758 77.8892,-62.703 85.5763,-73.6642"/>
<polygon fill="none" stroke="#000000" points="82.8585,-75.8846 91.4659,-82.0623 88.5896,-71.8653 82.8585,-75.8846"/>
</g>
<!-- Existent -->
<g id="node8" class="node">
<title>Existent</title>
<g id="a_node8"><a xlink:href="http://emmo.info/emmo/middle/reductionistic#EMMO_52211e5e_d767_4812_845e_eb6b402c476a" xlink:title="Existent">
<ellipse fill="#ffffcc" stroke="#000000" cx="475.0456" cy="-172" rx="39.7935" ry="18"/>
<text text-anchor="middle" x="475.0456" y="-168.3" font-family="Times,serif" font-size="14.00" fill="#000000">Existent</text>
</a>
</g>
</g>
<!-- Existent&#45;&gt;Reductionistic -->
<g id="edge4" class="edge">
<title>Existent&#45;&gt;Reductionistic</title>
<path fill="none" stroke="#000000" d="M464.6365,-189.4292C459.5885,-197.8816 453.4172,-208.2149 447.8081,-217.6069"/>
<polygon fill="none" stroke="#000000" points="444.7801,-215.8511 442.6575,-226.2311 450.7899,-219.4403 444.7801,-215.8511"/>
</g>
<!-- Existent&#45;&gt;State -->
<g id="edge5" class="edge">
<title>Existent&#45;&gt;State</title>
<path fill="none" stroke="#ff00ff" stroke-dasharray="5,2" d="M445.5985,-184.1589C437.7767,-185.7069 429.9548,-185.9148 422.1329,-184.7826"/>
<polygon fill="#ff00ff" stroke="#ff00ff" points="422.7402,-181.3329 412.2252,-182.6317 421.2551,-188.1736 422.7402,-181.3329"/>
</g>
<!-- Existent&#45;&gt;State -->
<g id="edge6" class="edge">
<title>Existent&#45;&gt;State</title>
<path fill="none" stroke="#ff00ff" stroke-dasharray="5,2" d="M445.5985,-159.8411C437.7767,-158.2931 429.9548,-158.0852 422.1329,-159.2174"/>
<polygon fill="#ff00ff" stroke="#ff00ff" points="421.2551,-155.8264 412.2252,-161.3683 422.7402,-162.6671 421.2551,-155.8264"/>
</g>
<!-- String -->
<g id="node9" class="node">
<title>String</title>
<g id="a_node9"><a xlink:href="http://emmo.info/emmo/middle/perceptual#EMMO_50ea1ec5_f157_41b0_b46b_a9032f17ca10" xlink:title="String">
<ellipse fill="#ffffcc" stroke="#000000" cx="610.0456" cy="-100" rx="32.4942" ry="18"/>
<text text-anchor="middle" x="610.0456" y="-96.3" font-family="Times,serif" font-size="14.00" fill="#000000">String</text>
</a>
</g>
</g>
<!-- String&#45;&gt;State -->
<g id="edge10" class="edge">
<title>String&#45;&gt;State</title>
<path fill="none" stroke="#000000" d="M585.1568,-111.7172C579.9001,-113.9678 574.3404,-116.1855 569.0456,-118 507.0466,-139.247 487.6175,-131.5454 426.0456,-154 424.1832,-154.6792 422.2899,-155.4226 420.3942,-156.2084"/>
<polygon fill="none" stroke="#000000" points="418.7331,-153.1169 411.0278,-160.3888 421.5861,-159.5091 418.7331,-153.1169"/>
</g>
<!-- Formula -->
<g id="node10" class="node">
<title>Formula</title>
<g id="a_node10"><a xlink:href="http://emmo.info/emmo/middle/math#EMMO_88470739_03d3_4c47_a03e_b30a1288d50c" xlink:title="Formula">
<ellipse fill="#ffffcc" stroke="#000000" stroke-width="2" cx="159.0456" cy="-23" rx="40.8928" ry="18"/>
<text text-anchor="middle" x="159.0456" y="-19.3" font-family="Times,serif" font-size="14.00" fill="#000000">Formula</text>
</a>
</g>
</g>
<!-- Formula&#45;&gt;SymbolicComposition -->
<g id="edge3" class="edge">
<title>Formula&#45;&gt;SymbolicComposition</title>
<path fill="none" stroke="#000000" d="M146.5652,-40.4725C139.5628,-50.2758 130.6862,-62.703 122.8569,-73.6642"/>
<polygon fill="none" stroke="#000000" points="119.8225,-71.8906 116.8582,-82.0623 125.5187,-75.9593 119.8225,-71.8906"/>
</g>
<!-- key1 -->
<g id="node11" class="node">
<title>key1</title>
<text text-anchor="start" x="336.0456" y="-28.8" font-family="Times,serif" font-size="14.00" fill="#000000">isA</text>
<text text-anchor="start" x="228.0456" y="-9.8" font-family="Times,serif" font-size="14.00" fill="#000000">hasTemporalDirectPart</text>
</g>
<!-- key2 -->
<g id="node12" class="node">
<title>key2</title>
<text text-anchor="start" x="408.0456" y="-28.8" font-family="Times,serif" font-size="14.00" fill="#000000"> </text>
<text text-anchor="start" x="408.0456" y="-9.8" font-family="Times,serif" font-size="14.00" fill="#000000"> </text>
</g>
<!-- key1&#45;&gt;key2 -->
<g id="edge12" class="edge">
<title>key1:e&#45;&gt;key2:w</title>
<path fill="none" stroke="#ff00ff" stroke-dasharray="5,2" d="M357.0456,-13C374.9101,-13 381.7838,-13 395.6985,-13"/>
<polygon fill="#ff00ff" stroke="#ff00ff" points="396.0456,-16.5001 406.0456,-13 396.0455,-9.5001 396.0456,-16.5001"/>
</g>
<!-- key1&#45;&gt;key2 -->
<g id="edge13" class="edge">
<title>key1:e&#45;&gt;key2:w</title>
<path fill="none" stroke="#000000" d="M357.0456,-33C374.9101,-33 381.7838,-33 395.6985,-33"/>
<polygon fill="none" stroke="#000000" points="396.0456,-36.5001 406.0456,-33 396.0455,-29.5001 396.0456,-36.5001"/>
</g>
</g>
</svg>
