<?xml version="1.0" encoding="UTF-8" standalone="no"?>
<!DOCTYPE svg PUBLIC "-//W3C//DTD SVG 1.1//EN"
 "http://www.w3.org/Graphics/SVG/1.1/DTD/svg11.dtd">
<!-- Generated by graphviz version 2.40.1 (20161225.0304)
 -->
<!-- Title: %3 Pages: 1 -->
<svg width="638pt" height="270pt"
 viewBox="0.00 0.00 637.99 270.00" xmlns="http://www.w3.org/2000/svg" xmlns:xlink="http://www.w3.org/1999/xlink">
<g id="graph0" class="graph" transform="scale(1 1) rotate(0) translate(4 266)">
<title>%3</title>
<polygon fill="#ffffff" stroke="transparent" points="-4,4 -4,-266 633.9919,-266 633.9919,4 -4,4"/>
<!-- MaterialState -->
<g id="node1" class="node">
<title>MaterialState</title>
<g id="a_node1"><a xlink:href="http://emmo.info/emmo/middle/materials#EMMO_20fff605_465f_4034_8696_e53e90ec83f4" xlink:title="MaterialState">
<ellipse fill="#ffc880" stroke="#000000" stroke-width="2" cx="58.4948" cy="-100" rx="58.4896" ry="18"/>
<text text-anchor="middle" x="58.4948" y="-96.3" font-family="Times,serif" font-size="14.00" fill="#000000">MaterialState</text>
</a>
</g>
</g>
<!-- State -->
<g id="node6" class="node">
<title>State</title>
<g id="a_node6"><a xlink:href="http://emmo.info/emmo/middle/reductionistic#EMMO_36c79456_e29c_400d_8bd3_0eedddb82652" xlink:title="State">
<ellipse fill="#ffffcc" stroke="#000000" cx="376.4948" cy="-172" rx="28.6953" ry="18"/>
<text text-anchor="middle" x="376.4948" y="-168.3" font-family="Times,serif" font-size="14.00" fill="#000000">State</text>
</a>
</g>
</g>
<!-- MaterialState&#45;&gt;State -->
<g id="edge11" class="edge">
<title>MaterialState&#45;&gt;State</title>
<path fill="none" stroke="#000000" d="M102.0222,-112.036C109.8204,-114.0947 117.8851,-116.1605 125.4948,-118 200.9312,-136.2356 289.8627,-154.6455 339.0364,-164.557"/>
<polygon fill="none" stroke="#000000" points="338.4134,-168.0017 348.9069,-166.5399 339.7921,-161.1388 338.4134,-168.0017"/>
</g>
<!-- SymbolicComposition -->
<g id="node2" class="node">
<title>SymbolicComposition</title>
<g id="a_node2"><a xlink:href="http://emmo.info/emmo/middle/perceptual#EMMO_89a0c87c_0804_4013_937a_6fe234d9499c" xlink:title="SymbolicComposition">
<ellipse fill="#ffffcc" stroke="#000000" cx="225.4948" cy="-100" rx="90.9839" ry="18"/>
<text text-anchor="middle" x="225.4948" y="-96.3" font-family="Times,serif" font-size="14.00" fill="#000000">SymbolicComposition</text>
</a>
</g>
</g>
<!-- SymbolicComposition&#45;&gt;State -->
<g id="edge1" class="edge">
<title>SymbolicComposition&#45;&gt;State</title>
<path fill="none" stroke="#000000" d="M260.5168,-116.6992C285.7443,-128.7282 319.5323,-144.8391 344.129,-156.5673"/>
<polygon fill="none" stroke="#000000" points="342.864,-159.8416 353.3968,-160.9864 345.8768,-153.5231 342.864,-159.8416"/>
</g>
<!-- Quantity -->
<g id="node3" class="node">
<title>Quantity</title>
<g id="a_node3"><a xlink:href="http://emmo.info/emmo/middle/metrology#EMMO_f658c301_ce93_46cf_9639_4eace2c5d1d5" xlink:title="Quantity">
<ellipse fill="#ffffcc" stroke="#000000" stroke-width="2" cx="376.4948" cy="-100" rx="41.6928" ry="18"/>
<text text-anchor="middle" x="376.4948" y="-96.3" font-family="Times,serif" font-size="14.00" fill="#000000">Quantity</text>
</a>
</g>
</g>
<!-- Quantity&#45;&gt;State -->
<g id="edge7" class="edge">
<title>Quantity&#45;&gt;State</title>
<path fill="none" stroke="#000000" d="M376.4948,-118.1686C376.4948,-125.869 376.4948,-135.0257 376.4948,-143.5834"/>
<polygon fill="none" stroke="#000000" points="372.9949,-143.5867 376.4948,-153.5867 379.9949,-143.5868 372.9949,-143.5867"/>
</g>
<!-- Reductionistic -->
<g id="node4" class="node">
<title>Reductionistic</title>
<g id="a_node4"><a xlink:href="http://emmo.info/emmo/middle/reductionistic#EMMO_15db234d_ecaf_4715_9838_4b4ec424fb13" xlink:title="Reductionistic">
<ellipse fill="#ffc880" stroke="#000000" stroke-width="2" cx="419.4948" cy="-244" rx="61.99" ry="18"/>
<text text-anchor="middle" x="419.4948" y="-240.3" font-family="Times,serif" font-size="14.00" fill="#000000">Reductionistic</text>
</a>
</g>
</g>
<!-- PrefixedUnit -->
<g id="node5" class="node">
<title>PrefixedUnit</title>
<g id="a_node5"><a xlink:href="http://emmo.info/emmo/middle/metrology#EMMO_c6d4a5e0_7e95_44df_a6db_84ee0a8bbc8e" xlink:title="PrefixedUnit">
<ellipse fill="#ffffcc" stroke="#000000" stroke-width="2" cx="491.4948" cy="-100" rx="55.7903" ry="18"/>
<text text-anchor="middle" x="491.4948" y="-96.3" font-family="Times,serif" font-size="14.00" fill="#000000">PrefixedUnit</text>
</a>
</g>
</g>
<!-- PrefixedUnit&#45;&gt;State -->
<g id="edge10" class="edge">
<title>PrefixedUnit&#45;&gt;State</title>
<path fill="none" stroke="#000000" d="M465.6866,-116.1582C447.8169,-127.3462 424.0085,-142.2523 405.4848,-153.8497"/>
<polygon fill="none" stroke="#000000" points="403.4837,-150.9732 396.8651,-159.2464 407.1983,-156.9063 403.4837,-150.9732"/>
</g>
<!-- State&#45;&gt;Reductionistic -->
<g id="edge9" class="edge">
<title>State&#45;&gt;Reductionistic</title>
<path fill="none" stroke="#000000" d="M386.6852,-189.063C391.7291,-197.5086 397.9339,-207.8981 403.5851,-217.3604"/>
<polygon fill="none" stroke="#000000" points="400.6451,-219.2639 408.7775,-226.0547 406.655,-215.6747 400.6451,-219.2639"/>
</g>
<!-- Expression -->
<g id="node7" class="node">
<title>Expression</title>
<g id="a_node7"><a xlink:href="http://emmo.info/emmo/middle/math#EMMO_f9bc8b52_85e9_4b53_b969_dd7724d5b8e4" xlink:title="Expression">
<ellipse fill="#ffffcc" stroke="#000000" stroke-width="2" cx="171.4948" cy="-23" rx="50.0912" ry="18"/>
<text text-anchor="middle" x="171.4948" y="-19.3" font-family="Times,serif" font-size="14.00" fill="#000000">Expression</text>
</a>
</g>
</g>
<!-- Expression&#45;&gt;SymbolicComposition -->
<g id="edge8" class="edge">
<title>Expression&#45;&gt;SymbolicComposition</title>
<path fill="none" stroke="#000000" d="M183.7482,-40.4725C190.6233,-50.2758 199.3385,-62.703 207.0255,-73.6642"/>
<polygon fill="none" stroke="#000000" points="204.3078,-75.8846 212.9151,-82.0623 210.0389,-71.8653 204.3078,-75.8846"/>
</g>
<!-- Existent -->
<g id="node8" class="node">
<title>Existent</title>
<g id="a_node8"><a xlink:href="http://emmo.info/emmo/middle/reductionistic#EMMO_52211e5e_d767_4812_845e_eb6b402c476a" xlink:title="Existent">
<ellipse fill="#ffffcc" stroke="#000000" cx="462.4948" cy="-172" rx="39.7935" ry="18"/>
<text text-anchor="middle" x="462.4948" y="-168.3" font-family="Times,serif" font-size="14.00" fill="#000000">Existent</text>
</a>
</g>
</g>
<!-- Existent&#45;&gt;Reductionistic -->
<g id="edge4" class="edge">
<title>Existent&#45;&gt;Reductionistic</title>
<path fill="none" stroke="#000000" d="M452.0857,-189.4292C447.0377,-197.8816 440.8665,-208.2149 435.2573,-217.6069"/>
<polygon fill="none" stroke="#000000" points="432.2293,-215.8511 430.1068,-226.2311 438.2391,-219.4403 432.2293,-215.8511"/>
</g>
<!-- Existent&#45;&gt;State -->
<g id="edge5" class="edge">
<title>Existent&#45;&gt;State</title>
<path fill="none" stroke="#ff00ff" stroke-dasharray="5,2" d="M433.0478,-184.1589C425.2259,-185.7069 417.4041,-185.9148 409.5822,-184.7826"/>
<polygon fill="#ff00ff" stroke="#ff00ff" points="410.1894,-181.3329 399.6745,-182.6317 408.7043,-188.1736 410.1894,-181.3329"/>
</g>
<!-- Existent&#45;&gt;State -->
<g id="edge6" class="edge">
<title>Existent&#45;&gt;State</title>
<path fill="none" stroke="#ff00ff" stroke-dasharray="5,2" d="M433.0478,-159.8411C425.2259,-158.2931 417.4041,-158.0852 409.5822,-159.2174"/>
<polygon fill="#ff00ff" stroke="#ff00ff" points="408.7043,-155.8264 399.6745,-161.3683 410.1894,-162.6671 408.7043,-155.8264"/>
</g>
<!-- Formula -->
<g id="node9" class="node">
<title>Formula</title>
<g id="a_node9"><a xlink:href="http://emmo.info/emmo/middle/math#EMMO_88470739_03d3_4c47_a03e_b30a1288d50c" xlink:title="Formula">
<ellipse fill="#ffffcc" stroke="#000000" stroke-width="2" cx="280.4948" cy="-23" rx="40.8928" ry="18"/>
<text text-anchor="middle" x="280.4948" y="-19.3" font-family="Times,serif" font-size="14.00" fill="#000000">Formula</text>
</a>
</g>
</g>
<!-- Formula&#45;&gt;SymbolicComposition -->
<g id="edge3" class="edge">
<title>Formula&#45;&gt;SymbolicComposition</title>
<path fill="none" stroke="#000000" d="M268.0145,-40.4725C261.0121,-50.2758 252.1355,-62.703 244.3061,-73.6642"/>
<polygon fill="none" stroke="#000000" points="241.2718,-71.8906 238.3075,-82.0623 246.9679,-75.9593 241.2718,-71.8906"/>
</g>
<!-- String -->
<g id="node10" class="node">
<title>String</title>
<g id="a_node10"><a xlink:href="http://emmo.info/emmo/middle/perceptual#EMMO_50ea1ec5_f157_41b0_b46b_a9032f17ca10" xlink:title="String">
<ellipse fill="#ffffcc" stroke="#000000" cx="597.4948" cy="-100" rx="32.4942" ry="18"/>
<text text-anchor="middle" x="597.4948" y="-96.3" font-family="Times,serif" font-size="14.00" fill="#000000">String</text>
</a>
</g>
</g>
<!-- String&#45;&gt;State -->
<g id="edge2" class="edge">
<title>String&#45;&gt;State</title>
<path fill="none" stroke="#000000" d="M572.606,-111.7172C567.3493,-113.9678 561.7897,-116.1855 556.4948,-118 494.4958,-139.247 475.0667,-131.5454 413.4948,-154 411.6325,-154.6792 409.7392,-155.4226 407.8434,-156.2084"/>
<polygon fill="none" stroke="#000000" points="406.1823,-153.1169 398.4771,-160.3888 409.0354,-159.5091 406.1823,-153.1169"/>
</g>
<!-- key1 -->
<g id="node11" class="node">
<title>key1</title>
<text text-anchor="start" x="457.4948" y="-28.8" font-family="Times,serif" font-size="14.00" fill="#000000">isA</text>
<text text-anchor="start" x="349.4948" y="-9.8" font-family="Times,serif" font-size="14.00" fill="#000000">hasTemporalDirectPart</text>
</g>
<!-- key2 -->
<g id="node12" class="node">
<title>key2</title>
<text text-anchor="start" x="529.4948" y="-28.8" font-family="Times,serif" font-size="14.00" fill="#000000"> </text>
<text text-anchor="start" x="529.4948" y="-9.8" font-family="Times,serif" font-size="14.00" fill="#000000"> </text>
</g>
<!-- key1&#45;&gt;key2 -->
<g id="edge12" class="edge">
<title>key1:e&#45;&gt;key2:w</title>
<path fill="none" stroke="#ff00ff" stroke-dasharray="5,2" d="M478.4948,-13C496.3594,-13 503.2331,-13 517.1478,-13"/>
<polygon fill="#ff00ff" stroke="#ff00ff" points="517.4948,-16.5001 527.4948,-13 517.4948,-9.5001 517.4948,-16.5001"/>
</g>
<!-- key1&#45;&gt;key2 -->
<g id="edge13" class="edge">
<title>key1:e&#45;&gt;key2:w</title>
<path fill="none" stroke="#000000" d="M478.4948,-33C496.3594,-33 503.2331,-33 517.1478,-33"/>
<polygon fill="none" stroke="#000000" points="517.4948,-36.5001 527.4948,-33 517.4948,-29.5001 517.4948,-36.5001"/>
</g>
</g>
</svg>
