<?xml version="1.0" encoding="UTF-8" standalone="no"?>
<!DOCTYPE svg PUBLIC "-//W3C//DTD SVG 1.1//EN"
 "http://www.w3.org/Graphics/SVG/1.1/DTD/svg11.dtd">
<!-- Generated by graphviz version 2.40.1 (20161225.0304)
 -->
<!-- Title: %3 Pages: 1 -->
<svg width="675pt" height="305pt"
 viewBox="0.00 0.00 674.69 305.00" xmlns="http://www.w3.org/2000/svg" xmlns:xlink="http://www.w3.org/1999/xlink">
<g id="graph0" class="graph" transform="scale(1 1) rotate(0) translate(4 301)">
<title>%3</title>
<polygon fill="#ffffff" stroke="transparent" points="-4,4 -4,-301 670.692,-301 670.692,4 -4,4"/>
<!-- SymbolicComposition -->
<g id="node1" class="node">
<title>SymbolicComposition</title>
<g id="a_node1"><a xlink:href="http://emmo.info/emmo/middle/perceptual#EMMO_89a0c87c_0804_4013_937a_6fe234d9499c" xlink:title="SymbolicComposition">
<ellipse fill="#ffffcc" stroke="#000000" cx="561.6465" cy="-105" rx="90.9839" ry="18"/>
<text text-anchor="middle" x="561.6465" y="-101.3" font-family="Times,serif" font-size="14.00" fill="#000000">SymbolicComposition</text>
</a>
</g>
</g>
<!-- State -->
<g id="node6" class="node">
<title>State</title>
<g id="a_node6"><a xlink:href="http://emmo.info/emmo/middle/reductionistic#EMMO_36c79456_e29c_400d_8bd3_0eedddb82652" xlink:title="State">
<ellipse fill="#ffffcc" stroke="#000000" cx="285.6465" cy="-192" rx="28.6953" ry="18"/>
<text text-anchor="middle" x="285.6465" y="-188.3" font-family="Times,serif" font-size="14.00" fill="#000000">State</text>
</a>
</g>
</g>
<!-- SymbolicComposition&#45;&gt;State -->
<g id="edge10" class="edge">
<title>SymbolicComposition&#45;&gt;State</title>
<path fill="none" stroke="#000000" d="M513.2551,-120.2538C458.4081,-137.5425 370.2905,-165.3187 321.3415,-180.7483"/>
<polygon fill="none" stroke="#000000" points="320.002,-177.5007 311.5169,-183.8452 322.1065,-184.1769 320.002,-177.5007"/>
<text text-anchor="middle" x="450.1465" y="-144.8" font-family="Times,serif" font-size="14.00" fill="#000000">isA</text>
</g>
<!-- Formula -->
<g id="node2" class="node">
<title>Formula</title>
<g id="a_node2"><a xlink:href="http://emmo.info/emmo/middle/math#EMMO_88470739_03d3_4c47_a03e_b30a1288d50c" xlink:title="Formula">
<ellipse fill="#ffffcc" stroke="#000000" stroke-width="2" cx="507.6465" cy="-18" rx="40.8928" ry="18"/>
<text text-anchor="middle" x="507.6465" y="-14.3" font-family="Times,serif" font-size="14.00" fill="#000000">Formula</text>
</a>
</g>
</g>
<!-- Formula&#45;&gt;SymbolicComposition -->
<g id="edge6" class="edge">
<title>Formula&#45;&gt;SymbolicComposition</title>
<path fill="none" stroke="#000000" d="M518.5742,-35.6057C526.2089,-47.9062 536.5394,-64.5497 545.1695,-78.4537"/>
<polygon fill="none" stroke="#000000" points="542.3023,-80.4712 550.5497,-87.1218 548.2498,-76.7796 542.3023,-80.4712"/>
<text text-anchor="middle" x="548.1465" y="-57.8" font-family="Times,serif" font-size="14.00" fill="#000000">isA</text>
</g>
<!-- Expression -->
<g id="node3" class="node">
<title>Expression</title>
<g id="a_node3"><a xlink:href="http://emmo.info/emmo/middle/math#EMMO_f9bc8b52_85e9_4b53_b969_dd7724d5b8e4" xlink:title="Expression">
<ellipse fill="#ffffcc" stroke="#000000" stroke-width="2" cx="616.6465" cy="-18" rx="50.0912" ry="18"/>
<text text-anchor="middle" x="616.6465" y="-14.3" font-family="Times,serif" font-size="14.00" fill="#000000">Expression</text>
</a>
</g>
</g>
<!-- Expression&#45;&gt;SymbolicComposition -->
<g id="edge1" class="edge">
<title>Expression&#45;&gt;SymbolicComposition</title>
<path fill="none" stroke="#000000" d="M605.5164,-35.6057C597.7403,-47.9062 587.2185,-64.5497 578.4286,-78.4537"/>
<polygon fill="none" stroke="#000000" points="575.334,-76.799 572.9488,-87.1218 581.2508,-80.5395 575.334,-76.799"/>
<text text-anchor="middle" x="601.1465" y="-57.8" font-family="Times,serif" font-size="14.00" fill="#000000">isA</text>
</g>
<!-- Quantity -->
<g id="node4" class="node">
<title>Quantity</title>
<g id="a_node4"><a xlink:href="http://emmo.info/emmo/middle/units#EMMO_f658c301_ce93_46cf_9639_4eace2c5d1d5" xlink:title="Quantity">
<ellipse fill="#ffffcc" stroke="#000000" stroke-width="2" cx="64.6465" cy="-105" rx="41.6928" ry="18"/>
<text text-anchor="middle" x="64.6465" y="-101.3" font-family="Times,serif" font-size="14.00" fill="#000000">Quantity</text>
</a>
</g>
</g>
<!-- Quantity&#45;&gt;State -->
<g id="edge11" class="edge">
<title>Quantity&#45;&gt;State</title>
<path fill="none" stroke="#000000" d="M95.8417,-117.2805C137.0148,-133.4889 209.2353,-161.9196 251.7274,-178.6472"/>
<polygon fill="none" stroke="#000000" points="250.5002,-181.9255 261.0872,-182.3319 253.0644,-175.412 250.5002,-181.9255"/>
<text text-anchor="middle" x="198.1465" y="-144.8" font-family="Times,serif" font-size="14.00" fill="#000000">isA</text>
</g>
<!-- PrefixedUnit -->
<g id="node5" class="node">
<title>PrefixedUnit</title>
<g id="a_node5"><a xlink:href="http://emmo.info/emmo/middle/units#EMMO_c6d4a5e0_7e95_44df_a6db_84ee0a8bbc8e" xlink:title="PrefixedUnit">
<ellipse fill="#ffffcc" stroke="#000000" stroke-width="2" cx="179.6465" cy="-105" rx="55.7903" ry="18"/>
<text text-anchor="middle" x="179.6465" y="-101.3" font-family="Times,serif" font-size="14.00" fill="#000000">PrefixedUnit</text>
</a>
</g>
</g>
<!-- PrefixedUnit&#45;&gt;State -->
<g id="edge5" class="edge">
<title>PrefixedUnit&#45;&gt;State</title>
<path fill="none" stroke="#000000" d="M200.0843,-121.7745C217.1964,-135.8192 241.7023,-155.9326 260.1056,-171.0372"/>
<polygon fill="none" stroke="#000000" points="258.1329,-173.946 268.0833,-177.5849 262.574,-168.5352 258.1329,-173.946"/>
<text text-anchor="middle" x="249.1465" y="-144.8" font-family="Times,serif" font-size="14.00" fill="#000000">isA</text>
</g>
<!-- Reductionistic -->
<g id="node9" class="node">
<title>Reductionistic</title>
<g id="a_node9"><a xlink:href="http://emmo.info/emmo/middle/reductionistic#EMMO_15db234d_ecaf_4715_9838_4b4ec424fb13" xlink:title="Reductionistic">
<ellipse fill="#ffc880" stroke="#000000" stroke-width="2" cx="162.6465" cy="-279" rx="61.99" ry="18"/>
<text text-anchor="middle" x="162.6465" y="-275.3" font-family="Times,serif" font-size="14.00" fill="#000000">Reductionistic</text>
</a>
</g>
</g>
<!-- State&#45;&gt;Reductionistic -->
<g id="edge7" class="edge">
<title>State&#45;&gt;Reductionistic</title>
<path fill="none" stroke="#000000" d="M266.4277,-205.5938C247.2559,-219.1543 217.4591,-240.2301 194.7023,-256.3264"/>
<polygon fill="none" stroke="#000000" points="192.5052,-253.5934 186.3621,-262.2255 196.5474,-259.3083 192.5052,-253.5934"/>
<text text-anchor="middle" x="241.1465" y="-231.8" font-family="Times,serif" font-size="14.00" fill="#000000">isA</text>
</g>
<!-- String -->
<g id="node7" class="node">
<title>String</title>
<g id="a_node7"><a xlink:href="http://emmo.info/emmo/middle/perceptual#EMMO_50ea1ec5_f157_41b0_b46b_a9032f17ca10" xlink:title="String">
<ellipse fill="#ffffcc" stroke="#000000" cx="285.6465" cy="-105" rx="32.4942" ry="18"/>
<text text-anchor="middle" x="285.6465" y="-101.3" font-family="Times,serif" font-size="14.00" fill="#000000">String</text>
</a>
</g>
</g>
<!-- String&#45;&gt;State -->
<g id="edge9" class="edge">
<title>String&#45;&gt;State</title>
<path fill="none" stroke="#000000" d="M285.6465,-123.0265C285.6465,-134.8082 285.6465,-150.4393 285.6465,-163.8419"/>
<polygon fill="none" stroke="#000000" points="282.1466,-163.9966 285.6465,-173.9966 289.1466,-163.9967 282.1466,-163.9966"/>
<text text-anchor="middle" x="295.1465" y="-144.8" font-family="Times,serif" font-size="14.00" fill="#000000">isA</text>
</g>
<!-- Existent -->
<g id="node8" class="node">
<title>Existent</title>
<g id="a_node8"><a xlink:href="http://emmo.info/emmo/middle/reductionistic#EMMO_52211e5e_d767_4812_845e_eb6b402c476a" xlink:title="Existent">
<ellipse fill="#ffffcc" stroke="#000000" cx="39.6465" cy="-192" rx="39.7935" ry="18"/>
<text text-anchor="middle" x="39.6465" y="-188.3" font-family="Times,serif" font-size="14.00" fill="#000000">Existent</text>
</a>
</g>
</g>
<!-- Existent&#45;&gt;State -->
<g id="edge3" class="edge">
<title>Existent&#45;&gt;State</title>
<path fill="none" stroke="#ff00ff" stroke-dasharray="5,2" d="M79.444,-192C125.6172,-192 201.2385,-192 246.9411,-192"/>
<polygon fill="#ff00ff" stroke="#ff00ff" points="247.0485,-195.5001 257.0485,-192 247.0484,-188.5001 247.0485,-195.5001"/>
<text text-anchor="middle" x="168.171" y="-177.8" font-family="Times,serif" font-size="14.00" fill="#000000">hasTemporalDirectPart some</text>
</g>
<!-- Existent&#45;&gt;State -->
<g id="edge4" class="edge">
<title>Existent&#45;&gt;State</title>
<path fill="none" stroke="#ff00ff" stroke-dasharray="5,2" d="M68.8726,-204.2118C75.8913,-206.6095 83.4492,-208.7635 90.671,-210 124.6214,-215.8128 211.9944,-217.2322 245.671,-210 248.5314,-209.3857 251.434,-208.5501 254.3017,-207.5735"/>
<polygon fill="#ff00ff" stroke="#ff00ff" points="255.7859,-210.7506 263.805,-203.8265 253.2182,-204.2385 255.7859,-210.7506"/>
<text text-anchor="middle" x="168.171" y="-198.8" font-family="Times,serif" font-size="14.00" fill="#000000">hasTemporalDirectPart only</text>
</g>
<!-- Existent&#45;&gt;Reductionistic -->
<g id="edge2" class="edge">
<title>Existent&#45;&gt;Reductionistic</title>
<path fill="none" stroke="#000000" d="M61.0714,-207.1542C80.2725,-220.7355 108.7047,-240.846 130.6083,-256.3389"/>
<polygon fill="none" stroke="#000000" points="128.7637,-259.3212 138.9491,-262.2384 132.806,-253.6063 128.7637,-259.3212"/>
<text text-anchor="middle" x="118.1465" y="-231.8" font-family="Times,serif" font-size="14.00" fill="#000000">isA</text>
</g>
<!-- MaterialState -->
<g id="node10" class="node">
<title>MaterialState</title>
<g id="a_node10"><a xlink:href="http://emmo.info/emmo/middle/materials#EMMO_20fff605_465f_4034_8696_e53e90ec83f4" xlink:title="MaterialState">
<ellipse fill="#ffc880" stroke="#000000" stroke-width="2" cx="394.6465" cy="-105" rx="58.4896" ry="18"/>
<text text-anchor="middle" x="394.6465" y="-101.3" font-family="Times,serif" font-size="14.00" fill="#000000">MaterialState</text>
</a>
</g>
</g>
<!-- MaterialState&#45;&gt;State -->
<g id="edge8" class="edge">
<title>MaterialState&#45;&gt;State</title>
<path fill="none" stroke="#000000" d="M373.3714,-121.981C355.6697,-136.1099 330.4059,-156.2746 311.5326,-171.3386"/>
<polygon fill="none" stroke="#000000" points="309.2512,-168.6813 303.6189,-177.6551 313.618,-174.1523 309.2512,-168.6813"/>
<text text-anchor="middle" x="357.1465" y="-144.8" font-family="Times,serif" font-size="14.00" fill="#000000">isA</text>
</g>
</g>
</svg>
