<?xml version="1.0" encoding="UTF-8" standalone="no"?>
<!DOCTYPE svg PUBLIC "-//W3C//DTD SVG 1.1//EN"
 "http://www.w3.org/Graphics/SVG/1.1/DTD/svg11.dtd">
<!-- Generated by graphviz version 2.40.1 (20161225.0304)
 -->
<!-- Title: %3 Pages: 1 -->
<svg width="751pt" height="270pt"
 viewBox="0.00 0.00 750.60 270.00" xmlns="http://www.w3.org/2000/svg" xmlns:xlink="http://www.w3.org/1999/xlink">
<g id="graph0" class="graph" transform="scale(1 1) rotate(0) translate(4 266)">
<title>%3</title>
<polygon fill="#ffffff" stroke="transparent" points="-4,4 -4,-266 746.5963,-266 746.5963,4 -4,4"/>
<!-- Quantity -->
<g id="node1" class="node">
<title>Quantity</title>
<g id="a_node1"><a xlink:href="http://emmo.info/emmo/middle/metrology#EMMO_f658c301_ce93_46cf_9639_4eace2c5d1d5" xlink:title="Quantity">
<ellipse fill="#ffffcc" stroke="#000000" stroke-width="2" cx="41.5963" cy="-100" rx="41.6928" ry="18"/>
<text text-anchor="middle" x="41.5963" y="-96.3" font-family="Times,serif" font-size="14.00" fill="#000000">Quantity</text>
</a>
</g>
</g>
<!-- State -->
<g id="node5" class="node">
<title>State</title>
<g id="a_node5"><a xlink:href="http://emmo.info/emmo/middle/reductionistic#EMMO_36c79456_e29c_400d_8bd3_0eedddb82652" xlink:title="State">
<ellipse fill="#ffffcc" stroke="#000000" cx="242.5963" cy="-172" rx="28.6953" ry="18"/>
<text text-anchor="middle" x="242.5963" y="-168.3" font-family="Times,serif" font-size="14.00" fill="#000000">State</text>
</a>
</g>
</g>
<!-- Quantity&#45;&gt;State -->
<g id="edge3" class="edge">
<title>Quantity&#45;&gt;State</title>
<path fill="none" stroke="#000000" d="M73.8904,-111.568C110.6653,-124.7411 170.51,-146.178 208.1554,-159.663"/>
<polygon fill="none" stroke="#000000" points="207.0889,-162.9986 217.6835,-163.076 209.4495,-156.4087 207.0889,-162.9986"/>
</g>
<!-- Expression -->
<g id="node2" class="node">
<title>Expression</title>
<g id="a_node2"><a xlink:href="http://emmo.info/emmo/middle/math#EMMO_f9bc8b52_85e9_4b53_b969_dd7724d5b8e4" xlink:title="Expression">
<ellipse fill="#ffffcc" stroke="#000000" stroke-width="2" cx="355.5963" cy="-23" rx="50.0912" ry="18"/>
<text text-anchor="middle" x="355.5963" y="-19.3" font-family="Times,serif" font-size="14.00" fill="#000000">Expression</text>
</a>
</g>
</g>
<!-- SymbolicComposition -->
<g id="node9" class="node">
<title>SymbolicComposition</title>
<g id="a_node9"><a xlink:href="http://emmo.info/emmo/middle/perceptual#EMMO_89a0c87c_0804_4013_937a_6fe234d9499c" xlink:title="SymbolicComposition">
<ellipse fill="#ffffcc" stroke="#000000" cx="409.5963" cy="-100" rx="90.9839" ry="18"/>
<text text-anchor="middle" x="409.5963" y="-96.3" font-family="Times,serif" font-size="14.00" fill="#000000">SymbolicComposition</text>
</a>
</g>
</g>
<!-- Expression&#45;&gt;SymbolicComposition -->
<g id="edge2" class="edge">
<title>Expression&#45;&gt;SymbolicComposition</title>
<path fill="none" stroke="#000000" d="M367.8497,-40.4725C374.7248,-50.2758 383.44,-62.703 391.127,-73.6642"/>
<polygon fill="none" stroke="#000000" points="388.4093,-75.8846 397.0166,-82.0623 394.1404,-71.8653 388.4093,-75.8846"/>
</g>
<!-- Existent -->
<g id="node3" class="node">
<title>Existent</title>
<g id="a_node3"><a xlink:href="http://emmo.info/emmo/middle/reductionistic#EMMO_52211e5e_d767_4812_845e_eb6b402c476a" xlink:title="Existent">
<ellipse fill="#ffffcc" stroke="#000000" cx="328.5963" cy="-172" rx="39.7935" ry="18"/>
<text text-anchor="middle" x="328.5963" y="-168.3" font-family="Times,serif" font-size="14.00" fill="#000000">Existent</text>
</a>
</g>
</g>
<!-- Existent&#45;&gt;State -->
<g id="edge10" class="edge">
<title>Existent&#45;&gt;State</title>
<path fill="none" stroke="#ff00ff" stroke-dasharray="5,2" d="M299.1493,-184.1589C291.3274,-185.7069 283.5056,-185.9148 275.6837,-184.7826"/>
<polygon fill="#ff00ff" stroke="#ff00ff" points="276.2909,-181.3329 265.776,-182.6317 274.8058,-188.1736 276.2909,-181.3329"/>
</g>
<!-- Existent&#45;&gt;State -->
<g id="edge11" class="edge">
<title>Existent&#45;&gt;State</title>
<path fill="none" stroke="#ff00ff" stroke-dasharray="5,2" d="M299.1493,-159.8411C291.3274,-158.2931 283.5056,-158.0852 275.6837,-159.2174"/>
<polygon fill="#ff00ff" stroke="#ff00ff" points="274.8058,-155.8264 265.776,-161.3683 276.2909,-162.6671 274.8058,-155.8264"/>
</g>
<!-- Reductionistic -->
<g id="node7" class="node">
<title>Reductionistic</title>
<g id="a_node7"><a xlink:href="http://emmo.info/emmo/middle/reductionistic#EMMO_15db234d_ecaf_4715_9838_4b4ec424fb13" xlink:title="Reductionistic">
<ellipse fill="#ffc880" stroke="#000000" stroke-width="2" cx="285.5963" cy="-244" rx="61.99" ry="18"/>
<text text-anchor="middle" x="285.5963" y="-240.3" font-family="Times,serif" font-size="14.00" fill="#000000">Reductionistic</text>
</a>
</g>
</g>
<!-- Existent&#45;&gt;Reductionistic -->
<g id="edge9" class="edge">
<title>Existent&#45;&gt;Reductionistic</title>
<path fill="none" stroke="#000000" d="M318.1872,-189.4292C313.1392,-197.8816 306.968,-208.2149 301.3588,-217.6069"/>
<polygon fill="none" stroke="#000000" points="298.3308,-215.8511 296.2083,-226.2311 304.3406,-219.4403 298.3308,-215.8511"/>
</g>
<!-- Formula -->
<g id="node4" class="node">
<title>Formula</title>
<g id="a_node4"><a xlink:href="http://emmo.info/emmo/middle/math#EMMO_88470739_03d3_4c47_a03e_b30a1288d50c" xlink:title="Formula">
<ellipse fill="#ffffcc" stroke="#000000" stroke-width="2" cx="464.5963" cy="-23" rx="40.8928" ry="18"/>
<text text-anchor="middle" x="464.5963" y="-19.3" font-family="Times,serif" font-size="14.00" fill="#000000">Formula</text>
</a>
</g>
</g>
<!-- Formula&#45;&gt;SymbolicComposition -->
<g id="edge4" class="edge">
<title>Formula&#45;&gt;SymbolicComposition</title>
<path fill="none" stroke="#000000" d="M452.116,-40.4725C445.1136,-50.2758 436.237,-62.703 428.4076,-73.6642"/>
<polygon fill="none" stroke="#000000" points="425.3733,-71.8906 422.409,-82.0623 431.0694,-75.9593 425.3733,-71.8906"/>
</g>
<!-- State&#45;&gt;Reductionistic -->
<g id="edge8" class="edge">
<title>State&#45;&gt;Reductionistic</title>
<path fill="none" stroke="#000000" d="M252.7867,-189.063C257.8306,-197.5086 264.0354,-207.8981 269.6866,-217.3604"/>
<polygon fill="none" stroke="#000000" points="266.7466,-219.2639 274.879,-226.0547 272.7565,-215.6747 266.7466,-219.2639"/>
</g>
<!-- String -->
<g id="node6" class="node">
<title>String</title>
<g id="a_node6"><a xlink:href="http://emmo.info/emmo/middle/perceptual#EMMO_50ea1ec5_f157_41b0_b46b_a9032f17ca10" xlink:title="String">
<ellipse fill="#ffffcc" stroke="#000000" cx="133.5963" cy="-100" rx="32.4942" ry="18"/>
<text text-anchor="middle" x="133.5963" y="-96.3" font-family="Times,serif" font-size="14.00" fill="#000000">String</text>
</a>
</g>
</g>
<!-- String&#45;&gt;State -->
<g id="edge5" class="edge">
<title>String&#45;&gt;State</title>
<path fill="none" stroke="#000000" d="M154.6126,-113.8823C171.5956,-125.1004 195.661,-140.9968 214.3315,-153.3297"/>
<polygon fill="none" stroke="#000000" points="212.4735,-156.297 222.7466,-158.8883 216.3317,-150.4562 212.4735,-156.297"/>
</g>
<!-- MaterialState -->
<g id="node8" class="node">
<title>MaterialState</title>
<g id="a_node8"><a xlink:href="http://emmo.info/emmo/middle/materials#EMMO_20fff605_465f_4034_8696_e53e90ec83f4" xlink:title="MaterialState">
<ellipse fill="#ffc880" stroke="#000000" stroke-width="2" cx="242.5963" cy="-100" rx="58.4896" ry="18"/>
<text text-anchor="middle" x="242.5963" y="-96.3" font-family="Times,serif" font-size="14.00" fill="#000000">MaterialState</text>
</a>
</g>
</g>
<!-- MaterialState&#45;&gt;State -->
<g id="edge1" class="edge">
<title>MaterialState&#45;&gt;State</title>
<path fill="none" stroke="#000000" d="M242.5963,-118.1686C242.5963,-125.869 242.5963,-135.0257 242.5963,-143.5834"/>
<polygon fill="none" stroke="#000000" points="239.0964,-143.5867 242.5963,-153.5867 246.0964,-143.5868 239.0964,-143.5867"/>
</g>
<!-- SymbolicComposition&#45;&gt;State -->
<g id="edge6" class="edge">
<title>SymbolicComposition&#45;&gt;State</title>
<path fill="none" stroke="#000000" d="M368.9274,-116.1733C343.1633,-126.5963 309.2323,-140.6501 279.5963,-154 277.9843,-154.7261 276.3382,-155.4801 274.6796,-156.2498"/>
<polygon fill="none" stroke="#000000" points="272.7326,-153.2993 265.1946,-160.7444 275.7302,-159.625 272.7326,-153.2993"/>
</g>
<!-- PrefixedUnit -->
<g id="node10" class="node">
<title>PrefixedUnit</title>
<g id="a_node10"><a xlink:href="http://emmo.info/emmo/middle/metrology#EMMO_c6d4a5e0_7e95_44df_a6db_84ee0a8bbc8e" xlink:title="PrefixedUnit">
<ellipse fill="#ffffcc" stroke="#000000" stroke-width="2" cx="574.5963" cy="-100" rx="55.7903" ry="18"/>
<text text-anchor="middle" x="574.5963" y="-96.3" font-family="Times,serif" font-size="14.00" fill="#000000">PrefixedUnit</text>
</a>
</g>
</g>
<!-- PrefixedUnit&#45;&gt;State -->
<g id="edge7" class="edge">
<title>PrefixedUnit&#45;&gt;State</title>
<path fill="none" stroke="#000000" d="M533.162,-112.2384C525.3716,-114.3216 517.2648,-116.3438 509.5963,-118 408.4613,-139.8426 378.3182,-123.0263 279.5963,-154 277.7049,-154.5934 275.7888,-155.2697 273.8756,-156.0039"/>
<polygon fill="none" stroke="#000000" points="272.2716,-152.8834 264.461,-160.042 275.031,-159.3166 272.2716,-152.8834"/>
</g>
<!-- key1 -->
<g id="node11" class="node">
<title>key1</title>
<text text-anchor="start" x="641.5963" y="-28.8" font-family="Times,serif" font-size="14.00" fill="#000000">isA</text>
<text text-anchor="start" x="533.5963" y="-9.8" font-family="Times,serif" font-size="14.00" fill="#000000">hasTemporalDirectPart</text>
</g>
<!-- key2 -->
<g id="node12" class="node">
<title>key2</title>
<text text-anchor="start" x="713.5963" y="-28.8" font-family="Times,serif" font-size="14.00" fill="#000000"> </text>
<text text-anchor="start" x="713.5963" y="-9.8" font-family="Times,serif" font-size="14.00" fill="#000000"> </text>
</g>
<!-- key1&#45;&gt;key2 -->
<g id="edge12" class="edge">
<title>key1:e&#45;&gt;key2:w</title>
<path fill="none" stroke="#ff00ff" stroke-dasharray="5,2" d="M662.5963,-13C680.4609,-13 687.3346,-13 701.2493,-13"/>
<polygon fill="#ff00ff" stroke="#ff00ff" points="701.5963,-16.5001 711.5963,-13 701.5963,-9.5001 701.5963,-16.5001"/>
</g>
<!-- key1&#45;&gt;key2 -->
<g id="edge13" class="edge">
<title>key1:e&#45;&gt;key2:w</title>
<path fill="none" stroke="#000000" d="M662.5963,-33C680.4609,-33 687.3346,-33 701.2493,-33"/>
<polygon fill="none" stroke="#000000" points="701.5963,-36.5001 711.5963,-33 701.5963,-29.5001 701.5963,-36.5001"/>
</g>
</g>
</svg>
