<?xml version="1.0" encoding="UTF-8" standalone="no"?>
<!DOCTYPE svg PUBLIC "-//W3C//DTD SVG 1.1//EN"
 "http://www.w3.org/Graphics/SVG/1.1/DTD/svg11.dtd">
<!-- Generated by graphviz version 2.40.1 (20161225.0304)
 -->
<!-- Title: %3 Pages: 1 -->
<svg width="879pt" height="270pt"
 viewBox="0.00 0.00 878.90 270.00" xmlns="http://www.w3.org/2000/svg" xmlns:xlink="http://www.w3.org/1999/xlink">
<g id="graph0" class="graph" transform="scale(1 1) rotate(0) translate(4 266)">
<title>%3</title>
<polygon fill="#ffffff" stroke="transparent" points="-4,4 -4,-266 874.895,-266 874.895,4 -4,4"/>
<!-- Reductionistic -->
<g id="node1" class="node">
<title>Reductionistic</title>
<g id="a_node1"><a xlink:href="http://emmo.info/emmo/middle/reductionistic#EMMO_15db234d_ecaf_4715_9838_4b4ec424fb13" xlink:title="Reductionistic">
<ellipse fill="#ffc880" stroke="#000000" stroke-width="2" cx="210.895" cy="-244" rx="61.99" ry="18"/>
<text text-anchor="middle" x="210.895" y="-240.3" font-family="Times,serif" font-size="14.00" fill="#000000">Reductionistic</text>
</a>
</g>
</g>
<!-- PrefixedUnit -->
<g id="node2" class="node">
<title>PrefixedUnit</title>
<g id="a_node2"><a xlink:href="http://emmo.info/emmo/middle/metrology#EMMO_c6d4a5e0_7e95_44df_a6db_84ee0a8bbc8e" xlink:title="PrefixedUnit">
<ellipse fill="#ffffcc" stroke="#000000" stroke-width="2" cx="55.895" cy="-100" rx="55.7903" ry="18"/>
<text text-anchor="middle" x="55.895" y="-96.3" font-family="Times,serif" font-size="14.00" fill="#000000">PrefixedUnit</text>
</a>
</g>
</g>
<!-- State -->
<g id="node7" class="node">
<title>State</title>
<g id="a_node7"><a xlink:href="http://emmo.info/emmo/middle/reductionistic#EMMO_36c79456_e29c_400d_8bd3_0eedddb82652" xlink:title="State">
<ellipse fill="#ffffcc" stroke="#000000" cx="253.895" cy="-172" rx="28.6953" ry="18"/>
<text text-anchor="middle" x="253.895" y="-168.3" font-family="Times,serif" font-size="14.00" fill="#000000">State</text>
</a>
</g>
</g>
<!-- PrefixedUnit&#45;&gt;State -->
<g id="edge4" class="edge">
<title>PrefixedUnit&#45;&gt;State</title>
<path fill="none" stroke="#000000" d="M97.1222,-112.214C129.9704,-122.33 176.918,-137.6515 216.895,-154 218.5315,-154.6692 220.1973,-155.3773 221.8716,-156.1104"/>
<polygon fill="none" stroke="#000000" points="220.8586,-159.4965 231.407,-160.4878 223.7791,-153.1348 220.8586,-159.4965"/>
</g>
<!-- String -->
<g id="node3" class="node">
<title>String</title>
<g id="a_node3"><a xlink:href="http://emmo.info/emmo/middle/perceptual#EMMO_50ea1ec5_f157_41b0_b46b_a9032f17ca10" xlink:title="String">
<ellipse fill="#ffffcc" stroke="#000000" cx="161.895" cy="-100" rx="32.4942" ry="18"/>
<text text-anchor="middle" x="161.895" y="-96.3" font-family="Times,serif" font-size="14.00" fill="#000000">String</text>
</a>
</g>
</g>
<!-- String&#45;&gt;State -->
<g id="edge5" class="edge">
<title>String&#45;&gt;State</title>
<path fill="none" stroke="#000000" d="M180.9575,-114.9184C194.5463,-125.5532 212.9775,-139.9776 227.9119,-151.6653"/>
<polygon fill="none" stroke="#000000" points="225.7638,-154.4287 235.796,-157.8355 230.078,-148.9161 225.7638,-154.4287"/>
</g>
<!-- Expression -->
<g id="node4" class="node">
<title>Expression</title>
<g id="a_node4"><a xlink:href="http://emmo.info/emmo/middle/math#EMMO_f9bc8b52_85e9_4b53_b969_dd7724d5b8e4" xlink:title="Expression">
<ellipse fill="#ffffcc" stroke="#000000" stroke-width="2" cx="483.895" cy="-23" rx="50.0912" ry="18"/>
<text text-anchor="middle" x="483.895" y="-19.3" font-family="Times,serif" font-size="14.00" fill="#000000">Expression</text>
</a>
</g>
</g>
<!-- SymbolicComposition -->
<g id="node10" class="node">
<title>SymbolicComposition</title>
<g id="a_node10"><a xlink:href="http://emmo.info/emmo/middle/perceptual#EMMO_89a0c87c_0804_4013_937a_6fe234d9499c" xlink:title="SymbolicComposition">
<ellipse fill="#ffffcc" stroke="#000000" cx="538.895" cy="-100" rx="90.9839" ry="18"/>
<text text-anchor="middle" x="538.895" y="-96.3" font-family="Times,serif" font-size="14.00" fill="#000000">SymbolicComposition</text>
</a>
</g>
</g>
<!-- Expression&#45;&gt;SymbolicComposition -->
<g id="edge1" class="edge">
<title>Expression&#45;&gt;SymbolicComposition</title>
<path fill="none" stroke="#000000" d="M496.3754,-40.4725C503.3778,-50.2758 512.2544,-62.703 520.0837,-73.6642"/>
<polygon fill="none" stroke="#000000" points="517.4219,-75.9593 526.0824,-82.0623 523.118,-71.8906 517.4219,-75.9593"/>
</g>
<!-- Quantity -->
<g id="node5" class="node">
<title>Quantity</title>
<g id="a_node5"><a xlink:href="http://emmo.info/emmo/middle/metrology#EMMO_f658c301_ce93_46cf_9639_4eace2c5d1d5" xlink:title="Quantity">
<ellipse fill="#ffffcc" stroke="#000000" stroke-width="2" cx="253.895" cy="-100" rx="41.6928" ry="18"/>
<text text-anchor="middle" x="253.895" y="-96.3" font-family="Times,serif" font-size="14.00" fill="#000000">Quantity</text>
</a>
</g>
</g>
<!-- Quantity&#45;&gt;State -->
<g id="edge3" class="edge">
<title>Quantity&#45;&gt;State</title>
<path fill="none" stroke="#000000" d="M253.895,-118.1686C253.895,-125.869 253.895,-135.0257 253.895,-143.5834"/>
<polygon fill="none" stroke="#000000" points="250.3951,-143.5867 253.895,-153.5867 257.3951,-143.5868 250.3951,-143.5867"/>
</g>
<!-- Existent -->
<g id="node6" class="node">
<title>Existent</title>
<g id="a_node6"><a xlink:href="http://emmo.info/emmo/middle/reductionistic#EMMO_52211e5e_d767_4812_845e_eb6b402c476a" xlink:title="Existent">
<ellipse fill="#ffffcc" stroke="#000000" cx="167.895" cy="-172" rx="39.7935" ry="18"/>
<text text-anchor="middle" x="167.895" y="-168.3" font-family="Times,serif" font-size="14.00" fill="#000000">Existent</text>
</a>
</g>
</g>
<!-- Existent&#45;&gt;Reductionistic -->
<g id="edge8" class="edge">
<title>Existent&#45;&gt;Reductionistic</title>
<path fill="none" stroke="#000000" d="M178.3041,-189.4292C183.3521,-197.8816 189.5234,-208.2149 195.1325,-217.6069"/>
<polygon fill="none" stroke="#000000" points="192.1507,-219.4403 200.2831,-226.2311 198.1605,-215.8511 192.1507,-219.4403"/>
</g>
<!-- Existent&#45;&gt;State -->
<g id="edge9" class="edge">
<title>Existent&#45;&gt;State</title>
<path fill="none" stroke="#ff00ff" stroke-dasharray="5,2" d="M197.4575,-184.1816C205.2081,-185.7025 212.9586,-185.9075 220.7091,-184.7968"/>
<polygon fill="#ff00ff" stroke="#ff00ff" points="221.4854,-188.2099 230.5264,-182.6862 220.0141,-181.3663 221.4854,-188.2099"/>
</g>
<!-- Existent&#45;&gt;State -->
<g id="edge10" class="edge">
<title>Existent&#45;&gt;State</title>
<path fill="none" stroke="#ff00ff" stroke-dasharray="5,2" d="M197.4575,-159.8184C205.2081,-158.2975 212.9586,-158.0925 220.7091,-159.2032"/>
<polygon fill="#ff00ff" stroke="#ff00ff" points="220.0141,-162.6337 230.5264,-161.3138 221.4854,-155.7901 220.0141,-162.6337"/>
</g>
<!-- State&#45;&gt;Reductionistic -->
<g id="edge7" class="edge">
<title>State&#45;&gt;Reductionistic</title>
<path fill="none" stroke="#000000" d="M243.7046,-189.063C238.6607,-197.5086 232.4559,-207.8981 226.8048,-217.3604"/>
<polygon fill="none" stroke="#000000" points="223.7349,-215.6747 221.6123,-226.0547 229.7447,-219.2639 223.7349,-215.6747"/>
</g>
<!-- MaterialState -->
<g id="node8" class="node">
<title>MaterialState</title>
<g id="a_node8"><a xlink:href="http://emmo.info/emmo/middle/materials#EMMO_20fff605_465f_4034_8696_e53e90ec83f4" xlink:title="MaterialState">
<ellipse fill="#ffc880" stroke="#000000" stroke-width="2" cx="371.895" cy="-100" rx="58.4896" ry="18"/>
<text text-anchor="middle" x="371.895" y="-96.3" font-family="Times,serif" font-size="14.00" fill="#000000">MaterialState</text>
</a>
</g>
</g>
<!-- MaterialState&#45;&gt;State -->
<g id="edge2" class="edge">
<title>MaterialState&#45;&gt;State</title>
<path fill="none" stroke="#000000" d="M345.4135,-116.1582C326.9943,-127.397 302.426,-142.3879 283.3825,-154.0077"/>
<polygon fill="none" stroke="#000000" points="281.5101,-151.05 274.7968,-159.2464 285.1562,-157.0254 281.5101,-151.05"/>
</g>
<!-- Formula -->
<g id="node9" class="node">
<title>Formula</title>
<g id="a_node9"><a xlink:href="http://emmo.info/emmo/middle/math#EMMO_88470739_03d3_4c47_a03e_b30a1288d50c" xlink:title="Formula">
<ellipse fill="#ffffcc" stroke="#000000" stroke-width="2" cx="592.895" cy="-23" rx="40.8928" ry="18"/>
<text text-anchor="middle" x="592.895" y="-19.3" font-family="Times,serif" font-size="14.00" fill="#000000">Formula</text>
</a>
</g>
</g>
<!-- Formula&#45;&gt;SymbolicComposition -->
<g id="edge6" class="edge">
<title>Formula&#45;&gt;SymbolicComposition</title>
<path fill="none" stroke="#000000" d="M580.6416,-40.4725C573.7665,-50.2758 565.0514,-62.703 557.3643,-73.6642"/>
<polygon fill="none" stroke="#000000" points="554.351,-71.8653 551.4747,-82.0623 560.0821,-75.8846 554.351,-71.8653"/>
</g>
<!-- SymbolicComposition&#45;&gt;State -->
<g id="edge11" class="edge">
<title>SymbolicComposition&#45;&gt;State</title>
<path fill="none" stroke="#000000" d="M482.5882,-114.2249C425.4917,-128.6493 338.8234,-150.5444 290.2221,-162.8226"/>
<polygon fill="none" stroke="#000000" points="289.2913,-159.4477 280.4532,-165.2906 291.0059,-166.2345 289.2913,-159.4477"/>
</g>
<!-- key1 -->
<g id="node11" class="node">
<title>key1</title>
<text text-anchor="start" x="769.895" y="-28.8" font-family="Times,serif" font-size="14.00" fill="#000000">isA</text>
<text text-anchor="start" x="661.895" y="-9.8" font-family="Times,serif" font-size="14.00" fill="#000000">hasTemporalDirectPart</text>
</g>
<!-- key2 -->
<g id="node12" class="node">
<title>key2</title>
<text text-anchor="start" x="841.895" y="-28.8" font-family="Times,serif" font-size="14.00" fill="#000000"> </text>
<text text-anchor="start" x="841.895" y="-9.8" font-family="Times,serif" font-size="14.00" fill="#000000"> </text>
</g>
<!-- key1&#45;&gt;key2 -->
<g id="edge12" class="edge">
<title>key1:e&#45;&gt;key2:w</title>
<path fill="none" stroke="#ff00ff" stroke-dasharray="5,2" d="M790.895,-13C808.7596,-13 815.6333,-13 829.548,-13"/>
<polygon fill="#ff00ff" stroke="#ff00ff" points="829.8951,-16.5001 839.895,-13 829.895,-9.5001 829.8951,-16.5001"/>
</g>
<!-- key1&#45;&gt;key2 -->
<g id="edge13" class="edge">
<title>key1:e&#45;&gt;key2:w</title>
<path fill="none" stroke="#000000" d="M790.895,-33C808.7596,-33 815.6333,-33 829.548,-33"/>
<polygon fill="none" stroke="#000000" points="829.8951,-36.5001 839.895,-33 829.895,-29.5001 829.8951,-36.5001"/>
</g>
</g>
</svg>
