<?xml version="1.0" encoding="UTF-8" standalone="no"?>
<!DOCTYPE svg PUBLIC "-//W3C//DTD SVG 1.1//EN"
 "http://www.w3.org/Graphics/SVG/1.1/DTD/svg11.dtd">
<!-- Generated by graphviz version 2.40.1 (20161225.0304)
 -->
<!-- Title: %3 Pages: 1 -->
<svg width="879pt" height="270pt"
 viewBox="0.00 0.00 878.60 270.00" xmlns="http://www.w3.org/2000/svg" xmlns:xlink="http://www.w3.org/1999/xlink">
<g id="graph0" class="graph" transform="scale(1 1) rotate(0) translate(4 266)">
<title>%3</title>
<polygon fill="#ffffff" stroke="transparent" points="-4,4 -4,-266 874.5963,-266 874.5963,4 -4,4"/>
<!-- SymbolicComposition -->
<g id="node1" class="node">
<title>SymbolicComposition</title>
<g id="a_node1"><a xlink:href="http://emmo.info/emmo/middle/perceptual#EMMO_89a0c87c_0804_4013_937a_6fe234d9499c" xlink:title="SymbolicComposition">
<ellipse fill="#ffffcc" stroke="#000000" cx="538.5963" cy="-100" rx="90.9839" ry="18"/>
<text text-anchor="middle" x="538.5963" y="-96.3" font-family="Times,serif" font-size="14.00" fill="#000000">SymbolicComposition</text>
</a>
</g>
</g>
<!-- State -->
<g id="node3" class="node">
<title>State</title>
<g id="a_node3"><a xlink:href="http://emmo.info/emmo/middle/reductionistic#EMMO_36c79456_e29c_400d_8bd3_0eedddb82652" xlink:title="State">
<ellipse fill="#ffffcc" stroke="#000000" cx="262.5963" cy="-172" rx="28.6953" ry="18"/>
<text text-anchor="middle" x="262.5963" y="-168.3" font-family="Times,serif" font-size="14.00" fill="#000000">State</text>
</a>
</g>
</g>
<!-- SymbolicComposition&#45;&gt;State -->
<g id="edge7" class="edge">
<title>SymbolicComposition&#45;&gt;State</title>
<path fill="none" stroke="#000000" d="M483.4069,-114.3972C428.5941,-128.6962 346.1219,-150.2107 299.022,-162.4976"/>
<polygon fill="none" stroke="#000000" points="298.043,-159.1358 289.2503,-165.0468 299.81,-165.9092 298.043,-159.1358"/>
</g>
<!-- Quantity -->
<g id="node2" class="node">
<title>Quantity</title>
<g id="a_node2"><a xlink:href="http://emmo.info/emmo/middle/metrology#EMMO_f658c301_ce93_46cf_9639_4eace2c5d1d5" xlink:title="Quantity">
<ellipse fill="#ffffcc" stroke="#000000" stroke-width="2" cx="41.5963" cy="-100" rx="41.6928" ry="18"/>
<text text-anchor="middle" x="41.5963" y="-96.3" font-family="Times,serif" font-size="14.00" fill="#000000">Quantity</text>
</a>
</g>
</g>
<!-- Quantity&#45;&gt;State -->
<g id="edge8" class="edge">
<title>Quantity&#45;&gt;State</title>
<path fill="none" stroke="#000000" d="M73.2022,-111.8262C79.2766,-113.9717 85.6104,-116.122 91.5963,-118 150.4359,-136.4599 167.8305,-132.4137 225.5963,-154 227.4532,-154.6939 229.3423,-155.4489 231.2347,-156.2435"/>
<polygon fill="none" stroke="#000000" points="230.036,-159.5419 240.592,-160.4483 232.9052,-153.157 230.036,-159.5419"/>
</g>
<!-- Reductionistic -->
<g id="node8" class="node">
<title>Reductionistic</title>
<g id="a_node8"><a xlink:href="http://emmo.info/emmo/middle/reductionistic#EMMO_15db234d_ecaf_4715_9838_4b4ec424fb13" xlink:title="Reductionistic">
<ellipse fill="#ffc880" stroke="#000000" stroke-width="2" cx="219.5963" cy="-244" rx="61.99" ry="18"/>
<text text-anchor="middle" x="219.5963" y="-240.3" font-family="Times,serif" font-size="14.00" fill="#000000">Reductionistic</text>
</a>
</g>
</g>
<!-- State&#45;&gt;Reductionistic -->
<g id="edge4" class="edge">
<title>State&#45;&gt;Reductionistic</title>
<path fill="none" stroke="#000000" d="M252.4059,-189.063C247.362,-197.5086 241.1572,-207.8981 235.5061,-217.3604"/>
<polygon fill="none" stroke="#000000" points="232.4362,-215.6747 230.3136,-226.0547 238.446,-219.2639 232.4362,-215.6747"/>
</g>
<!-- PrefixedUnit -->
<g id="node4" class="node">
<title>PrefixedUnit</title>
<g id="a_node4"><a xlink:href="http://emmo.info/emmo/middle/metrology#EMMO_c6d4a5e0_7e95_44df_a6db_84ee0a8bbc8e" xlink:title="PrefixedUnit">
<ellipse fill="#ffffcc" stroke="#000000" stroke-width="2" cx="156.5963" cy="-100" rx="55.7903" ry="18"/>
<text text-anchor="middle" x="156.5963" y="-96.3" font-family="Times,serif" font-size="14.00" fill="#000000">PrefixedUnit</text>
</a>
</g>
</g>
<!-- PrefixedUnit&#45;&gt;State -->
<g id="edge1" class="edge">
<title>PrefixedUnit&#45;&gt;State</title>
<path fill="none" stroke="#000000" d="M180.6493,-116.3379C196.6702,-127.22 217.7816,-141.5598 234.5638,-152.959"/>
<polygon fill="none" stroke="#000000" points="232.6565,-155.8946 242.8953,-158.6182 236.5897,-150.1041 232.6565,-155.8946"/>
</g>
<!-- Expression -->
<g id="node5" class="node">
<title>Expression</title>
<g id="a_node5"><a xlink:href="http://emmo.info/emmo/middle/math#EMMO_f9bc8b52_85e9_4b53_b969_dd7724d5b8e4" xlink:title="Expression">
<ellipse fill="#ffffcc" stroke="#000000" stroke-width="2" cx="483.5963" cy="-23" rx="50.0912" ry="18"/>
<text text-anchor="middle" x="483.5963" y="-19.3" font-family="Times,serif" font-size="14.00" fill="#000000">Expression</text>
</a>
</g>
</g>
<!-- Expression&#45;&gt;SymbolicComposition -->
<g id="edge6" class="edge">
<title>Expression&#45;&gt;SymbolicComposition</title>
<path fill="none" stroke="#000000" d="M496.0767,-40.4725C503.079,-50.2758 511.9556,-62.703 519.785,-73.6642"/>
<polygon fill="none" stroke="#000000" points="517.1232,-75.9593 525.7837,-82.0623 522.8193,-71.8906 517.1232,-75.9593"/>
</g>
<!-- String -->
<g id="node6" class="node">
<title>String</title>
<g id="a_node6"><a xlink:href="http://emmo.info/emmo/middle/perceptual#EMMO_50ea1ec5_f157_41b0_b46b_a9032f17ca10" xlink:title="String">
<ellipse fill="#ffffcc" stroke="#000000" cx="262.5963" cy="-100" rx="32.4942" ry="18"/>
<text text-anchor="middle" x="262.5963" y="-96.3" font-family="Times,serif" font-size="14.00" fill="#000000">String</text>
</a>
</g>
</g>
<!-- String&#45;&gt;State -->
<g id="edge2" class="edge">
<title>String&#45;&gt;State</title>
<path fill="none" stroke="#000000" d="M262.5963,-118.1686C262.5963,-125.869 262.5963,-135.0257 262.5963,-143.5834"/>
<polygon fill="none" stroke="#000000" points="259.0964,-143.5867 262.5963,-153.5867 266.0964,-143.5868 259.0964,-143.5867"/>
</g>
<!-- Existent -->
<g id="node7" class="node">
<title>Existent</title>
<g id="a_node7"><a xlink:href="http://emmo.info/emmo/middle/reductionistic#EMMO_52211e5e_d767_4812_845e_eb6b402c476a" xlink:title="Existent">
<ellipse fill="#ffffcc" stroke="#000000" cx="176.5963" cy="-172" rx="39.7935" ry="18"/>
<text text-anchor="middle" x="176.5963" y="-168.3" font-family="Times,serif" font-size="14.00" fill="#000000">Existent</text>
</a>
</g>
</g>
<!-- Existent&#45;&gt;State -->
<g id="edge10" class="edge">
<title>Existent&#45;&gt;State</title>
<path fill="none" stroke="#ff00ff" stroke-dasharray="5,2" d="M206.1588,-184.1816C213.9093,-185.7025 221.6598,-185.9075 229.4103,-184.7968"/>
<polygon fill="#ff00ff" stroke="#ff00ff" points="230.1867,-188.2099 239.2277,-182.6862 228.7154,-181.3663 230.1867,-188.2099"/>
</g>
<!-- Existent&#45;&gt;State -->
<g id="edge11" class="edge">
<title>Existent&#45;&gt;State</title>
<path fill="none" stroke="#ff00ff" stroke-dasharray="5,2" d="M206.1588,-159.8184C213.9093,-158.2975 221.6598,-158.0925 229.4103,-159.2032"/>
<polygon fill="#ff00ff" stroke="#ff00ff" points="228.7154,-162.6337 239.2277,-161.3138 230.1867,-155.7901 228.7154,-162.6337"/>
</g>
<!-- Existent&#45;&gt;Reductionistic -->
<g id="edge9" class="edge">
<title>Existent&#45;&gt;Reductionistic</title>
<path fill="none" stroke="#000000" d="M187.0054,-189.4292C192.0534,-197.8816 198.2246,-208.2149 203.8338,-217.6069"/>
<polygon fill="none" stroke="#000000" points="200.852,-219.4403 208.9843,-226.2311 206.8618,-215.8511 200.852,-219.4403"/>
</g>
<!-- MaterialState -->
<g id="node9" class="node">
<title>MaterialState</title>
<g id="a_node9"><a xlink:href="http://emmo.info/emmo/middle/materials#EMMO_20fff605_465f_4034_8696_e53e90ec83f4" xlink:title="MaterialState">
<ellipse fill="#ffc880" stroke="#000000" stroke-width="2" cx="371.5963" cy="-100" rx="58.4896" ry="18"/>
<text text-anchor="middle" x="371.5963" y="-96.3" font-family="Times,serif" font-size="14.00" fill="#000000">MaterialState</text>
</a>
</g>
</g>
<!-- MaterialState&#45;&gt;State -->
<g id="edge3" class="edge">
<title>MaterialState&#45;&gt;State</title>
<path fill="none" stroke="#000000" d="M346.8625,-116.3379C330.2812,-127.2907 308.3972,-141.7462 291.0866,-153.1807"/>
<polygon fill="none" stroke="#000000" points="288.9183,-150.4183 282.5034,-158.8504 292.7765,-156.2591 288.9183,-150.4183"/>
</g>
<!-- Formula -->
<g id="node10" class="node">
<title>Formula</title>
<g id="a_node10"><a xlink:href="http://emmo.info/emmo/middle/math#EMMO_88470739_03d3_4c47_a03e_b30a1288d50c" xlink:title="Formula">
<ellipse fill="#ffffcc" stroke="#000000" stroke-width="2" cx="592.5963" cy="-23" rx="40.8928" ry="18"/>
<text text-anchor="middle" x="592.5963" y="-19.3" font-family="Times,serif" font-size="14.00" fill="#000000">Formula</text>
</a>
</g>
</g>
<!-- Formula&#45;&gt;SymbolicComposition -->
<g id="edge5" class="edge">
<title>Formula&#45;&gt;SymbolicComposition</title>
<path fill="none" stroke="#000000" d="M580.3429,-40.4725C573.4678,-50.2758 564.7526,-62.703 557.0656,-73.6642"/>
<polygon fill="none" stroke="#000000" points="554.0522,-71.8653 551.176,-82.0623 559.7834,-75.8846 554.0522,-71.8653"/>
</g>
<!-- key1 -->
<g id="node11" class="node">
<title>key1</title>
<text text-anchor="start" x="769.5963" y="-28.8" font-family="Times,serif" font-size="14.00" fill="#000000">isA</text>
<text text-anchor="start" x="661.5963" y="-9.8" font-family="Times,serif" font-size="14.00" fill="#000000">hasTemporalDirectPart</text>
</g>
<!-- key2 -->
<g id="node12" class="node">
<title>key2</title>
<text text-anchor="start" x="841.5963" y="-28.8" font-family="Times,serif" font-size="14.00" fill="#000000"> </text>
<text text-anchor="start" x="841.5963" y="-9.8" font-family="Times,serif" font-size="14.00" fill="#000000"> </text>
</g>
<!-- key1&#45;&gt;key2 -->
<g id="edge12" class="edge">
<title>key1:e&#45;&gt;key2:w</title>
<path fill="none" stroke="#ff00ff" stroke-dasharray="5,2" d="M790.5963,-13C808.4609,-13 815.3346,-13 829.2493,-13"/>
<polygon fill="#ff00ff" stroke="#ff00ff" points="829.5963,-16.5001 839.5963,-13 829.5963,-9.5001 829.5963,-16.5001"/>
</g>
<!-- key1&#45;&gt;key2 -->
<g id="edge13" class="edge">
<title>key1:e&#45;&gt;key2:w</title>
<path fill="none" stroke="#000000" d="M790.5963,-33C808.4609,-33 815.3346,-33 829.2493,-33"/>
<polygon fill="none" stroke="#000000" points="829.5963,-36.5001 839.5963,-33 829.5963,-29.5001 829.5963,-36.5001"/>
</g>
</g>
</svg>
