<?xml version="1.0" encoding="UTF-8" standalone="no"?>
<!DOCTYPE svg PUBLIC "-//W3C//DTD SVG 1.1//EN"
 "http://www.w3.org/Graphics/SVG/1.1/DTD/svg11.dtd">
<!-- Generated by graphviz version 2.40.1 (20161225.0304)
 -->
<!-- Title: %3 Pages: 1 -->
<svg width="393pt" height="332pt"
 viewBox="0.00 0.00 392.50 332.00" xmlns="http://www.w3.org/2000/svg" xmlns:xlink="http://www.w3.org/1999/xlink">
<g id="graph0" class="graph" transform="scale(1 1) rotate(0) translate(4 328)">
<title>%3</title>
<polygon fill="#ffffff" stroke="transparent" points="-4,4 -4,-328 388.5,-328 388.5,4 -4,4"/>
<!-- semiotical -->
<g id="node1" class="node">
<title>semiotical</title>
<g id="a_node1"><a xlink:href="http://emmo.info/emmo/top/semiotics#EMMO_2337e25c_3c60_43fc_a8f9_b11a3f974291" xlink:title="semiotical">
<polygon fill="#0079ba" stroke="#000000" stroke-width="2" points="202,-324 129,-324 129,-288 202,-288 202,-324"/>
<text text-anchor="middle" x="165.5" y="-302.3" font-family="Times,serif" font-size="14.00" fill="#ffffff">semiotical</text>
</a>
</g>
</g>
<!-- hasProperty -->
<g id="node2" class="node">
<title>hasProperty</title>
<g id="a_node2"><a xlink:href="http://emmo.info/emmo/middle/properties#EMMO_e1097637_70d2_4895_973f_2396f04fa204" xlink:title="hasProperty">
<polygon fill="#0079ba" stroke="#000000" points="213,-108 132,-108 132,-72 213,-72 213,-108"/>
<text text-anchor="middle" x="172.5" y="-86.3" font-family="Times,serif" font-size="14.00" fill="#ffffff">hasProperty</text>
</a>
</g>
</g>
<!-- hasConvention -->
<g id="node8" class="node">
<title>hasConvention</title>
<g id="a_node8"><a xlink:href="http://emmo.info/emmo/top/semiotics#EMMO_eb3518bf_f799_4f9e_8c3e_ce59af11453b" xlink:title="hasConvention">
<polygon fill="#0079ba" stroke="#000000" points="264.5,-180 166.5,-180 166.5,-144 264.5,-144 264.5,-180"/>
<text text-anchor="middle" x="215.5" y="-158.3" font-family="Times,serif" font-size="14.00" fill="#ffffff">hasConvention</text>
</a>
</g>
</g>
<!-- hasProperty&#45;&gt;hasConvention -->
<g id="edge9" class="edge">
<title>hasProperty&#45;&gt;hasConvention</title>
<path fill="none" stroke="#000000" d="M183.3507,-108.1686C188.2023,-116.2921 194.0217,-126.0363 199.368,-134.9882"/>
<polygon fill="none" stroke="#000000" points="196.3708,-136.7959 204.5032,-143.5867 202.3806,-133.2067 196.3708,-136.7959"/>
</g>
<!-- hasPhysicsDimension -->
<g id="node3" class="node">
<title>hasPhysicsDimension</title>
<g id="a_node3"><a xlink:href="http://emmo.info/emmo/middle/metrology#EMMO_bed1d005_b04e_4a90_94cf_02bc678a8569" xlink:title="hasPhysicsDimension">
<polygon fill="#0079ba" stroke="#000000" points="240.5,-36 104.5,-36 104.5,0 240.5,0 240.5,-36"/>
<text text-anchor="middle" x="172.5" y="-14.3" font-family="Times,serif" font-size="14.00" fill="#ffffff">hasPhysicsDimension</text>
</a>
</g>
</g>
<!-- hasPhysicsDimension&#45;&gt;hasProperty -->
<g id="edge6" class="edge">
<title>hasPhysicsDimension&#45;&gt;hasProperty</title>
<path fill="none" stroke="#000000" d="M172.5,-36.1686C172.5,-43.869 172.5,-53.0257 172.5,-61.5834"/>
<polygon fill="none" stroke="#000000" points="169.0001,-61.5867 172.5,-71.5867 176.0001,-61.5868 169.0001,-61.5867"/>
</g>
<!-- hasVariable -->
<g id="node4" class="node">
<title>hasVariable</title>
<g id="a_node4"><a xlink:href="http://emmo.info/emmo/middle/math#EMMO_3446e167_c576_49d6_846c_215bb8878a55" xlink:title="hasVariable">
<polygon fill="#0079ba" stroke="#000000" points="312,-108 231,-108 231,-72 312,-72 312,-108"/>
<text text-anchor="middle" x="271.5" y="-86.3" font-family="Times,serif" font-size="14.00" fill="#ffffff">hasVariable</text>
</a>
</g>
</g>
<!-- hasVariable&#45;&gt;hasConvention -->
<g id="edge5" class="edge">
<title>hasVariable&#45;&gt;hasConvention</title>
<path fill="none" stroke="#000000" d="M257.3688,-108.1686C250.9189,-116.4614 243.1555,-126.443 236.0748,-135.5467"/>
<polygon fill="none" stroke="#000000" points="233.1981,-133.5444 229.8214,-143.5867 238.7236,-137.842 233.1981,-133.5444"/>
</g>
<!-- hasModel -->
<g id="node5" class="node">
<title>hasModel</title>
<g id="a_node5"><a xlink:href="http://emmo.info/emmo/middle/models#EMMO_24c71baf_6db6_48b9_86c8_8c70cf36db0c" xlink:title="hasModel">
<polygon fill="#0079ba" stroke="#000000" points="71,-108 0,-108 0,-72 71,-72 71,-108"/>
<text text-anchor="middle" x="35.5" y="-86.3" font-family="Times,serif" font-size="14.00" fill="#ffffff">hasModel</text>
</a>
</g>
</g>
<!-- hasIcon -->
<g id="node6" class="node">
<title>hasIcon</title>
<g id="a_node6"><a xlink:href="http://emmo.info/emmo/top/semiotics#EMMO_39c3815d_8cae_4c8f_b2ff_eeba24bec455" xlink:title="hasIcon">
<polygon fill="#0079ba" stroke="#000000" points="65,-180 6,-180 6,-144 65,-144 65,-180"/>
<text text-anchor="middle" x="35.5" y="-158.3" font-family="Times,serif" font-size="14.00" fill="#ffffff">hasIcon</text>
</a>
</g>
</g>
<!-- hasModel&#45;&gt;hasIcon -->
<g id="edge1" class="edge">
<title>hasModel&#45;&gt;hasIcon</title>
<path fill="none" stroke="#000000" d="M35.5,-108.1686C35.5,-115.869 35.5,-125.0257 35.5,-133.5834"/>
<polygon fill="none" stroke="#000000" points="32.0001,-133.5867 35.5,-143.5867 39.0001,-133.5868 32.0001,-133.5867"/>
</g>
<!-- hasSign -->
<g id="node9" class="node">
<title>hasSign</title>
<g id="a_node9"><a xlink:href="http://emmo.info/emmo/top/semiotics#EMMO_60577dea_9019_4537_ac41_80b0fb563d41" xlink:title="hasSign">
<polygon fill="#0079ba" stroke="#000000" points="195,-252 136,-252 136,-216 195,-216 195,-252"/>
<text text-anchor="middle" x="165.5" y="-230.3" font-family="Times,serif" font-size="14.00" fill="#ffffff">hasSign</text>
</a>
</g>
</g>
<!-- hasIcon&#45;&gt;hasSign -->
<g id="edge2" class="edge">
<title>hasIcon&#45;&gt;hasSign</title>
<path fill="none" stroke="#000000" d="M65.3246,-178.5183C83.6563,-188.6712 107.3295,-201.7825 127.0597,-212.71"/>
<polygon fill="none" stroke="#000000" points="125.3705,-215.7753 135.8142,-217.5586 128.762,-209.6518 125.3705,-215.7753"/>
</g>
<!-- hasIndex -->
<g id="node7" class="node">
<title>hasIndex</title>
<g id="a_node7"><a xlink:href="http://emmo.info/emmo/top/semiotics#EMMO_297999d6_c9e4_4262_9536_bd524d1c6e21" xlink:title="hasIndex">
<polygon fill="#0079ba" stroke="#000000" points="148,-180 83,-180 83,-144 148,-144 148,-180"/>
<text text-anchor="middle" x="115.5" y="-158.3" font-family="Times,serif" font-size="14.00" fill="#ffffff">hasIndex</text>
</a>
</g>
</g>
<!-- hasIndex&#45;&gt;hasSign -->
<g id="edge8" class="edge">
<title>hasIndex&#45;&gt;hasSign</title>
<path fill="none" stroke="#000000" d="M128.1171,-180.1686C133.8172,-188.3768 140.6663,-198.2394 146.9359,-207.2677"/>
<polygon fill="none" stroke="#000000" points="144.1342,-209.3694 152.713,-215.5867 149.8838,-205.3766 144.1342,-209.3694"/>
</g>
<!-- hasConvention&#45;&gt;hasSign -->
<g id="edge7" class="edge">
<title>hasConvention&#45;&gt;hasSign</title>
<path fill="none" stroke="#000000" d="M202.8829,-180.1686C197.1828,-188.3768 190.3337,-198.2394 184.0641,-207.2677"/>
<polygon fill="none" stroke="#000000" points="181.1162,-205.3766 178.287,-215.5867 186.8658,-209.3694 181.1162,-205.3766"/>
</g>
<!-- hasSign&#45;&gt;semiotical -->
<g id="edge3" class="edge">
<title>hasSign&#45;&gt;semiotical</title>
<path fill="none" stroke="#000000" d="M165.5,-252.1686C165.5,-259.869 165.5,-269.0257 165.5,-277.5834"/>
<polygon fill="none" stroke="#000000" points="162.0001,-277.5867 165.5,-287.5867 169.0001,-277.5868 162.0001,-277.5867"/>
</g>
<!-- hasInterpretant -->
<g id="node10" class="node">
<title>hasInterpretant</title>
<g id="a_node10"><a xlink:href="http://emmo.info/emmo/top/semiotics#EMMO_7fb7fe7e_bdf9_4eeb_adad_e384dd5285c6" xlink:title="hasInterpretant">
<polygon fill="#0079ba" stroke="#000000" points="380.5,-180 282.5,-180 282.5,-144 380.5,-144 380.5,-180"/>
<text text-anchor="middle" x="331.5" y="-158.3" font-family="Times,serif" font-size="14.00" fill="#ffffff">hasInterpretant</text>
</a>
</g>
</g>
<!-- hasInterpretant&#45;&gt;hasSign -->
<g id="edge4" class="edge">
<title>hasInterpretant&#45;&gt;hasSign</title>
<path fill="none" stroke="#000000" d="M289.6112,-180.1686C263.465,-191.5092 230.037,-206.008 204.4617,-217.1009"/>
<polygon fill="none" stroke="#000000" points="202.8573,-213.9817 195.0758,-221.1719 205.6428,-220.4037 202.8573,-213.9817"/>
</g>
<!-- key1 -->
<g id="node11" class="node">
<title>key1</title>
<text text-anchor="start" x="276.5" y="-13.8" font-family="Times,serif" font-size="14.00" fill="#000000">isA</text>
</g>
<!-- key2 -->
<g id="node12" class="node">
<title>key2</title>
<text text-anchor="start" x="355.5" y="-13.8" font-family="Times,serif" font-size="14.00" fill="#000000"> </text>
</g>
<!-- key1&#45;&gt;key2 -->
<g id="edge10" class="edge">
<title>key1:e&#45;&gt;key2:w</title>
<path fill="none" stroke="#000000" d="M297.5,-19C318.5,-19 326.2109,-19 343.0581,-19"/>
<polygon fill="none" stroke="#000000" points="343.5,-22.5001 353.5,-19 343.5,-15.5001 343.5,-22.5001"/>
</g>
</g>
</svg>
