<?xml version="1.0" encoding="UTF-8" standalone="no"?>
<!DOCTYPE svg PUBLIC "-//W3C//DTD SVG 1.1//EN"
 "http://www.w3.org/Graphics/SVG/1.1/DTD/svg11.dtd">
<!-- Generated by graphviz version 2.40.1 (20161225.0304)
 -->
<!-- Title: %3 Pages: 1 -->
<svg width="544pt" height="332pt"
 viewBox="0.00 0.00 544.00 332.00" xmlns="http://www.w3.org/2000/svg" xmlns:xlink="http://www.w3.org/1999/xlink">
<g id="graph0" class="graph" transform="scale(1 1) rotate(0) translate(4 328)">
<title>%3</title>
<polygon fill="#ffffff" stroke="transparent" points="-4,4 -4,-328 540,-328 540,4 -4,4"/>
<!-- hasInterpretant -->
<g id="node1" class="node">
<title>hasInterpretant</title>
<g id="a_node1"><a xlink:href="http://emmo.info/emmo/top/semiotics#EMMO_7fb7fe7e_bdf9_4eeb_adad_e384dd5285c6" xlink:title="hasInterpretant">
<polygon fill="#0079ba" stroke="#000000" points="98,-180 0,-180 0,-144 98,-144 98,-180"/>
<text text-anchor="middle" x="49" y="-158.3" font-family="Times,serif" font-size="14.00" fill="#ffffff">hasInterpretant</text>
</a>
</g>
</g>
<!-- hasSign -->
<g id="node3" class="node">
<title>hasSign</title>
<g id="a_node3"><a xlink:href="http://emmo.info/emmo/top/semiotics#EMMO_60577dea_9019_4537_ac41_80b0fb563d41" xlink:title="hasSign">
<polygon fill="#0079ba" stroke="#000000" points="218.5,-252 159.5,-252 159.5,-216 218.5,-216 218.5,-252"/>
<text text-anchor="middle" x="189" y="-230.3" font-family="Times,serif" font-size="14.00" fill="#ffffff">hasSign</text>
</a>
</g>
</g>
<!-- hasInterpretant&#45;&gt;hasSign -->
<g id="edge8" class="edge">
<title>hasInterpretant&#45;&gt;hasSign</title>
<path fill="none" stroke="#000000" d="M84.3279,-180.1686C104.4181,-190.5007 129.6058,-203.4544 150.2385,-214.0655"/>
<polygon fill="none" stroke="#000000" points="148.8695,-217.2971 159.3631,-218.7582 152.0709,-211.0721 148.8695,-217.2971"/>
</g>
<!-- semiotical -->
<g id="node2" class="node">
<title>semiotical</title>
<g id="a_node2"><a xlink:href="http://emmo.info/emmo/top/semiotics#EMMO_2337e25c_3c60_43fc_a8f9_b11a3f974291" xlink:title="semiotical">
<polygon fill="#0079ba" stroke="#000000" stroke-width="2" points="225.5,-324 152.5,-324 152.5,-288 225.5,-288 225.5,-324"/>
<text text-anchor="middle" x="189" y="-302.3" font-family="Times,serif" font-size="14.00" fill="#ffffff">semiotical</text>
</a>
</g>
</g>
<!-- hasSign&#45;&gt;semiotical -->
<g id="edge3" class="edge">
<title>hasSign&#45;&gt;semiotical</title>
<path fill="none" stroke="#000000" d="M189,-252.1686C189,-259.869 189,-269.0257 189,-277.5834"/>
<polygon fill="none" stroke="#000000" points="185.5001,-277.5867 189,-287.5867 192.5001,-277.5868 185.5001,-277.5867"/>
</g>
<!-- hasProperty -->
<g id="node4" class="node">
<title>hasProperty</title>
<g id="a_node4"><a xlink:href="http://emmo.info/emmo/middle/properties#EMMO_e1097637_70d2_4895_973f_2396f04fa204" xlink:title="hasProperty">
<polygon fill="#0079ba" stroke="#000000" points="364.5,-108 283.5,-108 283.5,-72 364.5,-72 364.5,-108"/>
<text text-anchor="middle" x="324" y="-86.3" font-family="Times,serif" font-size="14.00" fill="#ffffff">hasProperty</text>
</a>
</g>
</g>
<!-- hasConvention -->
<g id="node8" class="node">
<title>hasConvention</title>
<g id="a_node8"><a xlink:href="http://emmo.info/emmo/top/semiotics#EMMO_eb3518bf_f799_4f9e_8c3e_ce59af11453b" xlink:title="hasConvention">
<polygon fill="#0079ba" stroke="#000000" points="375,-180 277,-180 277,-144 375,-144 375,-180"/>
<text text-anchor="middle" x="326" y="-158.3" font-family="Times,serif" font-size="14.00" fill="#ffffff">hasConvention</text>
</a>
</g>
</g>
<!-- hasProperty&#45;&gt;hasConvention -->
<g id="edge9" class="edge">
<title>hasProperty&#45;&gt;hasConvention</title>
<path fill="none" stroke="#000000" d="M324.5047,-108.1686C324.7186,-115.869 324.9729,-125.0257 325.2106,-133.5834"/>
<polygon fill="none" stroke="#000000" points="321.7121,-133.6878 325.4885,-143.5867 328.7094,-133.4934 321.7121,-133.6878"/>
</g>
<!-- hasPhysicsDimension -->
<g id="node5" class="node">
<title>hasPhysicsDimension</title>
<g id="a_node5"><a xlink:href="http://emmo.info/emmo/middle/metrology#EMMO_bed1d005_b04e_4a90_94cf_02bc678a8569" xlink:title="hasPhysicsDimension">
<polygon fill="#0079ba" stroke="#000000" points="392,-36 256,-36 256,0 392,0 392,-36"/>
<text text-anchor="middle" x="324" y="-14.3" font-family="Times,serif" font-size="14.00" fill="#ffffff">hasPhysicsDimension</text>
</a>
</g>
</g>
<!-- hasPhysicsDimension&#45;&gt;hasProperty -->
<g id="edge4" class="edge">
<title>hasPhysicsDimension&#45;&gt;hasProperty</title>
<path fill="none" stroke="#000000" d="M324,-36.1686C324,-43.869 324,-53.0257 324,-61.5834"/>
<polygon fill="none" stroke="#000000" points="320.5001,-61.5867 324,-71.5867 327.5001,-61.5868 320.5001,-61.5867"/>
</g>
<!-- hasIndex -->
<g id="node6" class="node">
<title>hasIndex</title>
<g id="a_node6"><a xlink:href="http://emmo.info/emmo/top/semiotics#EMMO_297999d6_c9e4_4262_9536_bd524d1c6e21" xlink:title="hasIndex">
<polygon fill="#0079ba" stroke="#000000" points="181.5,-180 116.5,-180 116.5,-144 181.5,-144 181.5,-180"/>
<text text-anchor="middle" x="149" y="-158.3" font-family="Times,serif" font-size="14.00" fill="#ffffff">hasIndex</text>
</a>
</g>
</g>
<!-- hasIndex&#45;&gt;hasSign -->
<g id="edge6" class="edge">
<title>hasIndex&#45;&gt;hasSign</title>
<path fill="none" stroke="#000000" d="M159.0937,-180.1686C163.5597,-188.2075 168.9075,-197.8334 173.8379,-206.7082"/>
<polygon fill="none" stroke="#000000" points="170.8544,-208.5449 178.7704,-215.5867 176.9735,-205.1454 170.8544,-208.5449"/>
</g>
<!-- hasIcon -->
<g id="node7" class="node">
<title>hasIcon</title>
<g id="a_node7"><a xlink:href="http://emmo.info/emmo/top/semiotics#EMMO_39c3815d_8cae_4c8f_b2ff_eeba24bec455" xlink:title="hasIcon">
<polygon fill="#0079ba" stroke="#000000" points="258.5,-180 199.5,-180 199.5,-144 258.5,-144 258.5,-180"/>
<text text-anchor="middle" x="229" y="-158.3" font-family="Times,serif" font-size="14.00" fill="#ffffff">hasIcon</text>
</a>
</g>
</g>
<!-- hasIcon&#45;&gt;hasSign -->
<g id="edge5" class="edge">
<title>hasIcon&#45;&gt;hasSign</title>
<path fill="none" stroke="#000000" d="M218.9063,-180.1686C214.4403,-188.2075 209.0925,-197.8334 204.1621,-206.7082"/>
<polygon fill="none" stroke="#000000" points="201.0265,-205.1454 199.2296,-215.5867 207.1456,-208.5449 201.0265,-205.1454"/>
</g>
<!-- hasConvention&#45;&gt;hasSign -->
<g id="edge2" class="edge">
<title>hasConvention&#45;&gt;hasSign</title>
<path fill="none" stroke="#000000" d="M291.4291,-180.1686C272.0444,-190.3562 247.8099,-203.0926 227.7807,-213.6189"/>
<polygon fill="none" stroke="#000000" points="226.1302,-210.5323 218.9065,-218.2827 229.3868,-216.7287 226.1302,-210.5323"/>
</g>
<!-- hasModel -->
<g id="node9" class="node">
<title>hasModel</title>
<g id="a_node9"><a xlink:href="http://emmo.info/emmo/middle/models#EMMO_24c71baf_6db6_48b9_86c8_8c70cf36db0c" xlink:title="hasModel">
<polygon fill="#0079ba" stroke="#000000" points="264.5,-108 193.5,-108 193.5,-72 264.5,-72 264.5,-108"/>
<text text-anchor="middle" x="229" y="-86.3" font-family="Times,serif" font-size="14.00" fill="#ffffff">hasModel</text>
</a>
</g>
</g>
<!-- hasModel&#45;&gt;hasIcon -->
<g id="edge1" class="edge">
<title>hasModel&#45;&gt;hasIcon</title>
<path fill="none" stroke="#000000" d="M229,-108.1686C229,-115.869 229,-125.0257 229,-133.5834"/>
<polygon fill="none" stroke="#000000" points="225.5001,-133.5867 229,-143.5867 232.5001,-133.5868 225.5001,-133.5867"/>
</g>
<!-- hasVariable -->
<g id="node10" class="node">
<title>hasVariable</title>
<g id="a_node10"><a xlink:href="http://emmo.info/emmo/middle/math#EMMO_3446e167_c576_49d6_846c_215bb8878a55" xlink:title="hasVariable">
<polygon fill="#0079ba" stroke="#000000" points="463.5,-108 382.5,-108 382.5,-72 463.5,-72 463.5,-108"/>
<text text-anchor="middle" x="423" y="-86.3" font-family="Times,serif" font-size="14.00" fill="#ffffff">hasVariable</text>
</a>
</g>
</g>
<!-- hasVariable&#45;&gt;hasConvention -->
<g id="edge7" class="edge">
<title>hasVariable&#45;&gt;hasConvention</title>
<path fill="none" stroke="#000000" d="M398.5228,-108.1686C386.4605,-117.1221 371.746,-128.0442 358.7314,-137.7045"/>
<polygon fill="none" stroke="#000000" points="356.413,-135.0665 350.4694,-143.8372 360.5852,-140.6873 356.413,-135.0665"/>
</g>
<!-- key1 -->
<g id="node11" class="node">
<title>key1</title>
<text text-anchor="start" x="428" y="-13.8" font-family="Times,serif" font-size="14.00" fill="#000000">isA</text>
</g>
<!-- key2 -->
<g id="node12" class="node">
<title>key2</title>
<text text-anchor="start" x="507" y="-13.8" font-family="Times,serif" font-size="14.00" fill="#000000"> </text>
</g>
<!-- key1&#45;&gt;key2 -->
<g id="edge10" class="edge">
<title>key1:e&#45;&gt;key2:w</title>
<path fill="none" stroke="#000000" d="M449,-19C470,-19 477.7109,-19 494.5581,-19"/>
<polygon fill="none" stroke="#000000" points="495,-22.5001 505,-19 495,-15.5001 495,-22.5001"/>
</g>
</g>
</svg>
