<?xml version="1.0" encoding="UTF-8" standalone="no"?>
<!DOCTYPE svg PUBLIC "-//W3C//DTD SVG 1.1//EN"
 "http://www.w3.org/Graphics/SVG/1.1/DTD/svg11.dtd">
<!-- Generated by graphviz version 2.40.1 (20161225.0304)
 -->
<!-- Title: %3 Pages: 1 -->
<svg width="527pt" height="332pt"
 viewBox="0.00 0.00 526.50 332.00" xmlns="http://www.w3.org/2000/svg" xmlns:xlink="http://www.w3.org/1999/xlink">
<g id="graph0" class="graph" transform="scale(1 1) rotate(0) translate(4 328)">
<title>%3</title>
<polygon fill="#ffffff" stroke="transparent" points="-4,4 -4,-328 522.5,-328 522.5,4 -4,4"/>
<!-- hasIndex -->
<g id="node1" class="node">
<title>hasIndex</title>
<g id="a_node1"><a xlink:href="http://emmo.info/emmo/top/semiotics#EMMO_297999d6_c9e4_4262_9536_bd524d1c6e21" xlink:title="hasIndex">
<polygon fill="#0079ba" stroke="#000000" points="65,-180 0,-180 0,-144 65,-144 65,-180"/>
<text text-anchor="middle" x="32.5" y="-158.3" font-family="Times,serif" font-size="14.00" fill="#ffffff">hasIndex</text>
</a>
</g>
</g>
<!-- hasSign -->
<g id="node6" class="node">
<title>hasSign</title>
<g id="a_node6"><a xlink:href="http://emmo.info/emmo/top/semiotics#EMMO_60577dea_9019_4537_ac41_80b0fb563d41" xlink:title="hasSign">
<polygon fill="#0079ba" stroke="#000000" points="190,-252 131,-252 131,-216 190,-216 190,-252"/>
<text text-anchor="middle" x="160.5" y="-230.3" font-family="Times,serif" font-size="14.00" fill="#ffffff">hasSign</text>
</a>
</g>
</g>
<!-- hasIndex&#45;&gt;hasSign -->
<g id="edge4" class="edge">
<title>hasIndex&#45;&gt;hasSign</title>
<path fill="none" stroke="#000000" d="M64.7998,-180.1686C82.0802,-189.8889 103.4856,-201.9294 121.6675,-212.1567"/>
<polygon fill="none" stroke="#000000" points="120.411,-215.4656 130.8427,-217.3178 123.8429,-209.3646 120.411,-215.4656"/>
</g>
<!-- hasVariable -->
<g id="node2" class="node">
<title>hasVariable</title>
<g id="a_node2"><a xlink:href="http://emmo.info/emmo/middle/math#EMMO_3446e167_c576_49d6_846c_215bb8878a55" xlink:title="hasVariable">
<polygon fill="#0079ba" stroke="#000000" points="248,-108 167,-108 167,-72 248,-72 248,-108"/>
<text text-anchor="middle" x="207.5" y="-86.3" font-family="Times,serif" font-size="14.00" fill="#ffffff">hasVariable</text>
</a>
</g>
</g>
<!-- hasConvention -->
<g id="node7" class="node">
<title>hasConvention</title>
<g id="a_node7"><a xlink:href="http://emmo.info/emmo/top/semiotics#EMMO_eb3518bf_f799_4f9e_8c3e_ce59af11453b" xlink:title="hasConvention">
<polygon fill="#0079ba" stroke="#000000" points="258.5,-180 160.5,-180 160.5,-144 258.5,-144 258.5,-180"/>
<text text-anchor="middle" x="209.5" y="-158.3" font-family="Times,serif" font-size="14.00" fill="#ffffff">hasConvention</text>
</a>
</g>
</g>
<!-- hasVariable&#45;&gt;hasConvention -->
<g id="edge5" class="edge">
<title>hasVariable&#45;&gt;hasConvention</title>
<path fill="none" stroke="#000000" d="M208.0047,-108.1686C208.2186,-115.869 208.4729,-125.0257 208.7106,-133.5834"/>
<polygon fill="none" stroke="#000000" points="205.2121,-133.6878 208.9885,-143.5867 212.2094,-133.4934 205.2121,-133.6878"/>
</g>
<!-- hasModel -->
<g id="node3" class="node">
<title>hasModel</title>
<g id="a_node3"><a xlink:href="http://emmo.info/emmo/middle/models#EMMO_24c71baf_6db6_48b9_86c8_8c70cf36db0c" xlink:title="hasModel">
<polygon fill="#0079ba" stroke="#000000" points="148,-108 77,-108 77,-72 148,-72 148,-108"/>
<text text-anchor="middle" x="112.5" y="-86.3" font-family="Times,serif" font-size="14.00" fill="#ffffff">hasModel</text>
</a>
</g>
</g>
<!-- hasIcon -->
<g id="node4" class="node">
<title>hasIcon</title>
<g id="a_node4"><a xlink:href="http://emmo.info/emmo/top/semiotics#EMMO_39c3815d_8cae_4c8f_b2ff_eeba24bec455" xlink:title="hasIcon">
<polygon fill="#0079ba" stroke="#000000" points="142,-180 83,-180 83,-144 142,-144 142,-180"/>
<text text-anchor="middle" x="112.5" y="-158.3" font-family="Times,serif" font-size="14.00" fill="#ffffff">hasIcon</text>
</a>
</g>
</g>
<!-- hasModel&#45;&gt;hasIcon -->
<g id="edge7" class="edge">
<title>hasModel&#45;&gt;hasIcon</title>
<path fill="none" stroke="#000000" d="M112.5,-108.1686C112.5,-115.869 112.5,-125.0257 112.5,-133.5834"/>
<polygon fill="none" stroke="#000000" points="109.0001,-133.5867 112.5,-143.5867 116.0001,-133.5868 109.0001,-133.5867"/>
</g>
<!-- hasIcon&#45;&gt;hasSign -->
<g id="edge6" class="edge">
<title>hasIcon&#45;&gt;hasSign</title>
<path fill="none" stroke="#000000" d="M124.6124,-180.1686C130.0281,-188.2921 136.5242,-198.0363 142.4921,-206.9882"/>
<polygon fill="none" stroke="#000000" points="139.7653,-209.2077 148.2245,-215.5867 145.5896,-205.3247 139.7653,-209.2077"/>
</g>
<!-- semiotical -->
<g id="node5" class="node">
<title>semiotical</title>
<g id="a_node5"><a xlink:href="http://emmo.info/emmo/top/semiotics#EMMO_2337e25c_3c60_43fc_a8f9_b11a3f974291" xlink:title="semiotical">
<polygon fill="#0079ba" stroke="#000000" stroke-width="2" points="197,-324 124,-324 124,-288 197,-288 197,-324"/>
<text text-anchor="middle" x="160.5" y="-302.3" font-family="Times,serif" font-size="14.00" fill="#ffffff">semiotical</text>
</a>
</g>
</g>
<!-- hasSign&#45;&gt;semiotical -->
<g id="edge9" class="edge">
<title>hasSign&#45;&gt;semiotical</title>
<path fill="none" stroke="#000000" d="M160.5,-252.1686C160.5,-259.869 160.5,-269.0257 160.5,-277.5834"/>
<polygon fill="none" stroke="#000000" points="157.0001,-277.5867 160.5,-287.5867 164.0001,-277.5868 157.0001,-277.5867"/>
</g>
<!-- hasConvention&#45;&gt;hasSign -->
<g id="edge3" class="edge">
<title>hasConvention&#45;&gt;hasSign</title>
<path fill="none" stroke="#000000" d="M197.1352,-180.1686C191.5491,-188.3768 184.837,-198.2394 178.6928,-207.2677"/>
<polygon fill="none" stroke="#000000" points="175.764,-205.3504 173.0313,-215.5867 181.551,-209.2888 175.764,-205.3504"/>
</g>
<!-- hasProperty -->
<g id="node8" class="node">
<title>hasProperty</title>
<g id="a_node8"><a xlink:href="http://emmo.info/emmo/middle/properties#EMMO_e1097637_70d2_4895_973f_2396f04fa204" xlink:title="hasProperty">
<polygon fill="#0079ba" stroke="#000000" points="347,-108 266,-108 266,-72 347,-72 347,-108"/>
<text text-anchor="middle" x="306.5" y="-86.3" font-family="Times,serif" font-size="14.00" fill="#ffffff">hasProperty</text>
</a>
</g>
</g>
<!-- hasProperty&#45;&gt;hasConvention -->
<g id="edge2" class="edge">
<title>hasProperty&#45;&gt;hasConvention</title>
<path fill="none" stroke="#000000" d="M282.0228,-108.1686C269.9605,-117.1221 255.246,-128.0442 242.2314,-137.7045"/>
<polygon fill="none" stroke="#000000" points="239.913,-135.0665 233.9694,-143.8372 244.0852,-140.6873 239.913,-135.0665"/>
</g>
<!-- hasPhysicsDimension -->
<g id="node9" class="node">
<title>hasPhysicsDimension</title>
<g id="a_node9"><a xlink:href="http://emmo.info/emmo/middle/metrology#EMMO_bed1d005_b04e_4a90_94cf_02bc678a8569" xlink:title="hasPhysicsDimension">
<polygon fill="#0079ba" stroke="#000000" points="374.5,-36 238.5,-36 238.5,0 374.5,0 374.5,-36"/>
<text text-anchor="middle" x="306.5" y="-14.3" font-family="Times,serif" font-size="14.00" fill="#ffffff">hasPhysicsDimension</text>
</a>
</g>
</g>
<!-- hasPhysicsDimension&#45;&gt;hasProperty -->
<g id="edge8" class="edge">
<title>hasPhysicsDimension&#45;&gt;hasProperty</title>
<path fill="none" stroke="#000000" d="M306.5,-36.1686C306.5,-43.869 306.5,-53.0257 306.5,-61.5834"/>
<polygon fill="none" stroke="#000000" points="303.0001,-61.5867 306.5,-71.5867 310.0001,-61.5868 303.0001,-61.5867"/>
</g>
<!-- hasInterpretant -->
<g id="node10" class="node">
<title>hasInterpretant</title>
<g id="a_node10"><a xlink:href="http://emmo.info/emmo/top/semiotics#EMMO_7fb7fe7e_bdf9_4eeb_adad_e384dd5285c6" xlink:title="hasInterpretant">
<polygon fill="#0079ba" stroke="#000000" points="374.5,-180 276.5,-180 276.5,-144 374.5,-144 374.5,-180"/>
<text text-anchor="middle" x="325.5" y="-158.3" font-family="Times,serif" font-size="14.00" fill="#ffffff">hasInterpretant</text>
</a>
</g>
</g>
<!-- hasInterpretant&#45;&gt;hasSign -->
<g id="edge1" class="edge">
<title>hasInterpretant&#45;&gt;hasSign</title>
<path fill="none" stroke="#000000" d="M283.8635,-180.1686C257.9595,-191.4722 224.8646,-205.9136 199.4757,-216.9924"/>
<polygon fill="none" stroke="#000000" points="197.9191,-213.8529 190.1535,-221.0603 200.7187,-220.2687 197.9191,-213.8529"/>
</g>
<!-- key1 -->
<g id="node11" class="node">
<title>key1</title>
<text text-anchor="start" x="410.5" y="-13.8" font-family="Times,serif" font-size="14.00" fill="#000000">isA</text>
</g>
<!-- key2 -->
<g id="node12" class="node">
<title>key2</title>
<text text-anchor="start" x="489.5" y="-13.8" font-family="Times,serif" font-size="14.00" fill="#000000"> </text>
</g>
<!-- key1&#45;&gt;key2 -->
<g id="edge10" class="edge">
<title>key1:e&#45;&gt;key2:w</title>
<path fill="none" stroke="#000000" d="M431.5,-19C452.5,-19 460.2109,-19 477.0581,-19"/>
<polygon fill="none" stroke="#000000" points="477.5,-22.5001 487.5,-19 477.5,-15.5001 477.5,-22.5001"/>
</g>
</g>
</svg>
