<?xml version="1.0" encoding="UTF-8" standalone="no"?>
<!DOCTYPE svg PUBLIC "-//W3C//DTD SVG 1.1//EN"
 "http://www.w3.org/Graphics/SVG/1.1/DTD/svg11.dtd">
<!-- Generated by graphviz version 2.40.1 (20161225.0304)
 -->
<!-- Title: %3 Pages: 1 -->
<svg width="458pt" height="332pt"
 viewBox="0.00 0.00 457.50 332.00" xmlns="http://www.w3.org/2000/svg" xmlns:xlink="http://www.w3.org/1999/xlink">
<g id="graph0" class="graph" transform="scale(1 1) rotate(0) translate(4 328)">
<title>%3</title>
<polygon fill="#ffffff" stroke="transparent" points="-4,4 -4,-328 453.5,-328 453.5,4 -4,4"/>
<!-- hasIcon -->
<g id="node1" class="node">
<title>hasIcon</title>
<g id="a_node1"><a xlink:href="http://emmo.info/emmo/top/semiotics#EMMO_39c3815d_8cae_4c8f_b2ff_eeba24bec455" xlink:title="hasIcon">
<polygon fill="#0079ba" stroke="#000000" points="443.5,-180 384.5,-180 384.5,-144 443.5,-144 443.5,-180"/>
<text text-anchor="middle" x="414" y="-158.3" font-family="Times,serif" font-size="14.00" fill="#ffffff">hasIcon</text>
</a>
</g>
</g>
<!-- hasSign -->
<g id="node2" class="node">
<title>hasSign</title>
<g id="a_node2"><a xlink:href="http://emmo.info/emmo/top/semiotics#EMMO_60577dea_9019_4537_ac41_80b0fb563d41" xlink:title="hasSign">
<polygon fill="#0079ba" stroke="#000000" points="296.5,-252 237.5,-252 237.5,-216 296.5,-216 296.5,-252"/>
<text text-anchor="middle" x="267" y="-230.3" font-family="Times,serif" font-size="14.00" fill="#ffffff">hasSign</text>
</a>
</g>
</g>
<!-- hasIcon&#45;&gt;hasSign -->
<g id="edge4" class="edge">
<title>hasIcon&#45;&gt;hasSign</title>
<path fill="none" stroke="#000000" d="M384.2524,-176.5703C361.6376,-187.6469 330.3344,-202.9791 305.7601,-215.0154"/>
<polygon fill="none" stroke="#000000" points="304.1445,-211.9094 296.7034,-219.4514 307.2236,-218.1959 304.1445,-211.9094"/>
</g>
<!-- semiotical -->
<g id="node7" class="node">
<title>semiotical</title>
<g id="a_node7"><a xlink:href="http://emmo.info/emmo/top/semiotics#EMMO_2337e25c_3c60_43fc_a8f9_b11a3f974291" xlink:title="semiotical">
<polygon fill="#0079ba" stroke="#000000" stroke-width="2" points="303.5,-324 230.5,-324 230.5,-288 303.5,-288 303.5,-324"/>
<text text-anchor="middle" x="267" y="-302.3" font-family="Times,serif" font-size="14.00" fill="#ffffff">semiotical</text>
</a>
</g>
</g>
<!-- hasSign&#45;&gt;semiotical -->
<g id="edge7" class="edge">
<title>hasSign&#45;&gt;semiotical</title>
<path fill="none" stroke="#000000" d="M267,-252.1686C267,-259.869 267,-269.0257 267,-277.5834"/>
<polygon fill="none" stroke="#000000" points="263.5001,-277.5867 267,-287.5867 270.5001,-277.5868 263.5001,-277.5867"/>
</g>
<!-- hasProperty -->
<g id="node3" class="node">
<title>hasProperty</title>
<g id="a_node3"><a xlink:href="http://emmo.info/emmo/middle/properties#EMMO_e1097637_70d2_4895_973f_2396f04fa204" xlink:title="hasProperty">
<polygon fill="#0079ba" stroke="#000000" points="108.5,-108 27.5,-108 27.5,-72 108.5,-72 108.5,-108"/>
<text text-anchor="middle" x="68" y="-86.3" font-family="Times,serif" font-size="14.00" fill="#ffffff">hasProperty</text>
</a>
</g>
</g>
<!-- hasConvention -->
<g id="node5" class="node">
<title>hasConvention</title>
<g id="a_node5"><a xlink:href="http://emmo.info/emmo/top/semiotics#EMMO_eb3518bf_f799_4f9e_8c3e_ce59af11453b" xlink:title="hasConvention">
<polygon fill="#0079ba" stroke="#000000" points="166,-180 68,-180 68,-144 166,-144 166,-180"/>
<text text-anchor="middle" x="117" y="-158.3" font-family="Times,serif" font-size="14.00" fill="#ffffff">hasConvention</text>
</a>
</g>
</g>
<!-- hasProperty&#45;&gt;hasConvention -->
<g id="edge5" class="edge">
<title>hasProperty&#45;&gt;hasConvention</title>
<path fill="none" stroke="#000000" d="M80.3648,-108.1686C85.9509,-116.3768 92.663,-126.2394 98.8072,-135.2677"/>
<polygon fill="none" stroke="#000000" points="95.949,-137.2888 104.4687,-143.5867 101.736,-133.3504 95.949,-137.2888"/>
</g>
<!-- hasPhysicsDimension -->
<g id="node4" class="node">
<title>hasPhysicsDimension</title>
<g id="a_node4"><a xlink:href="http://emmo.info/emmo/middle/metrology#EMMO_bed1d005_b04e_4a90_94cf_02bc678a8569" xlink:title="hasPhysicsDimension">
<polygon fill="#0079ba" stroke="#000000" points="136,-36 0,-36 0,0 136,0 136,-36"/>
<text text-anchor="middle" x="68" y="-14.3" font-family="Times,serif" font-size="14.00" fill="#ffffff">hasPhysicsDimension</text>
</a>
</g>
</g>
<!-- hasPhysicsDimension&#45;&gt;hasProperty -->
<g id="edge9" class="edge">
<title>hasPhysicsDimension&#45;&gt;hasProperty</title>
<path fill="none" stroke="#000000" d="M68,-36.1686C68,-43.869 68,-53.0257 68,-61.5834"/>
<polygon fill="none" stroke="#000000" points="64.5001,-61.5867 68,-71.5867 71.5001,-61.5868 64.5001,-61.5867"/>
</g>
<!-- hasConvention&#45;&gt;hasSign -->
<g id="edge3" class="edge">
<title>hasConvention&#45;&gt;hasSign</title>
<path fill="none" stroke="#000000" d="M154.8513,-180.1686C177.178,-190.8854 205.3806,-204.4227 227.9182,-215.2407"/>
<polygon fill="none" stroke="#000000" points="226.6669,-218.5224 237.1967,-219.6944 229.696,-212.2117 226.6669,-218.5224"/>
</g>
<!-- hasVariable -->
<g id="node6" class="node">
<title>hasVariable</title>
<g id="a_node6"><a xlink:href="http://emmo.info/emmo/middle/math#EMMO_3446e167_c576_49d6_846c_215bb8878a55" xlink:title="hasVariable">
<polygon fill="#0079ba" stroke="#000000" points="207.5,-108 126.5,-108 126.5,-72 207.5,-72 207.5,-108"/>
<text text-anchor="middle" x="167" y="-86.3" font-family="Times,serif" font-size="14.00" fill="#ffffff">hasVariable</text>
</a>
</g>
</g>
<!-- hasVariable&#45;&gt;hasConvention -->
<g id="edge8" class="edge">
<title>hasVariable&#45;&gt;hasConvention</title>
<path fill="none" stroke="#000000" d="M154.3829,-108.1686C148.6828,-116.3768 141.8337,-126.2394 135.5641,-135.2677"/>
<polygon fill="none" stroke="#000000" points="132.6162,-133.3766 129.787,-143.5867 138.3658,-137.3694 132.6162,-133.3766"/>
</g>
<!-- hasIndex -->
<g id="node8" class="node">
<title>hasIndex</title>
<g id="a_node8"><a xlink:href="http://emmo.info/emmo/top/semiotics#EMMO_297999d6_c9e4_4262_9536_bd524d1c6e21" xlink:title="hasIndex">
<polygon fill="#0079ba" stroke="#000000" points="249.5,-180 184.5,-180 184.5,-144 249.5,-144 249.5,-180"/>
<text text-anchor="middle" x="217" y="-158.3" font-family="Times,serif" font-size="14.00" fill="#ffffff">hasIndex</text>
</a>
</g>
</g>
<!-- hasIndex&#45;&gt;hasSign -->
<g id="edge6" class="edge">
<title>hasIndex&#45;&gt;hasSign</title>
<path fill="none" stroke="#000000" d="M229.6171,-180.1686C235.3172,-188.3768 242.1663,-198.2394 248.4359,-207.2677"/>
<polygon fill="none" stroke="#000000" points="245.6342,-209.3694 254.213,-215.5867 251.3838,-205.3766 245.6342,-209.3694"/>
</g>
<!-- hasModel -->
<g id="node9" class="node">
<title>hasModel</title>
<g id="a_node9"><a xlink:href="http://emmo.info/emmo/middle/models#EMMO_24c71baf_6db6_48b9_86c8_8c70cf36db0c" xlink:title="hasModel">
<polygon fill="#0079ba" stroke="#000000" points="449.5,-108 378.5,-108 378.5,-72 449.5,-72 449.5,-108"/>
<text text-anchor="middle" x="414" y="-86.3" font-family="Times,serif" font-size="14.00" fill="#ffffff">hasModel</text>
</a>
</g>
</g>
<!-- hasModel&#45;&gt;hasIcon -->
<g id="edge2" class="edge">
<title>hasModel&#45;&gt;hasIcon</title>
<path fill="none" stroke="#000000" d="M414,-108.1686C414,-115.869 414,-125.0257 414,-133.5834"/>
<polygon fill="none" stroke="#000000" points="410.5001,-133.5867 414,-143.5867 417.5001,-133.5868 410.5001,-133.5867"/>
</g>
<!-- hasInterpretant -->
<g id="node10" class="node">
<title>hasInterpretant</title>
<g id="a_node10"><a xlink:href="http://emmo.info/emmo/top/semiotics#EMMO_7fb7fe7e_bdf9_4eeb_adad_e384dd5285c6" xlink:title="hasInterpretant">
<polygon fill="#0079ba" stroke="#000000" points="366,-180 268,-180 268,-144 366,-144 366,-180"/>
<text text-anchor="middle" x="317" y="-158.3" font-family="Times,serif" font-size="14.00" fill="#ffffff">hasInterpretant</text>
</a>
</g>
</g>
<!-- hasInterpretant&#45;&gt;hasSign -->
<g id="edge1" class="edge">
<title>hasInterpretant&#45;&gt;hasSign</title>
<path fill="none" stroke="#000000" d="M304.3829,-180.1686C298.6828,-188.3768 291.8337,-198.2394 285.5641,-207.2677"/>
<polygon fill="none" stroke="#000000" points="282.6162,-205.3766 279.787,-215.5867 288.3658,-209.3694 282.6162,-205.3766"/>
</g>
<!-- key1 -->
<g id="node11" class="node">
<title>key1</title>
<text text-anchor="start" x="172" y="-13.8" font-family="Times,serif" font-size="14.00" fill="#000000">isA</text>
</g>
<!-- key2 -->
<g id="node12" class="node">
<title>key2</title>
<text text-anchor="start" x="251" y="-13.8" font-family="Times,serif" font-size="14.00" fill="#000000"> </text>
</g>
<!-- key1&#45;&gt;key2 -->
<g id="edge10" class="edge">
<title>key1:e&#45;&gt;key2:w</title>
<path fill="none" stroke="#000000" d="M193,-19C214,-19 221.7109,-19 238.5581,-19"/>
<polygon fill="none" stroke="#000000" points="239,-22.5001 249,-19 239,-15.5001 239,-22.5001"/>
</g>
</g>
</svg>
