<?xml version="1.0" encoding="UTF-8" standalone="no"?>
<!DOCTYPE svg PUBLIC "-//W3C//DTD SVG 1.1//EN"
 "http://www.w3.org/Graphics/SVG/1.1/DTD/svg11.dtd">
<!-- Generated by graphviz version 2.40.1 (20161225.0304)
 -->
<!-- Title: %3 Pages: 1 -->
<svg width="430pt" height="332pt"
 viewBox="0.00 0.00 430.00 332.00" xmlns="http://www.w3.org/2000/svg" xmlns:xlink="http://www.w3.org/1999/xlink">
<g id="graph0" class="graph" transform="scale(1 1) rotate(0) translate(4 328)">
<title>%3</title>
<polygon fill="#ffffff" stroke="transparent" points="-4,4 -4,-328 426,-328 426,4 -4,4"/>
<!-- hasVariable -->
<g id="node1" class="node">
<title>hasVariable</title>
<g id="a_node1"><a xlink:href="http://emmo.info/emmo/middle/math#EMMO_3446e167_c576_49d6_846c_215bb8878a55" xlink:title="hasVariable">
<polygon fill="#0079ba" stroke="#000000" points="81,-108 0,-108 0,-72 81,-72 81,-108"/>
<text text-anchor="middle" x="40.5" y="-86.3" font-family="Times,serif" font-size="14.00" fill="#ffffff">hasVariable</text>
</a>
</g>
</g>
<!-- hasConvention -->
<g id="node7" class="node">
<title>hasConvention</title>
<g id="a_node7"><a xlink:href="http://emmo.info/emmo/top/semiotics#EMMO_eb3518bf_f799_4f9e_8c3e_ce59af11453b" xlink:title="hasConvention">
<polygon fill="#0079ba" stroke="#000000" points="138.5,-180 40.5,-180 40.5,-144 138.5,-144 138.5,-180"/>
<text text-anchor="middle" x="89.5" y="-158.3" font-family="Times,serif" font-size="14.00" fill="#ffffff">hasConvention</text>
</a>
</g>
</g>
<!-- hasVariable&#45;&gt;hasConvention -->
<g id="edge5" class="edge">
<title>hasVariable&#45;&gt;hasConvention</title>
<path fill="none" stroke="#000000" d="M52.8648,-108.1686C58.4509,-116.3768 65.163,-126.2394 71.3072,-135.2677"/>
<polygon fill="none" stroke="#000000" points="68.449,-137.2888 76.9687,-143.5867 74.236,-133.3504 68.449,-137.2888"/>
</g>
<!-- hasModel -->
<g id="node2" class="node">
<title>hasModel</title>
<g id="a_node2"><a xlink:href="http://emmo.info/emmo/middle/models#EMMO_24c71baf_6db6_48b9_86c8_8c70cf36db0c" xlink:title="hasModel">
<polygon fill="#0079ba" stroke="#000000" points="422,-108 351,-108 351,-72 422,-72 422,-108"/>
<text text-anchor="middle" x="386.5" y="-86.3" font-family="Times,serif" font-size="14.00" fill="#ffffff">hasModel</text>
</a>
</g>
</g>
<!-- hasIcon -->
<g id="node10" class="node">
<title>hasIcon</title>
<g id="a_node10"><a xlink:href="http://emmo.info/emmo/top/semiotics#EMMO_39c3815d_8cae_4c8f_b2ff_eeba24bec455" xlink:title="hasIcon">
<polygon fill="#0079ba" stroke="#000000" points="416,-180 357,-180 357,-144 416,-144 416,-180"/>
<text text-anchor="middle" x="386.5" y="-158.3" font-family="Times,serif" font-size="14.00" fill="#ffffff">hasIcon</text>
</a>
</g>
</g>
<!-- hasModel&#45;&gt;hasIcon -->
<g id="edge9" class="edge">
<title>hasModel&#45;&gt;hasIcon</title>
<path fill="none" stroke="#000000" d="M386.5,-108.1686C386.5,-115.869 386.5,-125.0257 386.5,-133.5834"/>
<polygon fill="none" stroke="#000000" points="383.0001,-133.5867 386.5,-143.5867 390.0001,-133.5868 383.0001,-133.5867"/>
</g>
<!-- hasIndex -->
<g id="node3" class="node">
<title>hasIndex</title>
<g id="a_node3"><a xlink:href="http://emmo.info/emmo/top/semiotics#EMMO_297999d6_c9e4_4262_9536_bd524d1c6e21" xlink:title="hasIndex">
<polygon fill="#0079ba" stroke="#000000" points="222,-180 157,-180 157,-144 222,-144 222,-180"/>
<text text-anchor="middle" x="189.5" y="-158.3" font-family="Times,serif" font-size="14.00" fill="#ffffff">hasIndex</text>
</a>
</g>
</g>
<!-- hasSign -->
<g id="node6" class="node">
<title>hasSign</title>
<g id="a_node6"><a xlink:href="http://emmo.info/emmo/top/semiotics#EMMO_60577dea_9019_4537_ac41_80b0fb563d41" xlink:title="hasSign">
<polygon fill="#0079ba" stroke="#000000" points="269,-252 210,-252 210,-216 269,-216 269,-252"/>
<text text-anchor="middle" x="239.5" y="-230.3" font-family="Times,serif" font-size="14.00" fill="#ffffff">hasSign</text>
</a>
</g>
</g>
<!-- hasIndex&#45;&gt;hasSign -->
<g id="edge1" class="edge">
<title>hasIndex&#45;&gt;hasSign</title>
<path fill="none" stroke="#000000" d="M202.1171,-180.1686C207.8172,-188.3768 214.6663,-198.2394 220.9359,-207.2677"/>
<polygon fill="none" stroke="#000000" points="218.1342,-209.3694 226.713,-215.5867 223.8838,-205.3766 218.1342,-209.3694"/>
</g>
<!-- hasProperty -->
<g id="node4" class="node">
<title>hasProperty</title>
<g id="a_node4"><a xlink:href="http://emmo.info/emmo/middle/properties#EMMO_e1097637_70d2_4895_973f_2396f04fa204" xlink:title="hasProperty">
<polygon fill="#0079ba" stroke="#000000" points="180,-108 99,-108 99,-72 180,-72 180,-108"/>
<text text-anchor="middle" x="139.5" y="-86.3" font-family="Times,serif" font-size="14.00" fill="#ffffff">hasProperty</text>
</a>
</g>
</g>
<!-- hasProperty&#45;&gt;hasConvention -->
<g id="edge7" class="edge">
<title>hasProperty&#45;&gt;hasConvention</title>
<path fill="none" stroke="#000000" d="M126.8829,-108.1686C121.1828,-116.3768 114.3337,-126.2394 108.0641,-135.2677"/>
<polygon fill="none" stroke="#000000" points="105.1162,-133.3766 102.287,-143.5867 110.8658,-137.3694 105.1162,-133.3766"/>
</g>
<!-- semiotical -->
<g id="node5" class="node">
<title>semiotical</title>
<g id="a_node5"><a xlink:href="http://emmo.info/emmo/top/semiotics#EMMO_2337e25c_3c60_43fc_a8f9_b11a3f974291" xlink:title="semiotical">
<polygon fill="#0079ba" stroke="#000000" stroke-width="2" points="276,-324 203,-324 203,-288 276,-288 276,-324"/>
<text text-anchor="middle" x="239.5" y="-302.3" font-family="Times,serif" font-size="14.00" fill="#ffffff">semiotical</text>
</a>
</g>
</g>
<!-- hasSign&#45;&gt;semiotical -->
<g id="edge2" class="edge">
<title>hasSign&#45;&gt;semiotical</title>
<path fill="none" stroke="#000000" d="M239.5,-252.1686C239.5,-259.869 239.5,-269.0257 239.5,-277.5834"/>
<polygon fill="none" stroke="#000000" points="236.0001,-277.5867 239.5,-287.5867 243.0001,-277.5868 236.0001,-277.5867"/>
</g>
<!-- hasConvention&#45;&gt;hasSign -->
<g id="edge8" class="edge">
<title>hasConvention&#45;&gt;hasSign</title>
<path fill="none" stroke="#000000" d="M127.3513,-180.1686C149.678,-190.8854 177.8806,-204.4227 200.4182,-215.2407"/>
<polygon fill="none" stroke="#000000" points="199.1669,-218.5224 209.6967,-219.6944 202.196,-212.2117 199.1669,-218.5224"/>
</g>
<!-- hasInterpretant -->
<g id="node8" class="node">
<title>hasInterpretant</title>
<g id="a_node8"><a xlink:href="http://emmo.info/emmo/top/semiotics#EMMO_7fb7fe7e_bdf9_4eeb_adad_e384dd5285c6" xlink:title="hasInterpretant">
<polygon fill="#0079ba" stroke="#000000" points="338.5,-180 240.5,-180 240.5,-144 338.5,-144 338.5,-180"/>
<text text-anchor="middle" x="289.5" y="-158.3" font-family="Times,serif" font-size="14.00" fill="#ffffff">hasInterpretant</text>
</a>
</g>
</g>
<!-- hasInterpretant&#45;&gt;hasSign -->
<g id="edge3" class="edge">
<title>hasInterpretant&#45;&gt;hasSign</title>
<path fill="none" stroke="#000000" d="M276.8829,-180.1686C271.1828,-188.3768 264.3337,-198.2394 258.0641,-207.2677"/>
<polygon fill="none" stroke="#000000" points="255.1162,-205.3766 252.287,-215.5867 260.8658,-209.3694 255.1162,-205.3766"/>
</g>
<!-- hasPhysicsDimension -->
<g id="node9" class="node">
<title>hasPhysicsDimension</title>
<g id="a_node9"><a xlink:href="http://emmo.info/emmo/middle/metrology#EMMO_bed1d005_b04e_4a90_94cf_02bc678a8569" xlink:title="hasPhysicsDimension">
<polygon fill="#0079ba" stroke="#000000" points="207.5,-36 71.5,-36 71.5,0 207.5,0 207.5,-36"/>
<text text-anchor="middle" x="139.5" y="-14.3" font-family="Times,serif" font-size="14.00" fill="#ffffff">hasPhysicsDimension</text>
</a>
</g>
</g>
<!-- hasPhysicsDimension&#45;&gt;hasProperty -->
<g id="edge6" class="edge">
<title>hasPhysicsDimension&#45;&gt;hasProperty</title>
<path fill="none" stroke="#000000" d="M139.5,-36.1686C139.5,-43.869 139.5,-53.0257 139.5,-61.5834"/>
<polygon fill="none" stroke="#000000" points="136.0001,-61.5867 139.5,-71.5867 143.0001,-61.5868 136.0001,-61.5867"/>
</g>
<!-- hasIcon&#45;&gt;hasSign -->
<g id="edge4" class="edge">
<title>hasIcon&#45;&gt;hasSign</title>
<path fill="none" stroke="#000000" d="M356.7524,-176.5703C334.1376,-187.6469 302.8344,-202.9791 278.2601,-215.0154"/>
<polygon fill="none" stroke="#000000" points="276.6445,-211.9094 269.2034,-219.4514 279.7236,-218.1959 276.6445,-211.9094"/>
</g>
<!-- key1 -->
<g id="node11" class="node">
<title>key1</title>
<text text-anchor="start" x="243.5" y="-13.8" font-family="Times,serif" font-size="14.00" fill="#000000">isA</text>
</g>
<!-- key2 -->
<g id="node12" class="node">
<title>key2</title>
<text text-anchor="start" x="322.5" y="-13.8" font-family="Times,serif" font-size="14.00" fill="#000000"> </text>
</g>
<!-- key1&#45;&gt;key2 -->
<g id="edge10" class="edge">
<title>key1:e&#45;&gt;key2:w</title>
<path fill="none" stroke="#000000" d="M264.5,-19C285.5,-19 293.2109,-19 310.0581,-19"/>
<polygon fill="none" stroke="#000000" points="310.5,-22.5001 320.5,-19 310.5,-15.5001 310.5,-22.5001"/>
</g>
</g>
</svg>
