<?xml version="1.0" encoding="UTF-8" standalone="no"?>
<!DOCTYPE svg PUBLIC "-//W3C//DTD SVG 1.1//EN"
 "http://www.w3.org/Graphics/SVG/1.1/DTD/svg11.dtd">
<!-- Generated by graphviz version 2.40.1 (20161225.0304)
 -->
<!-- Title: %3 Pages: 1 -->
<svg width="644pt" height="332pt"
 viewBox="0.00 0.00 643.50 332.00" xmlns="http://www.w3.org/2000/svg" xmlns:xlink="http://www.w3.org/1999/xlink">
<g id="graph0" class="graph" transform="scale(1 1) rotate(0) translate(4 328)">
<title>%3</title>
<polygon fill="#ffffff" stroke="transparent" points="-4,4 -4,-328 639.5,-328 639.5,4 -4,4"/>
<!-- hasIndex -->
<g id="node1" class="node">
<title>hasIndex</title>
<g id="a_node1"><a xlink:href="http://emmo.info/emmo/top/semiotics#EMMO_297999d6_c9e4_4262_9536_bd524d1c6e21" xlink:title="hasIndex">
<polygon fill="#0079ba" stroke="#000000" points="65,-180 0,-180 0,-144 65,-144 65,-180"/>
<text text-anchor="middle" x="32.5" y="-158.3" font-family="Times,serif" font-size="14.00" fill="#ffffff">hasIndex</text>
</a>
</g>
</g>
<!-- hasSign -->
<g id="node8" class="node">
<title>hasSign</title>
<g id="a_node8"><a xlink:href="http://emmo.info/emmo/top/semiotics#EMMO_60577dea_9019_4537_ac41_80b0fb563d41" xlink:title="hasSign">
<polygon fill="#0079ba" stroke="#000000" points="210,-252 151,-252 151,-216 210,-216 210,-252"/>
<text text-anchor="middle" x="180.5" y="-230.3" font-family="Times,serif" font-size="14.00" fill="#ffffff">hasSign</text>
</a>
</g>
</g>
<!-- hasIndex&#45;&gt;hasSign -->
<g id="edge5" class="edge">
<title>hasIndex&#45;&gt;hasSign</title>
<path fill="none" stroke="#000000" d="M65.346,-177.9791C87.9001,-188.9514 117.9329,-203.5619 141.6724,-215.1109"/>
<polygon fill="none" stroke="#000000" points="140.2379,-218.3052 150.7614,-219.5326 143.3002,-212.0105 140.2379,-218.3052"/>
</g>
<!-- hasVariable -->
<g id="node2" class="node">
<title>hasVariable</title>
<g id="a_node2"><a xlink:href="http://emmo.info/emmo/middle/math#EMMO_3446e167_c576_49d6_846c_215bb8878a55" xlink:title="hasVariable">
<polygon fill="#0079ba" stroke="#000000" points="365,-108 284,-108 284,-72 365,-72 365,-108"/>
<text text-anchor="middle" x="324.5" y="-86.3" font-family="Times,serif" font-size="14.00" fill="#ffffff">hasVariable</text>
</a>
</g>
</g>
<!-- hasConvention -->
<g id="node9" class="node">
<title>hasConvention</title>
<g id="a_node9"><a xlink:href="http://emmo.info/emmo/top/semiotics#EMMO_eb3518bf_f799_4f9e_8c3e_ce59af11453b" xlink:title="hasConvention">
<polygon fill="#0079ba" stroke="#000000" points="375.5,-180 277.5,-180 277.5,-144 375.5,-144 375.5,-180"/>
<text text-anchor="middle" x="326.5" y="-158.3" font-family="Times,serif" font-size="14.00" fill="#ffffff">hasConvention</text>
</a>
</g>
</g>
<!-- hasVariable&#45;&gt;hasConvention -->
<g id="edge4" class="edge">
<title>hasVariable&#45;&gt;hasConvention</title>
<path fill="none" stroke="#000000" d="M325.0047,-108.1686C325.2186,-115.869 325.4729,-125.0257 325.7106,-133.5834"/>
<polygon fill="none" stroke="#000000" points="322.2121,-133.6878 325.9885,-143.5867 329.2094,-133.4934 322.2121,-133.6878"/>
</g>
<!-- hasInterpretant -->
<g id="node3" class="node">
<title>hasInterpretant</title>
<g id="a_node3"><a xlink:href="http://emmo.info/emmo/top/semiotics#EMMO_7fb7fe7e_bdf9_4eeb_adad_e384dd5285c6" xlink:title="hasInterpretant">
<polygon fill="#0079ba" stroke="#000000" points="181.5,-180 83.5,-180 83.5,-144 181.5,-144 181.5,-180"/>
<text text-anchor="middle" x="132.5" y="-158.3" font-family="Times,serif" font-size="14.00" fill="#ffffff">hasInterpretant</text>
</a>
</g>
</g>
<!-- hasInterpretant&#45;&gt;hasSign -->
<g id="edge2" class="edge">
<title>hasInterpretant&#45;&gt;hasSign</title>
<path fill="none" stroke="#000000" d="M144.6124,-180.1686C150.0281,-188.2921 156.5242,-198.0363 162.4921,-206.9882"/>
<polygon fill="none" stroke="#000000" points="159.7653,-209.2077 168.2245,-215.5867 165.5896,-205.3247 159.7653,-209.2077"/>
</g>
<!-- hasPhysicsDimension -->
<g id="node4" class="node">
<title>hasPhysicsDimension</title>
<g id="a_node4"><a xlink:href="http://emmo.info/emmo/middle/metrology#EMMO_bed1d005_b04e_4a90_94cf_02bc678a8569" xlink:title="hasPhysicsDimension">
<polygon fill="#0079ba" stroke="#000000" points="491.5,-36 355.5,-36 355.5,0 491.5,0 491.5,-36"/>
<text text-anchor="middle" x="423.5" y="-14.3" font-family="Times,serif" font-size="14.00" fill="#ffffff">hasPhysicsDimension</text>
</a>
</g>
</g>
<!-- hasProperty -->
<g id="node10" class="node">
<title>hasProperty</title>
<g id="a_node10"><a xlink:href="http://emmo.info/emmo/middle/properties#EMMO_e1097637_70d2_4895_973f_2396f04fa204" xlink:title="hasProperty">
<polygon fill="#0079ba" stroke="#000000" points="464,-108 383,-108 383,-72 464,-72 464,-108"/>
<text text-anchor="middle" x="423.5" y="-86.3" font-family="Times,serif" font-size="14.00" fill="#ffffff">hasProperty</text>
</a>
</g>
</g>
<!-- hasPhysicsDimension&#45;&gt;hasProperty -->
<g id="edge6" class="edge">
<title>hasPhysicsDimension&#45;&gt;hasProperty</title>
<path fill="none" stroke="#000000" d="M423.5,-36.1686C423.5,-43.869 423.5,-53.0257 423.5,-61.5834"/>
<polygon fill="none" stroke="#000000" points="420.0001,-61.5867 423.5,-71.5867 427.0001,-61.5868 420.0001,-61.5867"/>
</g>
<!-- hasIcon -->
<g id="node5" class="node">
<title>hasIcon</title>
<g id="a_node5"><a xlink:href="http://emmo.info/emmo/top/semiotics#EMMO_39c3815d_8cae_4c8f_b2ff_eeba24bec455" xlink:title="hasIcon">
<polygon fill="#0079ba" stroke="#000000" points="259,-180 200,-180 200,-144 259,-144 259,-180"/>
<text text-anchor="middle" x="229.5" y="-158.3" font-family="Times,serif" font-size="14.00" fill="#ffffff">hasIcon</text>
</a>
</g>
</g>
<!-- hasIcon&#45;&gt;hasSign -->
<g id="edge8" class="edge">
<title>hasIcon&#45;&gt;hasSign</title>
<path fill="none" stroke="#000000" d="M217.1352,-180.1686C211.5491,-188.3768 204.837,-198.2394 198.6928,-207.2677"/>
<polygon fill="none" stroke="#000000" points="195.764,-205.3504 193.0313,-215.5867 201.551,-209.2888 195.764,-205.3504"/>
</g>
<!-- semiotical -->
<g id="node6" class="node">
<title>semiotical</title>
<g id="a_node6"><a xlink:href="http://emmo.info/emmo/top/semiotics#EMMO_2337e25c_3c60_43fc_a8f9_b11a3f974291" xlink:title="semiotical">
<polygon fill="#0079ba" stroke="#000000" stroke-width="2" points="217,-324 144,-324 144,-288 217,-288 217,-324"/>
<text text-anchor="middle" x="180.5" y="-302.3" font-family="Times,serif" font-size="14.00" fill="#ffffff">semiotical</text>
</a>
</g>
</g>
<!-- hasModel -->
<g id="node7" class="node">
<title>hasModel</title>
<g id="a_node7"><a xlink:href="http://emmo.info/emmo/middle/models#EMMO_24c71baf_6db6_48b9_86c8_8c70cf36db0c" xlink:title="hasModel">
<polygon fill="#0079ba" stroke="#000000" points="265,-108 194,-108 194,-72 265,-72 265,-108"/>
<text text-anchor="middle" x="229.5" y="-86.3" font-family="Times,serif" font-size="14.00" fill="#ffffff">hasModel</text>
</a>
</g>
</g>
<!-- hasModel&#45;&gt;hasIcon -->
<g id="edge3" class="edge">
<title>hasModel&#45;&gt;hasIcon</title>
<path fill="none" stroke="#000000" d="M229.5,-108.1686C229.5,-115.869 229.5,-125.0257 229.5,-133.5834"/>
<polygon fill="none" stroke="#000000" points="226.0001,-133.5867 229.5,-143.5867 233.0001,-133.5868 226.0001,-133.5867"/>
</g>
<!-- hasSign&#45;&gt;semiotical -->
<g id="edge7" class="edge">
<title>hasSign&#45;&gt;semiotical</title>
<path fill="none" stroke="#000000" d="M180.5,-252.1686C180.5,-259.869 180.5,-269.0257 180.5,-277.5834"/>
<polygon fill="none" stroke="#000000" points="177.0001,-277.5867 180.5,-287.5867 184.0001,-277.5868 177.0001,-277.5867"/>
</g>
<!-- hasConvention&#45;&gt;hasSign -->
<g id="edge9" class="edge">
<title>hasConvention&#45;&gt;hasSign</title>
<path fill="none" stroke="#000000" d="M289.658,-180.1686C268.2225,-190.7396 241.2221,-204.0548 219.438,-214.7977"/>
<polygon fill="none" stroke="#000000" points="217.8734,-211.6667 210.4528,-219.2288 220.9695,-217.9448 217.8734,-211.6667"/>
</g>
<!-- hasProperty&#45;&gt;hasConvention -->
<g id="edge1" class="edge">
<title>hasProperty&#45;&gt;hasConvention</title>
<path fill="none" stroke="#000000" d="M399.0228,-108.1686C386.9605,-117.1221 372.246,-128.0442 359.2314,-137.7045"/>
<polygon fill="none" stroke="#000000" points="356.913,-135.0665 350.9694,-143.8372 361.0852,-140.6873 356.913,-135.0665"/>
</g>
<!-- key1 -->
<g id="node11" class="node">
<title>key1</title>
<text text-anchor="start" x="527.5" y="-13.8" font-family="Times,serif" font-size="14.00" fill="#000000">isA</text>
</g>
<!-- key2 -->
<g id="node12" class="node">
<title>key2</title>
<text text-anchor="start" x="606.5" y="-13.8" font-family="Times,serif" font-size="14.00" fill="#000000"> </text>
</g>
<!-- key1&#45;&gt;key2 -->
<g id="edge10" class="edge">
<title>key1:e&#45;&gt;key2:w</title>
<path fill="none" stroke="#000000" d="M548.5,-19C569.5,-19 577.2109,-19 594.0581,-19"/>
<polygon fill="none" stroke="#000000" points="594.5,-22.5001 604.5,-19 594.5,-15.5001 594.5,-22.5001"/>
</g>
</g>
</svg>
