<?xml version="1.0" encoding="UTF-8" standalone="no"?>
<!DOCTYPE svg PUBLIC "-//W3C//DTD SVG 1.1//EN"
 "http://www.w3.org/Graphics/SVG/1.1/DTD/svg11.dtd">
<!-- Generated by graphviz version 2.40.1 (20161225.0304)
 -->
<!-- Title: %3 Pages: 1 -->
<svg width="406pt" height="116pt"
 viewBox="0.00 0.00 406.45 116.00" xmlns="http://www.w3.org/2000/svg" xmlns:xlink="http://www.w3.org/1999/xlink">
<g id="graph0" class="graph" transform="scale(1 1) rotate(0) translate(4 112)">
<title>%3</title>
<polygon fill="#ffffff" stroke="transparent" points="-4,4 -4,-112 402.4469,-112 402.4469,4 -4,4"/>
<!-- Semiotic -->
<g id="node1" class="node">
<title>Semiotic</title>
<g id="a_node1"><a xlink:href="http://emmo.info/emmo/top/semiotics#EMMO_b803f122_4acb_4064_9d71_c1e5fd091fc9" xlink:title="Semiotic">
<ellipse fill="#ffc880" stroke="#000000" stroke-width="2" cx="113.4469" cy="-90" rx="42.4939" ry="18"/>
<text text-anchor="middle" x="113.4469" y="-86.3" font-family="Times,serif" font-size="14.00" fill="#000000">Semiotic</text>
</a>
</g>
</g>
<!-- Object -->
<g id="node2" class="node">
<title>Object</title>
<g id="a_node2"><a xlink:href="http://emmo.info/emmo/top/semiotics#EMMO_6f5af708_f825_4feb_a0d1_a8d813d3022b" xlink:title="Object">
<ellipse fill="#ffffcc" stroke="#000000" stroke-width="2" cx="34.4469" cy="-18" rx="34.394" ry="18"/>
<text text-anchor="middle" x="34.4469" y="-14.3" font-family="Times,serif" font-size="14.00" fill="#000000">Object</text>
</a>
</g>
</g>
<!-- Object&#45;&gt;Semiotic -->
<g id="edge1" class="edge">
<title>Object&#45;&gt;Semiotic</title>
<path fill="none" stroke="#000000" d="M51.5888,-33.6229C62.2353,-43.3261 76.1131,-55.9742 88.0254,-66.831"/>
<polygon fill="none" stroke="#000000" points="85.7674,-69.5086 95.516,-73.6579 90.4827,-64.335 85.7674,-69.5086"/>
</g>
<!-- Sign -->
<g id="node3" class="node">
<title>Sign</title>
<g id="a_node3"><a xlink:href="http://emmo.info/emmo/top/semiotics#EMMO_b21a56ed_f969_4612_a6ec_cb7766f7f31d" xlink:title="Sign">
<ellipse fill="#ffc880" stroke="#000000" stroke-width="2" cx="113.4469" cy="-18" rx="27" ry="18"/>
<text text-anchor="middle" x="113.4469" y="-14.3" font-family="Times,serif" font-size="14.00" fill="#000000">Sign</text>
</a>
</g>
</g>
<!-- Sign&#45;&gt;Semiotic -->
<g id="edge3" class="edge">
<title>Sign&#45;&gt;Semiotic</title>
<path fill="none" stroke="#000000" d="M113.4469,-36.1686C113.4469,-43.869 113.4469,-53.0257 113.4469,-61.5834"/>
<polygon fill="none" stroke="#000000" points="109.947,-61.5867 113.4469,-71.5867 116.947,-61.5868 109.947,-61.5867"/>
</g>
<!-- Interpreter -->
<g id="node4" class="node">
<title>Interpreter</title>
<g id="a_node4"><a xlink:href="http://emmo.info/emmo/top/semiotics#EMMO_0527413c_b286_4e9c_b2d0_03fb2a038dee" xlink:title="Interpreter">
<ellipse fill="#ffffcc" stroke="#000000" stroke-width="2" cx="206.4469" cy="-18" rx="48.1917" ry="18"/>
<text text-anchor="middle" x="206.4469" y="-14.3" font-family="Times,serif" font-size="14.00" fill="#000000">Interpreter</text>
</a>
</g>
</g>
<!-- Interpreter&#45;&gt;Semiotic -->
<g id="edge2" class="edge">
<title>Interpreter&#45;&gt;Semiotic</title>
<path fill="none" stroke="#000000" d="M185.3438,-34.3379C172.4416,-44.3267 155.7765,-57.2287 141.7399,-68.0958"/>
<polygon fill="none" stroke="#000000" points="139.5921,-65.3322 133.8274,-74.2216 143.8773,-70.8673 139.5921,-65.3322"/>
</g>
<!-- key1 -->
<g id="node5" class="node">
<title>key1</title>
<text text-anchor="start" x="290.4469" y="-13.8" font-family="Times,serif" font-size="14.00" fill="#000000">isA</text>
</g>
<!-- key2 -->
<g id="node6" class="node">
<title>key2</title>
<text text-anchor="start" x="369.4469" y="-13.8" font-family="Times,serif" font-size="14.00" fill="#000000"> </text>
</g>
<!-- key1&#45;&gt;key2 -->
<g id="edge4" class="edge">
<title>key1:e&#45;&gt;key2:w</title>
<path fill="none" stroke="#000000" d="M311.4469,-19C332.4469,-19 340.1579,-19 357.005,-19"/>
<polygon fill="none" stroke="#000000" points="357.447,-22.5001 367.4469,-19 357.4469,-15.5001 357.447,-22.5001"/>
</g>
</g>
</svg>
