<?xml version="1.0" encoding="UTF-8" standalone="no"?>
<!DOCTYPE svg PUBLIC "-//W3C//DTD SVG 1.1//EN"
 "http://www.w3.org/Graphics/SVG/1.1/DTD/svg11.dtd">
<!-- Generated by graphviz version 2.40.1 (20161225.0304)
 -->
<!-- Title: %3 Pages: 1 -->
<svg width="387pt" height="332pt"
 viewBox="0.00 0.00 387.00 332.00" xmlns="http://www.w3.org/2000/svg" xmlns:xlink="http://www.w3.org/1999/xlink">
<g id="graph0" class="graph" transform="scale(1 1) rotate(0) translate(4 328)">
<title>%3</title>
<polygon fill="#ffffff" stroke="transparent" points="-4,4 -4,-328 383,-328 383,4 -4,4"/>
<!-- hasInterpretant -->
<g id="node1" class="node">
<title>hasInterpretant</title>
<g id="a_node1"><a xlink:href="http://emmo.info/emmo/top/semiotics#EMMO_7fb7fe7e_bdf9_4eeb_adad_e384dd5285c6" xlink:title="hasInterpretant">
<polygon fill="#0079ba" stroke="#000000" points="98,-180 0,-180 0,-144 98,-144 98,-180"/>
<text text-anchor="middle" x="49" y="-158.3" font-family="Times,serif" font-size="14.00" fill="#ffffff">hasInterpretant</text>
</a>
</g>
</g>
<!-- hasSign -->
<g id="node4" class="node">
<title>hasSign</title>
<g id="a_node4"><a xlink:href="http://emmo.info/emmo/top/semiotics#EMMO_60577dea_9019_4537_ac41_80b0fb563d41" xlink:title="hasSign">
<polygon fill="#0079ba" stroke="#000000" points="242.5,-252 183.5,-252 183.5,-216 242.5,-216 242.5,-252"/>
<text text-anchor="middle" x="213" y="-230.3" font-family="Times,serif" font-size="14.00" fill="#ffffff">hasSign</text>
</a>
</g>
</g>
<!-- hasInterpretant&#45;&gt;hasSign -->
<g id="edge6" class="edge">
<title>hasInterpretant&#45;&gt;hasSign</title>
<path fill="none" stroke="#000000" d="M90.3841,-180.1686C116.047,-191.4353 148.8105,-205.8193 174.0129,-216.8837"/>
<polygon fill="none" stroke="#000000" points="172.7077,-220.1331 183.2711,-220.9483 175.5217,-213.7236 172.7077,-220.1331"/>
</g>
<!-- hasVariable -->
<g id="node2" class="node">
<title>hasVariable</title>
<g id="a_node2"><a xlink:href="http://emmo.info/emmo/middle/math#EMMO_3446e167_c576_49d6_846c_215bb8878a55" xlink:title="hasVariable">
<polygon fill="#0079ba" stroke="#000000" points="108.5,-108 27.5,-108 27.5,-72 108.5,-72 108.5,-108"/>
<text text-anchor="middle" x="68" y="-86.3" font-family="Times,serif" font-size="14.00" fill="#ffffff">hasVariable</text>
</a>
</g>
</g>
<!-- hasConvention -->
<g id="node3" class="node">
<title>hasConvention</title>
<g id="a_node3"><a xlink:href="http://emmo.info/emmo/top/semiotics#EMMO_eb3518bf_f799_4f9e_8c3e_ce59af11453b" xlink:title="hasConvention">
<polygon fill="#0079ba" stroke="#000000" points="214,-180 116,-180 116,-144 214,-144 214,-180"/>
<text text-anchor="middle" x="165" y="-158.3" font-family="Times,serif" font-size="14.00" fill="#ffffff">hasConvention</text>
</a>
</g>
</g>
<!-- hasVariable&#45;&gt;hasConvention -->
<g id="edge8" class="edge">
<title>hasVariable&#45;&gt;hasConvention</title>
<path fill="none" stroke="#000000" d="M92.4772,-108.1686C104.5395,-117.1221 119.254,-128.0442 132.2686,-137.7045"/>
<polygon fill="none" stroke="#000000" points="130.4148,-140.6873 140.5306,-143.8372 134.587,-135.0665 130.4148,-140.6873"/>
</g>
<!-- hasConvention&#45;&gt;hasSign -->
<g id="edge4" class="edge">
<title>hasConvention&#45;&gt;hasSign</title>
<path fill="none" stroke="#000000" d="M177.1124,-180.1686C182.5281,-188.2921 189.0242,-198.0363 194.9921,-206.9882"/>
<polygon fill="none" stroke="#000000" points="192.2653,-209.2077 200.7245,-215.5867 198.0896,-205.3247 192.2653,-209.2077"/>
</g>
<!-- semiotical -->
<g id="node7" class="node">
<title>semiotical</title>
<g id="a_node7"><a xlink:href="http://emmo.info/emmo/top/semiotics#EMMO_2337e25c_3c60_43fc_a8f9_b11a3f974291" xlink:title="semiotical">
<polygon fill="#0079ba" stroke="#000000" stroke-width="2" points="249.5,-324 176.5,-324 176.5,-288 249.5,-288 249.5,-324"/>
<text text-anchor="middle" x="213" y="-302.3" font-family="Times,serif" font-size="14.00" fill="#ffffff">semiotical</text>
</a>
</g>
</g>
<!-- hasSign&#45;&gt;semiotical -->
<g id="edge9" class="edge">
<title>hasSign&#45;&gt;semiotical</title>
<path fill="none" stroke="#000000" d="M213,-252.1686C213,-259.869 213,-269.0257 213,-277.5834"/>
<polygon fill="none" stroke="#000000" points="209.5001,-277.5867 213,-287.5867 216.5001,-277.5868 209.5001,-277.5867"/>
</g>
<!-- hasModel -->
<g id="node5" class="node">
<title>hasModel</title>
<g id="a_node5"><a xlink:href="http://emmo.info/emmo/middle/models#EMMO_24c71baf_6db6_48b9_86c8_8c70cf36db0c" xlink:title="hasModel">
<polygon fill="#0079ba" stroke="#000000" points="297.5,-108 226.5,-108 226.5,-72 297.5,-72 297.5,-108"/>
<text text-anchor="middle" x="262" y="-86.3" font-family="Times,serif" font-size="14.00" fill="#ffffff">hasModel</text>
</a>
</g>
</g>
<!-- hasIcon -->
<g id="node6" class="node">
<title>hasIcon</title>
<g id="a_node6"><a xlink:href="http://emmo.info/emmo/top/semiotics#EMMO_39c3815d_8cae_4c8f_b2ff_eeba24bec455" xlink:title="hasIcon">
<polygon fill="#0079ba" stroke="#000000" points="291.5,-180 232.5,-180 232.5,-144 291.5,-144 291.5,-180"/>
<text text-anchor="middle" x="262" y="-158.3" font-family="Times,serif" font-size="14.00" fill="#ffffff">hasIcon</text>
</a>
</g>
</g>
<!-- hasModel&#45;&gt;hasIcon -->
<g id="edge5" class="edge">
<title>hasModel&#45;&gt;hasIcon</title>
<path fill="none" stroke="#000000" d="M262,-108.1686C262,-115.869 262,-125.0257 262,-133.5834"/>
<polygon fill="none" stroke="#000000" points="258.5001,-133.5867 262,-143.5867 265.5001,-133.5868 258.5001,-133.5867"/>
</g>
<!-- hasIcon&#45;&gt;hasSign -->
<g id="edge1" class="edge">
<title>hasIcon&#45;&gt;hasSign</title>
<path fill="none" stroke="#000000" d="M249.6352,-180.1686C244.0491,-188.3768 237.337,-198.2394 231.1928,-207.2677"/>
<polygon fill="none" stroke="#000000" points="228.264,-205.3504 225.5313,-215.5867 234.051,-209.2888 228.264,-205.3504"/>
</g>
<!-- hasProperty -->
<g id="node8" class="node">
<title>hasProperty</title>
<g id="a_node8"><a xlink:href="http://emmo.info/emmo/middle/properties#EMMO_e1097637_70d2_4895_973f_2396f04fa204" xlink:title="hasProperty">
<polygon fill="#0079ba" stroke="#000000" points="207.5,-108 126.5,-108 126.5,-72 207.5,-72 207.5,-108"/>
<text text-anchor="middle" x="167" y="-86.3" font-family="Times,serif" font-size="14.00" fill="#ffffff">hasProperty</text>
</a>
</g>
</g>
<!-- hasProperty&#45;&gt;hasConvention -->
<g id="edge7" class="edge">
<title>hasProperty&#45;&gt;hasConvention</title>
<path fill="none" stroke="#000000" d="M166.4953,-108.1686C166.2814,-115.869 166.0271,-125.0257 165.7894,-133.5834"/>
<polygon fill="none" stroke="#000000" points="162.2906,-133.4934 165.5115,-143.5867 169.2879,-133.6878 162.2906,-133.4934"/>
</g>
<!-- hasIndex -->
<g id="node9" class="node">
<title>hasIndex</title>
<g id="a_node9"><a xlink:href="http://emmo.info/emmo/top/semiotics#EMMO_297999d6_c9e4_4262_9536_bd524d1c6e21" xlink:title="hasIndex">
<polygon fill="#0079ba" stroke="#000000" points="374.5,-180 309.5,-180 309.5,-144 374.5,-144 374.5,-180"/>
<text text-anchor="middle" x="342" y="-158.3" font-family="Times,serif" font-size="14.00" fill="#ffffff">hasIndex</text>
</a>
</g>
</g>
<!-- hasIndex&#45;&gt;hasSign -->
<g id="edge3" class="edge">
<title>hasIndex&#45;&gt;hasSign</title>
<path fill="none" stroke="#000000" d="M309.4479,-180.1686C291.8727,-189.978 270.0637,-202.1505 251.6324,-212.4377"/>
<polygon fill="none" stroke="#000000" points="249.9152,-209.3879 242.889,-217.3178 253.3268,-215.5003 249.9152,-209.3879"/>
</g>
<!-- hasPhysicsDimension -->
<g id="node10" class="node">
<title>hasPhysicsDimension</title>
<g id="a_node10"><a xlink:href="http://emmo.info/emmo/middle/metrology#EMMO_bed1d005_b04e_4a90_94cf_02bc678a8569" xlink:title="hasPhysicsDimension">
<polygon fill="#0079ba" stroke="#000000" points="235,-36 99,-36 99,0 235,0 235,-36"/>
<text text-anchor="middle" x="167" y="-14.3" font-family="Times,serif" font-size="14.00" fill="#ffffff">hasPhysicsDimension</text>
</a>
</g>
</g>
<!-- hasPhysicsDimension&#45;&gt;hasProperty -->
<g id="edge2" class="edge">
<title>hasPhysicsDimension&#45;&gt;hasProperty</title>
<path fill="none" stroke="#000000" d="M167,-36.1686C167,-43.869 167,-53.0257 167,-61.5834"/>
<polygon fill="none" stroke="#000000" points="163.5001,-61.5867 167,-71.5867 170.5001,-61.5868 163.5001,-61.5867"/>
</g>
<!-- key1 -->
<g id="node11" class="node">
<title>key1</title>
<text text-anchor="start" x="271" y="-13.8" font-family="Times,serif" font-size="14.00" fill="#000000">isA</text>
</g>
<!-- key2 -->
<g id="node12" class="node">
<title>key2</title>
<text text-anchor="start" x="350" y="-13.8" font-family="Times,serif" font-size="14.00" fill="#000000"> </text>
</g>
<!-- key1&#45;&gt;key2 -->
<g id="edge10" class="edge">
<title>key1:e&#45;&gt;key2:w</title>
<path fill="none" stroke="#000000" d="M292,-19C313,-19 320.7109,-19 337.5581,-19"/>
<polygon fill="none" stroke="#000000" points="338,-22.5001 348,-19 338,-15.5001 338,-22.5001"/>
</g>
</g>
</svg>
