<?xml version="1.0" encoding="UTF-8" standalone="no"?>
<!DOCTYPE svg PUBLIC "-//W3C//DTD SVG 1.1//EN"
 "http://www.w3.org/Graphics/SVG/1.1/DTD/svg11.dtd">
<!-- Generated by graphviz version 2.40.1 (20161225.0304)
 -->
<!-- Title: %3 Pages: 1 -->
<svg width="404pt" height="131pt"
 viewBox="0.00 0.00 403.84 131.00" xmlns="http://www.w3.org/2000/svg" xmlns:xlink="http://www.w3.org/1999/xlink">
<g id="graph0" class="graph" transform="scale(1 1) rotate(0) translate(4 127)">
<title>%3</title>
<polygon fill="#ffffff" stroke="transparent" points="-4,4 -4,-127 399.8403,-127 399.8403,4 -4,4"/>
<!-- Interpreter -->
<g id="node1" class="node">
<title>Interpreter</title>
<g id="a_node1"><a xlink:href="http://emmo.info/emmo/top/semiotics#EMMO_0527413c_b286_4e9c_b2d0_03fb2a038dee" xlink:title="Interpreter">
<ellipse fill="#ffffcc" stroke="#000000" stroke-width="2" cx="48.0957" cy="-18" rx="48.1917" ry="18"/>
<text text-anchor="middle" x="48.0957" y="-14.3" font-family="Times,serif" font-size="14.00" fill="#000000">Interpreter</text>
</a>
</g>
</g>
<!-- Semiotic -->
<g id="node5" class="node">
<title>Semiotic</title>
<g id="a_node5"><a xlink:href="http://emmo.info/emmo/top/semiotics#EMMO_b803f122_4acb_4064_9d71_c1e5fd091fc9" xlink:title="Semiotic">
<ellipse fill="#ffc880" stroke="#000000" stroke-width="2" cx="180.0957" cy="-105" rx="42.4939" ry="18"/>
<text text-anchor="middle" x="180.0957" y="-101.3" font-family="Times,serif" font-size="14.00" fill="#000000">Semiotic</text>
</a>
</g>
</g>
<!-- Interpreter&#45;&gt;Semiotic -->
<g id="edge2" class="edge">
<title>Interpreter&#45;&gt;Semiotic</title>
<path fill="none" stroke="#000000" d="M71.9999,-33.755C93.3445,-47.8231 124.7704,-68.5356 148.2433,-84.0063"/>
<polygon fill="none" stroke="#000000" points="146.5368,-87.0734 156.8125,-89.6542 150.389,-81.2287 146.5368,-87.0734"/>
<text text-anchor="middle" x="131.5957" y="-57.8" font-family="Times,serif" font-size="14.00" fill="#000000">isA</text>
</g>
<!-- Sign -->
<g id="node2" class="node">
<title>Sign</title>
<g id="a_node2"><a xlink:href="http://emmo.info/emmo/top/semiotics#EMMO_b21a56ed_f969_4612_a6ec_cb7766f7f31d" xlink:title="Sign">
<ellipse fill="#ffc880" stroke="#000000" stroke-width="2" cx="141.0957" cy="-18" rx="27" ry="18"/>
<text text-anchor="middle" x="141.0957" y="-14.3" font-family="Times,serif" font-size="14.00" fill="#000000">Sign</text>
</a>
</g>
</g>
<!-- Sign&#45;&gt;Semiotic -->
<g id="edge4" class="edge">
<title>Sign&#45;&gt;Semiotic</title>
<path fill="none" stroke="#000000" d="M148.988,-35.6057C154.3969,-47.6719 161.6793,-63.9172 167.8382,-77.6562"/>
<polygon fill="none" stroke="#000000" points="164.797,-79.4284 172.0814,-87.1218 171.1845,-76.565 164.797,-79.4284"/>
<text text-anchor="middle" x="172.5957" y="-57.8" font-family="Times,serif" font-size="14.00" fill="#000000">isA</text>
</g>
<!-- Object -->
<g id="node3" class="node">
<title>Object</title>
<g id="a_node3"><a xlink:href="http://emmo.info/emmo/top/semiotics#EMMO_6f5af708_f825_4feb_a0d1_a8d813d3022b" xlink:title="Object">
<ellipse fill="#ffffcc" stroke="#000000" stroke-width="2" cx="220.0957" cy="-18" rx="34.394" ry="18"/>
<text text-anchor="middle" x="220.0957" y="-14.3" font-family="Times,serif" font-size="14.00" fill="#000000">Object</text>
</a>
</g>
</g>
<!-- Object&#45;&gt;Semiotic -->
<g id="edge1" class="edge">
<title>Object&#45;&gt;Semiotic</title>
<path fill="none" stroke="#000000" d="M212.0011,-35.6057C206.4535,-47.6719 198.9844,-63.9172 192.6676,-77.6562"/>
<polygon fill="none" stroke="#000000" points="189.313,-76.574 188.3156,-87.1218 195.673,-79.4982 189.313,-76.574"/>
<text text-anchor="middle" x="212.5957" y="-57.8" font-family="Times,serif" font-size="14.00" fill="#000000">isA</text>
</g>
<!-- SIUnitSymbol -->
<g id="node4" class="node">
<title>SIUnitSymbol</title>
<g id="a_node4"><a xlink:href="http://emmo.info/emmo/middle/siunits#EMMO_32129fb5_df25_48fd_a29c_18a2f22a2dd5" xlink:title="SIUnitSymbol">
<ellipse fill="#ffffcc" stroke="#000000" cx="334.0957" cy="-18" rx="61.99" ry="18"/>
<text text-anchor="middle" x="334.0957" y="-14.3" font-family="Times,serif" font-size="14.00" fill="#000000">SIUnitSymbol</text>
</a>
</g>
</g>
<!-- SIUnitSymbol&#45;&gt;Semiotic -->
<g id="edge3" class="edge">
<title>SIUnitSymbol&#45;&gt;Semiotic</title>
<path fill="none" stroke="#000000" d="M305.4904,-34.1601C279.8574,-48.6411 242.1915,-69.9199 214.8355,-85.3743"/>
<polygon fill="none" stroke="#000000" points="212.971,-82.4077 205.9858,-90.3738 216.4141,-88.5024 212.971,-82.4077"/>
<text text-anchor="middle" x="275.5957" y="-57.8" font-family="Times,serif" font-size="14.00" fill="#000000">isA</text>
</g>
</g>
</svg>
