<?xml version="1.0" encoding="UTF-8" standalone="no"?>
<!DOCTYPE svg PUBLIC "-//W3C//DTD SVG 1.1//EN"
 "http://www.w3.org/Graphics/SVG/1.1/DTD/svg11.dtd">
<!-- Generated by graphviz version 2.40.1 (20161225.0304)
 -->
<!-- Title: %3 Pages: 1 -->
<svg width="472pt" height="392pt"
 viewBox="0.00 0.00 472.00 392.00" xmlns="http://www.w3.org/2000/svg" xmlns:xlink="http://www.w3.org/1999/xlink">
<g id="graph0" class="graph" transform="scale(1 1) rotate(0) translate(4 388)">
<title>%3</title>
<polygon fill="#ffffff" stroke="transparent" points="-4,4 -4,-388 468,-388 468,4 -4,4"/>
<!-- hasIndex -->
<g id="node1" class="node">
<title>hasIndex</title>
<g id="a_node1"><a xlink:href="http://emmo.info/emmo/top/semiotics#EMMO_297999d6_c9e4_4262_9536_bd524d1c6e21" xlink:title="hasIndex">
<polygon fill="#0079ba" stroke="#000000" points="65,-210 0,-210 0,-174 65,-174 65,-210"/>
<text text-anchor="middle" x="32.5" y="-188.3" font-family="Times,serif" font-size="14.00" fill="#ffffff">hasIndex</text>
</a>
</g>
</g>
<!-- hasSign -->
<g id="node8" class="node">
<title>hasSign</title>
<g id="a_node8"><a xlink:href="http://emmo.info/emmo/top/semiotics#EMMO_60577dea_9019_4537_ac41_80b0fb563d41" xlink:title="hasSign">
<polygon fill="#0079ba" stroke="#000000" points="196,-297 137,-297 137,-261 196,-261 196,-297"/>
<text text-anchor="middle" x="166.5" y="-275.3" font-family="Times,serif" font-size="14.00" fill="#ffffff">hasSign</text>
</a>
</g>
</g>
<!-- hasIndex&#45;&gt;hasSign -->
<g id="edge3" class="edge">
<title>hasIndex&#45;&gt;hasSign</title>
<path fill="none" stroke="#000000" d="M60.2649,-210.0265C80.5676,-223.208 108.2916,-241.208 130.327,-255.5145"/>
<polygon fill="none" stroke="#000000" points="128.4774,-258.4867 138.7707,-260.9966 132.2893,-252.6156 128.4774,-258.4867"/>
<text text-anchor="middle" x="118" y="-231.8" font-family="Times,serif" font-size="14.00" fill="#000000">isA</text>
</g>
<!-- hasInterpretant -->
<g id="node2" class="node">
<title>hasInterpretant</title>
<g id="a_node2"><a xlink:href="http://emmo.info/emmo/top/semiotics#EMMO_7fb7fe7e_bdf9_4eeb_adad_e384dd5285c6" xlink:title="hasInterpretant">
<polygon fill="#0079ba" stroke="#000000" points="181.5,-210 83.5,-210 83.5,-174 181.5,-174 181.5,-210"/>
<text text-anchor="middle" x="132.5" y="-188.3" font-family="Times,serif" font-size="14.00" fill="#ffffff">hasInterpretant</text>
</a>
</g>
</g>
<!-- hasInterpretant&#45;&gt;hasSign -->
<g id="edge7" class="edge">
<title>hasInterpretant&#45;&gt;hasSign</title>
<path fill="none" stroke="#000000" d="M139.5448,-210.0265C144.2404,-222.0415 150.5004,-238.0599 155.8058,-251.6354"/>
<polygon fill="none" stroke="#000000" points="152.5643,-252.9566 159.4642,-260.9966 159.0841,-250.4086 152.5643,-252.9566"/>
<text text-anchor="middle" x="162" y="-231.8" font-family="Times,serif" font-size="14.00" fill="#000000">isA</text>
</g>
<!-- hasProperty -->
<g id="node3" class="node">
<title>hasProperty</title>
<g id="a_node3"><a xlink:href="http://emmo.info/emmo/middle/properties#EMMO_e1097637_70d2_4895_973f_2396f04fa204" xlink:title="hasProperty">
<polygon fill="#0079ba" stroke="#000000" points="365,-123 284,-123 284,-87 365,-87 365,-123"/>
<text text-anchor="middle" x="324.5" y="-101.3" font-family="Times,serif" font-size="14.00" fill="#ffffff">hasProperty</text>
</a>
</g>
</g>
<!-- hasConvention -->
<g id="node9" class="node">
<title>hasConvention</title>
<g id="a_node9"><a xlink:href="http://emmo.info/emmo/top/semiotics#EMMO_eb3518bf_f799_4f9e_8c3e_ce59af11453b" xlink:title="hasConvention">
<polygon fill="#0079ba" stroke="#000000" points="375.5,-210 277.5,-210 277.5,-174 375.5,-174 375.5,-210"/>
<text text-anchor="middle" x="326.5" y="-188.3" font-family="Times,serif" font-size="14.00" fill="#ffffff">hasConvention</text>
</a>
</g>
</g>
<!-- hasProperty&#45;&gt;hasConvention -->
<g id="edge6" class="edge">
<title>hasProperty&#45;&gt;hasConvention</title>
<path fill="none" stroke="#000000" d="M324.9144,-123.0265C325.1852,-134.8082 325.5446,-150.4393 325.8527,-163.8419"/>
<polygon fill="none" stroke="#000000" points="322.3571,-164.0798 326.0861,-173.9966 329.3553,-163.9188 322.3571,-164.0798"/>
<text text-anchor="middle" x="336" y="-144.8" font-family="Times,serif" font-size="14.00" fill="#000000">isA</text>
</g>
<!-- hasPhysicsDimension -->
<g id="node4" class="node">
<title>hasPhysicsDimension</title>
<g id="a_node4"><a xlink:href="http://emmo.info/emmo/middle/units#EMMO_bed1d005_b04e_4a90_94cf_02bc678a8569" xlink:title="hasPhysicsDimension">
<polygon fill="#0079ba" stroke="#000000" points="392.5,-36 256.5,-36 256.5,0 392.5,0 392.5,-36"/>
<text text-anchor="middle" x="324.5" y="-14.3" font-family="Times,serif" font-size="14.00" fill="#ffffff">hasPhysicsDimension</text>
</a>
</g>
</g>
<!-- hasPhysicsDimension&#45;&gt;hasProperty -->
<g id="edge5" class="edge">
<title>hasPhysicsDimension&#45;&gt;hasProperty</title>
<path fill="none" stroke="#000000" d="M324.5,-36.0265C324.5,-47.8082 324.5,-63.4393 324.5,-76.8419"/>
<polygon fill="none" stroke="#000000" points="321.0001,-76.9966 324.5,-86.9966 328.0001,-76.9967 321.0001,-76.9966"/>
<text text-anchor="middle" x="334" y="-57.8" font-family="Times,serif" font-size="14.00" fill="#000000">isA</text>
</g>
<!-- hasIcon -->
<g id="node5" class="node">
<title>hasIcon</title>
<g id="a_node5"><a xlink:href="http://emmo.info/emmo/top/semiotics#EMMO_39c3815d_8cae_4c8f_b2ff_eeba24bec455" xlink:title="hasIcon">
<polygon fill="#0079ba" stroke="#000000" points="259,-210 200,-210 200,-174 259,-174 259,-210"/>
<text text-anchor="middle" x="229.5" y="-188.3" font-family="Times,serif" font-size="14.00" fill="#ffffff">hasIcon</text>
</a>
</g>
</g>
<!-- hasIcon&#45;&gt;hasSign -->
<g id="edge4" class="edge">
<title>hasIcon&#45;&gt;hasSign</title>
<path fill="none" stroke="#000000" d="M216.4464,-210.0265C207.4924,-222.3915 195.4681,-238.9964 185.4613,-252.8153"/>
<polygon fill="none" stroke="#000000" points="182.5673,-250.8444 179.5369,-260.9966 188.2369,-254.95 182.5673,-250.8444"/>
<text text-anchor="middle" x="212" y="-231.8" font-family="Times,serif" font-size="14.00" fill="#000000">isA</text>
</g>
<!-- hasVariable -->
<g id="node6" class="node">
<title>hasVariable</title>
<g id="a_node6"><a xlink:href="http://emmo.info/emmo/middle/math#EMMO_3446e167_c576_49d6_846c_215bb8878a55" xlink:title="hasVariable">
<polygon fill="#0079ba" stroke="#000000" points="464,-123 383,-123 383,-87 464,-87 464,-123"/>
<text text-anchor="middle" x="423.5" y="-101.3" font-family="Times,serif" font-size="14.00" fill="#ffffff">hasVariable</text>
</a>
</g>
</g>
<!-- hasVariable&#45;&gt;hasConvention -->
<g id="edge2" class="edge">
<title>hasVariable&#45;&gt;hasConvention</title>
<path fill="none" stroke="#000000" d="M403.4015,-123.0265C389.2251,-135.7414 370.05,-152.9397 354.3939,-166.9817"/>
<polygon fill="none" stroke="#000000" points="351.6802,-164.7141 346.5727,-173.9966 356.3541,-169.9252 351.6802,-164.7141"/>
<text text-anchor="middle" x="391" y="-144.8" font-family="Times,serif" font-size="14.00" fill="#000000">isA</text>
</g>
<!-- hasModel -->
<g id="node7" class="node">
<title>hasModel</title>
<g id="a_node7"><a xlink:href="http://emmo.info/emmo/middle/models#EMMO_24c71baf_6db6_48b9_86c8_8c70cf36db0c" xlink:title="hasModel">
<polygon fill="#0079ba" stroke="#000000" points="265,-123 194,-123 194,-87 265,-87 265,-123"/>
<text text-anchor="middle" x="229.5" y="-101.3" font-family="Times,serif" font-size="14.00" fill="#ffffff">hasModel</text>
</a>
</g>
</g>
<!-- hasModel&#45;&gt;hasIcon -->
<g id="edge9" class="edge">
<title>hasModel&#45;&gt;hasIcon</title>
<path fill="none" stroke="#000000" d="M229.5,-123.0265C229.5,-134.8082 229.5,-150.4393 229.5,-163.8419"/>
<polygon fill="none" stroke="#000000" points="226.0001,-163.9966 229.5,-173.9966 233.0001,-163.9967 226.0001,-163.9966"/>
<text text-anchor="middle" x="239" y="-144.8" font-family="Times,serif" font-size="14.00" fill="#000000">isA</text>
</g>
<!-- semiotical -->
<g id="node10" class="node">
<title>semiotical</title>
<g id="a_node10"><a xlink:href="http://emmo.info/emmo/top/semiotics#EMMO_2337e25c_3c60_43fc_a8f9_b11a3f974291" xlink:title="semiotical">
<polygon fill="#0079ba" stroke="#000000" stroke-width="2" points="203,-384 130,-384 130,-348 203,-348 203,-384"/>
<text text-anchor="middle" x="166.5" y="-362.3" font-family="Times,serif" font-size="14.00" fill="#ffffff">semiotical</text>
</a>
</g>
</g>
<!-- hasSign&#45;&gt;semiotical -->
<g id="edge8" class="edge">
<title>hasSign&#45;&gt;semiotical</title>
<path fill="none" stroke="#000000" d="M166.5,-297.0265C166.5,-308.8082 166.5,-324.4393 166.5,-337.8419"/>
<polygon fill="none" stroke="#000000" points="163.0001,-337.9966 166.5,-347.9966 170.0001,-337.9967 163.0001,-337.9966"/>
<text text-anchor="middle" x="176" y="-318.8" font-family="Times,serif" font-size="14.00" fill="#000000">isA</text>
</g>
<!-- hasConvention&#45;&gt;hasSign -->
<g id="edge1" class="edge">
<title>hasConvention&#45;&gt;hasSign</title>
<path fill="none" stroke="#000000" d="M293.3479,-210.0265C267.6078,-224.0227 231.8771,-243.4512 204.8952,-258.1226"/>
<polygon fill="none" stroke="#000000" points="203.2206,-255.0491 196.1073,-262.901 206.5645,-261.1988 203.2206,-255.0491"/>
<text text-anchor="middle" x="266" y="-231.8" font-family="Times,serif" font-size="14.00" fill="#000000">isA</text>
</g>
</g>
</svg>
