<?xml version="1.0" encoding="UTF-8" standalone="no"?>
<!DOCTYPE svg PUBLIC "-//W3C//DTD SVG 1.1//EN"
 "http://www.w3.org/Graphics/SVG/1.1/DTD/svg11.dtd">
<!-- Generated by graphviz version 2.40.1 (20161225.0304)
 -->
<!-- Title: %3 Pages: 1 -->
<svg width="407pt" height="116pt"
 viewBox="0.00 0.00 407.10 116.00" xmlns="http://www.w3.org/2000/svg" xmlns:xlink="http://www.w3.org/1999/xlink">
<g id="graph0" class="graph" transform="scale(1 1) rotate(0) translate(4 112)">
<title>%3</title>
<polygon fill="#ffffff" stroke="transparent" points="-4,4 -4,-112 403.0957,-112 403.0957,4 -4,4"/>
<!-- Semiotic -->
<g id="node1" class="node">
<title>Semiotic</title>
<g id="a_node1"><a xlink:href="http://emmo.info/emmo/top/semiotics#EMMO_b803f122_4acb_4064_9d71_c1e5fd091fc9" xlink:title="Semiotic">
<ellipse fill="#ffc880" stroke="#000000" stroke-width="2" cx="149.0957" cy="-90" rx="42.4939" ry="18"/>
<text text-anchor="middle" x="149.0957" y="-86.3" font-family="Times,serif" font-size="14.00" fill="#000000">Semiotic</text>
</a>
</g>
</g>
<!-- Interpreter -->
<g id="node2" class="node">
<title>Interpreter</title>
<g id="a_node2"><a xlink:href="http://emmo.info/emmo/top/semiotics#EMMO_0527413c_b286_4e9c_b2d0_03fb2a038dee" xlink:title="Interpreter">
<ellipse fill="#ffffcc" stroke="#000000" stroke-width="2" cx="48.0957" cy="-18" rx="48.1917" ry="18"/>
<text text-anchor="middle" x="48.0957" y="-14.3" font-family="Times,serif" font-size="14.00" fill="#000000">Interpreter</text>
</a>
</g>
</g>
<!-- Interpreter&#45;&gt;Semiotic -->
<g id="edge1" class="edge">
<title>Interpreter&#45;&gt;Semiotic</title>
<path fill="none" stroke="#000000" d="M70.5109,-33.9791C84.7312,-44.1164 103.3078,-57.3591 118.8292,-68.4238"/>
<polygon fill="none" stroke="#000000" points="116.9162,-71.3584 127.0907,-74.3133 120.9796,-65.6585 116.9162,-71.3584"/>
</g>
<!-- Object -->
<g id="node3" class="node">
<title>Object</title>
<g id="a_node3"><a xlink:href="http://emmo.info/emmo/top/semiotics#EMMO_6f5af708_f825_4feb_a0d1_a8d813d3022b" xlink:title="Object">
<ellipse fill="#ffffcc" stroke="#000000" stroke-width="2" cx="149.0957" cy="-18" rx="34.394" ry="18"/>
<text text-anchor="middle" x="149.0957" y="-14.3" font-family="Times,serif" font-size="14.00" fill="#000000">Object</text>
</a>
</g>
</g>
<!-- Object&#45;&gt;Semiotic -->
<g id="edge2" class="edge">
<title>Object&#45;&gt;Semiotic</title>
<path fill="none" stroke="#000000" d="M149.0957,-36.1686C149.0957,-43.869 149.0957,-53.0257 149.0957,-61.5834"/>
<polygon fill="none" stroke="#000000" points="145.5958,-61.5867 149.0957,-71.5867 152.5958,-61.5868 145.5958,-61.5867"/>
</g>
<!-- Sign -->
<g id="node4" class="node">
<title>Sign</title>
<g id="a_node4"><a xlink:href="http://emmo.info/emmo/top/semiotics#EMMO_b21a56ed_f969_4612_a6ec_cb7766f7f31d" xlink:title="Sign">
<ellipse fill="#ffc880" stroke="#000000" stroke-width="2" cx="228.0957" cy="-18" rx="27" ry="18"/>
<text text-anchor="middle" x="228.0957" y="-14.3" font-family="Times,serif" font-size="14.00" fill="#000000">Sign</text>
</a>
</g>
</g>
<!-- Sign&#45;&gt;Semiotic -->
<g id="edge3" class="edge">
<title>Sign&#45;&gt;Semiotic</title>
<path fill="none" stroke="#000000" d="M212.1089,-32.5703C201.3834,-42.3454 187.0213,-55.4349 174.7174,-66.6486"/>
<polygon fill="none" stroke="#000000" points="172.0214,-64.3701 166.9881,-73.693 176.7367,-69.5438 172.0214,-64.3701"/>
</g>
<!-- key1 -->
<g id="node5" class="node">
<title>key1</title>
<text text-anchor="start" x="291.0957" y="-13.8" font-family="Times,serif" font-size="14.00" fill="#000000">isA</text>
</g>
<!-- key2 -->
<g id="node6" class="node">
<title>key2</title>
<text text-anchor="start" x="370.0957" y="-13.8" font-family="Times,serif" font-size="14.00" fill="#000000"> </text>
</g>
<!-- key1&#45;&gt;key2 -->
<g id="edge4" class="edge">
<title>key1:e&#45;&gt;key2:w</title>
<path fill="none" stroke="#000000" d="M312.0957,-19C333.0957,-19 340.8067,-19 357.6538,-19"/>
<polygon fill="none" stroke="#000000" points="358.0958,-22.5001 368.0957,-19 358.0957,-15.5001 358.0958,-22.5001"/>
</g>
</g>
</svg>
