<?xml version="1.0" encoding="UTF-8" standalone="no"?>
<!DOCTYPE svg PUBLIC "-//W3C//DTD SVG 1.1//EN"
 "http://www.w3.org/Graphics/SVG/1.1/DTD/svg11.dtd">
<!-- Generated by graphviz version 2.40.1 (20161225.0304)
 -->
<!-- Title: %3 Pages: 1 -->
<svg width="389pt" height="392pt"
 viewBox="0.00 0.00 389.00 392.00" xmlns="http://www.w3.org/2000/svg" xmlns:xlink="http://www.w3.org/1999/xlink">
<g id="graph0" class="graph" transform="scale(1 1) rotate(0) translate(4 388)">
<title>%3</title>
<polygon fill="#ffffff" stroke="transparent" points="-4,4 -4,-388 385,-388 385,4 -4,4"/>
<!-- hasIndex -->
<g id="node1" class="node">
<title>hasIndex</title>
<g id="a_node1"><a xlink:href="http://emmo.info/emmo/top/semiotics#EMMO_297999d6_c9e4_4262_9536_bd524d1c6e21" xlink:title="hasIndex">
<polygon fill="#0079ba" stroke="#000000" points="65,-210 0,-210 0,-174 65,-174 65,-210"/>
<text text-anchor="middle" x="32.5" y="-188.3" font-family="Times,serif" font-size="14.00" fill="#ffffff">hasIndex</text>
</a>
</g>
</g>
<!-- hasSign -->
<g id="node7" class="node">
<title>hasSign</title>
<g id="a_node7"><a xlink:href="http://emmo.info/emmo/top/semiotics#EMMO_60577dea_9019_4537_ac41_80b0fb563d41" xlink:title="hasSign">
<polygon fill="#0079ba" stroke="#000000" points="201,-297 142,-297 142,-261 201,-261 201,-297"/>
<text text-anchor="middle" x="171.5" y="-275.3" font-family="Times,serif" font-size="14.00" fill="#ffffff">hasSign</text>
</a>
</g>
</g>
<!-- hasIndex&#45;&gt;hasSign -->
<g id="edge6" class="edge">
<title>hasIndex&#45;&gt;hasSign</title>
<path fill="none" stroke="#000000" d="M61.3009,-210.0265C82.3611,-223.208 111.1197,-241.208 133.9772,-255.5145"/>
<polygon fill="none" stroke="#000000" points="132.4025,-258.6579 142.736,-260.9966 136.1164,-252.7243 132.4025,-258.6579"/>
<text text-anchor="middle" x="120" y="-231.8" font-family="Times,serif" font-size="14.00" fill="#000000">isA</text>
</g>
<!-- hasInterpretant -->
<g id="node2" class="node">
<title>hasInterpretant</title>
<g id="a_node2"><a xlink:href="http://emmo.info/emmo/top/semiotics#EMMO_7fb7fe7e_bdf9_4eeb_adad_e384dd5285c6" xlink:title="hasInterpretant">
<polygon fill="#0079ba" stroke="#000000" points="181.5,-210 83.5,-210 83.5,-174 181.5,-174 181.5,-210"/>
<text text-anchor="middle" x="132.5" y="-188.3" font-family="Times,serif" font-size="14.00" fill="#ffffff">hasInterpretant</text>
</a>
</g>
</g>
<!-- hasInterpretant&#45;&gt;hasSign -->
<g id="edge1" class="edge">
<title>hasInterpretant&#45;&gt;hasSign</title>
<path fill="none" stroke="#000000" d="M140.5808,-210.0265C145.9669,-222.0415 153.1475,-238.0599 159.2331,-251.6354"/>
<polygon fill="none" stroke="#000000" points="156.1451,-253.3033 163.4295,-260.9966 162.5327,-250.4398 156.1451,-253.3033"/>
<text text-anchor="middle" x="164" y="-231.8" font-family="Times,serif" font-size="14.00" fill="#000000">isA</text>
</g>
<!-- hasModel -->
<g id="node3" class="node">
<title>hasModel</title>
<g id="a_node3"><a xlink:href="http://emmo.info/emmo/middle/models#EMMO_24c71baf_6db6_48b9_86c8_8c70cf36db0c" xlink:title="hasModel">
<polygon fill="#0079ba" stroke="#000000" points="381,-123 310,-123 310,-87 381,-87 381,-123"/>
<text text-anchor="middle" x="345.5" y="-101.3" font-family="Times,serif" font-size="14.00" fill="#ffffff">hasModel</text>
</a>
</g>
</g>
<!-- hasIcon -->
<g id="node9" class="node">
<title>hasIcon</title>
<g id="a_node9"><a xlink:href="http://emmo.info/emmo/top/semiotics#EMMO_39c3815d_8cae_4c8f_b2ff_eeba24bec455" xlink:title="hasIcon">
<polygon fill="#0079ba" stroke="#000000" points="375,-210 316,-210 316,-174 375,-174 375,-210"/>
<text text-anchor="middle" x="345.5" y="-188.3" font-family="Times,serif" font-size="14.00" fill="#ffffff">hasIcon</text>
</a>
</g>
</g>
<!-- hasModel&#45;&gt;hasIcon -->
<g id="edge2" class="edge">
<title>hasModel&#45;&gt;hasIcon</title>
<path fill="none" stroke="#000000" d="M345.5,-123.0265C345.5,-134.8082 345.5,-150.4393 345.5,-163.8419"/>
<polygon fill="none" stroke="#000000" points="342.0001,-163.9966 345.5,-173.9966 349.0001,-163.9967 342.0001,-163.9966"/>
<text text-anchor="middle" x="355" y="-144.8" font-family="Times,serif" font-size="14.00" fill="#000000">isA</text>
</g>
<!-- hasVariable -->
<g id="node4" class="node">
<title>hasVariable</title>
<g id="a_node4"><a xlink:href="http://emmo.info/emmo/middle/math#EMMO_3446e167_c576_49d6_846c_215bb8878a55" xlink:title="hasVariable">
<polygon fill="#0079ba" stroke="#000000" points="192,-123 111,-123 111,-87 192,-87 192,-123"/>
<text text-anchor="middle" x="151.5" y="-101.3" font-family="Times,serif" font-size="14.00" fill="#ffffff">hasVariable</text>
</a>
</g>
</g>
<!-- hasConvention -->
<g id="node8" class="node">
<title>hasConvention</title>
<g id="a_node8"><a xlink:href="http://emmo.info/emmo/top/semiotics#EMMO_eb3518bf_f799_4f9e_8c3e_ce59af11453b" xlink:title="hasConvention">
<polygon fill="#0079ba" stroke="#000000" points="297.5,-210 199.5,-210 199.5,-174 297.5,-174 297.5,-210"/>
<text text-anchor="middle" x="248.5" y="-188.3" font-family="Times,serif" font-size="14.00" fill="#ffffff">hasConvention</text>
</a>
</g>
</g>
<!-- hasVariable&#45;&gt;hasConvention -->
<g id="edge9" class="edge">
<title>hasVariable&#45;&gt;hasConvention</title>
<path fill="none" stroke="#000000" d="M171.5985,-123.0265C185.7749,-135.7414 204.95,-152.9397 220.6061,-166.9817"/>
<polygon fill="none" stroke="#000000" points="218.6459,-169.9252 228.4273,-173.9966 223.3198,-164.7141 218.6459,-169.9252"/>
<text text-anchor="middle" x="216" y="-144.8" font-family="Times,serif" font-size="14.00" fill="#000000">isA</text>
</g>
<!-- hasPhysicsDimension -->
<g id="node5" class="node">
<title>hasPhysicsDimension</title>
<g id="a_node5"><a xlink:href="http://emmo.info/emmo/middle/units#EMMO_bed1d005_b04e_4a90_94cf_02bc678a8569" xlink:title="hasPhysicsDimension">
<polygon fill="#0079ba" stroke="#000000" points="318.5,-36 182.5,-36 182.5,0 318.5,0 318.5,-36"/>
<text text-anchor="middle" x="250.5" y="-14.3" font-family="Times,serif" font-size="14.00" fill="#ffffff">hasPhysicsDimension</text>
</a>
</g>
</g>
<!-- hasProperty -->
<g id="node6" class="node">
<title>hasProperty</title>
<g id="a_node6"><a xlink:href="http://emmo.info/emmo/middle/properties#EMMO_e1097637_70d2_4895_973f_2396f04fa204" xlink:title="hasProperty">
<polygon fill="#0079ba" stroke="#000000" points="291,-123 210,-123 210,-87 291,-87 291,-123"/>
<text text-anchor="middle" x="250.5" y="-101.3" font-family="Times,serif" font-size="14.00" fill="#ffffff">hasProperty</text>
</a>
</g>
</g>
<!-- hasPhysicsDimension&#45;&gt;hasProperty -->
<g id="edge4" class="edge">
<title>hasPhysicsDimension&#45;&gt;hasProperty</title>
<path fill="none" stroke="#000000" d="M250.5,-36.0265C250.5,-47.8082 250.5,-63.4393 250.5,-76.8419"/>
<polygon fill="none" stroke="#000000" points="247.0001,-76.9966 250.5,-86.9966 254.0001,-76.9967 247.0001,-76.9966"/>
<text text-anchor="middle" x="260" y="-57.8" font-family="Times,serif" font-size="14.00" fill="#000000">isA</text>
</g>
<!-- hasProperty&#45;&gt;hasConvention -->
<g id="edge8" class="edge">
<title>hasProperty&#45;&gt;hasConvention</title>
<path fill="none" stroke="#000000" d="M250.0856,-123.0265C249.8148,-134.8082 249.4554,-150.4393 249.1473,-163.8419"/>
<polygon fill="none" stroke="#000000" points="245.6447,-163.9188 248.9139,-173.9966 252.6429,-164.0798 245.6447,-163.9188"/>
<text text-anchor="middle" x="260" y="-144.8" font-family="Times,serif" font-size="14.00" fill="#000000">isA</text>
</g>
<!-- semiotical -->
<g id="node10" class="node">
<title>semiotical</title>
<g id="a_node10"><a xlink:href="http://emmo.info/emmo/top/semiotics#EMMO_2337e25c_3c60_43fc_a8f9_b11a3f974291" xlink:title="semiotical">
<polygon fill="#0079ba" stroke="#000000" stroke-width="2" points="208,-384 135,-384 135,-348 208,-348 208,-384"/>
<text text-anchor="middle" x="171.5" y="-362.3" font-family="Times,serif" font-size="14.00" fill="#ffffff">semiotical</text>
</a>
</g>
</g>
<!-- hasSign&#45;&gt;semiotical -->
<g id="edge5" class="edge">
<title>hasSign&#45;&gt;semiotical</title>
<path fill="none" stroke="#000000" d="M171.5,-297.0265C171.5,-308.8082 171.5,-324.4393 171.5,-337.8419"/>
<polygon fill="none" stroke="#000000" points="168.0001,-337.9966 171.5,-347.9966 175.0001,-337.9967 168.0001,-337.9966"/>
<text text-anchor="middle" x="181" y="-318.8" font-family="Times,serif" font-size="14.00" fill="#000000">isA</text>
</g>
<!-- hasConvention&#45;&gt;hasSign -->
<g id="edge7" class="edge">
<title>hasConvention&#45;&gt;hasSign</title>
<path fill="none" stroke="#000000" d="M232.5456,-210.0265C221.4986,-222.5081 206.6278,-239.3101 194.3295,-253.2056"/>
<polygon fill="none" stroke="#000000" points="191.4407,-251.1886 187.434,-260.9966 196.6826,-255.828 191.4407,-251.1886"/>
<text text-anchor="middle" x="225" y="-231.8" font-family="Times,serif" font-size="14.00" fill="#000000">isA</text>
</g>
<!-- hasIcon&#45;&gt;hasSign -->
<g id="edge3" class="edge">
<title>hasIcon&#45;&gt;hasSign</title>
<path fill="none" stroke="#000000" d="M315.9833,-206.7584C286.8615,-221.3192 242.1861,-243.657 210.2269,-259.6365"/>
<polygon fill="none" stroke="#000000" points="208.5405,-256.5665 201.1615,-264.1692 211.6711,-262.8275 208.5405,-256.5665"/>
<text text-anchor="middle" x="279" y="-231.8" font-family="Times,serif" font-size="14.00" fill="#000000">isA</text>
</g>
</g>
</svg>
