<?xml version="1.0" encoding="UTF-8" standalone="no"?>
<!DOCTYPE svg PUBLIC "-//W3C//DTD SVG 1.1//EN"
 "http://www.w3.org/Graphics/SVG/1.1/DTD/svg11.dtd">
<!-- Generated by graphviz version 2.40.1 (20161225.0304)
 -->
<!-- Title: %3 Pages: 1 -->
<svg width="407pt" height="116pt"
 viewBox="0.00 0.00 407.45 116.00" xmlns="http://www.w3.org/2000/svg" xmlns:xlink="http://www.w3.org/1999/xlink">
<g id="graph0" class="graph" transform="scale(1 1) rotate(0) translate(4 112)">
<title>%3</title>
<polygon fill="#ffffff" stroke="transparent" points="-4,4 -4,-112 403.4469,-112 403.4469,4 -4,4"/>
<!-- Object -->
<g id="node1" class="node">
<title>Object</title>
<g id="a_node1"><a xlink:href="http://emmo.info/emmo/top/semiotics#EMMO_6f5af708_f825_4feb_a0d1_a8d813d3022b" xlink:title="Object">
<ellipse fill="#ffffcc" stroke="#000000" stroke-width="2" cx="34.4469" cy="-18" rx="34.394" ry="18"/>
<text text-anchor="middle" x="34.4469" y="-14.3" font-family="Times,serif" font-size="14.00" fill="#000000">Object</text>
</a>
</g>
</g>
<!-- Semiotic -->
<g id="node4" class="node">
<title>Semiotic</title>
<g id="a_node4"><a xlink:href="http://emmo.info/emmo/top/semiotics#EMMO_b803f122_4acb_4064_9d71_c1e5fd091fc9" xlink:title="Semiotic">
<ellipse fill="#ffc880" stroke="#000000" stroke-width="2" cx="135.4469" cy="-90" rx="42.4939" ry="18"/>
<text text-anchor="middle" x="135.4469" y="-86.3" font-family="Times,serif" font-size="14.00" fill="#000000">Semiotic</text>
</a>
</g>
</g>
<!-- Object&#45;&gt;Semiotic -->
<g id="edge1" class="edge">
<title>Object&#45;&gt;Semiotic</title>
<path fill="none" stroke="#000000" d="M54.8858,-32.5703C69.4151,-42.9278 89.1641,-57.0063 105.4719,-68.6316"/>
<polygon fill="none" stroke="#000000" points="103.4658,-71.4998 113.6403,-74.4546 107.5291,-65.7999 103.4658,-71.4998"/>
</g>
<!-- Interpreter -->
<g id="node2" class="node">
<title>Interpreter</title>
<g id="a_node2"><a xlink:href="http://emmo.info/emmo/top/semiotics#EMMO_0527413c_b286_4e9c_b2d0_03fb2a038dee" xlink:title="Interpreter">
<ellipse fill="#ffffcc" stroke="#000000" stroke-width="2" cx="135.4469" cy="-18" rx="48.1917" ry="18"/>
<text text-anchor="middle" x="135.4469" y="-14.3" font-family="Times,serif" font-size="14.00" fill="#000000">Interpreter</text>
</a>
</g>
</g>
<!-- Interpreter&#45;&gt;Semiotic -->
<g id="edge3" class="edge">
<title>Interpreter&#45;&gt;Semiotic</title>
<path fill="none" stroke="#000000" d="M135.4469,-36.1686C135.4469,-43.869 135.4469,-53.0257 135.4469,-61.5834"/>
<polygon fill="none" stroke="#000000" points="131.947,-61.5867 135.4469,-71.5867 138.947,-61.5868 131.947,-61.5867"/>
</g>
<!-- Sign -->
<g id="node3" class="node">
<title>Sign</title>
<g id="a_node3"><a xlink:href="http://emmo.info/emmo/top/semiotics#EMMO_b21a56ed_f969_4612_a6ec_cb7766f7f31d" xlink:title="Sign">
<ellipse fill="#ffc880" stroke="#000000" stroke-width="2" cx="228.4469" cy="-18" rx="27" ry="18"/>
<text text-anchor="middle" x="228.4469" y="-14.3" font-family="Times,serif" font-size="14.00" fill="#000000">Sign</text>
</a>
</g>
</g>
<!-- Sign&#45;&gt;Semiotic -->
<g id="edge2" class="edge">
<title>Sign&#45;&gt;Semiotic</title>
<path fill="none" stroke="#000000" d="M210.5156,-31.8823C197.3331,-42.0881 179.1493,-56.1659 163.9801,-67.9099"/>
<polygon fill="none" stroke="#000000" points="161.6784,-65.2654 155.9137,-74.1547 165.9636,-70.8005 161.6784,-65.2654"/>
</g>
<!-- key1 -->
<g id="node5" class="node">
<title>key1</title>
<text text-anchor="start" x="291.4469" y="-13.8" font-family="Times,serif" font-size="14.00" fill="#000000">isA</text>
</g>
<!-- key2 -->
<g id="node6" class="node">
<title>key2</title>
<text text-anchor="start" x="370.4469" y="-13.8" font-family="Times,serif" font-size="14.00" fill="#000000"> </text>
</g>
<!-- key1&#45;&gt;key2 -->
<g id="edge4" class="edge">
<title>key1:e&#45;&gt;key2:w</title>
<path fill="none" stroke="#000000" d="M312.4469,-19C333.4469,-19 341.1579,-19 358.005,-19"/>
<polygon fill="none" stroke="#000000" points="358.447,-22.5001 368.4469,-19 358.4469,-15.5001 358.447,-22.5001"/>
</g>
</g>
</svg>
