<?xml version="1.0" encoding="UTF-8" standalone="no"?>
<!DOCTYPE svg PUBLIC "-//W3C//DTD SVG 1.1//EN"
 "http://www.w3.org/Graphics/SVG/1.1/DTD/svg11.dtd">
<!-- Generated by graphviz version 2.40.1 (20161225.0304)
 -->
<!-- Title: %3 Pages: 1 -->
<svg width="389pt" height="332pt"
 viewBox="0.00 0.00 389.00 332.00" xmlns="http://www.w3.org/2000/svg" xmlns:xlink="http://www.w3.org/1999/xlink">
<g id="graph0" class="graph" transform="scale(1 1) rotate(0) translate(4 328)">
<title>%3</title>
<polygon fill="#ffffff" stroke="transparent" points="-4,4 -4,-328 385,-328 385,4 -4,4"/>
<!-- semiotical -->
<g id="node1" class="node">
<title>semiotical</title>
<g id="a_node1"><a xlink:href="http://emmo.info/emmo/top/semiotics#EMMO_2337e25c_3c60_43fc_a8f9_b11a3f974291" xlink:title="semiotical">
<polygon fill="#0079ba" stroke="#000000" stroke-width="2" points="227,-324 154,-324 154,-288 227,-288 227,-324"/>
<text text-anchor="middle" x="190.5" y="-302.3" font-family="Times,serif" font-size="14.00" fill="#ffffff">semiotical</text>
</a>
</g>
</g>
<!-- hasModel -->
<g id="node2" class="node">
<title>hasModel</title>
<g id="a_node2"><a xlink:href="http://emmo.info/emmo/middle/models#EMMO_24c71baf_6db6_48b9_86c8_8c70cf36db0c" xlink:title="hasModel">
<polygon fill="#0079ba" stroke="#000000" points="381,-108 310,-108 310,-72 381,-72 381,-108"/>
<text text-anchor="middle" x="345.5" y="-86.3" font-family="Times,serif" font-size="14.00" fill="#ffffff">hasModel</text>
</a>
</g>
</g>
<!-- hasIcon -->
<g id="node9" class="node">
<title>hasIcon</title>
<g id="a_node9"><a xlink:href="http://emmo.info/emmo/top/semiotics#EMMO_39c3815d_8cae_4c8f_b2ff_eeba24bec455" xlink:title="hasIcon">
<polygon fill="#0079ba" stroke="#000000" points="375,-180 316,-180 316,-144 375,-144 375,-180"/>
<text text-anchor="middle" x="345.5" y="-158.3" font-family="Times,serif" font-size="14.00" fill="#ffffff">hasIcon</text>
</a>
</g>
</g>
<!-- hasModel&#45;&gt;hasIcon -->
<g id="edge8" class="edge">
<title>hasModel&#45;&gt;hasIcon</title>
<path fill="none" stroke="#000000" d="M345.5,-108.1686C345.5,-115.869 345.5,-125.0257 345.5,-133.5834"/>
<polygon fill="none" stroke="#000000" points="342.0001,-133.5867 345.5,-143.5867 349.0001,-133.5868 342.0001,-133.5867"/>
</g>
<!-- hasSign -->
<g id="node3" class="node">
<title>hasSign</title>
<g id="a_node3"><a xlink:href="http://emmo.info/emmo/top/semiotics#EMMO_60577dea_9019_4537_ac41_80b0fb563d41" xlink:title="hasSign">
<polygon fill="#0079ba" stroke="#000000" points="220,-252 161,-252 161,-216 220,-216 220,-252"/>
<text text-anchor="middle" x="190.5" y="-230.3" font-family="Times,serif" font-size="14.00" fill="#ffffff">hasSign</text>
</a>
</g>
</g>
<!-- hasSign&#45;&gt;semiotical -->
<g id="edge1" class="edge">
<title>hasSign&#45;&gt;semiotical</title>
<path fill="none" stroke="#000000" d="M190.5,-252.1686C190.5,-259.869 190.5,-269.0257 190.5,-277.5834"/>
<polygon fill="none" stroke="#000000" points="187.0001,-277.5867 190.5,-287.5867 194.0001,-277.5868 187.0001,-277.5867"/>
</g>
<!-- hasIndex -->
<g id="node4" class="node">
<title>hasIndex</title>
<g id="a_node4"><a xlink:href="http://emmo.info/emmo/top/semiotics#EMMO_297999d6_c9e4_4262_9536_bd524d1c6e21" xlink:title="hasIndex">
<polygon fill="#0079ba" stroke="#000000" points="65,-180 0,-180 0,-144 65,-144 65,-180"/>
<text text-anchor="middle" x="32.5" y="-158.3" font-family="Times,serif" font-size="14.00" fill="#ffffff">hasIndex</text>
</a>
</g>
</g>
<!-- hasIndex&#45;&gt;hasSign -->
<g id="edge9" class="edge">
<title>hasIndex&#45;&gt;hasSign</title>
<path fill="none" stroke="#000000" d="M65.2377,-176.9184C90.274,-188.3274 124.8817,-204.098 151.3775,-216.172"/>
<polygon fill="none" stroke="#000000" points="150.1883,-219.4763 160.7394,-220.4382 153.091,-213.1065 150.1883,-219.4763"/>
</g>
<!-- hasConvention -->
<g id="node5" class="node">
<title>hasConvention</title>
<g id="a_node5"><a xlink:href="http://emmo.info/emmo/top/semiotics#EMMO_eb3518bf_f799_4f9e_8c3e_ce59af11453b" xlink:title="hasConvention">
<polygon fill="#0079ba" stroke="#000000" points="181.5,-180 83.5,-180 83.5,-144 181.5,-144 181.5,-180"/>
<text text-anchor="middle" x="132.5" y="-158.3" font-family="Times,serif" font-size="14.00" fill="#ffffff">hasConvention</text>
</a>
</g>
</g>
<!-- hasConvention&#45;&gt;hasSign -->
<g id="edge2" class="edge">
<title>hasConvention&#45;&gt;hasSign</title>
<path fill="none" stroke="#000000" d="M147.1358,-180.1686C153.8161,-188.4614 161.8568,-198.443 169.1904,-207.5467"/>
<polygon fill="none" stroke="#000000" points="166.6681,-209.9948 175.6671,-215.5867 172.1194,-205.6035 166.6681,-209.9948"/>
</g>
<!-- hasInterpretant -->
<g id="node6" class="node">
<title>hasInterpretant</title>
<g id="a_node6"><a xlink:href="http://emmo.info/emmo/top/semiotics#EMMO_7fb7fe7e_bdf9_4eeb_adad_e384dd5285c6" xlink:title="hasInterpretant">
<polygon fill="#0079ba" stroke="#000000" points="297.5,-180 199.5,-180 199.5,-144 297.5,-144 297.5,-180"/>
<text text-anchor="middle" x="248.5" y="-158.3" font-family="Times,serif" font-size="14.00" fill="#ffffff">hasInterpretant</text>
</a>
</g>
</g>
<!-- hasInterpretant&#45;&gt;hasSign -->
<g id="edge3" class="edge">
<title>hasInterpretant&#45;&gt;hasSign</title>
<path fill="none" stroke="#000000" d="M233.8642,-180.1686C227.1839,-188.4614 219.1432,-198.443 211.8096,-207.5467"/>
<polygon fill="none" stroke="#000000" points="208.8806,-205.6035 205.3329,-215.5867 214.3319,-209.9948 208.8806,-205.6035"/>
</g>
<!-- hasProperty -->
<g id="node7" class="node">
<title>hasProperty</title>
<g id="a_node7"><a xlink:href="http://emmo.info/emmo/middle/properties#EMMO_e1097637_70d2_4895_973f_2396f04fa204" xlink:title="hasProperty">
<polygon fill="#0079ba" stroke="#000000" points="123,-108 42,-108 42,-72 123,-72 123,-108"/>
<text text-anchor="middle" x="82.5" y="-86.3" font-family="Times,serif" font-size="14.00" fill="#ffffff">hasProperty</text>
</a>
</g>
</g>
<!-- hasProperty&#45;&gt;hasConvention -->
<g id="edge7" class="edge">
<title>hasProperty&#45;&gt;hasConvention</title>
<path fill="none" stroke="#000000" d="M95.1171,-108.1686C100.8172,-116.3768 107.6663,-126.2394 113.9359,-135.2677"/>
<polygon fill="none" stroke="#000000" points="111.1342,-137.3694 119.713,-143.5867 116.8838,-133.3766 111.1342,-137.3694"/>
</g>
<!-- hasPhysicsDimension -->
<g id="node8" class="node">
<title>hasPhysicsDimension</title>
<g id="a_node8"><a xlink:href="http://emmo.info/emmo/middle/metrology#EMMO_bed1d005_b04e_4a90_94cf_02bc678a8569" xlink:title="hasPhysicsDimension">
<polygon fill="#0079ba" stroke="#000000" points="150.5,-36 14.5,-36 14.5,0 150.5,0 150.5,-36"/>
<text text-anchor="middle" x="82.5" y="-14.3" font-family="Times,serif" font-size="14.00" fill="#ffffff">hasPhysicsDimension</text>
</a>
</g>
</g>
<!-- hasPhysicsDimension&#45;&gt;hasProperty -->
<g id="edge6" class="edge">
<title>hasPhysicsDimension&#45;&gt;hasProperty</title>
<path fill="none" stroke="#000000" d="M82.5,-36.1686C82.5,-43.869 82.5,-53.0257 82.5,-61.5834"/>
<polygon fill="none" stroke="#000000" points="79.0001,-61.5867 82.5,-71.5867 86.0001,-61.5868 79.0001,-61.5867"/>
</g>
<!-- hasIcon&#45;&gt;hasSign -->
<g id="edge4" class="edge">
<title>hasIcon&#45;&gt;hasSign</title>
<path fill="none" stroke="#000000" d="M315.9808,-175.7121C291.3879,-187.1359 256.1677,-203.4963 229.2977,-215.9778"/>
<polygon fill="none" stroke="#000000" points="227.7676,-212.8293 220.1728,-220.2165 230.7166,-219.1779 227.7676,-212.8293"/>
</g>
<!-- hasVariable -->
<g id="node10" class="node">
<title>hasVariable</title>
<g id="a_node10"><a xlink:href="http://emmo.info/emmo/middle/math#EMMO_3446e167_c576_49d6_846c_215bb8878a55" xlink:title="hasVariable">
<polygon fill="#0079ba" stroke="#000000" points="222,-108 141,-108 141,-72 222,-72 222,-108"/>
<text text-anchor="middle" x="181.5" y="-86.3" font-family="Times,serif" font-size="14.00" fill="#ffffff">hasVariable</text>
</a>
</g>
</g>
<!-- hasVariable&#45;&gt;hasConvention -->
<g id="edge5" class="edge">
<title>hasVariable&#45;&gt;hasConvention</title>
<path fill="none" stroke="#000000" d="M169.1352,-108.1686C163.5491,-116.3768 156.837,-126.2394 150.6928,-135.2677"/>
<polygon fill="none" stroke="#000000" points="147.764,-133.3504 145.0313,-143.5867 153.551,-137.2888 147.764,-133.3504"/>
</g>
<!-- key1 -->
<g id="node11" class="node">
<title>key1</title>
<text text-anchor="start" x="186.5" y="-13.8" font-family="Times,serif" font-size="14.00" fill="#000000">isA</text>
</g>
<!-- key2 -->
<g id="node12" class="node">
<title>key2</title>
<text text-anchor="start" x="265.5" y="-13.8" font-family="Times,serif" font-size="14.00" fill="#000000"> </text>
</g>
<!-- key1&#45;&gt;key2 -->
<g id="edge10" class="edge">
<title>key1:e&#45;&gt;key2:w</title>
<path fill="none" stroke="#000000" d="M207.5,-19C228.5,-19 236.2109,-19 253.0581,-19"/>
<polygon fill="none" stroke="#000000" points="253.5,-22.5001 263.5,-19 253.5,-15.5001 253.5,-22.5001"/>
</g>
</g>
</svg>
