<?xml version="1.0" encoding="UTF-8" standalone="no"?>
<!DOCTYPE svg PUBLIC "-//W3C//DTD SVG 1.1//EN"
 "http://www.w3.org/Graphics/SVG/1.1/DTD/svg11.dtd">
<!-- Generated by graphviz version 2.40.1 (20161225.0304)
 -->
<!-- Title: %3 Pages: 1 -->
<svg width="773pt" height="116pt"
 viewBox="0.00 0.00 773.50 116.00" xmlns="http://www.w3.org/2000/svg" xmlns:xlink="http://www.w3.org/1999/xlink">
<g id="graph0" class="graph" transform="scale(1 1) rotate(0) translate(4 112)">
<title>%3</title>
<polygon fill="#ffffff" stroke="transparent" points="-4,4 -4,-112 769.4971,-112 769.4971,4 -4,4"/>
<!-- Metre -->
<g id="node1" class="node">
<title>Metre</title>
<g id="a_node1"><a xlink:href="http://emmo.info/emmo/middle/siunits#EMMO_7db11dbf_a643_464a_9b56_07eabcc3e9c5" xlink:title="Metre">
<ellipse fill="#ffffcc" stroke="#000000" cx="32.4971" cy="-18" rx="32.4942" ry="18"/>
<text text-anchor="middle" x="32.4971" y="-14.3" font-family="Times,serif" font-size="14.00" fill="#000000">Metre</text>
</a>
</g>
</g>
<!-- SIBaseUnit -->
<g id="node6" class="node">
<title>SIBaseUnit</title>
<g id="a_node6"><a xlink:href="http://emmo.info/emmo/middle/siunits#EMMO_3a185e6c_9e19_4776_b583_19c978156aa0" xlink:title="SIBaseUnit">
<ellipse fill="#ffffcc" stroke="#000000" stroke-width="2" cx="283.4971" cy="-90" rx="51.1914" ry="18"/>
<text text-anchor="middle" x="283.4971" y="-86.3" font-family="Times,serif" font-size="14.00" fill="#000000">SIBaseUnit</text>
</a>
</g>
</g>
<!-- Metre&#45;&gt;SIBaseUnit -->
<g id="edge1" class="edge">
<title>Metre&#45;&gt;SIBaseUnit</title>
<path fill="none" stroke="#000000" d="M57.5734,-29.4825C63.0879,-31.8001 68.9412,-34.104 74.4971,-36 126.213,-53.6486 186.8193,-68.7112 229.4112,-78.4081"/>
<polygon fill="none" stroke="#000000" points="228.7688,-81.8511 239.2936,-80.6354 230.3079,-75.0224 228.7688,-81.8511"/>
</g>
<!-- Kelvin -->
<g id="node2" class="node">
<title>Kelvin</title>
<g id="a_node2"><a xlink:href="http://emmo.info/emmo/middle/siunits#EMMO_2e5e45fc_f52c_4294_bdc2_5ed7a06dfce7" xlink:title="Kelvin">
<ellipse fill="#ffffcc" stroke="#000000" cx="117.4971" cy="-18" rx="34.394" ry="18"/>
<text text-anchor="middle" x="117.4971" y="-14.3" font-family="Times,serif" font-size="14.00" fill="#000000">Kelvin</text>
</a>
</g>
</g>
<!-- Kelvin&#45;&gt;SIBaseUnit -->
<g id="edge3" class="edge">
<title>Kelvin&#45;&gt;SIBaseUnit</title>
<path fill="none" stroke="#000000" d="M144.1679,-29.568C170.4662,-40.9745 211.0496,-58.577 241.6461,-71.8477"/>
<polygon fill="none" stroke="#000000" points="240.6314,-75.2226 251.1983,-75.9909 243.4168,-68.8007 240.6314,-75.2226"/>
</g>
<!-- Mole -->
<g id="node3" class="node">
<title>Mole</title>
<g id="a_node3"><a xlink:href="http://emmo.info/emmo/middle/siunits#EMMO_df6eeb01_1b41_4bd8_9257_a04fbd7cf000" xlink:title="Mole">
<ellipse fill="#ffffcc" stroke="#000000" cx="199.4971" cy="-18" rx="29.795" ry="18"/>
<text text-anchor="middle" x="199.4971" y="-14.3" font-family="Times,serif" font-size="14.00" fill="#000000">Mole</text>
</a>
</g>
</g>
<!-- Mole&#45;&gt;SIBaseUnit -->
<g id="edge7" class="edge">
<title>Mole&#45;&gt;SIBaseUnit</title>
<path fill="none" stroke="#000000" d="M216.902,-32.9184C228.2835,-42.674 243.3855,-55.6186 256.3305,-66.7143"/>
<polygon fill="none" stroke="#000000" points="254.1889,-69.4885 264.0593,-73.339 258.7445,-64.1737 254.1889,-69.4885"/>
</g>
<!-- Second -->
<g id="node4" class="node">
<title>Second</title>
<g id="a_node4"><a xlink:href="http://emmo.info/emmo/middle/siunits#EMMO_314ba716_2d3d_4462_9a4f_d3419ae1df43" xlink:title="Second">
<ellipse fill="#ffffcc" stroke="#000000" cx="283.4971" cy="-18" rx="36.2938" ry="18"/>
<text text-anchor="middle" x="283.4971" y="-14.3" font-family="Times,serif" font-size="14.00" fill="#000000">Second</text>
</a>
</g>
</g>
<!-- Second&#45;&gt;SIBaseUnit -->
<g id="edge2" class="edge">
<title>Second&#45;&gt;SIBaseUnit</title>
<path fill="none" stroke="#000000" d="M283.4971,-36.1686C283.4971,-43.869 283.4971,-53.0257 283.4971,-61.5834"/>
<polygon fill="none" stroke="#000000" points="279.9972,-61.5867 283.4971,-71.5867 286.9972,-61.5868 279.9972,-61.5867"/>
</g>
<!-- Candela -->
<g id="node5" class="node">
<title>Candela</title>
<g id="a_node5"><a xlink:href="http://emmo.info/emmo/middle/siunits#EMMO_8d00f093_3f45_4ea3_986c_b3545c3c2f4c" xlink:title="Candela">
<ellipse fill="#ffffcc" stroke="#000000" cx="377.4971" cy="-18" rx="39.7935" ry="18"/>
<text text-anchor="middle" x="377.4971" y="-14.3" font-family="Times,serif" font-size="14.00" fill="#000000">Candela</text>
</a>
</g>
</g>
<!-- Candela&#45;&gt;SIBaseUnit -->
<g id="edge5" class="edge">
<title>Candela&#45;&gt;SIBaseUnit</title>
<path fill="none" stroke="#000000" d="M357.1005,-33.6229C344.2814,-43.4418 327.5254,-56.2762 313.2396,-67.2185"/>
<polygon fill="none" stroke="#000000" points="310.9727,-64.5461 305.1622,-73.4055 315.2293,-70.1033 310.9727,-64.5461"/>
</g>
<!-- Ampere -->
<g id="node7" class="node">
<title>Ampere</title>
<g id="a_node7"><a xlink:href="http://emmo.info/emmo/middle/siunits#EMMO_db5dd38d_ac79_4af6_8782_fee7e7150ae8" xlink:title="Ampere">
<ellipse fill="#ffffcc" stroke="#000000" cx="474.4971" cy="-18" rx="39.7935" ry="18"/>
<text text-anchor="middle" x="474.4971" y="-14.3" font-family="Times,serif" font-size="14.00" fill="#000000">Ampere</text>
</a>
</g>
</g>
<!-- Ampere&#45;&gt;SIBaseUnit -->
<g id="edge4" class="edge">
<title>Ampere&#45;&gt;SIBaseUnit</title>
<path fill="none" stroke="#000000" d="M443.8097,-29.568C412.5795,-41.3407 363.8407,-59.7134 328.2973,-73.112"/>
<polygon fill="none" stroke="#000000" points="326.7703,-69.9471 318.6476,-76.7495 329.2395,-76.4972 326.7703,-69.9471"/>
</g>
<!-- Kilogram -->
<g id="node8" class="node">
<title>Kilogram</title>
<g id="a_node8"><a xlink:href="http://emmo.info/emmo/middle/siunits#EMMO_9bfd6f1e_b0ce_459c_beb7_8f1f41708bba" xlink:title="Kilogram">
<ellipse fill="#ffffcc" stroke="#000000" cx="576.4971" cy="-18" rx="44.6926" ry="18"/>
<text text-anchor="middle" x="576.4971" y="-14.3" font-family="Times,serif" font-size="14.00" fill="#000000">Kilogram</text>
</a>
</g>
</g>
<!-- Kilogram&#45;&gt;SIBaseUnit -->
<g id="edge6" class="edge">
<title>Kilogram&#45;&gt;SIBaseUnit</title>
<path fill="none" stroke="#000000" d="M542.7359,-30.0622C536.3815,-32.1625 529.7644,-34.236 523.4971,-36 460.9361,-53.6081 387.947,-69.3636 339.0338,-79.247"/>
<polygon fill="none" stroke="#000000" points="338.0901,-75.8665 328.9741,-81.2655 339.4672,-82.7298 338.0901,-75.8665"/>
</g>
<!-- key1 -->
<g id="node9" class="node">
<title>key1</title>
<text text-anchor="start" x="657.4971" y="-13.8" font-family="Times,serif" font-size="14.00" fill="#000000">isA</text>
</g>
<!-- key2 -->
<g id="node10" class="node">
<title>key2</title>
<text text-anchor="start" x="736.4971" y="-13.8" font-family="Times,serif" font-size="14.00" fill="#000000"> </text>
</g>
<!-- key1&#45;&gt;key2 -->
<g id="edge8" class="edge">
<title>key1:e&#45;&gt;key2:w</title>
<path fill="none" stroke="#000000" d="M678.4971,-19C699.4971,-19 707.2081,-19 724.0552,-19"/>
<polygon fill="none" stroke="#000000" points="724.4972,-22.5001 734.4971,-19 724.4971,-15.5001 724.4972,-22.5001"/>
</g>
</g>
</svg>
