<?xml version="1.0" encoding="UTF-8" standalone="no"?>
<!DOCTYPE svg PUBLIC "-//W3C//DTD SVG 1.1//EN"
 "http://www.w3.org/Graphics/SVG/1.1/DTD/svg11.dtd">
<!-- Generated by graphviz version 2.40.1 (20161225.0304)
 -->
<!-- Title: %3 Pages: 1 -->
<svg width="773pt" height="116pt"
 viewBox="0.00 0.00 773.40 116.00" xmlns="http://www.w3.org/2000/svg" xmlns:xlink="http://www.w3.org/1999/xlink">
<g id="graph0" class="graph" transform="scale(1 1) rotate(0) translate(4 112)">
<title>%3</title>
<polygon fill="#ffffff" stroke="transparent" points="-4,4 -4,-112 769.3968,-112 769.3968,4 -4,4"/>
<!-- Second -->
<g id="node1" class="node">
<title>Second</title>
<g id="a_node1"><a xlink:href="http://emmo.info/emmo/middle/siunits#EMMO_314ba716_2d3d_4462_9a4f_d3419ae1df43" xlink:title="Second">
<ellipse fill="#ffffcc" stroke="#000000" cx="36.3968" cy="-18" rx="36.2938" ry="18"/>
<text text-anchor="middle" x="36.3968" y="-14.3" font-family="Times,serif" font-size="14.00" fill="#000000">Second</text>
</a>
</g>
</g>
<!-- SIBaseUnit -->
<g id="node3" class="node">
<title>SIBaseUnit</title>
<g id="a_node3"><a xlink:href="http://emmo.info/emmo/middle/siunits#EMMO_3a185e6c_9e19_4776_b583_19c978156aa0" xlink:title="SIBaseUnit">
<ellipse fill="#ffffcc" stroke="#000000" stroke-width="2" cx="305.3968" cy="-90" rx="51.1914" ry="18"/>
<text text-anchor="middle" x="305.3968" y="-86.3" font-family="Times,serif" font-size="14.00" fill="#000000">SIBaseUnit</text>
</a>
</g>
</g>
<!-- Second&#45;&gt;SIBaseUnit -->
<g id="edge5" class="edge">
<title>Second&#45;&gt;SIBaseUnit</title>
<path fill="none" stroke="#000000" d="M64.2556,-29.866C69.8774,-32.0552 75.7849,-34.2114 81.3968,-36 138.0914,-54.0691 204.5286,-69.3717 250.2449,-79.0221"/>
<polygon fill="none" stroke="#000000" points="249.7441,-82.493 260.2487,-81.1135 251.1766,-75.6412 249.7441,-82.493"/>
</g>
<!-- Mole -->
<g id="node2" class="node">
<title>Mole</title>
<g id="a_node2"><a xlink:href="http://emmo.info/emmo/middle/siunits#EMMO_df6eeb01_1b41_4bd8_9257_a04fbd7cf000" xlink:title="Mole">
<ellipse fill="#ffffcc" stroke="#000000" cx="120.3968" cy="-18" rx="29.795" ry="18"/>
<text text-anchor="middle" x="120.3968" y="-14.3" font-family="Times,serif" font-size="14.00" fill="#000000">Mole</text>
</a>
</g>
</g>
<!-- Mole&#45;&gt;SIBaseUnit -->
<g id="edge2" class="edge">
<title>Mole&#45;&gt;SIBaseUnit</title>
<path fill="none" stroke="#000000" d="M144.1914,-29.3402C149.183,-31.618 154.4376,-33.9422 159.3968,-36 192.4758,-49.7264 230.4309,-63.7119 259.3497,-74.01"/>
<polygon fill="none" stroke="#000000" points="258.1957,-77.3143 268.7905,-77.3554 260.5338,-70.7163 258.1957,-77.3143"/>
</g>
<!-- Candela -->
<g id="node4" class="node">
<title>Candela</title>
<g id="a_node4"><a xlink:href="http://emmo.info/emmo/middle/siunits#EMMO_8d00f093_3f45_4ea3_986c_b3545c3c2f4c" xlink:title="Candela">
<ellipse fill="#ffffcc" stroke="#000000" cx="208.3968" cy="-18" rx="39.7935" ry="18"/>
<text text-anchor="middle" x="208.3968" y="-14.3" font-family="Times,serif" font-size="14.00" fill="#000000">Candela</text>
</a>
</g>
</g>
<!-- Candela&#45;&gt;SIBaseUnit -->
<g id="edge7" class="edge">
<title>Candela&#45;&gt;SIBaseUnit</title>
<path fill="none" stroke="#000000" d="M229.4443,-33.6229C242.7657,-43.5109 260.207,-56.4571 275.0161,-67.4494"/>
<polygon fill="none" stroke="#000000" points="273.2645,-70.508 283.3803,-73.6579 277.4366,-64.8872 273.2645,-70.508"/>
</g>
<!-- Ampere -->
<g id="node5" class="node">
<title>Ampere</title>
<g id="a_node5"><a xlink:href="http://emmo.info/emmo/middle/siunits#EMMO_db5dd38d_ac79_4af6_8782_fee7e7150ae8" xlink:title="Ampere">
<ellipse fill="#ffffcc" stroke="#000000" cx="305.3968" cy="-18" rx="39.7935" ry="18"/>
<text text-anchor="middle" x="305.3968" y="-14.3" font-family="Times,serif" font-size="14.00" fill="#000000">Ampere</text>
</a>
</g>
</g>
<!-- Ampere&#45;&gt;SIBaseUnit -->
<g id="edge6" class="edge">
<title>Ampere&#45;&gt;SIBaseUnit</title>
<path fill="none" stroke="#000000" d="M305.3968,-36.1686C305.3968,-43.869 305.3968,-53.0257 305.3968,-61.5834"/>
<polygon fill="none" stroke="#000000" points="301.8969,-61.5867 305.3968,-71.5867 308.8969,-61.5868 301.8969,-61.5867"/>
</g>
<!-- Kilogram -->
<g id="node6" class="node">
<title>Kilogram</title>
<g id="a_node6"><a xlink:href="http://emmo.info/emmo/middle/siunits#EMMO_9bfd6f1e_b0ce_459c_beb7_8f1f41708bba" xlink:title="Kilogram">
<ellipse fill="#ffffcc" stroke="#000000" cx="407.3968" cy="-18" rx="44.6926" ry="18"/>
<text text-anchor="middle" x="407.3968" y="-14.3" font-family="Times,serif" font-size="14.00" fill="#000000">Kilogram</text>
</a>
</g>
</g>
<!-- Kilogram&#45;&gt;SIBaseUnit -->
<g id="edge1" class="edge">
<title>Kilogram&#45;&gt;SIBaseUnit</title>
<path fill="none" stroke="#000000" d="M385.0124,-33.8007C370.8611,-43.7899 352.3636,-56.8469 336.7604,-67.861"/>
<polygon fill="none" stroke="#000000" points="334.5869,-65.111 328.4356,-73.7373 338.6237,-70.8298 334.5869,-65.111"/>
</g>
<!-- Metre -->
<g id="node7" class="node">
<title>Metre</title>
<g id="a_node7"><a xlink:href="http://emmo.info/emmo/middle/siunits#EMMO_7db11dbf_a643_464a_9b56_07eabcc3e9c5" xlink:title="Metre">
<ellipse fill="#ffffcc" stroke="#000000" cx="502.3968" cy="-18" rx="32.4942" ry="18"/>
<text text-anchor="middle" x="502.3968" y="-14.3" font-family="Times,serif" font-size="14.00" fill="#000000">Metre</text>
</a>
</g>
</g>
<!-- Metre&#45;&gt;SIBaseUnit -->
<g id="edge3" class="edge">
<title>Metre&#45;&gt;SIBaseUnit</title>
<path fill="none" stroke="#000000" d="M476.9406,-29.5543C471.8246,-31.7692 466.4633,-34.0146 461.3968,-36 425.5197,-50.0587 384.2984,-64.245 353.2422,-74.5471"/>
<polygon fill="none" stroke="#000000" points="351.9351,-71.2927 343.5358,-77.7504 354.129,-77.9401 351.9351,-71.2927"/>
</g>
<!-- Kelvin -->
<g id="node8" class="node">
<title>Kelvin</title>
<g id="a_node8"><a xlink:href="http://emmo.info/emmo/middle/siunits#EMMO_2e5e45fc_f52c_4294_bdc2_5ed7a06dfce7" xlink:title="Kelvin">
<ellipse fill="#ffffcc" stroke="#000000" cx="587.3968" cy="-18" rx="34.394" ry="18"/>
<text text-anchor="middle" x="587.3968" y="-14.3" font-family="Times,serif" font-size="14.00" fill="#000000">Kelvin</text>
</a>
</g>
</g>
<!-- Kelvin&#45;&gt;SIBaseUnit -->
<g id="edge4" class="edge">
<title>Kelvin&#45;&gt;SIBaseUnit</title>
<path fill="none" stroke="#000000" d="M560.663,-29.7575C555.0234,-32.0052 549.0637,-34.2115 543.3968,-36 482.2873,-55.2868 410.3138,-70.6325 361.6421,-79.962"/>
<polygon fill="none" stroke="#000000" points="360.7956,-76.5601 351.6221,-81.8608 362.0989,-83.4377 360.7956,-76.5601"/>
</g>
<!-- key1 -->
<g id="node9" class="node">
<title>key1</title>
<text text-anchor="start" x="657.3968" y="-13.8" font-family="Times,serif" font-size="14.00" fill="#000000">isA</text>
</g>
<!-- key2 -->
<g id="node10" class="node">
<title>key2</title>
<text text-anchor="start" x="736.3968" y="-13.8" font-family="Times,serif" font-size="14.00" fill="#000000"> </text>
</g>
<!-- key1&#45;&gt;key2 -->
<g id="edge8" class="edge">
<title>key1:e&#45;&gt;key2:w</title>
<path fill="none" stroke="#000000" d="M678.3968,-19C699.3968,-19 707.1077,-19 723.9549,-19"/>
<polygon fill="none" stroke="#000000" points="724.3968,-22.5001 734.3968,-19 724.3967,-15.5001 724.3968,-22.5001"/>
</g>
</g>
</svg>
