<?xml version="1.0" encoding="UTF-8" standalone="no"?>
<!DOCTYPE svg PUBLIC "-//W3C//DTD SVG 1.1//EN"
 "http://www.w3.org/Graphics/SVG/1.1/DTD/svg11.dtd">
<!-- Generated by graphviz version 2.40.1 (20161225.0304)
 -->
<!-- Title: %3 Pages: 1 -->
<svg width="775pt" height="116pt"
 viewBox="0.00 0.00 774.85 116.00" xmlns="http://www.w3.org/2000/svg" xmlns:xlink="http://www.w3.org/1999/xlink">
<g id="graph0" class="graph" transform="scale(1 1) rotate(0) translate(4 112)">
<title>%3</title>
<polygon fill="#ffffff" stroke="transparent" points="-4,4 -4,-112 770.846,-112 770.846,4 -4,4"/>
<!-- Kilogram -->
<g id="node1" class="node">
<title>Kilogram</title>
<g id="a_node1"><a xlink:href="http://emmo.info/emmo/middle/siunits#EMMO_9bfd6f1e_b0ce_459c_beb7_8f1f41708bba" xlink:title="Kilogram">
<ellipse fill="#ffffcc" stroke="#000000" cx="44.846" cy="-18" rx="44.6926" ry="18"/>
<text text-anchor="middle" x="44.846" y="-14.3" font-family="Times,serif" font-size="14.00" fill="#000000">Kilogram</text>
</a>
</g>
</g>
<!-- SIBaseUnit -->
<g id="node7" class="node">
<title>SIBaseUnit</title>
<g id="a_node7"><a xlink:href="http://emmo.info/emmo/middle/siunits#EMMO_3a185e6c_9e19_4776_b583_19c978156aa0" xlink:title="SIBaseUnit">
<ellipse fill="#ffffcc" stroke="#000000" stroke-width="2" cx="323.846" cy="-90" rx="51.1914" ry="18"/>
<text text-anchor="middle" x="323.846" y="-86.3" font-family="Times,serif" font-size="14.00" fill="#000000">SIBaseUnit</text>
</a>
</g>
</g>
<!-- Kilogram&#45;&gt;SIBaseUnit -->
<g id="edge7" class="edge">
<title>Kilogram&#45;&gt;SIBaseUnit</title>
<path fill="none" stroke="#000000" d="M78.6265,-29.9945C84.9791,-32.1013 91.5906,-34.1946 97.846,-36 156.0401,-52.7951 223.7128,-68.4647 269.7278,-78.5517"/>
<polygon fill="none" stroke="#000000" points="269.2672,-82.0334 279.7831,-80.7426 270.7575,-75.1938 269.2672,-82.0334"/>
</g>
<!-- Candela -->
<g id="node2" class="node">
<title>Candela</title>
<g id="a_node2"><a xlink:href="http://emmo.info/emmo/middle/siunits#EMMO_8d00f093_3f45_4ea3_986c_b3545c3c2f4c" xlink:title="Candela">
<ellipse fill="#ffffcc" stroke="#000000" cx="146.846" cy="-18" rx="39.7935" ry="18"/>
<text text-anchor="middle" x="146.846" y="-14.3" font-family="Times,serif" font-size="14.00" fill="#000000">Candela</text>
</a>
</g>
</g>
<!-- Candela&#45;&gt;SIBaseUnit -->
<g id="edge6" class="edge">
<title>Candela&#45;&gt;SIBaseUnit</title>
<path fill="none" stroke="#000000" d="M176.4718,-30.0512C204.9225,-41.6243 248.2296,-59.2408 280.5457,-72.3863"/>
<polygon fill="none" stroke="#000000" points="279.6115,-75.7848 290.1933,-76.3108 282.2492,-69.3007 279.6115,-75.7848"/>
</g>
<!-- Metre -->
<g id="node3" class="node">
<title>Metre</title>
<g id="a_node3"><a xlink:href="http://emmo.info/emmo/middle/siunits#EMMO_7db11dbf_a643_464a_9b56_07eabcc3e9c5" xlink:title="Metre">
<ellipse fill="#ffffcc" stroke="#000000" cx="236.846" cy="-18" rx="32.4942" ry="18"/>
<text text-anchor="middle" x="236.846" y="-14.3" font-family="Times,serif" font-size="14.00" fill="#000000">Metre</text>
</a>
</g>
</g>
<!-- Metre&#45;&gt;SIBaseUnit -->
<g id="edge5" class="edge">
<title>Metre&#45;&gt;SIBaseUnit</title>
<path fill="none" stroke="#000000" d="M255.2965,-33.2693C267.0274,-42.9777 282.4453,-55.7373 295.6876,-66.6965"/>
<polygon fill="none" stroke="#000000" points="293.6638,-69.5648 303.5993,-73.2441 298.1268,-64.172 293.6638,-69.5648"/>
</g>
<!-- Second -->
<g id="node4" class="node">
<title>Second</title>
<g id="a_node4"><a xlink:href="http://emmo.info/emmo/middle/siunits#EMMO_314ba716_2d3d_4462_9a4f_d3419ae1df43" xlink:title="Second">
<ellipse fill="#ffffcc" stroke="#000000" cx="323.846" cy="-18" rx="36.2938" ry="18"/>
<text text-anchor="middle" x="323.846" y="-14.3" font-family="Times,serif" font-size="14.00" fill="#000000">Second</text>
</a>
</g>
</g>
<!-- Second&#45;&gt;SIBaseUnit -->
<g id="edge2" class="edge">
<title>Second&#45;&gt;SIBaseUnit</title>
<path fill="none" stroke="#000000" d="M323.846,-36.1686C323.846,-43.869 323.846,-53.0257 323.846,-61.5834"/>
<polygon fill="none" stroke="#000000" points="320.3461,-61.5867 323.846,-71.5867 327.3461,-61.5868 320.3461,-61.5867"/>
</g>
<!-- Kelvin -->
<g id="node5" class="node">
<title>Kelvin</title>
<g id="a_node5"><a xlink:href="http://emmo.info/emmo/middle/siunits#EMMO_2e5e45fc_f52c_4294_bdc2_5ed7a06dfce7" xlink:title="Kelvin">
<ellipse fill="#ffffcc" stroke="#000000" cx="412.846" cy="-18" rx="34.394" ry="18"/>
<text text-anchor="middle" x="412.846" y="-14.3" font-family="Times,serif" font-size="14.00" fill="#000000">Kelvin</text>
</a>
</g>
</g>
<!-- Kelvin&#45;&gt;SIBaseUnit -->
<g id="edge3" class="edge">
<title>Kelvin&#45;&gt;SIBaseUnit</title>
<path fill="none" stroke="#000000" d="M393.9714,-33.2693C381.9708,-42.9777 366.1985,-55.7373 352.6517,-66.6965"/>
<polygon fill="none" stroke="#000000" points="350.1313,-64.2335 344.5582,-73.2441 354.534,-69.6757 350.1313,-64.2335"/>
</g>
<!-- Mole -->
<g id="node6" class="node">
<title>Mole</title>
<g id="a_node6"><a xlink:href="http://emmo.info/emmo/middle/siunits#EMMO_df6eeb01_1b41_4bd8_9257_a04fbd7cf000" xlink:title="Mole">
<ellipse fill="#ffffcc" stroke="#000000" cx="494.846" cy="-18" rx="29.795" ry="18"/>
<text text-anchor="middle" x="494.846" y="-14.3" font-family="Times,serif" font-size="14.00" fill="#000000">Mole</text>
</a>
</g>
</g>
<!-- Mole&#45;&gt;SIBaseUnit -->
<g id="edge4" class="edge">
<title>Mole&#45;&gt;SIBaseUnit</title>
<path fill="none" stroke="#000000" d="M470.9959,-29.2097C466.0084,-31.4971 460.7694,-33.858 455.846,-36 426.5533,-48.7442 393.2594,-62.3584 367.4374,-72.7287"/>
<polygon fill="none" stroke="#000000" points="365.9127,-69.569 357.9306,-76.5359 368.5151,-76.0673 365.9127,-69.569"/>
</g>
<!-- Ampere -->
<g id="node8" class="node">
<title>Ampere</title>
<g id="a_node8"><a xlink:href="http://emmo.info/emmo/middle/siunits#EMMO_db5dd38d_ac79_4af6_8782_fee7e7150ae8" xlink:title="Ampere">
<ellipse fill="#ffffcc" stroke="#000000" cx="582.846" cy="-18" rx="39.7935" ry="18"/>
<text text-anchor="middle" x="582.846" y="-14.3" font-family="Times,serif" font-size="14.00" fill="#000000">Ampere</text>
</a>
</g>
</g>
<!-- Ampere&#45;&gt;SIBaseUnit -->
<g id="edge1" class="edge">
<title>Ampere&#45;&gt;SIBaseUnit</title>
<path fill="none" stroke="#000000" d="M552.4259,-29.7116C546.3114,-31.9135 539.9031,-34.1139 533.846,-36 481.1057,-52.4224 419.8312,-67.76 377.1334,-77.8609"/>
<polygon fill="none" stroke="#000000" points="376.1704,-74.4918 367.2365,-80.1871 377.7721,-81.3061 376.1704,-74.4918"/>
</g>
<!-- key1 -->
<g id="node9" class="node">
<title>key1</title>
<text text-anchor="start" x="658.846" y="-13.8" font-family="Times,serif" font-size="14.00" fill="#000000">isA</text>
</g>
<!-- key2 -->
<g id="node10" class="node">
<title>key2</title>
<text text-anchor="start" x="737.846" y="-13.8" font-family="Times,serif" font-size="14.00" fill="#000000"> </text>
</g>
<!-- key1&#45;&gt;key2 -->
<g id="edge8" class="edge">
<title>key1:e&#45;&gt;key2:w</title>
<path fill="none" stroke="#000000" d="M679.846,-19C700.846,-19 708.557,-19 725.4041,-19"/>
<polygon fill="none" stroke="#000000" points="725.8461,-22.5001 735.846,-19 725.846,-15.5001 725.8461,-22.5001"/>
</g>
</g>
</svg>
