<?xml version="1.0" encoding="UTF-8" standalone="no"?>
<!DOCTYPE svg PUBLIC "-//W3C//DTD SVG 1.1//EN"
 "http://www.w3.org/Graphics/SVG/1.1/DTD/svg11.dtd">
<!-- Generated by graphviz version 2.40.1 (20161225.0304)
 -->
<!-- Title: %3 Pages: 1 -->
<svg width="631pt" height="131pt"
 viewBox="0.00 0.00 630.94 131.00" xmlns="http://www.w3.org/2000/svg" xmlns:xlink="http://www.w3.org/1999/xlink">
<g id="graph0" class="graph" transform="scale(1 1) rotate(0) translate(4 127)">
<title>%3</title>
<polygon fill="#ffffff" stroke="transparent" points="-4,4 -4,-127 626.9441,-127 626.9441,4 -4,4"/>
<!-- Kelvin -->
<g id="node1" class="node">
<title>Kelvin</title>
<g id="a_node1"><a xlink:href="http://emmo.info/emmo/middle/siunits#EMMO_2e5e45fc_f52c_4294_bdc2_5ed7a06dfce7" xlink:title="Kelvin">
<ellipse fill="#ffffcc" stroke="#000000" cx="34.4469" cy="-18" rx="34.394" ry="18"/>
<text text-anchor="middle" x="34.4469" y="-14.3" font-family="Times,serif" font-size="14.00" fill="#000000">Kelvin</text>
</a>
</g>
</g>
<!-- SIBaseUnit -->
<g id="node3" class="node">
<title>SIBaseUnit</title>
<g id="a_node3"><a xlink:href="http://emmo.info/emmo/middle/siunits#EMMO_3a185e6c_9e19_4776_b583_19c978156aa0" xlink:title="SIBaseUnit">
<ellipse fill="#ffffcc" stroke="#000000" stroke-width="2" cx="314.4469" cy="-105" rx="51.1914" ry="18"/>
<text text-anchor="middle" x="314.4469" y="-101.3" font-family="Times,serif" font-size="14.00" fill="#000000">SIBaseUnit</text>
</a>
</g>
</g>
<!-- Kelvin&#45;&gt;SIBaseUnit -->
<g id="edge6" class="edge">
<title>Kelvin&#45;&gt;SIBaseUnit</title>
<path fill="none" stroke="#000000" d="M61.2924,-29.4257C66.9239,-31.6974 72.8521,-33.9974 78.4469,-36 140.9202,-58.3621 214.5373,-79.0074 262.7317,-91.7761"/>
<polygon fill="none" stroke="#000000" points="262.0552,-95.2172 272.6169,-94.379 263.8378,-88.448 262.0552,-95.2172"/>
<text text-anchor="middle" x="184.9469" y="-57.8" font-family="Times,serif" font-size="14.00" fill="#000000">isA</text>
</g>
<!-- Second -->
<g id="node2" class="node">
<title>Second</title>
<g id="a_node2"><a xlink:href="http://emmo.info/emmo/middle/siunits#EMMO_314ba716_2d3d_4462_9a4f_d3419ae1df43" xlink:title="Second">
<ellipse fill="#ffffcc" stroke="#000000" cx="123.4469" cy="-18" rx="36.2938" ry="18"/>
<text text-anchor="middle" x="123.4469" y="-14.3" font-family="Times,serif" font-size="14.00" fill="#000000">Second</text>
</a>
</g>
</g>
<!-- Second&#45;&gt;SIBaseUnit -->
<g id="edge2" class="edge">
<title>Second&#45;&gt;SIBaseUnit</title>
<path fill="none" stroke="#000000" d="M150.4075,-30.2805C182.4075,-44.8564 236.1073,-69.3165 273.3075,-86.2611"/>
<polygon fill="none" stroke="#000000" points="272.3066,-89.6511 282.8578,-90.6112 275.2082,-83.2808 272.3066,-89.6511"/>
<text text-anchor="middle" x="239.9469" y="-57.8" font-family="Times,serif" font-size="14.00" fill="#000000">isA</text>
</g>
<!-- Candela -->
<g id="node4" class="node">
<title>Candela</title>
<g id="a_node4"><a xlink:href="http://emmo.info/emmo/middle/siunits#EMMO_8d00f093_3f45_4ea3_986c_b3545c3c2f4c" xlink:title="Candela">
<ellipse fill="#ffffcc" stroke="#000000" cx="217.4469" cy="-18" rx="39.7935" ry="18"/>
<text text-anchor="middle" x="217.4469" y="-14.3" font-family="Times,serif" font-size="14.00" fill="#000000">Candela</text>
</a>
</g>
</g>
<!-- Candela&#45;&gt;SIBaseUnit -->
<g id="edge3" class="edge">
<title>Candela&#45;&gt;SIBaseUnit</title>
<path fill="none" stroke="#000000" d="M235.6919,-34.364C250.4066,-47.5617 271.3076,-66.308 287.8803,-81.1722"/>
<polygon fill="none" stroke="#000000" points="285.8408,-84.0445 295.6222,-88.1159 290.5147,-78.8334 285.8408,-84.0445"/>
<text text-anchor="middle" x="281.9469" y="-57.8" font-family="Times,serif" font-size="14.00" fill="#000000">isA</text>
</g>
<!-- Ampere -->
<g id="node5" class="node">
<title>Ampere</title>
<g id="a_node5"><a xlink:href="http://emmo.info/emmo/middle/siunits#EMMO_db5dd38d_ac79_4af6_8782_fee7e7150ae8" xlink:title="Ampere">
<ellipse fill="#ffffcc" stroke="#000000" cx="314.4469" cy="-18" rx="39.7935" ry="18"/>
<text text-anchor="middle" x="314.4469" y="-14.3" font-family="Times,serif" font-size="14.00" fill="#000000">Ampere</text>
</a>
</g>
</g>
<!-- Ampere&#45;&gt;SIBaseUnit -->
<g id="edge4" class="edge">
<title>Ampere&#45;&gt;SIBaseUnit</title>
<path fill="none" stroke="#000000" d="M314.4469,-36.0265C314.4469,-47.8082 314.4469,-63.4393 314.4469,-76.8419"/>
<polygon fill="none" stroke="#000000" points="310.947,-76.9966 314.4469,-86.9966 317.947,-76.9967 310.947,-76.9966"/>
<text text-anchor="middle" x="323.9469" y="-57.8" font-family="Times,serif" font-size="14.00" fill="#000000">isA</text>
</g>
<!-- Mole -->
<g id="node6" class="node">
<title>Mole</title>
<g id="a_node6"><a xlink:href="http://emmo.info/emmo/middle/siunits#EMMO_df6eeb01_1b41_4bd8_9257_a04fbd7cf000" xlink:title="Mole">
<ellipse fill="#ffffcc" stroke="#000000" cx="402.4469" cy="-18" rx="29.795" ry="18"/>
<text text-anchor="middle" x="402.4469" y="-14.3" font-family="Times,serif" font-size="14.00" fill="#000000">Mole</text>
</a>
</g>
</g>
<!-- Mole&#45;&gt;SIBaseUnit -->
<g id="edge1" class="edge">
<title>Mole&#45;&gt;SIBaseUnit</title>
<path fill="none" stroke="#000000" d="M386.7143,-33.5539C373.4589,-46.6586 354.268,-65.6315 338.9933,-80.7326"/>
<polygon fill="none" stroke="#000000" points="336.5033,-78.2726 331.8526,-87.7921 341.4247,-83.2505 336.5033,-78.2726"/>
<text text-anchor="middle" x="372.9469" y="-57.8" font-family="Times,serif" font-size="14.00" fill="#000000">isA</text>
</g>
<!-- Kilogram -->
<g id="node7" class="node">
<title>Kilogram</title>
<g id="a_node7"><a xlink:href="http://emmo.info/emmo/middle/siunits#EMMO_9bfd6f1e_b0ce_459c_beb7_8f1f41708bba" xlink:title="Kilogram">
<ellipse fill="#ffffcc" stroke="#000000" cx="495.4469" cy="-18" rx="44.6926" ry="18"/>
<text text-anchor="middle" x="495.4469" y="-14.3" font-family="Times,serif" font-size="14.00" fill="#000000">Kilogram</text>
</a>
</g>
</g>
<!-- Kilogram&#45;&gt;SIBaseUnit -->
<g id="edge5" class="edge">
<title>Kilogram&#45;&gt;SIBaseUnit</title>
<path fill="none" stroke="#000000" d="M466.3662,-31.9781C435.949,-46.5985 388.0053,-69.6432 354.1242,-85.9286"/>
<polygon fill="none" stroke="#000000" points="352.4638,-82.8433 344.9672,-90.33 355.4964,-89.1523 352.4638,-82.8433"/>
<text text-anchor="middle" x="424.9469" y="-57.8" font-family="Times,serif" font-size="14.00" fill="#000000">isA</text>
</g>
<!-- Metre -->
<g id="node8" class="node">
<title>Metre</title>
<g id="a_node8"><a xlink:href="http://emmo.info/emmo/middle/siunits#EMMO_7db11dbf_a643_464a_9b56_07eabcc3e9c5" xlink:title="Metre">
<ellipse fill="#ffffcc" stroke="#000000" cx="590.4469" cy="-18" rx="32.4942" ry="18"/>
<text text-anchor="middle" x="590.4469" y="-14.3" font-family="Times,serif" font-size="14.00" fill="#000000">Metre</text>
</a>
</g>
</g>
<!-- Metre&#45;&gt;SIBaseUnit -->
<g id="edge7" class="edge">
<title>Metre&#45;&gt;SIBaseUnit</title>
<path fill="none" stroke="#000000" d="M565.4968,-29.5441C560.2445,-31.8072 554.7022,-34.0737 549.4469,-36 487.5749,-58.6785 414.4915,-79.1862 366.446,-91.8401"/>
<polygon fill="none" stroke="#000000" points="365.3754,-88.5022 356.5866,-94.419 367.1469,-95.2744 365.3754,-88.5022"/>
<text text-anchor="middle" x="500.9469" y="-57.8" font-family="Times,serif" font-size="14.00" fill="#000000">isA</text>
</g>
</g>
</svg>
