<?xml version="1.0" encoding="UTF-8" standalone="no"?>
<!DOCTYPE svg PUBLIC "-//W3C//DTD SVG 1.1//EN"
 "http://www.w3.org/Graphics/SVG/1.1/DTD/svg11.dtd">
<!-- Generated by graphviz version 2.40.1 (20161225.0304)
 -->
<!-- Title: %3 Pages: 1 -->
<svg width="774pt" height="116pt"
 viewBox="0.00 0.00 773.85 116.00" xmlns="http://www.w3.org/2000/svg" xmlns:xlink="http://www.w3.org/1999/xlink">
<g id="graph0" class="graph" transform="scale(1 1) rotate(0) translate(4 112)">
<title>%3</title>
<polygon fill="#ffffff" stroke="transparent" points="-4,4 -4,-112 769.846,-112 769.846,4 -4,4"/>
<!-- Kilogram -->
<g id="node1" class="node">
<title>Kilogram</title>
<g id="a_node1"><a xlink:href="http://emmo.info/emmo/middle/siunits#EMMO_9bfd6f1e_b0ce_459c_beb7_8f1f41708bba" xlink:title="Kilogram">
<ellipse fill="#ffffcc" stroke="#000000" cx="44.846" cy="-18" rx="44.6926" ry="18"/>
<text text-anchor="middle" x="44.846" y="-14.3" font-family="Times,serif" font-size="14.00" fill="#000000">Kilogram</text>
</a>
</g>
</g>
<!-- SIBaseUnit -->
<g id="node6" class="node">
<title>SIBaseUnit</title>
<g id="a_node6"><a xlink:href="http://emmo.info/emmo/middle/siunits#EMMO_3a185e6c_9e19_4776_b583_19c978156aa0" xlink:title="SIBaseUnit">
<ellipse fill="#ffffcc" stroke="#000000" stroke-width="2" cx="327.846" cy="-90" rx="51.1914" ry="18"/>
<text text-anchor="middle" x="327.846" y="-86.3" font-family="Times,serif" font-size="14.00" fill="#000000">SIBaseUnit</text>
</a>
</g>
</g>
<!-- Kilogram&#45;&gt;SIBaseUnit -->
<g id="edge2" class="edge">
<title>Kilogram&#45;&gt;SIBaseUnit</title>
<path fill="none" stroke="#000000" d="M78.6207,-30.0146C84.9739,-32.1195 91.587,-34.207 97.846,-36 157.3564,-53.0483 226.6396,-68.7638 273.4882,-78.7925"/>
<polygon fill="none" stroke="#000000" points="272.9162,-82.249 283.4257,-80.9065 274.3728,-75.4022 272.9162,-82.249"/>
</g>
<!-- Ampere -->
<g id="node2" class="node">
<title>Ampere</title>
<g id="a_node2"><a xlink:href="http://emmo.info/emmo/middle/siunits#EMMO_db5dd38d_ac79_4af6_8782_fee7e7150ae8" xlink:title="Ampere">
<ellipse fill="#ffffcc" stroke="#000000" cx="146.846" cy="-18" rx="39.7935" ry="18"/>
<text text-anchor="middle" x="146.846" y="-14.3" font-family="Times,serif" font-size="14.00" fill="#000000">Ampere</text>
</a>
</g>
</g>
<!-- Ampere&#45;&gt;SIBaseUnit -->
<g id="edge5" class="edge">
<title>Ampere&#45;&gt;SIBaseUnit</title>
<path fill="none" stroke="#000000" d="M176.7345,-29.8893C205.9784,-41.5223 250.8495,-59.3715 284.1058,-72.6006"/>
<polygon fill="none" stroke="#000000" points="283.003,-75.9286 293.5885,-76.3727 285.5904,-69.4243 283.003,-75.9286"/>
</g>
<!-- Kelvin -->
<g id="node3" class="node">
<title>Kelvin</title>
<g id="a_node3"><a xlink:href="http://emmo.info/emmo/middle/siunits#EMMO_2e5e45fc_f52c_4294_bdc2_5ed7a06dfce7" xlink:title="Kelvin">
<ellipse fill="#ffffcc" stroke="#000000" cx="238.846" cy="-18" rx="34.394" ry="18"/>
<text text-anchor="middle" x="238.846" y="-14.3" font-family="Times,serif" font-size="14.00" fill="#000000">Kelvin</text>
</a>
</g>
</g>
<!-- Kelvin&#45;&gt;SIBaseUnit -->
<g id="edge4" class="edge">
<title>Kelvin&#45;&gt;SIBaseUnit</title>
<path fill="none" stroke="#000000" d="M257.7206,-33.2693C269.7212,-42.9777 285.4935,-55.7373 299.0403,-66.6965"/>
<polygon fill="none" stroke="#000000" points="297.158,-69.6757 307.1339,-73.2441 301.5607,-64.2335 297.158,-69.6757"/>
</g>
<!-- Second -->
<g id="node4" class="node">
<title>Second</title>
<g id="a_node4"><a xlink:href="http://emmo.info/emmo/middle/siunits#EMMO_314ba716_2d3d_4462_9a4f_d3419ae1df43" xlink:title="Second">
<ellipse fill="#ffffcc" stroke="#000000" cx="327.846" cy="-18" rx="36.2938" ry="18"/>
<text text-anchor="middle" x="327.846" y="-14.3" font-family="Times,serif" font-size="14.00" fill="#000000">Second</text>
</a>
</g>
</g>
<!-- Second&#45;&gt;SIBaseUnit -->
<g id="edge7" class="edge">
<title>Second&#45;&gt;SIBaseUnit</title>
<path fill="none" stroke="#000000" d="M327.846,-36.1686C327.846,-43.869 327.846,-53.0257 327.846,-61.5834"/>
<polygon fill="none" stroke="#000000" points="324.3461,-61.5867 327.846,-71.5867 331.3461,-61.5868 324.3461,-61.5867"/>
</g>
<!-- Mole -->
<g id="node5" class="node">
<title>Mole</title>
<g id="a_node5"><a xlink:href="http://emmo.info/emmo/middle/siunits#EMMO_df6eeb01_1b41_4bd8_9257_a04fbd7cf000" xlink:title="Mole">
<ellipse fill="#ffffcc" stroke="#000000" cx="411.846" cy="-18" rx="29.795" ry="18"/>
<text text-anchor="middle" x="411.846" y="-14.3" font-family="Times,serif" font-size="14.00" fill="#000000">Mole</text>
</a>
</g>
</g>
<!-- Mole&#45;&gt;SIBaseUnit -->
<g id="edge1" class="edge">
<title>Mole&#45;&gt;SIBaseUnit</title>
<path fill="none" stroke="#000000" d="M394.4412,-32.9184C383.0597,-42.674 367.9576,-55.6186 355.0126,-66.7143"/>
<polygon fill="none" stroke="#000000" points="352.5987,-64.1737 347.2838,-73.339 357.1542,-69.4885 352.5987,-64.1737"/>
</g>
<!-- Candela -->
<g id="node7" class="node">
<title>Candela</title>
<g id="a_node7"><a xlink:href="http://emmo.info/emmo/middle/siunits#EMMO_8d00f093_3f45_4ea3_986c_b3545c3c2f4c" xlink:title="Candela">
<ellipse fill="#ffffcc" stroke="#000000" cx="499.846" cy="-18" rx="39.7935" ry="18"/>
<text text-anchor="middle" x="499.846" y="-14.3" font-family="Times,serif" font-size="14.00" fill="#000000">Candela</text>
</a>
</g>
</g>
<!-- Candela&#45;&gt;SIBaseUnit -->
<g id="edge3" class="edge">
<title>Candela&#45;&gt;SIBaseUnit</title>
<path fill="none" stroke="#000000" d="M470.6686,-30.2138C443.1343,-41.7398 401.5341,-59.1538 370.3212,-72.2197"/>
<polygon fill="none" stroke="#000000" points="368.8679,-69.0337 360.995,-76.1237 371.5709,-75.4908 368.8679,-69.0337"/>
</g>
<!-- Metre -->
<g id="node8" class="node">
<title>Metre</title>
<g id="a_node8"><a xlink:href="http://emmo.info/emmo/middle/siunits#EMMO_7db11dbf_a643_464a_9b56_07eabcc3e9c5" xlink:title="Metre">
<ellipse fill="#ffffcc" stroke="#000000" cx="589.846" cy="-18" rx="32.4942" ry="18"/>
<text text-anchor="middle" x="589.846" y="-14.3" font-family="Times,serif" font-size="14.00" fill="#000000">Metre</text>
</a>
</g>
</g>
<!-- Metre&#45;&gt;SIBaseUnit -->
<g id="edge6" class="edge">
<title>Metre&#45;&gt;SIBaseUnit</title>
<path fill="none" stroke="#000000" d="M564.967,-29.7459C559.7096,-31.9943 554.1472,-34.2039 548.846,-36 493.3754,-54.7938 428.0168,-69.9334 382.8367,-79.3464"/>
<polygon fill="none" stroke="#000000" points="382.0337,-75.9382 372.945,-81.383 383.4454,-82.7944 382.0337,-75.9382"/>
</g>
<!-- key1 -->
<g id="node9" class="node">
<title>key1</title>
<text text-anchor="start" x="657.846" y="-13.8" font-family="Times,serif" font-size="14.00" fill="#000000">isA</text>
</g>
<!-- key2 -->
<g id="node10" class="node">
<title>key2</title>
<text text-anchor="start" x="736.846" y="-13.8" font-family="Times,serif" font-size="14.00" fill="#000000"> </text>
</g>
<!-- key1&#45;&gt;key2 -->
<g id="edge8" class="edge">
<title>key1:e&#45;&gt;key2:w</title>
<path fill="none" stroke="#000000" d="M678.846,-19C699.846,-19 707.557,-19 724.4041,-19"/>
<polygon fill="none" stroke="#000000" points="724.8461,-22.5001 734.846,-19 724.846,-15.5001 724.8461,-22.5001"/>
</g>
</g>
</svg>
