<?xml version="1.0" encoding="UTF-8" standalone="no"?>
<!DOCTYPE svg PUBLIC "-//W3C//DTD SVG 1.1//EN"
 "http://www.w3.org/Graphics/SVG/1.1/DTD/svg11.dtd">
<!-- Generated by graphviz version 2.40.1 (20161225.0304)
 -->
<!-- Title: %3 Pages: 1 -->
<svg width="773pt" height="116pt"
 viewBox="0.00 0.00 772.90 116.00" xmlns="http://www.w3.org/2000/svg" xmlns:xlink="http://www.w3.org/1999/xlink">
<g id="graph0" class="graph" transform="scale(1 1) rotate(0) translate(4 112)">
<title>%3</title>
<polygon fill="#ffffff" stroke="transparent" points="-4,4 -4,-112 768.8973,-112 768.8973,4 -4,4"/>
<!-- Mole -->
<g id="node1" class="node">
<title>Mole</title>
<g id="a_node1"><a xlink:href="http://emmo.info/emmo/middle/siunits#EMMO_df6eeb01_1b41_4bd8_9257_a04fbd7cf000" xlink:title="Mole">
<ellipse fill="#ffffcc" stroke="#000000" cx="29.8973" cy="-18" rx="29.795" ry="18"/>
<text text-anchor="middle" x="29.8973" y="-14.3" font-family="Times,serif" font-size="14.00" fill="#000000">Mole</text>
</a>
</g>
</g>
<!-- SIBaseUnit -->
<g id="node2" class="node">
<title>SIBaseUnit</title>
<g id="a_node2"><a xlink:href="http://emmo.info/emmo/middle/siunits#EMMO_3a185e6c_9e19_4776_b583_19c978156aa0" xlink:title="SIBaseUnit">
<ellipse fill="#ffffcc" stroke="#000000" stroke-width="2" cx="304.8973" cy="-90" rx="51.1914" ry="18"/>
<text text-anchor="middle" x="304.8973" y="-86.3" font-family="Times,serif" font-size="14.00" fill="#000000">SIBaseUnit</text>
</a>
</g>
</g>
<!-- Mole&#45;&gt;SIBaseUnit -->
<g id="edge6" class="edge">
<title>Mole&#45;&gt;SIBaseUnit</title>
<path fill="none" stroke="#000000" d="M53.0856,-29.6565C58.2123,-31.9633 63.6744,-34.2187 68.8973,-36 128.8776,-56.456 200.0692,-71.5478 248.4598,-80.4982"/>
<polygon fill="none" stroke="#000000" points="247.9621,-83.9651 258.4276,-82.3147 249.2171,-77.0785 247.9621,-83.9651"/>
</g>
<!-- Second -->
<g id="node3" class="node">
<title>Second</title>
<g id="a_node3"><a xlink:href="http://emmo.info/emmo/middle/siunits#EMMO_314ba716_2d3d_4462_9a4f_d3419ae1df43" xlink:title="Second">
<ellipse fill="#ffffcc" stroke="#000000" cx="113.8973" cy="-18" rx="36.2938" ry="18"/>
<text text-anchor="middle" x="113.8973" y="-14.3" font-family="Times,serif" font-size="14.00" fill="#000000">Second</text>
</a>
</g>
</g>
<!-- Second&#45;&gt;SIBaseUnit -->
<g id="edge4" class="edge">
<title>Second&#45;&gt;SIBaseUnit</title>
<path fill="none" stroke="#000000" d="M142.4194,-29.5397C147.8793,-31.7116 153.5574,-33.9449 158.8973,-36 192.548,-48.9507 230.779,-63.0695 259.6762,-73.6214"/>
<polygon fill="none" stroke="#000000" points="258.5042,-76.9194 269.0982,-77.0563 260.9018,-70.3428 258.5042,-76.9194"/>
</g>
<!-- Candela -->
<g id="node4" class="node">
<title>Candela</title>
<g id="a_node4"><a xlink:href="http://emmo.info/emmo/middle/siunits#EMMO_8d00f093_3f45_4ea3_986c_b3545c3c2f4c" xlink:title="Candela">
<ellipse fill="#ffffcc" stroke="#000000" cx="207.8973" cy="-18" rx="39.7935" ry="18"/>
<text text-anchor="middle" x="207.8973" y="-14.3" font-family="Times,serif" font-size="14.00" fill="#000000">Candela</text>
</a>
</g>
</g>
<!-- Candela&#45;&gt;SIBaseUnit -->
<g id="edge5" class="edge">
<title>Candela&#45;&gt;SIBaseUnit</title>
<path fill="none" stroke="#000000" d="M228.9449,-33.6229C242.2663,-43.5109 259.7076,-56.4571 274.5167,-67.4494"/>
<polygon fill="none" stroke="#000000" points="272.7651,-70.508 282.8809,-73.6579 276.9372,-64.8872 272.7651,-70.508"/>
</g>
<!-- Ampere -->
<g id="node5" class="node">
<title>Ampere</title>
<g id="a_node5"><a xlink:href="http://emmo.info/emmo/middle/siunits#EMMO_db5dd38d_ac79_4af6_8782_fee7e7150ae8" xlink:title="Ampere">
<ellipse fill="#ffffcc" stroke="#000000" cx="304.8973" cy="-18" rx="39.7935" ry="18"/>
<text text-anchor="middle" x="304.8973" y="-14.3" font-family="Times,serif" font-size="14.00" fill="#000000">Ampere</text>
</a>
</g>
</g>
<!-- Ampere&#45;&gt;SIBaseUnit -->
<g id="edge3" class="edge">
<title>Ampere&#45;&gt;SIBaseUnit</title>
<path fill="none" stroke="#000000" d="M304.8973,-36.1686C304.8973,-43.869 304.8973,-53.0257 304.8973,-61.5834"/>
<polygon fill="none" stroke="#000000" points="301.3974,-61.5867 304.8973,-71.5867 308.3974,-61.5868 301.3974,-61.5867"/>
</g>
<!-- Metre -->
<g id="node6" class="node">
<title>Metre</title>
<g id="a_node6"><a xlink:href="http://emmo.info/emmo/middle/siunits#EMMO_7db11dbf_a643_464a_9b56_07eabcc3e9c5" xlink:title="Metre">
<ellipse fill="#ffffcc" stroke="#000000" cx="394.8973" cy="-18" rx="32.4942" ry="18"/>
<text text-anchor="middle" x="394.8973" y="-14.3" font-family="Times,serif" font-size="14.00" fill="#000000">Metre</text>
</a>
</g>
</g>
<!-- Metre&#45;&gt;SIBaseUnit -->
<g id="edge1" class="edge">
<title>Metre&#45;&gt;SIBaseUnit</title>
<path fill="none" stroke="#000000" d="M376.2493,-32.9184C363.9398,-42.7661 347.5684,-55.8632 333.6125,-67.0279"/>
<polygon fill="none" stroke="#000000" points="331.3459,-64.359 325.7236,-73.339 335.7187,-69.8251 331.3459,-64.359"/>
</g>
<!-- Kilogram -->
<g id="node7" class="node">
<title>Kilogram</title>
<g id="a_node7"><a xlink:href="http://emmo.info/emmo/middle/siunits#EMMO_9bfd6f1e_b0ce_459c_beb7_8f1f41708bba" xlink:title="Kilogram">
<ellipse fill="#ffffcc" stroke="#000000" cx="489.8973" cy="-18" rx="44.6926" ry="18"/>
<text text-anchor="middle" x="489.8973" y="-14.3" font-family="Times,serif" font-size="14.00" fill="#000000">Kilogram</text>
</a>
</g>
</g>
<!-- Kilogram&#45;&gt;SIBaseUnit -->
<g id="edge2" class="edge">
<title>Kilogram&#45;&gt;SIBaseUnit</title>
<path fill="none" stroke="#000000" d="M457.6728,-30.5414C427.616,-42.2392 382.52,-59.7901 349.1068,-72.7942"/>
<polygon fill="none" stroke="#000000" points="347.6288,-69.6136 339.5791,-76.5022 350.1676,-76.137 347.6288,-69.6136"/>
</g>
<!-- Kelvin -->
<g id="node8" class="node">
<title>Kelvin</title>
<g id="a_node8"><a xlink:href="http://emmo.info/emmo/middle/siunits#EMMO_2e5e45fc_f52c_4294_bdc2_5ed7a06dfce7" xlink:title="Kelvin">
<ellipse fill="#ffffcc" stroke="#000000" cx="586.8973" cy="-18" rx="34.394" ry="18"/>
<text text-anchor="middle" x="586.8973" y="-14.3" font-family="Times,serif" font-size="14.00" fill="#000000">Kelvin</text>
</a>
</g>
</g>
<!-- Kelvin&#45;&gt;SIBaseUnit -->
<g id="edge7" class="edge">
<title>Kelvin&#45;&gt;SIBaseUnit</title>
<path fill="none" stroke="#000000" d="M560.7902,-29.7804C555.2774,-32.0263 549.4477,-34.2262 543.8973,-36 482.614,-55.5852 410.323,-70.8767 361.4207,-80.112"/>
<polygon fill="none" stroke="#000000" points="360.5414,-76.7155 351.3528,-81.9901 361.8251,-83.5968 360.5414,-76.7155"/>
</g>
<!-- key1 -->
<g id="node9" class="node">
<title>key1</title>
<text text-anchor="start" x="656.8973" y="-13.8" font-family="Times,serif" font-size="14.00" fill="#000000">isA</text>
</g>
<!-- key2 -->
<g id="node10" class="node">
<title>key2</title>
<text text-anchor="start" x="735.8973" y="-13.8" font-family="Times,serif" font-size="14.00" fill="#000000"> </text>
</g>
<!-- key1&#45;&gt;key2 -->
<g id="edge8" class="edge">
<title>key1:e&#45;&gt;key2:w</title>
<path fill="none" stroke="#000000" d="M677.8973,-19C698.8973,-19 706.6083,-19 723.4555,-19"/>
<polygon fill="none" stroke="#000000" points="723.8974,-22.5001 733.8973,-19 723.8973,-15.5001 723.8974,-22.5001"/>
</g>
</g>
</svg>
