<?xml version="1.0" encoding="UTF-8" standalone="no"?>
<!DOCTYPE svg PUBLIC "-//W3C//DTD SVG 1.1//EN"
 "http://www.w3.org/Graphics/SVG/1.1/DTD/svg11.dtd">
<!-- Generated by graphviz version 2.40.1 (20161225.0304)
 -->
<!-- Title: %3 Pages: 1 -->
<svg width="774pt" height="116pt"
 viewBox="0.00 0.00 773.90 116.00" xmlns="http://www.w3.org/2000/svg" xmlns:xlink="http://www.w3.org/1999/xlink">
<g id="graph0" class="graph" transform="scale(1 1) rotate(0) translate(4 112)">
<title>%3</title>
<polygon fill="#ffffff" stroke="transparent" points="-4,4 -4,-112 769.8973,-112 769.8973,4 -4,4"/>
<!-- Mole -->
<g id="node1" class="node">
<title>Mole</title>
<g id="a_node1"><a xlink:href="http://emmo.info/emmo/middle/siunits#EMMO_df6eeb01_1b41_4bd8_9257_a04fbd7cf000" xlink:title="Mole">
<ellipse fill="#ffffcc" stroke="#000000" cx="29.8973" cy="-18" rx="29.795" ry="18"/>
<text text-anchor="middle" x="29.8973" y="-14.3" font-family="Times,serif" font-size="14.00" fill="#000000">Mole</text>
</a>
</g>
</g>
<!-- SIBaseUnit -->
<g id="node2" class="node">
<title>SIBaseUnit</title>
<g id="a_node2"><a xlink:href="http://emmo.info/emmo/middle/siunits#EMMO_3a185e6c_9e19_4776_b583_19c978156aa0" xlink:title="SIBaseUnit">
<ellipse fill="#ffffcc" stroke="#000000" stroke-width="2" cx="316.8973" cy="-90" rx="51.1914" ry="18"/>
<text text-anchor="middle" x="316.8973" y="-86.3" font-family="Times,serif" font-size="14.00" fill="#000000">SIBaseUnit</text>
</a>
</g>
</g>
<!-- Mole&#45;&gt;SIBaseUnit -->
<g id="edge3" class="edge">
<title>Mole&#45;&gt;SIBaseUnit</title>
<path fill="none" stroke="#000000" d="M53.0715,-29.6983C58.199,-32.0024 63.6651,-34.2463 68.8973,-36 132.6095,-57.3543 208.4166,-72.4291 259.3019,-81.1282"/>
<polygon fill="none" stroke="#000000" points="259.0099,-84.6281 269.4519,-82.8353 260.171,-77.7251 259.0099,-84.6281"/>
</g>
<!-- Candela -->
<g id="node3" class="node">
<title>Candela</title>
<g id="a_node3"><a xlink:href="http://emmo.info/emmo/middle/siunits#EMMO_8d00f093_3f45_4ea3_986c_b3545c3c2f4c" xlink:title="Candela">
<ellipse fill="#ffffcc" stroke="#000000" cx="117.8973" cy="-18" rx="39.7935" ry="18"/>
<text text-anchor="middle" x="117.8973" y="-14.3" font-family="Times,serif" font-size="14.00" fill="#000000">Candela</text>
</a>
</g>
</g>
<!-- Candela&#45;&gt;SIBaseUnit -->
<g id="edge2" class="edge">
<title>Candela&#45;&gt;SIBaseUnit</title>
<path fill="none" stroke="#000000" d="M148.5991,-29.593C154.3419,-31.7388 160.2981,-33.9491 165.8973,-36 201.0112,-48.8616 240.8461,-63.0922 270.7817,-73.7146"/>
<polygon fill="none" stroke="#000000" points="269.9385,-77.129 280.5332,-77.1715 272.2774,-70.5313 269.9385,-77.129"/>
</g>
<!-- Ampere -->
<g id="node4" class="node">
<title>Ampere</title>
<g id="a_node4"><a xlink:href="http://emmo.info/emmo/middle/siunits#EMMO_db5dd38d_ac79_4af6_8782_fee7e7150ae8" xlink:title="Ampere">
<ellipse fill="#ffffcc" stroke="#000000" cx="214.8973" cy="-18" rx="39.7935" ry="18"/>
<text text-anchor="middle" x="214.8973" y="-14.3" font-family="Times,serif" font-size="14.00" fill="#000000">Ampere</text>
</a>
</g>
</g>
<!-- Ampere&#45;&gt;SIBaseUnit -->
<g id="edge1" class="edge">
<title>Ampere&#45;&gt;SIBaseUnit</title>
<path fill="none" stroke="#000000" d="M236.5289,-33.2693C250.7393,-43.3002 269.5642,-56.5884 285.4225,-67.7825"/>
<polygon fill="none" stroke="#000000" points="283.6913,-70.8445 293.8794,-73.752 287.7281,-65.1258 283.6913,-70.8445"/>
</g>
<!-- Kilogram -->
<g id="node5" class="node">
<title>Kilogram</title>
<g id="a_node5"><a xlink:href="http://emmo.info/emmo/middle/siunits#EMMO_9bfd6f1e_b0ce_459c_beb7_8f1f41708bba" xlink:title="Kilogram">
<ellipse fill="#ffffcc" stroke="#000000" cx="316.8973" cy="-18" rx="44.6926" ry="18"/>
<text text-anchor="middle" x="316.8973" y="-14.3" font-family="Times,serif" font-size="14.00" fill="#000000">Kilogram</text>
</a>
</g>
</g>
<!-- Kilogram&#45;&gt;SIBaseUnit -->
<g id="edge6" class="edge">
<title>Kilogram&#45;&gt;SIBaseUnit</title>
<path fill="none" stroke="#000000" d="M316.8973,-36.1686C316.8973,-43.869 316.8973,-53.0257 316.8973,-61.5834"/>
<polygon fill="none" stroke="#000000" points="313.3974,-61.5867 316.8973,-71.5867 320.3974,-61.5868 313.3974,-61.5867"/>
</g>
<!-- Metre -->
<g id="node6" class="node">
<title>Metre</title>
<g id="a_node6"><a xlink:href="http://emmo.info/emmo/middle/siunits#EMMO_7db11dbf_a643_464a_9b56_07eabcc3e9c5" xlink:title="Metre">
<ellipse fill="#ffffcc" stroke="#000000" cx="411.8973" cy="-18" rx="32.4942" ry="18"/>
<text text-anchor="middle" x="411.8973" y="-14.3" font-family="Times,serif" font-size="14.00" fill="#000000">Metre</text>
</a>
</g>
</g>
<!-- Metre&#45;&gt;SIBaseUnit -->
<g id="edge4" class="edge">
<title>Metre&#45;&gt;SIBaseUnit</title>
<path fill="none" stroke="#000000" d="M392.6727,-32.5703C379.4979,-42.5554 361.7601,-55.9987 346.7584,-67.3685"/>
<polygon fill="none" stroke="#000000" points="344.6075,-64.6069 338.7519,-73.4366 348.8357,-70.1857 344.6075,-64.6069"/>
</g>
<!-- Kelvin -->
<g id="node7" class="node">
<title>Kelvin</title>
<g id="a_node7"><a xlink:href="http://emmo.info/emmo/middle/siunits#EMMO_2e5e45fc_f52c_4294_bdc2_5ed7a06dfce7" xlink:title="Kelvin">
<ellipse fill="#ffffcc" stroke="#000000" cx="496.8973" cy="-18" rx="34.394" ry="18"/>
<text text-anchor="middle" x="496.8973" y="-14.3" font-family="Times,serif" font-size="14.00" fill="#000000">Kelvin</text>
</a>
</g>
</g>
<!-- Kelvin&#45;&gt;SIBaseUnit -->
<g id="edge7" class="edge">
<title>Kelvin&#45;&gt;SIBaseUnit</title>
<path fill="none" stroke="#000000" d="M469.4537,-29.2781C463.9737,-31.5157 458.2558,-33.8402 452.8973,-36 422.1541,-48.3914 387.4205,-62.1791 360.7503,-72.7209"/>
<polygon fill="none" stroke="#000000" points="359.3264,-69.5202 351.3115,-76.4493 361.8981,-76.0307 359.3264,-69.5202"/>
</g>
<!-- Second -->
<g id="node8" class="node">
<title>Second</title>
<g id="a_node8"><a xlink:href="http://emmo.info/emmo/middle/siunits#EMMO_314ba716_2d3d_4462_9a4f_d3419ae1df43" xlink:title="Second">
<ellipse fill="#ffffcc" stroke="#000000" cx="585.8973" cy="-18" rx="36.2938" ry="18"/>
<text text-anchor="middle" x="585.8973" y="-14.3" font-family="Times,serif" font-size="14.00" fill="#000000">Second</text>
</a>
</g>
</g>
<!-- Second&#45;&gt;SIBaseUnit -->
<g id="edge5" class="edge">
<title>Second&#45;&gt;SIBaseUnit</title>
<path fill="none" stroke="#000000" d="M557.8935,-29.6532C552.0015,-31.9084 545.7864,-34.1442 539.8973,-36 483.3837,-53.8094 417.2549,-69.1541 371.7651,-78.8854"/>
<polygon fill="none" stroke="#000000" points="370.8678,-75.4977 361.8111,-80.9956 372.3196,-82.3455 370.8678,-75.4977"/>
</g>
<!-- key1 -->
<g id="node9" class="node">
<title>key1</title>
<text text-anchor="start" x="657.8973" y="-13.8" font-family="Times,serif" font-size="14.00" fill="#000000">isA</text>
</g>
<!-- key2 -->
<g id="node10" class="node">
<title>key2</title>
<text text-anchor="start" x="736.8973" y="-13.8" font-family="Times,serif" font-size="14.00" fill="#000000"> </text>
</g>
<!-- key1&#45;&gt;key2 -->
<g id="edge8" class="edge">
<title>key1:e&#45;&gt;key2:w</title>
<path fill="none" stroke="#000000" d="M678.8973,-19C699.8973,-19 707.6083,-19 724.4555,-19"/>
<polygon fill="none" stroke="#000000" points="724.8974,-22.5001 734.8973,-19 724.8973,-15.5001 724.8974,-22.5001"/>
</g>
</g>
</svg>
