<?xml version="1.0" encoding="UTF-8" standalone="no"?>
<!DOCTYPE svg PUBLIC "-//W3C//DTD SVG 1.1//EN"
 "http://www.w3.org/Graphics/SVG/1.1/DTD/svg11.dtd">
<!-- Generated by graphviz version 2.40.1 (20161225.0304)
 -->
<!-- Title: %3 Pages: 1 -->
<svg width="629pt" height="131pt"
 viewBox="0.00 0.00 629.29 131.00" xmlns="http://www.w3.org/2000/svg" xmlns:xlink="http://www.w3.org/1999/xlink">
<g id="graph0" class="graph" transform="scale(1 1) rotate(0) translate(4 127)">
<title>%3</title>
<polygon fill="#ffffff" stroke="transparent" points="-4,4 -4,-127 625.293,-127 625.293,4 -4,4"/>
<!-- Ampere -->
<g id="node1" class="node">
<title>Ampere</title>
<g id="a_node1"><a xlink:href="http://emmo.info/emmo/middle/siunits#EMMO_db5dd38d_ac79_4af6_8782_fee7e7150ae8" xlink:title="Ampere">
<ellipse fill="#ffffcc" stroke="#000000" cx="39.6465" cy="-18" rx="39.7935" ry="18"/>
<text text-anchor="middle" x="39.6465" y="-14.3" font-family="Times,serif" font-size="14.00" fill="#000000">Ampere</text>
</a>
</g>
</g>
<!-- SIBaseUnit -->
<g id="node7" class="node">
<title>SIBaseUnit</title>
<g id="a_node7"><a xlink:href="http://emmo.info/emmo/middle/siunits#EMMO_3a185e6c_9e19_4776_b583_19c978156aa0" xlink:title="SIBaseUnit">
<ellipse fill="#ffffcc" stroke="#000000" stroke-width="2" cx="316.6465" cy="-105" rx="51.1914" ry="18"/>
<text text-anchor="middle" x="316.6465" y="-101.3" font-family="Times,serif" font-size="14.00" fill="#000000">SIBaseUnit</text>
</a>
</g>
</g>
<!-- Ampere&#45;&gt;SIBaseUnit -->
<g id="edge3" class="edge">
<title>Ampere&#45;&gt;SIBaseUnit</title>
<path fill="none" stroke="#000000" d="M70.0108,-29.7253C75.8401,-31.8801 81.914,-34.0597 87.6465,-36 148.6553,-56.6502 219.8076,-77.6087 266.4115,-90.9201"/>
<polygon fill="none" stroke="#000000" points="265.6838,-94.352 276.26,-93.7237 267.6004,-87.6194 265.6838,-94.352"/>
<text text-anchor="middle" x="198.1465" y="-57.8" font-family="Times,serif" font-size="14.00" fill="#000000">isA</text>
</g>
<!-- Kilogram -->
<g id="node2" class="node">
<title>Kilogram</title>
<g id="a_node2"><a xlink:href="http://emmo.info/emmo/middle/siunits#EMMO_9bfd6f1e_b0ce_459c_beb7_8f1f41708bba" xlink:title="Kilogram">
<ellipse fill="#ffffcc" stroke="#000000" cx="141.6465" cy="-18" rx="44.6926" ry="18"/>
<text text-anchor="middle" x="141.6465" y="-14.3" font-family="Times,serif" font-size="14.00" fill="#000000">Kilogram</text>
</a>
</g>
</g>
<!-- Kilogram&#45;&gt;SIBaseUnit -->
<g id="edge1" class="edge">
<title>Kilogram&#45;&gt;SIBaseUnit</title>
<path fill="none" stroke="#000000" d="M170.1527,-32.1717C199.4187,-46.7211 245.1659,-69.4639 277.7468,-85.6613"/>
<polygon fill="none" stroke="#000000" points="276.4692,-88.9348 286.9818,-90.2524 279.5854,-82.6666 276.4692,-88.9348"/>
<text text-anchor="middle" x="249.1465" y="-57.8" font-family="Times,serif" font-size="14.00" fill="#000000">isA</text>
</g>
<!-- Metre -->
<g id="node3" class="node">
<title>Metre</title>
<g id="a_node3"><a xlink:href="http://emmo.info/emmo/middle/siunits#EMMO_7db11dbf_a643_464a_9b56_07eabcc3e9c5" xlink:title="Metre">
<ellipse fill="#ffffcc" stroke="#000000" cx="236.6465" cy="-18" rx="32.4942" ry="18"/>
<text text-anchor="middle" x="236.6465" y="-14.3" font-family="Times,serif" font-size="14.00" fill="#000000">Metre</text>
</a>
</g>
</g>
<!-- Metre&#45;&gt;SIBaseUnit -->
<g id="edge7" class="edge">
<title>Metre&#45;&gt;SIBaseUnit</title>
<path fill="none" stroke="#000000" d="M251.6939,-34.364C263.5327,-47.2387 280.2269,-65.3937 293.7259,-80.0739"/>
<polygon fill="none" stroke="#000000" points="291.5004,-82.8245 300.8455,-87.8165 296.6531,-78.0864 291.5004,-82.8245"/>
<text text-anchor="middle" x="291.1465" y="-57.8" font-family="Times,serif" font-size="14.00" fill="#000000">isA</text>
</g>
<!-- Mole -->
<g id="node4" class="node">
<title>Mole</title>
<g id="a_node4"><a xlink:href="http://emmo.info/emmo/middle/siunits#EMMO_df6eeb01_1b41_4bd8_9257_a04fbd7cf000" xlink:title="Mole">
<ellipse fill="#ffffcc" stroke="#000000" cx="316.6465" cy="-18" rx="29.795" ry="18"/>
<text text-anchor="middle" x="316.6465" y="-14.3" font-family="Times,serif" font-size="14.00" fill="#000000">Mole</text>
</a>
</g>
</g>
<!-- Mole&#45;&gt;SIBaseUnit -->
<g id="edge2" class="edge">
<title>Mole&#45;&gt;SIBaseUnit</title>
<path fill="none" stroke="#000000" d="M316.6465,-36.0265C316.6465,-47.8082 316.6465,-63.4393 316.6465,-76.8419"/>
<polygon fill="none" stroke="#000000" points="313.1466,-76.9966 316.6465,-86.9966 320.1466,-76.9967 313.1466,-76.9966"/>
<text text-anchor="middle" x="326.1465" y="-57.8" font-family="Times,serif" font-size="14.00" fill="#000000">isA</text>
</g>
<!-- Kelvin -->
<g id="node5" class="node">
<title>Kelvin</title>
<g id="a_node5"><a xlink:href="http://emmo.info/emmo/middle/siunits#EMMO_2e5e45fc_f52c_4294_bdc2_5ed7a06dfce7" xlink:title="Kelvin">
<ellipse fill="#ffffcc" stroke="#000000" cx="398.6465" cy="-18" rx="34.394" ry="18"/>
<text text-anchor="middle" x="398.6465" y="-14.3" font-family="Times,serif" font-size="14.00" fill="#000000">Kelvin</text>
</a>
</g>
</g>
<!-- Kelvin&#45;&gt;SIBaseUnit -->
<g id="edge5" class="edge">
<title>Kelvin&#45;&gt;SIBaseUnit</title>
<path fill="none" stroke="#000000" d="M383.2229,-34.364C370.9758,-47.3579 353.6592,-65.7304 339.7565,-80.4808"/>
<polygon fill="none" stroke="#000000" points="337.1544,-78.1387 332.8425,-87.8165 342.2483,-82.94 337.1544,-78.1387"/>
<text text-anchor="middle" x="371.1465" y="-57.8" font-family="Times,serif" font-size="14.00" fill="#000000">isA</text>
</g>
<!-- Second -->
<g id="node6" class="node">
<title>Second</title>
<g id="a_node6"><a xlink:href="http://emmo.info/emmo/middle/siunits#EMMO_314ba716_2d3d_4462_9a4f_d3419ae1df43" xlink:title="Second">
<ellipse fill="#ffffcc" stroke="#000000" cx="487.6465" cy="-18" rx="36.2938" ry="18"/>
<text text-anchor="middle" x="487.6465" y="-14.3" font-family="Times,serif" font-size="14.00" fill="#000000">Second</text>
</a>
</g>
</g>
<!-- Second&#45;&gt;SIBaseUnit -->
<g id="edge4" class="edge">
<title>Second&#45;&gt;SIBaseUnit</title>
<path fill="none" stroke="#000000" d="M462.0461,-31.0248C433.723,-45.4348 387.7763,-68.8112 355.118,-85.4268"/>
<polygon fill="none" stroke="#000000" points="353.1905,-82.4804 345.8648,-90.1345 356.3647,-88.7194 353.1905,-82.4804"/>
<text text-anchor="middle" x="421.1465" y="-57.8" font-family="Times,serif" font-size="14.00" fill="#000000">isA</text>
</g>
<!-- Candela -->
<g id="node8" class="node">
<title>Candela</title>
<g id="a_node8"><a xlink:href="http://emmo.info/emmo/middle/siunits#EMMO_8d00f093_3f45_4ea3_986c_b3545c3c2f4c" xlink:title="Candela">
<ellipse fill="#ffffcc" stroke="#000000" cx="581.6465" cy="-18" rx="39.7935" ry="18"/>
<text text-anchor="middle" x="581.6465" y="-14.3" font-family="Times,serif" font-size="14.00" fill="#000000">Candela</text>
</a>
</g>
</g>
<!-- Candela&#45;&gt;SIBaseUnit -->
<g id="edge6" class="edge">
<title>Candela&#45;&gt;SIBaseUnit</title>
<path fill="none" stroke="#000000" d="M550.8489,-29.4586C544.8237,-31.6593 538.5451,-33.9239 532.6465,-36 489.2947,-51.2584 478.408,-54.9597 434.6465,-69 412.1107,-76.2303 387.0447,-83.9261 365.8314,-90.3385"/>
<polygon fill="none" stroke="#000000" points="364.6322,-87.0443 356.0679,-93.2815 366.6525,-93.7464 364.6322,-87.0443"/>
<text text-anchor="middle" x="489.1465" y="-57.8" font-family="Times,serif" font-size="14.00" fill="#000000">isA</text>
</g>
</g>
</svg>
