<?xml version="1.0" encoding="UTF-8" standalone="no"?>
<!DOCTYPE svg PUBLIC "-//W3C//DTD SVG 1.1//EN"
 "http://www.w3.org/Graphics/SVG/1.1/DTD/svg11.dtd">
<!-- Generated by graphviz version 2.40.1 (20161225.0304)
 -->
<!-- Title: %3 Pages: 1 -->
<svg width="775pt" height="116pt"
 viewBox="0.00 0.00 774.65 116.00" xmlns="http://www.w3.org/2000/svg" xmlns:xlink="http://www.w3.org/1999/xlink">
<g id="graph0" class="graph" transform="scale(1 1) rotate(0) translate(4 112)">
<title>%3</title>
<polygon fill="#ffffff" stroke="transparent" points="-4,4 -4,-112 770.6465,-112 770.6465,4 -4,4"/>
<!-- Ampere -->
<g id="node1" class="node">
<title>Ampere</title>
<g id="a_node1"><a xlink:href="http://emmo.info/emmo/middle/siunits#EMMO_db5dd38d_ac79_4af6_8782_fee7e7150ae8" xlink:title="Ampere">
<ellipse fill="#ffffcc" stroke="#000000" cx="39.6465" cy="-18" rx="39.7935" ry="18"/>
<text text-anchor="middle" x="39.6465" y="-14.3" font-family="Times,serif" font-size="14.00" fill="#000000">Ampere</text>
</a>
</g>
</g>
<!-- SIBaseUnit -->
<g id="node7" class="node">
<title>SIBaseUnit</title>
<g id="a_node7"><a xlink:href="http://emmo.info/emmo/middle/siunits#EMMO_3a185e6c_9e19_4776_b583_19c978156aa0" xlink:title="SIBaseUnit">
<ellipse fill="#ffffcc" stroke="#000000" stroke-width="2" cx="322.6465" cy="-90" rx="51.1914" ry="18"/>
<text text-anchor="middle" x="322.6465" y="-86.3" font-family="Times,serif" font-size="14.00" fill="#000000">SIBaseUnit</text>
</a>
</g>
</g>
<!-- Ampere&#45;&gt;SIBaseUnit -->
<g id="edge4" class="edge">
<title>Ampere&#45;&gt;SIBaseUnit</title>
<path fill="none" stroke="#000000" d="M69.7682,-29.7372C75.9643,-31.9613 82.4795,-34.1636 88.6465,-36 149.0808,-53.9963 219.7808,-69.5763 267.5232,-79.3138"/>
<polygon fill="none" stroke="#000000" points="266.855,-82.7494 277.3505,-81.3017 268.243,-75.8884 266.855,-82.7494"/>
</g>
<!-- Mole -->
<g id="node2" class="node">
<title>Mole</title>
<g id="a_node2"><a xlink:href="http://emmo.info/emmo/middle/siunits#EMMO_df6eeb01_1b41_4bd8_9257_a04fbd7cf000" xlink:title="Mole">
<ellipse fill="#ffffcc" stroke="#000000" cx="127.6465" cy="-18" rx="29.795" ry="18"/>
<text text-anchor="middle" x="127.6465" y="-14.3" font-family="Times,serif" font-size="14.00" fill="#000000">Mole</text>
</a>
</g>
</g>
<!-- Mole&#45;&gt;SIBaseUnit -->
<g id="edge3" class="edge">
<title>Mole&#45;&gt;SIBaseUnit</title>
<path fill="none" stroke="#000000" d="M151.4081,-29.4211C156.402,-31.6931 161.666,-33.9944 166.6465,-36 202.3904,-50.3938 243.6184,-64.5632 274.711,-74.7738"/>
<polygon fill="none" stroke="#000000" points="273.8377,-78.1704 284.4301,-77.945 276.0091,-71.5156 273.8377,-78.1704"/>
</g>
<!-- Kilogram -->
<g id="node3" class="node">
<title>Kilogram</title>
<g id="a_node3"><a xlink:href="http://emmo.info/emmo/middle/siunits#EMMO_9bfd6f1e_b0ce_459c_beb7_8f1f41708bba" xlink:title="Kilogram">
<ellipse fill="#ffffcc" stroke="#000000" cx="220.6465" cy="-18" rx="44.6926" ry="18"/>
<text text-anchor="middle" x="220.6465" y="-14.3" font-family="Times,serif" font-size="14.00" fill="#000000">Kilogram</text>
</a>
</g>
</g>
<!-- Kilogram&#45;&gt;SIBaseUnit -->
<g id="edge6" class="edge">
<title>Kilogram&#45;&gt;SIBaseUnit</title>
<path fill="none" stroke="#000000" d="M243.0308,-33.8007C257.1822,-43.7899 275.6796,-56.8469 291.2829,-67.861"/>
<polygon fill="none" stroke="#000000" points="289.4195,-70.8298 299.6076,-73.7373 293.4563,-65.111 289.4195,-70.8298"/>
</g>
<!-- Candela -->
<g id="node4" class="node">
<title>Candela</title>
<g id="a_node4"><a xlink:href="http://emmo.info/emmo/middle/siunits#EMMO_8d00f093_3f45_4ea3_986c_b3545c3c2f4c" xlink:title="Candela">
<ellipse fill="#ffffcc" stroke="#000000" cx="322.6465" cy="-18" rx="39.7935" ry="18"/>
<text text-anchor="middle" x="322.6465" y="-14.3" font-family="Times,serif" font-size="14.00" fill="#000000">Candela</text>
</a>
</g>
</g>
<!-- Candela&#45;&gt;SIBaseUnit -->
<g id="edge5" class="edge">
<title>Candela&#45;&gt;SIBaseUnit</title>
<path fill="none" stroke="#000000" d="M322.6465,-36.1686C322.6465,-43.869 322.6465,-53.0257 322.6465,-61.5834"/>
<polygon fill="none" stroke="#000000" points="319.1466,-61.5867 322.6465,-71.5867 326.1466,-61.5868 319.1466,-61.5867"/>
</g>
<!-- Metre -->
<g id="node5" class="node">
<title>Metre</title>
<g id="a_node5"><a xlink:href="http://emmo.info/emmo/middle/siunits#EMMO_7db11dbf_a643_464a_9b56_07eabcc3e9c5" xlink:title="Metre">
<ellipse fill="#ffffcc" stroke="#000000" cx="412.6465" cy="-18" rx="32.4942" ry="18"/>
<text text-anchor="middle" x="412.6465" y="-14.3" font-family="Times,serif" font-size="14.00" fill="#000000">Metre</text>
</a>
</g>
</g>
<!-- Metre&#45;&gt;SIBaseUnit -->
<g id="edge7" class="edge">
<title>Metre&#45;&gt;SIBaseUnit</title>
<path fill="none" stroke="#000000" d="M393.9984,-32.9184C381.6889,-42.7661 365.3175,-55.8632 351.3616,-67.0279"/>
<polygon fill="none" stroke="#000000" points="349.095,-64.359 343.4727,-73.339 353.4679,-69.8251 349.095,-64.359"/>
</g>
<!-- Kelvin -->
<g id="node6" class="node">
<title>Kelvin</title>
<g id="a_node6"><a xlink:href="http://emmo.info/emmo/middle/siunits#EMMO_2e5e45fc_f52c_4294_bdc2_5ed7a06dfce7" xlink:title="Kelvin">
<ellipse fill="#ffffcc" stroke="#000000" cx="497.6465" cy="-18" rx="34.394" ry="18"/>
<text text-anchor="middle" x="497.6465" y="-14.3" font-family="Times,serif" font-size="14.00" fill="#000000">Kelvin</text>
</a>
</g>
</g>
<!-- Kelvin&#45;&gt;SIBaseUnit -->
<g id="edge2" class="edge">
<title>Kelvin&#45;&gt;SIBaseUnit</title>
<path fill="none" stroke="#000000" d="M470.3027,-29.25C442.2173,-40.8052 398.1055,-58.954 365.4025,-72.4089"/>
<polygon fill="none" stroke="#000000" points="363.994,-69.2037 356.0778,-76.2454 366.6574,-75.6773 363.994,-69.2037"/>
</g>
<!-- Second -->
<g id="node8" class="node">
<title>Second</title>
<g id="a_node8"><a xlink:href="http://emmo.info/emmo/middle/siunits#EMMO_314ba716_2d3d_4462_9a4f_d3419ae1df43" xlink:title="Second">
<ellipse fill="#ffffcc" stroke="#000000" cx="586.6465" cy="-18" rx="36.2938" ry="18"/>
<text text-anchor="middle" x="586.6465" y="-14.3" font-family="Times,serif" font-size="14.00" fill="#000000">Second</text>
</a>
</g>
</g>
<!-- Second&#45;&gt;SIBaseUnit -->
<g id="edge1" class="edge">
<title>Second&#45;&gt;SIBaseUnit</title>
<path fill="none" stroke="#000000" d="M558.635,-29.6293C552.7436,-31.8862 546.5306,-34.1287 540.6465,-36 485.6634,-53.4856 421.4073,-68.799 376.9686,-78.6092"/>
<polygon fill="none" stroke="#000000" points="375.9789,-75.2429 366.9585,-80.8 377.4756,-82.081 375.9789,-75.2429"/>
</g>
<!-- key1 -->
<g id="node9" class="node">
<title>key1</title>
<text text-anchor="start" x="658.6465" y="-13.8" font-family="Times,serif" font-size="14.00" fill="#000000">isA</text>
</g>
<!-- key2 -->
<g id="node10" class="node">
<title>key2</title>
<text text-anchor="start" x="737.6465" y="-13.8" font-family="Times,serif" font-size="14.00" fill="#000000"> </text>
</g>
<!-- key1&#45;&gt;key2 -->
<g id="edge8" class="edge">
<title>key1:e&#45;&gt;key2:w</title>
<path fill="none" stroke="#000000" d="M679.6465,-19C700.6465,-19 708.3574,-19 725.2046,-19"/>
<polygon fill="none" stroke="#000000" points="725.6465,-22.5001 735.6465,-19 725.6464,-15.5001 725.6465,-22.5001"/>
</g>
</g>
</svg>
