<?xml version="1.0" encoding="UTF-8" standalone="no"?>
<!DOCTYPE svg PUBLIC "-//W3C//DTD SVG 1.1//EN"
 "http://www.w3.org/Graphics/SVG/1.1/DTD/svg11.dtd">
<!-- Generated by graphviz version 2.40.1 (20161225.0304)
 -->
<!-- Title: %3 Pages: 1 -->
<svg width="774pt" height="116pt"
 viewBox="0.00 0.00 773.65 116.00" xmlns="http://www.w3.org/2000/svg" xmlns:xlink="http://www.w3.org/1999/xlink">
<g id="graph0" class="graph" transform="scale(1 1) rotate(0) translate(4 112)">
<title>%3</title>
<polygon fill="#ffffff" stroke="transparent" points="-4,4 -4,-112 769.6465,-112 769.6465,4 -4,4"/>
<!-- SIBaseUnit -->
<g id="node1" class="node">
<title>SIBaseUnit</title>
<g id="a_node1"><a xlink:href="http://emmo.info/emmo/middle/siunits#EMMO_3a185e6c_9e19_4776_b583_19c978156aa0" xlink:title="SIBaseUnit">
<ellipse fill="#ffffcc" stroke="#000000" stroke-width="2" cx="331.6465" cy="-90" rx="51.1914" ry="18"/>
<text text-anchor="middle" x="331.6465" y="-86.3" font-family="Times,serif" font-size="14.00" fill="#000000">SIBaseUnit</text>
</a>
</g>
</g>
<!-- Candela -->
<g id="node2" class="node">
<title>Candela</title>
<g id="a_node2"><a xlink:href="http://emmo.info/emmo/middle/siunits#EMMO_8d00f093_3f45_4ea3_986c_b3545c3c2f4c" xlink:title="Candela">
<ellipse fill="#ffffcc" stroke="#000000" cx="39.6465" cy="-18" rx="39.7935" ry="18"/>
<text text-anchor="middle" x="39.6465" y="-14.3" font-family="Times,serif" font-size="14.00" fill="#000000">Candela</text>
</a>
</g>
</g>
<!-- Candela&#45;&gt;SIBaseUnit -->
<g id="edge6" class="edge">
<title>Candela&#45;&gt;SIBaseUnit</title>
<path fill="none" stroke="#000000" d="M69.6405,-29.9871C75.558,-32.1416 81.7589,-34.2541 87.6465,-36 151.272,-54.868 225.9758,-70.4672 275.8039,-79.9678"/>
<polygon fill="none" stroke="#000000" points="275.2606,-83.427 285.7364,-81.8436 276.5596,-76.5486 275.2606,-83.427"/>
</g>
<!-- Ampere -->
<g id="node3" class="node">
<title>Ampere</title>
<g id="a_node3"><a xlink:href="http://emmo.info/emmo/middle/siunits#EMMO_db5dd38d_ac79_4af6_8782_fee7e7150ae8" xlink:title="Ampere">
<ellipse fill="#ffffcc" stroke="#000000" cx="136.6465" cy="-18" rx="39.7935" ry="18"/>
<text text-anchor="middle" x="136.6465" y="-14.3" font-family="Times,serif" font-size="14.00" fill="#000000">Ampere</text>
</a>
</g>
</g>
<!-- Ampere&#45;&gt;SIBaseUnit -->
<g id="edge5" class="edge">
<title>Ampere&#45;&gt;SIBaseUnit</title>
<path fill="none" stroke="#000000" d="M167.3627,-29.5536C173.1041,-31.7033 179.0561,-33.925 184.6465,-36 218.7681,-48.6649 257.4003,-62.8503 286.4954,-73.5029"/>
<polygon fill="none" stroke="#000000" points="285.3828,-76.8227 295.9766,-76.9728 287.7886,-70.2491 285.3828,-76.8227"/>
</g>
<!-- Kilogram -->
<g id="node4" class="node">
<title>Kilogram</title>
<g id="a_node4"><a xlink:href="http://emmo.info/emmo/middle/siunits#EMMO_9bfd6f1e_b0ce_459c_beb7_8f1f41708bba" xlink:title="Kilogram">
<ellipse fill="#ffffcc" stroke="#000000" cx="238.6465" cy="-18" rx="44.6926" ry="18"/>
<text text-anchor="middle" x="238.6465" y="-14.3" font-family="Times,serif" font-size="14.00" fill="#000000">Kilogram</text>
</a>
</g>
</g>
<!-- Kilogram&#45;&gt;SIBaseUnit -->
<g id="edge4" class="edge">
<title>Kilogram&#45;&gt;SIBaseUnit</title>
<path fill="none" stroke="#000000" d="M259.7496,-34.3379C272.2649,-44.0272 288.3209,-56.4576 302.084,-67.1129"/>
<polygon fill="none" stroke="#000000" points="300.2551,-70.1233 310.3049,-73.4775 304.5403,-64.5882 300.2551,-70.1233"/>
</g>
<!-- Mole -->
<g id="node5" class="node">
<title>Mole</title>
<g id="a_node5"><a xlink:href="http://emmo.info/emmo/middle/siunits#EMMO_df6eeb01_1b41_4bd8_9257_a04fbd7cf000" xlink:title="Mole">
<ellipse fill="#ffffcc" stroke="#000000" cx="331.6465" cy="-18" rx="29.795" ry="18"/>
<text text-anchor="middle" x="331.6465" y="-14.3" font-family="Times,serif" font-size="14.00" fill="#000000">Mole</text>
</a>
</g>
</g>
<!-- Mole&#45;&gt;SIBaseUnit -->
<g id="edge3" class="edge">
<title>Mole&#45;&gt;SIBaseUnit</title>
<path fill="none" stroke="#000000" d="M331.6465,-36.1686C331.6465,-43.869 331.6465,-53.0257 331.6465,-61.5834"/>
<polygon fill="none" stroke="#000000" points="328.1466,-61.5867 331.6465,-71.5867 335.1466,-61.5868 328.1466,-61.5867"/>
</g>
<!-- Metre -->
<g id="node6" class="node">
<title>Metre</title>
<g id="a_node6"><a xlink:href="http://emmo.info/emmo/middle/siunits#EMMO_7db11dbf_a643_464a_9b56_07eabcc3e9c5" xlink:title="Metre">
<ellipse fill="#ffffcc" stroke="#000000" cx="411.6465" cy="-18" rx="32.4942" ry="18"/>
<text text-anchor="middle" x="411.6465" y="-14.3" font-family="Times,serif" font-size="14.00" fill="#000000">Metre</text>
</a>
</g>
</g>
<!-- Metre&#45;&gt;SIBaseUnit -->
<g id="edge7" class="edge">
<title>Metre&#45;&gt;SIBaseUnit</title>
<path fill="none" stroke="#000000" d="M394.2877,-33.6229C383.6571,-43.1904 369.8454,-55.621 357.8971,-66.3745"/>
<polygon fill="none" stroke="#000000" points="355.4582,-63.8607 350.3666,-73.1519 360.141,-69.0637 355.4582,-63.8607"/>
</g>
<!-- Kelvin -->
<g id="node7" class="node">
<title>Kelvin</title>
<g id="a_node7"><a xlink:href="http://emmo.info/emmo/middle/siunits#EMMO_2e5e45fc_f52c_4294_bdc2_5ed7a06dfce7" xlink:title="Kelvin">
<ellipse fill="#ffffcc" stroke="#000000" cx="496.6465" cy="-18" rx="34.394" ry="18"/>
<text text-anchor="middle" x="496.6465" y="-14.3" font-family="Times,serif" font-size="14.00" fill="#000000">Kelvin</text>
</a>
</g>
</g>
<!-- Kelvin&#45;&gt;SIBaseUnit -->
<g id="edge1" class="edge">
<title>Kelvin&#45;&gt;SIBaseUnit</title>
<path fill="none" stroke="#000000" d="M470.1364,-29.568C444.0787,-40.9387 403.9112,-58.4663 373.5326,-71.7224"/>
<polygon fill="none" stroke="#000000" points="371.8093,-68.6556 364.0437,-75.863 374.6089,-75.0714 371.8093,-68.6556"/>
</g>
<!-- Second -->
<g id="node8" class="node">
<title>Second</title>
<g id="a_node8"><a xlink:href="http://emmo.info/emmo/middle/siunits#EMMO_314ba716_2d3d_4462_9a4f_d3419ae1df43" xlink:title="Second">
<ellipse fill="#ffffcc" stroke="#000000" cx="585.6465" cy="-18" rx="36.2938" ry="18"/>
<text text-anchor="middle" x="585.6465" y="-14.3" font-family="Times,serif" font-size="14.00" fill="#000000">Second</text>
</a>
</g>
</g>
<!-- Second&#45;&gt;SIBaseUnit -->
<g id="edge2" class="edge">
<title>Second&#45;&gt;SIBaseUnit</title>
<path fill="none" stroke="#000000" d="M557.6187,-29.5784C551.7285,-31.839 545.5201,-34.0958 539.6465,-36 487.7343,-52.8293 427.2384,-68.0565 384.9159,-78.0179"/>
<polygon fill="none" stroke="#000000" points="384.0431,-74.6275 375.1013,-80.3103 385.6353,-81.444 384.0431,-74.6275"/>
</g>
<!-- key1 -->
<g id="node9" class="node">
<title>key1</title>
<text text-anchor="start" x="657.6465" y="-13.8" font-family="Times,serif" font-size="14.00" fill="#000000">isA</text>
</g>
<!-- key2 -->
<g id="node10" class="node">
<title>key2</title>
<text text-anchor="start" x="736.6465" y="-13.8" font-family="Times,serif" font-size="14.00" fill="#000000"> </text>
</g>
<!-- key1&#45;&gt;key2 -->
<g id="edge8" class="edge">
<title>key1:e&#45;&gt;key2:w</title>
<path fill="none" stroke="#000000" d="M678.6465,-19C699.6465,-19 707.3574,-19 724.2046,-19"/>
<polygon fill="none" stroke="#000000" points="724.6465,-22.5001 734.6465,-19 724.6464,-15.5001 724.6465,-22.5001"/>
</g>
</g>
</svg>
