<?xml version="1.0" encoding="UTF-8" standalone="no"?>
<!DOCTYPE svg PUBLIC "-//W3C//DTD SVG 1.1//EN"
 "http://www.w3.org/Graphics/SVG/1.1/DTD/svg11.dtd">
<!-- Generated by graphviz version 2.40.1 (20161225.0304)
 -->
<!-- Title: %3 Pages: 1 -->
<svg width="774pt" height="116pt"
 viewBox="0.00 0.00 773.65 116.00" xmlns="http://www.w3.org/2000/svg" xmlns:xlink="http://www.w3.org/1999/xlink">
<g id="graph0" class="graph" transform="scale(1 1) rotate(0) translate(4 112)">
<title>%3</title>
<polygon fill="#ffffff" stroke="transparent" points="-4,4 -4,-112 769.6465,-112 769.6465,4 -4,4"/>
<!-- Candela -->
<g id="node1" class="node">
<title>Candela</title>
<g id="a_node1"><a xlink:href="http://emmo.info/emmo/middle/siunits#EMMO_8d00f093_3f45_4ea3_986c_b3545c3c2f4c" xlink:title="Candela">
<ellipse fill="#ffffcc" stroke="#000000" cx="39.6465" cy="-18" rx="39.7935" ry="18"/>
<text text-anchor="middle" x="39.6465" y="-14.3" font-family="Times,serif" font-size="14.00" fill="#000000">Candela</text>
</a>
</g>
</g>
<!-- SIBaseUnit -->
<g id="node8" class="node">
<title>SIBaseUnit</title>
<g id="a_node8"><a xlink:href="http://emmo.info/emmo/middle/siunits#EMMO_3a185e6c_9e19_4776_b583_19c978156aa0" xlink:title="SIBaseUnit">
<ellipse fill="#ffffcc" stroke="#000000" stroke-width="2" cx="321.6465" cy="-90" rx="51.1914" ry="18"/>
<text text-anchor="middle" x="321.6465" y="-86.3" font-family="Times,serif" font-size="14.00" fill="#000000">SIBaseUnit</text>
</a>
</g>
</g>
<!-- Candela&#45;&gt;SIBaseUnit -->
<g id="edge7" class="edge">
<title>Candela&#45;&gt;SIBaseUnit</title>
<path fill="none" stroke="#000000" d="M69.7696,-29.7327C75.9655,-31.9571 82.4804,-34.1607 88.6465,-36 148.7013,-53.914 218.9297,-69.4745 266.4625,-79.23"/>
<polygon fill="none" stroke="#000000" points="266.0489,-82.7175 276.5461,-81.2823 267.4451,-75.8582 266.0489,-82.7175"/>
</g>
<!-- Metre -->
<g id="node2" class="node">
<title>Metre</title>
<g id="a_node2"><a xlink:href="http://emmo.info/emmo/middle/siunits#EMMO_7db11dbf_a643_464a_9b56_07eabcc3e9c5" xlink:title="Metre">
<ellipse fill="#ffffcc" stroke="#000000" cx="129.6465" cy="-18" rx="32.4942" ry="18"/>
<text text-anchor="middle" x="129.6465" y="-14.3" font-family="Times,serif" font-size="14.00" fill="#000000">Metre</text>
</a>
</g>
</g>
<!-- Metre&#45;&gt;SIBaseUnit -->
<g id="edge6" class="edge">
<title>Metre&#45;&gt;SIBaseUnit</title>
<path fill="none" stroke="#000000" d="M155.1188,-29.5135C160.2334,-31.7317 165.5901,-33.9888 170.6465,-36 205.1616,-49.7284 244.714,-63.8144 274.6785,-74.1564"/>
<polygon fill="none" stroke="#000000" points="273.857,-77.5749 284.4517,-77.5142 276.1316,-70.9547 273.857,-77.5749"/>
</g>
<!-- Ampere -->
<g id="node3" class="node">
<title>Ampere</title>
<g id="a_node3"><a xlink:href="http://emmo.info/emmo/middle/siunits#EMMO_db5dd38d_ac79_4af6_8782_fee7e7150ae8" xlink:title="Ampere">
<ellipse fill="#ffffcc" stroke="#000000" cx="219.6465" cy="-18" rx="39.7935" ry="18"/>
<text text-anchor="middle" x="219.6465" y="-14.3" font-family="Times,serif" font-size="14.00" fill="#000000">Ampere</text>
</a>
</g>
</g>
<!-- Ampere&#45;&gt;SIBaseUnit -->
<g id="edge3" class="edge">
<title>Ampere&#45;&gt;SIBaseUnit</title>
<path fill="none" stroke="#000000" d="M241.2781,-33.2693C255.4884,-43.3002 274.3134,-56.5884 290.1717,-67.7825"/>
<polygon fill="none" stroke="#000000" points="288.4404,-70.8445 298.6285,-73.752 292.4772,-65.1258 288.4404,-70.8445"/>
</g>
<!-- Kilogram -->
<g id="node4" class="node">
<title>Kilogram</title>
<g id="a_node4"><a xlink:href="http://emmo.info/emmo/middle/siunits#EMMO_9bfd6f1e_b0ce_459c_beb7_8f1f41708bba" xlink:title="Kilogram">
<ellipse fill="#ffffcc" stroke="#000000" cx="321.6465" cy="-18" rx="44.6926" ry="18"/>
<text text-anchor="middle" x="321.6465" y="-14.3" font-family="Times,serif" font-size="14.00" fill="#000000">Kilogram</text>
</a>
</g>
</g>
<!-- Kilogram&#45;&gt;SIBaseUnit -->
<g id="edge2" class="edge">
<title>Kilogram&#45;&gt;SIBaseUnit</title>
<path fill="none" stroke="#000000" d="M321.6465,-36.1686C321.6465,-43.869 321.6465,-53.0257 321.6465,-61.5834"/>
<polygon fill="none" stroke="#000000" points="318.1466,-61.5867 321.6465,-71.5867 325.1466,-61.5868 318.1466,-61.5867"/>
</g>
<!-- Mole -->
<g id="node5" class="node">
<title>Mole</title>
<g id="a_node5"><a xlink:href="http://emmo.info/emmo/middle/siunits#EMMO_df6eeb01_1b41_4bd8_9257_a04fbd7cf000" xlink:title="Mole">
<ellipse fill="#ffffcc" stroke="#000000" cx="414.6465" cy="-18" rx="29.795" ry="18"/>
<text text-anchor="middle" x="414.6465" y="-14.3" font-family="Times,serif" font-size="14.00" fill="#000000">Mole</text>
</a>
</g>
</g>
<!-- Mole&#45;&gt;SIBaseUnit -->
<g id="edge5" class="edge">
<title>Mole&#45;&gt;SIBaseUnit</title>
<path fill="none" stroke="#000000" d="M396.2727,-32.2249C383.32,-42.2528 365.7035,-55.8914 350.8392,-67.3992"/>
<polygon fill="none" stroke="#000000" points="348.6761,-64.6474 342.9115,-73.5368 352.9614,-70.1825 348.6761,-64.6474"/>
</g>
<!-- Kelvin -->
<g id="node6" class="node">
<title>Kelvin</title>
<g id="a_node6"><a xlink:href="http://emmo.info/emmo/middle/siunits#EMMO_2e5e45fc_f52c_4294_bdc2_5ed7a06dfce7" xlink:title="Kelvin">
<ellipse fill="#ffffcc" stroke="#000000" cx="496.6465" cy="-18" rx="34.394" ry="18"/>
<text text-anchor="middle" x="496.6465" y="-14.3" font-family="Times,serif" font-size="14.00" fill="#000000">Kelvin</text>
</a>
</g>
</g>
<!-- Kelvin&#45;&gt;SIBaseUnit -->
<g id="edge1" class="edge">
<title>Kelvin&#45;&gt;SIBaseUnit</title>
<path fill="none" stroke="#000000" d="M469.3636,-29.4599C464.149,-31.6392 458.7315,-33.8956 453.6465,-36 424.0279,-48.2574 390.6083,-61.9274 364.8068,-72.4466"/>
<polygon fill="none" stroke="#000000" points="363.2548,-69.2995 355.3149,-76.3144 365.8964,-75.782 363.2548,-69.2995"/>
</g>
<!-- Second -->
<g id="node7" class="node">
<title>Second</title>
<g id="a_node7"><a xlink:href="http://emmo.info/emmo/middle/siunits#EMMO_314ba716_2d3d_4462_9a4f_d3419ae1df43" xlink:title="Second">
<ellipse fill="#ffffcc" stroke="#000000" cx="585.6465" cy="-18" rx="36.2938" ry="18"/>
<text text-anchor="middle" x="585.6465" y="-14.3" font-family="Times,serif" font-size="14.00" fill="#000000">Second</text>
</a>
</g>
</g>
<!-- Second&#45;&gt;SIBaseUnit -->
<g id="edge4" class="edge">
<title>Second&#45;&gt;SIBaseUnit</title>
<path fill="none" stroke="#000000" d="M557.635,-29.6293C551.7436,-31.8862 545.5306,-34.1287 539.6465,-36 484.6634,-53.4856 420.4073,-68.799 375.9686,-78.6092"/>
<polygon fill="none" stroke="#000000" points="374.9789,-75.2429 365.9585,-80.8 376.4756,-82.081 374.9789,-75.2429"/>
</g>
<!-- key1 -->
<g id="node9" class="node">
<title>key1</title>
<text text-anchor="start" x="657.6465" y="-13.8" font-family="Times,serif" font-size="14.00" fill="#000000">isA</text>
</g>
<!-- key2 -->
<g id="node10" class="node">
<title>key2</title>
<text text-anchor="start" x="736.6465" y="-13.8" font-family="Times,serif" font-size="14.00" fill="#000000"> </text>
</g>
<!-- key1&#45;&gt;key2 -->
<g id="edge8" class="edge">
<title>key1:e&#45;&gt;key2:w</title>
<path fill="none" stroke="#000000" d="M678.6465,-19C699.6465,-19 707.3574,-19 724.2046,-19"/>
<polygon fill="none" stroke="#000000" points="724.6465,-22.5001 734.6465,-19 724.6464,-15.5001 724.6465,-22.5001"/>
</g>
</g>
</svg>
