<?xml version="1.0" encoding="UTF-8" standalone="no"?>
<!DOCTYPE svg PUBLIC "-//W3C//DTD SVG 1.1//EN"
 "http://www.w3.org/Graphics/SVG/1.1/DTD/svg11.dtd">
<!-- Generated by graphviz version 2.40.1 (20161225.0304)
 -->
<!-- Title: %3 Pages: 1 -->
<svg width="774pt" height="116pt"
 viewBox="0.00 0.00 774.50 116.00" xmlns="http://www.w3.org/2000/svg" xmlns:xlink="http://www.w3.org/1999/xlink">
<g id="graph0" class="graph" transform="scale(1 1) rotate(0) translate(4 112)">
<title>%3</title>
<polygon fill="#ffffff" stroke="transparent" points="-4,4 -4,-112 770.4971,-112 770.4971,4 -4,4"/>
<!-- Metre -->
<g id="node1" class="node">
<title>Metre</title>
<g id="a_node1"><a xlink:href="http://emmo.info/emmo/middle/siunits#EMMO_7db11dbf_a643_464a_9b56_07eabcc3e9c5" xlink:title="Metre">
<ellipse fill="#ffffcc" stroke="#000000" cx="32.4971" cy="-18" rx="32.4942" ry="18"/>
<text text-anchor="middle" x="32.4971" y="-14.3" font-family="Times,serif" font-size="14.00" fill="#000000">Metre</text>
</a>
</g>
</g>
<!-- SIBaseUnit -->
<g id="node5" class="node">
<title>SIBaseUnit</title>
<g id="a_node5"><a xlink:href="http://emmo.info/emmo/middle/siunits#EMMO_3a185e6c_9e19_4776_b583_19c978156aa0" xlink:title="SIBaseUnit">
<ellipse fill="#ffffcc" stroke="#000000" stroke-width="2" cx="297.4971" cy="-90" rx="51.1914" ry="18"/>
<text text-anchor="middle" x="297.4971" y="-86.3" font-family="Times,serif" font-size="14.00" fill="#000000">SIBaseUnit</text>
</a>
</g>
</g>
<!-- Metre&#45;&gt;SIBaseUnit -->
<g id="edge7" class="edge">
<title>Metre&#45;&gt;SIBaseUnit</title>
<path fill="none" stroke="#000000" d="M57.5517,-29.5469C63.0676,-31.8605 68.9269,-34.1465 74.4971,-36 130.5437,-54.6501 196.482,-69.8125 242.0481,-79.2701"/>
<polygon fill="none" stroke="#000000" points="241.5245,-82.7355 252.0239,-81.3171 242.9316,-75.8784 241.5245,-82.7355"/>
</g>
<!-- Kelvin -->
<g id="node2" class="node">
<title>Kelvin</title>
<g id="a_node2"><a xlink:href="http://emmo.info/emmo/middle/siunits#EMMO_2e5e45fc_f52c_4294_bdc2_5ed7a06dfce7" xlink:title="Kelvin">
<ellipse fill="#ffffcc" stroke="#000000" cx="117.4971" cy="-18" rx="34.394" ry="18"/>
<text text-anchor="middle" x="117.4971" y="-14.3" font-family="Times,serif" font-size="14.00" fill="#000000">Kelvin</text>
</a>
</g>
</g>
<!-- Kelvin&#45;&gt;SIBaseUnit -->
<g id="edge3" class="edge">
<title>Kelvin&#45;&gt;SIBaseUnit</title>
<path fill="none" stroke="#000000" d="M144.2985,-29.3212C149.6556,-31.5553 155.2488,-33.8674 160.4971,-36 191.4006,-48.557 226.3908,-62.3415 253.2743,-72.8404"/>
<polygon fill="none" stroke="#000000" points="252.2011,-76.1785 262.7893,-76.5513 254.7446,-69.657 252.2011,-76.1785"/>
</g>
<!-- Candela -->
<g id="node3" class="node">
<title>Candela</title>
<g id="a_node3"><a xlink:href="http://emmo.info/emmo/middle/siunits#EMMO_8d00f093_3f45_4ea3_986c_b3545c3c2f4c" xlink:title="Candela">
<ellipse fill="#ffffcc" stroke="#000000" cx="209.4971" cy="-18" rx="39.7935" ry="18"/>
<text text-anchor="middle" x="209.4971" y="-14.3" font-family="Times,serif" font-size="14.00" fill="#000000">Candela</text>
</a>
</g>
</g>
<!-- Candela&#45;&gt;SIBaseUnit -->
<g id="edge4" class="edge">
<title>Candela&#45;&gt;SIBaseUnit</title>
<path fill="none" stroke="#000000" d="M229.0272,-33.9791C240.8522,-43.6542 256.1347,-56.158 269.2605,-66.8973"/>
<polygon fill="none" stroke="#000000" points="267.1483,-69.6914 277.1043,-73.3149 271.581,-64.2737 267.1483,-69.6914"/>
</g>
<!-- Mole -->
<g id="node4" class="node">
<title>Mole</title>
<g id="a_node4"><a xlink:href="http://emmo.info/emmo/middle/siunits#EMMO_df6eeb01_1b41_4bd8_9257_a04fbd7cf000" xlink:title="Mole">
<ellipse fill="#ffffcc" stroke="#000000" cx="297.4971" cy="-18" rx="29.795" ry="18"/>
<text text-anchor="middle" x="297.4971" y="-14.3" font-family="Times,serif" font-size="14.00" fill="#000000">Mole</text>
</a>
</g>
</g>
<!-- Mole&#45;&gt;SIBaseUnit -->
<g id="edge2" class="edge">
<title>Mole&#45;&gt;SIBaseUnit</title>
<path fill="none" stroke="#000000" d="M297.4971,-36.1686C297.4971,-43.869 297.4971,-53.0257 297.4971,-61.5834"/>
<polygon fill="none" stroke="#000000" points="293.9972,-61.5867 297.4971,-71.5867 300.9972,-61.5868 293.9972,-61.5867"/>
</g>
<!-- Second -->
<g id="node6" class="node">
<title>Second</title>
<g id="a_node6"><a xlink:href="http://emmo.info/emmo/middle/siunits#EMMO_314ba716_2d3d_4462_9a4f_d3419ae1df43" xlink:title="Second">
<ellipse fill="#ffffcc" stroke="#000000" cx="381.4971" cy="-18" rx="36.2938" ry="18"/>
<text text-anchor="middle" x="381.4971" y="-14.3" font-family="Times,serif" font-size="14.00" fill="#000000">Second</text>
</a>
</g>
</g>
<!-- Second&#45;&gt;SIBaseUnit -->
<g id="edge5" class="edge">
<title>Second&#45;&gt;SIBaseUnit</title>
<path fill="none" stroke="#000000" d="M363.2704,-33.6229C352.1083,-43.1904 337.606,-55.621 325.0603,-66.3745"/>
<polygon fill="none" stroke="#000000" points="322.4681,-63.9865 317.1533,-73.1519 327.0236,-69.3013 322.4681,-63.9865"/>
</g>
<!-- Ampere -->
<g id="node7" class="node">
<title>Ampere</title>
<g id="a_node7"><a xlink:href="http://emmo.info/emmo/middle/siunits#EMMO_db5dd38d_ac79_4af6_8782_fee7e7150ae8" xlink:title="Ampere">
<ellipse fill="#ffffcc" stroke="#000000" cx="475.4971" cy="-18" rx="39.7935" ry="18"/>
<text text-anchor="middle" x="475.4971" y="-14.3" font-family="Times,serif" font-size="14.00" fill="#000000">Ampere</text>
</a>
</g>
</g>
<!-- Ampere&#45;&gt;SIBaseUnit -->
<g id="edge1" class="edge">
<title>Ampere&#45;&gt;SIBaseUnit</title>
<path fill="none" stroke="#000000" d="M445.7039,-30.0512C416.9692,-41.6742 373.1651,-59.3927 340.6225,-72.556"/>
<polygon fill="none" stroke="#000000" points="339.2978,-69.3163 331.34,-76.3108 341.9228,-75.8055 339.2978,-69.3163"/>
</g>
<!-- Kilogram -->
<g id="node8" class="node">
<title>Kilogram</title>
<g id="a_node8"><a xlink:href="http://emmo.info/emmo/middle/siunits#EMMO_9bfd6f1e_b0ce_459c_beb7_8f1f41708bba" xlink:title="Kilogram">
<ellipse fill="#ffffcc" stroke="#000000" cx="577.4971" cy="-18" rx="44.6926" ry="18"/>
<text text-anchor="middle" x="577.4971" y="-14.3" font-family="Times,serif" font-size="14.00" fill="#000000">Kilogram</text>
</a>
</g>
</g>
<!-- Kilogram&#45;&gt;SIBaseUnit -->
<g id="edge6" class="edge">
<title>Kilogram&#45;&gt;SIBaseUnit</title>
<path fill="none" stroke="#000000" d="M543.7181,-29.9996C537.3654,-32.1059 530.7535,-34.1978 524.4971,-36 465.9282,-52.8717 397.7923,-68.5645 351.5666,-78.6362"/>
<polygon fill="none" stroke="#000000" points="350.7899,-75.2232 341.7574,-80.7607 352.2717,-82.0646 350.7899,-75.2232"/>
</g>
<!-- key1 -->
<g id="node9" class="node">
<title>key1</title>
<text text-anchor="start" x="658.4971" y="-13.8" font-family="Times,serif" font-size="14.00" fill="#000000">isA</text>
</g>
<!-- key2 -->
<g id="node10" class="node">
<title>key2</title>
<text text-anchor="start" x="737.4971" y="-13.8" font-family="Times,serif" font-size="14.00" fill="#000000"> </text>
</g>
<!-- key1&#45;&gt;key2 -->
<g id="edge8" class="edge">
<title>key1:e&#45;&gt;key2:w</title>
<path fill="none" stroke="#000000" d="M679.4971,-19C700.4971,-19 708.2081,-19 725.0552,-19"/>
<polygon fill="none" stroke="#000000" points="725.4972,-22.5001 735.4971,-19 725.4971,-15.5001 725.4972,-22.5001"/>
</g>
</g>
</svg>
