<?xml version="1.0" encoding="UTF-8" standalone="no"?>
<!DOCTYPE svg PUBLIC "-//W3C//DTD SVG 1.1//EN"
 "http://www.w3.org/Graphics/SVG/1.1/DTD/svg11.dtd">
<!-- Generated by graphviz version 2.40.1 (20161225.0304)
 -->
<!-- Title: %3 Pages: 1 -->
<svg width="520pt" height="188pt"
 viewBox="0.00 0.00 519.55 188.00" xmlns="http://www.w3.org/2000/svg" xmlns:xlink="http://www.w3.org/1999/xlink">
<g id="graph0" class="graph" transform="scale(1 1) rotate(0) translate(4 184)">
<title>%3</title>
<polygon fill="#ffffff" stroke="transparent" points="-4,4 -4,-184 515.5473,-184 515.5473,4 -4,4"/>
<!-- Sign -->
<g id="node1" class="node">
<title>Sign</title>
<g id="a_node1"><a xlink:href="http://emmo.info/emmo/top/semiotics#EMMO_b21a56ed_f969_4612_a6ec_cb7766f7f31d" xlink:title="Sign">
<ellipse fill="#ffc880" stroke="#000000" stroke-width="2" cx="253.5473" cy="-162" rx="27" ry="18"/>
<text text-anchor="middle" x="253.5473" y="-158.3" font-family="Times,serif" font-size="14.00" fill="#000000">Sign</text>
</a>
</g>
</g>
<!-- Index -->
<g id="node2" class="node">
<title>Index</title>
<g id="a_node2"><a xlink:href="http://emmo.info/emmo/top/semiotics#EMMO_0cd58641_824c_4851_907f_f4c3be76630c" xlink:title="Index">
<ellipse fill="#ffffcc" stroke="#000000" cx="30.5473" cy="-90" rx="30.5947" ry="18"/>
<text text-anchor="middle" x="30.5473" y="-86.3" font-family="Times,serif" font-size="14.00" fill="#000000">Index</text>
</a>
</g>
</g>
<!-- Index&#45;&gt;Sign -->
<g id="edge4" class="edge">
<title>Index&#45;&gt;Sign</title>
<path fill="none" stroke="#000000" d="M54.4405,-101.3882C59.6917,-103.7116 65.2632,-106.0418 70.5473,-108 120.9424,-126.6758 180.9648,-143.3693 218.1692,-153.0916"/>
<polygon fill="none" stroke="#000000" points="217.4727,-156.5266 228.0308,-155.6448 219.2272,-149.75 217.4727,-156.5266"/>
</g>
<!-- SpecialUnit -->
<g id="node3" class="node">
<title>SpecialUnit</title>
<g id="a_node3"><a xlink:href="http://emmo.info/emmo/middle/metrology#EMMO_3ee80521_3c23_4dd1_935d_9d522614a3e2" xlink:title="SpecialUnit">
<ellipse fill="#ffffcc" stroke="#000000" cx="131.5473" cy="-90" rx="51.9908" ry="18"/>
<text text-anchor="middle" x="131.5473" y="-86.3" font-family="Times,serif" font-size="14.00" fill="#000000">SpecialUnit</text>
</a>
</g>
</g>
<!-- SpecialUnit&#45;&gt;Sign -->
<g id="edge5" class="edge">
<title>SpecialUnit&#45;&gt;Sign</title>
<path fill="none" stroke="#000000" d="M158.0195,-105.6229C177.5883,-117.1718 204.226,-132.8923 224.4015,-144.7992"/>
<polygon fill="none" stroke="#000000" points="222.777,-147.9045 233.168,-149.9729 226.3348,-141.8761 222.777,-147.9045"/>
</g>
<!-- Interpretant -->
<g id="node4" class="node">
<title>Interpretant</title>
<g id="a_node4"><a xlink:href="http://emmo.info/emmo/top/semiotics#EMMO_054af807_85cd_4a13_8eba_119dfdaaf38b" xlink:title="Interpretant">
<ellipse fill="#ffffcc" stroke="#000000" cx="253.5473" cy="-90" rx="51.9908" ry="18"/>
<text text-anchor="middle" x="253.5473" y="-86.3" font-family="Times,serif" font-size="14.00" fill="#000000">Interpretant</text>
</a>
</g>
</g>
<!-- Interpretant&#45;&gt;Sign -->
<g id="edge2" class="edge">
<title>Interpretant&#45;&gt;Sign</title>
<path fill="none" stroke="#000000" d="M253.5473,-108.1686C253.5473,-115.869 253.5473,-125.0257 253.5473,-133.5834"/>
<polygon fill="none" stroke="#000000" points="250.0474,-133.5867 253.5473,-143.5867 257.0474,-133.5868 250.0474,-133.5867"/>
</g>
<!-- SISpecialUnit -->
<g id="node5" class="node">
<title>SISpecialUnit</title>
<g id="a_node5"><a xlink:href="http://emmo.info/emmo/middle/siunits#EMMO_e9ffc696_5228_4ff9_8a60_0f5e05e9931b" xlink:title="SISpecialUnit">
<ellipse fill="#ffffcc" stroke="#000000" stroke-width="2" cx="131.5473" cy="-18" rx="59.5901" ry="18"/>
<text text-anchor="middle" x="131.5473" y="-14.3" font-family="Times,serif" font-size="14.00" fill="#000000">SISpecialUnit</text>
</a>
</g>
</g>
<!-- SISpecialUnit&#45;&gt;SpecialUnit -->
<g id="edge1" class="edge">
<title>SISpecialUnit&#45;&gt;SpecialUnit</title>
<path fill="none" stroke="#000000" d="M131.5473,-36.1686C131.5473,-43.869 131.5473,-53.0257 131.5473,-61.5834"/>
<polygon fill="none" stroke="#000000" points="128.0474,-61.5867 131.5473,-71.5867 135.0474,-61.5868 128.0474,-61.5867"/>
</g>
<!-- Conventional -->
<g id="node6" class="node">
<title>Conventional</title>
<g id="a_node6"><a xlink:href="http://emmo.info/emmo/top/semiotics#EMMO_35d2e130_6e01_41ed_94f7_00b333d46cf9" xlink:title="Conventional">
<ellipse fill="#ffffcc" stroke="#000000" stroke-width="2" cx="381.5473" cy="-90" rx="57.6901" ry="18"/>
<text text-anchor="middle" x="381.5473" y="-86.3" font-family="Times,serif" font-size="14.00" fill="#000000">Conventional</text>
</a>
</g>
</g>
<!-- Conventional&#45;&gt;Sign -->
<g id="edge6" class="edge">
<title>Conventional&#45;&gt;Sign</title>
<path fill="none" stroke="#000000" d="M353.4571,-105.8007C332.6871,-117.4839 304.4565,-133.3636 283.3017,-145.2631"/>
<polygon fill="none" stroke="#000000" points="281.422,-142.3047 274.4221,-150.2579 284.8538,-148.4058 281.422,-142.3047"/>
</g>
<!-- Icon -->
<g id="node7" class="node">
<title>Icon</title>
<g id="a_node7"><a xlink:href="http://emmo.info/emmo/top/semiotics#EMMO_d7788d1a_020d_4c78_85a1_13563fcec168" xlink:title="Icon">
<ellipse fill="#ffffcc" stroke="#000000" stroke-width="2" cx="484.5473" cy="-90" rx="27" ry="18"/>
<text text-anchor="middle" x="484.5473" y="-86.3" font-family="Times,serif" font-size="14.00" fill="#000000">Icon</text>
</a>
</g>
</g>
<!-- Icon&#45;&gt;Sign -->
<g id="edge3" class="edge">
<title>Icon&#45;&gt;Sign</title>
<path fill="none" stroke="#000000" d="M463.5343,-101.3572C458.6912,-103.7346 453.5045,-106.0949 448.5473,-108 394.3665,-128.8218 328.89,-145.2613 289.2712,-154.3013"/>
<polygon fill="none" stroke="#000000" points="288.284,-150.9358 279.296,-156.5453 289.8204,-157.7651 288.284,-150.9358"/>
</g>
<!-- key1 -->
<g id="node8" class="node">
<title>key1</title>
<text text-anchor="start" x="227.5473" y="-13.8" font-family="Times,serif" font-size="14.00" fill="#000000">isA</text>
</g>
<!-- key2 -->
<g id="node9" class="node">
<title>key2</title>
<text text-anchor="start" x="306.5473" y="-13.8" font-family="Times,serif" font-size="14.00" fill="#000000"> </text>
</g>
<!-- key1&#45;&gt;key2 -->
<g id="edge7" class="edge">
<title>key1:e&#45;&gt;key2:w</title>
<path fill="none" stroke="#000000" d="M248.5473,-19C269.5473,-19 277.2582,-19 294.1054,-19"/>
<polygon fill="none" stroke="#000000" points="294.5473,-22.5001 304.5473,-19 294.5473,-15.5001 294.5473,-22.5001"/>
</g>
</g>
</svg>
