<?xml version="1.0" encoding="UTF-8" standalone="no"?>
<!DOCTYPE svg PUBLIC "-//W3C//DTD SVG 1.1//EN"
 "http://www.w3.org/Graphics/SVG/1.1/DTD/svg11.dtd">
<!-- Generated by graphviz version 2.40.1 (20161225.0304)
 -->
<!-- Title: %3 Pages: 1 -->
<svg width="592pt" height="188pt"
 viewBox="0.00 0.00 591.84 188.00" xmlns="http://www.w3.org/2000/svg" xmlns:xlink="http://www.w3.org/1999/xlink">
<g id="graph0" class="graph" transform="scale(1 1) rotate(0) translate(4 184)">
<title>%3</title>
<polygon fill="#ffffff" stroke="transparent" points="-4,4 -4,-184 587.8449,-184 587.8449,4 -4,4"/>
<!-- Conventional -->
<g id="node1" class="node">
<title>Conventional</title>
<g id="a_node1"><a xlink:href="http://emmo.info/emmo/top/semiotics#EMMO_35d2e130_6e01_41ed_94f7_00b333d46cf9" xlink:title="Conventional">
<ellipse fill="#ffffcc" stroke="#000000" stroke-width="2" cx="57.8449" cy="-90" rx="57.6901" ry="18"/>
<text text-anchor="middle" x="57.8449" y="-86.3" font-family="Times,serif" font-size="14.00" fill="#000000">Conventional</text>
</a>
</g>
</g>
<!-- Sign -->
<g id="node3" class="node">
<title>Sign</title>
<g id="a_node3"><a xlink:href="http://emmo.info/emmo/top/semiotics#EMMO_b21a56ed_f969_4612_a6ec_cb7766f7f31d" xlink:title="Sign">
<ellipse fill="#ffc880" stroke="#000000" stroke-width="2" cx="282.8449" cy="-162" rx="27" ry="18"/>
<text text-anchor="middle" x="282.8449" y="-158.3" font-family="Times,serif" font-size="14.00" fill="#000000">Sign</text>
</a>
</g>
</g>
<!-- Conventional&#45;&gt;Sign -->
<g id="edge5" class="edge">
<title>Conventional&#45;&gt;Sign</title>
<path fill="none" stroke="#000000" d="M98.3302,-102.9553C141.2526,-116.6905 208.3029,-138.1466 248.6625,-151.0617"/>
<polygon fill="none" stroke="#000000" points="247.7265,-154.4369 258.3175,-154.1512 249.8599,-147.7699 247.7265,-154.4369"/>
</g>
<!-- Interpretant -->
<g id="node2" class="node">
<title>Interpretant</title>
<g id="a_node2"><a xlink:href="http://emmo.info/emmo/top/semiotics#EMMO_054af807_85cd_4a13_8eba_119dfdaaf38b" xlink:title="Interpretant">
<ellipse fill="#ffffcc" stroke="#000000" cx="185.8449" cy="-90" rx="51.9908" ry="18"/>
<text text-anchor="middle" x="185.8449" y="-86.3" font-family="Times,serif" font-size="14.00" fill="#000000">Interpretant</text>
</a>
</g>
</g>
<!-- Interpretant&#45;&gt;Sign -->
<g id="edge2" class="edge">
<title>Interpretant&#45;&gt;Sign</title>
<path fill="none" stroke="#000000" d="M207.8557,-106.3379C222.2875,-117.0502 241.2332,-131.113 256.4705,-142.4232"/>
<polygon fill="none" stroke="#000000" points="254.3861,-145.2348 264.5019,-148.3846 258.5583,-139.614 254.3861,-145.2348"/>
</g>
<!-- SISpecialUnit -->
<g id="node4" class="node">
<title>SISpecialUnit</title>
<g id="a_node4"><a xlink:href="http://emmo.info/emmo/middle/siunits#EMMO_e9ffc696_5228_4ff9_8a60_0f5e05e9931b" xlink:title="SISpecialUnit">
<ellipse fill="#ffffcc" stroke="#000000" stroke-width="2" cx="379.8449" cy="-18" rx="59.5901" ry="18"/>
<text text-anchor="middle" x="379.8449" y="-14.3" font-family="Times,serif" font-size="14.00" fill="#000000">SISpecialUnit</text>
</a>
</g>
</g>
<!-- SpecialUnit -->
<g id="node6" class="node">
<title>SpecialUnit</title>
<g id="a_node6"><a xlink:href="http://emmo.info/emmo/middle/metrology#EMMO_3ee80521_3c23_4dd1_935d_9d522614a3e2" xlink:title="SpecialUnit">
<ellipse fill="#ffffcc" stroke="#000000" cx="379.8449" cy="-90" rx="51.9908" ry="18"/>
<text text-anchor="middle" x="379.8449" y="-86.3" font-family="Times,serif" font-size="14.00" fill="#000000">SpecialUnit</text>
</a>
</g>
</g>
<!-- SISpecialUnit&#45;&gt;SpecialUnit -->
<g id="edge3" class="edge">
<title>SISpecialUnit&#45;&gt;SpecialUnit</title>
<path fill="none" stroke="#000000" d="M379.8449,-36.1686C379.8449,-43.869 379.8449,-53.0257 379.8449,-61.5834"/>
<polygon fill="none" stroke="#000000" points="376.345,-61.5867 379.8449,-71.5867 383.345,-61.5868 376.345,-61.5867"/>
</g>
<!-- Icon -->
<g id="node5" class="node">
<title>Icon</title>
<g id="a_node5"><a xlink:href="http://emmo.info/emmo/top/semiotics#EMMO_d7788d1a_020d_4c78_85a1_13563fcec168" xlink:title="Icon">
<ellipse fill="#ffffcc" stroke="#000000" stroke-width="2" cx="282.8449" cy="-90" rx="27" ry="18"/>
<text text-anchor="middle" x="282.8449" y="-86.3" font-family="Times,serif" font-size="14.00" fill="#000000">Icon</text>
</a>
</g>
</g>
<!-- Icon&#45;&gt;Sign -->
<g id="edge1" class="edge">
<title>Icon&#45;&gt;Sign</title>
<path fill="none" stroke="#000000" d="M282.8449,-108.1686C282.8449,-115.869 282.8449,-125.0257 282.8449,-133.5834"/>
<polygon fill="none" stroke="#000000" points="279.345,-133.5867 282.8449,-143.5867 286.345,-133.5868 279.345,-133.5867"/>
</g>
<!-- SpecialUnit&#45;&gt;Sign -->
<g id="edge4" class="edge">
<title>SpecialUnit&#45;&gt;Sign</title>
<path fill="none" stroke="#000000" d="M357.8341,-106.3379C343.4023,-117.0502 324.4565,-131.113 309.2192,-142.4232"/>
<polygon fill="none" stroke="#000000" points="307.1315,-139.614 301.1878,-148.3846 311.3036,-145.2348 307.1315,-139.614"/>
</g>
<!-- Index -->
<g id="node7" class="node">
<title>Index</title>
<g id="a_node7"><a xlink:href="http://emmo.info/emmo/top/semiotics#EMMO_0cd58641_824c_4851_907f_f4c3be76630c" xlink:title="Index">
<ellipse fill="#ffffcc" stroke="#000000" cx="480.8449" cy="-90" rx="30.5947" ry="18"/>
<text text-anchor="middle" x="480.8449" y="-86.3" font-family="Times,serif" font-size="14.00" fill="#000000">Index</text>
</a>
</g>
</g>
<!-- Index&#45;&gt;Sign -->
<g id="edge6" class="edge">
<title>Index&#45;&gt;Sign</title>
<path fill="none" stroke="#000000" d="M456.8869,-101.2191C451.6397,-103.5531 446.0862,-105.9303 440.8449,-108 398.8769,-124.5726 349.5324,-140.9556 317.2969,-151.2527"/>
<polygon fill="none" stroke="#000000" points="315.9352,-148.0128 307.463,-154.3746 318.0533,-154.6847 315.9352,-148.0128"/>
</g>
<!-- key1 -->
<g id="node8" class="node">
<title>key1</title>
<text text-anchor="start" x="475.8449" y="-13.8" font-family="Times,serif" font-size="14.00" fill="#000000">isA</text>
</g>
<!-- key2 -->
<g id="node9" class="node">
<title>key2</title>
<text text-anchor="start" x="554.8449" y="-13.8" font-family="Times,serif" font-size="14.00" fill="#000000"> </text>
</g>
<!-- key1&#45;&gt;key2 -->
<g id="edge7" class="edge">
<title>key1:e&#45;&gt;key2:w</title>
<path fill="none" stroke="#000000" d="M496.8449,-19C517.8449,-19 525.5558,-19 542.403,-19"/>
<polygon fill="none" stroke="#000000" points="542.8449,-22.5001 552.8449,-19 542.8448,-15.5001 542.8449,-22.5001"/>
</g>
</g>
</svg>
