<?xml version="1.0" encoding="UTF-8" standalone="no"?>
<!DOCTYPE svg PUBLIC "-//W3C//DTD SVG 1.1//EN"
 "http://www.w3.org/Graphics/SVG/1.1/DTD/svg11.dtd">
<!-- Generated by graphviz version 2.40.1 (20161225.0304)
 -->
<!-- Title: %3 Pages: 1 -->
<svg width="527pt" height="188pt"
 viewBox="0.00 0.00 527.34 188.00" xmlns="http://www.w3.org/2000/svg" xmlns:xlink="http://www.w3.org/1999/xlink">
<g id="graph0" class="graph" transform="scale(1 1) rotate(0) translate(4 184)">
<title>%3</title>
<polygon fill="#ffffff" stroke="transparent" points="-4,4 -4,-184 523.342,-184 523.342,4 -4,4"/>
<!-- SISpecialUnit -->
<g id="node1" class="node">
<title>SISpecialUnit</title>
<g id="a_node1"><a xlink:href="http://emmo.info/emmo/middle/siunits#EMMO_e9ffc696_5228_4ff9_8a60_0f5e05e9931b" xlink:title="SISpecialUnit">
<ellipse fill="#ffffcc" stroke="#000000" stroke-width="2" cx="59.7947" cy="-18" rx="59.5901" ry="18"/>
<text text-anchor="middle" x="59.7947" y="-14.3" font-family="Times,serif" font-size="14.00" fill="#000000">SISpecialUnit</text>
</a>
</g>
</g>
<!-- SpecialUnit -->
<g id="node3" class="node">
<title>SpecialUnit</title>
<g id="a_node3"><a xlink:href="http://emmo.info/emmo/middle/metrology#EMMO_3ee80521_3c23_4dd1_935d_9d522614a3e2" xlink:title="SpecialUnit">
<ellipse fill="#ffffcc" stroke="#000000" cx="59.7947" cy="-90" rx="51.9908" ry="18"/>
<text text-anchor="middle" x="59.7947" y="-86.3" font-family="Times,serif" font-size="14.00" fill="#000000">SpecialUnit</text>
</a>
</g>
</g>
<!-- SISpecialUnit&#45;&gt;SpecialUnit -->
<g id="edge3" class="edge">
<title>SISpecialUnit&#45;&gt;SpecialUnit</title>
<path fill="none" stroke="#000000" d="M59.7947,-36.1686C59.7947,-43.869 59.7947,-53.0257 59.7947,-61.5834"/>
<polygon fill="none" stroke="#000000" points="56.2948,-61.5867 59.7947,-71.5867 63.2948,-61.5868 56.2948,-61.5867"/>
</g>
<!-- Interpretant -->
<g id="node2" class="node">
<title>Interpretant</title>
<g id="a_node2"><a xlink:href="http://emmo.info/emmo/top/semiotics#EMMO_054af807_85cd_4a13_8eba_119dfdaaf38b" xlink:title="Interpretant">
<ellipse fill="#ffffcc" stroke="#000000" cx="181.7947" cy="-90" rx="51.9908" ry="18"/>
<text text-anchor="middle" x="181.7947" y="-86.3" font-family="Times,serif" font-size="14.00" fill="#000000">Interpretant</text>
</a>
</g>
</g>
<!-- Sign -->
<g id="node6" class="node">
<title>Sign</title>
<g id="a_node6"><a xlink:href="http://emmo.info/emmo/top/semiotics#EMMO_b21a56ed_f969_4612_a6ec_cb7766f7f31d" xlink:title="Sign">
<ellipse fill="#ffc880" stroke="#000000" stroke-width="2" cx="309.7947" cy="-162" rx="27" ry="18"/>
<text text-anchor="middle" x="309.7947" y="-158.3" font-family="Times,serif" font-size="14.00" fill="#000000">Sign</text>
</a>
</g>
</g>
<!-- Interpretant&#45;&gt;Sign -->
<g id="edge4" class="edge">
<title>Interpretant&#45;&gt;Sign</title>
<path fill="none" stroke="#000000" d="M209.2539,-105.4458C230.1143,-117.1798 258.7637,-133.2951 280.1447,-145.3219"/>
<polygon fill="none" stroke="#000000" points="278.6787,-148.5129 289.1104,-150.3651 282.1105,-142.4119 278.6787,-148.5129"/>
</g>
<!-- SpecialUnit&#45;&gt;Sign -->
<g id="edge1" class="edge">
<title>SpecialUnit&#45;&gt;Sign</title>
<path fill="none" stroke="#000000" d="M99.4839,-101.7656C106.5774,-103.853 113.9023,-105.9985 120.7947,-108 174.4148,-123.5709 236.6985,-141.2964 274.6684,-152.0619"/>
<polygon fill="none" stroke="#000000" points="274.1302,-155.5472 284.7057,-154.9062 276.0387,-148.8123 274.1302,-155.5472"/>
</g>
<!-- Conventional -->
<g id="node4" class="node">
<title>Conventional</title>
<g id="a_node4"><a xlink:href="http://emmo.info/emmo/top/semiotics#EMMO_35d2e130_6e01_41ed_94f7_00b333d46cf9" xlink:title="Conventional">
<ellipse fill="#ffffcc" stroke="#000000" stroke-width="2" cx="309.7947" cy="-90" rx="57.6901" ry="18"/>
<text text-anchor="middle" x="309.7947" y="-86.3" font-family="Times,serif" font-size="14.00" fill="#000000">Conventional</text>
</a>
</g>
</g>
<!-- Conventional&#45;&gt;Sign -->
<g id="edge2" class="edge">
<title>Conventional&#45;&gt;Sign</title>
<path fill="none" stroke="#000000" d="M309.7947,-108.1686C309.7947,-115.869 309.7947,-125.0257 309.7947,-133.5834"/>
<polygon fill="none" stroke="#000000" points="306.2948,-133.5867 309.7947,-143.5867 313.2948,-133.5868 306.2948,-133.5867"/>
</g>
<!-- Icon -->
<g id="node5" class="node">
<title>Icon</title>
<g id="a_node5"><a xlink:href="http://emmo.info/emmo/top/semiotics#EMMO_d7788d1a_020d_4c78_85a1_13563fcec168" xlink:title="Icon">
<ellipse fill="#ffffcc" stroke="#000000" stroke-width="2" cx="412.7947" cy="-90" rx="27" ry="18"/>
<text text-anchor="middle" x="412.7947" y="-86.3" font-family="Times,serif" font-size="14.00" fill="#000000">Icon</text>
</a>
</g>
</g>
<!-- Icon&#45;&gt;Sign -->
<g id="edge5" class="edge">
<title>Icon&#45;&gt;Sign</title>
<path fill="none" stroke="#000000" d="M393.9029,-103.2059C377.9318,-114.3702 354.8531,-130.5029 336.9093,-143.0461"/>
<polygon fill="none" stroke="#000000" points="334.7575,-140.2799 328.5667,-148.8778 338.7681,-146.0171 334.7575,-140.2799"/>
</g>
<!-- Index -->
<g id="node7" class="node">
<title>Index</title>
<g id="a_node7"><a xlink:href="http://emmo.info/emmo/top/semiotics#EMMO_0cd58641_824c_4851_907f_f4c3be76630c" xlink:title="Index">
<ellipse fill="#ffffcc" stroke="#000000" cx="488.7947" cy="-90" rx="30.5947" ry="18"/>
<text text-anchor="middle" x="488.7947" y="-86.3" font-family="Times,serif" font-size="14.00" fill="#000000">Index</text>
</a>
</g>
</g>
<!-- Index&#45;&gt;Sign -->
<g id="edge6" class="edge">
<title>Index&#45;&gt;Sign</title>
<path fill="none" stroke="#000000" d="M464.3447,-101.2462C459.2284,-103.5309 453.8518,-105.8815 448.7947,-108 412.9098,-123.0325 371.2553,-139.0248 342.9716,-149.6696"/>
<polygon fill="none" stroke="#000000" points="341.6899,-146.4122 333.5563,-153.2015 344.1485,-152.9662 341.6899,-146.4122"/>
</g>
<!-- key1 -->
<g id="node8" class="node">
<title>key1</title>
<text text-anchor="start" x="155.7947" y="-13.8" font-family="Times,serif" font-size="14.00" fill="#000000">isA</text>
</g>
<!-- key2 -->
<g id="node9" class="node">
<title>key2</title>
<text text-anchor="start" x="234.7947" y="-13.8" font-family="Times,serif" font-size="14.00" fill="#000000"> </text>
</g>
<!-- key1&#45;&gt;key2 -->
<g id="edge7" class="edge">
<title>key1:e&#45;&gt;key2:w</title>
<path fill="none" stroke="#000000" d="M176.7947,-19C197.7947,-19 205.5056,-19 222.3528,-19"/>
<polygon fill="none" stroke="#000000" points="222.7947,-22.5001 232.7947,-19 222.7947,-15.5001 222.7947,-22.5001"/>
</g>
</g>
</svg>
