<?xml version="1.0" encoding="UTF-8" standalone="no"?>
<!DOCTYPE svg PUBLIC "-//W3C//DTD SVG 1.1//EN"
 "http://www.w3.org/Graphics/SVG/1.1/DTD/svg11.dtd">
<!-- Generated by graphviz version 2.40.1 (20161225.0304)
 -->
<!-- Title: %3 Pages: 1 -->
<svg width="520pt" height="188pt"
 viewBox="0.00 0.00 519.84 188.00" xmlns="http://www.w3.org/2000/svg" xmlns:xlink="http://www.w3.org/1999/xlink">
<g id="graph0" class="graph" transform="scale(1 1) rotate(0) translate(4 184)">
<title>%3</title>
<polygon fill="#ffffff" stroke="transparent" points="-4,4 -4,-184 515.8403,-184 515.8403,4 -4,4"/>
<!-- Conventional -->
<g id="node1" class="node">
<title>Conventional</title>
<g id="a_node1"><a xlink:href="http://emmo.info/emmo/top/semiotics#EMMO_35d2e130_6e01_41ed_94f7_00b333d46cf9" xlink:title="Conventional">
<ellipse fill="#ffffcc" stroke="#000000" stroke-width="2" cx="57.8449" cy="-90" rx="57.6901" ry="18"/>
<text text-anchor="middle" x="57.8449" y="-86.3" font-family="Times,serif" font-size="14.00" fill="#000000">Conventional</text>
</a>
</g>
</g>
<!-- Sign -->
<g id="node4" class="node">
<title>Sign</title>
<g id="a_node4"><a xlink:href="http://emmo.info/emmo/top/semiotics#EMMO_b21a56ed_f969_4612_a6ec_cb7766f7f31d" xlink:title="Sign">
<ellipse fill="#ffc880" stroke="#000000" stroke-width="2" cx="282.8449" cy="-162" rx="27" ry="18"/>
<text text-anchor="middle" x="282.8449" y="-158.3" font-family="Times,serif" font-size="14.00" fill="#000000">Sign</text>
</a>
</g>
</g>
<!-- Conventional&#45;&gt;Sign -->
<g id="edge5" class="edge">
<title>Conventional&#45;&gt;Sign</title>
<path fill="none" stroke="#000000" d="M98.3302,-102.9553C141.2526,-116.6905 208.3029,-138.1466 248.6625,-151.0617"/>
<polygon fill="none" stroke="#000000" points="247.7265,-154.4369 258.3175,-154.1512 249.8599,-147.7699 247.7265,-154.4369"/>
</g>
<!-- SpecialUnit -->
<g id="node2" class="node">
<title>SpecialUnit</title>
<g id="a_node2"><a xlink:href="http://emmo.info/emmo/middle/metrology#EMMO_3ee80521_3c23_4dd1_935d_9d522614a3e2" xlink:title="SpecialUnit">
<ellipse fill="#ffffcc" stroke="#000000" cx="185.8449" cy="-90" rx="51.9908" ry="18"/>
<text text-anchor="middle" x="185.8449" y="-86.3" font-family="Times,serif" font-size="14.00" fill="#000000">SpecialUnit</text>
</a>
</g>
</g>
<!-- SpecialUnit&#45;&gt;Sign -->
<g id="edge1" class="edge">
<title>SpecialUnit&#45;&gt;Sign</title>
<path fill="none" stroke="#000000" d="M207.8557,-106.3379C222.2875,-117.0502 241.2332,-131.113 256.4705,-142.4232"/>
<polygon fill="none" stroke="#000000" points="254.3861,-145.2348 264.5019,-148.3846 258.5583,-139.614 254.3861,-145.2348"/>
</g>
<!-- Icon -->
<g id="node3" class="node">
<title>Icon</title>
<g id="a_node3"><a xlink:href="http://emmo.info/emmo/top/semiotics#EMMO_d7788d1a_020d_4c78_85a1_13563fcec168" xlink:title="Icon">
<ellipse fill="#ffffcc" stroke="#000000" stroke-width="2" cx="282.8449" cy="-90" rx="27" ry="18"/>
<text text-anchor="middle" x="282.8449" y="-86.3" font-family="Times,serif" font-size="14.00" fill="#000000">Icon</text>
</a>
</g>
</g>
<!-- Icon&#45;&gt;Sign -->
<g id="edge2" class="edge">
<title>Icon&#45;&gt;Sign</title>
<path fill="none" stroke="#000000" d="M282.8449,-108.1686C282.8449,-115.869 282.8449,-125.0257 282.8449,-133.5834"/>
<polygon fill="none" stroke="#000000" points="279.345,-133.5867 282.8449,-143.5867 286.345,-133.5868 279.345,-133.5867"/>
</g>
<!-- Index -->
<g id="node5" class="node">
<title>Index</title>
<g id="a_node5"><a xlink:href="http://emmo.info/emmo/top/semiotics#EMMO_0cd58641_824c_4851_907f_f4c3be76630c" xlink:title="Index">
<ellipse fill="#ffffcc" stroke="#000000" cx="358.8449" cy="-90" rx="30.5947" ry="18"/>
<text text-anchor="middle" x="358.8449" y="-86.3" font-family="Times,serif" font-size="14.00" fill="#000000">Index</text>
</a>
</g>
</g>
<!-- Index&#45;&gt;Sign -->
<g id="edge6" class="edge">
<title>Index&#45;&gt;Sign</title>
<path fill="none" stroke="#000000" d="M342.354,-105.6229C331.682,-115.7333 317.6352,-129.0408 305.8689,-140.1878"/>
<polygon fill="none" stroke="#000000" points="303.3769,-137.7274 298.5244,-147.1457 308.1911,-142.809 303.3769,-137.7274"/>
</g>
<!-- SISpecialUnit -->
<g id="node6" class="node">
<title>SISpecialUnit</title>
<g id="a_node6"><a xlink:href="http://emmo.info/emmo/middle/siunits#EMMO_e9ffc696_5228_4ff9_8a60_0f5e05e9931b" xlink:title="SISpecialUnit">
<ellipse fill="#ffffcc" stroke="#000000" stroke-width="2" cx="185.8449" cy="-18" rx="59.5901" ry="18"/>
<text text-anchor="middle" x="185.8449" y="-14.3" font-family="Times,serif" font-size="14.00" fill="#000000">SISpecialUnit</text>
</a>
</g>
</g>
<!-- SISpecialUnit&#45;&gt;SpecialUnit -->
<g id="edge4" class="edge">
<title>SISpecialUnit&#45;&gt;SpecialUnit</title>
<path fill="none" stroke="#000000" d="M185.8449,-36.1686C185.8449,-43.869 185.8449,-53.0257 185.8449,-61.5834"/>
<polygon fill="none" stroke="#000000" points="182.345,-61.5867 185.8449,-71.5867 189.345,-61.5868 182.345,-61.5867"/>
</g>
<!-- Interpretant -->
<g id="node7" class="node">
<title>Interpretant</title>
<g id="a_node7"><a xlink:href="http://emmo.info/emmo/top/semiotics#EMMO_054af807_85cd_4a13_8eba_119dfdaaf38b" xlink:title="Interpretant">
<ellipse fill="#ffffcc" stroke="#000000" cx="459.8449" cy="-90" rx="51.9908" ry="18"/>
<text text-anchor="middle" x="459.8449" y="-86.3" font-family="Times,serif" font-size="14.00" fill="#000000">Interpretant</text>
</a>
</g>
</g>
<!-- Interpretant&#45;&gt;Sign -->
<g id="edge3" class="edge">
<title>Interpretant&#45;&gt;Sign</title>
<path fill="none" stroke="#000000" d="M426.1359,-103.7121C394.3678,-116.6347 347.0707,-135.8742 315.6136,-148.6703"/>
<polygon fill="none" stroke="#000000" points="313.9407,-145.5723 305.9966,-152.5823 316.5784,-152.0563 313.9407,-145.5723"/>
</g>
<!-- key1 -->
<g id="node8" class="node">
<title>key1</title>
<text text-anchor="start" x="281.8449" y="-13.8" font-family="Times,serif" font-size="14.00" fill="#000000">isA</text>
</g>
<!-- key2 -->
<g id="node9" class="node">
<title>key2</title>
<text text-anchor="start" x="360.8449" y="-13.8" font-family="Times,serif" font-size="14.00" fill="#000000"> </text>
</g>
<!-- key1&#45;&gt;key2 -->
<g id="edge7" class="edge">
<title>key1:e&#45;&gt;key2:w</title>
<path fill="none" stroke="#000000" d="M302.8449,-19C323.8449,-19 331.5558,-19 348.403,-19"/>
<polygon fill="none" stroke="#000000" points="348.8449,-22.5001 358.8449,-19 348.8448,-15.5001 348.8449,-22.5001"/>
</g>
</g>
</svg>
