<?xml version="1.0" encoding="UTF-8" standalone="no"?>
<!DOCTYPE svg PUBLIC "-//W3C//DTD SVG 1.1//EN"
 "http://www.w3.org/Graphics/SVG/1.1/DTD/svg11.dtd">
<!-- Generated by graphviz version 2.40.1 (20161225.0304)
 -->
<!-- Title: %3 Pages: 1 -->
<svg width="527pt" height="188pt"
 viewBox="0.00 0.00 526.79 188.00" xmlns="http://www.w3.org/2000/svg" xmlns:xlink="http://www.w3.org/1999/xlink">
<g id="graph0" class="graph" transform="scale(1 1) rotate(0) translate(4 184)">
<title>%3</title>
<polygon fill="#ffffff" stroke="transparent" points="-4,4 -4,-184 522.7947,-184 522.7947,4 -4,4"/>
<!-- SISpecialUnit -->
<g id="node1" class="node">
<title>SISpecialUnit</title>
<g id="a_node1"><a xlink:href="http://emmo.info/emmo/middle/siunits#EMMO_e9ffc696_5228_4ff9_8a60_0f5e05e9931b" xlink:title="SISpecialUnit">
<ellipse fill="#ffffcc" stroke="#000000" stroke-width="2" cx="59.7947" cy="-18" rx="59.5901" ry="18"/>
<text text-anchor="middle" x="59.7947" y="-14.3" font-family="Times,serif" font-size="14.00" fill="#000000">SISpecialUnit</text>
</a>
</g>
</g>
<!-- SpecialUnit -->
<g id="node4" class="node">
<title>SpecialUnit</title>
<g id="a_node4"><a xlink:href="http://emmo.info/emmo/middle/metrology#EMMO_3ee80521_3c23_4dd1_935d_9d522614a3e2" xlink:title="SpecialUnit">
<ellipse fill="#ffffcc" stroke="#000000" cx="59.7947" cy="-90" rx="51.9908" ry="18"/>
<text text-anchor="middle" x="59.7947" y="-86.3" font-family="Times,serif" font-size="14.00" fill="#000000">SpecialUnit</text>
</a>
</g>
</g>
<!-- SISpecialUnit&#45;&gt;SpecialUnit -->
<g id="edge2" class="edge">
<title>SISpecialUnit&#45;&gt;SpecialUnit</title>
<path fill="none" stroke="#000000" d="M59.7947,-36.1686C59.7947,-43.869 59.7947,-53.0257 59.7947,-61.5834"/>
<polygon fill="none" stroke="#000000" points="56.2948,-61.5867 59.7947,-71.5867 63.2948,-61.5868 56.2948,-61.5867"/>
</g>
<!-- Index -->
<g id="node2" class="node">
<title>Index</title>
<g id="a_node2"><a xlink:href="http://emmo.info/emmo/top/semiotics#EMMO_0cd58641_824c_4851_907f_f4c3be76630c" xlink:title="Index">
<ellipse fill="#ffffcc" stroke="#000000" cx="160.7947" cy="-90" rx="30.5947" ry="18"/>
<text text-anchor="middle" x="160.7947" y="-86.3" font-family="Times,serif" font-size="14.00" fill="#000000">Index</text>
</a>
</g>
</g>
<!-- Sign -->
<g id="node6" class="node">
<title>Sign</title>
<g id="a_node6"><a xlink:href="http://emmo.info/emmo/top/semiotics#EMMO_b21a56ed_f969_4612_a6ec_cb7766f7f31d" xlink:title="Sign">
<ellipse fill="#ffc880" stroke="#000000" stroke-width="2" cx="266.7947" cy="-162" rx="27" ry="18"/>
<text text-anchor="middle" x="266.7947" y="-158.3" font-family="Times,serif" font-size="14.00" fill="#000000">Sign</text>
</a>
</g>
</g>
<!-- Index&#45;&gt;Sign -->
<g id="edge1" class="edge">
<title>Index&#45;&gt;Sign</title>
<path fill="none" stroke="#000000" d="M181.2326,-103.8823C197.7768,-115.1199 221.2324,-131.052 239.4023,-143.3939"/>
<polygon fill="none" stroke="#000000" points="237.6052,-146.4042 247.844,-149.1278 241.5384,-140.6137 237.6052,-146.4042"/>
</g>
<!-- Conventional -->
<g id="node3" class="node">
<title>Conventional</title>
<g id="a_node3"><a xlink:href="http://emmo.info/emmo/top/semiotics#EMMO_35d2e130_6e01_41ed_94f7_00b333d46cf9" xlink:title="Conventional">
<ellipse fill="#ffffcc" stroke="#000000" stroke-width="2" cx="266.7947" cy="-90" rx="57.6901" ry="18"/>
<text text-anchor="middle" x="266.7947" y="-86.3" font-family="Times,serif" font-size="14.00" fill="#000000">Conventional</text>
</a>
</g>
</g>
<!-- Conventional&#45;&gt;Sign -->
<g id="edge6" class="edge">
<title>Conventional&#45;&gt;Sign</title>
<path fill="none" stroke="#000000" d="M266.7947,-108.1686C266.7947,-115.869 266.7947,-125.0257 266.7947,-133.5834"/>
<polygon fill="none" stroke="#000000" points="263.2948,-133.5867 266.7947,-143.5867 270.2948,-133.5868 263.2948,-133.5867"/>
</g>
<!-- SpecialUnit&#45;&gt;Sign -->
<g id="edge4" class="edge">
<title>SpecialUnit&#45;&gt;Sign</title>
<path fill="none" stroke="#000000" d="M96.8021,-102.8722C135.3878,-116.2932 195.355,-137.1514 232.7858,-150.1708"/>
<polygon fill="none" stroke="#000000" points="232.1143,-153.6429 242.7091,-153.6224 234.414,-147.0314 232.1143,-153.6429"/>
</g>
<!-- Interpretant -->
<g id="node5" class="node">
<title>Interpretant</title>
<g id="a_node5"><a xlink:href="http://emmo.info/emmo/top/semiotics#EMMO_054af807_85cd_4a13_8eba_119dfdaaf38b" xlink:title="Interpretant">
<ellipse fill="#ffffcc" stroke="#000000" cx="394.7947" cy="-90" rx="51.9908" ry="18"/>
<text text-anchor="middle" x="394.7947" y="-86.3" font-family="Times,serif" font-size="14.00" fill="#000000">Interpretant</text>
</a>
</g>
</g>
<!-- Interpretant&#45;&gt;Sign -->
<g id="edge3" class="edge">
<title>Interpretant&#45;&gt;Sign</title>
<path fill="none" stroke="#000000" d="M367.3355,-105.4458C346.4751,-117.1798 317.8257,-133.2951 296.4447,-145.3219"/>
<polygon fill="none" stroke="#000000" points="294.4788,-142.4119 287.479,-150.3651 297.9107,-148.5129 294.4788,-142.4119"/>
</g>
<!-- Icon -->
<g id="node7" class="node">
<title>Icon</title>
<g id="a_node7"><a xlink:href="http://emmo.info/emmo/top/semiotics#EMMO_d7788d1a_020d_4c78_85a1_13563fcec168" xlink:title="Icon">
<ellipse fill="#ffffcc" stroke="#000000" stroke-width="2" cx="491.7947" cy="-90" rx="27" ry="18"/>
<text text-anchor="middle" x="491.7947" y="-86.3" font-family="Times,serif" font-size="14.00" fill="#000000">Icon</text>
</a>
</g>
</g>
<!-- Icon&#45;&gt;Sign -->
<g id="edge5" class="edge">
<title>Icon&#45;&gt;Sign</title>
<path fill="none" stroke="#000000" d="M470.7701,-101.3272C465.9276,-103.7062 460.7441,-106.0748 455.7947,-108 403.903,-128.185 341.3838,-144.5756 302.8627,-153.8092"/>
<polygon fill="none" stroke="#000000" points="301.5891,-150.5138 292.6629,-156.221 303.1999,-157.3259 301.5891,-150.5138"/>
</g>
<!-- key1 -->
<g id="node8" class="node">
<title>key1</title>
<text text-anchor="start" x="155.7947" y="-13.8" font-family="Times,serif" font-size="14.00" fill="#000000">isA</text>
</g>
<!-- key2 -->
<g id="node9" class="node">
<title>key2</title>
<text text-anchor="start" x="234.7947" y="-13.8" font-family="Times,serif" font-size="14.00" fill="#000000"> </text>
</g>
<!-- key1&#45;&gt;key2 -->
<g id="edge7" class="edge">
<title>key1:e&#45;&gt;key2:w</title>
<path fill="none" stroke="#000000" d="M176.7947,-19C197.7947,-19 205.5056,-19 222.3528,-19"/>
<polygon fill="none" stroke="#000000" points="222.7947,-22.5001 232.7947,-19 222.7947,-15.5001 222.7947,-22.5001"/>
</g>
</g>
</svg>
