<?xml version="1.0" encoding="UTF-8" standalone="no"?>
<!DOCTYPE svg PUBLIC "-//W3C//DTD SVG 1.1//EN"
 "http://www.w3.org/Graphics/SVG/1.1/DTD/svg11.dtd">
<!-- Generated by graphviz version 2.40.1 (20161225.0304)
 -->
<!-- Title: %3 Pages: 1 -->
<svg width="519pt" height="218pt"
 viewBox="0.00 0.00 519.39 218.00" xmlns="http://www.w3.org/2000/svg" xmlns:xlink="http://www.w3.org/1999/xlink">
<g id="graph0" class="graph" transform="scale(1 1) rotate(0) translate(4 214)">
<title>%3</title>
<polygon fill="#ffffff" stroke="transparent" points="-4,4 -4,-214 515.3922,-214 515.3922,4 -4,4"/>
<!-- Index -->
<g id="node1" class="node">
<title>Index</title>
<g id="a_node1"><a xlink:href="http://emmo.info/emmo/top/semiotics#EMMO_0cd58641_824c_4851_907f_f4c3be76630c" xlink:title="Index">
<ellipse fill="#ffffcc" stroke="#000000" cx="30.5473" cy="-105" rx="30.5947" ry="18"/>
<text text-anchor="middle" x="30.5473" y="-101.3" font-family="Times,serif" font-size="14.00" fill="#000000">Index</text>
</a>
</g>
</g>
<!-- Sign -->
<g id="node3" class="node">
<title>Sign</title>
<g id="a_node3"><a xlink:href="http://emmo.info/emmo/top/semiotics#EMMO_b21a56ed_f969_4612_a6ec_cb7766f7f31d" xlink:title="Sign">
<ellipse fill="#ffc880" stroke="#000000" stroke-width="2" cx="253.5473" cy="-192" rx="27" ry="18"/>
<text text-anchor="middle" x="253.5473" y="-188.3" font-family="Times,serif" font-size="14.00" fill="#000000">Sign</text>
</a>
</g>
</g>
<!-- Index&#45;&gt;Sign -->
<g id="edge6" class="edge">
<title>Index&#45;&gt;Sign</title>
<path fill="none" stroke="#000000" d="M54.981,-116.2853C60.0985,-118.5672 65.4797,-120.9068 70.5473,-123 122.1812,-144.3276 183.0355,-166.7421 219.9302,-180.0367"/>
<polygon fill="none" stroke="#000000" points="219.079,-183.4498 229.6735,-183.5362 221.4452,-176.8619 219.079,-183.4498"/>
<text text-anchor="middle" x="160.0473" y="-144.8" font-family="Times,serif" font-size="14.00" fill="#000000">isA</text>
</g>
<!-- SpecialUnit -->
<g id="node2" class="node">
<title>SpecialUnit</title>
<g id="a_node2"><a xlink:href="http://emmo.info/emmo/middle/units#EMMO_3ee80521_3c23_4dd1_935d_9d522614a3e2" xlink:title="SpecialUnit">
<ellipse fill="#ffffcc" stroke="#000000" cx="131.5473" cy="-105" rx="51.9908" ry="18"/>
<text text-anchor="middle" x="131.5473" y="-101.3" font-family="Times,serif" font-size="14.00" fill="#000000">SpecialUnit</text>
</a>
</g>
</g>
<!-- SpecialUnit&#45;&gt;Sign -->
<g id="edge4" class="edge">
<title>SpecialUnit&#45;&gt;Sign</title>
<path fill="none" stroke="#000000" d="M154.4946,-121.364C174.9996,-135.9865 205.0561,-157.4202 226.6772,-172.8385"/>
<polygon fill="none" stroke="#000000" points="224.9125,-175.8788 235.0865,-178.8353 228.9767,-170.1795 224.9125,-175.8788"/>
<text text-anchor="middle" x="210.0473" y="-144.8" font-family="Times,serif" font-size="14.00" fill="#000000">isA</text>
</g>
<!-- Interpretant -->
<g id="node4" class="node">
<title>Interpretant</title>
<g id="a_node4"><a xlink:href="http://emmo.info/emmo/top/semiotics#EMMO_054af807_85cd_4a13_8eba_119dfdaaf38b" xlink:title="Interpretant">
<ellipse fill="#ffffcc" stroke="#000000" cx="253.5473" cy="-105" rx="51.9908" ry="18"/>
<text text-anchor="middle" x="253.5473" y="-101.3" font-family="Times,serif" font-size="14.00" fill="#000000">Interpretant</text>
</a>
</g>
</g>
<!-- Interpretant&#45;&gt;Sign -->
<g id="edge3" class="edge">
<title>Interpretant&#45;&gt;Sign</title>
<path fill="none" stroke="#000000" d="M253.5473,-123.0265C253.5473,-134.8082 253.5473,-150.4393 253.5473,-163.8419"/>
<polygon fill="none" stroke="#000000" points="250.0474,-163.9966 253.5473,-173.9966 257.0474,-163.9967 250.0474,-163.9966"/>
<text text-anchor="middle" x="263.0473" y="-144.8" font-family="Times,serif" font-size="14.00" fill="#000000">isA</text>
</g>
<!-- Icon -->
<g id="node5" class="node">
<title>Icon</title>
<g id="a_node5"><a xlink:href="http://emmo.info/emmo/top/semiotics#EMMO_d7788d1a_020d_4c78_85a1_13563fcec168" xlink:title="Icon">
<ellipse fill="#ffffcc" stroke="#000000" stroke-width="2" cx="350.5473" cy="-105" rx="27" ry="18"/>
<text text-anchor="middle" x="350.5473" y="-101.3" font-family="Times,serif" font-size="14.00" fill="#000000">Icon</text>
</a>
</g>
</g>
<!-- Icon&#45;&gt;Sign -->
<g id="edge2" class="edge">
<title>Icon&#45;&gt;Sign</title>
<path fill="none" stroke="#000000" d="M334.0926,-119.7584C318.5307,-133.7159 295.0018,-154.8191 277.3865,-170.6184"/>
<polygon fill="none" stroke="#000000" points="274.8665,-168.1771 269.759,-177.4596 279.5403,-173.3882 274.8665,-168.1771"/>
<text text-anchor="middle" x="317.0473" y="-144.8" font-family="Times,serif" font-size="14.00" fill="#000000">isA</text>
</g>
<!-- SISpecialUnit -->
<g id="node6" class="node">
<title>SISpecialUnit</title>
<g id="a_node6"><a xlink:href="http://emmo.info/emmo/middle/siunits#EMMO_e9ffc696_5228_4ff9_8a60_0f5e05e9931b" xlink:title="SISpecialUnit">
<ellipse fill="#ffffcc" stroke="#000000" stroke-width="2" cx="131.5473" cy="-18" rx="59.5901" ry="18"/>
<text text-anchor="middle" x="131.5473" y="-14.3" font-family="Times,serif" font-size="14.00" fill="#000000">SISpecialUnit</text>
</a>
</g>
</g>
<!-- SISpecialUnit&#45;&gt;SpecialUnit -->
<g id="edge1" class="edge">
<title>SISpecialUnit&#45;&gt;SpecialUnit</title>
<path fill="none" stroke="#000000" d="M131.5473,-36.0265C131.5473,-47.8082 131.5473,-63.4393 131.5473,-76.8419"/>
<polygon fill="none" stroke="#000000" points="128.0474,-76.9966 131.5473,-86.9966 135.0474,-76.9967 128.0474,-76.9966"/>
<text text-anchor="middle" x="141.0473" y="-57.8" font-family="Times,serif" font-size="14.00" fill="#000000">isA</text>
</g>
<!-- Conventional -->
<g id="node7" class="node">
<title>Conventional</title>
<g id="a_node7"><a xlink:href="http://emmo.info/emmo/top/semiotics#EMMO_35d2e130_6e01_41ed_94f7_00b333d46cf9" xlink:title="Conventional">
<ellipse fill="#ffffcc" stroke="#000000" stroke-width="2" cx="453.5473" cy="-105" rx="57.6901" ry="18"/>
<text text-anchor="middle" x="453.5473" y="-101.3" font-family="Times,serif" font-size="14.00" fill="#000000">Conventional</text>
</a>
</g>
</g>
<!-- Conventional&#45;&gt;Sign -->
<g id="edge5" class="edge">
<title>Conventional&#45;&gt;Sign</title>
<path fill="none" stroke="#000000" d="M419.62,-119.7584C382.1764,-136.0463 322.3625,-162.0654 285.6607,-178.0307"/>
<polygon fill="none" stroke="#000000" points="284.1814,-174.8573 276.4076,-182.0558 286.9737,-181.2763 284.1814,-174.8573"/>
<text text-anchor="middle" x="374.0473" y="-144.8" font-family="Times,serif" font-size="14.00" fill="#000000">isA</text>
</g>
</g>
</svg>
