<?xml version="1.0" encoding="UTF-8" standalone="no"?>
<!DOCTYPE svg PUBLIC "-//W3C//DTD SVG 1.1//EN"
 "http://www.w3.org/Graphics/SVG/1.1/DTD/svg11.dtd">
<!-- Generated by graphviz version 2.40.1 (20161225.0304)
 -->
<!-- Title: %3 Pages: 1 -->
<svg width="671pt" height="188pt"
 viewBox="0.00 0.00 671.00 188.00" xmlns="http://www.w3.org/2000/svg" xmlns:xlink="http://www.w3.org/1999/xlink">
<g id="graph0" class="graph" transform="scale(1 1) rotate(0) translate(4 184)">
<title>%3</title>
<polygon fill="#ffffff" stroke="transparent" points="-4,4 -4,-184 666.9954,-184 666.9954,4 -4,4"/>
<!-- Interpretant -->
<g id="node1" class="node">
<title>Interpretant</title>
<g id="a_node1"><a xlink:href="http://emmo.info/emmo/top/semiotics#EMMO_054af807_85cd_4a13_8eba_119dfdaaf38b" xlink:title="Interpretant">
<ellipse fill="#ffffcc" stroke="#000000" cx="51.9954" cy="-90" rx="51.9908" ry="18"/>
<text text-anchor="middle" x="51.9954" y="-86.3" font-family="Times,serif" font-size="14.00" fill="#000000">Interpretant</text>
</a>
</g>
</g>
<!-- Sign -->
<g id="node6" class="node">
<title>Sign</title>
<g id="a_node6"><a xlink:href="http://emmo.info/emmo/top/semiotics#EMMO_b21a56ed_f969_4612_a6ec_cb7766f7f31d" xlink:title="Sign">
<ellipse fill="#ffc880" stroke="#000000" stroke-width="2" cx="251.9954" cy="-162" rx="27" ry="18"/>
<text text-anchor="middle" x="251.9954" y="-158.3" font-family="Times,serif" font-size="14.00" fill="#000000">Sign</text>
</a>
</g>
</g>
<!-- Interpretant&#45;&gt;Sign -->
<g id="edge2" class="edge">
<title>Interpretant&#45;&gt;Sign</title>
<path fill="none" stroke="#000000" d="M88.2139,-103.0387C125.2556,-116.3737 182.336,-136.9226 218.3968,-149.9045"/>
<polygon fill="none" stroke="#000000" points="217.3819,-153.259 227.9763,-153.3531 219.753,-146.6728 217.3819,-153.259"/>
</g>
<!-- Icon -->
<g id="node2" class="node">
<title>Icon</title>
<g id="a_node2"><a xlink:href="http://emmo.info/emmo/top/semiotics#EMMO_d7788d1a_020d_4c78_85a1_13563fcec168" xlink:title="Icon">
<ellipse fill="#ffffcc" stroke="#000000" stroke-width="2" cx="148.9954" cy="-90" rx="27" ry="18"/>
<text text-anchor="middle" x="148.9954" y="-86.3" font-family="Times,serif" font-size="14.00" fill="#000000">Icon</text>
</a>
</g>
</g>
<!-- Icon&#45;&gt;Sign -->
<g id="edge6" class="edge">
<title>Icon&#45;&gt;Sign</title>
<path fill="none" stroke="#000000" d="M167.8872,-103.2059C183.8582,-114.3702 206.937,-130.5029 224.8807,-143.0461"/>
<polygon fill="none" stroke="#000000" points="223.022,-146.0171 233.2234,-148.8778 227.0326,-140.2799 223.022,-146.0171"/>
</g>
<!-- Conventional -->
<g id="node3" class="node">
<title>Conventional</title>
<g id="a_node3"><a xlink:href="http://emmo.info/emmo/top/semiotics#EMMO_35d2e130_6e01_41ed_94f7_00b333d46cf9" xlink:title="Conventional">
<ellipse fill="#ffffcc" stroke="#000000" stroke-width="2" cx="251.9954" cy="-90" rx="57.6901" ry="18"/>
<text text-anchor="middle" x="251.9954" y="-86.3" font-family="Times,serif" font-size="14.00" fill="#000000">Conventional</text>
</a>
</g>
</g>
<!-- Conventional&#45;&gt;Sign -->
<g id="edge5" class="edge">
<title>Conventional&#45;&gt;Sign</title>
<path fill="none" stroke="#000000" d="M251.9954,-108.1686C251.9954,-115.869 251.9954,-125.0257 251.9954,-133.5834"/>
<polygon fill="none" stroke="#000000" points="248.4955,-133.5867 251.9954,-143.5867 255.4955,-133.5868 248.4955,-133.5867"/>
</g>
<!-- SISpecialUnit -->
<g id="node4" class="node">
<title>SISpecialUnit</title>
<g id="a_node4"><a xlink:href="http://emmo.info/emmo/middle/siunits#EMMO_e9ffc696_5228_4ff9_8a60_0f5e05e9931b" xlink:title="SISpecialUnit">
<ellipse fill="#ffffcc" stroke="#000000" stroke-width="2" cx="458.9954" cy="-18" rx="59.5901" ry="18"/>
<text text-anchor="middle" x="458.9954" y="-14.3" font-family="Times,serif" font-size="14.00" fill="#000000">SISpecialUnit</text>
</a>
</g>
</g>
<!-- SpecialUnit -->
<g id="node7" class="node">
<title>SpecialUnit</title>
<g id="a_node7"><a xlink:href="http://emmo.info/emmo/middle/metrology#EMMO_3ee80521_3c23_4dd1_935d_9d522614a3e2" xlink:title="SpecialUnit">
<ellipse fill="#ffffcc" stroke="#000000" cx="458.9954" cy="-90" rx="51.9908" ry="18"/>
<text text-anchor="middle" x="458.9954" y="-86.3" font-family="Times,serif" font-size="14.00" fill="#000000">SpecialUnit</text>
</a>
</g>
</g>
<!-- SISpecialUnit&#45;&gt;SpecialUnit -->
<g id="edge3" class="edge">
<title>SISpecialUnit&#45;&gt;SpecialUnit</title>
<path fill="none" stroke="#000000" d="M458.9954,-36.1686C458.9954,-43.869 458.9954,-53.0257 458.9954,-61.5834"/>
<polygon fill="none" stroke="#000000" points="455.4955,-61.5867 458.9954,-71.5867 462.4955,-61.5868 455.4955,-61.5867"/>
</g>
<!-- Index -->
<g id="node5" class="node">
<title>Index</title>
<g id="a_node5"><a xlink:href="http://emmo.info/emmo/top/semiotics#EMMO_0cd58641_824c_4851_907f_f4c3be76630c" xlink:title="Index">
<ellipse fill="#ffffcc" stroke="#000000" cx="357.9954" cy="-90" rx="30.5947" ry="18"/>
<text text-anchor="middle" x="357.9954" y="-86.3" font-family="Times,serif" font-size="14.00" fill="#000000">Index</text>
</a>
</g>
</g>
<!-- Index&#45;&gt;Sign -->
<g id="edge4" class="edge">
<title>Index&#45;&gt;Sign</title>
<path fill="none" stroke="#000000" d="M337.5575,-103.8823C321.0133,-115.1199 297.5577,-131.052 279.3878,-143.3939"/>
<polygon fill="none" stroke="#000000" points="277.2516,-140.6137 270.9461,-149.1278 281.1849,-146.4042 277.2516,-140.6137"/>
</g>
<!-- SpecialUnit&#45;&gt;Sign -->
<g id="edge1" class="edge">
<title>SpecialUnit&#45;&gt;Sign</title>
<path fill="none" stroke="#000000" d="M421.9879,-102.8722C383.4023,-116.2932 323.4351,-137.1514 286.0043,-150.1708"/>
<polygon fill="none" stroke="#000000" points="284.3761,-147.0314 276.081,-153.6224 286.6758,-153.6429 284.3761,-147.0314"/>
</g>
<!-- key1 -->
<g id="node8" class="node">
<title>key1</title>
<text text-anchor="start" x="554.9954" y="-13.8" font-family="Times,serif" font-size="14.00" fill="#000000">isA</text>
</g>
<!-- key2 -->
<g id="node9" class="node">
<title>key2</title>
<text text-anchor="start" x="633.9954" y="-13.8" font-family="Times,serif" font-size="14.00" fill="#000000"> </text>
</g>
<!-- key1&#45;&gt;key2 -->
<g id="edge7" class="edge">
<title>key1:e&#45;&gt;key2:w</title>
<path fill="none" stroke="#000000" d="M575.9954,-19C596.9954,-19 604.7063,-19 621.5535,-19"/>
<polygon fill="none" stroke="#000000" points="621.9954,-22.5001 631.9954,-19 621.9954,-15.5001 621.9954,-22.5001"/>
</g>
</g>
</svg>
