<?xml version="1.0" encoding="UTF-8" standalone="no"?>
<!DOCTYPE svg PUBLIC "-//W3C//DTD SVG 1.1//EN"
 "http://www.w3.org/Graphics/SVG/1.1/DTD/svg11.dtd">
<!-- Generated by graphviz version 2.40.1 (20161225.0304)
 -->
<!-- Title: %3 Pages: 1 -->
<svg width="671pt" height="188pt"
 viewBox="0.00 0.00 671.00 188.00" xmlns="http://www.w3.org/2000/svg" xmlns:xlink="http://www.w3.org/1999/xlink">
<g id="graph0" class="graph" transform="scale(1 1) rotate(0) translate(4 184)">
<title>%3</title>
<polygon fill="#ffffff" stroke="transparent" points="-4,4 -4,-184 667,-184 667,4 -4,4"/>
<!-- SpecialUnit -->
<g id="node1" class="node">
<title>SpecialUnit</title>
<g id="a_node1"><a xlink:href="http://emmo.info/emmo/middle/metrology#EMMO_3ee80521_3c23_4dd1_935d_9d522614a3e2" xlink:title="SpecialUnit">
<ellipse fill="#ffffcc" stroke="#000000" cx="459" cy="-90" rx="51.9908" ry="18"/>
<text text-anchor="middle" x="459" y="-86.3" font-family="Times,serif" font-size="14.00" fill="#000000">SpecialUnit</text>
</a>
</g>
</g>
<!-- Sign -->
<g id="node5" class="node">
<title>Sign</title>
<g id="a_node5"><a xlink:href="http://emmo.info/emmo/top/semiotics#EMMO_b21a56ed_f969_4612_a6ec_cb7766f7f31d" xlink:title="Sign">
<ellipse fill="#ffc880" stroke="#000000" stroke-width="2" cx="236" cy="-162" rx="27" ry="18"/>
<text text-anchor="middle" x="236" y="-158.3" font-family="Times,serif" font-size="14.00" fill="#000000">Sign</text>
</a>
</g>
</g>
<!-- SpecialUnit&#45;&gt;Sign -->
<g id="edge5" class="edge">
<title>SpecialUnit&#45;&gt;Sign</title>
<path fill="none" stroke="#000000" d="M420.9183,-102.2954C378.6018,-115.9582 310.8878,-137.821 270.2039,-150.9566"/>
<polygon fill="none" stroke="#000000" points="268.9157,-147.6945 260.4748,-154.0978 271.0665,-154.3559 268.9157,-147.6945"/>
</g>
<!-- Icon -->
<g id="node2" class="node">
<title>Icon</title>
<g id="a_node2"><a xlink:href="http://emmo.info/emmo/top/semiotics#EMMO_d7788d1a_020d_4c78_85a1_13563fcec168" xlink:title="Icon">
<ellipse fill="#ffffcc" stroke="#000000" stroke-width="2" cx="27" cy="-90" rx="27" ry="18"/>
<text text-anchor="middle" x="27" y="-86.3" font-family="Times,serif" font-size="14.00" fill="#000000">Icon</text>
</a>
</g>
</g>
<!-- Icon&#45;&gt;Sign -->
<g id="edge6" class="edge">
<title>Icon&#45;&gt;Sign</title>
<path fill="none" stroke="#000000" d="M48.4426,-101.4266C53.1725,-103.7477 58.2039,-106.0671 63,-108 109.6148,-126.7864 165.4108,-143.1523 200.7827,-152.8044"/>
<polygon fill="none" stroke="#000000" points="200.0655,-156.236 210.6321,-155.4623 201.8894,-149.4778 200.0655,-156.236"/>
</g>
<!-- Conventional -->
<g id="node3" class="node">
<title>Conventional</title>
<g id="a_node3"><a xlink:href="http://emmo.info/emmo/top/semiotics#EMMO_35d2e130_6e01_41ed_94f7_00b333d46cf9" xlink:title="Conventional">
<ellipse fill="#ffffcc" stroke="#000000" stroke-width="2" cx="130" cy="-90" rx="57.6901" ry="18"/>
<text text-anchor="middle" x="130" y="-86.3" font-family="Times,serif" font-size="14.00" fill="#000000">Conventional</text>
</a>
</g>
</g>
<!-- Conventional&#45;&gt;Sign -->
<g id="edge4" class="edge">
<title>Conventional&#45;&gt;Sign</title>
<path fill="none" stroke="#000000" d="M154.3185,-106.5183C170.5581,-117.5489 191.9386,-132.0715 208.7517,-143.4917"/>
<polygon fill="none" stroke="#000000" points="206.8373,-146.4224 217.0761,-149.146 210.7705,-140.6319 206.8373,-146.4224"/>
</g>
<!-- Index -->
<g id="node4" class="node">
<title>Index</title>
<g id="a_node4"><a xlink:href="http://emmo.info/emmo/top/semiotics#EMMO_0cd58641_824c_4851_907f_f4c3be76630c" xlink:title="Index">
<ellipse fill="#ffffcc" stroke="#000000" cx="236" cy="-90" rx="30.5947" ry="18"/>
<text text-anchor="middle" x="236" y="-86.3" font-family="Times,serif" font-size="14.00" fill="#000000">Index</text>
</a>
</g>
</g>
<!-- Index&#45;&gt;Sign -->
<g id="edge2" class="edge">
<title>Index&#45;&gt;Sign</title>
<path fill="none" stroke="#000000" d="M236,-108.1686C236,-115.869 236,-125.0257 236,-133.5834"/>
<polygon fill="none" stroke="#000000" points="232.5001,-133.5867 236,-143.5867 239.5001,-133.5868 232.5001,-133.5867"/>
</g>
<!-- SISpecialUnit -->
<g id="node6" class="node">
<title>SISpecialUnit</title>
<g id="a_node6"><a xlink:href="http://emmo.info/emmo/middle/siunits#EMMO_e9ffc696_5228_4ff9_8a60_0f5e05e9931b" xlink:title="SISpecialUnit">
<ellipse fill="#ffffcc" stroke="#000000" stroke-width="2" cx="459" cy="-18" rx="59.5901" ry="18"/>
<text text-anchor="middle" x="459" y="-14.3" font-family="Times,serif" font-size="14.00" fill="#000000">SISpecialUnit</text>
</a>
</g>
</g>
<!-- SISpecialUnit&#45;&gt;SpecialUnit -->
<g id="edge3" class="edge">
<title>SISpecialUnit&#45;&gt;SpecialUnit</title>
<path fill="none" stroke="#000000" d="M459,-36.1686C459,-43.869 459,-53.0257 459,-61.5834"/>
<polygon fill="none" stroke="#000000" points="455.5001,-61.5867 459,-71.5867 462.5001,-61.5868 455.5001,-61.5867"/>
</g>
<!-- Interpretant -->
<g id="node7" class="node">
<title>Interpretant</title>
<g id="a_node7"><a xlink:href="http://emmo.info/emmo/top/semiotics#EMMO_054af807_85cd_4a13_8eba_119dfdaaf38b" xlink:title="Interpretant">
<ellipse fill="#ffffcc" stroke="#000000" cx="337" cy="-90" rx="51.9908" ry="18"/>
<text text-anchor="middle" x="337" y="-86.3" font-family="Times,serif" font-size="14.00" fill="#000000">Interpretant</text>
</a>
</g>
</g>
<!-- Interpretant&#45;&gt;Sign -->
<g id="edge1" class="edge">
<title>Interpretant&#45;&gt;Sign</title>
<path fill="none" stroke="#000000" d="M314.0815,-106.3379C298.8582,-117.1902 278.8111,-131.4812 262.8418,-142.8653"/>
<polygon fill="none" stroke="#000000" points="260.5571,-140.1956 254.446,-148.8504 264.6205,-145.8955 260.5571,-140.1956"/>
</g>
<!-- key1 -->
<g id="node8" class="node">
<title>key1</title>
<text text-anchor="start" x="555" y="-13.8" font-family="Times,serif" font-size="14.00" fill="#000000">isA</text>
</g>
<!-- key2 -->
<g id="node9" class="node">
<title>key2</title>
<text text-anchor="start" x="634" y="-13.8" font-family="Times,serif" font-size="14.00" fill="#000000"> </text>
</g>
<!-- key1&#45;&gt;key2 -->
<g id="edge7" class="edge">
<title>key1:e&#45;&gt;key2:w</title>
<path fill="none" stroke="#000000" d="M576,-19C597,-19 604.7109,-19 621.5581,-19"/>
<polygon fill="none" stroke="#000000" points="622,-22.5001 632,-19 622,-15.5001 622,-22.5001"/>
</g>
</g>
</svg>
