<?xml version="1.0" encoding="UTF-8" standalone="no"?>
<!DOCTYPE svg PUBLIC "-//W3C//DTD SVG 1.1//EN"
 "http://www.w3.org/Graphics/SVG/1.1/DTD/svg11.dtd">
<!-- Generated by graphviz version 2.40.1 (20161225.0304)
 -->
<!-- Title: %3 Pages: 1 -->
<svg width="519pt" height="188pt"
 viewBox="0.00 0.00 519.39 188.00" xmlns="http://www.w3.org/2000/svg" xmlns:xlink="http://www.w3.org/1999/xlink">
<g id="graph0" class="graph" transform="scale(1 1) rotate(0) translate(4 184)">
<title>%3</title>
<polygon fill="#ffffff" stroke="transparent" points="-4,4 -4,-184 515.3922,-184 515.3922,4 -4,4"/>
<!-- Index -->
<g id="node1" class="node">
<title>Index</title>
<g id="a_node1"><a xlink:href="http://emmo.info/emmo/top/semiotics#EMMO_0cd58641_824c_4851_907f_f4c3be76630c" xlink:title="Index">
<ellipse fill="#ffffcc" stroke="#000000" cx="30.5473" cy="-90" rx="30.5947" ry="18"/>
<text text-anchor="middle" x="30.5473" y="-86.3" font-family="Times,serif" font-size="14.00" fill="#000000">Index</text>
</a>
</g>
</g>
<!-- Sign -->
<g id="node2" class="node">
<title>Sign</title>
<g id="a_node2"><a xlink:href="http://emmo.info/emmo/top/semiotics#EMMO_b21a56ed_f969_4612_a6ec_cb7766f7f31d" xlink:title="Sign">
<ellipse fill="#ffc880" stroke="#000000" stroke-width="2" cx="253.5473" cy="-162" rx="27" ry="18"/>
<text text-anchor="middle" x="253.5473" y="-158.3" font-family="Times,serif" font-size="14.00" fill="#000000">Sign</text>
</a>
</g>
</g>
<!-- Index&#45;&gt;Sign -->
<g id="edge2" class="edge">
<title>Index&#45;&gt;Sign</title>
<path fill="none" stroke="#000000" d="M54.4405,-101.3882C59.6917,-103.7116 65.2632,-106.0418 70.5473,-108 120.9424,-126.6758 180.9648,-143.3693 218.1692,-153.0916"/>
<polygon fill="none" stroke="#000000" points="217.4727,-156.5266 228.0308,-155.6448 219.2272,-149.75 217.4727,-156.5266"/>
</g>
<!-- SISpecialUnit -->
<g id="node3" class="node">
<title>SISpecialUnit</title>
<g id="a_node3"><a xlink:href="http://emmo.info/emmo/middle/siunits#EMMO_e9ffc696_5228_4ff9_8a60_0f5e05e9931b" xlink:title="SISpecialUnit">
<ellipse fill="#ffffcc" stroke="#000000" stroke-width="2" cx="253.5473" cy="-18" rx="59.5901" ry="18"/>
<text text-anchor="middle" x="253.5473" y="-14.3" font-family="Times,serif" font-size="14.00" fill="#000000">SISpecialUnit</text>
</a>
</g>
</g>
<!-- SpecialUnit -->
<g id="node5" class="node">
<title>SpecialUnit</title>
<g id="a_node5"><a xlink:href="http://emmo.info/emmo/middle/metrology#EMMO_3ee80521_3c23_4dd1_935d_9d522614a3e2" xlink:title="SpecialUnit">
<ellipse fill="#ffffcc" stroke="#000000" cx="253.5473" cy="-90" rx="51.9908" ry="18"/>
<text text-anchor="middle" x="253.5473" y="-86.3" font-family="Times,serif" font-size="14.00" fill="#000000">SpecialUnit</text>
</a>
</g>
</g>
<!-- SISpecialUnit&#45;&gt;SpecialUnit -->
<g id="edge3" class="edge">
<title>SISpecialUnit&#45;&gt;SpecialUnit</title>
<path fill="none" stroke="#000000" d="M253.5473,-36.1686C253.5473,-43.869 253.5473,-53.0257 253.5473,-61.5834"/>
<polygon fill="none" stroke="#000000" points="250.0474,-61.5867 253.5473,-71.5867 257.0474,-61.5868 250.0474,-61.5867"/>
</g>
<!-- Interpretant -->
<g id="node4" class="node">
<title>Interpretant</title>
<g id="a_node4"><a xlink:href="http://emmo.info/emmo/top/semiotics#EMMO_054af807_85cd_4a13_8eba_119dfdaaf38b" xlink:title="Interpretant">
<ellipse fill="#ffffcc" stroke="#000000" cx="131.5473" cy="-90" rx="51.9908" ry="18"/>
<text text-anchor="middle" x="131.5473" y="-86.3" font-family="Times,serif" font-size="14.00" fill="#000000">Interpretant</text>
</a>
</g>
</g>
<!-- Interpretant&#45;&gt;Sign -->
<g id="edge6" class="edge">
<title>Interpretant&#45;&gt;Sign</title>
<path fill="none" stroke="#000000" d="M158.0195,-105.6229C177.5883,-117.1718 204.226,-132.8923 224.4015,-144.7992"/>
<polygon fill="none" stroke="#000000" points="222.777,-147.9045 233.168,-149.9729 226.3348,-141.8761 222.777,-147.9045"/>
</g>
<!-- SpecialUnit&#45;&gt;Sign -->
<g id="edge5" class="edge">
<title>SpecialUnit&#45;&gt;Sign</title>
<path fill="none" stroke="#000000" d="M253.5473,-108.1686C253.5473,-115.869 253.5473,-125.0257 253.5473,-133.5834"/>
<polygon fill="none" stroke="#000000" points="250.0474,-133.5867 253.5473,-143.5867 257.0474,-133.5868 250.0474,-133.5867"/>
</g>
<!-- Icon -->
<g id="node6" class="node">
<title>Icon</title>
<g id="a_node6"><a xlink:href="http://emmo.info/emmo/top/semiotics#EMMO_d7788d1a_020d_4c78_85a1_13563fcec168" xlink:title="Icon">
<ellipse fill="#ffffcc" stroke="#000000" stroke-width="2" cx="350.5473" cy="-90" rx="27" ry="18"/>
<text text-anchor="middle" x="350.5473" y="-86.3" font-family="Times,serif" font-size="14.00" fill="#000000">Icon</text>
</a>
</g>
</g>
<!-- Icon&#45;&gt;Sign -->
<g id="edge1" class="edge">
<title>Icon&#45;&gt;Sign</title>
<path fill="none" stroke="#000000" d="M332.3023,-103.5426C317.5345,-114.5044 296.5355,-130.0912 279.9345,-142.4136"/>
<polygon fill="none" stroke="#000000" points="277.6541,-139.7474 271.7104,-148.5181 281.8262,-145.3682 277.6541,-139.7474"/>
</g>
<!-- Conventional -->
<g id="node7" class="node">
<title>Conventional</title>
<g id="a_node7"><a xlink:href="http://emmo.info/emmo/top/semiotics#EMMO_35d2e130_6e01_41ed_94f7_00b333d46cf9" xlink:title="Conventional">
<ellipse fill="#ffffcc" stroke="#000000" stroke-width="2" cx="453.5473" cy="-90" rx="57.6901" ry="18"/>
<text text-anchor="middle" x="453.5473" y="-86.3" font-family="Times,serif" font-size="14.00" fill="#000000">Conventional</text>
</a>
</g>
</g>
<!-- Conventional&#45;&gt;Sign -->
<g id="edge4" class="edge">
<title>Conventional&#45;&gt;Sign</title>
<path fill="none" stroke="#000000" d="M415.4581,-103.7121C378.2669,-117.1009 322.2401,-137.2706 286.7988,-150.0295"/>
<polygon fill="none" stroke="#000000" points="285.6045,-146.7394 277.3812,-153.4198 287.9756,-153.3256 285.6045,-146.7394"/>
</g>
<!-- key1 -->
<g id="node8" class="node">
<title>key1</title>
<text text-anchor="start" x="349.5473" y="-13.8" font-family="Times,serif" font-size="14.00" fill="#000000">isA</text>
</g>
<!-- key2 -->
<g id="node9" class="node">
<title>key2</title>
<text text-anchor="start" x="428.5473" y="-13.8" font-family="Times,serif" font-size="14.00" fill="#000000"> </text>
</g>
<!-- key1&#45;&gt;key2 -->
<g id="edge7" class="edge">
<title>key1:e&#45;&gt;key2:w</title>
<path fill="none" stroke="#000000" d="M370.5473,-19C391.5473,-19 399.2582,-19 416.1054,-19"/>
<polygon fill="none" stroke="#000000" points="416.5473,-22.5001 426.5473,-19 416.5473,-15.5001 416.5473,-22.5001"/>
</g>
</g>
</svg>
