<?xml version="1.0" encoding="UTF-8" standalone="no"?>
<!DOCTYPE svg PUBLIC "-//W3C//DTD SVG 1.1//EN"
 "http://www.w3.org/Graphics/SVG/1.1/DTD/svg11.dtd">
<!-- Generated by graphviz version 2.40.1 (20161225.0304)
 -->
<!-- Title: %3 Pages: 1 -->
<svg width="549pt" height="188pt"
 viewBox="0.00 0.00 549.00 188.00" xmlns="http://www.w3.org/2000/svg" xmlns:xlink="http://www.w3.org/1999/xlink">
<g id="graph0" class="graph" transform="scale(1 1) rotate(0) translate(4 184)">
<title>%3</title>
<polygon fill="#ffffff" stroke="transparent" points="-4,4 -4,-184 545,-184 545,4 -4,4"/>
<!-- Icon -->
<g id="node1" class="node">
<title>Icon</title>
<g id="a_node1"><a xlink:href="http://emmo.info/emmo/top/semiotics#EMMO_d7788d1a_020d_4c78_85a1_13563fcec168" xlink:title="Icon">
<ellipse fill="#ffffcc" stroke="#000000" stroke-width="2" cx="27" cy="-90" rx="27" ry="18"/>
<text text-anchor="middle" x="27" y="-86.3" font-family="Times,serif" font-size="14.00" fill="#000000">Icon</text>
</a>
</g>
</g>
<!-- Sign -->
<g id="node7" class="node">
<title>Sign</title>
<g id="a_node7"><a xlink:href="http://emmo.info/emmo/top/semiotics#EMMO_b21a56ed_f969_4612_a6ec_cb7766f7f31d" xlink:title="Sign">
<ellipse fill="#ffc880" stroke="#000000" stroke-width="2" cx="209" cy="-162" rx="27" ry="18"/>
<text text-anchor="middle" x="209" y="-158.3" font-family="Times,serif" font-size="14.00" fill="#000000">Sign</text>
</a>
</g>
</g>
<!-- Icon&#45;&gt;Sign -->
<g id="edge3" class="edge">
<title>Icon&#45;&gt;Sign</title>
<path fill="none" stroke="#000000" d="M48.5208,-101.2396C53.2459,-103.5723 58.2555,-105.9438 63,-108 100.7619,-124.3655 145.2614,-140.3691 175.1201,-150.6503"/>
<polygon fill="none" stroke="#000000" points="174.0593,-153.9864 184.6539,-153.9098 176.3239,-147.3629 174.0593,-153.9864"/>
</g>
<!-- SISpecialUnit -->
<g id="node2" class="node">
<title>SISpecialUnit</title>
<g id="a_node2"><a xlink:href="http://emmo.info/emmo/middle/siunits#EMMO_e9ffc696_5228_4ff9_8a60_0f5e05e9931b" xlink:title="SISpecialUnit">
<ellipse fill="#ffffcc" stroke="#000000" stroke-width="2" cx="337" cy="-18" rx="59.5901" ry="18"/>
<text text-anchor="middle" x="337" y="-14.3" font-family="Times,serif" font-size="14.00" fill="#000000">SISpecialUnit</text>
</a>
</g>
</g>
<!-- SpecialUnit -->
<g id="node5" class="node">
<title>SpecialUnit</title>
<g id="a_node5"><a xlink:href="http://emmo.info/emmo/middle/metrology#EMMO_3ee80521_3c23_4dd1_935d_9d522614a3e2" xlink:title="SpecialUnit">
<ellipse fill="#ffffcc" stroke="#000000" cx="337" cy="-90" rx="51.9908" ry="18"/>
<text text-anchor="middle" x="337" y="-86.3" font-family="Times,serif" font-size="14.00" fill="#000000">SpecialUnit</text>
</a>
</g>
</g>
<!-- SISpecialUnit&#45;&gt;SpecialUnit -->
<g id="edge5" class="edge">
<title>SISpecialUnit&#45;&gt;SpecialUnit</title>
<path fill="none" stroke="#000000" d="M337,-36.1686C337,-43.869 337,-53.0257 337,-61.5834"/>
<polygon fill="none" stroke="#000000" points="333.5001,-61.5867 337,-71.5867 340.5001,-61.5868 333.5001,-61.5867"/>
</g>
<!-- Index -->
<g id="node3" class="node">
<title>Index</title>
<g id="a_node3"><a xlink:href="http://emmo.info/emmo/top/semiotics#EMMO_0cd58641_824c_4851_907f_f4c3be76630c" xlink:title="Index">
<ellipse fill="#ffffcc" stroke="#000000" cx="103" cy="-90" rx="30.5947" ry="18"/>
<text text-anchor="middle" x="103" y="-86.3" font-family="Times,serif" font-size="14.00" fill="#000000">Index</text>
</a>
</g>
</g>
<!-- Index&#45;&gt;Sign -->
<g id="edge2" class="edge">
<title>Index&#45;&gt;Sign</title>
<path fill="none" stroke="#000000" d="M123.4379,-103.8823C139.9821,-115.1199 163.4377,-131.052 181.6076,-143.3939"/>
<polygon fill="none" stroke="#000000" points="179.8105,-146.4042 190.0493,-149.1278 183.7437,-140.6137 179.8105,-146.4042"/>
</g>
<!-- Conventional -->
<g id="node4" class="node">
<title>Conventional</title>
<g id="a_node4"><a xlink:href="http://emmo.info/emmo/top/semiotics#EMMO_35d2e130_6e01_41ed_94f7_00b333d46cf9" xlink:title="Conventional">
<ellipse fill="#ffffcc" stroke="#000000" stroke-width="2" cx="209" cy="-90" rx="57.6901" ry="18"/>
<text text-anchor="middle" x="209" y="-86.3" font-family="Times,serif" font-size="14.00" fill="#000000">Conventional</text>
</a>
</g>
</g>
<!-- Conventional&#45;&gt;Sign -->
<g id="edge1" class="edge">
<title>Conventional&#45;&gt;Sign</title>
<path fill="none" stroke="#000000" d="M209,-108.1686C209,-115.869 209,-125.0257 209,-133.5834"/>
<polygon fill="none" stroke="#000000" points="205.5001,-133.5867 209,-143.5867 212.5001,-133.5868 205.5001,-133.5867"/>
</g>
<!-- SpecialUnit&#45;&gt;Sign -->
<g id="edge6" class="edge">
<title>SpecialUnit&#45;&gt;Sign</title>
<path fill="none" stroke="#000000" d="M309.5408,-105.4458C288.6804,-117.1798 260.031,-133.2951 238.65,-145.3219"/>
<polygon fill="none" stroke="#000000" points="236.6841,-142.4119 229.6843,-150.3651 240.116,-148.5129 236.6841,-142.4119"/>
</g>
<!-- Interpretant -->
<g id="node6" class="node">
<title>Interpretant</title>
<g id="a_node6"><a xlink:href="http://emmo.info/emmo/top/semiotics#EMMO_054af807_85cd_4a13_8eba_119dfdaaf38b" xlink:title="Interpretant">
<ellipse fill="#ffffcc" stroke="#000000" cx="459" cy="-90" rx="51.9908" ry="18"/>
<text text-anchor="middle" x="459" y="-86.3" font-family="Times,serif" font-size="14.00" fill="#000000">Interpretant</text>
</a>
</g>
</g>
<!-- Interpretant&#45;&gt;Sign -->
<g id="edge4" class="edge">
<title>Interpretant&#45;&gt;Sign</title>
<path fill="none" stroke="#000000" d="M419.3108,-101.7656C412.2173,-103.853 404.8924,-105.9985 398,-108 344.3799,-123.5709 282.0962,-141.2964 244.1263,-152.0619"/>
<polygon fill="none" stroke="#000000" points="242.7559,-148.8123 234.089,-154.9062 244.6645,-155.5472 242.7559,-148.8123"/>
</g>
<!-- key1 -->
<g id="node8" class="node">
<title>key1</title>
<text text-anchor="start" x="433" y="-13.8" font-family="Times,serif" font-size="14.00" fill="#000000">isA</text>
</g>
<!-- key2 -->
<g id="node9" class="node">
<title>key2</title>
<text text-anchor="start" x="512" y="-13.8" font-family="Times,serif" font-size="14.00" fill="#000000"> </text>
</g>
<!-- key1&#45;&gt;key2 -->
<g id="edge7" class="edge">
<title>key1:e&#45;&gt;key2:w</title>
<path fill="none" stroke="#000000" d="M454,-19C475,-19 482.7109,-19 499.5581,-19"/>
<polygon fill="none" stroke="#000000" points="500,-22.5001 510,-19 500,-15.5001 500,-22.5001"/>
</g>
</g>
</svg>
