<?xml version="1.0" encoding="UTF-8" standalone="no"?>
<!DOCTYPE svg PUBLIC "-//W3C//DTD SVG 1.1//EN"
 "http://www.w3.org/Graphics/SVG/1.1/DTD/svg11.dtd">
<!-- Generated by graphviz version 2.40.1 (20161225.0304)
 -->
<!-- Title: %3 Pages: 1 -->
<svg width="599pt" height="188pt"
 viewBox="0.00 0.00 598.55 188.00" xmlns="http://www.w3.org/2000/svg" xmlns:xlink="http://www.w3.org/1999/xlink">
<g id="graph0" class="graph" transform="scale(1 1) rotate(0) translate(4 184)">
<title>%3</title>
<polygon fill="#ffffff" stroke="transparent" points="-4,4 -4,-184 594.5473,-184 594.5473,4 -4,4"/>
<!-- Index -->
<g id="node1" class="node">
<title>Index</title>
<g id="a_node1"><a xlink:href="http://emmo.info/emmo/top/semiotics#EMMO_0cd58641_824c_4851_907f_f4c3be76630c" xlink:title="Index">
<ellipse fill="#ffffcc" stroke="#000000" cx="30.5473" cy="-90" rx="30.5947" ry="18"/>
<text text-anchor="middle" x="30.5473" y="-86.3" font-family="Times,serif" font-size="14.00" fill="#000000">Index</text>
</a>
</g>
</g>
<!-- Sign -->
<g id="node5" class="node">
<title>Sign</title>
<g id="a_node5"><a xlink:href="http://emmo.info/emmo/top/semiotics#EMMO_b21a56ed_f969_4612_a6ec_cb7766f7f31d" xlink:title="Sign">
<ellipse fill="#ffc880" stroke="#000000" stroke-width="2" cx="264.5473" cy="-162" rx="27" ry="18"/>
<text text-anchor="middle" x="264.5473" y="-158.3" font-family="Times,serif" font-size="14.00" fill="#000000">Sign</text>
</a>
</g>
</g>
<!-- Index&#45;&gt;Sign -->
<g id="edge6" class="edge">
<title>Index&#45;&gt;Sign</title>
<path fill="none" stroke="#000000" d="M54.2147,-101.6661C59.2155,-103.9203 64.506,-106.1525 69.5473,-108 124.0467,-127.973 189.4305,-144.6594 228.9435,-153.9812"/>
<polygon fill="none" stroke="#000000" points="228.3568,-157.4382 238.8904,-156.3008 229.9466,-150.6211 228.3568,-157.4382"/>
</g>
<!-- Conventional -->
<g id="node2" class="node">
<title>Conventional</title>
<g id="a_node2"><a xlink:href="http://emmo.info/emmo/top/semiotics#EMMO_35d2e130_6e01_41ed_94f7_00b333d46cf9" xlink:title="Conventional">
<ellipse fill="#ffffcc" stroke="#000000" stroke-width="2" cx="136.5473" cy="-90" rx="57.6901" ry="18"/>
<text text-anchor="middle" x="136.5473" y="-86.3" font-family="Times,serif" font-size="14.00" fill="#000000">Conventional</text>
</a>
</g>
</g>
<!-- Conventional&#45;&gt;Sign -->
<g id="edge2" class="edge">
<title>Conventional&#45;&gt;Sign</title>
<path fill="none" stroke="#000000" d="M164.6374,-105.8007C185.4075,-117.4839 213.6381,-133.3636 234.7928,-145.2631"/>
<polygon fill="none" stroke="#000000" points="233.2408,-148.4058 243.6725,-150.2579 236.6726,-142.3047 233.2408,-148.4058"/>
</g>
<!-- SISpecialUnit -->
<g id="node3" class="node">
<title>SISpecialUnit</title>
<g id="a_node3"><a xlink:href="http://emmo.info/emmo/middle/siunits#EMMO_e9ffc696_5228_4ff9_8a60_0f5e05e9931b" xlink:title="SISpecialUnit">
<ellipse fill="#ffffcc" stroke="#000000" stroke-width="2" cx="386.5473" cy="-18" rx="59.5901" ry="18"/>
<text text-anchor="middle" x="386.5473" y="-14.3" font-family="Times,serif" font-size="14.00" fill="#000000">SISpecialUnit</text>
</a>
</g>
</g>
<!-- SpecialUnit -->
<g id="node6" class="node">
<title>SpecialUnit</title>
<g id="a_node6"><a xlink:href="http://emmo.info/emmo/middle/metrology#EMMO_3ee80521_3c23_4dd1_935d_9d522614a3e2" xlink:title="SpecialUnit">
<ellipse fill="#ffffcc" stroke="#000000" cx="386.5473" cy="-90" rx="51.9908" ry="18"/>
<text text-anchor="middle" x="386.5473" y="-86.3" font-family="Times,serif" font-size="14.00" fill="#000000">SpecialUnit</text>
</a>
</g>
</g>
<!-- SISpecialUnit&#45;&gt;SpecialUnit -->
<g id="edge3" class="edge">
<title>SISpecialUnit&#45;&gt;SpecialUnit</title>
<path fill="none" stroke="#000000" d="M386.5473,-36.1686C386.5473,-43.869 386.5473,-53.0257 386.5473,-61.5834"/>
<polygon fill="none" stroke="#000000" points="383.0474,-61.5867 386.5473,-71.5867 390.0474,-61.5868 383.0474,-61.5867"/>
</g>
<!-- Interpretant -->
<g id="node4" class="node">
<title>Interpretant</title>
<g id="a_node4"><a xlink:href="http://emmo.info/emmo/top/semiotics#EMMO_054af807_85cd_4a13_8eba_119dfdaaf38b" xlink:title="Interpretant">
<ellipse fill="#ffffcc" stroke="#000000" cx="264.5473" cy="-90" rx="51.9908" ry="18"/>
<text text-anchor="middle" x="264.5473" y="-86.3" font-family="Times,serif" font-size="14.00" fill="#000000">Interpretant</text>
</a>
</g>
</g>
<!-- Interpretant&#45;&gt;Sign -->
<g id="edge5" class="edge">
<title>Interpretant&#45;&gt;Sign</title>
<path fill="none" stroke="#000000" d="M264.5473,-108.1686C264.5473,-115.869 264.5473,-125.0257 264.5473,-133.5834"/>
<polygon fill="none" stroke="#000000" points="261.0474,-133.5867 264.5473,-143.5867 268.0474,-133.5868 261.0474,-133.5867"/>
</g>
<!-- SpecialUnit&#45;&gt;Sign -->
<g id="edge4" class="edge">
<title>SpecialUnit&#45;&gt;Sign</title>
<path fill="none" stroke="#000000" d="M360.0751,-105.6229C340.5062,-117.1718 313.8686,-132.8923 293.6931,-144.7992"/>
<polygon fill="none" stroke="#000000" points="291.7597,-141.8761 284.9266,-149.9729 295.3175,-147.9045 291.7597,-141.8761"/>
</g>
<!-- Icon -->
<g id="node7" class="node">
<title>Icon</title>
<g id="a_node7"><a xlink:href="http://emmo.info/emmo/top/semiotics#EMMO_d7788d1a_020d_4c78_85a1_13563fcec168" xlink:title="Icon">
<ellipse fill="#ffffcc" stroke="#000000" stroke-width="2" cx="483.5473" cy="-90" rx="27" ry="18"/>
<text text-anchor="middle" x="483.5473" y="-86.3" font-family="Times,serif" font-size="14.00" fill="#000000">Icon</text>
</a>
</g>
</g>
<!-- Icon&#45;&gt;Sign -->
<g id="edge1" class="edge">
<title>Icon&#45;&gt;Sign</title>
<path fill="none" stroke="#000000" d="M462.5103,-101.2956C457.6685,-103.6762 452.4883,-106.0534 447.5473,-108 397.5436,-127.6997 337.4165,-144.1192 300.0828,-153.5036"/>
<polygon fill="none" stroke="#000000" points="299.0467,-150.1545 290.1846,-155.9608 300.7333,-156.9483 299.0467,-150.1545"/>
</g>
<!-- key1 -->
<g id="node8" class="node">
<title>key1</title>
<text text-anchor="start" x="482.5473" y="-13.8" font-family="Times,serif" font-size="14.00" fill="#000000">isA</text>
</g>
<!-- key2 -->
<g id="node9" class="node">
<title>key2</title>
<text text-anchor="start" x="561.5473" y="-13.8" font-family="Times,serif" font-size="14.00" fill="#000000"> </text>
</g>
<!-- key1&#45;&gt;key2 -->
<g id="edge7" class="edge">
<title>key1:e&#45;&gt;key2:w</title>
<path fill="none" stroke="#000000" d="M503.5473,-19C524.5473,-19 532.2582,-19 549.1054,-19"/>
<polygon fill="none" stroke="#000000" points="549.5473,-22.5001 559.5473,-19 549.5473,-15.5001 549.5473,-22.5001"/>
</g>
</g>
</svg>
