<?xml version="1.0" encoding="UTF-8" standalone="no"?>
<!DOCTYPE svg PUBLIC "-//W3C//DTD SVG 1.1//EN"
 "http://www.w3.org/Graphics/SVG/1.1/DTD/svg11.dtd">
<!-- Generated by graphviz version 2.40.1 (20161225.0304)
 -->
<!-- Title: %3 Pages: 1 -->
<svg width="306pt" height="1178pt"
 viewBox="0.00 0.00 306.08 1178.00" xmlns="http://www.w3.org/2000/svg" xmlns:xlink="http://www.w3.org/1999/xlink">
<g id="graph0" class="graph" transform="scale(1 1) rotate(0) translate(4 1174)">
<title>%3</title>
<polygon fill="#ffffff" stroke="transparent" points="-4,4 -4,-1174 302.0784,-1174 302.0784,4 -4,4"/>
<!-- Katal -->
<g id="node1" class="node">
<title>Katal</title>
<g id="a_node1"><a xlink:href="http://emmo.info/emmo/middle/siunits#EMMO_33b67e69_3645_4c73_b100_5ea6759221b4" xlink:title="Katal">
<ellipse fill="#ffffcc" stroke="#000000" cx="236.3339" cy="-1152" rx="29.795" ry="18"/>
<text text-anchor="middle" x="236.3339" y="-1148.3" font-family="Times,serif" font-size="14.00" fill="#000000">Katal</text>
</a>
</g>
</g>
<!-- SISpecialUnit -->
<g id="node23" class="node">
<title>SISpecialUnit</title>
<g id="a_node23"><a xlink:href="http://emmo.info/emmo/middle/siunits#EMMO_e9ffc696_5228_4ff9_8a60_0f5e05e9931b" xlink:title="SISpecialUnit">
<ellipse fill="#ffffcc" stroke="#000000" stroke-width="2" cx="59.7947" cy="-585" rx="59.5901" ry="18"/>
<text text-anchor="middle" x="59.7947" y="-581.3" font-family="Times,serif" font-size="14.00" fill="#000000">SISpecialUnit</text>
</a>
</g>
</g>
<!-- Katal&#45;&gt;SISpecialUnit -->
<g id="edge5" class="edge">
<title>Katal&#45;&gt;SISpecialUnit</title>
<path fill="none" stroke="#000000" d="M209.3215,-1143.8684C197.8071,-1139.5149 184.7222,-1133.3084 174.5894,-1125 152.3745,-1106.7851 148.3499,-1098.6364 137.5894,-1072 103.2658,-987.0362 71.953,-703.6869 62.6121,-613.1026"/>
<polygon fill="none" stroke="#000000" points="66.0821,-612.6298 61.5832,-603.0376 59.1184,-613.3417 66.0821,-612.6298"/>
<text text-anchor="middle" x="147.0894" y="-1110.8" font-family="Times,serif" font-size="14.00" fill="#000000">isA</text>
</g>
<!-- DegreeCelsius -->
<g id="node2" class="node">
<title>DegreeCelsius</title>
<g id="a_node2"><a xlink:href="http://emmo.info/emmo/middle/siunits#EMMO_b20be325_8bfd_4237_bee7_201ab0fd9c75" xlink:title="DegreeCelsius">
<ellipse fill="#ffffcc" stroke="#000000" cx="236.3339" cy="-1098" rx="61.99" ry="18"/>
<text text-anchor="middle" x="236.3339" y="-1094.3" font-family="Times,serif" font-size="14.00" fill="#000000">DegreeCelsius</text>
</a>
</g>
</g>
<!-- DegreeCelsius&#45;&gt;SISpecialUnit -->
<g id="edge9" class="edge">
<title>DegreeCelsius&#45;&gt;SISpecialUnit</title>
<path fill="none" stroke="#000000" d="M195.9438,-1084.1758C188.4086,-1080.5644 180.9224,-1076.1927 174.5894,-1071 152.3745,-1052.7851 148.6073,-1044.5309 137.5894,-1018 77.808,-874.0474 63.9014,-684.4311 60.7195,-613.4417"/>
<polygon fill="none" stroke="#000000" points="64.202,-612.9404 60.2956,-603.0921 57.2079,-613.227 64.202,-612.9404"/>
<text text-anchor="middle" x="147.0894" y="-1056.8" font-family="Times,serif" font-size="14.00" fill="#000000">isA</text>
</g>
<!-- Coulomb -->
<g id="node3" class="node">
<title>Coulomb</title>
<g id="a_node3"><a xlink:href="http://emmo.info/emmo/middle/siunits#EMMO_696ed548_9477_45ea_993c_6a8f5271914a" xlink:title="Coulomb">
<ellipse fill="#ffffcc" stroke="#000000" cx="236.3339" cy="-1044" rx="44.393" ry="18"/>
<text text-anchor="middle" x="236.3339" y="-1040.3" font-family="Times,serif" font-size="14.00" fill="#000000">Coulomb</text>
</a>
</g>
</g>
<!-- Coulomb&#45;&gt;SISpecialUnit -->
<g id="edge10" class="edge">
<title>Coulomb&#45;&gt;SISpecialUnit</title>
<path fill="none" stroke="#000000" d="M201.3896,-1032.7183C192.0754,-1028.6848 182.4321,-1023.4882 174.5894,-1017 152.1727,-998.4551 148.9682,-989.7758 137.5894,-963 85.0732,-839.423 67.105,-677.6761 61.7776,-613.2531"/>
<polygon fill="none" stroke="#000000" points="65.2505,-612.7698 60.9757,-603.0757 58.2721,-613.3197 65.2505,-612.7698"/>
<text text-anchor="middle" x="147.0894" y="-1002.8" font-family="Times,serif" font-size="14.00" fill="#000000">isA</text>
</g>
<!-- Sievert -->
<g id="node4" class="node">
<title>Sievert</title>
<g id="a_node4"><a xlink:href="http://emmo.info/emmo/middle/siunits#EMMO_dc232f53_8ed8_4ddd_9f41_cc057985eadb" xlink:title="Sievert">
<ellipse fill="#ffffcc" stroke="#000000" cx="236.3339" cy="-990" rx="35.9954" ry="18"/>
<text text-anchor="middle" x="236.3339" y="-986.3" font-family="Times,serif" font-size="14.00" fill="#000000">Sievert</text>
</a>
</g>
</g>
<!-- Sievert&#45;&gt;SISpecialUnit -->
<g id="edge6" class="edge">
<title>Sievert&#45;&gt;SISpecialUnit</title>
<path fill="none" stroke="#000000" d="M205.8516,-980.5757C195.2256,-976.3238 183.6942,-970.5323 174.5894,-963 152.1727,-944.4551 149.4041,-935.5863 137.5894,-909 91.6841,-805.7007 70.5324,-671.3254 63.0912,-613.5009"/>
<polygon fill="none" stroke="#000000" points="66.5303,-612.7938 61.8204,-603.3034 59.584,-613.6595 66.5303,-612.7938"/>
<text text-anchor="middle" x="147.0894" y="-947.8" font-family="Times,serif" font-size="14.00" fill="#000000">isA</text>
</g>
<!-- Lumen -->
<g id="node5" class="node">
<title>Lumen</title>
<g id="a_node5"><a xlink:href="http://emmo.info/emmo/middle/siunits#EMMO_d7b7fd1e_645a_42cb_8f40_85f0d034d3ae" xlink:title="Lumen">
<ellipse fill="#ffffcc" stroke="#000000" cx="236.3339" cy="-936" rx="36.2938" ry="18"/>
<text text-anchor="middle" x="236.3339" y="-932.3" font-family="Times,serif" font-size="14.00" fill="#000000">Lumen</text>
</a>
</g>
</g>
<!-- Lumen&#45;&gt;SISpecialUnit -->
<g id="edge11" class="edge">
<title>Lumen&#45;&gt;SISpecialUnit</title>
<path fill="none" stroke="#000000" d="M205.2193,-926.3213C194.7698,-922.0937 183.5139,-916.3831 174.5894,-909 152.1727,-890.4551 149.9977,-881.3145 137.5894,-855 98.1443,-771.3484 74.4565,-663.514 64.8209,-613.1951"/>
<polygon fill="none" stroke="#000000" points="68.2075,-612.2645 62.9262,-603.0799 61.3272,-613.5533 68.2075,-612.2645"/>
<text text-anchor="middle" x="147.0894" y="-893.8" font-family="Times,serif" font-size="14.00" fill="#000000">isA</text>
</g>
<!-- Tesla -->
<g id="node6" class="node">
<title>Tesla</title>
<g id="a_node6"><a xlink:href="http://emmo.info/emmo/middle/siunits#EMMO_acb50123_87a2_4753_b36c_f87114ad4de2" xlink:title="Tesla">
<ellipse fill="#ffffcc" stroke="#000000" cx="236.3339" cy="-882" rx="29.795" ry="18"/>
<text text-anchor="middle" x="236.3339" y="-878.3" font-family="Times,serif" font-size="14.00" fill="#000000">Tesla</text>
</a>
</g>
</g>
<!-- Tesla&#45;&gt;SISpecialUnit -->
<g id="edge2" class="edge">
<title>Tesla&#45;&gt;SISpecialUnit</title>
<path fill="none" stroke="#000000" d="M209.3215,-873.8684C197.8071,-869.5149 184.7222,-863.3084 174.5894,-855 152.3745,-836.7851 150.7748,-827.5231 137.5894,-802 104.2297,-737.4252 79.0502,-655.2622 67.2334,-612.9637"/>
<polygon fill="none" stroke="#000000" points="70.5479,-611.8167 64.5202,-603.1037 63.7988,-613.674 70.5479,-611.8167"/>
<text text-anchor="middle" x="147.0894" y="-839.8" font-family="Times,serif" font-size="14.00" fill="#000000">isA</text>
</g>
<!-- Henry -->
<g id="node7" class="node">
<title>Henry</title>
<g id="a_node7"><a xlink:href="http://emmo.info/emmo/middle/siunits#EMMO_fab003c8_f7a6_4346_9988_7161325ed7a3" xlink:title="Henry">
<ellipse fill="#ffffcc" stroke="#000000" cx="236.3339" cy="-828" rx="32.4942" ry="18"/>
<text text-anchor="middle" x="236.3339" y="-824.3" font-family="Times,serif" font-size="14.00" fill="#000000">Henry</text>
</a>
</g>
</g>
<!-- Henry&#45;&gt;SISpecialUnit -->
<g id="edge12" class="edge">
<title>Henry&#45;&gt;SISpecialUnit</title>
<path fill="none" stroke="#000000" d="M207.7704,-819.2742C196.6447,-814.9565 184.2699,-808.9375 174.5894,-801 113.3526,-750.7893 80.4186,-659.1196 67.0466,-613.0311"/>
<polygon fill="none" stroke="#000000" points="70.3414,-611.8171 64.2737,-603.1318 63.6008,-613.7052 70.3414,-611.8171"/>
<text text-anchor="middle" x="147.0894" y="-786.8" font-family="Times,serif" font-size="14.00" fill="#000000">isA</text>
</g>
<!-- Becquerel -->
<g id="node8" class="node">
<title>Becquerel</title>
<g id="a_node8"><a xlink:href="http://emmo.info/emmo/middle/siunits#EMMO_b71e4ba5_8f73_4199_8c96_7ea7f94d9e2a" xlink:title="Becquerel">
<ellipse fill="#ffffcc" stroke="#000000" cx="236.3339" cy="-774" rx="46.2923" ry="18"/>
<text text-anchor="middle" x="236.3339" y="-770.3" font-family="Times,serif" font-size="14.00" fill="#000000">Becquerel</text>
</a>
</g>
</g>
<!-- Becquerel&#45;&gt;SISpecialUnit -->
<g id="edge20" class="edge">
<title>Becquerel&#45;&gt;SISpecialUnit</title>
<path fill="none" stroke="#000000" d="M200.86,-762.2995C191.746,-758.3066 182.3365,-753.2353 174.5894,-747 127.7078,-709.2668 91.3804,-647.655 73.016,-612.2833"/>
<polygon fill="none" stroke="#000000" points="75.9708,-610.3721 68.3188,-603.0442 69.7309,-613.5445 75.9708,-610.3721"/>
<text text-anchor="middle" x="147.0894" y="-732.8" font-family="Times,serif" font-size="14.00" fill="#000000">isA</text>
</g>
<!-- Steradian -->
<g id="node9" class="node">
<title>Steradian</title>
<g id="a_node9"><a xlink:href="http://emmo.info/emmo/middle/siunits#EMMO_cf3dd6cc_c5d6_4b3d_aef4_82f3b7a361af" xlink:title="Steradian">
<ellipse fill="#ffffcc" stroke="#000000" cx="236.3339" cy="-720" rx="44.393" ry="18"/>
<text text-anchor="middle" x="236.3339" y="-716.3" font-family="Times,serif" font-size="14.00" fill="#000000">Steradian</text>
</a>
</g>
</g>
<!-- Steradian&#45;&gt;SISpecialUnit -->
<g id="edge3" class="edge">
<title>Steradian&#45;&gt;SISpecialUnit</title>
<path fill="none" stroke="#000000" d="M203.2018,-707.9835C193.6164,-703.8615 183.3764,-698.8019 174.5894,-693 138.6871,-669.2943 103.5842,-633.9695 81.8411,-610.2395"/>
<polygon fill="none" stroke="#000000" points="84.3003,-607.7406 74.9977,-602.6699 79.1078,-612.4351 84.3003,-607.7406"/>
<text text-anchor="middle" x="147.0894" y="-680.8" font-family="Times,serif" font-size="14.00" fill="#000000">isA</text>
</g>
<!-- Farad -->
<g id="node10" class="node">
<title>Farad</title>
<g id="a_node10"><a xlink:href="http://emmo.info/emmo/middle/siunits#EMMO_a9201b2f_e6de_442a_b3a6_d291.0.0-alphaa582" xlink:title="Farad">
<ellipse fill="#ffffcc" stroke="#000000" cx="236.3339" cy="-666" rx="30.5947" ry="18"/>
<text text-anchor="middle" x="236.3339" y="-662.3" font-family="Times,serif" font-size="14.00" fill="#000000">Farad</text>
</a>
</g>
</g>
<!-- Farad&#45;&gt;SISpecialUnit -->
<g id="edge17" class="edge">
<title>Farad&#45;&gt;SISpecialUnit</title>
<path fill="none" stroke="#000000" d="M211.6278,-655.3809C200.3077,-650.468 186.7351,-644.511 174.5894,-639 150.1299,-627.9017 122.9232,-615.1228 101.1375,-604.7831"/>
<polygon fill="none" stroke="#000000" points="102.3825,-601.4996 91.8484,-600.3664 99.3766,-607.8214 102.3825,-601.4996"/>
<text text-anchor="middle" x="147.0894" y="-633.8" font-family="Times,serif" font-size="14.00" fill="#000000">isA</text>
</g>
<!-- Newton -->
<g id="node11" class="node">
<title>Newton</title>
<g id="a_node11"><a xlink:href="http://emmo.info/emmo/middle/siunits#EMMO_a979c531_f9fa_4a6e_93c1.0.0-alpha960241ca6" xlink:title="Newton">
<ellipse fill="#ffffcc" stroke="#000000" cx="236.3339" cy="-612" rx="38.1938" ry="18"/>
<text text-anchor="middle" x="236.3339" y="-608.3" font-family="Times,serif" font-size="14.00" fill="#000000">Newton</text>
</a>
</g>
</g>
<!-- Newton&#45;&gt;SISpecialUnit -->
<g id="edge22" class="edge">
<title>Newton&#45;&gt;SISpecialUnit</title>
<path fill="none" stroke="#000000" d="M199.7549,-606.4056C177.7324,-603.0375 149.0821,-598.6557 123.4438,-594.7345"/>
<polygon fill="none" stroke="#000000" points="123.8299,-591.253 113.4157,-593.2008 122.7716,-598.1725 123.8299,-591.253"/>
<text text-anchor="middle" x="147.0894" y="-602.8" font-family="Times,serif" font-size="14.00" fill="#000000">isA</text>
</g>
<!-- Joule -->
<g id="node12" class="node">
<title>Joule</title>
<g id="a_node12"><a xlink:href="http://emmo.info/emmo/middle/siunits#EMMO_8a70dea4_d6ab_4260_b931_a3e990982416" xlink:title="Joule">
<ellipse fill="#ffffcc" stroke="#000000" cx="236.3339" cy="-558" rx="29.4969" ry="18"/>
<text text-anchor="middle" x="236.3339" y="-554.3" font-family="Times,serif" font-size="14.00" fill="#000000">Joule</text>
</a>
</g>
</g>
<!-- Joule&#45;&gt;SISpecialUnit -->
<g id="edge4" class="edge">
<title>Joule&#45;&gt;SISpecialUnit</title>
<path fill="none" stroke="#000000" d="M207.5769,-562.3981C184.7657,-565.8869 152.029,-570.8936 123.1621,-575.3086"/>
<polygon fill="none" stroke="#000000" points="122.4914,-571.8703 113.1355,-576.842 123.5498,-578.7899 122.4914,-571.8703"/>
<text text-anchor="middle" x="147.0894" y="-575.8" font-family="Times,serif" font-size="14.00" fill="#000000">isA</text>
</g>
<!-- Siemens -->
<g id="node13" class="node">
<title>Siemens</title>
<g id="a_node13"><a xlink:href="http://emmo.info/emmo/middle/siunits#EMMO_f2523820_04a6_44ab_bb67_8237dda2b0c2" xlink:title="Siemens">
<ellipse fill="#ffffcc" stroke="#000000" cx="236.3339" cy="-504" rx="40.8928" ry="18"/>
<text text-anchor="middle" x="236.3339" y="-500.3" font-family="Times,serif" font-size="14.00" fill="#000000">Siemens</text>
</a>
</g>
</g>
<!-- Siemens&#45;&gt;SISpecialUnit -->
<g id="edge21" class="edge">
<title>Siemens&#45;&gt;SISpecialUnit</title>
<path fill="none" stroke="#000000" d="M207.0507,-516.6093C196.7607,-521.0919 185.137,-526.2141 174.5894,-531 150.1299,-542.0983 122.9232,-554.8772 101.1375,-565.2169"/>
<polygon fill="none" stroke="#000000" points="99.3766,-562.1786 91.8484,-569.6336 102.3825,-568.5004 99.3766,-562.1786"/>
<text text-anchor="middle" x="147.0894" y="-550.8" font-family="Times,serif" font-size="14.00" fill="#000000">isA</text>
</g>
<!-- Ohm -->
<g id="node14" class="node">
<title>Ohm</title>
<g id="a_node14"><a xlink:href="http://emmo.info/emmo/middle/siunits#EMMO_59c10c5c_47bd_4348_ba39_38836607dfa1" xlink:title="Ohm">
<ellipse fill="#ffffcc" stroke="#000000" cx="236.3339" cy="-450" rx="28.6953" ry="18"/>
<text text-anchor="middle" x="236.3339" y="-446.3" font-family="Times,serif" font-size="14.00" fill="#000000">Ohm</text>
</a>
</g>
</g>
<!-- Ohm&#45;&gt;SISpecialUnit -->
<g id="edge18" class="edge">
<title>Ohm&#45;&gt;SISpecialUnit</title>
<path fill="none" stroke="#000000" d="M210.9929,-458.8026C199.4174,-463.385 185.8172,-469.5864 174.5894,-477 138.6871,-500.7057 103.5842,-536.0305 81.8411,-559.7605"/>
<polygon fill="none" stroke="#000000" points="79.1078,-557.5649 74.9977,-567.3301 84.3003,-562.2594 79.1078,-557.5649"/>
<text text-anchor="middle" x="147.0894" y="-506.8" font-family="Times,serif" font-size="14.00" fill="#000000">isA</text>
</g>
<!-- Lux -->
<g id="node15" class="node">
<title>Lux</title>
<g id="a_node15"><a xlink:href="http://emmo.info/emmo/middle/siunits#EMMO_da1dd4a7_c611_4ad4_bef6_7646f28aa598" xlink:title="Lux">
<ellipse fill="#ffffcc" stroke="#000000" cx="236.3339" cy="-396" rx="27" ry="18"/>
<text text-anchor="middle" x="236.3339" y="-392.3" font-family="Times,serif" font-size="14.00" fill="#000000">Lux</text>
</a>
</g>
</g>
<!-- Lux&#45;&gt;SISpecialUnit -->
<g id="edge19" class="edge">
<title>Lux&#45;&gt;SISpecialUnit</title>
<path fill="none" stroke="#000000" d="M211.5648,-403.4654C199.5836,-407.8775 185.4764,-414.3218 174.5894,-423 127.407,-460.6097 91.0777,-522.5271 72.8188,-557.9272"/>
<polygon fill="none" stroke="#000000" points="69.5367,-556.6622 68.154,-567.1664 75.7854,-559.8171 69.5367,-556.6622"/>
<text text-anchor="middle" x="147.0894" y="-459.8" font-family="Times,serif" font-size="14.00" fill="#000000">isA</text>
</g>
<!-- Watt -->
<g id="node16" class="node">
<title>Watt</title>
<g id="a_node16"><a xlink:href="http://emmo.info/emmo/middle/siunits#EMMO_080052a1_f295_44be_a60f_1326ce13f1ba" xlink:title="Watt">
<ellipse fill="#ffffcc" stroke="#000000" cx="236.3339" cy="-342" rx="28.6953" ry="18"/>
<text text-anchor="middle" x="236.3339" y="-338.3" font-family="Times,serif" font-size="14.00" fill="#000000">Watt</text>
</a>
</g>
</g>
<!-- Watt&#45;&gt;SISpecialUnit -->
<g id="edge14" class="edge">
<title>Watt&#45;&gt;SISpecialUnit</title>
<path fill="none" stroke="#000000" d="M210.2781,-349.8283C198.5523,-354.2056 185.0318,-360.5158 174.5894,-369 113.128,-418.9356 80.2966,-510.7309 66.9969,-556.908"/>
<polygon fill="none" stroke="#000000" points="63.5458,-556.2551 64.2402,-566.8271 70.2902,-558.1295 63.5458,-556.2551"/>
<text text-anchor="middle" x="147.0894" y="-410.8" font-family="Times,serif" font-size="14.00" fill="#000000">isA</text>
</g>
<!-- Pascal -->
<g id="node17" class="node">
<title>Pascal</title>
<g id="a_node17"><a xlink:href="http://emmo.info/emmo/middle/siunits#EMMO_a80dc6f5_b1aa_41a7_a3a8_cd5040da2162" xlink:title="Pascal">
<ellipse fill="#ffffcc" stroke="#000000" cx="236.3339" cy="-288" rx="33.2948" ry="18"/>
<text text-anchor="middle" x="236.3339" y="-284.3" font-family="Times,serif" font-size="14.00" fill="#000000">Pascal</text>
</a>
</g>
</g>
<!-- Pascal&#45;&gt;SISpecialUnit -->
<g id="edge16" class="edge">
<title>Pascal&#45;&gt;SISpecialUnit</title>
<path fill="none" stroke="#000000" d="M207.4944,-296.8916C196.4549,-301.2066 184.2146,-307.1798 174.5894,-315 152.575,-332.8861 150.7026,-341.8487 137.5894,-367 103.8502,-431.7123 78.8296,-514.321 67.1372,-556.8669"/>
<polygon fill="none" stroke="#000000" points="63.687,-556.2182 64.4546,-566.7852 70.4442,-558.0459 63.687,-556.2182"/>
<text text-anchor="middle" x="147.0894" y="-370.8" font-family="Times,serif" font-size="14.00" fill="#000000">isA</text>
</g>
<!-- Weber -->
<g id="node18" class="node">
<title>Weber</title>
<g id="a_node18"><a xlink:href="http://emmo.info/emmo/middle/siunits#EMMO_d7f11b34_a121_4519_87c0_aa754f1c4737" xlink:title="Weber">
<ellipse fill="#ffffcc" stroke="#000000" cx="236.3339" cy="-234" rx="34.394" ry="18"/>
<text text-anchor="middle" x="236.3339" y="-230.3" font-family="Times,serif" font-size="14.00" fill="#000000">Weber</text>
</a>
</g>
</g>
<!-- Weber&#45;&gt;SISpecialUnit -->
<g id="edge8" class="edge">
<title>Weber&#45;&gt;SISpecialUnit</title>
<path fill="none" stroke="#000000" d="M206.5543,-243.262C195.7641,-247.5462 183.9422,-253.4011 174.5894,-261 152.575,-278.8861 149.8886,-287.4408 137.5894,-313 97.1274,-397.0843 73.8754,-506.1725 64.5741,-556.8416"/>
<polygon fill="none" stroke="#000000" points="61.1198,-556.2763 62.7999,-566.7371 68.0099,-557.5117 61.1198,-556.2763"/>
<text text-anchor="middle" x="147.0894" y="-316.8" font-family="Times,serif" font-size="14.00" fill="#000000">isA</text>
</g>
<!-- Hertz -->
<g id="node19" class="node">
<title>Hertz</title>
<g id="a_node19"><a xlink:href="http://emmo.info/emmo/middle/siunits#EMMO_e75f580e_52bf_4dd5_af70_df409cec08fd" xlink:title="Hertz">
<ellipse fill="#ffffcc" stroke="#000000" cx="236.3339" cy="-180" rx="30.5947" ry="18"/>
<text text-anchor="middle" x="236.3339" y="-176.3" font-family="Times,serif" font-size="14.00" fill="#000000">Hertz</text>
</a>
</g>
</g>
<!-- Hertz&#45;&gt;SISpecialUnit -->
<g id="edge1" class="edge">
<title>Hertz&#45;&gt;SISpecialUnit</title>
<path fill="none" stroke="#000000" d="M209.0482,-188.2921C197.6154,-192.6472 184.6686,-198.8109 174.5894,-207 152.575,-224.8861 149.3193,-233.1746 137.5894,-259 90.4567,-362.7709 69.9062,-498.5966 62.853,-556.6726"/>
<polygon fill="none" stroke="#000000" points="59.3418,-556.5638 61.6539,-566.9032 66.2943,-557.3786 59.3418,-556.5638"/>
<text text-anchor="middle" x="147.0894" y="-262.8" font-family="Times,serif" font-size="14.00" fill="#000000">isA</text>
</g>
<!-- Radian -->
<g id="node20" class="node">
<title>Radian</title>
<g id="a_node20"><a xlink:href="http://emmo.info/emmo/middle/siunits#EMMO_a121bb1d_5225_4c78_809b_0268c3012208" xlink:title="Radian">
<ellipse fill="#ffffcc" stroke="#000000" cx="236.3339" cy="-126" rx="35.9954" ry="18"/>
<text text-anchor="middle" x="236.3339" y="-122.3" font-family="Times,serif" font-size="14.00" fill="#000000">Radian</text>
</a>
</g>
</g>
<!-- Radian&#45;&gt;SISpecialUnit -->
<g id="edge15" class="edge">
<title>Radian&#45;&gt;SISpecialUnit</title>
<path fill="none" stroke="#000000" d="M205.9246,-135.5133C195.3059,-139.7742 183.7606,-145.5487 174.5894,-153 152.575,-170.8861 148.9004,-178.9884 137.5894,-205 83.7729,-328.76 66.5403,-491.629 61.5937,-556.5308"/>
<polygon fill="none" stroke="#000000" points="58.0827,-556.5586 60.8538,-566.7845 65.0645,-557.0624 58.0827,-556.5586"/>
<text text-anchor="middle" x="147.0894" y="-208.8" font-family="Times,serif" font-size="14.00" fill="#000000">isA</text>
</g>
<!-- Volt -->
<g id="node21" class="node">
<title>Volt</title>
<g id="a_node21"><a xlink:href="http://emmo.info/emmo/middle/siunits#EMMO_e2207e91_02b0_4a8a_b13e_61d2a2a839f1" xlink:title="Volt">
<ellipse fill="#ffffcc" stroke="#000000" cx="236.3339" cy="-72" rx="27" ry="18"/>
<text text-anchor="middle" x="236.3339" y="-68.3" font-family="Times,serif" font-size="14.00" fill="#000000">Volt</text>
</a>
</g>
</g>
<!-- Volt&#45;&gt;SISpecialUnit -->
<g id="edge7" class="edge">
<title>Volt&#45;&gt;SISpecialUnit</title>
<path fill="none" stroke="#000000" d="M211.4949,-79.3785C199.4965,-83.7693 185.395,-90.2207 174.5894,-99 152.575,-116.8861 148.5801,-124.8514 137.5894,-151 77.0567,-295.0166 63.5967,-485.2304 60.6268,-556.4595"/>
<polygon fill="none" stroke="#000000" points="57.1146,-556.7194 60.2347,-566.8444 64.1096,-556.9836 57.1146,-556.7194"/>
<text text-anchor="middle" x="147.0894" y="-154.8" font-family="Times,serif" font-size="14.00" fill="#000000">isA</text>
</g>
<!-- Gray -->
<g id="node22" class="node">
<title>Gray</title>
<g id="a_node22"><a xlink:href="http://emmo.info/emmo/middle/siunits#EMMO_00199e76_69dc_45b6_a9c6_98cc90cdc0f5" xlink:title="Gray">
<ellipse fill="#ffffcc" stroke="#000000" cx="236.3339" cy="-18" rx="28.6953" ry="18"/>
<text text-anchor="middle" x="236.3339" y="-14.3" font-family="Times,serif" font-size="14.00" fill="#000000">Gray</text>
</a>
</g>
</g>
<!-- Gray&#45;&gt;SISpecialUnit -->
<g id="edge13" class="edge">
<title>Gray&#45;&gt;SISpecialUnit</title>
<path fill="none" stroke="#000000" d="M210.2781,-25.8283C198.5523,-30.2056 185.0318,-36.5158 174.5894,-45 152.575,-62.8861 148.3275,-70.7467 137.5894,-97 102.8292,-181.9844 71.8099,-466.019 62.5769,-556.8273"/>
<polygon fill="none" stroke="#000000" points="59.0805,-556.6167 61.5602,-566.9172 66.0453,-557.3186 59.0805,-556.6167"/>
<text text-anchor="middle" x="147.0894" y="-100.8" font-family="Times,serif" font-size="14.00" fill="#000000">isA</text>
</g>
</g>
</svg>
