<?xml version="1.0" encoding="UTF-8" standalone="no"?>
<!DOCTYPE svg PUBLIC "-//W3C//DTD SVG 1.1//EN"
 "http://www.w3.org/Graphics/SVG/1.1/DTD/svg11.dtd">
<!-- Generated by graphviz version 2.40.1 (20161225.0304)
 -->
<!-- Title: %3 Pages: 1 -->
<svg width="287pt" height="1232pt"
 viewBox="0.00 0.00 287.08 1232.00" xmlns="http://www.w3.org/2000/svg" xmlns:xlink="http://www.w3.org/1999/xlink">
<g id="graph0" class="graph" transform="scale(1 1) rotate(0) translate(4 1228)">
<title>%3</title>
<polygon fill="#ffffff" stroke="transparent" points="-4,4 -4,-1228 283.0784,-1228 283.0784,4 -4,4"/>
<!-- Joule -->
<g id="node1" class="node">
<title>Joule</title>
<g id="a_node1"><a xlink:href="http://emmo.info/emmo/middle/siunits#EMMO_8a70dea4_d6ab_4260_b931_a3e990982416" xlink:title="Joule">
<ellipse fill="#ffffcc" stroke="#000000" cx="217.3339" cy="-1152" rx="29.4969" ry="18"/>
<text text-anchor="middle" x="217.3339" y="-1148.3" font-family="Times,serif" font-size="14.00" fill="#000000">Joule</text>
</a>
</g>
</g>
<!-- SISpecialUnit -->
<g id="node19" class="node">
<title>SISpecialUnit</title>
<g id="a_node19"><a xlink:href="http://emmo.info/emmo/middle/siunits#EMMO_e9ffc696_5228_4ff9_8a60_0f5e05e9931b" xlink:title="SISpecialUnit">
<ellipse fill="#ffffcc" stroke="#000000" stroke-width="2" cx="59.7947" cy="-585" rx="59.5901" ry="18"/>
<text text-anchor="middle" x="59.7947" y="-581.3" font-family="Times,serif" font-size="14.00" fill="#000000">SISpecialUnit</text>
</a>
</g>
</g>
<!-- Joule&#45;&gt;SISpecialUnit -->
<g id="edge22" class="edge">
<title>Joule&#45;&gt;SISpecialUnit</title>
<path fill="none" stroke="#000000" d="M189.3503,-1146.0704C177.2188,-1142.0925 163.9135,-1135.5704 155.5894,-1125 91.7132,-1043.8867 67.3141,-712.6664 61.3477,-613.3067"/>
<polygon fill="none" stroke="#000000" points="64.8308,-612.9142 60.7533,-603.1354 57.8427,-613.3226 64.8308,-612.9142"/>
</g>
<!-- Katal -->
<g id="node2" class="node">
<title>Katal</title>
<g id="a_node2"><a xlink:href="http://emmo.info/emmo/middle/siunits#EMMO_33b67e69_3645_4c73_b100_5ea6759221b4" xlink:title="Katal">
<ellipse fill="#ffffcc" stroke="#000000" cx="217.3339" cy="-1098" rx="29.795" ry="18"/>
<text text-anchor="middle" x="217.3339" y="-1094.3" font-family="Times,serif" font-size="14.00" fill="#000000">Katal</text>
</a>
</g>
</g>
<!-- Katal&#45;&gt;SISpecialUnit -->
<g id="edge5" class="edge">
<title>Katal&#45;&gt;SISpecialUnit</title>
<path fill="none" stroke="#000000" d="M189.1253,-1091.8931C177.0981,-1087.8911 163.9405,-1081.3995 155.5894,-1071 97.772,-999.0016 69.5468,-705.8071 61.9515,-613.1841"/>
<polygon fill="none" stroke="#000000" points="65.4352,-612.8393 61.1458,-603.1516 58.4576,-613.3997 65.4352,-612.8393"/>
</g>
<!-- Lux -->
<g id="node3" class="node">
<title>Lux</title>
<g id="a_node3"><a xlink:href="http://emmo.info/emmo/middle/siunits#EMMO_da1dd4a7_c611_4ad4_bef6_7646f28aa598" xlink:title="Lux">
<ellipse fill="#ffffcc" stroke="#000000" cx="217.3339" cy="-1044" rx="27" ry="18"/>
<text text-anchor="middle" x="217.3339" y="-1040.3" font-family="Times,serif" font-size="14.00" fill="#000000">Lux</text>
</a>
</g>
</g>
<!-- Lux&#45;&gt;SISpecialUnit -->
<g id="edge16" class="edge">
<title>Lux&#45;&gt;SISpecialUnit</title>
<path fill="none" stroke="#000000" d="M191.4348,-1038.5145C178.8688,-1034.5624 164.583,-1027.9327 155.5894,-1017 103.8723,-954.1324 72.1304,-699.276 62.7354,-613.4034"/>
<polygon fill="none" stroke="#000000" points="66.2025,-612.9089 61.6527,-603.3407 59.2426,-613.6578 66.2025,-612.9089"/>
</g>
<!-- Steradian -->
<g id="node4" class="node">
<title>Steradian</title>
<g id="a_node4"><a xlink:href="http://emmo.info/emmo/middle/siunits#EMMO_cf3dd6cc_c5d6_4b3d_aef4_82f3b7a361af" xlink:title="Steradian">
<ellipse fill="#ffffcc" stroke="#000000" cx="217.3339" cy="-990" rx="44.393" ry="18"/>
<text text-anchor="middle" x="217.3339" y="-986.3" font-family="Times,serif" font-size="14.00" fill="#000000">Steradian</text>
</a>
</g>
</g>
<!-- Steradian&#45;&gt;SISpecialUnit -->
<g id="edge15" class="edge">
<title>Steradian&#45;&gt;SISpecialUnit</title>
<path fill="none" stroke="#000000" d="M180.1,-980.1052C170.9895,-976.1089 162.0216,-970.5844 155.5894,-963 109.8998,-909.1263 75.0437,-691.9012 63.7199,-613.4439"/>
<polygon fill="none" stroke="#000000" points="67.154,-612.7325 62.2796,-603.3256 60.2239,-613.7191 67.154,-612.7325"/>
</g>
<!-- Lumen -->
<g id="node5" class="node">
<title>Lumen</title>
<g id="a_node5"><a xlink:href="http://emmo.info/emmo/middle/siunits#EMMO_d7b7fd1e_645a_42cb_8f40_85f0d034d3ae" xlink:title="Lumen">
<ellipse fill="#ffffcc" stroke="#000000" cx="217.3339" cy="-936" rx="36.2938" ry="18"/>
<text text-anchor="middle" x="217.3339" y="-932.3" font-family="Times,serif" font-size="14.00" fill="#000000">Lumen</text>
</a>
</g>
</g>
<!-- Lumen&#45;&gt;SISpecialUnit -->
<g id="edge8" class="edge">
<title>Lumen&#45;&gt;SISpecialUnit</title>
<path fill="none" stroke="#000000" d="M184.7966,-927.79C174.2233,-923.6903 163.253,-917.6848 155.5894,-909 115.8129,-863.9236 78.319,-683.3123 64.9535,-613.1089"/>
<polygon fill="none" stroke="#000000" points="68.3785,-612.3833 63.0889,-603.2034 61.4993,-613.6783 68.3785,-612.3833"/>
</g>
<!-- Henry -->
<g id="node6" class="node">
<title>Henry</title>
<g id="a_node6"><a xlink:href="http://emmo.info/emmo/middle/siunits#EMMO_fab003c8_f7a6_4346_9988_7161325ed7a3" xlink:title="Henry">
<ellipse fill="#ffffcc" stroke="#000000" cx="217.3339" cy="-882" rx="32.4942" ry="18"/>
<text text-anchor="middle" x="217.3339" y="-878.3" font-family="Times,serif" font-size="14.00" fill="#000000">Henry</text>
</a>
</g>
</g>
<!-- Henry&#45;&gt;SISpecialUnit -->
<g id="edge17" class="edge">
<title>Henry&#45;&gt;SISpecialUnit</title>
<path fill="none" stroke="#000000" d="M187.6021,-874.5185C176.3065,-870.3818 164.1203,-864.1618 155.5894,-855 90.2674,-784.847 69.0063,-667.2991 62.4867,-613.475"/>
<polygon fill="none" stroke="#000000" points="65.9373,-612.8394 61.3396,-603.2943 58.9814,-613.6233 65.9373,-612.8394"/>
</g>
<!-- Coulomb -->
<g id="node7" class="node">
<title>Coulomb</title>
<g id="a_node7"><a xlink:href="http://emmo.info/emmo/middle/siunits#EMMO_696ed548_9477_45ea_993c_6a8f5271914a" xlink:title="Coulomb">
<ellipse fill="#ffffcc" stroke="#000000" cx="217.3339" cy="-828" rx="44.393" ry="18"/>
<text text-anchor="middle" x="217.3339" y="-824.3" font-family="Times,serif" font-size="14.00" fill="#000000">Coulomb</text>
</a>
</g>
</g>
<!-- Coulomb&#45;&gt;SISpecialUnit -->
<g id="edge3" class="edge">
<title>Coulomb&#45;&gt;SISpecialUnit</title>
<path fill="none" stroke="#000000" d="M181.2487,-817.4817C172.0312,-813.4716 162.7225,-808.0962 155.5894,-801 101.7412,-747.4311 75.6746,-658.3586 65.3714,-613.1624"/>
<polygon fill="none" stroke="#000000" points="68.7443,-612.2022 63.1911,-603.1793 61.9054,-613.6958 68.7443,-612.2022"/>
</g>
<!-- Becquerel -->
<g id="node8" class="node">
<title>Becquerel</title>
<g id="a_node8"><a xlink:href="http://emmo.info/emmo/middle/siunits#EMMO_b71e4ba5_8f73_4199_8c96_7ea7f94d9e2a" xlink:title="Becquerel">
<ellipse fill="#ffffcc" stroke="#000000" cx="217.3339" cy="-774" rx="46.2923" ry="18"/>
<text text-anchor="middle" x="217.3339" y="-770.3" font-family="Times,serif" font-size="14.00" fill="#000000">Becquerel</text>
</a>
</g>
</g>
<!-- Becquerel&#45;&gt;SISpecialUnit -->
<g id="edge14" class="edge">
<title>Becquerel&#45;&gt;SISpecialUnit</title>
<path fill="none" stroke="#000000" d="M181.1364,-762.6341C172.1261,-758.6594 162.9486,-753.5134 155.5894,-747 113.0553,-709.3544 84.1145,-648.1339 69.9191,-612.7155"/>
<polygon fill="none" stroke="#000000" points="73.0372,-611.0772 66.1474,-603.0285 66.5142,-613.617 73.0372,-611.0772"/>
</g>
<!-- Siemens -->
<g id="node9" class="node">
<title>Siemens</title>
<g id="a_node9"><a xlink:href="http://emmo.info/emmo/middle/siunits#EMMO_f2523820_04a6_44ab_bb67_8237dda2b0c2" xlink:title="Siemens">
<ellipse fill="#ffffcc" stroke="#000000" cx="217.3339" cy="-720" rx="40.8928" ry="18"/>
<text text-anchor="middle" x="217.3339" y="-716.3" font-family="Times,serif" font-size="14.00" fill="#000000">Siemens</text>
</a>
</g>
</g>
<!-- Siemens&#45;&gt;SISpecialUnit -->
<g id="edge21" class="edge">
<title>Siemens&#45;&gt;SISpecialUnit</title>
<path fill="none" stroke="#000000" d="M184.8177,-708.8836C174.9443,-704.7121 164.3894,-699.399 155.5894,-693 123.996,-670.0265 95.3643,-634.9945 77.7986,-611.1026"/>
<polygon fill="none" stroke="#000000" points="80.532,-608.9092 71.8427,-602.8473 74.8552,-613.0049 80.532,-608.9092"/>
</g>
<!-- Newton -->
<g id="node10" class="node">
<title>Newton</title>
<g id="a_node10"><a xlink:href="http://emmo.info/emmo/middle/siunits#EMMO_a979c531_f9fa_4a6e_93c1.0.0-alpha960241ca6" xlink:title="Newton">
<ellipse fill="#ffffcc" stroke="#000000" cx="217.3339" cy="-666" rx="38.1938" ry="18"/>
<text text-anchor="middle" x="217.3339" y="-662.3" font-family="Times,serif" font-size="14.00" fill="#000000">Newton</text>
</a>
</g>
</g>
<!-- Newton&#45;&gt;SISpecialUnit -->
<g id="edge10" class="edge">
<title>Newton&#45;&gt;SISpecialUnit</title>
<path fill="none" stroke="#000000" d="M188.4671,-654.0935C178.0044,-649.5907 166.1631,-644.2752 155.5894,-639 135.3683,-628.9117 113.3668,-616.6079 95.5543,-606.2942"/>
<polygon fill="none" stroke="#000000" points="97.0548,-603.1177 86.653,-601.1045 93.5291,-609.1649 97.0548,-603.1177"/>
</g>
<!-- Farad -->
<g id="node11" class="node">
<title>Farad</title>
<g id="a_node11"><a xlink:href="http://emmo.info/emmo/middle/siunits#EMMO_a9201b2f_e6de_442a_b3a6_d291.0.0-alphaa582" xlink:title="Farad">
<ellipse fill="#ffffcc" stroke="#000000" cx="217.3339" cy="-612" rx="30.5947" ry="18"/>
<text text-anchor="middle" x="217.3339" y="-608.3" font-family="Times,serif" font-size="14.00" fill="#000000">Farad</text>
</a>
</g>
</g>
<!-- Farad&#45;&gt;SISpecialUnit -->
<g id="edge12" class="edge">
<title>Farad&#45;&gt;SISpecialUnit</title>
<path fill="none" stroke="#000000" d="M187.702,-606.9215C169.1456,-603.7412 144.5316,-599.5227 121.8545,-595.6362"/>
<polygon fill="none" stroke="#000000" points="122.3877,-592.1766 111.9402,-593.937 121.2052,-599.076 122.3877,-592.1766"/>
</g>
<!-- Watt -->
<g id="node12" class="node">
<title>Watt</title>
<g id="a_node12"><a xlink:href="http://emmo.info/emmo/middle/siunits#EMMO_080052a1_f295_44be_a60f_1326ce13f1ba" xlink:title="Watt">
<ellipse fill="#ffffcc" stroke="#000000" cx="217.3339" cy="-558" rx="28.6953" ry="18"/>
<text text-anchor="middle" x="217.3339" y="-554.3" font-family="Times,serif" font-size="14.00" fill="#000000">Watt</text>
</a>
</g>
</g>
<!-- Watt&#45;&gt;SISpecialUnit -->
<g id="edge18" class="edge">
<title>Watt&#45;&gt;SISpecialUnit</title>
<path fill="none" stroke="#000000" d="M189.5317,-562.7649C170.7499,-565.9838 145.1932,-570.3639 121.7277,-574.3856"/>
<polygon fill="none" stroke="#000000" points="121.09,-570.9437 111.8249,-576.0828 122.2725,-577.8431 121.09,-570.9437"/>
</g>
<!-- Weber -->
<g id="node13" class="node">
<title>Weber</title>
<g id="a_node13"><a xlink:href="http://emmo.info/emmo/middle/siunits#EMMO_d7f11b34_a121_4519_87c0_aa754f1c4737" xlink:title="Weber">
<ellipse fill="#ffffcc" stroke="#000000" cx="217.3339" cy="-504" rx="34.394" ry="18"/>
<text text-anchor="middle" x="217.3339" y="-500.3" font-family="Times,serif" font-size="14.00" fill="#000000">Weber</text>
</a>
</g>
</g>
<!-- Weber&#45;&gt;SISpecialUnit -->
<g id="edge20" class="edge">
<title>Weber&#45;&gt;SISpecialUnit</title>
<path fill="none" stroke="#000000" d="M190.0105,-515.2439C179.1799,-519.8829 166.6866,-525.4636 155.5894,-531 135.3683,-541.0883 113.3668,-553.3921 95.5543,-563.7058"/>
<polygon fill="none" stroke="#000000" points="93.5291,-560.8351 86.653,-568.8955 97.0548,-566.8823 93.5291,-560.8351"/>
</g>
<!-- Ohm -->
<g id="node14" class="node">
<title>Ohm</title>
<g id="a_node14"><a xlink:href="http://emmo.info/emmo/middle/siunits#EMMO_59c10c5c_47bd_4348_ba39_38836607dfa1" xlink:title="Ohm">
<ellipse fill="#ffffcc" stroke="#000000" cx="217.3339" cy="-450" rx="28.6953" ry="18"/>
<text text-anchor="middle" x="217.3339" y="-446.3" font-family="Times,serif" font-size="14.00" fill="#000000">Ohm</text>
</a>
</g>
</g>
<!-- Ohm&#45;&gt;SISpecialUnit -->
<g id="edge9" class="edge">
<title>Ohm&#45;&gt;SISpecialUnit</title>
<path fill="none" stroke="#000000" d="M191.6779,-458.3483C180.0362,-462.835 166.4712,-469.0872 155.5894,-477 123.996,-499.9735 95.3643,-535.0055 77.7986,-558.8974"/>
<polygon fill="none" stroke="#000000" points="74.8552,-556.9951 71.8427,-567.1527 80.532,-561.0908 74.8552,-556.9951"/>
</g>
<!-- Gray -->
<g id="node15" class="node">
<title>Gray</title>
<g id="a_node15"><a xlink:href="http://emmo.info/emmo/middle/siunits#EMMO_00199e76_69dc_45b6_a9c6_98cc90cdc0f5" xlink:title="Gray">
<ellipse fill="#ffffcc" stroke="#000000" cx="217.3339" cy="-396" rx="28.6953" ry="18"/>
<text text-anchor="middle" x="217.3339" y="-392.3" font-family="Times,serif" font-size="14.00" fill="#000000">Gray</text>
</a>
</g>
</g>
<!-- Gray&#45;&gt;SISpecialUnit -->
<g id="edge11" class="edge">
<title>Gray&#45;&gt;SISpecialUnit</title>
<path fill="none" stroke="#000000" d="M190.9438,-403.4342C179.1477,-407.7286 165.6645,-414.0828 155.5894,-423 113.0553,-460.6456 84.1145,-521.8661 69.9191,-557.2845"/>
<polygon fill="none" stroke="#000000" points="66.5142,-556.383 66.1474,-566.9715 73.0372,-558.9228 66.5142,-556.383"/>
</g>
<!-- Hertz -->
<g id="node16" class="node">
<title>Hertz</title>
<g id="a_node16"><a xlink:href="http://emmo.info/emmo/middle/siunits#EMMO_e75f580e_52bf_4dd5_af70_df409cec08fd" xlink:title="Hertz">
<ellipse fill="#ffffcc" stroke="#000000" cx="217.3339" cy="-342" rx="30.5947" ry="18"/>
<text text-anchor="middle" x="217.3339" y="-338.3" font-family="Times,serif" font-size="14.00" fill="#000000">Hertz</text>
</a>
</g>
</g>
<!-- Hertz&#45;&gt;SISpecialUnit -->
<g id="edge7" class="edge">
<title>Hertz&#45;&gt;SISpecialUnit</title>
<path fill="none" stroke="#000000" d="M189.2085,-349.3586C177.6271,-353.5485 164.7961,-359.841 155.5894,-369 101.7412,-422.5689 75.6746,-511.6414 65.3714,-556.8376"/>
<polygon fill="none" stroke="#000000" points="61.9054,-556.3042 63.1911,-566.8207 68.7443,-557.7978 61.9054,-556.3042"/>
</g>
<!-- Radian -->
<g id="node17" class="node">
<title>Radian</title>
<g id="a_node17"><a xlink:href="http://emmo.info/emmo/middle/siunits#EMMO_a121bb1d_5225_4c78_809b_0268c3012208" xlink:title="Radian">
<ellipse fill="#ffffcc" stroke="#000000" cx="217.3339" cy="-288" rx="35.9954" ry="18"/>
<text text-anchor="middle" x="217.3339" y="-284.3" font-family="Times,serif" font-size="14.00" fill="#000000">Radian</text>
</a>
</g>
</g>
<!-- Radian&#45;&gt;SISpecialUnit -->
<g id="edge19" class="edge">
<title>Radian&#45;&gt;SISpecialUnit</title>
<path fill="none" stroke="#000000" d="M185.3751,-296.3203C174.7277,-300.4446 163.5622,-306.4375 155.5894,-315 90.2674,-385.153 69.0063,-502.7009 62.4867,-556.525"/>
<polygon fill="none" stroke="#000000" points="58.9814,-556.3767 61.3396,-566.7057 65.9373,-557.1606 58.9814,-556.3767"/>
</g>
<!-- Pascal -->
<g id="node18" class="node">
<title>Pascal</title>
<g id="a_node18"><a xlink:href="http://emmo.info/emmo/middle/siunits#EMMO_a80dc6f5_b1aa_41a7_a3a8_cd5040da2162" xlink:title="Pascal">
<ellipse fill="#ffffcc" stroke="#000000" cx="217.3339" cy="-234" rx="33.2948" ry="18"/>
<text text-anchor="middle" x="217.3339" y="-230.3" font-family="Times,serif" font-size="14.00" fill="#000000">Pascal</text>
</a>
</g>
</g>
<!-- Pascal&#45;&gt;SISpecialUnit -->
<g id="edge1" class="edge">
<title>Pascal&#45;&gt;SISpecialUnit</title>
<path fill="none" stroke="#000000" d="M187.0322,-241.3687C175.7912,-245.4738 163.7949,-251.7011 155.5894,-261 115.8129,-306.0764 78.319,-486.6877 64.9535,-556.8911"/>
<polygon fill="none" stroke="#000000" points="61.4993,-556.3217 63.0889,-566.7966 68.3785,-557.6167 61.4993,-556.3217"/>
</g>
<!-- DegreeCelsius -->
<g id="node20" class="node">
<title>DegreeCelsius</title>
<g id="a_node20"><a xlink:href="http://emmo.info/emmo/middle/siunits#EMMO_b20be325_8bfd_4237_bee7_201ab0fd9c75" xlink:title="DegreeCelsius">
<ellipse fill="#ffffcc" stroke="#000000" cx="217.3339" cy="-180" rx="61.99" ry="18"/>
<text text-anchor="middle" x="217.3339" y="-176.3" font-family="Times,serif" font-size="14.00" fill="#000000">DegreeCelsius</text>
</a>
</g>
</g>
<!-- DegreeCelsius&#45;&gt;SISpecialUnit -->
<g id="edge2" class="edge">
<title>DegreeCelsius&#45;&gt;SISpecialUnit</title>
<path fill="none" stroke="#000000" d="M173.7239,-192.9765C166.9097,-196.6049 160.5082,-201.2002 155.5894,-207 109.8998,-260.8737 75.0437,-478.0988 63.7199,-556.5561"/>
<polygon fill="none" stroke="#000000" points="60.2239,-556.2809 62.2796,-566.6744 67.154,-557.2675 60.2239,-556.2809"/>
</g>
<!-- Volt -->
<g id="node21" class="node">
<title>Volt</title>
<g id="a_node21"><a xlink:href="http://emmo.info/emmo/middle/siunits#EMMO_e2207e91_02b0_4a8a_b13e_61d2a2a839f1" xlink:title="Volt">
<ellipse fill="#ffffcc" stroke="#000000" cx="217.3339" cy="-126" rx="27" ry="18"/>
<text text-anchor="middle" x="217.3339" y="-122.3" font-family="Times,serif" font-size="14.00" fill="#000000">Volt</text>
</a>
</g>
</g>
<!-- Volt&#45;&gt;SISpecialUnit -->
<g id="edge4" class="edge">
<title>Volt&#45;&gt;SISpecialUnit</title>
<path fill="none" stroke="#000000" d="M191.4348,-131.4855C178.8688,-135.4376 164.583,-142.0673 155.5894,-153 103.8723,-215.8676 72.1304,-470.724 62.7354,-556.5966"/>
<polygon fill="none" stroke="#000000" points="59.2426,-556.3422 61.6527,-566.6593 66.2025,-557.0911 59.2426,-556.3422"/>
</g>
<!-- Tesla -->
<g id="node22" class="node">
<title>Tesla</title>
<g id="a_node22"><a xlink:href="http://emmo.info/emmo/middle/siunits#EMMO_acb50123_87a2_4753_b36c_f87114ad4de2" xlink:title="Tesla">
<ellipse fill="#ffffcc" stroke="#000000" cx="217.3339" cy="-72" rx="29.795" ry="18"/>
<text text-anchor="middle" x="217.3339" y="-68.3" font-family="Times,serif" font-size="14.00" fill="#000000">Tesla</text>
</a>
</g>
</g>
<!-- Tesla&#45;&gt;SISpecialUnit -->
<g id="edge13" class="edge">
<title>Tesla&#45;&gt;SISpecialUnit</title>
<path fill="none" stroke="#000000" d="M189.1253,-78.1069C177.0981,-82.1089 163.9405,-88.6005 155.5894,-99 97.772,-170.9984 69.5468,-464.1929 61.9515,-556.8159"/>
<polygon fill="none" stroke="#000000" points="58.4576,-556.6003 61.1458,-566.8484 65.4352,-557.1607 58.4576,-556.6003"/>
</g>
<!-- Sievert -->
<g id="node23" class="node">
<title>Sievert</title>
<g id="a_node23"><a xlink:href="http://emmo.info/emmo/middle/siunits#EMMO_dc232f53_8ed8_4ddd_9f41_cc057985eadb" xlink:title="Sievert">
<ellipse fill="#ffffcc" stroke="#000000" cx="217.3339" cy="-18" rx="35.9954" ry="18"/>
<text text-anchor="middle" x="217.3339" y="-14.3" font-family="Times,serif" font-size="14.00" fill="#000000">Sievert</text>
</a>
</g>
</g>
<!-- Sievert&#45;&gt;SISpecialUnit -->
<g id="edge6" class="edge">
<title>Sievert&#45;&gt;SISpecialUnit</title>
<path fill="none" stroke="#000000" d="M184.5569,-25.6194C173.8326,-29.6778 162.8278,-35.8083 155.5894,-45 91.7132,-126.1133 67.3141,-457.3336 61.3477,-556.6933"/>
<polygon fill="none" stroke="#000000" points="57.8427,-556.6774 60.7533,-566.8646 64.8308,-557.0858 57.8427,-556.6774"/>
</g>
<!-- key1 -->
<g id="node24" class="node">
<title>key1</title>
<text text-anchor="start" x="50.7947" y="-1201.8" font-family="Times,serif" font-size="14.00" fill="#000000">isA</text>
</g>
<!-- key2 -->
<g id="node25" class="node">
<title>key2</title>
<text text-anchor="start" x="215.3339" y="-1201.8" font-family="Times,serif" font-size="14.00" fill="#000000"> </text>
</g>
<!-- key2&#45;&gt;key1 -->
<g id="edge23" class="edge">
<title>key2:w&#45;&gt;key1:e</title>
<path fill="none" stroke="#000000" d="M213.3339,-1205C153.9906,-1205 136.6339,-1205 82.0469,-1205"/>
<polygon fill="none" stroke="#000000" points="81.7947,-1201.5001 71.7947,-1205 81.7947,-1208.5001 81.7947,-1201.5001"/>
</g>
</g>
</svg>
