<?xml version="1.0" encoding="UTF-8" standalone="no"?>
<!DOCTYPE svg PUBLIC "-//W3C//DTD SVG 1.1//EN"
 "http://www.w3.org/Graphics/SVG/1.1/DTD/svg11.dtd">
<!-- Generated by graphviz version 2.40.1 (20161225.0304)
 -->
<!-- Title: %3 Pages: 1 -->
<svg width="396pt" height="198pt"
 viewBox="0.00 0.00 395.65 198.00" xmlns="http://www.w3.org/2000/svg" xmlns:xlink="http://www.w3.org/1999/xlink">
<g id="graph0" class="graph" transform="scale(1 1) rotate(0) translate(4 194)">
<title>%3</title>
<polygon fill="#ffffff" stroke="transparent" points="-4,4 -4,-194 391.6465,-194 391.6465,4 -4,4"/>
<!-- Subatomic -->
<g id="node1" class="node">
<title>Subatomic</title>
<g id="a_node1"><a xlink:href="http://emmo.info/emmo/middle/materials#EMMO_7d66bde4_b68d_41cc_b5fc_6fd98c5e2ff0" xlink:title="Subatomic">
<ellipse fill="#ffffcc" stroke="#000000" stroke-width="2" cx="183.6465" cy="-172" rx="48.9926" ry="18"/>
<text text-anchor="middle" x="183.6465" y="-168.3" font-family="Times,serif" font-size="14.00" fill="#000000">Subatomic</text>
</a>
</g>
</g>
<!-- Nucleon -->
<g id="node2" class="node">
<title>Nucleon</title>
<g id="a_node2"><a xlink:href="http://emmo.info/emmo/middle/materials#EMMO_50781fd9_a9e4_46ad_b7be_4500371d188d" xlink:title="Nucleon">
<ellipse fill="#ffffcc" stroke="#000000" cx="85.6465" cy="-100" rx="40.0939" ry="18"/>
<text text-anchor="middle" x="85.6465" y="-96.3" font-family="Times,serif" font-size="14.00" fill="#000000">Nucleon</text>
</a>
</g>
</g>
<!-- Nucleon&#45;&gt;Subatomic -->
<g id="edge6" class="edge">
<title>Nucleon&#45;&gt;Subatomic</title>
<path fill="none" stroke="#000000" d="M106.911,-115.6229C120.4638,-125.5801 138.2375,-138.6383 153.2661,-149.6797"/>
<polygon fill="none" stroke="#000000" points="151.6138,-152.8088 161.7449,-155.909 155.7583,-147.1676 151.6138,-152.8088"/>
</g>
<!-- Neutron -->
<g id="node3" class="node">
<title>Neutron</title>
<g id="a_node3"><a xlink:href="http://emmo.info/emmo/middle/materials#EMMO_df808271_df91_4f27_ba59_fa423c51896c" xlink:title="Neutron">
<ellipse fill="#ffffcc" stroke="#000000" cx="39.6465" cy="-23" rx="39.7935" ry="18"/>
<text text-anchor="middle" x="39.6465" y="-19.3" font-family="Times,serif" font-size="14.00" fill="#000000">Neutron</text>
</a>
</g>
</g>
<!-- Neutron&#45;&gt;Nucleon -->
<g id="edge5" class="edge">
<title>Neutron&#45;&gt;Nucleon</title>
<path fill="none" stroke="#000000" d="M50.0846,-40.4725C55.966,-50.3174 63.4282,-62.8085 69.9967,-73.8036"/>
<polygon fill="none" stroke="#000000" points="67.1164,-75.8069 75.2497,-82.5967 73.1257,-72.2169 67.1164,-75.8069"/>
</g>
<!-- ElectronCloud -->
<g id="node4" class="node">
<title>ElectronCloud</title>
<g id="a_node4"><a xlink:href="http://emmo.info/emmo/middle/materials#EMMO_1067b97a_84f8_4d22_8ace_b842b8ce355c" xlink:title="ElectronCloud">
<ellipse fill="#ffffcc" stroke="#000000" cx="302.6465" cy="-100" rx="61.99" ry="18"/>
<text text-anchor="middle" x="302.6465" y="-96.3" font-family="Times,serif" font-size="14.00" fill="#000000">ElectronCloud</text>
</a>
</g>
</g>
<!-- ElectronCloud&#45;&gt;Subatomic -->
<g id="edge1" class="edge">
<title>ElectronCloud&#45;&gt;Subatomic</title>
<path fill="none" stroke="#000000" d="M275.6435,-116.3379C258.5536,-126.6781 236.3039,-140.14 217.9668,-151.2348"/>
<polygon fill="none" stroke="#000000" points="216.0629,-148.2959 209.3189,-156.4671 219.6866,-154.285 216.0629,-148.2959"/>
</g>
<!-- Proton -->
<g id="node5" class="node">
<title>Proton</title>
<g id="a_node5"><a xlink:href="http://emmo.info/emmo/middle/materials#EMMO_8f87e700_99a8_4427_8ffb_e493de05c217" xlink:title="Proton">
<ellipse fill="#ffffcc" stroke="#000000" cx="131.6465" cy="-23" rx="34.394" ry="18"/>
<text text-anchor="middle" x="131.6465" y="-19.3" font-family="Times,serif" font-size="14.00" fill="#000000">Proton</text>
</a>
</g>
</g>
<!-- Proton&#45;&gt;Nucleon -->
<g id="edge2" class="edge">
<title>Proton&#45;&gt;Nucleon</title>
<path fill="none" stroke="#000000" d="M121.2084,-40.4725C115.327,-50.3174 107.8648,-62.8085 101.2963,-73.8036"/>
<polygon fill="none" stroke="#000000" points="98.1672,-72.2169 96.0433,-82.5967 104.1766,-75.8069 98.1672,-72.2169"/>
</g>
<!-- Nucleus -->
<g id="node6" class="node">
<title>Nucleus</title>
<g id="a_node6"><a xlink:href="http://emmo.info/emmo/middle/materials#EMMO_f835f4d4_c665_403d_ab25_dca5cc74be52" xlink:title="Nucleus">
<ellipse fill="#ffffcc" stroke="#000000" cx="183.6465" cy="-100" rx="39.7935" ry="18"/>
<text text-anchor="middle" x="183.6465" y="-96.3" font-family="Times,serif" font-size="14.00" fill="#000000">Nucleus</text>
</a>
</g>
</g>
<!-- Nucleus&#45;&gt;Subatomic -->
<g id="edge3" class="edge">
<title>Nucleus&#45;&gt;Subatomic</title>
<path fill="none" stroke="#000000" d="M183.6465,-118.1686C183.6465,-125.869 183.6465,-135.0257 183.6465,-143.5834"/>
<polygon fill="none" stroke="#000000" points="180.1466,-143.5867 183.6465,-153.5867 187.1466,-143.5868 180.1466,-143.5867"/>
</g>
<!-- Nucleus&#45;&gt;Nucleon -->
<g id="edge4" class="edge">
<title>Nucleus&#45;&gt;Nucleon</title>
<path fill="none" stroke="#006400" d="M143.7203,-100C141.26,-100 138.7997,-100 136.3393,-100"/>
<polygon fill="#006400" stroke="#006400" points="136.2246,-96.5001 126.2246,-100 136.2246,-103.5001 136.2246,-96.5001"/>
</g>
<!-- key1 -->
<g id="node7" class="node">
<title>key1</title>
<text text-anchor="start" x="286.6465" y="-28.8" font-family="Times,serif" font-size="14.00" fill="#000000">isA</text>
<text text-anchor="start" x="193.6465" y="-9.8" font-family="Times,serif" font-size="14.00" fill="#000000">hasSpatialDirectPart</text>
</g>
<!-- key2 -->
<g id="node8" class="node">
<title>key2</title>
<text text-anchor="start" x="358.6465" y="-28.8" font-family="Times,serif" font-size="14.00" fill="#000000"> </text>
<text text-anchor="start" x="358.6465" y="-9.8" font-family="Times,serif" font-size="14.00" fill="#000000"> </text>
</g>
<!-- key1&#45;&gt;key2 -->
<g id="edge7" class="edge">
<title>key1:e&#45;&gt;key2:w</title>
<path fill="none" stroke="#006400" d="M307.6465,-13C325.5111,-13 332.3847,-13 346.2995,-13"/>
<polygon fill="#006400" stroke="#006400" points="346.6465,-16.5001 356.6465,-13 346.6464,-9.5001 346.6465,-16.5001"/>
</g>
<!-- key1&#45;&gt;key2 -->
<g id="edge8" class="edge">
<title>key1:e&#45;&gt;key2:w</title>
<path fill="none" stroke="#000000" d="M307.6465,-33C325.5111,-33 332.3847,-33 346.2995,-33"/>
<polygon fill="none" stroke="#000000" points="346.6465,-36.5001 356.6465,-33 346.6464,-29.5001 346.6465,-36.5001"/>
</g>
</g>
</svg>
