<?xml version="1.0" encoding="UTF-8" standalone="no"?>
<!DOCTYPE svg PUBLIC "-//W3C//DTD SVG 1.1//EN"
 "http://www.w3.org/Graphics/SVG/1.1/DTD/svg11.dtd">
<!-- Generated by graphviz version 2.40.1 (20161225.0304)
 -->
<!-- Title: %3 Pages: 1 -->
<svg width="511pt" height="218pt"
 viewBox="0.00 0.00 511.19 218.00" xmlns="http://www.w3.org/2000/svg" xmlns:xlink="http://www.w3.org/1999/xlink">
<g id="graph0" class="graph" transform="scale(1 1) rotate(0) translate(4 214)">
<title>%3</title>
<polygon fill="#ffffff" stroke="transparent" points="-4,4 -4,-214 507.1915,-214 507.1915,4 -4,4"/>
<!-- Nucleon -->
<g id="node1" class="node">
<title>Nucleon</title>
<g id="a_node1"><a xlink:href="http://emmo.info/emmo/middle/materials#EMMO_50781fd9_a9e4_46ad_b7be_4500371d188d" xlink:title="Nucleon">
<ellipse fill="#ffffcc" stroke="#000000" cx="422.7445" cy="-105" rx="40.0939" ry="18"/>
<text text-anchor="middle" x="422.7445" y="-101.3" font-family="Times,serif" font-size="14.00" fill="#000000">Nucleon</text>
</a>
</g>
</g>
<!-- Subatomic -->
<g id="node4" class="node">
<title>Subatomic</title>
<g id="a_node4"><a xlink:href="http://emmo.info/emmo/middle/materials#EMMO_7d66bde4_b68d_41cc_b5fc_6fd98c5e2ff0" xlink:title="Subatomic">
<ellipse fill="#ffffcc" stroke="#000000" stroke-width="2" cx="180.7445" cy="-192" rx="48.9926" ry="18"/>
<text text-anchor="middle" x="180.7445" y="-188.3" font-family="Times,serif" font-size="14.00" fill="#000000">Subatomic</text>
</a>
</g>
</g>
<!-- Nucleon&#45;&gt;Subatomic -->
<g id="edge6" class="edge">
<title>Nucleon&#45;&gt;Subatomic</title>
<path fill="none" stroke="#000000" d="M391.1072,-116.3737C348.7962,-131.5847 273.5473,-158.637 225.4547,-175.9265"/>
<polygon fill="none" stroke="#000000" points="224.1475,-172.6771 215.9213,-179.3538 226.5157,-179.2643 224.1475,-172.6771"/>
<text text-anchor="middle" x="326.2445" y="-144.8" font-family="Times,serif" font-size="14.00" fill="#000000">isA</text>
</g>
<!-- ElectronCloud -->
<g id="node2" class="node">
<title>ElectronCloud</title>
<g id="a_node2"><a xlink:href="http://emmo.info/emmo/middle/materials#EMMO_1067b97a_84f8_4d22_8ace_b842b8ce355c" xlink:title="ElectronCloud">
<ellipse fill="#ffffcc" stroke="#000000" cx="61.7445" cy="-105" rx="61.99" ry="18"/>
<text text-anchor="middle" x="61.7445" y="-101.3" font-family="Times,serif" font-size="14.00" fill="#000000">ElectronCloud</text>
</a>
</g>
</g>
<!-- ElectronCloud&#45;&gt;Subatomic -->
<g id="edge2" class="edge">
<title>ElectronCloud&#45;&gt;Subatomic</title>
<path fill="none" stroke="#000000" d="M84.6889,-121.7745C103.4468,-135.4883 130.1188,-154.988 150.5994,-169.9611"/>
<polygon fill="none" stroke="#000000" points="148.5368,-172.7888 158.6752,-175.8653 152.6682,-167.1379 148.5368,-172.7888"/>
<text text-anchor="middle" x="138.2445" y="-144.8" font-family="Times,serif" font-size="14.00" fill="#000000">isA</text>
</g>
<!-- Neutron -->
<g id="node3" class="node">
<title>Neutron</title>
<g id="a_node3"><a xlink:href="http://emmo.info/emmo/middle/materials#EMMO_df808271_df91_4f27_ba59_fa423c51896c" xlink:title="Neutron">
<ellipse fill="#ffffcc" stroke="#000000" cx="376.7445" cy="-18" rx="39.7935" ry="18"/>
<text text-anchor="middle" x="376.7445" y="-14.3" font-family="Times,serif" font-size="14.00" fill="#000000">Neutron</text>
</a>
</g>
</g>
<!-- Neutron&#45;&gt;Nucleon -->
<g id="edge5" class="edge">
<title>Neutron&#45;&gt;Nucleon</title>
<path fill="none" stroke="#000000" d="M386.0533,-35.6057C392.5377,-47.8697 401.3048,-64.4511 408.6431,-78.33"/>
<polygon fill="none" stroke="#000000" points="405.6812,-80.2161 413.4496,-87.4204 411.8694,-76.9441 405.6812,-80.2161"/>
<text text-anchor="middle" x="412.2445" y="-57.8" font-family="Times,serif" font-size="14.00" fill="#000000">isA</text>
</g>
<!-- Proton -->
<g id="node5" class="node">
<title>Proton</title>
<g id="a_node5"><a xlink:href="http://emmo.info/emmo/middle/materials#EMMO_8f87e700_99a8_4427_8ffb_e493de05c217" xlink:title="Proton">
<ellipse fill="#ffffcc" stroke="#000000" cx="468.7445" cy="-18" rx="34.394" ry="18"/>
<text text-anchor="middle" x="468.7445" y="-14.3" font-family="Times,serif" font-size="14.00" fill="#000000">Proton</text>
</a>
</g>
</g>
<!-- Proton&#45;&gt;Nucleon -->
<g id="edge1" class="edge">
<title>Proton&#45;&gt;Nucleon</title>
<path fill="none" stroke="#000000" d="M459.4357,-35.6057C452.9513,-47.8697 444.1842,-64.4511 436.8459,-78.33"/>
<polygon fill="none" stroke="#000000" points="433.6196,-76.9441 432.0395,-87.4204 439.8078,-80.2161 433.6196,-76.9441"/>
<text text-anchor="middle" x="457.2445" y="-57.8" font-family="Times,serif" font-size="14.00" fill="#000000">isA</text>
</g>
<!-- Nucleus -->
<g id="node6" class="node">
<title>Nucleus</title>
<g id="a_node6"><a xlink:href="http://emmo.info/emmo/middle/materials#EMMO_f835f4d4_c665_403d_ab25_dca5cc74be52" xlink:title="Nucleus">
<ellipse fill="#ffffcc" stroke="#000000" cx="180.7445" cy="-105" rx="39.7935" ry="18"/>
<text text-anchor="middle" x="180.7445" y="-101.3" font-family="Times,serif" font-size="14.00" fill="#000000">Nucleus</text>
</a>
</g>
</g>
<!-- Nucleus&#45;&gt;Nucleon -->
<g id="edge4" class="edge">
<title>Nucleus&#45;&gt;Nucleon</title>
<path fill="none" stroke="#006400" d="M220.4349,-105C261.8605,-105 326.9512,-105 372.0663,-105"/>
<polygon fill="#006400" stroke="#006400" points="372.2248,-108.5001 382.2248,-105 372.2247,-101.5001 372.2248,-108.5001"/>
<text text-anchor="middle" x="301.4196" y="-90.8" font-family="Times,serif" font-size="14.00" fill="#000000">hasSpatialDirectPart some</text>
</g>
<!-- Nucleus&#45;&gt;Subatomic -->
<g id="edge3" class="edge">
<title>Nucleus&#45;&gt;Subatomic</title>
<path fill="none" stroke="#000000" d="M180.7445,-123.0265C180.7445,-134.8082 180.7445,-150.4393 180.7445,-163.8419"/>
<polygon fill="none" stroke="#000000" points="177.2446,-163.9966 180.7445,-173.9966 184.2446,-163.9967 177.2446,-163.9966"/>
<text text-anchor="middle" x="190.2445" y="-144.8" font-family="Times,serif" font-size="14.00" fill="#000000">isA</text>
</g>
</g>
</svg>
