<?xml version="1.0" encoding="UTF-8" standalone="no"?>
<!DOCTYPE svg PUBLIC "-//W3C//DTD SVG 1.1//EN"
 "http://www.w3.org/Graphics/SVG/1.1/DTD/svg11.dtd">
<!-- Generated by graphviz version 2.40.1 (20161225.0304)
 -->
<!-- Title: %3 Pages: 1 -->
<svg width="448pt" height="198pt"
 viewBox="0.00 0.00 447.65 198.00" xmlns="http://www.w3.org/2000/svg" xmlns:xlink="http://www.w3.org/1999/xlink">
<g id="graph0" class="graph" transform="scale(1 1) rotate(0) translate(4 194)">
<title>%3</title>
<polygon fill="#ffffff" stroke="transparent" points="-4,4 -4,-194 443.6465,-194 443.6465,4 -4,4"/>
<!-- Nucleus -->
<g id="node1" class="node">
<title>Nucleus</title>
<g id="a_node1"><a xlink:href="http://emmo.info/emmo/middle/materials#EMMO_f835f4d4_c665_403d_ab25_dca5cc74be52" xlink:title="Nucleus">
<ellipse fill="#ffffcc" stroke="#000000" cx="39.6465" cy="-100" rx="39.7935" ry="18"/>
<text text-anchor="middle" x="39.6465" y="-96.3" font-family="Times,serif" font-size="14.00" fill="#000000">Nucleus</text>
</a>
</g>
</g>
<!-- Subatomic -->
<g id="node2" class="node">
<title>Subatomic</title>
<g id="a_node2"><a xlink:href="http://emmo.info/emmo/middle/materials#EMMO_7d66bde4_b68d_41cc_b5fc_6fd98c5e2ff0" xlink:title="Subatomic">
<ellipse fill="#ffffcc" stroke="#000000" stroke-width="2" cx="137.6465" cy="-172" rx="48.9926" ry="18"/>
<text text-anchor="middle" x="137.6465" y="-168.3" font-family="Times,serif" font-size="14.00" fill="#000000">Subatomic</text>
</a>
</g>
</g>
<!-- Nucleus&#45;&gt;Subatomic -->
<g id="edge1" class="edge">
<title>Nucleus&#45;&gt;Subatomic</title>
<path fill="none" stroke="#000000" d="M60.911,-115.6229C74.4638,-125.5801 92.2375,-138.6383 107.2661,-149.6797"/>
<polygon fill="none" stroke="#000000" points="105.6138,-152.8088 115.7449,-155.909 109.7583,-147.1676 105.6138,-152.8088"/>
</g>
<!-- Nucleon -->
<g id="node3" class="node">
<title>Nucleon</title>
<g id="a_node3"><a xlink:href="http://emmo.info/emmo/middle/materials#EMMO_50781fd9_a9e4_46ad_b7be_4500371d188d" xlink:title="Nucleon">
<ellipse fill="#ffffcc" stroke="#000000" cx="137.6465" cy="-100" rx="40.0939" ry="18"/>
<text text-anchor="middle" x="137.6465" y="-96.3" font-family="Times,serif" font-size="14.00" fill="#000000">Nucleon</text>
</a>
</g>
</g>
<!-- Nucleus&#45;&gt;Nucleon -->
<g id="edge2" class="edge">
<title>Nucleus&#45;&gt;Nucleon</title>
<path fill="none" stroke="#006400" d="M79.459,-100C81.9521,-100 84.4453,-100 86.9384,-100"/>
<polygon fill="#006400" stroke="#006400" points="87.188,-103.5001 97.188,-100 87.188,-96.5001 87.188,-103.5001"/>
</g>
<!-- Nucleon&#45;&gt;Subatomic -->
<g id="edge5" class="edge">
<title>Nucleon&#45;&gt;Subatomic</title>
<path fill="none" stroke="#000000" d="M137.6465,-118.1686C137.6465,-125.869 137.6465,-135.0257 137.6465,-143.5834"/>
<polygon fill="none" stroke="#000000" points="134.1466,-143.5867 137.6465,-153.5867 141.1466,-143.5868 134.1466,-143.5867"/>
</g>
<!-- Neutron -->
<g id="node4" class="node">
<title>Neutron</title>
<g id="a_node4"><a xlink:href="http://emmo.info/emmo/middle/materials#EMMO_df808271_df91_4f27_ba59_fa423c51896c" xlink:title="Neutron">
<ellipse fill="#ffffcc" stroke="#000000" cx="91.6465" cy="-23" rx="39.7935" ry="18"/>
<text text-anchor="middle" x="91.6465" y="-19.3" font-family="Times,serif" font-size="14.00" fill="#000000">Neutron</text>
</a>
</g>
</g>
<!-- Neutron&#45;&gt;Nucleon -->
<g id="edge3" class="edge">
<title>Neutron&#45;&gt;Nucleon</title>
<path fill="none" stroke="#000000" d="M102.0846,-40.4725C107.966,-50.3174 115.4282,-62.8085 121.9967,-73.8036"/>
<polygon fill="none" stroke="#000000" points="119.1164,-75.8069 127.2497,-82.5967 125.1257,-72.2169 119.1164,-75.8069"/>
</g>
<!-- ElectronCloud -->
<g id="node5" class="node">
<title>ElectronCloud</title>
<g id="a_node5"><a xlink:href="http://emmo.info/emmo/middle/materials#EMMO_1067b97a_84f8_4d22_8ace_b842b8ce355c" xlink:title="ElectronCloud">
<ellipse fill="#ffffcc" stroke="#000000" cx="257.6465" cy="-100" rx="61.99" ry="18"/>
<text text-anchor="middle" x="257.6465" y="-96.3" font-family="Times,serif" font-size="14.00" fill="#000000">ElectronCloud</text>
</a>
</g>
</g>
<!-- ElectronCloud&#45;&gt;Subatomic -->
<g id="edge6" class="edge">
<title>ElectronCloud&#45;&gt;Subatomic</title>
<path fill="none" stroke="#000000" d="M230.4166,-116.3379C213.183,-126.6781 190.7464,-140.14 172.2552,-151.2348"/>
<polygon fill="none" stroke="#000000" points="170.3088,-148.3209 163.5347,-156.4671 173.9103,-154.3233 170.3088,-148.3209"/>
</g>
<!-- Proton -->
<g id="node6" class="node">
<title>Proton</title>
<g id="a_node6"><a xlink:href="http://emmo.info/emmo/middle/materials#EMMO_8f87e700_99a8_4427_8ffb_e493de05c217" xlink:title="Proton">
<ellipse fill="#ffffcc" stroke="#000000" cx="183.6465" cy="-23" rx="34.394" ry="18"/>
<text text-anchor="middle" x="183.6465" y="-19.3" font-family="Times,serif" font-size="14.00" fill="#000000">Proton</text>
</a>
</g>
</g>
<!-- Proton&#45;&gt;Nucleon -->
<g id="edge4" class="edge">
<title>Proton&#45;&gt;Nucleon</title>
<path fill="none" stroke="#000000" d="M173.2084,-40.4725C167.327,-50.3174 159.8648,-62.8085 153.2963,-73.8036"/>
<polygon fill="none" stroke="#000000" points="150.1672,-72.2169 148.0433,-82.5967 156.1766,-75.8069 150.1672,-72.2169"/>
</g>
<!-- key1 -->
<g id="node7" class="node">
<title>key1</title>
<text text-anchor="start" x="338.6465" y="-28.8" font-family="Times,serif" font-size="14.00" fill="#000000">isA</text>
<text text-anchor="start" x="245.6465" y="-9.8" font-family="Times,serif" font-size="14.00" fill="#000000">hasSpatialDirectPart</text>
</g>
<!-- key2 -->
<g id="node8" class="node">
<title>key2</title>
<text text-anchor="start" x="410.6465" y="-28.8" font-family="Times,serif" font-size="14.00" fill="#000000"> </text>
<text text-anchor="start" x="410.6465" y="-9.8" font-family="Times,serif" font-size="14.00" fill="#000000"> </text>
</g>
<!-- key1&#45;&gt;key2 -->
<g id="edge7" class="edge">
<title>key1:e&#45;&gt;key2:w</title>
<path fill="none" stroke="#006400" d="M359.6465,-13C377.5111,-13 384.3847,-13 398.2995,-13"/>
<polygon fill="#006400" stroke="#006400" points="398.6465,-16.5001 408.6465,-13 398.6464,-9.5001 398.6465,-16.5001"/>
</g>
<!-- key1&#45;&gt;key2 -->
<g id="edge8" class="edge">
<title>key1:e&#45;&gt;key2:w</title>
<path fill="none" stroke="#000000" d="M359.6465,-33C377.5111,-33 384.3847,-33 398.2995,-33"/>
<polygon fill="none" stroke="#000000" points="398.6465,-36.5001 408.6465,-33 398.6464,-29.5001 398.6465,-36.5001"/>
</g>
</g>
</svg>
