<?xml version="1.0" encoding="UTF-8" standalone="no"?>
<!DOCTYPE svg PUBLIC "-//W3C//DTD SVG 1.1//EN"
 "http://www.w3.org/Graphics/SVG/1.1/DTD/svg11.dtd">
<!-- Generated by graphviz version 2.40.1 (20161225.0304)
 -->
<!-- Title: %3 Pages: 1 -->
<svg width="589pt" height="198pt"
 viewBox="0.00 0.00 588.74 198.00" xmlns="http://www.w3.org/2000/svg" xmlns:xlink="http://www.w3.org/1999/xlink">
<g id="graph0" class="graph" transform="scale(1 1) rotate(0) translate(4 194)">
<title>%3</title>
<polygon fill="#ffffff" stroke="transparent" points="-4,4 -4,-194 584.7445,-194 584.7445,4 -4,4"/>
<!-- Nucleon -->
<g id="node1" class="node">
<title>Nucleon</title>
<g id="a_node1"><a xlink:href="http://emmo.info/emmo/middle/materials#EMMO_50781fd9_a9e4_46ad_b7be_4500371d188d" xlink:title="Nucleon">
<ellipse fill="#ffffcc" stroke="#000000" cx="278.7445" cy="-100" rx="40.0939" ry="18"/>
<text text-anchor="middle" x="278.7445" y="-96.3" font-family="Times,serif" font-size="14.00" fill="#000000">Nucleon</text>
</a>
</g>
</g>
<!-- Subatomic -->
<g id="node6" class="node">
<title>Subatomic</title>
<g id="a_node6"><a xlink:href="http://emmo.info/emmo/middle/materials#EMMO_7d66bde4_b68d_41cc_b5fc_6fd98c5e2ff0" xlink:title="Subatomic">
<ellipse fill="#ffffcc" stroke="#000000" stroke-width="2" cx="180.7445" cy="-172" rx="48.9926" ry="18"/>
<text text-anchor="middle" x="180.7445" y="-168.3" font-family="Times,serif" font-size="14.00" fill="#000000">Subatomic</text>
</a>
</g>
</g>
<!-- Nucleon&#45;&gt;Subatomic -->
<g id="edge2" class="edge">
<title>Nucleon&#45;&gt;Subatomic</title>
<path fill="none" stroke="#000000" d="M257.48,-115.6229C243.9272,-125.5801 226.1535,-138.6383 211.1249,-149.6797"/>
<polygon fill="none" stroke="#000000" points="208.6327,-147.1676 202.6461,-155.909 212.7772,-152.8088 208.6327,-147.1676"/>
</g>
<!-- Neutron -->
<g id="node2" class="node">
<title>Neutron</title>
<g id="a_node2"><a xlink:href="http://emmo.info/emmo/middle/materials#EMMO_df808271_df91_4f27_ba59_fa423c51896c" xlink:title="Neutron">
<ellipse fill="#ffffcc" stroke="#000000" cx="232.7445" cy="-23" rx="39.7935" ry="18"/>
<text text-anchor="middle" x="232.7445" y="-19.3" font-family="Times,serif" font-size="14.00" fill="#000000">Neutron</text>
</a>
</g>
</g>
<!-- Neutron&#45;&gt;Nucleon -->
<g id="edge6" class="edge">
<title>Neutron&#45;&gt;Nucleon</title>
<path fill="none" stroke="#000000" d="M243.1826,-40.4725C249.064,-50.3174 256.5263,-62.8085 263.0947,-73.8036"/>
<polygon fill="none" stroke="#000000" points="260.2144,-75.8069 268.3477,-82.5967 266.2238,-72.2169 260.2144,-75.8069"/>
</g>
<!-- ElectronCloud -->
<g id="node3" class="node">
<title>ElectronCloud</title>
<g id="a_node3"><a xlink:href="http://emmo.info/emmo/middle/materials#EMMO_1067b97a_84f8_4d22_8ace_b842b8ce355c" xlink:title="ElectronCloud">
<ellipse fill="#ffffcc" stroke="#000000" cx="61.7445" cy="-100" rx="61.99" ry="18"/>
<text text-anchor="middle" x="61.7445" y="-96.3" font-family="Times,serif" font-size="14.00" fill="#000000">ElectronCloud</text>
</a>
</g>
</g>
<!-- ElectronCloud&#45;&gt;Subatomic -->
<g id="edge1" class="edge">
<title>ElectronCloud&#45;&gt;Subatomic</title>
<path fill="none" stroke="#000000" d="M88.7475,-116.3379C105.8374,-126.6781 128.0871,-140.14 146.4242,-151.2348"/>
<polygon fill="none" stroke="#000000" points="144.7044,-154.285 155.0721,-156.4671 148.3281,-148.2959 144.7044,-154.285"/>
</g>
<!-- Proton -->
<g id="node4" class="node">
<title>Proton</title>
<g id="a_node4"><a xlink:href="http://emmo.info/emmo/middle/materials#EMMO_8f87e700_99a8_4427_8ffb_e493de05c217" xlink:title="Proton">
<ellipse fill="#ffffcc" stroke="#000000" cx="324.7445" cy="-23" rx="34.394" ry="18"/>
<text text-anchor="middle" x="324.7445" y="-19.3" font-family="Times,serif" font-size="14.00" fill="#000000">Proton</text>
</a>
</g>
</g>
<!-- Proton&#45;&gt;Nucleon -->
<g id="edge5" class="edge">
<title>Proton&#45;&gt;Nucleon</title>
<path fill="none" stroke="#000000" d="M314.3064,-40.4725C308.425,-50.3174 300.9628,-62.8085 294.3943,-73.8036"/>
<polygon fill="none" stroke="#000000" points="291.2653,-72.2169 289.1413,-82.5967 297.2746,-75.8069 291.2653,-72.2169"/>
</g>
<!-- Nucleus -->
<g id="node5" class="node">
<title>Nucleus</title>
<g id="a_node5"><a xlink:href="http://emmo.info/emmo/middle/materials#EMMO_f835f4d4_c665_403d_ab25_dca5cc74be52" xlink:title="Nucleus">
<ellipse fill="#ffffcc" stroke="#000000" cx="180.7445" cy="-100" rx="39.7935" ry="18"/>
<text text-anchor="middle" x="180.7445" y="-96.3" font-family="Times,serif" font-size="14.00" fill="#000000">Nucleus</text>
</a>
</g>
</g>
<!-- Nucleus&#45;&gt;Nucleon -->
<g id="edge4" class="edge">
<title>Nucleus&#45;&gt;Nucleon</title>
<path fill="none" stroke="#006400" d="M220.557,-100C223.0502,-100 225.5433,-100 228.0364,-100"/>
<polygon fill="#006400" stroke="#006400" points="228.2861,-103.5001 238.286,-100 228.286,-96.5001 228.2861,-103.5001"/>
</g>
<!-- Nucleus&#45;&gt;Subatomic -->
<g id="edge3" class="edge">
<title>Nucleus&#45;&gt;Subatomic</title>
<path fill="none" stroke="#000000" d="M180.7445,-118.1686C180.7445,-125.869 180.7445,-135.0257 180.7445,-143.5834"/>
<polygon fill="none" stroke="#000000" points="177.2446,-143.5867 180.7445,-153.5867 184.2446,-143.5868 177.2446,-143.5867"/>
</g>
<!-- key1 -->
<g id="node7" class="node">
<title>key1</title>
<text text-anchor="start" x="479.7445" y="-28.8" font-family="Times,serif" font-size="14.00" fill="#000000">isA</text>
<text text-anchor="start" x="386.7445" y="-9.8" font-family="Times,serif" font-size="14.00" fill="#000000">hasSpatialDirectPart</text>
</g>
<!-- key2 -->
<g id="node8" class="node">
<title>key2</title>
<text text-anchor="start" x="551.7445" y="-28.8" font-family="Times,serif" font-size="14.00" fill="#000000"> </text>
<text text-anchor="start" x="551.7445" y="-9.8" font-family="Times,serif" font-size="14.00" fill="#000000"> </text>
</g>
<!-- key1&#45;&gt;key2 -->
<g id="edge7" class="edge">
<title>key1:e&#45;&gt;key2:w</title>
<path fill="none" stroke="#006400" d="M500.7445,-13C518.6091,-13 525.4828,-13 539.3975,-13"/>
<polygon fill="#006400" stroke="#006400" points="539.7446,-16.5001 549.7445,-13 539.7445,-9.5001 539.7446,-16.5001"/>
</g>
<!-- key1&#45;&gt;key2 -->
<g id="edge8" class="edge">
<title>key1:e&#45;&gt;key2:w</title>
<path fill="none" stroke="#000000" d="M500.7445,-33C518.6091,-33 525.4828,-33 539.3975,-33"/>
<polygon fill="none" stroke="#000000" points="539.7446,-36.5001 549.7445,-33 539.7445,-29.5001 539.7446,-36.5001"/>
</g>
</g>
</svg>
