<?xml version="1.0" encoding="UTF-8" standalone="no"?>
<!DOCTYPE svg PUBLIC "-//W3C//DTD SVG 1.1//EN"
 "http://www.w3.org/Graphics/SVG/1.1/DTD/svg11.dtd">
<!-- Generated by graphviz version 2.40.1 (20161225.0304)
 -->
<!-- Title: %3 Pages: 1 -->
<svg width="635pt" height="392pt"
 viewBox="0.00 0.00 635.39 392.00" xmlns="http://www.w3.org/2000/svg" xmlns:xlink="http://www.w3.org/1999/xlink">
<g id="graph0" class="graph" transform="scale(1 1) rotate(0) translate(4 388)">
<title>%3</title>
<polygon fill="#ffffff" stroke="transparent" points="-4,4 -4,-388 631.3933,-388 631.3933,4 -4,4"/>
<!-- BaseUnit -->
<g id="node1" class="node">
<title>BaseUnit</title>
<g id="a_node1"><a xlink:href="http://emmo.info/emmo/middle/units#EMMO_db716151_6b73_45ff_910c_d182fdcbb4f5" xlink:title="BaseUnit">
<ellipse fill="#ffffcc" stroke="#000000" cx="583.8472" cy="-105" rx="43.5923" ry="18"/>
<text text-anchor="middle" x="583.8472" y="-101.3" font-family="Times,serif" font-size="14.00" fill="#000000">BaseUnit</text>
</a>
</g>
</g>
<!-- UnitSymbol -->
<g id="node6" class="node">
<title>UnitSymbol</title>
<g id="a_node6"><a xlink:href="http://emmo.info/emmo/middle/units#EMMO_216f448e_cdbc_4aeb_a529_7a5fe7fc38bb" xlink:title="UnitSymbol">
<ellipse fill="#ffc880" stroke="#000000" cx="460.8472" cy="-192" rx="53.8905" ry="18"/>
<text text-anchor="middle" x="460.8472" y="-188.3" font-family="Times,serif" font-size="14.00" fill="#000000">UnitSymbol</text>
</a>
</g>
</g>
<!-- BaseUnit&#45;&gt;UnitSymbol -->
<g id="edge5" class="edge">
<title>BaseUnit&#45;&gt;UnitSymbol</title>
<path fill="none" stroke="#000000" d="M561.8572,-120.5539C542.4585,-134.2749 513.9648,-154.429 492.1819,-169.8364"/>
<polygon fill="none" stroke="#000000" points="490.0421,-167.0628 483.8991,-175.695 494.0844,-172.7778 490.0421,-167.0628"/>
<text text-anchor="middle" x="539.3472" y="-144.8" font-family="Times,serif" font-size="14.00" fill="#000000">isA</text>
</g>
<!-- SpecialUnit -->
<g id="node2" class="node">
<title>SpecialUnit</title>
<g id="a_node2"><a xlink:href="http://emmo.info/emmo/middle/units#EMMO_3ee80521_3c23_4dd1_935d_9d522614a3e2" xlink:title="SpecialUnit">
<ellipse fill="#ffffcc" stroke="#000000" cx="328.8472" cy="-105" rx="51.9908" ry="18"/>
<text text-anchor="middle" x="328.8472" y="-101.3" font-family="Times,serif" font-size="14.00" fill="#000000">SpecialUnit</text>
</a>
</g>
</g>
<!-- SpecialUnit&#45;&gt;UnitSymbol -->
<g id="edge13" class="edge">
<title>SpecialUnit&#45;&gt;UnitSymbol</title>
<path fill="none" stroke="#000000" d="M353.058,-120.9571C374.045,-134.7895 404.609,-154.9339 427.8355,-170.2423"/>
<polygon fill="none" stroke="#000000" points="426.0671,-173.2686 436.3428,-175.8494 429.9193,-167.4239 426.0671,-173.2686"/>
<text text-anchor="middle" x="412.3472" y="-144.8" font-family="Times,serif" font-size="14.00" fill="#000000">isA</text>
</g>
<!-- SIBaseUnit -->
<g id="node3" class="node">
<title>SIBaseUnit</title>
<g id="a_node3"><a xlink:href="http://emmo.info/emmo/middle/siunits#EMMO_3a185e6c_9e19_4776_b583_19c978156aa0" xlink:title="SIBaseUnit">
<ellipse fill="#ffffcc" stroke="#000000" stroke-width="2" cx="469.8472" cy="-18" rx="51.1914" ry="18"/>
<text text-anchor="middle" x="469.8472" y="-14.3" font-family="Times,serif" font-size="14.00" fill="#000000">SIBaseUnit</text>
</a>
</g>
</g>
<!-- SIBaseUnit&#45;&gt;BaseUnit -->
<g id="edge3" class="edge">
<title>SIBaseUnit&#45;&gt;BaseUnit</title>
<path fill="none" stroke="#000000" d="M491.2897,-34.364C509.2363,-48.0601 535.0129,-67.7318 554.8086,-82.839"/>
<polygon fill="none" stroke="#000000" points="552.8131,-85.7188 562.886,-89.0033 557.0598,-80.1542 552.8131,-85.7188"/>
<text text-anchor="middle" x="543.3472" y="-57.8" font-family="Times,serif" font-size="14.00" fill="#000000">isA</text>
</g>
<!-- SIUnitSymbol -->
<g id="node5" class="node">
<title>SIUnitSymbol</title>
<g id="a_node5"><a xlink:href="http://emmo.info/emmo/middle/siunits#EMMO_32129fb5_df25_48fd_a29c_18a2f22a2dd5" xlink:title="SIUnitSymbol">
<ellipse fill="#ffffcc" stroke="#000000" cx="460.8472" cy="-105" rx="61.99" ry="18"/>
<text text-anchor="middle" x="460.8472" y="-101.3" font-family="Times,serif" font-size="14.00" fill="#000000">SIUnitSymbol</text>
</a>
</g>
</g>
<!-- SIBaseUnit&#45;&gt;SIUnitSymbol -->
<g id="edge2" class="edge">
<title>SIBaseUnit&#45;&gt;SIUnitSymbol</title>
<path fill="none" stroke="#000000" d="M467.9824,-36.0265C466.7636,-47.8082 465.1466,-63.4393 463.7601,-76.8419"/>
<polygon fill="none" stroke="#000000" points="460.2572,-76.6895 462.7096,-86.9966 467.2201,-77.4099 460.2572,-76.6895"/>
<text text-anchor="middle" x="476.3472" y="-57.8" font-family="Times,serif" font-size="14.00" fill="#000000">isA</text>
</g>
<!-- UTF8 -->
<g id="node4" class="node">
<title>UTF8</title>
<g id="a_node4"><a xlink:href="http://emmo.info/emmo/middle/units#EMMO_e13b2173_1dec_4b97_9ac1_1dc4b418612a" xlink:title="UTF8">
<ellipse fill="#ffffcc" stroke="#000000" stroke-width="2" cx="31.8472" cy="-279" rx="31.6951" ry="18"/>
<text text-anchor="middle" x="31.8472" y="-275.3" font-family="Times,serif" font-size="14.00" fill="#000000">UTF8</text>
</a>
</g>
</g>
<!-- Symbol -->
<g id="node11" class="node">
<title>Symbol</title>
<g id="a_node11"><a xlink:href="http://emmo.info/emmo/middle/perceptual#EMMO_a1083d0a_c1fb_471f_8e20_a98f881ad527" xlink:title="Symbol">
<ellipse fill="#ffffcc" stroke="#000000" stroke-width="2" cx="169.8472" cy="-366" rx="38.1938" ry="18"/>
<text text-anchor="middle" x="169.8472" y="-362.3" font-family="Times,serif" font-size="14.00" fill="#000000">Symbol</text>
</a>
</g>
</g>
<!-- UTF8&#45;&gt;Symbol -->
<g id="edge9" class="edge">
<title>UTF8&#45;&gt;Symbol</title>
<path fill="none" stroke="#000000" d="M53.1072,-292.4031C75.6962,-306.644 111.6744,-329.3258 137.7234,-345.7481"/>
<polygon fill="none" stroke="#000000" points="136.1591,-348.8993 146.4849,-351.2716 139.8922,-342.9778 136.1591,-348.8993"/>
<text text-anchor="middle" x="119.3472" y="-318.8" font-family="Times,serif" font-size="14.00" fill="#000000">isA</text>
</g>
<!-- SIUnitSymbol&#45;&gt;UnitSymbol -->
<g id="edge6" class="edge">
<title>SIUnitSymbol&#45;&gt;UnitSymbol</title>
<path fill="none" stroke="#000000" d="M460.8472,-123.0265C460.8472,-134.8082 460.8472,-150.4393 460.8472,-163.8419"/>
<polygon fill="none" stroke="#000000" points="457.3473,-163.9966 460.8472,-173.9966 464.3473,-163.9967 457.3473,-163.9966"/>
<text text-anchor="middle" x="470.3472" y="-144.8" font-family="Times,serif" font-size="14.00" fill="#000000">isA</text>
</g>
<!-- MetrologicalSymbol -->
<g id="node10" class="node">
<title>MetrologicalSymbol</title>
<g id="a_node10"><a xlink:href="http://emmo.info/emmo/middle/units#EMMO_50a3552e_859a_4ff7_946d_76d537cabce6" xlink:title="MetrologicalSymbol">
<ellipse fill="#ffc880" stroke="#000000" cx="359.8472" cy="-279" rx="84.485" ry="18"/>
<text text-anchor="middle" x="359.8472" y="-275.3" font-family="Times,serif" font-size="14.00" fill="#000000">MetrologicalSymbol</text>
</a>
</g>
</g>
<!-- UnitSymbol&#45;&gt;MetrologicalSymbol -->
<g id="edge4" class="edge">
<title>UnitSymbol&#45;&gt;MetrologicalSymbol</title>
<path fill="none" stroke="#000000" d="M440.8928,-209.1884C425.8738,-222.1256 405.0808,-240.0364 388.3166,-254.4768"/>
<polygon fill="none" stroke="#000000" points="385.7459,-252.0717 380.4535,-261.25 390.3144,-257.3754 385.7459,-252.0717"/>
<text text-anchor="middle" x="426.3472" y="-231.8" font-family="Times,serif" font-size="14.00" fill="#000000">isA</text>
</g>
<!-- MathematicalSymbol -->
<g id="node7" class="node">
<title>MathematicalSymbol</title>
<g id="a_node7"><a xlink:href="http://emmo.info/emmo/middle/math#EMMO_5be83f9c_a4ba_4b9a_be1a_5bfc6e891231" xlink:title="MathematicalSymbol">
<ellipse fill="#ffc880" stroke="#000000" stroke-width="2" cx="169.8472" cy="-279" rx="87.9851" ry="18"/>
<text text-anchor="middle" x="169.8472" y="-275.3" font-family="Times,serif" font-size="14.00" fill="#000000">MathematicalSymbol</text>
</a>
</g>
</g>
<!-- MathematicalSymbol&#45;&gt;Symbol -->
<g id="edge10" class="edge">
<title>MathematicalSymbol&#45;&gt;Symbol</title>
<path fill="none" stroke="#000000" d="M169.8472,-297.0265C169.8472,-308.8082 169.8472,-324.4393 169.8472,-337.8419"/>
<polygon fill="none" stroke="#000000" points="166.3473,-337.9966 169.8472,-347.9966 173.3473,-337.9967 166.3473,-337.9966"/>
<text text-anchor="middle" x="179.3472" y="-318.8" font-family="Times,serif" font-size="14.00" fill="#000000">isA</text>
</g>
<!-- PhysicsDimension -->
<g id="node8" class="node">
<title>PhysicsDimension</title>
<g id="a_node8"><a xlink:href="http://emmo.info/emmo/middle/units#EMMO_9895a1b4_f0a5_4167_ac5e_97db40b8bfcc" xlink:title="PhysicsDimension">
<ellipse fill="#ffffcc" stroke="#000000" cx="311.8472" cy="-192" rx="76.8869" ry="18"/>
<text text-anchor="middle" x="311.8472" y="-188.3" font-family="Times,serif" font-size="14.00" fill="#000000">PhysicsDimension</text>
</a>
</g>
</g>
<!-- PhysicsDimension&#45;&gt;MetrologicalSymbol -->
<g id="edge1" class="edge">
<title>PhysicsDimension&#45;&gt;MetrologicalSymbol</title>
<path fill="none" stroke="#000000" d="M321.7928,-210.0265C328.4862,-222.1582 337.4314,-238.3713 344.9673,-252.0302"/>
<polygon fill="none" stroke="#000000" points="342.0189,-253.9316 349.9143,-260.9966 348.148,-250.5501 342.0189,-253.9316"/>
<text text-anchor="middle" x="348.3472" y="-231.8" font-family="Times,serif" font-size="14.00" fill="#000000">isA</text>
</g>
<!-- UnitOne -->
<g id="node9" class="node">
<title>UnitOne</title>
<g id="a_node9"><a xlink:href="http://emmo.info/emmo/middle/units#EMMO_5ebd5e01_0ed3_49a2_a30d_cd05cbe72978" xlink:title="UnitOne">
<ellipse fill="#ffffcc" stroke="#000000" cx="583.8472" cy="-18" rx="40.8928" ry="18"/>
<text text-anchor="middle" x="583.8472" y="-14.3" font-family="Times,serif" font-size="14.00" fill="#000000">UnitOne</text>
</a>
</g>
</g>
<!-- UnitOne&#45;&gt;BaseUnit -->
<g id="edge7" class="edge">
<title>UnitOne&#45;&gt;BaseUnit</title>
<path fill="none" stroke="#000000" d="M583.8472,-36.0265C583.8472,-47.8082 583.8472,-63.4393 583.8472,-76.8419"/>
<polygon fill="none" stroke="#000000" points="580.3473,-76.9966 583.8472,-86.9966 587.3473,-76.9967 580.3473,-76.9966"/>
<text text-anchor="middle" x="593.3472" y="-57.8" font-family="Times,serif" font-size="14.00" fill="#000000">isA</text>
</g>
<!-- MetrologicalSymbol&#45;&gt;Symbol -->
<g id="edge8" class="edge">
<title>MetrologicalSymbol&#45;&gt;Symbol</title>
<path fill="none" stroke="#000000" d="M324.1096,-295.364C290.5051,-310.7514 240.4286,-333.6811 206.522,-349.2068"/>
<polygon fill="none" stroke="#000000" points="205.0495,-346.0315 197.4145,-353.3771 207.9638,-352.396 205.0495,-346.0315"/>
<text text-anchor="middle" x="286.3472" y="-318.8" font-family="Times,serif" font-size="14.00" fill="#000000">isA</text>
</g>
<!-- SISpecialUnit -->
<g id="node12" class="node">
<title>SISpecialUnit</title>
<g id="a_node12"><a xlink:href="http://emmo.info/emmo/middle/siunits#EMMO_e9ffc696_5228_4ff9_8a60_0f5e05e9931b" xlink:title="SISpecialUnit">
<ellipse fill="#ffffcc" stroke="#000000" stroke-width="2" cx="339.8472" cy="-18" rx="59.5901" ry="18"/>
<text text-anchor="middle" x="339.8472" y="-14.3" font-family="Times,serif" font-size="14.00" fill="#000000">SISpecialUnit</text>
</a>
</g>
</g>
<!-- SISpecialUnit&#45;&gt;SpecialUnit -->
<g id="edge12" class="edge">
<title>SISpecialUnit&#45;&gt;SpecialUnit</title>
<path fill="none" stroke="#000000" d="M337.568,-36.0265C336.0783,-47.8082 334.102,-63.4393 332.4074,-76.8419"/>
<polygon fill="none" stroke="#000000" points="328.9056,-76.6366 331.1235,-86.9966 335.8503,-77.5147 328.9056,-76.6366"/>
<text text-anchor="middle" x="345.3472" y="-57.8" font-family="Times,serif" font-size="14.00" fill="#000000">isA</text>
</g>
<!-- SISpecialUnit&#45;&gt;SIUnitSymbol -->
<g id="edge11" class="edge">
<title>SISpecialUnit&#45;&gt;SIUnitSymbol</title>
<path fill="none" stroke="#000000" d="M363.1772,-34.7745C382.0089,-48.3147 408.6854,-67.4952 429.4016,-82.3904"/>
<polygon fill="none" stroke="#000000" points="427.4264,-85.2809 437.5888,-88.277 431.5128,-79.5975 427.4264,-85.2809"/>
<text text-anchor="middle" x="417.3472" y="-57.8" font-family="Times,serif" font-size="14.00" fill="#000000">isA</text>
</g>
</g>
</svg>
