<?xml version="1.0" encoding="UTF-8" standalone="no"?>
<!DOCTYPE svg PUBLIC "-//W3C//DTD SVG 1.1//EN"
 "http://www.w3.org/Graphics/SVG/1.1/DTD/svg11.dtd">
<!-- Generated by graphviz version 2.40.1 (20161225.0304)
 -->
<!-- Title: %3 Pages: 1 -->
<svg width="544pt" height="332pt"
 viewBox="0.00 0.00 543.74 332.00" xmlns="http://www.w3.org/2000/svg" xmlns:xlink="http://www.w3.org/1999/xlink">
<g id="graph0" class="graph" transform="scale(1 1) rotate(0) translate(4 328)">
<title>%3</title>
<polygon fill="#ffffff" stroke="transparent" points="-4,4 -4,-328 539.7376,-328 539.7376,4 -4,4"/>
<!-- Symbol -->
<g id="node1" class="node">
<title>Symbol</title>
<g id="a_node1"><a xlink:href="http://emmo.info/emmo/middle/perceptual#EMMO_a1083d0a_c1fb_471f_8e20_a98f881ad527" xlink:title="Symbol">
<ellipse fill="#ffffcc" stroke="#000000" stroke-width="2" cx="257.9954" cy="-306" rx="38.1938" ry="18"/>
<text text-anchor="middle" x="257.9954" y="-302.3" font-family="Times,serif" font-size="14.00" fill="#000000">Symbol</text>
</a>
</g>
</g>
<!-- UnitOne -->
<g id="node2" class="node">
<title>UnitOne</title>
<g id="a_node2"><a xlink:href="http://emmo.info/emmo/middle/metrology#EMMO_5ebd5e01_0ed3_49a2_a30d_cd05cbe72978" xlink:title="UnitOne">
<ellipse fill="#ffffcc" stroke="#000000" cx="306.9954" cy="-18" rx="40.8928" ry="18"/>
<text text-anchor="middle" x="306.9954" y="-14.3" font-family="Times,serif" font-size="14.00" fill="#000000">UnitOne</text>
</a>
</g>
</g>
<!-- BaseUnit -->
<g id="node11" class="node">
<title>BaseUnit</title>
<g id="a_node11"><a xlink:href="http://emmo.info/emmo/middle/metrology#EMMO_db716151_6b73_45ff_910c_d182fdcbb4f5" xlink:title="BaseUnit">
<ellipse fill="#ffffcc" stroke="#000000" cx="306.9954" cy="-90" rx="43.5923" ry="18"/>
<text text-anchor="middle" x="306.9954" y="-86.3" font-family="Times,serif" font-size="14.00" fill="#000000">BaseUnit</text>
</a>
</g>
</g>
<!-- UnitOne&#45;&gt;BaseUnit -->
<g id="edge1" class="edge">
<title>UnitOne&#45;&gt;BaseUnit</title>
<path fill="none" stroke="#000000" d="M306.9954,-36.1686C306.9954,-43.869 306.9954,-53.0257 306.9954,-61.5834"/>
<polygon fill="none" stroke="#000000" points="303.4955,-61.5867 306.9954,-71.5867 310.4955,-61.5868 303.4955,-61.5867"/>
</g>
<!-- SpecialUnit -->
<g id="node3" class="node">
<title>SpecialUnit</title>
<g id="a_node3"><a xlink:href="http://emmo.info/emmo/middle/metrology#EMMO_3ee80521_3c23_4dd1_935d_9d522614a3e2" xlink:title="SpecialUnit">
<ellipse fill="#ffffcc" stroke="#000000" cx="51.9954" cy="-90" rx="51.9908" ry="18"/>
<text text-anchor="middle" x="51.9954" y="-86.3" font-family="Times,serif" font-size="14.00" fill="#000000">SpecialUnit</text>
</a>
</g>
</g>
<!-- UnitSymbol -->
<g id="node5" class="node">
<title>UnitSymbol</title>
<g id="a_node5"><a xlink:href="http://emmo.info/emmo/middle/metrology#EMMO_216f448e_cdbc_4aeb_a529_7a5fe7fc38bb" xlink:title="UnitSymbol">
<ellipse fill="#ffc880" stroke="#000000" cx="183.9954" cy="-162" rx="53.8905" ry="18"/>
<text text-anchor="middle" x="183.9954" y="-158.3" font-family="Times,serif" font-size="14.00" fill="#000000">UnitSymbol</text>
</a>
</g>
</g>
<!-- SpecialUnit&#45;&gt;UnitSymbol -->
<g id="edge10" class="edge">
<title>SpecialUnit&#45;&gt;UnitSymbol</title>
<path fill="none" stroke="#000000" d="M79.9892,-105.2693C99.3706,-115.841 125.3851,-130.0307 146.5477,-141.574"/>
<polygon fill="none" stroke="#000000" points="145.1319,-144.7885 155.5869,-146.5044 148.4839,-138.6432 145.1319,-144.7885"/>
</g>
<!-- UTF8 -->
<g id="node4" class="node">
<title>UTF8</title>
<g id="a_node4"><a xlink:href="http://emmo.info/emmo/middle/metrology#EMMO_e13b2173_1dec_4b97_9ac1_1dc4b418612a" xlink:title="UTF8">
<ellipse fill="#ffffcc" stroke="#000000" stroke-width="2" cx="123.9954" cy="-234" rx="31.6951" ry="18"/>
<text text-anchor="middle" x="123.9954" y="-230.3" font-family="Times,serif" font-size="14.00" fill="#000000">UTF8</text>
</a>
</g>
</g>
<!-- UTF8&#45;&gt;Symbol -->
<g id="edge4" class="edge">
<title>UTF8&#45;&gt;Symbol</title>
<path fill="none" stroke="#000000" d="M147.3364,-246.5414C168.387,-257.8522 199.622,-274.6352 223.5443,-287.489"/>
<polygon fill="none" stroke="#000000" points="222.1778,-290.7279 232.6433,-292.378 225.491,-284.5617 222.1778,-290.7279"/>
</g>
<!-- MetrologicalSymbol -->
<g id="node6" class="node">
<title>MetrologicalSymbol</title>
<g id="a_node6"><a xlink:href="http://emmo.info/emmo/middle/metrology#EMMO_50a3552e_859a_4ff7_946d_76d537cabce6" xlink:title="MetrologicalSymbol">
<ellipse fill="#ffc880" stroke="#000000" cx="257.9954" cy="-234" rx="84.485" ry="18"/>
<text text-anchor="middle" x="257.9954" y="-230.3" font-family="Times,serif" font-size="14.00" fill="#000000">MetrologicalSymbol</text>
</a>
</g>
</g>
<!-- UnitSymbol&#45;&gt;MetrologicalSymbol -->
<g id="edge12" class="edge">
<title>UnitSymbol&#45;&gt;MetrologicalSymbol</title>
<path fill="none" stroke="#000000" d="M201.5324,-179.063C210.8183,-188.0979 222.3906,-199.3575 232.6367,-209.3267"/>
<polygon fill="none" stroke="#000000" points="230.2035,-211.8426 239.8115,-216.3076 235.085,-206.8254 230.2035,-211.8426"/>
</g>
<!-- MetrologicalSymbol&#45;&gt;Symbol -->
<g id="edge13" class="edge">
<title>MetrologicalSymbol&#45;&gt;Symbol</title>
<path fill="none" stroke="#000000" d="M257.9954,-252.1686C257.9954,-259.869 257.9954,-269.0257 257.9954,-277.5834"/>
<polygon fill="none" stroke="#000000" points="254.4955,-277.5867 257.9954,-287.5867 261.4955,-277.5868 254.4955,-277.5867"/>
</g>
<!-- SISpecialUnit -->
<g id="node7" class="node">
<title>SISpecialUnit</title>
<g id="a_node7"><a xlink:href="http://emmo.info/emmo/middle/siunits#EMMO_e9ffc696_5228_4ff9_8a60_0f5e05e9931b" xlink:title="SISpecialUnit">
<ellipse fill="#ffffcc" stroke="#000000" stroke-width="2" cx="59.9954" cy="-18" rx="59.5901" ry="18"/>
<text text-anchor="middle" x="59.9954" y="-14.3" font-family="Times,serif" font-size="14.00" fill="#000000">SISpecialUnit</text>
</a>
</g>
</g>
<!-- SISpecialUnit&#45;&gt;SpecialUnit -->
<g id="edge6" class="edge">
<title>SISpecialUnit&#45;&gt;SpecialUnit</title>
<path fill="none" stroke="#000000" d="M57.9766,-36.1686C57.121,-43.869 56.1036,-53.0257 55.1528,-61.5834"/>
<polygon fill="none" stroke="#000000" points="51.6671,-61.2614 54.0413,-71.5867 58.6243,-62.0344 51.6671,-61.2614"/>
</g>
<!-- SIUnitSymbol -->
<g id="node10" class="node">
<title>SIUnitSymbol</title>
<g id="a_node10"><a xlink:href="http://emmo.info/emmo/middle/siunits#EMMO_32129fb5_df25_48fd_a29c_18a2f22a2dd5" xlink:title="SIUnitSymbol">
<ellipse fill="#ffffcc" stroke="#000000" cx="183.9954" cy="-90" rx="61.99" ry="18"/>
<text text-anchor="middle" x="183.9954" y="-86.3" font-family="Times,serif" font-size="14.00" fill="#000000">SIUnitSymbol</text>
</a>
</g>
</g>
<!-- SISpecialUnit&#45;&gt;SIUnitSymbol -->
<g id="edge7" class="edge">
<title>SISpecialUnit&#45;&gt;SIUnitSymbol</title>
<path fill="none" stroke="#000000" d="M87.8234,-34.1582C105.4532,-44.3948 128.4437,-57.7442 147.5253,-68.8238"/>
<polygon fill="none" stroke="#000000" points="145.8548,-71.9011 156.2602,-73.8957 149.3698,-65.8476 145.8548,-71.9011"/>
</g>
<!-- MathematicalSymbol -->
<g id="node8" class="node">
<title>MathematicalSymbol</title>
<g id="a_node8"><a xlink:href="http://emmo.info/emmo/middle/math#EMMO_5be83f9c_a4ba_4b9a_be1a_5bfc6e891231" xlink:title="MathematicalSymbol">
<ellipse fill="#ffc880" stroke="#000000" stroke-width="2" cx="447.9954" cy="-234" rx="87.9851" ry="18"/>
<text text-anchor="middle" x="447.9954" y="-230.3" font-family="Times,serif" font-size="14.00" fill="#000000">MathematicalSymbol</text>
</a>
</g>
</g>
<!-- MathematicalSymbol&#45;&gt;Symbol -->
<g id="edge5" class="edge">
<title>MathematicalSymbol&#45;&gt;Symbol</title>
<path fill="none" stroke="#000000" d="M405.8282,-249.9791C373.4298,-262.2564 329.0108,-279.0889 297.3398,-291.0906"/>
<polygon fill="none" stroke="#000000" points="296.0583,-287.8332 287.9475,-294.6497 298.5389,-294.379 296.0583,-287.8332"/>
</g>
<!-- SIBaseUnit -->
<g id="node9" class="node">
<title>SIBaseUnit</title>
<g id="a_node9"><a xlink:href="http://emmo.info/emmo/middle/siunits#EMMO_3a185e6c_9e19_4776_b583_19c978156aa0" xlink:title="SIBaseUnit">
<ellipse fill="#ffffcc" stroke="#000000" stroke-width="2" cx="189.9954" cy="-18" rx="51.1914" ry="18"/>
<text text-anchor="middle" x="189.9954" y="-14.3" font-family="Times,serif" font-size="14.00" fill="#000000">SIBaseUnit</text>
</a>
</g>
</g>
<!-- SIBaseUnit&#45;&gt;SIUnitSymbol -->
<g id="edge9" class="edge">
<title>SIBaseUnit&#45;&gt;SIUnitSymbol</title>
<path fill="none" stroke="#000000" d="M188.4813,-36.1686C187.8396,-43.869 187.0766,-53.0257 186.3634,-61.5834"/>
<polygon fill="none" stroke="#000000" points="182.8725,-61.3306 185.5298,-71.5867 189.8483,-61.912 182.8725,-61.3306"/>
</g>
<!-- SIBaseUnit&#45;&gt;BaseUnit -->
<g id="edge8" class="edge">
<title>SIBaseUnit&#45;&gt;BaseUnit</title>
<path fill="none" stroke="#000000" d="M215.6715,-33.8007C232.7827,-44.3306 255.4333,-58.2695 273.8955,-69.6308"/>
<polygon fill="none" stroke="#000000" points="272.2287,-72.7147 282.5796,-74.9749 275.8974,-66.7531 272.2287,-72.7147"/>
</g>
<!-- SIUnitSymbol&#45;&gt;UnitSymbol -->
<g id="edge2" class="edge">
<title>SIUnitSymbol&#45;&gt;UnitSymbol</title>
<path fill="none" stroke="#000000" d="M183.9954,-108.1686C183.9954,-115.869 183.9954,-125.0257 183.9954,-133.5834"/>
<polygon fill="none" stroke="#000000" points="180.4955,-133.5867 183.9954,-143.5867 187.4955,-133.5868 180.4955,-133.5867"/>
</g>
<!-- BaseUnit&#45;&gt;UnitSymbol -->
<g id="edge11" class="edge">
<title>BaseUnit&#45;&gt;UnitSymbol</title>
<path fill="none" stroke="#000000" d="M281.8077,-104.744C263.8886,-115.2332 239.5619,-129.4733 219.6521,-141.1278"/>
<polygon fill="none" stroke="#000000" points="217.7161,-138.2055 210.8541,-146.2778 221.2524,-144.2466 217.7161,-138.2055"/>
</g>
<!-- PhysicsDimension -->
<g id="node12" class="node">
<title>PhysicsDimension</title>
<g id="a_node12"><a xlink:href="http://emmo.info/emmo/middle/metrology#EMMO_9895a1b4_f0a5_4167_ac5e_97db40b8bfcc" xlink:title="PhysicsDimension">
<ellipse fill="#ffffcc" stroke="#000000" stroke-width="2" cx="332.9954" cy="-162" rx="76.8869" ry="18"/>
<text text-anchor="middle" x="332.9954" y="-158.3" font-family="Times,serif" font-size="14.00" fill="#000000">PhysicsDimension</text>
</a>
</g>
</g>
<!-- PhysicsDimension&#45;&gt;MetrologicalSymbol -->
<g id="edge3" class="edge">
<title>PhysicsDimension&#45;&gt;MetrologicalSymbol</title>
<path fill="none" stroke="#000000" d="M314.4561,-179.7978C305.1921,-188.6912 293.8331,-199.5958 283.7386,-209.2865"/>
<polygon fill="none" stroke="#000000" points="281.1115,-206.9568 276.3215,-216.407 285.9592,-212.0065 281.1115,-206.9568"/>
</g>
<!-- key1 -->
<g id="node13" class="node">
<title>key1</title>
<text text-anchor="start" x="383.9954" y="-13.8" font-family="Times,serif" font-size="14.00" fill="#000000">isA</text>
</g>
<!-- key2 -->
<g id="node14" class="node">
<title>key2</title>
<text text-anchor="start" x="462.9954" y="-13.8" font-family="Times,serif" font-size="14.00" fill="#000000"> </text>
</g>
<!-- key1&#45;&gt;key2 -->
<g id="edge14" class="edge">
<title>key1:e&#45;&gt;key2:w</title>
<path fill="none" stroke="#000000" d="M404.9954,-19C425.9954,-19 433.7063,-19 450.5535,-19"/>
<polygon fill="none" stroke="#000000" points="450.9954,-22.5001 460.9954,-19 450.9954,-15.5001 450.9954,-22.5001"/>
</g>
</g>
</svg>
