<?xml version="1.0" encoding="UTF-8" standalone="no"?>
<!DOCTYPE svg PUBLIC "-//W3C//DTD SVG 1.1//EN"
 "http://www.w3.org/Graphics/SVG/1.1/DTD/svg11.dtd">
<!-- Generated by graphviz version 2.40.1 (20161225.0304)
 -->
<!-- Title: %3 Pages: 1 -->
<svg width="601pt" height="332pt"
 viewBox="0.00 0.00 600.74 332.00" xmlns="http://www.w3.org/2000/svg" xmlns:xlink="http://www.w3.org/1999/xlink">
<g id="graph0" class="graph" transform="scale(1 1) rotate(0) translate(4 328)">
<title>%3</title>
<polygon fill="#ffffff" stroke="transparent" points="-4,4 -4,-328 596.7422,-328 596.7422,4 -4,4"/>
<!-- MetrologicalSymbol -->
<g id="node1" class="node">
<title>MetrologicalSymbol</title>
<g id="a_node1"><a xlink:href="http://emmo.info/emmo/middle/metrology#EMMO_50a3552e_859a_4ff7_946d_76d537cabce6" xlink:title="MetrologicalSymbol">
<ellipse fill="#ffc880" stroke="#000000" cx="359.7422" cy="-234" rx="84.485" ry="18"/>
<text text-anchor="middle" x="359.7422" y="-230.3" font-family="Times,serif" font-size="14.00" fill="#000000">MetrologicalSymbol</text>
</a>
</g>
</g>
<!-- Symbol -->
<g id="node3" class="node">
<title>Symbol</title>
<g id="a_node3"><a xlink:href="http://emmo.info/emmo/middle/perceptual#EMMO_a1083d0a_c1fb_471f_8e20_a98f881ad527" xlink:title="Symbol">
<ellipse fill="#ffffcc" stroke="#000000" stroke-width="2" cx="225.7422" cy="-306" rx="38.1938" ry="18"/>
<text text-anchor="middle" x="225.7422" y="-302.3" font-family="Times,serif" font-size="14.00" fill="#000000">Symbol</text>
</a>
</g>
</g>
<!-- MetrologicalSymbol&#45;&gt;Symbol -->
<g id="edge13" class="edge">
<title>MetrologicalSymbol&#45;&gt;Symbol</title>
<path fill="none" stroke="#000000" d="M328.3252,-250.8808C307.8403,-261.8876 281.1037,-276.2535 260.0621,-287.5594"/>
<polygon fill="none" stroke="#000000" points="258.286,-284.5405 251.1337,-292.3568 261.5993,-290.7067 258.286,-284.5405"/>
</g>
<!-- UnitSymbol -->
<g id="node2" class="node">
<title>UnitSymbol</title>
<g id="a_node2"><a xlink:href="http://emmo.info/emmo/middle/metrology#EMMO_216f448e_cdbc_4aeb_a529_7a5fe7fc38bb" xlink:title="UnitSymbol">
<ellipse fill="#ffc880" stroke="#000000" cx="284.7422" cy="-162" rx="53.8905" ry="18"/>
<text text-anchor="middle" x="284.7422" y="-158.3" font-family="Times,serif" font-size="14.00" fill="#000000">UnitSymbol</text>
</a>
</g>
</g>
<!-- UnitSymbol&#45;&gt;MetrologicalSymbol -->
<g id="edge3" class="edge">
<title>UnitSymbol&#45;&gt;MetrologicalSymbol</title>
<path fill="none" stroke="#000000" d="M302.5162,-179.063C311.9276,-188.0979 323.6563,-199.3575 334.0409,-209.3267"/>
<polygon fill="none" stroke="#000000" points="331.6748,-211.9071 341.3126,-216.3076 336.5226,-206.8574 331.6748,-211.9071"/>
</g>
<!-- SISpecialUnit -->
<g id="node4" class="node">
<title>SISpecialUnit</title>
<g id="a_node4"><a xlink:href="http://emmo.info/emmo/middle/siunits#EMMO_e9ffc696_5228_4ff9_8a60_0f5e05e9931b" xlink:title="SISpecialUnit">
<ellipse fill="#ffffcc" stroke="#000000" stroke-width="2" cx="160.7422" cy="-18" rx="59.5901" ry="18"/>
<text text-anchor="middle" x="160.7422" y="-14.3" font-family="Times,serif" font-size="14.00" fill="#000000">SISpecialUnit</text>
</a>
</g>
</g>
<!-- SIUnitSymbol -->
<g id="node8" class="node">
<title>SIUnitSymbol</title>
<g id="a_node8"><a xlink:href="http://emmo.info/emmo/middle/siunits#EMMO_32129fb5_df25_48fd_a29c_18a2f22a2dd5" xlink:title="SIUnitSymbol">
<ellipse fill="#ffffcc" stroke="#000000" cx="284.7422" cy="-90" rx="61.99" ry="18"/>
<text text-anchor="middle" x="284.7422" y="-86.3" font-family="Times,serif" font-size="14.00" fill="#000000">SIUnitSymbol</text>
</a>
</g>
</g>
<!-- SISpecialUnit&#45;&gt;SIUnitSymbol -->
<g id="edge11" class="edge">
<title>SISpecialUnit&#45;&gt;SIUnitSymbol</title>
<path fill="none" stroke="#000000" d="M188.5702,-34.1582C206.2,-44.3948 229.1906,-57.7442 248.2721,-68.8238"/>
<polygon fill="none" stroke="#000000" points="246.6017,-71.9011 257.0071,-73.8957 250.1167,-65.8476 246.6017,-71.9011"/>
</g>
<!-- SpecialUnit -->
<g id="node12" class="node">
<title>SpecialUnit</title>
<g id="a_node12"><a xlink:href="http://emmo.info/emmo/middle/metrology#EMMO_3ee80521_3c23_4dd1_935d_9d522614a3e2" xlink:title="SpecialUnit">
<ellipse fill="#ffffcc" stroke="#000000" cx="152.7422" cy="-90" rx="51.9908" ry="18"/>
<text text-anchor="middle" x="152.7422" y="-86.3" font-family="Times,serif" font-size="14.00" fill="#000000">SpecialUnit</text>
</a>
</g>
</g>
<!-- SISpecialUnit&#45;&gt;SpecialUnit -->
<g id="edge10" class="edge">
<title>SISpecialUnit&#45;&gt;SpecialUnit</title>
<path fill="none" stroke="#000000" d="M158.7235,-36.1686C157.8679,-43.869 156.8505,-53.0257 155.8996,-61.5834"/>
<polygon fill="none" stroke="#000000" points="152.4139,-61.2614 154.7881,-71.5867 159.3711,-62.0344 152.4139,-61.2614"/>
</g>
<!-- MathematicalSymbol -->
<g id="node5" class="node">
<title>MathematicalSymbol</title>
<g id="a_node5"><a xlink:href="http://emmo.info/emmo/middle/math#EMMO_5be83f9c_a4ba_4b9a_be1a_5bfc6e891231" xlink:title="MathematicalSymbol">
<ellipse fill="#ffc880" stroke="#000000" stroke-width="2" cx="87.7422" cy="-234" rx="87.9851" ry="18"/>
<text text-anchor="middle" x="87.7422" y="-230.3" font-family="Times,serif" font-size="14.00" fill="#000000">MathematicalSymbol</text>
</a>
</g>
</g>
<!-- MathematicalSymbol&#45;&gt;Symbol -->
<g id="edge8" class="edge">
<title>MathematicalSymbol&#45;&gt;Symbol</title>
<path fill="none" stroke="#000000" d="M120.0971,-250.8808C141.4275,-262.0097 169.3398,-276.5727 191.1168,-287.9345"/>
<polygon fill="none" stroke="#000000" points="189.5521,-291.0659 200.037,-292.5886 192.7901,-284.8598 189.5521,-291.0659"/>
</g>
<!-- SIBaseUnit -->
<g id="node6" class="node">
<title>SIBaseUnit</title>
<g id="a_node6"><a xlink:href="http://emmo.info/emmo/middle/siunits#EMMO_3a185e6c_9e19_4776_b583_19c978156aa0" xlink:title="SIBaseUnit">
<ellipse fill="#ffffcc" stroke="#000000" stroke-width="2" cx="290.7422" cy="-18" rx="51.1914" ry="18"/>
<text text-anchor="middle" x="290.7422" y="-14.3" font-family="Times,serif" font-size="14.00" fill="#000000">SIBaseUnit</text>
</a>
</g>
</g>
<!-- SIBaseUnit&#45;&gt;SIUnitSymbol -->
<g id="edge7" class="edge">
<title>SIBaseUnit&#45;&gt;SIUnitSymbol</title>
<path fill="none" stroke="#000000" d="M289.2282,-36.1686C288.5865,-43.869 287.8234,-53.0257 287.1103,-61.5834"/>
<polygon fill="none" stroke="#000000" points="283.6193,-61.3306 286.2767,-71.5867 290.5951,-61.912 283.6193,-61.3306"/>
</g>
<!-- BaseUnit -->
<g id="node9" class="node">
<title>BaseUnit</title>
<g id="a_node9"><a xlink:href="http://emmo.info/emmo/middle/metrology#EMMO_db716151_6b73_45ff_910c_d182fdcbb4f5" xlink:title="BaseUnit">
<ellipse fill="#ffffcc" stroke="#000000" cx="407.7422" cy="-90" rx="43.5923" ry="18"/>
<text text-anchor="middle" x="407.7422" y="-86.3" font-family="Times,serif" font-size="14.00" fill="#000000">BaseUnit</text>
</a>
</g>
</g>
<!-- SIBaseUnit&#45;&gt;BaseUnit -->
<g id="edge6" class="edge">
<title>SIBaseUnit&#45;&gt;BaseUnit</title>
<path fill="none" stroke="#000000" d="M316.4184,-33.8007C333.5295,-44.3306 356.1801,-58.2695 374.6423,-69.6308"/>
<polygon fill="none" stroke="#000000" points="372.9755,-72.7147 383.3265,-74.9749 376.6442,-66.7531 372.9755,-72.7147"/>
</g>
<!-- PhysicsDimension -->
<g id="node7" class="node">
<title>PhysicsDimension</title>
<g id="a_node7"><a xlink:href="http://emmo.info/emmo/middle/metrology#EMMO_9895a1b4_f0a5_4167_ac5e_97db40b8bfcc" xlink:title="PhysicsDimension">
<ellipse fill="#ffffcc" stroke="#000000" stroke-width="2" cx="433.7422" cy="-162" rx="76.8869" ry="18"/>
<text text-anchor="middle" x="433.7422" y="-158.3" font-family="Times,serif" font-size="14.00" fill="#000000">PhysicsDimension</text>
</a>
</g>
</g>
<!-- PhysicsDimension&#45;&gt;MetrologicalSymbol -->
<g id="edge5" class="edge">
<title>PhysicsDimension&#45;&gt;MetrologicalSymbol</title>
<path fill="none" stroke="#000000" d="M415.4501,-179.7978C406.3096,-188.6912 395.1021,-199.5958 385.1422,-209.2865"/>
<polygon fill="none" stroke="#000000" points="382.5505,-206.9248 377.8239,-216.407 387.432,-211.9419 382.5505,-206.9248"/>
</g>
<!-- SIUnitSymbol&#45;&gt;UnitSymbol -->
<g id="edge1" class="edge">
<title>SIUnitSymbol&#45;&gt;UnitSymbol</title>
<path fill="none" stroke="#000000" d="M284.7422,-108.1686C284.7422,-115.869 284.7422,-125.0257 284.7422,-133.5834"/>
<polygon fill="none" stroke="#000000" points="281.2423,-133.5867 284.7422,-143.5867 288.2423,-133.5868 281.2423,-133.5867"/>
</g>
<!-- BaseUnit&#45;&gt;UnitSymbol -->
<g id="edge2" class="edge">
<title>BaseUnit&#45;&gt;UnitSymbol</title>
<path fill="none" stroke="#000000" d="M382.5545,-104.744C364.6355,-115.2332 340.3087,-129.4733 320.3989,-141.1278"/>
<polygon fill="none" stroke="#000000" points="318.4629,-138.2055 311.6009,-146.2778 321.9992,-144.2466 318.4629,-138.2055"/>
</g>
<!-- UnitOne -->
<g id="node10" class="node">
<title>UnitOne</title>
<g id="a_node10"><a xlink:href="http://emmo.info/emmo/middle/metrology#EMMO_5ebd5e01_0ed3_49a2_a30d_cd05cbe72978" xlink:title="UnitOne">
<ellipse fill="#ffffcc" stroke="#000000" cx="407.7422" cy="-18" rx="40.8928" ry="18"/>
<text text-anchor="middle" x="407.7422" y="-14.3" font-family="Times,serif" font-size="14.00" fill="#000000">UnitOne</text>
</a>
</g>
</g>
<!-- UnitOne&#45;&gt;BaseUnit -->
<g id="edge12" class="edge">
<title>UnitOne&#45;&gt;BaseUnit</title>
<path fill="none" stroke="#000000" d="M407.7422,-36.1686C407.7422,-43.869 407.7422,-53.0257 407.7422,-61.5834"/>
<polygon fill="none" stroke="#000000" points="404.2423,-61.5867 407.7422,-71.5867 411.2423,-61.5868 404.2423,-61.5867"/>
</g>
<!-- UTF8 -->
<g id="node11" class="node">
<title>UTF8</title>
<g id="a_node11"><a xlink:href="http://emmo.info/emmo/middle/metrology#EMMO_e13b2173_1dec_4b97_9ac1_1dc4b418612a" xlink:title="UTF8">
<ellipse fill="#ffffcc" stroke="#000000" stroke-width="2" cx="225.7422" cy="-234" rx="31.6951" ry="18"/>
<text text-anchor="middle" x="225.7422" y="-230.3" font-family="Times,serif" font-size="14.00" fill="#000000">UTF8</text>
</a>
</g>
</g>
<!-- UTF8&#45;&gt;Symbol -->
<g id="edge4" class="edge">
<title>UTF8&#45;&gt;Symbol</title>
<path fill="none" stroke="#000000" d="M225.7422,-252.1686C225.7422,-259.869 225.7422,-269.0257 225.7422,-277.5834"/>
<polygon fill="none" stroke="#000000" points="222.2423,-277.5867 225.7422,-287.5867 229.2423,-277.5868 222.2423,-277.5867"/>
</g>
<!-- SpecialUnit&#45;&gt;UnitSymbol -->
<g id="edge9" class="edge">
<title>SpecialUnit&#45;&gt;UnitSymbol</title>
<path fill="none" stroke="#000000" d="M180.736,-105.2693C200.1174,-115.841 226.1319,-130.0307 247.2946,-141.574"/>
<polygon fill="none" stroke="#000000" points="245.8787,-144.7885 256.3337,-146.5044 249.2307,-138.6432 245.8787,-144.7885"/>
</g>
<!-- key1 -->
<g id="node13" class="node">
<title>key1</title>
<text text-anchor="start" x="484.7422" y="-13.8" font-family="Times,serif" font-size="14.00" fill="#000000">isA</text>
</g>
<!-- key2 -->
<g id="node14" class="node">
<title>key2</title>
<text text-anchor="start" x="563.7422" y="-13.8" font-family="Times,serif" font-size="14.00" fill="#000000"> </text>
</g>
<!-- key1&#45;&gt;key2 -->
<g id="edge14" class="edge">
<title>key1:e&#45;&gt;key2:w</title>
<path fill="none" stroke="#000000" d="M505.7422,-19C526.7422,-19 534.4532,-19 551.3003,-19"/>
<polygon fill="none" stroke="#000000" points="551.7422,-22.5001 561.7422,-19 551.7422,-15.5001 551.7422,-22.5001"/>
</g>
</g>
</svg>
