<?xml version="1.0" encoding="UTF-8" standalone="no"?>
<!DOCTYPE svg PUBLIC "-//W3C//DTD SVG 1.1//EN"
 "http://www.w3.org/Graphics/SVG/1.1/DTD/svg11.dtd">
<!-- Generated by graphviz version 2.40.1 (20161225.0304)
 -->
<!-- Title: %3 Pages: 1 -->
<svg width="773pt" height="332pt"
 viewBox="0.00 0.00 772.85 332.00" xmlns="http://www.w3.org/2000/svg" xmlns:xlink="http://www.w3.org/1999/xlink">
<g id="graph0" class="graph" transform="scale(1 1) rotate(0) translate(4 328)">
<title>%3</title>
<polygon fill="#ffffff" stroke="transparent" points="-4,4 -4,-328 768.8472,-328 768.8472,4 -4,4"/>
<!-- SIUnitSymbol -->
<g id="node1" class="node">
<title>SIUnitSymbol</title>
<g id="a_node1"><a xlink:href="http://emmo.info/emmo/middle/siunits#EMMO_32129fb5_df25_48fd_a29c_18a2f22a2dd5" xlink:title="SIUnitSymbol">
<ellipse fill="#ffffcc" stroke="#000000" cx="433.8472" cy="-90" rx="61.99" ry="18"/>
<text text-anchor="middle" x="433.8472" y="-86.3" font-family="Times,serif" font-size="14.00" fill="#000000">SIUnitSymbol</text>
</a>
</g>
</g>
<!-- UnitSymbol -->
<g id="node9" class="node">
<title>UnitSymbol</title>
<g id="a_node9"><a xlink:href="http://emmo.info/emmo/middle/metrology#EMMO_216f448e_cdbc_4aeb_a529_7a5fe7fc38bb" xlink:title="UnitSymbol">
<ellipse fill="#ffc880" stroke="#000000" cx="433.8472" cy="-162" rx="53.8905" ry="18"/>
<text text-anchor="middle" x="433.8472" y="-158.3" font-family="Times,serif" font-size="14.00" fill="#000000">UnitSymbol</text>
</a>
</g>
</g>
<!-- SIUnitSymbol&#45;&gt;UnitSymbol -->
<g id="edge13" class="edge">
<title>SIUnitSymbol&#45;&gt;UnitSymbol</title>
<path fill="none" stroke="#000000" d="M433.8472,-108.1686C433.8472,-115.869 433.8472,-125.0257 433.8472,-133.5834"/>
<polygon fill="none" stroke="#000000" points="430.3473,-133.5867 433.8472,-143.5867 437.3473,-133.5868 430.3473,-133.5867"/>
</g>
<!-- PhysicsDimension -->
<g id="node2" class="node">
<title>PhysicsDimension</title>
<g id="a_node2"><a xlink:href="http://emmo.info/emmo/middle/metrology#EMMO_9895a1b4_f0a5_4167_ac5e_97db40b8bfcc" xlink:title="PhysicsDimension">
<ellipse fill="#ffffcc" stroke="#000000" stroke-width="2" cx="284.8472" cy="-162" rx="76.8869" ry="18"/>
<text text-anchor="middle" x="284.8472" y="-158.3" font-family="Times,serif" font-size="14.00" fill="#000000">PhysicsDimension</text>
</a>
</g>
</g>
<!-- MetrologicalSymbol -->
<g id="node5" class="node">
<title>MetrologicalSymbol</title>
<g id="a_node5"><a xlink:href="http://emmo.info/emmo/middle/metrology#EMMO_50a3552e_859a_4ff7_946d_76d537cabce6" xlink:title="MetrologicalSymbol">
<ellipse fill="#ffc880" stroke="#000000" cx="359.8472" cy="-234" rx="84.485" ry="18"/>
<text text-anchor="middle" x="359.8472" y="-230.3" font-family="Times,serif" font-size="14.00" fill="#000000">MetrologicalSymbol</text>
</a>
</g>
</g>
<!-- PhysicsDimension&#45;&gt;MetrologicalSymbol -->
<g id="edge6" class="edge">
<title>PhysicsDimension&#45;&gt;MetrologicalSymbol</title>
<path fill="none" stroke="#000000" d="M303.3865,-179.7978C312.6505,-188.6912 324.0094,-199.5958 334.1039,-209.2865"/>
<polygon fill="none" stroke="#000000" points="331.8833,-212.0065 341.5211,-216.407 336.7311,-206.9568 331.8833,-212.0065"/>
</g>
<!-- BaseUnit -->
<g id="node3" class="node">
<title>BaseUnit</title>
<g id="a_node3"><a xlink:href="http://emmo.info/emmo/middle/metrology#EMMO_db716151_6b73_45ff_910c_d182fdcbb4f5" xlink:title="BaseUnit">
<ellipse fill="#ffffcc" stroke="#000000" cx="310.8472" cy="-90" rx="43.5923" ry="18"/>
<text text-anchor="middle" x="310.8472" y="-86.3" font-family="Times,serif" font-size="14.00" fill="#000000">BaseUnit</text>
</a>
</g>
</g>
<!-- BaseUnit&#45;&gt;UnitSymbol -->
<g id="edge11" class="edge">
<title>BaseUnit&#45;&gt;UnitSymbol</title>
<path fill="none" stroke="#000000" d="M336.0349,-104.744C353.9539,-115.2332 378.2807,-129.4733 398.1905,-141.1278"/>
<polygon fill="none" stroke="#000000" points="396.5902,-144.2466 406.9885,-146.2778 400.1265,-138.2055 396.5902,-144.2466"/>
</g>
<!-- UnitOne -->
<g id="node4" class="node">
<title>UnitOne</title>
<g id="a_node4"><a xlink:href="http://emmo.info/emmo/middle/metrology#EMMO_5ebd5e01_0ed3_49a2_a30d_cd05cbe72978" xlink:title="UnitOne">
<ellipse fill="#ffffcc" stroke="#000000" cx="310.8472" cy="-18" rx="40.8928" ry="18"/>
<text text-anchor="middle" x="310.8472" y="-14.3" font-family="Times,serif" font-size="14.00" fill="#000000">UnitOne</text>
</a>
</g>
</g>
<!-- UnitOne&#45;&gt;BaseUnit -->
<g id="edge4" class="edge">
<title>UnitOne&#45;&gt;BaseUnit</title>
<path fill="none" stroke="#000000" d="M310.8472,-36.1686C310.8472,-43.869 310.8472,-53.0257 310.8472,-61.5834"/>
<polygon fill="none" stroke="#000000" points="307.3473,-61.5867 310.8472,-71.5867 314.3473,-61.5868 307.3473,-61.5867"/>
</g>
<!-- Symbol -->
<g id="node6" class="node">
<title>Symbol</title>
<g id="a_node6"><a xlink:href="http://emmo.info/emmo/middle/perceptual#EMMO_a1083d0a_c1fb_471f_8e20_a98f881ad527" xlink:title="Symbol">
<ellipse fill="#ffffcc" stroke="#000000" stroke-width="2" cx="169.8472" cy="-306" rx="38.1938" ry="18"/>
<text text-anchor="middle" x="169.8472" y="-302.3" font-family="Times,serif" font-size="14.00" fill="#000000">Symbol</text>
</a>
</g>
</g>
<!-- MetrologicalSymbol&#45;&gt;Symbol -->
<g id="edge5" class="edge">
<title>MetrologicalSymbol&#45;&gt;Symbol</title>
<path fill="none" stroke="#000000" d="M318.1509,-249.8007C285.779,-262.0679 241.1981,-278.9618 209.3859,-291.0169"/>
<polygon fill="none" stroke="#000000" points="208.0616,-287.7758 199.9508,-294.5923 210.5422,-294.3216 208.0616,-287.7758"/>
</g>
<!-- SpecialUnit -->
<g id="node7" class="node">
<title>SpecialUnit</title>
<g id="a_node7"><a xlink:href="http://emmo.info/emmo/middle/metrology#EMMO_3ee80521_3c23_4dd1_935d_9d522614a3e2" xlink:title="SpecialUnit">
<ellipse fill="#ffffcc" stroke="#000000" cx="565.8472" cy="-90" rx="51.9908" ry="18"/>
<text text-anchor="middle" x="565.8472" y="-86.3" font-family="Times,serif" font-size="14.00" fill="#000000">SpecialUnit</text>
</a>
</g>
</g>
<!-- SpecialUnit&#45;&gt;UnitSymbol -->
<g id="edge12" class="edge">
<title>SpecialUnit&#45;&gt;UnitSymbol</title>
<path fill="none" stroke="#000000" d="M537.8534,-105.2693C518.472,-115.841 492.4575,-130.0307 471.2948,-141.574"/>
<polygon fill="none" stroke="#000000" points="469.3587,-138.6432 462.2557,-146.5044 472.7107,-144.7885 469.3587,-138.6432"/>
</g>
<!-- UTF8 -->
<g id="node8" class="node">
<title>UTF8</title>
<g id="a_node8"><a xlink:href="http://emmo.info/emmo/middle/metrology#EMMO_e13b2173_1dec_4b97_9ac1_1dc4b418612a" xlink:title="UTF8">
<ellipse fill="#ffffcc" stroke="#000000" stroke-width="2" cx="31.8472" cy="-234" rx="31.6951" ry="18"/>
<text text-anchor="middle" x="31.8472" y="-230.3" font-family="Times,serif" font-size="14.00" fill="#000000">UTF8</text>
</a>
</g>
</g>
<!-- UTF8&#45;&gt;Symbol -->
<g id="edge3" class="edge">
<title>UTF8&#45;&gt;Symbol</title>
<path fill="none" stroke="#000000" d="M55.257,-246.2138C77.0769,-257.5981 109.9065,-274.7266 134.841,-287.7359"/>
<polygon fill="none" stroke="#000000" points="133.4866,-290.9769 143.9714,-292.4996 136.7246,-284.7708 133.4866,-290.9769"/>
</g>
<!-- UnitSymbol&#45;&gt;MetrologicalSymbol -->
<g id="edge9" class="edge">
<title>UnitSymbol&#45;&gt;MetrologicalSymbol</title>
<path fill="none" stroke="#000000" d="M416.3102,-179.063C407.0243,-188.0979 395.452,-199.3575 385.2058,-209.3267"/>
<polygon fill="none" stroke="#000000" points="382.7576,-206.8254 378.0311,-216.3076 387.6391,-211.8426 382.7576,-206.8254"/>
</g>
<!-- SISpecialUnit -->
<g id="node10" class="node">
<title>SISpecialUnit</title>
<g id="a_node10"><a xlink:href="http://emmo.info/emmo/middle/siunits#EMMO_e9ffc696_5228_4ff9_8a60_0f5e05e9931b" xlink:title="SISpecialUnit">
<ellipse fill="#ffffcc" stroke="#000000" stroke-width="2" cx="560.8472" cy="-18" rx="59.5901" ry="18"/>
<text text-anchor="middle" x="560.8472" y="-14.3" font-family="Times,serif" font-size="14.00" fill="#000000">SISpecialUnit</text>
</a>
</g>
</g>
<!-- SISpecialUnit&#45;&gt;SIUnitSymbol -->
<g id="edge2" class="edge">
<title>SISpecialUnit&#45;&gt;SIUnitSymbol</title>
<path fill="none" stroke="#000000" d="M532.6618,-33.9791C514.5376,-44.2542 490.7856,-57.7199 471.1109,-68.8741"/>
<polygon fill="none" stroke="#000000" points="469.3661,-65.8399 462.393,-73.8166 472.8184,-71.9294 469.3661,-65.8399"/>
</g>
<!-- SISpecialUnit&#45;&gt;SpecialUnit -->
<g id="edge1" class="edge">
<title>SISpecialUnit&#45;&gt;SpecialUnit</title>
<path fill="none" stroke="#000000" d="M562.1089,-36.1686C562.6436,-43.869 563.2795,-53.0257 563.8738,-61.5834"/>
<polygon fill="none" stroke="#000000" points="560.384,-61.8533 564.5685,-71.5867 567.3672,-61.3683 560.384,-61.8533"/>
</g>
<!-- MathematicalSymbol -->
<g id="node11" class="node">
<title>MathematicalSymbol</title>
<g id="a_node11"><a xlink:href="http://emmo.info/emmo/middle/math#EMMO_5be83f9c_a4ba_4b9a_be1a_5bfc6e891231" xlink:title="MathematicalSymbol">
<ellipse fill="#ffc880" stroke="#000000" stroke-width="2" cx="169.8472" cy="-234" rx="87.9851" ry="18"/>
<text text-anchor="middle" x="169.8472" y="-230.3" font-family="Times,serif" font-size="14.00" fill="#000000">MathematicalSymbol</text>
</a>
</g>
</g>
<!-- MathematicalSymbol&#45;&gt;Symbol -->
<g id="edge10" class="edge">
<title>MathematicalSymbol&#45;&gt;Symbol</title>
<path fill="none" stroke="#000000" d="M169.8472,-252.1686C169.8472,-259.869 169.8472,-269.0257 169.8472,-277.5834"/>
<polygon fill="none" stroke="#000000" points="166.3473,-277.5867 169.8472,-287.5867 173.3473,-277.5868 166.3473,-277.5867"/>
</g>
<!-- SIBaseUnit -->
<g id="node12" class="node">
<title>SIBaseUnit</title>
<g id="a_node12"><a xlink:href="http://emmo.info/emmo/middle/siunits#EMMO_3a185e6c_9e19_4776_b583_19c978156aa0" xlink:title="SIBaseUnit">
<ellipse fill="#ffffcc" stroke="#000000" stroke-width="2" cx="426.8472" cy="-18" rx="51.1914" ry="18"/>
<text text-anchor="middle" x="426.8472" y="-14.3" font-family="Times,serif" font-size="14.00" fill="#000000">SIBaseUnit</text>
</a>
</g>
</g>
<!-- SIBaseUnit&#45;&gt;SIUnitSymbol -->
<g id="edge8" class="edge">
<title>SIBaseUnit&#45;&gt;SIUnitSymbol</title>
<path fill="none" stroke="#000000" d="M428.6136,-36.1686C429.3622,-43.869 430.2524,-53.0257 431.0844,-61.5834"/>
<polygon fill="none" stroke="#000000" points="427.6057,-61.9724 432.057,-71.5867 434.5728,-61.2949 427.6057,-61.9724"/>
</g>
<!-- SIBaseUnit&#45;&gt;BaseUnit -->
<g id="edge7" class="edge">
<title>SIBaseUnit&#45;&gt;BaseUnit</title>
<path fill="none" stroke="#000000" d="M401.3905,-33.8007C384.4256,-44.3306 361.9685,-58.2695 343.6642,-69.6308"/>
<polygon fill="none" stroke="#000000" points="341.7049,-66.7275 335.0542,-74.9749 345.3964,-72.675 341.7049,-66.7275"/>
</g>
<!-- key1 -->
<g id="node13" class="node">
<title>key1</title>
<text text-anchor="start" x="656.8472" y="-13.8" font-family="Times,serif" font-size="14.00" fill="#000000">isA</text>
</g>
<!-- key2 -->
<g id="node14" class="node">
<title>key2</title>
<text text-anchor="start" x="735.8472" y="-13.8" font-family="Times,serif" font-size="14.00" fill="#000000"> </text>
</g>
<!-- key1&#45;&gt;key2 -->
<g id="edge14" class="edge">
<title>key1:e&#45;&gt;key2:w</title>
<path fill="none" stroke="#000000" d="M677.8472,-19C698.8472,-19 706.5581,-19 723.4053,-19"/>
<polygon fill="none" stroke="#000000" points="723.8472,-22.5001 733.8472,-19 723.8471,-15.5001 723.8472,-22.5001"/>
</g>
</g>
</svg>
