<?xml version="1.0" encoding="UTF-8" standalone="no"?>
<!DOCTYPE svg PUBLIC "-//W3C//DTD SVG 1.1//EN"
 "http://www.w3.org/Graphics/SVG/1.1/DTD/svg11.dtd">
<!-- Generated by graphviz version 2.40.1 (20161225.0304)
 -->
<!-- Title: %3 Pages: 1 -->
<svg width="542pt" height="332pt"
 viewBox="0.00 0.00 541.69 332.00" xmlns="http://www.w3.org/2000/svg" xmlns:xlink="http://www.w3.org/1999/xlink">
<g id="graph0" class="graph" transform="scale(1 1) rotate(0) translate(4 328)">
<title>%3</title>
<polygon fill="#ffffff" stroke="transparent" points="-4,4 -4,-328 537.6932,-328 537.6932,4 -4,4"/>
<!-- PhysicsDimension -->
<g id="node1" class="node">
<title>PhysicsDimension</title>
<g id="a_node1"><a xlink:href="http://emmo.info/emmo/middle/metrology#EMMO_9895a1b4_f0a5_4167_ac5e_97db40b8bfcc" xlink:title="PhysicsDimension">
<ellipse fill="#ffffcc" stroke="#000000" stroke-width="2" cx="76.6932" cy="-162" rx="76.8869" ry="18"/>
<text text-anchor="middle" x="76.6932" y="-158.3" font-family="Times,serif" font-size="14.00" fill="#000000">PhysicsDimension</text>
</a>
</g>
</g>
<!-- MetrologicalSymbol -->
<g id="node2" class="node">
<title>MetrologicalSymbol</title>
<g id="a_node2"><a xlink:href="http://emmo.info/emmo/middle/metrology#EMMO_50a3552e_859a_4ff7_946d_76d537cabce6" xlink:title="MetrologicalSymbol">
<ellipse fill="#ffc880" stroke="#000000" cx="150.6932" cy="-234" rx="84.485" ry="18"/>
<text text-anchor="middle" x="150.6932" y="-230.3" font-family="Times,serif" font-size="14.00" fill="#000000">MetrologicalSymbol</text>
</a>
</g>
</g>
<!-- PhysicsDimension&#45;&gt;MetrologicalSymbol -->
<g id="edge8" class="edge">
<title>PhysicsDimension&#45;&gt;MetrologicalSymbol</title>
<path fill="none" stroke="#000000" d="M94.9853,-179.7978C104.1258,-188.6912 115.3333,-199.5958 125.2932,-209.2865"/>
<polygon fill="none" stroke="#000000" points="123.0034,-211.9419 132.6115,-216.407 127.8849,-206.9248 123.0034,-211.9419"/>
</g>
<!-- Symbol -->
<g id="node4" class="node">
<title>Symbol</title>
<g id="a_node4"><a xlink:href="http://emmo.info/emmo/middle/perceptual#EMMO_a1083d0a_c1fb_471f_8e20_a98f881ad527" xlink:title="Symbol">
<ellipse fill="#ffffcc" stroke="#000000" stroke-width="2" cx="284.6932" cy="-306" rx="38.1938" ry="18"/>
<text text-anchor="middle" x="284.6932" y="-302.3" font-family="Times,serif" font-size="14.00" fill="#000000">Symbol</text>
</a>
</g>
</g>
<!-- MetrologicalSymbol&#45;&gt;Symbol -->
<g id="edge13" class="edge">
<title>MetrologicalSymbol&#45;&gt;Symbol</title>
<path fill="none" stroke="#000000" d="M182.1102,-250.8808C202.5951,-261.8876 229.3317,-276.2535 250.3733,-287.5594"/>
<polygon fill="none" stroke="#000000" points="248.8361,-290.7067 259.3017,-292.3568 252.1494,-284.5405 248.8361,-290.7067"/>
</g>
<!-- UnitSymbol -->
<g id="node3" class="node">
<title>UnitSymbol</title>
<g id="a_node3"><a xlink:href="http://emmo.info/emmo/middle/metrology#EMMO_216f448e_cdbc_4aeb_a529_7a5fe7fc38bb" xlink:title="UnitSymbol">
<ellipse fill="#ffc880" stroke="#000000" cx="225.6932" cy="-162" rx="53.8905" ry="18"/>
<text text-anchor="middle" x="225.6932" y="-158.3" font-family="Times,serif" font-size="14.00" fill="#000000">UnitSymbol</text>
</a>
</g>
</g>
<!-- UnitSymbol&#45;&gt;MetrologicalSymbol -->
<g id="edge9" class="edge">
<title>UnitSymbol&#45;&gt;MetrologicalSymbol</title>
<path fill="none" stroke="#000000" d="M207.9192,-179.063C198.5079,-188.0979 186.7791,-199.3575 176.3945,-209.3267"/>
<polygon fill="none" stroke="#000000" points="173.9128,-206.8574 169.1228,-216.3076 178.7606,-211.9071 173.9128,-206.8574"/>
</g>
<!-- UTF8 -->
<g id="node5" class="node">
<title>UTF8</title>
<g id="a_node5"><a xlink:href="http://emmo.info/emmo/middle/metrology#EMMO_e13b2173_1dec_4b97_9ac1_1dc4b418612a" xlink:title="UTF8">
<ellipse fill="#ffffcc" stroke="#000000" stroke-width="2" cx="284.6932" cy="-234" rx="31.6951" ry="18"/>
<text text-anchor="middle" x="284.6932" y="-230.3" font-family="Times,serif" font-size="14.00" fill="#000000">UTF8</text>
</a>
</g>
</g>
<!-- UTF8&#45;&gt;Symbol -->
<g id="edge12" class="edge">
<title>UTF8&#45;&gt;Symbol</title>
<path fill="none" stroke="#000000" d="M284.6932,-252.1686C284.6932,-259.869 284.6932,-269.0257 284.6932,-277.5834"/>
<polygon fill="none" stroke="#000000" points="281.1933,-277.5867 284.6932,-287.5867 288.1933,-277.5868 281.1933,-277.5867"/>
</g>
<!-- SISpecialUnit -->
<g id="node6" class="node">
<title>SISpecialUnit</title>
<g id="a_node6"><a xlink:href="http://emmo.info/emmo/middle/siunits#EMMO_e9ffc696_5228_4ff9_8a60_0f5e05e9931b" xlink:title="SISpecialUnit">
<ellipse fill="#ffffcc" stroke="#000000" stroke-width="2" cx="101.6932" cy="-18" rx="59.5901" ry="18"/>
<text text-anchor="middle" x="101.6932" y="-14.3" font-family="Times,serif" font-size="14.00" fill="#000000">SISpecialUnit</text>
</a>
</g>
</g>
<!-- SIUnitSymbol -->
<g id="node9" class="node">
<title>SIUnitSymbol</title>
<g id="a_node9"><a xlink:href="http://emmo.info/emmo/middle/siunits#EMMO_32129fb5_df25_48fd_a29c_18a2f22a2dd5" xlink:title="SIUnitSymbol">
<ellipse fill="#ffffcc" stroke="#000000" cx="225.6932" cy="-90" rx="61.99" ry="18"/>
<text text-anchor="middle" x="225.6932" y="-86.3" font-family="Times,serif" font-size="14.00" fill="#000000">SIUnitSymbol</text>
</a>
</g>
</g>
<!-- SISpecialUnit&#45;&gt;SIUnitSymbol -->
<g id="edge2" class="edge">
<title>SISpecialUnit&#45;&gt;SIUnitSymbol</title>
<path fill="none" stroke="#000000" d="M129.5212,-34.1582C147.151,-44.3948 170.1416,-57.7442 189.2231,-68.8238"/>
<polygon fill="none" stroke="#000000" points="187.5527,-71.9011 197.9581,-73.8957 191.0676,-65.8476 187.5527,-71.9011"/>
</g>
<!-- SpecialUnit -->
<g id="node12" class="node">
<title>SpecialUnit</title>
<g id="a_node12"><a xlink:href="http://emmo.info/emmo/middle/metrology#EMMO_3ee80521_3c23_4dd1_935d_9d522614a3e2" xlink:title="SpecialUnit">
<ellipse fill="#ffffcc" stroke="#000000" cx="93.6932" cy="-90" rx="51.9908" ry="18"/>
<text text-anchor="middle" x="93.6932" y="-86.3" font-family="Times,serif" font-size="14.00" fill="#000000">SpecialUnit</text>
</a>
</g>
</g>
<!-- SISpecialUnit&#45;&gt;SpecialUnit -->
<g id="edge1" class="edge">
<title>SISpecialUnit&#45;&gt;SpecialUnit</title>
<path fill="none" stroke="#000000" d="M99.6745,-36.1686C98.8189,-43.869 97.8015,-53.0257 96.8506,-61.5834"/>
<polygon fill="none" stroke="#000000" points="93.3649,-61.2614 95.7391,-71.5867 100.3221,-62.0344 93.3649,-61.2614"/>
</g>
<!-- MathematicalSymbol -->
<g id="node7" class="node">
<title>MathematicalSymbol</title>
<g id="a_node7"><a xlink:href="http://emmo.info/emmo/middle/math#EMMO_5be83f9c_a4ba_4b9a_be1a_5bfc6e891231" xlink:title="MathematicalSymbol">
<ellipse fill="#ffc880" stroke="#000000" stroke-width="2" cx="422.6932" cy="-234" rx="87.9851" ry="18"/>
<text text-anchor="middle" x="422.6932" y="-230.3" font-family="Times,serif" font-size="14.00" fill="#000000">MathematicalSymbol</text>
</a>
</g>
</g>
<!-- MathematicalSymbol&#45;&gt;Symbol -->
<g id="edge10" class="edge">
<title>MathematicalSymbol&#45;&gt;Symbol</title>
<path fill="none" stroke="#000000" d="M390.3383,-250.8808C369.0079,-262.0097 341.0956,-276.5727 319.3187,-287.9345"/>
<polygon fill="none" stroke="#000000" points="317.6453,-284.8598 310.3984,-292.5886 320.8833,-291.0659 317.6453,-284.8598"/>
</g>
<!-- SIBaseUnit -->
<g id="node8" class="node">
<title>SIBaseUnit</title>
<g id="a_node8"><a xlink:href="http://emmo.info/emmo/middle/siunits#EMMO_3a185e6c_9e19_4776_b583_19c978156aa0" xlink:title="SIBaseUnit">
<ellipse fill="#ffffcc" stroke="#000000" stroke-width="2" cx="231.6932" cy="-18" rx="51.1914" ry="18"/>
<text text-anchor="middle" x="231.6932" y="-14.3" font-family="Times,serif" font-size="14.00" fill="#000000">SIBaseUnit</text>
</a>
</g>
</g>
<!-- SIBaseUnit&#45;&gt;SIUnitSymbol -->
<g id="edge4" class="edge">
<title>SIBaseUnit&#45;&gt;SIUnitSymbol</title>
<path fill="none" stroke="#000000" d="M230.1791,-36.1686C229.5374,-43.869 228.7744,-53.0257 228.0612,-61.5834"/>
<polygon fill="none" stroke="#000000" points="224.5703,-61.3306 227.2276,-71.5867 231.5461,-61.912 224.5703,-61.3306"/>
</g>
<!-- BaseUnit -->
<g id="node10" class="node">
<title>BaseUnit</title>
<g id="a_node10"><a xlink:href="http://emmo.info/emmo/middle/metrology#EMMO_db716151_6b73_45ff_910c_d182fdcbb4f5" xlink:title="BaseUnit">
<ellipse fill="#ffffcc" stroke="#000000" cx="348.6932" cy="-90" rx="43.5923" ry="18"/>
<text text-anchor="middle" x="348.6932" y="-86.3" font-family="Times,serif" font-size="14.00" fill="#000000">BaseUnit</text>
</a>
</g>
</g>
<!-- SIBaseUnit&#45;&gt;BaseUnit -->
<g id="edge3" class="edge">
<title>SIBaseUnit&#45;&gt;BaseUnit</title>
<path fill="none" stroke="#000000" d="M257.3693,-33.8007C274.4805,-44.3306 297.1311,-58.2695 315.5933,-69.6308"/>
<polygon fill="none" stroke="#000000" points="313.9265,-72.7147 324.2774,-74.9749 317.5952,-66.7531 313.9265,-72.7147"/>
</g>
<!-- SIUnitSymbol&#45;&gt;UnitSymbol -->
<g id="edge5" class="edge">
<title>SIUnitSymbol&#45;&gt;UnitSymbol</title>
<path fill="none" stroke="#000000" d="M225.6932,-108.1686C225.6932,-115.869 225.6932,-125.0257 225.6932,-133.5834"/>
<polygon fill="none" stroke="#000000" points="222.1933,-133.5867 225.6932,-143.5867 229.1933,-133.5868 222.1933,-133.5867"/>
</g>
<!-- BaseUnit&#45;&gt;UnitSymbol -->
<g id="edge6" class="edge">
<title>BaseUnit&#45;&gt;UnitSymbol</title>
<path fill="none" stroke="#000000" d="M323.5055,-104.744C305.5864,-115.2332 281.2597,-129.4733 261.3499,-141.1278"/>
<polygon fill="none" stroke="#000000" points="259.4139,-138.2055 252.5519,-146.2778 262.9502,-144.2466 259.4139,-138.2055"/>
</g>
<!-- UnitOne -->
<g id="node11" class="node">
<title>UnitOne</title>
<g id="a_node11"><a xlink:href="http://emmo.info/emmo/middle/metrology#EMMO_5ebd5e01_0ed3_49a2_a30d_cd05cbe72978" xlink:title="UnitOne">
<ellipse fill="#ffffcc" stroke="#000000" cx="348.6932" cy="-18" rx="40.8928" ry="18"/>
<text text-anchor="middle" x="348.6932" y="-14.3" font-family="Times,serif" font-size="14.00" fill="#000000">UnitOne</text>
</a>
</g>
</g>
<!-- UnitOne&#45;&gt;BaseUnit -->
<g id="edge7" class="edge">
<title>UnitOne&#45;&gt;BaseUnit</title>
<path fill="none" stroke="#000000" d="M348.6932,-36.1686C348.6932,-43.869 348.6932,-53.0257 348.6932,-61.5834"/>
<polygon fill="none" stroke="#000000" points="345.1933,-61.5867 348.6932,-71.5867 352.1933,-61.5868 345.1933,-61.5867"/>
</g>
<!-- SpecialUnit&#45;&gt;UnitSymbol -->
<g id="edge11" class="edge">
<title>SpecialUnit&#45;&gt;UnitSymbol</title>
<path fill="none" stroke="#000000" d="M121.687,-105.2693C141.0684,-115.841 167.0829,-130.0307 188.2456,-141.574"/>
<polygon fill="none" stroke="#000000" points="186.8297,-144.7885 197.2847,-146.5044 190.1817,-138.6432 186.8297,-144.7885"/>
</g>
<!-- key1 -->
<g id="node13" class="node">
<title>key1</title>
<text text-anchor="start" x="425.6932" y="-13.8" font-family="Times,serif" font-size="14.00" fill="#000000">isA</text>
</g>
<!-- key2 -->
<g id="node14" class="node">
<title>key2</title>
<text text-anchor="start" x="504.6932" y="-13.8" font-family="Times,serif" font-size="14.00" fill="#000000"> </text>
</g>
<!-- key1&#45;&gt;key2 -->
<g id="edge14" class="edge">
<title>key1:e&#45;&gt;key2:w</title>
<path fill="none" stroke="#000000" d="M446.6932,-19C467.6932,-19 475.4041,-19 492.2513,-19"/>
<polygon fill="none" stroke="#000000" points="492.6932,-22.5001 502.6932,-19 492.6932,-15.5001 492.6932,-22.5001"/>
</g>
</g>
</svg>
