<?xml version="1.0" encoding="UTF-8" standalone="no"?>
<!DOCTYPE svg PUBLIC "-//W3C//DTD SVG 1.1//EN"
 "http://www.w3.org/Graphics/SVG/1.1/DTD/svg11.dtd">
<!-- Generated by graphviz version 2.40.1 (20161225.0304)
 -->
<!-- Title: %3 Pages: 1 -->
<svg width="608pt" height="332pt"
 viewBox="0.00 0.00 608.29 332.00" xmlns="http://www.w3.org/2000/svg" xmlns:xlink="http://www.w3.org/1999/xlink">
<g id="graph0" class="graph" transform="scale(1 1) rotate(0) translate(4 328)">
<title>%3</title>
<polygon fill="#ffffff" stroke="transparent" points="-4,4 -4,-328 604.2884,-328 604.2884,4 -4,4"/>
<!-- UnitOne -->
<g id="node1" class="node">
<title>UnitOne</title>
<g id="a_node1"><a xlink:href="http://emmo.info/emmo/middle/metrology#EMMO_5ebd5e01_0ed3_49a2_a30d_cd05cbe72978" xlink:title="UnitOne">
<ellipse fill="#ffffcc" stroke="#000000" cx="43.5461" cy="-18" rx="40.8928" ry="18"/>
<text text-anchor="middle" x="43.5461" y="-14.3" font-family="Times,serif" font-size="14.00" fill="#000000">UnitOne</text>
</a>
</g>
</g>
<!-- BaseUnit -->
<g id="node12" class="node">
<title>BaseUnit</title>
<g id="a_node12"><a xlink:href="http://emmo.info/emmo/middle/metrology#EMMO_db716151_6b73_45ff_910c_d182fdcbb4f5" xlink:title="BaseUnit">
<ellipse fill="#ffffcc" stroke="#000000" cx="43.5461" cy="-90" rx="43.5923" ry="18"/>
<text text-anchor="middle" x="43.5461" y="-86.3" font-family="Times,serif" font-size="14.00" fill="#000000">BaseUnit</text>
</a>
</g>
</g>
<!-- UnitOne&#45;&gt;BaseUnit -->
<g id="edge5" class="edge">
<title>UnitOne&#45;&gt;BaseUnit</title>
<path fill="none" stroke="#000000" d="M43.5461,-36.1686C43.5461,-43.869 43.5461,-53.0257 43.5461,-61.5834"/>
<polygon fill="none" stroke="#000000" points="40.0462,-61.5867 43.5461,-71.5867 47.0462,-61.5868 40.0462,-61.5867"/>
</g>
<!-- MetrologicalSymbol -->
<g id="node2" class="node">
<title>MetrologicalSymbol</title>
<g id="a_node2"><a xlink:href="http://emmo.info/emmo/middle/metrology#EMMO_50a3552e_859a_4ff7_946d_76d537cabce6" xlink:title="MetrologicalSymbol">
<ellipse fill="#ffc880" stroke="#000000" cx="240.5461" cy="-234" rx="84.485" ry="18"/>
<text text-anchor="middle" x="240.5461" y="-230.3" font-family="Times,serif" font-size="14.00" fill="#000000">MetrologicalSymbol</text>
</a>
</g>
</g>
<!-- Symbol -->
<g id="node3" class="node">
<title>Symbol</title>
<g id="a_node3"><a xlink:href="http://emmo.info/emmo/middle/perceptual#EMMO_a1083d0a_c1fb_471f_8e20_a98f881ad527" xlink:title="Symbol">
<ellipse fill="#ffffcc" stroke="#000000" stroke-width="2" cx="374.5461" cy="-306" rx="38.1938" ry="18"/>
<text text-anchor="middle" x="374.5461" y="-302.3" font-family="Times,serif" font-size="14.00" fill="#000000">Symbol</text>
</a>
</g>
</g>
<!-- MetrologicalSymbol&#45;&gt;Symbol -->
<g id="edge7" class="edge">
<title>MetrologicalSymbol&#45;&gt;Symbol</title>
<path fill="none" stroke="#000000" d="M271.9632,-250.8808C292.4481,-261.8876 319.1847,-276.2535 340.2262,-287.5594"/>
<polygon fill="none" stroke="#000000" points="338.6891,-290.7067 349.1547,-292.3568 342.0023,-284.5405 338.6891,-290.7067"/>
</g>
<!-- SpecialUnit -->
<g id="node4" class="node">
<title>SpecialUnit</title>
<g id="a_node4"><a xlink:href="http://emmo.info/emmo/middle/metrology#EMMO_3ee80521_3c23_4dd1_935d_9d522614a3e2" xlink:title="SpecialUnit">
<ellipse fill="#ffffcc" stroke="#000000" cx="298.5461" cy="-90" rx="51.9908" ry="18"/>
<text text-anchor="middle" x="298.5461" y="-86.3" font-family="Times,serif" font-size="14.00" fill="#000000">SpecialUnit</text>
</a>
</g>
</g>
<!-- UnitSymbol -->
<g id="node6" class="node">
<title>UnitSymbol</title>
<g id="a_node6"><a xlink:href="http://emmo.info/emmo/middle/metrology#EMMO_216f448e_cdbc_4aeb_a529_7a5fe7fc38bb" xlink:title="UnitSymbol">
<ellipse fill="#ffc880" stroke="#000000" cx="166.5461" cy="-162" rx="53.8905" ry="18"/>
<text text-anchor="middle" x="166.5461" y="-158.3" font-family="Times,serif" font-size="14.00" fill="#000000">UnitSymbol</text>
</a>
</g>
</g>
<!-- SpecialUnit&#45;&gt;UnitSymbol -->
<g id="edge4" class="edge">
<title>SpecialUnit&#45;&gt;UnitSymbol</title>
<path fill="none" stroke="#000000" d="M270.5523,-105.2693C251.1709,-115.841 225.1564,-130.0307 203.9938,-141.574"/>
<polygon fill="none" stroke="#000000" points="202.0576,-138.6432 194.9547,-146.5044 205.4096,-144.7885 202.0576,-138.6432"/>
</g>
<!-- UTF8 -->
<g id="node5" class="node">
<title>UTF8</title>
<g id="a_node5"><a xlink:href="http://emmo.info/emmo/middle/metrology#EMMO_e13b2173_1dec_4b97_9ac1_1dc4b418612a" xlink:title="UTF8">
<ellipse fill="#ffffcc" stroke="#000000" stroke-width="2" cx="374.5461" cy="-234" rx="31.6951" ry="18"/>
<text text-anchor="middle" x="374.5461" y="-230.3" font-family="Times,serif" font-size="14.00" fill="#000000">UTF8</text>
</a>
</g>
</g>
<!-- UTF8&#45;&gt;Symbol -->
<g id="edge6" class="edge">
<title>UTF8&#45;&gt;Symbol</title>
<path fill="none" stroke="#000000" d="M374.5461,-252.1686C374.5461,-259.869 374.5461,-269.0257 374.5461,-277.5834"/>
<polygon fill="none" stroke="#000000" points="371.0462,-277.5867 374.5461,-287.5867 378.0462,-277.5868 371.0462,-277.5867"/>
</g>
<!-- UnitSymbol&#45;&gt;MetrologicalSymbol -->
<g id="edge9" class="edge">
<title>UnitSymbol&#45;&gt;MetrologicalSymbol</title>
<path fill="none" stroke="#000000" d="M184.0831,-179.063C193.369,-188.0979 204.9413,-199.3575 215.1875,-209.3267"/>
<polygon fill="none" stroke="#000000" points="212.7542,-211.8426 222.3623,-216.3076 217.6357,-206.8254 212.7542,-211.8426"/>
</g>
<!-- SISpecialUnit -->
<g id="node7" class="node">
<title>SISpecialUnit</title>
<g id="a_node7"><a xlink:href="http://emmo.info/emmo/middle/siunits#EMMO_e9ffc696_5228_4ff9_8a60_0f5e05e9931b" xlink:title="SISpecialUnit">
<ellipse fill="#ffffcc" stroke="#000000" stroke-width="2" cx="293.5461" cy="-18" rx="59.5901" ry="18"/>
<text text-anchor="middle" x="293.5461" y="-14.3" font-family="Times,serif" font-size="14.00" fill="#000000">SISpecialUnit</text>
</a>
</g>
</g>
<!-- SISpecialUnit&#45;&gt;SpecialUnit -->
<g id="edge2" class="edge">
<title>SISpecialUnit&#45;&gt;SpecialUnit</title>
<path fill="none" stroke="#000000" d="M294.8078,-36.1686C295.3426,-43.869 295.9785,-53.0257 296.5728,-61.5834"/>
<polygon fill="none" stroke="#000000" points="293.083,-61.8533 297.2674,-71.5867 300.0662,-61.3683 293.083,-61.8533"/>
</g>
<!-- SIUnitSymbol -->
<g id="node10" class="node">
<title>SIUnitSymbol</title>
<g id="a_node10"><a xlink:href="http://emmo.info/emmo/middle/siunits#EMMO_32129fb5_df25_48fd_a29c_18a2f22a2dd5" xlink:title="SIUnitSymbol">
<ellipse fill="#ffffcc" stroke="#000000" cx="166.5461" cy="-90" rx="61.99" ry="18"/>
<text text-anchor="middle" x="166.5461" y="-86.3" font-family="Times,serif" font-size="14.00" fill="#000000">SIUnitSymbol</text>
</a>
</g>
</g>
<!-- SISpecialUnit&#45;&gt;SIUnitSymbol -->
<g id="edge3" class="edge">
<title>SISpecialUnit&#45;&gt;SIUnitSymbol</title>
<path fill="none" stroke="#000000" d="M265.3607,-33.9791C247.2366,-44.2542 223.4846,-57.7199 203.8099,-68.8741"/>
<polygon fill="none" stroke="#000000" points="202.065,-65.8399 195.0919,-73.8166 205.5173,-71.9294 202.065,-65.8399"/>
</g>
<!-- MathematicalSymbol -->
<g id="node8" class="node">
<title>MathematicalSymbol</title>
<g id="a_node8"><a xlink:href="http://emmo.info/emmo/middle/math#EMMO_5be83f9c_a4ba_4b9a_be1a_5bfc6e891231" xlink:title="MathematicalSymbol">
<ellipse fill="#ffc880" stroke="#000000" stroke-width="2" cx="512.5461" cy="-234" rx="87.9851" ry="18"/>
<text text-anchor="middle" x="512.5461" y="-230.3" font-family="Times,serif" font-size="14.00" fill="#000000">MathematicalSymbol</text>
</a>
</g>
</g>
<!-- MathematicalSymbol&#45;&gt;Symbol -->
<g id="edge1" class="edge">
<title>MathematicalSymbol&#45;&gt;Symbol</title>
<path fill="none" stroke="#000000" d="M480.1913,-250.8808C458.8609,-262.0097 430.9485,-276.5727 409.1716,-287.9345"/>
<polygon fill="none" stroke="#000000" points="407.4982,-284.8598 400.2514,-292.5886 410.7362,-291.0659 407.4982,-284.8598"/>
</g>
<!-- SIBaseUnit -->
<g id="node9" class="node">
<title>SIBaseUnit</title>
<g id="a_node9"><a xlink:href="http://emmo.info/emmo/middle/siunits#EMMO_3a185e6c_9e19_4776_b583_19c978156aa0" xlink:title="SIBaseUnit">
<ellipse fill="#ffffcc" stroke="#000000" stroke-width="2" cx="159.5461" cy="-18" rx="51.1914" ry="18"/>
<text text-anchor="middle" x="159.5461" y="-14.3" font-family="Times,serif" font-size="14.00" fill="#000000">SIBaseUnit</text>
</a>
</g>
</g>
<!-- SIBaseUnit&#45;&gt;SIUnitSymbol -->
<g id="edge13" class="edge">
<title>SIBaseUnit&#45;&gt;SIUnitSymbol</title>
<path fill="none" stroke="#000000" d="M161.3125,-36.1686C162.0612,-43.869 162.9514,-53.0257 163.7834,-61.5834"/>
<polygon fill="none" stroke="#000000" points="160.3046,-61.9724 164.756,-71.5867 167.2718,-61.2949 160.3046,-61.9724"/>
</g>
<!-- SIBaseUnit&#45;&gt;BaseUnit -->
<g id="edge12" class="edge">
<title>SIBaseUnit&#45;&gt;BaseUnit</title>
<path fill="none" stroke="#000000" d="M134.0894,-33.8007C117.1246,-44.3306 94.6675,-58.2695 76.3631,-69.6308"/>
<polygon fill="none" stroke="#000000" points="74.4038,-66.7275 67.7532,-74.9749 78.0954,-72.675 74.4038,-66.7275"/>
</g>
<!-- SIUnitSymbol&#45;&gt;UnitSymbol -->
<g id="edge11" class="edge">
<title>SIUnitSymbol&#45;&gt;UnitSymbol</title>
<path fill="none" stroke="#000000" d="M166.5461,-108.1686C166.5461,-115.869 166.5461,-125.0257 166.5461,-133.5834"/>
<polygon fill="none" stroke="#000000" points="163.0462,-133.5867 166.5461,-143.5867 170.0462,-133.5868 163.0462,-133.5867"/>
</g>
<!-- PhysicsDimension -->
<g id="node11" class="node">
<title>PhysicsDimension</title>
<g id="a_node11"><a xlink:href="http://emmo.info/emmo/middle/metrology#EMMO_9895a1b4_f0a5_4167_ac5e_97db40b8bfcc" xlink:title="PhysicsDimension">
<ellipse fill="#ffffcc" stroke="#000000" stroke-width="2" cx="315.5461" cy="-162" rx="76.8869" ry="18"/>
<text text-anchor="middle" x="315.5461" y="-158.3" font-family="Times,serif" font-size="14.00" fill="#000000">PhysicsDimension</text>
</a>
</g>
</g>
<!-- PhysicsDimension&#45;&gt;MetrologicalSymbol -->
<g id="edge8" class="edge">
<title>PhysicsDimension&#45;&gt;MetrologicalSymbol</title>
<path fill="none" stroke="#000000" d="M297.0068,-179.7978C287.7428,-188.6912 276.3839,-199.5958 266.2894,-209.2865"/>
<polygon fill="none" stroke="#000000" points="263.6622,-206.9568 258.8722,-216.407 268.51,-212.0065 263.6622,-206.9568"/>
</g>
<!-- BaseUnit&#45;&gt;UnitSymbol -->
<g id="edge10" class="edge">
<title>BaseUnit&#45;&gt;UnitSymbol</title>
<path fill="none" stroke="#000000" d="M68.7338,-104.744C86.6529,-115.2332 110.9797,-129.4733 130.8894,-141.1278"/>
<polygon fill="none" stroke="#000000" points="129.2892,-144.2466 139.6875,-146.2778 132.8254,-138.2055 129.2892,-144.2466"/>
</g>
<!-- key1 -->
<g id="node13" class="node">
<title>key1</title>
<text text-anchor="start" x="389.5461" y="-13.8" font-family="Times,serif" font-size="14.00" fill="#000000">isA</text>
</g>
<!-- key2 -->
<g id="node14" class="node">
<title>key2</title>
<text text-anchor="start" x="468.5461" y="-13.8" font-family="Times,serif" font-size="14.00" fill="#000000"> </text>
</g>
<!-- key1&#45;&gt;key2 -->
<g id="edge14" class="edge">
<title>key1:e&#45;&gt;key2:w</title>
<path fill="none" stroke="#000000" d="M410.5461,-19C431.5461,-19 439.2571,-19 456.1042,-19"/>
<polygon fill="none" stroke="#000000" points="456.5462,-22.5001 466.5461,-19 456.5461,-15.5001 456.5462,-22.5001"/>
</g>
</g>
</svg>
