<?xml version="1.0" encoding="UTF-8" standalone="no"?>
<!DOCTYPE svg PUBLIC "-//W3C//DTD SVG 1.1//EN"
 "http://www.w3.org/Graphics/SVG/1.1/DTD/svg11.dtd">
<!-- Generated by graphviz version 2.40.1 (20161225.0304)
 -->
<!-- Title: %3 Pages: 1 -->
<svg width="1011pt" height="188pt"
 viewBox="0.00 0.00 1011.09 188.00" xmlns="http://www.w3.org/2000/svg" xmlns:xlink="http://www.w3.org/1999/xlink">
<g id="graph0" class="graph" transform="scale(1 1) rotate(0) translate(4 184)">
<title>%3</title>
<polygon fill="#ffffff" stroke="transparent" points="-4,4 -4,-184 1007.0923,-184 1007.0923,4 -4,4"/>
<!-- LatinCapitalLetterA -->
<g id="node1" class="node">
<title>LatinCapitalLetterA</title>
<g id="a_node1"><a xlink:href="http://emmo.info/emmo/middle/metrology#EMMO_2125f2d0_5050_49e3_a579_4c74bc9fd02e" xlink:title="LatinCapitalLetterA">
<ellipse fill="#ffc880" stroke="#000000" cx="819.0923" cy="-90" rx="81.7856" ry="18"/>
<text text-anchor="middle" x="819.0923" y="-86.3" font-family="Times,serif" font-size="14.00" fill="#000000">LatinCapitalLetterA</text>
</a>
</g>
</g>
<!-- UTF8 -->
<g id="node6" class="node">
<title>UTF8</title>
<g id="a_node6"><a xlink:href="http://emmo.info/emmo/middle/metrology#EMMO_e13b2173_1dec_4b97_9ac1_1dc4b418612a" xlink:title="UTF8">
<ellipse fill="#ffffcc" stroke="#000000" stroke-width="2" cx="438.0923" cy="-162" rx="31.6951" ry="18"/>
<text text-anchor="middle" x="438.0923" y="-158.3" font-family="Times,serif" font-size="14.00" fill="#000000">UTF8</text>
</a>
</g>
</g>
<!-- LatinCapitalLetterA&#45;&gt;UTF8 -->
<g id="edge1" class="edge">
<title>LatinCapitalLetterA&#45;&gt;UTF8</title>
<path fill="none" stroke="#000000" d="M758.4135,-102.1004C748.2918,-104.0907 737.8981,-106.1173 728.0923,-108 639.0797,-125.0903 534.5361,-144.3597 478.4803,-154.6268"/>
<polygon fill="none" stroke="#000000" points="477.7989,-151.1933 468.5924,-156.4366 479.0592,-158.0789 477.7989,-151.1933"/>
</g>
<!-- Atto -->
<g id="node2" class="node">
<title>Atto</title>
<g id="a_node2"><a xlink:href="http://emmo.info/emmo/middle/siunits#EMMO_42955b2d_b465_4666_86cc_ea3c2d685753" xlink:title="Atto">
<ellipse fill="#ffffcc" stroke="#000000" cx="351.0923" cy="-18" rx="27" ry="18"/>
<text text-anchor="middle" x="351.0923" y="-14.3" font-family="Times,serif" font-size="14.00" fill="#000000">Atto</text>
</a>
</g>
</g>
<!-- LatinSmallLetterA -->
<g id="node5" class="node">
<title>LatinSmallLetterA</title>
<g id="a_node5"><a xlink:href="http://emmo.info/emmo/middle/metrology#EMMO_cfcf0f48_09ac_4770_a06a_684a42b4a14c" xlink:title="LatinSmallLetterA">
<ellipse fill="#ffc880" stroke="#000000" cx="351.0923" cy="-90" rx="77.1866" ry="18"/>
<text text-anchor="middle" x="351.0923" y="-86.3" font-family="Times,serif" font-size="14.00" fill="#000000">LatinSmallLetterA</text>
</a>
</g>
</g>
<!-- Atto&#45;&gt;LatinSmallLetterA -->
<g id="edge4" class="edge">
<title>Atto&#45;&gt;LatinSmallLetterA</title>
<path fill="none" stroke="#000000" d="M351.0923,-36.1686C351.0923,-43.869 351.0923,-53.0257 351.0923,-61.5834"/>
<polygon fill="none" stroke="#000000" points="347.5924,-61.5867 351.0923,-71.5867 354.5924,-61.5868 347.5924,-61.5867"/>
</g>
<!-- GreekSmallLetterMu -->
<g id="node3" class="node">
<title>GreekSmallLetterMu</title>
<g id="a_node3"><a xlink:href="http://emmo.info/emmo/middle/metrology#EMMO_1e9c2a4b_abb9_4b27_bd9c_e31aac337a04" xlink:title="GreekSmallLetterMu">
<ellipse fill="#ffc880" stroke="#000000" cx="87.0923" cy="-90" rx="87.1846" ry="18"/>
<text text-anchor="middle" x="87.0923" y="-86.3" font-family="Times,serif" font-size="14.00" fill="#000000">GreekSmallLetterMu</text>
</a>
</g>
</g>
<!-- GreekSmallLetterMu&#45;&gt;UTF8 -->
<g id="edge5" class="edge">
<title>GreekSmallLetterMu&#45;&gt;UTF8</title>
<path fill="none" stroke="#000000" d="M149.0361,-102.7064C220.8491,-117.4373 337.1172,-141.2872 398.0018,-153.7763"/>
<polygon fill="none" stroke="#000000" points="397.4938,-157.2449 407.9931,-155.8258 398.9004,-150.3877 397.4938,-157.2449"/>
</g>
<!-- Space -->
<g id="node4" class="node">
<title>Space</title>
<g id="a_node4"><a xlink:href="http://emmo.info/emmo/middle/metrology#EMMO_ea192c80_6029_4410_863c_8eed7ea52037" xlink:title="Space">
<ellipse fill="#ffc880" stroke="#000000" cx="224.0923" cy="-90" rx="31.6951" ry="18"/>
<text text-anchor="middle" x="224.0923" y="-86.3" font-family="Times,serif" font-size="14.00" fill="#000000">Space</text>
</a>
</g>
</g>
<!-- Space&#45;&gt;UTF8 -->
<g id="edge8" class="edge">
<title>Space&#45;&gt;UTF8</title>
<path fill="none" stroke="#000000" d="M249.0629,-101.4889C254.3137,-103.7559 259.8502,-106.0381 265.0923,-108 310.5525,-125.014 364.0477,-141.1323 399.3847,-151.2557"/>
<polygon fill="none" stroke="#000000" points="398.7172,-154.7046 409.2933,-154.0735 400.632,-147.9716 398.7172,-154.7046"/>
</g>
<!-- LatinSmallLetterA&#45;&gt;UTF8 -->
<g id="edge6" class="edge">
<title>LatinSmallLetterA&#45;&gt;UTF8</title>
<path fill="none" stroke="#000000" d="M372.1525,-107.4292C384.1158,-117.3298 399.1972,-129.811 411.9166,-140.3374"/>
<polygon fill="none" stroke="#000000" points="409.9419,-143.2463 419.8774,-146.9256 414.4049,-137.8535 409.9419,-143.2463"/>
</g>
<!-- Ampere -->
<g id="node7" class="node">
<title>Ampere</title>
<g id="a_node7"><a xlink:href="http://emmo.info/emmo/middle/siunits#EMMO_db5dd38d_ac79_4af6_8782_fee7e7150ae8" xlink:title="Ampere">
<ellipse fill="#ffffcc" stroke="#000000" cx="819.0923" cy="-18" rx="39.7935" ry="18"/>
<text text-anchor="middle" x="819.0923" y="-14.3" font-family="Times,serif" font-size="14.00" fill="#000000">Ampere</text>
</a>
</g>
</g>
<!-- Ampere&#45;&gt;LatinCapitalLetterA -->
<g id="edge9" class="edge">
<title>Ampere&#45;&gt;LatinCapitalLetterA</title>
<path fill="none" stroke="#000000" d="M819.0923,-36.1686C819.0923,-43.869 819.0923,-53.0257 819.0923,-61.5834"/>
<polygon fill="none" stroke="#000000" points="815.5924,-61.5867 819.0923,-71.5867 822.5924,-61.5868 815.5924,-61.5867"/>
</g>
<!-- Milli -->
<g id="node8" class="node">
<title>Milli</title>
<g id="a_node8"><a xlink:href="http://emmo.info/emmo/middle/siunits#EMMO_a3a701ed_6f7d_4a10_9aee_dfa1961fc7b7" xlink:title="Milli">
<ellipse fill="#ffffcc" stroke="#000000" cx="478.0923" cy="-18" rx="28.6953" ry="18"/>
<text text-anchor="middle" x="478.0923" y="-14.3" font-family="Times,serif" font-size="14.00" fill="#000000">Milli</text>
</a>
</g>
</g>
<!-- LatinSmallLetterM -->
<g id="node9" class="node">
<title>LatinSmallLetterM</title>
<g id="a_node9"><a xlink:href="http://emmo.info/emmo/middle/metrology#EMMO_aa0d5cde_cbdc_4815_b46d_2f76b00a6bde" xlink:title="LatinSmallLetterM">
<ellipse fill="#ffc880" stroke="#000000" cx="526.0923" cy="-90" rx="79.0865" ry="18"/>
<text text-anchor="middle" x="526.0923" y="-86.3" font-family="Times,serif" font-size="14.00" fill="#000000">LatinSmallLetterM</text>
</a>
</g>
</g>
<!-- Milli&#45;&gt;LatinSmallLetterM -->
<g id="edge2" class="edge">
<title>Milli&#45;&gt;LatinSmallLetterM</title>
<path fill="none" stroke="#000000" d="M489.2251,-34.6992C494.9501,-43.2867 502.062,-53.9546 508.5076,-63.623"/>
<polygon fill="none" stroke="#000000" points="505.7216,-65.7538 514.1809,-72.1329 511.546,-61.8709 505.7216,-65.7538"/>
</g>
<!-- LatinSmallLetterM&#45;&gt;UTF8 -->
<g id="edge3" class="edge">
<title>LatinSmallLetterM&#45;&gt;UTF8</title>
<path fill="none" stroke="#000000" d="M504.7899,-107.4292C492.6057,-117.3981 477.2238,-129.9833 464.303,-140.5549"/>
<polygon fill="none" stroke="#000000" points="461.7491,-138.1221 456.2259,-147.1634 466.1818,-143.5398 461.7491,-138.1221"/>
</g>
<!-- MicroUnit -->
<g id="node10" class="node">
<title>MicroUnit</title>
<g id="a_node10"><a xlink:href="http://emmo.info/emmo/middle/metrology#EMMO_2cfdcca6_6231_48aa_81b5_388b464bfe80" xlink:title="MicroUnit">
<ellipse fill="#ffc880" stroke="#000000" cx="671.0923" cy="-90" rx="48.1917" ry="18"/>
<text text-anchor="middle" x="671.0923" y="-86.3" font-family="Times,serif" font-size="14.00" fill="#000000">MicroUnit</text>
</a>
</g>
</g>
<!-- MicroUnit&#45;&gt;UTF8 -->
<g id="edge11" class="edge">
<title>MicroUnit&#45;&gt;UTF8</title>
<path fill="none" stroke="#000000" d="M634.3116,-101.6635C627.5882,-103.7817 620.6319,-105.9642 614.0923,-108 566.5967,-122.7853 511.8001,-139.5519 476.1348,-150.426"/>
<polygon fill="none" stroke="#000000" points="474.703,-147.2033 466.1576,-153.4664 476.7436,-153.8993 474.703,-147.2033"/>
</g>
<!-- Micro -->
<g id="node11" class="node">
<title>Micro</title>
<g id="a_node11"><a xlink:href="http://emmo.info/emmo/middle/siunits#EMMO_9ff3bf8e_2168_406e_8251_1d158fc948ae" xlink:title="Micro">
<ellipse fill="#ffffcc" stroke="#000000" cx="671.0923" cy="-18" rx="32.4942" ry="18"/>
<text text-anchor="middle" x="671.0923" y="-14.3" font-family="Times,serif" font-size="14.00" fill="#000000">Micro</text>
</a>
</g>
</g>
<!-- Micro&#45;&gt;MicroUnit -->
<g id="edge7" class="edge">
<title>Micro&#45;&gt;MicroUnit</title>
<path fill="none" stroke="#000000" d="M671.0923,-36.1686C671.0923,-43.869 671.0923,-53.0257 671.0923,-61.5834"/>
<polygon fill="none" stroke="#000000" points="667.5924,-61.5867 671.0923,-71.5867 674.5924,-61.5868 667.5924,-61.5867"/>
</g>
<!-- Metre -->
<g id="node12" class="node">
<title>Metre</title>
<g id="a_node12"><a xlink:href="http://emmo.info/emmo/middle/siunits#EMMO_7db11dbf_a643_464a_9b56_07eabcc3e9c5" xlink:title="Metre">
<ellipse fill="#ffffcc" stroke="#000000" cx="557.0923" cy="-18" rx="32.4942" ry="18"/>
<text text-anchor="middle" x="557.0923" y="-14.3" font-family="Times,serif" font-size="14.00" fill="#000000">Metre</text>
</a>
</g>
</g>
<!-- Metre&#45;&gt;LatinSmallLetterM -->
<g id="edge10" class="edge">
<title>Metre&#45;&gt;LatinSmallLetterM</title>
<path fill="none" stroke="#000000" d="M549.4293,-35.7978C545.9532,-43.8713 541.7635,-53.6024 537.899,-62.578"/>
<polygon fill="none" stroke="#000000" points="534.6223,-61.3379 533.8824,-71.9069 541.0517,-64.1062 534.6223,-61.3379"/>
</g>
<!-- key1 -->
<g id="node13" class="node">
<title>key1</title>
<text text-anchor="start" x="895.0923" y="-13.8" font-family="Times,serif" font-size="14.00" fill="#000000">isA</text>
</g>
<!-- key2 -->
<g id="node14" class="node">
<title>key2</title>
<text text-anchor="start" x="974.0923" y="-13.8" font-family="Times,serif" font-size="14.00" fill="#000000"> </text>
</g>
<!-- key1&#45;&gt;key2 -->
<g id="edge12" class="edge">
<title>key1:e&#45;&gt;key2:w</title>
<path fill="none" stroke="#000000" d="M916.0923,-19C937.0923,-19 944.8032,-19 961.6504,-19"/>
<polygon fill="none" stroke="#000000" points="962.0923,-22.5001 972.0923,-19 962.0922,-15.5001 962.0923,-22.5001"/>
</g>
</g>
</svg>
