<?xml version="1.0" encoding="UTF-8" standalone="no"?>
<!DOCTYPE svg PUBLIC "-//W3C//DTD SVG 1.1//EN"
 "http://www.w3.org/Graphics/SVG/1.1/DTD/svg11.dtd">
<!-- Generated by graphviz version 2.40.1 (20161225.0304)
 -->
<!-- Title: %3 Pages: 1 -->
<svg width="909pt" height="218pt"
 viewBox="0.00 0.00 908.94 218.00" xmlns="http://www.w3.org/2000/svg" xmlns:xlink="http://www.w3.org/1999/xlink">
<g id="graph0" class="graph" transform="scale(1 1) rotate(0) translate(4 214)">
<title>%3</title>
<polygon fill="#ffffff" stroke="transparent" points="-4,4 -4,-214 904.9429,-214 904.9429,4 -4,4"/>
<!-- Space -->
<g id="node1" class="node">
<title>Space</title>
<g id="a_node1"><a xlink:href="http://emmo.info/emmo/middle/units#EMMO_ea192c80_6029_4410_863c_8eed7ea52037" xlink:title="Space">
<ellipse fill="#ffc880" stroke="#000000" cx="31.8472" cy="-105" rx="31.6951" ry="18"/>
<text text-anchor="middle" x="31.8472" y="-101.3" font-family="Times,serif" font-size="14.00" fill="#000000">Space</text>
</a>
</g>
</g>
<!-- UTF8 -->
<g id="node3" class="node">
<title>UTF8</title>
<g id="a_node3"><a xlink:href="http://emmo.info/emmo/middle/units#EMMO_e13b2173_1dec_4b97_9ac1_1dc4b418612a" xlink:title="UTF8">
<ellipse fill="#ffffcc" stroke="#000000" stroke-width="2" cx="417.8472" cy="-192" rx="31.6951" ry="18"/>
<text text-anchor="middle" x="417.8472" y="-188.3" font-family="Times,serif" font-size="14.00" fill="#000000">UTF8</text>
</a>
</g>
</g>
<!-- Space&#45;&gt;UTF8 -->
<g id="edge8" class="edge">
<title>Space&#45;&gt;UTF8</title>
<path fill="none" stroke="#000000" d="M56.2315,-116.7336C61.6207,-119.0355 67.361,-121.2695 72.8472,-123 179.8426,-156.7484 310.9009,-177.5887 376.4149,-186.6707"/>
<polygon fill="none" stroke="#000000" points="375.9714,-190.1426 386.353,-188.0275 376.9184,-183.2069 375.9714,-190.1426"/>
<text text-anchor="middle" x="204.3472" y="-144.8" font-family="Times,serif" font-size="14.00" fill="#000000">isA</text>
</g>
<!-- Metre -->
<g id="node2" class="node">
<title>Metre</title>
<g id="a_node2"><a xlink:href="http://emmo.info/emmo/middle/siunits#EMMO_7db11dbf_a643_464a_9b56_07eabcc3e9c5" xlink:title="Metre">
<ellipse fill="#ffffcc" stroke="#000000" cx="120.8472" cy="-18" rx="32.4942" ry="18"/>
<text text-anchor="middle" x="120.8472" y="-14.3" font-family="Times,serif" font-size="14.00" fill="#000000">Metre</text>
</a>
</g>
</g>
<!-- LatinSmallLetterM -->
<g id="node5" class="node">
<title>LatinSmallLetterM</title>
<g id="a_node5"><a xlink:href="http://emmo.info/emmo/middle/units#EMMO_aa0d5cde_cbdc_4815_b46d_2f76b00a6bde" xlink:title="LatinSmallLetterM">
<ellipse fill="#ffc880" stroke="#000000" cx="160.8472" cy="-105" rx="79.0865" ry="18"/>
<text text-anchor="middle" x="160.8472" y="-101.3" font-family="Times,serif" font-size="14.00" fill="#000000">LatinSmallLetterM</text>
</a>
</g>
</g>
<!-- Metre&#45;&gt;LatinSmallLetterM -->
<g id="edge9" class="edge">
<title>Metre&#45;&gt;LatinSmallLetterM</title>
<path fill="none" stroke="#000000" d="M128.9418,-35.6057C134.4527,-47.592 141.8597,-63.7022 148.1497,-77.383"/>
<polygon fill="none" stroke="#000000" points="145.1319,-79.1979 152.4893,-86.8215 151.4919,-76.2738 145.1319,-79.1979"/>
<text text-anchor="middle" x="153.3472" y="-57.8" font-family="Times,serif" font-size="14.00" fill="#000000">isA</text>
</g>
<!-- Atto -->
<g id="node4" class="node">
<title>Atto</title>
<g id="a_node4"><a xlink:href="http://emmo.info/emmo/middle/siunits#EMMO_42955b2d_b465_4666_86cc_ea3c2d685753" xlink:title="Atto">
<ellipse fill="#ffffcc" stroke="#000000" cx="335.8472" cy="-18" rx="27" ry="18"/>
<text text-anchor="middle" x="335.8472" y="-14.3" font-family="Times,serif" font-size="14.00" fill="#000000">Atto</text>
</a>
</g>
</g>
<!-- LatinSmallLetterA -->
<g id="node6" class="node">
<title>LatinSmallLetterA</title>
<g id="a_node6"><a xlink:href="http://emmo.info/emmo/middle/units#EMMO_cfcf0f48_09ac_4770_a06a_684a42b4a14c" xlink:title="LatinSmallLetterA">
<ellipse fill="#ffc880" stroke="#000000" cx="335.8472" cy="-105" rx="77.1866" ry="18"/>
<text text-anchor="middle" x="335.8472" y="-101.3" font-family="Times,serif" font-size="14.00" fill="#000000">LatinSmallLetterA</text>
</a>
</g>
</g>
<!-- Atto&#45;&gt;LatinSmallLetterA -->
<g id="edge7" class="edge">
<title>Atto&#45;&gt;LatinSmallLetterA</title>
<path fill="none" stroke="#000000" d="M335.8472,-36.0265C335.8472,-47.8082 335.8472,-63.4393 335.8472,-76.8419"/>
<polygon fill="none" stroke="#000000" points="332.3473,-76.9966 335.8472,-86.9966 339.3473,-76.9967 332.3473,-76.9966"/>
<text text-anchor="middle" x="345.3472" y="-57.8" font-family="Times,serif" font-size="14.00" fill="#000000">isA</text>
</g>
<!-- LatinSmallLetterM&#45;&gt;UTF8 -->
<g id="edge2" class="edge">
<title>LatinSmallLetterM&#45;&gt;UTF8</title>
<path fill="none" stroke="#000000" d="M205.027,-119.9558C254.6317,-136.7481 334.2504,-163.7007 380.7535,-179.443"/>
<polygon fill="none" stroke="#000000" points="379.836,-182.8274 390.4303,-182.7188 382.0806,-176.1971 379.836,-182.8274"/>
<text text-anchor="middle" x="314.3472" y="-144.8" font-family="Times,serif" font-size="14.00" fill="#000000">isA</text>
</g>
<!-- LatinSmallLetterA&#45;&gt;UTF8 -->
<g id="edge3" class="edge">
<title>LatinSmallLetterA&#45;&gt;UTF8</title>
<path fill="none" stroke="#000000" d="M352.4411,-122.6057C364.8397,-135.7603 381.92,-153.8821 395.517,-168.3082"/>
<polygon fill="none" stroke="#000000" points="393.2548,-171.011 402.6607,-175.8875 398.3488,-166.2098 393.2548,-171.011"/>
<text text-anchor="middle" x="391.3472" y="-144.8" font-family="Times,serif" font-size="14.00" fill="#000000">isA</text>
</g>
<!-- Ampere -->
<g id="node7" class="node">
<title>Ampere</title>
<g id="a_node7"><a xlink:href="http://emmo.info/emmo/middle/siunits#EMMO_db5dd38d_ac79_4af6_8782_fee7e7150ae8" xlink:title="Ampere">
<ellipse fill="#ffffcc" stroke="#000000" cx="512.8472" cy="-18" rx="39.7935" ry="18"/>
<text text-anchor="middle" x="512.8472" y="-14.3" font-family="Times,serif" font-size="14.00" fill="#000000">Ampere</text>
</a>
</g>
</g>
<!-- LatinCapitalLetterA -->
<g id="node9" class="node">
<title>LatinCapitalLetterA</title>
<g id="a_node9"><a xlink:href="http://emmo.info/emmo/middle/units#EMMO_2125f2d0_5050_49e3_a579_4c74bc9fd02e" xlink:title="LatinCapitalLetterA">
<ellipse fill="#ffc880" stroke="#000000" cx="512.8472" cy="-105" rx="81.7856" ry="18"/>
<text text-anchor="middle" x="512.8472" y="-101.3" font-family="Times,serif" font-size="14.00" fill="#000000">LatinCapitalLetterA</text>
</a>
</g>
</g>
<!-- Ampere&#45;&gt;LatinCapitalLetterA -->
<g id="edge4" class="edge">
<title>Ampere&#45;&gt;LatinCapitalLetterA</title>
<path fill="none" stroke="#000000" d="M512.8472,-36.0265C512.8472,-47.8082 512.8472,-63.4393 512.8472,-76.8419"/>
<polygon fill="none" stroke="#000000" points="509.3473,-76.9966 512.8472,-86.9966 516.3473,-76.9967 509.3473,-76.9966"/>
<text text-anchor="middle" x="522.3472" y="-57.8" font-family="Times,serif" font-size="14.00" fill="#000000">isA</text>
</g>
<!-- Milli -->
<g id="node8" class="node">
<title>Milli</title>
<g id="a_node8"><a xlink:href="http://emmo.info/emmo/middle/siunits#EMMO_a3a701ed_6f7d_4a10_9aee_dfa1961fc7b7" xlink:title="Milli">
<ellipse fill="#ffffcc" stroke="#000000" cx="199.8472" cy="-18" rx="28.6953" ry="18"/>
<text text-anchor="middle" x="199.8472" y="-14.3" font-family="Times,serif" font-size="14.00" fill="#000000">Milli</text>
</a>
</g>
</g>
<!-- Milli&#45;&gt;LatinSmallLetterM -->
<g id="edge1" class="edge">
<title>Milli&#45;&gt;LatinSmallLetterM</title>
<path fill="none" stroke="#000000" d="M191.9549,-35.6057C186.5818,-47.592 179.36,-63.7022 173.2272,-77.383"/>
<polygon fill="none" stroke="#000000" points="169.893,-76.2647 168.9961,-86.8215 176.2805,-79.1282 169.893,-76.2647"/>
<text text-anchor="middle" x="192.3472" y="-57.8" font-family="Times,serif" font-size="14.00" fill="#000000">isA</text>
</g>
<!-- LatinCapitalLetterA&#45;&gt;UTF8 -->
<g id="edge11" class="edge">
<title>LatinCapitalLetterA&#45;&gt;UTF8</title>
<path fill="none" stroke="#000000" d="M493.6225,-122.6057C478.8059,-136.1746 458.2184,-155.0285 442.2415,-169.66"/>
<polygon fill="none" stroke="#000000" points="439.8251,-167.1269 434.8141,-176.4618 444.5528,-172.2892 439.8251,-167.1269"/>
<text text-anchor="middle" x="481.3472" y="-144.8" font-family="Times,serif" font-size="14.00" fill="#000000">isA</text>
</g>
<!-- Micro -->
<g id="node10" class="node">
<title>Micro</title>
<g id="a_node10"><a xlink:href="http://emmo.info/emmo/middle/siunits#EMMO_9ff3bf8e_2168_406e_8251_1d158fc948ae" xlink:title="Micro">
<ellipse fill="#ffffcc" stroke="#000000" cx="852.8472" cy="-18" rx="32.4942" ry="18"/>
<text text-anchor="middle" x="852.8472" y="-14.3" font-family="Times,serif" font-size="14.00" fill="#000000">Micro</text>
</a>
</g>
</g>
<!-- MicroUnit -->
<g id="node12" class="node">
<title>MicroUnit</title>
<g id="a_node12"><a xlink:href="http://emmo.info/emmo/middle/units#EMMO_2cfdcca6_6231_48aa_81b5_388b464bfe80" xlink:title="MicroUnit">
<ellipse fill="#ffc880" stroke="#000000" cx="852.8472" cy="-105" rx="48.1917" ry="18"/>
<text text-anchor="middle" x="852.8472" y="-101.3" font-family="Times,serif" font-size="14.00" fill="#000000">MicroUnit</text>
</a>
</g>
</g>
<!-- Micro&#45;&gt;MicroUnit -->
<g id="edge10" class="edge">
<title>Micro&#45;&gt;MicroUnit</title>
<path fill="none" stroke="#000000" d="M852.8472,-36.0265C852.8472,-47.8082 852.8472,-63.4393 852.8472,-76.8419"/>
<polygon fill="none" stroke="#000000" points="849.3473,-76.9966 852.8472,-86.9966 856.3473,-76.9967 849.3473,-76.9966"/>
<text text-anchor="middle" x="862.3472" y="-57.8" font-family="Times,serif" font-size="14.00" fill="#000000">isA</text>
</g>
<!-- GreekSmallLetterMu -->
<g id="node11" class="node">
<title>GreekSmallLetterMu</title>
<g id="a_node11"><a xlink:href="http://emmo.info/emmo/middle/units#EMMO_1e9c2a4b_abb9_4b27_bd9c_e31aac337a04" xlink:title="GreekSmallLetterMu">
<ellipse fill="#ffc880" stroke="#000000" cx="699.8472" cy="-105" rx="87.1846" ry="18"/>
<text text-anchor="middle" x="699.8472" y="-101.3" font-family="Times,serif" font-size="14.00" fill="#000000">GreekSmallLetterMu</text>
</a>
</g>
</g>
<!-- GreekSmallLetterMu&#45;&gt;UTF8 -->
<g id="edge6" class="edge">
<title>GreekSmallLetterMu&#45;&gt;UTF8</title>
<path fill="none" stroke="#000000" d="M651.3696,-119.9558C595.8592,-137.0814 506.0944,-164.7748 455.5538,-180.3671"/>
<polygon fill="none" stroke="#000000" points="454.5142,-177.025 445.9905,-183.3175 456.5779,-183.7139 454.5142,-177.025"/>
<text text-anchor="middle" x="585.3472" y="-144.8" font-family="Times,serif" font-size="14.00" fill="#000000">isA</text>
</g>
<!-- MicroUnit&#45;&gt;UTF8 -->
<g id="edge5" class="edge">
<title>MicroUnit&#45;&gt;UTF8</title>
<path fill="none" stroke="#000000" d="M816.857,-117.1151C809.9284,-119.2339 802.6962,-121.3006 795.8472,-123 674.8334,-153.0268 529.033,-175.9886 459.1449,-186.1961"/>
<polygon fill="none" stroke="#000000" points="458.3905,-182.7687 448.9957,-187.6665 459.3942,-189.6964 458.3905,-182.7687"/>
<text text-anchor="middle" x="723.3472" y="-144.8" font-family="Times,serif" font-size="14.00" fill="#000000">isA</text>
</g>
</g>
</svg>
