<?xml version="1.0" encoding="UTF-8" standalone="no"?>
<!DOCTYPE svg PUBLIC "-//W3C//DTD SVG 1.1//EN"
 "http://www.w3.org/Graphics/SVG/1.1/DTD/svg11.dtd">
<!-- Generated by graphviz version 2.40.1 (20161225.0304)
 -->
<!-- Title: %3 Pages: 1 -->
<svg width="1044pt" height="188pt"
 viewBox="0.00 0.00 1044.34 188.00" xmlns="http://www.w3.org/2000/svg" xmlns:xlink="http://www.w3.org/1999/xlink">
<g id="graph0" class="graph" transform="scale(1 1) rotate(0) translate(4 184)">
<title>%3</title>
<polygon fill="#ffffff" stroke="transparent" points="-4,4 -4,-184 1040.3431,-184 1040.3431,4 -4,4"/>
<!-- Atto -->
<g id="node1" class="node">
<title>Atto</title>
<g id="a_node1"><a xlink:href="http://emmo.info/emmo/middle/siunits#EMMO_42955b2d_b465_4666_86cc_ea3c2d685753" xlink:title="Atto">
<ellipse fill="#ffffcc" stroke="#000000" cx="77.3431" cy="-18" rx="27" ry="18"/>
<text text-anchor="middle" x="77.3431" y="-14.3" font-family="Times,serif" font-size="14.00" fill="#000000">Atto</text>
</a>
</g>
</g>
<!-- LatinSmallLetterA -->
<g id="node9" class="node">
<title>LatinSmallLetterA</title>
<g id="a_node9"><a xlink:href="http://emmo.info/emmo/middle/metrology#EMMO_cfcf0f48_09ac_4770_a06a_684a42b4a14c" xlink:title="LatinSmallLetterA">
<ellipse fill="#ffc880" stroke="#000000" cx="77.3431" cy="-90" rx="77.1866" ry="18"/>
<text text-anchor="middle" x="77.3431" y="-86.3" font-family="Times,serif" font-size="14.00" fill="#000000">LatinSmallLetterA</text>
</a>
</g>
</g>
<!-- Atto&#45;&gt;LatinSmallLetterA -->
<g id="edge2" class="edge">
<title>Atto&#45;&gt;LatinSmallLetterA</title>
<path fill="none" stroke="#000000" d="M77.3431,-36.1686C77.3431,-43.869 77.3431,-53.0257 77.3431,-61.5834"/>
<polygon fill="none" stroke="#000000" points="73.8432,-61.5867 77.3431,-71.5867 80.8432,-61.5868 73.8432,-61.5867"/>
</g>
<!-- MicroUnit -->
<g id="node2" class="node">
<title>MicroUnit</title>
<g id="a_node2"><a xlink:href="http://emmo.info/emmo/middle/metrology#EMMO_2cfdcca6_6231_48aa_81b5_388b464bfe80" xlink:title="MicroUnit">
<ellipse fill="#ffc880" stroke="#000000" cx="220.3431" cy="-90" rx="48.1917" ry="18"/>
<text text-anchor="middle" x="220.3431" y="-86.3" font-family="Times,serif" font-size="14.00" fill="#000000">MicroUnit</text>
</a>
</g>
</g>
<!-- UTF8 -->
<g id="node10" class="node">
<title>UTF8</title>
<g id="a_node10"><a xlink:href="http://emmo.info/emmo/middle/metrology#EMMO_e13b2173_1dec_4b97_9ac1_1dc4b418612a" xlink:title="UTF8">
<ellipse fill="#ffffcc" stroke="#000000" stroke-width="2" cx="434.3431" cy="-162" rx="31.6951" ry="18"/>
<text text-anchor="middle" x="434.3431" y="-158.3" font-family="Times,serif" font-size="14.00" fill="#000000">UTF8</text>
</a>
</g>
</g>
<!-- MicroUnit&#45;&gt;UTF8 -->
<g id="edge10" class="edge">
<title>MicroUnit&#45;&gt;UTF8</title>
<path fill="none" stroke="#000000" d="M256.1619,-102.0512C295.3212,-115.2263 357.7591,-136.2334 397.3691,-149.5601"/>
<polygon fill="none" stroke="#000000" points="396.3255,-152.9017 406.9195,-152.7734 398.5577,-146.2672 396.3255,-152.9017"/>
</g>
<!-- LatinCapitalLetterA -->
<g id="node3" class="node">
<title>LatinCapitalLetterA</title>
<g id="a_node3"><a xlink:href="http://emmo.info/emmo/middle/metrology#EMMO_2125f2d0_5050_49e3_a579_4c74bc9fd02e" xlink:title="LatinCapitalLetterA">
<ellipse fill="#ffc880" stroke="#000000" cx="368.3431" cy="-90" rx="81.7856" ry="18"/>
<text text-anchor="middle" x="368.3431" y="-86.3" font-family="Times,serif" font-size="14.00" fill="#000000">LatinCapitalLetterA</text>
</a>
</g>
</g>
<!-- LatinCapitalLetterA&#45;&gt;UTF8 -->
<g id="edge8" class="edge">
<title>LatinCapitalLetterA&#45;&gt;UTF8</title>
<path fill="none" stroke="#000000" d="M384.6577,-107.7978C393.0916,-116.9983 403.4985,-128.3513 412.6053,-138.2859"/>
<polygon fill="none" stroke="#000000" points="410.2301,-140.8745 419.5674,-145.881 415.3902,-136.1444 410.2301,-140.8745"/>
</g>
<!-- Ampere -->
<g id="node4" class="node">
<title>Ampere</title>
<g id="a_node4"><a xlink:href="http://emmo.info/emmo/middle/siunits#EMMO_db5dd38d_ac79_4af6_8782_fee7e7150ae8" xlink:title="Ampere">
<ellipse fill="#ffffcc" stroke="#000000" cx="368.3431" cy="-18" rx="39.7935" ry="18"/>
<text text-anchor="middle" x="368.3431" y="-14.3" font-family="Times,serif" font-size="14.00" fill="#000000">Ampere</text>
</a>
</g>
</g>
<!-- Ampere&#45;&gt;LatinCapitalLetterA -->
<g id="edge1" class="edge">
<title>Ampere&#45;&gt;LatinCapitalLetterA</title>
<path fill="none" stroke="#000000" d="M368.3431,-36.1686C368.3431,-43.869 368.3431,-53.0257 368.3431,-61.5834"/>
<polygon fill="none" stroke="#000000" points="364.8432,-61.5867 368.3431,-71.5867 371.8432,-61.5868 364.8432,-61.5867"/>
</g>
<!-- Space -->
<g id="node5" class="node">
<title>Space</title>
<g id="a_node5"><a xlink:href="http://emmo.info/emmo/middle/metrology#EMMO_ea192c80_6029_4410_863c_8eed7ea52037" xlink:title="Space">
<ellipse fill="#ffc880" stroke="#000000" cx="500.3431" cy="-90" rx="31.6951" ry="18"/>
<text text-anchor="middle" x="500.3431" y="-86.3" font-family="Times,serif" font-size="14.00" fill="#000000">Space</text>
</a>
</g>
</g>
<!-- Space&#45;&gt;UTF8 -->
<g id="edge7" class="edge">
<title>Space&#45;&gt;UTF8</title>
<path fill="none" stroke="#000000" d="M485.3667,-106.3379C476.7594,-115.7277 465.7924,-127.6918 456.2333,-138.1198"/>
<polygon fill="none" stroke="#000000" points="453.4375,-135.9901 449.2603,-145.7267 458.5976,-140.7202 453.4375,-135.9901"/>
</g>
<!-- GreekSmallLetterMu -->
<g id="node6" class="node">
<title>GreekSmallLetterMu</title>
<g id="a_node6"><a xlink:href="http://emmo.info/emmo/middle/metrology#EMMO_1e9c2a4b_abb9_4b27_bd9c_e31aac337a04" xlink:title="GreekSmallLetterMu">
<ellipse fill="#ffc880" stroke="#000000" cx="637.3431" cy="-90" rx="87.1846" ry="18"/>
<text text-anchor="middle" x="637.3431" y="-86.3" font-family="Times,serif" font-size="14.00" fill="#000000">GreekSmallLetterMu</text>
</a>
</g>
</g>
<!-- GreekSmallLetterMu&#45;&gt;UTF8 -->
<g id="edge9" class="edge">
<title>GreekSmallLetterMu&#45;&gt;UTF8</title>
<path fill="none" stroke="#000000" d="M593.2952,-105.6229C556.7855,-118.5722 505.4885,-136.7662 471.1421,-148.9482"/>
<polygon fill="none" stroke="#000000" points="469.7516,-145.7276 461.4968,-152.3691 472.0916,-152.325 469.7516,-145.7276"/>
</g>
<!-- Milli -->
<g id="node7" class="node">
<title>Milli</title>
<g id="a_node7"><a xlink:href="http://emmo.info/emmo/middle/siunits#EMMO_a3a701ed_6f7d_4a10_9aee_dfa1961fc7b7" xlink:title="Milli">
<ellipse fill="#ffffcc" stroke="#000000" cx="781.3431" cy="-18" rx="28.6953" ry="18"/>
<text text-anchor="middle" x="781.3431" y="-14.3" font-family="Times,serif" font-size="14.00" fill="#000000">Milli</text>
</a>
</g>
</g>
<!-- LatinSmallLetterM -->
<g id="node12" class="node">
<title>LatinSmallLetterM</title>
<g id="a_node12"><a xlink:href="http://emmo.info/emmo/middle/metrology#EMMO_aa0d5cde_cbdc_4815_b46d_2f76b00a6bde" xlink:title="LatinSmallLetterM">
<ellipse fill="#ffc880" stroke="#000000" cx="821.3431" cy="-90" rx="79.0865" ry="18"/>
<text text-anchor="middle" x="821.3431" y="-86.3" font-family="Times,serif" font-size="14.00" fill="#000000">LatinSmallLetterM</text>
</a>
</g>
</g>
<!-- Milli&#45;&gt;LatinSmallLetterM -->
<g id="edge3" class="edge">
<title>Milli&#45;&gt;LatinSmallLetterM</title>
<path fill="none" stroke="#000000" d="M790.8226,-35.063C795.4662,-43.4215 801.1676,-53.6841 806.3806,-63.0675"/>
<polygon fill="none" stroke="#000000" points="803.4575,-65.0129 811.3736,-72.0547 809.5766,-61.6134 803.4575,-65.0129"/>
</g>
<!-- Metre -->
<g id="node8" class="node">
<title>Metre</title>
<g id="a_node8"><a xlink:href="http://emmo.info/emmo/middle/siunits#EMMO_7db11dbf_a643_464a_9b56_07eabcc3e9c5" xlink:title="Metre">
<ellipse fill="#ffffcc" stroke="#000000" cx="860.3431" cy="-18" rx="32.4942" ry="18"/>
<text text-anchor="middle" x="860.3431" y="-14.3" font-family="Times,serif" font-size="14.00" fill="#000000">Metre</text>
</a>
</g>
</g>
<!-- Metre&#45;&gt;LatinSmallLetterM -->
<g id="edge11" class="edge">
<title>Metre&#45;&gt;LatinSmallLetterM</title>
<path fill="none" stroke="#000000" d="M850.9023,-35.4292C846.4049,-43.7321 840.9245,-53.8498 835.9099,-63.1075"/>
<polygon fill="none" stroke="#000000" points="832.7896,-61.5195 831.1043,-71.9794 838.9447,-64.8535 832.7896,-61.5195"/>
</g>
<!-- LatinSmallLetterA&#45;&gt;UTF8 -->
<g id="edge5" class="edge">
<title>LatinSmallLetterA&#45;&gt;UTF8</title>
<path fill="none" stroke="#000000" d="M134.6894,-102.0829C144.2548,-104.0753 154.077,-106.1071 163.3431,-108 245.3044,-124.7428 341.3449,-143.7311 394.257,-154.1377"/>
<polygon fill="none" stroke="#000000" points="393.7601,-157.607 404.2474,-156.1014 395.1102,-150.7384 393.7601,-157.607"/>
</g>
<!-- Micro -->
<g id="node11" class="node">
<title>Micro</title>
<g id="a_node11"><a xlink:href="http://emmo.info/emmo/middle/siunits#EMMO_9ff3bf8e_2168_406e_8251_1d158fc948ae" xlink:title="Micro">
<ellipse fill="#ffffcc" stroke="#000000" cx="220.3431" cy="-18" rx="32.4942" ry="18"/>
<text text-anchor="middle" x="220.3431" y="-14.3" font-family="Times,serif" font-size="14.00" fill="#000000">Micro</text>
</a>
</g>
</g>
<!-- Micro&#45;&gt;MicroUnit -->
<g id="edge4" class="edge">
<title>Micro&#45;&gt;MicroUnit</title>
<path fill="none" stroke="#000000" d="M220.3431,-36.1686C220.3431,-43.869 220.3431,-53.0257 220.3431,-61.5834"/>
<polygon fill="none" stroke="#000000" points="216.8432,-61.5867 220.3431,-71.5867 223.8432,-61.5868 216.8432,-61.5867"/>
</g>
<!-- LatinSmallLetterM&#45;&gt;UTF8 -->
<g id="edge6" class="edge">
<title>LatinSmallLetterM&#45;&gt;UTF8</title>
<path fill="none" stroke="#000000" d="M762.6844,-102.1946C752.894,-104.1736 742.8371,-106.172 733.3431,-108 641.1811,-125.7455 532.6946,-144.909 475.0948,-154.9473"/>
<polygon fill="none" stroke="#000000" points="474.1992,-151.5505 464.9473,-156.7131 475.3993,-158.4469 474.1992,-151.5505"/>
</g>
<!-- key1 -->
<g id="node13" class="node">
<title>key1</title>
<text text-anchor="start" x="928.3431" y="-13.8" font-family="Times,serif" font-size="14.00" fill="#000000">isA</text>
</g>
<!-- key2 -->
<g id="node14" class="node">
<title>key2</title>
<text text-anchor="start" x="1007.3431" y="-13.8" font-family="Times,serif" font-size="14.00" fill="#000000"> </text>
</g>
<!-- key1&#45;&gt;key2 -->
<g id="edge12" class="edge">
<title>key1:e&#45;&gt;key2:w</title>
<path fill="none" stroke="#000000" d="M949.3431,-19C970.3431,-19 978.0541,-19 994.9012,-19"/>
<polygon fill="none" stroke="#000000" points="995.3432,-22.5001 1005.3431,-19 995.3431,-15.5001 995.3432,-22.5001"/>
</g>
</g>
</svg>
