<?xml version="1.0" encoding="UTF-8" standalone="no"?>
<!DOCTYPE svg PUBLIC "-//W3C//DTD SVG 1.1//EN"
 "http://www.w3.org/Graphics/SVG/1.1/DTD/svg11.dtd">
<!-- Generated by graphviz version 2.40.1 (20161225.0304)
 -->
<!-- Title: %3 Pages: 1 -->
<svg width="1002pt" height="188pt"
 viewBox="0.00 0.00 1002.29 188.00" xmlns="http://www.w3.org/2000/svg" xmlns:xlink="http://www.w3.org/1999/xlink">
<g id="graph0" class="graph" transform="scale(1 1) rotate(0) translate(4 184)">
<title>%3</title>
<polygon fill="#ffffff" stroke="transparent" points="-4,4 -4,-184 998.293,-184 998.293,4 -4,4"/>
<!-- Milli -->
<g id="node1" class="node">
<title>Milli</title>
<g id="a_node1"><a xlink:href="http://emmo.info/emmo/middle/siunits#EMMO_a3a701ed_6f7d_4a10_9aee_dfa1961fc7b7" xlink:title="Milli">
<ellipse fill="#ffffcc" stroke="#000000" cx="31.293" cy="-18" rx="28.6953" ry="18"/>
<text text-anchor="middle" x="31.293" y="-14.3" font-family="Times,serif" font-size="14.00" fill="#000000">Milli</text>
</a>
</g>
</g>
<!-- LatinSmallLetterM -->
<g id="node3" class="node">
<title>LatinSmallLetterM</title>
<g id="a_node3"><a xlink:href="http://emmo.info/emmo/middle/metrology#EMMO_aa0d5cde_cbdc_4815_b46d_2f76b00a6bde" xlink:title="LatinSmallLetterM">
<ellipse fill="#ffc880" stroke="#000000" cx="79.293" cy="-90" rx="79.0865" ry="18"/>
<text text-anchor="middle" x="79.293" y="-86.3" font-family="Times,serif" font-size="14.00" fill="#000000">LatinSmallLetterM</text>
</a>
</g>
</g>
<!-- Milli&#45;&gt;LatinSmallLetterM -->
<g id="edge7" class="edge">
<title>Milli&#45;&gt;LatinSmallLetterM</title>
<path fill="none" stroke="#000000" d="M42.4258,-34.6992C48.1508,-43.2867 55.2627,-53.9546 61.7083,-63.623"/>
<polygon fill="none" stroke="#000000" points="58.9223,-65.7538 67.3815,-72.1329 64.7467,-61.8709 58.9223,-65.7538"/>
</g>
<!-- Metre -->
<g id="node2" class="node">
<title>Metre</title>
<g id="a_node2"><a xlink:href="http://emmo.info/emmo/middle/siunits#EMMO_7db11dbf_a643_464a_9b56_07eabcc3e9c5" xlink:title="Metre">
<ellipse fill="#ffffcc" stroke="#000000" cx="110.293" cy="-18" rx="32.4942" ry="18"/>
<text text-anchor="middle" x="110.293" y="-14.3" font-family="Times,serif" font-size="14.00" fill="#000000">Metre</text>
</a>
</g>
</g>
<!-- Metre&#45;&gt;LatinSmallLetterM -->
<g id="edge8" class="edge">
<title>Metre&#45;&gt;LatinSmallLetterM</title>
<path fill="none" stroke="#000000" d="M102.63,-35.7978C99.1539,-43.8713 94.9642,-53.6024 91.0997,-62.578"/>
<polygon fill="none" stroke="#000000" points="87.823,-61.3379 87.0831,-71.9069 94.2524,-64.1062 87.823,-61.3379"/>
</g>
<!-- UTF8 -->
<g id="node11" class="node">
<title>UTF8</title>
<g id="a_node11"><a xlink:href="http://emmo.info/emmo/middle/metrology#EMMO_e13b2173_1dec_4b97_9ac1_1dc4b418612a" xlink:title="UTF8">
<ellipse fill="#ffffcc" stroke="#000000" stroke-width="2" cx="388.293" cy="-162" rx="31.6951" ry="18"/>
<text text-anchor="middle" x="388.293" y="-158.3" font-family="Times,serif" font-size="14.00" fill="#000000">UTF8</text>
</a>
</g>
</g>
<!-- LatinSmallLetterM&#45;&gt;UTF8 -->
<g id="edge4" class="edge">
<title>LatinSmallLetterM&#45;&gt;UTF8</title>
<path fill="none" stroke="#000000" d="M134.8928,-102.9553C196.5959,-117.3327 294.606,-140.17 348.877,-152.8157"/>
<polygon fill="none" stroke="#000000" points="348.2702,-156.268 358.8036,-155.1287 349.8588,-149.4506 348.2702,-156.268"/>
</g>
<!-- Micro -->
<g id="node4" class="node">
<title>Micro</title>
<g id="a_node4"><a xlink:href="http://emmo.info/emmo/middle/siunits#EMMO_9ff3bf8e_2168_406e_8251_1d158fc948ae" xlink:title="Micro">
<ellipse fill="#ffffcc" stroke="#000000" cx="224.293" cy="-18" rx="32.4942" ry="18"/>
<text text-anchor="middle" x="224.293" y="-14.3" font-family="Times,serif" font-size="14.00" fill="#000000">Micro</text>
</a>
</g>
</g>
<!-- MicroUnit -->
<g id="node5" class="node">
<title>MicroUnit</title>
<g id="a_node5"><a xlink:href="http://emmo.info/emmo/middle/metrology#EMMO_2cfdcca6_6231_48aa_81b5_388b464bfe80" xlink:title="MicroUnit">
<ellipse fill="#ffc880" stroke="#000000" cx="224.293" cy="-90" rx="48.1917" ry="18"/>
<text text-anchor="middle" x="224.293" y="-86.3" font-family="Times,serif" font-size="14.00" fill="#000000">MicroUnit</text>
</a>
</g>
</g>
<!-- Micro&#45;&gt;MicroUnit -->
<g id="edge10" class="edge">
<title>Micro&#45;&gt;MicroUnit</title>
<path fill="none" stroke="#000000" d="M224.293,-36.1686C224.293,-43.869 224.293,-53.0257 224.293,-61.5834"/>
<polygon fill="none" stroke="#000000" points="220.7931,-61.5867 224.293,-71.5867 227.7931,-61.5868 220.7931,-61.5867"/>
</g>
<!-- MicroUnit&#45;&gt;UTF8 -->
<g id="edge5" class="edge">
<title>MicroUnit&#45;&gt;UTF8</title>
<path fill="none" stroke="#000000" d="M255.5261,-103.7121C283.5811,-116.0289 324.7071,-134.0843 353.7381,-146.8296"/>
<polygon fill="none" stroke="#000000" points="352.5199,-150.1172 363.0834,-150.9324 355.3339,-143.7077 352.5199,-150.1172"/>
</g>
<!-- Space -->
<g id="node6" class="node">
<title>Space</title>
<g id="a_node6"><a xlink:href="http://emmo.info/emmo/middle/metrology#EMMO_ea192c80_6029_4410_863c_8eed7ea52037" xlink:title="Space">
<ellipse fill="#ffc880" stroke="#000000" cx="322.293" cy="-90" rx="31.6951" ry="18"/>
<text text-anchor="middle" x="322.293" y="-86.3" font-family="Times,serif" font-size="14.00" fill="#000000">Space</text>
</a>
</g>
</g>
<!-- Space&#45;&gt;UTF8 -->
<g id="edge6" class="edge">
<title>Space&#45;&gt;UTF8</title>
<path fill="none" stroke="#000000" d="M337.2694,-106.3379C345.8767,-115.7277 356.8438,-127.6918 366.4028,-138.1198"/>
<polygon fill="none" stroke="#000000" points="364.0385,-140.7202 373.3758,-145.7267 369.1986,-135.9901 364.0385,-140.7202"/>
</g>
<!-- LatinCapitalLetterA -->
<g id="node7" class="node">
<title>LatinCapitalLetterA</title>
<g id="a_node7"><a xlink:href="http://emmo.info/emmo/middle/metrology#EMMO_2125f2d0_5050_49e3_a579_4c74bc9fd02e" xlink:title="LatinCapitalLetterA">
<ellipse fill="#ffc880" stroke="#000000" cx="454.293" cy="-90" rx="81.7856" ry="18"/>
<text text-anchor="middle" x="454.293" y="-86.3" font-family="Times,serif" font-size="14.00" fill="#000000">LatinCapitalLetterA</text>
</a>
</g>
</g>
<!-- LatinCapitalLetterA&#45;&gt;UTF8 -->
<g id="edge3" class="edge">
<title>LatinCapitalLetterA&#45;&gt;UTF8</title>
<path fill="none" stroke="#000000" d="M437.9784,-107.7978C429.5445,-116.9983 419.1376,-128.3513 410.0308,-138.2859"/>
<polygon fill="none" stroke="#000000" points="407.2459,-136.1444 403.0687,-145.881 412.406,-140.8745 407.2459,-136.1444"/>
</g>
<!-- Atto -->
<g id="node8" class="node">
<title>Atto</title>
<g id="a_node8"><a xlink:href="http://emmo.info/emmo/middle/siunits#EMMO_42955b2d_b465_4666_86cc_ea3c2d685753" xlink:title="Atto">
<ellipse fill="#ffffcc" stroke="#000000" cx="823.293" cy="-18" rx="27" ry="18"/>
<text text-anchor="middle" x="823.293" y="-14.3" font-family="Times,serif" font-size="14.00" fill="#000000">Atto</text>
</a>
</g>
</g>
<!-- LatinSmallLetterA -->
<g id="node10" class="node">
<title>LatinSmallLetterA</title>
<g id="a_node10"><a xlink:href="http://emmo.info/emmo/middle/metrology#EMMO_cfcf0f48_09ac_4770_a06a_684a42b4a14c" xlink:title="LatinSmallLetterA">
<ellipse fill="#ffc880" stroke="#000000" cx="823.293" cy="-90" rx="77.1866" ry="18"/>
<text text-anchor="middle" x="823.293" y="-86.3" font-family="Times,serif" font-size="14.00" fill="#000000">LatinSmallLetterA</text>
</a>
</g>
</g>
<!-- Atto&#45;&gt;LatinSmallLetterA -->
<g id="edge9" class="edge">
<title>Atto&#45;&gt;LatinSmallLetterA</title>
<path fill="none" stroke="#000000" d="M823.293,-36.1686C823.293,-43.869 823.293,-53.0257 823.293,-61.5834"/>
<polygon fill="none" stroke="#000000" points="819.7931,-61.5867 823.293,-71.5867 826.7931,-61.5868 819.7931,-61.5867"/>
</g>
<!-- GreekSmallLetterMu -->
<g id="node9" class="node">
<title>GreekSmallLetterMu</title>
<g id="a_node9"><a xlink:href="http://emmo.info/emmo/middle/metrology#EMMO_1e9c2a4b_abb9_4b27_bd9c_e31aac337a04" xlink:title="GreekSmallLetterMu">
<ellipse fill="#ffc880" stroke="#000000" cx="641.293" cy="-90" rx="87.1846" ry="18"/>
<text text-anchor="middle" x="641.293" y="-86.3" font-family="Times,serif" font-size="14.00" fill="#000000">GreekSmallLetterMu</text>
</a>
</g>
</g>
<!-- GreekSmallLetterMu&#45;&gt;UTF8 -->
<g id="edge2" class="edge">
<title>GreekSmallLetterMu&#45;&gt;UTF8</title>
<path fill="none" stroke="#000000" d="M590.0946,-104.5703C541.7369,-118.3322 470.2963,-138.6631 426.6624,-151.0806"/>
<polygon fill="none" stroke="#000000" points="425.6561,-147.728 416.996,-153.8315 427.5721,-154.4606 425.6561,-147.728"/>
</g>
<!-- LatinSmallLetterA&#45;&gt;UTF8 -->
<g id="edge11" class="edge">
<title>LatinSmallLetterA&#45;&gt;UTF8</title>
<path fill="none" stroke="#000000" d="M766.4764,-102.3339C756.7576,-104.3169 746.7479,-106.2803 737.293,-108 626.4979,-128.1518 495.0331,-147.1844 429.5928,-156.3302"/>
<polygon fill="none" stroke="#000000" points="429.092,-152.8661 419.6702,-157.7119 430.0574,-159.7992 429.092,-152.8661"/>
</g>
<!-- Ampere -->
<g id="node12" class="node">
<title>Ampere</title>
<g id="a_node12"><a xlink:href="http://emmo.info/emmo/middle/siunits#EMMO_db5dd38d_ac79_4af6_8782_fee7e7150ae8" xlink:title="Ampere">
<ellipse fill="#ffffcc" stroke="#000000" cx="454.293" cy="-18" rx="39.7935" ry="18"/>
<text text-anchor="middle" x="454.293" y="-14.3" font-family="Times,serif" font-size="14.00" fill="#000000">Ampere</text>
</a>
</g>
</g>
<!-- Ampere&#45;&gt;LatinCapitalLetterA -->
<g id="edge1" class="edge">
<title>Ampere&#45;&gt;LatinCapitalLetterA</title>
<path fill="none" stroke="#000000" d="M454.293,-36.1686C454.293,-43.869 454.293,-53.0257 454.293,-61.5834"/>
<polygon fill="none" stroke="#000000" points="450.7931,-61.5867 454.293,-71.5867 457.7931,-61.5868 450.7931,-61.5867"/>
</g>
<!-- key1 -->
<g id="node13" class="node">
<title>key1</title>
<text text-anchor="start" x="886.293" y="-13.8" font-family="Times,serif" font-size="14.00" fill="#000000">isA</text>
</g>
<!-- key2 -->
<g id="node14" class="node">
<title>key2</title>
<text text-anchor="start" x="965.293" y="-13.8" font-family="Times,serif" font-size="14.00" fill="#000000"> </text>
</g>
<!-- key1&#45;&gt;key2 -->
<g id="edge12" class="edge">
<title>key1:e&#45;&gt;key2:w</title>
<path fill="none" stroke="#000000" d="M907.293,-19C928.293,-19 936.0039,-19 952.8511,-19"/>
<polygon fill="none" stroke="#000000" points="953.293,-22.5001 963.293,-19 953.2929,-15.5001 953.293,-22.5001"/>
</g>
</g>
</svg>
