<?xml version="1.0" encoding="UTF-8" standalone="no"?>
<!DOCTYPE svg PUBLIC "-//W3C//DTD SVG 1.1//EN"
 "http://www.w3.org/Graphics/SVG/1.1/DTD/svg11.dtd">
<!-- Generated by graphviz version 2.40.1 (20161225.0304)
 -->
<!-- Title: %3 Pages: 1 -->
<svg width="1045pt" height="188pt"
 viewBox="0.00 0.00 1045.10 188.00" xmlns="http://www.w3.org/2000/svg" xmlns:xlink="http://www.w3.org/1999/xlink">
<g id="graph0" class="graph" transform="scale(1 1) rotate(0) translate(4 184)">
<title>%3</title>
<polygon fill="#ffffff" stroke="transparent" points="-4,4 -4,-184 1041.0957,-184 1041.0957,4 -4,4"/>
<!-- Micro -->
<g id="node1" class="node">
<title>Micro</title>
<g id="a_node1"><a xlink:href="http://emmo.info/emmo/middle/siunits#EMMO_9ff3bf8e_2168_406e_8251_1d158fc948ae" xlink:title="Micro">
<ellipse fill="#ffffcc" stroke="#000000" cx="48.0957" cy="-18" rx="32.4942" ry="18"/>
<text text-anchor="middle" x="48.0957" y="-14.3" font-family="Times,serif" font-size="14.00" fill="#000000">Micro</text>
</a>
</g>
</g>
<!-- MicroUnit -->
<g id="node2" class="node">
<title>MicroUnit</title>
<g id="a_node2"><a xlink:href="http://emmo.info/emmo/middle/metrology#EMMO_2cfdcca6_6231_48aa_81b5_388b464bfe80" xlink:title="MicroUnit">
<ellipse fill="#ffc880" stroke="#000000" cx="48.0957" cy="-90" rx="48.1917" ry="18"/>
<text text-anchor="middle" x="48.0957" y="-86.3" font-family="Times,serif" font-size="14.00" fill="#000000">MicroUnit</text>
</a>
</g>
</g>
<!-- Micro&#45;&gt;MicroUnit -->
<g id="edge4" class="edge">
<title>Micro&#45;&gt;MicroUnit</title>
<path fill="none" stroke="#000000" d="M48.0957,-36.1686C48.0957,-43.869 48.0957,-53.0257 48.0957,-61.5834"/>
<polygon fill="none" stroke="#000000" points="44.5958,-61.5867 48.0957,-71.5867 51.5958,-61.5868 44.5958,-61.5867"/>
</g>
<!-- UTF8 -->
<g id="node8" class="node">
<title>UTF8</title>
<g id="a_node8"><a xlink:href="http://emmo.info/emmo/middle/metrology#EMMO_e13b2173_1dec_4b97_9ac1_1dc4b418612a" xlink:title="UTF8">
<ellipse fill="#ffffcc" stroke="#000000" stroke-width="2" cx="451.0957" cy="-162" rx="31.6951" ry="18"/>
<text text-anchor="middle" x="451.0957" y="-158.3" font-family="Times,serif" font-size="14.00" fill="#000000">UTF8</text>
</a>
</g>
</g>
<!-- MicroUnit&#45;&gt;UTF8 -->
<g id="edge1" class="edge">
<title>MicroUnit&#45;&gt;UTF8</title>
<path fill="none" stroke="#000000" d="M83.7458,-102.1649C90.7701,-104.3039 98.1244,-106.3651 105.0957,-108 213.59,-133.4432 344.0993,-150.1352 409.478,-157.564"/>
<polygon fill="none" stroke="#000000" points="409.4486,-161.0826 419.7763,-158.7185 410.2285,-154.1262 409.4486,-161.0826"/>
</g>
<!-- LatinCapitalLetterA -->
<g id="node3" class="node">
<title>LatinCapitalLetterA</title>
<g id="a_node3"><a xlink:href="http://emmo.info/emmo/middle/metrology#EMMO_2125f2d0_5050_49e3_a579_4c74bc9fd02e" xlink:title="LatinCapitalLetterA">
<ellipse fill="#ffc880" stroke="#000000" cx="196.0957" cy="-90" rx="81.7856" ry="18"/>
<text text-anchor="middle" x="196.0957" y="-86.3" font-family="Times,serif" font-size="14.00" fill="#000000">LatinCapitalLetterA</text>
</a>
</g>
</g>
<!-- LatinCapitalLetterA&#45;&gt;UTF8 -->
<g id="edge11" class="edge">
<title>LatinCapitalLetterA&#45;&gt;UTF8</title>
<path fill="none" stroke="#000000" d="M246.4755,-104.2249C295.356,-118.0264 368.46,-138.6675 412.7741,-151.1798"/>
<polygon fill="none" stroke="#000000" points="412.0057,-154.5996 422.5805,-153.9486 413.9078,-147.863 412.0057,-154.5996"/>
</g>
<!-- Atto -->
<g id="node4" class="node">
<title>Atto</title>
<g id="a_node4"><a xlink:href="http://emmo.info/emmo/middle/siunits#EMMO_42955b2d_b465_4666_86cc_ea3c2d685753" xlink:title="Atto">
<ellipse fill="#ffffcc" stroke="#000000" cx="647.0957" cy="-18" rx="27" ry="18"/>
<text text-anchor="middle" x="647.0957" y="-14.3" font-family="Times,serif" font-size="14.00" fill="#000000">Atto</text>
</a>
</g>
</g>
<!-- LatinSmallLetterA -->
<g id="node7" class="node">
<title>LatinSmallLetterA</title>
<g id="a_node7"><a xlink:href="http://emmo.info/emmo/middle/metrology#EMMO_cfcf0f48_09ac_4770_a06a_684a42b4a14c" xlink:title="LatinSmallLetterA">
<ellipse fill="#ffc880" stroke="#000000" cx="647.0957" cy="-90" rx="77.1866" ry="18"/>
<text text-anchor="middle" x="647.0957" y="-86.3" font-family="Times,serif" font-size="14.00" fill="#000000">LatinSmallLetterA</text>
</a>
</g>
</g>
<!-- Atto&#45;&gt;LatinSmallLetterA -->
<g id="edge2" class="edge">
<title>Atto&#45;&gt;LatinSmallLetterA</title>
<path fill="none" stroke="#000000" d="M647.0957,-36.1686C647.0957,-43.869 647.0957,-53.0257 647.0957,-61.5834"/>
<polygon fill="none" stroke="#000000" points="643.5958,-61.5867 647.0957,-71.5867 650.5958,-61.5868 643.5958,-61.5867"/>
</g>
<!-- GreekSmallLetterMu -->
<g id="node5" class="node">
<title>GreekSmallLetterMu</title>
<g id="a_node5"><a xlink:href="http://emmo.info/emmo/middle/metrology#EMMO_1e9c2a4b_abb9_4b27_bd9c_e31aac337a04" xlink:title="GreekSmallLetterMu">
<ellipse fill="#ffc880" stroke="#000000" cx="383.0957" cy="-90" rx="87.1846" ry="18"/>
<text text-anchor="middle" x="383.0957" y="-86.3" font-family="Times,serif" font-size="14.00" fill="#000000">GreekSmallLetterMu</text>
</a>
</g>
</g>
<!-- GreekSmallLetterMu&#45;&gt;UTF8 -->
<g id="edge6" class="edge">
<title>GreekSmallLetterMu&#45;&gt;UTF8</title>
<path fill="none" stroke="#000000" d="M399.9047,-107.7978C408.6801,-117.0894 419.5289,-128.5763 428.9774,-138.5806"/>
<polygon fill="none" stroke="#000000" points="426.4614,-141.0141 435.8723,-145.881 431.5505,-136.2077 426.4614,-141.0141"/>
</g>
<!-- Space -->
<g id="node6" class="node">
<title>Space</title>
<g id="a_node6"><a xlink:href="http://emmo.info/emmo/middle/metrology#EMMO_ea192c80_6029_4410_863c_8eed7ea52037" xlink:title="Space">
<ellipse fill="#ffc880" stroke="#000000" cx="520.0957" cy="-90" rx="31.6951" ry="18"/>
<text text-anchor="middle" x="520.0957" y="-86.3" font-family="Times,serif" font-size="14.00" fill="#000000">Space</text>
</a>
</g>
</g>
<!-- Space&#45;&gt;UTF8 -->
<g id="edge5" class="edge">
<title>Space&#45;&gt;UTF8</title>
<path fill="none" stroke="#000000" d="M504.7824,-105.9791C495.5812,-115.5804 483.7103,-127.9674 473.4716,-138.6512"/>
<polygon fill="none" stroke="#000000" points="470.7584,-136.4239 466.3663,-146.0655 475.8123,-141.2673 470.7584,-136.4239"/>
</g>
<!-- LatinSmallLetterA&#45;&gt;UTF8 -->
<g id="edge9" class="edge">
<title>LatinSmallLetterA&#45;&gt;UTF8</title>
<path fill="none" stroke="#000000" d="M605.5292,-105.2693C570.4487,-118.156 520.7332,-136.4189 487.2717,-148.7109"/>
<polygon fill="none" stroke="#000000" points="486.0472,-145.4319 477.8673,-152.1655 488.4609,-152.0026 486.0472,-145.4319"/>
</g>
<!-- Ampere -->
<g id="node9" class="node">
<title>Ampere</title>
<g id="a_node9"><a xlink:href="http://emmo.info/emmo/middle/siunits#EMMO_db5dd38d_ac79_4af6_8782_fee7e7150ae8" xlink:title="Ampere">
<ellipse fill="#ffffcc" stroke="#000000" cx="196.0957" cy="-18" rx="39.7935" ry="18"/>
<text text-anchor="middle" x="196.0957" y="-14.3" font-family="Times,serif" font-size="14.00" fill="#000000">Ampere</text>
</a>
</g>
</g>
<!-- Ampere&#45;&gt;LatinCapitalLetterA -->
<g id="edge3" class="edge">
<title>Ampere&#45;&gt;LatinCapitalLetterA</title>
<path fill="none" stroke="#000000" d="M196.0957,-36.1686C196.0957,-43.869 196.0957,-53.0257 196.0957,-61.5834"/>
<polygon fill="none" stroke="#000000" points="192.5958,-61.5867 196.0957,-71.5867 199.5958,-61.5868 192.5958,-61.5867"/>
</g>
<!-- Milli -->
<g id="node10" class="node">
<title>Milli</title>
<g id="a_node10"><a xlink:href="http://emmo.info/emmo/middle/siunits#EMMO_a3a701ed_6f7d_4a10_9aee_dfa1961fc7b7" xlink:title="Milli">
<ellipse fill="#ffffcc" stroke="#000000" cx="782.0957" cy="-18" rx="28.6953" ry="18"/>
<text text-anchor="middle" x="782.0957" y="-14.3" font-family="Times,serif" font-size="14.00" fill="#000000">Milli</text>
</a>
</g>
</g>
<!-- LatinSmallLetterM -->
<g id="node12" class="node">
<title>LatinSmallLetterM</title>
<g id="a_node12"><a xlink:href="http://emmo.info/emmo/middle/metrology#EMMO_aa0d5cde_cbdc_4815_b46d_2f76b00a6bde" xlink:title="LatinSmallLetterM">
<ellipse fill="#ffc880" stroke="#000000" cx="822.0957" cy="-90" rx="79.0865" ry="18"/>
<text text-anchor="middle" x="822.0957" y="-86.3" font-family="Times,serif" font-size="14.00" fill="#000000">LatinSmallLetterM</text>
</a>
</g>
</g>
<!-- Milli&#45;&gt;LatinSmallLetterM -->
<g id="edge10" class="edge">
<title>Milli&#45;&gt;LatinSmallLetterM</title>
<path fill="none" stroke="#000000" d="M791.5752,-35.063C796.2188,-43.4215 801.9202,-53.6841 807.1332,-63.0675"/>
<polygon fill="none" stroke="#000000" points="804.2101,-65.0129 812.1261,-72.0547 810.3292,-61.6134 804.2101,-65.0129"/>
</g>
<!-- Metre -->
<g id="node11" class="node">
<title>Metre</title>
<g id="a_node11"><a xlink:href="http://emmo.info/emmo/middle/siunits#EMMO_7db11dbf_a643_464a_9b56_07eabcc3e9c5" xlink:title="Metre">
<ellipse fill="#ffffcc" stroke="#000000" cx="861.0957" cy="-18" rx="32.4942" ry="18"/>
<text text-anchor="middle" x="861.0957" y="-14.3" font-family="Times,serif" font-size="14.00" fill="#000000">Metre</text>
</a>
</g>
</g>
<!-- Metre&#45;&gt;LatinSmallLetterM -->
<g id="edge7" class="edge">
<title>Metre&#45;&gt;LatinSmallLetterM</title>
<path fill="none" stroke="#000000" d="M851.6549,-35.4292C847.1575,-43.7321 841.6771,-53.8498 836.6625,-63.1075"/>
<polygon fill="none" stroke="#000000" points="833.5422,-61.5195 831.8569,-71.9794 839.6973,-64.8535 833.5422,-61.5195"/>
</g>
<!-- LatinSmallLetterM&#45;&gt;UTF8 -->
<g id="edge8" class="edge">
<title>LatinSmallLetterM&#45;&gt;UTF8</title>
<path fill="none" stroke="#000000" d="M762.7496,-102.0915C752.8505,-104.0829 742.6855,-106.1121 733.0957,-108 647.1733,-124.9149 546.3765,-144.0445 491.5833,-154.3834"/>
<polygon fill="none" stroke="#000000" points="490.757,-150.9775 481.5788,-156.2699 492.0542,-157.8562 490.757,-150.9775"/>
</g>
<!-- key1 -->
<g id="node13" class="node">
<title>key1</title>
<text text-anchor="start" x="929.0957" y="-13.8" font-family="Times,serif" font-size="14.00" fill="#000000">isA</text>
</g>
<!-- key2 -->
<g id="node14" class="node">
<title>key2</title>
<text text-anchor="start" x="1008.0957" y="-13.8" font-family="Times,serif" font-size="14.00" fill="#000000"> </text>
</g>
<!-- key1&#45;&gt;key2 -->
<g id="edge12" class="edge">
<title>key1:e&#45;&gt;key2:w</title>
<path fill="none" stroke="#000000" d="M950.0957,-19C971.0957,-19 978.8067,-19 995.6538,-19"/>
<polygon fill="none" stroke="#000000" points="996.0958,-22.5001 1006.0957,-19 996.0957,-15.5001 996.0958,-22.5001"/>
</g>
</g>
</svg>
