<?xml version="1.0" encoding="UTF-8" standalone="no"?>
<!DOCTYPE svg PUBLIC "-//W3C//DTD SVG 1.1//EN"
 "http://www.w3.org/Graphics/SVG/1.1/DTD/svg11.dtd">
<!-- Generated by graphviz version 2.40.1 (20161225.0304)
 -->
<!-- Title: %3 Pages: 1 -->
<svg width="1002pt" height="188pt"
 viewBox="0.00 0.00 1001.89 188.00" xmlns="http://www.w3.org/2000/svg" xmlns:xlink="http://www.w3.org/1999/xlink">
<g id="graph0" class="graph" transform="scale(1 1) rotate(0) translate(4 184)">
<title>%3</title>
<polygon fill="#ffffff" stroke="transparent" points="-4,4 -4,-184 997.8927,-184 997.8927,4 -4,4"/>
<!-- Ampere -->
<g id="node1" class="node">
<title>Ampere</title>
<g id="a_node1"><a xlink:href="http://emmo.info/emmo/middle/siunits#EMMO_db5dd38d_ac79_4af6_8782_fee7e7150ae8" xlink:title="Ampere">
<ellipse fill="#ffffcc" stroke="#000000" cx="81.8927" cy="-18" rx="39.7935" ry="18"/>
<text text-anchor="middle" x="81.8927" y="-14.3" font-family="Times,serif" font-size="14.00" fill="#000000">Ampere</text>
</a>
</g>
</g>
<!-- LatinCapitalLetterA -->
<g id="node8" class="node">
<title>LatinCapitalLetterA</title>
<g id="a_node8"><a xlink:href="http://emmo.info/emmo/middle/metrology#EMMO_2125f2d0_5050_49e3_a579_4c74bc9fd02e" xlink:title="LatinCapitalLetterA">
<ellipse fill="#ffc880" stroke="#000000" cx="81.8927" cy="-90" rx="81.7856" ry="18"/>
<text text-anchor="middle" x="81.8927" y="-86.3" font-family="Times,serif" font-size="14.00" fill="#000000">LatinCapitalLetterA</text>
</a>
</g>
</g>
<!-- Ampere&#45;&gt;LatinCapitalLetterA -->
<g id="edge11" class="edge">
<title>Ampere&#45;&gt;LatinCapitalLetterA</title>
<path fill="none" stroke="#000000" d="M81.8927,-36.1686C81.8927,-43.869 81.8927,-53.0257 81.8927,-61.5834"/>
<polygon fill="none" stroke="#000000" points="78.3928,-61.5867 81.8927,-71.5867 85.3928,-61.5868 78.3928,-61.5867"/>
</g>
<!-- Milli -->
<g id="node2" class="node">
<title>Milli</title>
<g id="a_node2"><a xlink:href="http://emmo.info/emmo/middle/siunits#EMMO_a3a701ed_6f7d_4a10_9aee_dfa1961fc7b7" xlink:title="Milli">
<ellipse fill="#ffffcc" stroke="#000000" cx="294.8927" cy="-18" rx="28.6953" ry="18"/>
<text text-anchor="middle" x="294.8927" y="-14.3" font-family="Times,serif" font-size="14.00" fill="#000000">Milli</text>
</a>
</g>
</g>
<!-- LatinSmallLetterM -->
<g id="node5" class="node">
<title>LatinSmallLetterM</title>
<g id="a_node5"><a xlink:href="http://emmo.info/emmo/middle/metrology#EMMO_aa0d5cde_cbdc_4815_b46d_2f76b00a6bde" xlink:title="LatinSmallLetterM">
<ellipse fill="#ffc880" stroke="#000000" cx="342.8927" cy="-90" rx="79.0865" ry="18"/>
<text text-anchor="middle" x="342.8927" y="-86.3" font-family="Times,serif" font-size="14.00" fill="#000000">LatinSmallLetterM</text>
</a>
</g>
</g>
<!-- Milli&#45;&gt;LatinSmallLetterM -->
<g id="edge9" class="edge">
<title>Milli&#45;&gt;LatinSmallLetterM</title>
<path fill="none" stroke="#000000" d="M306.0255,-34.6992C311.7506,-43.2867 318.8625,-53.9546 325.3081,-63.623"/>
<polygon fill="none" stroke="#000000" points="322.5221,-65.7538 330.9813,-72.1329 328.3465,-61.8709 322.5221,-65.7538"/>
</g>
<!-- Space -->
<g id="node3" class="node">
<title>Space</title>
<g id="a_node3"><a xlink:href="http://emmo.info/emmo/middle/metrology#EMMO_ea192c80_6029_4410_863c_8eed7ea52037" xlink:title="Space">
<ellipse fill="#ffc880" stroke="#000000" cx="213.8927" cy="-90" rx="31.6951" ry="18"/>
<text text-anchor="middle" x="213.8927" y="-86.3" font-family="Times,serif" font-size="14.00" fill="#000000">Space</text>
</a>
</g>
</g>
<!-- UTF8 -->
<g id="node12" class="node">
<title>UTF8</title>
<g id="a_node12"><a xlink:href="http://emmo.info/emmo/middle/metrology#EMMO_e13b2173_1dec_4b97_9ac1_1dc4b418612a" xlink:title="UTF8">
<ellipse fill="#ffffcc" stroke="#000000" stroke-width="2" cx="414.8927" cy="-162" rx="31.6951" ry="18"/>
<text text-anchor="middle" x="414.8927" y="-158.3" font-family="Times,serif" font-size="14.00" fill="#000000">UTF8</text>
</a>
</g>
</g>
<!-- Space&#45;&gt;UTF8 -->
<g id="edge1" class="edge">
<title>Space&#45;&gt;UTF8</title>
<path fill="none" stroke="#000000" d="M238.8988,-101.3959C244.147,-103.6697 249.6735,-105.9781 254.8927,-108 296.2663,-124.0279 344.6411,-139.9779 377.279,-150.3404"/>
<polygon fill="none" stroke="#000000" points="376.2878,-153.6977 386.8776,-153.3708 378.3953,-147.0225 376.2878,-153.6977"/>
</g>
<!-- Metre -->
<g id="node4" class="node">
<title>Metre</title>
<g id="a_node4"><a xlink:href="http://emmo.info/emmo/middle/siunits#EMMO_7db11dbf_a643_464a_9b56_07eabcc3e9c5" xlink:title="Metre">
<ellipse fill="#ffffcc" stroke="#000000" cx="373.8927" cy="-18" rx="32.4942" ry="18"/>
<text text-anchor="middle" x="373.8927" y="-14.3" font-family="Times,serif" font-size="14.00" fill="#000000">Metre</text>
</a>
</g>
</g>
<!-- Metre&#45;&gt;LatinSmallLetterM -->
<g id="edge5" class="edge">
<title>Metre&#45;&gt;LatinSmallLetterM</title>
<path fill="none" stroke="#000000" d="M366.2298,-35.7978C362.7537,-43.8713 358.5639,-53.6024 354.6994,-62.578"/>
<polygon fill="none" stroke="#000000" points="351.4228,-61.3379 350.6828,-71.9069 357.8522,-64.1062 351.4228,-61.3379"/>
</g>
<!-- LatinSmallLetterM&#45;&gt;UTF8 -->
<g id="edge10" class="edge">
<title>LatinSmallLetterM&#45;&gt;UTF8</title>
<path fill="none" stroke="#000000" d="M360.6905,-107.7978C369.9821,-117.0894 381.4691,-128.5763 391.4734,-138.5806"/>
<polygon fill="none" stroke="#000000" points="389.2278,-141.2848 398.7738,-145.881 394.1775,-136.335 389.2278,-141.2848"/>
</g>
<!-- Micro -->
<g id="node6" class="node">
<title>Micro</title>
<g id="a_node6"><a xlink:href="http://emmo.info/emmo/middle/siunits#EMMO_9ff3bf8e_2168_406e_8251_1d158fc948ae" xlink:title="Micro">
<ellipse fill="#ffffcc" stroke="#000000" cx="487.8927" cy="-18" rx="32.4942" ry="18"/>
<text text-anchor="middle" x="487.8927" y="-14.3" font-family="Times,serif" font-size="14.00" fill="#000000">Micro</text>
</a>
</g>
</g>
<!-- MicroUnit -->
<g id="node7" class="node">
<title>MicroUnit</title>
<g id="a_node7"><a xlink:href="http://emmo.info/emmo/middle/metrology#EMMO_2cfdcca6_6231_48aa_81b5_388b464bfe80" xlink:title="MicroUnit">
<ellipse fill="#ffc880" stroke="#000000" cx="487.8927" cy="-90" rx="48.1917" ry="18"/>
<text text-anchor="middle" x="487.8927" y="-86.3" font-family="Times,serif" font-size="14.00" fill="#000000">MicroUnit</text>
</a>
</g>
</g>
<!-- Micro&#45;&gt;MicroUnit -->
<g id="edge7" class="edge">
<title>Micro&#45;&gt;MicroUnit</title>
<path fill="none" stroke="#000000" d="M487.8927,-36.1686C487.8927,-43.869 487.8927,-53.0257 487.8927,-61.5834"/>
<polygon fill="none" stroke="#000000" points="484.3928,-61.5867 487.8927,-71.5867 491.3928,-61.5868 484.3928,-61.5867"/>
</g>
<!-- MicroUnit&#45;&gt;UTF8 -->
<g id="edge8" class="edge">
<title>MicroUnit&#45;&gt;UTF8</title>
<path fill="none" stroke="#000000" d="M470.5928,-107.063C460.9574,-116.5664 448.8265,-128.5311 438.3474,-138.8666"/>
<polygon fill="none" stroke="#000000" points="435.7303,-136.5319 431.0683,-146.046 440.6458,-141.5157 435.7303,-136.5319"/>
</g>
<!-- LatinCapitalLetterA&#45;&gt;UTF8 -->
<g id="edge3" class="edge">
<title>LatinCapitalLetterA&#45;&gt;UTF8</title>
<path fill="none" stroke="#000000" d="M140.278,-102.6238C207.6722,-117.1956 316.702,-140.7696 375.0438,-153.384"/>
<polygon fill="none" stroke="#000000" points="374.4706,-156.8409 384.9845,-155.5333 375.95,-149.999 374.4706,-156.8409"/>
</g>
<!-- Atto -->
<g id="node9" class="node">
<title>Atto</title>
<g id="a_node9"><a xlink:href="http://emmo.info/emmo/middle/siunits#EMMO_42955b2d_b465_4666_86cc_ea3c2d685753" xlink:title="Atto">
<ellipse fill="#ffffcc" stroke="#000000" cx="822.8927" cy="-18" rx="27" ry="18"/>
<text text-anchor="middle" x="822.8927" y="-14.3" font-family="Times,serif" font-size="14.00" fill="#000000">Atto</text>
</a>
</g>
</g>
<!-- LatinSmallLetterA -->
<g id="node11" class="node">
<title>LatinSmallLetterA</title>
<g id="a_node11"><a xlink:href="http://emmo.info/emmo/middle/metrology#EMMO_cfcf0f48_09ac_4770_a06a_684a42b4a14c" xlink:title="LatinSmallLetterA">
<ellipse fill="#ffc880" stroke="#000000" cx="822.8927" cy="-90" rx="77.1866" ry="18"/>
<text text-anchor="middle" x="822.8927" y="-86.3" font-family="Times,serif" font-size="14.00" fill="#000000">LatinSmallLetterA</text>
</a>
</g>
</g>
<!-- Atto&#45;&gt;LatinSmallLetterA -->
<g id="edge4" class="edge">
<title>Atto&#45;&gt;LatinSmallLetterA</title>
<path fill="none" stroke="#000000" d="M822.8927,-36.1686C822.8927,-43.869 822.8927,-53.0257 822.8927,-61.5834"/>
<polygon fill="none" stroke="#000000" points="819.3928,-61.5867 822.8927,-71.5867 826.3928,-61.5868 819.3928,-61.5867"/>
</g>
<!-- GreekSmallLetterMu -->
<g id="node10" class="node">
<title>GreekSmallLetterMu</title>
<g id="a_node10"><a xlink:href="http://emmo.info/emmo/middle/metrology#EMMO_1e9c2a4b_abb9_4b27_bd9c_e31aac337a04" xlink:title="GreekSmallLetterMu">
<ellipse fill="#ffc880" stroke="#000000" cx="640.8927" cy="-90" rx="87.1846" ry="18"/>
<text text-anchor="middle" x="640.8927" y="-86.3" font-family="Times,serif" font-size="14.00" fill="#000000">GreekSmallLetterMu</text>
</a>
</g>
</g>
<!-- GreekSmallLetterMu&#45;&gt;UTF8 -->
<g id="edge2" class="edge">
<title>GreekSmallLetterMu&#45;&gt;UTF8</title>
<path fill="none" stroke="#000000" d="M593.2401,-105.1814C551.3943,-118.5128 491.3323,-137.6476 452.7135,-149.9509"/>
<polygon fill="none" stroke="#000000" points="451.3681,-146.7061 442.9024,-153.0766 453.493,-153.3758 451.3681,-146.7061"/>
</g>
<!-- LatinSmallLetterA&#45;&gt;UTF8 -->
<g id="edge6" class="edge">
<title>LatinSmallLetterA&#45;&gt;UTF8</title>
<path fill="none" stroke="#000000" d="M766.0573,-102.232C756.3407,-104.2268 746.3366,-106.2206 736.8927,-108 636.3179,-126.9506 517.4378,-146.0314 456.103,-155.632"/>
<polygon fill="none" stroke="#000000" points="455.3911,-152.2006 446.0506,-157.2012 456.4708,-159.1169 455.3911,-152.2006"/>
</g>
<!-- key1 -->
<g id="node13" class="node">
<title>key1</title>
<text text-anchor="start" x="885.8927" y="-13.8" font-family="Times,serif" font-size="14.00" fill="#000000">isA</text>
</g>
<!-- key2 -->
<g id="node14" class="node">
<title>key2</title>
<text text-anchor="start" x="964.8927" y="-13.8" font-family="Times,serif" font-size="14.00" fill="#000000"> </text>
</g>
<!-- key1&#45;&gt;key2 -->
<g id="edge12" class="edge">
<title>key1:e&#45;&gt;key2:w</title>
<path fill="none" stroke="#000000" d="M906.8927,-19C927.8927,-19 935.6037,-19 952.4508,-19"/>
<polygon fill="none" stroke="#000000" points="952.8928,-22.5001 962.8927,-19 952.8927,-15.5001 952.8928,-22.5001"/>
</g>
</g>
</svg>
