<?xml version="1.0" encoding="UTF-8" standalone="no"?>
<!DOCTYPE svg PUBLIC "-//W3C//DTD SVG 1.1//EN"
 "http://www.w3.org/Graphics/SVG/1.1/DTD/svg11.dtd">
<!-- Generated by graphviz version 2.40.1 (20161225.0304)
 -->
<!-- Title: %3 Pages: 1 -->
<svg width="1037pt" height="188pt"
 viewBox="0.00 0.00 1036.89 188.00" xmlns="http://www.w3.org/2000/svg" xmlns:xlink="http://www.w3.org/1999/xlink">
<g id="graph0" class="graph" transform="scale(1 1) rotate(0) translate(4 184)">
<title>%3</title>
<polygon fill="#ffffff" stroke="transparent" points="-4,4 -4,-184 1032.8927,-184 1032.8927,4 -4,4"/>
<!-- MicroUnit -->
<g id="node1" class="node">
<title>MicroUnit</title>
<g id="a_node1"><a xlink:href="http://emmo.info/emmo/middle/metrology#EMMO_2cfdcca6_6231_48aa_81b5_388b464bfe80" xlink:title="MicroUnit">
<ellipse fill="#ffc880" stroke="#000000" cx="852.8927" cy="-90" rx="48.1917" ry="18"/>
<text text-anchor="middle" x="852.8927" y="-86.3" font-family="Times,serif" font-size="14.00" fill="#000000">MicroUnit</text>
</a>
</g>
</g>
<!-- UTF8 -->
<g id="node7" class="node">
<title>UTF8</title>
<g id="a_node7"><a xlink:href="http://emmo.info/emmo/middle/metrology#EMMO_e13b2173_1dec_4b97_9ac1_1dc4b418612a" xlink:title="UTF8">
<ellipse fill="#ffffcc" stroke="#000000" stroke-width="2" cx="468.8927" cy="-162" rx="31.6951" ry="18"/>
<text text-anchor="middle" x="468.8927" y="-158.3" font-family="Times,serif" font-size="14.00" fill="#000000">UTF8</text>
</a>
</g>
</g>
<!-- MicroUnit&#45;&gt;UTF8 -->
<g id="edge6" class="edge">
<title>MicroUnit&#45;&gt;UTF8</title>
<path fill="none" stroke="#000000" d="M817.231,-102.1156C810.2077,-104.2589 802.8568,-106.3343 795.8927,-108 694.5875,-132.2302 573.0414,-149.1946 510.5377,-157.0529"/>
<polygon fill="none" stroke="#000000" points="509.7903,-153.6187 500.2981,-158.3249 510.6533,-160.5653 509.7903,-153.6187"/>
</g>
<!-- LatinCapitalLetterA -->
<g id="node2" class="node">
<title>LatinCapitalLetterA</title>
<g id="a_node2"><a xlink:href="http://emmo.info/emmo/middle/metrology#EMMO_2125f2d0_5050_49e3_a579_4c74bc9fd02e" xlink:title="LatinCapitalLetterA">
<ellipse fill="#ffc880" stroke="#000000" cx="81.8927" cy="-90" rx="81.7856" ry="18"/>
<text text-anchor="middle" x="81.8927" y="-86.3" font-family="Times,serif" font-size="14.00" fill="#000000">LatinCapitalLetterA</text>
</a>
</g>
</g>
<!-- LatinCapitalLetterA&#45;&gt;UTF8 -->
<g id="edge8" class="edge">
<title>LatinCapitalLetterA&#45;&gt;UTF8</title>
<path fill="none" stroke="#000000" d="M142.5656,-102.1313C152.688,-104.1179 163.0835,-106.1352 172.8927,-108 263.959,-125.3123 371.0031,-144.5706 428.1162,-154.7584"/>
<polygon fill="none" stroke="#000000" points="427.7253,-158.2438 438.1843,-156.5526 428.9534,-151.3524 427.7253,-158.2438"/>
</g>
<!-- Atto -->
<g id="node3" class="node">
<title>Atto</title>
<g id="a_node3"><a xlink:href="http://emmo.info/emmo/middle/siunits#EMMO_42955b2d_b465_4666_86cc_ea3c2d685753" xlink:title="Atto">
<ellipse fill="#ffffcc" stroke="#000000" cx="532.8927" cy="-18" rx="27" ry="18"/>
<text text-anchor="middle" x="532.8927" y="-14.3" font-family="Times,serif" font-size="14.00" fill="#000000">Atto</text>
</a>
</g>
</g>
<!-- LatinSmallLetterA -->
<g id="node6" class="node">
<title>LatinSmallLetterA</title>
<g id="a_node6"><a xlink:href="http://emmo.info/emmo/middle/metrology#EMMO_cfcf0f48_09ac_4770_a06a_684a42b4a14c" xlink:title="LatinSmallLetterA">
<ellipse fill="#ffc880" stroke="#000000" cx="532.8927" cy="-90" rx="77.1866" ry="18"/>
<text text-anchor="middle" x="532.8927" y="-86.3" font-family="Times,serif" font-size="14.00" fill="#000000">LatinSmallLetterA</text>
</a>
</g>
</g>
<!-- Atto&#45;&gt;LatinSmallLetterA -->
<g id="edge10" class="edge">
<title>Atto&#45;&gt;LatinSmallLetterA</title>
<path fill="none" stroke="#000000" d="M532.8927,-36.1686C532.8927,-43.869 532.8927,-53.0257 532.8927,-61.5834"/>
<polygon fill="none" stroke="#000000" points="529.3928,-61.5867 532.8927,-71.5867 536.3928,-61.5868 529.3928,-61.5867"/>
</g>
<!-- GreekSmallLetterMu -->
<g id="node4" class="node">
<title>GreekSmallLetterMu</title>
<g id="a_node4"><a xlink:href="http://emmo.info/emmo/middle/metrology#EMMO_1e9c2a4b_abb9_4b27_bd9c_e31aac337a04" xlink:title="GreekSmallLetterMu">
<ellipse fill="#ffc880" stroke="#000000" cx="268.8927" cy="-90" rx="87.1846" ry="18"/>
<text text-anchor="middle" x="268.8927" y="-86.3" font-family="Times,serif" font-size="14.00" fill="#000000">GreekSmallLetterMu</text>
</a>
</g>
</g>
<!-- GreekSmallLetterMu&#45;&gt;UTF8 -->
<g id="edge7" class="edge">
<title>GreekSmallLetterMu&#45;&gt;UTF8</title>
<path fill="none" stroke="#000000" d="M312.2898,-105.6229C348.1553,-118.5345 398.505,-136.6604 432.3421,-148.8418"/>
<polygon fill="none" stroke="#000000" points="431.2556,-152.1705 441.85,-152.2646 433.6267,-145.5842 431.2556,-152.1705"/>
</g>
<!-- Space -->
<g id="node5" class="node">
<title>Space</title>
<g id="a_node5"><a xlink:href="http://emmo.info/emmo/middle/metrology#EMMO_ea192c80_6029_4410_863c_8eed7ea52037" xlink:title="Space">
<ellipse fill="#ffc880" stroke="#000000" cx="405.8927" cy="-90" rx="31.6951" ry="18"/>
<text text-anchor="middle" x="405.8927" y="-86.3" font-family="Times,serif" font-size="14.00" fill="#000000">Space</text>
</a>
</g>
</g>
<!-- Space&#45;&gt;UTF8 -->
<g id="edge1" class="edge">
<title>Space&#45;&gt;UTF8</title>
<path fill="none" stroke="#000000" d="M420.1884,-106.3379C428.4045,-115.7277 438.873,-127.6918 447.9976,-138.1198"/>
<polygon fill="none" stroke="#000000" points="445.4345,-140.5057 454.6536,-145.7267 450.7026,-135.8962 445.4345,-140.5057"/>
</g>
<!-- LatinSmallLetterA&#45;&gt;UTF8 -->
<g id="edge4" class="edge">
<title>LatinSmallLetterA&#45;&gt;UTF8</title>
<path fill="none" stroke="#000000" d="M517.0725,-107.7978C508.8943,-116.9983 498.8027,-128.3513 489.9719,-138.2859"/>
<polygon fill="none" stroke="#000000" points="487.2484,-136.0816 483.2207,-145.881 492.4803,-140.7322 487.2484,-136.0816"/>
</g>
<!-- Ampere -->
<g id="node8" class="node">
<title>Ampere</title>
<g id="a_node8"><a xlink:href="http://emmo.info/emmo/middle/siunits#EMMO_db5dd38d_ac79_4af6_8782_fee7e7150ae8" xlink:title="Ampere">
<ellipse fill="#ffffcc" stroke="#000000" cx="81.8927" cy="-18" rx="39.7935" ry="18"/>
<text text-anchor="middle" x="81.8927" y="-14.3" font-family="Times,serif" font-size="14.00" fill="#000000">Ampere</text>
</a>
</g>
</g>
<!-- Ampere&#45;&gt;LatinCapitalLetterA -->
<g id="edge5" class="edge">
<title>Ampere&#45;&gt;LatinCapitalLetterA</title>
<path fill="none" stroke="#000000" d="M81.8927,-36.1686C81.8927,-43.869 81.8927,-53.0257 81.8927,-61.5834"/>
<polygon fill="none" stroke="#000000" points="78.3928,-61.5867 81.8927,-71.5867 85.3928,-61.5868 78.3928,-61.5867"/>
</g>
<!-- Milli -->
<g id="node9" class="node">
<title>Milli</title>
<g id="a_node9"><a xlink:href="http://emmo.info/emmo/middle/siunits#EMMO_a3a701ed_6f7d_4a10_9aee_dfa1961fc7b7" xlink:title="Milli">
<ellipse fill="#ffffcc" stroke="#000000" cx="659.8927" cy="-18" rx="28.6953" ry="18"/>
<text text-anchor="middle" x="659.8927" y="-14.3" font-family="Times,serif" font-size="14.00" fill="#000000">Milli</text>
</a>
</g>
</g>
<!-- LatinSmallLetterM -->
<g id="node11" class="node">
<title>LatinSmallLetterM</title>
<g id="a_node11"><a xlink:href="http://emmo.info/emmo/middle/metrology#EMMO_aa0d5cde_cbdc_4815_b46d_2f76b00a6bde" xlink:title="LatinSmallLetterM">
<ellipse fill="#ffc880" stroke="#000000" cx="707.8927" cy="-90" rx="79.0865" ry="18"/>
<text text-anchor="middle" x="707.8927" y="-86.3" font-family="Times,serif" font-size="14.00" fill="#000000">LatinSmallLetterM</text>
</a>
</g>
</g>
<!-- Milli&#45;&gt;LatinSmallLetterM -->
<g id="edge3" class="edge">
<title>Milli&#45;&gt;LatinSmallLetterM</title>
<path fill="none" stroke="#000000" d="M671.0255,-34.6992C676.7506,-43.2867 683.8625,-53.9546 690.3081,-63.623"/>
<polygon fill="none" stroke="#000000" points="687.5221,-65.7538 695.9813,-72.1329 693.3465,-61.8709 687.5221,-65.7538"/>
</g>
<!-- Metre -->
<g id="node10" class="node">
<title>Metre</title>
<g id="a_node10"><a xlink:href="http://emmo.info/emmo/middle/siunits#EMMO_7db11dbf_a643_464a_9b56_07eabcc3e9c5" xlink:title="Metre">
<ellipse fill="#ffffcc" stroke="#000000" cx="738.8927" cy="-18" rx="32.4942" ry="18"/>
<text text-anchor="middle" x="738.8927" y="-14.3" font-family="Times,serif" font-size="14.00" fill="#000000">Metre</text>
</a>
</g>
</g>
<!-- Metre&#45;&gt;LatinSmallLetterM -->
<g id="edge2" class="edge">
<title>Metre&#45;&gt;LatinSmallLetterM</title>
<path fill="none" stroke="#000000" d="M731.2298,-35.7978C727.7537,-43.8713 723.5639,-53.6024 719.6994,-62.578"/>
<polygon fill="none" stroke="#000000" points="716.4228,-61.3379 715.6828,-71.9069 722.8522,-64.1062 716.4228,-61.3379"/>
</g>
<!-- LatinSmallLetterM&#45;&gt;UTF8 -->
<g id="edge11" class="edge">
<title>LatinSmallLetterM&#45;&gt;UTF8</title>
<path fill="none" stroke="#000000" d="M660.1019,-104.3972C615.0488,-117.9697 548.4162,-138.0431 506.882,-150.5555"/>
<polygon fill="none" stroke="#000000" points="505.7116,-147.2527 497.1463,-153.4885 507.7308,-153.9551 505.7116,-147.2527"/>
</g>
<!-- Micro -->
<g id="node12" class="node">
<title>Micro</title>
<g id="a_node12"><a xlink:href="http://emmo.info/emmo/middle/siunits#EMMO_9ff3bf8e_2168_406e_8251_1d158fc948ae" xlink:title="Micro">
<ellipse fill="#ffffcc" stroke="#000000" cx="852.8927" cy="-18" rx="32.4942" ry="18"/>
<text text-anchor="middle" x="852.8927" y="-14.3" font-family="Times,serif" font-size="14.00" fill="#000000">Micro</text>
</a>
</g>
</g>
<!-- Micro&#45;&gt;MicroUnit -->
<g id="edge9" class="edge">
<title>Micro&#45;&gt;MicroUnit</title>
<path fill="none" stroke="#000000" d="M852.8927,-36.1686C852.8927,-43.869 852.8927,-53.0257 852.8927,-61.5834"/>
<polygon fill="none" stroke="#000000" points="849.3928,-61.5867 852.8927,-71.5867 856.3928,-61.5868 849.3928,-61.5867"/>
</g>
<!-- key1 -->
<g id="node13" class="node">
<title>key1</title>
<text text-anchor="start" x="920.8927" y="-13.8" font-family="Times,serif" font-size="14.00" fill="#000000">isA</text>
</g>
<!-- key2 -->
<g id="node14" class="node">
<title>key2</title>
<text text-anchor="start" x="999.8927" y="-13.8" font-family="Times,serif" font-size="14.00" fill="#000000"> </text>
</g>
<!-- key1&#45;&gt;key2 -->
<g id="edge12" class="edge">
<title>key1:e&#45;&gt;key2:w</title>
<path fill="none" stroke="#000000" d="M941.8927,-19C962.8927,-19 970.6037,-19 987.4508,-19"/>
<polygon fill="none" stroke="#000000" points="987.8928,-22.5001 997.8927,-19 987.8927,-15.5001 987.8928,-22.5001"/>
</g>
</g>
</svg>
